<?xml version="1.0" encoding="utf-8" standalone="no"?>
<!DOCTYPE svg PUBLIC "-//W3C//DTD SVG 1.1//EN"
  "http://www.w3.org/Graphics/SVG/1.1/DTD/svg11.dtd">
<!-- Created with matplotlib (https://matplotlib.org/) -->
<svg height="374.715469pt" version="1.1" viewBox="0 0 726.94375 374.715469" width="726.94375pt" xmlns="http://www.w3.org/2000/svg" xmlns:xlink="http://www.w3.org/1999/xlink">
 <defs>
  <style type="text/css">
*{stroke-linecap:butt;stroke-linejoin:round;white-space:pre;}
  </style>
 </defs>
 <g id="figure_1">
  <g id="patch_1">
   <path d="M 0 374.715469 
L 726.94375 374.715469 
L 726.94375 0 
L 0 0 
z
" style="fill:#ffffff;"/>
  </g>
  <g id="axes_1">
   <g id="patch_2">
    <path d="M 50.14375 337.159219 
L 719.74375 337.159219 
L 719.74375 10.999219 
L 50.14375 10.999219 
z
" style="fill:#ffffff;"/>
   </g>
   <g id="matplotlib.axis_1">
    <g id="xtick_1">
     <g id="line2d_1">
      <path clip-path="url(#pb74e54dec4)" d="M 50.14375 337.159219 
L 50.14375 10.999219 
" style="fill:none;stroke:#b0b0b0;stroke-linecap:square;stroke-width:0.8;"/>
     </g>
     <g id="line2d_2">
      <defs>
       <path d="M 0 0 
L 0 3.5 
" id="me2f28a3f57" style="stroke:#000000;stroke-width:0.8;"/>
      </defs>
      <g>
       <use style="stroke:#000000;stroke-width:0.8;" x="50.14375" xlink:href="#me2f28a3f57" y="337.159219"/>
      </g>
     </g>
     <g id="text_1">
      <!-- 0 -->
      <defs>
       <path d="M 31.78125 66.40625 
Q 24.171875 66.40625 20.328125 58.90625 
Q 16.5 51.421875 16.5 36.375 
Q 16.5 21.390625 20.328125 13.890625 
Q 24.171875 6.390625 31.78125 6.390625 
Q 39.453125 6.390625 43.28125 13.890625 
Q 47.125 21.390625 47.125 36.375 
Q 47.125 51.421875 43.28125 58.90625 
Q 39.453125 66.40625 31.78125 66.40625 
z
M 31.78125 74.21875 
Q 44.046875 74.21875 50.515625 64.515625 
Q 56.984375 54.828125 56.984375 36.375 
Q 56.984375 17.96875 50.515625 8.265625 
Q 44.046875 -1.421875 31.78125 -1.421875 
Q 19.53125 -1.421875 13.0625 8.265625 
Q 6.59375 17.96875 6.59375 36.375 
Q 6.59375 54.828125 13.0625 64.515625 
Q 19.53125 74.21875 31.78125 74.21875 
z
" id="DejaVuSans-48"/>
      </defs>
      <g transform="translate(46.9625 351.757656)scale(0.1 -0.1)">
       <use xlink:href="#DejaVuSans-48"/>
      </g>
     </g>
    </g>
    <g id="xtick_2">
     <g id="line2d_3">
      <path clip-path="url(#pb74e54dec4)" d="M 177.698755 337.159219 
L 177.698755 10.999219 
" style="fill:none;stroke:#b0b0b0;stroke-linecap:square;stroke-width:0.8;"/>
     </g>
     <g id="line2d_4">
      <g>
       <use style="stroke:#000000;stroke-width:0.8;" x="177.698755" xlink:href="#me2f28a3f57" y="337.159219"/>
      </g>
     </g>
     <g id="text_2">
      <!-- 100 -->
      <defs>
       <path d="M 12.40625 8.296875 
L 28.515625 8.296875 
L 28.515625 63.921875 
L 10.984375 60.40625 
L 10.984375 69.390625 
L 28.421875 72.90625 
L 38.28125 72.90625 
L 38.28125 8.296875 
L 54.390625 8.296875 
L 54.390625 0 
L 12.40625 0 
z
" id="DejaVuSans-49"/>
      </defs>
      <g transform="translate(168.155005 351.757656)scale(0.1 -0.1)">
       <use xlink:href="#DejaVuSans-49"/>
       <use x="63.623047" xlink:href="#DejaVuSans-48"/>
       <use x="127.246094" xlink:href="#DejaVuSans-48"/>
      </g>
     </g>
    </g>
    <g id="xtick_3">
     <g id="line2d_5">
      <path clip-path="url(#pb74e54dec4)" d="M 305.25376 337.159219 
L 305.25376 10.999219 
" style="fill:none;stroke:#b0b0b0;stroke-linecap:square;stroke-width:0.8;"/>
     </g>
     <g id="line2d_6">
      <g>
       <use style="stroke:#000000;stroke-width:0.8;" x="305.25376" xlink:href="#me2f28a3f57" y="337.159219"/>
      </g>
     </g>
     <g id="text_3">
      <!-- 200 -->
      <defs>
       <path d="M 19.1875 8.296875 
L 53.609375 8.296875 
L 53.609375 0 
L 7.328125 0 
L 7.328125 8.296875 
Q 12.9375 14.109375 22.625 23.890625 
Q 32.328125 33.6875 34.8125 36.53125 
Q 39.546875 41.84375 41.421875 45.53125 
Q 43.3125 49.21875 43.3125 52.78125 
Q 43.3125 58.59375 39.234375 62.25 
Q 35.15625 65.921875 28.609375 65.921875 
Q 23.96875 65.921875 18.8125 64.3125 
Q 13.671875 62.703125 7.8125 59.421875 
L 7.8125 69.390625 
Q 13.765625 71.78125 18.9375 73 
Q 24.125 74.21875 28.421875 74.21875 
Q 39.75 74.21875 46.484375 68.546875 
Q 53.21875 62.890625 53.21875 53.421875 
Q 53.21875 48.921875 51.53125 44.890625 
Q 49.859375 40.875 45.40625 35.40625 
Q 44.1875 33.984375 37.640625 27.21875 
Q 31.109375 20.453125 19.1875 8.296875 
z
" id="DejaVuSans-50"/>
      </defs>
      <g transform="translate(295.71001 351.757656)scale(0.1 -0.1)">
       <use xlink:href="#DejaVuSans-50"/>
       <use x="63.623047" xlink:href="#DejaVuSans-48"/>
       <use x="127.246094" xlink:href="#DejaVuSans-48"/>
      </g>
     </g>
    </g>
    <g id="xtick_4">
     <g id="line2d_7">
      <path clip-path="url(#pb74e54dec4)" d="M 432.808766 337.159219 
L 432.808766 10.999219 
" style="fill:none;stroke:#b0b0b0;stroke-linecap:square;stroke-width:0.8;"/>
     </g>
     <g id="line2d_8">
      <g>
       <use style="stroke:#000000;stroke-width:0.8;" x="432.808766" xlink:href="#me2f28a3f57" y="337.159219"/>
      </g>
     </g>
     <g id="text_4">
      <!-- 300 -->
      <defs>
       <path d="M 40.578125 39.3125 
Q 47.65625 37.796875 51.625 33 
Q 55.609375 28.21875 55.609375 21.1875 
Q 55.609375 10.40625 48.1875 4.484375 
Q 40.765625 -1.421875 27.09375 -1.421875 
Q 22.515625 -1.421875 17.65625 -0.515625 
Q 12.796875 0.390625 7.625 2.203125 
L 7.625 11.71875 
Q 11.71875 9.328125 16.59375 8.109375 
Q 21.484375 6.890625 26.8125 6.890625 
Q 36.078125 6.890625 40.9375 10.546875 
Q 45.796875 14.203125 45.796875 21.1875 
Q 45.796875 27.640625 41.28125 31.265625 
Q 36.765625 34.90625 28.71875 34.90625 
L 20.21875 34.90625 
L 20.21875 43.015625 
L 29.109375 43.015625 
Q 36.375 43.015625 40.234375 45.921875 
Q 44.09375 48.828125 44.09375 54.296875 
Q 44.09375 59.90625 40.109375 62.90625 
Q 36.140625 65.921875 28.71875 65.921875 
Q 24.65625 65.921875 20.015625 65.03125 
Q 15.375 64.15625 9.8125 62.3125 
L 9.8125 71.09375 
Q 15.4375 72.65625 20.34375 73.4375 
Q 25.25 74.21875 29.59375 74.21875 
Q 40.828125 74.21875 47.359375 69.109375 
Q 53.90625 64.015625 53.90625 55.328125 
Q 53.90625 49.265625 50.4375 45.09375 
Q 46.96875 40.921875 40.578125 39.3125 
z
" id="DejaVuSans-51"/>
      </defs>
      <g transform="translate(423.265016 351.757656)scale(0.1 -0.1)">
       <use xlink:href="#DejaVuSans-51"/>
       <use x="63.623047" xlink:href="#DejaVuSans-48"/>
       <use x="127.246094" xlink:href="#DejaVuSans-48"/>
      </g>
     </g>
    </g>
    <g id="xtick_5">
     <g id="line2d_9">
      <path clip-path="url(#pb74e54dec4)" d="M 560.363771 337.159219 
L 560.363771 10.999219 
" style="fill:none;stroke:#b0b0b0;stroke-linecap:square;stroke-width:0.8;"/>
     </g>
     <g id="line2d_10">
      <g>
       <use style="stroke:#000000;stroke-width:0.8;" x="560.363771" xlink:href="#me2f28a3f57" y="337.159219"/>
      </g>
     </g>
     <g id="text_5">
      <!-- 400 -->
      <defs>
       <path d="M 37.796875 64.3125 
L 12.890625 25.390625 
L 37.796875 25.390625 
z
M 35.203125 72.90625 
L 47.609375 72.90625 
L 47.609375 25.390625 
L 58.015625 25.390625 
L 58.015625 17.1875 
L 47.609375 17.1875 
L 47.609375 0 
L 37.796875 0 
L 37.796875 17.1875 
L 4.890625 17.1875 
L 4.890625 26.703125 
z
" id="DejaVuSans-52"/>
      </defs>
      <g transform="translate(550.820021 351.757656)scale(0.1 -0.1)">
       <use xlink:href="#DejaVuSans-52"/>
       <use x="63.623047" xlink:href="#DejaVuSans-48"/>
       <use x="127.246094" xlink:href="#DejaVuSans-48"/>
      </g>
     </g>
    </g>
    <g id="xtick_6">
     <g id="line2d_11">
      <path clip-path="url(#pb74e54dec4)" d="M 687.918776 337.159219 
L 687.918776 10.999219 
" style="fill:none;stroke:#b0b0b0;stroke-linecap:square;stroke-width:0.8;"/>
     </g>
     <g id="line2d_12">
      <g>
       <use style="stroke:#000000;stroke-width:0.8;" x="687.918776" xlink:href="#me2f28a3f57" y="337.159219"/>
      </g>
     </g>
     <g id="text_6">
      <!-- 500 -->
      <defs>
       <path d="M 10.796875 72.90625 
L 49.515625 72.90625 
L 49.515625 64.59375 
L 19.828125 64.59375 
L 19.828125 46.734375 
Q 21.96875 47.46875 24.109375 47.828125 
Q 26.265625 48.1875 28.421875 48.1875 
Q 40.625 48.1875 47.75 41.5 
Q 54.890625 34.8125 54.890625 23.390625 
Q 54.890625 11.625 47.5625 5.09375 
Q 40.234375 -1.421875 26.90625 -1.421875 
Q 22.3125 -1.421875 17.546875 -0.640625 
Q 12.796875 0.140625 7.71875 1.703125 
L 7.71875 11.625 
Q 12.109375 9.234375 16.796875 8.0625 
Q 21.484375 6.890625 26.703125 6.890625 
Q 35.15625 6.890625 40.078125 11.328125 
Q 45.015625 15.765625 45.015625 23.390625 
Q 45.015625 31 40.078125 35.4375 
Q 35.15625 39.890625 26.703125 39.890625 
Q 22.75 39.890625 18.8125 39.015625 
Q 14.890625 38.140625 10.796875 36.28125 
z
" id="DejaVuSans-53"/>
      </defs>
      <g transform="translate(678.375026 351.757656)scale(0.1 -0.1)">
       <use xlink:href="#DejaVuSans-53"/>
       <use x="63.623047" xlink:href="#DejaVuSans-48"/>
       <use x="127.246094" xlink:href="#DejaVuSans-48"/>
      </g>
     </g>
    </g>
    <g id="text_7">
     <!-- Epoch -->
     <defs>
      <path d="M 9.8125 72.90625 
L 55.90625 72.90625 
L 55.90625 64.59375 
L 19.671875 64.59375 
L 19.671875 43.015625 
L 54.390625 43.015625 
L 54.390625 34.71875 
L 19.671875 34.71875 
L 19.671875 8.296875 
L 56.78125 8.296875 
L 56.78125 0 
L 9.8125 0 
z
" id="DejaVuSans-69"/>
      <path d="M 18.109375 8.203125 
L 18.109375 -20.796875 
L 9.078125 -20.796875 
L 9.078125 54.6875 
L 18.109375 54.6875 
L 18.109375 46.390625 
Q 20.953125 51.265625 25.265625 53.625 
Q 29.59375 56 35.59375 56 
Q 45.5625 56 51.78125 48.09375 
Q 58.015625 40.1875 58.015625 27.296875 
Q 58.015625 14.40625 51.78125 6.484375 
Q 45.5625 -1.421875 35.59375 -1.421875 
Q 29.59375 -1.421875 25.265625 0.953125 
Q 20.953125 3.328125 18.109375 8.203125 
z
M 48.6875 27.296875 
Q 48.6875 37.203125 44.609375 42.84375 
Q 40.53125 48.484375 33.40625 48.484375 
Q 26.265625 48.484375 22.1875 42.84375 
Q 18.109375 37.203125 18.109375 27.296875 
Q 18.109375 17.390625 22.1875 11.75 
Q 26.265625 6.109375 33.40625 6.109375 
Q 40.53125 6.109375 44.609375 11.75 
Q 48.6875 17.390625 48.6875 27.296875 
z
" id="DejaVuSans-112"/>
      <path d="M 30.609375 48.390625 
Q 23.390625 48.390625 19.1875 42.75 
Q 14.984375 37.109375 14.984375 27.296875 
Q 14.984375 17.484375 19.15625 11.84375 
Q 23.34375 6.203125 30.609375 6.203125 
Q 37.796875 6.203125 41.984375 11.859375 
Q 46.1875 17.53125 46.1875 27.296875 
Q 46.1875 37.015625 41.984375 42.703125 
Q 37.796875 48.390625 30.609375 48.390625 
z
M 30.609375 56 
Q 42.328125 56 49.015625 48.375 
Q 55.71875 40.765625 55.71875 27.296875 
Q 55.71875 13.875 49.015625 6.21875 
Q 42.328125 -1.421875 30.609375 -1.421875 
Q 18.84375 -1.421875 12.171875 6.21875 
Q 5.515625 13.875 5.515625 27.296875 
Q 5.515625 40.765625 12.171875 48.375 
Q 18.84375 56 30.609375 56 
z
" id="DejaVuSans-111"/>
      <path d="M 48.78125 52.59375 
L 48.78125 44.1875 
Q 44.96875 46.296875 41.140625 47.34375 
Q 37.3125 48.390625 33.40625 48.390625 
Q 24.65625 48.390625 19.8125 42.84375 
Q 14.984375 37.3125 14.984375 27.296875 
Q 14.984375 17.28125 19.8125 11.734375 
Q 24.65625 6.203125 33.40625 6.203125 
Q 37.3125 6.203125 41.140625 7.25 
Q 44.96875 8.296875 48.78125 10.40625 
L 48.78125 2.09375 
Q 45.015625 0.34375 40.984375 -0.53125 
Q 36.96875 -1.421875 32.421875 -1.421875 
Q 20.0625 -1.421875 12.78125 6.34375 
Q 5.515625 14.109375 5.515625 27.296875 
Q 5.515625 40.671875 12.859375 48.328125 
Q 20.21875 56 33.015625 56 
Q 37.15625 56 41.109375 55.140625 
Q 45.0625 54.296875 48.78125 52.59375 
z
" id="DejaVuSans-99"/>
      <path d="M 54.890625 33.015625 
L 54.890625 0 
L 45.90625 0 
L 45.90625 32.71875 
Q 45.90625 40.484375 42.875 44.328125 
Q 39.84375 48.1875 33.796875 48.1875 
Q 26.515625 48.1875 22.3125 43.546875 
Q 18.109375 38.921875 18.109375 30.90625 
L 18.109375 0 
L 9.078125 0 
L 9.078125 75.984375 
L 18.109375 75.984375 
L 18.109375 46.1875 
Q 21.34375 51.125 25.703125 53.5625 
Q 30.078125 56 35.796875 56 
Q 45.21875 56 50.046875 50.171875 
Q 54.890625 44.34375 54.890625 33.015625 
z
" id="DejaVuSans-104"/>
     </defs>
     <g transform="translate(369.632813 365.435781)scale(0.1 -0.1)">
      <use xlink:href="#DejaVuSans-69"/>
      <use x="63.183594" xlink:href="#DejaVuSans-112"/>
      <use x="126.660156" xlink:href="#DejaVuSans-111"/>
      <use x="187.841797" xlink:href="#DejaVuSans-99"/>
      <use x="242.822266" xlink:href="#DejaVuSans-104"/>
     </g>
    </g>
   </g>
   <g id="matplotlib.axis_2">
    <g id="ytick_1">
     <g id="line2d_13">
      <path clip-path="url(#pb74e54dec4)" d="M 50.14375 337.159219 
L 719.74375 337.159219 
" style="fill:none;stroke:#b0b0b0;stroke-linecap:square;stroke-width:0.8;"/>
     </g>
     <g id="line2d_14">
      <defs>
       <path d="M 0 0 
L -3.5 0 
" id="maff835994b" style="stroke:#000000;stroke-width:0.8;"/>
      </defs>
      <g>
       <use style="stroke:#000000;stroke-width:0.8;" x="50.14375" xlink:href="#maff835994b" y="337.159219"/>
      </g>
     </g>
     <g id="text_8">
      <!-- 0.82 -->
      <defs>
       <path d="M 10.6875 12.40625 
L 21 12.40625 
L 21 0 
L 10.6875 0 
z
" id="DejaVuSans-46"/>
       <path d="M 31.78125 34.625 
Q 24.75 34.625 20.71875 30.859375 
Q 16.703125 27.09375 16.703125 20.515625 
Q 16.703125 13.921875 20.71875 10.15625 
Q 24.75 6.390625 31.78125 6.390625 
Q 38.8125 6.390625 42.859375 10.171875 
Q 46.921875 13.96875 46.921875 20.515625 
Q 46.921875 27.09375 42.890625 30.859375 
Q 38.875 34.625 31.78125 34.625 
z
M 21.921875 38.8125 
Q 15.578125 40.375 12.03125 44.71875 
Q 8.5 49.078125 8.5 55.328125 
Q 8.5 64.0625 14.71875 69.140625 
Q 20.953125 74.21875 31.78125 74.21875 
Q 42.671875 74.21875 48.875 69.140625 
Q 55.078125 64.0625 55.078125 55.328125 
Q 55.078125 49.078125 51.53125 44.71875 
Q 48 40.375 41.703125 38.8125 
Q 48.828125 37.15625 52.796875 32.3125 
Q 56.78125 27.484375 56.78125 20.515625 
Q 56.78125 9.90625 50.3125 4.234375 
Q 43.84375 -1.421875 31.78125 -1.421875 
Q 19.734375 -1.421875 13.25 4.234375 
Q 6.78125 9.90625 6.78125 20.515625 
Q 6.78125 27.484375 10.78125 32.3125 
Q 14.796875 37.15625 21.921875 38.8125 
z
M 18.3125 54.390625 
Q 18.3125 48.734375 21.84375 45.5625 
Q 25.390625 42.390625 31.78125 42.390625 
Q 38.140625 42.390625 41.71875 45.5625 
Q 45.3125 48.734375 45.3125 54.390625 
Q 45.3125 60.0625 41.71875 63.234375 
Q 38.140625 66.40625 31.78125 66.40625 
Q 25.390625 66.40625 21.84375 63.234375 
Q 18.3125 60.0625 18.3125 54.390625 
z
" id="DejaVuSans-56"/>
      </defs>
      <g transform="translate(20.878125 340.958437)scale(0.1 -0.1)">
       <use xlink:href="#DejaVuSans-48"/>
       <use x="63.623047" xlink:href="#DejaVuSans-46"/>
       <use x="95.410156" xlink:href="#DejaVuSans-56"/>
       <use x="159.033203" xlink:href="#DejaVuSans-50"/>
      </g>
     </g>
    </g>
    <g id="ytick_2">
     <g id="line2d_15">
      <path clip-path="url(#pb74e54dec4)" d="M 50.14375 296.389219 
L 719.74375 296.389219 
" style="fill:none;stroke:#b0b0b0;stroke-linecap:square;stroke-width:0.8;"/>
     </g>
     <g id="line2d_16">
      <g>
       <use style="stroke:#000000;stroke-width:0.8;" x="50.14375" xlink:href="#maff835994b" y="296.389219"/>
      </g>
     </g>
     <g id="text_9">
      <!-- 0.84 -->
      <g transform="translate(20.878125 300.188437)scale(0.1 -0.1)">
       <use xlink:href="#DejaVuSans-48"/>
       <use x="63.623047" xlink:href="#DejaVuSans-46"/>
       <use x="95.410156" xlink:href="#DejaVuSans-56"/>
       <use x="159.033203" xlink:href="#DejaVuSans-52"/>
      </g>
     </g>
    </g>
    <g id="ytick_3">
     <g id="line2d_17">
      <path clip-path="url(#pb74e54dec4)" d="M 50.14375 255.619219 
L 719.74375 255.619219 
" style="fill:none;stroke:#b0b0b0;stroke-linecap:square;stroke-width:0.8;"/>
     </g>
     <g id="line2d_18">
      <g>
       <use style="stroke:#000000;stroke-width:0.8;" x="50.14375" xlink:href="#maff835994b" y="255.619219"/>
      </g>
     </g>
     <g id="text_10">
      <!-- 0.86 -->
      <defs>
       <path d="M 33.015625 40.375 
Q 26.375 40.375 22.484375 35.828125 
Q 18.609375 31.296875 18.609375 23.390625 
Q 18.609375 15.53125 22.484375 10.953125 
Q 26.375 6.390625 33.015625 6.390625 
Q 39.65625 6.390625 43.53125 10.953125 
Q 47.40625 15.53125 47.40625 23.390625 
Q 47.40625 31.296875 43.53125 35.828125 
Q 39.65625 40.375 33.015625 40.375 
z
M 52.59375 71.296875 
L 52.59375 62.3125 
Q 48.875 64.0625 45.09375 64.984375 
Q 41.3125 65.921875 37.59375 65.921875 
Q 27.828125 65.921875 22.671875 59.328125 
Q 17.53125 52.734375 16.796875 39.40625 
Q 19.671875 43.65625 24.015625 45.921875 
Q 28.375 48.1875 33.59375 48.1875 
Q 44.578125 48.1875 50.953125 41.515625 
Q 57.328125 34.859375 57.328125 23.390625 
Q 57.328125 12.15625 50.6875 5.359375 
Q 44.046875 -1.421875 33.015625 -1.421875 
Q 20.359375 -1.421875 13.671875 8.265625 
Q 6.984375 17.96875 6.984375 36.375 
Q 6.984375 53.65625 15.1875 63.9375 
Q 23.390625 74.21875 37.203125 74.21875 
Q 40.921875 74.21875 44.703125 73.484375 
Q 48.484375 72.75 52.59375 71.296875 
z
" id="DejaVuSans-54"/>
      </defs>
      <g transform="translate(20.878125 259.418437)scale(0.1 -0.1)">
       <use xlink:href="#DejaVuSans-48"/>
       <use x="63.623047" xlink:href="#DejaVuSans-46"/>
       <use x="95.410156" xlink:href="#DejaVuSans-56"/>
       <use x="159.033203" xlink:href="#DejaVuSans-54"/>
      </g>
     </g>
    </g>
    <g id="ytick_4">
     <g id="line2d_19">
      <path clip-path="url(#pb74e54dec4)" d="M 50.14375 214.849219 
L 719.74375 214.849219 
" style="fill:none;stroke:#b0b0b0;stroke-linecap:square;stroke-width:0.8;"/>
     </g>
     <g id="line2d_20">
      <g>
       <use style="stroke:#000000;stroke-width:0.8;" x="50.14375" xlink:href="#maff835994b" y="214.849219"/>
      </g>
     </g>
     <g id="text_11">
      <!-- 0.88 -->
      <g transform="translate(20.878125 218.648437)scale(0.1 -0.1)">
       <use xlink:href="#DejaVuSans-48"/>
       <use x="63.623047" xlink:href="#DejaVuSans-46"/>
       <use x="95.410156" xlink:href="#DejaVuSans-56"/>
       <use x="159.033203" xlink:href="#DejaVuSans-56"/>
      </g>
     </g>
    </g>
    <g id="ytick_5">
     <g id="line2d_21">
      <path clip-path="url(#pb74e54dec4)" d="M 50.14375 174.079219 
L 719.74375 174.079219 
" style="fill:none;stroke:#b0b0b0;stroke-linecap:square;stroke-width:0.8;"/>
     </g>
     <g id="line2d_22">
      <g>
       <use style="stroke:#000000;stroke-width:0.8;" x="50.14375" xlink:href="#maff835994b" y="174.079219"/>
      </g>
     </g>
     <g id="text_12">
      <!-- 0.90 -->
      <defs>
       <path d="M 10.984375 1.515625 
L 10.984375 10.5 
Q 14.703125 8.734375 18.5 7.8125 
Q 22.3125 6.890625 25.984375 6.890625 
Q 35.75 6.890625 40.890625 13.453125 
Q 46.046875 20.015625 46.78125 33.40625 
Q 43.953125 29.203125 39.59375 26.953125 
Q 35.25 24.703125 29.984375 24.703125 
Q 19.046875 24.703125 12.671875 31.3125 
Q 6.296875 37.9375 6.296875 49.421875 
Q 6.296875 60.640625 12.9375 67.421875 
Q 19.578125 74.21875 30.609375 74.21875 
Q 43.265625 74.21875 49.921875 64.515625 
Q 56.59375 54.828125 56.59375 36.375 
Q 56.59375 19.140625 48.40625 8.859375 
Q 40.234375 -1.421875 26.421875 -1.421875 
Q 22.703125 -1.421875 18.890625 -0.6875 
Q 15.09375 0.046875 10.984375 1.515625 
z
M 30.609375 32.421875 
Q 37.25 32.421875 41.125 36.953125 
Q 45.015625 41.5 45.015625 49.421875 
Q 45.015625 57.28125 41.125 61.84375 
Q 37.25 66.40625 30.609375 66.40625 
Q 23.96875 66.40625 20.09375 61.84375 
Q 16.21875 57.28125 16.21875 49.421875 
Q 16.21875 41.5 20.09375 36.953125 
Q 23.96875 32.421875 30.609375 32.421875 
z
" id="DejaVuSans-57"/>
      </defs>
      <g transform="translate(20.878125 177.878437)scale(0.1 -0.1)">
       <use xlink:href="#DejaVuSans-48"/>
       <use x="63.623047" xlink:href="#DejaVuSans-46"/>
       <use x="95.410156" xlink:href="#DejaVuSans-57"/>
       <use x="159.033203" xlink:href="#DejaVuSans-48"/>
      </g>
     </g>
    </g>
    <g id="ytick_6">
     <g id="line2d_23">
      <path clip-path="url(#pb74e54dec4)" d="M 50.14375 133.309219 
L 719.74375 133.309219 
" style="fill:none;stroke:#b0b0b0;stroke-linecap:square;stroke-width:0.8;"/>
     </g>
     <g id="line2d_24">
      <g>
       <use style="stroke:#000000;stroke-width:0.8;" x="50.14375" xlink:href="#maff835994b" y="133.309219"/>
      </g>
     </g>
     <g id="text_13">
      <!-- 0.92 -->
      <g transform="translate(20.878125 137.108437)scale(0.1 -0.1)">
       <use xlink:href="#DejaVuSans-48"/>
       <use x="63.623047" xlink:href="#DejaVuSans-46"/>
       <use x="95.410156" xlink:href="#DejaVuSans-57"/>
       <use x="159.033203" xlink:href="#DejaVuSans-50"/>
      </g>
     </g>
    </g>
    <g id="ytick_7">
     <g id="line2d_25">
      <path clip-path="url(#pb74e54dec4)" d="M 50.14375 92.539219 
L 719.74375 92.539219 
" style="fill:none;stroke:#b0b0b0;stroke-linecap:square;stroke-width:0.8;"/>
     </g>
     <g id="line2d_26">
      <g>
       <use style="stroke:#000000;stroke-width:0.8;" x="50.14375" xlink:href="#maff835994b" y="92.539219"/>
      </g>
     </g>
     <g id="text_14">
      <!-- 0.94 -->
      <g transform="translate(20.878125 96.338437)scale(0.1 -0.1)">
       <use xlink:href="#DejaVuSans-48"/>
       <use x="63.623047" xlink:href="#DejaVuSans-46"/>
       <use x="95.410156" xlink:href="#DejaVuSans-57"/>
       <use x="159.033203" xlink:href="#DejaVuSans-52"/>
      </g>
     </g>
    </g>
    <g id="ytick_8">
     <g id="line2d_27">
      <path clip-path="url(#pb74e54dec4)" d="M 50.14375 51.769219 
L 719.74375 51.769219 
" style="fill:none;stroke:#b0b0b0;stroke-linecap:square;stroke-width:0.8;"/>
     </g>
     <g id="line2d_28">
      <g>
       <use style="stroke:#000000;stroke-width:0.8;" x="50.14375" xlink:href="#maff835994b" y="51.769219"/>
      </g>
     </g>
     <g id="text_15">
      <!-- 0.96 -->
      <g transform="translate(20.878125 55.568437)scale(0.1 -0.1)">
       <use xlink:href="#DejaVuSans-48"/>
       <use x="63.623047" xlink:href="#DejaVuSans-46"/>
       <use x="95.410156" xlink:href="#DejaVuSans-57"/>
       <use x="159.033203" xlink:href="#DejaVuSans-54"/>
      </g>
     </g>
    </g>
    <g id="ytick_9">
     <g id="line2d_29">
      <path clip-path="url(#pb74e54dec4)" d="M 50.14375 10.999219 
L 719.74375 10.999219 
" style="fill:none;stroke:#b0b0b0;stroke-linecap:square;stroke-width:0.8;"/>
     </g>
     <g id="line2d_30">
      <g>
       <use style="stroke:#000000;stroke-width:0.8;" x="50.14375" xlink:href="#maff835994b" y="10.999219"/>
      </g>
     </g>
     <g id="text_16">
      <!-- 0.98 -->
      <g transform="translate(20.878125 14.798437)scale(0.1 -0.1)">
       <use xlink:href="#DejaVuSans-48"/>
       <use x="63.623047" xlink:href="#DejaVuSans-46"/>
       <use x="95.410156" xlink:href="#DejaVuSans-57"/>
       <use x="159.033203" xlink:href="#DejaVuSans-56"/>
      </g>
     </g>
    </g>
    <g id="text_17">
     <!-- Accuracy -->
     <defs>
      <path d="M 34.1875 63.1875 
L 20.796875 26.90625 
L 47.609375 26.90625 
z
M 28.609375 72.90625 
L 39.796875 72.90625 
L 67.578125 0 
L 57.328125 0 
L 50.6875 18.703125 
L 17.828125 18.703125 
L 11.1875 0 
L 0.78125 0 
z
" id="DejaVuSans-65"/>
      <path d="M 8.5 21.578125 
L 8.5 54.6875 
L 17.484375 54.6875 
L 17.484375 21.921875 
Q 17.484375 14.15625 20.5 10.265625 
Q 23.53125 6.390625 29.59375 6.390625 
Q 36.859375 6.390625 41.078125 11.03125 
Q 45.3125 15.671875 45.3125 23.6875 
L 45.3125 54.6875 
L 54.296875 54.6875 
L 54.296875 0 
L 45.3125 0 
L 45.3125 8.40625 
Q 42.046875 3.421875 37.71875 1 
Q 33.40625 -1.421875 27.6875 -1.421875 
Q 18.265625 -1.421875 13.375 4.4375 
Q 8.5 10.296875 8.5 21.578125 
z
M 31.109375 56 
z
" id="DejaVuSans-117"/>
      <path d="M 41.109375 46.296875 
Q 39.59375 47.171875 37.8125 47.578125 
Q 36.03125 48 33.890625 48 
Q 26.265625 48 22.1875 43.046875 
Q 18.109375 38.09375 18.109375 28.8125 
L 18.109375 0 
L 9.078125 0 
L 9.078125 54.6875 
L 18.109375 54.6875 
L 18.109375 46.1875 
Q 20.953125 51.171875 25.484375 53.578125 
Q 30.03125 56 36.53125 56 
Q 37.453125 56 38.578125 55.875 
Q 39.703125 55.765625 41.0625 55.515625 
z
" id="DejaVuSans-114"/>
      <path d="M 34.28125 27.484375 
Q 23.390625 27.484375 19.1875 25 
Q 14.984375 22.515625 14.984375 16.5 
Q 14.984375 11.71875 18.140625 8.90625 
Q 21.296875 6.109375 26.703125 6.109375 
Q 34.1875 6.109375 38.703125 11.40625 
Q 43.21875 16.703125 43.21875 25.484375 
L 43.21875 27.484375 
z
M 52.203125 31.203125 
L 52.203125 0 
L 43.21875 0 
L 43.21875 8.296875 
Q 40.140625 3.328125 35.546875 0.953125 
Q 30.953125 -1.421875 24.3125 -1.421875 
Q 15.921875 -1.421875 10.953125 3.296875 
Q 6 8.015625 6 15.921875 
Q 6 25.140625 12.171875 29.828125 
Q 18.359375 34.515625 30.609375 34.515625 
L 43.21875 34.515625 
L 43.21875 35.40625 
Q 43.21875 41.609375 39.140625 45 
Q 35.0625 48.390625 27.6875 48.390625 
Q 23 48.390625 18.546875 47.265625 
Q 14.109375 46.140625 10.015625 43.890625 
L 10.015625 52.203125 
Q 14.9375 54.109375 19.578125 55.046875 
Q 24.21875 56 28.609375 56 
Q 40.484375 56 46.34375 49.84375 
Q 52.203125 43.703125 52.203125 31.203125 
z
" id="DejaVuSans-97"/>
      <path d="M 32.171875 -5.078125 
Q 28.375 -14.84375 24.75 -17.8125 
Q 21.140625 -20.796875 15.09375 -20.796875 
L 7.90625 -20.796875 
L 7.90625 -13.28125 
L 13.1875 -13.28125 
Q 16.890625 -13.28125 18.9375 -11.515625 
Q 21 -9.765625 23.484375 -3.21875 
L 25.09375 0.875 
L 2.984375 54.6875 
L 12.5 54.6875 
L 29.59375 11.921875 
L 46.6875 54.6875 
L 56.203125 54.6875 
z
" id="DejaVuSans-121"/>
     </defs>
     <g transform="translate(14.798438 196.994062)rotate(-90)scale(0.1 -0.1)">
      <use xlink:href="#DejaVuSans-65"/>
      <use x="68.392578" xlink:href="#DejaVuSans-99"/>
      <use x="123.373047" xlink:href="#DejaVuSans-99"/>
      <use x="178.353516" xlink:href="#DejaVuSans-117"/>
      <use x="241.732422" xlink:href="#DejaVuSans-114"/>
      <use x="282.845703" xlink:href="#DejaVuSans-97"/>
      <use x="344.125" xlink:href="#DejaVuSans-99"/>
      <use x="399.105469" xlink:href="#DejaVuSans-121"/>
     </g>
    </g>
   </g>
   <g id="line2d_31">
    <path clip-path="url(#pb74e54dec4)" d="M 95.549582 375.715469 
L 96.063552 373.189685 
L 97.339102 374.157951 
L 98.614652 367.48191 
L 99.890202 370.743565 
L 101.165752 358.206776 
L 102.441302 353.824002 
L 103.716852 358.614422 
L 104.992402 353.72206 
L 107.543502 345.36416 
L 108.819052 344.19201 
L 110.094602 337.464938 
L 111.370153 341.338123 
L 112.645703 343.784364 
L 113.921253 336.292909 
L 115.196803 330.126335 
L 116.472353 330.024514 
L 117.747903 328.444597 
L 119.023453 325.488768 
L 120.299003 318.252107 
L 121.574553 320.392522 
L 122.850103 320.698348 
L 124.125653 315.296277 
L 125.401203 316.621279 
L 126.676753 313.05392 
L 127.952303 317.742519 
L 129.227853 313.410656 
L 130.503403 310.964536 
L 131.778953 308.82412 
L 133.054503 304.033579 
L 134.330053 300.211426 
L 135.605604 309.231766 
L 136.881154 305.613375 
L 138.156704 297.408448 
L 139.432254 299.345102 
L 140.707804 303.676843 
L 141.983354 295.624769 
L 143.258904 292.719971 
L 144.534454 287.36881 
L 145.810004 287.725546 
L 147.085554 290.273729 
L 148.361104 291.904557 
L 149.636654 288.999638 
L 150.912204 281.406241 
L 152.187754 289.15249 
L 153.463304 280.437975 
L 154.738854 284.9736 
L 156.014404 280.437975 
L 157.289954 283.393805 
L 158.565504 275.749376 
L 159.841055 272.844578 
L 161.116605 277.838882 
L 162.392155 275.34173 
L 163.667705 276.819584 
L 164.943255 276.717642 
L 166.218805 273.252225 
L 167.494355 271.876312 
L 168.769905 268.563747 
L 170.045455 270.805983 
L 171.321005 266.321389 
L 172.596555 271.570487 
L 173.872105 268.614657 
L 175.147655 272.691605 
L 176.423205 268.359863 
L 177.698755 267.646391 
L 178.974305 261.377996 
L 180.249855 260.40973 
L 181.525405 264.690562 
L 182.800955 262.295352 
L 184.076506 263.41647 
L 185.352056 259.594317 
L 186.627606 259.696259 
L 187.903156 258.676961 
L 189.178706 260.460641 
L 190.454256 261.225144 
L 191.729806 257.453901 
L 193.005356 254.192246 
L 194.280906 253.886542 
L 195.556456 257.351959 
L 196.832006 257.504811 
L 198.107556 253.020096 
L 199.383106 253.478774 
L 200.658656 247.210379 
L 201.934206 251.746126 
L 203.209756 250.013356 
L 204.485306 251.542242 
L 205.760856 247.210379 
L 207.036406 249.350795 
L 208.311956 248.43356 
L 209.587507 243.592109 
L 210.863057 239.871776 
L 212.138607 239.158304 
L 213.414157 236.304417 
L 214.689707 245.579551 
L 215.965257 243.592109 
L 217.240807 242.368928 
L 218.516357 240.228512 
L 219.791907 239.056363 
L 221.067457 239.718924 
L 222.343007 233.858175 
L 223.618557 238.139128 
L 224.894107 234.316853 
L 226.169657 233.246645 
L 227.445207 235.947681 
L 228.720757 238.954421 
L 229.996307 233.858175 
L 231.271857 233.195735 
L 232.547407 231.361024 
L 233.822958 235.641977 
L 235.098508 229.679286 
L 236.374058 232.88991 
L 238.925158 233.246645 
L 240.200708 229.526434 
L 241.476258 231.768791 
L 242.751808 222.646509 
L 244.027358 226.519573 
L 245.302908 229.016846 
L 246.578458 232.686147 
L 247.854008 222.238741 
L 249.129558 225.041719 
L 250.405108 224.684983 
L 251.680658 224.990809 
L 252.956208 228.252342 
L 254.231758 222.952213 
L 256.782858 220.91374 
L 258.058409 221.066592 
L 259.333959 220.811798 
L 260.609509 221.780064 
L 261.885059 220.404151 
L 263.160609 217.754026 
L 264.436159 221.983947 
L 265.711709 218.773324 
L 266.987259 218.722414 
L 268.262809 215.5627 
L 269.538359 219.69068 
L 270.813909 220.557004 
L 272.089459 213.218401 
L 273.365009 216.887702 
L 274.640559 212.046251 
L 275.916109 208.173187 
L 277.191659 214.645345 
L 278.467209 214.033815 
L 279.742759 212.097283 
L 281.018309 210.772159 
L 282.29386 213.779021 
L 283.56941 209.039511 
L 284.84496 214.696376 
L 286.12051 212.912697 
L 287.39606 209.854925 
L 288.67161 208.173187 
L 289.94716 207.918272 
L 291.22271 209.039511 
L 292.49826 207.867362 
L 293.77381 207.15389 
L 295.04936 209.090422 
L 296.32491 206.236534 
L 297.60046 208.427981 
L 298.87601 205.217358 
L 300.15156 206.644302 
L 301.42711 206.695212 
L 302.70266 201.904793 
L 303.97821 205.93083 
L 305.25376 208.478892 
L 306.529311 202.720085 
L 307.804861 206.440418 
L 309.080411 201.446115 
L 310.355961 199.560493 
L 311.631511 204.045208 
L 312.907061 201.700909 
L 314.182611 200.222933 
L 315.458161 198.235491 
L 316.733711 200.222933 
L 318.009261 200.783553 
L 319.284811 196.9614 
L 320.560361 196.145986 
L 321.835911 194.719042 
L 323.111461 196.502722 
L 324.387011 196.757516 
L 325.662561 194.362306 
L 326.938111 197.216194 
L 328.213661 192.476684 
L 329.489211 195.84016 
L 330.764762 198.592227 
L 332.040312 193.037304 
L 333.315862 196.298838 
L 334.591412 187.074613 
L 335.866962 195.381604 
L 337.142512 191.304535 
L 338.418062 192.476684 
L 339.693612 192.83342 
L 340.969162 191.559329 
L 342.244712 186.514115 
L 343.520262 192.119948 
L 344.795812 190.896888 
L 346.071362 191.763212 
L 347.346912 190.540153 
L 348.622462 189.928501 
L 349.898012 188.654531 
L 351.173562 188.043001 
L 352.449112 185.749612 
L 353.724662 186.055437 
L 355.000213 184.016964 
L 356.275763 183.86399 
L 357.551313 184.883288 
L 358.826863 182.182252 
L 360.102413 185.851554 
L 361.377963 183.660228 
L 362.653513 186.412173 
L 363.929063 179.736011 
L 366.480163 183.965932 
L 367.755713 185.240024 
L 369.031263 179.990926 
L 370.306813 180.85725 
L 371.582363 179.277454 
L 372.857913 181.723574 
L 374.133463 178.462041 
L 375.409013 178.207125 
L 376.684563 178.411009 
L 377.960113 179.328365 
L 379.235664 175.047533 
L 380.511214 182.182252 
L 381.786764 176.780181 
L 383.062314 175.964889 
L 384.337864 176.117741 
L 385.613414 177.187949 
L 386.888964 177.493653 
L 388.164514 171.480174 
L 389.440064 169.951288 
L 390.715614 169.696494 
L 391.991164 176.576419 
L 393.266714 175.913857 
L 394.542264 171.633026 
L 395.817814 172.703234 
L 398.368914 168.779138 
L 399.644464 171.429142 
L 400.920014 174.690797 
L 402.195564 170.05323 
L 403.471115 170.256992 
L 404.746665 170.05323 
L 406.022215 171.021496 
L 407.297765 163.631862 
L 408.573315 174.690797 
L 409.848865 166.689633 
L 411.124415 167.250253 
L 412.399965 169.186785 
L 413.675515 165.976161 
L 414.951065 164.243513 
L 416.226615 164.855043 
L 417.502165 162.001155 
L 418.777715 167.097401 
L 420.053265 159.249088 
L 421.328815 163.580951 
L 422.604365 165.568515 
L 423.879915 160.981858 
L 425.155465 160.727064 
L 426.431015 164.396365 
L 427.706566 161.13471 
L 428.982116 163.937687 
L 430.257666 160.777974 
L 431.533216 160.625122 
L 432.808766 163.631862 
L 434.084316 160.777974 
L 435.359866 161.0838 
L 436.635416 158.076939 
L 437.910966 158.484706 
L 439.186516 158.280822 
L 440.462066 160.52318 
L 441.737616 159.249088 
L 443.013166 156.649995 
L 444.288716 156.599085 
L 445.564266 155.477967 
L 446.839816 149.923044 
L 448.115366 156.649995 
L 449.390916 156.191438 
L 451.942017 153.133667 
L 453.217567 156.95582 
L 454.493117 154.560611 
L 457.044217 157.465409 
L 458.319767 149.821102 
L 459.595317 153.490403 
L 460.870867 149.872012 
L 462.146417 152.623957 
L 463.421967 151.808665 
L 464.697517 148.037422 
L 465.973067 147.018124 
L 467.248617 152.318253 
L 468.524167 144.724856 
L 469.799717 147.37486 
L 471.075267 143.807501 
L 472.350817 148.648952 
L 473.626367 144.011385 
L 474.901917 148.750894 
L 476.177467 148.801804 
L 477.453018 145.030561 
L 478.728568 147.222008 
L 480.004118 144.113326 
L 481.279668 142.380557 
L 482.555218 142.839235 
L 483.830768 142.380557 
L 485.106318 139.730553 
L 486.381868 144.673825 
L 487.657418 139.424727 
L 488.932968 139.475638 
L 490.208518 141.769027 
L 491.484068 142.329525 
L 492.759618 138.711256 
L 494.035168 140.953613 
L 495.310718 141.463201 
L 496.586268 138.558403 
L 497.861818 139.169933 
L 499.137368 141.157497 
L 500.412918 135.857368 
L 501.688469 135.092864 
L 502.964019 138.711256 
L 504.239569 139.067992 
L 505.515119 134.277451 
L 506.790669 134.022657 
L 508.066219 138.456462 
L 509.341769 132.748686 
L 510.617319 130.557239 
L 511.892869 131.525505 
L 513.168419 134.990923 
L 514.443969 129.487031 
L 515.719519 131.474595 
L 516.995069 136.57084 
L 518.270619 135.551542 
L 519.546169 131.372653 
L 520.821719 136.927576 
L 522.097269 132.290009 
L 523.372819 126.327318 
L 524.648369 131.117859 
L 525.92392 129.945709 
L 527.19947 130.251413 
L 528.47502 128.926411 
L 529.75057 124.747522 
L 531.02612 128.467734 
L 532.30167 126.837028 
L 533.57722 125.002316 
L 534.85277 126.837028 
L 536.12832 121.384046 
L 537.40387 129.385089 
L 538.67942 122.8619 
L 539.95497 126.684054 
L 541.23052 124.951406 
L 542.50607 123.677314 
L 543.78162 123.626404 
L 545.05717 123.779256 
L 546.33272 124.696612 
L 547.60827 124.288844 
L 548.88382 122.046487 
L 550.159371 127.856204 
L 551.434921 121.740782 
L 552.710471 119.702187 
L 553.986021 122.912811 
L 555.261571 124.08496 
L 556.537121 121.434957 
L 557.812671 116.032886 
L 559.088221 121.587809 
L 560.363771 119.141689 
L 561.639321 113.637676 
L 562.914871 116.185859 
L 564.190421 116.491564 
L 565.465971 123.167726 
L 566.741521 115.115652 
L 568.017071 114.096354 
L 569.292621 114.555032 
L 570.568171 112.05788 
L 571.843721 115.981976 
L 574.394822 110.732878 
L 575.670372 115.574329 
L 576.945922 110.834699 
L 578.221472 111.44635 
L 579.497022 111.038583 
L 580.772572 112.363584 
L 582.048122 110.070317 
L 583.323672 109.917464 
L 584.599222 107.878991 
L 585.874772 108.133785 
L 587.150322 107.114487 
L 588.425872 106.910603 
L 589.701422 105.381718 
L 590.976972 106.197131 
L 592.252522 107.675107 
L 593.528072 106.299073 
L 594.803622 106.451925 
L 596.079172 104.87213 
L 597.354722 105.177955 
L 598.630273 104.821219 
L 599.905823 107.063577 
L 601.181373 104.923161 
L 602.456923 104.923161 
L 603.732473 105.738454 
L 605.008023 105.738454 
L 606.283573 100.285472 
L 607.559123 102.52783 
L 608.834673 100.13262 
L 610.110223 100.13262 
L 611.385773 100.591298 
L 612.661323 98.450883 
L 613.936873 98.756587 
L 615.212423 95.495053 
L 616.487973 95.647905 
L 617.763523 96.259435 
L 619.039073 99.724974 
L 620.314623 100.08171 
L 621.590173 100.030678 
L 622.865724 99.062413 
L 624.141274 101.151918 
L 625.416824 97.839353 
L 626.692374 93.660342 
L 627.967924 93.711373 
L 629.243474 93.354637 
L 630.519024 95.087285 
L 631.794574 94.475755 
L 633.070124 92.997901 
L 634.345674 89.022774 
L 635.621224 94.220961 
L 636.896774 94.271993 
L 638.172324 88.054508 
L 639.447874 91.621868 
L 640.723424 89.787278 
L 641.998974 88.920832 
L 643.274524 87.290126 
L 644.550074 85.965003 
L 645.825624 86.219919 
L 647.101175 89.94013 
L 648.376725 89.838188 
L 649.652275 87.748804 
L 650.927825 87.035211 
L 652.203375 89.481452 
L 653.478925 84.843885 
L 654.754475 85.098679 
L 656.030025 85.200621 
L 657.305575 87.341037 
L 658.581125 81.633261 
L 659.856675 84.283265 
L 661.132225 81.837145 
L 662.407775 82.499585 
L 663.683325 81.072642 
L 664.958875 81.225494 
L 666.234425 81.735203 
L 667.509975 80.868758 
L 668.785525 82.091939 
L 670.061075 84.028471 
L 671.336626 82.14285 
L 672.612176 78.881316 
L 673.887726 79.288962 
L 675.163276 83.416941 
L 676.438826 78.57549 
L 677.714376 80.410201 
L 678.989926 79.543756 
L 680.265476 77.250488 
L 681.541026 79.951524 
L 682.816576 78.218754 
L 684.092126 77.760076 
L 685.367676 76.384164 
L 686.643226 77.811108 
L 687.918776 76.893752 
L 687.918776 76.893752 
" style="fill:none;stroke:#377eb8;stroke-linecap:square;stroke-width:1.5;"/>
   </g>
   <g id="line2d_32">
    <path clip-path="url(#pb74e54dec4)" d="M 76.548293 375.715469 
L 76.930301 364.962888 
L 78.205851 364.962888 
L 79.4672 375.715469 
M 79.486977 375.715469 
L 80.756951 348.139556 
L 82.032501 357.78224 
L 83.308051 351.832429 
L 84.583601 361.064794 
L 85.859151 336.650374 
L 87.134702 322.494178 
L 88.410252 328.443868 
L 89.685802 350.396373 
L 92.236902 309.56894 
L 93.512452 314.492771 
L 94.788002 296.028162 
L 96.063552 318.390864 
L 97.339102 297.053899 
L 98.614652 283.102802 
L 99.890202 298.900397 
L 101.165752 325.981953 
L 102.441302 299.721035 
L 103.716852 301.772753 
L 106.267952 293.361026 
L 107.543502 288.026755 
L 108.819052 279.615028 
L 110.094602 302.79849 
L 111.370153 294.181665 
L 112.645703 296.028162 
L 113.921253 274.075658 
L 115.196803 303.003711 
L 116.472353 271.613742 
L 117.747903 282.897703 
L 119.023453 303.003711 
L 120.299003 272.639601 
L 121.574553 269.767245 
L 122.850103 269.972465 
L 124.125653 263.407236 
L 125.401203 253.559331 
L 126.676753 281.666746 
L 127.952303 274.485977 
L 129.227853 245.352825 
L 130.503403 266.484691 
L 131.778953 269.151827 
L 133.054503 241.249632 
L 134.330053 270.382784 
L 135.605604 256.226467 
L 136.881154 253.764551 
L 138.156704 247.609641 
L 139.432254 236.120581 
L 140.707804 247.199322 
L 141.983354 251.918054 
L 143.258904 237.556638 
L 144.534454 240.634093 
L 145.810004 245.147726 
L 147.085554 238.582497 
L 148.361104 256.226467 
L 149.636654 235.915361 
L 150.912204 232.222366 
L 152.187754 248.43028 
L 153.463304 229.965671 
L 154.738854 239.608355 
L 156.014404 228.734713 
L 157.289954 241.659952 
L 158.565504 221.759165 
L 159.841055 228.119174 
L 161.116605 218.271391 
L 162.392155 230.581089 
L 163.667705 225.862357 
L 164.943255 236.5309 
L 166.218805 255.405828 
L 167.494355 227.503634 
L 168.769905 236.94122 
L 170.045455 212.731899 
L 172.596555 234.068864 
L 173.872105 219.297128 
L 175.147655 213.757757 
L 176.423205 243.506449 
L 177.698755 236.5309 
L 178.974305 223.810761 
L 180.249855 218.271391 
L 181.525405 237.146319 
L 182.800955 203.089214 
L 184.076506 236.120581 
L 185.352056 225.657258 
L 186.627606 207.602847 
L 187.903156 222.784902 
L 189.178706 224.836498 
L 190.454256 210.064763 
L 191.729806 214.578396 
L 193.005356 214.578396 
L 194.280906 230.991408 
L 195.556456 214.783616 
L 196.832006 214.373297 
L 198.107556 211.090622 
L 199.383106 207.192528 
L 200.658656 202.268576 
L 201.934206 211.295842 
L 203.209756 203.909974 
L 204.485306 218.271391 
L 205.760856 225.041719 
L 207.036406 227.503634 
L 208.311956 201.242838 
L 209.587507 209.449345 
L 210.863057 211.91126 
L 212.138607 200.21698 
L 213.414157 223.810761 
L 214.689707 208.013167 
L 215.965257 206.576988 
L 217.240807 208.833805 
L 218.516357 213.142218 
L 219.791907 230.991408 
L 221.067457 209.449345 
L 222.343007 210.885523 
L 223.618557 202.473796 
L 224.894107 216.219673 
L 226.169657 200.011881 
L 227.445207 196.524106 
L 228.720757 213.757757 
L 229.996307 195.498248 
L 231.271857 199.601561 
L 232.547407 193.036332 
L 233.822958 192.626013 
L 235.098508 205.96157 
L 236.374058 201.653158 
L 237.649608 192.420792 
L 238.925158 190.779516 
L 240.200708 180.726512 
L 241.476258 193.65175 
L 242.751808 202.063477 
L 244.027358 200.011881 
L 245.302908 208.833805 
L 246.578458 187.49684 
L 247.854008 186.676202 
L 249.129558 201.037618 
L 250.405108 193.446651 
L 251.680658 194.211033 
L 252.956208 188.933018 
L 254.231758 188.522699 
L 255.507308 192.010473 
L 256.782858 189.343337 
L 258.058409 191.189835 
L 259.333959 193.856971 
L 260.609509 193.65175 
L 261.885059 195.087928 
L 263.160609 192.831112 
L 264.436159 187.907159 
L 265.711709 187.70206 
L 268.262809 193.65175 
L 269.538359 197.755064 
L 270.813909 192.831112 
L 272.089459 201.037618 
L 273.365009 195.498248 
L 274.640559 194.26729 
L 275.916109 188.522699 
L 277.191659 183.598747 
L 278.467209 190.779516 
L 279.742759 184.009066 
L 281.018309 212.731899 
L 283.56941 175.39224 
L 284.84496 180.110972 
L 286.12051 190.779516 
L 287.39606 198.986022 
L 288.67161 178.264596 
L 289.94716 187.49684 
L 291.22271 179.085235 
L 292.49826 177.033517 
L 293.77381 183.188427 
L 295.04936 181.95747 
L 296.32491 193.036332 
L 297.60046 189.548558 
L 298.87601 174.981921 
L 300.15156 201.858256 
L 301.42711 200.832519 
L 302.70266 177.033517 
L 303.97821 186.676202 
L 305.25376 181.136831 
L 306.529311 188.522699 
L 307.804861 186.265882 
L 309.080411 181.34193 
L 310.355961 192.215572 
L 311.631511 194.472389 
L 312.907061 181.752371 
L 314.182611 181.54715 
L 315.458161 180.726512 
L 316.733711 192.010473 
L 318.009261 183.188427 
L 319.284811 177.033517 
L 320.560361 179.085235 
L 321.835911 177.033517 
L 323.111461 180.110972 
L 324.387011 184.419385 
L 325.662561 182.983328 
L 326.938111 176.418099 
L 328.213661 177.649057 
L 329.489211 183.188427 
L 330.764762 184.214286 
L 332.040312 168.827011 
L 333.315862 183.598747 
L 334.591412 160.825725 
L 335.866962 174.571602 
L 337.142512 171.083828 
L 338.418062 178.674916 
L 339.693612 168.416692 
L 340.969162 178.674916 
L 342.244712 182.573009 
L 343.520262 173.340644 
L 344.795812 170.263189 
L 346.071362 188.317479 
L 347.346912 179.700653 
L 348.622462 173.545743 
L 349.898012 182.16269 
L 351.173562 175.39224 
L 352.449112 170.878729 
L 353.724662 177.443837 
L 355.000213 166.980635 
L 356.275763 174.776822 
L 357.551313 169.85287 
L 358.826863 178.674916 
L 360.102413 170.468409 
L 361.377963 176.828418 
L 362.653513 171.083828 
L 363.929063 186.881422 
L 365.204613 170.878729 
L 366.480163 173.750963 
L 367.755713 179.495554 
L 369.031263 163.08242 
L 370.306813 183.598747 
L 371.582363 175.80256 
L 372.857913 177.238738 
L 374.133463 160.415406 
L 375.409013 175.597461 
L 376.684563 177.443837 
L 377.960113 182.16269 
L 379.235664 169.647649 
L 380.511214 174.571602 
L 381.786764 162.261782 
L 383.062314 168.416692 
L 384.337864 179.290334 
L 385.613414 181.54715 
L 386.888964 167.185734 
L 388.164514 179.290334 
L 389.440064 167.596053 
L 390.715614 167.596053 
L 391.991164 161.030824 
L 393.266714 165.954776 
L 394.542264 163.08242 
L 395.817814 174.161283 
L 397.093364 170.878729 
L 398.368914 163.90318 
L 399.644464 162.877321 
L 400.920014 166.570194 
L 402.195564 173.545743 
L 403.471115 164.108279 
L 404.746665 163.90318 
L 406.022215 170.263189 
L 407.297765 179.495554 
L 408.573315 166.159875 
L 409.848865 158.979228 
L 411.124415 173.340644 
L 412.399965 160.005087 
L 413.675515 176.828418 
L 414.951065 165.749556 
L 416.226615 164.518598 
L 417.502165 159.799866 
L 418.777715 170.878729 
L 420.053265 160.620505 
L 421.328815 163.90318 
L 422.604365 163.69796 
L 423.879915 167.596053 
L 425.155465 161.236044 
L 426.431015 179.700653 
L 427.706566 162.672101 
L 428.982116 173.545743 
L 430.257666 157.13273 
L 431.533216 169.647649 
L 432.808766 175.597461 
L 434.084316 166.980635 
L 435.359866 168.621912 
L 436.635416 170.673508 
L 437.910966 169.442551 
L 439.186516 158.979228 
L 440.462066 165.544457 
L 441.737616 170.878729 
L 443.013166 170.468409 
L 444.288716 162.672101 
L 445.564266 166.570194 
L 446.839816 164.518598 
L 448.115366 157.54305 
L 449.390916 169.23733 
L 450.666466 163.492861 
L 451.942017 168.280607 
L 453.217567 154.055275 
L 454.493117 163.287641 
L 455.768667 174.571602 
L 458.319767 162.261782 
L 459.595317 161.236044 
L 460.870867 159.799866 
L 462.146417 159.594767 
L 463.421967 155.901773 
L 464.697517 160.825725 
L 465.973067 157.13273 
L 467.248617 156.722411 
L 468.524167 151.183041 
L 469.799717 158.363688 
L 471.075267 160.210185 
L 472.350817 164.313499 
L 473.626367 163.08242 
L 474.901917 158.158589 
L 476.177467 161.236044 
L 477.453018 156.517312 
L 478.728568 165.954776 
L 480.004118 164.723819 
L 481.279668 157.74827 
L 482.555218 158.158589 
L 483.830768 160.005087 
L 485.106318 157.337951 
L 486.381868 160.005087 
L 487.657418 160.415406 
L 488.932968 158.158589 
L 490.208518 158.363688 
L 491.484068 154.670815 
L 492.759618 145.43845 
L 494.035168 161.441143 
L 495.310718 157.74827 
L 496.586268 152.413998 
L 497.861818 162.672101 
L 499.137368 164.313499 
L 500.412918 153.850177 
L 501.688469 151.38814 
L 502.964019 168.006373 
L 504.239569 158.158589 
L 505.515119 147.284947 
L 506.790669 160.005087 
L 508.066219 149.336543 
L 509.341769 149.952083 
L 510.617319 164.313499 
L 511.892869 159.799866 
L 513.168419 149.952083 
L 514.443969 149.952083 
L 515.719519 158.363688 
L 516.995069 153.029538 
L 518.270619 150.567501 
L 519.546169 155.696552 
L 520.821719 148.926224 
L 522.097269 155.901773 
L 523.372819 160.005087 
L 524.648369 154.465595 
L 525.92392 141.745577 
L 527.19947 152.003679 
L 528.47502 154.055275 
L 529.75057 152.208778 
L 531.02612 155.286233 
L 532.30167 150.157182 
L 533.57722 150.362402 
L 534.85277 153.850177 
L 536.12832 152.619219 
L 537.40387 152.413998 
L 538.67942 145.848769 
L 539.95497 150.362402 
L 541.23052 149.746863 
L 542.50607 152.619219 
L 543.78162 140.719718 
L 545.05717 143.181633 
L 546.33272 149.336543 
L 547.60827 160.210185 
L 548.88382 149.131445 
L 550.159371 141.540356 
L 551.434921 153.234637 
L 552.710471 156.106993 
L 553.986021 146.874628 
L 555.261571 149.336543 
L 556.537121 162.877321 
L 557.812671 149.541764 
L 559.088221 153.644956 
L 560.363771 152.003679 
L 561.639321 151.798459 
L 562.914871 149.541764 
L 564.190421 147.695266 
L 565.465971 150.97782 
L 566.741521 141.950676 
L 568.017071 139.48876 
L 569.292621 145.64367 
L 570.568171 156.927632 
L 571.843721 141.335257 
L 573.119271 150.772721 
L 574.394822 153.234637 
L 575.670372 141.950676 
L 576.945922 148.310685 
L 578.221472 150.362402 
L 579.497022 147.900365 
L 580.772572 151.59336 
L 582.048122 156.312092 
L 583.323672 147.284947 
L 584.599222 139.899079 
L 585.874772 147.079727 
L 587.150322 145.64367 
L 588.425872 146.669408 
L 589.701422 151.183041 
L 590.976972 153.850177 
L 593.528072 145.43845 
L 594.803622 142.976534 
L 596.079172 150.157182 
L 597.354722 143.591953 
L 598.630273 151.59336 
L 599.905823 142.155896 
L 601.181373 148.310685 
L 602.456923 146.053989 
L 603.732473 138.668122 
L 605.008023 145.64367 
L 606.283573 139.078441 
L 608.834673 143.386854 
L 610.110223 144.617811 
L 611.385773 141.130037 
L 612.661323 145.233351 
L 613.936873 145.233351 
L 615.212423 139.48876 
L 616.487973 141.745577 
L 617.763523 142.771314 
L 619.039073 152.413998 
L 620.314623 137.642263 
L 621.590173 145.64367 
L 622.865724 141.335257 
L 624.141274 145.64367 
L 625.416824 137.642263 
L 626.692374 141.540356 
L 627.967924 142.771314 
L 629.243474 138.257802 
L 630.519024 139.48876 
L 631.794574 143.181633 
L 633.070124 138.668122 
L 634.345674 140.104178 
L 635.621224 137.026723 
L 636.896774 136.821624 
L 638.172324 141.950676 
L 639.447874 134.975127 
L 640.723424 139.693859 
L 641.998974 140.514497 
L 643.274524 137.847483 
L 644.550074 141.540356 
L 645.825624 137.231944 
L 647.101175 141.950676 
L 648.376725 141.745577 
L 649.652275 138.873221 
L 650.927825 136.821624 
L 652.203375 137.858297 
L 653.478925 133.744169 
L 654.754475 135.180347 
L 656.030025 136.411305 
L 657.305575 138.668122 
L 658.581125 134.770028 
L 659.856675 134.359709 
L 661.132225 140.309399 
L 662.407775 136.616404 
L 664.958875 136.616404 
L 666.234425 136.206085 
L 667.509975 131.692573 
L 668.785525 137.437042 
L 670.061075 140.104178 
L 671.336626 138.052582 
L 672.612176 135.590667 
L 673.887726 135.590667 
L 675.163276 136.411305 
L 676.438826 134.770028 
L 677.714376 135.795765 
L 678.989926 133.538949 
L 680.265476 142.155896 
L 681.541026 135.385446 
L 682.816576 130.461615 
L 684.092126 138.873221 
L 685.367676 132.513212 
L 686.643226 135.795765 
L 687.918776 137.437042 
L 687.918776 137.437042 
" style="fill:none;stroke:#4daf4a;stroke-linecap:square;stroke-width:1.5;"/>
   </g>
   <g id="patch_3">
    <path d="M 50.14375 337.159219 
L 50.14375 10.999219 
" style="fill:none;stroke:#000000;stroke-linecap:square;stroke-linejoin:miter;stroke-width:0.8;"/>
   </g>
   <g id="patch_4">
    <path d="M 719.74375 337.159219 
L 719.74375 10.999219 
" style="fill:none;stroke:#000000;stroke-linecap:square;stroke-linejoin:miter;stroke-width:0.8;"/>
   </g>
   <g id="patch_5">
    <path d="M 50.14375 337.159219 
L 719.74375 337.159219 
" style="fill:none;stroke:#000000;stroke-linecap:square;stroke-linejoin:miter;stroke-width:0.8;"/>
   </g>
   <g id="patch_6">
    <path d="M 50.14375 10.999219 
L 719.74375 10.999219 
" style="fill:none;stroke:#000000;stroke-linecap:square;stroke-linejoin:miter;stroke-width:0.8;"/>
   </g>
   <g id="legend_1">
    <g id="patch_7">
     <path d="M 57.14375 48.355469 
L 114.584375 48.355469 
Q 116.584375 48.355469 116.584375 46.355469 
L 116.584375 17.999219 
Q 116.584375 15.999219 114.584375 15.999219 
L 57.14375 15.999219 
Q 55.14375 15.999219 55.14375 17.999219 
L 55.14375 46.355469 
Q 55.14375 48.355469 57.14375 48.355469 
z
" style="fill:#ffffff;opacity:0.8;stroke:#cccccc;stroke-linejoin:miter;"/>
    </g>
    <g id="line2d_33">
     <path d="M 59.14375 24.097656 
L 79.14375 24.097656 
" style="fill:none;stroke:#377eb8;stroke-linecap:square;stroke-width:1.5;"/>
    </g>
    <g id="line2d_34"/>
    <g id="text_18">
     <!-- Train -->
     <defs>
      <path d="M -0.296875 72.90625 
L 61.375 72.90625 
L 61.375 64.59375 
L 35.5 64.59375 
L 35.5 0 
L 25.59375 0 
L 25.59375 64.59375 
L -0.296875 64.59375 
z
" id="DejaVuSans-84"/>
      <path d="M 9.421875 54.6875 
L 18.40625 54.6875 
L 18.40625 0 
L 9.421875 0 
z
M 9.421875 75.984375 
L 18.40625 75.984375 
L 18.40625 64.59375 
L 9.421875 64.59375 
z
" id="DejaVuSans-105"/>
      <path d="M 54.890625 33.015625 
L 54.890625 0 
L 45.90625 0 
L 45.90625 32.71875 
Q 45.90625 40.484375 42.875 44.328125 
Q 39.84375 48.1875 33.796875 48.1875 
Q 26.515625 48.1875 22.3125 43.546875 
Q 18.109375 38.921875 18.109375 30.90625 
L 18.109375 0 
L 9.078125 0 
L 9.078125 54.6875 
L 18.109375 54.6875 
L 18.109375 46.1875 
Q 21.34375 51.125 25.703125 53.5625 
Q 30.078125 56 35.796875 56 
Q 45.21875 56 50.046875 50.171875 
Q 54.890625 44.34375 54.890625 33.015625 
z
" id="DejaVuSans-110"/>
     </defs>
     <g transform="translate(87.14375 27.597656)scale(0.1 -0.1)">
      <use xlink:href="#DejaVuSans-84"/>
      <use x="60.865234" xlink:href="#DejaVuSans-114"/>
      <use x="101.978516" xlink:href="#DejaVuSans-97"/>
      <use x="163.257812" xlink:href="#DejaVuSans-105"/>
      <use x="191.041016" xlink:href="#DejaVuSans-110"/>
     </g>
    </g>
    <g id="line2d_35">
     <path d="M 59.14375 38.775781 
L 79.14375 38.775781 
" style="fill:none;stroke:#4daf4a;stroke-linecap:square;stroke-width:1.5;"/>
    </g>
    <g id="line2d_36"/>
    <g id="text_19">
     <!-- Test -->
     <defs>
      <path d="M 56.203125 29.59375 
L 56.203125 25.203125 
L 14.890625 25.203125 
Q 15.484375 15.921875 20.484375 11.0625 
Q 25.484375 6.203125 34.421875 6.203125 
Q 39.59375 6.203125 44.453125 7.46875 
Q 49.3125 8.734375 54.109375 11.28125 
L 54.109375 2.78125 
Q 49.265625 0.734375 44.1875 -0.34375 
Q 39.109375 -1.421875 33.890625 -1.421875 
Q 20.796875 -1.421875 13.15625 6.1875 
Q 5.515625 13.8125 5.515625 26.8125 
Q 5.515625 40.234375 12.765625 48.109375 
Q 20.015625 56 32.328125 56 
Q 43.359375 56 49.78125 48.890625 
Q 56.203125 41.796875 56.203125 29.59375 
z
M 47.21875 32.234375 
Q 47.125 39.59375 43.09375 43.984375 
Q 39.0625 48.390625 32.421875 48.390625 
Q 24.90625 48.390625 20.390625 44.140625 
Q 15.875 39.890625 15.1875 32.171875 
z
" id="DejaVuSans-101"/>
      <path d="M 44.28125 53.078125 
L 44.28125 44.578125 
Q 40.484375 46.53125 36.375 47.5 
Q 32.28125 48.484375 27.875 48.484375 
Q 21.1875 48.484375 17.84375 46.4375 
Q 14.5 44.390625 14.5 40.28125 
Q 14.5 37.15625 16.890625 35.375 
Q 19.28125 33.59375 26.515625 31.984375 
L 29.59375 31.296875 
Q 39.15625 29.25 43.1875 25.515625 
Q 47.21875 21.78125 47.21875 15.09375 
Q 47.21875 7.46875 41.1875 3.015625 
Q 35.15625 -1.421875 24.609375 -1.421875 
Q 20.21875 -1.421875 15.453125 -0.5625 
Q 10.6875 0.296875 5.421875 2 
L 5.421875 11.28125 
Q 10.40625 8.6875 15.234375 7.390625 
Q 20.0625 6.109375 24.8125 6.109375 
Q 31.15625 6.109375 34.5625 8.28125 
Q 37.984375 10.453125 37.984375 14.40625 
Q 37.984375 18.0625 35.515625 20.015625 
Q 33.0625 21.96875 24.703125 23.78125 
L 21.578125 24.515625 
Q 13.234375 26.265625 9.515625 29.90625 
Q 5.8125 33.546875 5.8125 39.890625 
Q 5.8125 47.609375 11.28125 51.796875 
Q 16.75 56 26.8125 56 
Q 31.78125 56 36.171875 55.265625 
Q 40.578125 54.546875 44.28125 53.078125 
z
" id="DejaVuSans-115"/>
      <path d="M 18.3125 70.21875 
L 18.3125 54.6875 
L 36.8125 54.6875 
L 36.8125 47.703125 
L 18.3125 47.703125 
L 18.3125 18.015625 
Q 18.3125 11.328125 20.140625 9.421875 
Q 21.96875 7.515625 27.59375 7.515625 
L 36.8125 7.515625 
L 36.8125 0 
L 27.59375 0 
Q 17.1875 0 13.234375 3.875 
Q 9.28125 7.765625 9.28125 18.015625 
L 9.28125 47.703125 
L 2.6875 47.703125 
L 2.6875 54.6875 
L 9.28125 54.6875 
L 9.28125 70.21875 
z
" id="DejaVuSans-116"/>
     </defs>
     <g transform="translate(87.14375 42.275781)scale(0.1 -0.1)">
      <use xlink:href="#DejaVuSans-84"/>
      <use x="60.818359" xlink:href="#DejaVuSans-101"/>
      <use x="122.341797" xlink:href="#DejaVuSans-115"/>
      <use x="174.441406" xlink:href="#DejaVuSans-116"/>
     </g>
    </g>
   </g>
  </g>
 </g>
 <defs>
  <clipPath id="pb74e54dec4">
   <rect height="326.16" width="669.6" x="50.14375" y="10.999219"/>
  </clipPath>
 </defs>
</svg>
