<?xml version="1.0" encoding="utf-8" standalone="no"?>
<!DOCTYPE svg PUBLIC "-//W3C//DTD SVG 1.1//EN"
  "http://www.w3.org/Graphics/SVG/1.1/DTD/svg11.dtd">
<!-- Created with matplotlib (https://matplotlib.org/) -->
<svg height="386.034375pt" version="1.1" viewBox="0 0 726.94375 386.034375" width="726.94375pt" xmlns="http://www.w3.org/2000/svg" xmlns:xlink="http://www.w3.org/1999/xlink">
 <defs>
  <style type="text/css">
*{stroke-linecap:butt;stroke-linejoin:round;white-space:pre;}
  </style>
 </defs>
 <g id="figure_1">
  <g id="patch_1">
   <path d="M 0 386.034375 
L 726.94375 386.034375 
L 726.94375 0 
L 0 0 
z
" style="fill:#ffffff;"/>
  </g>
  <g id="axes_1">
   <g id="patch_2">
    <path d="M 50.14375 348.478125 
L 719.74375 348.478125 
L 719.74375 22.318125 
L 50.14375 22.318125 
z
" style="fill:#ffffff;"/>
   </g>
   <g id="matplotlib.axis_1">
    <g id="xtick_1">
     <g id="line2d_1">
      <defs>
       <path d="M 0 0 
L 0 3.5 
" id="mebcc111e4f" style="stroke:#000000;stroke-width:0.8;"/>
      </defs>
      <g>
       <use style="stroke:#000000;stroke-width:0.8;" x="80.580114" xlink:href="#mebcc111e4f" y="348.478125"/>
      </g>
     </g>
     <g id="text_1">
      <!-- 0 -->
      <defs>
       <path d="M 31.78125 66.40625 
Q 24.171875 66.40625 20.328125 58.90625 
Q 16.5 51.421875 16.5 36.375 
Q 16.5 21.390625 20.328125 13.890625 
Q 24.171875 6.390625 31.78125 6.390625 
Q 39.453125 6.390625 43.28125 13.890625 
Q 47.125 21.390625 47.125 36.375 
Q 47.125 51.421875 43.28125 58.90625 
Q 39.453125 66.40625 31.78125 66.40625 
z
M 31.78125 74.21875 
Q 44.046875 74.21875 50.515625 64.515625 
Q 56.984375 54.828125 56.984375 36.375 
Q 56.984375 17.96875 50.515625 8.265625 
Q 44.046875 -1.421875 31.78125 -1.421875 
Q 19.53125 -1.421875 13.0625 8.265625 
Q 6.59375 17.96875 6.59375 36.375 
Q 6.59375 54.828125 13.0625 64.515625 
Q 19.53125 74.21875 31.78125 74.21875 
z
" id="DejaVuSans-48"/>
      </defs>
      <g transform="translate(77.398864 363.076562)scale(0.1 -0.1)">
       <use xlink:href="#DejaVuSans-48"/>
      </g>
     </g>
    </g>
    <g id="xtick_2">
     <g id="line2d_2">
      <g>
       <use style="stroke:#000000;stroke-width:0.8;" x="156.766255" xlink:href="#mebcc111e4f" y="348.478125"/>
      </g>
     </g>
     <g id="text_2">
      <!-- 100 -->
      <defs>
       <path d="M 12.40625 8.296875 
L 28.515625 8.296875 
L 28.515625 63.921875 
L 10.984375 60.40625 
L 10.984375 69.390625 
L 28.421875 72.90625 
L 38.28125 72.90625 
L 38.28125 8.296875 
L 54.390625 8.296875 
L 54.390625 0 
L 12.40625 0 
z
" id="DejaVuSans-49"/>
      </defs>
      <g transform="translate(147.222505 363.076562)scale(0.1 -0.1)">
       <use xlink:href="#DejaVuSans-49"/>
       <use x="63.623047" xlink:href="#DejaVuSans-48"/>
       <use x="127.246094" xlink:href="#DejaVuSans-48"/>
      </g>
     </g>
    </g>
    <g id="xtick_3">
     <g id="line2d_3">
      <g>
       <use style="stroke:#000000;stroke-width:0.8;" x="232.952397" xlink:href="#mebcc111e4f" y="348.478125"/>
      </g>
     </g>
     <g id="text_3">
      <!-- 200 -->
      <defs>
       <path d="M 19.1875 8.296875 
L 53.609375 8.296875 
L 53.609375 0 
L 7.328125 0 
L 7.328125 8.296875 
Q 12.9375 14.109375 22.625 23.890625 
Q 32.328125 33.6875 34.8125 36.53125 
Q 39.546875 41.84375 41.421875 45.53125 
Q 43.3125 49.21875 43.3125 52.78125 
Q 43.3125 58.59375 39.234375 62.25 
Q 35.15625 65.921875 28.609375 65.921875 
Q 23.96875 65.921875 18.8125 64.3125 
Q 13.671875 62.703125 7.8125 59.421875 
L 7.8125 69.390625 
Q 13.765625 71.78125 18.9375 73 
Q 24.125 74.21875 28.421875 74.21875 
Q 39.75 74.21875 46.484375 68.546875 
Q 53.21875 62.890625 53.21875 53.421875 
Q 53.21875 48.921875 51.53125 44.890625 
Q 49.859375 40.875 45.40625 35.40625 
Q 44.1875 33.984375 37.640625 27.21875 
Q 31.109375 20.453125 19.1875 8.296875 
z
" id="DejaVuSans-50"/>
      </defs>
      <g transform="translate(223.408647 363.076562)scale(0.1 -0.1)">
       <use xlink:href="#DejaVuSans-50"/>
       <use x="63.623047" xlink:href="#DejaVuSans-48"/>
       <use x="127.246094" xlink:href="#DejaVuSans-48"/>
      </g>
     </g>
    </g>
    <g id="xtick_4">
     <g id="line2d_4">
      <g>
       <use style="stroke:#000000;stroke-width:0.8;" x="309.138539" xlink:href="#mebcc111e4f" y="348.478125"/>
      </g>
     </g>
     <g id="text_4">
      <!-- 300 -->
      <defs>
       <path d="M 40.578125 39.3125 
Q 47.65625 37.796875 51.625 33 
Q 55.609375 28.21875 55.609375 21.1875 
Q 55.609375 10.40625 48.1875 4.484375 
Q 40.765625 -1.421875 27.09375 -1.421875 
Q 22.515625 -1.421875 17.65625 -0.515625 
Q 12.796875 0.390625 7.625 2.203125 
L 7.625 11.71875 
Q 11.71875 9.328125 16.59375 8.109375 
Q 21.484375 6.890625 26.8125 6.890625 
Q 36.078125 6.890625 40.9375 10.546875 
Q 45.796875 14.203125 45.796875 21.1875 
Q 45.796875 27.640625 41.28125 31.265625 
Q 36.765625 34.90625 28.71875 34.90625 
L 20.21875 34.90625 
L 20.21875 43.015625 
L 29.109375 43.015625 
Q 36.375 43.015625 40.234375 45.921875 
Q 44.09375 48.828125 44.09375 54.296875 
Q 44.09375 59.90625 40.109375 62.90625 
Q 36.140625 65.921875 28.71875 65.921875 
Q 24.65625 65.921875 20.015625 65.03125 
Q 15.375 64.15625 9.8125 62.3125 
L 9.8125 71.09375 
Q 15.4375 72.65625 20.34375 73.4375 
Q 25.25 74.21875 29.59375 74.21875 
Q 40.828125 74.21875 47.359375 69.109375 
Q 53.90625 64.015625 53.90625 55.328125 
Q 53.90625 49.265625 50.4375 45.09375 
Q 46.96875 40.921875 40.578125 39.3125 
z
" id="DejaVuSans-51"/>
      </defs>
      <g transform="translate(299.594789 363.076562)scale(0.1 -0.1)">
       <use xlink:href="#DejaVuSans-51"/>
       <use x="63.623047" xlink:href="#DejaVuSans-48"/>
       <use x="127.246094" xlink:href="#DejaVuSans-48"/>
      </g>
     </g>
    </g>
    <g id="xtick_5">
     <g id="line2d_5">
      <g>
       <use style="stroke:#000000;stroke-width:0.8;" x="385.324681" xlink:href="#mebcc111e4f" y="348.478125"/>
      </g>
     </g>
     <g id="text_5">
      <!-- 400 -->
      <defs>
       <path d="M 37.796875 64.3125 
L 12.890625 25.390625 
L 37.796875 25.390625 
z
M 35.203125 72.90625 
L 47.609375 72.90625 
L 47.609375 25.390625 
L 58.015625 25.390625 
L 58.015625 17.1875 
L 47.609375 17.1875 
L 47.609375 0 
L 37.796875 0 
L 37.796875 17.1875 
L 4.890625 17.1875 
L 4.890625 26.703125 
z
" id="DejaVuSans-52"/>
      </defs>
      <g transform="translate(375.780931 363.076562)scale(0.1 -0.1)">
       <use xlink:href="#DejaVuSans-52"/>
       <use x="63.623047" xlink:href="#DejaVuSans-48"/>
       <use x="127.246094" xlink:href="#DejaVuSans-48"/>
      </g>
     </g>
    </g>
    <g id="xtick_6">
     <g id="line2d_6">
      <g>
       <use style="stroke:#000000;stroke-width:0.8;" x="461.510822" xlink:href="#mebcc111e4f" y="348.478125"/>
      </g>
     </g>
     <g id="text_6">
      <!-- 500 -->
      <defs>
       <path d="M 10.796875 72.90625 
L 49.515625 72.90625 
L 49.515625 64.59375 
L 19.828125 64.59375 
L 19.828125 46.734375 
Q 21.96875 47.46875 24.109375 47.828125 
Q 26.265625 48.1875 28.421875 48.1875 
Q 40.625 48.1875 47.75 41.5 
Q 54.890625 34.8125 54.890625 23.390625 
Q 54.890625 11.625 47.5625 5.09375 
Q 40.234375 -1.421875 26.90625 -1.421875 
Q 22.3125 -1.421875 17.546875 -0.640625 
Q 12.796875 0.140625 7.71875 1.703125 
L 7.71875 11.625 
Q 12.109375 9.234375 16.796875 8.0625 
Q 21.484375 6.890625 26.703125 6.890625 
Q 35.15625 6.890625 40.078125 11.328125 
Q 45.015625 15.765625 45.015625 23.390625 
Q 45.015625 31 40.078125 35.4375 
Q 35.15625 39.890625 26.703125 39.890625 
Q 22.75 39.890625 18.8125 39.015625 
Q 14.890625 38.140625 10.796875 36.28125 
z
" id="DejaVuSans-53"/>
      </defs>
      <g transform="translate(451.967072 363.076562)scale(0.1 -0.1)">
       <use xlink:href="#DejaVuSans-53"/>
       <use x="63.623047" xlink:href="#DejaVuSans-48"/>
       <use x="127.246094" xlink:href="#DejaVuSans-48"/>
      </g>
     </g>
    </g>
    <g id="xtick_7">
     <g id="line2d_7">
      <g>
       <use style="stroke:#000000;stroke-width:0.8;" x="537.696964" xlink:href="#mebcc111e4f" y="348.478125"/>
      </g>
     </g>
     <g id="text_7">
      <!-- 600 -->
      <defs>
       <path d="M 33.015625 40.375 
Q 26.375 40.375 22.484375 35.828125 
Q 18.609375 31.296875 18.609375 23.390625 
Q 18.609375 15.53125 22.484375 10.953125 
Q 26.375 6.390625 33.015625 6.390625 
Q 39.65625 6.390625 43.53125 10.953125 
Q 47.40625 15.53125 47.40625 23.390625 
Q 47.40625 31.296875 43.53125 35.828125 
Q 39.65625 40.375 33.015625 40.375 
z
M 52.59375 71.296875 
L 52.59375 62.3125 
Q 48.875 64.0625 45.09375 64.984375 
Q 41.3125 65.921875 37.59375 65.921875 
Q 27.828125 65.921875 22.671875 59.328125 
Q 17.53125 52.734375 16.796875 39.40625 
Q 19.671875 43.65625 24.015625 45.921875 
Q 28.375 48.1875 33.59375 48.1875 
Q 44.578125 48.1875 50.953125 41.515625 
Q 57.328125 34.859375 57.328125 23.390625 
Q 57.328125 12.15625 50.6875 5.359375 
Q 44.046875 -1.421875 33.015625 -1.421875 
Q 20.359375 -1.421875 13.671875 8.265625 
Q 6.984375 17.96875 6.984375 36.375 
Q 6.984375 53.65625 15.1875 63.9375 
Q 23.390625 74.21875 37.203125 74.21875 
Q 40.921875 74.21875 44.703125 73.484375 
Q 48.484375 72.75 52.59375 71.296875 
z
" id="DejaVuSans-54"/>
      </defs>
      <g transform="translate(528.153214 363.076562)scale(0.1 -0.1)">
       <use xlink:href="#DejaVuSans-54"/>
       <use x="63.623047" xlink:href="#DejaVuSans-48"/>
       <use x="127.246094" xlink:href="#DejaVuSans-48"/>
      </g>
     </g>
    </g>
    <g id="xtick_8">
     <g id="line2d_8">
      <g>
       <use style="stroke:#000000;stroke-width:0.8;" x="613.883106" xlink:href="#mebcc111e4f" y="348.478125"/>
      </g>
     </g>
     <g id="text_8">
      <!-- 700 -->
      <defs>
       <path d="M 8.203125 72.90625 
L 55.078125 72.90625 
L 55.078125 68.703125 
L 28.609375 0 
L 18.3125 0 
L 43.21875 64.59375 
L 8.203125 64.59375 
z
" id="DejaVuSans-55"/>
      </defs>
      <g transform="translate(604.339356 363.076562)scale(0.1 -0.1)">
       <use xlink:href="#DejaVuSans-55"/>
       <use x="63.623047" xlink:href="#DejaVuSans-48"/>
       <use x="127.246094" xlink:href="#DejaVuSans-48"/>
      </g>
     </g>
    </g>
    <g id="xtick_9">
     <g id="line2d_9">
      <g>
       <use style="stroke:#000000;stroke-width:0.8;" x="690.069248" xlink:href="#mebcc111e4f" y="348.478125"/>
      </g>
     </g>
     <g id="text_9">
      <!-- 800 -->
      <defs>
       <path d="M 31.78125 34.625 
Q 24.75 34.625 20.71875 30.859375 
Q 16.703125 27.09375 16.703125 20.515625 
Q 16.703125 13.921875 20.71875 10.15625 
Q 24.75 6.390625 31.78125 6.390625 
Q 38.8125 6.390625 42.859375 10.171875 
Q 46.921875 13.96875 46.921875 20.515625 
Q 46.921875 27.09375 42.890625 30.859375 
Q 38.875 34.625 31.78125 34.625 
z
M 21.921875 38.8125 
Q 15.578125 40.375 12.03125 44.71875 
Q 8.5 49.078125 8.5 55.328125 
Q 8.5 64.0625 14.71875 69.140625 
Q 20.953125 74.21875 31.78125 74.21875 
Q 42.671875 74.21875 48.875 69.140625 
Q 55.078125 64.0625 55.078125 55.328125 
Q 55.078125 49.078125 51.53125 44.71875 
Q 48 40.375 41.703125 38.8125 
Q 48.828125 37.15625 52.796875 32.3125 
Q 56.78125 27.484375 56.78125 20.515625 
Q 56.78125 9.90625 50.3125 4.234375 
Q 43.84375 -1.421875 31.78125 -1.421875 
Q 19.734375 -1.421875 13.25 4.234375 
Q 6.78125 9.90625 6.78125 20.515625 
Q 6.78125 27.484375 10.78125 32.3125 
Q 14.796875 37.15625 21.921875 38.8125 
z
M 18.3125 54.390625 
Q 18.3125 48.734375 21.84375 45.5625 
Q 25.390625 42.390625 31.78125 42.390625 
Q 38.140625 42.390625 41.71875 45.5625 
Q 45.3125 48.734375 45.3125 54.390625 
Q 45.3125 60.0625 41.71875 63.234375 
Q 38.140625 66.40625 31.78125 66.40625 
Q 25.390625 66.40625 21.84375 63.234375 
Q 18.3125 60.0625 18.3125 54.390625 
z
" id="DejaVuSans-56"/>
      </defs>
      <g transform="translate(680.525498 363.076562)scale(0.1 -0.1)">
       <use xlink:href="#DejaVuSans-56"/>
       <use x="63.623047" xlink:href="#DejaVuSans-48"/>
       <use x="127.246094" xlink:href="#DejaVuSans-48"/>
      </g>
     </g>
    </g>
    <g id="text_10">
     <!-- Epoch -->
     <defs>
      <path d="M 9.8125 72.90625 
L 55.90625 72.90625 
L 55.90625 64.59375 
L 19.671875 64.59375 
L 19.671875 43.015625 
L 54.390625 43.015625 
L 54.390625 34.71875 
L 19.671875 34.71875 
L 19.671875 8.296875 
L 56.78125 8.296875 
L 56.78125 0 
L 9.8125 0 
z
" id="DejaVuSans-69"/>
      <path d="M 18.109375 8.203125 
L 18.109375 -20.796875 
L 9.078125 -20.796875 
L 9.078125 54.6875 
L 18.109375 54.6875 
L 18.109375 46.390625 
Q 20.953125 51.265625 25.265625 53.625 
Q 29.59375 56 35.59375 56 
Q 45.5625 56 51.78125 48.09375 
Q 58.015625 40.1875 58.015625 27.296875 
Q 58.015625 14.40625 51.78125 6.484375 
Q 45.5625 -1.421875 35.59375 -1.421875 
Q 29.59375 -1.421875 25.265625 0.953125 
Q 20.953125 3.328125 18.109375 8.203125 
z
M 48.6875 27.296875 
Q 48.6875 37.203125 44.609375 42.84375 
Q 40.53125 48.484375 33.40625 48.484375 
Q 26.265625 48.484375 22.1875 42.84375 
Q 18.109375 37.203125 18.109375 27.296875 
Q 18.109375 17.390625 22.1875 11.75 
Q 26.265625 6.109375 33.40625 6.109375 
Q 40.53125 6.109375 44.609375 11.75 
Q 48.6875 17.390625 48.6875 27.296875 
z
" id="DejaVuSans-112"/>
      <path d="M 30.609375 48.390625 
Q 23.390625 48.390625 19.1875 42.75 
Q 14.984375 37.109375 14.984375 27.296875 
Q 14.984375 17.484375 19.15625 11.84375 
Q 23.34375 6.203125 30.609375 6.203125 
Q 37.796875 6.203125 41.984375 11.859375 
Q 46.1875 17.53125 46.1875 27.296875 
Q 46.1875 37.015625 41.984375 42.703125 
Q 37.796875 48.390625 30.609375 48.390625 
z
M 30.609375 56 
Q 42.328125 56 49.015625 48.375 
Q 55.71875 40.765625 55.71875 27.296875 
Q 55.71875 13.875 49.015625 6.21875 
Q 42.328125 -1.421875 30.609375 -1.421875 
Q 18.84375 -1.421875 12.171875 6.21875 
Q 5.515625 13.875 5.515625 27.296875 
Q 5.515625 40.765625 12.171875 48.375 
Q 18.84375 56 30.609375 56 
z
" id="DejaVuSans-111"/>
      <path d="M 48.78125 52.59375 
L 48.78125 44.1875 
Q 44.96875 46.296875 41.140625 47.34375 
Q 37.3125 48.390625 33.40625 48.390625 
Q 24.65625 48.390625 19.8125 42.84375 
Q 14.984375 37.3125 14.984375 27.296875 
Q 14.984375 17.28125 19.8125 11.734375 
Q 24.65625 6.203125 33.40625 6.203125 
Q 37.3125 6.203125 41.140625 7.25 
Q 44.96875 8.296875 48.78125 10.40625 
L 48.78125 2.09375 
Q 45.015625 0.34375 40.984375 -0.53125 
Q 36.96875 -1.421875 32.421875 -1.421875 
Q 20.0625 -1.421875 12.78125 6.34375 
Q 5.515625 14.109375 5.515625 27.296875 
Q 5.515625 40.671875 12.859375 48.328125 
Q 20.21875 56 33.015625 56 
Q 37.15625 56 41.109375 55.140625 
Q 45.0625 54.296875 48.78125 52.59375 
z
" id="DejaVuSans-99"/>
      <path d="M 54.890625 33.015625 
L 54.890625 0 
L 45.90625 0 
L 45.90625 32.71875 
Q 45.90625 40.484375 42.875 44.328125 
Q 39.84375 48.1875 33.796875 48.1875 
Q 26.515625 48.1875 22.3125 43.546875 
Q 18.109375 38.921875 18.109375 30.90625 
L 18.109375 0 
L 9.078125 0 
L 9.078125 75.984375 
L 18.109375 75.984375 
L 18.109375 46.1875 
Q 21.34375 51.125 25.703125 53.5625 
Q 30.078125 56 35.796875 56 
Q 45.21875 56 50.046875 50.171875 
Q 54.890625 44.34375 54.890625 33.015625 
z
" id="DejaVuSans-104"/>
     </defs>
     <g transform="translate(369.632813 376.754687)scale(0.1 -0.1)">
      <use xlink:href="#DejaVuSans-69"/>
      <use x="63.183594" xlink:href="#DejaVuSans-112"/>
      <use x="126.660156" xlink:href="#DejaVuSans-111"/>
      <use x="187.841797" xlink:href="#DejaVuSans-99"/>
      <use x="242.822266" xlink:href="#DejaVuSans-104"/>
     </g>
    </g>
   </g>
   <g id="matplotlib.axis_2">
    <g id="ytick_1">
     <g id="line2d_10">
      <defs>
       <path d="M 0 0 
L -3.5 0 
" id="m826e1c3015" style="stroke:#000000;stroke-width:0.8;"/>
      </defs>
      <g>
       <use style="stroke:#000000;stroke-width:0.8;" x="50.14375" xlink:href="#m826e1c3015" y="315.575569"/>
      </g>
     </g>
     <g id="text_11">
      <!-- 0.70 -->
      <defs>
       <path d="M 10.6875 12.40625 
L 21 12.40625 
L 21 0 
L 10.6875 0 
z
" id="DejaVuSans-46"/>
      </defs>
      <g transform="translate(20.878125 319.374788)scale(0.1 -0.1)">
       <use xlink:href="#DejaVuSans-48"/>
       <use x="63.623047" xlink:href="#DejaVuSans-46"/>
       <use x="95.410156" xlink:href="#DejaVuSans-55"/>
       <use x="159.033203" xlink:href="#DejaVuSans-48"/>
      </g>
     </g>
    </g>
    <g id="ytick_2">
     <g id="line2d_11">
      <g>
       <use style="stroke:#000000;stroke-width:0.8;" x="50.14375" xlink:href="#m826e1c3015" y="266.251917"/>
      </g>
     </g>
     <g id="text_12">
      <!-- 0.75 -->
      <g transform="translate(20.878125 270.051136)scale(0.1 -0.1)">
       <use xlink:href="#DejaVuSans-48"/>
       <use x="63.623047" xlink:href="#DejaVuSans-46"/>
       <use x="95.410156" xlink:href="#DejaVuSans-55"/>
       <use x="159.033203" xlink:href="#DejaVuSans-53"/>
      </g>
     </g>
    </g>
    <g id="ytick_3">
     <g id="line2d_12">
      <g>
       <use style="stroke:#000000;stroke-width:0.8;" x="50.14375" xlink:href="#m826e1c3015" y="216.928265"/>
      </g>
     </g>
     <g id="text_13">
      <!-- 0.80 -->
      <g transform="translate(20.878125 220.727484)scale(0.1 -0.1)">
       <use xlink:href="#DejaVuSans-48"/>
       <use x="63.623047" xlink:href="#DejaVuSans-46"/>
       <use x="95.410156" xlink:href="#DejaVuSans-56"/>
       <use x="159.033203" xlink:href="#DejaVuSans-48"/>
      </g>
     </g>
    </g>
    <g id="ytick_4">
     <g id="line2d_13">
      <g>
       <use style="stroke:#000000;stroke-width:0.8;" x="50.14375" xlink:href="#m826e1c3015" y="167.604614"/>
      </g>
     </g>
     <g id="text_14">
      <!-- 0.85 -->
      <g transform="translate(20.878125 171.403833)scale(0.1 -0.1)">
       <use xlink:href="#DejaVuSans-48"/>
       <use x="63.623047" xlink:href="#DejaVuSans-46"/>
       <use x="95.410156" xlink:href="#DejaVuSans-56"/>
       <use x="159.033203" xlink:href="#DejaVuSans-53"/>
      </g>
     </g>
    </g>
    <g id="ytick_5">
     <g id="line2d_14">
      <g>
       <use style="stroke:#000000;stroke-width:0.8;" x="50.14375" xlink:href="#m826e1c3015" y="118.280962"/>
      </g>
     </g>
     <g id="text_15">
      <!-- 0.90 -->
      <defs>
       <path d="M 10.984375 1.515625 
L 10.984375 10.5 
Q 14.703125 8.734375 18.5 7.8125 
Q 22.3125 6.890625 25.984375 6.890625 
Q 35.75 6.890625 40.890625 13.453125 
Q 46.046875 20.015625 46.78125 33.40625 
Q 43.953125 29.203125 39.59375 26.953125 
Q 35.25 24.703125 29.984375 24.703125 
Q 19.046875 24.703125 12.671875 31.3125 
Q 6.296875 37.9375 6.296875 49.421875 
Q 6.296875 60.640625 12.9375 67.421875 
Q 19.578125 74.21875 30.609375 74.21875 
Q 43.265625 74.21875 49.921875 64.515625 
Q 56.59375 54.828125 56.59375 36.375 
Q 56.59375 19.140625 48.40625 8.859375 
Q 40.234375 -1.421875 26.421875 -1.421875 
Q 22.703125 -1.421875 18.890625 -0.6875 
Q 15.09375 0.046875 10.984375 1.515625 
z
M 30.609375 32.421875 
Q 37.25 32.421875 41.125 36.953125 
Q 45.015625 41.5 45.015625 49.421875 
Q 45.015625 57.28125 41.125 61.84375 
Q 37.25 66.40625 30.609375 66.40625 
Q 23.96875 66.40625 20.09375 61.84375 
Q 16.21875 57.28125 16.21875 49.421875 
Q 16.21875 41.5 20.09375 36.953125 
Q 23.96875 32.421875 30.609375 32.421875 
z
" id="DejaVuSans-57"/>
      </defs>
      <g transform="translate(20.878125 122.080181)scale(0.1 -0.1)">
       <use xlink:href="#DejaVuSans-48"/>
       <use x="63.623047" xlink:href="#DejaVuSans-46"/>
       <use x="95.410156" xlink:href="#DejaVuSans-57"/>
       <use x="159.033203" xlink:href="#DejaVuSans-48"/>
      </g>
     </g>
    </g>
    <g id="ytick_6">
     <g id="line2d_15">
      <g>
       <use style="stroke:#000000;stroke-width:0.8;" x="50.14375" xlink:href="#m826e1c3015" y="68.95731"/>
      </g>
     </g>
     <g id="text_16">
      <!-- 0.95 -->
      <g transform="translate(20.878125 72.756529)scale(0.1 -0.1)">
       <use xlink:href="#DejaVuSans-48"/>
       <use x="63.623047" xlink:href="#DejaVuSans-46"/>
       <use x="95.410156" xlink:href="#DejaVuSans-57"/>
       <use x="159.033203" xlink:href="#DejaVuSans-53"/>
      </g>
     </g>
    </g>
    <g id="text_17">
     <!-- Accuracy -->
     <defs>
      <path d="M 34.1875 63.1875 
L 20.796875 26.90625 
L 47.609375 26.90625 
z
M 28.609375 72.90625 
L 39.796875 72.90625 
L 67.578125 0 
L 57.328125 0 
L 50.6875 18.703125 
L 17.828125 18.703125 
L 11.1875 0 
L 0.78125 0 
z
" id="DejaVuSans-65"/>
      <path d="M 8.5 21.578125 
L 8.5 54.6875 
L 17.484375 54.6875 
L 17.484375 21.921875 
Q 17.484375 14.15625 20.5 10.265625 
Q 23.53125 6.390625 29.59375 6.390625 
Q 36.859375 6.390625 41.078125 11.03125 
Q 45.3125 15.671875 45.3125 23.6875 
L 45.3125 54.6875 
L 54.296875 54.6875 
L 54.296875 0 
L 45.3125 0 
L 45.3125 8.40625 
Q 42.046875 3.421875 37.71875 1 
Q 33.40625 -1.421875 27.6875 -1.421875 
Q 18.265625 -1.421875 13.375 4.4375 
Q 8.5 10.296875 8.5 21.578125 
z
M 31.109375 56 
z
" id="DejaVuSans-117"/>
      <path d="M 41.109375 46.296875 
Q 39.59375 47.171875 37.8125 47.578125 
Q 36.03125 48 33.890625 48 
Q 26.265625 48 22.1875 43.046875 
Q 18.109375 38.09375 18.109375 28.8125 
L 18.109375 0 
L 9.078125 0 
L 9.078125 54.6875 
L 18.109375 54.6875 
L 18.109375 46.1875 
Q 20.953125 51.171875 25.484375 53.578125 
Q 30.03125 56 36.53125 56 
Q 37.453125 56 38.578125 55.875 
Q 39.703125 55.765625 41.0625 55.515625 
z
" id="DejaVuSans-114"/>
      <path d="M 34.28125 27.484375 
Q 23.390625 27.484375 19.1875 25 
Q 14.984375 22.515625 14.984375 16.5 
Q 14.984375 11.71875 18.140625 8.90625 
Q 21.296875 6.109375 26.703125 6.109375 
Q 34.1875 6.109375 38.703125 11.40625 
Q 43.21875 16.703125 43.21875 25.484375 
L 43.21875 27.484375 
z
M 52.203125 31.203125 
L 52.203125 0 
L 43.21875 0 
L 43.21875 8.296875 
Q 40.140625 3.328125 35.546875 0.953125 
Q 30.953125 -1.421875 24.3125 -1.421875 
Q 15.921875 -1.421875 10.953125 3.296875 
Q 6 8.015625 6 15.921875 
Q 6 25.140625 12.171875 29.828125 
Q 18.359375 34.515625 30.609375 34.515625 
L 43.21875 34.515625 
L 43.21875 35.40625 
Q 43.21875 41.609375 39.140625 45 
Q 35.0625 48.390625 27.6875 48.390625 
Q 23 48.390625 18.546875 47.265625 
Q 14.109375 46.140625 10.015625 43.890625 
L 10.015625 52.203125 
Q 14.9375 54.109375 19.578125 55.046875 
Q 24.21875 56 28.609375 56 
Q 40.484375 56 46.34375 49.84375 
Q 52.203125 43.703125 52.203125 31.203125 
z
" id="DejaVuSans-97"/>
      <path d="M 32.171875 -5.078125 
Q 28.375 -14.84375 24.75 -17.8125 
Q 21.140625 -20.796875 15.09375 -20.796875 
L 7.90625 -20.796875 
L 7.90625 -13.28125 
L 13.1875 -13.28125 
Q 16.890625 -13.28125 18.9375 -11.515625 
Q 21 -9.765625 23.484375 -3.21875 
L 25.09375 0.875 
L 2.984375 54.6875 
L 12.5 54.6875 
L 29.59375 11.921875 
L 46.6875 54.6875 
L 56.203125 54.6875 
z
" id="DejaVuSans-121"/>
     </defs>
     <g transform="translate(14.798438 208.312969)rotate(-90)scale(0.1 -0.1)">
      <use xlink:href="#DejaVuSans-65"/>
      <use x="68.392578" xlink:href="#DejaVuSans-99"/>
      <use x="123.373047" xlink:href="#DejaVuSans-99"/>
      <use x="178.353516" xlink:href="#DejaVuSans-117"/>
      <use x="241.732422" xlink:href="#DejaVuSans-114"/>
      <use x="282.845703" xlink:href="#DejaVuSans-97"/>
      <use x="344.125" xlink:href="#DejaVuSans-99"/>
      <use x="399.105469" xlink:href="#DejaVuSans-121"/>
     </g>
    </g>
   </g>
   <g id="line2d_16">
    <path clip-path="url(#pdcd8f87063)" d="M 80.580114 333.65267 
L 82.103836 310.248624 
L 85.151282 278.01559 
L 85.913144 269.803221 
L 86.675005 264.846166 
L 87.436866 260.875629 
L 88.198728 252.293301 
L 88.960589 248.692723 
L 89.722451 248.84066 
L 91.246173 239.025271 
L 92.008035 235.868563 
L 92.769896 228.741259 
L 94.293619 222.526506 
L 95.055481 217.396818 
L 95.817342 216.410358 
L 96.579203 211.699961 
L 97.341065 211.453361 
L 98.102926 207.532097 
L 98.864788 206.866264 
L 99.626649 201.810545 
L 100.38851 200.158252 
L 101.150372 197.790676 
L 101.912233 196.65622 
L 102.674095 194.362672 
L 103.435956 193.894108 
L 104.959679 187.432696 
L 105.72154 186.05164 
L 107.245263 180.749378 
L 108.007125 178.159898 
L 108.768986 176.606151 
L 109.530848 174.534567 
L 110.292709 175.200458 
L 111.05457 175.225095 
L 111.816432 169.725506 
L 112.578293 168.122486 
L 113.340155 169.256942 
L 114.102016 165.828938 
L 114.863877 163.929986 
L 115.625739 166.420861 
L 116.3876 164.053286 
L 117.149462 163.116158 
L 118.673185 158.307097 
L 119.435046 153.202105 
L 120.196907 155.69298 
L 120.958769 154.311865 
L 121.72063 151.451089 
L 122.482492 152.388276 
L 123.244353 151.895017 
L 124.006214 154.040628 
L 124.768076 147.332616 
L 125.529937 150.02076 
L 126.291799 145.310304 
L 127.05366 148.41774 
L 127.815522 144.126576 
L 128.577383 144.077244 
L 129.339244 140.994504 
L 130.101106 140.575271 
L 130.862967 141.216468 
L 131.624829 136.062143 
L 132.38669 139.243488 
L 133.148551 137.295204 
L 133.910413 133.941227 
L 134.672274 134.187828 
L 135.434136 134.138496 
L 136.195997 131.253083 
L 136.957859 131.918975 
L 137.71972 130.513223 
L 138.481581 131.031119 
L 139.243443 129.995327 
L 140.005304 131.894279 
L 140.767166 131.27772 
L 141.529027 124.495739 
L 142.290888 125.112298 
L 143.05275 126.074122 
L 143.814611 124.742339 
L 144.576473 121.906258 
L 145.338334 123.040714 
L 146.100196 119.809979 
L 146.862057 120.747166 
L 147.623918 121.930895 
L 148.38578 121.117066 
L 149.147641 119.341414 
L 149.909503 119.464714 
L 150.671364 118.74955 
L 151.433225 119.267446 
L 152.195087 114.335085 
L 152.956948 116.28337 
L 153.71881 115.272214 
L 154.480671 115.938106 
L 155.242533 112.510102 
L 156.004394 110.956413 
L 156.766255 111.548278 
L 157.528117 113.101966 
L 158.289978 109.649325 
L 159.05184 108.835497 
L 159.813701 111.030382 
L 160.575562 110.635786 
L 161.337424 108.144969 
L 162.099285 108.63817 
L 163.623008 105.111561 
L 164.38487 106.024053 
L 165.146731 106.024053 
L 165.908592 104.815629 
L 166.670454 102.152121 
L 167.432315 102.867344 
L 168.194177 105.506157 
L 168.956038 104.273037 
L 169.7179 101.042361 
L 170.479761 101.165661 
L 171.241622 99.488672 
L 172.003484 99.143408 
L 172.765345 99.883268 
L 173.527207 99.365313 
L 174.289068 100.376469 
L 175.050929 99.43934 
L 175.812791 98.69948 
L 176.574652 96.677228 
L 177.336514 97.83632 
L 178.098375 98.57618 
L 178.860237 95.912673 
L 179.622098 96.208605 
L 180.383959 94.161716 
L 181.145821 95.666072 
L 181.907682 94.235684 
L 182.669544 96.3566 
L 183.431405 94.852244 
L 184.193266 94.285016 
L 184.955128 93.545156 
L 185.716989 93.841088 
L 186.478851 91.596872 
L 187.240712 90.980312 
L 188.002574 91.843472 
L 188.764435 92.0408 
L 189.526296 92.361368 
L 190.288158 88.489495 
L 191.050019 88.686764 
L 191.811881 89.94452 
L 192.573742 88.168868 
L 193.335603 87.996236 
L 194.097465 90.265148 
L 194.859326 88.144231 
L 195.621188 89.525288 
L 196.383049 87.157712 
L 197.144911 88.2182 
L 197.906772 87.798967 
L 199.430495 85.110823 
L 200.192356 85.431392 
L 200.954218 86.61518 
L 201.716079 84.666896 
L 202.47794 85.01216 
L 203.239802 84.075031 
L 204.001663 85.554692 
L 204.763525 85.554692 
L 205.525386 84.3956 
L 206.287248 82.05272 
L 207.049109 82.989907 
L 207.81097 82.250047 
L 208.572832 84.001004 
L 209.334693 82.66928 
L 210.096555 80.474395 
L 210.858416 81.436219 
L 211.620277 81.510187 
L 212.382139 82.841912 
L 213.905862 79.857835 
L 214.667723 80.178463 
L 215.429585 81.164923 
L 216.191446 81.041623 
L 216.953307 80.252431 
L 217.715169 79.783867 
L 218.47703 79.635871 
L 219.238892 76.158536 
L 220.000753 78.822043 
L 220.762614 79.167307 
L 221.524476 78.600079 
L 222.286337 79.58654 
L 223.048199 77.367019 
L 223.81006 78.945343 
L 224.571922 75.344707 
L 225.333783 76.898395 
L 226.095644 75.196771 
L 226.857506 77.465623 
L 227.619367 78.674048 
L 228.381229 75.394039 
L 229.14309 74.481547 
L 229.904952 77.490319 
L 230.666813 75.172075 
L 231.428674 74.826811 
L 232.190536 77.021754 
L 232.952397 73.791019 
L 233.714259 74.259583 
L 234.47612 75.246102 
L 235.237981 73.815714 
L 235.999843 71.620771 
L 236.761704 73.421118 
L 237.523566 73.174459 
L 238.285427 73.248486 
L 239.047289 74.407579 
L 239.80915 73.717051 
L 240.571011 72.631927 
L 241.332873 72.434599 
L 242.094734 74.703511 
L 242.856596 73.075854 
L 243.618457 72.237331 
L 245.14218 71.053543 
L 245.904041 71.768766 
L 246.665903 71.152207 
L 248.189626 70.560342 
L 248.951487 69.869814 
L 249.713348 71.078238 
L 250.47521 67.79823 
L 251.237071 67.92153 
L 251.998933 69.351918 
L 252.760794 69.080622 
L 253.522655 68.020135 
L 254.284517 69.549187 
L 255.046378 67.773534 
L 255.80824 71.398807 
L 256.570101 66.984343 
L 257.331963 68.858659 
L 258.093824 69.450523 
L 258.855685 68.340762 
L 259.617547 66.31851 
L 261.14127 67.354302 
L 261.903131 68.04483 
L 262.664992 66.762379 
L 263.426854 67.132338 
L 264.188715 67.009038 
L 264.950577 68.562726 
L 265.712438 66.984343 
L 266.4743 67.995498 
L 267.236161 67.995498 
L 267.998022 65.603286 
L 268.759884 67.452966 
L 269.521745 64.518162 
L 270.283607 64.148262 
L 271.045468 65.011422 
L 271.807329 66.367842 
L 272.569191 67.970862 
L 273.331052 65.627982 
L 274.092914 64.172898 
L 274.854775 66.096546 
L 275.616637 65.45535 
L 276.378498 66.737742 
L 277.140359 66.244483 
L 277.902221 64.09893 
L 278.664082 63.48237 
L 279.425944 64.09893 
L 280.187805 63.60567 
L 280.949666 64.148262 
L 281.711528 62.98917 
L 282.473389 63.137106 
L 283.235251 60.794226 
L 283.997112 64.740126 
L 284.758974 62.101314 
L 285.520835 61.953377 
L 286.282696 64.567494 
L 287.044558 64.320894 
L 287.806419 64.320894 
L 288.568281 62.347914 
L 289.330142 65.08539 
L 290.092003 62.00265 
L 290.853865 62.051982 
L 291.615726 61.75605 
L 292.377588 62.915142 
L 293.139449 62.791842 
L 293.901311 62.791842 
L 294.663172 62.199978 
L 295.425033 63.827634 
L 296.186895 61.386149 
L 296.948756 61.953377 
L 297.710618 59.684466 
L 299.234341 61.731414 
L 299.996202 59.635134 
L 300.758063 60.448962 
L 301.519925 59.265233 
L 302.281786 63.556397 
L 303.043648 59.857098 
L 303.805509 59.511834 
L 304.56737 62.150646 
L 305.329232 60.374994 
L 306.091093 63.013806 
L 306.852955 58.698005 
L 307.614816 58.303409 
L 308.376678 58.599342 
L 309.138539 63.211133 
L 309.9004 58.969242 
L 310.662262 61.188822 
L 311.424123 59.363838 
L 312.185985 58.402073 
L 312.947846 59.363838 
L 313.709707 59.363838 
L 314.471569 58.599342 
L 315.23343 58.303409 
L 315.995292 59.561165 
L 316.757153 59.758434 
L 317.519015 59.339202 
L 318.280876 58.032114 
L 319.042737 56.971685 
L 319.804599 56.626421 
L 320.56646 57.908814 
L 321.328322 58.032114 
L 322.090183 58.845942 
L 322.852044 58.722642 
L 323.613906 58.451346 
L 324.375767 59.339202 
L 325.137629 56.133161 
L 325.89949 57.242922 
L 326.661352 57.637518 
L 327.423213 57.020958 
L 328.185074 57.267617 
L 328.946936 57.292254 
L 329.708797 56.749721 
L 330.470659 57.316949 
L 331.23252 56.922353 
L 331.994381 58.377378 
L 332.756243 55.812534 
L 334.279966 58.032114 
L 335.803689 53.469713 
L 336.56555 54.382146 
L 337.327411 54.406841 
L 338.089273 58.500678 
L 338.851134 54.061577 
L 339.612996 57.662213 
L 340.374857 57.341586 
L 341.136718 54.357509 
L 341.89858 55.023401 
L 342.660441 56.404457 
L 343.422303 56.577089 
L 344.946026 57.464886 
L 345.707887 54.234209 
L 346.469748 55.46727 
L 347.23161 56.429094 
L 347.993471 55.516602 
L 348.755333 54.998706 
L 349.517194 54.036882 
L 350.279055 56.379762 
L 351.040917 55.565934 
L 351.802778 53.839613 
L 352.56464 56.355125 
L 353.326501 54.998706 
L 354.088363 55.171338 
L 354.850224 54.209514 
L 355.612085 54.653442 
L 356.373947 54.431478 
L 357.135808 51.151469 
L 357.89767 54.209514 
L 358.659531 54.776742 
L 359.421393 52.557221 
L 360.183254 52.507889 
L 360.945115 53.420381 
L 361.706977 53.297022 
L 362.468838 51.866693 
L 363.2307 53.74095 
L 363.992561 54.653442 
L 364.754422 54.036882 
L 365.516284 54.135545 
L 366.278145 53.025785 
L 367.040007 53.050421 
L 367.801868 53.568318 
L 368.56373 53.839613 
L 369.325591 53.814977 
L 370.087452 53.494349 
L 370.849314 53.025785 
L 371.611175 52.927121 
L 372.373037 53.568318 
L 373.134898 52.285925 
L 373.896759 52.951758 
L 374.658621 52.927121 
L 375.420482 53.272385 
L 376.182344 51.348738 
L 376.944205 54.382146 
L 377.706067 51.644729 
L 378.467928 52.902485 
L 379.229789 53.149085 
L 379.991651 50.017013 
L 380.753512 54.456173 
L 381.515374 53.371049 
L 382.277235 49.893713 
L 383.039096 51.126833 
L 384.562819 52.803821 
L 385.324681 52.655826 
L 386.086542 50.608937 
L 386.848404 51.39807 
L 387.610265 53.149085 
L 388.372126 52.211957 
L 389.133988 49.844381 
L 389.895849 51.373433 
L 390.657711 52.137929 
L 391.419572 50.830842 
L 392.181433 50.65821 
L 392.943295 51.028169 
L 393.705156 49.721081 
L 394.467018 51.348738 
L 395.228879 50.485578 
L 395.990741 51.792665 
L 396.752602 51.841997 
L 397.514463 50.534909 
L 398.276325 50.09104 
L 399.038186 49.425149 
L 399.800048 50.115677 
L 400.561909 52.581857 
L 401.32377 52.285925 
L 402.085632 51.743334 
L 403.609355 51.299465 
L 404.371216 50.238977 
L 405.133078 50.682905 
L 405.894939 48.956585 
L 406.6568 48.660652 
L 407.418662 49.523813 
L 408.180523 48.882557 
L 408.942385 49.104521 
L 409.704246 49.622417 
L 410.466107 48.586625 
L 411.227969 51.176106 
L 411.98983 50.312946 
L 412.751692 49.770413 
L 413.513553 52.014629 
L 414.275415 49.523813 
L 415.037276 50.485578 
L 415.799137 49.227822 
L 416.560999 50.559605 
L 417.32286 50.65821 
L 418.084722 48.981221 
L 418.846583 49.770413 
L 419.608445 48.907253 
L 420.370306 49.203185 
L 421.132167 50.214341 
L 421.894029 48.709925 
L 422.65589 48.635957 
L 423.417752 48.783953 
L 424.179613 47.896097 
L 424.941474 49.745776 
L 425.703336 48.364661 
L 426.465197 48.512657 
L 427.227059 49.844381 
L 427.98892 49.844381 
L 428.750782 49.992377 
L 429.512643 47.254901 
L 430.274504 48.290693 
L 431.036366 47.797492 
L 431.798227 49.129217 
L 432.560089 48.241361 
L 433.32195 49.573144 
L 434.083811 47.970124 
L 434.845673 48.660652 
L 435.607534 47.797492 
L 436.369396 47.698829 
L 437.131257 48.044093 
L 437.893119 48.956585 
L 438.65498 48.340025 
L 439.416841 48.413993 
L 440.178703 47.427533 
L 440.940564 47.994761 
L 441.702426 48.142756 
L 442.464287 49.203185 
L 443.226148 49.153853 
L 443.98801 48.118061 
L 444.749871 47.74816 
L 445.511733 47.945429 
L 446.273594 49.795049 
L 447.035456 47.649497 
L 447.797317 48.241361 
L 448.559178 47.402896 
L 449.32104 47.304233 
L 450.082901 48.512657 
L 450.844763 48.561989 
L 451.606624 46.391741 
L 452.368485 45.873845 
L 453.130347 46.490404 
L 453.892208 47.600165 
L 454.65407 47.353565 
L 455.415931 46.169777 
L 456.177793 47.575528 
L 456.939654 46.293077 
L 457.701515 48.093424 
L 459.225238 46.391741 
L 459.9871 47.550833 
L 460.748961 45.429917 
L 461.510822 45.947813 
L 462.272684 47.723465 
L 463.034545 45.627244 
L 463.796407 44.690057 
L 464.558268 48.044093 
L 465.32013 46.416377 
L 466.081991 45.676576 
L 466.843852 46.342409 
L 467.605714 46.441073 
L 468.367575 46.243745 
L 469.129437 45.602549 
L 469.891298 46.342409 
L 470.653159 45.997145 
L 471.415021 47.550833 
L 472.176882 47.131601 
L 472.938744 45.183317 
L 473.700605 46.490404 
L 474.462467 48.438689 
L 475.224328 43.703597 
L 475.986189 47.032937 
L 476.748051 43.999529 
L 477.509912 47.156237 
L 478.271774 44.961353 
L 479.033635 44.098193 
L 479.795497 46.983605 
L 480.557358 45.676576 
L 482.081081 46.983605 
L 482.842942 46.663036 
L 483.604804 45.454612 
L 484.366665 43.974892 
L 485.128526 45.701213 
L 485.890388 46.810973 
L 486.652249 44.690057 
L 487.414111 46.860305 
L 488.175972 45.109348 
L 488.937834 44.764084 
L 489.699695 45.207953 
L 490.461556 46.071113 
L 491.223418 45.528581 
L 491.985279 45.577912 
L 492.747141 46.120445 
L 493.509002 45.775181 
L 494.270863 44.912021 
L 495.032725 45.232648 
L 495.794586 46.095808 
L 496.556448 44.270825 
L 498.080171 46.416377 
L 498.842032 44.024224 
L 499.603893 45.947813 
L 500.365755 44.739389 
L 501.127616 44.024224 
L 501.889478 43.950197 
L 502.651339 44.739389 
L 503.4132 44.788721 
L 504.936923 45.824513 
L 505.698785 43.900924 
L 506.460646 44.024224 
L 507.222508 44.295461 
L 507.984369 45.207953 
L 508.74623 44.443457 
L 509.508092 44.048861 
L 510.269953 44.048861 
L 511.031815 45.528581 
L 511.793676 44.566757 
L 512.555537 44.961353 
L 513.317399 43.654265 
L 514.07926 44.838052 
L 514.841122 45.306617 
L 515.602983 45.183317 
L 516.364845 43.555601 
L 517.126706 43.037705 
L 518.650429 45.035321 
L 519.41229 44.246188 
L 520.174152 44.862689 
L 520.936013 45.28198 
L 521.697874 43.654265 
L 522.459736 43.876229 
L 523.221597 44.295461 
L 523.983459 44.098193 
L 524.74532 43.752928 
L 525.507182 43.555601 
L 526.269043 43.161064 
L 527.030904 45.454612 
L 527.792766 43.506328 
L 528.554627 45.232648 
L 529.316489 43.530965 
L 530.07835 44.739389 
L 530.840211 44.073556 
L 531.602073 43.900924 
L 532.363934 44.66542 
L 533.125796 43.333696 
L 533.887657 43.432301 
L 534.649519 45.232648 
L 535.41138 43.851592 
L 536.173241 43.728292 
L 536.935103 44.690057 
L 537.696964 42.741773 
L 538.458826 45.109348 
L 539.220687 44.813357 
L 539.982548 42.19924 
L 540.74441 43.900924 
L 541.506271 42.643168 
L 542.268133 43.481633 
L 543.029994 43.580296 
L 543.791856 43.136369 
L 544.553717 44.714752 
L 545.315578 43.185701 
L 546.07744 42.396509 
L 546.839301 43.752928 
L 547.601163 43.136369 
L 548.363024 42.865073 
L 549.124886 42.988432 
L 549.886747 43.80226 
L 550.648608 42.791105 
L 551.41047 42.001913 
L 552.172331 43.432301 
L 552.934193 42.569141 
L 553.696054 43.382969 
L 554.457915 42.371872 
L 555.219777 43.900924 
L 555.981638 42.32254 
L 556.7435 43.506328 
L 557.505361 42.125272 
L 558.267223 44.394125 
L 559.029084 42.149908 
L 559.790945 43.506328 
L 560.552807 43.284364 
L 561.314668 41.434685 
L 562.838391 42.914405 
L 563.600252 42.865073 
L 564.362114 41.779949 
L 565.123975 43.037705 
L 567.40956 42.026608 
L 568.171421 42.840436 
L 568.933282 41.21278 
L 570.457005 42.001913 
L 571.218867 42.149908 
L 571.980728 41.434685 
L 572.742589 43.481633 
L 573.504451 40.275593 
L 574.266312 42.051245 
L 575.028174 41.804644 
L 575.790035 42.667804 
L 577.313758 43.555601 
L 578.075619 42.445841 
L 578.837481 42.125272 
L 579.599342 40.423588 
L 580.361204 42.470536 
L 581.123065 42.223877 
L 581.884926 41.829281 
L 582.646788 41.237416 
L 583.408649 43.456996 
L 584.170511 41.262053 
L 584.932372 42.297904 
L 585.694234 41.508712 
L 586.456095 41.730676 
L 587.217956 43.013069 
L 587.979818 42.149908 
L 588.741679 41.508712 
L 589.503541 43.087037 
L 590.265402 41.977276 
L 591.027263 41.804644 
L 591.789125 41.755312 
L 592.550986 41.21278 
L 593.312848 41.829281 
L 594.074709 40.71952 
L 594.836571 41.558044 
L 595.598432 42.051245 
L 597.122155 41.755312 
L 597.884016 41.21278 
L 598.645878 42.174545 
L 599.407739 41.705981 
L 600.1696 42.618473 
L 600.931462 41.237416 
L 601.693323 41.508712 
L 602.455185 42.519809 
L 603.217046 41.903308 
L 603.978908 41.878613 
L 604.740769 42.223877 
L 605.50263 42.001913 
L 606.264492 41.360717 
L 607.026353 40.916789 
L 607.788215 40.768852 
L 608.550076 40.916789 
L 609.311938 41.853976 
L 610.073799 40.71952 
L 610.83566 41.360717 
L 611.597522 40.941484 
L 612.359383 40.176988 
L 613.121245 41.903308 
L 613.883106 41.508712 
L 614.644967 41.311385 
L 615.406829 39.905692 
L 616.16869 40.84282 
L 616.930552 41.385412 
L 617.692413 40.768852 
L 618.454275 38.105345 
L 619.216136 40.201624 
L 619.977997 41.163448 
L 620.739859 41.064784 
L 621.50172 41.45938 
L 623.025443 40.84282 
L 623.787304 40.078324 
L 624.549166 42.125272 
L 625.311027 40.34962 
L 626.83475 40.916789 
L 627.596612 40.522252 
L 628.358473 40.522252 
L 629.120334 40.300288 
L 629.882196 41.114116 
L 630.644057 39.905692 
L 631.405919 40.102961 
L 632.16778 42.026608 
L 632.929641 39.585064 
L 633.691503 41.015453 
L 634.453364 40.571525 
L 635.215226 39.880997 
L 636.738949 41.015453 
L 637.50081 39.831665 
L 638.262671 38.919232 
L 639.024533 40.793489 
L 639.786394 41.138753 
L 640.548256 40.84282 
L 641.310117 39.264496 
L 642.071978 41.089421 
L 642.83384 40.670188 
L 643.595701 40.497556 
L 644.357563 40.818184 
L 645.119424 39.560428 
L 645.881286 39.091864 
L 646.643147 40.398893 
L 647.405008 39.165832 
L 648.16687 40.47292 
L 648.928731 41.040148 
L 649.690593 40.226261 
L 650.452454 39.73306 
L 651.214315 38.549272 
L 652.738038 40.59622 
L 654.261761 38.7466 
L 655.023623 39.190469 
L 655.785484 40.744157 
L 656.547345 39.486401 
L 657.309207 38.9932 
L 658.83293 40.990816 
L 659.594791 39.141137 
L 660.356652 40.201624 
L 661.118514 39.659033 
L 661.880375 39.807028 
L 662.642237 39.73306 
L 663.404098 40.990816 
L 664.16596 39.264496 
L 664.927821 39.955024 
L 665.689682 39.1165 
L 666.451544 39.85636 
L 667.213405 38.573968 
L 667.975267 39.782392 
L 668.737128 40.374256 
L 669.49899 40.201624 
L 670.260851 39.387796 
L 671.022712 38.845205 
L 671.784574 39.1165 
L 672.546435 39.091864 
L 673.308297 40.398893 
L 674.070158 39.807028 
L 674.832019 38.919232 
L 675.593881 40.275593 
L 677.117604 38.721904 
L 677.879465 39.190469 
L 678.641327 39.511096 
L 679.403188 39.338464 
L 680.165049 39.60976 
L 680.926911 40.47292 
L 681.688772 38.697268 
L 682.450634 38.820568 
L 683.212495 37.14358 
L 683.974356 38.919232 
L 684.736218 39.560428 
L 685.498079 39.1165 
L 686.259941 39.560428 
L 687.021802 38.894536 
L 688.545525 39.363101 
L 689.307386 37.760081 
L 689.307386 37.760081 
" style="fill:none;stroke:#1f77b4;stroke-linecap:square;stroke-width:1.5;"/>
   </g>
   <g id="line2d_17">
    <path clip-path="url(#pdcd8f87063)" d="M 80.580114 324.645877 
L 81.341975 306.461421 
L 82.103836 294.150335 
L 82.865698 290.576158 
L 83.627559 271.116777 
L 84.389421 268.336849 
L 85.151282 252.848769 
L 85.913144 280.945749 
L 86.675005 262.876302 
L 87.436866 258.507877 
L 88.198728 243.119049 
L 88.960589 244.906108 
L 89.722451 247.586785 
L 90.484312 244.409732 
L 91.246173 249.373844 
L 92.008035 229.517338 
L 92.769896 250.366654 
L 93.531758 227.233786 
L 94.293619 239.842745 
L 95.055481 230.410839 
L 95.817342 219.489746 
L 96.579203 218.794808 
L 97.341065 225.049603 
L 98.102926 212.639265 
L 98.864788 209.16434 
L 99.626649 203.703794 
L 100.38851 244.608294 
L 101.150372 204.597353 
L 101.912233 198.739682 
L 102.674095 203.803104 
L 103.435956 204.795915 
L 104.959679 223.361795 
L 105.72154 204.597353 
L 106.483402 206.583032 
L 107.245263 210.554333 
L 108.007125 194.669071 
L 108.768986 194.371257 
L 109.530848 192.882012 
L 110.292709 208.866526 
L 111.05457 211.745706 
L 111.816432 207.675095 
L 112.578293 214.12851 
L 113.340155 204.39879 
L 114.102016 191.094894 
L 114.863877 203.703794 
L 115.625739 194.470508 
L 116.3876 188.8114 
L 117.149462 208.866526 
L 117.911323 192.981263 
L 118.673185 192.484887 
L 119.435046 182.655857 
L 120.196907 203.40598 
L 120.958769 196.55544 
L 121.72063 192.286325 
L 122.482492 195.761192 
L 123.244353 202.214548 
L 124.006214 200.328179 
L 124.768076 194.271946 
L 125.529937 189.307835 
L 126.291799 190.896332 
L 127.05366 186.428596 
L 127.815522 190.79708 
L 128.577383 183.152292 
L 129.339244 185.535096 
L 130.101106 196.65475 
L 130.862967 176.897497 
L 131.624829 182.358043 
L 132.38669 184.542226 
L 133.148551 183.251543 
L 133.910413 181.265922 
L 134.672274 184.641537 
L 135.434136 193.974074 
L 136.195997 181.365174 
L 136.957859 199.53393 
L 137.71972 194.470508 
L 138.481581 197.448999 
L 139.243443 180.273112 
L 140.005304 173.521882 
L 140.767166 173.521882 
L 141.529027 170.543392 
L 142.290888 193.477698 
L 143.05275 201.122486 
L 143.814611 178.585304 
L 144.576473 182.854419 
L 145.338334 173.124758 
L 146.100196 181.166612 
L 146.862057 197.051875 
L 147.623918 192.981263 
L 148.38578 178.883118 
L 149.147641 192.187015 
L 149.909503 177.294621 
L 150.671364 188.910711 
L 151.433225 188.314965 
L 152.195087 177.096059 
L 152.956948 172.032637 
L 153.71881 186.031472 
L 154.480671 193.279136 
L 156.004394 183.052981 
L 157.528117 189.704959 
L 158.289978 190.995642 
L 159.05184 175.805376 
L 159.813701 185.634347 
L 160.575562 165.678532 
L 161.337424 163.891414 
L 162.099285 164.685721 
L 162.861147 184.641537 
L 164.38487 170.245519 
L 165.146731 174.713255 
L 165.908592 166.770653 
L 166.670454 165.579221 
L 167.432315 165.777784 
L 168.194177 167.167777 
L 168.956038 166.075656 
L 169.7179 167.167777 
L 170.479761 166.869905 
L 171.241622 167.862774 
L 173.527207 183.052981 
L 174.289068 183.747978 
L 175.050929 180.570925 
L 175.812791 183.94654 
L 176.574652 190.499207 
L 177.336514 170.940516 
L 178.098375 161.905793 
L 178.860237 174.21682 
L 179.622098 161.409358 
L 180.383959 180.570925 
L 181.145821 174.018258 
L 181.907682 183.747978 
L 182.669544 187.520717 
L 183.431405 169.749143 
L 184.193266 167.267029 
L 184.955128 164.288597 
L 185.716989 183.052981 
L 186.478851 171.834075 
L 187.240712 172.429761 
L 188.002574 169.550581 
L 188.764435 174.415382 
L 189.526296 162.700041 
L 190.288158 169.848395 
L 191.050019 170.543392 
L 191.811881 183.152292 
L 192.573742 173.621134 
L 194.097465 169.252709 
L 194.859326 166.274218 
L 195.621188 177.195311 
L 196.383049 169.947705 
L 197.144911 168.855584 
L 197.906772 188.71209 
L 198.668633 166.274218 
L 199.430495 178.783866 
L 200.192356 170.410684 
L 200.954218 166.969215 
L 201.716079 165.777784 
L 202.47794 165.380659 
L 203.239802 166.174967 
L 204.001663 172.926196 
L 204.763525 188.215714 
L 205.525386 167.962026 
L 206.287248 159.622299 
L 207.049109 159.522989 
L 207.81097 182.457295 
L 208.572832 163.792162 
L 209.334693 171.238389 
L 210.096555 166.572091 
L 210.858416 164.983535 
L 211.620277 172.727575 
L 212.382139 163.295728 
L 213.144 173.124758 
L 213.905862 164.189287 
L 214.667723 174.613944 
L 215.429585 163.792162 
L 216.191446 179.677367 
L 216.953307 177.989559 
L 217.715169 181.365174 
L 218.47703 171.436951 
L 219.238892 176.798187 
L 220.000753 169.947705 
L 220.762614 156.941623 
L 221.524476 180.868798 
L 222.286337 187.024341 
L 223.048199 183.350854 
L 223.81006 164.189287 
L 224.571922 162.104355 
L 225.333783 170.741954 
L 226.095644 175.904628 
L 226.857506 178.287432 
L 227.619367 161.409358 
L 228.381229 174.415382 
L 229.14309 172.429761 
L 229.904952 160.515799 
L 230.666813 158.430868 
L 231.428674 174.613944 
L 232.952397 161.508669 
L 233.714259 182.258733 
L 234.47612 171.436951 
L 235.237981 157.835181 
L 235.999843 162.104355 
L 236.761704 169.649833 
L 237.523566 165.579221 
L 238.285427 169.848395 
L 239.047289 159.324427 
L 239.80915 156.445247 
L 240.571011 172.131889 
L 241.332873 157.636619 
L 242.094734 186.230034 
L 242.856596 167.962026 
L 243.618457 158.927302 
L 244.380318 181.166612 
L 245.14218 161.707231 
L 245.904041 161.310107 
L 246.665903 157.438057 
L 247.427764 165.976404 
L 248.189626 163.49429 
L 248.951487 164.288597 
L 249.713348 173.919006 
L 250.47521 165.082846 
L 251.237071 165.877094 
L 251.998933 162.898604 
L 252.760794 163.097166 
L 253.522655 190.102083 
L 254.284517 157.239495 
L 255.046378 188.314965 
L 255.80824 153.963191 
L 256.570101 171.139078 
L 257.331963 197.448999 
L 258.093824 163.891414 
L 258.855685 182.556605 
L 259.617547 158.72874 
L 260.379408 160.317237 
L 261.14127 162.997914 
L 261.903131 156.941623 
L 262.664992 162.402228 
L 263.426854 178.883118 
L 264.188715 151.679638 
L 264.950577 166.373529 
L 265.712438 171.33764 
L 266.4743 159.820861 
L 267.236161 159.324427 
L 267.998022 166.969215 
L 268.759884 158.331616 
L 269.521745 166.174967 
L 270.283607 164.586411 
L 271.045468 160.317237 
L 271.807329 168.35915 
L 272.569191 156.544498 
L 273.331052 167.366339 
L 274.092914 172.131889 
L 274.854775 161.707231 
L 275.616637 157.537368 
L 276.378498 160.416548 
L 277.140359 160.416548 
L 277.902221 163.196476 
L 278.664082 167.465591 
L 279.425944 158.331616 
L 280.187805 168.45846 
L 280.949666 166.075656 
L 281.711528 165.47997 
L 282.473389 185.237223 
L 283.235251 161.60792 
L 283.997112 164.884283 
L 284.758974 165.182097 
L 285.520835 174.613944 
L 286.282696 201.4203 
L 287.044558 157.636619 
L 287.806419 177.790997 
L 288.568281 166.47278 
L 289.330142 152.176073 
L 290.092003 163.692852 
L 290.853865 164.784973 
L 291.615726 168.954836 
L 292.377588 161.905793 
L 293.139449 161.012234 
L 293.901311 161.905793 
L 294.663172 158.72874 
L 295.425033 171.536202 
L 296.186895 165.678532 
L 296.948756 176.2025 
L 297.710618 158.232306 
L 298.472479 157.140243 
L 299.234341 180.173801 
L 299.996202 161.60792 
L 300.758063 160.118675 
L 301.519925 166.47278 
L 302.281786 168.657022 
L 303.043648 161.508669 
L 304.56737 161.905793 
L 305.329232 168.557712 
L 306.091093 162.997914 
L 306.852955 166.969215 
L 307.614816 160.118675 
L 308.376678 175.706066 
L 309.138539 170.245519 
L 309.9004 158.72874 
L 310.662262 171.33764 
L 311.424123 168.855584 
L 312.185985 157.934492 
L 312.947846 173.621134 
L 313.709707 158.828051 
L 314.471569 156.544498 
L 315.23343 163.49429 
L 315.995292 153.963191 
L 316.757153 163.891414 
L 317.519015 159.125865 
L 318.280876 155.353126 
L 319.042737 155.551688 
L 319.804599 163.790751 
L 320.56646 162.799352 
L 321.328322 158.430868 
L 322.852044 155.154564 
L 323.613906 160.217986 
L 324.375767 159.721551 
L 325.137629 164.884283 
L 325.89949 162.700041 
L 326.661352 164.884283 
L 327.423213 158.133054 
L 328.185074 155.154564 
L 328.946936 170.34483 
L 329.708797 158.62943 
L 330.470659 160.61511 
L 331.23252 169.35196 
L 331.994381 166.274218 
L 332.756243 158.033744 
L 333.518104 158.62943 
L 334.279966 157.934492 
L 335.041827 161.012234 
L 335.803689 155.948812 
L 336.56555 154.161753 
L 337.327411 163.891414 
L 338.089273 154.757439 
L 338.851134 153.069632 
L 339.612996 158.927302 
L 340.374857 150.686828 
L 341.136718 163.097166 
L 341.89858 161.508669 
L 342.660441 159.324427 
L 343.422303 160.515799 
L 344.184164 152.473946 
L 344.946026 163.295728 
L 345.707887 165.281408 
L 346.469748 152.771759 
L 347.23161 175.706066 
L 347.993471 155.650998 
L 349.517194 164.586411 
L 350.279055 158.133054 
L 351.040917 159.026613 
L 351.802778 154.360315 
L 352.56464 157.338806 
L 353.326501 152.176073 
L 354.088363 156.643809 
L 354.850224 165.678532 
L 355.612085 156.842371 
L 356.373947 158.62943 
L 357.135808 155.84956 
L 357.89767 154.261005 
L 358.659531 158.828051 
L 359.421393 154.658129 
L 360.183254 156.842371 
L 360.945115 162.302917 
L 361.706977 159.522989 
L 362.468838 169.252709 
L 363.2307 169.848395 
L 364.754422 153.566067 
L 365.516284 167.763463 
L 366.278145 166.770653 
L 367.040007 154.360315 
L 367.801868 164.189287 
L 368.56373 179.379553 
L 369.325591 155.253815 
L 370.087452 165.877094 
L 370.849314 161.012234 
L 371.611175 154.658129 
L 372.373037 161.60792 
L 373.134898 157.537368 
L 373.896759 157.140243 
L 374.658621 159.125865 
L 375.420482 148.304083 
L 376.182344 151.878259 
L 376.944205 159.026613 
L 377.706067 156.842371 
L 378.467928 159.622299 
L 379.229789 150.88539 
L 379.991651 159.125865 
L 380.753512 169.451271 
L 381.515374 156.048122 
L 382.277235 159.125865 
L 383.039096 162.997914 
L 383.800958 150.686828 
L 384.562819 163.792162 
L 385.324681 165.082846 
L 386.086542 151.083952 
L 386.848404 152.87107 
L 387.610265 155.253815 
L 388.372126 167.862774 
L 389.133988 178.18818 
L 389.895849 152.374635 
L 390.657711 158.62943 
L 392.181433 153.665318 
L 392.943295 156.941623 
L 393.705156 152.076821 
L 394.467018 164.586411 
L 395.228879 171.039768 
L 395.990741 153.665318 
L 396.752602 160.912982 
L 397.514463 154.757439 
L 398.276325 169.252709 
L 399.038186 154.261005 
L 399.800048 154.856691 
L 400.561909 154.956001 
L 401.32377 160.317237 
L 402.085632 162.60079 
L 402.847493 167.366339 
L 403.609355 150.587576 
L 404.371216 157.438057 
L 405.133078 179.478804 
L 405.894939 167.465591 
L 406.6568 164.288597 
L 407.418662 159.920113 
L 408.180523 158.62943 
L 408.942385 151.580387 
L 409.704246 162.402228 
L 410.466107 155.84956 
L 411.227969 152.672508 
L 411.98983 158.62943 
L 412.751692 160.71442 
L 413.513553 167.366339 
L 414.275415 165.976404 
L 415.037276 162.203607 
L 415.799137 157.040933 
L 416.560999 169.749143 
L 417.32286 152.076821 
L 418.084722 151.679638 
L 418.846583 149.892579 
L 419.608445 158.430868 
L 420.370306 150.9847 
L 421.132167 163.891414 
L 421.894029 150.488266 
L 422.65589 162.700041 
L 423.417752 154.062443 
L 424.179613 155.650998 
L 424.941474 160.416548 
L 425.703336 156.048122 
L 426.465197 159.324427 
L 427.227059 161.707231 
L 427.98892 159.820861 
L 428.750782 155.75025 
L 429.512643 163.395038 
L 430.274504 154.558877 
L 431.036366 159.423737 
L 431.798227 161.707231 
L 432.560089 159.820861 
L 433.32195 157.438057 
L 434.083811 154.161753 
L 434.845673 155.253815 
L 435.607534 157.537368 
L 436.369396 154.558877 
L 437.131257 155.055253 
L 437.893119 165.281408 
L 438.65498 146.318403 
L 439.416841 168.533369 
L 440.178703 166.572091 
L 440.940564 158.033744 
L 441.702426 156.445247 
L 442.464287 164.288597 
L 443.226148 153.168884 
L 444.749871 167.564901 
L 445.511733 164.189287 
L 447.035456 158.927302 
L 447.797317 168.061336 
L 448.559178 158.232306 
L 449.32104 152.176073 
L 450.082901 165.877094 
L 450.844763 158.828051 
L 451.606624 155.353126 
L 452.368485 154.956001 
L 453.130347 158.62943 
L 453.892208 154.558877 
L 454.65407 175.408252 
L 455.415931 154.062443 
L 456.177793 162.501479 
L 456.939654 167.763463 
L 457.701515 157.040933 
L 458.463377 148.502645 
L 459.225238 161.806483 
L 459.9871 163.891414 
L 460.748961 152.672508 
L 461.510822 154.161753 
L 462.272684 169.749143 
L 463.034545 153.466756 
L 463.796407 157.73593 
L 464.558268 153.764629 
L 465.32013 158.331616 
L 466.081991 151.778949 
L 466.843852 158.033744 
L 467.605714 158.232306 
L 468.367575 165.380659 
L 469.129437 152.771759 
L 469.891298 158.72874 
L 470.653159 154.558877 
L 471.415021 152.771759 
L 472.176882 158.62943 
L 472.938744 162.203607 
L 473.700605 155.948812 
L 474.462467 158.828051 
L 475.224328 159.522989 
L 475.986189 155.353126 
L 476.748051 156.941623 
L 477.509912 154.161753 
L 478.271774 155.253815 
L 479.033635 150.786138 
L 479.795497 164.387849 
L 480.557358 151.381825 
L 481.319219 151.083952 
L 482.081081 156.842371 
L 482.842942 154.360315 
L 483.604804 160.118675 
L 484.366665 147.211962 
L 485.128526 163.295728 
L 485.890388 151.580387 
L 486.652249 159.125865 
L 487.414111 158.828051 
L 488.175972 155.452436 
L 488.937834 153.86388 
L 489.699695 159.324427 
L 490.461556 151.977511 
L 491.223418 148.403334 
L 491.985279 158.033744 
L 492.747141 152.672508 
L 493.509002 169.550581 
L 494.270863 154.360315 
L 495.032725 152.970322 
L 495.794586 164.685721 
L 496.556448 157.338806 
L 497.318309 160.71442 
L 498.080171 154.360315 
L 498.842032 158.530178 
L 499.603893 156.048122 
L 500.365755 159.820861 
L 501.127616 162.997914 
L 501.889478 153.268194 
L 502.651339 158.828051 
L 503.4132 155.154564 
L 504.175062 154.658129 
L 504.936923 157.73593 
L 505.698785 150.9847 
L 506.460646 161.409358 
L 507.222508 145.722716 
L 507.984369 161.905793 
L 508.74623 151.977511 
L 509.508092 151.778949 
L 510.269953 149.694017 
L 511.031815 150.88539 
L 511.793676 153.764629 
L 512.555537 152.771759 
L 513.317399 154.360315 
L 514.07926 161.012234 
L 514.841122 165.47997 
L 515.602983 149.296893 
L 516.364845 155.452436 
L 517.126706 163.692852 
L 517.888567 161.409358 
L 518.650429 157.140243 
L 519.41229 167.167777 
L 520.174152 151.778949 
L 520.936013 154.757439 
L 521.697874 149.098331 
L 522.459736 160.217986 
L 523.221597 149.99189 
L 523.983459 151.679638 
L 524.74532 155.650998 
L 525.507182 159.026613 
L 526.269043 148.999021 
L 527.030904 152.970322 
L 527.792766 151.183263 
L 528.554627 153.963191 
L 529.316489 159.721551 
L 530.07835 148.999021 
L 530.840211 150.488266 
L 531.602073 160.912982 
L 532.363934 158.133054 
L 533.125796 159.522989 
L 533.887657 145.623406 
L 534.649519 173.521882 
L 535.41138 153.566067 
L 536.173241 149.396145 
L 536.935103 157.537368 
L 537.696964 157.140243 
L 538.458826 154.261005 
L 539.220687 153.566067 
L 539.982548 156.941623 
L 540.74441 153.466756 
L 541.506271 163.196476 
L 542.268133 158.62943 
L 543.029994 158.430868 
L 543.791856 150.686828 
L 544.553717 172.529013 
L 545.315578 152.374635 
L 546.07744 153.466756 
L 546.839301 159.225175 
L 547.601163 154.658129 
L 548.363024 157.73593 
L 549.124886 159.026613 
L 549.886747 147.410524 
L 550.648608 169.947705 
L 551.41047 160.515799 
L 552.172331 157.040933 
L 552.934193 157.140243 
L 553.696054 146.417654 
L 554.457915 149.495455 
L 555.219777 162.60079 
L 555.981638 155.154564 
L 556.7435 153.566067 
L 557.505361 153.764629 
L 558.267223 151.083952 
L 559.029084 159.048074 
L 559.790945 162.501479 
L 560.552807 158.133054 
L 561.314668 163.891414 
L 562.07653 154.558877 
L 562.838391 152.473946 
L 563.600252 152.672508 
L 564.362114 158.828051 
L 565.123975 148.701207 
L 565.885837 151.282514 
L 566.647698 153.069632 
L 567.40956 164.983535 
L 568.171421 153.168884 
L 568.933282 165.47997 
L 569.695144 169.252709 
L 570.457005 154.956001 
L 571.218867 159.225175 
L 571.980728 165.182097 
L 572.742589 164.189287 
L 573.504451 153.665318 
L 574.266312 151.977511 
L 575.028174 166.47278 
L 576.551897 148.800458 
L 577.313758 154.261005 
L 578.075619 158.72874 
L 578.837481 157.73593 
L 579.599342 159.622299 
L 580.361204 156.345936 
L 581.123065 149.495455 
L 581.884926 155.551688 
L 582.646788 152.275384 
L 583.408649 166.075656 
L 584.170511 155.154564 
L 584.932372 163.891414 
L 585.694234 160.71442 
L 586.456095 149.892579 
L 587.217956 156.345936 
L 587.979818 157.835181 
L 588.741679 155.84956 
L 589.503541 151.282514 
L 590.265402 148.701207 
L 591.027263 151.282514 
L 591.789125 160.317237 
L 592.550986 160.019423 
L 593.312848 161.310107 
L 594.074709 160.217986 
L 594.836571 152.275384 
L 595.598432 150.389014 
L 596.360293 153.86388 
L 597.122155 153.764629 
L 597.884016 147.9069 
L 598.645878 148.800458 
L 599.407739 156.544498 
L 600.931462 159.423737 
L 601.693323 158.133054 
L 602.455185 158.331616 
L 603.217046 153.566067 
L 603.978908 161.310107 
L 604.740769 167.862774 
L 605.50263 155.948812 
L 606.264492 159.125865 
L 607.026353 158.828051 
L 607.788215 158.232306 
L 608.550076 155.948812 
L 609.311938 162.501479 
L 610.073799 163.990725 
L 610.83566 154.459567 
L 611.597522 149.396145 
L 612.359383 157.040933 
L 613.121245 168.259898 
L 613.883106 154.658129 
L 614.644967 160.217986 
L 615.406829 152.473946 
L 616.16869 153.665318 
L 616.930552 161.806483 
L 617.692413 152.970322 
L 618.454275 156.147374 
L 619.216136 149.99189 
L 619.977997 169.749143 
L 620.739859 149.99189 
L 621.50172 157.934492 
L 622.263582 163.49429 
L 623.025443 173.422572 
L 623.787304 158.927302 
L 624.549166 152.076821 
L 625.311027 158.72874 
L 626.072889 157.73593 
L 626.83475 149.197583 
L 627.596612 156.842371 
L 628.358473 156.941623 
L 629.120334 151.580387 
L 629.882196 156.246685 
L 630.644057 156.147374 
L 631.405919 148.701207 
L 632.16778 156.941623 
L 632.929641 153.86388 
L 633.691503 160.019423 
L 634.453364 175.904628 
L 635.215226 156.147374 
L 635.977087 156.643809 
L 636.738949 160.61511 
L 637.50081 150.289704 
L 638.262671 155.551688 
L 639.786394 169.054147 
L 640.548256 156.941623 
L 641.310117 154.956001 
L 642.071978 150.389014 
L 642.83384 155.452436 
L 643.595701 155.75025 
L 644.357563 164.884283 
L 645.119424 146.516965 
L 645.881286 154.459567 
L 646.643147 152.87107 
L 647.405008 158.133054 
L 648.16687 154.261005 
L 648.928731 151.580387 
L 649.690593 154.161753 
L 650.452454 155.551688 
L 651.214315 155.253815 
L 651.976177 158.331616 
L 652.738038 157.636619 
L 653.4999 162.898604 
L 654.261761 154.757439 
L 655.023623 151.580387 
L 655.785484 150.9847 
L 656.547345 160.813672 
L 657.309207 152.176073 
L 658.071068 160.317237 
L 658.83293 148.601896 
L 659.594791 156.246685 
L 660.356652 154.956001 
L 661.118514 157.835181 
L 661.880375 157.636619 
L 662.642237 152.473946 
L 663.404098 154.558877 
L 664.16596 152.176073 
L 664.927821 164.387849 
L 665.689682 154.161753 
L 666.451544 153.367446 
L 667.213405 157.040933 
L 667.975267 158.530178 
L 668.737128 158.331616 
L 669.49899 161.806483 
L 670.260851 149.892579 
L 671.022712 153.168884 
L 671.784574 162.005045 
L 672.546435 146.02053 
L 673.308297 160.217986 
L 674.070158 148.800458 
L 676.355742 155.551688 
L 677.117604 148.304083 
L 677.879465 152.672508 
L 678.641327 152.13168 
L 679.403188 149.396145 
L 680.165049 160.912982 
L 680.926911 163.295728 
L 681.688772 152.87107 
L 682.450634 155.75025 
L 683.212495 147.807648 
L 683.974356 149.694017 
L 684.736218 169.054147 
L 685.498079 161.508669 
L 686.259941 150.88539 
L 687.021802 177.195311 
L 687.783664 155.948812 
L 688.545525 159.920113 
L 689.307386 153.367446 
L 689.307386 153.367446 
" style="fill:none;stroke:#ff7f0e;stroke-linecap:square;stroke-width:1.5;"/>
   </g>
   <g id="patch_3">
    <path d="M 50.14375 348.478125 
L 50.14375 22.318125 
" style="fill:none;stroke:#000000;stroke-linecap:square;stroke-linejoin:miter;stroke-width:0.8;"/>
   </g>
   <g id="patch_4">
    <path d="M 719.74375 348.478125 
L 719.74375 22.318125 
" style="fill:none;stroke:#000000;stroke-linecap:square;stroke-linejoin:miter;stroke-width:0.8;"/>
   </g>
   <g id="patch_5">
    <path d="M 50.14375 348.478125 
L 719.74375 348.478125 
" style="fill:none;stroke:#000000;stroke-linecap:square;stroke-linejoin:miter;stroke-width:0.8;"/>
   </g>
   <g id="patch_6">
    <path d="M 50.14375 22.318125 
L 719.74375 22.318125 
" style="fill:none;stroke:#000000;stroke-linecap:square;stroke-linejoin:miter;stroke-width:0.8;"/>
   </g>
   <g id="text_18">
    <!-- Model accuracy -->
    <defs>
     <path d="M 9.8125 72.90625 
L 24.515625 72.90625 
L 43.109375 23.296875 
L 61.8125 72.90625 
L 76.515625 72.90625 
L 76.515625 0 
L 66.890625 0 
L 66.890625 64.015625 
L 48.09375 14.015625 
L 38.1875 14.015625 
L 19.390625 64.015625 
L 19.390625 0 
L 9.8125 0 
z
" id="DejaVuSans-77"/>
     <path d="M 45.40625 46.390625 
L 45.40625 75.984375 
L 54.390625 75.984375 
L 54.390625 0 
L 45.40625 0 
L 45.40625 8.203125 
Q 42.578125 3.328125 38.25 0.953125 
Q 33.9375 -1.421875 27.875 -1.421875 
Q 17.96875 -1.421875 11.734375 6.484375 
Q 5.515625 14.40625 5.515625 27.296875 
Q 5.515625 40.1875 11.734375 48.09375 
Q 17.96875 56 27.875 56 
Q 33.9375 56 38.25 53.625 
Q 42.578125 51.265625 45.40625 46.390625 
z
M 14.796875 27.296875 
Q 14.796875 17.390625 18.875 11.75 
Q 22.953125 6.109375 30.078125 6.109375 
Q 37.203125 6.109375 41.296875 11.75 
Q 45.40625 17.390625 45.40625 27.296875 
Q 45.40625 37.203125 41.296875 42.84375 
Q 37.203125 48.484375 30.078125 48.484375 
Q 22.953125 48.484375 18.875 42.84375 
Q 14.796875 37.203125 14.796875 27.296875 
z
" id="DejaVuSans-100"/>
     <path d="M 56.203125 29.59375 
L 56.203125 25.203125 
L 14.890625 25.203125 
Q 15.484375 15.921875 20.484375 11.0625 
Q 25.484375 6.203125 34.421875 6.203125 
Q 39.59375 6.203125 44.453125 7.46875 
Q 49.3125 8.734375 54.109375 11.28125 
L 54.109375 2.78125 
Q 49.265625 0.734375 44.1875 -0.34375 
Q 39.109375 -1.421875 33.890625 -1.421875 
Q 20.796875 -1.421875 13.15625 6.1875 
Q 5.515625 13.8125 5.515625 26.8125 
Q 5.515625 40.234375 12.765625 48.109375 
Q 20.015625 56 32.328125 56 
Q 43.359375 56 49.78125 48.890625 
Q 56.203125 41.796875 56.203125 29.59375 
z
M 47.21875 32.234375 
Q 47.125 39.59375 43.09375 43.984375 
Q 39.0625 48.390625 32.421875 48.390625 
Q 24.90625 48.390625 20.390625 44.140625 
Q 15.875 39.890625 15.1875 32.171875 
z
" id="DejaVuSans-101"/>
     <path d="M 9.421875 75.984375 
L 18.40625 75.984375 
L 18.40625 0 
L 9.421875 0 
z
" id="DejaVuSans-108"/>
     <path id="DejaVuSans-32"/>
    </defs>
    <g transform="translate(337.949688 16.318125)scale(0.12 -0.12)">
     <use xlink:href="#DejaVuSans-77"/>
     <use x="86.279297" xlink:href="#DejaVuSans-111"/>
     <use x="147.460938" xlink:href="#DejaVuSans-100"/>
     <use x="210.9375" xlink:href="#DejaVuSans-101"/>
     <use x="272.460938" xlink:href="#DejaVuSans-108"/>
     <use x="300.244141" xlink:href="#DejaVuSans-32"/>
     <use x="332.03125" xlink:href="#DejaVuSans-97"/>
     <use x="393.310547" xlink:href="#DejaVuSans-99"/>
     <use x="448.291016" xlink:href="#DejaVuSans-99"/>
     <use x="503.271484" xlink:href="#DejaVuSans-117"/>
     <use x="566.650391" xlink:href="#DejaVuSans-114"/>
     <use x="607.763672" xlink:href="#DejaVuSans-97"/>
     <use x="669.042969" xlink:href="#DejaVuSans-99"/>
     <use x="724.023438" xlink:href="#DejaVuSans-121"/>
    </g>
   </g>
   <g id="legend_1">
    <g id="patch_7">
     <path d="M 57.14375 59.674375 
L 114.584375 59.674375 
Q 116.584375 59.674375 116.584375 57.674375 
L 116.584375 29.318125 
Q 116.584375 27.318125 114.584375 27.318125 
L 57.14375 27.318125 
Q 55.14375 27.318125 55.14375 29.318125 
L 55.14375 57.674375 
Q 55.14375 59.674375 57.14375 59.674375 
z
" style="fill:#ffffff;opacity:0.8;stroke:#cccccc;stroke-linejoin:miter;"/>
    </g>
    <g id="line2d_18">
     <path d="M 59.14375 35.416562 
L 79.14375 35.416562 
" style="fill:none;stroke:#1f77b4;stroke-linecap:square;stroke-width:1.5;"/>
    </g>
    <g id="line2d_19"/>
    <g id="text_19">
     <!-- Train -->
     <defs>
      <path d="M -0.296875 72.90625 
L 61.375 72.90625 
L 61.375 64.59375 
L 35.5 64.59375 
L 35.5 0 
L 25.59375 0 
L 25.59375 64.59375 
L -0.296875 64.59375 
z
" id="DejaVuSans-84"/>
      <path d="M 9.421875 54.6875 
L 18.40625 54.6875 
L 18.40625 0 
L 9.421875 0 
z
M 9.421875 75.984375 
L 18.40625 75.984375 
L 18.40625 64.59375 
L 9.421875 64.59375 
z
" id="DejaVuSans-105"/>
      <path d="M 54.890625 33.015625 
L 54.890625 0 
L 45.90625 0 
L 45.90625 32.71875 
Q 45.90625 40.484375 42.875 44.328125 
Q 39.84375 48.1875 33.796875 48.1875 
Q 26.515625 48.1875 22.3125 43.546875 
Q 18.109375 38.921875 18.109375 30.90625 
L 18.109375 0 
L 9.078125 0 
L 9.078125 54.6875 
L 18.109375 54.6875 
L 18.109375 46.1875 
Q 21.34375 51.125 25.703125 53.5625 
Q 30.078125 56 35.796875 56 
Q 45.21875 56 50.046875 50.171875 
Q 54.890625 44.34375 54.890625 33.015625 
z
" id="DejaVuSans-110"/>
     </defs>
     <g transform="translate(87.14375 38.916562)scale(0.1 -0.1)">
      <use xlink:href="#DejaVuSans-84"/>
      <use x="60.865234" xlink:href="#DejaVuSans-114"/>
      <use x="101.978516" xlink:href="#DejaVuSans-97"/>
      <use x="163.257812" xlink:href="#DejaVuSans-105"/>
      <use x="191.041016" xlink:href="#DejaVuSans-110"/>
     </g>
    </g>
    <g id="line2d_20">
     <path d="M 59.14375 50.094687 
L 79.14375 50.094687 
" style="fill:none;stroke:#ff7f0e;stroke-linecap:square;stroke-width:1.5;"/>
    </g>
    <g id="line2d_21"/>
    <g id="text_20">
     <!-- Test -->
     <defs>
      <path d="M 44.28125 53.078125 
L 44.28125 44.578125 
Q 40.484375 46.53125 36.375 47.5 
Q 32.28125 48.484375 27.875 48.484375 
Q 21.1875 48.484375 17.84375 46.4375 
Q 14.5 44.390625 14.5 40.28125 
Q 14.5 37.15625 16.890625 35.375 
Q 19.28125 33.59375 26.515625 31.984375 
L 29.59375 31.296875 
Q 39.15625 29.25 43.1875 25.515625 
Q 47.21875 21.78125 47.21875 15.09375 
Q 47.21875 7.46875 41.1875 3.015625 
Q 35.15625 -1.421875 24.609375 -1.421875 
Q 20.21875 -1.421875 15.453125 -0.5625 
Q 10.6875 0.296875 5.421875 2 
L 5.421875 11.28125 
Q 10.40625 8.6875 15.234375 7.390625 
Q 20.0625 6.109375 24.8125 6.109375 
Q 31.15625 6.109375 34.5625 8.28125 
Q 37.984375 10.453125 37.984375 14.40625 
Q 37.984375 18.0625 35.515625 20.015625 
Q 33.0625 21.96875 24.703125 23.78125 
L 21.578125 24.515625 
Q 13.234375 26.265625 9.515625 29.90625 
Q 5.8125 33.546875 5.8125 39.890625 
Q 5.8125 47.609375 11.28125 51.796875 
Q 16.75 56 26.8125 56 
Q 31.78125 56 36.171875 55.265625 
Q 40.578125 54.546875 44.28125 53.078125 
z
" id="DejaVuSans-115"/>
      <path d="M 18.3125 70.21875 
L 18.3125 54.6875 
L 36.8125 54.6875 
L 36.8125 47.703125 
L 18.3125 47.703125 
L 18.3125 18.015625 
Q 18.3125 11.328125 20.140625 9.421875 
Q 21.96875 7.515625 27.59375 7.515625 
L 36.8125 7.515625 
L 36.8125 0 
L 27.59375 0 
Q 17.1875 0 13.234375 3.875 
Q 9.28125 7.765625 9.28125 18.015625 
L 9.28125 47.703125 
L 2.6875 47.703125 
L 2.6875 54.6875 
L 9.28125 54.6875 
L 9.28125 70.21875 
z
" id="DejaVuSans-116"/>
     </defs>
     <g transform="translate(87.14375 53.594687)scale(0.1 -0.1)">
      <use xlink:href="#DejaVuSans-84"/>
      <use x="60.818359" xlink:href="#DejaVuSans-101"/>
      <use x="122.341797" xlink:href="#DejaVuSans-115"/>
      <use x="174.441406" xlink:href="#DejaVuSans-116"/>
     </g>
    </g>
   </g>
  </g>
 </g>
 <defs>
  <clipPath id="pdcd8f87063">
   <rect height="326.16" width="669.6" x="50.14375" y="22.318125"/>
  </clipPath>
 </defs>
</svg>
