<?xml version="1.0" encoding="utf-8" standalone="no"?>
<!DOCTYPE svg PUBLIC "-//W3C//DTD SVG 1.1//EN"
  "http://www.w3.org/Graphics/SVG/1.1/DTD/svg11.dtd">
<!-- Created with matplotlib (https://matplotlib.org/) -->
<svg height="374.715469pt" version="1.1" viewBox="0 0 733.30625 374.715469" width="733.30625pt" xmlns="http://www.w3.org/2000/svg" xmlns:xlink="http://www.w3.org/1999/xlink">
 <defs>
  <style type="text/css">
*{stroke-linecap:butt;stroke-linejoin:round;white-space:pre;}
  </style>
 </defs>
 <g id="figure_1">
  <g id="patch_1">
   <path d="M 0 374.715469 
L 733.30625 374.715469 
L 733.30625 0 
L 0 0 
z
" style="fill:#ffffff;"/>
  </g>
  <g id="axes_1">
   <g id="patch_2">
    <path d="M 56.50625 337.159219 
L 726.10625 337.159219 
L 726.10625 10.999219 
L 56.50625 10.999219 
z
" style="fill:#ffffff;"/>
   </g>
   <g id="matplotlib.axis_1">
    <g id="xtick_1">
     <g id="line2d_1">
      <path clip-path="url(#pfa2e1506d0)" d="M 84.906736 337.159219 
L 84.906736 10.999219 
" style="fill:none;stroke:#b0b0b0;stroke-linecap:square;stroke-width:0.8;"/>
     </g>
     <g id="line2d_2">
      <defs>
       <path d="M 0 0 
L 0 3.5 
" id="mc8507d58d1" style="stroke:#000000;stroke-width:0.8;"/>
      </defs>
      <g>
       <use style="stroke:#000000;stroke-width:0.8;" x="84.906736" xlink:href="#mc8507d58d1" y="337.159219"/>
      </g>
     </g>
     <g id="text_1">
      <!-- 0 -->
      <defs>
       <path d="M 31.78125 66.40625 
Q 24.171875 66.40625 20.328125 58.90625 
Q 16.5 51.421875 16.5 36.375 
Q 16.5 21.390625 20.328125 13.890625 
Q 24.171875 6.390625 31.78125 6.390625 
Q 39.453125 6.390625 43.28125 13.890625 
Q 47.125 21.390625 47.125 36.375 
Q 47.125 51.421875 43.28125 58.90625 
Q 39.453125 66.40625 31.78125 66.40625 
z
M 31.78125 74.21875 
Q 44.046875 74.21875 50.515625 64.515625 
Q 56.984375 54.828125 56.984375 36.375 
Q 56.984375 17.96875 50.515625 8.265625 
Q 44.046875 -1.421875 31.78125 -1.421875 
Q 19.53125 -1.421875 13.0625 8.265625 
Q 6.59375 17.96875 6.59375 36.375 
Q 6.59375 54.828125 13.0625 64.515625 
Q 19.53125 74.21875 31.78125 74.21875 
z
" id="DejaVuSans-48"/>
      </defs>
      <g transform="translate(81.725486 351.757656)scale(0.1 -0.1)">
       <use xlink:href="#DejaVuSans-48"/>
      </g>
     </g>
    </g>
    <g id="xtick_2">
     <g id="line2d_3">
      <path clip-path="url(#pfa2e1506d0)" d="M 186.700595 337.159219 
L 186.700595 10.999219 
" style="fill:none;stroke:#b0b0b0;stroke-linecap:square;stroke-width:0.8;"/>
     </g>
     <g id="line2d_4">
      <g>
       <use style="stroke:#000000;stroke-width:0.8;" x="186.700595" xlink:href="#mc8507d58d1" y="337.159219"/>
      </g>
     </g>
     <g id="text_2">
      <!-- 50 -->
      <defs>
       <path d="M 10.796875 72.90625 
L 49.515625 72.90625 
L 49.515625 64.59375 
L 19.828125 64.59375 
L 19.828125 46.734375 
Q 21.96875 47.46875 24.109375 47.828125 
Q 26.265625 48.1875 28.421875 48.1875 
Q 40.625 48.1875 47.75 41.5 
Q 54.890625 34.8125 54.890625 23.390625 
Q 54.890625 11.625 47.5625 5.09375 
Q 40.234375 -1.421875 26.90625 -1.421875 
Q 22.3125 -1.421875 17.546875 -0.640625 
Q 12.796875 0.140625 7.71875 1.703125 
L 7.71875 11.625 
Q 12.109375 9.234375 16.796875 8.0625 
Q 21.484375 6.890625 26.703125 6.890625 
Q 35.15625 6.890625 40.078125 11.328125 
Q 45.015625 15.765625 45.015625 23.390625 
Q 45.015625 31 40.078125 35.4375 
Q 35.15625 39.890625 26.703125 39.890625 
Q 22.75 39.890625 18.8125 39.015625 
Q 14.890625 38.140625 10.796875 36.28125 
z
" id="DejaVuSans-53"/>
      </defs>
      <g transform="translate(180.338095 351.757656)scale(0.1 -0.1)">
       <use xlink:href="#DejaVuSans-53"/>
       <use x="63.623047" xlink:href="#DejaVuSans-48"/>
      </g>
     </g>
    </g>
    <g id="xtick_3">
     <g id="line2d_5">
      <path clip-path="url(#pfa2e1506d0)" d="M 288.494453 337.159219 
L 288.494453 10.999219 
" style="fill:none;stroke:#b0b0b0;stroke-linecap:square;stroke-width:0.8;"/>
     </g>
     <g id="line2d_6">
      <g>
       <use style="stroke:#000000;stroke-width:0.8;" x="288.494453" xlink:href="#mc8507d58d1" y="337.159219"/>
      </g>
     </g>
     <g id="text_3">
      <!-- 100 -->
      <defs>
       <path d="M 12.40625 8.296875 
L 28.515625 8.296875 
L 28.515625 63.921875 
L 10.984375 60.40625 
L 10.984375 69.390625 
L 28.421875 72.90625 
L 38.28125 72.90625 
L 38.28125 8.296875 
L 54.390625 8.296875 
L 54.390625 0 
L 12.40625 0 
z
" id="DejaVuSans-49"/>
      </defs>
      <g transform="translate(278.950703 351.757656)scale(0.1 -0.1)">
       <use xlink:href="#DejaVuSans-49"/>
       <use x="63.623047" xlink:href="#DejaVuSans-48"/>
       <use x="127.246094" xlink:href="#DejaVuSans-48"/>
      </g>
     </g>
    </g>
    <g id="xtick_4">
     <g id="line2d_7">
      <path clip-path="url(#pfa2e1506d0)" d="M 390.288311 337.159219 
L 390.288311 10.999219 
" style="fill:none;stroke:#b0b0b0;stroke-linecap:square;stroke-width:0.8;"/>
     </g>
     <g id="line2d_8">
      <g>
       <use style="stroke:#000000;stroke-width:0.8;" x="390.288311" xlink:href="#mc8507d58d1" y="337.159219"/>
      </g>
     </g>
     <g id="text_4">
      <!-- 150 -->
      <g transform="translate(380.744561 351.757656)scale(0.1 -0.1)">
       <use xlink:href="#DejaVuSans-49"/>
       <use x="63.623047" xlink:href="#DejaVuSans-53"/>
       <use x="127.246094" xlink:href="#DejaVuSans-48"/>
      </g>
     </g>
    </g>
    <g id="xtick_5">
     <g id="line2d_9">
      <path clip-path="url(#pfa2e1506d0)" d="M 492.08217 337.159219 
L 492.08217 10.999219 
" style="fill:none;stroke:#b0b0b0;stroke-linecap:square;stroke-width:0.8;"/>
     </g>
     <g id="line2d_10">
      <g>
       <use style="stroke:#000000;stroke-width:0.8;" x="492.08217" xlink:href="#mc8507d58d1" y="337.159219"/>
      </g>
     </g>
     <g id="text_5">
      <!-- 200 -->
      <defs>
       <path d="M 19.1875 8.296875 
L 53.609375 8.296875 
L 53.609375 0 
L 7.328125 0 
L 7.328125 8.296875 
Q 12.9375 14.109375 22.625 23.890625 
Q 32.328125 33.6875 34.8125 36.53125 
Q 39.546875 41.84375 41.421875 45.53125 
Q 43.3125 49.21875 43.3125 52.78125 
Q 43.3125 58.59375 39.234375 62.25 
Q 35.15625 65.921875 28.609375 65.921875 
Q 23.96875 65.921875 18.8125 64.3125 
Q 13.671875 62.703125 7.8125 59.421875 
L 7.8125 69.390625 
Q 13.765625 71.78125 18.9375 73 
Q 24.125 74.21875 28.421875 74.21875 
Q 39.75 74.21875 46.484375 68.546875 
Q 53.21875 62.890625 53.21875 53.421875 
Q 53.21875 48.921875 51.53125 44.890625 
Q 49.859375 40.875 45.40625 35.40625 
Q 44.1875 33.984375 37.640625 27.21875 
Q 31.109375 20.453125 19.1875 8.296875 
z
" id="DejaVuSans-50"/>
      </defs>
      <g transform="translate(482.53842 351.757656)scale(0.1 -0.1)">
       <use xlink:href="#DejaVuSans-50"/>
       <use x="63.623047" xlink:href="#DejaVuSans-48"/>
       <use x="127.246094" xlink:href="#DejaVuSans-48"/>
      </g>
     </g>
    </g>
    <g id="xtick_6">
     <g id="line2d_11">
      <path clip-path="url(#pfa2e1506d0)" d="M 593.876028 337.159219 
L 593.876028 10.999219 
" style="fill:none;stroke:#b0b0b0;stroke-linecap:square;stroke-width:0.8;"/>
     </g>
     <g id="line2d_12">
      <g>
       <use style="stroke:#000000;stroke-width:0.8;" x="593.876028" xlink:href="#mc8507d58d1" y="337.159219"/>
      </g>
     </g>
     <g id="text_6">
      <!-- 250 -->
      <g transform="translate(584.332278 351.757656)scale(0.1 -0.1)">
       <use xlink:href="#DejaVuSans-50"/>
       <use x="63.623047" xlink:href="#DejaVuSans-53"/>
       <use x="127.246094" xlink:href="#DejaVuSans-48"/>
      </g>
     </g>
    </g>
    <g id="xtick_7">
     <g id="line2d_13">
      <path clip-path="url(#pfa2e1506d0)" d="M 695.669886 337.159219 
L 695.669886 10.999219 
" style="fill:none;stroke:#b0b0b0;stroke-linecap:square;stroke-width:0.8;"/>
     </g>
     <g id="line2d_14">
      <g>
       <use style="stroke:#000000;stroke-width:0.8;" x="695.669886" xlink:href="#mc8507d58d1" y="337.159219"/>
      </g>
     </g>
     <g id="text_7">
      <!-- 300 -->
      <defs>
       <path d="M 40.578125 39.3125 
Q 47.65625 37.796875 51.625 33 
Q 55.609375 28.21875 55.609375 21.1875 
Q 55.609375 10.40625 48.1875 4.484375 
Q 40.765625 -1.421875 27.09375 -1.421875 
Q 22.515625 -1.421875 17.65625 -0.515625 
Q 12.796875 0.390625 7.625 2.203125 
L 7.625 11.71875 
Q 11.71875 9.328125 16.59375 8.109375 
Q 21.484375 6.890625 26.8125 6.890625 
Q 36.078125 6.890625 40.9375 10.546875 
Q 45.796875 14.203125 45.796875 21.1875 
Q 45.796875 27.640625 41.28125 31.265625 
Q 36.765625 34.90625 28.71875 34.90625 
L 20.21875 34.90625 
L 20.21875 43.015625 
L 29.109375 43.015625 
Q 36.375 43.015625 40.234375 45.921875 
Q 44.09375 48.828125 44.09375 54.296875 
Q 44.09375 59.90625 40.109375 62.90625 
Q 36.140625 65.921875 28.71875 65.921875 
Q 24.65625 65.921875 20.015625 65.03125 
Q 15.375 64.15625 9.8125 62.3125 
L 9.8125 71.09375 
Q 15.4375 72.65625 20.34375 73.4375 
Q 25.25 74.21875 29.59375 74.21875 
Q 40.828125 74.21875 47.359375 69.109375 
Q 53.90625 64.015625 53.90625 55.328125 
Q 53.90625 49.265625 50.4375 45.09375 
Q 46.96875 40.921875 40.578125 39.3125 
z
" id="DejaVuSans-51"/>
      </defs>
      <g transform="translate(686.126136 351.757656)scale(0.1 -0.1)">
       <use xlink:href="#DejaVuSans-51"/>
       <use x="63.623047" xlink:href="#DejaVuSans-48"/>
       <use x="127.246094" xlink:href="#DejaVuSans-48"/>
      </g>
     </g>
    </g>
    <g id="text_8">
     <!-- Epoch -->
     <defs>
      <path d="M 9.8125 72.90625 
L 55.90625 72.90625 
L 55.90625 64.59375 
L 19.671875 64.59375 
L 19.671875 43.015625 
L 54.390625 43.015625 
L 54.390625 34.71875 
L 19.671875 34.71875 
L 19.671875 8.296875 
L 56.78125 8.296875 
L 56.78125 0 
L 9.8125 0 
z
" id="DejaVuSans-69"/>
      <path d="M 18.109375 8.203125 
L 18.109375 -20.796875 
L 9.078125 -20.796875 
L 9.078125 54.6875 
L 18.109375 54.6875 
L 18.109375 46.390625 
Q 20.953125 51.265625 25.265625 53.625 
Q 29.59375 56 35.59375 56 
Q 45.5625 56 51.78125 48.09375 
Q 58.015625 40.1875 58.015625 27.296875 
Q 58.015625 14.40625 51.78125 6.484375 
Q 45.5625 -1.421875 35.59375 -1.421875 
Q 29.59375 -1.421875 25.265625 0.953125 
Q 20.953125 3.328125 18.109375 8.203125 
z
M 48.6875 27.296875 
Q 48.6875 37.203125 44.609375 42.84375 
Q 40.53125 48.484375 33.40625 48.484375 
Q 26.265625 48.484375 22.1875 42.84375 
Q 18.109375 37.203125 18.109375 27.296875 
Q 18.109375 17.390625 22.1875 11.75 
Q 26.265625 6.109375 33.40625 6.109375 
Q 40.53125 6.109375 44.609375 11.75 
Q 48.6875 17.390625 48.6875 27.296875 
z
" id="DejaVuSans-112"/>
      <path d="M 30.609375 48.390625 
Q 23.390625 48.390625 19.1875 42.75 
Q 14.984375 37.109375 14.984375 27.296875 
Q 14.984375 17.484375 19.15625 11.84375 
Q 23.34375 6.203125 30.609375 6.203125 
Q 37.796875 6.203125 41.984375 11.859375 
Q 46.1875 17.53125 46.1875 27.296875 
Q 46.1875 37.015625 41.984375 42.703125 
Q 37.796875 48.390625 30.609375 48.390625 
z
M 30.609375 56 
Q 42.328125 56 49.015625 48.375 
Q 55.71875 40.765625 55.71875 27.296875 
Q 55.71875 13.875 49.015625 6.21875 
Q 42.328125 -1.421875 30.609375 -1.421875 
Q 18.84375 -1.421875 12.171875 6.21875 
Q 5.515625 13.875 5.515625 27.296875 
Q 5.515625 40.765625 12.171875 48.375 
Q 18.84375 56 30.609375 56 
z
" id="DejaVuSans-111"/>
      <path d="M 48.78125 52.59375 
L 48.78125 44.1875 
Q 44.96875 46.296875 41.140625 47.34375 
Q 37.3125 48.390625 33.40625 48.390625 
Q 24.65625 48.390625 19.8125 42.84375 
Q 14.984375 37.3125 14.984375 27.296875 
Q 14.984375 17.28125 19.8125 11.734375 
Q 24.65625 6.203125 33.40625 6.203125 
Q 37.3125 6.203125 41.140625 7.25 
Q 44.96875 8.296875 48.78125 10.40625 
L 48.78125 2.09375 
Q 45.015625 0.34375 40.984375 -0.53125 
Q 36.96875 -1.421875 32.421875 -1.421875 
Q 20.0625 -1.421875 12.78125 6.34375 
Q 5.515625 14.109375 5.515625 27.296875 
Q 5.515625 40.671875 12.859375 48.328125 
Q 20.21875 56 33.015625 56 
Q 37.15625 56 41.109375 55.140625 
Q 45.0625 54.296875 48.78125 52.59375 
z
" id="DejaVuSans-99"/>
      <path d="M 54.890625 33.015625 
L 54.890625 0 
L 45.90625 0 
L 45.90625 32.71875 
Q 45.90625 40.484375 42.875 44.328125 
Q 39.84375 48.1875 33.796875 48.1875 
Q 26.515625 48.1875 22.3125 43.546875 
Q 18.109375 38.921875 18.109375 30.90625 
L 18.109375 0 
L 9.078125 0 
L 9.078125 75.984375 
L 18.109375 75.984375 
L 18.109375 46.1875 
Q 21.34375 51.125 25.703125 53.5625 
Q 30.078125 56 35.796875 56 
Q 45.21875 56 50.046875 50.171875 
Q 54.890625 44.34375 54.890625 33.015625 
z
" id="DejaVuSans-104"/>
     </defs>
     <g transform="translate(375.995313 365.435781)scale(0.1 -0.1)">
      <use xlink:href="#DejaVuSans-69"/>
      <use x="63.183594" xlink:href="#DejaVuSans-112"/>
      <use x="126.660156" xlink:href="#DejaVuSans-111"/>
      <use x="187.841797" xlink:href="#DejaVuSans-99"/>
      <use x="242.822266" xlink:href="#DejaVuSans-104"/>
     </g>
    </g>
   </g>
   <g id="matplotlib.axis_2">
    <g id="ytick_1">
     <g id="line2d_15">
      <path clip-path="url(#pfa2e1506d0)" d="M 56.50625 337.159219 
L 726.10625 337.159219 
" style="fill:none;stroke:#b0b0b0;stroke-linecap:square;stroke-width:0.8;"/>
     </g>
     <g id="line2d_16">
      <defs>
       <path d="M 0 0 
L -3.5 0 
" id="meb37a89271" style="stroke:#000000;stroke-width:0.8;"/>
      </defs>
      <g>
       <use style="stroke:#000000;stroke-width:0.8;" x="56.50625" xlink:href="#meb37a89271" y="337.159219"/>
      </g>
     </g>
     <g id="text_9">
      <!-- 0.800 -->
      <defs>
       <path d="M 10.6875 12.40625 
L 21 12.40625 
L 21 0 
L 10.6875 0 
z
" id="DejaVuSans-46"/>
       <path d="M 31.78125 34.625 
Q 24.75 34.625 20.71875 30.859375 
Q 16.703125 27.09375 16.703125 20.515625 
Q 16.703125 13.921875 20.71875 10.15625 
Q 24.75 6.390625 31.78125 6.390625 
Q 38.8125 6.390625 42.859375 10.171875 
Q 46.921875 13.96875 46.921875 20.515625 
Q 46.921875 27.09375 42.890625 30.859375 
Q 38.875 34.625 31.78125 34.625 
z
M 21.921875 38.8125 
Q 15.578125 40.375 12.03125 44.71875 
Q 8.5 49.078125 8.5 55.328125 
Q 8.5 64.0625 14.71875 69.140625 
Q 20.953125 74.21875 31.78125 74.21875 
Q 42.671875 74.21875 48.875 69.140625 
Q 55.078125 64.0625 55.078125 55.328125 
Q 55.078125 49.078125 51.53125 44.71875 
Q 48 40.375 41.703125 38.8125 
Q 48.828125 37.15625 52.796875 32.3125 
Q 56.78125 27.484375 56.78125 20.515625 
Q 56.78125 9.90625 50.3125 4.234375 
Q 43.84375 -1.421875 31.78125 -1.421875 
Q 19.734375 -1.421875 13.25 4.234375 
Q 6.78125 9.90625 6.78125 20.515625 
Q 6.78125 27.484375 10.78125 32.3125 
Q 14.796875 37.15625 21.921875 38.8125 
z
M 18.3125 54.390625 
Q 18.3125 48.734375 21.84375 45.5625 
Q 25.390625 42.390625 31.78125 42.390625 
Q 38.140625 42.390625 41.71875 45.5625 
Q 45.3125 48.734375 45.3125 54.390625 
Q 45.3125 60.0625 41.71875 63.234375 
Q 38.140625 66.40625 31.78125 66.40625 
Q 25.390625 66.40625 21.84375 63.234375 
Q 18.3125 60.0625 18.3125 54.390625 
z
" id="DejaVuSans-56"/>
      </defs>
      <g transform="translate(20.878125 340.958438)scale(0.1 -0.1)">
       <use xlink:href="#DejaVuSans-48"/>
       <use x="63.623047" xlink:href="#DejaVuSans-46"/>
       <use x="95.410156" xlink:href="#DejaVuSans-56"/>
       <use x="159.033203" xlink:href="#DejaVuSans-48"/>
       <use x="222.65625" xlink:href="#DejaVuSans-48"/>
      </g>
     </g>
    </g>
    <g id="ytick_2">
     <g id="line2d_17">
      <path clip-path="url(#pfa2e1506d0)" d="M 56.50625 296.389219 
L 726.10625 296.389219 
" style="fill:none;stroke:#b0b0b0;stroke-linecap:square;stroke-width:0.8;"/>
     </g>
     <g id="line2d_18">
      <g>
       <use style="stroke:#000000;stroke-width:0.8;" x="56.50625" xlink:href="#meb37a89271" y="296.389219"/>
      </g>
     </g>
     <g id="text_10">
      <!-- 0.825 -->
      <g transform="translate(20.878125 300.188437)scale(0.1 -0.1)">
       <use xlink:href="#DejaVuSans-48"/>
       <use x="63.623047" xlink:href="#DejaVuSans-46"/>
       <use x="95.410156" xlink:href="#DejaVuSans-56"/>
       <use x="159.033203" xlink:href="#DejaVuSans-50"/>
       <use x="222.65625" xlink:href="#DejaVuSans-53"/>
      </g>
     </g>
    </g>
    <g id="ytick_3">
     <g id="line2d_19">
      <path clip-path="url(#pfa2e1506d0)" d="M 56.50625 255.619219 
L 726.10625 255.619219 
" style="fill:none;stroke:#b0b0b0;stroke-linecap:square;stroke-width:0.8;"/>
     </g>
     <g id="line2d_20">
      <g>
       <use style="stroke:#000000;stroke-width:0.8;" x="56.50625" xlink:href="#meb37a89271" y="255.619219"/>
      </g>
     </g>
     <g id="text_11">
      <!-- 0.850 -->
      <g transform="translate(20.878125 259.418437)scale(0.1 -0.1)">
       <use xlink:href="#DejaVuSans-48"/>
       <use x="63.623047" xlink:href="#DejaVuSans-46"/>
       <use x="95.410156" xlink:href="#DejaVuSans-56"/>
       <use x="159.033203" xlink:href="#DejaVuSans-53"/>
       <use x="222.65625" xlink:href="#DejaVuSans-48"/>
      </g>
     </g>
    </g>
    <g id="ytick_4">
     <g id="line2d_21">
      <path clip-path="url(#pfa2e1506d0)" d="M 56.50625 214.849219 
L 726.10625 214.849219 
" style="fill:none;stroke:#b0b0b0;stroke-linecap:square;stroke-width:0.8;"/>
     </g>
     <g id="line2d_22">
      <g>
       <use style="stroke:#000000;stroke-width:0.8;" x="56.50625" xlink:href="#meb37a89271" y="214.849219"/>
      </g>
     </g>
     <g id="text_12">
      <!-- 0.875 -->
      <defs>
       <path d="M 8.203125 72.90625 
L 55.078125 72.90625 
L 55.078125 68.703125 
L 28.609375 0 
L 18.3125 0 
L 43.21875 64.59375 
L 8.203125 64.59375 
z
" id="DejaVuSans-55"/>
      </defs>
      <g transform="translate(20.878125 218.648438)scale(0.1 -0.1)">
       <use xlink:href="#DejaVuSans-48"/>
       <use x="63.623047" xlink:href="#DejaVuSans-46"/>
       <use x="95.410156" xlink:href="#DejaVuSans-56"/>
       <use x="159.033203" xlink:href="#DejaVuSans-55"/>
       <use x="222.65625" xlink:href="#DejaVuSans-53"/>
      </g>
     </g>
    </g>
    <g id="ytick_5">
     <g id="line2d_23">
      <path clip-path="url(#pfa2e1506d0)" d="M 56.50625 174.079219 
L 726.10625 174.079219 
" style="fill:none;stroke:#b0b0b0;stroke-linecap:square;stroke-width:0.8;"/>
     </g>
     <g id="line2d_24">
      <g>
       <use style="stroke:#000000;stroke-width:0.8;" x="56.50625" xlink:href="#meb37a89271" y="174.079219"/>
      </g>
     </g>
     <g id="text_13">
      <!-- 0.900 -->
      <defs>
       <path d="M 10.984375 1.515625 
L 10.984375 10.5 
Q 14.703125 8.734375 18.5 7.8125 
Q 22.3125 6.890625 25.984375 6.890625 
Q 35.75 6.890625 40.890625 13.453125 
Q 46.046875 20.015625 46.78125 33.40625 
Q 43.953125 29.203125 39.59375 26.953125 
Q 35.25 24.703125 29.984375 24.703125 
Q 19.046875 24.703125 12.671875 31.3125 
Q 6.296875 37.9375 6.296875 49.421875 
Q 6.296875 60.640625 12.9375 67.421875 
Q 19.578125 74.21875 30.609375 74.21875 
Q 43.265625 74.21875 49.921875 64.515625 
Q 56.59375 54.828125 56.59375 36.375 
Q 56.59375 19.140625 48.40625 8.859375 
Q 40.234375 -1.421875 26.421875 -1.421875 
Q 22.703125 -1.421875 18.890625 -0.6875 
Q 15.09375 0.046875 10.984375 1.515625 
z
M 30.609375 32.421875 
Q 37.25 32.421875 41.125 36.953125 
Q 45.015625 41.5 45.015625 49.421875 
Q 45.015625 57.28125 41.125 61.84375 
Q 37.25 66.40625 30.609375 66.40625 
Q 23.96875 66.40625 20.09375 61.84375 
Q 16.21875 57.28125 16.21875 49.421875 
Q 16.21875 41.5 20.09375 36.953125 
Q 23.96875 32.421875 30.609375 32.421875 
z
" id="DejaVuSans-57"/>
      </defs>
      <g transform="translate(20.878125 177.878437)scale(0.1 -0.1)">
       <use xlink:href="#DejaVuSans-48"/>
       <use x="63.623047" xlink:href="#DejaVuSans-46"/>
       <use x="95.410156" xlink:href="#DejaVuSans-57"/>
       <use x="159.033203" xlink:href="#DejaVuSans-48"/>
       <use x="222.65625" xlink:href="#DejaVuSans-48"/>
      </g>
     </g>
    </g>
    <g id="ytick_6">
     <g id="line2d_25">
      <path clip-path="url(#pfa2e1506d0)" d="M 56.50625 133.309219 
L 726.10625 133.309219 
" style="fill:none;stroke:#b0b0b0;stroke-linecap:square;stroke-width:0.8;"/>
     </g>
     <g id="line2d_26">
      <g>
       <use style="stroke:#000000;stroke-width:0.8;" x="56.50625" xlink:href="#meb37a89271" y="133.309219"/>
      </g>
     </g>
     <g id="text_14">
      <!-- 0.925 -->
      <g transform="translate(20.878125 137.108437)scale(0.1 -0.1)">
       <use xlink:href="#DejaVuSans-48"/>
       <use x="63.623047" xlink:href="#DejaVuSans-46"/>
       <use x="95.410156" xlink:href="#DejaVuSans-57"/>
       <use x="159.033203" xlink:href="#DejaVuSans-50"/>
       <use x="222.65625" xlink:href="#DejaVuSans-53"/>
      </g>
     </g>
    </g>
    <g id="ytick_7">
     <g id="line2d_27">
      <path clip-path="url(#pfa2e1506d0)" d="M 56.50625 92.539219 
L 726.10625 92.539219 
" style="fill:none;stroke:#b0b0b0;stroke-linecap:square;stroke-width:0.8;"/>
     </g>
     <g id="line2d_28">
      <g>
       <use style="stroke:#000000;stroke-width:0.8;" x="56.50625" xlink:href="#meb37a89271" y="92.539219"/>
      </g>
     </g>
     <g id="text_15">
      <!-- 0.950 -->
      <g transform="translate(20.878125 96.338437)scale(0.1 -0.1)">
       <use xlink:href="#DejaVuSans-48"/>
       <use x="63.623047" xlink:href="#DejaVuSans-46"/>
       <use x="95.410156" xlink:href="#DejaVuSans-57"/>
       <use x="159.033203" xlink:href="#DejaVuSans-53"/>
       <use x="222.65625" xlink:href="#DejaVuSans-48"/>
      </g>
     </g>
    </g>
    <g id="ytick_8">
     <g id="line2d_29">
      <path clip-path="url(#pfa2e1506d0)" d="M 56.50625 51.769219 
L 726.10625 51.769219 
" style="fill:none;stroke:#b0b0b0;stroke-linecap:square;stroke-width:0.8;"/>
     </g>
     <g id="line2d_30">
      <g>
       <use style="stroke:#000000;stroke-width:0.8;" x="56.50625" xlink:href="#meb37a89271" y="51.769219"/>
      </g>
     </g>
     <g id="text_16">
      <!-- 0.975 -->
      <g transform="translate(20.878125 55.568437)scale(0.1 -0.1)">
       <use xlink:href="#DejaVuSans-48"/>
       <use x="63.623047" xlink:href="#DejaVuSans-46"/>
       <use x="95.410156" xlink:href="#DejaVuSans-57"/>
       <use x="159.033203" xlink:href="#DejaVuSans-55"/>
       <use x="222.65625" xlink:href="#DejaVuSans-53"/>
      </g>
     </g>
    </g>
    <g id="ytick_9">
     <g id="line2d_31">
      <path clip-path="url(#pfa2e1506d0)" d="M 56.50625 10.999219 
L 726.10625 10.999219 
" style="fill:none;stroke:#b0b0b0;stroke-linecap:square;stroke-width:0.8;"/>
     </g>
     <g id="line2d_32">
      <g>
       <use style="stroke:#000000;stroke-width:0.8;" x="56.50625" xlink:href="#meb37a89271" y="10.999219"/>
      </g>
     </g>
     <g id="text_17">
      <!-- 1.000 -->
      <g transform="translate(20.878125 14.798437)scale(0.1 -0.1)">
       <use xlink:href="#DejaVuSans-49"/>
       <use x="63.623047" xlink:href="#DejaVuSans-46"/>
       <use x="95.410156" xlink:href="#DejaVuSans-48"/>
       <use x="159.033203" xlink:href="#DejaVuSans-48"/>
       <use x="222.65625" xlink:href="#DejaVuSans-48"/>
      </g>
     </g>
    </g>
    <g id="text_18">
     <!-- Accuracy -->
     <defs>
      <path d="M 34.1875 63.1875 
L 20.796875 26.90625 
L 47.609375 26.90625 
z
M 28.609375 72.90625 
L 39.796875 72.90625 
L 67.578125 0 
L 57.328125 0 
L 50.6875 18.703125 
L 17.828125 18.703125 
L 11.1875 0 
L 0.78125 0 
z
" id="DejaVuSans-65"/>
      <path d="M 8.5 21.578125 
L 8.5 54.6875 
L 17.484375 54.6875 
L 17.484375 21.921875 
Q 17.484375 14.15625 20.5 10.265625 
Q 23.53125 6.390625 29.59375 6.390625 
Q 36.859375 6.390625 41.078125 11.03125 
Q 45.3125 15.671875 45.3125 23.6875 
L 45.3125 54.6875 
L 54.296875 54.6875 
L 54.296875 0 
L 45.3125 0 
L 45.3125 8.40625 
Q 42.046875 3.421875 37.71875 1 
Q 33.40625 -1.421875 27.6875 -1.421875 
Q 18.265625 -1.421875 13.375 4.4375 
Q 8.5 10.296875 8.5 21.578125 
z
M 31.109375 56 
z
" id="DejaVuSans-117"/>
      <path d="M 41.109375 46.296875 
Q 39.59375 47.171875 37.8125 47.578125 
Q 36.03125 48 33.890625 48 
Q 26.265625 48 22.1875 43.046875 
Q 18.109375 38.09375 18.109375 28.8125 
L 18.109375 0 
L 9.078125 0 
L 9.078125 54.6875 
L 18.109375 54.6875 
L 18.109375 46.1875 
Q 20.953125 51.171875 25.484375 53.578125 
Q 30.03125 56 36.53125 56 
Q 37.453125 56 38.578125 55.875 
Q 39.703125 55.765625 41.0625 55.515625 
z
" id="DejaVuSans-114"/>
      <path d="M 34.28125 27.484375 
Q 23.390625 27.484375 19.1875 25 
Q 14.984375 22.515625 14.984375 16.5 
Q 14.984375 11.71875 18.140625 8.90625 
Q 21.296875 6.109375 26.703125 6.109375 
Q 34.1875 6.109375 38.703125 11.40625 
Q 43.21875 16.703125 43.21875 25.484375 
L 43.21875 27.484375 
z
M 52.203125 31.203125 
L 52.203125 0 
L 43.21875 0 
L 43.21875 8.296875 
Q 40.140625 3.328125 35.546875 0.953125 
Q 30.953125 -1.421875 24.3125 -1.421875 
Q 15.921875 -1.421875 10.953125 3.296875 
Q 6 8.015625 6 15.921875 
Q 6 25.140625 12.171875 29.828125 
Q 18.359375 34.515625 30.609375 34.515625 
L 43.21875 34.515625 
L 43.21875 35.40625 
Q 43.21875 41.609375 39.140625 45 
Q 35.0625 48.390625 27.6875 48.390625 
Q 23 48.390625 18.546875 47.265625 
Q 14.109375 46.140625 10.015625 43.890625 
L 10.015625 52.203125 
Q 14.9375 54.109375 19.578125 55.046875 
Q 24.21875 56 28.609375 56 
Q 40.484375 56 46.34375 49.84375 
Q 52.203125 43.703125 52.203125 31.203125 
z
" id="DejaVuSans-97"/>
      <path d="M 32.171875 -5.078125 
Q 28.375 -14.84375 24.75 -17.8125 
Q 21.140625 -20.796875 15.09375 -20.796875 
L 7.90625 -20.796875 
L 7.90625 -13.28125 
L 13.1875 -13.28125 
Q 16.890625 -13.28125 18.9375 -11.515625 
Q 21 -9.765625 23.484375 -3.21875 
L 25.09375 0.875 
L 2.984375 54.6875 
L 12.5 54.6875 
L 29.59375 11.921875 
L 46.6875 54.6875 
L 56.203125 54.6875 
z
" id="DejaVuSans-121"/>
     </defs>
     <g transform="translate(14.798437 196.994063)rotate(-90)scale(0.1 -0.1)">
      <use xlink:href="#DejaVuSans-65"/>
      <use x="68.392578" xlink:href="#DejaVuSans-99"/>
      <use x="123.373047" xlink:href="#DejaVuSans-99"/>
      <use x="178.353516" xlink:href="#DejaVuSans-117"/>
      <use x="241.732422" xlink:href="#DejaVuSans-114"/>
      <use x="282.845703" xlink:href="#DejaVuSans-97"/>
      <use x="344.125" xlink:href="#DejaVuSans-99"/>
      <use x="399.105469" xlink:href="#DejaVuSans-121"/>
     </g>
    </g>
   </g>
   <g id="line2d_33">
    <path clip-path="url(#pfa2e1506d0)" d="M 130.618541 375.715469 
L 133.252196 366.388205 
L 136.908216 354.277757 
L 140.564235 343.066936 
L 144.220255 332.679587 
L 147.876275 323.039558 
L 151.532294 314.070695 
L 155.188314 305.696842 
L 158.844334 297.841846 
L 163.10969 289.231864 
L 167.375046 281.109812 
L 171.640402 273.421758 
L 175.905759 266.147738 
L 180.171115 259.268161 
L 184.436471 252.763435 
L 188.701827 246.61397 
L 193.57652 239.99589 
L 198.451213 233.786991 
L 203.325906 227.958028 
L 208.200599 222.479757 
L 213.075292 217.322934 
L 218.559321 211.869326 
L 224.043351 206.7439 
L 230.136717 201.383243 
L 236.230083 196.319225 
L 242.932786 191.024592 
L 250.244825 185.531587 
L 257.556864 180.321237 
L 264.868904 175.382298 
L 272.180943 170.703527 
L 279.492982 166.273678 
L 287.414358 161.742538 
L 295.335734 157.476045 
L 303.25711 153.459904 
L 311.178486 149.679818 
L 319.709198 145.856551 
L 328.239911 142.272618 
L 337.37996 138.677992 
L 346.520009 135.315655 
L 356.269395 131.960452 
L 366.628117 128.627944 
L 378.205513 125.148154 
L 391.001582 121.550749 
L 405.016324 117.849734 
L 419.031066 114.375302 
L 433.655144 110.980409 
L 448.279223 107.809666 
L 463.512638 104.732744 
L 479.35539 101.763503 
L 495.807479 98.913589 
L 512.868904 96.192121 
L 530.539665 93.605345 
L 548.819764 91.156289 
L 568.318535 88.773247 
L 589.03598 86.470685 
L 611.581434 84.195962 
L 636.564235 81.906806 
L 665.812393 79.4613 
L 695.669886 77.134653 
L 695.669886 77.134653 
" style="fill:none;stroke:#377eb8;stroke-linecap:square;stroke-width:2;"/>
   </g>
   <g id="line2d_34">
    <path clip-path="url(#pfa2e1506d0)" d="M 127.739751 375.715469 
L 130.81485 365.876038 
L 134.470869 354.783636 
L 138.126889 344.328084 
L 141.782908 334.487518 
L 145.438928 325.240079 
L 149.094948 316.563903 
L 152.750967 308.437131 
L 156.406987 300.837899 
L 160.063007 293.744348 
L 163.719026 287.134615 
L 167.375046 280.986957 
L 171.031066 275.280405 
L 174.687085 269.994298 
L 178.343105 265.107978 
L 181.999125 260.600785 
L 185.655144 256.452061 
L 189.311164 252.641146 
L 192.967184 249.147381 
L 196.623203 245.950108 
L 200.279223 243.028667 
L 203.935243 240.362399 
L 208.200599 237.546701 
L 212.465955 235.017398 
L 216.731311 232.741682 
L 221.606004 230.409297 
L 226.480697 228.31631 
L 232.574063 225.962129 
L 239.886103 223.395207 
L 249.635488 220.207619 
L 259.994211 217.062766 
L 270.352933 214.153298 
L 281.320992 211.313483 
L 292.289051 208.70482 
L 303.866447 206.183398 
L 316.053179 203.765471 
L 328.849248 201.462519 
L 342.254653 199.280384 
L 356.878732 197.133255 
L 372.721483 195.036974 
L 391.001582 192.850459 
L 412.328363 190.530046 
L 434.264481 188.37274 
L 456.200599 186.436941 
L 478.746053 184.666382 
L 502.510181 183.027139 
L 526.883646 181.573196 
L 551.866447 180.305832 
L 578.067921 179.201143 
L 605.488068 178.270709 
L 634.126889 177.521883 
L 664.593719 176.94772 
L 695.669886 176.567759 
L 695.669886 176.567759 
" style="fill:none;stroke:#4daf4a;stroke-linecap:square;stroke-width:2;"/>
   </g>
   <g id="line2d_35">
    <path clip-path="url(#pfa2e1506d0)" d="M 131.782972 375.715469 
L 133.767788 363.114898 
L 135.803666 357.307004 
L 137.839543 352.276152 
L 139.87542 343.891497 
L 141.911297 338.778897 
L 143.947174 330.189726 
L 145.983051 330.189726 
L 150.054806 315.669893 
L 152.090683 313.174977 
L 154.12656 301.968122 
L 156.162437 303.031525 
L 158.198314 295.866479 
L 160.234192 296.372811 
L 162.270069 287.693727 
L 164.305946 288.225428 
L 166.341823 281.06777 
L 168.3777 279.164919 
L 170.413577 277.446268 
L 172.449455 269.615477 
L 174.485332 269.819992 
L 176.521209 262.785101 
L 178.557086 262.662333 
L 180.592963 258.735905 
L 182.62884 252.600727 
L 184.664718 254.686709 
L 186.700595 246.823257 
L 188.736472 245.533273 
L 190.772349 244.093304 
L 192.808226 238.939879 
L 194.844103 243.193493 
L 196.879981 237.262928 
L 198.915858 236.444866 
L 200.951735 232.326753 
L 202.987612 223.165443 
L 205.023489 226.628698 
L 207.059366 221.587057 
L 209.095244 219.437504 
L 211.131121 217.916759 
L 213.166998 213.744893 
L 215.202875 215.053443 
L 217.238752 217.143313 
L 219.274629 215.8717 
L 221.310507 209.327588 
L 223.346384 203.642364 
L 225.382261 199.715936 
L 227.418138 201.351964 
L 229.454015 200.247637 
L 231.489892 200.983855 
L 233.52577 196.075674 
L 235.561647 196.350856 
L 237.597524 197.069674 
L 239.633401 192.762695 
L 241.669278 190.594965 
L 243.705155 189.817923 
L 245.741033 185.774462 
L 247.77691 188.917334 
L 249.812787 186.668537 
L 251.848664 182.251232 
L 253.884541 184.141058 
L 255.920418 180.778798 
L 257.956296 179.085322 
L 259.992173 182.33298 
L 262.02805 179.26544 
L 264.063927 174.889058 
L 266.099804 175.625275 
L 268.135681 173.687237 
L 270.171559 176.873171 
L 272.207436 169.735536 
L 274.243313 168.304023 
L 276.27919 166.58615 
L 278.315067 163.396717 
L 284.422699 164.786529 
L 286.458576 160.369225 
L 288.494453 161.923505 
L 290.53033 161.22821 
L 292.566207 155.297548 
L 294.602085 161.35088 
L 296.637962 157.547122 
L 298.673839 154.397737 
L 300.709716 153.497926 
L 302.745593 157.056246 
L 304.78147 150.553057 
L 306.817348 151.820976 
L 308.853225 153.743268 
L 310.889102 153.187848 
L 312.924979 148.237481 
L 314.960856 150.593979 
L 316.996733 151.350318 
L 319.032611 147.25427 
L 321.068488 145.767643 
L 323.104365 147.035563 
L 325.140242 140.202271 
L 327.176119 143.649196 
L 329.211996 143.060727 
L 331.247874 140.164167 
L 333.283751 140.904467 
L 335.319628 137.956293 
L 337.355505 135.619721 
L 339.391382 136.564925 
L 341.427259 141.554854 
L 343.463137 137.751096 
L 345.499014 137.055704 
L 347.534891 135.706037 
L 349.570768 133.129276 
L 351.606645 133.374617 
L 353.642522 132.761167 
L 355.6784 132.556652 
L 357.714277 128.384785 
L 359.750154 130.279277 
L 361.786031 131.738589 
L 363.821908 130.457936 
L 365.857785 126.216958 
L 367.893663 129.816298 
L 369.92954 126.953176 
L 371.965417 126.236496 
L 374.001294 127.713208 
L 378.073048 125.910671 
L 380.108926 124.235567 
L 382.144803 126.666912 
L 384.18068 123.944249 
L 386.216557 123.844713 
L 388.252434 123.967481 
L 390.288311 122.4132 
L 392.324189 122.071337 
L 394.360066 119.754691 
L 396.395943 118.700522 
L 398.43182 120.846284 
L 400.467697 120.613579 
L 402.503574 119.069214 
L 404.539452 118.077741 
L 406.575329 119.702882 
L 408.611206 115.709967 
L 410.647083 115.905151 
L 412.68296 116.318945 
L 414.718837 112.186835 
L 416.754715 111.821642 
L 418.790592 116.032682 
L 420.826469 114.028545 
L 422.862346 110.957797 
L 424.898223 113.904222 
L 426.9341 113.292327 
L 428.969978 108.261476 
L 431.005855 115.996716 
L 433.041732 110.224787 
L 435.077609 110.106588 
L 437.113486 110.302355 
L 439.149363 110.92329 
L 441.185241 112.801354 
L 443.221118 106.063905 
L 445.256995 106.380107 
L 447.292872 107.188935 
L 449.328749 105.655554 
L 451.364626 105.602967 
L 453.400504 104.198283 
L 455.436381 104.348753 
L 457.472258 105.153013 
L 459.508135 107.198072 
L 461.544012 102.723515 
L 463.579889 103.777101 
L 465.615767 106.902088 
L 467.651644 105.737205 
L 469.687521 99.87682 
L 471.723398 104.239302 
L 473.759275 104.471327 
L 475.795152 99.263371 
L 477.83103 101.535497 
L 479.866907 101.081946 
L 481.902784 103.067128 
L 483.938661 101.635616 
L 485.974538 98.077199 
L 488.010415 101.594693 
L 490.046293 98.813417 
L 492.08217 96.522919 
L 494.118047 98.486231 
L 496.153924 100.081336 
L 498.189801 98.567978 
L 500.225678 100.858476 
L 502.261556 99.87682 
L 504.297433 98.527153 
L 506.33331 97.340982 
L 508.369187 100.163181 
L 510.405064 98.19987 
L 512.440941 99.75415 
L 514.476819 96.686609 
L 516.512696 93.169115 
L 518.548573 91.573913 
L 520.58445 90.633277 
L 522.620327 94.396112 
L 524.656204 93.128193 
L 526.692082 93.373631 
L 528.727959 89.324435 
L 530.763836 94.559705 
L 532.799713 92.31013 
L 534.83559 94.764221 
L 536.871467 93.894932 
L 540.943222 91.246727 
L 542.979099 91.901196 
L 545.014976 94.273441 
L 547.050853 90.265168 
L 549.08673 89.528951 
L 551.122608 89.692544 
L 553.158485 88.342779 
L 555.194362 89.978807 
L 557.230239 92.146537 
L 559.266116 92.139052 
L 561.301993 91.334793 
L 563.337871 88.424624 
L 565.373748 92.882754 
L 567.409625 90.878618 
L 569.445502 87.524814 
L 571.481379 85.766018 
L 573.517256 88.015593 
L 575.553134 87.647484 
L 577.589011 89.815214 
L 579.624888 87.442969 
L 581.660765 89.24259 
L 583.696642 85.727915 
L 585.732519 87.402046 
L 587.768397 83.148335 
L 589.804274 86.624906 
L 593.876028 83.849462 
L 595.911905 87.811661 
L 597.947782 82.821148 
L 599.98366 84.170913 
L 602.019537 85.316162 
L 604.055414 85.806941 
L 606.091291 85.602425 
L 608.127168 86.093204 
L 610.163045 86.29772 
L 612.198923 85.319564 
L 614.2348 86.418835 
L 616.270677 84.620769 
L 618.306554 84.053588 
L 620.342431 82.281184 
L 622.378308 83.925475 
L 624.414186 86.379565 
L 626.450063 82.003183 
L 628.48594 81.195132 
L 630.521817 84.370471 
L 632.557694 82.984741 
L 634.593571 82.616633 
L 636.629449 81.389636 
L 638.665326 83.557366 
L 640.701203 79.630938 
L 642.73708 83.025664 
L 644.772957 80.694341 
L 646.808834 79.099236 
L 648.844712 80.326232 
L 650.880589 79.630938 
L 652.916466 83.066587 
L 654.952343 80.28531 
L 656.98822 78.444766 
L 659.024097 81.266966 
L 661.059975 79.929254 
L 663.095852 80.27384 
L 665.131729 79.929254 
L 667.167606 78.839995 
L 669.203483 79.958124 
L 671.23936 77.99491 
L 673.275238 79.847604 
L 675.311115 76.358784 
L 677.346992 80.314762 
L 681.418746 75.437395 
L 683.454623 77.610957 
L 685.490501 76.458223 
L 687.526378 76.054247 
L 689.562255 77.626801 
L 691.598132 78.608359 
L 693.634009 80.898857 
L 695.669886 74.518338 
L 695.669886 74.518338 
" style="fill:none;stroke:#377eb8;stroke-linecap:square;stroke-opacity:0.25098;stroke-width:1.5;"/>
   </g>
   <g id="line2d_36">
    <path clip-path="url(#pfa2e1506d0)" d="M 124.486083 375.715469 
L 125.62428 351.795482 
L 127.660157 360.055134 
L 129.696034 373.105546 
L 131.731911 348.656789 
L 133.767788 351.465088 
L 135.803666 355.429717 
L 137.839543 318.591336 
L 139.87542 330.320173 
L 141.911297 326.190298 
L 143.947174 315.287495 
L 145.983051 323.547147 
L 148.018929 309.175257 
L 150.054806 316.60907 
L 152.090683 284.561255 
L 154.12656 324.538329 
L 156.162437 286.874012 
L 158.198314 299.09839 
L 160.234192 315.122249 
L 162.270069 271.51094 
L 164.305946 281.092168 
L 166.341823 277.457932 
L 168.3777 281.752955 
L 170.413577 269.528577 
L 172.449455 260.773285 
L 174.485332 260.773285 
L 176.521209 265.729096 
L 178.557086 256.147868 
L 180.592963 262.920797 
L 182.62884 278.11872 
L 184.664718 238.306794 
L 186.700595 267.546214 
L 188.736472 274.153994 
L 190.772349 251.522354 
L 192.808226 257.304198 
L 194.844103 249.540088 
L 196.879981 255.321835 
L 198.915858 260.442891 
L 200.951735 239.297976 
L 202.987612 237.646104 
L 205.023489 238.967582 
L 207.059366 232.855441 
L 209.095244 237.150464 
L 211.131121 234.342165 
L 213.166998 248.714055 
L 215.202875 237.480858 
L 217.238752 231.203472 
L 219.274629 220.135423 
L 221.310507 229.716748 
L 223.346384 245.244968 
L 225.382261 210.88459 
L 227.418138 229.386354 
L 229.454015 230.70793 
L 231.489892 231.86426 
L 233.52577 242.106275 
L 235.561647 221.787393 
L 237.597524 231.699014 
L 239.633401 228.395173 
L 241.669278 230.70793 
L 243.705155 231.86426 
L 245.741033 216.170794 
L 247.77691 212.725814 
L 249.812787 236.489677 
L 251.848664 223.108968 
L 253.884541 211.380132 
L 255.920418 217.49237 
L 257.956296 215.675155 
L 259.992173 223.769756 
L 262.02805 217.987912 
L 264.063927 214.849219 
L 266.099804 217.161976 
L 268.135681 213.527643 
L 270.171559 208.902226 
L 272.207436 211.380132 
L 274.243313 206.754715 
L 276.27919 206.093927 
L 278.315067 206.919863 
L 280.350944 225.421628 
L 282.386822 204.111564 
L 284.422699 206.589469 
L 286.458576 202.459595 
L 288.494453 212.206068 
L 290.53033 208.902226 
L 292.566207 211.380132 
L 294.602085 205.267894 
L 296.637962 205.763533 
L 298.673839 198.825359 
L 300.709716 203.946416 
L 302.745593 205.102746 
L 304.78147 217.49237 
L 306.817348 192.217579 
L 308.853225 207.745897 
L 310.889102 200.312083 
L 312.924979 205.102746 
L 314.960856 208.571833 
L 316.996733 199.155753 
L 319.032611 201.46851 
L 321.068488 200.972871 
L 323.104365 207.250257 
L 325.140242 190.896004 
L 327.176119 197.669029 
L 329.211996 195.025879 
L 331.247874 191.887186 
L 333.283751 204.111564 
L 335.319628 179.827955 
L 337.355505 195.851815 
L 339.391382 195.851815 
L 341.427259 214.849219 
L 343.463137 202.62484 
L 345.499014 198.825359 
L 347.534891 204.937597 
L 349.570768 197.999423 
L 351.606645 198.825359 
L 353.642522 190.730856 
L 355.6784 191.391643 
L 357.714277 199.486147 
L 359.750154 192.878367 
L 361.786031 212.536462 
L 363.821908 199.981689 
L 365.857785 189.40928 
L 367.893663 201.798807 
L 369.92954 194.530336 
L 371.965417 199.816541 
L 374.001294 189.40928 
L 376.037171 200.642477 
L 378.073048 202.789989 
L 380.108926 197.503784 
L 382.144803 190.400462 
L 384.18068 197.834178 
L 386.216557 202.129201 
L 388.252434 186.600981 
L 390.288311 197.834178 
L 392.324189 180.488743 
L 394.360066 197.338636 
L 396.395943 193.208761 
L 398.43182 188.418099 
L 400.467697 188.748492 
L 402.503574 191.556792 
L 404.539452 195.521421 
L 406.575329 187.757311 
L 408.611206 184.794458 
L 410.647083 195.025879 
L 412.68296 189.739674 
L 414.718837 188.418099 
L 416.754715 200.477329 
L 418.790592 182.305861 
L 420.826469 193.869549 
L 422.862346 183.792682 
L 424.898223 188.913641 
L 426.9341 184.783863 
L 428.969978 199.816541 
L 431.005855 185.609799 
L 433.041732 188.913641 
L 435.077609 185.444554 
L 437.113486 195.521421 
L 439.149363 183.462288 
L 441.185241 192.547973 
L 443.221118 183.131894 
L 445.256995 191.556792 
L 447.292872 201.303265 
L 449.328749 184.618618 
L 453.400504 189.078886 
L 455.436381 177.515295 
L 457.472258 182.966648 
L 459.508135 183.297042 
L 461.544012 191.887186 
L 463.579889 184.123076 
L 465.615767 193.704303 
L 467.651644 191.887186 
L 469.687521 186.600981 
L 471.723398 183.462288 
L 473.759275 180.653989 
L 475.795152 187.096523 
L 477.83103 189.904822 
L 479.866907 178.176083 
L 481.902784 194.86073 
L 483.938661 178.671625 
L 485.974538 175.532932 
L 488.010415 180.488743 
L 490.046293 185.114257 
L 492.08217 187.096523 
L 494.118047 181.364253 
L 496.153924 178.506477 
L 498.189801 194.365091 
L 500.225678 181.479925 
L 502.261556 184.783863 
L 504.297433 190.235216 
L 506.33331 182.140712 
L 508.369187 184.453469 
L 510.405064 184.123076 
L 512.440941 182.305861 
L 514.476819 181.314776 
L 518.548573 186.766129 
L 520.58445 186.766129 
L 522.620327 190.235216 
L 524.656204 174.211357 
L 526.692082 174.541751 
L 528.727959 181.479925 
L 530.763836 185.940193 
L 532.799713 177.184902 
L 534.83559 180.488743 
L 536.871467 173.550569 
L 538.907345 176.854508 
L 540.943222 179.167168 
L 542.979099 178.341232 
L 545.014976 178.506477 
L 547.050853 188.25295 
L 549.08673 172.889781 
L 551.122608 177.515295 
L 553.158485 173.715815 
L 555.194362 183.792682 
L 557.230239 167.933971 
L 559.266116 175.863326 
L 561.301993 184.949012 
L 563.337871 177.35005 
L 565.373748 176.19372 
L 567.409625 188.418099 
L 569.445502 176.028474 
L 571.481379 172.228994 
L 573.517256 169.916334 
L 575.553134 182.8015 
L 577.589011 193.539155 
L 579.624888 171.403058 
L 581.660765 179.332413 
L 583.696642 179.497561 
L 585.732519 173.055027 
L 587.768397 180.323595 
L 589.804274 180.158349 
L 591.840151 184.783863 
L 593.876028 182.305861 
L 595.911905 175.202538 
L 597.947782 188.25295 
L 599.98366 174.706996 
L 602.019537 184.123076 
L 604.055414 184.453469 
L 606.091291 171.403058 
L 608.127168 174.046209 
L 610.163045 191.887186 
L 612.198923 178.176083 
L 614.2348 179.497561 
L 616.270677 172.724633 
L 618.306554 177.35005 
L 620.342431 169.751088 
L 622.378308 188.583247 
L 624.414186 173.220175 
L 626.450063 172.228994 
L 628.48594 180.984382 
L 630.521817 173.055027 
L 632.557694 170.907515 
L 634.593571 180.488743 
L 636.629449 174.541751 
L 638.665326 174.541751 
L 640.701203 172.559388 
L 642.73708 175.202538 
L 644.772957 175.202538 
L 646.808834 187.261769 
L 648.844712 176.028474 
L 650.880589 175.367784 
L 652.916466 176.028474 
L 656.98822 181.149531 
L 659.024097 177.019656 
L 661.059975 181.810318 
L 663.095852 173.385421 
L 667.167606 179.167168 
L 669.203483 188.087705 
L 671.23936 174.706996 
L 673.275238 191.556792 
L 675.311115 182.966648 
L 677.346992 176.19372 
L 679.382869 167.768822 
L 681.418746 181.64517 
L 683.454623 181.149531 
L 685.490501 172.724633 
L 687.526378 176.524114 
L 689.562255 172.889781 
L 691.598132 177.515295 
L 693.634009 165.290917 
L 695.669886 173.550569 
L 695.669886 173.550569 
" style="fill:none;stroke:#4daf4a;stroke-linecap:square;stroke-opacity:0.25098;stroke-width:1.5;"/>
   </g>
   <g id="patch_3">
    <path d="M 56.50625 337.159219 
L 56.50625 10.999219 
" style="fill:none;stroke:#000000;stroke-linecap:square;stroke-linejoin:miter;stroke-width:0.8;"/>
   </g>
   <g id="patch_4">
    <path d="M 726.10625 337.159219 
L 726.10625 10.999219 
" style="fill:none;stroke:#000000;stroke-linecap:square;stroke-linejoin:miter;stroke-width:0.8;"/>
   </g>
   <g id="patch_5">
    <path d="M 56.50625 337.159219 
L 726.10625 337.159219 
" style="fill:none;stroke:#000000;stroke-linecap:square;stroke-linejoin:miter;stroke-width:0.8;"/>
   </g>
   <g id="patch_6">
    <path d="M 56.50625 10.999219 
L 726.10625 10.999219 
" style="fill:none;stroke:#000000;stroke-linecap:square;stroke-linejoin:miter;stroke-width:0.8;"/>
   </g>
   <g id="legend_1">
    <g id="patch_7">
     <path d="M 63.50625 48.355469 
L 120.946875 48.355469 
Q 122.946875 48.355469 122.946875 46.355469 
L 122.946875 17.999219 
Q 122.946875 15.999219 120.946875 15.999219 
L 63.50625 15.999219 
Q 61.50625 15.999219 61.50625 17.999219 
L 61.50625 46.355469 
Q 61.50625 48.355469 63.50625 48.355469 
z
" style="fill:#ffffff;opacity:0.8;stroke:#cccccc;stroke-linejoin:miter;"/>
    </g>
    <g id="line2d_37">
     <path d="M 65.50625 24.097656 
L 85.50625 24.097656 
" style="fill:none;stroke:#377eb8;stroke-linecap:square;stroke-width:2;"/>
    </g>
    <g id="line2d_38"/>
    <g id="text_19">
     <!-- Train -->
     <defs>
      <path d="M -0.296875 72.90625 
L 61.375 72.90625 
L 61.375 64.59375 
L 35.5 64.59375 
L 35.5 0 
L 25.59375 0 
L 25.59375 64.59375 
L -0.296875 64.59375 
z
" id="DejaVuSans-84"/>
      <path d="M 9.421875 54.6875 
L 18.40625 54.6875 
L 18.40625 0 
L 9.421875 0 
z
M 9.421875 75.984375 
L 18.40625 75.984375 
L 18.40625 64.59375 
L 9.421875 64.59375 
z
" id="DejaVuSans-105"/>
      <path d="M 54.890625 33.015625 
L 54.890625 0 
L 45.90625 0 
L 45.90625 32.71875 
Q 45.90625 40.484375 42.875 44.328125 
Q 39.84375 48.1875 33.796875 48.1875 
Q 26.515625 48.1875 22.3125 43.546875 
Q 18.109375 38.921875 18.109375 30.90625 
L 18.109375 0 
L 9.078125 0 
L 9.078125 54.6875 
L 18.109375 54.6875 
L 18.109375 46.1875 
Q 21.34375 51.125 25.703125 53.5625 
Q 30.078125 56 35.796875 56 
Q 45.21875 56 50.046875 50.171875 
Q 54.890625 44.34375 54.890625 33.015625 
z
" id="DejaVuSans-110"/>
     </defs>
     <g transform="translate(93.50625 27.597656)scale(0.1 -0.1)">
      <use xlink:href="#DejaVuSans-84"/>
      <use x="60.865234" xlink:href="#DejaVuSans-114"/>
      <use x="101.978516" xlink:href="#DejaVuSans-97"/>
      <use x="163.257812" xlink:href="#DejaVuSans-105"/>
      <use x="191.041016" xlink:href="#DejaVuSans-110"/>
     </g>
    </g>
    <g id="line2d_39">
     <path d="M 65.50625 38.775781 
L 85.50625 38.775781 
" style="fill:none;stroke:#4daf4a;stroke-linecap:square;stroke-width:2;"/>
    </g>
    <g id="line2d_40"/>
    <g id="text_20">
     <!-- Test -->
     <defs>
      <path d="M 56.203125 29.59375 
L 56.203125 25.203125 
L 14.890625 25.203125 
Q 15.484375 15.921875 20.484375 11.0625 
Q 25.484375 6.203125 34.421875 6.203125 
Q 39.59375 6.203125 44.453125 7.46875 
Q 49.3125 8.734375 54.109375 11.28125 
L 54.109375 2.78125 
Q 49.265625 0.734375 44.1875 -0.34375 
Q 39.109375 -1.421875 33.890625 -1.421875 
Q 20.796875 -1.421875 13.15625 6.1875 
Q 5.515625 13.8125 5.515625 26.8125 
Q 5.515625 40.234375 12.765625 48.109375 
Q 20.015625 56 32.328125 56 
Q 43.359375 56 49.78125 48.890625 
Q 56.203125 41.796875 56.203125 29.59375 
z
M 47.21875 32.234375 
Q 47.125 39.59375 43.09375 43.984375 
Q 39.0625 48.390625 32.421875 48.390625 
Q 24.90625 48.390625 20.390625 44.140625 
Q 15.875 39.890625 15.1875 32.171875 
z
" id="DejaVuSans-101"/>
      <path d="M 44.28125 53.078125 
L 44.28125 44.578125 
Q 40.484375 46.53125 36.375 47.5 
Q 32.28125 48.484375 27.875 48.484375 
Q 21.1875 48.484375 17.84375 46.4375 
Q 14.5 44.390625 14.5 40.28125 
Q 14.5 37.15625 16.890625 35.375 
Q 19.28125 33.59375 26.515625 31.984375 
L 29.59375 31.296875 
Q 39.15625 29.25 43.1875 25.515625 
Q 47.21875 21.78125 47.21875 15.09375 
Q 47.21875 7.46875 41.1875 3.015625 
Q 35.15625 -1.421875 24.609375 -1.421875 
Q 20.21875 -1.421875 15.453125 -0.5625 
Q 10.6875 0.296875 5.421875 2 
L 5.421875 11.28125 
Q 10.40625 8.6875 15.234375 7.390625 
Q 20.0625 6.109375 24.8125 6.109375 
Q 31.15625 6.109375 34.5625 8.28125 
Q 37.984375 10.453125 37.984375 14.40625 
Q 37.984375 18.0625 35.515625 20.015625 
Q 33.0625 21.96875 24.703125 23.78125 
L 21.578125 24.515625 
Q 13.234375 26.265625 9.515625 29.90625 
Q 5.8125 33.546875 5.8125 39.890625 
Q 5.8125 47.609375 11.28125 51.796875 
Q 16.75 56 26.8125 56 
Q 31.78125 56 36.171875 55.265625 
Q 40.578125 54.546875 44.28125 53.078125 
z
" id="DejaVuSans-115"/>
      <path d="M 18.3125 70.21875 
L 18.3125 54.6875 
L 36.8125 54.6875 
L 36.8125 47.703125 
L 18.3125 47.703125 
L 18.3125 18.015625 
Q 18.3125 11.328125 20.140625 9.421875 
Q 21.96875 7.515625 27.59375 7.515625 
L 36.8125 7.515625 
L 36.8125 0 
L 27.59375 0 
Q 17.1875 0 13.234375 3.875 
Q 9.28125 7.765625 9.28125 18.015625 
L 9.28125 47.703125 
L 2.6875 47.703125 
L 2.6875 54.6875 
L 9.28125 54.6875 
L 9.28125 70.21875 
z
" id="DejaVuSans-116"/>
     </defs>
     <g transform="translate(93.50625 42.275781)scale(0.1 -0.1)">
      <use xlink:href="#DejaVuSans-84"/>
      <use x="60.818359" xlink:href="#DejaVuSans-101"/>
      <use x="122.341797" xlink:href="#DejaVuSans-115"/>
      <use x="174.441406" xlink:href="#DejaVuSans-116"/>
     </g>
    </g>
   </g>
  </g>
 </g>
 <defs>
  <clipPath id="pfa2e1506d0">
   <rect height="326.16" width="669.6" x="56.50625" y="10.999219"/>
  </clipPath>
 </defs>
</svg>
