<?xml version="1.0" encoding="utf-8" standalone="no"?>
<!DOCTYPE svg PUBLIC "-//W3C//DTD SVG 1.1//EN"
  "http://www.w3.org/Graphics/SVG/1.1/DTD/svg11.dtd">
<!-- Created with matplotlib (https://matplotlib.org/) -->
<svg height="374.715469pt" version="1.1" viewBox="0 0 733.30625 374.715469" width="733.30625pt" xmlns="http://www.w3.org/2000/svg" xmlns:xlink="http://www.w3.org/1999/xlink">
 <defs>
  <style type="text/css">
*{stroke-linecap:butt;stroke-linejoin:round;white-space:pre;}
  </style>
 </defs>
 <g id="figure_1">
  <g id="patch_1">
   <path d="M 0 374.715469 
L 733.30625 374.715469 
L 733.30625 0 
L 0 0 
z
" style="fill:#ffffff;"/>
  </g>
  <g id="axes_1">
   <g id="patch_2">
    <path d="M 56.50625 337.159219 
L 726.10625 337.159219 
L 726.10625 10.999219 
L 56.50625 10.999219 
z
" style="fill:#ffffff;"/>
   </g>
   <g id="matplotlib.axis_1">
    <g id="xtick_1">
     <g id="line2d_1">
      <path clip-path="url(#p2af3e14b61)" d="M 85.416981 337.159219 
L 85.416981 10.999219 
" style="fill:none;stroke:#b0b0b0;stroke-linecap:square;stroke-width:0.8;"/>
     </g>
     <g id="line2d_2">
      <defs>
       <path d="M 0 0 
L 0 3.5 
" id="m9166d93faa" style="stroke:#000000;stroke-width:0.8;"/>
      </defs>
      <g>
       <use style="stroke:#000000;stroke-width:0.8;" x="85.416981" xlink:href="#m9166d93faa" y="337.159219"/>
      </g>
     </g>
     <g id="text_1">
      <!-- 0 -->
      <defs>
       <path d="M 31.78125 66.40625 
Q 24.171875 66.40625 20.328125 58.90625 
Q 16.5 51.421875 16.5 36.375 
Q 16.5 21.390625 20.328125 13.890625 
Q 24.171875 6.390625 31.78125 6.390625 
Q 39.453125 6.390625 43.28125 13.890625 
Q 47.125 21.390625 47.125 36.375 
Q 47.125 51.421875 43.28125 58.90625 
Q 39.453125 66.40625 31.78125 66.40625 
z
M 31.78125 74.21875 
Q 44.046875 74.21875 50.515625 64.515625 
Q 56.984375 54.828125 56.984375 36.375 
Q 56.984375 17.96875 50.515625 8.265625 
Q 44.046875 -1.421875 31.78125 -1.421875 
Q 19.53125 -1.421875 13.0625 8.265625 
Q 6.59375 17.96875 6.59375 36.375 
Q 6.59375 54.828125 13.0625 64.515625 
Q 19.53125 74.21875 31.78125 74.21875 
z
" id="DejaVuSans-48"/>
      </defs>
      <g transform="translate(82.235731 351.757656)scale(0.1 -0.1)">
       <use xlink:href="#DejaVuSans-48"/>
      </g>
     </g>
    </g>
    <g id="xtick_2">
     <g id="line2d_3">
      <path clip-path="url(#p2af3e14b61)" d="M 161.698594 337.159219 
L 161.698594 10.999219 
" style="fill:none;stroke:#b0b0b0;stroke-linecap:square;stroke-width:0.8;"/>
     </g>
     <g id="line2d_4">
      <g>
       <use style="stroke:#000000;stroke-width:0.8;" x="161.698594" xlink:href="#m9166d93faa" y="337.159219"/>
      </g>
     </g>
     <g id="text_2">
      <!-- 50 -->
      <defs>
       <path d="M 10.796875 72.90625 
L 49.515625 72.90625 
L 49.515625 64.59375 
L 19.828125 64.59375 
L 19.828125 46.734375 
Q 21.96875 47.46875 24.109375 47.828125 
Q 26.265625 48.1875 28.421875 48.1875 
Q 40.625 48.1875 47.75 41.5 
Q 54.890625 34.8125 54.890625 23.390625 
Q 54.890625 11.625 47.5625 5.09375 
Q 40.234375 -1.421875 26.90625 -1.421875 
Q 22.3125 -1.421875 17.546875 -0.640625 
Q 12.796875 0.140625 7.71875 1.703125 
L 7.71875 11.625 
Q 12.109375 9.234375 16.796875 8.0625 
Q 21.484375 6.890625 26.703125 6.890625 
Q 35.15625 6.890625 40.078125 11.328125 
Q 45.015625 15.765625 45.015625 23.390625 
Q 45.015625 31 40.078125 35.4375 
Q 35.15625 39.890625 26.703125 39.890625 
Q 22.75 39.890625 18.8125 39.015625 
Q 14.890625 38.140625 10.796875 36.28125 
z
" id="DejaVuSans-53"/>
      </defs>
      <g transform="translate(155.336094 351.757656)scale(0.1 -0.1)">
       <use xlink:href="#DejaVuSans-53"/>
       <use x="63.623047" xlink:href="#DejaVuSans-48"/>
      </g>
     </g>
    </g>
    <g id="xtick_3">
     <g id="line2d_5">
      <path clip-path="url(#p2af3e14b61)" d="M 237.980208 337.159219 
L 237.980208 10.999219 
" style="fill:none;stroke:#b0b0b0;stroke-linecap:square;stroke-width:0.8;"/>
     </g>
     <g id="line2d_6">
      <g>
       <use style="stroke:#000000;stroke-width:0.8;" x="237.980208" xlink:href="#m9166d93faa" y="337.159219"/>
      </g>
     </g>
     <g id="text_3">
      <!-- 100 -->
      <defs>
       <path d="M 12.40625 8.296875 
L 28.515625 8.296875 
L 28.515625 63.921875 
L 10.984375 60.40625 
L 10.984375 69.390625 
L 28.421875 72.90625 
L 38.28125 72.90625 
L 38.28125 8.296875 
L 54.390625 8.296875 
L 54.390625 0 
L 12.40625 0 
z
" id="DejaVuSans-49"/>
      </defs>
      <g transform="translate(228.436458 351.757656)scale(0.1 -0.1)">
       <use xlink:href="#DejaVuSans-49"/>
       <use x="63.623047" xlink:href="#DejaVuSans-48"/>
       <use x="127.246094" xlink:href="#DejaVuSans-48"/>
      </g>
     </g>
    </g>
    <g id="xtick_4">
     <g id="line2d_7">
      <path clip-path="url(#p2af3e14b61)" d="M 314.261821 337.159219 
L 314.261821 10.999219 
" style="fill:none;stroke:#b0b0b0;stroke-linecap:square;stroke-width:0.8;"/>
     </g>
     <g id="line2d_8">
      <g>
       <use style="stroke:#000000;stroke-width:0.8;" x="314.261821" xlink:href="#m9166d93faa" y="337.159219"/>
      </g>
     </g>
     <g id="text_4">
      <!-- 150 -->
      <g transform="translate(304.718071 351.757656)scale(0.1 -0.1)">
       <use xlink:href="#DejaVuSans-49"/>
       <use x="63.623047" xlink:href="#DejaVuSans-53"/>
       <use x="127.246094" xlink:href="#DejaVuSans-48"/>
      </g>
     </g>
    </g>
    <g id="xtick_5">
     <g id="line2d_9">
      <path clip-path="url(#p2af3e14b61)" d="M 390.543434 337.159219 
L 390.543434 10.999219 
" style="fill:none;stroke:#b0b0b0;stroke-linecap:square;stroke-width:0.8;"/>
     </g>
     <g id="line2d_10">
      <g>
       <use style="stroke:#000000;stroke-width:0.8;" x="390.543434" xlink:href="#m9166d93faa" y="337.159219"/>
      </g>
     </g>
     <g id="text_5">
      <!-- 200 -->
      <defs>
       <path d="M 19.1875 8.296875 
L 53.609375 8.296875 
L 53.609375 0 
L 7.328125 0 
L 7.328125 8.296875 
Q 12.9375 14.109375 22.625 23.890625 
Q 32.328125 33.6875 34.8125 36.53125 
Q 39.546875 41.84375 41.421875 45.53125 
Q 43.3125 49.21875 43.3125 52.78125 
Q 43.3125 58.59375 39.234375 62.25 
Q 35.15625 65.921875 28.609375 65.921875 
Q 23.96875 65.921875 18.8125 64.3125 
Q 13.671875 62.703125 7.8125 59.421875 
L 7.8125 69.390625 
Q 13.765625 71.78125 18.9375 73 
Q 24.125 74.21875 28.421875 74.21875 
Q 39.75 74.21875 46.484375 68.546875 
Q 53.21875 62.890625 53.21875 53.421875 
Q 53.21875 48.921875 51.53125 44.890625 
Q 49.859375 40.875 45.40625 35.40625 
Q 44.1875 33.984375 37.640625 27.21875 
Q 31.109375 20.453125 19.1875 8.296875 
z
" id="DejaVuSans-50"/>
      </defs>
      <g transform="translate(380.999684 351.757656)scale(0.1 -0.1)">
       <use xlink:href="#DejaVuSans-50"/>
       <use x="63.623047" xlink:href="#DejaVuSans-48"/>
       <use x="127.246094" xlink:href="#DejaVuSans-48"/>
      </g>
     </g>
    </g>
    <g id="xtick_6">
     <g id="line2d_11">
      <path clip-path="url(#p2af3e14b61)" d="M 466.825047 337.159219 
L 466.825047 10.999219 
" style="fill:none;stroke:#b0b0b0;stroke-linecap:square;stroke-width:0.8;"/>
     </g>
     <g id="line2d_12">
      <g>
       <use style="stroke:#000000;stroke-width:0.8;" x="466.825047" xlink:href="#m9166d93faa" y="337.159219"/>
      </g>
     </g>
     <g id="text_6">
      <!-- 250 -->
      <g transform="translate(457.281297 351.757656)scale(0.1 -0.1)">
       <use xlink:href="#DejaVuSans-50"/>
       <use x="63.623047" xlink:href="#DejaVuSans-53"/>
       <use x="127.246094" xlink:href="#DejaVuSans-48"/>
      </g>
     </g>
    </g>
    <g id="xtick_7">
     <g id="line2d_13">
      <path clip-path="url(#p2af3e14b61)" d="M 543.10666 337.159219 
L 543.10666 10.999219 
" style="fill:none;stroke:#b0b0b0;stroke-linecap:square;stroke-width:0.8;"/>
     </g>
     <g id="line2d_14">
      <g>
       <use style="stroke:#000000;stroke-width:0.8;" x="543.10666" xlink:href="#m9166d93faa" y="337.159219"/>
      </g>
     </g>
     <g id="text_7">
      <!-- 300 -->
      <defs>
       <path d="M 40.578125 39.3125 
Q 47.65625 37.796875 51.625 33 
Q 55.609375 28.21875 55.609375 21.1875 
Q 55.609375 10.40625 48.1875 4.484375 
Q 40.765625 -1.421875 27.09375 -1.421875 
Q 22.515625 -1.421875 17.65625 -0.515625 
Q 12.796875 0.390625 7.625 2.203125 
L 7.625 11.71875 
Q 11.71875 9.328125 16.59375 8.109375 
Q 21.484375 6.890625 26.8125 6.890625 
Q 36.078125 6.890625 40.9375 10.546875 
Q 45.796875 14.203125 45.796875 21.1875 
Q 45.796875 27.640625 41.28125 31.265625 
Q 36.765625 34.90625 28.71875 34.90625 
L 20.21875 34.90625 
L 20.21875 43.015625 
L 29.109375 43.015625 
Q 36.375 43.015625 40.234375 45.921875 
Q 44.09375 48.828125 44.09375 54.296875 
Q 44.09375 59.90625 40.109375 62.90625 
Q 36.140625 65.921875 28.71875 65.921875 
Q 24.65625 65.921875 20.015625 65.03125 
Q 15.375 64.15625 9.8125 62.3125 
L 9.8125 71.09375 
Q 15.4375 72.65625 20.34375 73.4375 
Q 25.25 74.21875 29.59375 74.21875 
Q 40.828125 74.21875 47.359375 69.109375 
Q 53.90625 64.015625 53.90625 55.328125 
Q 53.90625 49.265625 50.4375 45.09375 
Q 46.96875 40.921875 40.578125 39.3125 
z
" id="DejaVuSans-51"/>
      </defs>
      <g transform="translate(533.56291 351.757656)scale(0.1 -0.1)">
       <use xlink:href="#DejaVuSans-51"/>
       <use x="63.623047" xlink:href="#DejaVuSans-48"/>
       <use x="127.246094" xlink:href="#DejaVuSans-48"/>
      </g>
     </g>
    </g>
    <g id="xtick_8">
     <g id="line2d_15">
      <path clip-path="url(#p2af3e14b61)" d="M 619.388273 337.159219 
L 619.388273 10.999219 
" style="fill:none;stroke:#b0b0b0;stroke-linecap:square;stroke-width:0.8;"/>
     </g>
     <g id="line2d_16">
      <g>
       <use style="stroke:#000000;stroke-width:0.8;" x="619.388273" xlink:href="#m9166d93faa" y="337.159219"/>
      </g>
     </g>
     <g id="text_8">
      <!-- 350 -->
      <g transform="translate(609.844523 351.757656)scale(0.1 -0.1)">
       <use xlink:href="#DejaVuSans-51"/>
       <use x="63.623047" xlink:href="#DejaVuSans-53"/>
       <use x="127.246094" xlink:href="#DejaVuSans-48"/>
      </g>
     </g>
    </g>
    <g id="xtick_9">
     <g id="line2d_17">
      <path clip-path="url(#p2af3e14b61)" d="M 695.669886 337.159219 
L 695.669886 10.999219 
" style="fill:none;stroke:#b0b0b0;stroke-linecap:square;stroke-width:0.8;"/>
     </g>
     <g id="line2d_18">
      <g>
       <use style="stroke:#000000;stroke-width:0.8;" x="695.669886" xlink:href="#m9166d93faa" y="337.159219"/>
      </g>
     </g>
     <g id="text_9">
      <!-- 400 -->
      <defs>
       <path d="M 37.796875 64.3125 
L 12.890625 25.390625 
L 37.796875 25.390625 
z
M 35.203125 72.90625 
L 47.609375 72.90625 
L 47.609375 25.390625 
L 58.015625 25.390625 
L 58.015625 17.1875 
L 47.609375 17.1875 
L 47.609375 0 
L 37.796875 0 
L 37.796875 17.1875 
L 4.890625 17.1875 
L 4.890625 26.703125 
z
" id="DejaVuSans-52"/>
      </defs>
      <g transform="translate(686.126136 351.757656)scale(0.1 -0.1)">
       <use xlink:href="#DejaVuSans-52"/>
       <use x="63.623047" xlink:href="#DejaVuSans-48"/>
       <use x="127.246094" xlink:href="#DejaVuSans-48"/>
      </g>
     </g>
    </g>
    <g id="text_10">
     <!-- Epoch -->
     <defs>
      <path d="M 9.8125 72.90625 
L 55.90625 72.90625 
L 55.90625 64.59375 
L 19.671875 64.59375 
L 19.671875 43.015625 
L 54.390625 43.015625 
L 54.390625 34.71875 
L 19.671875 34.71875 
L 19.671875 8.296875 
L 56.78125 8.296875 
L 56.78125 0 
L 9.8125 0 
z
" id="DejaVuSans-69"/>
      <path d="M 18.109375 8.203125 
L 18.109375 -20.796875 
L 9.078125 -20.796875 
L 9.078125 54.6875 
L 18.109375 54.6875 
L 18.109375 46.390625 
Q 20.953125 51.265625 25.265625 53.625 
Q 29.59375 56 35.59375 56 
Q 45.5625 56 51.78125 48.09375 
Q 58.015625 40.1875 58.015625 27.296875 
Q 58.015625 14.40625 51.78125 6.484375 
Q 45.5625 -1.421875 35.59375 -1.421875 
Q 29.59375 -1.421875 25.265625 0.953125 
Q 20.953125 3.328125 18.109375 8.203125 
z
M 48.6875 27.296875 
Q 48.6875 37.203125 44.609375 42.84375 
Q 40.53125 48.484375 33.40625 48.484375 
Q 26.265625 48.484375 22.1875 42.84375 
Q 18.109375 37.203125 18.109375 27.296875 
Q 18.109375 17.390625 22.1875 11.75 
Q 26.265625 6.109375 33.40625 6.109375 
Q 40.53125 6.109375 44.609375 11.75 
Q 48.6875 17.390625 48.6875 27.296875 
z
" id="DejaVuSans-112"/>
      <path d="M 30.609375 48.390625 
Q 23.390625 48.390625 19.1875 42.75 
Q 14.984375 37.109375 14.984375 27.296875 
Q 14.984375 17.484375 19.15625 11.84375 
Q 23.34375 6.203125 30.609375 6.203125 
Q 37.796875 6.203125 41.984375 11.859375 
Q 46.1875 17.53125 46.1875 27.296875 
Q 46.1875 37.015625 41.984375 42.703125 
Q 37.796875 48.390625 30.609375 48.390625 
z
M 30.609375 56 
Q 42.328125 56 49.015625 48.375 
Q 55.71875 40.765625 55.71875 27.296875 
Q 55.71875 13.875 49.015625 6.21875 
Q 42.328125 -1.421875 30.609375 -1.421875 
Q 18.84375 -1.421875 12.171875 6.21875 
Q 5.515625 13.875 5.515625 27.296875 
Q 5.515625 40.765625 12.171875 48.375 
Q 18.84375 56 30.609375 56 
z
" id="DejaVuSans-111"/>
      <path d="M 48.78125 52.59375 
L 48.78125 44.1875 
Q 44.96875 46.296875 41.140625 47.34375 
Q 37.3125 48.390625 33.40625 48.390625 
Q 24.65625 48.390625 19.8125 42.84375 
Q 14.984375 37.3125 14.984375 27.296875 
Q 14.984375 17.28125 19.8125 11.734375 
Q 24.65625 6.203125 33.40625 6.203125 
Q 37.3125 6.203125 41.140625 7.25 
Q 44.96875 8.296875 48.78125 10.40625 
L 48.78125 2.09375 
Q 45.015625 0.34375 40.984375 -0.53125 
Q 36.96875 -1.421875 32.421875 -1.421875 
Q 20.0625 -1.421875 12.78125 6.34375 
Q 5.515625 14.109375 5.515625 27.296875 
Q 5.515625 40.671875 12.859375 48.328125 
Q 20.21875 56 33.015625 56 
Q 37.15625 56 41.109375 55.140625 
Q 45.0625 54.296875 48.78125 52.59375 
z
" id="DejaVuSans-99"/>
      <path d="M 54.890625 33.015625 
L 54.890625 0 
L 45.90625 0 
L 45.90625 32.71875 
Q 45.90625 40.484375 42.875 44.328125 
Q 39.84375 48.1875 33.796875 48.1875 
Q 26.515625 48.1875 22.3125 43.546875 
Q 18.109375 38.921875 18.109375 30.90625 
L 18.109375 0 
L 9.078125 0 
L 9.078125 75.984375 
L 18.109375 75.984375 
L 18.109375 46.1875 
Q 21.34375 51.125 25.703125 53.5625 
Q 30.078125 56 35.796875 56 
Q 45.21875 56 50.046875 50.171875 
Q 54.890625 44.34375 54.890625 33.015625 
z
" id="DejaVuSans-104"/>
     </defs>
     <g transform="translate(375.995313 365.435781)scale(0.1 -0.1)">
      <use xlink:href="#DejaVuSans-69"/>
      <use x="63.183594" xlink:href="#DejaVuSans-112"/>
      <use x="126.660156" xlink:href="#DejaVuSans-111"/>
      <use x="187.841797" xlink:href="#DejaVuSans-99"/>
      <use x="242.822266" xlink:href="#DejaVuSans-104"/>
     </g>
    </g>
   </g>
   <g id="matplotlib.axis_2">
    <g id="ytick_1">
     <g id="line2d_19">
      <path clip-path="url(#p2af3e14b61)" d="M 56.50625 337.159219 
L 726.10625 337.159219 
" style="fill:none;stroke:#b0b0b0;stroke-linecap:square;stroke-width:0.8;"/>
     </g>
     <g id="line2d_20">
      <defs>
       <path d="M 0 0 
L -3.5 0 
" id="mbdaae0f33c" style="stroke:#000000;stroke-width:0.8;"/>
      </defs>
      <g>
       <use style="stroke:#000000;stroke-width:0.8;" x="56.50625" xlink:href="#mbdaae0f33c" y="337.159219"/>
      </g>
     </g>
     <g id="text_11">
      <!-- 0.800 -->
      <defs>
       <path d="M 10.6875 12.40625 
L 21 12.40625 
L 21 0 
L 10.6875 0 
z
" id="DejaVuSans-46"/>
       <path d="M 31.78125 34.625 
Q 24.75 34.625 20.71875 30.859375 
Q 16.703125 27.09375 16.703125 20.515625 
Q 16.703125 13.921875 20.71875 10.15625 
Q 24.75 6.390625 31.78125 6.390625 
Q 38.8125 6.390625 42.859375 10.171875 
Q 46.921875 13.96875 46.921875 20.515625 
Q 46.921875 27.09375 42.890625 30.859375 
Q 38.875 34.625 31.78125 34.625 
z
M 21.921875 38.8125 
Q 15.578125 40.375 12.03125 44.71875 
Q 8.5 49.078125 8.5 55.328125 
Q 8.5 64.0625 14.71875 69.140625 
Q 20.953125 74.21875 31.78125 74.21875 
Q 42.671875 74.21875 48.875 69.140625 
Q 55.078125 64.0625 55.078125 55.328125 
Q 55.078125 49.078125 51.53125 44.71875 
Q 48 40.375 41.703125 38.8125 
Q 48.828125 37.15625 52.796875 32.3125 
Q 56.78125 27.484375 56.78125 20.515625 
Q 56.78125 9.90625 50.3125 4.234375 
Q 43.84375 -1.421875 31.78125 -1.421875 
Q 19.734375 -1.421875 13.25 4.234375 
Q 6.78125 9.90625 6.78125 20.515625 
Q 6.78125 27.484375 10.78125 32.3125 
Q 14.796875 37.15625 21.921875 38.8125 
z
M 18.3125 54.390625 
Q 18.3125 48.734375 21.84375 45.5625 
Q 25.390625 42.390625 31.78125 42.390625 
Q 38.140625 42.390625 41.71875 45.5625 
Q 45.3125 48.734375 45.3125 54.390625 
Q 45.3125 60.0625 41.71875 63.234375 
Q 38.140625 66.40625 31.78125 66.40625 
Q 25.390625 66.40625 21.84375 63.234375 
Q 18.3125 60.0625 18.3125 54.390625 
z
" id="DejaVuSans-56"/>
      </defs>
      <g transform="translate(20.878125 340.958438)scale(0.1 -0.1)">
       <use xlink:href="#DejaVuSans-48"/>
       <use x="63.623047" xlink:href="#DejaVuSans-46"/>
       <use x="95.410156" xlink:href="#DejaVuSans-56"/>
       <use x="159.033203" xlink:href="#DejaVuSans-48"/>
       <use x="222.65625" xlink:href="#DejaVuSans-48"/>
      </g>
     </g>
    </g>
    <g id="ytick_2">
     <g id="line2d_21">
      <path clip-path="url(#p2af3e14b61)" d="M 56.50625 296.389219 
L 726.10625 296.389219 
" style="fill:none;stroke:#b0b0b0;stroke-linecap:square;stroke-width:0.8;"/>
     </g>
     <g id="line2d_22">
      <g>
       <use style="stroke:#000000;stroke-width:0.8;" x="56.50625" xlink:href="#mbdaae0f33c" y="296.389219"/>
      </g>
     </g>
     <g id="text_12">
      <!-- 0.825 -->
      <g transform="translate(20.878125 300.188437)scale(0.1 -0.1)">
       <use xlink:href="#DejaVuSans-48"/>
       <use x="63.623047" xlink:href="#DejaVuSans-46"/>
       <use x="95.410156" xlink:href="#DejaVuSans-56"/>
       <use x="159.033203" xlink:href="#DejaVuSans-50"/>
       <use x="222.65625" xlink:href="#DejaVuSans-53"/>
      </g>
     </g>
    </g>
    <g id="ytick_3">
     <g id="line2d_23">
      <path clip-path="url(#p2af3e14b61)" d="M 56.50625 255.619219 
L 726.10625 255.619219 
" style="fill:none;stroke:#b0b0b0;stroke-linecap:square;stroke-width:0.8;"/>
     </g>
     <g id="line2d_24">
      <g>
       <use style="stroke:#000000;stroke-width:0.8;" x="56.50625" xlink:href="#mbdaae0f33c" y="255.619219"/>
      </g>
     </g>
     <g id="text_13">
      <!-- 0.850 -->
      <g transform="translate(20.878125 259.418437)scale(0.1 -0.1)">
       <use xlink:href="#DejaVuSans-48"/>
       <use x="63.623047" xlink:href="#DejaVuSans-46"/>
       <use x="95.410156" xlink:href="#DejaVuSans-56"/>
       <use x="159.033203" xlink:href="#DejaVuSans-53"/>
       <use x="222.65625" xlink:href="#DejaVuSans-48"/>
      </g>
     </g>
    </g>
    <g id="ytick_4">
     <g id="line2d_25">
      <path clip-path="url(#p2af3e14b61)" d="M 56.50625 214.849219 
L 726.10625 214.849219 
" style="fill:none;stroke:#b0b0b0;stroke-linecap:square;stroke-width:0.8;"/>
     </g>
     <g id="line2d_26">
      <g>
       <use style="stroke:#000000;stroke-width:0.8;" x="56.50625" xlink:href="#mbdaae0f33c" y="214.849219"/>
      </g>
     </g>
     <g id="text_14">
      <!-- 0.875 -->
      <defs>
       <path d="M 8.203125 72.90625 
L 55.078125 72.90625 
L 55.078125 68.703125 
L 28.609375 0 
L 18.3125 0 
L 43.21875 64.59375 
L 8.203125 64.59375 
z
" id="DejaVuSans-55"/>
      </defs>
      <g transform="translate(20.878125 218.648438)scale(0.1 -0.1)">
       <use xlink:href="#DejaVuSans-48"/>
       <use x="63.623047" xlink:href="#DejaVuSans-46"/>
       <use x="95.410156" xlink:href="#DejaVuSans-56"/>
       <use x="159.033203" xlink:href="#DejaVuSans-55"/>
       <use x="222.65625" xlink:href="#DejaVuSans-53"/>
      </g>
     </g>
    </g>
    <g id="ytick_5">
     <g id="line2d_27">
      <path clip-path="url(#p2af3e14b61)" d="M 56.50625 174.079219 
L 726.10625 174.079219 
" style="fill:none;stroke:#b0b0b0;stroke-linecap:square;stroke-width:0.8;"/>
     </g>
     <g id="line2d_28">
      <g>
       <use style="stroke:#000000;stroke-width:0.8;" x="56.50625" xlink:href="#mbdaae0f33c" y="174.079219"/>
      </g>
     </g>
     <g id="text_15">
      <!-- 0.900 -->
      <defs>
       <path d="M 10.984375 1.515625 
L 10.984375 10.5 
Q 14.703125 8.734375 18.5 7.8125 
Q 22.3125 6.890625 25.984375 6.890625 
Q 35.75 6.890625 40.890625 13.453125 
Q 46.046875 20.015625 46.78125 33.40625 
Q 43.953125 29.203125 39.59375 26.953125 
Q 35.25 24.703125 29.984375 24.703125 
Q 19.046875 24.703125 12.671875 31.3125 
Q 6.296875 37.9375 6.296875 49.421875 
Q 6.296875 60.640625 12.9375 67.421875 
Q 19.578125 74.21875 30.609375 74.21875 
Q 43.265625 74.21875 49.921875 64.515625 
Q 56.59375 54.828125 56.59375 36.375 
Q 56.59375 19.140625 48.40625 8.859375 
Q 40.234375 -1.421875 26.421875 -1.421875 
Q 22.703125 -1.421875 18.890625 -0.6875 
Q 15.09375 0.046875 10.984375 1.515625 
z
M 30.609375 32.421875 
Q 37.25 32.421875 41.125 36.953125 
Q 45.015625 41.5 45.015625 49.421875 
Q 45.015625 57.28125 41.125 61.84375 
Q 37.25 66.40625 30.609375 66.40625 
Q 23.96875 66.40625 20.09375 61.84375 
Q 16.21875 57.28125 16.21875 49.421875 
Q 16.21875 41.5 20.09375 36.953125 
Q 23.96875 32.421875 30.609375 32.421875 
z
" id="DejaVuSans-57"/>
      </defs>
      <g transform="translate(20.878125 177.878437)scale(0.1 -0.1)">
       <use xlink:href="#DejaVuSans-48"/>
       <use x="63.623047" xlink:href="#DejaVuSans-46"/>
       <use x="95.410156" xlink:href="#DejaVuSans-57"/>
       <use x="159.033203" xlink:href="#DejaVuSans-48"/>
       <use x="222.65625" xlink:href="#DejaVuSans-48"/>
      </g>
     </g>
    </g>
    <g id="ytick_6">
     <g id="line2d_29">
      <path clip-path="url(#p2af3e14b61)" d="M 56.50625 133.309219 
L 726.10625 133.309219 
" style="fill:none;stroke:#b0b0b0;stroke-linecap:square;stroke-width:0.8;"/>
     </g>
     <g id="line2d_30">
      <g>
       <use style="stroke:#000000;stroke-width:0.8;" x="56.50625" xlink:href="#mbdaae0f33c" y="133.309219"/>
      </g>
     </g>
     <g id="text_16">
      <!-- 0.925 -->
      <g transform="translate(20.878125 137.108437)scale(0.1 -0.1)">
       <use xlink:href="#DejaVuSans-48"/>
       <use x="63.623047" xlink:href="#DejaVuSans-46"/>
       <use x="95.410156" xlink:href="#DejaVuSans-57"/>
       <use x="159.033203" xlink:href="#DejaVuSans-50"/>
       <use x="222.65625" xlink:href="#DejaVuSans-53"/>
      </g>
     </g>
    </g>
    <g id="ytick_7">
     <g id="line2d_31">
      <path clip-path="url(#p2af3e14b61)" d="M 56.50625 92.539219 
L 726.10625 92.539219 
" style="fill:none;stroke:#b0b0b0;stroke-linecap:square;stroke-width:0.8;"/>
     </g>
     <g id="line2d_32">
      <g>
       <use style="stroke:#000000;stroke-width:0.8;" x="56.50625" xlink:href="#mbdaae0f33c" y="92.539219"/>
      </g>
     </g>
     <g id="text_17">
      <!-- 0.950 -->
      <g transform="translate(20.878125 96.338437)scale(0.1 -0.1)">
       <use xlink:href="#DejaVuSans-48"/>
       <use x="63.623047" xlink:href="#DejaVuSans-46"/>
       <use x="95.410156" xlink:href="#DejaVuSans-57"/>
       <use x="159.033203" xlink:href="#DejaVuSans-53"/>
       <use x="222.65625" xlink:href="#DejaVuSans-48"/>
      </g>
     </g>
    </g>
    <g id="ytick_8">
     <g id="line2d_33">
      <path clip-path="url(#p2af3e14b61)" d="M 56.50625 51.769219 
L 726.10625 51.769219 
" style="fill:none;stroke:#b0b0b0;stroke-linecap:square;stroke-width:0.8;"/>
     </g>
     <g id="line2d_34">
      <g>
       <use style="stroke:#000000;stroke-width:0.8;" x="56.50625" xlink:href="#mbdaae0f33c" y="51.769219"/>
      </g>
     </g>
     <g id="text_18">
      <!-- 0.975 -->
      <g transform="translate(20.878125 55.568437)scale(0.1 -0.1)">
       <use xlink:href="#DejaVuSans-48"/>
       <use x="63.623047" xlink:href="#DejaVuSans-46"/>
       <use x="95.410156" xlink:href="#DejaVuSans-57"/>
       <use x="159.033203" xlink:href="#DejaVuSans-55"/>
       <use x="222.65625" xlink:href="#DejaVuSans-53"/>
      </g>
     </g>
    </g>
    <g id="ytick_9">
     <g id="line2d_35">
      <path clip-path="url(#p2af3e14b61)" d="M 56.50625 10.999219 
L 726.10625 10.999219 
" style="fill:none;stroke:#b0b0b0;stroke-linecap:square;stroke-width:0.8;"/>
     </g>
     <g id="line2d_36">
      <g>
       <use style="stroke:#000000;stroke-width:0.8;" x="56.50625" xlink:href="#mbdaae0f33c" y="10.999219"/>
      </g>
     </g>
     <g id="text_19">
      <!-- 1.000 -->
      <g transform="translate(20.878125 14.798437)scale(0.1 -0.1)">
       <use xlink:href="#DejaVuSans-49"/>
       <use x="63.623047" xlink:href="#DejaVuSans-46"/>
       <use x="95.410156" xlink:href="#DejaVuSans-48"/>
       <use x="159.033203" xlink:href="#DejaVuSans-48"/>
       <use x="222.65625" xlink:href="#DejaVuSans-48"/>
      </g>
     </g>
    </g>
    <g id="text_20">
     <!-- Accuracy -->
     <defs>
      <path d="M 34.1875 63.1875 
L 20.796875 26.90625 
L 47.609375 26.90625 
z
M 28.609375 72.90625 
L 39.796875 72.90625 
L 67.578125 0 
L 57.328125 0 
L 50.6875 18.703125 
L 17.828125 18.703125 
L 11.1875 0 
L 0.78125 0 
z
" id="DejaVuSans-65"/>
      <path d="M 8.5 21.578125 
L 8.5 54.6875 
L 17.484375 54.6875 
L 17.484375 21.921875 
Q 17.484375 14.15625 20.5 10.265625 
Q 23.53125 6.390625 29.59375 6.390625 
Q 36.859375 6.390625 41.078125 11.03125 
Q 45.3125 15.671875 45.3125 23.6875 
L 45.3125 54.6875 
L 54.296875 54.6875 
L 54.296875 0 
L 45.3125 0 
L 45.3125 8.40625 
Q 42.046875 3.421875 37.71875 1 
Q 33.40625 -1.421875 27.6875 -1.421875 
Q 18.265625 -1.421875 13.375 4.4375 
Q 8.5 10.296875 8.5 21.578125 
z
M 31.109375 56 
z
" id="DejaVuSans-117"/>
      <path d="M 41.109375 46.296875 
Q 39.59375 47.171875 37.8125 47.578125 
Q 36.03125 48 33.890625 48 
Q 26.265625 48 22.1875 43.046875 
Q 18.109375 38.09375 18.109375 28.8125 
L 18.109375 0 
L 9.078125 0 
L 9.078125 54.6875 
L 18.109375 54.6875 
L 18.109375 46.1875 
Q 20.953125 51.171875 25.484375 53.578125 
Q 30.03125 56 36.53125 56 
Q 37.453125 56 38.578125 55.875 
Q 39.703125 55.765625 41.0625 55.515625 
z
" id="DejaVuSans-114"/>
      <path d="M 34.28125 27.484375 
Q 23.390625 27.484375 19.1875 25 
Q 14.984375 22.515625 14.984375 16.5 
Q 14.984375 11.71875 18.140625 8.90625 
Q 21.296875 6.109375 26.703125 6.109375 
Q 34.1875 6.109375 38.703125 11.40625 
Q 43.21875 16.703125 43.21875 25.484375 
L 43.21875 27.484375 
z
M 52.203125 31.203125 
L 52.203125 0 
L 43.21875 0 
L 43.21875 8.296875 
Q 40.140625 3.328125 35.546875 0.953125 
Q 30.953125 -1.421875 24.3125 -1.421875 
Q 15.921875 -1.421875 10.953125 3.296875 
Q 6 8.015625 6 15.921875 
Q 6 25.140625 12.171875 29.828125 
Q 18.359375 34.515625 30.609375 34.515625 
L 43.21875 34.515625 
L 43.21875 35.40625 
Q 43.21875 41.609375 39.140625 45 
Q 35.0625 48.390625 27.6875 48.390625 
Q 23 48.390625 18.546875 47.265625 
Q 14.109375 46.140625 10.015625 43.890625 
L 10.015625 52.203125 
Q 14.9375 54.109375 19.578125 55.046875 
Q 24.21875 56 28.609375 56 
Q 40.484375 56 46.34375 49.84375 
Q 52.203125 43.703125 52.203125 31.203125 
z
" id="DejaVuSans-97"/>
      <path d="M 32.171875 -5.078125 
Q 28.375 -14.84375 24.75 -17.8125 
Q 21.140625 -20.796875 15.09375 -20.796875 
L 7.90625 -20.796875 
L 7.90625 -13.28125 
L 13.1875 -13.28125 
Q 16.890625 -13.28125 18.9375 -11.515625 
Q 21 -9.765625 23.484375 -3.21875 
L 25.09375 0.875 
L 2.984375 54.6875 
L 12.5 54.6875 
L 29.59375 11.921875 
L 46.6875 54.6875 
L 56.203125 54.6875 
z
" id="DejaVuSans-121"/>
     </defs>
     <g transform="translate(14.798437 196.994063)rotate(-90)scale(0.1 -0.1)">
      <use xlink:href="#DejaVuSans-65"/>
      <use x="68.392578" xlink:href="#DejaVuSans-99"/>
      <use x="123.373047" xlink:href="#DejaVuSans-99"/>
      <use x="178.353516" xlink:href="#DejaVuSans-117"/>
      <use x="241.732422" xlink:href="#DejaVuSans-114"/>
      <use x="282.845703" xlink:href="#DejaVuSans-97"/>
      <use x="344.125" xlink:href="#DejaVuSans-99"/>
      <use x="399.105469" xlink:href="#DejaVuSans-121"/>
     </g>
    </g>
   </g>
   <g id="line2d_37">
    <path clip-path="url(#p2af3e14b61)" d="M 112.403655 375.715469 
L 113.753424 366.749899 
L 114.972098 359.722233 
L 116.190771 353.575249 
L 117.409444 348.201066 
L 119.237454 341.352803 
L 121.065464 335.63651 
L 122.893474 330.688087 
L 127.15883 320.173191 
L 148.485611 267.916828 
L 153.969641 255.296921 
L 158.844334 244.666356 
L 163.10969 235.927091 
L 166.765709 228.91365 
L 170.421729 222.337469 
L 174.077749 216.179114 
L 177.733768 210.419152 
L 181.389788 205.038149 
L 185.045808 200.01667 
L 188.701827 195.335282 
L 192.357847 190.974552 
L 196.013867 186.915044 
L 200.279223 182.533738 
L 204.544579 178.505118 
L 208.809936 174.798324 
L 213.075292 171.382495 
L 217.340648 168.226772 
L 222.215341 164.89914 
L 227.69937 161.4561 
L 233.792736 157.926801 
L 241.104776 153.980883 
L 249.635488 149.644336 
L 258.166201 145.569453 
L 266.696913 141.744575 
L 275.227626 138.158041 
L 284.367675 134.566566 
L 293.507724 131.220973 
L 302.647773 128.10692 
L 312.397159 125.024312 
L 322.146545 122.171421 
L 332.505267 119.372457 
L 343.473326 116.64689 
L 355.050722 114.008639 
L 367.237454 111.46493 
L 380.642859 108.903418 
L 395.266938 106.340173 
L 411.10969 103.786733 
L 427.561778 101.36269 
L 444.623203 99.078273 
L 462.293965 96.941211 
L 480.574063 94.956421 
L 500.072835 93.070108 
L 520.180943 91.348988 
L 542.117061 89.699716 
L 565.881189 88.142501 
L 592.691999 86.618046 
L 624.377503 85.050148 
L 671.296422 82.97947 
L 695.669886 81.923541 
L 695.669886 81.923541 
" style="fill:none;stroke:#377eb8;stroke-linecap:square;stroke-width:2;"/>
   </g>
   <g id="line2d_38">
    <path clip-path="url(#p2af3e14b61)" d="M 114.667872 375.715469 
L 116.190771 366.239017 
L 118.018781 356.226041 
L 119.846791 347.446511 
L 121.6748 339.664971 
L 124.112147 330.435049 
L 127.15883 320.00827 
L 130.205513 310.448508 
L 133.252196 301.695647 
L 136.298879 293.695165 
L 139.345562 286.392541 
L 142.392245 279.733253 
L 145.438928 273.662777 
L 148.485611 268.126592 
L 151.532294 263.070176 
L 154.578977 258.439007 
L 157.62566 254.178562 
L 161.28168 249.478617 
L 164.9377 245.141165 
L 168.593719 241.110214 
L 172.249739 237.369758 
L 175.905759 233.905795 
L 180.171115 230.195282 
L 184.436471 226.819816 
L 188.701827 223.757163 
L 192.967184 220.98509 
L 197.23254 218.481362 
L 201.497896 216.223745 
L 206.372589 213.916452 
L 211.247282 211.868383 
L 216.731311 209.832835 
L 222.215341 208.036108 
L 228.918044 206.095506 
L 236.83942 204.053034 
L 249.026152 201.168472 
L 261.822221 198.35977 
L 275.227626 195.647787 
L 288.633031 193.160737 
L 302.647773 190.789129 
L 316.662515 188.638632 
L 331.286594 186.616701 
L 346.520009 184.736411 
L 362.362761 183.008199 
L 378.81485 181.439477 
L 395.876275 180.034233 
L 414.156373 178.755237 
L 433.045808 177.657023 
L 453.153916 176.711066 
L 475.090034 175.90847 
L 498.854162 175.267034 
L 525.664972 174.770261 
L 558.569149 174.392909 
L 679.217798 173.234629 
L 695.669886 172.878597 
L 695.669886 172.878597 
" style="fill:none;stroke:#4daf4a;stroke-linecap:square;stroke-width:2;"/>
   </g>
   <g id="line2d_39">
    <path clip-path="url(#p2af3e14b61)" d="M 115.499796 375.715469 
L 115.929627 373.19993 
L 117.455259 366.51361 
L 118.980891 355.057235 
L 120.506523 344.864793 
L 122.032156 341.521584 
L 123.557788 337.852356 
L 125.08342 329.902199 
L 126.609052 323.582821 
L 128.134685 319.261164 
L 129.660317 311.025618 
L 131.185949 304.176288 
L 132.711582 306.540952 
L 135.762846 290.436802 
L 137.288478 290.59991 
L 140.339743 278.898873 
L 141.865375 273.924983 
L 143.391007 274.332653 
L 144.91664 268.257936 
L 146.442272 267.524051 
L 147.967904 262.020111 
L 149.493536 254.110683 
L 151.019169 256.312336 
L 152.544801 252.23534 
L 154.070433 246.853682 
L 155.596065 244.489018 
L 157.121698 243.67358 
L 158.64733 243.347463 
L 160.172962 240.941974 
L 161.698594 237.476581 
L 163.224227 236.212744 
L 164.749859 229.689531 
L 166.275491 231.605699 
L 167.801124 224.919379 
L 169.326756 224.674815 
L 170.852388 219.496992 
L 172.37802 218.070049 
L 173.903653 218.559273 
L 176.954917 210.119892 
L 178.480549 210.486834 
L 180.006182 211.016883 
L 183.057446 201.232015 
L 184.583078 199.478954 
L 186.108711 202.577405 
L 187.634343 195.401958 
L 189.159975 196.135745 
L 190.685607 196.584241 
L 192.21124 196.502688 
L 193.736872 194.382685 
L 195.262504 190.835641 
L 196.788137 189.327241 
L 198.313769 189.857193 
L 199.839401 182.477813 
L 201.365033 185.250244 
L 202.890666 183.497087 
L 204.416298 181.091695 
L 205.94193 176.688485 
L 207.467562 174.568482 
L 208.993195 176.117707 
L 210.518827 175.424648 
L 212.044459 175.343094 
L 213.570091 176.606931 
L 215.095724 169.023716 
L 216.621356 170.980709 
L 218.146988 173.26382 
L 219.67262 167.637598 
L 221.198253 166.496043 
L 222.723885 165.599051 
L 224.249517 164.131379 
L 225.77515 163.886719 
L 227.300782 162.908271 
L 228.826414 162.419047 
L 230.352046 160.095111 
L 231.877679 156.466611 
L 233.403311 157.404331 
L 234.928943 159.198217 
L 236.454575 158.831275 
L 237.980208 158.138118 
L 239.50584 155.488066 
L 241.031472 153.368063 
L 242.557104 155.325056 
L 244.082737 149.005678 
L 245.608369 150.514175 
L 247.134001 147.415627 
L 248.659633 150.677282 
L 250.185266 152.430343 
L 251.710898 151.003399 
L 253.23653 143.297903 
L 254.762163 147.415627 
L 256.287795 149.005678 
L 257.813427 144.194797 
L 259.339059 147.660288 
L 260.864692 140.158627 
L 262.390324 145.581013 
L 263.915956 139.016974 
L 265.441588 142.604747 
L 266.967221 143.053242 
L 268.492853 138.446197 
L 270.018485 141.463192 
L 271.544117 138.079352 
L 273.06975 137.100807 
L 274.595382 138.568576 
L 276.121014 134.573133 
L 277.646646 137.019253 
L 279.172279 138.772411 
L 280.697911 135.021532 
L 282.223543 132.860703 
L 283.749175 136.326194 
L 285.274808 133.186918 
L 286.80044 134.613861 
L 288.326072 131.189196 
L 289.851705 130.699972 
L 291.377337 135.184639 
L 292.902969 127.968366 
L 294.428601 132.942257 
L 295.954234 128.742979 
L 297.479866 128.783707 
L 299.005498 130.618419 
L 300.53113 125.522149 
L 302.056763 125.889092 
L 303.582395 122.831369 
L 305.108027 125.889092 
L 306.633659 120.996657 
L 308.159292 127.193754 
L 309.684924 126.17448 
L 311.210556 124.339866 
L 312.736188 124.339866 
L 314.261821 126.052199 
L 315.787453 124.58443 
L 317.313085 120.588987 
L 318.838718 123.157486 
L 320.36435 121.078211 
L 321.889982 123.565156 
L 323.415614 120.385152 
L 324.941247 122.912825 
L 326.466879 125.114479 
L 327.992511 120.058938 
L 329.518143 120.099763 
L 331.043776 122.015931 
L 334.09504 114.147327 
L 335.620672 116.308156 
L 337.146305 117.408885 
L 338.671937 121.037483 
L 340.197569 115.32961 
L 341.723201 119.039762 
L 344.774466 115.655825 
L 346.300098 117.571992 
L 347.825731 112.394169 
L 349.351363 119.651267 
L 350.876995 111.660382 
L 352.402627 111.782664 
L 353.92826 114.758833 
L 355.453892 109.988778 
L 356.979524 110.844944 
L 358.505156 113.98422 
L 360.030789 113.454268 
L 361.556421 112.598102 
L 363.082053 116.10432 
L 364.607685 113.780385 
L 366.133318 110.35572 
L 367.65895 115.003494 
L 369.184582 110.518827 
L 370.710214 112.190334 
L 372.235847 111.782664 
L 373.761479 108.928776 
L 375.287111 107.420279 
L 376.812744 111.578829 
L 378.338376 110.029506 
L 379.864008 110.478002 
L 381.38964 108.48028 
L 382.915273 110.192613 
L 384.440905 110.641109 
L 385.966537 108.928776 
L 387.492169 103.832507 
L 389.017802 109.499554 
L 390.543434 104.607119 
L 392.069066 108.561834 
L 393.594698 105.871053 
L 395.120331 106.115617 
L 396.645963 107.664842 
L 398.171595 104.810955 
L 399.697227 104.199449 
L 402.748492 109.132611 
L 404.274124 105.463286 
L 405.799756 106.482559 
L 408.851021 105.830228 
L 410.376653 102.854059 
L 411.902286 103.710225 
L 413.427918 103.098622 
L 414.95355 105.259451 
L 416.479182 99.959346 
L 418.004815 103.547118 
L 419.530447 101.345561 
L 421.056079 103.547118 
L 422.581711 99.10318 
L 424.107344 100.040899 
L 425.632976 99.021626 
L 427.158608 101.916339 
L 428.68424 98.858616 
L 430.209873 100.856337 
L 431.735505 101.38629 
L 433.261137 97.553954 
L 434.786769 102.487116 
L 436.312402 99.307015 
L 437.838034 98.57313 
L 439.363666 97.268565 
L 440.889299 99.021626 
L 442.414931 99.062451 
L 443.940563 97.961625 
L 445.466195 102.813233 
L 446.991828 101.141726 
L 448.51746 93.966182 
L 450.043092 98.57313 
L 451.568724 100.44857 
L 453.094357 98.695509 
L 454.619989 100.815512 
L 456.145621 97.390847 
L 457.671253 98.287741 
L 459.196886 98.777063 
L 460.722518 97.676236 
L 462.24815 97.716964 
L 463.773782 98.940073 
L 465.299415 95.515407 
L 466.825047 96.493953 
L 468.350679 93.354579 
L 469.876312 96.208564 
L 471.401944 96.534681 
L 472.927576 96.575409 
L 474.453208 98.002353 
L 475.978841 95.760068 
L 477.504473 97.594682 
L 479.030105 94.414678 
L 480.555737 94.618513 
L 482.08137 92.66152 
L 483.607002 95.841622 
L 485.132634 92.213024 
L 486.658266 96.29002 
L 488.183899 94.251571 
L 489.709531 95.760068 
L 491.235163 98.491674 
L 492.760795 91.519965 
L 494.286428 93.762347 
L 495.81206 91.7238 
L 497.337692 94.292299 
L 498.863325 92.335403 
L 500.388957 95.556233 
L 501.914589 91.356858 
L 503.440221 91.234576 
L 504.965854 91.601518 
L 506.491486 91.479237 
L 508.017118 93.721521 
L 509.54275 94.94463 
L 511.068383 91.805354 
L 512.594015 90.500692 
L 514.119647 91.479237 
L 515.645279 89.929914 
L 517.170912 94.618513 
L 518.696544 93.59924 
L 520.222176 94.863076 
L 521.747808 92.498413 
L 523.273441 88.013746 
L 524.799073 89.685351 
L 526.324705 87.850639 
L 527.850337 91.846082 
L 529.37597 91.071469 
L 530.901602 89.359137 
L 532.427234 90.296856 
L 533.952867 91.7238 
L 535.478499 87.606076 
L 537.004131 92.009189 
L 538.529763 91.560693 
L 540.055396 90.133749 
L 541.581028 89.236855 
L 543.10666 92.213024 
L 544.632292 87.606076 
L 546.157925 88.462242 
L 547.683557 90.093021 
L 549.209189 92.457685 
L 550.734821 87.035298 
L 552.260454 88.869913 
L 553.786086 89.522244 
L 555.311718 91.112294 
L 556.83735 86.423695 
L 558.362983 86.74991 
L 559.888615 90.093021 
L 561.414247 88.217581 
L 562.93988 86.74991 
L 564.465512 87.932193 
L 565.991144 89.562972 
L 567.516776 86.179132 
L 569.042409 89.155301 
L 570.568041 87.646804 
L 572.093673 90.093021 
L 573.619305 85.81219 
L 575.144938 86.994473 
L 576.67057 87.769086 
L 578.196202 86.505249 
L 579.721834 89.236855 
L 581.247467 88.747631 
L 584.298731 84.059032 
L 585.824363 85.81219 
L 587.349996 84.792916 
L 588.875628 86.994473 
L 590.40126 87.524522 
L 591.926893 88.176853 
L 593.452525 86.994473 
L 594.978157 86.586802 
L 596.503789 84.589081 
L 598.029422 86.953745 
L 599.555054 88.176853 
L 601.080686 87.198308 
L 602.606318 88.299135 
L 604.131951 89.155301 
L 605.657583 86.301414 
L 607.183215 82.754467 
L 608.708847 82.224418 
L 610.23448 86.21986 
L 611.760112 84.670635 
L 613.285744 85.445247 
L 614.811376 84.629809 
L 616.337009 86.831463 
L 617.862641 86.464521 
L 619.388273 84.507528 
L 620.913906 82.142864 
L 622.439538 85.730636 
L 623.96517 83.284419 
L 625.490802 83.406701 
L 627.016435 84.385246 
L 628.542067 85.078305 
L 630.067699 83.773643 
L 633.118964 85.404422 
L 634.644596 84.385246 
L 636.170228 83.855197 
L 637.69586 82.713642 
L 639.221493 82.061311 
L 640.747125 85.404422 
L 642.272757 85.81219 
L 643.798389 83.855197 
L 645.324022 82.142864 
L 646.849654 85.893743 
L 648.375286 84.915198 
L 649.900918 86.423695 
L 651.426551 82.917477 
L 652.952183 83.651361 
L 654.477815 81.857475 
L 656.003448 82.102136 
L 657.52908 81.735194 
L 659.054712 83.406701 
L 660.580344 82.020582 
L 662.105977 83.855197 
L 663.631609 86.260686 
L 665.157241 85.241412 
L 666.682873 81.816747 
L 668.208506 82.265146 
L 669.734138 81.65364 
L 671.25977 85.037577 
L 672.785402 82.428253 
L 674.311035 82.672913 
L 675.836667 84.466799 
L 677.362299 80.797474 
L 678.887931 82.713642 
L 680.413564 83.896022 
L 681.939196 85.689811 
L 683.464828 81.857475 
L 684.990461 82.142864 
L 686.516093 83.651361 
L 688.041725 81.368251 
L 689.567357 77.454362 
L 691.09299 86.138307 
L 692.618622 82.102136 
L 694.144254 82.59136 
L 695.669886 83.325244 
L 695.669886 83.325244 
" style="fill:none;stroke:#377eb8;stroke-linecap:square;stroke-opacity:0.25098;stroke-width:1.5;"/>
   </g>
   <g id="line2d_40">
    <path clip-path="url(#p2af3e14b61)" d="M 115.123349 375.715469 
L 115.929627 358.62751 
L 117.455259 333.351359 
L 118.980891 343.855726 
L 120.119908 375.715469 
M 121.061884 375.715469 
L 122.032156 356.822057 
L 123.557788 316.445963 
L 125.08342 321.533971 
L 126.609052 320.385125 
L 128.134685 318.579672 
L 129.660317 322.847089 
L 131.185949 344.348158 
L 132.711582 303.479632 
L 134.237214 280.993798 
L 135.762846 302.659043 
L 137.288478 276.890557 
L 138.814111 280.501366 
L 140.339743 261.626438 
L 141.865375 265.237248 
L 143.391007 269.668744 
L 144.91664 270.653607 
L 146.442272 260.641575 
L 147.967904 262.775283 
L 149.493536 269.504665 
L 151.019169 298.719881 
L 152.544801 274.756848 
L 154.070433 267.042701 
L 155.596065 257.030766 
L 157.121698 254.897057 
L 158.64733 242.258981 
L 160.172962 243.736179 
L 161.698594 245.541632 
L 163.224227 245.541632 
L 164.749859 250.793816 
L 166.275491 262.775283 
L 167.801124 255.225312 
L 169.326756 228.143805 
L 170.852388 256.045999 
L 173.903653 228.143805 
L 175.429285 227.979629 
L 176.954917 223.876388 
L 178.480549 234.873089 
L 180.006182 221.5786 
L 181.531814 218.460125 
L 183.057446 227.979629 
L 184.583078 225.681841 
L 186.108711 207.463327 
L 187.634343 214.685042 
L 189.159975 224.204643 
L 190.685607 224.697075 
L 192.21124 241.930726 
L 193.736872 211.402489 
L 195.262504 211.074233 
L 196.788137 207.791582 
L 198.313769 222.235111 
L 199.839401 214.028532 
L 201.365033 213.372021 
L 202.890666 222.070935 
L 204.416298 219.608971 
L 205.94193 206.314481 
L 208.993195 218.460125 
L 210.518827 216.326417 
L 212.044459 209.104701 
L 213.570091 207.135071 
L 215.095724 214.520963 
L 216.621356 212.71551 
L 218.146988 221.414424 
L 219.67262 193.840485 
L 221.198253 212.058999 
L 222.723885 216.818751 
L 224.249517 210.089467 
L 225.77515 218.295949 
L 227.300782 203.688341 
L 228.826414 211.074233 
L 230.352046 212.71551 
L 231.877679 198.272078 
L 233.403311 191.050265 
L 234.928943 206.150305 
L 236.454575 199.913355 
L 237.980208 209.761212 
L 239.50584 204.509028 
L 241.031472 211.730744 
L 242.557104 240.453528 
L 244.082737 208.119837 
L 245.608369 190.065499 
L 247.134001 192.855719 
L 248.659633 219.444891 
L 250.185266 202.867654 
L 253.23653 187.439456 
L 254.762163 191.050265 
L 256.287795 231.754614 
L 257.813427 192.69164 
L 259.339059 204.344852 
L 260.864692 188.588301 
L 262.390324 204.180773 
L 263.915956 178.248111 
L 265.441588 204.180773 
L 266.967221 188.424222 
L 268.492853 195.317683 
L 270.018485 199.913355 
L 271.544117 183.500294 
L 273.06975 198.764413 
L 274.595382 197.779647 
L 276.121014 185.634003 
L 277.646646 202.375319 
L 279.172279 194.497093 
L 280.697911 197.287215 
L 282.223543 190.393755 
L 283.749175 213.536197 
L 285.274808 192.035129 
L 286.80044 194.004661 
L 288.326072 190.065499 
L 289.851705 182.187273 
L 291.377337 188.424222 
L 292.902969 181.366586 
L 294.428601 194.497093 
L 295.954234 195.810114 
L 297.479866 193.51223 
L 299.005498 190.065499 
L 300.53113 205.001363 
L 302.056763 194.661172 
L 303.582395 188.095967 
L 305.108027 194.825348 
L 306.633659 177.5916 
L 308.159292 182.679607 
L 309.684924 191.050265 
L 311.210556 182.679607 
L 312.736188 186.290514 
L 314.261821 184.813316 
L 315.787453 182.351352 
L 317.313085 211.238312 
L 318.838718 193.183974 
L 320.36435 183.00796 
L 321.889982 195.481859 
L 323.415614 187.27528 
L 324.941247 189.408989 
L 326.466879 191.981473 
L 327.992511 176.770913 
L 329.518143 192.69164 
L 331.043776 188.260046 
L 332.569408 189.080733 
L 334.09504 182.023096 
L 335.620672 174.309046 
L 337.146305 187.439456 
L 338.671937 191.870953 
L 340.197569 175.293812 
L 341.723201 185.634003 
L 343.248834 174.637302 
L 344.774466 175.786147 
L 346.300098 179.889388 
L 347.825731 185.962258 
L 349.351363 174.309046 
L 350.876995 181.03833 
L 352.402627 193.183974 
L 355.453892 183.00796 
L 356.979524 189.90142 
L 358.505156 175.129636 
L 360.030789 178.576366 
L 361.556421 184.649237 
L 363.082053 183.82855 
L 364.607685 182.187273 
L 366.133318 187.27528 
L 367.65895 181.530762 
L 369.184582 168.892686 
L 370.710214 186.126435 
L 372.235847 173.488359 
L 373.761479 181.03833 
L 375.287111 176.606834 
L 376.812744 183.992726 
L 378.338376 187.439456 
L 379.864008 182.515528 
L 381.38964 182.515528 
L 382.915273 192.855719 
L 384.440905 182.843783 
L 385.966537 171.026395 
L 387.492169 185.141571 
L 389.017802 183.664471 
L 390.543434 189.573165 
L 392.069066 185.798179 
L 393.594698 174.309046 
L 395.120331 179.068798 
L 396.645963 178.084032 
L 398.171595 175.622068 
L 399.697227 174.309046 
L 401.22286 186.45469 
L 402.748492 185.634003 
L 404.274124 189.408989 
L 405.799756 174.965557 
L 407.325389 183.992726 
L 408.851021 186.126435 
L 410.376653 180.21774 
L 411.902286 168.236176 
L 413.427918 165.774212 
L 414.95355 179.068798 
L 416.479182 187.603535 
L 418.004815 174.14487 
L 419.530447 174.801381 
L 421.056079 178.576366 
L 422.581711 180.053564 
L 424.107344 170.205708 
L 425.632976 182.023096 
L 427.158608 183.82855 
L 428.68424 165.445956 
L 430.209873 175.622068 
L 431.735505 194.989427 
L 433.261137 172.011161 
L 434.786769 170.862219 
L 436.312402 175.457891 
L 437.838034 192.527463 
L 439.363666 186.618769 
L 440.889299 178.248111 
L 442.414931 191.706873 
L 443.940563 174.309046 
L 445.466195 175.950323 
L 446.991828 168.728607 
L 448.51746 175.622068 
L 450.043092 164.46119 
L 451.568724 184.649237 
L 453.094357 163.148168 
L 454.619989 169.056863 
L 456.145621 180.21774 
L 457.671253 183.992726 
L 459.196886 178.412287 
L 460.722518 182.187273 
L 462.24815 170.369884 
L 463.773782 171.35465 
L 465.299415 179.561132 
L 466.825047 165.117701 
L 468.350679 177.919855 
L 469.876312 181.366586 
L 471.401944 165.28178 
L 472.927576 174.801381 
L 474.453208 181.530762 
L 475.978841 166.266643 
L 477.504473 183.664471 
L 479.030105 180.545996 
L 480.555737 183.336215 
L 482.08137 178.740543 
L 483.607002 179.561132 
L 485.132634 179.889388 
L 486.658266 178.412287 
L 488.183899 181.859017 
L 489.709531 176.935089 
L 491.235163 178.248111 
L 492.760795 173.652438 
L 494.286428 186.126435 
L 495.81206 179.725309 
L 497.337692 178.740543 
L 498.863325 174.14487 
L 500.388957 180.874251 
L 501.914589 165.28178 
L 503.440221 186.126435 
L 504.965854 173.488359 
L 506.491486 174.965557 
L 508.017118 172.995927 
L 509.54275 172.339417 
L 511.068383 168.892686 
L 512.594015 181.859017 
L 514.119647 176.606834 
L 515.645279 190.065499 
L 517.170912 177.263345 
L 518.696544 165.774212 
L 520.222176 179.397053 
L 521.747808 169.877453 
L 523.273441 179.725309 
L 524.799073 175.457891 
L 526.324705 176.278578 
L 527.850337 174.801381 
L 529.37597 174.637302 
L 530.901602 168.236176 
L 532.427234 174.309046 
L 533.952867 169.713373 
L 535.478499 173.160104 
L 537.004131 173.980694 
L 538.529763 174.965557 
L 540.055396 175.129636 
L 541.581028 182.679607 
L 543.10666 175.950323 
L 544.632292 164.132935 
L 546.157925 170.205708 
L 547.683557 167.743744 
L 549.209189 176.114402 
L 550.734821 165.774212 
L 552.260454 174.14487 
L 553.786086 171.518827 
L 555.311718 174.14487 
L 556.83735 169.713373 
L 558.362983 175.129636 
L 559.888615 177.263345 
L 561.414247 169.056863 
L 562.93988 170.69814 
L 564.465512 177.919855 
L 565.991144 186.101162 
L 567.516776 173.488359 
L 569.042409 169.549197 
L 570.568041 164.132935 
L 572.093673 164.953524 
L 573.619305 179.561132 
L 575.144938 176.442658 
L 576.67057 162.491658 
L 578.196202 172.503593 
L 579.721834 178.248111 
L 581.247467 167.415489 
L 582.773099 177.263345 
L 584.298731 177.263345 
L 585.824363 170.205708 
L 587.349996 169.549197 
L 588.875628 172.011161 
L 590.40126 164.953524 
L 591.926893 174.473125 
L 593.452525 176.442658 
L 594.978157 181.530762 
L 596.503789 164.625269 
L 598.029422 170.533963 
L 599.555054 169.220942 
L 601.080686 170.369884 
L 602.606318 171.35465 
L 604.131951 176.114402 
L 605.657583 169.877453 
L 607.183215 176.606834 
L 608.708847 171.190571 
L 610.23448 177.263345 
L 611.760112 175.950323 
L 613.285744 162.819913 
L 614.811376 177.919855 
L 616.337009 186.618769 
L 617.862641 174.473125 
L 619.388273 174.473125 
L 620.913906 175.457891 
L 622.439538 182.843783 
L 623.96517 174.801381 
L 625.490802 189.737244 
L 627.016435 177.099266 
L 628.542067 166.758978 
L 630.067699 179.068798 
L 631.593331 186.126435 
L 633.118964 168.564431 
L 634.644596 169.877453 
L 636.170228 175.786147 
L 637.69586 193.34815 
L 639.221493 172.503593 
L 640.747125 172.339417 
L 642.272757 188.260046 
L 643.798389 165.774212 
L 645.324022 173.488359 
L 646.849654 175.293812 
L 648.375286 166.923154 
L 649.900918 163.148168 
L 651.426551 173.980694 
L 652.952183 175.129636 
L 654.477815 163.148168 
L 656.003448 174.801381 
L 660.580344 181.530762 
L 662.105977 190.229676 
L 663.631609 162.819913 
L 665.157241 172.831848 
L 666.682873 176.606834 
L 668.208506 175.457891 
L 669.734138 168.236176 
L 671.25977 166.758978 
L 672.785402 176.606834 
L 674.311035 178.084032 
L 675.836667 163.476424 
L 677.362299 162.491658 
L 678.887931 178.740543 
L 680.413564 162.983992 
L 681.939196 182.515528 
L 683.464828 170.533963 
L 684.990461 168.564431 
L 686.516093 172.339417 
L 688.041725 170.205708 
L 689.567357 176.278578 
L 691.09299 161.83505 
L 692.618622 183.00796 
L 694.144254 173.324183 
L 695.669886 176.278578 
L 695.669886 176.278578 
" style="fill:none;stroke:#4daf4a;stroke-linecap:square;stroke-opacity:0.25098;stroke-width:1.5;"/>
   </g>
   <g id="patch_3">
    <path d="M 56.50625 337.159219 
L 56.50625 10.999219 
" style="fill:none;stroke:#000000;stroke-linecap:square;stroke-linejoin:miter;stroke-width:0.8;"/>
   </g>
   <g id="patch_4">
    <path d="M 726.10625 337.159219 
L 726.10625 10.999219 
" style="fill:none;stroke:#000000;stroke-linecap:square;stroke-linejoin:miter;stroke-width:0.8;"/>
   </g>
   <g id="patch_5">
    <path d="M 56.50625 337.159219 
L 726.10625 337.159219 
" style="fill:none;stroke:#000000;stroke-linecap:square;stroke-linejoin:miter;stroke-width:0.8;"/>
   </g>
   <g id="patch_6">
    <path d="M 56.50625 10.999219 
L 726.10625 10.999219 
" style="fill:none;stroke:#000000;stroke-linecap:square;stroke-linejoin:miter;stroke-width:0.8;"/>
   </g>
   <g id="legend_1">
    <g id="patch_7">
     <path d="M 63.50625 48.355469 
L 120.946875 48.355469 
Q 122.946875 48.355469 122.946875 46.355469 
L 122.946875 17.999219 
Q 122.946875 15.999219 120.946875 15.999219 
L 63.50625 15.999219 
Q 61.50625 15.999219 61.50625 17.999219 
L 61.50625 46.355469 
Q 61.50625 48.355469 63.50625 48.355469 
z
" style="fill:#ffffff;opacity:0.8;stroke:#cccccc;stroke-linejoin:miter;"/>
    </g>
    <g id="line2d_41">
     <path d="M 65.50625 24.097656 
L 85.50625 24.097656 
" style="fill:none;stroke:#377eb8;stroke-linecap:square;stroke-width:2;"/>
    </g>
    <g id="line2d_42"/>
    <g id="text_21">
     <!-- Train -->
     <defs>
      <path d="M -0.296875 72.90625 
L 61.375 72.90625 
L 61.375 64.59375 
L 35.5 64.59375 
L 35.5 0 
L 25.59375 0 
L 25.59375 64.59375 
L -0.296875 64.59375 
z
" id="DejaVuSans-84"/>
      <path d="M 9.421875 54.6875 
L 18.40625 54.6875 
L 18.40625 0 
L 9.421875 0 
z
M 9.421875 75.984375 
L 18.40625 75.984375 
L 18.40625 64.59375 
L 9.421875 64.59375 
z
" id="DejaVuSans-105"/>
      <path d="M 54.890625 33.015625 
L 54.890625 0 
L 45.90625 0 
L 45.90625 32.71875 
Q 45.90625 40.484375 42.875 44.328125 
Q 39.84375 48.1875 33.796875 48.1875 
Q 26.515625 48.1875 22.3125 43.546875 
Q 18.109375 38.921875 18.109375 30.90625 
L 18.109375 0 
L 9.078125 0 
L 9.078125 54.6875 
L 18.109375 54.6875 
L 18.109375 46.1875 
Q 21.34375 51.125 25.703125 53.5625 
Q 30.078125 56 35.796875 56 
Q 45.21875 56 50.046875 50.171875 
Q 54.890625 44.34375 54.890625 33.015625 
z
" id="DejaVuSans-110"/>
     </defs>
     <g transform="translate(93.50625 27.597656)scale(0.1 -0.1)">
      <use xlink:href="#DejaVuSans-84"/>
      <use x="60.865234" xlink:href="#DejaVuSans-114"/>
      <use x="101.978516" xlink:href="#DejaVuSans-97"/>
      <use x="163.257812" xlink:href="#DejaVuSans-105"/>
      <use x="191.041016" xlink:href="#DejaVuSans-110"/>
     </g>
    </g>
    <g id="line2d_43">
     <path d="M 65.50625 38.775781 
L 85.50625 38.775781 
" style="fill:none;stroke:#4daf4a;stroke-linecap:square;stroke-width:2;"/>
    </g>
    <g id="line2d_44"/>
    <g id="text_22">
     <!-- Test -->
     <defs>
      <path d="M 56.203125 29.59375 
L 56.203125 25.203125 
L 14.890625 25.203125 
Q 15.484375 15.921875 20.484375 11.0625 
Q 25.484375 6.203125 34.421875 6.203125 
Q 39.59375 6.203125 44.453125 7.46875 
Q 49.3125 8.734375 54.109375 11.28125 
L 54.109375 2.78125 
Q 49.265625 0.734375 44.1875 -0.34375 
Q 39.109375 -1.421875 33.890625 -1.421875 
Q 20.796875 -1.421875 13.15625 6.1875 
Q 5.515625 13.8125 5.515625 26.8125 
Q 5.515625 40.234375 12.765625 48.109375 
Q 20.015625 56 32.328125 56 
Q 43.359375 56 49.78125 48.890625 
Q 56.203125 41.796875 56.203125 29.59375 
z
M 47.21875 32.234375 
Q 47.125 39.59375 43.09375 43.984375 
Q 39.0625 48.390625 32.421875 48.390625 
Q 24.90625 48.390625 20.390625 44.140625 
Q 15.875 39.890625 15.1875 32.171875 
z
" id="DejaVuSans-101"/>
      <path d="M 44.28125 53.078125 
L 44.28125 44.578125 
Q 40.484375 46.53125 36.375 47.5 
Q 32.28125 48.484375 27.875 48.484375 
Q 21.1875 48.484375 17.84375 46.4375 
Q 14.5 44.390625 14.5 40.28125 
Q 14.5 37.15625 16.890625 35.375 
Q 19.28125 33.59375 26.515625 31.984375 
L 29.59375 31.296875 
Q 39.15625 29.25 43.1875 25.515625 
Q 47.21875 21.78125 47.21875 15.09375 
Q 47.21875 7.46875 41.1875 3.015625 
Q 35.15625 -1.421875 24.609375 -1.421875 
Q 20.21875 -1.421875 15.453125 -0.5625 
Q 10.6875 0.296875 5.421875 2 
L 5.421875 11.28125 
Q 10.40625 8.6875 15.234375 7.390625 
Q 20.0625 6.109375 24.8125 6.109375 
Q 31.15625 6.109375 34.5625 8.28125 
Q 37.984375 10.453125 37.984375 14.40625 
Q 37.984375 18.0625 35.515625 20.015625 
Q 33.0625 21.96875 24.703125 23.78125 
L 21.578125 24.515625 
Q 13.234375 26.265625 9.515625 29.90625 
Q 5.8125 33.546875 5.8125 39.890625 
Q 5.8125 47.609375 11.28125 51.796875 
Q 16.75 56 26.8125 56 
Q 31.78125 56 36.171875 55.265625 
Q 40.578125 54.546875 44.28125 53.078125 
z
" id="DejaVuSans-115"/>
      <path d="M 18.3125 70.21875 
L 18.3125 54.6875 
L 36.8125 54.6875 
L 36.8125 47.703125 
L 18.3125 47.703125 
L 18.3125 18.015625 
Q 18.3125 11.328125 20.140625 9.421875 
Q 21.96875 7.515625 27.59375 7.515625 
L 36.8125 7.515625 
L 36.8125 0 
L 27.59375 0 
Q 17.1875 0 13.234375 3.875 
Q 9.28125 7.765625 9.28125 18.015625 
L 9.28125 47.703125 
L 2.6875 47.703125 
L 2.6875 54.6875 
L 9.28125 54.6875 
L 9.28125 70.21875 
z
" id="DejaVuSans-116"/>
     </defs>
     <g transform="translate(93.50625 42.275781)scale(0.1 -0.1)">
      <use xlink:href="#DejaVuSans-84"/>
      <use x="60.818359" xlink:href="#DejaVuSans-101"/>
      <use x="122.341797" xlink:href="#DejaVuSans-115"/>
      <use x="174.441406" xlink:href="#DejaVuSans-116"/>
     </g>
    </g>
   </g>
  </g>
 </g>
 <defs>
  <clipPath id="p2af3e14b61">
   <rect height="326.16" width="669.6" x="56.50625" y="10.999219"/>
  </clipPath>
 </defs>
</svg>
