<?xml version="1.0" encoding="utf-8" standalone="no"?>
<!DOCTYPE svg PUBLIC "-//W3C//DTD SVG 1.1//EN"
  "http://www.w3.org/Graphics/SVG/1.1/DTD/svg11.dtd">
<!-- Created with matplotlib (https://matplotlib.org/) -->
<svg height="374.715469pt" version="1.1" viewBox="0 0 726.94375 374.715469" width="726.94375pt" xmlns="http://www.w3.org/2000/svg" xmlns:xlink="http://www.w3.org/1999/xlink">
 <defs>
  <style type="text/css">
*{stroke-linecap:butt;stroke-linejoin:round;white-space:pre;}
  </style>
 </defs>
 <g id="figure_1">
  <g id="patch_1">
   <path d="M 0 374.715469 
L 726.94375 374.715469 
L 726.94375 0 
L 0 0 
z
" style="fill:#ffffff;"/>
  </g>
  <g id="axes_1">
   <g id="patch_2">
    <path d="M 50.14375 337.159219 
L 719.74375 337.159219 
L 719.74375 10.999219 
L 50.14375 10.999219 
z
" style="fill:#ffffff;"/>
   </g>
   <g id="matplotlib.axis_1">
    <g id="xtick_1">
     <g id="line2d_1">
      <path clip-path="url(#pf085198808)" d="M 50.14375 337.159219 
L 50.14375 10.999219 
" style="fill:none;stroke:#b0b0b0;stroke-linecap:square;stroke-width:0.8;"/>
     </g>
     <g id="line2d_2">
      <defs>
       <path d="M 0 0 
L 0 3.5 
" id="m2e6c0e7f86" style="stroke:#000000;stroke-width:0.8;"/>
      </defs>
      <g>
       <use style="stroke:#000000;stroke-width:0.8;" x="50.14375" xlink:href="#m2e6c0e7f86" y="337.159219"/>
      </g>
     </g>
     <g id="text_1">
      <!-- 0 -->
      <defs>
       <path d="M 31.78125 66.40625 
Q 24.171875 66.40625 20.328125 58.90625 
Q 16.5 51.421875 16.5 36.375 
Q 16.5 21.390625 20.328125 13.890625 
Q 24.171875 6.390625 31.78125 6.390625 
Q 39.453125 6.390625 43.28125 13.890625 
Q 47.125 21.390625 47.125 36.375 
Q 47.125 51.421875 43.28125 58.90625 
Q 39.453125 66.40625 31.78125 66.40625 
z
M 31.78125 74.21875 
Q 44.046875 74.21875 50.515625 64.515625 
Q 56.984375 54.828125 56.984375 36.375 
Q 56.984375 17.96875 50.515625 8.265625 
Q 44.046875 -1.421875 31.78125 -1.421875 
Q 19.53125 -1.421875 13.0625 8.265625 
Q 6.59375 17.96875 6.59375 36.375 
Q 6.59375 54.828125 13.0625 64.515625 
Q 19.53125 74.21875 31.78125 74.21875 
z
" id="DejaVuSans-48"/>
      </defs>
      <g transform="translate(46.9625 351.757656)scale(0.1 -0.1)">
       <use xlink:href="#DejaVuSans-48"/>
      </g>
     </g>
    </g>
    <g id="xtick_2">
     <g id="line2d_3">
      <path clip-path="url(#pf085198808)" d="M 129.867527 337.159219 
L 129.867527 10.999219 
" style="fill:none;stroke:#b0b0b0;stroke-linecap:square;stroke-width:0.8;"/>
     </g>
     <g id="line2d_4">
      <g>
       <use style="stroke:#000000;stroke-width:0.8;" x="129.867527" xlink:href="#m2e6c0e7f86" y="337.159219"/>
      </g>
     </g>
     <g id="text_2">
      <!-- 50 -->
      <defs>
       <path d="M 10.796875 72.90625 
L 49.515625 72.90625 
L 49.515625 64.59375 
L 19.828125 64.59375 
L 19.828125 46.734375 
Q 21.96875 47.46875 24.109375 47.828125 
Q 26.265625 48.1875 28.421875 48.1875 
Q 40.625 48.1875 47.75 41.5 
Q 54.890625 34.8125 54.890625 23.390625 
Q 54.890625 11.625 47.5625 5.09375 
Q 40.234375 -1.421875 26.90625 -1.421875 
Q 22.3125 -1.421875 17.546875 -0.640625 
Q 12.796875 0.140625 7.71875 1.703125 
L 7.71875 11.625 
Q 12.109375 9.234375 16.796875 8.0625 
Q 21.484375 6.890625 26.703125 6.890625 
Q 35.15625 6.890625 40.078125 11.328125 
Q 45.015625 15.765625 45.015625 23.390625 
Q 45.015625 31 40.078125 35.4375 
Q 35.15625 39.890625 26.703125 39.890625 
Q 22.75 39.890625 18.8125 39.015625 
Q 14.890625 38.140625 10.796875 36.28125 
z
" id="DejaVuSans-53"/>
      </defs>
      <g transform="translate(123.505027 351.757656)scale(0.1 -0.1)">
       <use xlink:href="#DejaVuSans-53"/>
       <use x="63.623047" xlink:href="#DejaVuSans-48"/>
      </g>
     </g>
    </g>
    <g id="xtick_3">
     <g id="line2d_5">
      <path clip-path="url(#pf085198808)" d="M 209.591303 337.159219 
L 209.591303 10.999219 
" style="fill:none;stroke:#b0b0b0;stroke-linecap:square;stroke-width:0.8;"/>
     </g>
     <g id="line2d_6">
      <g>
       <use style="stroke:#000000;stroke-width:0.8;" x="209.591303" xlink:href="#m2e6c0e7f86" y="337.159219"/>
      </g>
     </g>
     <g id="text_3">
      <!-- 100 -->
      <defs>
       <path d="M 12.40625 8.296875 
L 28.515625 8.296875 
L 28.515625 63.921875 
L 10.984375 60.40625 
L 10.984375 69.390625 
L 28.421875 72.90625 
L 38.28125 72.90625 
L 38.28125 8.296875 
L 54.390625 8.296875 
L 54.390625 0 
L 12.40625 0 
z
" id="DejaVuSans-49"/>
      </defs>
      <g transform="translate(200.047553 351.757656)scale(0.1 -0.1)">
       <use xlink:href="#DejaVuSans-49"/>
       <use x="63.623047" xlink:href="#DejaVuSans-48"/>
       <use x="127.246094" xlink:href="#DejaVuSans-48"/>
      </g>
     </g>
    </g>
    <g id="xtick_4">
     <g id="line2d_7">
      <path clip-path="url(#pf085198808)" d="M 289.31508 337.159219 
L 289.31508 10.999219 
" style="fill:none;stroke:#b0b0b0;stroke-linecap:square;stroke-width:0.8;"/>
     </g>
     <g id="line2d_8">
      <g>
       <use style="stroke:#000000;stroke-width:0.8;" x="289.31508" xlink:href="#m2e6c0e7f86" y="337.159219"/>
      </g>
     </g>
     <g id="text_4">
      <!-- 150 -->
      <g transform="translate(279.77133 351.757656)scale(0.1 -0.1)">
       <use xlink:href="#DejaVuSans-49"/>
       <use x="63.623047" xlink:href="#DejaVuSans-53"/>
       <use x="127.246094" xlink:href="#DejaVuSans-48"/>
      </g>
     </g>
    </g>
    <g id="xtick_5">
     <g id="line2d_9">
      <path clip-path="url(#pf085198808)" d="M 369.038857 337.159219 
L 369.038857 10.999219 
" style="fill:none;stroke:#b0b0b0;stroke-linecap:square;stroke-width:0.8;"/>
     </g>
     <g id="line2d_10">
      <g>
       <use style="stroke:#000000;stroke-width:0.8;" x="369.038857" xlink:href="#m2e6c0e7f86" y="337.159219"/>
      </g>
     </g>
     <g id="text_5">
      <!-- 200 -->
      <defs>
       <path d="M 19.1875 8.296875 
L 53.609375 8.296875 
L 53.609375 0 
L 7.328125 0 
L 7.328125 8.296875 
Q 12.9375 14.109375 22.625 23.890625 
Q 32.328125 33.6875 34.8125 36.53125 
Q 39.546875 41.84375 41.421875 45.53125 
Q 43.3125 49.21875 43.3125 52.78125 
Q 43.3125 58.59375 39.234375 62.25 
Q 35.15625 65.921875 28.609375 65.921875 
Q 23.96875 65.921875 18.8125 64.3125 
Q 13.671875 62.703125 7.8125 59.421875 
L 7.8125 69.390625 
Q 13.765625 71.78125 18.9375 73 
Q 24.125 74.21875 28.421875 74.21875 
Q 39.75 74.21875 46.484375 68.546875 
Q 53.21875 62.890625 53.21875 53.421875 
Q 53.21875 48.921875 51.53125 44.890625 
Q 49.859375 40.875 45.40625 35.40625 
Q 44.1875 33.984375 37.640625 27.21875 
Q 31.109375 20.453125 19.1875 8.296875 
z
" id="DejaVuSans-50"/>
      </defs>
      <g transform="translate(359.495107 351.757656)scale(0.1 -0.1)">
       <use xlink:href="#DejaVuSans-50"/>
       <use x="63.623047" xlink:href="#DejaVuSans-48"/>
       <use x="127.246094" xlink:href="#DejaVuSans-48"/>
      </g>
     </g>
    </g>
    <g id="xtick_6">
     <g id="line2d_11">
      <path clip-path="url(#pf085198808)" d="M 448.762633 337.159219 
L 448.762633 10.999219 
" style="fill:none;stroke:#b0b0b0;stroke-linecap:square;stroke-width:0.8;"/>
     </g>
     <g id="line2d_12">
      <g>
       <use style="stroke:#000000;stroke-width:0.8;" x="448.762633" xlink:href="#m2e6c0e7f86" y="337.159219"/>
      </g>
     </g>
     <g id="text_6">
      <!-- 250 -->
      <g transform="translate(439.218883 351.757656)scale(0.1 -0.1)">
       <use xlink:href="#DejaVuSans-50"/>
       <use x="63.623047" xlink:href="#DejaVuSans-53"/>
       <use x="127.246094" xlink:href="#DejaVuSans-48"/>
      </g>
     </g>
    </g>
    <g id="xtick_7">
     <g id="line2d_13">
      <path clip-path="url(#pf085198808)" d="M 528.48641 337.159219 
L 528.48641 10.999219 
" style="fill:none;stroke:#b0b0b0;stroke-linecap:square;stroke-width:0.8;"/>
     </g>
     <g id="line2d_14">
      <g>
       <use style="stroke:#000000;stroke-width:0.8;" x="528.48641" xlink:href="#m2e6c0e7f86" y="337.159219"/>
      </g>
     </g>
     <g id="text_7">
      <!-- 300 -->
      <defs>
       <path d="M 40.578125 39.3125 
Q 47.65625 37.796875 51.625 33 
Q 55.609375 28.21875 55.609375 21.1875 
Q 55.609375 10.40625 48.1875 4.484375 
Q 40.765625 -1.421875 27.09375 -1.421875 
Q 22.515625 -1.421875 17.65625 -0.515625 
Q 12.796875 0.390625 7.625 2.203125 
L 7.625 11.71875 
Q 11.71875 9.328125 16.59375 8.109375 
Q 21.484375 6.890625 26.8125 6.890625 
Q 36.078125 6.890625 40.9375 10.546875 
Q 45.796875 14.203125 45.796875 21.1875 
Q 45.796875 27.640625 41.28125 31.265625 
Q 36.765625 34.90625 28.71875 34.90625 
L 20.21875 34.90625 
L 20.21875 43.015625 
L 29.109375 43.015625 
Q 36.375 43.015625 40.234375 45.921875 
Q 44.09375 48.828125 44.09375 54.296875 
Q 44.09375 59.90625 40.109375 62.90625 
Q 36.140625 65.921875 28.71875 65.921875 
Q 24.65625 65.921875 20.015625 65.03125 
Q 15.375 64.15625 9.8125 62.3125 
L 9.8125 71.09375 
Q 15.4375 72.65625 20.34375 73.4375 
Q 25.25 74.21875 29.59375 74.21875 
Q 40.828125 74.21875 47.359375 69.109375 
Q 53.90625 64.015625 53.90625 55.328125 
Q 53.90625 49.265625 50.4375 45.09375 
Q 46.96875 40.921875 40.578125 39.3125 
z
" id="DejaVuSans-51"/>
      </defs>
      <g transform="translate(518.94266 351.757656)scale(0.1 -0.1)">
       <use xlink:href="#DejaVuSans-51"/>
       <use x="63.623047" xlink:href="#DejaVuSans-48"/>
       <use x="127.246094" xlink:href="#DejaVuSans-48"/>
      </g>
     </g>
    </g>
    <g id="xtick_8">
     <g id="line2d_15">
      <path clip-path="url(#pf085198808)" d="M 608.210186 337.159219 
L 608.210186 10.999219 
" style="fill:none;stroke:#b0b0b0;stroke-linecap:square;stroke-width:0.8;"/>
     </g>
     <g id="line2d_16">
      <g>
       <use style="stroke:#000000;stroke-width:0.8;" x="608.210186" xlink:href="#m2e6c0e7f86" y="337.159219"/>
      </g>
     </g>
     <g id="text_8">
      <!-- 350 -->
      <g transform="translate(598.666436 351.757656)scale(0.1 -0.1)">
       <use xlink:href="#DejaVuSans-51"/>
       <use x="63.623047" xlink:href="#DejaVuSans-53"/>
       <use x="127.246094" xlink:href="#DejaVuSans-48"/>
      </g>
     </g>
    </g>
    <g id="xtick_9">
     <g id="line2d_17">
      <path clip-path="url(#pf085198808)" d="M 687.933963 337.159219 
L 687.933963 10.999219 
" style="fill:none;stroke:#b0b0b0;stroke-linecap:square;stroke-width:0.8;"/>
     </g>
     <g id="line2d_18">
      <g>
       <use style="stroke:#000000;stroke-width:0.8;" x="687.933963" xlink:href="#m2e6c0e7f86" y="337.159219"/>
      </g>
     </g>
     <g id="text_9">
      <!-- 400 -->
      <defs>
       <path d="M 37.796875 64.3125 
L 12.890625 25.390625 
L 37.796875 25.390625 
z
M 35.203125 72.90625 
L 47.609375 72.90625 
L 47.609375 25.390625 
L 58.015625 25.390625 
L 58.015625 17.1875 
L 47.609375 17.1875 
L 47.609375 0 
L 37.796875 0 
L 37.796875 17.1875 
L 4.890625 17.1875 
L 4.890625 26.703125 
z
" id="DejaVuSans-52"/>
      </defs>
      <g transform="translate(678.390213 351.757656)scale(0.1 -0.1)">
       <use xlink:href="#DejaVuSans-52"/>
       <use x="63.623047" xlink:href="#DejaVuSans-48"/>
       <use x="127.246094" xlink:href="#DejaVuSans-48"/>
      </g>
     </g>
    </g>
    <g id="text_10">
     <!-- Epoch -->
     <defs>
      <path d="M 9.8125 72.90625 
L 55.90625 72.90625 
L 55.90625 64.59375 
L 19.671875 64.59375 
L 19.671875 43.015625 
L 54.390625 43.015625 
L 54.390625 34.71875 
L 19.671875 34.71875 
L 19.671875 8.296875 
L 56.78125 8.296875 
L 56.78125 0 
L 9.8125 0 
z
" id="DejaVuSans-69"/>
      <path d="M 18.109375 8.203125 
L 18.109375 -20.796875 
L 9.078125 -20.796875 
L 9.078125 54.6875 
L 18.109375 54.6875 
L 18.109375 46.390625 
Q 20.953125 51.265625 25.265625 53.625 
Q 29.59375 56 35.59375 56 
Q 45.5625 56 51.78125 48.09375 
Q 58.015625 40.1875 58.015625 27.296875 
Q 58.015625 14.40625 51.78125 6.484375 
Q 45.5625 -1.421875 35.59375 -1.421875 
Q 29.59375 -1.421875 25.265625 0.953125 
Q 20.953125 3.328125 18.109375 8.203125 
z
M 48.6875 27.296875 
Q 48.6875 37.203125 44.609375 42.84375 
Q 40.53125 48.484375 33.40625 48.484375 
Q 26.265625 48.484375 22.1875 42.84375 
Q 18.109375 37.203125 18.109375 27.296875 
Q 18.109375 17.390625 22.1875 11.75 
Q 26.265625 6.109375 33.40625 6.109375 
Q 40.53125 6.109375 44.609375 11.75 
Q 48.6875 17.390625 48.6875 27.296875 
z
" id="DejaVuSans-112"/>
      <path d="M 30.609375 48.390625 
Q 23.390625 48.390625 19.1875 42.75 
Q 14.984375 37.109375 14.984375 27.296875 
Q 14.984375 17.484375 19.15625 11.84375 
Q 23.34375 6.203125 30.609375 6.203125 
Q 37.796875 6.203125 41.984375 11.859375 
Q 46.1875 17.53125 46.1875 27.296875 
Q 46.1875 37.015625 41.984375 42.703125 
Q 37.796875 48.390625 30.609375 48.390625 
z
M 30.609375 56 
Q 42.328125 56 49.015625 48.375 
Q 55.71875 40.765625 55.71875 27.296875 
Q 55.71875 13.875 49.015625 6.21875 
Q 42.328125 -1.421875 30.609375 -1.421875 
Q 18.84375 -1.421875 12.171875 6.21875 
Q 5.515625 13.875 5.515625 27.296875 
Q 5.515625 40.765625 12.171875 48.375 
Q 18.84375 56 30.609375 56 
z
" id="DejaVuSans-111"/>
      <path d="M 48.78125 52.59375 
L 48.78125 44.1875 
Q 44.96875 46.296875 41.140625 47.34375 
Q 37.3125 48.390625 33.40625 48.390625 
Q 24.65625 48.390625 19.8125 42.84375 
Q 14.984375 37.3125 14.984375 27.296875 
Q 14.984375 17.28125 19.8125 11.734375 
Q 24.65625 6.203125 33.40625 6.203125 
Q 37.3125 6.203125 41.140625 7.25 
Q 44.96875 8.296875 48.78125 10.40625 
L 48.78125 2.09375 
Q 45.015625 0.34375 40.984375 -0.53125 
Q 36.96875 -1.421875 32.421875 -1.421875 
Q 20.0625 -1.421875 12.78125 6.34375 
Q 5.515625 14.109375 5.515625 27.296875 
Q 5.515625 40.671875 12.859375 48.328125 
Q 20.21875 56 33.015625 56 
Q 37.15625 56 41.109375 55.140625 
Q 45.0625 54.296875 48.78125 52.59375 
z
" id="DejaVuSans-99"/>
      <path d="M 54.890625 33.015625 
L 54.890625 0 
L 45.90625 0 
L 45.90625 32.71875 
Q 45.90625 40.484375 42.875 44.328125 
Q 39.84375 48.1875 33.796875 48.1875 
Q 26.515625 48.1875 22.3125 43.546875 
Q 18.109375 38.921875 18.109375 30.90625 
L 18.109375 0 
L 9.078125 0 
L 9.078125 75.984375 
L 18.109375 75.984375 
L 18.109375 46.1875 
Q 21.34375 51.125 25.703125 53.5625 
Q 30.078125 56 35.796875 56 
Q 45.21875 56 50.046875 50.171875 
Q 54.890625 44.34375 54.890625 33.015625 
z
" id="DejaVuSans-104"/>
     </defs>
     <g transform="translate(369.632813 365.435781)scale(0.1 -0.1)">
      <use xlink:href="#DejaVuSans-69"/>
      <use x="63.183594" xlink:href="#DejaVuSans-112"/>
      <use x="126.660156" xlink:href="#DejaVuSans-111"/>
      <use x="187.841797" xlink:href="#DejaVuSans-99"/>
      <use x="242.822266" xlink:href="#DejaVuSans-104"/>
     </g>
    </g>
   </g>
   <g id="matplotlib.axis_2">
    <g id="ytick_1">
     <g id="line2d_19">
      <path clip-path="url(#pf085198808)" d="M 50.14375 337.159219 
L 719.74375 337.159219 
" style="fill:none;stroke:#b0b0b0;stroke-linecap:square;stroke-width:0.8;"/>
     </g>
     <g id="line2d_20">
      <defs>
       <path d="M 0 0 
L -3.5 0 
" id="ma31739a4dd" style="stroke:#000000;stroke-width:0.8;"/>
      </defs>
      <g>
       <use style="stroke:#000000;stroke-width:0.8;" x="50.14375" xlink:href="#ma31739a4dd" y="337.159219"/>
      </g>
     </g>
     <g id="text_11">
      <!-- 0.82 -->
      <defs>
       <path d="M 10.6875 12.40625 
L 21 12.40625 
L 21 0 
L 10.6875 0 
z
" id="DejaVuSans-46"/>
       <path d="M 31.78125 34.625 
Q 24.75 34.625 20.71875 30.859375 
Q 16.703125 27.09375 16.703125 20.515625 
Q 16.703125 13.921875 20.71875 10.15625 
Q 24.75 6.390625 31.78125 6.390625 
Q 38.8125 6.390625 42.859375 10.171875 
Q 46.921875 13.96875 46.921875 20.515625 
Q 46.921875 27.09375 42.890625 30.859375 
Q 38.875 34.625 31.78125 34.625 
z
M 21.921875 38.8125 
Q 15.578125 40.375 12.03125 44.71875 
Q 8.5 49.078125 8.5 55.328125 
Q 8.5 64.0625 14.71875 69.140625 
Q 20.953125 74.21875 31.78125 74.21875 
Q 42.671875 74.21875 48.875 69.140625 
Q 55.078125 64.0625 55.078125 55.328125 
Q 55.078125 49.078125 51.53125 44.71875 
Q 48 40.375 41.703125 38.8125 
Q 48.828125 37.15625 52.796875 32.3125 
Q 56.78125 27.484375 56.78125 20.515625 
Q 56.78125 9.90625 50.3125 4.234375 
Q 43.84375 -1.421875 31.78125 -1.421875 
Q 19.734375 -1.421875 13.25 4.234375 
Q 6.78125 9.90625 6.78125 20.515625 
Q 6.78125 27.484375 10.78125 32.3125 
Q 14.796875 37.15625 21.921875 38.8125 
z
M 18.3125 54.390625 
Q 18.3125 48.734375 21.84375 45.5625 
Q 25.390625 42.390625 31.78125 42.390625 
Q 38.140625 42.390625 41.71875 45.5625 
Q 45.3125 48.734375 45.3125 54.390625 
Q 45.3125 60.0625 41.71875 63.234375 
Q 38.140625 66.40625 31.78125 66.40625 
Q 25.390625 66.40625 21.84375 63.234375 
Q 18.3125 60.0625 18.3125 54.390625 
z
" id="DejaVuSans-56"/>
      </defs>
      <g transform="translate(20.878125 340.958437)scale(0.1 -0.1)">
       <use xlink:href="#DejaVuSans-48"/>
       <use x="63.623047" xlink:href="#DejaVuSans-46"/>
       <use x="95.410156" xlink:href="#DejaVuSans-56"/>
       <use x="159.033203" xlink:href="#DejaVuSans-50"/>
      </g>
     </g>
    </g>
    <g id="ytick_2">
     <g id="line2d_21">
      <path clip-path="url(#pf085198808)" d="M 50.14375 296.389219 
L 719.74375 296.389219 
" style="fill:none;stroke:#b0b0b0;stroke-linecap:square;stroke-width:0.8;"/>
     </g>
     <g id="line2d_22">
      <g>
       <use style="stroke:#000000;stroke-width:0.8;" x="50.14375" xlink:href="#ma31739a4dd" y="296.389219"/>
      </g>
     </g>
     <g id="text_12">
      <!-- 0.84 -->
      <g transform="translate(20.878125 300.188437)scale(0.1 -0.1)">
       <use xlink:href="#DejaVuSans-48"/>
       <use x="63.623047" xlink:href="#DejaVuSans-46"/>
       <use x="95.410156" xlink:href="#DejaVuSans-56"/>
       <use x="159.033203" xlink:href="#DejaVuSans-52"/>
      </g>
     </g>
    </g>
    <g id="ytick_3">
     <g id="line2d_23">
      <path clip-path="url(#pf085198808)" d="M 50.14375 255.619219 
L 719.74375 255.619219 
" style="fill:none;stroke:#b0b0b0;stroke-linecap:square;stroke-width:0.8;"/>
     </g>
     <g id="line2d_24">
      <g>
       <use style="stroke:#000000;stroke-width:0.8;" x="50.14375" xlink:href="#ma31739a4dd" y="255.619219"/>
      </g>
     </g>
     <g id="text_13">
      <!-- 0.86 -->
      <defs>
       <path d="M 33.015625 40.375 
Q 26.375 40.375 22.484375 35.828125 
Q 18.609375 31.296875 18.609375 23.390625 
Q 18.609375 15.53125 22.484375 10.953125 
Q 26.375 6.390625 33.015625 6.390625 
Q 39.65625 6.390625 43.53125 10.953125 
Q 47.40625 15.53125 47.40625 23.390625 
Q 47.40625 31.296875 43.53125 35.828125 
Q 39.65625 40.375 33.015625 40.375 
z
M 52.59375 71.296875 
L 52.59375 62.3125 
Q 48.875 64.0625 45.09375 64.984375 
Q 41.3125 65.921875 37.59375 65.921875 
Q 27.828125 65.921875 22.671875 59.328125 
Q 17.53125 52.734375 16.796875 39.40625 
Q 19.671875 43.65625 24.015625 45.921875 
Q 28.375 48.1875 33.59375 48.1875 
Q 44.578125 48.1875 50.953125 41.515625 
Q 57.328125 34.859375 57.328125 23.390625 
Q 57.328125 12.15625 50.6875 5.359375 
Q 44.046875 -1.421875 33.015625 -1.421875 
Q 20.359375 -1.421875 13.671875 8.265625 
Q 6.984375 17.96875 6.984375 36.375 
Q 6.984375 53.65625 15.1875 63.9375 
Q 23.390625 74.21875 37.203125 74.21875 
Q 40.921875 74.21875 44.703125 73.484375 
Q 48.484375 72.75 52.59375 71.296875 
z
" id="DejaVuSans-54"/>
      </defs>
      <g transform="translate(20.878125 259.418437)scale(0.1 -0.1)">
       <use xlink:href="#DejaVuSans-48"/>
       <use x="63.623047" xlink:href="#DejaVuSans-46"/>
       <use x="95.410156" xlink:href="#DejaVuSans-56"/>
       <use x="159.033203" xlink:href="#DejaVuSans-54"/>
      </g>
     </g>
    </g>
    <g id="ytick_4">
     <g id="line2d_25">
      <path clip-path="url(#pf085198808)" d="M 50.14375 214.849219 
L 719.74375 214.849219 
" style="fill:none;stroke:#b0b0b0;stroke-linecap:square;stroke-width:0.8;"/>
     </g>
     <g id="line2d_26">
      <g>
       <use style="stroke:#000000;stroke-width:0.8;" x="50.14375" xlink:href="#ma31739a4dd" y="214.849219"/>
      </g>
     </g>
     <g id="text_14">
      <!-- 0.88 -->
      <g transform="translate(20.878125 218.648437)scale(0.1 -0.1)">
       <use xlink:href="#DejaVuSans-48"/>
       <use x="63.623047" xlink:href="#DejaVuSans-46"/>
       <use x="95.410156" xlink:href="#DejaVuSans-56"/>
       <use x="159.033203" xlink:href="#DejaVuSans-56"/>
      </g>
     </g>
    </g>
    <g id="ytick_5">
     <g id="line2d_27">
      <path clip-path="url(#pf085198808)" d="M 50.14375 174.079219 
L 719.74375 174.079219 
" style="fill:none;stroke:#b0b0b0;stroke-linecap:square;stroke-width:0.8;"/>
     </g>
     <g id="line2d_28">
      <g>
       <use style="stroke:#000000;stroke-width:0.8;" x="50.14375" xlink:href="#ma31739a4dd" y="174.079219"/>
      </g>
     </g>
     <g id="text_15">
      <!-- 0.90 -->
      <defs>
       <path d="M 10.984375 1.515625 
L 10.984375 10.5 
Q 14.703125 8.734375 18.5 7.8125 
Q 22.3125 6.890625 25.984375 6.890625 
Q 35.75 6.890625 40.890625 13.453125 
Q 46.046875 20.015625 46.78125 33.40625 
Q 43.953125 29.203125 39.59375 26.953125 
Q 35.25 24.703125 29.984375 24.703125 
Q 19.046875 24.703125 12.671875 31.3125 
Q 6.296875 37.9375 6.296875 49.421875 
Q 6.296875 60.640625 12.9375 67.421875 
Q 19.578125 74.21875 30.609375 74.21875 
Q 43.265625 74.21875 49.921875 64.515625 
Q 56.59375 54.828125 56.59375 36.375 
Q 56.59375 19.140625 48.40625 8.859375 
Q 40.234375 -1.421875 26.421875 -1.421875 
Q 22.703125 -1.421875 18.890625 -0.6875 
Q 15.09375 0.046875 10.984375 1.515625 
z
M 30.609375 32.421875 
Q 37.25 32.421875 41.125 36.953125 
Q 45.015625 41.5 45.015625 49.421875 
Q 45.015625 57.28125 41.125 61.84375 
Q 37.25 66.40625 30.609375 66.40625 
Q 23.96875 66.40625 20.09375 61.84375 
Q 16.21875 57.28125 16.21875 49.421875 
Q 16.21875 41.5 20.09375 36.953125 
Q 23.96875 32.421875 30.609375 32.421875 
z
" id="DejaVuSans-57"/>
      </defs>
      <g transform="translate(20.878125 177.878437)scale(0.1 -0.1)">
       <use xlink:href="#DejaVuSans-48"/>
       <use x="63.623047" xlink:href="#DejaVuSans-46"/>
       <use x="95.410156" xlink:href="#DejaVuSans-57"/>
       <use x="159.033203" xlink:href="#DejaVuSans-48"/>
      </g>
     </g>
    </g>
    <g id="ytick_6">
     <g id="line2d_29">
      <path clip-path="url(#pf085198808)" d="M 50.14375 133.309219 
L 719.74375 133.309219 
" style="fill:none;stroke:#b0b0b0;stroke-linecap:square;stroke-width:0.8;"/>
     </g>
     <g id="line2d_30">
      <g>
       <use style="stroke:#000000;stroke-width:0.8;" x="50.14375" xlink:href="#ma31739a4dd" y="133.309219"/>
      </g>
     </g>
     <g id="text_16">
      <!-- 0.92 -->
      <g transform="translate(20.878125 137.108437)scale(0.1 -0.1)">
       <use xlink:href="#DejaVuSans-48"/>
       <use x="63.623047" xlink:href="#DejaVuSans-46"/>
       <use x="95.410156" xlink:href="#DejaVuSans-57"/>
       <use x="159.033203" xlink:href="#DejaVuSans-50"/>
      </g>
     </g>
    </g>
    <g id="ytick_7">
     <g id="line2d_31">
      <path clip-path="url(#pf085198808)" d="M 50.14375 92.539219 
L 719.74375 92.539219 
" style="fill:none;stroke:#b0b0b0;stroke-linecap:square;stroke-width:0.8;"/>
     </g>
     <g id="line2d_32">
      <g>
       <use style="stroke:#000000;stroke-width:0.8;" x="50.14375" xlink:href="#ma31739a4dd" y="92.539219"/>
      </g>
     </g>
     <g id="text_17">
      <!-- 0.94 -->
      <g transform="translate(20.878125 96.338437)scale(0.1 -0.1)">
       <use xlink:href="#DejaVuSans-48"/>
       <use x="63.623047" xlink:href="#DejaVuSans-46"/>
       <use x="95.410156" xlink:href="#DejaVuSans-57"/>
       <use x="159.033203" xlink:href="#DejaVuSans-52"/>
      </g>
     </g>
    </g>
    <g id="ytick_8">
     <g id="line2d_33">
      <path clip-path="url(#pf085198808)" d="M 50.14375 51.769219 
L 719.74375 51.769219 
" style="fill:none;stroke:#b0b0b0;stroke-linecap:square;stroke-width:0.8;"/>
     </g>
     <g id="line2d_34">
      <g>
       <use style="stroke:#000000;stroke-width:0.8;" x="50.14375" xlink:href="#ma31739a4dd" y="51.769219"/>
      </g>
     </g>
     <g id="text_18">
      <!-- 0.96 -->
      <g transform="translate(20.878125 55.568437)scale(0.1 -0.1)">
       <use xlink:href="#DejaVuSans-48"/>
       <use x="63.623047" xlink:href="#DejaVuSans-46"/>
       <use x="95.410156" xlink:href="#DejaVuSans-57"/>
       <use x="159.033203" xlink:href="#DejaVuSans-54"/>
      </g>
     </g>
    </g>
    <g id="ytick_9">
     <g id="line2d_35">
      <path clip-path="url(#pf085198808)" d="M 50.14375 10.999219 
L 719.74375 10.999219 
" style="fill:none;stroke:#b0b0b0;stroke-linecap:square;stroke-width:0.8;"/>
     </g>
     <g id="line2d_36">
      <g>
       <use style="stroke:#000000;stroke-width:0.8;" x="50.14375" xlink:href="#ma31739a4dd" y="10.999219"/>
      </g>
     </g>
     <g id="text_19">
      <!-- 0.98 -->
      <g transform="translate(20.878125 14.798437)scale(0.1 -0.1)">
       <use xlink:href="#DejaVuSans-48"/>
       <use x="63.623047" xlink:href="#DejaVuSans-46"/>
       <use x="95.410156" xlink:href="#DejaVuSans-57"/>
       <use x="159.033203" xlink:href="#DejaVuSans-56"/>
      </g>
     </g>
    </g>
    <g id="text_20">
     <!-- Accuracy -->
     <defs>
      <path d="M 34.1875 63.1875 
L 20.796875 26.90625 
L 47.609375 26.90625 
z
M 28.609375 72.90625 
L 39.796875 72.90625 
L 67.578125 0 
L 57.328125 0 
L 50.6875 18.703125 
L 17.828125 18.703125 
L 11.1875 0 
L 0.78125 0 
z
" id="DejaVuSans-65"/>
      <path d="M 8.5 21.578125 
L 8.5 54.6875 
L 17.484375 54.6875 
L 17.484375 21.921875 
Q 17.484375 14.15625 20.5 10.265625 
Q 23.53125 6.390625 29.59375 6.390625 
Q 36.859375 6.390625 41.078125 11.03125 
Q 45.3125 15.671875 45.3125 23.6875 
L 45.3125 54.6875 
L 54.296875 54.6875 
L 54.296875 0 
L 45.3125 0 
L 45.3125 8.40625 
Q 42.046875 3.421875 37.71875 1 
Q 33.40625 -1.421875 27.6875 -1.421875 
Q 18.265625 -1.421875 13.375 4.4375 
Q 8.5 10.296875 8.5 21.578125 
z
M 31.109375 56 
z
" id="DejaVuSans-117"/>
      <path d="M 41.109375 46.296875 
Q 39.59375 47.171875 37.8125 47.578125 
Q 36.03125 48 33.890625 48 
Q 26.265625 48 22.1875 43.046875 
Q 18.109375 38.09375 18.109375 28.8125 
L 18.109375 0 
L 9.078125 0 
L 9.078125 54.6875 
L 18.109375 54.6875 
L 18.109375 46.1875 
Q 20.953125 51.171875 25.484375 53.578125 
Q 30.03125 56 36.53125 56 
Q 37.453125 56 38.578125 55.875 
Q 39.703125 55.765625 41.0625 55.515625 
z
" id="DejaVuSans-114"/>
      <path d="M 34.28125 27.484375 
Q 23.390625 27.484375 19.1875 25 
Q 14.984375 22.515625 14.984375 16.5 
Q 14.984375 11.71875 18.140625 8.90625 
Q 21.296875 6.109375 26.703125 6.109375 
Q 34.1875 6.109375 38.703125 11.40625 
Q 43.21875 16.703125 43.21875 25.484375 
L 43.21875 27.484375 
z
M 52.203125 31.203125 
L 52.203125 0 
L 43.21875 0 
L 43.21875 8.296875 
Q 40.140625 3.328125 35.546875 0.953125 
Q 30.953125 -1.421875 24.3125 -1.421875 
Q 15.921875 -1.421875 10.953125 3.296875 
Q 6 8.015625 6 15.921875 
Q 6 25.140625 12.171875 29.828125 
Q 18.359375 34.515625 30.609375 34.515625 
L 43.21875 34.515625 
L 43.21875 35.40625 
Q 43.21875 41.609375 39.140625 45 
Q 35.0625 48.390625 27.6875 48.390625 
Q 23 48.390625 18.546875 47.265625 
Q 14.109375 46.140625 10.015625 43.890625 
L 10.015625 52.203125 
Q 14.9375 54.109375 19.578125 55.046875 
Q 24.21875 56 28.609375 56 
Q 40.484375 56 46.34375 49.84375 
Q 52.203125 43.703125 52.203125 31.203125 
z
" id="DejaVuSans-97"/>
      <path d="M 32.171875 -5.078125 
Q 28.375 -14.84375 24.75 -17.8125 
Q 21.140625 -20.796875 15.09375 -20.796875 
L 7.90625 -20.796875 
L 7.90625 -13.28125 
L 13.1875 -13.28125 
Q 16.890625 -13.28125 18.9375 -11.515625 
Q 21 -9.765625 23.484375 -3.21875 
L 25.09375 0.875 
L 2.984375 54.6875 
L 12.5 54.6875 
L 29.59375 11.921875 
L 46.6875 54.6875 
L 56.203125 54.6875 
z
" id="DejaVuSans-121"/>
     </defs>
     <g transform="translate(14.798438 196.994062)rotate(-90)scale(0.1 -0.1)">
      <use xlink:href="#DejaVuSans-65"/>
      <use x="68.392578" xlink:href="#DejaVuSans-99"/>
      <use x="123.373047" xlink:href="#DejaVuSans-99"/>
      <use x="178.353516" xlink:href="#DejaVuSans-117"/>
      <use x="241.732422" xlink:href="#DejaVuSans-114"/>
      <use x="282.845703" xlink:href="#DejaVuSans-97"/>
      <use x="344.125" xlink:href="#DejaVuSans-99"/>
      <use x="399.105469" xlink:href="#DejaVuSans-121"/>
     </g>
    </g>
   </g>
   <g id="line2d_37">
    <path clip-path="url(#pf085198808)" d="M 85.939648 375.715469 
L 87.400849 366.671453 
L 89.311347 356.147582 
L 91.858677 343.588329 
L 95.04284 329.107984 
L 98.227003 315.730981 
L 101.411166 303.386897 
L 104.595329 292.00531 
L 107.779492 281.515795 
L 110.963655 271.847931 
L 114.147817 262.931293 
L 117.33198 254.695458 
L 120.516143 247.070003 
L 123.700306 239.984505 
L 126.884469 233.368541 
L 130.705464 225.950013 
L 134.52646 218.993389 
L 138.347455 212.451043 
L 142.16845 206.304403 
L 145.989446 200.535027 
L 149.810441 195.124477 
L 153.631437 190.054312 
L 157.452432 185.306093 
L 161.91026 180.148807 
L 166.368088 175.375345 
L 170.825916 170.956425 
L 175.283744 166.862766 
L 179.741572 163.065085 
L 184.1994 159.534102 
L 189.294061 155.787697 
L 194.388721 152.307677 
L 200.120214 148.656645 
L 207.125373 144.48622 
L 215.404196 139.829056 
L 224.956685 134.712384 
L 234.509173 129.856302 
L 244.061662 125.249976 
L 253.61415 120.882569 
L 263.803471 116.475134 
L 273.992793 112.314056 
L 284.182114 108.386185 
L 295.008267 104.453636 
L 305.834421 100.753736 
L 317.297407 97.072242 
L 329.397226 93.429306 
L 341.497045 90.014391 
L 354.870529 86.478776 
L 368.880845 83.012311 
L 383.527995 79.614606 
L 398.811976 76.296283 
L 414.732791 73.071271 
L 431.290437 69.95095 
L 448.484917 66.943762 
L 466.316229 64.054808 
L 484.784373 61.285437 
L 504.526183 58.547792 
L 526.17849 55.774379 
L 549.741295 52.982924 
L 577.125096 49.968684 
L 612.78772 46.284948 
L 687.933963 38.657745 
L 687.933963 38.657745 
" style="fill:none;stroke:#377eb8;stroke-linecap:square;stroke-width:2;"/>
   </g>
   <g id="line2d_38">
    <path clip-path="url(#pf085198808)" d="M 79.489547 375.715469 
L 80.395691 367.429998 
L 81.669356 357.230813 
L 82.943021 348.475718 
L 84.216687 340.988849 
L 85.490352 334.594345 
L 86.764017 329.116345 
L 88.037682 324.378986 
L 89.94818 318.276952 
L 92.49551 311.101903 
L 96.316505 300.973904 
L 100.137501 291.469663 
L 103.958496 282.563012 
L 107.779492 274.227785 
L 111.600487 266.437814 
L 115.421483 259.166931 
L 119.242478 252.388969 
L 123.063473 246.077762 
L 126.884469 240.207141 
L 130.705464 234.750939 
L 134.52646 229.683766 
L 138.347455 224.985934 
L 142.16845 220.6403 
L 145.989446 216.629728 
L 149.810441 212.937087 
L 153.631437 209.545242 
L 157.452432 206.43706 
L 161.273428 203.595409 
L 165.094423 201.003154 
L 169.552251 198.271209 
L 174.010079 195.828193 
L 178.467907 193.646899 
L 182.925735 191.700121 
L 188.020396 189.727491 
L 193.115056 187.985018 
L 198.846549 186.249279 
L 205.851708 184.369256 
L 215.404196 182.056851 
L 226.867182 179.496277 
L 238.967001 177.020741 
L 251.703653 174.648039 
L 265.077137 172.391889 
L 279.087453 170.261155 
L 293.734602 168.259044 
L 309.655416 166.30824 
L 327.486728 164.353736 
L 347.865371 162.348135 
L 375.249171 159.894032 
L 410.911795 156.914909 
L 444.663921 154.315287 
L 477.142382 152.036941 
L 508.347178 150.072915 
L 538.278309 148.412841 
L 566.935775 147.04338 
L 594.956408 145.925775 
L 622.340208 145.057477 
L 649.087176 144.434591 
L 675.197312 144.05197 
L 687.933963 143.949295 
L 687.933963 143.949295 
" style="fill:none;stroke:#4daf4a;stroke-linecap:square;stroke-width:2;"/>
   </g>
   <g id="line2d_39">
    <path clip-path="url(#pf085198808)" d="M 86.918236 375.715469 
L 90.005638 354.588384 
L 91.600114 348.371021 
L 94.789065 331.451458 
L 96.38354 326.202239 
L 97.978016 318.201197 
L 99.572492 309.282676 
L 101.166967 303.422049 
L 102.761443 299.396012 
L 104.355918 285.941866 
L 105.950394 287.470752 
L 107.544869 281.966861 
L 109.139345 279.520619 
L 110.73382 268.563747 
L 112.328296 264.792504 
L 113.922771 258.778903 
L 115.517247 255.721132 
L 118.706198 251.898978 
L 120.300673 242.878637 
L 121.895149 236.304417 
L 123.489625 238.444833 
L 125.0841 240.279544 
L 126.678576 229.679286 
L 128.273051 222.952213 
L 129.867527 224.379157 
L 131.462002 225.500397 
L 133.056478 220.455062 
L 134.650953 219.74159 
L 137.839904 211.536663 
L 139.43438 206.134592 
L 141.028855 202.414381 
L 142.623331 207.051948 
L 144.217806 200.630701 
L 145.812282 198.592227 
L 147.406758 194.413216 
L 149.001233 197.674871 
L 150.595709 196.910368 
L 152.190184 191.967096 
L 153.78466 189.928501 
L 155.379135 191.457387 
L 156.973611 189.673707 
L 158.568086 180.500514 
L 160.162562 185.953495 
L 161.757037 179.430307 
L 163.351513 180.908161 
L 164.945988 180.500514 
L 166.540464 178.818777 
L 168.134939 176.015799 
L 169.729415 167.352195 
L 171.32389 177.136917 
L 172.918366 168.065666 
L 174.512842 171.633026 
L 176.107317 165.925251 
L 177.701793 168.575255 
L 179.296268 165.874219 
L 180.890744 166.536781 
L 182.485219 160.829006 
L 184.079695 160.47227 
L 185.67417 158.79041 
L 187.268646 160.727064 
L 188.863121 156.548174 
L 190.457597 155.783671 
L 192.052072 156.802968 
L 193.646548 155.223051 
L 195.241023 150.585484 
L 196.835499 152.929783 
L 198.429975 151.248045 
L 200.02445 148.190274 
L 201.618926 146.20271 
L 203.213401 145.998827 
L 204.807877 149.71916 
L 206.402352 144.877709 
L 207.996828 143.195971 
L 209.591303 145.234445 
L 211.185779 141.667085 
L 212.780254 141.819937 
L 214.37473 144.317089 
L 215.969205 137.13146 
L 217.563681 135.041954 
L 219.158156 138.456462 
L 220.752632 135.755426 
L 222.347108 135.602574 
L 223.941583 134.940012 
L 225.536059 134.073688 
L 227.130534 136.774724 
L 228.72501 131.780299 
L 230.319485 130.812033 
L 231.913961 127.193763 
L 233.508436 132.391951 
L 235.102912 127.142732 
L 236.697387 128.773559 
L 238.291863 132.952449 
L 239.886338 128.263971 
L 241.480814 125.86864 
L 243.075289 121.842603 
L 244.669765 121.791693 
L 246.264241 122.658017 
L 247.858716 119.906071 
L 249.453192 123.269547 
L 251.047667 120.619543 
L 252.642143 122.403223 
L 254.236618 119.192599 
L 255.831094 116.287801 
L 257.425569 121.02731 
L 259.020045 120.721485 
L 260.61452 121.333015 
L 262.208996 117.45983 
L 263.803471 117.45983 
L 265.397947 110.477963 
L 266.992422 114.045444 
L 268.586898 115.421356 
L 270.181374 112.210732 
L 271.775849 111.49726 
L 273.370325 113.484824 
L 274.9648 108.898167 
L 276.559276 111.49726 
L 278.153751 108.235727 
L 279.748227 107.675107 
L 281.342702 106.248163 
L 282.937178 106.859693 
L 284.531653 110.019406 
L 286.126129 105.076013 
L 287.720604 108.388579 
L 289.31508 106.808661 
L 290.909555 106.808661 
L 292.504031 102.782624 
L 294.098507 104.464483 
L 295.692982 104.107747 
L 297.287458 106.502957 
L 298.881933 103.445186 
L 300.476409 103.190392 
L 302.070884 99.470059 
L 303.66536 101.712416 
L 305.259835 107.267339 
L 306.854311 99.775884 
L 308.448786 101.151918 
L 310.043262 103.445186 
L 311.637737 98.399851 
L 313.232213 99.979768 
L 314.826688 96.412409 
L 316.421164 97.482617 
L 318.01564 99.470059 
L 319.610115 94.017078 
L 321.204591 97.482617 
L 322.799066 95.393111 
L 324.393542 96.055673 
L 325.988017 91.72381 
L 327.582493 93.966167 
L 329.176968 95.291169 
L 330.771444 90.042072 
L 332.365919 88.971864 
L 333.960395 94.934433 
L 335.55487 92.233398 
L 337.149346 88.615128 
L 338.743821 89.532484 
L 340.338297 86.729507 
L 341.932773 92.28443 
L 343.527248 90.755544 
L 345.121724 88.71707 
L 346.716199 92.33534 
L 348.310675 86.270829 
L 351.499626 85.404505 
L 353.094101 86.780417 
L 354.688577 91.010338 
L 356.283052 83.518883 
L 357.877528 83.060205 
L 359.472003 86.066945 
L 361.066479 83.111115 
L 362.660954 84.130413 
L 364.25543 82.295702 
L 365.849905 85.455415 
L 367.444381 89.532484 
L 369.038857 81.429378 
L 370.633332 80.613964 
L 372.227808 85.863183 
L 373.822283 78.728342 
L 375.416759 81.53132 
L 377.011234 79.543756 
L 378.60571 79.13611 
L 380.200185 83.365909 
L 381.794661 75.364867 
L 383.389136 81.276525 
L 384.983612 81.429378 
L 386.578087 80.715906 
L 388.172563 81.174584 
L 389.767038 77.046604 
L 391.361514 74.090775 
L 392.95599 78.116812 
L 394.550465 79.951524 
L 396.144941 77.912928 
L 397.739416 77.862018 
L 399.333892 74.957099 
L 400.928367 74.906189 
L 402.522843 77.097636 
L 404.117318 74.498543 
L 405.711794 77.148546 
L 407.306269 71.950359 
L 408.900745 76.435074 
L 410.49522 72.816683 
L 412.089696 77.607224 
L 413.684171 74.294659 
L 415.278647 71.440771 
L 416.873123 69.860854 
L 418.467598 69.962796 
L 420.062074 74.090775 
L 421.656549 69.962796 
L 423.251025 69.60606 
L 424.8455 71.746475 
L 426.439976 69.911885 
L 428.034451 73.377303 
L 429.628927 68.94362 
L 431.223402 72.001391 
L 432.817878 71.848417 
L 434.412353 65.783906 
L 436.006829 69.657091 
L 437.601304 71.542713 
L 439.19578 68.688826 
L 440.790256 65.478081 
L 442.384731 65.42717 
L 443.979207 68.179116 
L 445.573682 70.21759 
L 447.168158 69.504118 
L 448.762633 64.153079 
L 450.357109 72.765773 
L 451.951584 67.975354 
L 453.54606 67.363702 
L 455.140535 66.905024 
L 456.735011 65.885848 
L 458.329486 62.420431 
L 459.923962 66.59932 
L 461.518437 66.0387 
L 463.112913 63.490638 
L 464.707389 66.497378 
L 466.301864 65.529112 
L 467.89634 63.796343 
L 469.490815 64.000227 
L 471.085291 66.0387 
L 472.679766 61.248281 
L 474.274242 59.719395 
L 475.868717 62.777167 
L 477.463193 61.859811 
L 479.057668 60.330925 
L 480.652144 61.044397 
L 482.246619 58.85295 
L 483.841095 64.458904 
L 485.43557 61.197249 
L 487.030046 61.553985 
L 488.624522 60.789603 
L 490.218997 58.445304 
L 491.813473 62.878987 
L 493.407948 58.802039 
L 495.002424 58.343362 
L 496.596899 59.821337 
L 498.191375 59.617453 
L 499.78585 57.731832 
L 501.380326 62.726135 
L 502.974801 58.394393 
L 504.569277 58.292451 
L 506.163752 56.202946 
L 507.758228 57.884684 
L 509.352703 57.527948 
L 510.947179 55.897242 
L 512.541655 58.802039 
L 514.13613 55.387532 
L 515.730606 55.540384 
L 517.325081 54.826912 
L 518.919557 57.477038 
L 520.514032 58.496214 
L 522.108508 54.368356 
L 523.702983 54.877944 
L 525.297459 57.06927 
L 526.891934 54.67406 
L 528.48641 53.501911 
L 530.080885 57.375096 
L 531.675361 53.399969 
L 533.269836 57.680921 
L 534.864312 53.756705 
L 536.458788 55.23468 
L 538.053263 51.820173 
L 539.647739 54.521208 
L 541.242214 54.368356 
L 544.431165 52.329761 
L 546.025641 57.527948 
L 547.620116 54.11344 
L 549.214592 52.941412 
L 550.809067 53.451 
L 552.403543 56.101004 
L 553.998018 53.501911 
L 555.592494 53.043233 
L 557.186969 52.329761 
L 558.781445 51.208643 
L 560.37592 54.725092 
L 561.970396 51.412527 
L 563.564872 52.788439 
L 565.159347 46.061366 
L 566.753823 50.444139 
L 568.348298 51.820173 
L 569.942774 51.106701 
L 571.537249 49.832609 
L 573.131725 50.800875 
L 574.7262 50.138435 
L 576.320676 51.310585 
L 577.915151 47.794135 
L 579.509627 49.068227 
L 581.104102 49.985583 
L 582.698578 47.131574 
L 584.293053 48.813433 
L 585.887529 52.074967 
L 587.482005 47.896077 
L 589.07648 44.940248 
L 590.670956 48.303723 
L 592.265431 45.959545 
L 593.859907 50.087403 
L 595.454382 47.080664 
L 597.048858 52.431703 
L 598.643333 46.978722 
L 600.237809 49.526905 
L 601.832284 45.144132 
L 603.42676 48.048929 
L 605.021235 45.70463 
L 606.615711 47.539341 
L 608.210186 46.87678 
L 609.804662 50.749965 
L 611.399138 43.513304 
L 612.993613 48.201903 
L 614.588089 45.551778 
L 616.182564 46.26525 
L 617.77704 44.022892 
L 619.371515 40.353591 
L 620.965991 46.87678 
L 622.560466 46.774838 
L 624.154942 44.838306 
L 625.749417 44.175866 
L 627.343893 43.360452 
L 628.938368 47.437399 
L 630.532844 45.806572 
L 632.127319 44.991158 
L 633.721795 45.500868 
L 635.316271 42.69789 
L 636.910746 43.207478 
L 638.505222 45.398926 
L 640.099697 42.7488 
L 641.694173 43.971982 
L 643.288648 44.634422 
L 644.883124 39.589209 
L 646.477599 43.564214 
L 648.072075 42.494006 
L 649.66655 43.768098 
L 651.261026 41.525741 
L 652.855501 42.290244 
L 654.449977 41.780535 
L 656.044452 38.111233 
L 657.638928 41.067063 
L 659.233404 43.30942 
L 660.827879 43.003716 
L 662.422355 40.812269 
L 664.01683 43.054626 
L 667.205781 40.047887 
L 668.800257 39.844003 
L 670.394732 41.780535 
L 671.989208 37.346851 
L 675.178159 40.8633 
L 676.772634 39.283383 
L 678.36711 38.824705 
L 679.961585 37.244909 
L 681.556061 39.232473 
L 683.150537 42.69789 
L 684.745012 40.812269 
L 686.339488 38.671853 
L 687.933963 39.844003 
L 687.933963 39.844003 
" style="fill:none;stroke:#377eb8;stroke-linecap:square;stroke-opacity:0.25098;stroke-width:1.5;"/>
   </g>
   <g id="line2d_40">
    <path clip-path="url(#pf085198808)" d="M 79.916164 375.715469 
L 80.438785 364.552569 
L 81.091081 375.715469 
M 83.750796 375.715469 
L 85.222212 337.471013 
L 86.816687 336.855595 
L 88.411163 345.267321 
L 90.005638 324.545774 
L 91.600114 342.189866 
L 93.194589 318.801184 
L 94.789065 308.543081 
L 96.38354 288.642294 
L 97.978016 288.231975 
L 99.572492 286.795797 
L 101.166967 281.461525 
L 102.761443 296.028162 
L 104.355918 275.306615 
L 105.950394 248.019961 
L 107.544869 280.025469 
L 109.139345 270.587883 
L 110.73382 265.664052 
L 112.328296 267.305329 
L 113.922771 250.276777 
L 115.517247 261.765959 
L 117.111722 246.583783 
L 118.706198 244.327087 
L 120.300673 246.173463 
L 121.895149 236.94122 
L 123.489625 243.506449 
L 125.0841 243.301229 
L 126.678576 229.965671 
L 128.273051 221.143625 
L 129.867527 250.071557 
L 131.462002 218.271391 
L 133.056478 225.041719 
L 134.650953 240.223774 
L 136.245429 216.014574 
L 137.839904 217.861071 
L 139.43438 231.606948 
L 141.028855 223.400442 
L 142.623331 217.245532 
L 144.217806 215.604255 
L 145.812282 217.861071 
L 147.406758 228.119174 
L 149.001233 232.837906 
L 150.595709 207.192528 
L 152.190184 233.658544 
L 153.78466 214.783616 
L 155.379135 201.037618 
L 156.973611 191.805253 
L 158.568086 201.858256 
L 160.162562 209.654444 
L 161.757037 213.552537 
L 163.351513 202.268576 
L 164.945988 205.140932 
L 166.540464 211.295842 
L 168.134939 189.548558 
L 169.729415 203.704754 
L 171.32389 194.882708 
L 172.918366 198.370482 
L 174.512842 188.522699 
L 176.107317 203.089214 
L 177.701793 211.91126 
L 179.296268 194.062069 
L 180.890744 198.370482 
L 182.485219 198.165383 
L 184.079695 196.318886 
L 185.67417 197.755064 
L 187.268646 193.446651 
L 188.863121 186.265882 
L 190.457597 185.240145 
L 192.052072 197.344745 
L 193.646548 174.161283 
L 195.241023 189.548558 
L 196.835499 193.856971 
L 198.429975 185.650464 
L 200.02445 190.984614 
L 201.618926 182.16269 
L 203.213401 194.472389 
L 204.807877 170.057969 
L 206.402352 189.343337 
L 207.996828 189.958877 
L 209.591303 173.340644 
L 211.185779 188.11238 
L 212.780254 167.596053 
L 214.37473 187.49684 
L 215.969205 173.750963 
L 217.563681 182.573009 
L 220.752632 168.211593 
L 222.347108 181.34193 
L 223.941583 173.135424 
L 225.536059 176.212879 
L 227.130534 169.647649 
L 228.72501 165.339237 
L 231.913961 188.727919 
L 233.508436 160.825725 
L 235.102912 173.340644 
L 236.697387 165.134138 
L 238.291863 165.134138 
L 239.886338 177.238738 
L 241.480814 171.289048 
L 243.075289 183.803967 
L 244.669765 180.931611 
L 246.264241 174.571602 
L 247.858716 176.828418 
L 249.453192 186.060784 
L 251.047667 179.290334 
L 252.642143 169.23733 
L 254.236618 172.725105 
L 255.831094 170.878729 
L 257.425569 174.571602 
L 259.020045 171.083828 
L 260.61452 180.110972 
L 262.208996 181.95747 
L 263.803471 176.623198 
L 265.397947 174.776822 
L 266.992422 177.854277 
L 268.586898 164.108279 
L 270.181374 173.340644 
L 271.775849 173.545743 
L 273.370325 168.211593 
L 274.9648 170.263189 
L 276.559276 157.337951 
L 278.153751 180.521292 
L 279.748227 168.827011 
L 281.342702 167.596053 
L 282.937178 173.956062 
L 284.531653 167.596053 
L 286.126129 174.161283 
L 287.720604 163.492861 
L 289.31508 169.647649 
L 290.909555 164.928917 
L 292.504031 171.699367 
L 294.098507 168.006373 
L 295.692982 171.494147 
L 297.287458 175.39224 
L 298.881933 172.314785 
L 300.476409 174.571602 
L 302.070884 169.301484 
L 303.66536 171.494147 
L 305.259835 170.673508 
L 306.854311 164.313499 
L 308.448786 160.210185 
L 310.043262 165.544457 
L 311.637737 162.261782 
L 313.232213 169.647649 
L 314.826688 167.596053 
L 316.421164 164.313499 
L 318.01564 166.365096 
L 319.610115 167.185734 
L 321.204591 163.287641 
L 322.799066 172.109686 
L 324.393542 156.312092 
L 325.988017 172.109686 
L 327.582493 166.159875 
L 329.176968 165.749556 
L 330.771444 160.620505 
L 332.365919 159.389547 
L 333.960395 158.363688 
L 335.55487 160.825725 
L 337.149346 167.185734 
L 338.743821 164.518598 
L 340.338297 163.69796 
L 341.932773 166.775415 
L 343.527248 155.081134 
L 345.121724 157.13273 
L 346.716199 171.699367 
L 348.310675 164.723819 
L 349.90515 162.056683 
L 351.499626 178.469695 
L 353.094101 168.006373 
L 354.688577 171.083828 
L 356.283052 164.518598 
L 357.877528 162.877321 
L 359.472003 154.055275 
L 361.066479 164.313499 
L 362.660954 148.105586 
L 364.25543 161.646364 
L 365.849905 156.722411 
L 367.444381 167.185734 
L 369.038857 159.389547 
L 370.633332 174.161283 
L 372.227808 161.441143 
L 373.822283 153.234637 
L 375.416759 164.723819 
L 377.011234 164.928917 
L 378.60571 156.312092 
L 380.200185 157.13273 
L 381.794661 154.875914 
L 383.389136 172.314785 
L 384.983612 153.439857 
L 386.578087 154.260496 
L 388.172563 156.312092 
L 389.767038 155.286233 
L 391.361514 160.210185 
L 392.95599 155.491453 
L 394.550465 160.415406 
L 396.144941 146.669408 
L 397.739416 163.69796 
L 399.333892 145.64367 
L 400.928367 169.647649 
L 402.522843 158.363688 
L 404.117318 159.389547 
L 405.711794 158.774007 
L 407.306269 157.13273 
L 408.900745 151.59336 
L 410.49522 161.441143 
L 412.089696 157.953369 
L 413.684171 156.927632 
L 415.278647 149.541764 
L 416.873123 167.185734 
L 418.467598 156.722411 
L 420.062074 143.797173 
L 421.656549 161.236044 
L 423.251025 162.261782 
L 424.8455 150.97782 
L 426.439976 157.337951 
L 428.034451 152.413998 
L 429.628927 163.08242 
L 431.223402 148.721125 
L 432.817878 162.261782 
L 434.412353 145.028131 
L 436.006829 154.875914 
L 437.601304 148.105586 
L 439.19578 164.518598 
L 440.790256 153.644956 
L 442.384731 158.568909 
L 443.979207 157.54305 
L 445.573682 156.106993 
L 447.168158 155.081134 
L 448.762633 144.207492 
L 450.357109 154.055275 
L 451.951584 150.97782 
L 453.54606 138.052582 
L 455.140535 157.337951 
L 456.735011 154.260496 
L 458.329486 131.487353 
L 459.923962 155.081134 
L 461.518437 149.541764 
L 463.112913 162.056683 
L 464.707389 137.847483 
L 466.301864 151.798459 
L 467.89634 145.43845 
L 469.490815 156.106993 
L 471.085291 153.029538 
L 472.679766 143.181633 
L 474.274242 156.927632 
L 475.868717 149.131445 
L 477.463193 154.055275 
L 479.057668 146.669408 
L 480.652144 147.490046 
L 482.246619 147.490046 
L 483.841095 160.005087 
L 485.43557 148.310685 
L 487.030046 151.59336 
L 488.624522 151.798459 
L 490.218997 154.465595 
L 491.813473 162.056683 
L 493.407948 146.464309 
L 495.002424 158.774007 
L 496.596899 150.567501 
L 498.191375 148.105586 
L 499.78585 154.260496 
L 501.380326 155.491453 
L 502.974801 144.207492 
L 504.569277 153.439857 
L 506.163752 159.184327 
L 507.758228 152.619219 
L 509.352703 147.284947 
L 510.947179 152.619219 
L 512.541655 143.797173 
L 514.13613 148.721125 
L 515.730606 164.928917 
L 517.325081 142.976534 
L 518.919557 154.260496 
L 520.514032 152.824318 
L 522.108508 141.540356 
L 523.702983 152.824318 
L 525.297459 143.591953 
L 526.891934 141.540356 
L 528.48641 144.412591 
L 530.080885 150.157182 
L 531.675361 145.43845 
L 533.269836 148.310685 
L 534.864312 153.850177 
L 536.458788 150.157182 
L 538.053263 150.362402 
L 539.647739 158.979228 
L 541.242214 142.566215 
L 542.83669 160.825725 
L 544.431165 152.619219 
L 547.620116 145.233351 
L 549.214592 145.64367 
L 550.809067 144.002272 
L 552.403543 149.904696 
L 553.998018 147.284947 
L 555.592494 151.38814 
L 557.186969 147.490046 
L 558.781445 138.873221 
L 560.37592 137.231944 
L 561.970396 138.873221 
L 563.564872 143.591953 
L 565.159347 147.900365 
L 566.753823 153.644956 
L 568.348298 146.464309 
L 569.942774 149.541764 
L 571.537249 147.695266 
L 573.131725 147.284947 
L 574.7262 150.772721 
L 576.320676 146.053989 
L 577.915151 155.286233 
L 579.509627 138.257802 
L 581.104102 142.976534 
L 582.698578 153.850177 
L 584.293053 138.462901 
L 585.887529 143.181633 
L 587.482005 139.899079 
L 589.07648 140.104178 
L 590.670956 150.157182 
L 592.265431 140.719718 
L 593.859907 148.926224 
L 595.454382 145.233351 
L 597.048858 149.541764 
L 598.643333 153.029538 
L 600.237809 149.336543 
L 601.832284 149.952083 
L 603.42676 150.97782 
L 605.021235 143.386854 
L 606.615711 136.821624 
L 608.210186 148.515905 
L 609.804662 143.386854 
L 611.399138 142.155896 
L 612.993613 156.106993 
L 614.588089 141.335257 
L 616.182564 139.899079 
L 617.77704 146.669408 
L 619.371515 145.233351 
L 620.965991 140.719718 
L 622.560466 139.078441 
L 624.154942 144.412591 
L 625.749417 157.13273 
L 627.343893 149.541764 
L 628.938368 147.079727 
L 630.532844 142.360995 
L 632.127319 144.002272 
L 633.721795 150.157182 
L 635.316271 147.900365 
L 636.910746 144.207492 
L 638.505222 144.82291 
L 640.099697 158.363688 
L 643.288648 135.590667 
L 644.883124 157.13273 
L 646.477599 142.566215 
L 648.072075 140.924817 
L 649.66655 146.053989 
L 651.261026 138.462901 
L 652.855501 147.284947 
L 654.449977 138.052582 
L 656.044452 149.336543 
L 657.638928 147.284947 
L 659.233404 135.590667 
L 660.827879 150.157182 
L 662.422355 145.028131 
L 664.01683 147.284947 
L 665.611306 144.412591 
L 667.205781 140.924817 
L 668.800257 149.541764 
L 670.394732 144.207492 
L 671.989208 144.002272 
L 673.583683 139.078441 
L 675.178159 139.693859 
L 676.772634 144.207492 
L 678.36711 137.642263 
L 679.961585 142.976534 
L 681.556061 147.695266 
L 683.150537 145.848769 
L 684.745012 143.181633 
L 686.339488 136.616404 
L 687.933963 142.360995 
L 687.933963 142.360995 
" style="fill:none;stroke:#4daf4a;stroke-linecap:square;stroke-opacity:0.25098;stroke-width:1.5;"/>
   </g>
   <g id="patch_3">
    <path d="M 50.14375 337.159219 
L 50.14375 10.999219 
" style="fill:none;stroke:#000000;stroke-linecap:square;stroke-linejoin:miter;stroke-width:0.8;"/>
   </g>
   <g id="patch_4">
    <path d="M 719.74375 337.159219 
L 719.74375 10.999219 
" style="fill:none;stroke:#000000;stroke-linecap:square;stroke-linejoin:miter;stroke-width:0.8;"/>
   </g>
   <g id="patch_5">
    <path d="M 50.14375 337.159219 
L 719.74375 337.159219 
" style="fill:none;stroke:#000000;stroke-linecap:square;stroke-linejoin:miter;stroke-width:0.8;"/>
   </g>
   <g id="patch_6">
    <path d="M 50.14375 10.999219 
L 719.74375 10.999219 
" style="fill:none;stroke:#000000;stroke-linecap:square;stroke-linejoin:miter;stroke-width:0.8;"/>
   </g>
   <g id="legend_1">
    <g id="patch_7">
     <path d="M 57.14375 48.355469 
L 114.584375 48.355469 
Q 116.584375 48.355469 116.584375 46.355469 
L 116.584375 17.999219 
Q 116.584375 15.999219 114.584375 15.999219 
L 57.14375 15.999219 
Q 55.14375 15.999219 55.14375 17.999219 
L 55.14375 46.355469 
Q 55.14375 48.355469 57.14375 48.355469 
z
" style="fill:#ffffff;opacity:0.8;stroke:#cccccc;stroke-linejoin:miter;"/>
    </g>
    <g id="line2d_41">
     <path d="M 59.14375 24.097656 
L 79.14375 24.097656 
" style="fill:none;stroke:#377eb8;stroke-linecap:square;stroke-width:2;"/>
    </g>
    <g id="line2d_42"/>
    <g id="text_21">
     <!-- Train -->
     <defs>
      <path d="M -0.296875 72.90625 
L 61.375 72.90625 
L 61.375 64.59375 
L 35.5 64.59375 
L 35.5 0 
L 25.59375 0 
L 25.59375 64.59375 
L -0.296875 64.59375 
z
" id="DejaVuSans-84"/>
      <path d="M 9.421875 54.6875 
L 18.40625 54.6875 
L 18.40625 0 
L 9.421875 0 
z
M 9.421875 75.984375 
L 18.40625 75.984375 
L 18.40625 64.59375 
L 9.421875 64.59375 
z
" id="DejaVuSans-105"/>
      <path d="M 54.890625 33.015625 
L 54.890625 0 
L 45.90625 0 
L 45.90625 32.71875 
Q 45.90625 40.484375 42.875 44.328125 
Q 39.84375 48.1875 33.796875 48.1875 
Q 26.515625 48.1875 22.3125 43.546875 
Q 18.109375 38.921875 18.109375 30.90625 
L 18.109375 0 
L 9.078125 0 
L 9.078125 54.6875 
L 18.109375 54.6875 
L 18.109375 46.1875 
Q 21.34375 51.125 25.703125 53.5625 
Q 30.078125 56 35.796875 56 
Q 45.21875 56 50.046875 50.171875 
Q 54.890625 44.34375 54.890625 33.015625 
z
" id="DejaVuSans-110"/>
     </defs>
     <g transform="translate(87.14375 27.597656)scale(0.1 -0.1)">
      <use xlink:href="#DejaVuSans-84"/>
      <use x="60.865234" xlink:href="#DejaVuSans-114"/>
      <use x="101.978516" xlink:href="#DejaVuSans-97"/>
      <use x="163.257812" xlink:href="#DejaVuSans-105"/>
      <use x="191.041016" xlink:href="#DejaVuSans-110"/>
     </g>
    </g>
    <g id="line2d_43">
     <path d="M 59.14375 38.775781 
L 79.14375 38.775781 
" style="fill:none;stroke:#4daf4a;stroke-linecap:square;stroke-width:2;"/>
    </g>
    <g id="line2d_44"/>
    <g id="text_22">
     <!-- Test -->
     <defs>
      <path d="M 56.203125 29.59375 
L 56.203125 25.203125 
L 14.890625 25.203125 
Q 15.484375 15.921875 20.484375 11.0625 
Q 25.484375 6.203125 34.421875 6.203125 
Q 39.59375 6.203125 44.453125 7.46875 
Q 49.3125 8.734375 54.109375 11.28125 
L 54.109375 2.78125 
Q 49.265625 0.734375 44.1875 -0.34375 
Q 39.109375 -1.421875 33.890625 -1.421875 
Q 20.796875 -1.421875 13.15625 6.1875 
Q 5.515625 13.8125 5.515625 26.8125 
Q 5.515625 40.234375 12.765625 48.109375 
Q 20.015625 56 32.328125 56 
Q 43.359375 56 49.78125 48.890625 
Q 56.203125 41.796875 56.203125 29.59375 
z
M 47.21875 32.234375 
Q 47.125 39.59375 43.09375 43.984375 
Q 39.0625 48.390625 32.421875 48.390625 
Q 24.90625 48.390625 20.390625 44.140625 
Q 15.875 39.890625 15.1875 32.171875 
z
" id="DejaVuSans-101"/>
      <path d="M 44.28125 53.078125 
L 44.28125 44.578125 
Q 40.484375 46.53125 36.375 47.5 
Q 32.28125 48.484375 27.875 48.484375 
Q 21.1875 48.484375 17.84375 46.4375 
Q 14.5 44.390625 14.5 40.28125 
Q 14.5 37.15625 16.890625 35.375 
Q 19.28125 33.59375 26.515625 31.984375 
L 29.59375 31.296875 
Q 39.15625 29.25 43.1875 25.515625 
Q 47.21875 21.78125 47.21875 15.09375 
Q 47.21875 7.46875 41.1875 3.015625 
Q 35.15625 -1.421875 24.609375 -1.421875 
Q 20.21875 -1.421875 15.453125 -0.5625 
Q 10.6875 0.296875 5.421875 2 
L 5.421875 11.28125 
Q 10.40625 8.6875 15.234375 7.390625 
Q 20.0625 6.109375 24.8125 6.109375 
Q 31.15625 6.109375 34.5625 8.28125 
Q 37.984375 10.453125 37.984375 14.40625 
Q 37.984375 18.0625 35.515625 20.015625 
Q 33.0625 21.96875 24.703125 23.78125 
L 21.578125 24.515625 
Q 13.234375 26.265625 9.515625 29.90625 
Q 5.8125 33.546875 5.8125 39.890625 
Q 5.8125 47.609375 11.28125 51.796875 
Q 16.75 56 26.8125 56 
Q 31.78125 56 36.171875 55.265625 
Q 40.578125 54.546875 44.28125 53.078125 
z
" id="DejaVuSans-115"/>
      <path d="M 18.3125 70.21875 
L 18.3125 54.6875 
L 36.8125 54.6875 
L 36.8125 47.703125 
L 18.3125 47.703125 
L 18.3125 18.015625 
Q 18.3125 11.328125 20.140625 9.421875 
Q 21.96875 7.515625 27.59375 7.515625 
L 36.8125 7.515625 
L 36.8125 0 
L 27.59375 0 
Q 17.1875 0 13.234375 3.875 
Q 9.28125 7.765625 9.28125 18.015625 
L 9.28125 47.703125 
L 2.6875 47.703125 
L 2.6875 54.6875 
L 9.28125 54.6875 
L 9.28125 70.21875 
z
" id="DejaVuSans-116"/>
     </defs>
     <g transform="translate(87.14375 42.275781)scale(0.1 -0.1)">
      <use xlink:href="#DejaVuSans-84"/>
      <use x="60.818359" xlink:href="#DejaVuSans-101"/>
      <use x="122.341797" xlink:href="#DejaVuSans-115"/>
      <use x="174.441406" xlink:href="#DejaVuSans-116"/>
     </g>
    </g>
   </g>
  </g>
 </g>
 <defs>
  <clipPath id="pf085198808">
   <rect height="326.16" width="669.6" x="50.14375" y="10.999219"/>
  </clipPath>
 </defs>
</svg>
