<?xml version="1.0" encoding="utf-8" standalone="no"?>
<!DOCTYPE svg PUBLIC "-//W3C//DTD SVG 1.1//EN"
  "http://www.w3.org/Graphics/SVG/1.1/DTD/svg11.dtd">
<!-- Created with matplotlib (https://matplotlib.org/) -->
<svg height="374.715469pt" version="1.1" viewBox="0 0 726.94375 374.715469" width="726.94375pt" xmlns="http://www.w3.org/2000/svg" xmlns:xlink="http://www.w3.org/1999/xlink">
 <defs>
  <style type="text/css">
*{stroke-linecap:butt;stroke-linejoin:round;white-space:pre;}
  </style>
 </defs>
 <g id="figure_1">
  <g id="patch_1">
   <path d="M 0 374.715469 
L 726.94375 374.715469 
L 726.94375 0 
L 0 0 
z
" style="fill:#ffffff;"/>
  </g>
  <g id="axes_1">
   <g id="patch_2">
    <path d="M 50.14375 337.159219 
L 719.74375 337.159219 
L 719.74375 10.999219 
L 50.14375 10.999219 
z
" style="fill:#ffffff;"/>
   </g>
   <g id="matplotlib.axis_1">
    <g id="xtick_1">
     <g id="line2d_1">
      <path clip-path="url(#pbd0f5f24d0)" d="M 50.14375 337.159219 
L 50.14375 10.999219 
" style="fill:none;stroke:#b0b0b0;stroke-linecap:square;stroke-width:0.8;"/>
     </g>
     <g id="line2d_2">
      <defs>
       <path d="M 0 0 
L 0 3.5 
" id="mfeed059317" style="stroke:#000000;stroke-width:0.8;"/>
      </defs>
      <g>
       <use style="stroke:#000000;stroke-width:0.8;" x="50.14375" xlink:href="#mfeed059317" y="337.159219"/>
      </g>
     </g>
     <g id="text_1">
      <!-- 0 -->
      <defs>
       <path d="M 31.78125 66.40625 
Q 24.171875 66.40625 20.328125 58.90625 
Q 16.5 51.421875 16.5 36.375 
Q 16.5 21.390625 20.328125 13.890625 
Q 24.171875 6.390625 31.78125 6.390625 
Q 39.453125 6.390625 43.28125 13.890625 
Q 47.125 21.390625 47.125 36.375 
Q 47.125 51.421875 43.28125 58.90625 
Q 39.453125 66.40625 31.78125 66.40625 
z
M 31.78125 74.21875 
Q 44.046875 74.21875 50.515625 64.515625 
Q 56.984375 54.828125 56.984375 36.375 
Q 56.984375 17.96875 50.515625 8.265625 
Q 44.046875 -1.421875 31.78125 -1.421875 
Q 19.53125 -1.421875 13.0625 8.265625 
Q 6.59375 17.96875 6.59375 36.375 
Q 6.59375 54.828125 13.0625 64.515625 
Q 19.53125 74.21875 31.78125 74.21875 
z
" id="DejaVuSans-48"/>
      </defs>
      <g transform="translate(46.9625 351.757656)scale(0.1 -0.1)">
       <use xlink:href="#DejaVuSans-48"/>
      </g>
     </g>
    </g>
    <g id="xtick_2">
     <g id="line2d_3">
      <path clip-path="url(#pbd0f5f24d0)" d="M 129.867527 337.159219 
L 129.867527 10.999219 
" style="fill:none;stroke:#b0b0b0;stroke-linecap:square;stroke-width:0.8;"/>
     </g>
     <g id="line2d_4">
      <g>
       <use style="stroke:#000000;stroke-width:0.8;" x="129.867527" xlink:href="#mfeed059317" y="337.159219"/>
      </g>
     </g>
     <g id="text_2">
      <!-- 50 -->
      <defs>
       <path d="M 10.796875 72.90625 
L 49.515625 72.90625 
L 49.515625 64.59375 
L 19.828125 64.59375 
L 19.828125 46.734375 
Q 21.96875 47.46875 24.109375 47.828125 
Q 26.265625 48.1875 28.421875 48.1875 
Q 40.625 48.1875 47.75 41.5 
Q 54.890625 34.8125 54.890625 23.390625 
Q 54.890625 11.625 47.5625 5.09375 
Q 40.234375 -1.421875 26.90625 -1.421875 
Q 22.3125 -1.421875 17.546875 -0.640625 
Q 12.796875 0.140625 7.71875 1.703125 
L 7.71875 11.625 
Q 12.109375 9.234375 16.796875 8.0625 
Q 21.484375 6.890625 26.703125 6.890625 
Q 35.15625 6.890625 40.078125 11.328125 
Q 45.015625 15.765625 45.015625 23.390625 
Q 45.015625 31 40.078125 35.4375 
Q 35.15625 39.890625 26.703125 39.890625 
Q 22.75 39.890625 18.8125 39.015625 
Q 14.890625 38.140625 10.796875 36.28125 
z
" id="DejaVuSans-53"/>
      </defs>
      <g transform="translate(123.505027 351.757656)scale(0.1 -0.1)">
       <use xlink:href="#DejaVuSans-53"/>
       <use x="63.623047" xlink:href="#DejaVuSans-48"/>
      </g>
     </g>
    </g>
    <g id="xtick_3">
     <g id="line2d_5">
      <path clip-path="url(#pbd0f5f24d0)" d="M 209.591303 337.159219 
L 209.591303 10.999219 
" style="fill:none;stroke:#b0b0b0;stroke-linecap:square;stroke-width:0.8;"/>
     </g>
     <g id="line2d_6">
      <g>
       <use style="stroke:#000000;stroke-width:0.8;" x="209.591303" xlink:href="#mfeed059317" y="337.159219"/>
      </g>
     </g>
     <g id="text_3">
      <!-- 100 -->
      <defs>
       <path d="M 12.40625 8.296875 
L 28.515625 8.296875 
L 28.515625 63.921875 
L 10.984375 60.40625 
L 10.984375 69.390625 
L 28.421875 72.90625 
L 38.28125 72.90625 
L 38.28125 8.296875 
L 54.390625 8.296875 
L 54.390625 0 
L 12.40625 0 
z
" id="DejaVuSans-49"/>
      </defs>
      <g transform="translate(200.047553 351.757656)scale(0.1 -0.1)">
       <use xlink:href="#DejaVuSans-49"/>
       <use x="63.623047" xlink:href="#DejaVuSans-48"/>
       <use x="127.246094" xlink:href="#DejaVuSans-48"/>
      </g>
     </g>
    </g>
    <g id="xtick_4">
     <g id="line2d_7">
      <path clip-path="url(#pbd0f5f24d0)" d="M 289.31508 337.159219 
L 289.31508 10.999219 
" style="fill:none;stroke:#b0b0b0;stroke-linecap:square;stroke-width:0.8;"/>
     </g>
     <g id="line2d_8">
      <g>
       <use style="stroke:#000000;stroke-width:0.8;" x="289.31508" xlink:href="#mfeed059317" y="337.159219"/>
      </g>
     </g>
     <g id="text_4">
      <!-- 150 -->
      <g transform="translate(279.77133 351.757656)scale(0.1 -0.1)">
       <use xlink:href="#DejaVuSans-49"/>
       <use x="63.623047" xlink:href="#DejaVuSans-53"/>
       <use x="127.246094" xlink:href="#DejaVuSans-48"/>
      </g>
     </g>
    </g>
    <g id="xtick_5">
     <g id="line2d_9">
      <path clip-path="url(#pbd0f5f24d0)" d="M 369.038857 337.159219 
L 369.038857 10.999219 
" style="fill:none;stroke:#b0b0b0;stroke-linecap:square;stroke-width:0.8;"/>
     </g>
     <g id="line2d_10">
      <g>
       <use style="stroke:#000000;stroke-width:0.8;" x="369.038857" xlink:href="#mfeed059317" y="337.159219"/>
      </g>
     </g>
     <g id="text_5">
      <!-- 200 -->
      <defs>
       <path d="M 19.1875 8.296875 
L 53.609375 8.296875 
L 53.609375 0 
L 7.328125 0 
L 7.328125 8.296875 
Q 12.9375 14.109375 22.625 23.890625 
Q 32.328125 33.6875 34.8125 36.53125 
Q 39.546875 41.84375 41.421875 45.53125 
Q 43.3125 49.21875 43.3125 52.78125 
Q 43.3125 58.59375 39.234375 62.25 
Q 35.15625 65.921875 28.609375 65.921875 
Q 23.96875 65.921875 18.8125 64.3125 
Q 13.671875 62.703125 7.8125 59.421875 
L 7.8125 69.390625 
Q 13.765625 71.78125 18.9375 73 
Q 24.125 74.21875 28.421875 74.21875 
Q 39.75 74.21875 46.484375 68.546875 
Q 53.21875 62.890625 53.21875 53.421875 
Q 53.21875 48.921875 51.53125 44.890625 
Q 49.859375 40.875 45.40625 35.40625 
Q 44.1875 33.984375 37.640625 27.21875 
Q 31.109375 20.453125 19.1875 8.296875 
z
" id="DejaVuSans-50"/>
      </defs>
      <g transform="translate(359.495107 351.757656)scale(0.1 -0.1)">
       <use xlink:href="#DejaVuSans-50"/>
       <use x="63.623047" xlink:href="#DejaVuSans-48"/>
       <use x="127.246094" xlink:href="#DejaVuSans-48"/>
      </g>
     </g>
    </g>
    <g id="xtick_6">
     <g id="line2d_11">
      <path clip-path="url(#pbd0f5f24d0)" d="M 448.762633 337.159219 
L 448.762633 10.999219 
" style="fill:none;stroke:#b0b0b0;stroke-linecap:square;stroke-width:0.8;"/>
     </g>
     <g id="line2d_12">
      <g>
       <use style="stroke:#000000;stroke-width:0.8;" x="448.762633" xlink:href="#mfeed059317" y="337.159219"/>
      </g>
     </g>
     <g id="text_6">
      <!-- 250 -->
      <g transform="translate(439.218883 351.757656)scale(0.1 -0.1)">
       <use xlink:href="#DejaVuSans-50"/>
       <use x="63.623047" xlink:href="#DejaVuSans-53"/>
       <use x="127.246094" xlink:href="#DejaVuSans-48"/>
      </g>
     </g>
    </g>
    <g id="xtick_7">
     <g id="line2d_13">
      <path clip-path="url(#pbd0f5f24d0)" d="M 528.48641 337.159219 
L 528.48641 10.999219 
" style="fill:none;stroke:#b0b0b0;stroke-linecap:square;stroke-width:0.8;"/>
     </g>
     <g id="line2d_14">
      <g>
       <use style="stroke:#000000;stroke-width:0.8;" x="528.48641" xlink:href="#mfeed059317" y="337.159219"/>
      </g>
     </g>
     <g id="text_7">
      <!-- 300 -->
      <defs>
       <path d="M 40.578125 39.3125 
Q 47.65625 37.796875 51.625 33 
Q 55.609375 28.21875 55.609375 21.1875 
Q 55.609375 10.40625 48.1875 4.484375 
Q 40.765625 -1.421875 27.09375 -1.421875 
Q 22.515625 -1.421875 17.65625 -0.515625 
Q 12.796875 0.390625 7.625 2.203125 
L 7.625 11.71875 
Q 11.71875 9.328125 16.59375 8.109375 
Q 21.484375 6.890625 26.8125 6.890625 
Q 36.078125 6.890625 40.9375 10.546875 
Q 45.796875 14.203125 45.796875 21.1875 
Q 45.796875 27.640625 41.28125 31.265625 
Q 36.765625 34.90625 28.71875 34.90625 
L 20.21875 34.90625 
L 20.21875 43.015625 
L 29.109375 43.015625 
Q 36.375 43.015625 40.234375 45.921875 
Q 44.09375 48.828125 44.09375 54.296875 
Q 44.09375 59.90625 40.109375 62.90625 
Q 36.140625 65.921875 28.71875 65.921875 
Q 24.65625 65.921875 20.015625 65.03125 
Q 15.375 64.15625 9.8125 62.3125 
L 9.8125 71.09375 
Q 15.4375 72.65625 20.34375 73.4375 
Q 25.25 74.21875 29.59375 74.21875 
Q 40.828125 74.21875 47.359375 69.109375 
Q 53.90625 64.015625 53.90625 55.328125 
Q 53.90625 49.265625 50.4375 45.09375 
Q 46.96875 40.921875 40.578125 39.3125 
z
" id="DejaVuSans-51"/>
      </defs>
      <g transform="translate(518.94266 351.757656)scale(0.1 -0.1)">
       <use xlink:href="#DejaVuSans-51"/>
       <use x="63.623047" xlink:href="#DejaVuSans-48"/>
       <use x="127.246094" xlink:href="#DejaVuSans-48"/>
      </g>
     </g>
    </g>
    <g id="xtick_8">
     <g id="line2d_15">
      <path clip-path="url(#pbd0f5f24d0)" d="M 608.210186 337.159219 
L 608.210186 10.999219 
" style="fill:none;stroke:#b0b0b0;stroke-linecap:square;stroke-width:0.8;"/>
     </g>
     <g id="line2d_16">
      <g>
       <use style="stroke:#000000;stroke-width:0.8;" x="608.210186" xlink:href="#mfeed059317" y="337.159219"/>
      </g>
     </g>
     <g id="text_8">
      <!-- 350 -->
      <g transform="translate(598.666436 351.757656)scale(0.1 -0.1)">
       <use xlink:href="#DejaVuSans-51"/>
       <use x="63.623047" xlink:href="#DejaVuSans-53"/>
       <use x="127.246094" xlink:href="#DejaVuSans-48"/>
      </g>
     </g>
    </g>
    <g id="xtick_9">
     <g id="line2d_17">
      <path clip-path="url(#pbd0f5f24d0)" d="M 687.933963 337.159219 
L 687.933963 10.999219 
" style="fill:none;stroke:#b0b0b0;stroke-linecap:square;stroke-width:0.8;"/>
     </g>
     <g id="line2d_18">
      <g>
       <use style="stroke:#000000;stroke-width:0.8;" x="687.933963" xlink:href="#mfeed059317" y="337.159219"/>
      </g>
     </g>
     <g id="text_9">
      <!-- 400 -->
      <defs>
       <path d="M 37.796875 64.3125 
L 12.890625 25.390625 
L 37.796875 25.390625 
z
M 35.203125 72.90625 
L 47.609375 72.90625 
L 47.609375 25.390625 
L 58.015625 25.390625 
L 58.015625 17.1875 
L 47.609375 17.1875 
L 47.609375 0 
L 37.796875 0 
L 37.796875 17.1875 
L 4.890625 17.1875 
L 4.890625 26.703125 
z
" id="DejaVuSans-52"/>
      </defs>
      <g transform="translate(678.390213 351.757656)scale(0.1 -0.1)">
       <use xlink:href="#DejaVuSans-52"/>
       <use x="63.623047" xlink:href="#DejaVuSans-48"/>
       <use x="127.246094" xlink:href="#DejaVuSans-48"/>
      </g>
     </g>
    </g>
    <g id="text_10">
     <!-- Epoch -->
     <defs>
      <path d="M 9.8125 72.90625 
L 55.90625 72.90625 
L 55.90625 64.59375 
L 19.671875 64.59375 
L 19.671875 43.015625 
L 54.390625 43.015625 
L 54.390625 34.71875 
L 19.671875 34.71875 
L 19.671875 8.296875 
L 56.78125 8.296875 
L 56.78125 0 
L 9.8125 0 
z
" id="DejaVuSans-69"/>
      <path d="M 18.109375 8.203125 
L 18.109375 -20.796875 
L 9.078125 -20.796875 
L 9.078125 54.6875 
L 18.109375 54.6875 
L 18.109375 46.390625 
Q 20.953125 51.265625 25.265625 53.625 
Q 29.59375 56 35.59375 56 
Q 45.5625 56 51.78125 48.09375 
Q 58.015625 40.1875 58.015625 27.296875 
Q 58.015625 14.40625 51.78125 6.484375 
Q 45.5625 -1.421875 35.59375 -1.421875 
Q 29.59375 -1.421875 25.265625 0.953125 
Q 20.953125 3.328125 18.109375 8.203125 
z
M 48.6875 27.296875 
Q 48.6875 37.203125 44.609375 42.84375 
Q 40.53125 48.484375 33.40625 48.484375 
Q 26.265625 48.484375 22.1875 42.84375 
Q 18.109375 37.203125 18.109375 27.296875 
Q 18.109375 17.390625 22.1875 11.75 
Q 26.265625 6.109375 33.40625 6.109375 
Q 40.53125 6.109375 44.609375 11.75 
Q 48.6875 17.390625 48.6875 27.296875 
z
" id="DejaVuSans-112"/>
      <path d="M 30.609375 48.390625 
Q 23.390625 48.390625 19.1875 42.75 
Q 14.984375 37.109375 14.984375 27.296875 
Q 14.984375 17.484375 19.15625 11.84375 
Q 23.34375 6.203125 30.609375 6.203125 
Q 37.796875 6.203125 41.984375 11.859375 
Q 46.1875 17.53125 46.1875 27.296875 
Q 46.1875 37.015625 41.984375 42.703125 
Q 37.796875 48.390625 30.609375 48.390625 
z
M 30.609375 56 
Q 42.328125 56 49.015625 48.375 
Q 55.71875 40.765625 55.71875 27.296875 
Q 55.71875 13.875 49.015625 6.21875 
Q 42.328125 -1.421875 30.609375 -1.421875 
Q 18.84375 -1.421875 12.171875 6.21875 
Q 5.515625 13.875 5.515625 27.296875 
Q 5.515625 40.765625 12.171875 48.375 
Q 18.84375 56 30.609375 56 
z
" id="DejaVuSans-111"/>
      <path d="M 48.78125 52.59375 
L 48.78125 44.1875 
Q 44.96875 46.296875 41.140625 47.34375 
Q 37.3125 48.390625 33.40625 48.390625 
Q 24.65625 48.390625 19.8125 42.84375 
Q 14.984375 37.3125 14.984375 27.296875 
Q 14.984375 17.28125 19.8125 11.734375 
Q 24.65625 6.203125 33.40625 6.203125 
Q 37.3125 6.203125 41.140625 7.25 
Q 44.96875 8.296875 48.78125 10.40625 
L 48.78125 2.09375 
Q 45.015625 0.34375 40.984375 -0.53125 
Q 36.96875 -1.421875 32.421875 -1.421875 
Q 20.0625 -1.421875 12.78125 6.34375 
Q 5.515625 14.109375 5.515625 27.296875 
Q 5.515625 40.671875 12.859375 48.328125 
Q 20.21875 56 33.015625 56 
Q 37.15625 56 41.109375 55.140625 
Q 45.0625 54.296875 48.78125 52.59375 
z
" id="DejaVuSans-99"/>
      <path d="M 54.890625 33.015625 
L 54.890625 0 
L 45.90625 0 
L 45.90625 32.71875 
Q 45.90625 40.484375 42.875 44.328125 
Q 39.84375 48.1875 33.796875 48.1875 
Q 26.515625 48.1875 22.3125 43.546875 
Q 18.109375 38.921875 18.109375 30.90625 
L 18.109375 0 
L 9.078125 0 
L 9.078125 75.984375 
L 18.109375 75.984375 
L 18.109375 46.1875 
Q 21.34375 51.125 25.703125 53.5625 
Q 30.078125 56 35.796875 56 
Q 45.21875 56 50.046875 50.171875 
Q 54.890625 44.34375 54.890625 33.015625 
z
" id="DejaVuSans-104"/>
     </defs>
     <g transform="translate(369.632813 365.435781)scale(0.1 -0.1)">
      <use xlink:href="#DejaVuSans-69"/>
      <use x="63.183594" xlink:href="#DejaVuSans-112"/>
      <use x="126.660156" xlink:href="#DejaVuSans-111"/>
      <use x="187.841797" xlink:href="#DejaVuSans-99"/>
      <use x="242.822266" xlink:href="#DejaVuSans-104"/>
     </g>
    </g>
   </g>
   <g id="matplotlib.axis_2">
    <g id="ytick_1">
     <g id="line2d_19">
      <path clip-path="url(#pbd0f5f24d0)" d="M 50.14375 337.159219 
L 719.74375 337.159219 
" style="fill:none;stroke:#b0b0b0;stroke-linecap:square;stroke-width:0.8;"/>
     </g>
     <g id="line2d_20">
      <defs>
       <path d="M 0 0 
L -3.5 0 
" id="me729d96f62" style="stroke:#000000;stroke-width:0.8;"/>
      </defs>
      <g>
       <use style="stroke:#000000;stroke-width:0.8;" x="50.14375" xlink:href="#me729d96f62" y="337.159219"/>
      </g>
     </g>
     <g id="text_11">
      <!-- 0.82 -->
      <defs>
       <path d="M 10.6875 12.40625 
L 21 12.40625 
L 21 0 
L 10.6875 0 
z
" id="DejaVuSans-46"/>
       <path d="M 31.78125 34.625 
Q 24.75 34.625 20.71875 30.859375 
Q 16.703125 27.09375 16.703125 20.515625 
Q 16.703125 13.921875 20.71875 10.15625 
Q 24.75 6.390625 31.78125 6.390625 
Q 38.8125 6.390625 42.859375 10.171875 
Q 46.921875 13.96875 46.921875 20.515625 
Q 46.921875 27.09375 42.890625 30.859375 
Q 38.875 34.625 31.78125 34.625 
z
M 21.921875 38.8125 
Q 15.578125 40.375 12.03125 44.71875 
Q 8.5 49.078125 8.5 55.328125 
Q 8.5 64.0625 14.71875 69.140625 
Q 20.953125 74.21875 31.78125 74.21875 
Q 42.671875 74.21875 48.875 69.140625 
Q 55.078125 64.0625 55.078125 55.328125 
Q 55.078125 49.078125 51.53125 44.71875 
Q 48 40.375 41.703125 38.8125 
Q 48.828125 37.15625 52.796875 32.3125 
Q 56.78125 27.484375 56.78125 20.515625 
Q 56.78125 9.90625 50.3125 4.234375 
Q 43.84375 -1.421875 31.78125 -1.421875 
Q 19.734375 -1.421875 13.25 4.234375 
Q 6.78125 9.90625 6.78125 20.515625 
Q 6.78125 27.484375 10.78125 32.3125 
Q 14.796875 37.15625 21.921875 38.8125 
z
M 18.3125 54.390625 
Q 18.3125 48.734375 21.84375 45.5625 
Q 25.390625 42.390625 31.78125 42.390625 
Q 38.140625 42.390625 41.71875 45.5625 
Q 45.3125 48.734375 45.3125 54.390625 
Q 45.3125 60.0625 41.71875 63.234375 
Q 38.140625 66.40625 31.78125 66.40625 
Q 25.390625 66.40625 21.84375 63.234375 
Q 18.3125 60.0625 18.3125 54.390625 
z
" id="DejaVuSans-56"/>
      </defs>
      <g transform="translate(20.878125 340.958437)scale(0.1 -0.1)">
       <use xlink:href="#DejaVuSans-48"/>
       <use x="63.623047" xlink:href="#DejaVuSans-46"/>
       <use x="95.410156" xlink:href="#DejaVuSans-56"/>
       <use x="159.033203" xlink:href="#DejaVuSans-50"/>
      </g>
     </g>
    </g>
    <g id="ytick_2">
     <g id="line2d_21">
      <path clip-path="url(#pbd0f5f24d0)" d="M 50.14375 296.389219 
L 719.74375 296.389219 
" style="fill:none;stroke:#b0b0b0;stroke-linecap:square;stroke-width:0.8;"/>
     </g>
     <g id="line2d_22">
      <g>
       <use style="stroke:#000000;stroke-width:0.8;" x="50.14375" xlink:href="#me729d96f62" y="296.389219"/>
      </g>
     </g>
     <g id="text_12">
      <!-- 0.84 -->
      <g transform="translate(20.878125 300.188437)scale(0.1 -0.1)">
       <use xlink:href="#DejaVuSans-48"/>
       <use x="63.623047" xlink:href="#DejaVuSans-46"/>
       <use x="95.410156" xlink:href="#DejaVuSans-56"/>
       <use x="159.033203" xlink:href="#DejaVuSans-52"/>
      </g>
     </g>
    </g>
    <g id="ytick_3">
     <g id="line2d_23">
      <path clip-path="url(#pbd0f5f24d0)" d="M 50.14375 255.619219 
L 719.74375 255.619219 
" style="fill:none;stroke:#b0b0b0;stroke-linecap:square;stroke-width:0.8;"/>
     </g>
     <g id="line2d_24">
      <g>
       <use style="stroke:#000000;stroke-width:0.8;" x="50.14375" xlink:href="#me729d96f62" y="255.619219"/>
      </g>
     </g>
     <g id="text_13">
      <!-- 0.86 -->
      <defs>
       <path d="M 33.015625 40.375 
Q 26.375 40.375 22.484375 35.828125 
Q 18.609375 31.296875 18.609375 23.390625 
Q 18.609375 15.53125 22.484375 10.953125 
Q 26.375 6.390625 33.015625 6.390625 
Q 39.65625 6.390625 43.53125 10.953125 
Q 47.40625 15.53125 47.40625 23.390625 
Q 47.40625 31.296875 43.53125 35.828125 
Q 39.65625 40.375 33.015625 40.375 
z
M 52.59375 71.296875 
L 52.59375 62.3125 
Q 48.875 64.0625 45.09375 64.984375 
Q 41.3125 65.921875 37.59375 65.921875 
Q 27.828125 65.921875 22.671875 59.328125 
Q 17.53125 52.734375 16.796875 39.40625 
Q 19.671875 43.65625 24.015625 45.921875 
Q 28.375 48.1875 33.59375 48.1875 
Q 44.578125 48.1875 50.953125 41.515625 
Q 57.328125 34.859375 57.328125 23.390625 
Q 57.328125 12.15625 50.6875 5.359375 
Q 44.046875 -1.421875 33.015625 -1.421875 
Q 20.359375 -1.421875 13.671875 8.265625 
Q 6.984375 17.96875 6.984375 36.375 
Q 6.984375 53.65625 15.1875 63.9375 
Q 23.390625 74.21875 37.203125 74.21875 
Q 40.921875 74.21875 44.703125 73.484375 
Q 48.484375 72.75 52.59375 71.296875 
z
" id="DejaVuSans-54"/>
      </defs>
      <g transform="translate(20.878125 259.418437)scale(0.1 -0.1)">
       <use xlink:href="#DejaVuSans-48"/>
       <use x="63.623047" xlink:href="#DejaVuSans-46"/>
       <use x="95.410156" xlink:href="#DejaVuSans-56"/>
       <use x="159.033203" xlink:href="#DejaVuSans-54"/>
      </g>
     </g>
    </g>
    <g id="ytick_4">
     <g id="line2d_25">
      <path clip-path="url(#pbd0f5f24d0)" d="M 50.14375 214.849219 
L 719.74375 214.849219 
" style="fill:none;stroke:#b0b0b0;stroke-linecap:square;stroke-width:0.8;"/>
     </g>
     <g id="line2d_26">
      <g>
       <use style="stroke:#000000;stroke-width:0.8;" x="50.14375" xlink:href="#me729d96f62" y="214.849219"/>
      </g>
     </g>
     <g id="text_14">
      <!-- 0.88 -->
      <g transform="translate(20.878125 218.648437)scale(0.1 -0.1)">
       <use xlink:href="#DejaVuSans-48"/>
       <use x="63.623047" xlink:href="#DejaVuSans-46"/>
       <use x="95.410156" xlink:href="#DejaVuSans-56"/>
       <use x="159.033203" xlink:href="#DejaVuSans-56"/>
      </g>
     </g>
    </g>
    <g id="ytick_5">
     <g id="line2d_27">
      <path clip-path="url(#pbd0f5f24d0)" d="M 50.14375 174.079219 
L 719.74375 174.079219 
" style="fill:none;stroke:#b0b0b0;stroke-linecap:square;stroke-width:0.8;"/>
     </g>
     <g id="line2d_28">
      <g>
       <use style="stroke:#000000;stroke-width:0.8;" x="50.14375" xlink:href="#me729d96f62" y="174.079219"/>
      </g>
     </g>
     <g id="text_15">
      <!-- 0.90 -->
      <defs>
       <path d="M 10.984375 1.515625 
L 10.984375 10.5 
Q 14.703125 8.734375 18.5 7.8125 
Q 22.3125 6.890625 25.984375 6.890625 
Q 35.75 6.890625 40.890625 13.453125 
Q 46.046875 20.015625 46.78125 33.40625 
Q 43.953125 29.203125 39.59375 26.953125 
Q 35.25 24.703125 29.984375 24.703125 
Q 19.046875 24.703125 12.671875 31.3125 
Q 6.296875 37.9375 6.296875 49.421875 
Q 6.296875 60.640625 12.9375 67.421875 
Q 19.578125 74.21875 30.609375 74.21875 
Q 43.265625 74.21875 49.921875 64.515625 
Q 56.59375 54.828125 56.59375 36.375 
Q 56.59375 19.140625 48.40625 8.859375 
Q 40.234375 -1.421875 26.421875 -1.421875 
Q 22.703125 -1.421875 18.890625 -0.6875 
Q 15.09375 0.046875 10.984375 1.515625 
z
M 30.609375 32.421875 
Q 37.25 32.421875 41.125 36.953125 
Q 45.015625 41.5 45.015625 49.421875 
Q 45.015625 57.28125 41.125 61.84375 
Q 37.25 66.40625 30.609375 66.40625 
Q 23.96875 66.40625 20.09375 61.84375 
Q 16.21875 57.28125 16.21875 49.421875 
Q 16.21875 41.5 20.09375 36.953125 
Q 23.96875 32.421875 30.609375 32.421875 
z
" id="DejaVuSans-57"/>
      </defs>
      <g transform="translate(20.878125 177.878437)scale(0.1 -0.1)">
       <use xlink:href="#DejaVuSans-48"/>
       <use x="63.623047" xlink:href="#DejaVuSans-46"/>
       <use x="95.410156" xlink:href="#DejaVuSans-57"/>
       <use x="159.033203" xlink:href="#DejaVuSans-48"/>
      </g>
     </g>
    </g>
    <g id="ytick_6">
     <g id="line2d_29">
      <path clip-path="url(#pbd0f5f24d0)" d="M 50.14375 133.309219 
L 719.74375 133.309219 
" style="fill:none;stroke:#b0b0b0;stroke-linecap:square;stroke-width:0.8;"/>
     </g>
     <g id="line2d_30">
      <g>
       <use style="stroke:#000000;stroke-width:0.8;" x="50.14375" xlink:href="#me729d96f62" y="133.309219"/>
      </g>
     </g>
     <g id="text_16">
      <!-- 0.92 -->
      <g transform="translate(20.878125 137.108437)scale(0.1 -0.1)">
       <use xlink:href="#DejaVuSans-48"/>
       <use x="63.623047" xlink:href="#DejaVuSans-46"/>
       <use x="95.410156" xlink:href="#DejaVuSans-57"/>
       <use x="159.033203" xlink:href="#DejaVuSans-50"/>
      </g>
     </g>
    </g>
    <g id="ytick_7">
     <g id="line2d_31">
      <path clip-path="url(#pbd0f5f24d0)" d="M 50.14375 92.539219 
L 719.74375 92.539219 
" style="fill:none;stroke:#b0b0b0;stroke-linecap:square;stroke-width:0.8;"/>
     </g>
     <g id="line2d_32">
      <g>
       <use style="stroke:#000000;stroke-width:0.8;" x="50.14375" xlink:href="#me729d96f62" y="92.539219"/>
      </g>
     </g>
     <g id="text_17">
      <!-- 0.94 -->
      <g transform="translate(20.878125 96.338437)scale(0.1 -0.1)">
       <use xlink:href="#DejaVuSans-48"/>
       <use x="63.623047" xlink:href="#DejaVuSans-46"/>
       <use x="95.410156" xlink:href="#DejaVuSans-57"/>
       <use x="159.033203" xlink:href="#DejaVuSans-52"/>
      </g>
     </g>
    </g>
    <g id="ytick_8">
     <g id="line2d_33">
      <path clip-path="url(#pbd0f5f24d0)" d="M 50.14375 51.769219 
L 719.74375 51.769219 
" style="fill:none;stroke:#b0b0b0;stroke-linecap:square;stroke-width:0.8;"/>
     </g>
     <g id="line2d_34">
      <g>
       <use style="stroke:#000000;stroke-width:0.8;" x="50.14375" xlink:href="#me729d96f62" y="51.769219"/>
      </g>
     </g>
     <g id="text_18">
      <!-- 0.96 -->
      <g transform="translate(20.878125 55.568437)scale(0.1 -0.1)">
       <use xlink:href="#DejaVuSans-48"/>
       <use x="63.623047" xlink:href="#DejaVuSans-46"/>
       <use x="95.410156" xlink:href="#DejaVuSans-57"/>
       <use x="159.033203" xlink:href="#DejaVuSans-54"/>
      </g>
     </g>
    </g>
    <g id="ytick_9">
     <g id="line2d_35">
      <path clip-path="url(#pbd0f5f24d0)" d="M 50.14375 10.999219 
L 719.74375 10.999219 
" style="fill:none;stroke:#b0b0b0;stroke-linecap:square;stroke-width:0.8;"/>
     </g>
     <g id="line2d_36">
      <g>
       <use style="stroke:#000000;stroke-width:0.8;" x="50.14375" xlink:href="#me729d96f62" y="10.999219"/>
      </g>
     </g>
     <g id="text_19">
      <!-- 0.98 -->
      <g transform="translate(20.878125 14.798437)scale(0.1 -0.1)">
       <use xlink:href="#DejaVuSans-48"/>
       <use x="63.623047" xlink:href="#DejaVuSans-46"/>
       <use x="95.410156" xlink:href="#DejaVuSans-57"/>
       <use x="159.033203" xlink:href="#DejaVuSans-56"/>
      </g>
     </g>
    </g>
    <g id="text_20">
     <!-- Accuracy -->
     <defs>
      <path d="M 34.1875 63.1875 
L 20.796875 26.90625 
L 47.609375 26.90625 
z
M 28.609375 72.90625 
L 39.796875 72.90625 
L 67.578125 0 
L 57.328125 0 
L 50.6875 18.703125 
L 17.828125 18.703125 
L 11.1875 0 
L 0.78125 0 
z
" id="DejaVuSans-65"/>
      <path d="M 8.5 21.578125 
L 8.5 54.6875 
L 17.484375 54.6875 
L 17.484375 21.921875 
Q 17.484375 14.15625 20.5 10.265625 
Q 23.53125 6.390625 29.59375 6.390625 
Q 36.859375 6.390625 41.078125 11.03125 
Q 45.3125 15.671875 45.3125 23.6875 
L 45.3125 54.6875 
L 54.296875 54.6875 
L 54.296875 0 
L 45.3125 0 
L 45.3125 8.40625 
Q 42.046875 3.421875 37.71875 1 
Q 33.40625 -1.421875 27.6875 -1.421875 
Q 18.265625 -1.421875 13.375 4.4375 
Q 8.5 10.296875 8.5 21.578125 
z
M 31.109375 56 
z
" id="DejaVuSans-117"/>
      <path d="M 41.109375 46.296875 
Q 39.59375 47.171875 37.8125 47.578125 
Q 36.03125 48 33.890625 48 
Q 26.265625 48 22.1875 43.046875 
Q 18.109375 38.09375 18.109375 28.8125 
L 18.109375 0 
L 9.078125 0 
L 9.078125 54.6875 
L 18.109375 54.6875 
L 18.109375 46.1875 
Q 20.953125 51.171875 25.484375 53.578125 
Q 30.03125 56 36.53125 56 
Q 37.453125 56 38.578125 55.875 
Q 39.703125 55.765625 41.0625 55.515625 
z
" id="DejaVuSans-114"/>
      <path d="M 34.28125 27.484375 
Q 23.390625 27.484375 19.1875 25 
Q 14.984375 22.515625 14.984375 16.5 
Q 14.984375 11.71875 18.140625 8.90625 
Q 21.296875 6.109375 26.703125 6.109375 
Q 34.1875 6.109375 38.703125 11.40625 
Q 43.21875 16.703125 43.21875 25.484375 
L 43.21875 27.484375 
z
M 52.203125 31.203125 
L 52.203125 0 
L 43.21875 0 
L 43.21875 8.296875 
Q 40.140625 3.328125 35.546875 0.953125 
Q 30.953125 -1.421875 24.3125 -1.421875 
Q 15.921875 -1.421875 10.953125 3.296875 
Q 6 8.015625 6 15.921875 
Q 6 25.140625 12.171875 29.828125 
Q 18.359375 34.515625 30.609375 34.515625 
L 43.21875 34.515625 
L 43.21875 35.40625 
Q 43.21875 41.609375 39.140625 45 
Q 35.0625 48.390625 27.6875 48.390625 
Q 23 48.390625 18.546875 47.265625 
Q 14.109375 46.140625 10.015625 43.890625 
L 10.015625 52.203125 
Q 14.9375 54.109375 19.578125 55.046875 
Q 24.21875 56 28.609375 56 
Q 40.484375 56 46.34375 49.84375 
Q 52.203125 43.703125 52.203125 31.203125 
z
" id="DejaVuSans-97"/>
      <path d="M 32.171875 -5.078125 
Q 28.375 -14.84375 24.75 -17.8125 
Q 21.140625 -20.796875 15.09375 -20.796875 
L 7.90625 -20.796875 
L 7.90625 -13.28125 
L 13.1875 -13.28125 
Q 16.890625 -13.28125 18.9375 -11.515625 
Q 21 -9.765625 23.484375 -3.21875 
L 25.09375 0.875 
L 2.984375 54.6875 
L 12.5 54.6875 
L 29.59375 11.921875 
L 46.6875 54.6875 
L 56.203125 54.6875 
z
" id="DejaVuSans-121"/>
     </defs>
     <g transform="translate(14.798438 196.994062)rotate(-90)scale(0.1 -0.1)">
      <use xlink:href="#DejaVuSans-65"/>
      <use x="68.392578" xlink:href="#DejaVuSans-99"/>
      <use x="123.373047" xlink:href="#DejaVuSans-99"/>
      <use x="178.353516" xlink:href="#DejaVuSans-117"/>
      <use x="241.732422" xlink:href="#DejaVuSans-114"/>
      <use x="282.845703" xlink:href="#DejaVuSans-97"/>
      <use x="344.125" xlink:href="#DejaVuSans-99"/>
      <use x="399.105469" xlink:href="#DejaVuSans-121"/>
     </g>
    </g>
   </g>
   <g id="line2d_37">
    <path clip-path="url(#pbd0f5f24d0)" d="M 109.7407 375.715469 
L 112.23732 366.415158 
L 114.78465 357.906484 
L 117.33198 350.267023 
L 119.879311 343.377387 
L 122.426641 337.118188 
L 124.973971 331.370037 
L 128.158134 324.72163 
L 132.615962 315.999829 
L 138.347455 305.233238 
L 144.078948 294.898371 
L 149.810441 284.985538 
L 155.541934 275.485044 
L 161.273428 266.3872 
L 167.004921 257.682311 
L 172.736414 249.360686 
L 178.467907 241.412633 
L 184.1994 233.828459 
L 189.930893 226.598472 
L 195.662386 219.71298 
L 201.39388 213.162291 
L 207.125373 206.936712 
L 212.856866 201.026548 
L 218.588359 195.421818 
L 224.319852 190.112046 
L 230.051345 185.086709 
L 235.782838 180.335281 
L 241.514331 175.847238 
L 247.882657 171.156632 
L 254.250983 166.763762 
L 260.619309 162.654192 
L 266.987634 158.813485 
L 273.35596 155.227204 
L 279.724286 151.880911 
L 286.729444 148.459946 
L 293.734602 145.292684 
L 300.73976 142.359908 
L 308.381751 139.405368 
L 316.023742 136.682072 
L 324.302566 133.963852 
L 333.218222 131.270921 
L 343.407543 128.441253 
L 354.870529 125.50335 
L 369.517678 121.998267 
L 391.169985 117.061358 
L 412.18546 112.497586 
L 432.564102 108.298947 
L 452.305912 104.455812 
L 471.410889 100.957084 
L 490.515866 97.685057 
L 508.984011 94.746773 
L 526.815323 92.12776 
L 544.646635 89.730913 
L 561.841114 87.637507 
L 579.035594 85.765191 
L 596.230073 84.121089 
L 612.78772 82.760219 
L 629.345367 81.623937 
L 645.266181 80.749076 
L 661.186995 80.093395 
L 677.107809 79.662547 
L 687.933963 79.500881 
L 687.933963 79.500881 
" style="fill:none;stroke:#377eb8;stroke-linecap:square;stroke-width:2;"/>
   </g>
   <g id="line2d_38">
    <path clip-path="url(#pbd0f5f24d0)" d="M 108.362735 375.715469 
L 110.326822 367.909987 
L 112.874152 358.829132 
L 115.421483 350.802987 
L 117.968813 343.703787 
L 120.516143 337.403769 
L 123.063473 331.775169 
L 125.610804 326.690225 
L 128.794967 320.90392 
L 132.615962 314.468725 
L 137.710623 306.343719 
L 142.805283 298.684908 
L 147.899944 291.473145 
L 152.994604 284.689283 
L 158.089265 278.314172 
L 163.183925 272.328666 
L 168.278586 266.713616 
L 173.373246 261.449874 
L 178.467907 256.518293 
L 183.562568 251.899724 
L 188.657228 247.57502 
L 193.751889 243.525033 
L 199.483382 239.273328 
L 205.214875 235.317814 
L 210.946368 231.631228 
L 216.677861 228.188967 
L 223.046187 224.635683 
L 229.414513 221.356039 
L 235.782838 218.337524 
L 242.151164 215.567623 
L 248.51949 213.033824 
L 254.887815 210.723615 
L 261.892974 208.425696 
L 268.898132 206.366523 
L 275.90329 204.529444 
L 283.545281 202.759083 
L 291.187272 201.211587 
L 299.466095 199.761552 
L 308.381751 198.432576 
L 317.93424 197.238243 
L 328.760394 196.119575 
L 341.497045 195.042791 
L 359.328357 193.787714 
L 390.533153 191.605342 
L 417.916953 189.434795 
L 453.579577 186.369244 
L 542.736137 178.599369 
L 570.75677 176.444902 
L 594.319575 174.848277 
L 615.971883 173.599897 
L 635.713692 172.678013 
L 654.181837 172.029257 
L 672.013149 171.621884 
L 687.933963 171.457806 
L 687.933963 171.457806 
" style="fill:none;stroke:#4daf4a;stroke-linecap:square;stroke-width:2;"/>
   </g>
   <g id="line2d_39">
    <path clip-path="url(#pbd0f5f24d0)" d="M 113.698382 375.715469 
L 113.922771 374.718571 
L 115.517247 370.233856 
L 117.111722 365.188642 
L 118.706198 359.0731 
L 120.300673 350.154701 
L 121.895149 347.14784 
L 123.489625 341.236181 
L 125.0841 339.503533 
L 128.273051 325.947445 
L 129.867527 325.335915 
L 131.462002 315.551071 
L 133.056478 317.589667 
L 134.650953 312.034744 
L 136.245429 309.333708 
L 137.839904 305.919201 
L 139.43438 305.001845 
L 141.028855 300.058574 
L 142.623331 294.197825 
L 145.812282 289.865962 
L 147.406758 282.731243 
L 149.001233 284.9736 
L 150.595709 281.966861 
L 152.190184 279.877355 
L 153.78466 271.060899 
L 155.379135 271.723339 
L 156.973611 269.684865 
L 158.568086 266.42321 
L 160.162562 259.849111 
L 161.757037 260.307789 
L 163.351513 259.390433 
L 164.945988 256.332661 
L 166.540464 249.197943 
L 168.134939 249.911414 
L 169.729415 246.853643 
L 171.32389 250.166209 
L 172.918366 241.706488 
L 174.512842 238.8526 
L 176.107317 235.234209 
L 177.701793 238.29198 
L 179.296268 233.042883 
L 180.890744 234.113091 
L 182.485219 227.53887 
L 184.079695 222.850271 
L 185.67417 221.423328 
L 187.268646 226.264779 
L 188.863121 219.435886 
L 190.457597 222.238741 
L 192.052072 221.780064 
L 193.646548 213.829931 
L 195.241023 215.766584 
L 196.835499 220.964771 
L 198.429975 211.638605 
L 200.02445 211.230837 
L 201.618926 209.905835 
L 203.213401 205.42112 
L 204.807877 206.287566 
L 206.402352 205.319178 
L 207.996828 198.694048 
L 209.591303 205.166326 
L 211.185779 200.936405 
L 212.780254 195.330572 
L 214.37473 196.553632 
L 215.969205 193.954538 
L 217.563681 196.247928 
L 219.158156 188.043001 
L 220.752632 195.17772 
L 222.347108 195.17772 
L 223.941583 191.457387 
L 225.536059 187.380439 
L 227.130534 187.329529 
L 228.72501 185.545728 
L 230.319485 185.545728 
L 231.913961 189.928501 
L 233.508436 184.067874 
L 235.102912 182.335104 
L 236.697387 176.270593 
L 238.291863 177.442743 
L 239.886338 178.105305 
L 241.480814 178.614893 
L 243.075289 177.850389 
L 244.669765 178.462041 
L 246.264241 173.467616 
L 247.858716 167.759841 
L 249.453192 169.441579 
L 251.047667 168.524344 
L 252.642143 167.403105 
L 254.236618 170.970464 
L 255.831094 168.167608 
L 257.425569 163.377068 
L 259.020045 169.594552 
L 260.61452 169.49261 
L 262.208996 162.001155 
L 263.803471 162.561654 
L 265.397947 158.68859 
L 266.992422 161.69533 
L 268.586898 166.129013 
L 270.181374 157.363467 
L 271.775849 157.822145 
L 273.370325 159.30012 
L 274.9648 151.961517 
L 276.559276 153.082635 
L 278.153751 157.210615 
L 279.748227 156.95582 
L 281.342702 154.152843 
L 282.937178 149.923044 
L 284.531653 151.961517 
L 286.126129 150.534573 
L 287.720604 150.585484 
L 289.31508 148.139364 
L 290.909555 151.349987 
L 292.504031 148.903746 
L 294.098507 148.954656 
L 295.692982 144.520973 
L 297.287458 147.425892 
L 298.881933 148.190274 
L 300.476409 146.20271 
L 302.070884 146.967214 
L 303.66536 143.909443 
L 305.259835 145.387297 
L 308.448786 141.514233 
L 310.043262 141.514233 
L 311.637737 144.470062 
L 313.232213 138.609314 
L 314.826688 142.686261 
L 316.421164 143.552707 
L 318.01564 141.616053 
L 319.610115 135.755426 
L 321.204591 136.214104 
L 322.799066 134.277451 
L 324.393542 136.163072 
L 325.988017 137.335222 
L 327.582493 135.500632 
L 329.176968 132.799597 
L 330.771444 133.309185 
L 332.365919 133.61501 
L 333.960395 136.265014 
L 335.55487 132.086125 
L 337.149346 131.525505 
L 338.743821 131.525505 
L 340.338297 129.436121 
L 341.932773 126.785996 
L 343.527248 128.263971 
L 345.121724 129.894677 
L 346.716199 129.385089 
L 348.310675 126.633144 
L 349.90515 125.511904 
L 351.499626 126.837028 
L 353.094101 127.346616 
L 354.688577 118.631979 
L 356.283052 123.575372 
L 357.877528 125.053348 
L 359.472003 125.25711 
L 361.066479 120.874337 
L 362.660954 128.926411 
L 364.25543 123.014753 
L 365.849905 126.531202 
L 367.444381 124.237934 
L 369.038857 120.976279 
L 370.633332 119.702187 
L 372.227808 121.791693 
L 373.822283 124.186902 
L 375.416759 119.753219 
L 377.011234 120.008013 
L 378.60571 119.294541 
L 380.200185 119.192599 
L 381.794661 118.631979 
L 383.389136 117.306977 
L 384.983612 117.052183 
L 386.578087 115.166562 
L 388.172563 113.89247 
L 389.767038 117.45983 
L 391.361514 116.338711 
L 392.95599 113.739618 
L 394.550465 113.994412 
L 396.144941 114.45309 
L 397.739416 115.62524 
L 400.928367 111.752054 
L 402.522843 117.154125 
L 404.117318 111.395318 
L 405.711794 112.465526 
L 407.306269 107.980811 
L 408.900745 111.853996 
L 410.49522 111.44635 
L 412.089696 109.305935 
L 413.684171 109.560729 
L 415.278647 107.929901 
L 416.873123 107.012545 
L 418.467598 108.235727 
L 420.062074 107.318371 
L 421.656549 112.006848 
L 423.251025 107.318371 
L 424.8455 106.961635 
L 426.439976 109.509697 
L 428.034451 106.197131 
L 429.628927 107.522133 
L 431.223402 103.394276 
L 432.817878 104.515394 
L 434.412353 105.024982 
L 436.006829 109.102051 
L 437.601304 109.917464 
L 439.19578 105.126924 
L 440.790256 103.954774 
L 442.384731 107.624075 
L 443.979207 102.273036 
L 445.573682 106.808661 
L 447.168158 102.222126 
L 448.762633 105.126924 
L 450.357109 106.451925 
L 451.951584 104.005806 
L 453.54606 100.438446 
L 455.140535 104.107747 
L 456.735011 102.324068 
L 458.329486 99.470059 
L 459.923962 99.572001 
L 461.518437 103.190392 
L 463.112913 97.278733 
L 464.707389 100.74415 
L 466.301864 100.489356 
L 467.89634 99.775884 
L 469.490815 98.756587 
L 471.085291 104.770188 
L 472.679766 97.737411 
L 474.274242 100.030678 
L 475.868717 98.654766 
L 477.463193 97.941294 
L 479.057668 100.948034 
L 480.652144 99.470059 
L 482.246619 97.686379 
L 483.841095 100.69324 
L 485.43557 100.234562 
L 487.030046 94.781581 
L 488.624522 100.69324 
L 490.218997 95.342201 
L 491.813473 96.004641 
L 493.407948 97.227823 
L 495.002424 98.858529 
L 496.596899 98.654766 
L 498.191375 95.647905 
L 499.78585 98.603735 
L 501.380326 97.635469 
L 502.974801 94.577697 
L 504.569277 89.277568 
L 506.163752 98.603735 
L 507.758228 95.851789 
L 509.352703 95.240259 
L 510.947179 95.851789 
L 512.541655 91.570958 
L 514.13613 95.291169 
L 515.730606 93.099843 
L 517.325081 95.342201 
L 518.919557 90.245956 
L 520.514032 97.890263 
L 522.108508 89.99104 
L 523.702983 91.978604 
L 525.297459 91.621868 
L 526.891934 94.934433 
L 528.48641 90.755544 
L 530.080885 92.590134 
L 531.675361 92.080546 
L 533.269836 95.647905 
L 534.864312 91.11228 
L 538.053263 92.437282 
L 539.647739 87.697773 
L 541.242214 90.806454 
L 542.83669 91.876662 
L 544.431165 93.405548 
L 546.025641 88.76798 
L 547.620116 90.653602 
L 549.214592 90.449718 
L 550.809067 87.188184 
L 552.403543 90.755544 
L 553.998018 88.258392 
L 555.592494 88.207361 
L 557.186969 90.296866 
L 558.781445 86.525623 
L 560.37592 87.54492 
L 561.970396 88.920832 
L 563.564872 91.316164 
L 565.159347 90.959428 
L 566.753823 90.296866 
L 568.348298 86.729507 
L 569.942774 88.76798 
L 571.537249 86.576654 
L 573.131725 89.124716 
L 574.7262 86.016035 
L 576.320676 85.302563 
L 577.915151 82.448675 
L 579.509627 89.124716 
L 582.698578 83.264089 
L 584.293053 84.232355 
L 585.887529 82.703469 
L 587.482005 84.181323 
L 589.07648 86.882359 
L 590.670956 89.175748 
L 592.265431 81.735203 
L 593.859907 84.538059 
L 595.454382 82.703469 
L 597.048858 83.111115 
L 598.643333 86.729507 
L 600.237809 88.10554 
L 601.832284 82.244791 
L 603.42676 85.761241 
L 605.021235 84.283265 
L 606.615711 83.773677 
L 608.210186 81.072642 
L 609.804662 85.761241 
L 611.399138 86.474713 
L 612.993613 85.200621 
L 614.588089 78.6264 
L 616.182564 88.920832 
L 617.77704 82.040908 
L 619.371515 81.684172 
L 620.965991 86.321739 
L 622.560466 82.958263 
L 624.154942 82.499585 
L 625.749417 77.709166 
L 627.343893 79.79855 
L 628.938368 78.779374 
L 630.532844 81.58223 
L 632.127319 83.722767 
L 633.721795 77.912928 
L 635.316271 83.264089 
L 636.910746 81.735203 
L 638.505222 80.410201 
L 640.099697 80.35917 
L 641.694173 83.416941 
L 643.288648 81.429378 
L 644.883124 82.244791 
L 646.477599 82.703469 
L 648.072075 78.01487 
L 649.66655 82.397644 
L 651.261026 76.333132 
L 652.855501 80.664996 
L 654.449977 79.13611 
L 656.044452 81.786114 
L 657.638928 81.735203 
L 659.233404 78.6264 
L 660.827879 80.30826 
L 662.422355 78.167844 
L 664.01683 83.060205 
L 665.611306 81.174584 
L 667.205781 83.162147 
L 668.800257 80.104376 
L 670.394732 80.563054 
L 671.989208 79.696608 
L 673.583683 76.078338 
L 675.178159 79.034168 
L 676.772634 75.619661 
L 678.36711 80.257228 
L 679.961585 75.874455 
L 681.556061 77.046604 
L 683.150537 78.57549 
L 684.745012 80.30826 
L 686.339488 76.027428 
L 687.933963 79.74764 
L 687.933963 79.74764 
" style="fill:none;stroke:#377eb8;stroke-linecap:square;stroke-opacity:0.25098;stroke-width:1.5;"/>
   </g>
   <g id="line2d_40">
    <path clip-path="url(#pbd0f5f24d0)" d="M 104.896313 375.715469 
L 105.950394 369.476521 
L 107.29727 375.715469 
M 108.818204 375.715469 
L 109.139345 375.426211 
L 109.176198 375.715469 
M 111.519066 375.715469 
L 112.328296 363.11639 
L 113.922771 351.62733 
L 115.517247 355.320203 
L 117.111722 333.36782 
L 118.348999 375.715469 
M 119.10542 375.715469 
L 120.300673 339.112411 
L 121.895149 334.188459 
L 123.489625 322.288958 
L 125.0841 311.620536 
L 126.678576 317.775446 
L 128.273051 313.672132 
L 129.867527 317.775446 
L 131.462002 286.795797 
L 133.056478 340.958787 
L 134.650953 341.369106 
L 136.245429 303.003711 
L 137.839904 304.234668 
L 139.43438 311.210217 
L 141.028855 308.337861 
L 142.623331 283.718342 
L 144.217806 305.465626 
L 145.812282 288.847393 
L 147.406758 320.237362 
L 149.001233 288.642294 
L 150.595709 286.795797 
L 152.190184 290.48867 
L 153.78466 286.180257 
L 155.379135 255.405828 
L 156.973611 257.457425 
L 158.568086 261.765959 
L 160.162562 256.842007 
L 161.757037 264.432973 
L 163.351513 261.971058 
L 164.945988 285.564839 
L 166.540464 239.608355 
L 168.134939 265.664052 
L 169.729415 261.150419 
L 171.32389 265.253733 
L 172.918366 245.968364 
L 174.512842 253.354232 
L 176.107317 246.583783 
L 177.701793 262.586597 
L 179.296268 249.045819 
L 180.890744 275.922155 
L 182.485219 254.58519 
L 184.079695 260.12456 
L 185.67417 268.946606 
L 187.268646 239.813454 
L 188.863121 253.764551 
L 190.457597 250.687096 
L 192.052072 236.94122 
L 193.646548 253.354232 
L 195.241023 251.097416 
L 196.835499 244.327087 
L 198.429975 259.919462 
L 200.02445 234.889502 
L 201.618926 231.196629 
L 203.213401 245.558045 
L 204.807877 266.89501 
L 206.402352 224.836498 
L 207.996828 230.581089 
L 209.591303 238.992816 
L 211.185779 217.861071 
L 212.780254 222.990123 
L 214.37473 227.093315 
L 215.969205 205.346031 
L 217.563681 217.040311 
L 219.158156 216.424893 
L 220.752632 234.274084 
L 222.347108 239.608355 
L 223.941583 214.578396 
L 225.536059 235.915361 
L 227.130534 225.862357 
L 228.72501 218.271391 
L 230.319485 220.528086 
L 231.913961 217.245532 
L 233.508436 210.885523 
L 235.102912 230.17077 
L 236.697387 199.396341 
L 238.291863 210.680302 
L 239.886338 217.450631 
L 241.480814 215.604255 
L 243.075289 203.499655 
L 244.669765 211.500941 
L 246.264241 199.191121 
L 247.858716 212.321579 
L 249.453192 208.833805 
L 251.047667 199.191121 
L 252.642143 226.067578 
L 254.236618 218.476489 
L 255.831094 227.298535 
L 257.425569 209.654444 
L 259.020045 209.039025 
L 260.61452 216.629992 
L 262.208996 220.938405 
L 263.803471 200.4222 
L 265.397947 209.859664 
L 266.992422 214.373297 
L 268.586898 205.346031 
L 270.181374 211.295842 
L 271.775849 194.677609 
L 273.370325 213.142218 
L 274.9648 207.808068 
L 276.559276 204.320293 
L 278.153751 205.140932 
L 279.748227 221.143625 
L 281.342702 200.4222 
L 282.937178 191.189835 
L 284.531653 206.37189 
L 286.126129 214.168077 
L 287.720604 194.472389 
L 289.31508 193.856971 
L 290.909555 207.602847 
L 292.504031 200.832519 
L 294.098507 186.060784 
L 295.692982 200.4222 
L 297.287458 191.805253 
L 298.881933 201.037618 
L 300.476409 212.937119 
L 302.070884 197.886167 
L 303.66536 204.525392 
L 305.259835 206.37189 
L 306.854311 201.037618 
L 308.448786 197.755064 
L 310.043262 193.856971 
L 311.637737 191.805253 
L 313.232213 194.26729 
L 314.826688 199.80666 
L 316.421164 215.399034 
L 318.01564 201.242838 
L 319.610115 219.912668 
L 321.204591 195.703346 
L 322.799066 197.960163 
L 324.393542 188.933018 
L 325.988017 197.549844 
L 327.582493 204.935712 
L 329.176968 196.318886 
L 330.771444 195.908567 
L 332.365919 195.293027 
L 333.960395 203.704754 
L 335.55487 196.934426 
L 337.149346 181.136831 
L 338.743821 194.882708 
L 340.338297 183.803967 
L 341.932773 193.446651 
L 343.527248 179.085235 
L 345.121724 205.96157 
L 346.716199 186.881422 
L 348.310675 210.064763 
L 349.90515 204.730613 
L 351.499626 184.829704 
L 353.094101 193.241431 
L 354.688577 199.396341 
L 356.283052 184.829704 
L 357.877528 193.446651 
L 359.472003 195.498248 
L 361.066479 201.242838 
L 362.660954 180.726512 
L 364.25543 182.983328 
L 365.849905 194.062069 
L 367.444381 182.367789 
L 369.038857 213.552537 
L 370.633332 199.80666 
L 372.227808 188.11238 
L 373.822283 185.445244 
L 375.416759 207.602847 
L 377.011234 193.446651 
L 378.60571 198.986022 
L 380.200185 198.575703 
L 381.794661 179.905873 
L 383.389136 213.347438 
L 384.983612 184.009066 
L 386.578087 186.471103 
L 388.172563 197.960163 
L 389.767038 183.188427 
L 391.361514 182.983328 
L 392.95599 179.085235 
L 394.550465 195.703346 
L 396.144941 184.624605 
L 397.739416 184.214286 
L 399.333892 183.598747 
L 400.928367 194.26729 
L 402.522843 175.39224 
L 404.117318 199.396341 
L 405.711794 196.729205 
L 407.306269 184.419385 
L 408.900745 200.011881 
L 410.49522 188.317479 
L 412.089696 197.139524 
L 413.684171 195.293027 
L 415.278647 171.289048 
L 416.873123 175.597461 
L 420.062074 192.831112 
L 421.656549 194.882708 
L 423.251025 176.212879 
L 424.8455 177.443837 
L 426.439976 184.829704 
L 428.034451 189.548558 
L 429.628927 191.189835 
L 431.223402 187.907159 
L 432.817878 185.034925 
L 434.412353 179.700653 
L 437.601304 172.314785 
L 439.19578 192.420792 
L 440.790256 198.575703 
L 442.384731 191.600154 
L 443.979207 195.703346 
L 445.573682 192.626013 
L 447.168158 182.16269 
L 448.762633 200.832519 
L 450.357109 177.854277 
L 451.951584 189.753657 
L 453.54606 172.314785 
L 455.140535 175.39224 
L 458.329486 201.242838 
L 459.923962 182.367789 
L 461.518437 166.159875 
L 463.112913 194.882708 
L 464.707389 201.242838 
L 466.301864 174.571602 
L 467.89634 172.930325 
L 469.490815 173.956062 
L 471.085291 197.344745 
L 472.679766 184.624605 
L 474.274242 219.502348 
L 475.868717 219.092029 
L 477.463193 189.343337 
L 479.057668 194.062069 
L 480.652144 177.238738 
L 482.246619 175.597461 
L 483.841095 195.703346 
L 485.43557 172.109686 
L 487.030046 187.086521 
L 488.624522 190.369196 
L 490.218997 187.086521 
L 491.813473 175.80256 
L 493.407948 168.621912 
L 495.002424 181.136831 
L 496.596899 204.730613 
L 498.191375 195.498248 
L 499.78585 171.904466 
L 501.380326 178.674916 
L 502.974801 186.265882 
L 504.569277 192.215572 
L 506.163752 186.060784 
L 507.758228 179.290334 
L 509.352703 192.010473 
L 510.947179 182.983328 
L 512.541655 174.981921 
L 514.13613 178.264596 
L 515.730606 186.060784 
L 517.325081 162.056683 
L 518.919557 185.445244 
L 520.514032 192.420792 
L 522.108508 170.057969 
L 523.702983 173.135424 
L 525.297459 186.060784 
L 526.891934 172.725105 
L 528.48641 192.215572 
L 530.080885 186.060784 
L 531.675361 181.95747 
L 534.864312 177.854277 
L 536.458788 162.467002 
L 538.053263 178.264596 
L 539.647739 168.827011 
L 541.242214 181.54715 
L 542.83669 165.544457 
L 544.431165 186.881422 
L 546.025641 172.725105 
L 547.620116 178.469695 
L 549.214592 171.904466 
L 550.809067 196.113787 
L 552.403543 173.589241 
L 553.998018 185.034925 
L 555.592494 172.520006 
L 557.186969 167.801274 
L 558.781445 168.621912 
L 560.37592 182.778108 
L 561.970396 167.801274 
L 563.564872 178.264596 
L 565.159347 182.16269 
L 566.753823 174.571602 
L 568.348298 171.494147 
L 569.942774 178.880015 
L 571.537249 177.033517 
L 573.131725 162.056683 
L 576.320676 177.649057 
L 577.915151 174.981921 
L 579.509627 173.750963 
L 581.104102 178.880015 
L 582.698578 182.573009 
L 584.293053 182.16269 
L 585.887529 172.520006 
L 587.482005 177.854277 
L 589.07648 184.829704 
L 590.670956 176.623198 
L 592.265431 179.700653 
L 593.859907 160.210185 
L 595.454382 170.673508 
L 597.048858 170.468409 
L 598.643333 173.545743 
L 600.237809 193.65175 
L 601.832284 174.981921 
L 603.42676 164.723819 
L 605.021235 178.264596 
L 606.615711 171.494147 
L 608.210186 165.339237 
L 609.804662 170.057969 
L 611.399138 177.443837 
L 612.993613 163.08242 
L 614.588089 166.980635 
L 616.182564 180.931611 
L 617.77704 183.393648 
L 619.371515 194.677609 
L 620.965991 168.827011 
L 622.560466 165.134138 
L 624.154942 170.468409 
L 625.749417 169.647649 
L 627.343893 177.854277 
L 628.938368 162.467002 
L 630.532844 183.188427 
L 632.127319 163.90318 
L 633.721795 171.289048 
L 635.316271 171.083828 
L 636.910746 189.548558 
L 638.505222 168.621912 
L 640.099697 164.518598 
L 641.694173 184.829704 
L 643.288648 169.85287 
L 644.883124 171.494147 
L 646.477599 168.211593 
L 648.072075 171.289048 
L 649.66655 170.057969 
L 651.261026 175.39224 
L 654.449977 166.980635 
L 656.044452 157.13273 
L 657.638928 176.623198 
L 659.233404 177.238738 
L 660.827879 155.901773 
L 662.422355 184.214286 
L 664.01683 186.060784 
L 665.611306 173.750963 
L 667.205781 171.699367 
L 668.800257 178.674916 
L 670.394732 181.54715 
L 671.989208 168.006373 
L 673.583683 182.573009 
L 675.178159 164.108279 
L 676.772634 180.726512 
L 678.36711 158.979228 
L 679.961585 181.136831 
L 681.556061 174.366503 
L 683.150537 171.289048 
L 684.745012 158.158589 
L 686.339488 162.672101 
L 687.933963 171.494147 
L 687.933963 171.494147 
" style="fill:none;stroke:#4daf4a;stroke-linecap:square;stroke-opacity:0.25098;stroke-width:1.5;"/>
   </g>
   <g id="patch_3">
    <path d="M 50.14375 337.159219 
L 50.14375 10.999219 
" style="fill:none;stroke:#000000;stroke-linecap:square;stroke-linejoin:miter;stroke-width:0.8;"/>
   </g>
   <g id="patch_4">
    <path d="M 719.74375 337.159219 
L 719.74375 10.999219 
" style="fill:none;stroke:#000000;stroke-linecap:square;stroke-linejoin:miter;stroke-width:0.8;"/>
   </g>
   <g id="patch_5">
    <path d="M 50.14375 337.159219 
L 719.74375 337.159219 
" style="fill:none;stroke:#000000;stroke-linecap:square;stroke-linejoin:miter;stroke-width:0.8;"/>
   </g>
   <g id="patch_6">
    <path d="M 50.14375 10.999219 
L 719.74375 10.999219 
" style="fill:none;stroke:#000000;stroke-linecap:square;stroke-linejoin:miter;stroke-width:0.8;"/>
   </g>
   <g id="legend_1">
    <g id="patch_7">
     <path d="M 57.14375 48.355469 
L 114.584375 48.355469 
Q 116.584375 48.355469 116.584375 46.355469 
L 116.584375 17.999219 
Q 116.584375 15.999219 114.584375 15.999219 
L 57.14375 15.999219 
Q 55.14375 15.999219 55.14375 17.999219 
L 55.14375 46.355469 
Q 55.14375 48.355469 57.14375 48.355469 
z
" style="fill:#ffffff;opacity:0.8;stroke:#cccccc;stroke-linejoin:miter;"/>
    </g>
    <g id="line2d_41">
     <path d="M 59.14375 24.097656 
L 79.14375 24.097656 
" style="fill:none;stroke:#377eb8;stroke-linecap:square;stroke-width:2;"/>
    </g>
    <g id="line2d_42"/>
    <g id="text_21">
     <!-- Train -->
     <defs>
      <path d="M -0.296875 72.90625 
L 61.375 72.90625 
L 61.375 64.59375 
L 35.5 64.59375 
L 35.5 0 
L 25.59375 0 
L 25.59375 64.59375 
L -0.296875 64.59375 
z
" id="DejaVuSans-84"/>
      <path d="M 9.421875 54.6875 
L 18.40625 54.6875 
L 18.40625 0 
L 9.421875 0 
z
M 9.421875 75.984375 
L 18.40625 75.984375 
L 18.40625 64.59375 
L 9.421875 64.59375 
z
" id="DejaVuSans-105"/>
      <path d="M 54.890625 33.015625 
L 54.890625 0 
L 45.90625 0 
L 45.90625 32.71875 
Q 45.90625 40.484375 42.875 44.328125 
Q 39.84375 48.1875 33.796875 48.1875 
Q 26.515625 48.1875 22.3125 43.546875 
Q 18.109375 38.921875 18.109375 30.90625 
L 18.109375 0 
L 9.078125 0 
L 9.078125 54.6875 
L 18.109375 54.6875 
L 18.109375 46.1875 
Q 21.34375 51.125 25.703125 53.5625 
Q 30.078125 56 35.796875 56 
Q 45.21875 56 50.046875 50.171875 
Q 54.890625 44.34375 54.890625 33.015625 
z
" id="DejaVuSans-110"/>
     </defs>
     <g transform="translate(87.14375 27.597656)scale(0.1 -0.1)">
      <use xlink:href="#DejaVuSans-84"/>
      <use x="60.865234" xlink:href="#DejaVuSans-114"/>
      <use x="101.978516" xlink:href="#DejaVuSans-97"/>
      <use x="163.257812" xlink:href="#DejaVuSans-105"/>
      <use x="191.041016" xlink:href="#DejaVuSans-110"/>
     </g>
    </g>
    <g id="line2d_43">
     <path d="M 59.14375 38.775781 
L 79.14375 38.775781 
" style="fill:none;stroke:#4daf4a;stroke-linecap:square;stroke-width:2;"/>
    </g>
    <g id="line2d_44"/>
    <g id="text_22">
     <!-- Test -->
     <defs>
      <path d="M 56.203125 29.59375 
L 56.203125 25.203125 
L 14.890625 25.203125 
Q 15.484375 15.921875 20.484375 11.0625 
Q 25.484375 6.203125 34.421875 6.203125 
Q 39.59375 6.203125 44.453125 7.46875 
Q 49.3125 8.734375 54.109375 11.28125 
L 54.109375 2.78125 
Q 49.265625 0.734375 44.1875 -0.34375 
Q 39.109375 -1.421875 33.890625 -1.421875 
Q 20.796875 -1.421875 13.15625 6.1875 
Q 5.515625 13.8125 5.515625 26.8125 
Q 5.515625 40.234375 12.765625 48.109375 
Q 20.015625 56 32.328125 56 
Q 43.359375 56 49.78125 48.890625 
Q 56.203125 41.796875 56.203125 29.59375 
z
M 47.21875 32.234375 
Q 47.125 39.59375 43.09375 43.984375 
Q 39.0625 48.390625 32.421875 48.390625 
Q 24.90625 48.390625 20.390625 44.140625 
Q 15.875 39.890625 15.1875 32.171875 
z
" id="DejaVuSans-101"/>
      <path d="M 44.28125 53.078125 
L 44.28125 44.578125 
Q 40.484375 46.53125 36.375 47.5 
Q 32.28125 48.484375 27.875 48.484375 
Q 21.1875 48.484375 17.84375 46.4375 
Q 14.5 44.390625 14.5 40.28125 
Q 14.5 37.15625 16.890625 35.375 
Q 19.28125 33.59375 26.515625 31.984375 
L 29.59375 31.296875 
Q 39.15625 29.25 43.1875 25.515625 
Q 47.21875 21.78125 47.21875 15.09375 
Q 47.21875 7.46875 41.1875 3.015625 
Q 35.15625 -1.421875 24.609375 -1.421875 
Q 20.21875 -1.421875 15.453125 -0.5625 
Q 10.6875 0.296875 5.421875 2 
L 5.421875 11.28125 
Q 10.40625 8.6875 15.234375 7.390625 
Q 20.0625 6.109375 24.8125 6.109375 
Q 31.15625 6.109375 34.5625 8.28125 
Q 37.984375 10.453125 37.984375 14.40625 
Q 37.984375 18.0625 35.515625 20.015625 
Q 33.0625 21.96875 24.703125 23.78125 
L 21.578125 24.515625 
Q 13.234375 26.265625 9.515625 29.90625 
Q 5.8125 33.546875 5.8125 39.890625 
Q 5.8125 47.609375 11.28125 51.796875 
Q 16.75 56 26.8125 56 
Q 31.78125 56 36.171875 55.265625 
Q 40.578125 54.546875 44.28125 53.078125 
z
" id="DejaVuSans-115"/>
      <path d="M 18.3125 70.21875 
L 18.3125 54.6875 
L 36.8125 54.6875 
L 36.8125 47.703125 
L 18.3125 47.703125 
L 18.3125 18.015625 
Q 18.3125 11.328125 20.140625 9.421875 
Q 21.96875 7.515625 27.59375 7.515625 
L 36.8125 7.515625 
L 36.8125 0 
L 27.59375 0 
Q 17.1875 0 13.234375 3.875 
Q 9.28125 7.765625 9.28125 18.015625 
L 9.28125 47.703125 
L 2.6875 47.703125 
L 2.6875 54.6875 
L 9.28125 54.6875 
L 9.28125 70.21875 
z
" id="DejaVuSans-116"/>
     </defs>
     <g transform="translate(87.14375 42.275781)scale(0.1 -0.1)">
      <use xlink:href="#DejaVuSans-84"/>
      <use x="60.818359" xlink:href="#DejaVuSans-101"/>
      <use x="122.341797" xlink:href="#DejaVuSans-115"/>
      <use x="174.441406" xlink:href="#DejaVuSans-116"/>
     </g>
    </g>
   </g>
  </g>
 </g>
 <defs>
  <clipPath id="pbd0f5f24d0">
   <rect height="326.16" width="669.6" x="50.14375" y="10.999219"/>
  </clipPath>
 </defs>
</svg>
