<?xml version="1.0" encoding="utf-8" standalone="no"?>
<!DOCTYPE svg PUBLIC "-//W3C//DTD SVG 1.1//EN"
  "http://www.w3.org/Graphics/SVG/1.1/DTD/svg11.dtd">
<!-- Created with matplotlib (https://matplotlib.org/) -->
<svg height="374.715469pt" version="1.1" viewBox="0 0 726.94375 374.715469" width="726.94375pt" xmlns="http://www.w3.org/2000/svg" xmlns:xlink="http://www.w3.org/1999/xlink">
 <defs>
  <style type="text/css">
*{stroke-linecap:butt;stroke-linejoin:round;white-space:pre;}
  </style>
 </defs>
 <g id="figure_1">
  <g id="patch_1">
   <path d="M 0 374.715469 
L 726.94375 374.715469 
L 726.94375 0 
L 0 0 
z
" style="fill:#ffffff;"/>
  </g>
  <g id="axes_1">
   <g id="patch_2">
    <path d="M 50.14375 337.159219 
L 719.74375 337.159219 
L 719.74375 10.999219 
L 50.14375 10.999219 
z
" style="fill:#ffffff;"/>
   </g>
   <g id="matplotlib.axis_1">
    <g id="xtick_1">
     <g id="line2d_1">
      <path clip-path="url(#pd905c26638)" d="M 50.14375 337.159219 
L 50.14375 10.999219 
" style="fill:none;stroke:#b0b0b0;stroke-linecap:square;stroke-width:0.8;"/>
     </g>
     <g id="line2d_2">
      <defs>
       <path d="M 0 0 
L 0 3.5 
" id="ma3ab9e5187" style="stroke:#000000;stroke-width:0.8;"/>
      </defs>
      <g>
       <use style="stroke:#000000;stroke-width:0.8;" x="50.14375" xlink:href="#ma3ab9e5187" y="337.159219"/>
      </g>
     </g>
     <g id="text_1">
      <!-- 0 -->
      <defs>
       <path d="M 31.78125 66.40625 
Q 24.171875 66.40625 20.328125 58.90625 
Q 16.5 51.421875 16.5 36.375 
Q 16.5 21.390625 20.328125 13.890625 
Q 24.171875 6.390625 31.78125 6.390625 
Q 39.453125 6.390625 43.28125 13.890625 
Q 47.125 21.390625 47.125 36.375 
Q 47.125 51.421875 43.28125 58.90625 
Q 39.453125 66.40625 31.78125 66.40625 
z
M 31.78125 74.21875 
Q 44.046875 74.21875 50.515625 64.515625 
Q 56.984375 54.828125 56.984375 36.375 
Q 56.984375 17.96875 50.515625 8.265625 
Q 44.046875 -1.421875 31.78125 -1.421875 
Q 19.53125 -1.421875 13.0625 8.265625 
Q 6.59375 17.96875 6.59375 36.375 
Q 6.59375 54.828125 13.0625 64.515625 
Q 19.53125 74.21875 31.78125 74.21875 
z
" id="DejaVuSans-48"/>
      </defs>
      <g transform="translate(46.9625 351.757656)scale(0.1 -0.1)">
       <use xlink:href="#DejaVuSans-48"/>
      </g>
     </g>
    </g>
    <g id="xtick_2">
     <g id="line2d_3">
      <path clip-path="url(#pd905c26638)" d="M 129.867527 337.159219 
L 129.867527 10.999219 
" style="fill:none;stroke:#b0b0b0;stroke-linecap:square;stroke-width:0.8;"/>
     </g>
     <g id="line2d_4">
      <g>
       <use style="stroke:#000000;stroke-width:0.8;" x="129.867527" xlink:href="#ma3ab9e5187" y="337.159219"/>
      </g>
     </g>
     <g id="text_2">
      <!-- 50 -->
      <defs>
       <path d="M 10.796875 72.90625 
L 49.515625 72.90625 
L 49.515625 64.59375 
L 19.828125 64.59375 
L 19.828125 46.734375 
Q 21.96875 47.46875 24.109375 47.828125 
Q 26.265625 48.1875 28.421875 48.1875 
Q 40.625 48.1875 47.75 41.5 
Q 54.890625 34.8125 54.890625 23.390625 
Q 54.890625 11.625 47.5625 5.09375 
Q 40.234375 -1.421875 26.90625 -1.421875 
Q 22.3125 -1.421875 17.546875 -0.640625 
Q 12.796875 0.140625 7.71875 1.703125 
L 7.71875 11.625 
Q 12.109375 9.234375 16.796875 8.0625 
Q 21.484375 6.890625 26.703125 6.890625 
Q 35.15625 6.890625 40.078125 11.328125 
Q 45.015625 15.765625 45.015625 23.390625 
Q 45.015625 31 40.078125 35.4375 
Q 35.15625 39.890625 26.703125 39.890625 
Q 22.75 39.890625 18.8125 39.015625 
Q 14.890625 38.140625 10.796875 36.28125 
z
" id="DejaVuSans-53"/>
      </defs>
      <g transform="translate(123.505027 351.757656)scale(0.1 -0.1)">
       <use xlink:href="#DejaVuSans-53"/>
       <use x="63.623047" xlink:href="#DejaVuSans-48"/>
      </g>
     </g>
    </g>
    <g id="xtick_3">
     <g id="line2d_5">
      <path clip-path="url(#pd905c26638)" d="M 209.591303 337.159219 
L 209.591303 10.999219 
" style="fill:none;stroke:#b0b0b0;stroke-linecap:square;stroke-width:0.8;"/>
     </g>
     <g id="line2d_6">
      <g>
       <use style="stroke:#000000;stroke-width:0.8;" x="209.591303" xlink:href="#ma3ab9e5187" y="337.159219"/>
      </g>
     </g>
     <g id="text_3">
      <!-- 100 -->
      <defs>
       <path d="M 12.40625 8.296875 
L 28.515625 8.296875 
L 28.515625 63.921875 
L 10.984375 60.40625 
L 10.984375 69.390625 
L 28.421875 72.90625 
L 38.28125 72.90625 
L 38.28125 8.296875 
L 54.390625 8.296875 
L 54.390625 0 
L 12.40625 0 
z
" id="DejaVuSans-49"/>
      </defs>
      <g transform="translate(200.047553 351.757656)scale(0.1 -0.1)">
       <use xlink:href="#DejaVuSans-49"/>
       <use x="63.623047" xlink:href="#DejaVuSans-48"/>
       <use x="127.246094" xlink:href="#DejaVuSans-48"/>
      </g>
     </g>
    </g>
    <g id="xtick_4">
     <g id="line2d_7">
      <path clip-path="url(#pd905c26638)" d="M 289.31508 337.159219 
L 289.31508 10.999219 
" style="fill:none;stroke:#b0b0b0;stroke-linecap:square;stroke-width:0.8;"/>
     </g>
     <g id="line2d_8">
      <g>
       <use style="stroke:#000000;stroke-width:0.8;" x="289.31508" xlink:href="#ma3ab9e5187" y="337.159219"/>
      </g>
     </g>
     <g id="text_4">
      <!-- 150 -->
      <g transform="translate(279.77133 351.757656)scale(0.1 -0.1)">
       <use xlink:href="#DejaVuSans-49"/>
       <use x="63.623047" xlink:href="#DejaVuSans-53"/>
       <use x="127.246094" xlink:href="#DejaVuSans-48"/>
      </g>
     </g>
    </g>
    <g id="xtick_5">
     <g id="line2d_9">
      <path clip-path="url(#pd905c26638)" d="M 369.038857 337.159219 
L 369.038857 10.999219 
" style="fill:none;stroke:#b0b0b0;stroke-linecap:square;stroke-width:0.8;"/>
     </g>
     <g id="line2d_10">
      <g>
       <use style="stroke:#000000;stroke-width:0.8;" x="369.038857" xlink:href="#ma3ab9e5187" y="337.159219"/>
      </g>
     </g>
     <g id="text_5">
      <!-- 200 -->
      <defs>
       <path d="M 19.1875 8.296875 
L 53.609375 8.296875 
L 53.609375 0 
L 7.328125 0 
L 7.328125 8.296875 
Q 12.9375 14.109375 22.625 23.890625 
Q 32.328125 33.6875 34.8125 36.53125 
Q 39.546875 41.84375 41.421875 45.53125 
Q 43.3125 49.21875 43.3125 52.78125 
Q 43.3125 58.59375 39.234375 62.25 
Q 35.15625 65.921875 28.609375 65.921875 
Q 23.96875 65.921875 18.8125 64.3125 
Q 13.671875 62.703125 7.8125 59.421875 
L 7.8125 69.390625 
Q 13.765625 71.78125 18.9375 73 
Q 24.125 74.21875 28.421875 74.21875 
Q 39.75 74.21875 46.484375 68.546875 
Q 53.21875 62.890625 53.21875 53.421875 
Q 53.21875 48.921875 51.53125 44.890625 
Q 49.859375 40.875 45.40625 35.40625 
Q 44.1875 33.984375 37.640625 27.21875 
Q 31.109375 20.453125 19.1875 8.296875 
z
" id="DejaVuSans-50"/>
      </defs>
      <g transform="translate(359.495107 351.757656)scale(0.1 -0.1)">
       <use xlink:href="#DejaVuSans-50"/>
       <use x="63.623047" xlink:href="#DejaVuSans-48"/>
       <use x="127.246094" xlink:href="#DejaVuSans-48"/>
      </g>
     </g>
    </g>
    <g id="xtick_6">
     <g id="line2d_11">
      <path clip-path="url(#pd905c26638)" d="M 448.762633 337.159219 
L 448.762633 10.999219 
" style="fill:none;stroke:#b0b0b0;stroke-linecap:square;stroke-width:0.8;"/>
     </g>
     <g id="line2d_12">
      <g>
       <use style="stroke:#000000;stroke-width:0.8;" x="448.762633" xlink:href="#ma3ab9e5187" y="337.159219"/>
      </g>
     </g>
     <g id="text_6">
      <!-- 250 -->
      <g transform="translate(439.218883 351.757656)scale(0.1 -0.1)">
       <use xlink:href="#DejaVuSans-50"/>
       <use x="63.623047" xlink:href="#DejaVuSans-53"/>
       <use x="127.246094" xlink:href="#DejaVuSans-48"/>
      </g>
     </g>
    </g>
    <g id="xtick_7">
     <g id="line2d_13">
      <path clip-path="url(#pd905c26638)" d="M 528.48641 337.159219 
L 528.48641 10.999219 
" style="fill:none;stroke:#b0b0b0;stroke-linecap:square;stroke-width:0.8;"/>
     </g>
     <g id="line2d_14">
      <g>
       <use style="stroke:#000000;stroke-width:0.8;" x="528.48641" xlink:href="#ma3ab9e5187" y="337.159219"/>
      </g>
     </g>
     <g id="text_7">
      <!-- 300 -->
      <defs>
       <path d="M 40.578125 39.3125 
Q 47.65625 37.796875 51.625 33 
Q 55.609375 28.21875 55.609375 21.1875 
Q 55.609375 10.40625 48.1875 4.484375 
Q 40.765625 -1.421875 27.09375 -1.421875 
Q 22.515625 -1.421875 17.65625 -0.515625 
Q 12.796875 0.390625 7.625 2.203125 
L 7.625 11.71875 
Q 11.71875 9.328125 16.59375 8.109375 
Q 21.484375 6.890625 26.8125 6.890625 
Q 36.078125 6.890625 40.9375 10.546875 
Q 45.796875 14.203125 45.796875 21.1875 
Q 45.796875 27.640625 41.28125 31.265625 
Q 36.765625 34.90625 28.71875 34.90625 
L 20.21875 34.90625 
L 20.21875 43.015625 
L 29.109375 43.015625 
Q 36.375 43.015625 40.234375 45.921875 
Q 44.09375 48.828125 44.09375 54.296875 
Q 44.09375 59.90625 40.109375 62.90625 
Q 36.140625 65.921875 28.71875 65.921875 
Q 24.65625 65.921875 20.015625 65.03125 
Q 15.375 64.15625 9.8125 62.3125 
L 9.8125 71.09375 
Q 15.4375 72.65625 20.34375 73.4375 
Q 25.25 74.21875 29.59375 74.21875 
Q 40.828125 74.21875 47.359375 69.109375 
Q 53.90625 64.015625 53.90625 55.328125 
Q 53.90625 49.265625 50.4375 45.09375 
Q 46.96875 40.921875 40.578125 39.3125 
z
" id="DejaVuSans-51"/>
      </defs>
      <g transform="translate(518.94266 351.757656)scale(0.1 -0.1)">
       <use xlink:href="#DejaVuSans-51"/>
       <use x="63.623047" xlink:href="#DejaVuSans-48"/>
       <use x="127.246094" xlink:href="#DejaVuSans-48"/>
      </g>
     </g>
    </g>
    <g id="xtick_8">
     <g id="line2d_15">
      <path clip-path="url(#pd905c26638)" d="M 608.210186 337.159219 
L 608.210186 10.999219 
" style="fill:none;stroke:#b0b0b0;stroke-linecap:square;stroke-width:0.8;"/>
     </g>
     <g id="line2d_16">
      <g>
       <use style="stroke:#000000;stroke-width:0.8;" x="608.210186" xlink:href="#ma3ab9e5187" y="337.159219"/>
      </g>
     </g>
     <g id="text_8">
      <!-- 350 -->
      <g transform="translate(598.666436 351.757656)scale(0.1 -0.1)">
       <use xlink:href="#DejaVuSans-51"/>
       <use x="63.623047" xlink:href="#DejaVuSans-53"/>
       <use x="127.246094" xlink:href="#DejaVuSans-48"/>
      </g>
     </g>
    </g>
    <g id="xtick_9">
     <g id="line2d_17">
      <path clip-path="url(#pd905c26638)" d="M 687.933963 337.159219 
L 687.933963 10.999219 
" style="fill:none;stroke:#b0b0b0;stroke-linecap:square;stroke-width:0.8;"/>
     </g>
     <g id="line2d_18">
      <g>
       <use style="stroke:#000000;stroke-width:0.8;" x="687.933963" xlink:href="#ma3ab9e5187" y="337.159219"/>
      </g>
     </g>
     <g id="text_9">
      <!-- 400 -->
      <defs>
       <path d="M 37.796875 64.3125 
L 12.890625 25.390625 
L 37.796875 25.390625 
z
M 35.203125 72.90625 
L 47.609375 72.90625 
L 47.609375 25.390625 
L 58.015625 25.390625 
L 58.015625 17.1875 
L 47.609375 17.1875 
L 47.609375 0 
L 37.796875 0 
L 37.796875 17.1875 
L 4.890625 17.1875 
L 4.890625 26.703125 
z
" id="DejaVuSans-52"/>
      </defs>
      <g transform="translate(678.390213 351.757656)scale(0.1 -0.1)">
       <use xlink:href="#DejaVuSans-52"/>
       <use x="63.623047" xlink:href="#DejaVuSans-48"/>
       <use x="127.246094" xlink:href="#DejaVuSans-48"/>
      </g>
     </g>
    </g>
    <g id="text_10">
     <!-- Epoch -->
     <defs>
      <path d="M 9.8125 72.90625 
L 55.90625 72.90625 
L 55.90625 64.59375 
L 19.671875 64.59375 
L 19.671875 43.015625 
L 54.390625 43.015625 
L 54.390625 34.71875 
L 19.671875 34.71875 
L 19.671875 8.296875 
L 56.78125 8.296875 
L 56.78125 0 
L 9.8125 0 
z
" id="DejaVuSans-69"/>
      <path d="M 18.109375 8.203125 
L 18.109375 -20.796875 
L 9.078125 -20.796875 
L 9.078125 54.6875 
L 18.109375 54.6875 
L 18.109375 46.390625 
Q 20.953125 51.265625 25.265625 53.625 
Q 29.59375 56 35.59375 56 
Q 45.5625 56 51.78125 48.09375 
Q 58.015625 40.1875 58.015625 27.296875 
Q 58.015625 14.40625 51.78125 6.484375 
Q 45.5625 -1.421875 35.59375 -1.421875 
Q 29.59375 -1.421875 25.265625 0.953125 
Q 20.953125 3.328125 18.109375 8.203125 
z
M 48.6875 27.296875 
Q 48.6875 37.203125 44.609375 42.84375 
Q 40.53125 48.484375 33.40625 48.484375 
Q 26.265625 48.484375 22.1875 42.84375 
Q 18.109375 37.203125 18.109375 27.296875 
Q 18.109375 17.390625 22.1875 11.75 
Q 26.265625 6.109375 33.40625 6.109375 
Q 40.53125 6.109375 44.609375 11.75 
Q 48.6875 17.390625 48.6875 27.296875 
z
" id="DejaVuSans-112"/>
      <path d="M 30.609375 48.390625 
Q 23.390625 48.390625 19.1875 42.75 
Q 14.984375 37.109375 14.984375 27.296875 
Q 14.984375 17.484375 19.15625 11.84375 
Q 23.34375 6.203125 30.609375 6.203125 
Q 37.796875 6.203125 41.984375 11.859375 
Q 46.1875 17.53125 46.1875 27.296875 
Q 46.1875 37.015625 41.984375 42.703125 
Q 37.796875 48.390625 30.609375 48.390625 
z
M 30.609375 56 
Q 42.328125 56 49.015625 48.375 
Q 55.71875 40.765625 55.71875 27.296875 
Q 55.71875 13.875 49.015625 6.21875 
Q 42.328125 -1.421875 30.609375 -1.421875 
Q 18.84375 -1.421875 12.171875 6.21875 
Q 5.515625 13.875 5.515625 27.296875 
Q 5.515625 40.765625 12.171875 48.375 
Q 18.84375 56 30.609375 56 
z
" id="DejaVuSans-111"/>
      <path d="M 48.78125 52.59375 
L 48.78125 44.1875 
Q 44.96875 46.296875 41.140625 47.34375 
Q 37.3125 48.390625 33.40625 48.390625 
Q 24.65625 48.390625 19.8125 42.84375 
Q 14.984375 37.3125 14.984375 27.296875 
Q 14.984375 17.28125 19.8125 11.734375 
Q 24.65625 6.203125 33.40625 6.203125 
Q 37.3125 6.203125 41.140625 7.25 
Q 44.96875 8.296875 48.78125 10.40625 
L 48.78125 2.09375 
Q 45.015625 0.34375 40.984375 -0.53125 
Q 36.96875 -1.421875 32.421875 -1.421875 
Q 20.0625 -1.421875 12.78125 6.34375 
Q 5.515625 14.109375 5.515625 27.296875 
Q 5.515625 40.671875 12.859375 48.328125 
Q 20.21875 56 33.015625 56 
Q 37.15625 56 41.109375 55.140625 
Q 45.0625 54.296875 48.78125 52.59375 
z
" id="DejaVuSans-99"/>
      <path d="M 54.890625 33.015625 
L 54.890625 0 
L 45.90625 0 
L 45.90625 32.71875 
Q 45.90625 40.484375 42.875 44.328125 
Q 39.84375 48.1875 33.796875 48.1875 
Q 26.515625 48.1875 22.3125 43.546875 
Q 18.109375 38.921875 18.109375 30.90625 
L 18.109375 0 
L 9.078125 0 
L 9.078125 75.984375 
L 18.109375 75.984375 
L 18.109375 46.1875 
Q 21.34375 51.125 25.703125 53.5625 
Q 30.078125 56 35.796875 56 
Q 45.21875 56 50.046875 50.171875 
Q 54.890625 44.34375 54.890625 33.015625 
z
" id="DejaVuSans-104"/>
     </defs>
     <g transform="translate(369.632813 365.435781)scale(0.1 -0.1)">
      <use xlink:href="#DejaVuSans-69"/>
      <use x="63.183594" xlink:href="#DejaVuSans-112"/>
      <use x="126.660156" xlink:href="#DejaVuSans-111"/>
      <use x="187.841797" xlink:href="#DejaVuSans-99"/>
      <use x="242.822266" xlink:href="#DejaVuSans-104"/>
     </g>
    </g>
   </g>
   <g id="matplotlib.axis_2">
    <g id="ytick_1">
     <g id="line2d_19">
      <path clip-path="url(#pd905c26638)" d="M 50.14375 337.159219 
L 719.74375 337.159219 
" style="fill:none;stroke:#b0b0b0;stroke-linecap:square;stroke-width:0.8;"/>
     </g>
     <g id="line2d_20">
      <defs>
       <path d="M 0 0 
L -3.5 0 
" id="ma5e366b1d0" style="stroke:#000000;stroke-width:0.8;"/>
      </defs>
      <g>
       <use style="stroke:#000000;stroke-width:0.8;" x="50.14375" xlink:href="#ma5e366b1d0" y="337.159219"/>
      </g>
     </g>
     <g id="text_11">
      <!-- 0.82 -->
      <defs>
       <path d="M 10.6875 12.40625 
L 21 12.40625 
L 21 0 
L 10.6875 0 
z
" id="DejaVuSans-46"/>
       <path d="M 31.78125 34.625 
Q 24.75 34.625 20.71875 30.859375 
Q 16.703125 27.09375 16.703125 20.515625 
Q 16.703125 13.921875 20.71875 10.15625 
Q 24.75 6.390625 31.78125 6.390625 
Q 38.8125 6.390625 42.859375 10.171875 
Q 46.921875 13.96875 46.921875 20.515625 
Q 46.921875 27.09375 42.890625 30.859375 
Q 38.875 34.625 31.78125 34.625 
z
M 21.921875 38.8125 
Q 15.578125 40.375 12.03125 44.71875 
Q 8.5 49.078125 8.5 55.328125 
Q 8.5 64.0625 14.71875 69.140625 
Q 20.953125 74.21875 31.78125 74.21875 
Q 42.671875 74.21875 48.875 69.140625 
Q 55.078125 64.0625 55.078125 55.328125 
Q 55.078125 49.078125 51.53125 44.71875 
Q 48 40.375 41.703125 38.8125 
Q 48.828125 37.15625 52.796875 32.3125 
Q 56.78125 27.484375 56.78125 20.515625 
Q 56.78125 9.90625 50.3125 4.234375 
Q 43.84375 -1.421875 31.78125 -1.421875 
Q 19.734375 -1.421875 13.25 4.234375 
Q 6.78125 9.90625 6.78125 20.515625 
Q 6.78125 27.484375 10.78125 32.3125 
Q 14.796875 37.15625 21.921875 38.8125 
z
M 18.3125 54.390625 
Q 18.3125 48.734375 21.84375 45.5625 
Q 25.390625 42.390625 31.78125 42.390625 
Q 38.140625 42.390625 41.71875 45.5625 
Q 45.3125 48.734375 45.3125 54.390625 
Q 45.3125 60.0625 41.71875 63.234375 
Q 38.140625 66.40625 31.78125 66.40625 
Q 25.390625 66.40625 21.84375 63.234375 
Q 18.3125 60.0625 18.3125 54.390625 
z
" id="DejaVuSans-56"/>
      </defs>
      <g transform="translate(20.878125 340.958437)scale(0.1 -0.1)">
       <use xlink:href="#DejaVuSans-48"/>
       <use x="63.623047" xlink:href="#DejaVuSans-46"/>
       <use x="95.410156" xlink:href="#DejaVuSans-56"/>
       <use x="159.033203" xlink:href="#DejaVuSans-50"/>
      </g>
     </g>
    </g>
    <g id="ytick_2">
     <g id="line2d_21">
      <path clip-path="url(#pd905c26638)" d="M 50.14375 296.389219 
L 719.74375 296.389219 
" style="fill:none;stroke:#b0b0b0;stroke-linecap:square;stroke-width:0.8;"/>
     </g>
     <g id="line2d_22">
      <g>
       <use style="stroke:#000000;stroke-width:0.8;" x="50.14375" xlink:href="#ma5e366b1d0" y="296.389219"/>
      </g>
     </g>
     <g id="text_12">
      <!-- 0.84 -->
      <g transform="translate(20.878125 300.188437)scale(0.1 -0.1)">
       <use xlink:href="#DejaVuSans-48"/>
       <use x="63.623047" xlink:href="#DejaVuSans-46"/>
       <use x="95.410156" xlink:href="#DejaVuSans-56"/>
       <use x="159.033203" xlink:href="#DejaVuSans-52"/>
      </g>
     </g>
    </g>
    <g id="ytick_3">
     <g id="line2d_23">
      <path clip-path="url(#pd905c26638)" d="M 50.14375 255.619219 
L 719.74375 255.619219 
" style="fill:none;stroke:#b0b0b0;stroke-linecap:square;stroke-width:0.8;"/>
     </g>
     <g id="line2d_24">
      <g>
       <use style="stroke:#000000;stroke-width:0.8;" x="50.14375" xlink:href="#ma5e366b1d0" y="255.619219"/>
      </g>
     </g>
     <g id="text_13">
      <!-- 0.86 -->
      <defs>
       <path d="M 33.015625 40.375 
Q 26.375 40.375 22.484375 35.828125 
Q 18.609375 31.296875 18.609375 23.390625 
Q 18.609375 15.53125 22.484375 10.953125 
Q 26.375 6.390625 33.015625 6.390625 
Q 39.65625 6.390625 43.53125 10.953125 
Q 47.40625 15.53125 47.40625 23.390625 
Q 47.40625 31.296875 43.53125 35.828125 
Q 39.65625 40.375 33.015625 40.375 
z
M 52.59375 71.296875 
L 52.59375 62.3125 
Q 48.875 64.0625 45.09375 64.984375 
Q 41.3125 65.921875 37.59375 65.921875 
Q 27.828125 65.921875 22.671875 59.328125 
Q 17.53125 52.734375 16.796875 39.40625 
Q 19.671875 43.65625 24.015625 45.921875 
Q 28.375 48.1875 33.59375 48.1875 
Q 44.578125 48.1875 50.953125 41.515625 
Q 57.328125 34.859375 57.328125 23.390625 
Q 57.328125 12.15625 50.6875 5.359375 
Q 44.046875 -1.421875 33.015625 -1.421875 
Q 20.359375 -1.421875 13.671875 8.265625 
Q 6.984375 17.96875 6.984375 36.375 
Q 6.984375 53.65625 15.1875 63.9375 
Q 23.390625 74.21875 37.203125 74.21875 
Q 40.921875 74.21875 44.703125 73.484375 
Q 48.484375 72.75 52.59375 71.296875 
z
" id="DejaVuSans-54"/>
      </defs>
      <g transform="translate(20.878125 259.418437)scale(0.1 -0.1)">
       <use xlink:href="#DejaVuSans-48"/>
       <use x="63.623047" xlink:href="#DejaVuSans-46"/>
       <use x="95.410156" xlink:href="#DejaVuSans-56"/>
       <use x="159.033203" xlink:href="#DejaVuSans-54"/>
      </g>
     </g>
    </g>
    <g id="ytick_4">
     <g id="line2d_25">
      <path clip-path="url(#pd905c26638)" d="M 50.14375 214.849219 
L 719.74375 214.849219 
" style="fill:none;stroke:#b0b0b0;stroke-linecap:square;stroke-width:0.8;"/>
     </g>
     <g id="line2d_26">
      <g>
       <use style="stroke:#000000;stroke-width:0.8;" x="50.14375" xlink:href="#ma5e366b1d0" y="214.849219"/>
      </g>
     </g>
     <g id="text_14">
      <!-- 0.88 -->
      <g transform="translate(20.878125 218.648437)scale(0.1 -0.1)">
       <use xlink:href="#DejaVuSans-48"/>
       <use x="63.623047" xlink:href="#DejaVuSans-46"/>
       <use x="95.410156" xlink:href="#DejaVuSans-56"/>
       <use x="159.033203" xlink:href="#DejaVuSans-56"/>
      </g>
     </g>
    </g>
    <g id="ytick_5">
     <g id="line2d_27">
      <path clip-path="url(#pd905c26638)" d="M 50.14375 174.079219 
L 719.74375 174.079219 
" style="fill:none;stroke:#b0b0b0;stroke-linecap:square;stroke-width:0.8;"/>
     </g>
     <g id="line2d_28">
      <g>
       <use style="stroke:#000000;stroke-width:0.8;" x="50.14375" xlink:href="#ma5e366b1d0" y="174.079219"/>
      </g>
     </g>
     <g id="text_15">
      <!-- 0.90 -->
      <defs>
       <path d="M 10.984375 1.515625 
L 10.984375 10.5 
Q 14.703125 8.734375 18.5 7.8125 
Q 22.3125 6.890625 25.984375 6.890625 
Q 35.75 6.890625 40.890625 13.453125 
Q 46.046875 20.015625 46.78125 33.40625 
Q 43.953125 29.203125 39.59375 26.953125 
Q 35.25 24.703125 29.984375 24.703125 
Q 19.046875 24.703125 12.671875 31.3125 
Q 6.296875 37.9375 6.296875 49.421875 
Q 6.296875 60.640625 12.9375 67.421875 
Q 19.578125 74.21875 30.609375 74.21875 
Q 43.265625 74.21875 49.921875 64.515625 
Q 56.59375 54.828125 56.59375 36.375 
Q 56.59375 19.140625 48.40625 8.859375 
Q 40.234375 -1.421875 26.421875 -1.421875 
Q 22.703125 -1.421875 18.890625 -0.6875 
Q 15.09375 0.046875 10.984375 1.515625 
z
M 30.609375 32.421875 
Q 37.25 32.421875 41.125 36.953125 
Q 45.015625 41.5 45.015625 49.421875 
Q 45.015625 57.28125 41.125 61.84375 
Q 37.25 66.40625 30.609375 66.40625 
Q 23.96875 66.40625 20.09375 61.84375 
Q 16.21875 57.28125 16.21875 49.421875 
Q 16.21875 41.5 20.09375 36.953125 
Q 23.96875 32.421875 30.609375 32.421875 
z
" id="DejaVuSans-57"/>
      </defs>
      <g transform="translate(20.878125 177.878437)scale(0.1 -0.1)">
       <use xlink:href="#DejaVuSans-48"/>
       <use x="63.623047" xlink:href="#DejaVuSans-46"/>
       <use x="95.410156" xlink:href="#DejaVuSans-57"/>
       <use x="159.033203" xlink:href="#DejaVuSans-48"/>
      </g>
     </g>
    </g>
    <g id="ytick_6">
     <g id="line2d_29">
      <path clip-path="url(#pd905c26638)" d="M 50.14375 133.309219 
L 719.74375 133.309219 
" style="fill:none;stroke:#b0b0b0;stroke-linecap:square;stroke-width:0.8;"/>
     </g>
     <g id="line2d_30">
      <g>
       <use style="stroke:#000000;stroke-width:0.8;" x="50.14375" xlink:href="#ma5e366b1d0" y="133.309219"/>
      </g>
     </g>
     <g id="text_16">
      <!-- 0.92 -->
      <g transform="translate(20.878125 137.108437)scale(0.1 -0.1)">
       <use xlink:href="#DejaVuSans-48"/>
       <use x="63.623047" xlink:href="#DejaVuSans-46"/>
       <use x="95.410156" xlink:href="#DejaVuSans-57"/>
       <use x="159.033203" xlink:href="#DejaVuSans-50"/>
      </g>
     </g>
    </g>
    <g id="ytick_7">
     <g id="line2d_31">
      <path clip-path="url(#pd905c26638)" d="M 50.14375 92.539219 
L 719.74375 92.539219 
" style="fill:none;stroke:#b0b0b0;stroke-linecap:square;stroke-width:0.8;"/>
     </g>
     <g id="line2d_32">
      <g>
       <use style="stroke:#000000;stroke-width:0.8;" x="50.14375" xlink:href="#ma5e366b1d0" y="92.539219"/>
      </g>
     </g>
     <g id="text_17">
      <!-- 0.94 -->
      <g transform="translate(20.878125 96.338437)scale(0.1 -0.1)">
       <use xlink:href="#DejaVuSans-48"/>
       <use x="63.623047" xlink:href="#DejaVuSans-46"/>
       <use x="95.410156" xlink:href="#DejaVuSans-57"/>
       <use x="159.033203" xlink:href="#DejaVuSans-52"/>
      </g>
     </g>
    </g>
    <g id="ytick_8">
     <g id="line2d_33">
      <path clip-path="url(#pd905c26638)" d="M 50.14375 51.769219 
L 719.74375 51.769219 
" style="fill:none;stroke:#b0b0b0;stroke-linecap:square;stroke-width:0.8;"/>
     </g>
     <g id="line2d_34">
      <g>
       <use style="stroke:#000000;stroke-width:0.8;" x="50.14375" xlink:href="#ma5e366b1d0" y="51.769219"/>
      </g>
     </g>
     <g id="text_18">
      <!-- 0.96 -->
      <g transform="translate(20.878125 55.568437)scale(0.1 -0.1)">
       <use xlink:href="#DejaVuSans-48"/>
       <use x="63.623047" xlink:href="#DejaVuSans-46"/>
       <use x="95.410156" xlink:href="#DejaVuSans-57"/>
       <use x="159.033203" xlink:href="#DejaVuSans-54"/>
      </g>
     </g>
    </g>
    <g id="ytick_9">
     <g id="line2d_35">
      <path clip-path="url(#pd905c26638)" d="M 50.14375 10.999219 
L 719.74375 10.999219 
" style="fill:none;stroke:#b0b0b0;stroke-linecap:square;stroke-width:0.8;"/>
     </g>
     <g id="line2d_36">
      <g>
       <use style="stroke:#000000;stroke-width:0.8;" x="50.14375" xlink:href="#ma5e366b1d0" y="10.999219"/>
      </g>
     </g>
     <g id="text_19">
      <!-- 0.98 -->
      <g transform="translate(20.878125 14.798437)scale(0.1 -0.1)">
       <use xlink:href="#DejaVuSans-48"/>
       <use x="63.623047" xlink:href="#DejaVuSans-46"/>
       <use x="95.410156" xlink:href="#DejaVuSans-57"/>
       <use x="159.033203" xlink:href="#DejaVuSans-56"/>
      </g>
     </g>
    </g>
    <g id="text_20">
     <!-- Accuracy -->
     <defs>
      <path d="M 34.1875 63.1875 
L 20.796875 26.90625 
L 47.609375 26.90625 
z
M 28.609375 72.90625 
L 39.796875 72.90625 
L 67.578125 0 
L 57.328125 0 
L 50.6875 18.703125 
L 17.828125 18.703125 
L 11.1875 0 
L 0.78125 0 
z
" id="DejaVuSans-65"/>
      <path d="M 8.5 21.578125 
L 8.5 54.6875 
L 17.484375 54.6875 
L 17.484375 21.921875 
Q 17.484375 14.15625 20.5 10.265625 
Q 23.53125 6.390625 29.59375 6.390625 
Q 36.859375 6.390625 41.078125 11.03125 
Q 45.3125 15.671875 45.3125 23.6875 
L 45.3125 54.6875 
L 54.296875 54.6875 
L 54.296875 0 
L 45.3125 0 
L 45.3125 8.40625 
Q 42.046875 3.421875 37.71875 1 
Q 33.40625 -1.421875 27.6875 -1.421875 
Q 18.265625 -1.421875 13.375 4.4375 
Q 8.5 10.296875 8.5 21.578125 
z
M 31.109375 56 
z
" id="DejaVuSans-117"/>
      <path d="M 41.109375 46.296875 
Q 39.59375 47.171875 37.8125 47.578125 
Q 36.03125 48 33.890625 48 
Q 26.265625 48 22.1875 43.046875 
Q 18.109375 38.09375 18.109375 28.8125 
L 18.109375 0 
L 9.078125 0 
L 9.078125 54.6875 
L 18.109375 54.6875 
L 18.109375 46.1875 
Q 20.953125 51.171875 25.484375 53.578125 
Q 30.03125 56 36.53125 56 
Q 37.453125 56 38.578125 55.875 
Q 39.703125 55.765625 41.0625 55.515625 
z
" id="DejaVuSans-114"/>
      <path d="M 34.28125 27.484375 
Q 23.390625 27.484375 19.1875 25 
Q 14.984375 22.515625 14.984375 16.5 
Q 14.984375 11.71875 18.140625 8.90625 
Q 21.296875 6.109375 26.703125 6.109375 
Q 34.1875 6.109375 38.703125 11.40625 
Q 43.21875 16.703125 43.21875 25.484375 
L 43.21875 27.484375 
z
M 52.203125 31.203125 
L 52.203125 0 
L 43.21875 0 
L 43.21875 8.296875 
Q 40.140625 3.328125 35.546875 0.953125 
Q 30.953125 -1.421875 24.3125 -1.421875 
Q 15.921875 -1.421875 10.953125 3.296875 
Q 6 8.015625 6 15.921875 
Q 6 25.140625 12.171875 29.828125 
Q 18.359375 34.515625 30.609375 34.515625 
L 43.21875 34.515625 
L 43.21875 35.40625 
Q 43.21875 41.609375 39.140625 45 
Q 35.0625 48.390625 27.6875 48.390625 
Q 23 48.390625 18.546875 47.265625 
Q 14.109375 46.140625 10.015625 43.890625 
L 10.015625 52.203125 
Q 14.9375 54.109375 19.578125 55.046875 
Q 24.21875 56 28.609375 56 
Q 40.484375 56 46.34375 49.84375 
Q 52.203125 43.703125 52.203125 31.203125 
z
" id="DejaVuSans-97"/>
      <path d="M 32.171875 -5.078125 
Q 28.375 -14.84375 24.75 -17.8125 
Q 21.140625 -20.796875 15.09375 -20.796875 
L 7.90625 -20.796875 
L 7.90625 -13.28125 
L 13.1875 -13.28125 
Q 16.890625 -13.28125 18.9375 -11.515625 
Q 21 -9.765625 23.484375 -3.21875 
L 25.09375 0.875 
L 2.984375 54.6875 
L 12.5 54.6875 
L 29.59375 11.921875 
L 46.6875 54.6875 
L 56.203125 54.6875 
z
" id="DejaVuSans-121"/>
     </defs>
     <g transform="translate(14.798438 196.994062)rotate(-90)scale(0.1 -0.1)">
      <use xlink:href="#DejaVuSans-65"/>
      <use x="68.392578" xlink:href="#DejaVuSans-99"/>
      <use x="123.373047" xlink:href="#DejaVuSans-99"/>
      <use x="178.353516" xlink:href="#DejaVuSans-117"/>
      <use x="241.732422" xlink:href="#DejaVuSans-114"/>
      <use x="282.845703" xlink:href="#DejaVuSans-97"/>
      <use x="344.125" xlink:href="#DejaVuSans-99"/>
      <use x="399.105469" xlink:href="#DejaVuSans-121"/>
     </g>
    </g>
   </g>
   <g id="line2d_37">
    <path clip-path="url(#pd905c26638)" d="M 94.134692 375.715469 
L 96.953338 360.055817 
L 100.137501 343.818991 
L 102.684831 331.860224 
L 105.232161 320.75508 
L 107.779492 310.445821 
L 110.963655 298.590505 
L 114.147817 287.775779 
L 117.33198 277.888877 
L 120.516143 268.81703 
L 123.700306 260.447472 
L 126.884469 252.667434 
L 130.705464 243.95078 
L 135.163292 234.415859 
L 139.62112 225.474055 
L 144.078948 217.096468 
L 148.536776 209.254429 
L 152.994604 201.919266 
L 157.452432 195.062309 
L 161.91026 188.654887 
L 166.368088 182.668329 
L 170.825916 177.073965 
L 175.283744 171.843124 
L 179.741572 166.947136 
L 184.1994 162.357329 
L 189.294061 157.449973 
L 194.388721 152.862283 
L 200.120214 148.029946 
L 205.851708 143.487086 
L 212.856866 138.239167 
L 220.498857 132.812368 
L 228.140847 127.676823 
L 235.782838 122.820864 
L 243.424829 118.232819 
L 251.06682 113.901019 
L 258.708811 109.813794 
L 266.987634 105.648426 
L 275.266458 101.74156 
L 283.545281 98.078358 
L 292.460937 94.388852 
L 301.376593 90.946199 
L 310.929082 87.510518 
L 320.48157 84.314146 
L 330.670891 81.142774 
L 341.497045 78.012172 
L 352.960031 74.929628 
L 365.696683 71.737655 
L 380.343832 68.305701 
L 395.627813 64.959199 
L 410.911795 61.838591 
L 426.832609 58.813638 
L 443.390256 55.895817 
L 460.584736 53.093833 
L 478.416048 50.413237 
L 497.521025 47.771549 
L 517.899667 45.187423 
L 539.551974 42.671087 
L 563.114779 40.157197 
L 590.49858 37.465879 
L 624.887539 34.322616 
L 687.933963 28.761627 
L 687.933963 28.761627 
" style="fill:none;stroke:#377eb8;stroke-linecap:square;stroke-width:2;"/>
   </g>
   <g id="line2d_38">
    <path clip-path="url(#pd905c26638)" d="M 85.16392 375.715469 
L 86.764017 365.481268 
L 88.674515 354.971343 
L 90.585012 345.779791 
L 93.132343 334.703344 
L 95.679673 324.512018 
L 98.227003 315.144558 
L 100.774333 306.552438 
L 103.321664 298.687135 
L 105.868994 291.500125 
L 108.416324 284.942884 
L 110.963655 278.966888 
L 113.510985 273.523614 
L 116.058315 268.564536 
L 118.605645 264.041132 
L 121.152976 259.904877 
L 124.337139 255.205064 
L 127.521301 250.939579 
L 131.342297 246.26087 
L 135.163292 241.930004 
L 138.984288 237.905405 
L 142.805283 234.172832 
L 146.626278 230.718045 
L 150.447274 227.526804 
L 154.905102 224.117784 
L 159.36293 221.025484 
L 163.820758 218.22729 
L 168.278586 215.70059 
L 172.736414 213.422772 
L 177.194242 211.371221 
L 182.288902 209.274646 
L 187.383563 207.410315 
L 193.115056 205.548518 
L 199.483382 203.716033 
L 207.125373 201.755288 
L 217.951526 199.223916 
L 230.688178 196.475082 
L 243.424829 193.95329 
L 256.798313 191.529837 
L 270.80863 189.214955 
L 286.092611 186.922949 
L 302.013426 184.761336 
L 319.844738 182.570634 
L 340.22338 180.303025 
L 365.05985 177.775804 
L 400.085641 174.44788 
L 433.200935 171.521883 
L 463.768898 169.043063 
L 492.426364 166.939072 
L 519.810165 165.14969 
L 545.9203 163.663992 
L 571.393603 162.439313 
L 595.59324 161.496765 
L 619.156046 160.79964 
L 642.082018 160.342912 
L 664.371158 160.119982 
L 686.023465 160.122824 
L 687.933963 160.133802 
L 687.933963 160.133802 
" style="fill:none;stroke:#4daf4a;stroke-linecap:square;stroke-width:2;"/>
   </g>
   <g id="line2d_39">
    <path clip-path="url(#pd905c26638)" d="M 93.90602 375.715469 
L 94.789065 368.603028 
L 96.38354 364.780875 
L 97.978016 349.746933 
L 99.572492 350.817141 
L 101.166967 335.12076 
L 102.761443 334.967786 
L 104.355918 324.826327 
L 105.950394 317.436693 
L 107.544869 312.799126 
L 109.139345 302.351841 
L 110.73382 298.937334 
L 112.328296 288.591992 
L 113.922771 289.458316 
L 115.517247 284.718806 
L 117.111722 276.972558 
L 118.706198 281.100415 
L 120.300673 270.704163 
L 121.895149 267.697302 
L 123.489625 260.307789 
L 125.0841 254.803776 
L 126.678576 251.847946 
L 128.273051 250.87968 
L 129.867527 245.324757 
L 131.462002 241.502604 
L 133.056478 238.139128 
L 134.650953 233.450529 
L 136.245429 231.361024 
L 137.839904 230.137964 
L 139.43438 225.959074 
L 141.028855 219.639648 
L 142.623331 220.404151 
L 144.217806 214.594434 
L 145.812282 211.995341 
L 147.406758 213.065549 
L 149.001233 203.943266 
L 150.595709 204.605706 
L 152.190184 204.300002 
L 153.78466 201.140289 
L 155.379135 201.038347 
L 156.973611 192.78251 
L 158.568086 196.247928 
L 160.162562 196.044044 
L 161.757037 190.591063 
L 163.351513 188.246763 
L 164.945988 182.589898 
L 166.540464 179.888984 
L 168.134939 186.615936 
L 169.729415 175.455179 
L 171.32389 177.035097 
L 172.918366 174.588855 
L 174.512842 174.639766 
L 176.107317 167.606989 
L 177.701793 173.314764 
L 179.296268 167.199221 
L 180.890744 167.148311 
L 182.485219 161.950124 
L 184.079695 160.676032 
L 185.67417 163.428099 
L 187.268646 156.751937 
L 188.863121 159.707766 
L 190.457597 160.064502 
L 192.052072 154.407637 
L 193.646548 149.77007 
L 195.241023 151.146103 
L 196.835499 148.54701 
L 198.429975 153.898049 
L 201.618926 145.744033 
L 203.213401 144.520973 
L 204.807877 142.941177 
L 206.402352 140.647787 
L 207.996828 140.698819 
L 209.591303 140.392993 
L 211.185779 138.303488 
L 212.780254 140.036257 
L 214.37473 136.061252 
L 215.969205 136.978486 
L 217.563681 133.360216 
L 219.158156 130.251413 
L 220.752632 135.704516 
L 222.347108 132.493771 
L 223.941583 132.137035 
L 225.536059 124.59467 
L 227.130534 131.372653 
L 228.72501 126.37835 
L 230.319485 125.76682 
L 231.913961 122.912811 
L 233.508436 123.524462 
L 235.102912 125.104258 
L 236.697387 122.607106 
L 238.291863 123.371488 
L 239.886338 121.995576 
L 243.075289 116.950241 
L 244.669765 119.396483 
L 246.264241 113.637676 
L 247.858716 117.663713 
L 249.453192 115.06462 
L 251.047667 113.739618 
L 252.642143 117.256067 
L 254.236618 114.962678 
L 255.831094 110.2742 
L 257.425569 107.012545 
L 259.020045 110.223169 
L 260.61452 108.643373 
L 262.208996 110.427053 
L 263.803471 109.254903 
L 265.397947 106.248163 
L 266.992422 103.69998 
L 268.586898 105.024982 
L 270.181374 105.891427 
L 271.775849 102.47692 
L 273.370325 101.25386 
L 274.9648 101.86539 
L 276.559276 100.642208 
L 278.153751 102.935598 
L 279.748227 99.113323 
L 281.342702 99.673943 
L 282.937178 99.317207 
L 284.531653 96.921997 
L 286.126129 96.463319 
L 287.720604 98.552824 
L 289.31508 94.832491 
L 290.909555 92.845049 
L 292.504031 94.373814 
L 294.098507 94.271993 
L 295.692982 94.322903 
L 297.287458 88.411244 
L 300.476409 89.3286 
L 302.070884 86.627565 
L 303.66536 91.978604 
L 305.259835 82.091939 
L 306.854311 92.794018 
L 308.448786 89.583394 
L 310.043262 90.806454 
L 311.637737 87.341037 
L 313.232213 87.137153 
L 314.826688 88.513186 
L 316.421164 86.219919 
L 318.01564 83.111115 
L 319.610115 82.958263 
L 321.204591 86.016035 
L 322.799066 83.926529 
L 324.393542 82.499585 
L 325.988017 78.6264 
L 327.582493 86.372771 
L 329.176968 82.856321 
L 330.771444 84.945827 
L 332.365919 80.9707 
L 333.960395 77.35243 
L 335.55487 80.461112 
L 337.149346 76.842721 
L 338.743821 81.327436 
L 340.338297 78.881316 
L 341.932773 80.715906 
L 343.527248 75.364867 
L 345.121724 76.129249 
L 346.716199 77.709166 
L 348.310675 75.517719 
L 349.90515 69.402297 
L 351.499626 75.466808 
L 353.094101 73.122509 
L 354.688577 75.415777 
L 356.283052 76.282222 
L 357.877528 73.020567 
L 359.472003 75.976397 
L 361.066479 73.937923 
L 362.660954 70.727299 
L 364.25543 74.090775 
L 365.849905 70.472505 
L 367.444381 75.364867 
L 369.038857 76.893752 
L 370.633332 68.33209 
L 372.227808 66.497378 
L 373.822283 65.42717 
L 375.416759 68.790646 
L 377.011234 73.632097 
L 378.60571 64.662788 
L 380.200185 68.43391 
L 381.794661 66.59932 
L 383.389136 68.128206 
L 384.983612 65.631054 
L 386.578087 64.81564 
L 388.172563 68.026264 
L 389.767038 66.0387 
L 391.361514 66.0387 
L 392.95599 64.102168 
L 394.550465 68.892588 
L 396.144941 66.59932 
L 397.739416 61.350223 
L 399.333892 62.878987 
L 400.928367 63.847374 
L 402.522843 66.905024 
L 404.117318 64.713698 
L 405.711794 64.560846 
L 407.306269 64.662788 
L 408.900745 59.311628 
L 410.49522 63.643491 
L 412.089696 59.974189 
L 413.684171 61.401133 
L 415.278647 62.420431 
L 416.873123 62.318489 
L 418.467598 57.680921 
L 420.062074 58.85295 
L 421.656549 61.146339 
L 423.251025 59.974189 
L 426.439976 61.605017 
L 428.034451 58.139478 
L 429.628927 55.591416 
L 431.223402 60.280015 
L 432.817878 56.050094 
L 434.412353 58.190509 
L 436.006829 55.183648 
L 437.601304 55.438564 
L 439.19578 59.362659 
L 440.790256 57.273154 
L 442.384731 58.088568 
L 443.979207 55.183648 
L 445.573682 57.680921 
L 447.168158 50.087403 
L 448.762633 55.999062 
L 450.357109 52.431703 
L 451.951584 52.22794 
L 453.54606 54.979886 
L 455.140535 53.247116 
L 456.735011 49.679757 
L 458.329486 51.055791 
L 459.923962 53.858646 
L 461.518437 52.533645 
L 463.112913 55.642326 
L 464.707389 53.298148 
L 467.89634 51.361495 
L 469.490815 53.043233 
L 471.085291 47.182605 
L 472.679766 50.749965 
L 474.274242 52.380792 
L 475.868717 49.883641 
L 477.463193 52.533645 
L 479.057668 49.832609 
L 480.652144 52.024057 
L 482.246619 50.648023 
L 483.841095 50.699055 
L 485.43557 44.532602 
L 487.030046 51.412527 
L 488.624522 47.539341 
L 490.218997 46.87678 
L 491.813473 47.845046 
L 493.407948 47.080664 
L 495.002424 47.692193 
L 496.596899 47.539341 
L 498.191375 49.781699 
L 499.78585 47.743225 
L 501.380326 50.851907 
L 502.974801 47.437399 
L 504.569277 47.437399 
L 506.163752 46.469134 
L 507.758228 43.92095 
L 509.352703 44.226776 
L 510.947179 44.838306 
L 512.541655 45.246074 
L 514.13613 44.685454 
L 515.730606 46.571075 
L 517.325081 47.641283 
L 518.919557 43.615246 
L 522.108508 43.25851 
L 523.702983 45.70463 
L 525.297459 44.226776 
L 526.891934 46.061366 
L 528.48641 43.513304 
L 530.080885 46.061366 
L 531.675361 43.717188 
L 533.269836 43.003716 
L 534.864312 44.991158 
L 536.458788 44.48157 
L 538.053263 44.175866 
L 539.647739 42.850742 
L 541.242214 43.30942 
L 542.83669 44.685454 
L 544.431165 39.742061 
L 546.025641 44.685454 
L 547.620116 43.360452 
L 549.214592 40.659416 
L 550.809067 42.341154 
L 552.403543 41.933508 
L 553.998018 43.30942 
L 555.592494 40.506564 
L 557.186969 42.850742 
L 558.781445 40.557475 
L 560.37592 40.047887 
L 561.970396 40.353591 
L 563.564872 39.996855 
L 565.159347 40.047887 
L 566.753823 39.334415 
L 568.348298 37.142967 
L 569.942774 39.487267 
L 573.131725 37.041025 
L 574.7262 41.627682 
L 576.320676 40.098797 
L 577.915151 42.13727 
L 579.509627 37.550735 
L 581.104102 38.315117 
L 582.698578 38.111233 
L 584.293053 37.448793 
L 585.887529 38.315117 
L 587.482005 37.041025 
L 589.07648 36.225612 
L 590.670956 36.786231 
L 592.265431 39.130531 
L 593.859907 37.041025 
L 595.454382 36.837263 
L 597.048858 37.652555 
L 598.643333 35.716023 
L 600.237809 36.786231 
L 601.832284 35.817965 
L 603.42676 34.492964 
L 605.021235 36.174701 
L 606.615711 36.276643 
L 608.210186 37.499703 
L 609.804662 35.51214 
L 611.399138 33.932344 
L 612.993613 35.970818 
L 614.588089 35.51214 
L 616.182564 32.709284 
L 617.77704 34.543874 
L 619.371515 32.964078 
L 620.965991 38.111233 
L 622.560466 31.231308 
L 624.154942 35.410198 
L 625.749417 33.167962 
L 627.343893 32.862136 
L 628.938368 33.932344 
L 630.532844 35.51214 
L 632.127319 31.537134 
L 633.721795 31.791928 
L 635.316271 32.862136 
L 636.910746 33.014988 
L 638.505222 33.932344 
L 640.099697 33.72846 
L 641.694173 29.855396 
L 643.288648 32.250606 
L 644.883124 35.563171 
L 646.477599 35.053462 
L 648.072075 32.709284 
L 649.66655 29.192835 
L 651.261026 31.740896 
L 652.855501 32.046722 
L 654.449977 28.836099 
L 656.044452 34.33999 
L 657.638928 29.600481 
L 659.233404 34.085196 
L 660.827879 32.097754 
L 662.422355 28.479363 
L 664.01683 31.078456 
L 665.611306 32.046722 
L 667.205781 27.460065 
L 668.800257 28.683246 
L 670.394732 30.976514 
L 671.989208 31.588044 
L 673.583683 27.154361 
L 675.178159 29.345687 
L 676.772634 30.263042 
L 678.36711 30.976514 
L 679.961585 30.925604 
L 681.556061 30.212132 
L 683.150537 29.039982 
L 684.745012 29.804365 
L 686.339488 28.887009 
L 687.933963 31.38416 
L 687.933963 31.38416 
" style="fill:none;stroke:#377eb8;stroke-linecap:square;stroke-opacity:0.25098;stroke-width:1.5;"/>
   </g>
   <g id="line2d_40">
    <path clip-path="url(#pd905c26638)" d="M 86.213591 375.715469 
L 86.816687 362.911292 
L 88.411163 356.756382 
L 90.005638 341.984646 
L 91.600114 344.446561 
L 93.194589 330.700685 
L 94.789065 315.928949 
L 96.38354 323.930356 
L 97.978016 318.185766 
L 99.572492 320.852901 
L 101.166967 316.339268 
L 102.761443 333.36782 
L 104.355918 299.515936 
L 105.950394 288.231975 
L 107.544869 313.672132 
L 109.139345 267.510428 
L 110.73382 298.079758 
L 112.328296 281.461525 
L 113.922771 272.22916 
L 115.517247 260.12456 
L 117.111722 263.612335 
L 118.706198 264.432973 
L 120.300673 263.407236 
L 121.895149 257.867865 
L 123.489625 248.225181 
L 125.0841 259.714241 
L 126.678576 245.968364 
L 128.273051 242.890909 
L 129.867527 254.58519 
L 131.462002 244.532186 
L 133.056478 243.916768 
L 134.650953 237.556638 
L 136.245429 233.043126 
L 137.839904 242.070271 
L 139.43438 237.351539 
L 141.028855 230.991408 
L 142.623331 241.454731 
L 144.217806 223.400442 
L 145.812282 225.246939 
L 147.406758 222.784902 
L 149.001233 236.32568 
L 150.595709 231.401728 
L 152.190184 219.502348 
L 153.78466 217.861071 
L 155.379135 236.94122 
L 156.973611 216.014574 
L 158.568086 218.06617 
L 160.162562 201.858256 
L 161.757037 219.502348 
L 163.351513 218.886809 
L 164.945988 206.987429 
L 166.540464 215.193936 
L 168.134939 218.68171 
L 169.729415 211.090622 
L 171.32389 206.576988 
L 172.918366 218.271391 
L 174.512842 199.601561 
L 177.701793 214.783616 
L 179.296268 214.988715 
L 180.890744 203.294435 
L 182.485219 220.322987 
L 184.079695 210.475082 
L 185.67417 212.731899 
L 187.268646 211.295842 
L 190.457597 203.909974 
L 192.052072 198.575703 
L 193.646548 207.808068 
L 195.241023 201.653158 
L 196.835499 203.089214 
L 198.429975 207.602847 
L 200.02445 213.962856 
L 201.618926 209.039025 
L 203.213401 222.169484 
L 204.807877 211.500941 
L 206.402352 203.499655 
L 207.996828 208.423486 
L 209.591303 199.601561 
L 211.185779 208.218387 
L 212.780254 197.139524 
L 214.37473 199.191121 
L 215.969205 199.396341 
L 217.563681 194.677609 
L 219.158156 209.654444 
L 220.752632 202.063477 
L 222.347108 205.140932 
L 223.941583 188.522699 
L 225.536059 199.396341 
L 227.130534 199.601561 
L 228.72501 194.26729 
L 230.319485 200.4222 
L 231.913961 188.933018 
L 233.508436 200.4222 
L 235.102912 190.984614 
L 236.697387 206.576988 
L 238.291863 186.471103 
L 239.886338 197.139524 
L 243.075289 181.752371 
L 244.669765 193.856971 
L 246.264241 190.369196 
L 247.858716 190.574295 
L 249.453192 194.882708 
L 251.047667 191.189835 
L 252.642143 190.163976 
L 254.236618 185.855563 
L 255.831094 190.984614 
L 257.425569 194.26729 
L 259.020045 179.905873 
L 260.61452 187.70206 
L 262.208996 196.934426 
L 263.803471 196.113787 
L 265.397947 191.189835 
L 266.992422 191.394934 
L 268.586898 188.11238 
L 270.181374 189.138239 
L 271.775849 183.803967 
L 273.370325 184.624605 
L 274.9648 186.676202 
L 276.559276 196.729205 
L 278.153751 183.188427 
L 279.748227 198.575703 
L 281.342702 181.54715 
L 282.937178 191.805253 
L 284.531653 185.445244 
L 286.126129 188.11238 
L 287.720604 186.676202 
L 289.31508 194.062069 
L 290.909555 193.036332 
L 292.504031 183.188427 
L 294.098507 187.907159 
L 295.692982 187.291741 
L 297.287458 185.240145 
L 298.881933 181.54715 
L 300.476409 185.650464 
L 302.070884 174.814245 
L 305.259835 184.624605 
L 306.854311 180.726512 
L 308.448786 185.240145 
L 310.043262 185.240145 
L 311.637737 182.983328 
L 313.232213 180.110972 
L 314.826688 178.264596 
L 316.421164 182.367789 
L 318.01564 180.726512 
L 319.610115 183.393648 
L 321.204591 185.650464 
L 322.799066 180.931611 
L 324.393542 184.624605 
L 325.988017 180.726512 
L 327.582493 179.700653 
L 329.176968 182.983328 
L 330.771444 183.393648 
L 332.365919 177.854277 
L 333.960395 178.674916 
L 335.55487 180.110972 
L 337.149346 188.11238 
L 338.743821 181.752371 
L 340.338297 184.009066 
L 341.932773 183.598747 
L 343.527248 172.930325 
L 345.121724 174.571602 
L 346.716199 177.649057 
L 348.310675 176.00778 
L 349.90515 178.264596 
L 351.499626 180.931611 
L 353.094101 178.880015 
L 354.688577 171.289048 
L 356.283052 181.752371 
L 357.877528 175.39224 
L 359.472003 178.880015 
L 361.066479 171.289048 
L 362.660954 183.598747 
L 364.25543 174.571602 
L 365.849905 181.54715 
L 367.444381 176.00778 
L 369.038857 182.983328 
L 370.633332 180.521292 
L 372.227808 184.419385 
L 373.822283 170.057969 
L 375.416759 172.314785 
L 377.011234 179.700653 
L 378.60571 179.495554 
L 380.200185 174.571602 
L 381.794661 189.753657 
L 383.389136 176.828418 
L 384.983612 173.750963 
L 386.578087 174.571602 
L 388.172563 187.907159 
L 389.767038 170.468409 
L 391.361514 182.573009 
L 392.95599 176.212879 
L 394.550465 172.314785 
L 396.144941 170.673508 
L 397.739416 166.775415 
L 399.333892 194.882708 
L 400.928367 170.673508 
L 402.522843 169.442551 
L 404.117318 165.749556 
L 405.711794 177.854277 
L 407.306269 171.494147 
L 408.900745 182.573009 
L 410.49522 166.775415 
L 412.089696 176.00778 
L 413.684171 167.596053 
L 415.278647 182.16269 
L 416.873123 181.136831 
L 418.467598 170.878729 
L 420.062074 176.212879 
L 421.656549 166.159875 
L 423.251025 170.468409 
L 424.8455 171.494147 
L 426.439976 176.623198 
L 428.034451 167.390954 
L 429.628927 174.161283 
L 431.223402 168.827011 
L 432.817878 165.749556 
L 434.412353 170.057969 
L 436.006829 180.726512 
L 437.601304 164.928917 
L 439.19578 164.108279 
L 440.790256 173.545743 
L 442.384731 150.567501 
L 443.979207 170.057969 
L 445.573682 164.928917 
L 447.168158 173.340644 
L 448.762633 175.80256 
L 450.357109 156.312092 
L 451.951584 176.418099 
L 453.54606 173.956062 
L 455.140535 170.673508 
L 456.735011 166.775415 
L 458.329486 166.570194 
L 459.923962 176.828418 
L 461.518437 169.442551 
L 463.112913 171.494147 
L 464.707389 155.901773 
L 466.301864 173.545743 
L 467.89634 178.880015 
L 469.490815 162.261782 
L 471.085291 167.596053 
L 472.679766 175.597461 
L 474.274242 165.954776 
L 475.868717 172.314785 
L 477.463193 158.979228 
L 479.057668 172.725105 
L 480.652144 176.418099 
L 482.246619 171.904466 
L 483.841095 170.468409 
L 485.43557 170.673508 
L 487.030046 164.928917 
L 488.624522 172.314785 
L 490.218997 162.467002 
L 491.813473 161.441143 
L 493.407948 168.211593 
L 495.002424 171.083828 
L 496.596899 167.390954 
L 498.191375 174.366503 
L 499.78585 160.210185 
L 501.380326 179.905873 
L 502.974801 158.774007 
L 504.569277 173.135424 
L 506.163752 160.620505 
L 507.758228 163.287641 
L 509.352703 161.030824 
L 510.947179 162.877321 
L 512.541655 166.980635 
L 514.13613 168.621912 
L 515.730606 166.365096 
L 517.325081 161.030824 
L 518.919557 168.211593 
L 520.514032 159.184327 
L 522.108508 166.365096 
L 523.702983 159.389547 
L 525.297459 158.363688 
L 526.891934 172.314785 
L 528.48641 162.672101 
L 530.080885 163.08242 
L 531.675361 160.825725 
L 533.269836 155.081134 
L 534.864312 168.621912 
L 536.458788 160.620505 
L 538.053263 165.339237 
L 539.647739 169.032231 
L 541.242214 157.54305 
L 542.83669 159.799866 
L 544.431165 169.85287 
L 546.025641 165.954776 
L 547.620116 164.108279 
L 549.214592 163.287641 
L 550.809067 163.08242 
L 552.403543 164.401225 
L 553.998018 165.544457 
L 555.592494 161.646364 
L 557.186969 165.339237 
L 558.781445 163.69796 
L 560.37592 158.363688 
L 561.970396 163.90318 
L 563.564872 168.621912 
L 565.159347 165.339237 
L 566.753823 166.159875 
L 568.348298 161.236044 
L 569.942774 161.441143 
L 571.537249 169.032231 
L 573.131725 164.723819 
L 574.7262 156.927632 
L 576.320676 163.08242 
L 577.915151 160.825725 
L 579.509627 161.646364 
L 581.104102 155.901773 
L 582.698578 161.236044 
L 584.293053 165.749556 
L 585.887529 160.005087 
L 587.482005 163.69796 
L 589.07648 163.90318 
L 590.670956 161.441143 
L 592.265431 165.749556 
L 593.859907 166.365096 
L 595.454382 164.108279 
L 597.048858 165.749556 
L 598.643333 161.030824 
L 600.237809 153.644956 
L 601.832284 164.723819 
L 603.42676 162.877321 
L 605.021235 163.492861 
L 606.615711 166.570194 
L 608.210186 154.055275 
L 609.804662 169.23733 
L 611.399138 159.594767 
L 612.993613 154.465595 
L 614.588089 154.875914 
L 616.182564 162.877321 
L 617.77704 165.134138 
L 619.371515 159.799866 
L 620.965991 156.517312 
L 622.560466 162.467002 
L 624.154942 158.979228 
L 625.749417 165.749556 
L 628.938368 153.029538 
L 630.532844 168.006373 
L 632.127319 160.620505 
L 633.721795 156.927632 
L 635.316271 160.210185 
L 636.910746 154.055275 
L 638.505222 163.08242 
L 640.099697 151.59336 
L 641.694173 171.289048 
L 643.288648 162.877321 
L 644.883124 147.900365 
L 646.477599 156.517312 
L 648.072075 164.108279 
L 649.66655 156.312092 
L 651.261026 164.518598 
L 652.855501 153.234637 
L 654.449977 174.981921 
L 656.044452 157.54305 
L 657.638928 155.081134 
L 659.233404 153.439857 
L 660.827879 155.081134 
L 662.422355 154.260496 
L 664.01683 162.877321 
L 665.611306 155.286233 
L 667.205781 155.901773 
L 668.800257 160.620505 
L 670.394732 161.646364 
L 671.989208 152.208778 
L 675.178159 169.23733 
L 676.772634 158.774007 
L 678.36711 171.494147 
L 679.961585 161.236044 
L 681.556061 162.261782 
L 683.150537 168.211593 
L 684.745012 160.825725 
L 686.339488 161.851462 
L 687.933963 155.696552 
L 687.933963 155.696552 
" style="fill:none;stroke:#4daf4a;stroke-linecap:square;stroke-opacity:0.25098;stroke-width:1.5;"/>
   </g>
   <g id="patch_3">
    <path d="M 50.14375 337.159219 
L 50.14375 10.999219 
" style="fill:none;stroke:#000000;stroke-linecap:square;stroke-linejoin:miter;stroke-width:0.8;"/>
   </g>
   <g id="patch_4">
    <path d="M 719.74375 337.159219 
L 719.74375 10.999219 
" style="fill:none;stroke:#000000;stroke-linecap:square;stroke-linejoin:miter;stroke-width:0.8;"/>
   </g>
   <g id="patch_5">
    <path d="M 50.14375 337.159219 
L 719.74375 337.159219 
" style="fill:none;stroke:#000000;stroke-linecap:square;stroke-linejoin:miter;stroke-width:0.8;"/>
   </g>
   <g id="patch_6">
    <path d="M 50.14375 10.999219 
L 719.74375 10.999219 
" style="fill:none;stroke:#000000;stroke-linecap:square;stroke-linejoin:miter;stroke-width:0.8;"/>
   </g>
   <g id="legend_1">
    <g id="patch_7">
     <path d="M 57.14375 48.355469 
L 114.584375 48.355469 
Q 116.584375 48.355469 116.584375 46.355469 
L 116.584375 17.999219 
Q 116.584375 15.999219 114.584375 15.999219 
L 57.14375 15.999219 
Q 55.14375 15.999219 55.14375 17.999219 
L 55.14375 46.355469 
Q 55.14375 48.355469 57.14375 48.355469 
z
" style="fill:#ffffff;opacity:0.8;stroke:#cccccc;stroke-linejoin:miter;"/>
    </g>
    <g id="line2d_41">
     <path d="M 59.14375 24.097656 
L 79.14375 24.097656 
" style="fill:none;stroke:#377eb8;stroke-linecap:square;stroke-width:2;"/>
    </g>
    <g id="line2d_42"/>
    <g id="text_21">
     <!-- Train -->
     <defs>
      <path d="M -0.296875 72.90625 
L 61.375 72.90625 
L 61.375 64.59375 
L 35.5 64.59375 
L 35.5 0 
L 25.59375 0 
L 25.59375 64.59375 
L -0.296875 64.59375 
z
" id="DejaVuSans-84"/>
      <path d="M 9.421875 54.6875 
L 18.40625 54.6875 
L 18.40625 0 
L 9.421875 0 
z
M 9.421875 75.984375 
L 18.40625 75.984375 
L 18.40625 64.59375 
L 9.421875 64.59375 
z
" id="DejaVuSans-105"/>
      <path d="M 54.890625 33.015625 
L 54.890625 0 
L 45.90625 0 
L 45.90625 32.71875 
Q 45.90625 40.484375 42.875 44.328125 
Q 39.84375 48.1875 33.796875 48.1875 
Q 26.515625 48.1875 22.3125 43.546875 
Q 18.109375 38.921875 18.109375 30.90625 
L 18.109375 0 
L 9.078125 0 
L 9.078125 54.6875 
L 18.109375 54.6875 
L 18.109375 46.1875 
Q 21.34375 51.125 25.703125 53.5625 
Q 30.078125 56 35.796875 56 
Q 45.21875 56 50.046875 50.171875 
Q 54.890625 44.34375 54.890625 33.015625 
z
" id="DejaVuSans-110"/>
     </defs>
     <g transform="translate(87.14375 27.597656)scale(0.1 -0.1)">
      <use xlink:href="#DejaVuSans-84"/>
      <use x="60.865234" xlink:href="#DejaVuSans-114"/>
      <use x="101.978516" xlink:href="#DejaVuSans-97"/>
      <use x="163.257812" xlink:href="#DejaVuSans-105"/>
      <use x="191.041016" xlink:href="#DejaVuSans-110"/>
     </g>
    </g>
    <g id="line2d_43">
     <path d="M 59.14375 38.775781 
L 79.14375 38.775781 
" style="fill:none;stroke:#4daf4a;stroke-linecap:square;stroke-width:2;"/>
    </g>
    <g id="line2d_44"/>
    <g id="text_22">
     <!-- Test -->
     <defs>
      <path d="M 56.203125 29.59375 
L 56.203125 25.203125 
L 14.890625 25.203125 
Q 15.484375 15.921875 20.484375 11.0625 
Q 25.484375 6.203125 34.421875 6.203125 
Q 39.59375 6.203125 44.453125 7.46875 
Q 49.3125 8.734375 54.109375 11.28125 
L 54.109375 2.78125 
Q 49.265625 0.734375 44.1875 -0.34375 
Q 39.109375 -1.421875 33.890625 -1.421875 
Q 20.796875 -1.421875 13.15625 6.1875 
Q 5.515625 13.8125 5.515625 26.8125 
Q 5.515625 40.234375 12.765625 48.109375 
Q 20.015625 56 32.328125 56 
Q 43.359375 56 49.78125 48.890625 
Q 56.203125 41.796875 56.203125 29.59375 
z
M 47.21875 32.234375 
Q 47.125 39.59375 43.09375 43.984375 
Q 39.0625 48.390625 32.421875 48.390625 
Q 24.90625 48.390625 20.390625 44.140625 
Q 15.875 39.890625 15.1875 32.171875 
z
" id="DejaVuSans-101"/>
      <path d="M 44.28125 53.078125 
L 44.28125 44.578125 
Q 40.484375 46.53125 36.375 47.5 
Q 32.28125 48.484375 27.875 48.484375 
Q 21.1875 48.484375 17.84375 46.4375 
Q 14.5 44.390625 14.5 40.28125 
Q 14.5 37.15625 16.890625 35.375 
Q 19.28125 33.59375 26.515625 31.984375 
L 29.59375 31.296875 
Q 39.15625 29.25 43.1875 25.515625 
Q 47.21875 21.78125 47.21875 15.09375 
Q 47.21875 7.46875 41.1875 3.015625 
Q 35.15625 -1.421875 24.609375 -1.421875 
Q 20.21875 -1.421875 15.453125 -0.5625 
Q 10.6875 0.296875 5.421875 2 
L 5.421875 11.28125 
Q 10.40625 8.6875 15.234375 7.390625 
Q 20.0625 6.109375 24.8125 6.109375 
Q 31.15625 6.109375 34.5625 8.28125 
Q 37.984375 10.453125 37.984375 14.40625 
Q 37.984375 18.0625 35.515625 20.015625 
Q 33.0625 21.96875 24.703125 23.78125 
L 21.578125 24.515625 
Q 13.234375 26.265625 9.515625 29.90625 
Q 5.8125 33.546875 5.8125 39.890625 
Q 5.8125 47.609375 11.28125 51.796875 
Q 16.75 56 26.8125 56 
Q 31.78125 56 36.171875 55.265625 
Q 40.578125 54.546875 44.28125 53.078125 
z
" id="DejaVuSans-115"/>
      <path d="M 18.3125 70.21875 
L 18.3125 54.6875 
L 36.8125 54.6875 
L 36.8125 47.703125 
L 18.3125 47.703125 
L 18.3125 18.015625 
Q 18.3125 11.328125 20.140625 9.421875 
Q 21.96875 7.515625 27.59375 7.515625 
L 36.8125 7.515625 
L 36.8125 0 
L 27.59375 0 
Q 17.1875 0 13.234375 3.875 
Q 9.28125 7.765625 9.28125 18.015625 
L 9.28125 47.703125 
L 2.6875 47.703125 
L 2.6875 54.6875 
L 9.28125 54.6875 
L 9.28125 70.21875 
z
" id="DejaVuSans-116"/>
     </defs>
     <g transform="translate(87.14375 42.275781)scale(0.1 -0.1)">
      <use xlink:href="#DejaVuSans-84"/>
      <use x="60.818359" xlink:href="#DejaVuSans-101"/>
      <use x="122.341797" xlink:href="#DejaVuSans-115"/>
      <use x="174.441406" xlink:href="#DejaVuSans-116"/>
     </g>
    </g>
   </g>
  </g>
 </g>
 <defs>
  <clipPath id="pd905c26638">
   <rect height="326.16" width="669.6" x="50.14375" y="10.999219"/>
  </clipPath>
 </defs>
</svg>
