<?xml version="1.0" encoding="utf-8" standalone="no"?>
<!DOCTYPE svg PUBLIC "-//W3C//DTD SVG 1.1//EN"
  "http://www.w3.org/Graphics/SVG/1.1/DTD/svg11.dtd">
<!-- Created with matplotlib (https://matplotlib.org/) -->
<svg height="374.715469pt" version="1.1" viewBox="0 0 726.94375 374.715469" width="726.94375pt" xmlns="http://www.w3.org/2000/svg" xmlns:xlink="http://www.w3.org/1999/xlink">
 <defs>
  <style type="text/css">
*{stroke-linecap:butt;stroke-linejoin:round;white-space:pre;}
  </style>
 </defs>
 <g id="figure_1">
  <g id="patch_1">
   <path d="M 0 374.715469 
L 726.94375 374.715469 
L 726.94375 0 
L 0 0 
z
" style="fill:#ffffff;"/>
  </g>
  <g id="axes_1">
   <g id="patch_2">
    <path d="M 50.14375 337.159219 
L 719.74375 337.159219 
L 719.74375 10.999219 
L 50.14375 10.999219 
z
" style="fill:#ffffff;"/>
   </g>
   <g id="matplotlib.axis_1">
    <g id="xtick_1">
     <g id="line2d_1">
      <path clip-path="url(#p84c9422e3f)" d="M 50.14375 337.159219 
L 50.14375 10.999219 
" style="fill:none;stroke:#b0b0b0;stroke-linecap:square;stroke-width:0.8;"/>
     </g>
     <g id="line2d_2">
      <defs>
       <path d="M 0 0 
L 0 3.5 
" id="m2a1dcadfc9" style="stroke:#000000;stroke-width:0.8;"/>
      </defs>
      <g>
       <use style="stroke:#000000;stroke-width:0.8;" x="50.14375" xlink:href="#m2a1dcadfc9" y="337.159219"/>
      </g>
     </g>
     <g id="text_1">
      <!-- 0 -->
      <defs>
       <path d="M 31.78125 66.40625 
Q 24.171875 66.40625 20.328125 58.90625 
Q 16.5 51.421875 16.5 36.375 
Q 16.5 21.390625 20.328125 13.890625 
Q 24.171875 6.390625 31.78125 6.390625 
Q 39.453125 6.390625 43.28125 13.890625 
Q 47.125 21.390625 47.125 36.375 
Q 47.125 51.421875 43.28125 58.90625 
Q 39.453125 66.40625 31.78125 66.40625 
z
M 31.78125 74.21875 
Q 44.046875 74.21875 50.515625 64.515625 
Q 56.984375 54.828125 56.984375 36.375 
Q 56.984375 17.96875 50.515625 8.265625 
Q 44.046875 -1.421875 31.78125 -1.421875 
Q 19.53125 -1.421875 13.0625 8.265625 
Q 6.59375 17.96875 6.59375 36.375 
Q 6.59375 54.828125 13.0625 64.515625 
Q 19.53125 74.21875 31.78125 74.21875 
z
" id="DejaVuSans-48"/>
      </defs>
      <g transform="translate(46.9625 351.757656)scale(0.1 -0.1)">
       <use xlink:href="#DejaVuSans-48"/>
      </g>
     </g>
    </g>
    <g id="xtick_2">
     <g id="line2d_3">
      <path clip-path="url(#p84c9422e3f)" d="M 177.692681 337.159219 
L 177.692681 10.999219 
" style="fill:none;stroke:#b0b0b0;stroke-linecap:square;stroke-width:0.8;"/>
     </g>
     <g id="line2d_4">
      <g>
       <use style="stroke:#000000;stroke-width:0.8;" x="177.692681" xlink:href="#m2a1dcadfc9" y="337.159219"/>
      </g>
     </g>
     <g id="text_2">
      <!-- 200 -->
      <defs>
       <path d="M 19.1875 8.296875 
L 53.609375 8.296875 
L 53.609375 0 
L 7.328125 0 
L 7.328125 8.296875 
Q 12.9375 14.109375 22.625 23.890625 
Q 32.328125 33.6875 34.8125 36.53125 
Q 39.546875 41.84375 41.421875 45.53125 
Q 43.3125 49.21875 43.3125 52.78125 
Q 43.3125 58.59375 39.234375 62.25 
Q 35.15625 65.921875 28.609375 65.921875 
Q 23.96875 65.921875 18.8125 64.3125 
Q 13.671875 62.703125 7.8125 59.421875 
L 7.8125 69.390625 
Q 13.765625 71.78125 18.9375 73 
Q 24.125 74.21875 28.421875 74.21875 
Q 39.75 74.21875 46.484375 68.546875 
Q 53.21875 62.890625 53.21875 53.421875 
Q 53.21875 48.921875 51.53125 44.890625 
Q 49.859375 40.875 45.40625 35.40625 
Q 44.1875 33.984375 37.640625 27.21875 
Q 31.109375 20.453125 19.1875 8.296875 
z
" id="DejaVuSans-50"/>
      </defs>
      <g transform="translate(168.148931 351.757656)scale(0.1 -0.1)">
       <use xlink:href="#DejaVuSans-50"/>
       <use x="63.623047" xlink:href="#DejaVuSans-48"/>
       <use x="127.246094" xlink:href="#DejaVuSans-48"/>
      </g>
     </g>
    </g>
    <g id="xtick_3">
     <g id="line2d_5">
      <path clip-path="url(#p84c9422e3f)" d="M 305.241612 337.159219 
L 305.241612 10.999219 
" style="fill:none;stroke:#b0b0b0;stroke-linecap:square;stroke-width:0.8;"/>
     </g>
     <g id="line2d_6">
      <g>
       <use style="stroke:#000000;stroke-width:0.8;" x="305.241612" xlink:href="#m2a1dcadfc9" y="337.159219"/>
      </g>
     </g>
     <g id="text_3">
      <!-- 400 -->
      <defs>
       <path d="M 37.796875 64.3125 
L 12.890625 25.390625 
L 37.796875 25.390625 
z
M 35.203125 72.90625 
L 47.609375 72.90625 
L 47.609375 25.390625 
L 58.015625 25.390625 
L 58.015625 17.1875 
L 47.609375 17.1875 
L 47.609375 0 
L 37.796875 0 
L 37.796875 17.1875 
L 4.890625 17.1875 
L 4.890625 26.703125 
z
" id="DejaVuSans-52"/>
      </defs>
      <g transform="translate(295.697862 351.757656)scale(0.1 -0.1)">
       <use xlink:href="#DejaVuSans-52"/>
       <use x="63.623047" xlink:href="#DejaVuSans-48"/>
       <use x="127.246094" xlink:href="#DejaVuSans-48"/>
      </g>
     </g>
    </g>
    <g id="xtick_4">
     <g id="line2d_7">
      <path clip-path="url(#p84c9422e3f)" d="M 432.790543 337.159219 
L 432.790543 10.999219 
" style="fill:none;stroke:#b0b0b0;stroke-linecap:square;stroke-width:0.8;"/>
     </g>
     <g id="line2d_8">
      <g>
       <use style="stroke:#000000;stroke-width:0.8;" x="432.790543" xlink:href="#m2a1dcadfc9" y="337.159219"/>
      </g>
     </g>
     <g id="text_4">
      <!-- 600 -->
      <defs>
       <path d="M 33.015625 40.375 
Q 26.375 40.375 22.484375 35.828125 
Q 18.609375 31.296875 18.609375 23.390625 
Q 18.609375 15.53125 22.484375 10.953125 
Q 26.375 6.390625 33.015625 6.390625 
Q 39.65625 6.390625 43.53125 10.953125 
Q 47.40625 15.53125 47.40625 23.390625 
Q 47.40625 31.296875 43.53125 35.828125 
Q 39.65625 40.375 33.015625 40.375 
z
M 52.59375 71.296875 
L 52.59375 62.3125 
Q 48.875 64.0625 45.09375 64.984375 
Q 41.3125 65.921875 37.59375 65.921875 
Q 27.828125 65.921875 22.671875 59.328125 
Q 17.53125 52.734375 16.796875 39.40625 
Q 19.671875 43.65625 24.015625 45.921875 
Q 28.375 48.1875 33.59375 48.1875 
Q 44.578125 48.1875 50.953125 41.515625 
Q 57.328125 34.859375 57.328125 23.390625 
Q 57.328125 12.15625 50.6875 5.359375 
Q 44.046875 -1.421875 33.015625 -1.421875 
Q 20.359375 -1.421875 13.671875 8.265625 
Q 6.984375 17.96875 6.984375 36.375 
Q 6.984375 53.65625 15.1875 63.9375 
Q 23.390625 74.21875 37.203125 74.21875 
Q 40.921875 74.21875 44.703125 73.484375 
Q 48.484375 72.75 52.59375 71.296875 
z
" id="DejaVuSans-54"/>
      </defs>
      <g transform="translate(423.246793 351.757656)scale(0.1 -0.1)">
       <use xlink:href="#DejaVuSans-54"/>
       <use x="63.623047" xlink:href="#DejaVuSans-48"/>
       <use x="127.246094" xlink:href="#DejaVuSans-48"/>
      </g>
     </g>
    </g>
    <g id="xtick_5">
     <g id="line2d_9">
      <path clip-path="url(#p84c9422e3f)" d="M 560.339474 337.159219 
L 560.339474 10.999219 
" style="fill:none;stroke:#b0b0b0;stroke-linecap:square;stroke-width:0.8;"/>
     </g>
     <g id="line2d_10">
      <g>
       <use style="stroke:#000000;stroke-width:0.8;" x="560.339474" xlink:href="#m2a1dcadfc9" y="337.159219"/>
      </g>
     </g>
     <g id="text_5">
      <!-- 800 -->
      <defs>
       <path d="M 31.78125 34.625 
Q 24.75 34.625 20.71875 30.859375 
Q 16.703125 27.09375 16.703125 20.515625 
Q 16.703125 13.921875 20.71875 10.15625 
Q 24.75 6.390625 31.78125 6.390625 
Q 38.8125 6.390625 42.859375 10.171875 
Q 46.921875 13.96875 46.921875 20.515625 
Q 46.921875 27.09375 42.890625 30.859375 
Q 38.875 34.625 31.78125 34.625 
z
M 21.921875 38.8125 
Q 15.578125 40.375 12.03125 44.71875 
Q 8.5 49.078125 8.5 55.328125 
Q 8.5 64.0625 14.71875 69.140625 
Q 20.953125 74.21875 31.78125 74.21875 
Q 42.671875 74.21875 48.875 69.140625 
Q 55.078125 64.0625 55.078125 55.328125 
Q 55.078125 49.078125 51.53125 44.71875 
Q 48 40.375 41.703125 38.8125 
Q 48.828125 37.15625 52.796875 32.3125 
Q 56.78125 27.484375 56.78125 20.515625 
Q 56.78125 9.90625 50.3125 4.234375 
Q 43.84375 -1.421875 31.78125 -1.421875 
Q 19.734375 -1.421875 13.25 4.234375 
Q 6.78125 9.90625 6.78125 20.515625 
Q 6.78125 27.484375 10.78125 32.3125 
Q 14.796875 37.15625 21.921875 38.8125 
z
M 18.3125 54.390625 
Q 18.3125 48.734375 21.84375 45.5625 
Q 25.390625 42.390625 31.78125 42.390625 
Q 38.140625 42.390625 41.71875 45.5625 
Q 45.3125 48.734375 45.3125 54.390625 
Q 45.3125 60.0625 41.71875 63.234375 
Q 38.140625 66.40625 31.78125 66.40625 
Q 25.390625 66.40625 21.84375 63.234375 
Q 18.3125 60.0625 18.3125 54.390625 
z
" id="DejaVuSans-56"/>
      </defs>
      <g transform="translate(550.795724 351.757656)scale(0.1 -0.1)">
       <use xlink:href="#DejaVuSans-56"/>
       <use x="63.623047" xlink:href="#DejaVuSans-48"/>
       <use x="127.246094" xlink:href="#DejaVuSans-48"/>
      </g>
     </g>
    </g>
    <g id="xtick_6">
     <g id="line2d_11">
      <path clip-path="url(#p84c9422e3f)" d="M 687.888405 337.159219 
L 687.888405 10.999219 
" style="fill:none;stroke:#b0b0b0;stroke-linecap:square;stroke-width:0.8;"/>
     </g>
     <g id="line2d_12">
      <g>
       <use style="stroke:#000000;stroke-width:0.8;" x="687.888405" xlink:href="#m2a1dcadfc9" y="337.159219"/>
      </g>
     </g>
     <g id="text_6">
      <!-- 1000 -->
      <defs>
       <path d="M 12.40625 8.296875 
L 28.515625 8.296875 
L 28.515625 63.921875 
L 10.984375 60.40625 
L 10.984375 69.390625 
L 28.421875 72.90625 
L 38.28125 72.90625 
L 38.28125 8.296875 
L 54.390625 8.296875 
L 54.390625 0 
L 12.40625 0 
z
" id="DejaVuSans-49"/>
      </defs>
      <g transform="translate(675.163405 351.757656)scale(0.1 -0.1)">
       <use xlink:href="#DejaVuSans-49"/>
       <use x="63.623047" xlink:href="#DejaVuSans-48"/>
       <use x="127.246094" xlink:href="#DejaVuSans-48"/>
       <use x="190.869141" xlink:href="#DejaVuSans-48"/>
      </g>
     </g>
    </g>
    <g id="text_7">
     <!-- Epoch -->
     <defs>
      <path d="M 9.8125 72.90625 
L 55.90625 72.90625 
L 55.90625 64.59375 
L 19.671875 64.59375 
L 19.671875 43.015625 
L 54.390625 43.015625 
L 54.390625 34.71875 
L 19.671875 34.71875 
L 19.671875 8.296875 
L 56.78125 8.296875 
L 56.78125 0 
L 9.8125 0 
z
" id="DejaVuSans-69"/>
      <path d="M 18.109375 8.203125 
L 18.109375 -20.796875 
L 9.078125 -20.796875 
L 9.078125 54.6875 
L 18.109375 54.6875 
L 18.109375 46.390625 
Q 20.953125 51.265625 25.265625 53.625 
Q 29.59375 56 35.59375 56 
Q 45.5625 56 51.78125 48.09375 
Q 58.015625 40.1875 58.015625 27.296875 
Q 58.015625 14.40625 51.78125 6.484375 
Q 45.5625 -1.421875 35.59375 -1.421875 
Q 29.59375 -1.421875 25.265625 0.953125 
Q 20.953125 3.328125 18.109375 8.203125 
z
M 48.6875 27.296875 
Q 48.6875 37.203125 44.609375 42.84375 
Q 40.53125 48.484375 33.40625 48.484375 
Q 26.265625 48.484375 22.1875 42.84375 
Q 18.109375 37.203125 18.109375 27.296875 
Q 18.109375 17.390625 22.1875 11.75 
Q 26.265625 6.109375 33.40625 6.109375 
Q 40.53125 6.109375 44.609375 11.75 
Q 48.6875 17.390625 48.6875 27.296875 
z
" id="DejaVuSans-112"/>
      <path d="M 30.609375 48.390625 
Q 23.390625 48.390625 19.1875 42.75 
Q 14.984375 37.109375 14.984375 27.296875 
Q 14.984375 17.484375 19.15625 11.84375 
Q 23.34375 6.203125 30.609375 6.203125 
Q 37.796875 6.203125 41.984375 11.859375 
Q 46.1875 17.53125 46.1875 27.296875 
Q 46.1875 37.015625 41.984375 42.703125 
Q 37.796875 48.390625 30.609375 48.390625 
z
M 30.609375 56 
Q 42.328125 56 49.015625 48.375 
Q 55.71875 40.765625 55.71875 27.296875 
Q 55.71875 13.875 49.015625 6.21875 
Q 42.328125 -1.421875 30.609375 -1.421875 
Q 18.84375 -1.421875 12.171875 6.21875 
Q 5.515625 13.875 5.515625 27.296875 
Q 5.515625 40.765625 12.171875 48.375 
Q 18.84375 56 30.609375 56 
z
" id="DejaVuSans-111"/>
      <path d="M 48.78125 52.59375 
L 48.78125 44.1875 
Q 44.96875 46.296875 41.140625 47.34375 
Q 37.3125 48.390625 33.40625 48.390625 
Q 24.65625 48.390625 19.8125 42.84375 
Q 14.984375 37.3125 14.984375 27.296875 
Q 14.984375 17.28125 19.8125 11.734375 
Q 24.65625 6.203125 33.40625 6.203125 
Q 37.3125 6.203125 41.140625 7.25 
Q 44.96875 8.296875 48.78125 10.40625 
L 48.78125 2.09375 
Q 45.015625 0.34375 40.984375 -0.53125 
Q 36.96875 -1.421875 32.421875 -1.421875 
Q 20.0625 -1.421875 12.78125 6.34375 
Q 5.515625 14.109375 5.515625 27.296875 
Q 5.515625 40.671875 12.859375 48.328125 
Q 20.21875 56 33.015625 56 
Q 37.15625 56 41.109375 55.140625 
Q 45.0625 54.296875 48.78125 52.59375 
z
" id="DejaVuSans-99"/>
      <path d="M 54.890625 33.015625 
L 54.890625 0 
L 45.90625 0 
L 45.90625 32.71875 
Q 45.90625 40.484375 42.875 44.328125 
Q 39.84375 48.1875 33.796875 48.1875 
Q 26.515625 48.1875 22.3125 43.546875 
Q 18.109375 38.921875 18.109375 30.90625 
L 18.109375 0 
L 9.078125 0 
L 9.078125 75.984375 
L 18.109375 75.984375 
L 18.109375 46.1875 
Q 21.34375 51.125 25.703125 53.5625 
Q 30.078125 56 35.796875 56 
Q 45.21875 56 50.046875 50.171875 
Q 54.890625 44.34375 54.890625 33.015625 
z
" id="DejaVuSans-104"/>
     </defs>
     <g transform="translate(369.632813 365.435781)scale(0.1 -0.1)">
      <use xlink:href="#DejaVuSans-69"/>
      <use x="63.183594" xlink:href="#DejaVuSans-112"/>
      <use x="126.660156" xlink:href="#DejaVuSans-111"/>
      <use x="187.841797" xlink:href="#DejaVuSans-99"/>
      <use x="242.822266" xlink:href="#DejaVuSans-104"/>
     </g>
    </g>
   </g>
   <g id="matplotlib.axis_2">
    <g id="ytick_1">
     <g id="line2d_13">
      <path clip-path="url(#p84c9422e3f)" d="M 50.14375 337.159219 
L 719.74375 337.159219 
" style="fill:none;stroke:#b0b0b0;stroke-linecap:square;stroke-width:0.8;"/>
     </g>
     <g id="line2d_14">
      <defs>
       <path d="M 0 0 
L -3.5 0 
" id="m28f4b06757" style="stroke:#000000;stroke-width:0.8;"/>
      </defs>
      <g>
       <use style="stroke:#000000;stroke-width:0.8;" x="50.14375" xlink:href="#m28f4b06757" y="337.159219"/>
      </g>
     </g>
     <g id="text_8">
      <!-- 0.82 -->
      <defs>
       <path d="M 10.6875 12.40625 
L 21 12.40625 
L 21 0 
L 10.6875 0 
z
" id="DejaVuSans-46"/>
      </defs>
      <g transform="translate(20.878125 340.958437)scale(0.1 -0.1)">
       <use xlink:href="#DejaVuSans-48"/>
       <use x="63.623047" xlink:href="#DejaVuSans-46"/>
       <use x="95.410156" xlink:href="#DejaVuSans-56"/>
       <use x="159.033203" xlink:href="#DejaVuSans-50"/>
      </g>
     </g>
    </g>
    <g id="ytick_2">
     <g id="line2d_15">
      <path clip-path="url(#p84c9422e3f)" d="M 50.14375 296.389219 
L 719.74375 296.389219 
" style="fill:none;stroke:#b0b0b0;stroke-linecap:square;stroke-width:0.8;"/>
     </g>
     <g id="line2d_16">
      <g>
       <use style="stroke:#000000;stroke-width:0.8;" x="50.14375" xlink:href="#m28f4b06757" y="296.389219"/>
      </g>
     </g>
     <g id="text_9">
      <!-- 0.84 -->
      <g transform="translate(20.878125 300.188437)scale(0.1 -0.1)">
       <use xlink:href="#DejaVuSans-48"/>
       <use x="63.623047" xlink:href="#DejaVuSans-46"/>
       <use x="95.410156" xlink:href="#DejaVuSans-56"/>
       <use x="159.033203" xlink:href="#DejaVuSans-52"/>
      </g>
     </g>
    </g>
    <g id="ytick_3">
     <g id="line2d_17">
      <path clip-path="url(#p84c9422e3f)" d="M 50.14375 255.619219 
L 719.74375 255.619219 
" style="fill:none;stroke:#b0b0b0;stroke-linecap:square;stroke-width:0.8;"/>
     </g>
     <g id="line2d_18">
      <g>
       <use style="stroke:#000000;stroke-width:0.8;" x="50.14375" xlink:href="#m28f4b06757" y="255.619219"/>
      </g>
     </g>
     <g id="text_10">
      <!-- 0.86 -->
      <g transform="translate(20.878125 259.418437)scale(0.1 -0.1)">
       <use xlink:href="#DejaVuSans-48"/>
       <use x="63.623047" xlink:href="#DejaVuSans-46"/>
       <use x="95.410156" xlink:href="#DejaVuSans-56"/>
       <use x="159.033203" xlink:href="#DejaVuSans-54"/>
      </g>
     </g>
    </g>
    <g id="ytick_4">
     <g id="line2d_19">
      <path clip-path="url(#p84c9422e3f)" d="M 50.14375 214.849219 
L 719.74375 214.849219 
" style="fill:none;stroke:#b0b0b0;stroke-linecap:square;stroke-width:0.8;"/>
     </g>
     <g id="line2d_20">
      <g>
       <use style="stroke:#000000;stroke-width:0.8;" x="50.14375" xlink:href="#m28f4b06757" y="214.849219"/>
      </g>
     </g>
     <g id="text_11">
      <!-- 0.88 -->
      <g transform="translate(20.878125 218.648437)scale(0.1 -0.1)">
       <use xlink:href="#DejaVuSans-48"/>
       <use x="63.623047" xlink:href="#DejaVuSans-46"/>
       <use x="95.410156" xlink:href="#DejaVuSans-56"/>
       <use x="159.033203" xlink:href="#DejaVuSans-56"/>
      </g>
     </g>
    </g>
    <g id="ytick_5">
     <g id="line2d_21">
      <path clip-path="url(#p84c9422e3f)" d="M 50.14375 174.079219 
L 719.74375 174.079219 
" style="fill:none;stroke:#b0b0b0;stroke-linecap:square;stroke-width:0.8;"/>
     </g>
     <g id="line2d_22">
      <g>
       <use style="stroke:#000000;stroke-width:0.8;" x="50.14375" xlink:href="#m28f4b06757" y="174.079219"/>
      </g>
     </g>
     <g id="text_12">
      <!-- 0.90 -->
      <defs>
       <path d="M 10.984375 1.515625 
L 10.984375 10.5 
Q 14.703125 8.734375 18.5 7.8125 
Q 22.3125 6.890625 25.984375 6.890625 
Q 35.75 6.890625 40.890625 13.453125 
Q 46.046875 20.015625 46.78125 33.40625 
Q 43.953125 29.203125 39.59375 26.953125 
Q 35.25 24.703125 29.984375 24.703125 
Q 19.046875 24.703125 12.671875 31.3125 
Q 6.296875 37.9375 6.296875 49.421875 
Q 6.296875 60.640625 12.9375 67.421875 
Q 19.578125 74.21875 30.609375 74.21875 
Q 43.265625 74.21875 49.921875 64.515625 
Q 56.59375 54.828125 56.59375 36.375 
Q 56.59375 19.140625 48.40625 8.859375 
Q 40.234375 -1.421875 26.421875 -1.421875 
Q 22.703125 -1.421875 18.890625 -0.6875 
Q 15.09375 0.046875 10.984375 1.515625 
z
M 30.609375 32.421875 
Q 37.25 32.421875 41.125 36.953125 
Q 45.015625 41.5 45.015625 49.421875 
Q 45.015625 57.28125 41.125 61.84375 
Q 37.25 66.40625 30.609375 66.40625 
Q 23.96875 66.40625 20.09375 61.84375 
Q 16.21875 57.28125 16.21875 49.421875 
Q 16.21875 41.5 20.09375 36.953125 
Q 23.96875 32.421875 30.609375 32.421875 
z
" id="DejaVuSans-57"/>
      </defs>
      <g transform="translate(20.878125 177.878437)scale(0.1 -0.1)">
       <use xlink:href="#DejaVuSans-48"/>
       <use x="63.623047" xlink:href="#DejaVuSans-46"/>
       <use x="95.410156" xlink:href="#DejaVuSans-57"/>
       <use x="159.033203" xlink:href="#DejaVuSans-48"/>
      </g>
     </g>
    </g>
    <g id="ytick_6">
     <g id="line2d_23">
      <path clip-path="url(#p84c9422e3f)" d="M 50.14375 133.309219 
L 719.74375 133.309219 
" style="fill:none;stroke:#b0b0b0;stroke-linecap:square;stroke-width:0.8;"/>
     </g>
     <g id="line2d_24">
      <g>
       <use style="stroke:#000000;stroke-width:0.8;" x="50.14375" xlink:href="#m28f4b06757" y="133.309219"/>
      </g>
     </g>
     <g id="text_13">
      <!-- 0.92 -->
      <g transform="translate(20.878125 137.108437)scale(0.1 -0.1)">
       <use xlink:href="#DejaVuSans-48"/>
       <use x="63.623047" xlink:href="#DejaVuSans-46"/>
       <use x="95.410156" xlink:href="#DejaVuSans-57"/>
       <use x="159.033203" xlink:href="#DejaVuSans-50"/>
      </g>
     </g>
    </g>
    <g id="ytick_7">
     <g id="line2d_25">
      <path clip-path="url(#p84c9422e3f)" d="M 50.14375 92.539219 
L 719.74375 92.539219 
" style="fill:none;stroke:#b0b0b0;stroke-linecap:square;stroke-width:0.8;"/>
     </g>
     <g id="line2d_26">
      <g>
       <use style="stroke:#000000;stroke-width:0.8;" x="50.14375" xlink:href="#m28f4b06757" y="92.539219"/>
      </g>
     </g>
     <g id="text_14">
      <!-- 0.94 -->
      <g transform="translate(20.878125 96.338437)scale(0.1 -0.1)">
       <use xlink:href="#DejaVuSans-48"/>
       <use x="63.623047" xlink:href="#DejaVuSans-46"/>
       <use x="95.410156" xlink:href="#DejaVuSans-57"/>
       <use x="159.033203" xlink:href="#DejaVuSans-52"/>
      </g>
     </g>
    </g>
    <g id="ytick_8">
     <g id="line2d_27">
      <path clip-path="url(#p84c9422e3f)" d="M 50.14375 51.769219 
L 719.74375 51.769219 
" style="fill:none;stroke:#b0b0b0;stroke-linecap:square;stroke-width:0.8;"/>
     </g>
     <g id="line2d_28">
      <g>
       <use style="stroke:#000000;stroke-width:0.8;" x="50.14375" xlink:href="#m28f4b06757" y="51.769219"/>
      </g>
     </g>
     <g id="text_15">
      <!-- 0.96 -->
      <g transform="translate(20.878125 55.568437)scale(0.1 -0.1)">
       <use xlink:href="#DejaVuSans-48"/>
       <use x="63.623047" xlink:href="#DejaVuSans-46"/>
       <use x="95.410156" xlink:href="#DejaVuSans-57"/>
       <use x="159.033203" xlink:href="#DejaVuSans-54"/>
      </g>
     </g>
    </g>
    <g id="ytick_9">
     <g id="line2d_29">
      <path clip-path="url(#p84c9422e3f)" d="M 50.14375 10.999219 
L 719.74375 10.999219 
" style="fill:none;stroke:#b0b0b0;stroke-linecap:square;stroke-width:0.8;"/>
     </g>
     <g id="line2d_30">
      <g>
       <use style="stroke:#000000;stroke-width:0.8;" x="50.14375" xlink:href="#m28f4b06757" y="10.999219"/>
      </g>
     </g>
     <g id="text_16">
      <!-- 0.98 -->
      <g transform="translate(20.878125 14.798437)scale(0.1 -0.1)">
       <use xlink:href="#DejaVuSans-48"/>
       <use x="63.623047" xlink:href="#DejaVuSans-46"/>
       <use x="95.410156" xlink:href="#DejaVuSans-57"/>
       <use x="159.033203" xlink:href="#DejaVuSans-56"/>
      </g>
     </g>
    </g>
    <g id="text_17">
     <!-- Accuracy -->
     <defs>
      <path d="M 34.1875 63.1875 
L 20.796875 26.90625 
L 47.609375 26.90625 
z
M 28.609375 72.90625 
L 39.796875 72.90625 
L 67.578125 0 
L 57.328125 0 
L 50.6875 18.703125 
L 17.828125 18.703125 
L 11.1875 0 
L 0.78125 0 
z
" id="DejaVuSans-65"/>
      <path d="M 8.5 21.578125 
L 8.5 54.6875 
L 17.484375 54.6875 
L 17.484375 21.921875 
Q 17.484375 14.15625 20.5 10.265625 
Q 23.53125 6.390625 29.59375 6.390625 
Q 36.859375 6.390625 41.078125 11.03125 
Q 45.3125 15.671875 45.3125 23.6875 
L 45.3125 54.6875 
L 54.296875 54.6875 
L 54.296875 0 
L 45.3125 0 
L 45.3125 8.40625 
Q 42.046875 3.421875 37.71875 1 
Q 33.40625 -1.421875 27.6875 -1.421875 
Q 18.265625 -1.421875 13.375 4.4375 
Q 8.5 10.296875 8.5 21.578125 
z
M 31.109375 56 
z
" id="DejaVuSans-117"/>
      <path d="M 41.109375 46.296875 
Q 39.59375 47.171875 37.8125 47.578125 
Q 36.03125 48 33.890625 48 
Q 26.265625 48 22.1875 43.046875 
Q 18.109375 38.09375 18.109375 28.8125 
L 18.109375 0 
L 9.078125 0 
L 9.078125 54.6875 
L 18.109375 54.6875 
L 18.109375 46.1875 
Q 20.953125 51.171875 25.484375 53.578125 
Q 30.03125 56 36.53125 56 
Q 37.453125 56 38.578125 55.875 
Q 39.703125 55.765625 41.0625 55.515625 
z
" id="DejaVuSans-114"/>
      <path d="M 34.28125 27.484375 
Q 23.390625 27.484375 19.1875 25 
Q 14.984375 22.515625 14.984375 16.5 
Q 14.984375 11.71875 18.140625 8.90625 
Q 21.296875 6.109375 26.703125 6.109375 
Q 34.1875 6.109375 38.703125 11.40625 
Q 43.21875 16.703125 43.21875 25.484375 
L 43.21875 27.484375 
z
M 52.203125 31.203125 
L 52.203125 0 
L 43.21875 0 
L 43.21875 8.296875 
Q 40.140625 3.328125 35.546875 0.953125 
Q 30.953125 -1.421875 24.3125 -1.421875 
Q 15.921875 -1.421875 10.953125 3.296875 
Q 6 8.015625 6 15.921875 
Q 6 25.140625 12.171875 29.828125 
Q 18.359375 34.515625 30.609375 34.515625 
L 43.21875 34.515625 
L 43.21875 35.40625 
Q 43.21875 41.609375 39.140625 45 
Q 35.0625 48.390625 27.6875 48.390625 
Q 23 48.390625 18.546875 47.265625 
Q 14.109375 46.140625 10.015625 43.890625 
L 10.015625 52.203125 
Q 14.9375 54.109375 19.578125 55.046875 
Q 24.21875 56 28.609375 56 
Q 40.484375 56 46.34375 49.84375 
Q 52.203125 43.703125 52.203125 31.203125 
z
" id="DejaVuSans-97"/>
      <path d="M 32.171875 -5.078125 
Q 28.375 -14.84375 24.75 -17.8125 
Q 21.140625 -20.796875 15.09375 -20.796875 
L 7.90625 -20.796875 
L 7.90625 -13.28125 
L 13.1875 -13.28125 
Q 16.890625 -13.28125 18.9375 -11.515625 
Q 21 -9.765625 23.484375 -3.21875 
L 25.09375 0.875 
L 2.984375 54.6875 
L 12.5 54.6875 
L 29.59375 11.921875 
L 46.6875 54.6875 
L 56.203125 54.6875 
z
" id="DejaVuSans-121"/>
     </defs>
     <g transform="translate(14.798438 196.994062)rotate(-90)scale(0.1 -0.1)">
      <use xlink:href="#DejaVuSans-65"/>
      <use x="68.392578" xlink:href="#DejaVuSans-99"/>
      <use x="123.373047" xlink:href="#DejaVuSans-99"/>
      <use x="178.353516" xlink:href="#DejaVuSans-117"/>
      <use x="241.732422" xlink:href="#DejaVuSans-114"/>
      <use x="282.845703" xlink:href="#DejaVuSans-97"/>
      <use x="344.125" xlink:href="#DejaVuSans-99"/>
      <use x="399.105469" xlink:href="#DejaVuSans-121"/>
     </g>
    </g>
   </g>
   <g id="line2d_31">
    <path clip-path="url(#p84c9422e3f)" d="M 71.956766 375.715469 
L 72.464813 372.832949 
L 73.102558 367.023232 
L 73.740302 369.673236 
L 74.378047 362.436575 
L 75.015792 358.716364 
L 75.653536 359.837482 
L 76.291281 350.868173 
L 76.929025 347.861312 
L 77.56677 352.957557 
L 78.204515 347.75937 
L 78.842259 343.835274 
L 79.480004 342.35742 
L 80.117749 337.566879 
L 80.755493 327.119595 
L 81.393238 333.795636 
L 82.030983 331.400427 
L 82.668727 330.38125 
L 83.306472 329.005217 
L 83.944217 330.228277 
L 84.581961 320.545496 
L 85.219706 320.953142 
L 85.857451 321.819466 
L 86.495195 320.392522 
L 87.13294 311.932802 
L 87.770685 311.372182 
L 88.408429 310.964536 
L 89.046174 314.633837 
L 89.683919 314.786689 
L 90.959408 301.638369 
L 91.597153 307.600939 
L 92.234897 302.402752 
L 92.872642 300.313368 
L 93.510387 300.568162 
L 94.148131 293.891999 
L 94.785876 298.529688 
L 95.42362 294.605471 
L 96.061365 295.471916 
L 96.69911 297.816216 
L 97.336854 290.579434 
L 98.612344 295.624769 
L 99.887833 286.808312 
L 100.525578 290.783318 
L 101.163322 285.687072 
L 102.438812 291.700673 
L 103.076556 282.527359 
L 103.714301 282.017771 
L 104.352046 283.189921 
L 104.98979 281.762977 
L 105.627535 279.316736 
L 106.26528 282.578391 
L 106.903024 282.221655 
L 107.540769 280.336033 
L 108.178514 277.78785 
L 108.816258 272.3859 
L 109.454003 276.51388 
L 110.091748 273.55805 
L 110.729492 274.373464 
L 111.367237 270.245485 
L 112.004981 267.59536 
L 112.642726 275.188878 
L 113.280471 267.646391 
L 113.918215 269.837717 
L 115.193705 266.015564 
L 115.831449 272.334869 
L 116.469194 264.384736 
L 117.106939 268.563747 
L 117.744683 266.525152 
L 118.382428 268.105069 
L 119.020173 262.397173 
L 119.657917 268.716599 
L 120.933407 255.721132 
L 121.571151 268.971393 
L 122.208896 256.842371 
L 122.846641 257.759605 
L 123.484385 257.351959 
L 124.12213 262.24432 
L 124.759875 255.925015 
L 125.397619 259.084729 
L 126.035364 258.269315 
L 126.673109 259.798201 
L 127.310853 251.185506 
L 127.948598 257.046133 
L 128.586343 251.49121 
L 129.224087 251.287448 
L 129.861832 255.466337 
L 130.499576 254.548982 
L 131.137321 252.816334 
L 132.41281 246.394965 
L 133.050555 246.242113 
L 133.6883 247.770999 
L 134.326044 246.649759 
L 134.963789 247.567115 
L 135.601534 249.197943 
L 136.239278 252.306624 
L 136.877023 248.586413 
L 137.514768 242.929548 
L 138.152512 243.592109 
L 139.428002 245.834467 
L 140.065746 243.03149 
L 140.703491 241.757398 
L 141.341236 239.769834 
L 141.97898 242.114134 
L 142.616725 240.12657 
L 143.25447 244.050787 
L 143.892214 242.216076 
L 144.529959 238.190039 
L 145.167704 233.297677 
L 145.805448 238.648716 
L 146.443193 236.610243 
L 147.080937 237.68045 
L 147.718682 237.017889 
L 148.356427 237.119831 
L 148.994171 237.884213 
L 149.631916 231.513997 
L 150.269661 230.392758 
L 150.907405 233.144704 
L 151.54515 232.125527 
L 152.182895 237.578509 
L 152.820639 234.826563 
L 153.458384 231.157262 
L 154.096129 234.316853 
L 154.733873 230.290816 
L 155.371618 230.239906 
L 156.009363 233.705323 
L 156.647107 230.953378 
L 157.922597 223.767627 
L 159.198086 229.88317 
L 160.473575 226.31581 
L 161.11132 224.684983 
L 161.749065 228.201432 
L 162.386809 224.735893 
L 163.024554 227.284076 
L 163.662299 225.500397 
L 164.300043 220.404151 
L 164.937788 231.921644 
L 165.575532 223.461923 
L 166.213277 226.31581 
L 166.851022 228.201432 
L 167.488766 222.646509 
L 168.126511 227.48796 
L 168.764256 229.169698 
L 169.402 224.175395 
L 170.039745 220.709856 
L 170.67749 219.486796 
L 171.315234 220.964771 
L 171.952979 218.824234 
L 172.590724 222.595477 
L 173.228468 222.697419 
L 173.866213 221.678243 
L 174.503958 214.798197 
L 175.141702 219.945474 
L 175.779447 218.926176 
L 176.417192 221.576301 
L 177.054936 217.193528 
L 177.692681 222.187831 
L 178.96817 210.976043 
L 179.605915 220.047416 
L 180.881404 212.301045 
L 181.519149 216.17423 
L 182.156893 205.777856 
L 182.794638 218.314646 
L 183.432383 216.021378 
L 184.070127 216.480056 
L 184.707872 213.320343 
L 185.345617 213.167491 
L 185.983361 215.205964 
L 186.621106 210.415424 
L 187.258851 211.179927 
L 187.896595 210.313603 
L 188.53434 214.543403 
L 189.172085 210.313603 
L 189.809829 213.880963 
L 190.447574 211.281869 
L 191.085319 210.211661 
L 191.723063 212.963607 
L 192.360808 210.262571 
L 192.998553 203.892235 
L 194.274042 212.810755 
L 195.549531 204.911532 
L 196.187276 213.575137 
L 197.462765 200.936405 
L 198.10051 204.554796 
L 198.738255 210.007777 
L 199.375999 208.98848 
L 200.013744 205.064384 
L 200.651488 207.969304 
L 201.289233 204.248971 
L 201.926978 196.9614 
L 202.564722 206.59327 
L 203.202467 206.338476 
L 203.840212 198.897931 
L 205.115701 204.096118 
L 205.753446 203.331736 
L 206.39119 205.42112 
L 207.028935 200.070081 
L 207.66668 203.739382 
L 208.304424 203.790414 
L 208.942169 206.03265 
L 209.579914 201.293141 
L 210.217658 200.070081 
L 210.855403 199.968139 
L 211.493148 200.426817 
L 212.130892 197.57293 
L 212.768637 200.273965 
L 213.406382 196.604664 
L 214.044126 194.00557 
L 214.681871 202.363349 
L 215.319616 198.133549 
L 215.95736 196.859458 
L 216.595105 194.107512 
L 217.232849 199.713345 
L 217.870594 196.910368 
L 218.508339 197.878755 
L 219.783828 194.922926 
L 220.421573 195.993134 
L 221.059317 200.579669 
L 221.697062 197.267104 
L 222.334807 201.242231 
L 222.972551 195.024746 
L 223.610296 193.546892 
L 224.248041 193.597802 
L 224.885785 198.643137 
L 225.52353 198.133549 
L 226.161275 191.916065 
L 226.799019 194.464248 
L 227.436764 192.323832 
L 228.074509 193.546892 
L 228.712253 196.859458 
L 229.349998 193.903628 
L 229.987743 186.972672 
L 230.625487 194.413216 
L 231.263232 192.935362 
L 231.900977 190.540153 
L 232.538721 191.559329 
L 233.176466 193.343008 
L 234.451955 183.20155 
L 235.0897 191.916065 
L 235.727444 192.272801 
L 237.002934 194.158422 
L 237.640678 188.195853 
L 238.916168 189.011267 
L 239.553912 190.794947 
L 240.191657 190.489121 
L 240.829402 184.98523 
L 241.467146 186.972672 
L 242.104891 180.908161 
L 243.38038 189.164119 
L 244.018125 187.125645 
L 244.65587 181.621632 
L 245.293614 185.953495 
L 245.931359 181.213986 
L 246.569104 193.088214 
L 247.206848 186.361142 
L 247.844593 184.016964 
L 249.120082 189.316971 
L 249.757827 185.443907 
L 250.395572 180.85725 
L 251.033316 186.2592 
L 251.671061 181.162955 
L 252.308805 186.2592 
L 252.94655 180.347662 
L 253.584295 186.157379 
L 254.222039 181.213986 
L 254.859784 182.182252 
L 256.135273 182.182252 
L 256.773018 184.98523 
L 257.410763 181.315928 
L 258.048507 185.698701 
L 258.686252 182.997666 
L 259.323997 181.112044 
L 259.961741 182.488078 
L 260.599486 175.098443 
L 261.237231 182.0294 
L 261.874975 183.609196 
L 262.51272 176.678361 
L 263.150465 179.328365 
L 263.788209 180.347662 
L 264.425954 179.837953 
L 265.063699 180.806219 
L 265.701443 181.010102 
L 266.339188 177.086007 
L 266.976933 176.066709 
L 267.614677 175.913857 
L 268.252422 181.51969 
L 268.890166 178.207125 
L 269.527911 176.831213 
L 270.165656 179.63419 
L 270.8034 176.015799 
L 271.441145 174.945591 
L 272.07889 176.831213 
L 272.716634 172.295588 
L 273.354379 178.411009 
L 273.992124 175.098443 
L 275.267613 179.175512 
L 275.905358 172.805176 
L 276.543102 174.588855 
L 277.180847 175.149475 
L 277.818592 174.537824 
L 278.456336 171.429142 
L 279.094081 175.761005 
L 279.731826 170.613728 
L 280.36957 175.404269 
L 281.007315 171.938852 
L 281.64506 171.633026 
L 282.282804 175.608153 
L 282.920549 171.378232 
L 283.558294 177.850389 
L 284.196038 172.091704 
L 284.833783 172.754144 
L 285.471528 169.900256 
L 286.109272 172.805176 
L 286.747017 173.977325 
L 287.384761 166.434839 
L 288.022506 170.817612 
L 288.660251 167.810872 
L 289.93574 174.436003 
L 290.573485 163.937687 
L 291.211229 171.123438 
L 291.848974 169.54352 
L 292.486719 174.334061 
L 293.124463 170.358934 
L 293.762208 171.174348 
L 294.399953 167.912814 
L 295.037697 168.728107 
L 295.675442 168.575255 
L 296.313187 167.606989 
L 296.950931 163.580951 
L 297.588676 168.779138 
L 298.226421 170.05323 
L 299.50191 162.357891 
L 300.139655 163.122273 
L 300.777399 173.161912 
L 301.415144 163.631862 
L 302.052889 170.002198 
L 302.690633 166.230955 
L 303.328378 164.396365 
L 304.603867 170.562818 
L 305.241612 165.211779 
L 305.879356 167.861783 
L 306.517101 168.26955 
L 307.154846 161.287684 
L 307.79259 162.052066 
L 308.430335 158.586648 
L 309.06808 163.020332 
L 309.705824 159.91165 
L 310.343569 166.180045 
L 310.981314 162.052066 
L 311.619058 160.676032 
L 312.256803 161.797272 
L 312.894548 161.644419 
L 313.532292 165.262689 
L 314.170037 161.440536 
L 314.807782 161.236652 
L 315.445526 166.485749 
L 316.083271 162.510743 
L 316.721016 161.13471 
L 317.35876 164.396365 
L 317.996505 159.91165 
L 318.63425 159.147146 
L 319.271994 161.389504 
L 319.909739 160.981858 
L 320.547484 158.076939 
L 321.185228 158.892352 
L 321.822973 155.885613 
L 322.460717 162.001155 
L 323.098462 157.414498 
L 323.736207 162.30686 
L 324.373951 155.834702 
L 325.011696 151.961517 
L 325.649441 156.751937 
L 326.287185 159.147146 
L 326.92493 163.479009 
L 327.562675 154.458669 
L 328.200419 159.656856 
L 328.838164 156.95582 
L 329.475909 153.694165 
L 330.113653 154.050901 
L 330.751398 158.229912 
L 331.389143 152.165401 
L 332.026887 155.681729 
L 332.664632 157.924086 
L 333.302377 157.465409 
L 334.577866 156.089496 
L 335.215611 153.286519 
L 335.853355 155.019289 
L 336.4911 152.623957 
L 337.128845 152.674989 
L 337.766589 153.796107 
L 338.404334 153.439371 
L 339.042078 158.586648 
L 339.679823 155.070199 
L 340.317568 150.432632 
L 340.955312 152.623957 
L 341.593057 153.388461 
L 342.230802 154.866315 
L 342.868546 152.012427 
L 343.506291 152.980693 
L 344.144036 156.038465 
L 344.78178 148.699862 
L 345.419525 154.305817 
L 346.05727 153.541313 
L 346.695014 148.139364 
L 347.332759 149.923044 
L 347.970504 152.165401 
L 348.608248 150.636515 
L 349.245993 152.674989 
L 349.883738 152.980693 
L 350.521482 152.725899 
L 351.159227 149.872012 
L 351.796972 155.019289 
L 352.434716 146.20271 
L 353.072461 147.884448 
L 354.34795 154.764373 
L 354.985695 146.20271 
L 355.62344 146.20271 
L 356.261184 146.049858 
L 356.898929 152.216311 
L 357.536673 151.604781 
L 358.174418 145.947916 
L 358.812163 148.750894 
L 359.449907 145.489239 
L 360.087652 151.910486 
L 360.725397 146.865272 
L 361.363141 146.916182 
L 362.000886 144.011385 
L 362.638631 148.903746 
L 363.276375 150.993251 
L 363.91412 148.750894 
L 364.551865 147.527712 
L 365.189609 148.394158 
L 365.827354 146.661388 
L 366.465099 147.93548 
L 367.102843 146.100769 
L 367.740588 144.673825 
L 368.378333 146.865272 
L 369.016077 144.470062 
L 369.653822 140.18911 
L 370.291567 142.635351 
L 370.929311 148.699862 
L 371.567056 146.967214 
L 372.204801 145.642091 
L 372.842545 140.902581 
L 373.48029 143.195971 
L 374.118034 143.144939 
L 374.755779 141.004523 
L 375.393524 147.069034 
L 376.031268 142.839235 
L 376.669013 140.087289 
L 377.306758 140.647787 
L 377.944502 142.380557 
L 378.582247 141.361259 
L 379.219992 142.839235 
L 379.857736 143.960353 
L 380.495481 138.303488 
L 381.133226 142.074731 
L 381.77097 137.844932 
L 382.408715 141.412291 
L 383.04646 140.138199 
L 383.684204 144.011385 
L 384.321949 140.036257 
L 384.959694 141.870969 
L 385.597438 139.01696 
L 386.235183 140.342083 
L 386.872928 136.519808 
L 387.510672 140.953613 
L 388.148417 139.526669 
L 388.786162 137.74299 
L 389.423906 136.57084 
L 390.061651 136.774724 
L 390.699396 139.271875 
L 391.33714 138.864108 
L 391.974885 136.417988 
L 392.612629 135.500632 
L 393.250374 139.679522 
L 393.888119 138.813198 
L 394.525863 136.57084 
L 395.163608 139.220844 
L 395.801353 138.150636 
L 396.439097 136.825634 
L 397.076842 136.62175 
L 397.714587 130.710091 
L 398.352331 138.762166 
L 398.990076 134.940012 
L 399.627821 137.539106 
L 400.265565 132.442861 
L 400.90331 129.690915 
L 402.178799 135.704516 
L 402.816544 134.940012 
L 403.454289 133.462158 
L 404.092033 134.379393 
L 404.729778 131.831331 
L 405.367523 135.347658 
L 406.005267 134.481334 
L 406.643012 127.958146 
L 407.280757 133.411127 
L 408.556246 136.112162 
L 409.19399 128.060087 
L 409.831735 132.697655 
L 410.46948 134.481334 
L 411.107224 132.799597 
L 411.744969 132.646745 
L 412.382714 127.907235 
L 413.020458 129.181206 
L 413.658203 130.149593 
L 414.295948 132.340919 
L 414.933692 131.780299 
L 415.571437 129.690915 
L 416.209182 128.620707 
L 416.846926 130.149593 
L 417.484671 129.130295 
L 418.122416 131.627447 
L 418.76016 129.996619 
L 419.397905 127.754262 
L 420.03565 124.696612 
L 420.673394 129.639883 
L 421.311139 132.290009 
L 421.948884 128.773559 
L 422.586628 130.455297 
L 423.224373 125.104258 
L 423.862118 131.321621 
L 424.499862 127.958146 
L 425.137607 126.938848 
L 425.775352 123.779256 
L 426.413096 127.652441 
L 427.050841 124.747522 
L 427.688585 129.334179 
L 428.32633 127.652441 
L 428.964075 126.37835 
L 429.601819 127.907235 
L 430.239564 126.225376 
L 430.877309 127.550499 
L 431.515053 120.721485 
L 432.152798 127.04079 
L 432.790543 127.346616 
L 433.428287 126.276408 
L 434.066032 120.313839 
L 434.703777 125.104258 
L 435.341521 128.416823 
L 435.979266 121.587809 
L 436.617011 125.359052 
L 437.254755 124.747522 
L 437.8925 123.116694 
L 438.530245 120.976279 
L 439.167989 120.466691 
L 439.805734 127.754262 
L 440.443479 124.441696 
L 441.081223 120.466691 
L 441.718968 122.301281 
L 442.356713 119.039747 
L 443.632202 122.8619 
L 444.269946 123.167726 
L 444.907691 119.549335 
L 445.545436 120.619543 
L 446.18318 122.199339 
L 446.820925 124.237934 
L 447.45867 121.842603 
L 448.096414 121.333015 
L 448.734159 120.568633 
L 449.371904 122.148429 
L 450.009648 118.020449 
L 450.647393 118.530037 
L 451.922882 122.301281 
L 452.560627 125.308142 
L 453.198372 122.454254 
L 453.836116 116.695447 
L 454.473861 120.466691 
L 455.111606 118.784953 
L 455.74935 119.396483 
L 456.387095 114.758916 
L 457.02484 117.816565 
L 457.662584 121.995576 
L 458.300329 121.587809 
L 458.938074 120.058923 
L 459.575818 114.707884 
L 460.213563 117.765655 
L 460.851308 113.535734 
L 461.489052 113.84156 
L 462.126797 114.911768 
L 462.764541 116.287801 
L 463.402286 117.001273 
L 464.040031 116.287801 
L 464.677775 112.006848 
L 465.31552 111.955938 
L 465.953265 114.605942 
L 466.591009 112.312674 
L 467.228754 113.89247 
L 467.866499 118.988715 
L 468.504243 121.02731 
L 469.141988 112.006848 
L 469.779733 112.414616 
L 470.417477 111.803086 
L 471.055222 114.147264 
L 471.692967 113.077056 
L 472.330711 112.363584 
L 472.968456 107.980811 
L 473.606201 109.815523 
L 474.243945 113.89247 
L 474.88169 108.847257 
L 475.519435 114.147264 
L 476.157179 112.363584 
L 476.794924 111.853996 
L 477.432669 112.822262 
L 478.708158 110.2742 
L 479.345902 109.407755 
L 479.983647 112.822262 
L 480.621392 110.223169 
L 481.259136 109.713581 
L 481.896881 109.611639 
L 482.534626 111.905028 
L 483.17237 112.006848 
L 483.810115 103.801922 
L 484.44786 109.764491 
L 485.085604 107.675107 
L 485.723349 109.866433 
L 486.361094 107.114487 
L 486.998838 111.752054 
L 487.636583 108.643373 
L 488.274328 107.624075 
L 488.912072 105.789485 
L 489.549817 113.484824 
L 490.187562 111.650113 
L 490.825306 111.293377 
L 491.463051 105.279897 
L 492.100796 108.949199 
L 492.73854 110.987672 
L 493.376285 108.082753 
L 494.01403 99.317207 
L 494.651774 105.381718 
L 495.289519 105.738454 
L 495.927264 107.726017 
L 496.565008 102.935598 
L 497.202753 103.903864 
L 497.840497 107.522133 
L 498.478242 109.458787 
L 499.115987 103.64907 
L 499.753731 105.891427 
L 500.391476 98.960471 
L 501.029221 107.420313 
L 501.666965 106.09519 
L 502.30471 103.852953 
L 502.942455 106.350105 
L 503.580199 104.209689 
L 504.217944 104.821219 
L 504.855689 104.668246 
L 505.493433 102.018242 
L 506.131178 104.362541 
L 506.768923 103.903864 
L 507.406667 104.566425 
L 508.044412 97.380675 
L 508.682157 103.445186 
L 509.319901 102.986508 
L 509.957646 103.801922 
L 510.595391 105.891427 
L 511.233135 100.13262 
L 511.87088 103.343244 
L 512.508625 100.897124 
L 513.146369 97.329643 
L 513.784114 102.425888 
L 514.421858 99.164354 
L 515.059603 107.012545 
L 515.697348 100.08171 
L 516.335092 96.820055 
L 516.972837 98.756587 
L 518.248326 93.456579 
L 518.886071 100.540388 
L 519.523816 99.52109 
L 520.16156 99.673943 
L 520.799305 98.807618 
L 521.43705 98.705677 
L 522.074794 98.756587 
L 522.712539 96.157615 
L 523.350284 97.023939 
L 523.988028 96.055673 
L 524.625773 97.380675 
L 525.263518 93.303606 
L 525.901262 97.278733 
L 526.539007 98.348941 
L 527.176752 99.164354 
L 527.814496 96.259435 
L 528.452241 95.291169 
L 529.089986 98.450883 
L 529.72773 99.52109 
L 530.365475 96.157615 
L 531.003219 94.628729 
L 531.640964 94.170051 
L 532.278709 93.303606 
L 532.916453 93.966167 
L 533.554198 94.170051 
L 534.191943 94.628729 
L 534.829687 98.654766 
L 535.467432 94.271993 
L 536.105177 93.813315 
L 536.742921 90.042072 
L 537.380666 93.099843 
L 538.018411 94.832491 
L 538.656155 90.347776 
L 539.2939 92.94687 
L 539.931645 87.391947 
L 540.569389 94.068109 
L 541.207134 93.915257 
L 541.844879 88.513186 
L 542.482623 94.475755 
L 543.120368 90.50075 
L 543.758113 88.258392 
L 544.395857 89.583394 
L 545.033602 88.10554 
L 545.671347 89.532484 
L 546.309091 88.76798 
L 546.946836 86.93339 
L 547.584581 94.424845 
L 548.222325 90.194924 
L 548.86007 88.258392 
L 549.497814 86.882359 
L 550.135559 86.270829 
L 550.773304 87.799714 
L 551.411048 87.646862 
L 552.048793 90.704512 
L 552.686538 87.493889 
L 553.324282 81.58223 
L 553.962027 85.302563 
L 554.599772 86.729507 
L 555.237516 86.93339 
L 555.875261 89.124716 
L 556.513006 85.557357 
L 557.15075 87.697773 
L 557.788495 88.054508 
L 558.42624 84.130413 
L 559.063984 84.843885 
L 559.701729 84.945827 
L 560.339474 83.773677 
L 560.977218 84.741943 
L 561.614963 83.162147 
L 562.252708 85.506447 
L 562.890452 84.079503 
L 563.528197 85.710209 
L 564.165942 86.882359 
L 564.803686 80.817848 
L 565.441431 81.174584 
L 566.079175 83.926529 
L 566.71692 78.932226 
L 567.354665 79.085078 
L 567.992409 79.79855 
L 568.630154 82.907353 
L 569.267899 79.543756 
L 569.905643 86.219919 
L 570.543388 86.627565 
L 571.181133 82.907353 
L 572.456622 78.269664 
L 573.094367 79.18702 
L 573.732111 82.040908 
L 574.369856 80.410201 
L 575.007601 82.244791 
L 575.645345 81.53132 
L 576.28309 75.721602 
L 576.920835 76.384164 
L 577.558579 77.250488 
L 578.196324 83.060205 
L 578.834069 79.849582 
L 579.471813 80.206318 
L 580.109558 81.429378 
L 580.747303 76.129249 
L 581.385047 76.689868 
L 582.022792 80.461112 
L 582.660537 76.944662 
L 583.298281 78.065902 
L 583.936026 74.243627 
L 584.57377 78.6264 
L 585.211515 76.384164 
L 585.84926 80.30826 
L 586.487004 74.039865 
L 587.124749 78.065902 
L 587.762494 74.804247 
L 588.400238 75.670571 
L 589.037983 77.454372 
L 589.675728 76.282222 
L 590.313472 77.40334 
L 590.951217 74.804247 
L 591.588962 73.479245 
L 592.226706 77.607224 
L 592.864451 73.071599 
L 593.502196 76.333132 
L 594.13994 75.56875 
L 594.777685 74.039865 
L 595.41543 76.333132 
L 596.053174 70.16668 
L 596.690919 71.542713 
L 597.328664 70.982093 
L 597.966408 69.147382 
L 598.604153 70.16668 
L 599.241898 73.581187 
L 599.879642 73.530155 
L 600.517387 73.071599 
L 601.155131 72.052301 
L 601.792876 74.345569 
L 602.430621 73.122509 
L 603.068365 67.363702 
L 603.70611 70.013827 
L 604.343855 71.746475 
L 604.981599 70.676268 
L 605.619344 67.975354 
L 606.257089 67.21085 
L 606.894833 71.440771 
L 607.532578 66.956056 
L 608.808067 72.612921 
L 609.445812 71.899449 
L 610.083557 69.453208 
L 610.721301 66.191552 
L 611.359046 65.681964 
L 611.996791 67.669528 
L 612.634535 68.739736 
L 613.27228 68.586884 
L 613.910025 64.509815 
L 614.547769 67.006966 
L 615.185514 63.745432 
L 615.823259 63.592459 
L 617.098748 67.516676 
L 617.736493 68.383 
L 618.374237 67.15994 
L 619.011982 69.402297 
L 619.649726 63.490638 
L 620.287471 67.15994 
L 620.925216 65.783906 
L 621.56296 65.783906 
L 622.200705 61.452043 
L 622.83845 63.745432 
L 623.476194 63.286755 
L 624.113939 64.407873 
L 624.751684 64.560846 
L 625.389428 64.20411 
L 626.027173 62.420431 
L 626.664918 64.662788 
L 627.302662 64.051137 
L 627.940407 60.534809 
L 628.578152 65.42717 
L 629.215896 64.458904 
L 629.853641 63.949316 
L 630.491386 65.172376 
L 631.12913 62.675225 
L 631.766875 62.216547 
L 632.40462 63.592459 
L 633.042364 63.541549 
L 633.680109 62.471341 
L 634.317854 59.464601 
L 634.955598 59.158775 
L 635.593343 60.280015 
L 636.231087 62.522251 
L 636.868832 61.757869 
L 637.506577 59.209686 
L 638.144321 61.401133 
L 638.782066 59.260717 
L 639.419811 59.719395 
L 640.057555 59.515511 
L 640.6953 57.62989 
L 641.333045 54.67406 
L 641.970789 58.802039 
L 642.608534 59.617453 
L 643.246279 61.299191 
L 644.521768 57.222244 
L 645.159513 56.661624 
L 645.797257 57.324185 
L 646.435002 51.616289 
L 647.072747 55.081828 
L 647.710491 56.916418 
L 648.348236 53.196206 
L 648.985981 57.935715 
L 649.623725 51.259553 
L 650.26147 56.96745 
L 650.899215 52.431703 
L 651.536959 57.680921 
L 652.174704 57.222244 
L 652.812449 53.298148 
L 653.450193 55.489474 
L 654.087938 58.292451 
L 655.363427 52.788439 
L 656.001172 52.125998 
L 656.638916 53.807736 
L 657.276661 54.928854 
L 657.914406 51.973025 
L 658.55215 51.616289 
L 659.189895 52.788439 
L 659.82764 48.150871 
L 660.465384 51.055791 
L 661.103129 49.170169 
L 661.740874 53.858646 
L 662.378618 49.017195 
L 663.016363 52.125998 
L 663.654108 52.83947 
L 664.291852 49.628847 
L 664.929597 52.635586 
L 665.567342 49.730667 
L 666.205086 47.946988 
L 666.842831 48.762401 
L 667.480576 49.883641 
L 668.11832 52.482734 
L 669.39381 50.648023 
L 670.031554 51.463437 
L 670.669299 50.953849 
L 671.307043 51.514347 
L 671.944788 48.252813 
L 672.582533 46.163308 
L 673.220277 49.424963 
L 673.858022 50.902817 
L 674.495767 47.845046 
L 675.133511 48.456697 
L 675.771256 46.621986 
L 676.409001 50.495171 
L 677.046745 49.934551 
L 677.68449 45.65372 
L 678.322235 47.998019 
L 678.959979 47.131574 
L 679.597724 46.927811 
L 680.235469 44.43066 
L 680.873213 45.65372 
L 681.510958 45.755662 
L 682.148703 46.316281 
L 682.786447 43.564214 
L 683.424192 46.520044 
L 684.061937 43.411362 
L 684.699681 44.175866 
L 685.337426 48.303723 
L 685.975171 45.806572 
L 686.612915 45.857604 
L 687.25066 43.87004 
L 687.888405 46.621986 
L 687.888405 46.621986 
" style="fill:none;stroke:#377eb8;stroke-linecap:square;stroke-width:1.5;"/>
   </g>
   <g id="line2d_32">
    <path clip-path="url(#p84c9422e3f)" d="M 61.975222 375.715469 
L 62.260898 364.962888 
L 63.041175 375.715469 
M 63.730589 375.715469 
L 64.174132 353.884147 
L 64.811877 354.294466 
L 65.449622 345.062101 
L 66.016796 375.715469 
M 66.230208 375.715469 
L 66.725111 362.500972 
L 67.362856 320.442582 
L 68.0006 342.805284 
L 68.638345 323.109596 
L 69.27609 341.984646 
L 69.913834 318.596085 
L 70.551579 373.169394 
L 71.189324 345.882739 
L 71.827068 311.825635 
L 72.464813 296.028162 
L 73.740302 325.981953 
L 74.378047 336.855595 
L 75.015792 308.74818 
L 75.653536 302.183072 
L 76.291281 311.004997 
L 76.929025 301.157213 
L 77.56677 328.443868 
L 78.204515 280.640887 
L 79.480004 311.825635 
L 80.117749 315.10831 
L 80.755493 270.177564 
L 81.393238 276.537695 
L 82.030983 300.131355 
L 82.668727 262.381377 
L 83.306472 286.180257 
L 83.944217 279.204709 
L 84.581961 286.590577 
L 85.219706 259.098823 
L 85.857451 261.560739 
L 86.495195 259.919462 
L 87.13294 268.125968 
L 87.770685 264.227874 
L 88.408429 273.255019 
L 89.046174 259.509142 
L 89.683919 289.668032 
L 90.321663 268.331067 
L 90.959408 263.817555 
L 91.597153 276.742793 
L 92.234897 262.996917 
L 92.872642 276.537695 
L 93.510387 255.611049 
L 94.148131 245.968364 
L 94.785876 264.843292 
L 95.42362 259.098823 
L 96.061365 256.431687 
L 96.69911 243.711548 
L 97.336854 273.460239 
L 97.974599 243.711548 
L 98.612344 258.893603 
L 99.250088 240.634093 
L 99.887833 248.6355 
L 100.525578 232.427587 
L 101.163322 248.840599 
L 102.438812 237.351539 
L 103.076556 234.889502 
L 103.714301 258.483283 
L 104.352046 229.555352 
L 104.98979 246.789003 
L 105.627535 256.636786 
L 106.26528 237.556638 
L 106.903024 255.816148 
L 107.540769 241.249632 
L 108.178514 250.071557 
L 108.816258 216.629992 
L 109.454003 245.147726 
L 110.091748 231.606948 
L 110.729492 237.146319 
L 111.367237 235.71014 
L 112.004981 243.096008 
L 112.642726 232.837906 
L 113.280471 227.298535 
L 113.918215 248.6355 
L 114.55596 216.629992 
L 115.193705 237.761858 
L 115.831449 219.912668 
L 116.469194 217.245532 
L 117.106939 212.731899 
L 117.744683 229.965671 
L 118.382428 217.450631 
L 119.020173 217.861071 
L 119.657917 232.632807 
L 120.295662 262.176278 
L 120.933407 231.812047 
L 121.571151 226.272676 
L 122.208896 217.450631 
L 122.846641 229.555352 
L 123.484385 214.578396 
L 124.12213 227.913953 
L 124.759875 232.837906 
L 125.397619 225.041719 
L 126.035364 213.962856 
L 126.673109 220.733306 
L 127.310853 220.117766 
L 127.948598 216.424893 
L 128.586343 238.992816 
L 129.224087 237.146319 
L 129.861832 239.813454 
L 130.499576 224.426179 
L 131.137321 220.733306 
L 131.775066 214.988715 
L 132.41281 200.832519 
L 133.6883 236.94122 
L 134.326044 248.6355 
L 134.963789 215.193936 
L 135.601534 215.193936 
L 136.239278 214.988715 
L 136.877023 205.96157 
L 137.514768 230.991408 
L 138.152512 208.628706 
L 138.790257 211.500941 
L 139.428002 219.092029 
L 140.065746 224.836498 
L 140.703491 234.068864 
L 141.341236 208.628706 
L 141.97898 213.142218 
L 142.616725 214.783616 
L 143.25447 192.831112 
L 143.892214 203.909974 
L 144.529959 211.706161 
L 145.167704 210.680302 
L 145.805448 200.627299 
L 146.443193 209.654444 
L 147.080937 209.449345 
L 147.718682 197.549844 
L 148.356427 213.347438 
L 148.994171 212.5268 
L 149.631916 206.987429 
L 150.269661 217.861071 
L 150.907405 215.037074 
L 151.54515 214.988715 
L 152.182895 206.782209 
L 152.820639 202.063477 
L 153.458384 205.551251 
L 154.096129 190.984614 
L 154.733873 203.294435 
L 155.371618 209.859664 
L 156.009363 204.935712 
L 156.647107 220.938405 
L 157.284852 197.344745 
L 157.922597 208.833805 
L 158.560341 199.601561 
L 159.198086 213.347438 
L 159.835831 202.678895 
L 160.473575 206.576988 
L 161.11132 216.424893 
L 161.749065 209.039025 
L 162.386809 206.987429 
L 163.024554 204.525392 
L 163.662299 194.062069 
L 164.300043 209.039025 
L 164.937788 197.344745 
L 165.575532 212.731899 
L 166.213277 206.37189 
L 166.851022 210.269983 
L 167.488766 203.089214 
L 168.126511 206.166669 
L 168.764256 207.192528 
L 169.402 198.780801 
L 170.67749 204.935712 
L 171.315234 210.680302 
L 171.952979 194.26729 
L 172.590724 201.858256 
L 173.228468 188.933018 
L 173.866213 190.369196 
L 174.503958 203.499655 
L 175.141702 201.447937 
L 175.779447 216.219673 
L 177.054936 188.317479 
L 177.692681 216.629992 
L 178.96817 195.703346 
L 179.605915 226.888216 
L 180.24366 213.552537 
L 180.881404 197.139524 
L 181.519149 202.678895 
L 182.156893 194.26729 
L 182.794638 198.575703 
L 183.432383 202.063477 
L 184.070127 222.374583 
L 184.707872 194.677609 
L 185.345617 182.16269 
L 185.983361 205.75635 
L 186.621106 223.195221 
L 187.258851 199.396341 
L 187.896595 196.318886 
L 188.53434 209.244124 
L 189.172085 193.856971 
L 189.809829 182.16269 
L 190.447574 192.831112 
L 191.085319 185.445244 
L 191.723063 205.551251 
L 192.998553 187.49684 
L 193.636297 187.086521 
L 194.274042 180.521292 
L 194.911787 197.755064 
L 195.549531 195.087928 
L 196.187276 204.730613 
L 196.825021 198.575703 
L 197.462765 202.473796 
L 198.10051 199.396341 
L 198.738255 191.394934 
L 199.375999 192.420792 
L 200.013744 201.653158 
L 200.651488 192.010473 
L 201.289233 194.062069 
L 201.926978 198.370482 
L 202.564722 193.856971 
L 203.202467 192.010473 
L 203.840212 176.418099 
L 204.477956 197.960163 
L 205.115701 186.676202 
L 205.753446 193.65175 
L 206.39119 205.96157 
L 207.028935 200.4222 
L 207.66668 204.730613 
L 208.304424 187.70206 
L 208.942169 196.318886 
L 209.579914 184.829704 
L 210.217658 197.549844 
L 210.855403 186.881422 
L 211.493148 181.136831 
L 212.130892 180.521292 
L 212.768637 229.555352 
L 213.406382 183.598747 
L 214.044126 181.95747 
L 214.681871 194.677609 
L 215.319616 191.394934 
L 215.95736 173.750963 
L 216.595105 181.95747 
L 217.232849 185.650464 
L 217.870594 195.908567 
L 218.508339 186.881422 
L 219.146083 203.909974 
L 219.783828 202.268576 
L 220.421573 187.086521 
L 221.059317 186.471103 
L 221.697062 187.907159 
L 222.334807 176.418099 
L 222.972551 193.241431 
L 223.610296 186.060784 
L 224.248041 192.626013 
L 224.885785 188.522699 
L 225.52353 179.905873 
L 226.161275 176.828418 
L 227.436764 201.037618 
L 228.074509 198.780801 
L 228.712253 167.390954 
L 229.349998 188.11238 
L 229.987743 187.70206 
L 230.625487 185.240145 
L 231.263232 175.187141 
L 231.900977 184.419385 
L 232.538721 200.832519 
L 233.176466 185.445244 
L 233.81421 189.548558 
L 234.451955 183.188427 
L 235.0897 191.394934 
L 235.727444 186.676202 
L 236.365189 180.931611 
L 237.002934 194.882708 
L 237.640678 172.314785 
L 238.278423 194.062069 
L 238.916168 179.700653 
L 239.553912 174.161283 
L 240.191657 173.750963 
L 240.829402 181.95747 
L 241.467146 185.034925 
L 242.104891 192.215572 
L 242.742636 170.057969 
L 243.38038 182.367789 
L 244.018125 172.520006 
L 244.65587 181.136831 
L 245.293614 206.987429 
L 245.931359 181.752371 
L 246.569104 184.419385 
L 247.206848 195.293027 
L 247.844593 180.521292 
L 248.482338 182.367789 
L 249.120082 189.548558 
L 249.757827 187.291741 
L 251.033316 178.489379 
L 251.671061 170.263189 
L 252.308805 202.473796 
L 252.94655 186.471103 
L 253.584295 177.238738 
L 254.222039 176.212879 
L 254.859784 185.034925 
L 255.497529 184.214286 
L 256.135273 180.110972 
L 256.773018 178.059376 
L 257.410763 190.574295 
L 258.048507 193.241431 
L 258.686252 190.984614 
L 259.323997 177.854277 
L 259.961741 184.829704 
L 260.599486 185.034925 
L 261.237231 195.498248 
L 261.874975 196.318886 
L 262.51272 175.80256 
L 263.150465 175.80256 
L 263.788209 178.674916 
L 264.425954 178.469695 
L 265.063699 176.00778 
L 265.701443 168.006373 
L 266.339188 199.191121 
L 266.976933 177.033517 
L 267.614677 175.80256 
L 268.252422 179.700653 
L 268.890166 169.85287 
L 269.527911 177.649057 
L 270.165656 190.984614 
L 270.8034 164.518598 
L 271.441145 188.317479 
L 272.07889 178.674916 
L 272.716634 174.981921 
L 273.354379 174.776822 
L 273.992124 172.520006 
L 274.629868 182.367789 
L 275.267613 176.212879 
L 276.543102 182.983328 
L 277.180847 170.673508 
L 277.818592 178.059376 
L 278.456336 179.085235 
L 279.094081 168.416692 
L 279.731826 175.187141 
L 280.36957 179.700653 
L 281.007315 177.443837 
L 281.64506 178.059376 
L 282.282804 190.779516 
L 282.920549 178.674916 
L 283.558294 179.085235 
L 284.196038 180.316193 
L 284.833783 187.086521 
L 285.471528 183.393648 
L 286.109272 193.446651 
L 286.747017 191.805253 
L 287.384761 166.365096 
L 288.022506 179.905873 
L 288.660251 183.598747 
L 289.297995 169.442551 
L 289.93574 165.749556 
L 290.573485 180.726512 
L 291.211229 172.930325 
L 291.848974 174.571602 
L 292.486719 190.984614 
L 293.124463 159.799866 
L 293.762208 165.544457 
L 294.399953 181.136831 
L 295.037697 176.00778 
L 295.675442 177.443837 
L 296.313187 172.930325 
L 296.950931 165.544457 
L 297.588676 199.396341 
L 298.226421 154.670815 
L 298.864165 184.214286 
L 299.50191 160.210185 
L 300.139655 165.339237 
L 300.777399 177.443837 
L 301.415144 177.443837 
L 302.052889 164.518598 
L 302.690633 173.545743 
L 303.328378 168.416692 
L 303.966122 169.23733 
L 304.603867 171.699367 
L 305.241612 179.905873 
L 305.879356 176.00778 
L 306.517101 173.750963 
L 307.154846 165.749556 
L 307.79259 173.750963 
L 308.430335 188.11238 
L 309.06808 173.135424 
L 309.705824 165.544457 
L 310.343569 163.08242 
L 310.981314 177.033517 
L 311.619058 166.570194 
L 312.256803 175.80256 
L 312.894548 174.981921 
L 313.532292 163.287641 
L 314.170037 188.727919 
L 314.807782 171.083828 
L 315.445526 169.647649 
L 316.083271 177.649057 
L 316.721016 171.083828 
L 317.35876 177.443837 
L 317.996505 170.263189 
L 318.63425 176.418099 
L 319.271994 169.23733 
L 319.909739 176.00778 
L 320.547484 168.211593 
L 321.185228 174.161283 
L 321.822973 178.059376 
L 322.460717 188.727919 
L 323.736207 157.337951 
L 325.011696 184.419385 
L 325.649441 172.520006 
L 326.287185 173.545743 
L 326.92493 165.339237 
L 327.562675 183.803967 
L 328.200419 184.009066 
L 328.838164 187.49684 
L 329.475909 165.134138 
L 330.113653 162.056683 
L 330.751398 178.469695 
L 331.389143 167.390954 
L 332.026887 175.80256 
L 332.664632 181.95747 
L 333.302377 171.289048 
L 333.940121 181.752371 
L 334.577866 184.009066 
L 335.215611 166.775415 
L 335.853355 176.828418 
L 336.4911 170.878729 
L 337.128845 174.161283 
L 337.766589 173.956062 
L 338.404334 170.673508 
L 339.042078 168.416692 
L 339.679823 173.750963 
L 340.317568 174.571602 
L 340.955312 177.443837 
L 341.593057 156.722411 
L 342.230802 165.544457 
L 342.868546 177.649057 
L 343.506291 159.389547 
L 344.144036 170.673508 
L 344.78178 170.468409 
L 345.419525 166.980635 
L 346.05727 167.390954 
L 346.695014 163.492861 
L 347.332759 176.212879 
L 347.970504 159.184327 
L 348.608248 169.23733 
L 349.245993 165.134138 
L 349.883738 167.801274 
L 350.521482 166.775415 
L 351.159227 176.856 
L 351.796972 159.389547 
L 352.434716 171.083828 
L 353.072461 173.340644 
L 353.710206 166.159875 
L 354.34795 167.596053 
L 354.985695 173.340644 
L 355.62344 167.185734 
L 356.261184 165.954776 
L 356.898929 167.185734 
L 357.536673 167.596053 
L 358.174418 167.390954 
L 358.812163 166.159875 
L 359.449907 183.803967 
L 360.087652 172.725105 
L 360.725397 177.238738 
L 361.363141 166.775415 
L 362.000886 181.34193 
L 362.638631 166.775415 
L 363.276375 173.545743 
L 363.91412 156.927632 
L 364.551865 162.672101 
L 365.189609 176.212879 
L 365.827354 171.083828 
L 366.465099 171.699367 
L 367.102843 171.494147 
L 367.740588 176.828418 
L 368.378333 165.954776 
L 369.016077 169.442551 
L 369.653822 162.261782 
L 370.291567 171.699367 
L 370.929311 175.80256 
L 371.567056 175.80256 
L 372.204801 171.289048 
L 372.842545 163.08242 
L 373.48029 169.23733 
L 374.118034 167.390954 
L 374.755779 170.468409 
L 375.393524 176.418099 
L 376.031268 160.415406 
L 376.669013 166.570194 
L 377.306758 162.877321 
L 377.944502 167.390954 
L 378.582247 162.877321 
L 379.219992 165.339237 
L 379.857736 173.750963 
L 380.495481 157.54305 
L 381.133226 159.594767 
L 381.77097 183.188427 
L 382.408715 158.363688 
L 383.04646 161.851462 
L 383.684204 156.312092 
L 384.321949 173.340644 
L 384.959694 178.469695 
L 385.597438 168.211593 
L 386.872928 165.134138 
L 387.510672 158.568909 
L 388.148417 166.570194 
L 388.786162 180.521292 
L 389.423906 176.212879 
L 390.061651 156.722411 
L 390.699396 171.083828 
L 391.33714 169.23733 
L 391.974885 161.441143 
L 392.612629 170.468409 
L 393.250374 165.954776 
L 393.888119 166.775415 
L 394.525863 168.006373 
L 395.801353 160.005087 
L 396.439097 171.904466 
L 397.076842 167.185734 
L 397.714587 181.752371 
L 398.990076 143.591953 
L 399.627821 163.08242 
L 400.265565 167.185734 
L 400.90331 154.670815 
L 401.541055 172.930325 
L 402.178799 159.799866 
L 402.816544 166.980635 
L 403.454289 155.491453 
L 404.092033 156.517312 
L 404.729778 164.518598 
L 405.367523 155.491453 
L 406.643012 162.672101 
L 407.918501 155.901773 
L 408.556246 160.620505 
L 409.19399 168.006373 
L 409.831735 172.109686 
L 410.46948 157.74827 
L 411.107224 162.261782 
L 411.744969 169.23733 
L 412.382714 156.106993 
L 413.020458 178.264596 
L 413.658203 154.875914 
L 414.295948 155.081134 
L 414.933692 169.442551 
L 415.571437 161.851462 
L 416.209182 167.596053 
L 416.846926 163.08242 
L 417.484671 162.672101 
L 418.122416 149.541764 
L 418.76016 165.134138 
L 419.397905 163.69796 
L 420.03565 176.212879 
L 420.673394 176.623198 
L 421.311139 165.134138 
L 421.948884 157.74827 
L 422.586628 167.801274 
L 423.224373 172.725105 
L 424.499862 155.081134 
L 425.137607 162.672101 
L 425.775352 176.418099 
L 426.413096 168.827011 
L 427.050841 163.90318 
L 427.688585 168.416692 
L 428.32633 164.108279 
L 428.964075 171.494147 
L 429.601819 155.081134 
L 430.239564 165.954776 
L 430.877309 153.029538 
L 431.515053 156.312092 
L 432.152798 176.623198 
L 432.790543 146.874628 
L 433.428287 166.159875 
L 434.066032 152.824318 
L 434.703777 160.415406 
L 435.341521 174.161283 
L 435.979266 169.85287 
L 436.617011 170.263189 
L 437.254755 165.544457 
L 437.8925 158.158589 
L 438.530245 166.159875 
L 439.167989 160.005087 
L 439.805734 163.69796 
L 440.443479 164.928917 
L 441.081223 149.746863 
L 441.718968 153.439857 
L 442.356713 161.236044 
L 442.994457 152.003679 
L 443.632202 158.979228 
L 444.269946 164.518598 
L 444.907691 157.337951 
L 445.545436 148.515905 
L 446.18318 155.286233 
L 446.820925 152.824318 
L 447.45867 158.158589 
L 448.096414 160.005087 
L 448.734159 166.775415 
L 449.371904 161.030824 
L 450.009648 152.413998 
L 450.647393 156.927632 
L 451.285138 169.70986 
L 451.922882 163.90318 
L 452.560627 164.313499 
L 453.198372 171.289048 
L 453.836116 154.055275 
L 454.473861 160.415406 
L 455.74935 156.517312 
L 456.387095 162.877321 
L 457.02484 153.439857 
L 457.662584 170.263189 
L 458.300329 153.439857 
L 458.938074 157.953369 
L 459.575818 156.312092 
L 460.213563 165.954776 
L 460.851308 166.980635 
L 461.489052 153.850177 
L 462.126797 166.980635 
L 462.764541 162.056683 
L 463.402286 151.38814 
L 464.040031 160.415406 
L 464.677775 167.185734 
L 465.31552 152.413998 
L 465.953265 156.106993 
L 466.591009 158.774007 
L 467.228754 156.722411 
L 467.866499 164.313499 
L 468.504243 158.363688 
L 469.141988 158.363688 
L 469.779733 149.746863 
L 470.417477 162.467002 
L 471.055222 154.260496 
L 471.692967 165.339237 
L 472.330711 152.413998 
L 472.968456 157.54305 
L 473.606201 155.081134 
L 474.243945 155.491453 
L 474.88169 157.74827 
L 475.519435 155.286233 
L 476.157179 148.310685 
L 476.794924 154.670815 
L 477.432669 149.541764 
L 478.070413 148.721125 
L 478.708158 150.157182 
L 479.345902 165.954776 
L 479.983647 149.131445 
L 480.621392 171.083828 
L 481.259136 156.927632 
L 481.896881 155.901773 
L 482.534626 160.005087 
L 483.17237 155.286233 
L 483.810115 169.85287 
L 484.44786 151.59336 
L 485.085604 151.59336 
L 485.723349 167.185734 
L 486.361094 151.798459 
L 486.998838 161.851462 
L 487.636583 156.106993 
L 488.274328 154.670815 
L 488.912072 155.696552 
L 489.549817 161.030824 
L 490.187562 155.491453 
L 490.825306 141.540356 
L 491.463051 150.157182 
L 492.100796 153.234637 
L 492.73854 171.494147 
L 493.376285 144.617811 
L 494.01403 158.774007 
L 494.651774 152.413998 
L 495.289519 163.69796 
L 495.927264 151.183041 
L 496.565008 152.619219 
L 497.202753 157.74827 
L 497.840497 149.336543 
L 498.478242 154.260496 
L 499.115987 146.669408 
L 499.753731 147.900365 
L 500.391476 149.746863 
L 501.029221 158.774007 
L 501.666965 149.131445 
L 502.30471 153.644956 
L 502.942455 157.13273 
L 503.580199 146.464309 
L 504.217944 145.64367 
L 504.855689 150.157182 
L 505.493433 156.106993 
L 506.768923 147.490046 
L 507.406667 145.233351 
L 508.044412 152.619219 
L 508.682157 150.157182 
L 509.319901 160.825725 
L 509.957646 148.515905 
L 510.595391 154.055275 
L 511.233135 144.82291 
L 511.87088 146.669408 
L 512.508625 160.620505 
L 513.146369 158.568909 
L 513.784114 147.490046 
L 514.421858 151.798459 
L 515.059603 151.798459 
L 515.697348 152.824318 
L 516.335092 145.43845 
L 516.972837 159.389547 
L 517.610582 152.208778 
L 518.248326 161.030824 
L 518.886071 150.97782 
L 519.523816 158.568909 
L 520.16156 143.386854 
L 520.799305 157.337951 
L 521.43705 141.540356 
L 522.712539 155.696552 
L 523.350284 143.386854 
L 523.988028 149.541764 
L 524.625773 142.155896 
L 525.263518 144.207492 
L 525.901262 150.97782 
L 526.539007 152.619219 
L 527.176752 144.412591 
L 527.814496 151.59336 
L 528.452241 149.746863 
L 529.089986 149.336543 
L 529.72773 152.208778 
L 530.365475 151.798459 
L 531.003219 149.541764 
L 531.640964 152.619219 
L 532.278709 140.309399 
L 532.916453 150.157182 
L 533.554198 152.619219 
L 534.191943 149.131445 
L 534.829687 149.952083 
L 535.467432 148.721125 
L 536.105177 141.130037 
L 536.742921 147.490046 
L 537.380666 146.464309 
L 538.018411 146.053989 
L 538.656155 150.97782 
L 539.2939 142.566215 
L 539.931645 149.952083 
L 540.569389 154.260496 
L 541.207134 148.721125 
L 541.844879 152.208778 
L 542.482623 151.59336 
L 543.120368 148.515905 
L 543.758113 147.695266 
L 544.395857 142.771314 
L 545.033602 147.284947 
L 545.671347 144.412591 
L 546.309091 149.952083 
L 546.946836 143.797173 
L 547.584581 146.669408 
L 548.222325 153.439857 
L 548.86007 151.38814 
L 549.497814 164.108279 
L 550.135559 150.772721 
L 550.773304 151.183041 
L 551.411048 148.067069 
L 552.048793 147.079727 
L 552.686538 151.798459 
L 553.324282 146.874628 
L 553.962027 147.490046 
L 554.599772 147.079727 
L 555.237516 148.926224 
L 555.875261 152.208778 
L 556.513006 150.362402 
L 557.15075 151.59336 
L 557.788495 148.721125 
L 558.42624 142.566215 
L 559.063984 150.772721 
L 559.701729 147.695266 
L 560.339474 148.926224 
L 560.977218 147.079727 
L 561.614963 142.360995 
L 562.252708 149.336543 
L 562.890452 140.719718 
L 563.528197 141.745577 
L 564.165942 147.900365 
L 564.803686 142.566215 
L 565.441431 143.181633 
L 566.079175 146.874628 
L 566.71692 147.490046 
L 567.354665 146.259088 
L 567.992409 148.515905 
L 568.630154 140.719718 
L 569.267899 161.441143 
L 570.543388 140.514497 
L 571.181133 145.233351 
L 571.818877 146.874628 
L 572.456622 153.029538 
L 573.094367 139.899079 
L 573.732111 153.439857 
L 575.007601 143.386854 
L 575.645345 147.900365 
L 576.28309 147.695266 
L 576.920835 144.617811 
L 577.558579 140.719718 
L 578.196324 155.286233 
L 578.834069 146.464309 
L 579.471813 144.82291 
L 580.109558 138.052582 
L 580.747303 150.97782 
L 581.385047 151.798459 
L 582.022792 149.952083 
L 582.660537 154.465595 
L 583.298281 145.848769 
L 583.936026 149.336543 
L 584.57377 141.745577 
L 585.211515 143.591953 
L 585.84926 147.695266 
L 586.487004 144.82291 
L 587.124749 149.131445 
L 587.762494 147.900365 
L 588.400238 154.875914 
L 589.037983 144.412591 
L 589.675728 140.309399 
L 590.313472 147.695266 
L 590.951217 141.745577 
L 591.588962 145.028131 
L 592.226706 142.155896 
L 592.864451 148.515905 
L 593.502196 144.412591 
L 594.13994 144.002272 
L 594.777685 139.693859 
L 595.41543 164.108279 
L 596.053174 145.848769 
L 596.690919 150.157182 
L 597.328664 146.874628 
L 597.966408 146.669408 
L 598.604153 144.207492 
L 599.241898 139.693859 
L 601.155131 150.157182 
L 601.792876 158.363688 
L 602.430621 136.411305 
L 603.068365 152.003679 
L 603.70611 144.82291 
L 604.981599 147.900365 
L 605.619344 147.695266 
L 606.257089 143.797173 
L 606.894833 144.002272 
L 607.532578 140.309399 
L 608.808067 148.105586 
L 609.445812 148.105586 
L 610.083557 147.079727 
L 610.721301 152.003679 
L 611.359046 144.412591 
L 611.996791 145.233351 
L 612.634535 142.566215 
L 613.27228 141.130037 
L 613.910025 145.848769 
L 614.547769 128.204799 
L 615.185514 143.797173 
L 615.823259 138.462901 
L 616.461003 137.231944 
L 617.098748 143.181633 
L 617.736493 136.616404 
L 618.374237 143.386854 
L 619.011982 146.053989 
L 619.649726 140.309399 
L 620.287471 143.591953 
L 620.925216 138.873221 
L 621.56296 142.566215 
L 622.200705 141.950676 
L 622.83845 139.693859 
L 623.476194 142.771314 
L 624.113939 147.900365 
L 624.751684 135.385446 
L 625.389428 145.028131 
L 626.027173 142.566215 
L 626.664918 136.821624 
L 627.302662 149.541764 
L 627.940407 136.411305 
L 628.578152 143.591953 
L 629.215896 136.411305 
L 629.853641 136.821624 
L 630.491386 139.899079 
L 631.12913 138.873221 
L 631.766875 143.591953 
L 632.40462 137.642263 
L 633.042364 145.43845 
L 633.680109 140.924817 
L 634.317854 140.104178 
L 634.955598 142.360995 
L 635.593343 137.231944 
L 636.231087 143.797173 
L 636.868832 141.950676 
L 637.506577 140.924817 
L 638.144321 139.48876 
L 638.782066 141.540356 
L 639.419811 140.514497 
L 640.057555 141.130037 
L 640.6953 146.669408 
L 641.333045 140.309399 
L 641.970789 144.207492 
L 642.608534 140.514497 
L 643.246279 143.591953 
L 643.884023 140.514497 
L 644.521768 138.668122 
L 645.159513 144.412591 
L 645.797257 138.462901 
L 646.435002 138.257802 
L 647.072747 141.540356 
L 647.710491 138.668122 
L 648.348236 136.821624 
L 648.985981 138.052582 
L 649.623725 140.924817 
L 650.26147 136.000986 
L 650.899215 138.257802 
L 651.536959 139.287549 
L 652.174704 136.206085 
L 652.812449 136.206085 
L 653.450193 137.847483 
L 654.087938 135.795765 
L 654.725682 139.693859 
L 655.363427 134.975127 
L 656.001172 144.82291 
L 656.638916 135.590667 
L 657.276661 136.821624 
L 657.914406 136.206085 
L 658.55215 139.28354 
L 659.189895 130.871935 
L 659.82764 135.385446 
L 660.465384 136.616404 
L 661.103129 135.795765 
L 661.740874 144.002272 
L 662.378618 132.71831 
L 663.016363 134.975127 
L 663.654108 135.795765 
L 664.291852 134.359709 
L 664.929597 140.514497 
L 665.567342 136.411305 
L 666.205086 135.180347 
L 666.842831 132.513212 
L 667.480576 138.873221 
L 668.11832 141.130037 
L 668.756065 141.745577 
L 669.39381 137.642263 
L 670.031554 135.180347 
L 670.669299 134.359709 
L 671.307043 138.257802 
L 671.944788 139.899079 
L 673.220277 135.180347 
L 673.858022 137.231944 
L 674.495767 141.745577 
L 675.133511 130.666714 
L 675.771256 144.002272 
L 676.409001 138.052582 
L 677.046745 143.797173 
L 677.68449 133.538949 
L 678.322235 137.847483 
L 678.959979 143.386854 
L 679.597724 137.026723 
L 680.235469 139.078441 
L 680.873213 143.797173 
L 681.510958 134.359709 
L 682.148703 142.566215 
L 682.786447 134.770028 
L 683.424192 139.48876 
L 684.061937 139.48876 
L 684.699681 131.282254 
L 685.337426 138.052582 
L 685.975171 136.000986 
L 686.612915 135.385446 
L 687.25066 136.000986 
L 687.888405 139.693859 
L 687.888405 139.693859 
" style="fill:none;stroke:#4daf4a;stroke-linecap:square;stroke-width:1.5;"/>
   </g>
   <g id="patch_3">
    <path d="M 50.14375 337.159219 
L 50.14375 10.999219 
" style="fill:none;stroke:#000000;stroke-linecap:square;stroke-linejoin:miter;stroke-width:0.8;"/>
   </g>
   <g id="patch_4">
    <path d="M 719.74375 337.159219 
L 719.74375 10.999219 
" style="fill:none;stroke:#000000;stroke-linecap:square;stroke-linejoin:miter;stroke-width:0.8;"/>
   </g>
   <g id="patch_5">
    <path d="M 50.14375 337.159219 
L 719.74375 337.159219 
" style="fill:none;stroke:#000000;stroke-linecap:square;stroke-linejoin:miter;stroke-width:0.8;"/>
   </g>
   <g id="patch_6">
    <path d="M 50.14375 10.999219 
L 719.74375 10.999219 
" style="fill:none;stroke:#000000;stroke-linecap:square;stroke-linejoin:miter;stroke-width:0.8;"/>
   </g>
   <g id="legend_1">
    <g id="patch_7">
     <path d="M 57.14375 48.355469 
L 114.584375 48.355469 
Q 116.584375 48.355469 116.584375 46.355469 
L 116.584375 17.999219 
Q 116.584375 15.999219 114.584375 15.999219 
L 57.14375 15.999219 
Q 55.14375 15.999219 55.14375 17.999219 
L 55.14375 46.355469 
Q 55.14375 48.355469 57.14375 48.355469 
z
" style="fill:#ffffff;opacity:0.8;stroke:#cccccc;stroke-linejoin:miter;"/>
    </g>
    <g id="line2d_33">
     <path d="M 59.14375 24.097656 
L 79.14375 24.097656 
" style="fill:none;stroke:#377eb8;stroke-linecap:square;stroke-width:1.5;"/>
    </g>
    <g id="line2d_34"/>
    <g id="text_18">
     <!-- Train -->
     <defs>
      <path d="M -0.296875 72.90625 
L 61.375 72.90625 
L 61.375 64.59375 
L 35.5 64.59375 
L 35.5 0 
L 25.59375 0 
L 25.59375 64.59375 
L -0.296875 64.59375 
z
" id="DejaVuSans-84"/>
      <path d="M 9.421875 54.6875 
L 18.40625 54.6875 
L 18.40625 0 
L 9.421875 0 
z
M 9.421875 75.984375 
L 18.40625 75.984375 
L 18.40625 64.59375 
L 9.421875 64.59375 
z
" id="DejaVuSans-105"/>
      <path d="M 54.890625 33.015625 
L 54.890625 0 
L 45.90625 0 
L 45.90625 32.71875 
Q 45.90625 40.484375 42.875 44.328125 
Q 39.84375 48.1875 33.796875 48.1875 
Q 26.515625 48.1875 22.3125 43.546875 
Q 18.109375 38.921875 18.109375 30.90625 
L 18.109375 0 
L 9.078125 0 
L 9.078125 54.6875 
L 18.109375 54.6875 
L 18.109375 46.1875 
Q 21.34375 51.125 25.703125 53.5625 
Q 30.078125 56 35.796875 56 
Q 45.21875 56 50.046875 50.171875 
Q 54.890625 44.34375 54.890625 33.015625 
z
" id="DejaVuSans-110"/>
     </defs>
     <g transform="translate(87.14375 27.597656)scale(0.1 -0.1)">
      <use xlink:href="#DejaVuSans-84"/>
      <use x="60.865234" xlink:href="#DejaVuSans-114"/>
      <use x="101.978516" xlink:href="#DejaVuSans-97"/>
      <use x="163.257812" xlink:href="#DejaVuSans-105"/>
      <use x="191.041016" xlink:href="#DejaVuSans-110"/>
     </g>
    </g>
    <g id="line2d_35">
     <path d="M 59.14375 38.775781 
L 79.14375 38.775781 
" style="fill:none;stroke:#4daf4a;stroke-linecap:square;stroke-width:1.5;"/>
    </g>
    <g id="line2d_36"/>
    <g id="text_19">
     <!-- Test -->
     <defs>
      <path d="M 56.203125 29.59375 
L 56.203125 25.203125 
L 14.890625 25.203125 
Q 15.484375 15.921875 20.484375 11.0625 
Q 25.484375 6.203125 34.421875 6.203125 
Q 39.59375 6.203125 44.453125 7.46875 
Q 49.3125 8.734375 54.109375 11.28125 
L 54.109375 2.78125 
Q 49.265625 0.734375 44.1875 -0.34375 
Q 39.109375 -1.421875 33.890625 -1.421875 
Q 20.796875 -1.421875 13.15625 6.1875 
Q 5.515625 13.8125 5.515625 26.8125 
Q 5.515625 40.234375 12.765625 48.109375 
Q 20.015625 56 32.328125 56 
Q 43.359375 56 49.78125 48.890625 
Q 56.203125 41.796875 56.203125 29.59375 
z
M 47.21875 32.234375 
Q 47.125 39.59375 43.09375 43.984375 
Q 39.0625 48.390625 32.421875 48.390625 
Q 24.90625 48.390625 20.390625 44.140625 
Q 15.875 39.890625 15.1875 32.171875 
z
" id="DejaVuSans-101"/>
      <path d="M 44.28125 53.078125 
L 44.28125 44.578125 
Q 40.484375 46.53125 36.375 47.5 
Q 32.28125 48.484375 27.875 48.484375 
Q 21.1875 48.484375 17.84375 46.4375 
Q 14.5 44.390625 14.5 40.28125 
Q 14.5 37.15625 16.890625 35.375 
Q 19.28125 33.59375 26.515625 31.984375 
L 29.59375 31.296875 
Q 39.15625 29.25 43.1875 25.515625 
Q 47.21875 21.78125 47.21875 15.09375 
Q 47.21875 7.46875 41.1875 3.015625 
Q 35.15625 -1.421875 24.609375 -1.421875 
Q 20.21875 -1.421875 15.453125 -0.5625 
Q 10.6875 0.296875 5.421875 2 
L 5.421875 11.28125 
Q 10.40625 8.6875 15.234375 7.390625 
Q 20.0625 6.109375 24.8125 6.109375 
Q 31.15625 6.109375 34.5625 8.28125 
Q 37.984375 10.453125 37.984375 14.40625 
Q 37.984375 18.0625 35.515625 20.015625 
Q 33.0625 21.96875 24.703125 23.78125 
L 21.578125 24.515625 
Q 13.234375 26.265625 9.515625 29.90625 
Q 5.8125 33.546875 5.8125 39.890625 
Q 5.8125 47.609375 11.28125 51.796875 
Q 16.75 56 26.8125 56 
Q 31.78125 56 36.171875 55.265625 
Q 40.578125 54.546875 44.28125 53.078125 
z
" id="DejaVuSans-115"/>
      <path d="M 18.3125 70.21875 
L 18.3125 54.6875 
L 36.8125 54.6875 
L 36.8125 47.703125 
L 18.3125 47.703125 
L 18.3125 18.015625 
Q 18.3125 11.328125 20.140625 9.421875 
Q 21.96875 7.515625 27.59375 7.515625 
L 36.8125 7.515625 
L 36.8125 0 
L 27.59375 0 
Q 17.1875 0 13.234375 3.875 
Q 9.28125 7.765625 9.28125 18.015625 
L 9.28125 47.703125 
L 2.6875 47.703125 
L 2.6875 54.6875 
L 9.28125 54.6875 
L 9.28125 70.21875 
z
" id="DejaVuSans-116"/>
     </defs>
     <g transform="translate(87.14375 42.275781)scale(0.1 -0.1)">
      <use xlink:href="#DejaVuSans-84"/>
      <use x="60.818359" xlink:href="#DejaVuSans-101"/>
      <use x="122.341797" xlink:href="#DejaVuSans-115"/>
      <use x="174.441406" xlink:href="#DejaVuSans-116"/>
     </g>
    </g>
   </g>
  </g>
 </g>
 <defs>
  <clipPath id="p84c9422e3f">
   <rect height="326.16" width="669.6" x="50.14375" y="10.999219"/>
  </clipPath>
 </defs>
</svg>
