<?xml version="1.0" encoding="utf-8" standalone="no"?>
<!DOCTYPE svg PUBLIC "-//W3C//DTD SVG 1.1//EN"
  "http://www.w3.org/Graphics/SVG/1.1/DTD/svg11.dtd">
<!-- Created with matplotlib (https://matplotlib.org/) -->
<svg height="374.715469pt" version="1.1" viewBox="0 0 726.94375 374.715469" width="726.94375pt" xmlns="http://www.w3.org/2000/svg" xmlns:xlink="http://www.w3.org/1999/xlink">
 <defs>
  <style type="text/css">
*{stroke-linecap:butt;stroke-linejoin:round;white-space:pre;}
  </style>
 </defs>
 <g id="figure_1">
  <g id="patch_1">
   <path d="M 0 374.715469 
L 726.94375 374.715469 
L 726.94375 0 
L 0 0 
z
" style="fill:#ffffff;"/>
  </g>
  <g id="axes_1">
   <g id="patch_2">
    <path d="M 50.14375 337.159219 
L 719.74375 337.159219 
L 719.74375 10.999219 
L 50.14375 10.999219 
z
" style="fill:#ffffff;"/>
   </g>
   <g id="matplotlib.axis_1">
    <g id="xtick_1">
     <g id="line2d_1">
      <path clip-path="url(#pc0e68fa7e5)" d="M 50.14375 337.159219 
L 50.14375 10.999219 
" style="fill:none;stroke:#b0b0b0;stroke-linecap:square;stroke-width:0.8;"/>
     </g>
     <g id="line2d_2">
      <defs>
       <path d="M 0 0 
L 0 3.5 
" id="m1f30be6641" style="stroke:#000000;stroke-width:0.8;"/>
      </defs>
      <g>
       <use style="stroke:#000000;stroke-width:0.8;" x="50.14375" xlink:href="#m1f30be6641" y="337.159219"/>
      </g>
     </g>
     <g id="text_1">
      <!-- 0 -->
      <defs>
       <path d="M 31.78125 66.40625 
Q 24.171875 66.40625 20.328125 58.90625 
Q 16.5 51.421875 16.5 36.375 
Q 16.5 21.390625 20.328125 13.890625 
Q 24.171875 6.390625 31.78125 6.390625 
Q 39.453125 6.390625 43.28125 13.890625 
Q 47.125 21.390625 47.125 36.375 
Q 47.125 51.421875 43.28125 58.90625 
Q 39.453125 66.40625 31.78125 66.40625 
z
M 31.78125 74.21875 
Q 44.046875 74.21875 50.515625 64.515625 
Q 56.984375 54.828125 56.984375 36.375 
Q 56.984375 17.96875 50.515625 8.265625 
Q 44.046875 -1.421875 31.78125 -1.421875 
Q 19.53125 -1.421875 13.0625 8.265625 
Q 6.59375 17.96875 6.59375 36.375 
Q 6.59375 54.828125 13.0625 64.515625 
Q 19.53125 74.21875 31.78125 74.21875 
z
" id="DejaVuSans-48"/>
      </defs>
      <g transform="translate(46.9625 351.757656)scale(0.1 -0.1)">
       <use xlink:href="#DejaVuSans-48"/>
      </g>
     </g>
    </g>
    <g id="xtick_2">
     <g id="line2d_3">
      <path clip-path="url(#pc0e68fa7e5)" d="M 177.692681 337.159219 
L 177.692681 10.999219 
" style="fill:none;stroke:#b0b0b0;stroke-linecap:square;stroke-width:0.8;"/>
     </g>
     <g id="line2d_4">
      <g>
       <use style="stroke:#000000;stroke-width:0.8;" x="177.692681" xlink:href="#m1f30be6641" y="337.159219"/>
      </g>
     </g>
     <g id="text_2">
      <!-- 200 -->
      <defs>
       <path d="M 19.1875 8.296875 
L 53.609375 8.296875 
L 53.609375 0 
L 7.328125 0 
L 7.328125 8.296875 
Q 12.9375 14.109375 22.625 23.890625 
Q 32.328125 33.6875 34.8125 36.53125 
Q 39.546875 41.84375 41.421875 45.53125 
Q 43.3125 49.21875 43.3125 52.78125 
Q 43.3125 58.59375 39.234375 62.25 
Q 35.15625 65.921875 28.609375 65.921875 
Q 23.96875 65.921875 18.8125 64.3125 
Q 13.671875 62.703125 7.8125 59.421875 
L 7.8125 69.390625 
Q 13.765625 71.78125 18.9375 73 
Q 24.125 74.21875 28.421875 74.21875 
Q 39.75 74.21875 46.484375 68.546875 
Q 53.21875 62.890625 53.21875 53.421875 
Q 53.21875 48.921875 51.53125 44.890625 
Q 49.859375 40.875 45.40625 35.40625 
Q 44.1875 33.984375 37.640625 27.21875 
Q 31.109375 20.453125 19.1875 8.296875 
z
" id="DejaVuSans-50"/>
      </defs>
      <g transform="translate(168.148931 351.757656)scale(0.1 -0.1)">
       <use xlink:href="#DejaVuSans-50"/>
       <use x="63.623047" xlink:href="#DejaVuSans-48"/>
       <use x="127.246094" xlink:href="#DejaVuSans-48"/>
      </g>
     </g>
    </g>
    <g id="xtick_3">
     <g id="line2d_5">
      <path clip-path="url(#pc0e68fa7e5)" d="M 305.241612 337.159219 
L 305.241612 10.999219 
" style="fill:none;stroke:#b0b0b0;stroke-linecap:square;stroke-width:0.8;"/>
     </g>
     <g id="line2d_6">
      <g>
       <use style="stroke:#000000;stroke-width:0.8;" x="305.241612" xlink:href="#m1f30be6641" y="337.159219"/>
      </g>
     </g>
     <g id="text_3">
      <!-- 400 -->
      <defs>
       <path d="M 37.796875 64.3125 
L 12.890625 25.390625 
L 37.796875 25.390625 
z
M 35.203125 72.90625 
L 47.609375 72.90625 
L 47.609375 25.390625 
L 58.015625 25.390625 
L 58.015625 17.1875 
L 47.609375 17.1875 
L 47.609375 0 
L 37.796875 0 
L 37.796875 17.1875 
L 4.890625 17.1875 
L 4.890625 26.703125 
z
" id="DejaVuSans-52"/>
      </defs>
      <g transform="translate(295.697862 351.757656)scale(0.1 -0.1)">
       <use xlink:href="#DejaVuSans-52"/>
       <use x="63.623047" xlink:href="#DejaVuSans-48"/>
       <use x="127.246094" xlink:href="#DejaVuSans-48"/>
      </g>
     </g>
    </g>
    <g id="xtick_4">
     <g id="line2d_7">
      <path clip-path="url(#pc0e68fa7e5)" d="M 432.790543 337.159219 
L 432.790543 10.999219 
" style="fill:none;stroke:#b0b0b0;stroke-linecap:square;stroke-width:0.8;"/>
     </g>
     <g id="line2d_8">
      <g>
       <use style="stroke:#000000;stroke-width:0.8;" x="432.790543" xlink:href="#m1f30be6641" y="337.159219"/>
      </g>
     </g>
     <g id="text_4">
      <!-- 600 -->
      <defs>
       <path d="M 33.015625 40.375 
Q 26.375 40.375 22.484375 35.828125 
Q 18.609375 31.296875 18.609375 23.390625 
Q 18.609375 15.53125 22.484375 10.953125 
Q 26.375 6.390625 33.015625 6.390625 
Q 39.65625 6.390625 43.53125 10.953125 
Q 47.40625 15.53125 47.40625 23.390625 
Q 47.40625 31.296875 43.53125 35.828125 
Q 39.65625 40.375 33.015625 40.375 
z
M 52.59375 71.296875 
L 52.59375 62.3125 
Q 48.875 64.0625 45.09375 64.984375 
Q 41.3125 65.921875 37.59375 65.921875 
Q 27.828125 65.921875 22.671875 59.328125 
Q 17.53125 52.734375 16.796875 39.40625 
Q 19.671875 43.65625 24.015625 45.921875 
Q 28.375 48.1875 33.59375 48.1875 
Q 44.578125 48.1875 50.953125 41.515625 
Q 57.328125 34.859375 57.328125 23.390625 
Q 57.328125 12.15625 50.6875 5.359375 
Q 44.046875 -1.421875 33.015625 -1.421875 
Q 20.359375 -1.421875 13.671875 8.265625 
Q 6.984375 17.96875 6.984375 36.375 
Q 6.984375 53.65625 15.1875 63.9375 
Q 23.390625 74.21875 37.203125 74.21875 
Q 40.921875 74.21875 44.703125 73.484375 
Q 48.484375 72.75 52.59375 71.296875 
z
" id="DejaVuSans-54"/>
      </defs>
      <g transform="translate(423.246793 351.757656)scale(0.1 -0.1)">
       <use xlink:href="#DejaVuSans-54"/>
       <use x="63.623047" xlink:href="#DejaVuSans-48"/>
       <use x="127.246094" xlink:href="#DejaVuSans-48"/>
      </g>
     </g>
    </g>
    <g id="xtick_5">
     <g id="line2d_9">
      <path clip-path="url(#pc0e68fa7e5)" d="M 560.339474 337.159219 
L 560.339474 10.999219 
" style="fill:none;stroke:#b0b0b0;stroke-linecap:square;stroke-width:0.8;"/>
     </g>
     <g id="line2d_10">
      <g>
       <use style="stroke:#000000;stroke-width:0.8;" x="560.339474" xlink:href="#m1f30be6641" y="337.159219"/>
      </g>
     </g>
     <g id="text_5">
      <!-- 800 -->
      <defs>
       <path d="M 31.78125 34.625 
Q 24.75 34.625 20.71875 30.859375 
Q 16.703125 27.09375 16.703125 20.515625 
Q 16.703125 13.921875 20.71875 10.15625 
Q 24.75 6.390625 31.78125 6.390625 
Q 38.8125 6.390625 42.859375 10.171875 
Q 46.921875 13.96875 46.921875 20.515625 
Q 46.921875 27.09375 42.890625 30.859375 
Q 38.875 34.625 31.78125 34.625 
z
M 21.921875 38.8125 
Q 15.578125 40.375 12.03125 44.71875 
Q 8.5 49.078125 8.5 55.328125 
Q 8.5 64.0625 14.71875 69.140625 
Q 20.953125 74.21875 31.78125 74.21875 
Q 42.671875 74.21875 48.875 69.140625 
Q 55.078125 64.0625 55.078125 55.328125 
Q 55.078125 49.078125 51.53125 44.71875 
Q 48 40.375 41.703125 38.8125 
Q 48.828125 37.15625 52.796875 32.3125 
Q 56.78125 27.484375 56.78125 20.515625 
Q 56.78125 9.90625 50.3125 4.234375 
Q 43.84375 -1.421875 31.78125 -1.421875 
Q 19.734375 -1.421875 13.25 4.234375 
Q 6.78125 9.90625 6.78125 20.515625 
Q 6.78125 27.484375 10.78125 32.3125 
Q 14.796875 37.15625 21.921875 38.8125 
z
M 18.3125 54.390625 
Q 18.3125 48.734375 21.84375 45.5625 
Q 25.390625 42.390625 31.78125 42.390625 
Q 38.140625 42.390625 41.71875 45.5625 
Q 45.3125 48.734375 45.3125 54.390625 
Q 45.3125 60.0625 41.71875 63.234375 
Q 38.140625 66.40625 31.78125 66.40625 
Q 25.390625 66.40625 21.84375 63.234375 
Q 18.3125 60.0625 18.3125 54.390625 
z
" id="DejaVuSans-56"/>
      </defs>
      <g transform="translate(550.795724 351.757656)scale(0.1 -0.1)">
       <use xlink:href="#DejaVuSans-56"/>
       <use x="63.623047" xlink:href="#DejaVuSans-48"/>
       <use x="127.246094" xlink:href="#DejaVuSans-48"/>
      </g>
     </g>
    </g>
    <g id="xtick_6">
     <g id="line2d_11">
      <path clip-path="url(#pc0e68fa7e5)" d="M 687.888405 337.159219 
L 687.888405 10.999219 
" style="fill:none;stroke:#b0b0b0;stroke-linecap:square;stroke-width:0.8;"/>
     </g>
     <g id="line2d_12">
      <g>
       <use style="stroke:#000000;stroke-width:0.8;" x="687.888405" xlink:href="#m1f30be6641" y="337.159219"/>
      </g>
     </g>
     <g id="text_6">
      <!-- 1000 -->
      <defs>
       <path d="M 12.40625 8.296875 
L 28.515625 8.296875 
L 28.515625 63.921875 
L 10.984375 60.40625 
L 10.984375 69.390625 
L 28.421875 72.90625 
L 38.28125 72.90625 
L 38.28125 8.296875 
L 54.390625 8.296875 
L 54.390625 0 
L 12.40625 0 
z
" id="DejaVuSans-49"/>
      </defs>
      <g transform="translate(675.163405 351.757656)scale(0.1 -0.1)">
       <use xlink:href="#DejaVuSans-49"/>
       <use x="63.623047" xlink:href="#DejaVuSans-48"/>
       <use x="127.246094" xlink:href="#DejaVuSans-48"/>
       <use x="190.869141" xlink:href="#DejaVuSans-48"/>
      </g>
     </g>
    </g>
    <g id="text_7">
     <!-- Epoch -->
     <defs>
      <path d="M 9.8125 72.90625 
L 55.90625 72.90625 
L 55.90625 64.59375 
L 19.671875 64.59375 
L 19.671875 43.015625 
L 54.390625 43.015625 
L 54.390625 34.71875 
L 19.671875 34.71875 
L 19.671875 8.296875 
L 56.78125 8.296875 
L 56.78125 0 
L 9.8125 0 
z
" id="DejaVuSans-69"/>
      <path d="M 18.109375 8.203125 
L 18.109375 -20.796875 
L 9.078125 -20.796875 
L 9.078125 54.6875 
L 18.109375 54.6875 
L 18.109375 46.390625 
Q 20.953125 51.265625 25.265625 53.625 
Q 29.59375 56 35.59375 56 
Q 45.5625 56 51.78125 48.09375 
Q 58.015625 40.1875 58.015625 27.296875 
Q 58.015625 14.40625 51.78125 6.484375 
Q 45.5625 -1.421875 35.59375 -1.421875 
Q 29.59375 -1.421875 25.265625 0.953125 
Q 20.953125 3.328125 18.109375 8.203125 
z
M 48.6875 27.296875 
Q 48.6875 37.203125 44.609375 42.84375 
Q 40.53125 48.484375 33.40625 48.484375 
Q 26.265625 48.484375 22.1875 42.84375 
Q 18.109375 37.203125 18.109375 27.296875 
Q 18.109375 17.390625 22.1875 11.75 
Q 26.265625 6.109375 33.40625 6.109375 
Q 40.53125 6.109375 44.609375 11.75 
Q 48.6875 17.390625 48.6875 27.296875 
z
" id="DejaVuSans-112"/>
      <path d="M 30.609375 48.390625 
Q 23.390625 48.390625 19.1875 42.75 
Q 14.984375 37.109375 14.984375 27.296875 
Q 14.984375 17.484375 19.15625 11.84375 
Q 23.34375 6.203125 30.609375 6.203125 
Q 37.796875 6.203125 41.984375 11.859375 
Q 46.1875 17.53125 46.1875 27.296875 
Q 46.1875 37.015625 41.984375 42.703125 
Q 37.796875 48.390625 30.609375 48.390625 
z
M 30.609375 56 
Q 42.328125 56 49.015625 48.375 
Q 55.71875 40.765625 55.71875 27.296875 
Q 55.71875 13.875 49.015625 6.21875 
Q 42.328125 -1.421875 30.609375 -1.421875 
Q 18.84375 -1.421875 12.171875 6.21875 
Q 5.515625 13.875 5.515625 27.296875 
Q 5.515625 40.765625 12.171875 48.375 
Q 18.84375 56 30.609375 56 
z
" id="DejaVuSans-111"/>
      <path d="M 48.78125 52.59375 
L 48.78125 44.1875 
Q 44.96875 46.296875 41.140625 47.34375 
Q 37.3125 48.390625 33.40625 48.390625 
Q 24.65625 48.390625 19.8125 42.84375 
Q 14.984375 37.3125 14.984375 27.296875 
Q 14.984375 17.28125 19.8125 11.734375 
Q 24.65625 6.203125 33.40625 6.203125 
Q 37.3125 6.203125 41.140625 7.25 
Q 44.96875 8.296875 48.78125 10.40625 
L 48.78125 2.09375 
Q 45.015625 0.34375 40.984375 -0.53125 
Q 36.96875 -1.421875 32.421875 -1.421875 
Q 20.0625 -1.421875 12.78125 6.34375 
Q 5.515625 14.109375 5.515625 27.296875 
Q 5.515625 40.671875 12.859375 48.328125 
Q 20.21875 56 33.015625 56 
Q 37.15625 56 41.109375 55.140625 
Q 45.0625 54.296875 48.78125 52.59375 
z
" id="DejaVuSans-99"/>
      <path d="M 54.890625 33.015625 
L 54.890625 0 
L 45.90625 0 
L 45.90625 32.71875 
Q 45.90625 40.484375 42.875 44.328125 
Q 39.84375 48.1875 33.796875 48.1875 
Q 26.515625 48.1875 22.3125 43.546875 
Q 18.109375 38.921875 18.109375 30.90625 
L 18.109375 0 
L 9.078125 0 
L 9.078125 75.984375 
L 18.109375 75.984375 
L 18.109375 46.1875 
Q 21.34375 51.125 25.703125 53.5625 
Q 30.078125 56 35.796875 56 
Q 45.21875 56 50.046875 50.171875 
Q 54.890625 44.34375 54.890625 33.015625 
z
" id="DejaVuSans-104"/>
     </defs>
     <g transform="translate(369.632813 365.435781)scale(0.1 -0.1)">
      <use xlink:href="#DejaVuSans-69"/>
      <use x="63.183594" xlink:href="#DejaVuSans-112"/>
      <use x="126.660156" xlink:href="#DejaVuSans-111"/>
      <use x="187.841797" xlink:href="#DejaVuSans-99"/>
      <use x="242.822266" xlink:href="#DejaVuSans-104"/>
     </g>
    </g>
   </g>
   <g id="matplotlib.axis_2">
    <g id="ytick_1">
     <g id="line2d_13">
      <path clip-path="url(#pc0e68fa7e5)" d="M 50.14375 337.159219 
L 719.74375 337.159219 
" style="fill:none;stroke:#b0b0b0;stroke-linecap:square;stroke-width:0.8;"/>
     </g>
     <g id="line2d_14">
      <defs>
       <path d="M 0 0 
L -3.5 0 
" id="m32516c1bfb" style="stroke:#000000;stroke-width:0.8;"/>
      </defs>
      <g>
       <use style="stroke:#000000;stroke-width:0.8;" x="50.14375" xlink:href="#m32516c1bfb" y="337.159219"/>
      </g>
     </g>
     <g id="text_8">
      <!-- 0.82 -->
      <defs>
       <path d="M 10.6875 12.40625 
L 21 12.40625 
L 21 0 
L 10.6875 0 
z
" id="DejaVuSans-46"/>
      </defs>
      <g transform="translate(20.878125 340.958437)scale(0.1 -0.1)">
       <use xlink:href="#DejaVuSans-48"/>
       <use x="63.623047" xlink:href="#DejaVuSans-46"/>
       <use x="95.410156" xlink:href="#DejaVuSans-56"/>
       <use x="159.033203" xlink:href="#DejaVuSans-50"/>
      </g>
     </g>
    </g>
    <g id="ytick_2">
     <g id="line2d_15">
      <path clip-path="url(#pc0e68fa7e5)" d="M 50.14375 296.389219 
L 719.74375 296.389219 
" style="fill:none;stroke:#b0b0b0;stroke-linecap:square;stroke-width:0.8;"/>
     </g>
     <g id="line2d_16">
      <g>
       <use style="stroke:#000000;stroke-width:0.8;" x="50.14375" xlink:href="#m32516c1bfb" y="296.389219"/>
      </g>
     </g>
     <g id="text_9">
      <!-- 0.84 -->
      <g transform="translate(20.878125 300.188437)scale(0.1 -0.1)">
       <use xlink:href="#DejaVuSans-48"/>
       <use x="63.623047" xlink:href="#DejaVuSans-46"/>
       <use x="95.410156" xlink:href="#DejaVuSans-56"/>
       <use x="159.033203" xlink:href="#DejaVuSans-52"/>
      </g>
     </g>
    </g>
    <g id="ytick_3">
     <g id="line2d_17">
      <path clip-path="url(#pc0e68fa7e5)" d="M 50.14375 255.619219 
L 719.74375 255.619219 
" style="fill:none;stroke:#b0b0b0;stroke-linecap:square;stroke-width:0.8;"/>
     </g>
     <g id="line2d_18">
      <g>
       <use style="stroke:#000000;stroke-width:0.8;" x="50.14375" xlink:href="#m32516c1bfb" y="255.619219"/>
      </g>
     </g>
     <g id="text_10">
      <!-- 0.86 -->
      <g transform="translate(20.878125 259.418437)scale(0.1 -0.1)">
       <use xlink:href="#DejaVuSans-48"/>
       <use x="63.623047" xlink:href="#DejaVuSans-46"/>
       <use x="95.410156" xlink:href="#DejaVuSans-56"/>
       <use x="159.033203" xlink:href="#DejaVuSans-54"/>
      </g>
     </g>
    </g>
    <g id="ytick_4">
     <g id="line2d_19">
      <path clip-path="url(#pc0e68fa7e5)" d="M 50.14375 214.849219 
L 719.74375 214.849219 
" style="fill:none;stroke:#b0b0b0;stroke-linecap:square;stroke-width:0.8;"/>
     </g>
     <g id="line2d_20">
      <g>
       <use style="stroke:#000000;stroke-width:0.8;" x="50.14375" xlink:href="#m32516c1bfb" y="214.849219"/>
      </g>
     </g>
     <g id="text_11">
      <!-- 0.88 -->
      <g transform="translate(20.878125 218.648437)scale(0.1 -0.1)">
       <use xlink:href="#DejaVuSans-48"/>
       <use x="63.623047" xlink:href="#DejaVuSans-46"/>
       <use x="95.410156" xlink:href="#DejaVuSans-56"/>
       <use x="159.033203" xlink:href="#DejaVuSans-56"/>
      </g>
     </g>
    </g>
    <g id="ytick_5">
     <g id="line2d_21">
      <path clip-path="url(#pc0e68fa7e5)" d="M 50.14375 174.079219 
L 719.74375 174.079219 
" style="fill:none;stroke:#b0b0b0;stroke-linecap:square;stroke-width:0.8;"/>
     </g>
     <g id="line2d_22">
      <g>
       <use style="stroke:#000000;stroke-width:0.8;" x="50.14375" xlink:href="#m32516c1bfb" y="174.079219"/>
      </g>
     </g>
     <g id="text_12">
      <!-- 0.90 -->
      <defs>
       <path d="M 10.984375 1.515625 
L 10.984375 10.5 
Q 14.703125 8.734375 18.5 7.8125 
Q 22.3125 6.890625 25.984375 6.890625 
Q 35.75 6.890625 40.890625 13.453125 
Q 46.046875 20.015625 46.78125 33.40625 
Q 43.953125 29.203125 39.59375 26.953125 
Q 35.25 24.703125 29.984375 24.703125 
Q 19.046875 24.703125 12.671875 31.3125 
Q 6.296875 37.9375 6.296875 49.421875 
Q 6.296875 60.640625 12.9375 67.421875 
Q 19.578125 74.21875 30.609375 74.21875 
Q 43.265625 74.21875 49.921875 64.515625 
Q 56.59375 54.828125 56.59375 36.375 
Q 56.59375 19.140625 48.40625 8.859375 
Q 40.234375 -1.421875 26.421875 -1.421875 
Q 22.703125 -1.421875 18.890625 -0.6875 
Q 15.09375 0.046875 10.984375 1.515625 
z
M 30.609375 32.421875 
Q 37.25 32.421875 41.125 36.953125 
Q 45.015625 41.5 45.015625 49.421875 
Q 45.015625 57.28125 41.125 61.84375 
Q 37.25 66.40625 30.609375 66.40625 
Q 23.96875 66.40625 20.09375 61.84375 
Q 16.21875 57.28125 16.21875 49.421875 
Q 16.21875 41.5 20.09375 36.953125 
Q 23.96875 32.421875 30.609375 32.421875 
z
" id="DejaVuSans-57"/>
      </defs>
      <g transform="translate(20.878125 177.878437)scale(0.1 -0.1)">
       <use xlink:href="#DejaVuSans-48"/>
       <use x="63.623047" xlink:href="#DejaVuSans-46"/>
       <use x="95.410156" xlink:href="#DejaVuSans-57"/>
       <use x="159.033203" xlink:href="#DejaVuSans-48"/>
      </g>
     </g>
    </g>
    <g id="ytick_6">
     <g id="line2d_23">
      <path clip-path="url(#pc0e68fa7e5)" d="M 50.14375 133.309219 
L 719.74375 133.309219 
" style="fill:none;stroke:#b0b0b0;stroke-linecap:square;stroke-width:0.8;"/>
     </g>
     <g id="line2d_24">
      <g>
       <use style="stroke:#000000;stroke-width:0.8;" x="50.14375" xlink:href="#m32516c1bfb" y="133.309219"/>
      </g>
     </g>
     <g id="text_13">
      <!-- 0.92 -->
      <g transform="translate(20.878125 137.108437)scale(0.1 -0.1)">
       <use xlink:href="#DejaVuSans-48"/>
       <use x="63.623047" xlink:href="#DejaVuSans-46"/>
       <use x="95.410156" xlink:href="#DejaVuSans-57"/>
       <use x="159.033203" xlink:href="#DejaVuSans-50"/>
      </g>
     </g>
    </g>
    <g id="ytick_7">
     <g id="line2d_25">
      <path clip-path="url(#pc0e68fa7e5)" d="M 50.14375 92.539219 
L 719.74375 92.539219 
" style="fill:none;stroke:#b0b0b0;stroke-linecap:square;stroke-width:0.8;"/>
     </g>
     <g id="line2d_26">
      <g>
       <use style="stroke:#000000;stroke-width:0.8;" x="50.14375" xlink:href="#m32516c1bfb" y="92.539219"/>
      </g>
     </g>
     <g id="text_14">
      <!-- 0.94 -->
      <g transform="translate(20.878125 96.338437)scale(0.1 -0.1)">
       <use xlink:href="#DejaVuSans-48"/>
       <use x="63.623047" xlink:href="#DejaVuSans-46"/>
       <use x="95.410156" xlink:href="#DejaVuSans-57"/>
       <use x="159.033203" xlink:href="#DejaVuSans-52"/>
      </g>
     </g>
    </g>
    <g id="ytick_8">
     <g id="line2d_27">
      <path clip-path="url(#pc0e68fa7e5)" d="M 50.14375 51.769219 
L 719.74375 51.769219 
" style="fill:none;stroke:#b0b0b0;stroke-linecap:square;stroke-width:0.8;"/>
     </g>
     <g id="line2d_28">
      <g>
       <use style="stroke:#000000;stroke-width:0.8;" x="50.14375" xlink:href="#m32516c1bfb" y="51.769219"/>
      </g>
     </g>
     <g id="text_15">
      <!-- 0.96 -->
      <g transform="translate(20.878125 55.568437)scale(0.1 -0.1)">
       <use xlink:href="#DejaVuSans-48"/>
       <use x="63.623047" xlink:href="#DejaVuSans-46"/>
       <use x="95.410156" xlink:href="#DejaVuSans-57"/>
       <use x="159.033203" xlink:href="#DejaVuSans-54"/>
      </g>
     </g>
    </g>
    <g id="ytick_9">
     <g id="line2d_29">
      <path clip-path="url(#pc0e68fa7e5)" d="M 50.14375 10.999219 
L 719.74375 10.999219 
" style="fill:none;stroke:#b0b0b0;stroke-linecap:square;stroke-width:0.8;"/>
     </g>
     <g id="line2d_30">
      <g>
       <use style="stroke:#000000;stroke-width:0.8;" x="50.14375" xlink:href="#m32516c1bfb" y="10.999219"/>
      </g>
     </g>
     <g id="text_16">
      <!-- 0.98 -->
      <g transform="translate(20.878125 14.798437)scale(0.1 -0.1)">
       <use xlink:href="#DejaVuSans-48"/>
       <use x="63.623047" xlink:href="#DejaVuSans-46"/>
       <use x="95.410156" xlink:href="#DejaVuSans-57"/>
       <use x="159.033203" xlink:href="#DejaVuSans-56"/>
      </g>
     </g>
    </g>
    <g id="text_17">
     <!-- Accuracy -->
     <defs>
      <path d="M 34.1875 63.1875 
L 20.796875 26.90625 
L 47.609375 26.90625 
z
M 28.609375 72.90625 
L 39.796875 72.90625 
L 67.578125 0 
L 57.328125 0 
L 50.6875 18.703125 
L 17.828125 18.703125 
L 11.1875 0 
L 0.78125 0 
z
" id="DejaVuSans-65"/>
      <path d="M 8.5 21.578125 
L 8.5 54.6875 
L 17.484375 54.6875 
L 17.484375 21.921875 
Q 17.484375 14.15625 20.5 10.265625 
Q 23.53125 6.390625 29.59375 6.390625 
Q 36.859375 6.390625 41.078125 11.03125 
Q 45.3125 15.671875 45.3125 23.6875 
L 45.3125 54.6875 
L 54.296875 54.6875 
L 54.296875 0 
L 45.3125 0 
L 45.3125 8.40625 
Q 42.046875 3.421875 37.71875 1 
Q 33.40625 -1.421875 27.6875 -1.421875 
Q 18.265625 -1.421875 13.375 4.4375 
Q 8.5 10.296875 8.5 21.578125 
z
M 31.109375 56 
z
" id="DejaVuSans-117"/>
      <path d="M 41.109375 46.296875 
Q 39.59375 47.171875 37.8125 47.578125 
Q 36.03125 48 33.890625 48 
Q 26.265625 48 22.1875 43.046875 
Q 18.109375 38.09375 18.109375 28.8125 
L 18.109375 0 
L 9.078125 0 
L 9.078125 54.6875 
L 18.109375 54.6875 
L 18.109375 46.1875 
Q 20.953125 51.171875 25.484375 53.578125 
Q 30.03125 56 36.53125 56 
Q 37.453125 56 38.578125 55.875 
Q 39.703125 55.765625 41.0625 55.515625 
z
" id="DejaVuSans-114"/>
      <path d="M 34.28125 27.484375 
Q 23.390625 27.484375 19.1875 25 
Q 14.984375 22.515625 14.984375 16.5 
Q 14.984375 11.71875 18.140625 8.90625 
Q 21.296875 6.109375 26.703125 6.109375 
Q 34.1875 6.109375 38.703125 11.40625 
Q 43.21875 16.703125 43.21875 25.484375 
L 43.21875 27.484375 
z
M 52.203125 31.203125 
L 52.203125 0 
L 43.21875 0 
L 43.21875 8.296875 
Q 40.140625 3.328125 35.546875 0.953125 
Q 30.953125 -1.421875 24.3125 -1.421875 
Q 15.921875 -1.421875 10.953125 3.296875 
Q 6 8.015625 6 15.921875 
Q 6 25.140625 12.171875 29.828125 
Q 18.359375 34.515625 30.609375 34.515625 
L 43.21875 34.515625 
L 43.21875 35.40625 
Q 43.21875 41.609375 39.140625 45 
Q 35.0625 48.390625 27.6875 48.390625 
Q 23 48.390625 18.546875 47.265625 
Q 14.109375 46.140625 10.015625 43.890625 
L 10.015625 52.203125 
Q 14.9375 54.109375 19.578125 55.046875 
Q 24.21875 56 28.609375 56 
Q 40.484375 56 46.34375 49.84375 
Q 52.203125 43.703125 52.203125 31.203125 
z
" id="DejaVuSans-97"/>
      <path d="M 32.171875 -5.078125 
Q 28.375 -14.84375 24.75 -17.8125 
Q 21.140625 -20.796875 15.09375 -20.796875 
L 7.90625 -20.796875 
L 7.90625 -13.28125 
L 13.1875 -13.28125 
Q 16.890625 -13.28125 18.9375 -11.515625 
Q 21 -9.765625 23.484375 -3.21875 
L 25.09375 0.875 
L 2.984375 54.6875 
L 12.5 54.6875 
L 29.59375 11.921875 
L 46.6875 54.6875 
L 56.203125 54.6875 
z
" id="DejaVuSans-121"/>
     </defs>
     <g transform="translate(14.798438 196.994062)rotate(-90)scale(0.1 -0.1)">
      <use xlink:href="#DejaVuSans-65"/>
      <use x="68.392578" xlink:href="#DejaVuSans-99"/>
      <use x="123.373047" xlink:href="#DejaVuSans-99"/>
      <use x="178.353516" xlink:href="#DejaVuSans-117"/>
      <use x="241.732422" xlink:href="#DejaVuSans-114"/>
      <use x="282.845703" xlink:href="#DejaVuSans-97"/>
      <use x="344.125" xlink:href="#DejaVuSans-99"/>
      <use x="399.105469" xlink:href="#DejaVuSans-121"/>
     </g>
    </g>
   </g>
   <g id="line2d_31">
    <path clip-path="url(#pc0e68fa7e5)" d="M 72.67789 375.715469 
L 73.102558 371.100301 
L 73.740302 359.276983 
L 74.378047 360.601985 
L 75.653536 337.974647 
L 76.291281 328.750423 
L 76.929025 325.081121 
L 78.204515 337.057291 
L 78.842259 339.299649 
L 79.480004 335.17167 
L 80.117749 339.656385 
L 80.755493 345.97569 
L 81.393238 350.715199 
L 82.030983 351.734497 
L 82.668727 350.562347 
L 83.306472 339.248739 
L 83.944217 340.573741 
L 84.581961 331.706252 
L 85.857451 318.201197 
L 86.495195 315.602103 
L 87.13294 304.339405 
L 88.408429 292.668939 
L 89.683919 282.731243 
L 90.321663 290.732407 
L 90.959408 290.681376 
L 91.597153 293.178527 
L 92.234897 302.402752 
L 92.872642 299.497954 
L 93.510387 306.734615 
L 94.148131 305.664407 
L 94.785876 308.2635 
L 95.42362 316.468427 
L 96.061365 304.390315 
L 96.69911 301.026839 
L 97.336854 298.784482 
L 98.612344 286.298602 
L 99.250088 280.336033 
L 99.887833 276.259086 
L 100.525578 264.58862 
L 101.801067 252.765302 
L 102.438812 256.995223 
L 103.076556 259.441465 
L 103.714301 261.072171 
L 105.627535 274.984994 
L 106.26528 277.329294 
L 106.903024 276.462848 
L 107.540769 284.005335 
L 108.178514 281.661035 
L 108.816258 285.177484 
L 109.454003 273.965696 
L 110.091748 272.640695 
L 110.729492 263.773206 
L 112.004981 260.001963 
L 112.642726 253.7846 
L 113.280471 242.827606 
L 113.918215 244.560375 
L 114.55596 234.877473 
L 115.193705 234.316853 
L 115.831449 240.381486 
L 116.469194 236.814005 
L 117.106939 244.713227 
L 117.744683 247.821909 
L 118.382428 247.770999 
L 119.020173 254.752866 
L 119.657917 256.485635 
L 120.295662 257.300927 
L 120.933407 264.079032 
L 121.571151 255.058691 
L 122.208896 257.810637 
L 122.846641 256.23072 
L 123.484385 248.382529 
L 124.12213 242.266986 
L 124.759875 242.41996 
L 125.397619 233.858175 
L 126.673109 225.041719 
L 127.310853 216.480056 
L 127.948598 218.773324 
L 128.586343 222.442625 
L 129.224087 222.646509 
L 129.861832 223.003245 
L 130.499576 230.902346 
L 131.137321 234.979415 
L 131.775066 234.214911 
L 132.41281 242.521902 
L 133.050555 238.8526 
L 133.6883 250.522944 
L 134.326044 247.872941 
L 134.963789 240.177602 
L 135.601534 238.088097 
L 136.877023 229.424492 
L 137.514768 223.105187 
L 138.152512 228.405194 
L 138.790257 215.053112 
L 140.065746 206.644302 
L 140.703491 204.962442 
L 141.341236 206.491328 
L 141.97898 212.708813 
L 142.616725 210.772159 
L 143.25447 216.327082 
L 143.892214 214.849228 
L 144.529959 226.468663 
L 145.167704 223.156097 
L 145.805448 227.844696 
L 146.443193 233.705323 
L 147.080937 231.71776 
L 147.718682 228.303374 
L 148.356427 220.91374 
L 148.994171 220.35312 
L 149.631916 213.218401 
L 150.269661 214.543403 
L 150.907405 208.98848 
L 151.54515 202.261528 
L 152.182895 199.815287 
L 152.820639 198.286401 
L 153.458384 192.527595 
L 154.096129 195.432514 
L 154.733873 198.897931 
L 155.371618 204.19806 
L 156.009363 207.15389 
L 156.647107 208.98848 
L 157.284852 213.269433 
L 157.922597 213.116459 
L 159.198086 221.882005 
L 159.835831 214.033815 
L 160.473575 220.709856 
L 161.11132 212.504929 
L 161.749065 211.587573 
L 162.386809 200.528759 
L 163.024554 200.732643 
L 163.662299 200.121113 
L 164.300043 197.420077 
L 164.937788 187.635233 
L 165.575532 188.399737 
L 166.213277 188.043001 
L 166.851022 180.500514 
L 167.488766 185.545728 
L 168.126511 193.495982 
L 170.039745 205.115416 
L 170.67749 203.790414 
L 171.315234 213.677079 
L 171.952979 203.637441 
L 172.590724 210.517365 
L 173.228468 211.383811 
L 173.866213 202.873058 
L 174.503958 201.497025 
L 175.141702 195.279662 
L 175.779447 192.578626 
L 176.417192 187.839117 
L 177.054936 188.654531 
L 177.692681 183.81308 
L 178.330426 179.888984 
L 178.96817 178.971629 
L 179.605915 175.251296 
L 180.24366 185.087171 
L 180.881404 180.85725 
L 181.519149 190.641973 
L 182.794638 193.44495 
L 183.432383 198.031607 
L 184.070127 192.884331 
L 184.707872 202.975 
L 185.345617 194.209454 
L 185.983361 198.897931 
L 186.621106 196.604664 
L 187.258851 189.469945 
L 187.896595 184.781346 
L 188.53434 186.412173 
L 189.172085 176.882123 
L 189.809829 175.506211 
L 190.447574 173.569558 
L 191.085319 164.294423 
L 191.723063 170.817612 
L 192.360808 172.703234 
L 192.998553 177.544685 
L 193.636297 173.263854 
L 194.274042 179.328365 
L 194.911787 181.825516 
L 195.549531 183.25246 
L 196.825021 193.750776 
L 197.462765 200.273965 
L 198.10051 189.979533 
L 198.738255 187.431349 
L 199.375999 187.635233 
L 200.013744 188.399737 
L 200.651488 178.869687 
L 201.926978 175.302327 
L 202.564722 174.028236 
L 203.202467 171.531084 
L 203.840212 161.74624 
L 204.477956 165.925251 
L 205.115701 164.753101 
L 205.753446 166.536781 
L 207.028935 171.683936 
L 207.66668 175.709973 
L 208.304424 178.665803 
L 208.942169 179.736011 
L 209.579914 184.628494 
L 210.217658 187.227587 
L 210.855403 184.220726 
L 211.493148 184.322668 
L 212.130892 176.678361 
L 212.768637 178.462041 
L 213.406382 172.142614 
L 214.044126 172.958028 
L 214.681871 167.148311 
L 215.319616 164.396365 
L 215.95736 163.784835 
L 216.595105 154.305817 
L 217.870594 166.638723 
L 218.508339 165.364631 
L 219.146083 159.707766 
L 219.783828 170.10414 
L 220.421573 167.912814 
L 221.059317 172.44844 
L 221.697062 171.938852 
L 222.334807 176.627329 
L 222.972551 176.627329 
L 223.610296 175.353238 
L 224.248041 176.984065 
L 224.885785 177.646627 
L 226.161275 166.230955 
L 226.799019 166.893517 
L 227.436764 158.484706 
L 228.074509 160.930948 
L 228.712253 155.376025 
L 229.349998 153.847139 
L 229.987743 150.432632 
L 231.263232 160.064502 
L 231.900977 158.994294 
L 233.176466 163.173184 
L 233.81421 169.696494 
L 234.451955 163.937687 
L 235.0897 172.193646 
L 235.727444 175.506211 
L 237.002934 167.352195 
L 237.640678 170.613728 
L 238.278423 163.071363 
L 238.916168 164.651159 
L 240.829402 150.585484 
L 241.467146 149.311392 
L 242.104891 144.571883 
L 242.742636 147.833538 
L 243.38038 147.98639 
L 244.018125 149.15854 
L 244.65587 151.502839 
L 245.293614 159.35103 
L 245.931359 155.834702 
L 246.569104 159.96256 
L 247.844593 164.396365 
L 248.482338 167.454137 
L 249.120082 163.122273 
L 249.757827 165.364631 
L 250.395572 163.886777 
L 251.033316 161.74624 
L 251.671061 155.121109 
L 252.308805 155.834702 
L 252.94655 152.878873 
L 253.584295 147.93548 
L 254.222039 141.565143 
L 254.859784 142.635351 
L 255.497529 145.336386 
L 256.135273 151.55375 
L 256.773018 144.215147 
L 257.410763 148.241184 
L 258.048507 149.515276 
L 258.686252 155.783671 
L 259.323997 158.68859 
L 259.961741 159.045326 
L 260.599486 159.96256 
L 261.237231 162.91839 
L 261.874975 164.345333 
L 262.51272 159.045326 
L 263.150465 156.701026 
L 263.788209 158.229912 
L 264.425954 147.629654 
L 265.063699 150.3816 
L 265.701443 147.833538 
L 266.339188 140.902581 
L 266.976933 139.169933 
L 267.614677 136.163072 
L 268.252422 134.583276 
L 268.890166 141.717995 
L 269.527911 144.97965 
L 270.165656 139.781463 
L 270.8034 146.20271 
L 271.441145 143.603617 
L 272.07889 152.827841 
L 272.716634 149.821102 
L 273.354379 157.56735 
L 273.992124 156.853879 
L 274.629868 161.236652 
L 275.267613 155.070199 
L 275.905358 152.420195 
L 276.543102 144.368121 
L 277.180847 150.891309 
L 278.456336 141.921879 
L 279.094081 138.915139 
L 279.731826 137.386254 
L 280.36957 131.780299 
L 281.007315 132.697655 
L 281.64506 135.347658 
L 282.282804 137.080428 
L 282.920549 143.094029 
L 283.558294 135.551542 
L 284.196038 143.654649 
L 284.833783 148.648952 
L 286.109272 150.177838 
L 286.747017 154.866315 
L 287.384761 152.522137 
L 288.022506 147.476802 
L 288.660251 150.789368 
L 289.297995 145.693122 
L 289.93574 148.037422 
L 290.573485 138.303488 
L 291.211229 138.048694 
L 291.848974 137.539106 
L 292.486719 133.818894 
L 293.124463 134.532366 
L 293.762208 129.079385 
L 294.399953 134.481334 
L 295.037697 131.372653 
L 295.675442 139.628611 
L 296.313187 134.481334 
L 296.950931 140.698819 
L 297.588676 144.113326 
L 298.226421 146.304652 
L 298.864165 151.502839 
L 300.139655 148.4961 
L 300.777399 145.947916 
L 301.415144 144.266179 
L 302.052889 138.35452 
L 302.690633 138.40543 
L 303.328378 139.118902 
L 303.966122 132.188067 
L 304.603867 136.774724 
L 305.879356 129.690915 
L 306.517101 127.244674 
L 307.154846 132.544803 
L 307.79259 133.971746 
L 308.430335 132.137035 
L 309.06808 135.296748 
L 309.705824 135.092864 
L 310.343569 135.296748 
L 310.981314 144.571883 
L 311.619058 141.259317 
L 312.256803 141.616053 
L 312.894548 141.616053 
L 313.532292 141.921879 
L 314.170037 144.062295 
L 314.807782 137.335222 
L 315.445526 137.437164 
L 316.083271 137.284312 
L 316.721016 131.984183 
L 317.35876 130.608149 
L 317.996505 127.703352 
L 318.63425 126.735086 
L 319.271994 124.951406 
L 319.909739 126.837028 
L 320.547484 130.098561 
L 321.185228 125.2062 
L 321.822973 132.137035 
L 322.460717 132.086125 
L 323.736207 142.788203 
L 324.373951 135.551542 
L 325.011696 141.717995 
L 325.649441 143.807501 
L 326.287185 137.335222 
L 326.92493 137.691958 
L 327.562675 140.240141 
L 328.200419 133.869805 
L 328.838164 133.818894 
L 329.475909 125.86864 
L 330.113653 125.410084 
L 330.751398 124.390786 
L 331.389143 122.505164 
L 332.026887 123.371488 
L 332.664632 118.428217 
L 333.302377 120.670575 
L 333.940121 130.557239 
L 334.577866 131.066827 
L 335.215611 128.82447 
L 335.853355 130.047651 
L 336.4911 136.978486 
L 337.128845 139.220844 
L 337.766589 144.928619 
L 338.404334 138.201668 
L 339.042078 133.105422 
L 339.679823 136.417988 
L 340.317568 127.958146 
L 340.955312 130.913975 
L 341.593057 131.525505 
L 342.230802 124.64558 
L 342.868546 121.995576 
L 343.506291 123.677314 
L 344.144036 119.090657 
L 344.78178 113.688708 
L 345.419525 122.199339 
L 346.05727 120.619543 
L 346.695014 122.25037 
L 347.332759 127.805293 
L 347.970504 125.511904 
L 348.608248 133.156333 
L 349.245993 128.722649 
L 349.883738 130.302445 
L 350.521482 137.895842 
L 351.159227 135.296748 
L 351.796972 131.831331 
L 352.434716 133.462158 
L 353.072461 128.569676 
L 353.710206 130.506329 
L 354.34795 120.568633 
L 354.985695 124.696612 
L 355.62344 124.696612 
L 356.261184 117.561771 
L 356.898929 113.23003 
L 357.536673 117.765655 
L 358.174418 119.294541 
L 358.812163 115.62524 
L 359.449907 123.575372 
L 360.087652 125.562936 
L 360.725397 123.218636 
L 361.363141 125.76682 
L 362.000886 126.480292 
L 362.638631 128.365913 
L 363.276375 132.340919 
L 363.91412 132.850507 
L 364.551865 125.81773 
L 365.189609 128.314882 
L 365.827354 129.792857 
L 366.465099 123.932108 
L 367.102843 122.454254 
L 367.740588 119.243509 
L 368.378333 116.746358 
L 369.016077 115.319414 
L 369.653822 115.727182 
L 370.291567 110.579905 
L 370.929311 112.10879 
L 371.567056 120.976279 
L 372.204801 119.192599 
L 372.842545 121.282105 
L 373.48029 120.925369 
L 374.118034 126.938848 
L 374.755779 125.86864 
L 375.393524 127.397526 
L 376.031268 126.633144 
L 376.669013 126.887938 
L 377.306758 124.543638 
L 377.944502 126.582112 
L 378.582247 122.097518 
L 379.219992 126.174466 
L 379.857736 122.097518 
L 380.495481 122.963842 
L 381.133226 114.40218 
L 381.77097 112.975236 
L 382.408715 107.216429 
L 383.04646 113.077056 
L 384.321949 113.178998 
L 384.959694 116.746358 
L 385.597438 113.433792 
L 386.235183 120.160865 
L 386.872928 119.396483 
L 387.510672 126.531202 
L 388.148417 121.689751 
L 388.786162 122.301281 
L 390.061651 127.805293 
L 390.699396 126.225376 
L 391.974885 118.224333 
L 392.612629 120.058923 
L 393.250374 110.987672 
L 393.888119 111.49726 
L 394.525863 110.88573 
L 395.163608 110.681847 
L 395.801353 108.133785 
L 397.076842 113.739618 
L 397.714587 110.121227 
L 398.352331 115.829123 
L 398.990076 117.714745 
L 399.627821 123.524462 
L 400.265565 116.695447 
L 400.90331 122.81099 
L 401.541055 121.231073 
L 402.178799 126.735086 
L 404.092033 116.440653 
L 404.729778 114.351148 
L 405.367523 120.008013 
L 406.005267 112.414616 
L 406.643012 114.198296 
L 407.280757 107.726017 
L 407.918501 111.548171 
L 408.556246 105.789485 
L 409.19399 106.910603 
L 409.831735 111.038583 
L 410.46948 112.006848 
L 411.107224 111.49726 
L 411.744969 115.523298 
L 412.382714 115.67615 
L 413.020458 118.173301 
L 413.658203 125.460994 
L 414.933692 119.141689 
L 415.571437 118.071481 
L 416.209182 119.039747 
L 416.846926 113.89247 
L 417.484671 116.185859 
L 418.122416 115.778092 
L 418.76016 114.351148 
L 419.397905 106.553867 
L 420.03565 107.420313 
L 420.673394 106.757751 
L 421.311139 103.801922 
L 421.948884 105.942337 
L 422.586628 101.100886 
L 423.224373 110.070317 
L 423.862118 108.541431 
L 424.499862 107.675107 
L 425.137607 118.377185 
L 425.775352 114.504 
L 426.413096 115.523298 
L 427.050841 117.969539 
L 427.688585 121.02731 
L 428.32633 119.294541 
L 429.601819 110.376142 
L 430.239564 112.516558 
L 430.877309 112.822262 
L 431.515053 108.694283 
L 432.152798 103.547128 
L 432.790543 108.643373 
L 433.428287 101.763448 
L 434.066032 103.801922 
L 434.703777 103.69998 
L 435.979266 109.458787 
L 436.617011 110.325111 
L 437.254755 106.502957 
L 437.8925 111.49726 
L 438.530245 112.924204 
L 439.805734 119.957103 
L 441.081223 114.555032 
L 441.718968 115.472387 
L 442.356713 109.66267 
L 442.994457 109.560729 
L 443.632202 107.471223 
L 444.269946 106.706841 
L 444.907691 103.69998 
L 445.545436 106.299073 
L 446.18318 99.317207 
L 446.820925 100.234562 
L 447.45867 101.814358 
L 448.096414 104.005806 
L 448.734159 100.69324 
L 449.371904 104.566425 
L 450.009648 105.279897 
L 450.647393 113.23003 
L 451.285138 111.140524 
L 451.922882 109.611639 
L 452.560627 117.612803 
L 453.198372 116.491564 
L 453.836116 110.88573 
L 454.473861 115.421356 
L 455.111606 111.089614 
L 455.74935 107.827959 
L 456.387095 107.369281 
L 457.02484 104.107747 
L 457.662584 101.967332 
L 458.300329 102.069152 
L 458.938074 99.266296 
L 459.575818 98.90956 
L 460.213563 97.329643 
L 460.851308 101.814358 
L 461.489052 101.30477 
L 462.126797 102.884566 
L 462.764541 109.000109 
L 463.402286 105.789485 
L 464.040031 112.975236 
L 464.677775 113.637676 
L 465.31552 112.873294 
L 465.953265 111.293377 
L 466.591009 108.796225 
L 467.228754 112.006848 
L 467.866499 105.330807 
L 468.504243 108.031843 
L 469.141988 107.777049 
L 469.779733 103.08845 
L 470.417477 99.419148 
L 471.055222 101.049976 
L 471.692967 102.069152 
L 472.330711 97.431585 
L 472.968456 96.106583 
L 473.606201 101.30477 
L 474.243945 99.470059 
L 474.88169 104.923161 
L 475.519435 104.668246 
L 476.157179 101.712416 
L 476.794924 106.910603 
L 477.432669 109.713581 
L 478.070413 111.853996 
L 478.708158 110.987672 
L 479.345902 109.866433 
L 479.983647 103.801922 
L 480.621392 111.599202 
L 481.259136 100.387414 
L 481.896881 101.100886 
L 482.534626 101.457622 
L 483.17237 95.749847 
L 483.810115 96.412409 
L 484.44786 97.584559 
L 485.085604 98.246999 
L 485.723349 93.558521 
L 486.361094 95.953731 
L 486.998838 99.623032 
L 487.636583 104.566425 
L 488.274328 102.986508 
L 488.912072 108.235727 
L 489.549817 107.726017 
L 490.187562 105.585601 
L 490.825306 105.585601 
L 491.463051 108.898167 
L 492.100796 111.293377 
L 492.73854 103.69998 
L 493.376285 106.146221 
L 494.01403 103.343244 
L 494.651774 102.782624 
L 495.289519 101.661506 
L 495.927264 99.775884 
L 496.565008 93.762284 
L 497.202753 90.704512 
L 497.840497 92.590134 
L 498.478242 95.393111 
L 499.115987 92.28443 
L 499.753731 97.635469 
L 500.391476 97.431585 
L 501.029221 104.668246 
L 501.666965 102.731714 
L 502.30471 103.801922 
L 502.942455 98.654766 
L 503.580199 101.049976 
L 504.217944 106.910603 
L 504.855689 108.541431 
L 506.131178 105.942337 
L 506.768923 100.183652 
L 507.406667 98.960471 
L 508.044412 100.13262 
L 508.682157 96.259435 
L 509.319901 96.463319 
L 509.957646 94.985465 
L 510.595391 96.412409 
L 511.233135 95.240259 
L 511.87088 90.857486 
L 512.508625 94.373814 
L 513.146369 93.915257 
L 513.784114 98.145057 
L 514.421858 98.501793 
L 515.059603 104.056716 
L 515.697348 102.273036 
L 516.335092 108.133785 
L 516.972837 105.840395 
L 517.610582 104.056716 
L 518.248326 99.215265 
L 518.886071 100.234562 
L 519.523816 97.941294 
L 520.16156 96.208525 
L 520.799305 96.667203 
L 521.43705 101.049976 
L 522.074794 90.50075 
L 522.712539 89.583394 
L 523.350284 91.11228 
L 523.988028 94.068109 
L 524.625773 87.137153 
L 525.263518 91.469016 
L 525.901262 101.814358 
L 526.539007 98.705677 
L 527.176752 101.30477 
L 527.814496 92.182488 
L 528.452241 100.846092 
L 529.089986 107.573165 
L 529.72773 101.814358 
L 530.365475 103.496096 
L 531.003219 99.572001 
L 531.640964 100.387414 
L 532.278709 96.769145 
L 532.916453 96.718113 
L 533.554198 93.609431 
L 534.191943 91.927694 
L 534.829687 86.984301 
L 535.467432 87.799714 
L 536.105177 85.455415 
L 537.380666 92.89596 
L 538.018411 94.985465 
L 538.656155 91.774842 
L 539.2939 99.673943 
L 539.931645 96.565261 
L 540.569389 95.698937 
L 541.207134 95.495053 
L 541.844879 102.222126 
L 542.482623 102.629772 
L 543.120368 102.171094 
L 543.758113 97.941294 
L 544.395857 99.877826 
L 545.033602 95.138317 
L 545.671347 96.718113 
L 546.309091 91.825752 
L 546.946836 94.730549 
L 547.584581 88.258392 
L 548.222325 86.729507 
L 548.86007 90.398808 
L 549.497814 89.736246 
L 550.135559 91.570958 
L 550.773304 90.602692 
L 551.411048 93.099843 
L 552.048793 93.813315 
L 552.686538 101.712416 
L 553.324282 101.763448 
L 553.962027 99.011502 
L 554.599772 103.445186 
L 555.237516 97.941294 
L 555.875261 97.788321 
L 556.513006 100.642208 
L 557.15075 99.572001 
L 557.788495 94.679639 
L 558.42624 94.628729 
L 559.063984 95.851789 
L 559.701729 91.621868 
L 560.339474 93.966167 
L 560.977218 92.080546 
L 561.614963 85.557357 
L 562.252708 88.564097 
L 562.890452 84.283265 
L 563.528197 93.150754 
L 564.165942 88.869922 
L 564.803686 95.393111 
L 565.441431 93.252695 
L 566.079175 95.495053 
L 566.71692 95.444021 
L 567.354665 95.800879 
L 567.992409 97.839353 
L 568.630154 93.966167 
L 569.267899 95.444021 
L 569.905643 96.157615 
L 570.543388 94.11902 
L 571.181133 93.864225 
L 571.818877 91.11228 
L 572.456622 94.017078 
L 573.094367 87.850625 
L 573.732111 83.365909 
L 574.369856 88.15645 
L 575.007601 88.003598 
L 575.645345 86.016035 
L 576.28309 88.207361 
L 576.920835 85.659299 
L 577.558579 91.876662 
L 578.196324 91.265132 
L 578.834069 93.558521 
L 579.471813 99.419148 
L 580.109558 95.647905 
L 580.747303 97.686379 
L 582.022792 90.908396 
L 582.660537 93.405548 
L 583.298281 89.481452 
L 583.936026 94.271993 
L 584.57377 87.54492 
L 585.211515 84.538059 
L 585.84926 86.882359 
L 586.487004 81.429378 
L 587.124749 84.181323 
L 587.762494 83.162147 
L 588.400238 82.958263 
L 589.037983 87.595831 
L 589.675728 90.245956 
L 590.313472 88.76798 
L 590.951217 92.488313 
L 591.588962 94.985465 
L 592.226706 92.182488 
L 592.864451 96.106583 
L 593.502196 92.590134 
L 594.13994 93.150754 
L 594.777685 94.475755 
L 595.41543 90.092982 
L 596.053174 91.367074 
L 596.690919 84.894795 
L 597.328664 86.474713 
L 597.966408 85.557357 
L 598.604153 86.219919 
L 599.241898 81.072642 
L 599.879642 82.295702 
L 600.517387 81.276525 
L 601.155131 85.251531 
L 601.792876 87.137153 
L 602.430621 85.863183 
L 603.068365 91.214222 
L 603.70611 87.697773 
L 604.343855 88.513186 
L 604.981599 91.11228 
L 606.257089 88.564097 
L 607.532578 94.475755 
L 608.808067 89.022774 
L 609.445812 85.149711 
L 610.083557 85.557357 
L 610.721301 85.659299 
L 611.359046 81.58223 
L 611.996791 82.091939 
L 612.634535 82.193881 
L 613.27228 86.117977 
L 613.910025 86.066945 
L 614.547769 87.442978 
L 615.185514 85.659299 
L 615.823259 87.290126 
L 616.461003 90.55166 
L 617.098748 88.10554 
L 617.736493 92.029636 
L 618.374237 92.590134 
L 619.011982 95.240259 
L 619.649726 93.201785 
L 620.287471 91.6729 
L 620.925216 90.449718 
L 622.200705 86.627565 
L 623.476194 84.385207 
L 624.113939 79.849582 
L 624.751684 81.276525 
L 625.389428 83.518883 
L 626.027173 78.065902 
L 626.664918 85.200621 
L 627.302662 83.518883 
L 627.940407 84.741943 
L 628.578152 84.283265 
L 629.215896 88.462276 
L 629.853641 88.76798 
L 630.491386 89.838188 
L 631.12913 88.513186 
L 631.766875 92.997901 
L 632.40462 93.252695 
L 633.042364 91.417984 
L 633.680109 88.15645 
L 634.317854 90.449718 
L 634.955598 85.506447 
L 635.593343 83.518883 
L 636.231087 84.079503 
L 637.506577 80.715906 
L 638.144321 78.52458 
L 638.782066 79.18702 
L 639.419811 82.193881 
L 640.057555 82.856321 
L 640.6953 82.499585 
L 641.333045 86.066945 
L 641.970789 86.270829 
L 642.608534 89.88922 
L 643.246279 90.194924 
L 643.884023 93.813315 
L 644.521768 91.6729 
L 645.159513 87.137153 
L 645.797257 87.137153 
L 646.435002 89.3286 
L 647.710491 87.341037 
L 648.348236 83.926529 
L 648.985981 84.130413 
L 649.623725 76.944662 
L 650.26147 84.996737 
L 650.899215 78.728342 
L 651.536959 79.034168 
L 652.174704 77.148546 
L 652.812449 85.149711 
L 653.450193 83.213057 
L 654.087938 86.678475 
L 654.725682 86.066945 
L 655.363427 87.799714 
L 656.001172 86.525623 
L 656.638916 91.6729 
L 657.276661 90.245956 
L 657.914406 87.188184 
L 659.189895 83.977561 
L 659.82764 85.710209 
L 660.465384 82.958263 
L 661.103129 83.416941 
L 661.740874 81.174584 
L 662.378618 78.269664 
L 663.016363 77.862018 
L 663.654108 78.932226 
L 664.291852 74.192717 
L 664.929597 76.944662 
L 665.567342 81.072642 
L 666.205086 80.715906 
L 666.842831 84.996737 
L 667.480576 78.881316 
L 668.11832 86.066945 
L 668.756065 86.423681 
L 669.39381 89.481452 
L 670.031554 85.608267 
L 670.669299 84.996737 
L 671.307043 86.729507 
L 671.944788 82.244791 
L 672.582533 84.079503 
L 673.220277 80.30826 
L 673.858022 81.072642 
L 674.495767 77.454372 
L 675.133511 76.231191 
L 675.771256 73.326393 
L 676.409001 81.429378 
L 677.046745 73.835981 
L 677.68449 76.282222 
L 678.322235 81.276525 
L 679.597724 82.703469 
L 680.235469 83.111115 
L 680.873213 82.295702 
L 681.510958 86.780417 
L 682.148703 83.111115 
L 682.786447 85.404505 
L 683.424192 85.812151 
L 684.061937 86.93339 
L 684.699681 84.945827 
L 685.337426 83.722767 
L 685.975171 83.416941 
L 686.612915 80.410201 
L 687.25066 78.269664 
L 687.888405 78.473548 
L 687.888405 78.473548 
" style="fill:none;stroke:#377eb8;stroke-linecap:square;stroke-width:1.5;"/>
   </g>
   <g id="line2d_32">
    <path clip-path="url(#pc0e68fa7e5)" d="M 61.891818 375.715469 
L 62.260898 341.164007 
L 62.898643 349.575734 
L 63.536388 353.063508 
L 64.174132 361.270015 
L 64.696266 375.715469 
M 64.871413 375.715469 
L 65.449622 344.651782 
L 66.087366 350.806692 
L 66.532357 375.715469 
M 66.934731 375.715469 
L 67.362856 353.678926 
L 68.0006 356.346062 
L 68.638345 351.217011 
L 69.27609 364.34747 
L 69.370072 375.715469 
M 70.483346 375.715469 
L 70.551579 367.835244 
L 71.189324 345.267321 
L 71.827068 375.631431 
L 72.464813 295.207524 
L 73.102558 330.290365 
L 73.740302 344.856881 
L 74.378047 305.465626 
L 75.015792 295.617843 
L 75.653536 251.302636 
L 76.291281 286.590577 
L 76.929025 277.563432 
L 77.56677 286.795797 
L 78.204515 302.79849 
L 78.842259 273.870559 
L 79.480004 289.873252 
L 80.117749 296.438481 
L 80.755493 282.897703 
L 81.393238 333.77814 
L 82.030983 289.052614 
L 82.668727 351.62733 
L 83.306472 318.390864 
L 83.944217 263.817555 
L 84.581961 266.074372 
L 85.219706 257.457425 
L 85.857451 319.006404 
L 86.495195 249.661238 
L 87.13294 249.250918 
L 87.770685 228.939812 
L 88.408429 231.606948 
L 89.046174 246.378684 
L 89.683919 230.581089 
L 90.321663 259.509142 
L 90.959408 225.657258 
L 91.597153 268.946606 
L 92.234897 263.612335 
L 92.872642 272.024061 
L 93.510387 255.816148 
L 94.148131 269.562146 
L 94.785876 278.79439 
L 95.42362 271.613742 
L 96.061365 245.147726 
L 96.69911 250.071557 
L 97.336854 251.097416 
L 97.974599 253.96965 
L 98.612344 261.560739 
L 99.887833 223.195221 
L 100.525578 226.477897 
L 101.163322 236.5309 
L 101.801067 210.475082 
L 102.438812 215.604255 
L 103.076556 227.298535 
L 103.714301 218.476489 
L 104.352046 217.655851 
L 104.98979 230.78631 
L 105.627535 216.835212 
L 106.26528 228.119174 
L 106.903024 215.193936 
L 107.540769 235.299821 
L 108.178514 218.271391 
L 108.816258 241.454731 
L 109.454003 226.477897 
L 110.091748 244.942506 
L 110.729492 222.990123 
L 111.367237 216.219673 
L 112.004981 215.809354 
L 112.642726 201.447937 
L 113.280471 221.759165 
L 113.918215 189.753657 
L 114.55596 200.832519 
L 115.193705 206.37189 
L 116.469194 221.143625 
L 117.106939 218.271391 
L 117.744683 211.91126 
L 118.382428 203.089214 
L 119.020173 219.297128 
L 119.657917 217.655851 
L 120.295662 209.039025 
L 120.933407 232.837906 
L 121.571151 240.223774 
L 122.208896 260.12456 
L 123.484385 206.782209 
L 124.12213 208.833805 
L 124.759875 201.653158 
L 125.397619 213.142218 
L 126.035364 196.934426 
L 126.673109 186.881422 
L 127.310853 190.369196 
L 127.948598 191.600154 
L 128.586343 196.934426 
L 129.224087 188.522699 
L 129.861832 189.958877 
L 130.499576 202.678895 
L 131.137321 205.75635 
L 131.775066 210.475082 
L 132.41281 209.859664 
L 133.050555 208.013167 
L 133.6883 208.833805 
L 134.326044 214.373297 
L 134.963789 185.034925 
L 136.239278 208.013167 
L 136.877023 201.653158 
L 137.514768 197.139524 
L 138.152512 216.014574 
L 138.790257 191.189835 
L 139.428002 186.881422 
L 140.065746 193.856971 
L 140.703491 185.445244 
L 141.341236 190.984614 
L 141.97898 171.904466 
L 142.616725 202.473796 
L 143.25447 199.80666 
L 143.892214 207.397748 
L 144.529959 198.780801 
L 145.167704 194.882708 
L 145.805448 218.271391 
L 146.443193 199.601561 
L 147.080937 205.75635 
L 147.718682 192.215572 
L 148.356427 210.885523 
L 148.994171 195.498248 
L 149.631916 191.600154 
L 150.269661 186.881422 
L 150.907405 175.222621 
L 151.54515 184.419385 
L 152.182895 184.214286 
L 152.820639 173.956062 
L 153.458384 174.366503 
L 154.096129 185.445244 
L 154.733873 178.674916 
L 155.371618 187.70206 
L 156.009363 191.600154 
L 156.647107 193.241431 
L 157.284852 181.54715 
L 157.922597 187.907159 
L 158.560341 203.089214 
L 159.198086 190.779516 
L 159.835831 209.244124 
L 160.473575 201.858256 
L 161.11132 185.855563 
L 161.749065 189.548558 
L 162.386809 197.139524 
L 163.024554 184.214286 
L 163.662299 187.086521 
L 164.300043 172.520006 
L 164.937788 166.980635 
L 165.575532 177.238738 
L 166.213277 184.009066 
L 166.851022 183.598747 
L 167.488766 177.649057 
L 168.126511 185.034925 
L 168.764256 172.314785 
L 169.402 191.805253 
L 170.039745 184.214286 
L 170.67749 179.700653 
L 171.315234 189.958877 
L 171.952979 211.706161 
L 172.590724 198.780801 
L 173.228468 181.95747 
L 173.866213 185.650464 
L 174.503958 180.931611 
L 175.779447 193.65175 
L 176.417192 176.828418 
L 177.054936 169.442551 
L 177.692681 172.725105 
L 178.330426 164.313499 
L 178.96817 178.674916 
L 179.605915 168.827011 
L 180.24366 183.188427 
L 180.881404 182.778108 
L 181.519149 189.753657 
L 182.156893 177.649057 
L 182.794638 180.521292 
L 183.432383 184.419385 
L 184.070127 203.499655 
L 184.707872 196.934426 
L 185.345617 201.242838 
L 185.983361 189.343337 
L 186.621106 186.471103 
L 187.258851 177.238738 
L 187.896595 180.110972 
L 188.53434 177.854277 
L 189.172085 166.570194 
L 189.809829 173.750963 
L 190.447574 165.339237 
L 191.723063 158.774007 
L 192.360808 167.390954 
L 192.998553 179.905873 
L 193.636297 178.674916 
L 194.274042 173.750963 
L 194.911787 183.598747 
L 195.549531 175.597461 
L 196.187276 187.291741 
L 196.825021 190.369196 
L 197.462765 168.416692 
L 198.10051 170.673508 
L 198.738255 178.264596 
L 199.375999 193.241431 
L 200.013744 174.366503 
L 200.651488 166.365096 
L 201.289233 171.699367 
L 201.926978 186.676202 
L 203.202467 164.108279 
L 203.840212 160.825725 
L 204.477956 171.699367 
L 205.115701 168.006373 
L 205.753446 170.263189 
L 206.39119 160.210185 
L 207.028935 171.289048 
L 207.66668 160.005087 
L 208.304424 186.676202 
L 208.942169 167.390954 
L 209.579914 166.159875 
L 210.217658 176.212879 
L 210.855403 178.880015 
L 211.493148 169.85287 
L 212.130892 162.672101 
L 212.768637 180.110972 
L 213.406382 169.647649 
L 214.044126 171.083828 
L 214.681871 161.236044 
L 215.319616 160.005087 
L 215.95736 174.161283 
L 216.595105 164.928917 
L 217.232849 174.776822 
L 217.870594 166.159875 
L 218.508339 159.594767 
L 219.146083 159.799866 
L 219.783828 174.366503 
L 220.421573 163.287641 
L 221.059317 168.006373 
L 221.697062 181.752371 
L 222.334807 169.442551 
L 222.972551 179.085235 
L 223.610296 168.827011 
L 224.248041 174.366503 
L 224.885785 175.597461 
L 225.52353 174.161283 
L 226.161275 181.34193 
L 226.799019 159.799866 
L 227.436764 163.69796 
L 228.074509 164.108279 
L 228.712253 165.749556 
L 229.349998 159.799866 
L 229.987743 160.005087 
L 230.625487 164.928917 
L 231.263232 164.313499 
L 231.900977 169.23733 
L 232.538721 167.185734 
L 233.176466 168.416692 
L 233.81421 163.287641 
L 234.451955 170.673508 
L 235.0897 172.314785 
L 235.727444 171.289048 
L 236.365189 174.366503 
L 237.002934 182.778108 
L 237.640678 165.954776 
L 238.278423 170.673508 
L 238.916168 167.596053 
L 239.553912 165.339237 
L 240.191657 164.518598 
L 240.829402 156.106993 
L 241.467146 154.260496 
L 242.104891 162.672101 
L 242.742636 154.465595 
L 243.38038 161.236044 
L 244.018125 169.442551 
L 244.65587 171.494147 
L 245.293614 153.850177 
L 246.569104 167.185734 
L 247.206848 178.674916 
L 247.844593 163.90318 
L 248.482338 157.74827 
L 249.120082 168.827011 
L 249.757827 167.185734 
L 250.395572 177.649057 
L 251.033316 167.668105 
L 251.671061 166.570194 
L 252.308805 168.827011 
L 253.584295 154.670815 
L 254.222039 169.032231 
L 254.859784 156.722411 
L 255.497529 152.413998 
L 256.773018 162.672101 
L 257.410763 156.517312 
L 258.686252 178.264596 
L 259.323997 175.597461 
L 259.961741 167.185734 
L 260.599486 170.263189 
L 261.874975 173.545743 
L 262.51272 166.365096 
L 263.150465 161.236044 
L 263.788209 154.875914 
L 264.425954 154.465595 
L 265.063699 160.210185 
L 265.701443 156.517312 
L 266.339188 154.465595 
L 266.976933 156.722411 
L 267.614677 157.13273 
L 268.252422 164.723819 
L 268.890166 152.413998 
L 269.527911 163.08242 
L 270.165656 167.596053 
L 270.8034 163.69796 
L 271.441145 165.749556 
L 272.07889 159.594767 
L 272.716634 178.674916 
L 273.354379 156.927632 
L 273.992124 161.441143 
L 274.629868 170.673508 
L 275.267613 172.930325 
L 275.905358 153.850177 
L 276.543102 165.339237 
L 277.180847 154.875914 
L 277.818592 165.954776 
L 278.456336 157.953369 
L 279.094081 152.208778 
L 280.36957 158.568909 
L 281.007315 155.081134 
L 282.282804 164.723819 
L 282.920549 142.976534 
L 284.196038 181.136831 
L 284.833783 161.851462 
L 285.471528 156.927632 
L 286.109272 154.465595 
L 286.747017 169.442551 
L 287.384761 163.08242 
L 288.022506 170.263189 
L 288.660251 162.877321 
L 289.297995 160.825725 
L 289.93574 160.005087 
L 291.211229 158.158589 
L 291.848974 149.746863 
L 292.486719 151.798459 
L 293.124463 149.541764 
L 293.762208 163.287641 
L 294.399953 164.518598 
L 295.037697 161.441143 
L 295.675442 165.749556 
L 296.313187 166.159875 
L 296.950931 154.260496 
L 297.588676 154.875914 
L 298.226421 167.185734 
L 298.864165 157.337951 
L 299.50191 165.339237 
L 300.139655 164.518598 
L 300.777399 153.439857 
L 301.415144 161.441143 
L 302.052889 157.74827 
L 302.690633 159.389547 
L 303.328378 159.184327 
L 303.966122 155.696552 
L 304.603867 157.337951 
L 305.241612 148.515905 
L 305.879356 150.567501 
L 306.517101 155.491453 
L 307.154846 157.337951 
L 307.79259 146.053989 
L 308.430335 150.567501 
L 309.06808 163.90318 
L 309.705824 161.441143 
L 310.343569 148.515905 
L 310.981314 164.518598 
L 311.619058 154.055275 
L 312.256803 162.056683 
L 312.894548 159.799866 
L 313.532292 168.211593 
L 314.170037 157.337951 
L 314.807782 157.953369 
L 315.445526 163.90318 
L 316.083271 158.979228 
L 316.721016 150.567501 
L 317.35876 154.260496 
L 317.996505 144.82291 
L 318.63425 144.82291 
L 319.271994 156.312092 
L 319.909739 145.233351 
L 320.547484 161.236044 
L 321.185228 151.59336 
L 321.822973 156.106993 
L 322.460717 154.670815 
L 323.736207 163.287641 
L 324.373951 161.236044 
L 325.011696 154.055275 
L 325.649441 148.515905 
L 326.287185 160.210185 
L 326.92493 165.134138 
L 327.562675 156.312092 
L 328.200419 151.38814 
L 328.838164 152.208778 
L 329.475909 147.695266 
L 330.113653 156.722411 
L 330.751398 153.439857 
L 331.389143 146.259088 
L 332.026887 155.696552 
L 332.664632 153.234637 
L 333.302377 140.104178 
L 333.940121 153.850177 
L 334.577866 150.567501 
L 335.215611 162.467002 
L 335.853355 151.59336 
L 336.4911 157.74827 
L 337.128845 158.979228 
L 337.766589 151.38814 
L 338.404334 161.851462 
L 339.042078 151.38814 
L 339.679823 152.619219 
L 340.317568 162.056683 
L 340.955312 144.617811 
L 341.593057 155.901773 
L 342.230802 152.824318 
L 342.868546 152.208778 
L 344.144036 145.64367 
L 345.419525 150.362402 
L 346.05727 151.183041 
L 346.695014 151.798459 
L 347.332759 157.953369 
L 347.970504 153.439857 
L 348.608248 156.106993 
L 349.245993 152.413998 
L 349.883738 161.441143 
L 350.521482 154.670815 
L 351.159227 151.1297 
L 351.796972 154.875914 
L 352.434716 154.875914 
L 353.072461 149.336543 
L 353.710206 152.824318 
L 354.34795 147.900365 
L 354.985695 145.64367 
L 355.62344 148.515905 
L 356.261184 147.900365 
L 356.898929 148.515905 
L 357.536673 141.335257 
L 358.174418 148.105586 
L 358.812163 146.464309 
L 359.449907 151.38814 
L 360.087652 146.053989 
L 360.725397 154.055275 
L 361.363141 152.824318 
L 362.000886 145.43845 
L 362.638631 158.158589 
L 363.276375 149.541764 
L 363.91412 154.055275 
L 364.551865 153.850177 
L 365.189609 161.236044 
L 365.827354 161.236044 
L 366.465099 151.798459 
L 367.102843 156.517312 
L 367.740588 156.517312 
L 368.378333 148.515905 
L 369.016077 146.259088 
L 369.653822 151.38814 
L 370.291567 151.183041 
L 370.929311 146.259088 
L 371.567056 149.131445 
L 372.204801 160.210185 
L 372.842545 144.207492 
L 373.48029 159.389547 
L 374.118034 155.901773 
L 374.755779 148.926224 
L 375.393524 160.415406 
L 376.031268 159.184327 
L 376.669013 155.081134 
L 377.306758 156.722411 
L 377.944502 168.621912 
L 378.582247 155.696552 
L 379.219992 159.184327 
L 379.857736 158.979228 
L 380.495481 153.644956 
L 381.133226 151.59336 
L 381.77097 147.490046 
L 382.408715 156.517312 
L 383.04646 147.284947 
L 383.684204 153.439857 
L 384.321949 157.337951 
L 384.959694 147.900365 
L 385.597438 153.234637 
L 386.235183 144.002272 
L 386.872928 150.157182 
L 387.510672 146.874628 
L 388.148417 156.517312 
L 388.786162 157.953369 
L 389.423906 150.157182 
L 390.061651 150.157182 
L 391.974885 163.492861 
L 392.612629 150.772721 
L 393.250374 158.568909 
L 393.888119 150.157182 
L 394.525863 139.693859 
L 395.163608 154.670815 
L 395.801353 147.284947 
L 396.439097 151.38814 
L 397.076842 140.924817 
L 397.714587 144.002272 
L 398.352331 143.591953 
L 398.990076 142.360995 
L 399.627821 161.030824 
L 400.265565 157.13273 
L 400.90331 155.696552 
L 401.541055 157.54305 
L 402.178799 168.621912 
L 402.816544 156.722411 
L 403.454289 157.54305 
L 404.092033 161.646364 
L 404.729778 144.617811 
L 405.367523 148.515905 
L 406.005267 146.053989 
L 406.643012 152.208778 
L 407.280757 156.722411 
L 407.918501 140.924817 
L 408.556246 153.234637 
L 409.19399 143.181633 
L 409.831735 147.900365 
L 410.46948 159.184327 
L 411.107224 146.053989 
L 411.744969 162.467002 
L 412.382714 148.310685 
L 413.020458 156.517312 
L 413.658203 158.568909 
L 414.295948 148.105586 
L 414.933692 162.261782 
L 415.571437 149.746863 
L 416.209182 149.541764 
L 416.846926 152.208778 
L 417.484671 165.544457 
L 418.122416 136.000986 
L 418.76016 155.901773 
L 419.397905 144.207492 
L 420.03565 149.336543 
L 420.673394 146.874628 
L 421.948884 138.462901 
L 422.586628 152.003679 
L 423.224373 148.926224 
L 423.862118 148.515905 
L 424.499862 156.927632 
L 425.137607 144.207492 
L 425.775352 156.927632 
L 426.413096 149.541764 
L 427.050841 155.696552 
L 427.688585 149.746863 
L 428.32633 145.233351 
L 428.964075 161.851462 
L 429.601819 142.155896 
L 430.239564 153.850177 
L 430.877309 155.081134 
L 431.515053 144.207492 
L 432.152798 150.157182 
L 432.790543 147.079727 
L 433.428287 146.464309 
L 434.066032 139.078441 
L 435.341521 147.284947 
L 435.979266 146.874628 
L 436.617011 152.619219 
L 437.254755 145.848769 
L 437.8925 157.337951 
L 438.530245 151.183041 
L 439.167989 154.875914 
L 439.805734 155.081134 
L 440.443479 160.415406 
L 441.081223 152.208778 
L 441.718968 148.721125 
L 442.356713 147.695266 
L 442.994457 148.926224 
L 443.632202 144.412591 
L 444.269946 144.207492 
L 444.907691 153.850177 
L 445.545436 141.950676 
L 446.18318 147.490046 
L 446.820925 150.157182 
L 447.45867 148.721125 
L 448.096414 145.233351 
L 448.734159 147.695266 
L 449.371904 143.386854 
L 450.009648 141.540356 
L 450.647393 146.669408 
L 451.285138 149.496321 
L 451.922882 150.362402 
L 452.560627 145.64367 
L 453.198372 148.515905 
L 453.836116 148.926224 
L 454.473861 157.74827 
L 455.111606 156.312092 
L 455.74935 149.131445 
L 456.387095 144.617811 
L 457.02484 152.208778 
L 457.662584 139.693859 
L 458.300329 141.745577 
L 458.938074 137.847483 
L 460.213563 151.798459 
L 460.851308 145.848769 
L 461.489052 154.465595 
L 462.126797 143.386854 
L 462.764541 150.157182 
L 463.402286 142.771314 
L 464.040031 148.515905 
L 464.677775 141.335257 
L 465.31552 171.289048 
L 465.953265 147.695266 
L 466.591009 150.362402 
L 467.228754 148.515905 
L 467.866499 156.312092 
L 468.504243 154.670815 
L 469.141988 146.259088 
L 469.779733 149.952083 
L 470.417477 138.052582 
L 471.055222 145.848769 
L 471.692967 149.952083 
L 472.330711 146.874628 
L 472.968456 149.336543 
L 473.606201 146.669408 
L 474.243945 142.360995 
L 474.88169 151.183041 
L 475.519435 143.591953 
L 476.157179 148.721125 
L 476.794924 142.771314 
L 477.432669 146.464309 
L 478.070413 156.927632 
L 478.708158 154.875914 
L 479.345902 149.131445 
L 479.983647 150.772721 
L 480.621392 147.284947 
L 481.259136 163.90318 
L 481.896881 155.286233 
L 482.534626 144.207492 
L 483.17237 151.798459 
L 483.810115 149.131445 
L 484.44786 144.82291 
L 485.085604 152.619219 
L 485.723349 145.64367 
L 486.361094 148.515905 
L 486.998838 150.157182 
L 487.636583 152.824318 
L 488.274328 154.875914 
L 488.912072 154.670815 
L 489.549817 149.952083 
L 490.187562 154.670815 
L 490.825306 150.362402 
L 492.100796 140.924817 
L 492.73854 145.64367 
L 493.376285 149.131445 
L 494.01403 142.976534 
L 494.651774 146.874628 
L 495.289519 142.976534 
L 495.927264 141.130037 
L 496.565008 145.233351 
L 497.202753 141.130037 
L 497.840497 144.002272 
L 498.478242 150.97782 
L 499.115987 150.157182 
L 499.753731 138.052582 
L 500.391476 154.465595 
L 501.029221 160.210185 
L 501.666965 146.669408 
L 502.942455 154.260496 
L 503.580199 149.541764 
L 504.217944 143.797173 
L 504.855689 153.439857 
L 505.493433 145.848769 
L 506.131178 149.746863 
L 506.768923 152.619219 
L 507.406667 159.799866 
L 508.044412 152.003679 
L 508.682157 150.567501 
L 509.319901 141.745577 
L 509.957646 139.899079 
L 510.595391 144.412591 
L 511.233135 145.64367 
L 511.87088 144.002272 
L 512.508625 155.696552 
L 513.146369 146.874628 
L 513.784114 151.59336 
L 514.421858 151.798459 
L 515.059603 153.644956 
L 515.697348 140.924817 
L 516.335092 154.465595 
L 516.972837 145.233351 
L 517.610582 143.181633 
L 518.248326 149.952083 
L 518.886071 145.43845 
L 519.523816 144.412591 
L 520.16156 140.719718 
L 520.799305 141.950676 
L 521.43705 152.619219 
L 522.074794 136.411305 
L 522.712539 146.669408 
L 523.350284 144.207492 
L 523.988028 142.976534 
L 524.625773 146.464309 
L 525.263518 141.745577 
L 525.901262 144.207492 
L 526.539007 147.284947 
L 527.176752 146.464309 
L 527.814496 141.130037 
L 528.452241 160.620505 
L 529.089986 147.079727 
L 529.72773 155.696552 
L 530.365475 142.155896 
L 531.640964 150.772721 
L 532.278709 147.695266 
L 532.916453 150.97782 
L 533.554198 139.078441 
L 534.191943 143.797173 
L 534.829687 142.771314 
L 535.467432 136.000986 
L 536.105177 149.952083 
L 536.742921 147.900365 
L 537.380666 147.079727 
L 538.018411 149.131445 
L 538.656155 140.924817 
L 539.2939 150.157182 
L 539.931645 146.874628 
L 540.569389 148.926224 
L 541.207134 147.079727 
L 542.482623 152.208778 
L 543.120368 146.259088 
L 543.758113 150.567501 
L 544.395857 147.284947 
L 545.033602 146.874628 
L 545.671347 148.105586 
L 546.309091 146.669408 
L 546.946836 147.695266 
L 547.584581 144.617811 
L 548.222325 143.181633 
L 548.86007 145.028131 
L 549.497814 144.82291 
L 550.135559 148.515905 
L 551.411048 151.538076 
L 552.048793 148.721125 
L 552.686538 146.669408 
L 553.324282 147.284947 
L 553.962027 146.464309 
L 554.599772 147.284947 
L 555.237516 150.97782 
L 555.875261 152.208778 
L 556.513006 145.233351 
L 557.15075 141.335257 
L 557.788495 149.131445 
L 558.42624 144.002272 
L 559.063984 140.309399 
L 559.701729 144.412591 
L 560.339474 145.64367 
L 560.977218 137.437042 
L 561.614963 139.693859 
L 562.252708 140.514497 
L 562.890452 143.797173 
L 563.528197 139.693859 
L 564.165942 150.97782 
L 564.803686 144.207492 
L 565.441431 148.105586 
L 566.079175 150.567501 
L 566.71692 140.924817 
L 567.354665 147.079727 
L 567.992409 154.670815 
L 568.630154 145.233351 
L 569.267899 143.797173 
L 569.905643 151.59336 
L 570.543388 139.693859 
L 571.181133 148.926224 
L 572.456622 146.669408 
L 573.094367 142.976534 
L 573.732111 137.847483 
L 574.369856 137.231944 
L 575.007601 144.412591 
L 575.645345 145.233351 
L 576.28309 142.360995 
L 576.920835 143.386854 
L 577.558579 142.976534 
L 578.196324 144.412591 
L 578.834069 142.566215 
L 579.471813 155.491453 
L 580.109558 141.130037 
L 580.747303 140.924817 
L 581.385047 146.053989 
L 582.022792 141.335257 
L 582.660537 144.617811 
L 583.298281 149.131445 
L 583.936026 141.335257 
L 584.57377 144.617811 
L 585.211515 142.976534 
L 585.84926 156.927632 
L 586.487004 142.976534 
L 587.124749 147.695266 
L 588.400238 138.873221 
L 589.037983 144.412591 
L 589.675728 141.540356 
L 590.313472 144.207492 
L 590.951217 147.900365 
L 591.588962 139.899079 
L 592.226706 152.824318 
L 592.864451 149.952083 
L 593.502196 141.335257 
L 594.13994 150.157182 
L 594.777685 142.155896 
L 595.41543 148.515905 
L 596.053174 139.078441 
L 596.690919 150.567501 
L 597.328664 140.104178 
L 597.966408 147.490046 
L 598.604153 138.257802 
L 599.241898 145.848769 
L 599.879642 141.540356 
L 600.517387 151.183041 
L 601.155131 138.462901 
L 601.792876 141.540356 
L 602.430621 147.900365 
L 603.068365 147.079727 
L 603.70611 148.105586 
L 604.343855 145.43845 
L 604.981599 143.591953 
L 605.619344 150.97782 
L 606.257089 142.155896 
L 606.894833 145.848769 
L 607.532578 145.64367 
L 608.170323 143.386854 
L 608.808067 156.106993 
L 609.445812 143.181633 
L 610.083557 147.695266 
L 610.721301 147.900365 
L 611.359046 150.157182 
L 611.996791 145.64367 
L 612.634535 142.155896 
L 613.27228 135.795765 
L 613.910025 154.055275 
L 614.547769 149.336543 
L 615.185514 141.540356 
L 615.823259 149.952083 
L 616.461003 147.284947 
L 617.098748 147.284947 
L 617.736493 157.953369 
L 618.374237 159.799866 
L 619.011982 149.541764 
L 619.649726 142.771314 
L 620.287471 146.464309 
L 620.925216 156.312092 
L 621.56296 151.59336 
L 622.200705 145.64367 
L 622.83845 159.184327 
L 623.476194 148.105586 
L 624.113939 148.926224 
L 624.751684 138.668122 
L 625.389428 151.59336 
L 626.027173 149.746863 
L 626.664918 145.64367 
L 627.302662 165.339237 
L 627.940407 142.566215 
L 628.578152 145.028131 
L 629.215896 153.029538 
L 629.853641 155.491453 
L 630.491386 148.515905 
L 631.12913 150.157182 
L 631.766875 149.336543 
L 632.40462 148.310685 
L 633.042364 151.183041 
L 633.680109 150.567501 
L 634.317854 139.48876 
L 634.955598 146.259088 
L 635.593343 155.286233 
L 636.231087 152.824318 
L 636.868832 144.617811 
L 637.506577 151.59336 
L 638.144321 143.181633 
L 638.782066 147.900365 
L 639.419811 147.900365 
L 640.057555 143.181633 
L 640.6953 157.13273 
L 641.333045 153.029538 
L 641.970789 157.13273 
L 642.608534 146.669408 
L 643.246279 153.029538 
L 643.884023 153.029538 
L 644.521768 159.594767 
L 645.159513 158.568909 
L 645.797257 148.515905 
L 646.435002 141.745577 
L 647.072747 150.362402 
L 647.710491 149.952083 
L 648.348236 148.515905 
L 648.985981 146.259088 
L 649.623725 143.386854 
L 650.26147 144.82291 
L 650.899215 144.617811 
L 651.536959 144.80031 
L 652.174704 145.43845 
L 652.812449 143.181633 
L 653.450193 146.464309 
L 654.087938 140.309399 
L 654.725682 148.926224 
L 655.363427 149.541764 
L 656.001172 143.386854 
L 656.638916 144.002272 
L 657.276661 149.336543 
L 657.914406 144.002272 
L 659.189895 154.260496 
L 659.82764 144.207492 
L 660.465384 155.081134 
L 661.103129 140.309399 
L 661.740874 138.257802 
L 662.378618 140.514497 
L 663.016363 145.848769 
L 663.654108 148.721125 
L 664.291852 144.82291 
L 664.929597 143.591953 
L 665.567342 152.003679 
L 666.205086 146.259088 
L 666.842831 150.157182 
L 667.480576 149.541764 
L 668.11832 151.183041 
L 668.756065 147.900365 
L 669.39381 147.079727 
L 670.031554 146.669408 
L 670.669299 157.337951 
L 671.307043 146.874628 
L 671.944788 153.644956 
L 672.582533 149.746863 
L 673.220277 142.566215 
L 673.858022 154.670815 
L 674.495767 145.233351 
L 675.133511 145.64367 
L 675.771256 140.924817 
L 676.409001 153.029538 
L 677.046745 138.873221 
L 677.68449 148.926224 
L 678.322235 138.052582 
L 678.959979 148.105586 
L 679.597724 148.515905 
L 680.235469 142.155896 
L 680.873213 147.079727 
L 681.510958 135.590667 
L 682.148703 143.181633 
L 682.786447 155.901773 
L 683.424192 144.82291 
L 684.061937 140.104178 
L 684.699681 143.797173 
L 685.337426 143.591953 
L 685.975171 142.976534 
L 686.612915 145.028131 
L 687.25066 136.206085 
L 687.888405 138.873221 
L 687.888405 138.873221 
" style="fill:none;stroke:#4daf4a;stroke-linecap:square;stroke-width:1.5;"/>
   </g>
   <g id="patch_3">
    <path d="M 50.14375 337.159219 
L 50.14375 10.999219 
" style="fill:none;stroke:#000000;stroke-linecap:square;stroke-linejoin:miter;stroke-width:0.8;"/>
   </g>
   <g id="patch_4">
    <path d="M 719.74375 337.159219 
L 719.74375 10.999219 
" style="fill:none;stroke:#000000;stroke-linecap:square;stroke-linejoin:miter;stroke-width:0.8;"/>
   </g>
   <g id="patch_5">
    <path d="M 50.14375 337.159219 
L 719.74375 337.159219 
" style="fill:none;stroke:#000000;stroke-linecap:square;stroke-linejoin:miter;stroke-width:0.8;"/>
   </g>
   <g id="patch_6">
    <path d="M 50.14375 10.999219 
L 719.74375 10.999219 
" style="fill:none;stroke:#000000;stroke-linecap:square;stroke-linejoin:miter;stroke-width:0.8;"/>
   </g>
   <g id="legend_1">
    <g id="patch_7">
     <path d="M 57.14375 48.355469 
L 114.584375 48.355469 
Q 116.584375 48.355469 116.584375 46.355469 
L 116.584375 17.999219 
Q 116.584375 15.999219 114.584375 15.999219 
L 57.14375 15.999219 
Q 55.14375 15.999219 55.14375 17.999219 
L 55.14375 46.355469 
Q 55.14375 48.355469 57.14375 48.355469 
z
" style="fill:#ffffff;opacity:0.8;stroke:#cccccc;stroke-linejoin:miter;"/>
    </g>
    <g id="line2d_33">
     <path d="M 59.14375 24.097656 
L 79.14375 24.097656 
" style="fill:none;stroke:#377eb8;stroke-linecap:square;stroke-width:1.5;"/>
    </g>
    <g id="line2d_34"/>
    <g id="text_18">
     <!-- Train -->
     <defs>
      <path d="M -0.296875 72.90625 
L 61.375 72.90625 
L 61.375 64.59375 
L 35.5 64.59375 
L 35.5 0 
L 25.59375 0 
L 25.59375 64.59375 
L -0.296875 64.59375 
z
" id="DejaVuSans-84"/>
      <path d="M 9.421875 54.6875 
L 18.40625 54.6875 
L 18.40625 0 
L 9.421875 0 
z
M 9.421875 75.984375 
L 18.40625 75.984375 
L 18.40625 64.59375 
L 9.421875 64.59375 
z
" id="DejaVuSans-105"/>
      <path d="M 54.890625 33.015625 
L 54.890625 0 
L 45.90625 0 
L 45.90625 32.71875 
Q 45.90625 40.484375 42.875 44.328125 
Q 39.84375 48.1875 33.796875 48.1875 
Q 26.515625 48.1875 22.3125 43.546875 
Q 18.109375 38.921875 18.109375 30.90625 
L 18.109375 0 
L 9.078125 0 
L 9.078125 54.6875 
L 18.109375 54.6875 
L 18.109375 46.1875 
Q 21.34375 51.125 25.703125 53.5625 
Q 30.078125 56 35.796875 56 
Q 45.21875 56 50.046875 50.171875 
Q 54.890625 44.34375 54.890625 33.015625 
z
" id="DejaVuSans-110"/>
     </defs>
     <g transform="translate(87.14375 27.597656)scale(0.1 -0.1)">
      <use xlink:href="#DejaVuSans-84"/>
      <use x="60.865234" xlink:href="#DejaVuSans-114"/>
      <use x="101.978516" xlink:href="#DejaVuSans-97"/>
      <use x="163.257812" xlink:href="#DejaVuSans-105"/>
      <use x="191.041016" xlink:href="#DejaVuSans-110"/>
     </g>
    </g>
    <g id="line2d_35">
     <path d="M 59.14375 38.775781 
L 79.14375 38.775781 
" style="fill:none;stroke:#4daf4a;stroke-linecap:square;stroke-width:1.5;"/>
    </g>
    <g id="line2d_36"/>
    <g id="text_19">
     <!-- Test -->
     <defs>
      <path d="M 56.203125 29.59375 
L 56.203125 25.203125 
L 14.890625 25.203125 
Q 15.484375 15.921875 20.484375 11.0625 
Q 25.484375 6.203125 34.421875 6.203125 
Q 39.59375 6.203125 44.453125 7.46875 
Q 49.3125 8.734375 54.109375 11.28125 
L 54.109375 2.78125 
Q 49.265625 0.734375 44.1875 -0.34375 
Q 39.109375 -1.421875 33.890625 -1.421875 
Q 20.796875 -1.421875 13.15625 6.1875 
Q 5.515625 13.8125 5.515625 26.8125 
Q 5.515625 40.234375 12.765625 48.109375 
Q 20.015625 56 32.328125 56 
Q 43.359375 56 49.78125 48.890625 
Q 56.203125 41.796875 56.203125 29.59375 
z
M 47.21875 32.234375 
Q 47.125 39.59375 43.09375 43.984375 
Q 39.0625 48.390625 32.421875 48.390625 
Q 24.90625 48.390625 20.390625 44.140625 
Q 15.875 39.890625 15.1875 32.171875 
z
" id="DejaVuSans-101"/>
      <path d="M 44.28125 53.078125 
L 44.28125 44.578125 
Q 40.484375 46.53125 36.375 47.5 
Q 32.28125 48.484375 27.875 48.484375 
Q 21.1875 48.484375 17.84375 46.4375 
Q 14.5 44.390625 14.5 40.28125 
Q 14.5 37.15625 16.890625 35.375 
Q 19.28125 33.59375 26.515625 31.984375 
L 29.59375 31.296875 
Q 39.15625 29.25 43.1875 25.515625 
Q 47.21875 21.78125 47.21875 15.09375 
Q 47.21875 7.46875 41.1875 3.015625 
Q 35.15625 -1.421875 24.609375 -1.421875 
Q 20.21875 -1.421875 15.453125 -0.5625 
Q 10.6875 0.296875 5.421875 2 
L 5.421875 11.28125 
Q 10.40625 8.6875 15.234375 7.390625 
Q 20.0625 6.109375 24.8125 6.109375 
Q 31.15625 6.109375 34.5625 8.28125 
Q 37.984375 10.453125 37.984375 14.40625 
Q 37.984375 18.0625 35.515625 20.015625 
Q 33.0625 21.96875 24.703125 23.78125 
L 21.578125 24.515625 
Q 13.234375 26.265625 9.515625 29.90625 
Q 5.8125 33.546875 5.8125 39.890625 
Q 5.8125 47.609375 11.28125 51.796875 
Q 16.75 56 26.8125 56 
Q 31.78125 56 36.171875 55.265625 
Q 40.578125 54.546875 44.28125 53.078125 
z
" id="DejaVuSans-115"/>
      <path d="M 18.3125 70.21875 
L 18.3125 54.6875 
L 36.8125 54.6875 
L 36.8125 47.703125 
L 18.3125 47.703125 
L 18.3125 18.015625 
Q 18.3125 11.328125 20.140625 9.421875 
Q 21.96875 7.515625 27.59375 7.515625 
L 36.8125 7.515625 
L 36.8125 0 
L 27.59375 0 
Q 17.1875 0 13.234375 3.875 
Q 9.28125 7.765625 9.28125 18.015625 
L 9.28125 47.703125 
L 2.6875 47.703125 
L 2.6875 54.6875 
L 9.28125 54.6875 
L 9.28125 70.21875 
z
" id="DejaVuSans-116"/>
     </defs>
     <g transform="translate(87.14375 42.275781)scale(0.1 -0.1)">
      <use xlink:href="#DejaVuSans-84"/>
      <use x="60.818359" xlink:href="#DejaVuSans-101"/>
      <use x="122.341797" xlink:href="#DejaVuSans-115"/>
      <use x="174.441406" xlink:href="#DejaVuSans-116"/>
     </g>
    </g>
   </g>
  </g>
 </g>
 <defs>
  <clipPath id="pc0e68fa7e5">
   <rect height="326.16" width="669.6" x="50.14375" y="10.999219"/>
  </clipPath>
 </defs>
</svg>
