<?xml version="1.0" encoding="utf-8" standalone="no"?>
<!DOCTYPE svg PUBLIC "-//W3C//DTD SVG 1.1//EN"
  "http://www.w3.org/Graphics/SVG/1.1/DTD/svg11.dtd">
<!-- Created with matplotlib (https://matplotlib.org/) -->
<svg height="374.715469pt" version="1.1" viewBox="0 0 726.94375 374.715469" width="726.94375pt" xmlns="http://www.w3.org/2000/svg" xmlns:xlink="http://www.w3.org/1999/xlink">
 <defs>
  <style type="text/css">
*{stroke-linecap:butt;stroke-linejoin:round;white-space:pre;}
  </style>
 </defs>
 <g id="figure_1">
  <g id="patch_1">
   <path d="M 0 374.715469 
L 726.94375 374.715469 
L 726.94375 0 
L 0 0 
z
" style="fill:#ffffff;"/>
  </g>
  <g id="axes_1">
   <g id="patch_2">
    <path d="M 50.14375 337.159219 
L 719.74375 337.159219 
L 719.74375 10.999219 
L 50.14375 10.999219 
z
" style="fill:#ffffff;"/>
   </g>
   <g id="matplotlib.axis_1">
    <g id="xtick_1">
     <g id="line2d_1">
      <path clip-path="url(#p1892eb9dd0)" d="M 50.14375 337.159219 
L 50.14375 10.999219 
" style="fill:none;stroke:#b0b0b0;stroke-linecap:square;stroke-width:0.8;"/>
     </g>
     <g id="line2d_2">
      <defs>
       <path d="M 0 0 
L 0 3.5 
" id="m9e1c9aa22a" style="stroke:#000000;stroke-width:0.8;"/>
      </defs>
      <g>
       <use style="stroke:#000000;stroke-width:0.8;" x="50.14375" xlink:href="#m9e1c9aa22a" y="337.159219"/>
      </g>
     </g>
     <g id="text_1">
      <!-- 0 -->
      <defs>
       <path d="M 31.78125 66.40625 
Q 24.171875 66.40625 20.328125 58.90625 
Q 16.5 51.421875 16.5 36.375 
Q 16.5 21.390625 20.328125 13.890625 
Q 24.171875 6.390625 31.78125 6.390625 
Q 39.453125 6.390625 43.28125 13.890625 
Q 47.125 21.390625 47.125 36.375 
Q 47.125 51.421875 43.28125 58.90625 
Q 39.453125 66.40625 31.78125 66.40625 
z
M 31.78125 74.21875 
Q 44.046875 74.21875 50.515625 64.515625 
Q 56.984375 54.828125 56.984375 36.375 
Q 56.984375 17.96875 50.515625 8.265625 
Q 44.046875 -1.421875 31.78125 -1.421875 
Q 19.53125 -1.421875 13.0625 8.265625 
Q 6.59375 17.96875 6.59375 36.375 
Q 6.59375 54.828125 13.0625 64.515625 
Q 19.53125 74.21875 31.78125 74.21875 
z
" id="DejaVuSans-48"/>
      </defs>
      <g transform="translate(46.9625 351.757656)scale(0.1 -0.1)">
       <use xlink:href="#DejaVuSans-48"/>
      </g>
     </g>
    </g>
    <g id="xtick_2">
     <g id="line2d_3">
      <path clip-path="url(#p1892eb9dd0)" d="M 172.786728 337.159219 
L 172.786728 10.999219 
" style="fill:none;stroke:#b0b0b0;stroke-linecap:square;stroke-width:0.8;"/>
     </g>
     <g id="line2d_4">
      <g>
       <use style="stroke:#000000;stroke-width:0.8;" x="172.786728" xlink:href="#m9e1c9aa22a" y="337.159219"/>
      </g>
     </g>
     <g id="text_2">
      <!-- 200 -->
      <defs>
       <path d="M 19.1875 8.296875 
L 53.609375 8.296875 
L 53.609375 0 
L 7.328125 0 
L 7.328125 8.296875 
Q 12.9375 14.109375 22.625 23.890625 
Q 32.328125 33.6875 34.8125 36.53125 
Q 39.546875 41.84375 41.421875 45.53125 
Q 43.3125 49.21875 43.3125 52.78125 
Q 43.3125 58.59375 39.234375 62.25 
Q 35.15625 65.921875 28.609375 65.921875 
Q 23.96875 65.921875 18.8125 64.3125 
Q 13.671875 62.703125 7.8125 59.421875 
L 7.8125 69.390625 
Q 13.765625 71.78125 18.9375 73 
Q 24.125 74.21875 28.421875 74.21875 
Q 39.75 74.21875 46.484375 68.546875 
Q 53.21875 62.890625 53.21875 53.421875 
Q 53.21875 48.921875 51.53125 44.890625 
Q 49.859375 40.875 45.40625 35.40625 
Q 44.1875 33.984375 37.640625 27.21875 
Q 31.109375 20.453125 19.1875 8.296875 
z
" id="DejaVuSans-50"/>
      </defs>
      <g transform="translate(163.242978 351.757656)scale(0.1 -0.1)">
       <use xlink:href="#DejaVuSans-50"/>
       <use x="63.623047" xlink:href="#DejaVuSans-48"/>
       <use x="127.246094" xlink:href="#DejaVuSans-48"/>
      </g>
     </g>
    </g>
    <g id="xtick_3">
     <g id="line2d_5">
      <path clip-path="url(#p1892eb9dd0)" d="M 295.429706 337.159219 
L 295.429706 10.999219 
" style="fill:none;stroke:#b0b0b0;stroke-linecap:square;stroke-width:0.8;"/>
     </g>
     <g id="line2d_6">
      <g>
       <use style="stroke:#000000;stroke-width:0.8;" x="295.429706" xlink:href="#m9e1c9aa22a" y="337.159219"/>
      </g>
     </g>
     <g id="text_3">
      <!-- 400 -->
      <defs>
       <path d="M 37.796875 64.3125 
L 12.890625 25.390625 
L 37.796875 25.390625 
z
M 35.203125 72.90625 
L 47.609375 72.90625 
L 47.609375 25.390625 
L 58.015625 25.390625 
L 58.015625 17.1875 
L 47.609375 17.1875 
L 47.609375 0 
L 37.796875 0 
L 37.796875 17.1875 
L 4.890625 17.1875 
L 4.890625 26.703125 
z
" id="DejaVuSans-52"/>
      </defs>
      <g transform="translate(285.885956 351.757656)scale(0.1 -0.1)">
       <use xlink:href="#DejaVuSans-52"/>
       <use x="63.623047" xlink:href="#DejaVuSans-48"/>
       <use x="127.246094" xlink:href="#DejaVuSans-48"/>
      </g>
     </g>
    </g>
    <g id="xtick_4">
     <g id="line2d_7">
      <path clip-path="url(#p1892eb9dd0)" d="M 418.072684 337.159219 
L 418.072684 10.999219 
" style="fill:none;stroke:#b0b0b0;stroke-linecap:square;stroke-width:0.8;"/>
     </g>
     <g id="line2d_8">
      <g>
       <use style="stroke:#000000;stroke-width:0.8;" x="418.072684" xlink:href="#m9e1c9aa22a" y="337.159219"/>
      </g>
     </g>
     <g id="text_4">
      <!-- 600 -->
      <defs>
       <path d="M 33.015625 40.375 
Q 26.375 40.375 22.484375 35.828125 
Q 18.609375 31.296875 18.609375 23.390625 
Q 18.609375 15.53125 22.484375 10.953125 
Q 26.375 6.390625 33.015625 6.390625 
Q 39.65625 6.390625 43.53125 10.953125 
Q 47.40625 15.53125 47.40625 23.390625 
Q 47.40625 31.296875 43.53125 35.828125 
Q 39.65625 40.375 33.015625 40.375 
z
M 52.59375 71.296875 
L 52.59375 62.3125 
Q 48.875 64.0625 45.09375 64.984375 
Q 41.3125 65.921875 37.59375 65.921875 
Q 27.828125 65.921875 22.671875 59.328125 
Q 17.53125 52.734375 16.796875 39.40625 
Q 19.671875 43.65625 24.015625 45.921875 
Q 28.375 48.1875 33.59375 48.1875 
Q 44.578125 48.1875 50.953125 41.515625 
Q 57.328125 34.859375 57.328125 23.390625 
Q 57.328125 12.15625 50.6875 5.359375 
Q 44.046875 -1.421875 33.015625 -1.421875 
Q 20.359375 -1.421875 13.671875 8.265625 
Q 6.984375 17.96875 6.984375 36.375 
Q 6.984375 53.65625 15.1875 63.9375 
Q 23.390625 74.21875 37.203125 74.21875 
Q 40.921875 74.21875 44.703125 73.484375 
Q 48.484375 72.75 52.59375 71.296875 
z
" id="DejaVuSans-54"/>
      </defs>
      <g transform="translate(408.528934 351.757656)scale(0.1 -0.1)">
       <use xlink:href="#DejaVuSans-54"/>
       <use x="63.623047" xlink:href="#DejaVuSans-48"/>
       <use x="127.246094" xlink:href="#DejaVuSans-48"/>
      </g>
     </g>
    </g>
    <g id="xtick_5">
     <g id="line2d_9">
      <path clip-path="url(#p1892eb9dd0)" d="M 540.715663 337.159219 
L 540.715663 10.999219 
" style="fill:none;stroke:#b0b0b0;stroke-linecap:square;stroke-width:0.8;"/>
     </g>
     <g id="line2d_10">
      <g>
       <use style="stroke:#000000;stroke-width:0.8;" x="540.715663" xlink:href="#m9e1c9aa22a" y="337.159219"/>
      </g>
     </g>
     <g id="text_5">
      <!-- 800 -->
      <defs>
       <path d="M 31.78125 34.625 
Q 24.75 34.625 20.71875 30.859375 
Q 16.703125 27.09375 16.703125 20.515625 
Q 16.703125 13.921875 20.71875 10.15625 
Q 24.75 6.390625 31.78125 6.390625 
Q 38.8125 6.390625 42.859375 10.171875 
Q 46.921875 13.96875 46.921875 20.515625 
Q 46.921875 27.09375 42.890625 30.859375 
Q 38.875 34.625 31.78125 34.625 
z
M 21.921875 38.8125 
Q 15.578125 40.375 12.03125 44.71875 
Q 8.5 49.078125 8.5 55.328125 
Q 8.5 64.0625 14.71875 69.140625 
Q 20.953125 74.21875 31.78125 74.21875 
Q 42.671875 74.21875 48.875 69.140625 
Q 55.078125 64.0625 55.078125 55.328125 
Q 55.078125 49.078125 51.53125 44.71875 
Q 48 40.375 41.703125 38.8125 
Q 48.828125 37.15625 52.796875 32.3125 
Q 56.78125 27.484375 56.78125 20.515625 
Q 56.78125 9.90625 50.3125 4.234375 
Q 43.84375 -1.421875 31.78125 -1.421875 
Q 19.734375 -1.421875 13.25 4.234375 
Q 6.78125 9.90625 6.78125 20.515625 
Q 6.78125 27.484375 10.78125 32.3125 
Q 14.796875 37.15625 21.921875 38.8125 
z
M 18.3125 54.390625 
Q 18.3125 48.734375 21.84375 45.5625 
Q 25.390625 42.390625 31.78125 42.390625 
Q 38.140625 42.390625 41.71875 45.5625 
Q 45.3125 48.734375 45.3125 54.390625 
Q 45.3125 60.0625 41.71875 63.234375 
Q 38.140625 66.40625 31.78125 66.40625 
Q 25.390625 66.40625 21.84375 63.234375 
Q 18.3125 60.0625 18.3125 54.390625 
z
" id="DejaVuSans-56"/>
      </defs>
      <g transform="translate(531.171913 351.757656)scale(0.1 -0.1)">
       <use xlink:href="#DejaVuSans-56"/>
       <use x="63.623047" xlink:href="#DejaVuSans-48"/>
       <use x="127.246094" xlink:href="#DejaVuSans-48"/>
      </g>
     </g>
    </g>
    <g id="xtick_6">
     <g id="line2d_11">
      <path clip-path="url(#p1892eb9dd0)" d="M 663.358641 337.159219 
L 663.358641 10.999219 
" style="fill:none;stroke:#b0b0b0;stroke-linecap:square;stroke-width:0.8;"/>
     </g>
     <g id="line2d_12">
      <g>
       <use style="stroke:#000000;stroke-width:0.8;" x="663.358641" xlink:href="#m9e1c9aa22a" y="337.159219"/>
      </g>
     </g>
     <g id="text_6">
      <!-- 1000 -->
      <defs>
       <path d="M 12.40625 8.296875 
L 28.515625 8.296875 
L 28.515625 63.921875 
L 10.984375 60.40625 
L 10.984375 69.390625 
L 28.421875 72.90625 
L 38.28125 72.90625 
L 38.28125 8.296875 
L 54.390625 8.296875 
L 54.390625 0 
L 12.40625 0 
z
" id="DejaVuSans-49"/>
      </defs>
      <g transform="translate(650.633641 351.757656)scale(0.1 -0.1)">
       <use xlink:href="#DejaVuSans-49"/>
       <use x="63.623047" xlink:href="#DejaVuSans-48"/>
       <use x="127.246094" xlink:href="#DejaVuSans-48"/>
       <use x="190.869141" xlink:href="#DejaVuSans-48"/>
      </g>
     </g>
    </g>
    <g id="text_7">
     <!-- Epoch -->
     <defs>
      <path d="M 9.8125 72.90625 
L 55.90625 72.90625 
L 55.90625 64.59375 
L 19.671875 64.59375 
L 19.671875 43.015625 
L 54.390625 43.015625 
L 54.390625 34.71875 
L 19.671875 34.71875 
L 19.671875 8.296875 
L 56.78125 8.296875 
L 56.78125 0 
L 9.8125 0 
z
" id="DejaVuSans-69"/>
      <path d="M 18.109375 8.203125 
L 18.109375 -20.796875 
L 9.078125 -20.796875 
L 9.078125 54.6875 
L 18.109375 54.6875 
L 18.109375 46.390625 
Q 20.953125 51.265625 25.265625 53.625 
Q 29.59375 56 35.59375 56 
Q 45.5625 56 51.78125 48.09375 
Q 58.015625 40.1875 58.015625 27.296875 
Q 58.015625 14.40625 51.78125 6.484375 
Q 45.5625 -1.421875 35.59375 -1.421875 
Q 29.59375 -1.421875 25.265625 0.953125 
Q 20.953125 3.328125 18.109375 8.203125 
z
M 48.6875 27.296875 
Q 48.6875 37.203125 44.609375 42.84375 
Q 40.53125 48.484375 33.40625 48.484375 
Q 26.265625 48.484375 22.1875 42.84375 
Q 18.109375 37.203125 18.109375 27.296875 
Q 18.109375 17.390625 22.1875 11.75 
Q 26.265625 6.109375 33.40625 6.109375 
Q 40.53125 6.109375 44.609375 11.75 
Q 48.6875 17.390625 48.6875 27.296875 
z
" id="DejaVuSans-112"/>
      <path d="M 30.609375 48.390625 
Q 23.390625 48.390625 19.1875 42.75 
Q 14.984375 37.109375 14.984375 27.296875 
Q 14.984375 17.484375 19.15625 11.84375 
Q 23.34375 6.203125 30.609375 6.203125 
Q 37.796875 6.203125 41.984375 11.859375 
Q 46.1875 17.53125 46.1875 27.296875 
Q 46.1875 37.015625 41.984375 42.703125 
Q 37.796875 48.390625 30.609375 48.390625 
z
M 30.609375 56 
Q 42.328125 56 49.015625 48.375 
Q 55.71875 40.765625 55.71875 27.296875 
Q 55.71875 13.875 49.015625 6.21875 
Q 42.328125 -1.421875 30.609375 -1.421875 
Q 18.84375 -1.421875 12.171875 6.21875 
Q 5.515625 13.875 5.515625 27.296875 
Q 5.515625 40.765625 12.171875 48.375 
Q 18.84375 56 30.609375 56 
z
" id="DejaVuSans-111"/>
      <path d="M 48.78125 52.59375 
L 48.78125 44.1875 
Q 44.96875 46.296875 41.140625 47.34375 
Q 37.3125 48.390625 33.40625 48.390625 
Q 24.65625 48.390625 19.8125 42.84375 
Q 14.984375 37.3125 14.984375 27.296875 
Q 14.984375 17.28125 19.8125 11.734375 
Q 24.65625 6.203125 33.40625 6.203125 
Q 37.3125 6.203125 41.140625 7.25 
Q 44.96875 8.296875 48.78125 10.40625 
L 48.78125 2.09375 
Q 45.015625 0.34375 40.984375 -0.53125 
Q 36.96875 -1.421875 32.421875 -1.421875 
Q 20.0625 -1.421875 12.78125 6.34375 
Q 5.515625 14.109375 5.515625 27.296875 
Q 5.515625 40.671875 12.859375 48.328125 
Q 20.21875 56 33.015625 56 
Q 37.15625 56 41.109375 55.140625 
Q 45.0625 54.296875 48.78125 52.59375 
z
" id="DejaVuSans-99"/>
      <path d="M 54.890625 33.015625 
L 54.890625 0 
L 45.90625 0 
L 45.90625 32.71875 
Q 45.90625 40.484375 42.875 44.328125 
Q 39.84375 48.1875 33.796875 48.1875 
Q 26.515625 48.1875 22.3125 43.546875 
Q 18.109375 38.921875 18.109375 30.90625 
L 18.109375 0 
L 9.078125 0 
L 9.078125 75.984375 
L 18.109375 75.984375 
L 18.109375 46.1875 
Q 21.34375 51.125 25.703125 53.5625 
Q 30.078125 56 35.796875 56 
Q 45.21875 56 50.046875 50.171875 
Q 54.890625 44.34375 54.890625 33.015625 
z
" id="DejaVuSans-104"/>
     </defs>
     <g transform="translate(369.632813 365.435781)scale(0.1 -0.1)">
      <use xlink:href="#DejaVuSans-69"/>
      <use x="63.183594" xlink:href="#DejaVuSans-112"/>
      <use x="126.660156" xlink:href="#DejaVuSans-111"/>
      <use x="187.841797" xlink:href="#DejaVuSans-99"/>
      <use x="242.822266" xlink:href="#DejaVuSans-104"/>
     </g>
    </g>
   </g>
   <g id="matplotlib.axis_2">
    <g id="ytick_1">
     <g id="line2d_13">
      <path clip-path="url(#p1892eb9dd0)" d="M 50.14375 337.159219 
L 719.74375 337.159219 
" style="fill:none;stroke:#b0b0b0;stroke-linecap:square;stroke-width:0.8;"/>
     </g>
     <g id="line2d_14">
      <defs>
       <path d="M 0 0 
L -3.5 0 
" id="m06b4c95937" style="stroke:#000000;stroke-width:0.8;"/>
      </defs>
      <g>
       <use style="stroke:#000000;stroke-width:0.8;" x="50.14375" xlink:href="#m06b4c95937" y="337.159219"/>
      </g>
     </g>
     <g id="text_8">
      <!-- 0.82 -->
      <defs>
       <path d="M 10.6875 12.40625 
L 21 12.40625 
L 21 0 
L 10.6875 0 
z
" id="DejaVuSans-46"/>
      </defs>
      <g transform="translate(20.878125 340.958437)scale(0.1 -0.1)">
       <use xlink:href="#DejaVuSans-48"/>
       <use x="63.623047" xlink:href="#DejaVuSans-46"/>
       <use x="95.410156" xlink:href="#DejaVuSans-56"/>
       <use x="159.033203" xlink:href="#DejaVuSans-50"/>
      </g>
     </g>
    </g>
    <g id="ytick_2">
     <g id="line2d_15">
      <path clip-path="url(#p1892eb9dd0)" d="M 50.14375 296.389219 
L 719.74375 296.389219 
" style="fill:none;stroke:#b0b0b0;stroke-linecap:square;stroke-width:0.8;"/>
     </g>
     <g id="line2d_16">
      <g>
       <use style="stroke:#000000;stroke-width:0.8;" x="50.14375" xlink:href="#m06b4c95937" y="296.389219"/>
      </g>
     </g>
     <g id="text_9">
      <!-- 0.84 -->
      <g transform="translate(20.878125 300.188437)scale(0.1 -0.1)">
       <use xlink:href="#DejaVuSans-48"/>
       <use x="63.623047" xlink:href="#DejaVuSans-46"/>
       <use x="95.410156" xlink:href="#DejaVuSans-56"/>
       <use x="159.033203" xlink:href="#DejaVuSans-52"/>
      </g>
     </g>
    </g>
    <g id="ytick_3">
     <g id="line2d_17">
      <path clip-path="url(#p1892eb9dd0)" d="M 50.14375 255.619219 
L 719.74375 255.619219 
" style="fill:none;stroke:#b0b0b0;stroke-linecap:square;stroke-width:0.8;"/>
     </g>
     <g id="line2d_18">
      <g>
       <use style="stroke:#000000;stroke-width:0.8;" x="50.14375" xlink:href="#m06b4c95937" y="255.619219"/>
      </g>
     </g>
     <g id="text_10">
      <!-- 0.86 -->
      <g transform="translate(20.878125 259.418437)scale(0.1 -0.1)">
       <use xlink:href="#DejaVuSans-48"/>
       <use x="63.623047" xlink:href="#DejaVuSans-46"/>
       <use x="95.410156" xlink:href="#DejaVuSans-56"/>
       <use x="159.033203" xlink:href="#DejaVuSans-54"/>
      </g>
     </g>
    </g>
    <g id="ytick_4">
     <g id="line2d_19">
      <path clip-path="url(#p1892eb9dd0)" d="M 50.14375 214.849219 
L 719.74375 214.849219 
" style="fill:none;stroke:#b0b0b0;stroke-linecap:square;stroke-width:0.8;"/>
     </g>
     <g id="line2d_20">
      <g>
       <use style="stroke:#000000;stroke-width:0.8;" x="50.14375" xlink:href="#m06b4c95937" y="214.849219"/>
      </g>
     </g>
     <g id="text_11">
      <!-- 0.88 -->
      <g transform="translate(20.878125 218.648437)scale(0.1 -0.1)">
       <use xlink:href="#DejaVuSans-48"/>
       <use x="63.623047" xlink:href="#DejaVuSans-46"/>
       <use x="95.410156" xlink:href="#DejaVuSans-56"/>
       <use x="159.033203" xlink:href="#DejaVuSans-56"/>
      </g>
     </g>
    </g>
    <g id="ytick_5">
     <g id="line2d_21">
      <path clip-path="url(#p1892eb9dd0)" d="M 50.14375 174.079219 
L 719.74375 174.079219 
" style="fill:none;stroke:#b0b0b0;stroke-linecap:square;stroke-width:0.8;"/>
     </g>
     <g id="line2d_22">
      <g>
       <use style="stroke:#000000;stroke-width:0.8;" x="50.14375" xlink:href="#m06b4c95937" y="174.079219"/>
      </g>
     </g>
     <g id="text_12">
      <!-- 0.90 -->
      <defs>
       <path d="M 10.984375 1.515625 
L 10.984375 10.5 
Q 14.703125 8.734375 18.5 7.8125 
Q 22.3125 6.890625 25.984375 6.890625 
Q 35.75 6.890625 40.890625 13.453125 
Q 46.046875 20.015625 46.78125 33.40625 
Q 43.953125 29.203125 39.59375 26.953125 
Q 35.25 24.703125 29.984375 24.703125 
Q 19.046875 24.703125 12.671875 31.3125 
Q 6.296875 37.9375 6.296875 49.421875 
Q 6.296875 60.640625 12.9375 67.421875 
Q 19.578125 74.21875 30.609375 74.21875 
Q 43.265625 74.21875 49.921875 64.515625 
Q 56.59375 54.828125 56.59375 36.375 
Q 56.59375 19.140625 48.40625 8.859375 
Q 40.234375 -1.421875 26.421875 -1.421875 
Q 22.703125 -1.421875 18.890625 -0.6875 
Q 15.09375 0.046875 10.984375 1.515625 
z
M 30.609375 32.421875 
Q 37.25 32.421875 41.125 36.953125 
Q 45.015625 41.5 45.015625 49.421875 
Q 45.015625 57.28125 41.125 61.84375 
Q 37.25 66.40625 30.609375 66.40625 
Q 23.96875 66.40625 20.09375 61.84375 
Q 16.21875 57.28125 16.21875 49.421875 
Q 16.21875 41.5 20.09375 36.953125 
Q 23.96875 32.421875 30.609375 32.421875 
z
" id="DejaVuSans-57"/>
      </defs>
      <g transform="translate(20.878125 177.878437)scale(0.1 -0.1)">
       <use xlink:href="#DejaVuSans-48"/>
       <use x="63.623047" xlink:href="#DejaVuSans-46"/>
       <use x="95.410156" xlink:href="#DejaVuSans-57"/>
       <use x="159.033203" xlink:href="#DejaVuSans-48"/>
      </g>
     </g>
    </g>
    <g id="ytick_6">
     <g id="line2d_23">
      <path clip-path="url(#p1892eb9dd0)" d="M 50.14375 133.309219 
L 719.74375 133.309219 
" style="fill:none;stroke:#b0b0b0;stroke-linecap:square;stroke-width:0.8;"/>
     </g>
     <g id="line2d_24">
      <g>
       <use style="stroke:#000000;stroke-width:0.8;" x="50.14375" xlink:href="#m06b4c95937" y="133.309219"/>
      </g>
     </g>
     <g id="text_13">
      <!-- 0.92 -->
      <g transform="translate(20.878125 137.108437)scale(0.1 -0.1)">
       <use xlink:href="#DejaVuSans-48"/>
       <use x="63.623047" xlink:href="#DejaVuSans-46"/>
       <use x="95.410156" xlink:href="#DejaVuSans-57"/>
       <use x="159.033203" xlink:href="#DejaVuSans-50"/>
      </g>
     </g>
    </g>
    <g id="ytick_7">
     <g id="line2d_25">
      <path clip-path="url(#p1892eb9dd0)" d="M 50.14375 92.539219 
L 719.74375 92.539219 
" style="fill:none;stroke:#b0b0b0;stroke-linecap:square;stroke-width:0.8;"/>
     </g>
     <g id="line2d_26">
      <g>
       <use style="stroke:#000000;stroke-width:0.8;" x="50.14375" xlink:href="#m06b4c95937" y="92.539219"/>
      </g>
     </g>
     <g id="text_14">
      <!-- 0.94 -->
      <g transform="translate(20.878125 96.338437)scale(0.1 -0.1)">
       <use xlink:href="#DejaVuSans-48"/>
       <use x="63.623047" xlink:href="#DejaVuSans-46"/>
       <use x="95.410156" xlink:href="#DejaVuSans-57"/>
       <use x="159.033203" xlink:href="#DejaVuSans-52"/>
      </g>
     </g>
    </g>
    <g id="ytick_8">
     <g id="line2d_27">
      <path clip-path="url(#p1892eb9dd0)" d="M 50.14375 51.769219 
L 719.74375 51.769219 
" style="fill:none;stroke:#b0b0b0;stroke-linecap:square;stroke-width:0.8;"/>
     </g>
     <g id="line2d_28">
      <g>
       <use style="stroke:#000000;stroke-width:0.8;" x="50.14375" xlink:href="#m06b4c95937" y="51.769219"/>
      </g>
     </g>
     <g id="text_15">
      <!-- 0.96 -->
      <g transform="translate(20.878125 55.568437)scale(0.1 -0.1)">
       <use xlink:href="#DejaVuSans-48"/>
       <use x="63.623047" xlink:href="#DejaVuSans-46"/>
       <use x="95.410156" xlink:href="#DejaVuSans-57"/>
       <use x="159.033203" xlink:href="#DejaVuSans-54"/>
      </g>
     </g>
    </g>
    <g id="ytick_9">
     <g id="line2d_29">
      <path clip-path="url(#p1892eb9dd0)" d="M 50.14375 10.999219 
L 719.74375 10.999219 
" style="fill:none;stroke:#b0b0b0;stroke-linecap:square;stroke-width:0.8;"/>
     </g>
     <g id="line2d_30">
      <g>
       <use style="stroke:#000000;stroke-width:0.8;" x="50.14375" xlink:href="#m06b4c95937" y="10.999219"/>
      </g>
     </g>
     <g id="text_16">
      <!-- 0.98 -->
      <g transform="translate(20.878125 14.798437)scale(0.1 -0.1)">
       <use xlink:href="#DejaVuSans-48"/>
       <use x="63.623047" xlink:href="#DejaVuSans-46"/>
       <use x="95.410156" xlink:href="#DejaVuSans-57"/>
       <use x="159.033203" xlink:href="#DejaVuSans-56"/>
      </g>
     </g>
    </g>
    <g id="text_17">
     <!-- Accuracy -->
     <defs>
      <path d="M 34.1875 63.1875 
L 20.796875 26.90625 
L 47.609375 26.90625 
z
M 28.609375 72.90625 
L 39.796875 72.90625 
L 67.578125 0 
L 57.328125 0 
L 50.6875 18.703125 
L 17.828125 18.703125 
L 11.1875 0 
L 0.78125 0 
z
" id="DejaVuSans-65"/>
      <path d="M 8.5 21.578125 
L 8.5 54.6875 
L 17.484375 54.6875 
L 17.484375 21.921875 
Q 17.484375 14.15625 20.5 10.265625 
Q 23.53125 6.390625 29.59375 6.390625 
Q 36.859375 6.390625 41.078125 11.03125 
Q 45.3125 15.671875 45.3125 23.6875 
L 45.3125 54.6875 
L 54.296875 54.6875 
L 54.296875 0 
L 45.3125 0 
L 45.3125 8.40625 
Q 42.046875 3.421875 37.71875 1 
Q 33.40625 -1.421875 27.6875 -1.421875 
Q 18.265625 -1.421875 13.375 4.4375 
Q 8.5 10.296875 8.5 21.578125 
z
M 31.109375 56 
z
" id="DejaVuSans-117"/>
      <path d="M 41.109375 46.296875 
Q 39.59375 47.171875 37.8125 47.578125 
Q 36.03125 48 33.890625 48 
Q 26.265625 48 22.1875 43.046875 
Q 18.109375 38.09375 18.109375 28.8125 
L 18.109375 0 
L 9.078125 0 
L 9.078125 54.6875 
L 18.109375 54.6875 
L 18.109375 46.1875 
Q 20.953125 51.171875 25.484375 53.578125 
Q 30.03125 56 36.53125 56 
Q 37.453125 56 38.578125 55.875 
Q 39.703125 55.765625 41.0625 55.515625 
z
" id="DejaVuSans-114"/>
      <path d="M 34.28125 27.484375 
Q 23.390625 27.484375 19.1875 25 
Q 14.984375 22.515625 14.984375 16.5 
Q 14.984375 11.71875 18.140625 8.90625 
Q 21.296875 6.109375 26.703125 6.109375 
Q 34.1875 6.109375 38.703125 11.40625 
Q 43.21875 16.703125 43.21875 25.484375 
L 43.21875 27.484375 
z
M 52.203125 31.203125 
L 52.203125 0 
L 43.21875 0 
L 43.21875 8.296875 
Q 40.140625 3.328125 35.546875 0.953125 
Q 30.953125 -1.421875 24.3125 -1.421875 
Q 15.921875 -1.421875 10.953125 3.296875 
Q 6 8.015625 6 15.921875 
Q 6 25.140625 12.171875 29.828125 
Q 18.359375 34.515625 30.609375 34.515625 
L 43.21875 34.515625 
L 43.21875 35.40625 
Q 43.21875 41.609375 39.140625 45 
Q 35.0625 48.390625 27.6875 48.390625 
Q 23 48.390625 18.546875 47.265625 
Q 14.109375 46.140625 10.015625 43.890625 
L 10.015625 52.203125 
Q 14.9375 54.109375 19.578125 55.046875 
Q 24.21875 56 28.609375 56 
Q 40.484375 56 46.34375 49.84375 
Q 52.203125 43.703125 52.203125 31.203125 
z
" id="DejaVuSans-97"/>
      <path d="M 32.171875 -5.078125 
Q 28.375 -14.84375 24.75 -17.8125 
Q 21.140625 -20.796875 15.09375 -20.796875 
L 7.90625 -20.796875 
L 7.90625 -13.28125 
L 13.1875 -13.28125 
Q 16.890625 -13.28125 18.9375 -11.515625 
Q 21 -9.765625 23.484375 -3.21875 
L 25.09375 0.875 
L 2.984375 54.6875 
L 12.5 54.6875 
L 29.59375 11.921875 
L 46.6875 54.6875 
L 56.203125 54.6875 
z
" id="DejaVuSans-121"/>
     </defs>
     <g transform="translate(14.798438 196.994062)rotate(-90)scale(0.1 -0.1)">
      <use xlink:href="#DejaVuSans-65"/>
      <use x="68.392578" xlink:href="#DejaVuSans-99"/>
      <use x="123.373047" xlink:href="#DejaVuSans-99"/>
      <use x="178.353516" xlink:href="#DejaVuSans-117"/>
      <use x="241.732422" xlink:href="#DejaVuSans-114"/>
      <use x="282.845703" xlink:href="#DejaVuSans-97"/>
      <use x="344.125" xlink:href="#DejaVuSans-99"/>
      <use x="399.105469" xlink:href="#DejaVuSans-121"/>
     </g>
    </g>
   </g>
   <g id="line2d_31">
    <path clip-path="url(#p1892eb9dd0)" d="M 77.014184 375.715469 
L 78.818759 365.231491 
L 80.732063 355.129943 
L 82.645367 345.949626 
L 85.196439 334.943498 
L 87.747511 325.098163 
L 90.298583 316.141075 
L 93.487424 305.835985 
L 96.676264 296.38524 
L 99.865104 287.727911 
L 103.053944 279.803144 
L 106.242784 272.55009 
L 109.431625 265.907895 
L 112.620465 259.815707 
L 115.809305 254.212675 
L 118.998145 249.037947 
L 122.824753 243.307955 
L 126.651362 238.001942 
L 131.115738 232.207247 
L 136.217882 225.956532 
L 141.320027 220.064687 
L 146.422171 214.512924 
L 151.524315 209.282457 
L 156.626459 204.3545 
L 161.728604 199.710265 
L 167.468516 194.801248 
L 173.208428 190.200791 
L 178.948341 185.882147 
L 185.326021 181.381639 
L 191.703702 177.159332 
L 198.71915 172.792323 
L 206.372367 168.304207 
L 214.663351 163.697275 
L 223.592104 158.986925 
L 232.520856 154.524523 
L 241.449609 150.298799 
L 251.016129 146.021072 
L 260.58265 141.988238 
L 270.149171 138.186434 
L 280.353459 134.370204 
L 290.557748 130.784237 
L 301.399804 127.207627 
L 312.879629 123.66083 
L 324.997222 120.159033 
L 337.752583 116.71105 
L 351.145712 113.318146 
L 366.452144 109.677823 
L 383.671882 105.823228 
L 400.891619 102.194434 
L 418.749124 98.655492 
L 437.244397 95.215281 
L 456.377438 91.880214 
L 476.786015 88.55337 
L 497.832361 85.348962 
L 520.154242 82.174835 
L 543.751659 79.044679 
L 564.160237 76.558409 
L 582.017742 74.604874 
L 598.599711 73.016884 
L 614.543912 71.721616 
L 627.299273 70.643324 
L 634.952489 69.780056 
L 641.33017 68.847135 
L 647.070082 67.790125 
L 652.172226 66.642058 
L 657.274371 65.266719 
L 661.738747 63.853442 
L 666.203123 62.22339 
L 670.667499 60.356604 
L 675.131876 58.233125 
L 679.596252 55.832993 
L 683.42286 53.540414 
L 687.249468 51.017347 
L 687.887236 50.573545 
L 687.887236 50.573545 
" style="fill:none;stroke:#377eb8;stroke-linecap:square;stroke-width:2;"/>
   </g>
   <g id="line2d_32">
    <path clip-path="url(#p1892eb9dd0)" d="M 65.886141 375.715469 
L 66.701166 363.583397 
L 67.976702 349.565186 
L 69.252238 339.790975 
L 70.527774 332.580413 
L 73.078846 320.346351 
L 75.629918 309.144016 
L 78.180991 298.882623 
L 80.732063 289.484901 
L 83.283135 280.873582 
L 85.834207 272.971394 
L 88.385279 265.701069 
L 90.936351 258.985352 
L 94.125192 251.275298 
L 97.314032 244.271366 
L 100.502872 237.923707 
L 103.691712 232.182474 
L 106.880552 226.997816 
L 110.069393 222.319884 
L 113.258233 218.098831 
L 116.447073 214.284806 
L 119.635913 210.827961 
L 122.824753 207.678447 
L 126.651362 204.23452 
L 131.115738 200.570364 
L 135.580114 197.187416 
L 140.04449 194.059151 
L 144.508867 191.171938 
L 149.611011 188.149949 
L 154.713155 185.404657 
L 159.8153 182.915716 
L 164.917444 180.66278 
L 170.657356 178.384995 
L 176.397269 176.351187 
L 182.774949 174.342311 
L 189.790398 172.391705 
L 197.443614 170.513095 
L 206.372367 168.561003 
L 218.489959 166.151778 
L 231.883088 163.714266 
L 245.276217 161.501315 
L 259.307114 159.412116 
L 273.338011 157.545195 
L 288.006676 155.817648 
L 303.313109 154.244303 
L 319.25731 152.837357 
L 335.839279 151.605954 
L 353.059016 150.555756 
L 370.916521 149.688485 
L 390.049562 148.979464 
L 411.733675 148.402861 
L 437.244397 147.95679 
L 472.959407 147.580638 
L 529.720763 146.986183 
L 555.231484 146.483327 
L 576.915598 145.83915 
L 596.048639 145.055772 
L 613.906144 144.105679 
L 630.488113 143.004885 
L 646.432314 141.722937 
L 661.738747 140.264228 
L 676.407412 138.637354 
L 687.887236 137.195938 
L 687.887236 137.195938 
" style="fill:none;stroke:#4daf4a;stroke-linecap:square;stroke-width:2;"/>
   </g>
   <g id="line2d_33">
    <path clip-path="url(#p1892eb9dd0)" d="M 76.538683 375.715469 
L 77.125205 371.864683 
L 77.73842 370.284887 
L 78.301733 375.715469 
M 78.374606 375.715469 
L 78.96485 363.353931 
L 79.578065 360.347191 
L 80.19128 353.824002 
L 80.804495 356.219212 
L 81.417709 347.14784 
L 82.030924 351.938381 
L 82.644139 347.249782 
L 83.257354 346.128664 
L 83.870569 344.293952 
L 84.483784 336.190967 
L 85.096999 335.222701 
L 85.710214 328.036951 
L 86.323429 335.528406 
L 86.936643 329.311043 
L 87.549858 324.41856 
L 88.163073 322.430996 
L 88.776288 318.354049 
L 89.389503 317.946403 
L 90.002718 316.723221 
L 90.615933 312.697184 
L 91.229148 318.659874 
L 91.842363 308.722178 
L 92.455577 304.135521 
L 93.068792 304.135521 
L 93.682007 299.803658 
L 94.295222 299.24316 
L 94.908437 301.179692 
L 95.521652 300.924898 
L 96.134867 294.809355 
L 96.748082 292.668939 
L 97.361297 291.394847 
L 97.974511 293.280469 
L 98.587726 290.426582 
L 99.200941 285.839924 
L 99.814156 287.36881 
L 100.427371 284.158187 
L 101.040586 283.444715 
L 101.653801 279.214915 
L 102.267016 281.253389 
L 102.880231 284.005335 
L 103.493445 278.807148 
L 104.10666 278.042765 
L 104.719875 275.239788 
L 105.33309 277.686029 
L 105.946305 276.259086 
L 106.55952 274.271522 
L 107.172735 264.690562 
L 107.78595 270.347427 
L 108.399165 271.366603 
L 109.01238 266.729036 
L 109.625594 263.671264 
L 110.238809 268.359863 
L 110.852024 268.054037 
L 112.078454 256.791339 
L 113.304884 265.047298 
L 113.918099 255.313485 
L 114.531314 261.276055 
L 115.144528 258.320225 
L 115.757743 252.510508 
L 116.370958 258.065431 
L 116.984173 254.701834 
L 117.597388 254.192246 
L 118.210603 249.605589 
L 118.823818 247.618147 
L 119.437033 254.752866 
L 120.050248 248.484471 
L 120.663462 249.04509 
L 121.276677 243.541078 
L 121.889892 244.713227 
L 122.503107 245.222815 
L 123.116322 243.184342 
L 123.729537 237.629419 
L 124.342752 247.108437 
L 124.955967 246.242113 
L 125.569182 239.158304 
L 126.795611 233.042883 
L 127.408826 236.763095 
L 128.022041 235.998713 
L 128.635256 235.590945 
L 129.248471 237.017889 
L 129.861686 230.698584 
L 130.474901 237.476567 
L 131.088116 233.195735 
L 131.70133 236.610243 
L 132.92776 226.570604 
L 133.540975 232.787968 
L 134.15419 229.475402 
L 134.767405 229.220608 
L 135.38062 224.735893 
L 135.993835 223.563865 
L 136.60705 226.213868 
L 137.220264 228.201432 
L 137.833479 221.882005 
L 138.446694 220.608035 
L 139.059909 224.277337 
L 139.673124 221.117623 
L 140.286339 222.748451 
L 140.899554 221.983947 
L 141.512769 215.613611 
L 142.125984 213.269433 
L 142.739199 215.053112 
L 143.352413 218.875266 
L 143.965628 218.926176 
L 144.578843 212.963607 
L 145.192058 217.040554 
L 145.805273 217.193528 
L 146.418488 216.378114 
L 147.031703 209.651041 
L 147.644918 208.071246 
L 148.258133 212.352077 
L 148.871347 210.364513 
L 149.484562 212.199225 
L 150.097777 212.861665 
L 150.710992 214.033815 
L 151.324207 207.102858 
L 151.937422 210.466455 
L 152.550637 201.853761 
L 153.163852 204.300002 
L 153.777067 202.771117 
L 154.390281 204.096118 
L 155.003496 205.828888 
L 155.616711 202.210497 
L 156.229926 208.32604 
L 157.456356 198.337312 
L 158.069571 201.242231 
L 158.682786 202.720085 
L 159.296001 204.75868 
L 159.909215 200.477849 
L 160.52243 205.217358 
L 161.135645 199.305699 
L 161.74886 195.585366 
L 162.362075 199.662435 
L 162.97529 200.172023 
L 163.588505 199.152725 
L 164.20172 202.873058 
L 164.814935 198.184459 
L 165.428149 199.509461 
L 166.041364 198.337312 
L 166.654579 194.769952 
L 167.267794 193.699744 
L 167.881009 192.884331 
L 168.494224 198.643137 
L 169.107439 192.119948 
L 169.720654 194.05648 
L 170.333869 193.954538 
L 171.560298 191.202593 
L 172.173513 189.622797 
L 172.786728 187.635233 
L 173.399943 189.215029 
L 174.013158 188.858293 
L 174.626373 187.278497 
L 175.239588 186.870851 
L 175.852803 188.144821 
L 176.466018 183.711138 
L 177.079232 189.673707 
L 177.692447 186.921761 
L 178.305662 186.004406 
L 178.918877 189.520855 
L 179.532092 190.845857 
L 180.145307 188.450647 
L 180.758522 187.686265 
L 181.371737 184.3737 
L 181.984952 187.380439 
L 182.598166 188.450647 
L 183.211381 176.729271 
L 183.824596 184.526552 
L 184.437811 176.627329 
L 185.051026 179.837953 
L 185.664241 180.041836 
L 186.277456 183.456344 
L 186.890671 177.391833 
L 187.503886 178.920597 
L 188.730315 180.602456 
L 189.34353 179.226423 
L 189.956745 177.035097 
L 190.56996 178.258157 
L 191.183175 179.022539 
L 191.79639 176.219683 
L 192.409605 182.335104 
L 193.02282 178.309067 
L 193.636034 181.366838 
L 194.249249 171.429142 
L 194.862464 173.875384 
L 195.475679 174.588855 
L 196.088894 178.767745 
L 196.702109 172.040672 
L 197.315324 172.907118 
L 197.928539 175.149475 
L 198.541754 175.608153 
L 199.154968 172.805176 
L 199.768183 174.89456 
L 200.994613 171.27629 
L 201.607828 174.181088 
L 202.221043 165.925251 
L 202.834258 168.88108 
L 203.447473 166.995459 
L 204.060688 163.835745 
L 204.673902 169.135874 
L 205.287117 168.422402 
L 205.900332 171.734968 
L 206.513547 171.27629 
L 207.126762 164.905953 
L 207.739977 162.001155 
L 208.353192 167.352195 
L 208.966407 169.288726 
L 209.579622 167.759841 
L 210.192836 164.192481 
L 210.806051 167.250253 
L 211.419266 159.605824 
L 212.032481 167.199221 
L 213.258911 169.135874 
L 213.872126 165.670457 
L 214.485341 158.535616 
L 215.711771 160.727064 
L 216.324985 162.357891 
L 216.9382 167.505047 
L 217.551415 161.69533 
L 218.16463 162.357891 
L 218.777845 159.554914 
L 219.39106 157.669292 
L 220.004275 160.625122 
L 220.61749 156.446232 
L 221.230705 158.382764 
L 221.843919 154.815405 
L 222.457134 159.147146 
L 223.070349 158.229912 
L 223.683564 156.446232 
L 224.296779 156.802968 
L 224.909994 155.936523 
L 225.523209 152.369163 
L 226.136424 155.477967 
L 226.749639 150.891309 
L 227.362853 157.771234 
L 227.976068 162.612685 
L 228.589283 153.592345 
L 229.202498 161.0838 
L 229.815713 157.159704 
L 230.428928 154.305817 
L 231.655358 155.477967 
L 232.268573 150.432632 
L 232.881787 158.17888 
L 233.495002 150.024864 
L 234.108217 154.152843 
L 235.334647 152.267222 
L 235.947862 153.388461 
L 236.561077 149.77007 
L 237.174292 151.910486 
L 237.787507 151.298956 
L 239.013936 156.344291 
L 239.627151 148.903746 
L 240.240366 148.648952 
L 240.853581 149.413334 
L 241.466796 149.464366 
L 242.080011 144.011385 
L 242.693226 149.821102 
L 243.306441 147.782628 
L 243.919655 147.833538 
L 245.146085 151.298956 
L 245.7593 149.362424 
L 246.372515 149.77007 
L 246.98573 152.776931 
L 247.598945 152.318253 
L 248.21216 145.183534 
L 248.825375 148.954656 
L 249.43859 145.183534 
L 250.051804 139.475638 
L 250.665019 147.018124 
L 251.278234 148.954656 
L 252.504664 143.909443 
L 253.117879 148.139364 
L 254.344309 141.616053 
L 255.570738 143.195971 
L 256.183953 144.775767 
L 256.797168 139.526669 
L 257.410383 144.622915 
L 258.636813 141.769027 
L 259.250028 141.717995 
L 259.863243 140.953613 
L 260.476458 140.647787 
L 261.089672 143.450765 
L 261.702887 140.18911 
L 262.316102 142.839235 
L 262.929317 142.686261 
L 264.155747 139.118902 
L 264.768962 140.444025 
L 265.995392 138.609314 
L 266.608606 142.176673 
L 267.221821 141.870969 
L 267.835036 143.195971 
L 268.448251 134.481334 
L 269.061466 142.125763 
L 269.674681 135.500632 
L 270.287896 138.150636 
L 270.901111 138.660224 
L 271.514326 137.641048 
L 272.12754 140.240141 
L 272.740755 138.915139 
L 273.35397 138.099726 
L 273.967185 134.634187 
L 274.5804 133.360216 
L 275.193615 136.672782 
L 275.80683 141.055555 
L 276.420045 133.61501 
L 277.03326 140.444025 
L 277.646474 139.424727 
L 278.259689 136.366956 
L 278.872904 135.092864 
L 279.486119 134.78716 
L 280.099334 135.857368 
L 280.712549 129.843767 
L 281.325764 135.806336 
L 281.938979 134.583276 
L 282.552194 138.96605 
L 283.165409 130.964885 
L 283.778623 136.672782 
L 284.391838 133.156333 
L 285.005053 132.952449 
L 285.618268 129.792857 
L 286.231483 137.335222 
L 286.844698 131.423563 
L 287.457913 130.404387 
L 288.684343 136.265014 
L 289.297557 132.901539 
L 289.910772 134.022657 
L 290.523987 131.576537 
L 291.137202 131.525505 
L 291.750417 131.627447 
L 292.363632 128.518765 
L 292.976847 129.283147 
L 293.590062 130.557239 
L 294.203277 130.251413 
L 294.816491 130.302445 
L 295.429706 134.124599 
L 296.042921 127.397526 
L 296.656136 130.659181 
L 297.269351 130.353355 
L 297.882566 129.385089 
L 298.495781 123.320578 
L 299.108996 132.188067 
L 299.722211 124.951406 
L 300.335425 126.480292 
L 300.94864 127.60141 
L 302.17507 132.493771 
L 302.788285 124.441696 
L 303.4015 127.856204 
L 304.014715 125.715788 
L 304.62793 126.633144 
L 305.241145 130.404387 
L 305.854359 126.633144 
L 306.467574 124.237934 
L 307.080789 125.460994 
L 307.694004 125.155168 
L 308.307219 123.575372 
L 308.920434 126.582112 
L 309.533649 127.907235 
L 310.760079 123.065784 
L 311.373293 124.08496 
L 311.986508 120.874337 
L 312.599723 123.269547 
L 313.212938 121.842603 
L 313.826153 122.709048 
L 314.439368 127.244674 
L 315.052583 119.906071 
L 315.665798 125.970582 
L 316.892227 121.129131 
L 317.505442 121.587809 
L 318.118657 126.42926 
L 318.731872 117.052183 
L 319.345087 120.568633 
L 319.958302 121.740782 
L 320.571517 121.434957 
L 321.184732 122.81099 
L 321.797947 123.116694 
L 322.411162 119.039747 
L 323.024376 119.549335 
L 323.637591 126.531202 
L 324.250806 121.078221 
L 324.864021 120.313839 
L 325.477236 117.663713 
L 326.090451 118.020449 
L 326.703666 115.523298 
L 327.316881 116.8483 
L 327.930096 119.498425 
L 328.54331 119.804129 
L 329.156525 116.950241 
L 329.76974 117.45983 
L 330.382955 122.301281 
L 330.99617 114.249206 
L 331.609385 122.148429 
L 332.2226 121.02731 
L 332.835815 115.981976 
L 333.44903 119.396483 
L 334.062244 119.294541 
L 334.675459 116.185859 
L 335.288674 118.122391 
L 335.901889 118.886773 
L 336.515104 117.816565 
L 337.128319 119.243509 
L 337.741534 119.396483 
L 338.354749 116.8483 
L 338.967964 117.45983 
L 339.581178 114.45309 
L 340.194393 113.739618 
L 340.807608 114.198296 
L 341.420823 116.899331 
L 342.034038 112.924204 
L 342.647253 115.421356 
L 343.260468 116.746358 
L 343.873683 117.612803 
L 344.486898 112.312674 
L 345.100112 112.414616 
L 346.326542 110.579905 
L 346.939757 116.593506 
L 347.552972 111.701144 
L 348.166187 113.077056 
L 348.779402 114.045444 
L 349.392617 110.376142 
L 350.005832 113.331972 
L 350.619046 114.758916 
L 351.232261 114.504 
L 351.845476 115.217472 
L 352.458691 113.178998 
L 353.071906 108.592463 
L 353.685121 113.077056 
L 354.298336 111.701144 
L 354.911551 112.822262 
L 355.524766 116.8483 
L 356.137981 112.924204 
L 356.751195 115.319414 
L 357.36441 112.159822 
L 357.977625 105.687543 
L 358.59084 110.325111 
L 359.204055 111.955938 
L 359.81727 115.727182 
L 360.430485 107.165397 
L 361.0437 110.579905 
L 361.656915 106.808661 
L 362.270129 108.745315 
L 362.883344 108.031843 
L 363.496559 107.878991 
L 364.109774 109.407755 
L 364.722989 106.350105 
L 365.336204 114.860736 
L 365.949419 105.177955 
L 366.562634 107.726017 
L 367.175849 105.177955 
L 367.789063 110.172259 
L 368.402278 111.955938 
L 369.015493 109.66267 
L 369.628708 108.490521 
L 370.241923 107.063577 
L 370.855138 109.356845 
L 371.468353 105.48366 
L 372.081568 111.803086 
L 372.694783 108.082753 
L 373.921212 106.757751 
L 374.534427 103.496096 
L 375.147642 102.935598 
L 375.760857 109.254903 
L 376.374072 100.13262 
L 376.987287 111.803086 
L 377.600502 109.509697 
L 378.213717 105.381718 
L 378.826931 105.381718 
L 379.440146 104.209689 
L 380.053361 104.566425 
L 380.666576 106.553867 
L 381.279791 102.273036 
L 381.893006 103.496096 
L 382.506221 110.528994 
L 383.119436 107.114487 
L 383.732651 102.782624 
L 384.345865 107.114487 
L 384.95908 108.745315 
L 385.572295 105.279897 
L 386.18551 105.024982 
L 386.798725 108.949199 
L 387.41194 107.573165 
L 388.025155 104.821219 
L 388.63837 104.362541 
L 389.251585 108.847257 
L 389.864799 103.496096 
L 390.478014 106.910603 
L 391.091229 108.694283 
L 391.704444 103.547128 
L 392.317659 107.827959 
L 392.930874 105.228866 
L 393.544089 101.86539 
L 394.157304 104.31151 
L 395.383734 102.578862 
L 395.996948 100.948034 
L 396.610163 104.158658 
L 397.223378 105.789485 
L 397.836593 100.846092 
L 398.449808 101.202828 
L 399.063023 103.190392 
L 399.676238 103.801922 
L 400.289453 100.030678 
L 400.902668 100.998944 
L 401.515882 103.343244 
L 402.129097 104.923161 
L 402.742312 98.654766 
L 403.355527 99.623032 
L 403.968742 97.941294 
L 404.581957 104.2606 
L 405.195172 102.324068 
L 405.808387 98.196089 
L 406.421602 98.756587 
L 407.034816 100.846092 
L 407.648031 106.757751 
L 408.261246 97.380675 
L 408.874461 98.043115 
L 409.487676 95.495053 
L 410.100891 100.285472 
L 410.714106 100.998944 
L 411.327321 97.941294 
L 411.940536 102.324068 
L 412.55375 101.712416 
L 413.166965 96.259435 
L 413.78018 97.023939 
L 414.393395 101.610596 
L 415.00661 100.438446 
L 415.619825 98.960471 
L 416.23304 103.445186 
L 416.846255 100.642208 
L 417.45947 98.399851 
L 418.072684 103.852953 
L 418.685899 100.998944 
L 419.299114 104.566425 
L 419.912329 98.246999 
L 420.525544 98.552824 
L 421.138759 99.368238 
L 421.751974 95.545963 
L 422.365189 101.406712 
L 422.978404 94.883523 
L 423.591618 101.508654 
L 424.204833 95.800879 
L 424.818048 96.412409 
L 425.431263 95.647905 
L 426.657693 99.775884 
L 427.270908 95.749847 
L 427.884123 98.756587 
L 428.497338 96.871087 
L 429.110553 96.259435 
L 429.723767 94.679639 
L 430.336982 95.902699 
L 430.950197 95.291169 
L 431.563412 95.902699 
L 432.176627 97.584559 
L 432.789842 92.233398 
L 433.403057 101.100886 
L 434.016272 92.28443 
L 434.629487 94.322903 
L 435.242701 95.291169 
L 435.855916 93.609431 
L 436.469131 97.074849 
L 437.082346 94.577697 
L 437.695561 99.164354 
L 438.308776 97.941294 
L 438.921991 93.252695 
L 439.535206 94.424845 
L 440.148421 97.023939 
L 441.37485 94.628729 
L 441.988065 99.419148 
L 442.60128 97.278733 
L 443.214495 91.469016 
L 443.82771 95.800879 
L 444.440925 93.813315 
L 445.05414 93.303606 
L 445.667355 89.685336 
L 446.280569 93.303606 
L 446.893784 94.883523 
L 447.506999 95.800879 
L 448.120214 93.609431 
L 448.733429 97.176791 
L 449.959859 91.469016 
L 450.573074 92.182488 
L 451.186289 94.068109 
L 451.799503 92.488313 
L 452.412718 89.787278 
L 453.025933 95.851789 
L 453.639148 94.526787 
L 454.252363 88.207361 
L 454.865578 90.653602 
L 455.478793 93.711373 
L 456.092008 91.316164 
L 456.705223 90.755544 
L 457.318437 92.33534 
L 457.931652 90.347776 
L 458.544867 93.762284 
L 459.158082 91.16319 
L 459.771297 91.876662 
L 460.384512 89.583394 
L 460.997727 90.602692 
L 461.610942 89.430542 
L 462.224157 90.602692 
L 462.837372 89.736246 
L 463.450586 90.042072 
L 464.063801 89.37951 
L 464.677016 90.908396 
L 465.290231 91.265132 
L 465.903446 92.080546 
L 466.516661 87.188184 
L 467.743091 93.303606 
L 468.356306 87.442978 
L 468.96952 91.265132 
L 470.19595 87.595831 
L 470.809165 88.003598 
L 471.42238 88.003598 
L 472.035595 90.194924 
L 473.262025 85.149711 
L 473.87524 89.736246 
L 474.488454 90.296866 
L 475.101669 87.646862 
L 475.714884 88.462276 
L 476.328099 90.602692 
L 476.941314 87.086243 
L 477.554529 88.15645 
L 478.167744 86.117977 
L 478.780959 87.493889 
L 479.394174 90.908396 
L 480.007388 88.971864 
L 481.233818 83.264089 
L 481.847033 86.474713 
L 482.460248 87.595831 
L 483.073463 90.704512 
L 484.299893 88.207361 
L 484.913108 83.569793 
L 485.526322 86.474713 
L 486.139537 85.761241 
L 486.752752 87.646862 
L 487.365967 85.404505 
L 488.592397 92.080546 
L 489.205612 88.462276 
L 489.818827 83.977561 
L 490.432042 86.525623 
L 491.045256 86.831448 
L 491.658471 83.264089 
L 492.271686 91.927694 
L 492.884901 83.264089 
L 493.498116 89.94013 
L 494.111331 85.455415 
L 494.724546 79.238052 
L 495.337761 81.837145 
L 495.950976 86.882359 
L 496.56419 82.193881 
L 497.177405 86.321739 
L 497.79062 83.009174 
L 498.403835 85.710209 
L 499.01705 82.703469 
L 499.630265 87.952567 
L 500.24348 84.283265 
L 500.856695 85.404505 
L 501.46991 84.181323 
L 502.083125 87.54492 
L 502.696339 82.448675 
L 503.922769 85.200621 
L 504.535984 83.722767 
L 505.149199 85.965003 
L 505.762414 83.824587 
L 506.375629 85.914093 
L 506.988844 83.926529 
L 507.602059 86.168887 
L 508.215273 83.365909 
L 508.828488 79.849582 
L 509.441703 82.907353 
L 510.054918 83.620825 
L 511.281348 86.270829 
L 511.894563 82.601527 
L 512.507778 88.666038 
L 513.120993 79.79855 
L 513.734207 84.640001 
L 514.347422 80.91979 
L 514.960637 84.130413 
L 516.187067 79.085078 
L 516.800282 83.213057 
L 517.413497 84.385207 
L 518.026712 82.499585 
L 518.639927 83.111115 
L 519.253141 82.346733 
L 519.866356 81.021731 
L 520.479571 81.072642 
L 521.092786 79.900492 
L 521.706001 83.416941 
L 522.319216 83.111115 
L 522.932431 83.314999 
L 523.545646 82.601527 
L 524.158861 77.607224 
L 524.772075 84.538059 
L 525.38529 83.824587 
L 525.998505 79.339872 
L 526.61172 79.288962 
L 527.224935 80.053466 
L 527.83815 80.461112 
L 528.451365 79.288962 
L 529.06458 81.684172 
L 529.677795 79.339872 
L 530.291009 79.339872 
L 530.904224 77.148546 
L 531.517439 82.346733 
L 532.130654 81.53132 
L 532.743869 78.830284 
L 533.357084 82.040908 
L 533.970299 80.613964 
L 534.583514 77.556192 
L 535.196729 79.79855 
L 535.809944 78.728342 
L 536.423158 77.250488 
L 537.036373 83.314999 
L 537.649588 81.837145 
L 538.262803 84.385207 
L 538.876018 85.200621 
L 539.489233 77.96396 
L 540.102448 84.945827 
L 540.715663 80.104376 
L 541.328878 79.085078 
L 541.942092 73.530155 
L 542.555307 78.983136 
L 543.168522 76.638958 
L 543.781737 79.034168 
L 544.394952 77.556192 
L 545.008167 76.893752 
L 545.621382 79.13611 
L 546.234597 79.441814 
L 546.847812 80.9707 
L 547.461026 77.811108 
L 548.074241 78.269664 
L 548.687456 81.327436 
L 549.300671 76.18028 
L 550.527101 81.786114 
L 551.753531 78.01487 
L 552.366746 79.492846 
L 552.97996 76.7409 
L 553.593175 78.6264 
L 554.20639 78.167844 
L 554.819605 79.441814 
L 555.43282 77.607224 
L 556.046035 75.059041 
L 556.65925 76.689868 
L 557.272465 77.760076 
L 557.88568 78.116812 
L 558.498894 79.594788 
L 559.112109 73.173419 
L 559.725324 80.053466 
L 560.338539 78.065902 
L 560.951754 78.52458 
L 561.564969 79.441814 
L 562.178184 78.065902 
L 562.791399 78.116812 
L 563.404614 80.104376 
L 564.017828 77.097636 
L 564.631043 76.333132 
L 565.244258 76.282222 
L 565.857473 76.7409 
L 566.470688 78.065902 
L 567.083903 78.830284 
L 567.697118 73.428335 
L 568.310333 75.976397 
L 568.923548 75.721602 
L 569.536763 79.18702 
L 570.149977 80.002434 
L 570.763192 73.937923 
L 571.376407 76.129249 
L 571.989622 74.600363 
L 572.602837 75.364867 
L 573.216052 73.632097 
L 573.829267 76.282222 
L 574.442482 77.097636 
L 575.055697 75.466808 
L 575.668911 69.962796 
L 576.282126 76.995694 
L 576.895341 75.212014 
L 577.508556 75.008131 
L 578.121771 73.530155 
L 578.734986 74.549453 
L 579.348201 76.689868 
L 579.961416 74.906189 
L 580.574631 74.702305 
L 581.187845 72.256185 
L 581.80106 72.918625 
L 582.414275 76.944662 
L 583.02749 69.147382 
L 583.640705 71.440771 
L 584.25392 77.556192 
L 585.48035 73.224451 
L 586.093565 75.262925 
L 586.706779 75.008131 
L 587.319994 74.396601 
L 587.933209 77.148546 
L 588.546424 71.389739 
L 589.159639 75.721602 
L 589.772854 71.950359 
L 590.386069 75.619661 
L 590.999284 75.56875 
L 591.612499 74.702305 
L 592.225713 71.746475 
L 592.838928 75.008131 
L 593.452143 71.899449 
L 594.065358 76.027428 
L 594.678573 70.931062 
L 595.291788 72.969657 
L 595.905003 73.988833 
L 596.518218 72.510979 
L 597.131433 71.746475 
L 598.357862 71.491681 
L 598.971077 73.275361 
L 599.584292 74.039865 
L 600.197507 71.746475 
L 600.810722 70.319532 
L 601.423937 71.695565 
L 602.037152 72.103211 
L 602.650367 72.256185 
L 603.263581 73.071599 
L 603.876796 75.059041 
L 604.490011 73.173419 
L 605.103226 74.600363 
L 605.716441 71.440771 
L 606.329656 70.727299 
L 606.942871 75.772513 
L 607.556086 73.122509 
L 608.169301 67.363702 
L 608.782516 67.669528 
L 609.39573 71.338829 
L 610.008945 70.21759 
L 610.62216 71.084035 
L 611.235375 70.778209 
L 611.84859 75.721602 
L 612.461805 73.275361 
L 613.07502 73.988833 
L 613.688235 70.370563 
L 614.30145 70.421474 
L 614.914664 70.013827 
L 616.141094 74.906189 
L 616.754309 72.052301 
L 617.367524 73.326393 
L 617.980739 67.82238 
L 618.593954 69.759033 
L 619.207169 76.7409 
L 619.820384 70.16668 
L 620.433598 70.319532 
L 621.046813 73.479245 
L 621.660028 72.663831 
L 622.273243 68.383 
L 622.886458 67.669528 
L 623.499673 70.778209 
L 624.112888 70.523415 
L 624.726103 70.676268 
L 625.339318 70.370563 
L 625.952532 68.790646 
L 626.565747 70.268621 
L 627.178962 69.402297 
L 627.792177 70.064738 
L 628.405392 71.746475 
L 629.018607 68.230148 
L 629.631822 69.708002 
L 630.245037 67.720438 
L 630.858252 69.55515 
L 631.471466 68.688826 
L 632.084681 70.523415 
L 632.697896 68.99453 
L 633.311111 68.383 
L 633.924326 65.37626 
L 634.537541 68.383 
L 635.150756 69.962796 
L 635.763971 69.249324 
L 636.377186 66.905024 
L 636.9904 69.504118 
L 637.603615 68.739736 
L 638.21683 72.561889 
L 638.830045 70.370563 
L 639.44326 69.198414 
L 640.056475 68.688826 
L 640.66969 64.20411 
L 641.282905 65.783906 
L 641.89612 71.338829 
L 642.509335 67.465644 
L 643.122549 65.478081 
L 643.735764 68.688826 
L 644.348979 67.669528 
L 644.962194 72.612921 
L 645.575409 69.096472 
L 646.188624 71.797507 
L 646.801839 67.873412 
L 647.415054 68.383 
L 648.028269 67.26176 
L 648.641483 66.59932 
L 649.867913 69.504118 
L 650.481128 69.759033 
L 651.094343 69.504118 
L 651.707558 64.611757 
L 652.320773 67.669528 
L 652.933988 71.950359 
L 653.547203 64.866551 
L 654.160417 63.847374 
L 654.773632 69.60606 
L 655.386847 66.242584 
L 656.000062 68.637794 
L 656.613277 66.0387 
L 657.226492 68.892588 
L 657.839707 69.504118 
L 658.452922 69.809944 
L 659.066137 72.307095 
L 659.679351 67.108908 
L 660.292566 65.274318 
L 660.905781 66.701262 
L 661.518996 66.140642 
L 662.745426 70.064738 
L 663.358641 65.936758 
L 664.585071 64.102168 
L 665.8115 58.190509 
L 666.424715 61.248281 
L 667.03793 56.916418 
L 667.651145 59.362659 
L 668.26436 57.426006 
L 669.49079 57.375096 
L 670.104005 61.197249 
L 670.717219 59.464601 
L 672.556864 57.426006 
L 673.170079 55.387532 
L 673.783294 56.712534 
L 674.396509 54.368356 
L 675.009724 55.030796 
L 675.622939 59.413569 
L 676.236153 54.826912 
L 676.849368 55.387532 
L 677.462583 57.324185 
L 678.075798 54.572118 
L 678.689013 55.7953 
L 679.302228 53.196206 
L 679.915443 51.157611 
L 680.528658 52.992322 
L 681.141873 51.463437 
L 681.755088 54.928854 
L 682.368302 50.240377 
L 682.981517 53.451 
L 683.594732 55.489474 
L 684.207947 55.999062 
L 684.821162 54.470176 
L 685.434377 57.680921 
L 686.047592 54.164472 
L 686.660807 56.45774 
L 687.274022 53.145175 
L 687.887236 52.329761 
L 687.887236 52.329761 
" style="fill:none;stroke:#377eb8;stroke-linecap:square;stroke-opacity:0.25098;stroke-width:1.5;"/>
   </g>
   <g id="line2d_34">
    <path clip-path="url(#p1892eb9dd0)" d="M 66.56844 375.715469 
L 66.700552 368.245563 
L 66.780577 375.715469 
M 67.740013 375.715469 
L 67.926982 353.884147 
L 68.540197 373.169394 
L 69.153412 351.217011 
L 69.766627 341.779547 
L 70.379841 327.418131 
L 70.902874 375.715469 
M 71.085931 375.715469 
L 71.606271 329.059408 
L 72.219486 329.469727 
L 72.832701 319.621822 
L 73.445916 337.881332 
L 74.059131 336.240055 
L 74.672346 318.390864 
L 75.285561 305.465626 
L 75.898775 311.825635 
L 76.51199 309.56894 
L 77.125205 294.591984 
L 77.73842 318.596085 
L 78.351635 296.028162 
L 78.96485 314.082452 
L 79.578065 271.818841 
L 80.19128 304.234668 
L 80.804495 300.541674 
L 81.417709 307.722443 
L 82.030924 284.53898 
L 82.644139 298.079758 
L 83.257354 303.41403 
L 83.870569 280.230568 
L 84.483784 265.458832 
L 85.096999 277.563432 
L 85.710214 264.638194 
L 86.323429 259.509142 
L 86.936643 267.715649 
L 87.549858 252.943913 
L 88.163073 262.586597 
L 88.776288 269.356926 
L 89.389503 251.918054 
L 90.002718 249.661238 
L 90.615933 276.948014 
L 91.229148 251.712955 
L 91.842363 250.276777 
L 92.455577 259.714241 
L 93.068792 249.045819 
L 93.682007 260.945199 
L 94.295222 256.226467 
L 95.521652 237.351539 
L 96.134867 233.863765 
L 96.748082 239.403135 
L 97.361297 242.27537 
L 97.974511 235.915361 
L 98.587726 225.041719 
L 99.200941 232.632807 
L 99.814156 234.479183 
L 100.427371 229.760451 
L 101.040586 250.892317 
L 101.653801 227.093315 
L 102.267016 228.939812 
L 102.880231 242.685689 
L 103.493445 246.173463 
L 104.10666 225.862357 
L 104.719875 217.245532 
L 105.33309 223.810761 
L 105.946305 214.578396 
L 106.55952 239.813454 
L 107.172735 229.760451 
L 107.78595 244.532186 
L 108.399165 224.01586 
L 109.01238 220.322987 
L 109.625594 222.990123 
L 110.238809 223.400442 
L 110.852024 212.937119 
L 111.465239 212.937119 
L 112.078454 221.553944 
L 112.691669 208.218387 
L 113.304884 206.166669 
L 113.918099 217.040311 
L 114.531314 220.733306 
L 115.144528 223.605541 
L 115.757743 206.576988 
L 116.370958 197.755064 
L 116.984173 211.706161 
L 117.597388 218.06617 
L 118.210603 190.574295 
L 118.823818 204.115073 
L 119.437033 195.087928 
L 120.050248 219.092029 
L 120.663462 211.706161 
L 121.276677 195.703346 
L 121.889892 203.499655 
L 122.503107 203.499655 
L 123.116322 218.68171 
L 123.729537 196.934426 
L 124.342752 203.704754 
L 124.955967 201.037618 
L 125.569182 215.193936 
L 126.182396 191.189835 
L 126.795611 219.297128 
L 127.408826 210.269983 
L 128.022041 197.344745 
L 128.635256 199.191121 
L 129.248471 196.113787 
L 129.861686 211.500941 
L 130.474901 211.295842 
L 131.088116 215.604255 
L 131.70133 221.143625 
L 132.314545 206.576988 
L 132.92776 204.115073 
L 133.540975 206.782209 
L 134.15419 194.062069 
L 134.767405 210.885523 
L 135.38062 189.548558 
L 135.993835 199.396341 
L 136.60705 184.214286 
L 137.220264 203.499655 
L 137.833479 181.34193 
L 138.446694 191.805253 
L 139.059909 216.835212 
L 139.673124 188.317479 
L 140.286339 195.498248 
L 140.899554 189.958877 
L 141.512769 192.420792 
L 142.125984 199.80666 
L 142.739199 195.498248 
L 143.352413 194.26729 
L 143.965628 195.908567 
L 144.578843 191.394934 
L 145.192058 192.831112 
L 145.805273 188.933018 
L 146.418488 205.140932 
L 147.031703 186.860645 
L 147.644918 189.958877 
L 148.258133 186.265882 
L 148.871347 198.165383 
L 149.484562 185.240145 
L 150.097777 187.49684 
L 150.710992 187.49684 
L 151.324207 193.036332 
L 151.937422 187.907159 
L 152.550637 186.265882 
L 153.163852 180.521292 
L 153.777067 180.931611 
L 154.390281 193.036332 
L 155.003496 196.524106 
L 155.616711 178.264596 
L 156.229926 179.700653 
L 156.843141 175.39224 
L 157.456356 177.443837 
L 158.069571 187.49684 
L 158.682786 180.521292 
L 159.296001 183.598747 
L 159.909215 185.855563 
L 161.135645 180.110972 
L 161.74886 182.367789 
L 162.362075 183.188427 
L 162.97529 173.135424 
L 163.588505 192.215572 
L 164.20172 196.524106 
L 164.814935 179.905873 
L 165.428149 180.110972 
L 166.041364 186.471103 
L 166.654579 167.596053 
L 167.267794 196.524106 
L 167.881009 174.776822 
L 168.494224 174.571602 
L 169.107439 182.16269 
L 169.720654 184.624605 
L 170.333869 177.649057 
L 170.947083 177.033517 
L 171.560298 176.212879 
L 172.173513 173.340644 
L 172.786728 189.138239 
L 173.399943 176.828418 
L 174.013158 176.212879 
L 174.626373 180.316193 
L 175.239588 178.264596 
L 175.852803 180.931611 
L 176.466018 179.085235 
L 177.079232 168.211593 
L 177.692447 179.495554 
L 178.305662 182.367789 
L 178.918877 171.904466 
L 179.532092 170.263189 
L 180.145307 180.931611 
L 180.758522 173.340644 
L 181.371737 171.289048 
L 181.984952 176.623198 
L 182.598166 171.083828 
L 183.211381 170.673508 
L 183.824596 175.39224 
L 184.437811 169.23733 
L 185.664241 176.418099 
L 186.277456 162.261782 
L 186.890671 172.930325 
L 187.503886 179.495554 
L 188.1171 175.597461 
L 188.730315 158.979228 
L 189.34353 171.289048 
L 189.956745 158.158589 
L 190.56996 163.69796 
L 191.79639 167.185734 
L 192.409605 180.316193 
L 193.02282 172.930325 
L 193.636034 159.594767 
L 194.249249 165.339237 
L 194.862464 164.723819 
L 195.475679 178.264596 
L 196.088894 163.90318 
L 196.702109 172.520006 
L 197.315324 174.981921 
L 197.928539 169.85287 
L 198.541754 175.597461 
L 199.154968 168.211593 
L 199.768183 162.467002 
L 200.381398 165.339237 
L 200.994613 169.85287 
L 201.607828 162.261782 
L 202.221043 160.005087 
L 204.060688 178.880015 
L 204.673902 178.469695 
L 205.287117 178.674916 
L 205.900332 173.340644 
L 206.513547 182.16269 
L 207.126762 160.415406 
L 207.739977 167.801274 
L 208.353192 178.264596 
L 208.966407 160.620505 
L 209.579622 154.055275 
L 210.192836 170.057969 
L 210.806051 165.339237 
L 211.419266 174.161283 
L 212.032481 172.520006 
L 212.645696 164.313499 
L 213.258911 164.928917 
L 213.872126 164.928917 
L 214.485341 167.390954 
L 215.098556 166.980635 
L 215.711771 168.621912 
L 216.324985 172.314785 
L 216.9382 165.954776 
L 217.551415 165.749556 
L 218.16463 159.799866 
L 218.777845 171.289048 
L 219.39106 169.647649 
L 220.004275 163.90318 
L 220.61749 173.135424 
L 221.230705 158.363688 
L 221.843919 171.699367 
L 222.457134 169.647649 
L 223.070349 164.928917 
L 223.683564 154.670815 
L 224.296779 170.057969 
L 224.909994 168.416692 
L 225.523209 165.134138 
L 226.136424 160.005087 
L 226.749639 163.287641 
L 227.362853 156.722411 
L 227.976068 160.825725 
L 228.589283 172.725105 
L 229.202498 159.594767 
L 229.815713 167.596053 
L 230.428928 169.032231 
L 231.655358 152.824318 
L 232.268573 166.775415 
L 232.881787 164.108279 
L 233.495002 168.621912 
L 234.108217 152.619219 
L 234.721432 158.363688 
L 235.334647 162.467002 
L 235.947862 174.571602 
L 236.561077 160.415406 
L 237.787507 169.647649 
L 238.400721 158.363688 
L 239.013936 166.365096 
L 239.627151 161.851462 
L 240.240366 167.185734 
L 241.466796 158.568909 
L 242.080011 166.570194 
L 242.693226 161.236044 
L 243.306441 159.909341 
L 243.919655 163.90318 
L 244.53287 158.979228 
L 245.146085 158.979228 
L 245.7593 170.057969 
L 246.372515 165.339237 
L 246.98573 150.772721 
L 247.598945 161.646364 
L 248.21216 164.108279 
L 248.825375 156.312092 
L 249.43859 158.979228 
L 250.051804 158.363688 
L 250.665019 147.490046 
L 251.278234 152.208778 
L 251.891449 154.055275 
L 252.504664 163.08242 
L 253.117879 160.210185 
L 253.731094 165.954776 
L 254.344309 154.875914 
L 254.957524 162.467002 
L 255.570738 168.621912 
L 256.183953 154.465595 
L 256.797168 157.54305 
L 257.410383 152.824318 
L 258.023598 152.619219 
L 258.636813 165.134138 
L 259.250028 174.776822 
L 259.863243 163.69796 
L 260.476458 158.774007 
L 261.089672 156.927632 
L 261.702887 163.287641 
L 262.316102 161.851462 
L 262.929317 158.774007 
L 263.542532 148.721125 
L 264.155747 161.030824 
L 264.768962 154.875914 
L 265.382177 158.774007 
L 265.995392 170.057969 
L 266.608606 145.848769 
L 267.221821 158.979228 
L 267.835036 158.979228 
L 268.448251 162.877321 
L 269.061466 155.491453 
L 269.674681 155.081134 
L 270.287896 162.261782 
L 270.901111 147.900365 
L 272.12754 157.953369 
L 272.740755 151.38814 
L 273.35397 165.339237 
L 273.967185 173.340644 
L 274.5804 163.69796 
L 275.193615 165.134138 
L 275.80683 165.134138 
L 276.420045 153.029538 
L 277.03326 158.158589 
L 277.646474 166.159875 
L 278.259689 158.363688 
L 278.872904 154.465595 
L 279.486119 166.570194 
L 280.099334 156.517312 
L 280.712549 149.131445 
L 281.325764 169.23733 
L 281.938979 162.261782 
L 282.552194 148.926224 
L 283.165409 148.926224 
L 283.778623 153.234637 
L 284.391838 161.236044 
L 285.005053 146.053989 
L 285.618268 153.439857 
L 286.231483 157.54305 
L 286.844698 160.005087 
L 287.457913 154.875914 
L 288.071128 148.310685 
L 288.684343 153.439857 
L 289.297557 164.723819 
L 289.910772 151.183041 
L 290.523987 163.69796 
L 291.137202 156.517312 
L 291.750417 156.312092 
L 292.363632 163.287641 
L 292.976847 156.517312 
L 293.590062 156.722411 
L 294.203277 145.028131 
L 294.816491 159.389547 
L 295.429706 161.441143 
L 296.042921 151.59336 
L 296.656136 150.97782 
L 297.269351 140.104178 
L 297.882566 161.646364 
L 298.495781 158.774007 
L 299.108996 143.181633 
L 299.722211 157.54305 
L 300.335425 154.465595 
L 300.94864 154.670815 
L 301.561855 149.131445 
L 302.17507 159.799866 
L 302.788285 147.695266 
L 303.4015 158.979228 
L 304.014715 150.157182 
L 304.62793 152.208778 
L 305.241145 162.877321 
L 305.854359 152.208778 
L 306.467574 162.056683 
L 307.080789 153.029538 
L 307.694004 160.825725 
L 308.307219 153.029538 
L 308.920434 149.541764 
L 309.533649 153.234637 
L 310.146864 160.620505 
L 310.760079 147.900365 
L 311.373293 153.029538 
L 311.986508 156.927632 
L 312.599723 151.38814 
L 313.212938 149.541764 
L 313.826153 156.106993 
L 314.439368 153.234637 
L 315.052583 148.310685 
L 315.665798 154.465595 
L 316.279013 155.696552 
L 316.892227 147.284947 
L 317.505442 147.490046 
L 318.118657 155.491453 
L 318.731872 156.312092 
L 319.345087 144.617811 
L 319.958302 153.850177 
L 320.571517 152.619219 
L 321.184732 152.619219 
L 321.797947 139.28354 
L 322.411162 153.644956 
L 323.024376 156.312092 
L 323.637591 155.491453 
L 324.250806 155.696552 
L 324.864021 157.54305 
L 325.477236 141.335257 
L 326.090451 149.541764 
L 326.703666 151.798459 
L 327.316881 142.566215 
L 327.930096 152.619219 
L 328.54331 146.874628 
L 329.156525 149.541764 
L 329.76974 146.669408 
L 330.382955 150.772721 
L 330.99617 153.234637 
L 331.609385 153.850177 
L 332.2226 153.439857 
L 332.835815 153.644956 
L 333.44903 145.028131 
L 334.062244 147.284947 
L 334.675459 161.646364 
L 335.288674 158.774007 
L 335.901889 157.13273 
L 336.515104 160.415406 
L 337.128319 149.746863 
L 337.741534 161.646364 
L 338.354749 156.517312 
L 338.967964 148.515905 
L 339.581178 154.39658 
L 340.194393 156.927632 
L 340.807608 152.824318 
L 342.034038 150.97782 
L 342.647253 152.619219 
L 343.260468 148.926224 
L 343.873683 152.003679 
L 344.486898 150.362402 
L 345.100112 144.617811 
L 345.713327 149.131445 
L 346.326542 146.669408 
L 346.939757 152.003679 
L 347.552972 149.952083 
L 348.166187 144.002272 
L 348.779402 143.591953 
L 349.392617 148.926224 
L 350.005832 150.567501 
L 350.619046 144.82291 
L 351.232261 158.568909 
L 351.845476 151.38814 
L 352.458691 157.74827 
L 353.071906 148.310685 
L 354.298336 150.157182 
L 354.911551 154.875914 
L 355.524766 154.875914 
L 356.137981 142.771314 
L 356.751195 148.926224 
L 357.36441 148.105586 
L 357.977625 152.824318 
L 358.59084 149.541764 
L 359.204055 151.798459 
L 359.81727 145.848769 
L 360.430485 142.360995 
L 361.0437 149.746863 
L 361.656915 150.772721 
L 362.270129 153.439857 
L 362.883344 145.233351 
L 363.496559 159.594767 
L 364.109774 147.079727 
L 364.722989 144.82291 
L 365.336204 146.259088 
L 365.949419 144.412591 
L 366.562634 151.798459 
L 367.175849 142.976534 
L 367.789063 160.210185 
L 368.402278 150.567501 
L 369.015493 152.208778 
L 369.628708 143.181633 
L 370.241923 151.183041 
L 370.855138 148.310685 
L 371.468353 144.82291 
L 372.081568 150.157182 
L 372.694783 154.465595 
L 373.921212 148.515905 
L 374.534427 144.412591 
L 375.147642 146.874628 
L 375.760857 151.183041 
L 376.374072 142.771314 
L 376.987287 154.465595 
L 377.600502 154.260496 
L 378.213717 151.59336 
L 378.826931 149.541764 
L 379.440146 150.567501 
L 380.053361 148.515905 
L 380.666576 149.541764 
L 381.279791 154.465595 
L 381.893006 142.155896 
L 382.506221 149.131445 
L 383.119436 154.055275 
L 383.732651 146.259088 
L 384.345865 145.43845 
L 384.95908 138.462901 
L 385.572295 151.38814 
L 386.18551 150.772721 
L 386.798725 149.336543 
L 387.41194 148.721125 
L 388.025155 162.056683 
L 388.63837 154.670815 
L 389.864799 148.926224 
L 390.478014 153.644956 
L 391.091229 144.617811 
L 391.704444 146.464309 
L 392.317659 145.233351 
L 392.930874 158.363688 
L 393.544089 139.693859 
L 394.157304 151.59336 
L 394.770519 146.874628 
L 395.383734 147.695266 
L 395.996948 151.183041 
L 396.610163 141.745577 
L 397.223378 149.336543 
L 397.836593 145.43845 
L 398.449808 151.59336 
L 399.063023 146.464309 
L 399.676238 144.207492 
L 400.289453 156.312092 
L 400.902668 148.105586 
L 401.515882 156.927632 
L 402.129097 143.797173 
L 402.742312 149.336543 
L 403.968742 145.64367 
L 404.581957 153.234637 
L 405.195172 149.336543 
L 405.808387 151.183041 
L 406.421602 146.669408 
L 407.034816 158.979228 
L 407.648031 154.670815 
L 408.261246 138.668122 
L 408.874461 151.183041 
L 409.487676 151.38814 
L 410.100891 156.312092 
L 410.714106 150.772721 
L 411.327321 150.772721 
L 411.940536 148.926224 
L 412.55375 151.183041 
L 413.166965 149.131445 
L 413.78018 149.336543 
L 414.393395 154.055275 
L 415.00661 146.259088 
L 415.619825 146.259088 
L 416.23304 145.233351 
L 416.846255 142.771314 
L 417.45947 151.38814 
L 418.072684 148.721125 
L 418.685899 154.465595 
L 419.299114 148.926224 
L 420.525544 147.695266 
L 421.138759 145.028131 
L 421.751974 149.541764 
L 422.365189 156.106993 
L 422.978404 154.055275 
L 423.591618 145.43845 
L 424.204833 145.43845 
L 424.818048 152.003679 
L 425.431263 153.029538 
L 426.044478 145.43845 
L 426.657693 152.413998 
L 427.270908 142.155896 
L 427.884123 161.030824 
L 428.497338 158.979228 
L 429.110553 152.619219 
L 429.723767 150.772721 
L 430.336982 155.286233 
L 430.950197 144.412591 
L 431.563412 155.491453 
L 432.176627 145.64367 
L 432.789842 152.003679 
L 433.403057 147.900365 
L 434.016272 148.310685 
L 434.629487 146.464309 
L 435.242701 146.669408 
L 435.855916 151.538076 
L 436.469131 149.746863 
L 437.082346 146.669408 
L 437.695561 148.926224 
L 438.308776 145.028131 
L 438.921991 149.746863 
L 439.535206 145.028131 
L 440.148421 150.362402 
L 440.761635 145.848769 
L 441.37485 149.541764 
L 441.988065 152.003679 
L 442.60128 144.207492 
L 443.214495 142.976534 
L 443.82771 147.900365 
L 444.440925 151.59336 
L 445.05414 140.104178 
L 445.667355 141.130037 
L 446.280569 150.567501 
L 446.893784 147.284947 
L 447.506999 153.439857 
L 448.120214 140.104178 
L 448.733429 146.053989 
L 449.346644 149.131445 
L 449.959859 148.926224 
L 450.573074 156.517312 
L 451.186289 153.234637 
L 451.799503 134.359709 
L 452.412718 153.234637 
L 453.025933 146.259088 
L 453.639148 149.541764 
L 454.252363 145.233351 
L 454.865578 151.183041 
L 455.478793 151.183041 
L 456.092008 139.899079 
L 456.705223 145.848769 
L 457.318437 149.952083 
L 457.931652 138.668122 
L 458.544867 154.670815 
L 459.158082 149.541764 
L 460.384512 146.464309 
L 460.997727 143.386854 
L 461.610942 159.799866 
L 462.224157 147.900365 
L 462.837372 147.490046 
L 463.450586 151.59336 
L 464.063801 151.798459 
L 464.677016 145.848769 
L 465.290231 150.362402 
L 465.903446 142.360995 
L 466.516661 148.926224 
L 467.129876 152.619219 
L 467.743091 153.029538 
L 468.356306 147.900365 
L 468.96952 148.926224 
L 469.582735 146.259088 
L 470.19595 148.721125 
L 470.809165 136.411305 
L 471.42238 151.38814 
L 472.035595 154.670815 
L 472.64881 155.081134 
L 473.262025 139.48876 
L 473.87524 155.901773 
L 474.488454 147.079727 
L 475.101669 144.412591 
L 475.714884 142.976534 
L 476.328099 139.48876 
L 476.941314 149.131445 
L 477.554529 141.745577 
L 478.167744 139.899079 
L 478.780959 149.131445 
L 479.394174 145.848769 
L 480.007388 143.591953 
L 480.620603 154.055275 
L 481.233818 144.207492 
L 481.847033 139.28354 
L 482.460248 144.617811 
L 483.073463 152.619219 
L 483.686678 134.154489 
L 484.299893 158.774007 
L 484.913108 137.847483 
L 485.526322 153.029538 
L 486.139537 147.695266 
L 486.752752 146.053989 
L 487.365967 143.797173 
L 487.979182 149.952083 
L 488.592397 145.64367 
L 489.205612 147.490046 
L 489.818827 147.079727 
L 490.432042 153.439857 
L 491.045256 139.28354 
L 491.658471 144.617811 
L 492.271686 148.310685 
L 492.884901 140.924817 
L 493.498116 143.591953 
L 494.111331 127.38416 
L 495.337761 152.413998 
L 495.950976 139.899079 
L 496.56419 149.336543 
L 497.177405 146.259088 
L 497.79062 142.360995 
L 498.403835 139.693859 
L 499.01705 153.439857 
L 499.630265 150.772721 
L 500.24348 144.617811 
L 500.856695 144.002272 
L 501.46991 155.081134 
L 502.083125 151.59336 
L 502.696339 138.668122 
L 503.309554 146.669408 
L 503.922769 143.591953 
L 504.535984 146.669408 
L 505.149199 148.310685 
L 506.375629 141.950676 
L 506.988844 153.439857 
L 507.602059 145.848769 
L 508.215273 144.617811 
L 508.828488 144.412591 
L 509.441703 152.619219 
L 510.054918 148.105586 
L 510.668133 148.515905 
L 511.281348 149.541764 
L 511.894563 139.693859 
L 512.507778 139.078441 
L 513.120993 157.953369 
L 513.734207 154.670815 
L 514.347422 150.772721 
L 514.960637 151.38814 
L 515.573852 156.106993 
L 516.187067 152.619219 
L 516.800282 146.464309 
L 517.413497 148.926224 
L 518.026712 141.745577 
L 518.639927 150.97782 
L 519.253141 142.976534 
L 519.866356 158.158589 
L 520.479571 142.566215 
L 521.092786 153.850177 
L 521.706001 137.847483 
L 522.932431 146.259088 
L 523.545646 144.002272 
L 524.772075 148.515905 
L 525.38529 156.312092 
L 525.998505 149.952083 
L 526.61172 141.950676 
L 527.224935 144.617811 
L 527.83815 138.462901 
L 528.451365 149.131445 
L 529.06458 143.386854 
L 529.677795 148.105586 
L 530.291009 147.490046 
L 530.904224 147.490046 
L 531.517439 148.105586 
L 532.130654 150.108823 
L 532.743869 143.181633 
L 533.357084 143.591953 
L 533.970299 149.131445 
L 534.583514 143.797173 
L 535.196729 142.155896 
L 535.809944 141.540356 
L 536.423158 146.874628 
L 537.036373 148.515905 
L 537.649588 148.926224 
L 538.262803 153.234637 
L 538.876018 144.412591 
L 539.489233 149.952083 
L 540.102448 149.131445 
L 540.715663 141.335257 
L 541.328878 142.155896 
L 541.942092 143.181633 
L 542.555307 146.464309 
L 543.168522 145.233351 
L 543.781737 147.695266 
L 544.394952 153.439857 
L 545.008167 141.950676 
L 545.621382 140.719718 
L 546.234597 148.105586 
L 546.847812 149.952083 
L 547.461026 138.257802 
L 548.074241 146.464309 
L 548.687456 148.721125 
L 549.300671 142.771314 
L 549.913886 149.336543 
L 550.527101 141.540356 
L 551.140316 150.362402 
L 551.753531 144.412591 
L 552.366746 146.464309 
L 552.97996 144.002272 
L 553.593175 148.721125 
L 554.20639 144.412591 
L 554.819605 144.412591 
L 555.43282 144.002272 
L 556.046035 139.693859 
L 556.65925 145.43845 
L 557.272465 146.259088 
L 557.88568 136.821624 
L 558.498894 150.362402 
L 559.112109 141.950676 
L 559.725324 140.719718 
L 560.338539 138.873221 
L 560.951754 144.412591 
L 561.564969 146.669408 
L 562.178184 149.746863 
L 562.791399 145.028131 
L 563.404614 150.97782 
L 564.017828 142.155896 
L 564.631043 138.257802 
L 565.244258 135.590667 
L 565.857473 151.183041 
L 566.470688 157.13273 
L 567.083903 135.385446 
L 567.697118 148.105586 
L 568.310333 144.82291 
L 568.923548 145.028131 
L 569.536763 148.926224 
L 570.149977 145.64367 
L 570.763192 150.567501 
L 571.376407 147.079727 
L 571.989622 148.721125 
L 572.602837 138.668122 
L 573.216052 145.64367 
L 573.829267 149.952083 
L 574.442482 141.130037 
L 575.055697 143.181633 
L 575.668911 147.079727 
L 576.282126 146.259088 
L 576.895341 136.411305 
L 577.508556 148.926224 
L 578.121771 146.874628 
L 578.734986 148.310685 
L 579.348201 145.64367 
L 579.961416 140.309399 
L 580.574631 149.952083 
L 581.187845 143.797173 
L 581.80106 141.540356 
L 582.414275 151.798459 
L 583.02749 139.693859 
L 583.640705 145.233351 
L 584.25392 147.079727 
L 584.867135 137.437042 
L 585.48035 146.464309 
L 586.093565 146.874628 
L 586.706779 130.461615 
L 587.319994 153.644956 
L 587.933209 133.33385 
L 588.546424 138.257802 
L 589.159639 146.259088 
L 589.772854 139.078441 
L 590.386069 153.644956 
L 590.999284 144.82291 
L 591.612499 144.207492 
L 592.225713 151.183041 
L 592.838928 146.669408 
L 593.452143 150.157182 
L 594.065358 144.207492 
L 594.678573 146.464309 
L 595.291788 147.284947 
L 595.905003 142.976534 
L 596.518218 145.233351 
L 597.131433 146.669408 
L 597.744647 154.465595 
L 598.357862 157.54305 
L 598.971077 141.745577 
L 599.584292 136.821624 
L 600.197507 143.181633 
L 600.810722 154.670815 
L 601.423937 140.924817 
L 602.650367 149.336543 
L 603.263581 150.362402 
L 603.876796 140.104178 
L 604.490011 148.105586 
L 605.103226 140.924817 
L 605.716441 147.284947 
L 606.329656 146.053989 
L 606.942871 144.412591 
L 607.556086 145.233351 
L 608.169301 146.464309 
L 608.782516 142.976534 
L 609.39573 146.874628 
L 610.008945 146.053989 
L 610.62216 139.899079 
L 611.235375 154.465595 
L 611.84859 148.515905 
L 612.461805 139.48876 
L 613.07502 150.97782 
L 613.688235 140.309399 
L 614.30145 145.233351 
L 614.914664 154.465595 
L 615.527879 152.208778 
L 616.141094 146.464309 
L 616.754309 143.386854 
L 617.367524 145.43845 
L 617.980739 142.360995 
L 618.593954 143.181633 
L 619.207169 142.976534 
L 619.820384 148.310685 
L 620.433598 138.052582 
L 621.046813 145.028131 
L 621.660028 145.028131 
L 622.273243 144.82291 
L 622.886458 138.052582 
L 623.499673 148.105586 
L 624.112888 146.464309 
L 624.726103 148.515905 
L 625.339318 142.976534 
L 625.952532 157.337951 
L 626.565747 143.591953 
L 627.178962 140.924817 
L 627.792177 142.360995 
L 628.405392 140.308427 
L 629.018607 142.976534 
L 629.631822 142.155896 
L 630.858252 136.206085 
L 631.471466 138.668122 
L 632.084681 142.771314 
L 632.697896 143.386854 
L 633.311111 142.360995 
L 633.924326 142.976534 
L 634.537541 148.926224 
L 635.150756 139.899079 
L 635.763971 146.464309 
L 636.377186 142.155896 
L 636.9904 143.181633 
L 637.603615 144.82291 
L 638.21683 141.950676 
L 638.830045 150.362402 
L 639.44326 148.515905 
L 640.056475 142.771314 
L 640.66969 143.797173 
L 641.282905 134.975127 
L 641.89612 150.97782 
L 642.509335 138.257802 
L 643.122549 150.97782 
L 643.735764 144.002272 
L 644.348979 148.721125 
L 644.962194 152.413998 
L 645.575409 142.566215 
L 646.188624 145.64367 
L 646.801839 143.386854 
L 647.415054 147.490046 
L 648.028269 139.078441 
L 648.641483 151.38814 
L 649.254698 139.48876 
L 649.867913 143.386854 
L 650.481128 138.668122 
L 651.094343 150.772721 
L 651.707558 141.950676 
L 652.320773 148.310685 
L 652.933988 136.616404 
L 653.547203 148.310685 
L 654.160417 142.771314 
L 654.773632 148.515905 
L 655.386847 139.899079 
L 656.000062 142.155896 
L 656.613277 140.104178 
L 657.226492 147.490046 
L 657.839707 138.668122 
L 658.452922 148.926224 
L 659.066137 148.926224 
L 659.679351 138.668122 
L 660.292566 148.310685 
L 660.905781 140.924817 
L 661.518996 144.617811 
L 662.132211 140.719718 
L 663.358641 146.053989 
L 663.971856 138.674926 
L 664.585071 137.231944 
L 665.198285 138.257802 
L 665.8115 136.206085 
L 666.424715 137.642263 
L 667.03793 136.000986 
L 667.651145 137.847483 
L 668.26436 136.821624 
L 668.877575 136.821624 
L 669.49079 136.206085 
L 670.104005 136.616404 
L 670.717219 137.437042 
L 671.330434 134.154489 
L 671.943649 138.668122 
L 672.556864 138.257802 
L 673.170079 133.744169 
L 673.783294 139.48876 
L 674.396509 130.666714 
L 675.009724 143.181633 
L 675.622939 132.307991 
L 676.236153 138.257802 
L 676.849368 136.821624 
L 677.462583 127.999578 
L 678.075798 141.335257 
L 678.689013 136.411305 
L 679.302228 135.180347 
L 679.915443 138.668122 
L 680.528658 133.949268 
L 681.141873 132.513212 
L 681.755088 134.154489 
L 682.368302 134.975127 
L 682.981517 138.462901 
L 683.594732 133.538949 
L 684.207947 134.975127 
L 684.821162 136.000986 
L 685.434377 136.206085 
L 686.047592 133.12863 
L 686.660807 132.71831 
L 687.274022 133.12863 
L 687.887236 133.744169 
L 687.887236 133.744169 
" style="fill:none;stroke:#4daf4a;stroke-linecap:square;stroke-opacity:0.25098;stroke-width:1.5;"/>
   </g>
   <g id="patch_3">
    <path d="M 50.14375 337.159219 
L 50.14375 10.999219 
" style="fill:none;stroke:#000000;stroke-linecap:square;stroke-linejoin:miter;stroke-width:0.8;"/>
   </g>
   <g id="patch_4">
    <path d="M 719.74375 337.159219 
L 719.74375 10.999219 
" style="fill:none;stroke:#000000;stroke-linecap:square;stroke-linejoin:miter;stroke-width:0.8;"/>
   </g>
   <g id="patch_5">
    <path d="M 50.14375 337.159219 
L 719.74375 337.159219 
" style="fill:none;stroke:#000000;stroke-linecap:square;stroke-linejoin:miter;stroke-width:0.8;"/>
   </g>
   <g id="patch_6">
    <path d="M 50.14375 10.999219 
L 719.74375 10.999219 
" style="fill:none;stroke:#000000;stroke-linecap:square;stroke-linejoin:miter;stroke-width:0.8;"/>
   </g>
   <g id="legend_1">
    <g id="patch_7">
     <path d="M 57.14375 48.355469 
L 114.584375 48.355469 
Q 116.584375 48.355469 116.584375 46.355469 
L 116.584375 17.999219 
Q 116.584375 15.999219 114.584375 15.999219 
L 57.14375 15.999219 
Q 55.14375 15.999219 55.14375 17.999219 
L 55.14375 46.355469 
Q 55.14375 48.355469 57.14375 48.355469 
z
" style="fill:#ffffff;opacity:0.8;stroke:#cccccc;stroke-linejoin:miter;"/>
    </g>
    <g id="line2d_35">
     <path d="M 59.14375 24.097656 
L 79.14375 24.097656 
" style="fill:none;stroke:#377eb8;stroke-linecap:square;stroke-width:2;"/>
    </g>
    <g id="line2d_36"/>
    <g id="text_18">
     <!-- Train -->
     <defs>
      <path d="M -0.296875 72.90625 
L 61.375 72.90625 
L 61.375 64.59375 
L 35.5 64.59375 
L 35.5 0 
L 25.59375 0 
L 25.59375 64.59375 
L -0.296875 64.59375 
z
" id="DejaVuSans-84"/>
      <path d="M 9.421875 54.6875 
L 18.40625 54.6875 
L 18.40625 0 
L 9.421875 0 
z
M 9.421875 75.984375 
L 18.40625 75.984375 
L 18.40625 64.59375 
L 9.421875 64.59375 
z
" id="DejaVuSans-105"/>
      <path d="M 54.890625 33.015625 
L 54.890625 0 
L 45.90625 0 
L 45.90625 32.71875 
Q 45.90625 40.484375 42.875 44.328125 
Q 39.84375 48.1875 33.796875 48.1875 
Q 26.515625 48.1875 22.3125 43.546875 
Q 18.109375 38.921875 18.109375 30.90625 
L 18.109375 0 
L 9.078125 0 
L 9.078125 54.6875 
L 18.109375 54.6875 
L 18.109375 46.1875 
Q 21.34375 51.125 25.703125 53.5625 
Q 30.078125 56 35.796875 56 
Q 45.21875 56 50.046875 50.171875 
Q 54.890625 44.34375 54.890625 33.015625 
z
" id="DejaVuSans-110"/>
     </defs>
     <g transform="translate(87.14375 27.597656)scale(0.1 -0.1)">
      <use xlink:href="#DejaVuSans-84"/>
      <use x="60.865234" xlink:href="#DejaVuSans-114"/>
      <use x="101.978516" xlink:href="#DejaVuSans-97"/>
      <use x="163.257812" xlink:href="#DejaVuSans-105"/>
      <use x="191.041016" xlink:href="#DejaVuSans-110"/>
     </g>
    </g>
    <g id="line2d_37">
     <path d="M 59.14375 38.775781 
L 79.14375 38.775781 
" style="fill:none;stroke:#4daf4a;stroke-linecap:square;stroke-width:2;"/>
    </g>
    <g id="line2d_38"/>
    <g id="text_19">
     <!-- Test -->
     <defs>
      <path d="M 56.203125 29.59375 
L 56.203125 25.203125 
L 14.890625 25.203125 
Q 15.484375 15.921875 20.484375 11.0625 
Q 25.484375 6.203125 34.421875 6.203125 
Q 39.59375 6.203125 44.453125 7.46875 
Q 49.3125 8.734375 54.109375 11.28125 
L 54.109375 2.78125 
Q 49.265625 0.734375 44.1875 -0.34375 
Q 39.109375 -1.421875 33.890625 -1.421875 
Q 20.796875 -1.421875 13.15625 6.1875 
Q 5.515625 13.8125 5.515625 26.8125 
Q 5.515625 40.234375 12.765625 48.109375 
Q 20.015625 56 32.328125 56 
Q 43.359375 56 49.78125 48.890625 
Q 56.203125 41.796875 56.203125 29.59375 
z
M 47.21875 32.234375 
Q 47.125 39.59375 43.09375 43.984375 
Q 39.0625 48.390625 32.421875 48.390625 
Q 24.90625 48.390625 20.390625 44.140625 
Q 15.875 39.890625 15.1875 32.171875 
z
" id="DejaVuSans-101"/>
      <path d="M 44.28125 53.078125 
L 44.28125 44.578125 
Q 40.484375 46.53125 36.375 47.5 
Q 32.28125 48.484375 27.875 48.484375 
Q 21.1875 48.484375 17.84375 46.4375 
Q 14.5 44.390625 14.5 40.28125 
Q 14.5 37.15625 16.890625 35.375 
Q 19.28125 33.59375 26.515625 31.984375 
L 29.59375 31.296875 
Q 39.15625 29.25 43.1875 25.515625 
Q 47.21875 21.78125 47.21875 15.09375 
Q 47.21875 7.46875 41.1875 3.015625 
Q 35.15625 -1.421875 24.609375 -1.421875 
Q 20.21875 -1.421875 15.453125 -0.5625 
Q 10.6875 0.296875 5.421875 2 
L 5.421875 11.28125 
Q 10.40625 8.6875 15.234375 7.390625 
Q 20.0625 6.109375 24.8125 6.109375 
Q 31.15625 6.109375 34.5625 8.28125 
Q 37.984375 10.453125 37.984375 14.40625 
Q 37.984375 18.0625 35.515625 20.015625 
Q 33.0625 21.96875 24.703125 23.78125 
L 21.578125 24.515625 
Q 13.234375 26.265625 9.515625 29.90625 
Q 5.8125 33.546875 5.8125 39.890625 
Q 5.8125 47.609375 11.28125 51.796875 
Q 16.75 56 26.8125 56 
Q 31.78125 56 36.171875 55.265625 
Q 40.578125 54.546875 44.28125 53.078125 
z
" id="DejaVuSans-115"/>
      <path d="M 18.3125 70.21875 
L 18.3125 54.6875 
L 36.8125 54.6875 
L 36.8125 47.703125 
L 18.3125 47.703125 
L 18.3125 18.015625 
Q 18.3125 11.328125 20.140625 9.421875 
Q 21.96875 7.515625 27.59375 7.515625 
L 36.8125 7.515625 
L 36.8125 0 
L 27.59375 0 
Q 17.1875 0 13.234375 3.875 
Q 9.28125 7.765625 9.28125 18.015625 
L 9.28125 47.703125 
L 2.6875 47.703125 
L 2.6875 54.6875 
L 9.28125 54.6875 
L 9.28125 70.21875 
z
" id="DejaVuSans-116"/>
     </defs>
     <g transform="translate(87.14375 42.275781)scale(0.1 -0.1)">
      <use xlink:href="#DejaVuSans-84"/>
      <use x="60.818359" xlink:href="#DejaVuSans-101"/>
      <use x="122.341797" xlink:href="#DejaVuSans-115"/>
      <use x="174.441406" xlink:href="#DejaVuSans-116"/>
     </g>
    </g>
   </g>
  </g>
 </g>
 <defs>
  <clipPath id="p1892eb9dd0">
   <rect height="326.16" width="669.6" x="50.14375" y="10.999219"/>
  </clipPath>
 </defs>
</svg>
