<?xml version="1.0" encoding="utf-8" standalone="no"?>
<!DOCTYPE svg PUBLIC "-//W3C//DTD SVG 1.1//EN"
  "http://www.w3.org/Graphics/SVG/1.1/DTD/svg11.dtd">
<!-- Created with matplotlib (https://matplotlib.org/) -->
<svg height="374.715469pt" version="1.1" viewBox="0 0 726.94375 374.715469" width="726.94375pt" xmlns="http://www.w3.org/2000/svg" xmlns:xlink="http://www.w3.org/1999/xlink">
 <defs>
  <style type="text/css">
*{stroke-linecap:butt;stroke-linejoin:round;white-space:pre;}
  </style>
 </defs>
 <g id="figure_1">
  <g id="patch_1">
   <path d="M 0 374.715469 
L 726.94375 374.715469 
L 726.94375 0 
L 0 0 
z
" style="fill:#ffffff;"/>
  </g>
  <g id="axes_1">
   <g id="patch_2">
    <path d="M 50.14375 337.159219 
L 719.74375 337.159219 
L 719.74375 10.999219 
L 50.14375 10.999219 
z
" style="fill:#ffffff;"/>
   </g>
   <g id="matplotlib.axis_1">
    <g id="xtick_1">
     <g id="line2d_1">
      <path clip-path="url(#p487248210f)" d="M 50.14375 337.159219 
L 50.14375 10.999219 
" style="fill:none;stroke:#b0b0b0;stroke-linecap:square;stroke-width:0.8;"/>
     </g>
     <g id="line2d_2">
      <defs>
       <path d="M 0 0 
L 0 3.5 
" id="me210d9eafb" style="stroke:#000000;stroke-width:0.8;"/>
      </defs>
      <g>
       <use style="stroke:#000000;stroke-width:0.8;" x="50.14375" xlink:href="#me210d9eafb" y="337.159219"/>
      </g>
     </g>
     <g id="text_1">
      <!-- 0 -->
      <defs>
       <path d="M 31.78125 66.40625 
Q 24.171875 66.40625 20.328125 58.90625 
Q 16.5 51.421875 16.5 36.375 
Q 16.5 21.390625 20.328125 13.890625 
Q 24.171875 6.390625 31.78125 6.390625 
Q 39.453125 6.390625 43.28125 13.890625 
Q 47.125 21.390625 47.125 36.375 
Q 47.125 51.421875 43.28125 58.90625 
Q 39.453125 66.40625 31.78125 66.40625 
z
M 31.78125 74.21875 
Q 44.046875 74.21875 50.515625 64.515625 
Q 56.984375 54.828125 56.984375 36.375 
Q 56.984375 17.96875 50.515625 8.265625 
Q 44.046875 -1.421875 31.78125 -1.421875 
Q 19.53125 -1.421875 13.0625 8.265625 
Q 6.59375 17.96875 6.59375 36.375 
Q 6.59375 54.828125 13.0625 64.515625 
Q 19.53125 74.21875 31.78125 74.21875 
z
" id="DejaVuSans-48"/>
      </defs>
      <g transform="translate(46.9625 351.757656)scale(0.1 -0.1)">
       <use xlink:href="#DejaVuSans-48"/>
      </g>
     </g>
    </g>
    <g id="xtick_2">
     <g id="line2d_3">
      <path clip-path="url(#p487248210f)" d="M 177.692681 337.159219 
L 177.692681 10.999219 
" style="fill:none;stroke:#b0b0b0;stroke-linecap:square;stroke-width:0.8;"/>
     </g>
     <g id="line2d_4">
      <g>
       <use style="stroke:#000000;stroke-width:0.8;" x="177.692681" xlink:href="#me210d9eafb" y="337.159219"/>
      </g>
     </g>
     <g id="text_2">
      <!-- 200 -->
      <defs>
       <path d="M 19.1875 8.296875 
L 53.609375 8.296875 
L 53.609375 0 
L 7.328125 0 
L 7.328125 8.296875 
Q 12.9375 14.109375 22.625 23.890625 
Q 32.328125 33.6875 34.8125 36.53125 
Q 39.546875 41.84375 41.421875 45.53125 
Q 43.3125 49.21875 43.3125 52.78125 
Q 43.3125 58.59375 39.234375 62.25 
Q 35.15625 65.921875 28.609375 65.921875 
Q 23.96875 65.921875 18.8125 64.3125 
Q 13.671875 62.703125 7.8125 59.421875 
L 7.8125 69.390625 
Q 13.765625 71.78125 18.9375 73 
Q 24.125 74.21875 28.421875 74.21875 
Q 39.75 74.21875 46.484375 68.546875 
Q 53.21875 62.890625 53.21875 53.421875 
Q 53.21875 48.921875 51.53125 44.890625 
Q 49.859375 40.875 45.40625 35.40625 
Q 44.1875 33.984375 37.640625 27.21875 
Q 31.109375 20.453125 19.1875 8.296875 
z
" id="DejaVuSans-50"/>
      </defs>
      <g transform="translate(168.148931 351.757656)scale(0.1 -0.1)">
       <use xlink:href="#DejaVuSans-50"/>
       <use x="63.623047" xlink:href="#DejaVuSans-48"/>
       <use x="127.246094" xlink:href="#DejaVuSans-48"/>
      </g>
     </g>
    </g>
    <g id="xtick_3">
     <g id="line2d_5">
      <path clip-path="url(#p487248210f)" d="M 305.241612 337.159219 
L 305.241612 10.999219 
" style="fill:none;stroke:#b0b0b0;stroke-linecap:square;stroke-width:0.8;"/>
     </g>
     <g id="line2d_6">
      <g>
       <use style="stroke:#000000;stroke-width:0.8;" x="305.241612" xlink:href="#me210d9eafb" y="337.159219"/>
      </g>
     </g>
     <g id="text_3">
      <!-- 400 -->
      <defs>
       <path d="M 37.796875 64.3125 
L 12.890625 25.390625 
L 37.796875 25.390625 
z
M 35.203125 72.90625 
L 47.609375 72.90625 
L 47.609375 25.390625 
L 58.015625 25.390625 
L 58.015625 17.1875 
L 47.609375 17.1875 
L 47.609375 0 
L 37.796875 0 
L 37.796875 17.1875 
L 4.890625 17.1875 
L 4.890625 26.703125 
z
" id="DejaVuSans-52"/>
      </defs>
      <g transform="translate(295.697862 351.757656)scale(0.1 -0.1)">
       <use xlink:href="#DejaVuSans-52"/>
       <use x="63.623047" xlink:href="#DejaVuSans-48"/>
       <use x="127.246094" xlink:href="#DejaVuSans-48"/>
      </g>
     </g>
    </g>
    <g id="xtick_4">
     <g id="line2d_7">
      <path clip-path="url(#p487248210f)" d="M 432.790543 337.159219 
L 432.790543 10.999219 
" style="fill:none;stroke:#b0b0b0;stroke-linecap:square;stroke-width:0.8;"/>
     </g>
     <g id="line2d_8">
      <g>
       <use style="stroke:#000000;stroke-width:0.8;" x="432.790543" xlink:href="#me210d9eafb" y="337.159219"/>
      </g>
     </g>
     <g id="text_4">
      <!-- 600 -->
      <defs>
       <path d="M 33.015625 40.375 
Q 26.375 40.375 22.484375 35.828125 
Q 18.609375 31.296875 18.609375 23.390625 
Q 18.609375 15.53125 22.484375 10.953125 
Q 26.375 6.390625 33.015625 6.390625 
Q 39.65625 6.390625 43.53125 10.953125 
Q 47.40625 15.53125 47.40625 23.390625 
Q 47.40625 31.296875 43.53125 35.828125 
Q 39.65625 40.375 33.015625 40.375 
z
M 52.59375 71.296875 
L 52.59375 62.3125 
Q 48.875 64.0625 45.09375 64.984375 
Q 41.3125 65.921875 37.59375 65.921875 
Q 27.828125 65.921875 22.671875 59.328125 
Q 17.53125 52.734375 16.796875 39.40625 
Q 19.671875 43.65625 24.015625 45.921875 
Q 28.375 48.1875 33.59375 48.1875 
Q 44.578125 48.1875 50.953125 41.515625 
Q 57.328125 34.859375 57.328125 23.390625 
Q 57.328125 12.15625 50.6875 5.359375 
Q 44.046875 -1.421875 33.015625 -1.421875 
Q 20.359375 -1.421875 13.671875 8.265625 
Q 6.984375 17.96875 6.984375 36.375 
Q 6.984375 53.65625 15.1875 63.9375 
Q 23.390625 74.21875 37.203125 74.21875 
Q 40.921875 74.21875 44.703125 73.484375 
Q 48.484375 72.75 52.59375 71.296875 
z
" id="DejaVuSans-54"/>
      </defs>
      <g transform="translate(423.246793 351.757656)scale(0.1 -0.1)">
       <use xlink:href="#DejaVuSans-54"/>
       <use x="63.623047" xlink:href="#DejaVuSans-48"/>
       <use x="127.246094" xlink:href="#DejaVuSans-48"/>
      </g>
     </g>
    </g>
    <g id="xtick_5">
     <g id="line2d_9">
      <path clip-path="url(#p487248210f)" d="M 560.339474 337.159219 
L 560.339474 10.999219 
" style="fill:none;stroke:#b0b0b0;stroke-linecap:square;stroke-width:0.8;"/>
     </g>
     <g id="line2d_10">
      <g>
       <use style="stroke:#000000;stroke-width:0.8;" x="560.339474" xlink:href="#me210d9eafb" y="337.159219"/>
      </g>
     </g>
     <g id="text_5">
      <!-- 800 -->
      <defs>
       <path d="M 31.78125 34.625 
Q 24.75 34.625 20.71875 30.859375 
Q 16.703125 27.09375 16.703125 20.515625 
Q 16.703125 13.921875 20.71875 10.15625 
Q 24.75 6.390625 31.78125 6.390625 
Q 38.8125 6.390625 42.859375 10.171875 
Q 46.921875 13.96875 46.921875 20.515625 
Q 46.921875 27.09375 42.890625 30.859375 
Q 38.875 34.625 31.78125 34.625 
z
M 21.921875 38.8125 
Q 15.578125 40.375 12.03125 44.71875 
Q 8.5 49.078125 8.5 55.328125 
Q 8.5 64.0625 14.71875 69.140625 
Q 20.953125 74.21875 31.78125 74.21875 
Q 42.671875 74.21875 48.875 69.140625 
Q 55.078125 64.0625 55.078125 55.328125 
Q 55.078125 49.078125 51.53125 44.71875 
Q 48 40.375 41.703125 38.8125 
Q 48.828125 37.15625 52.796875 32.3125 
Q 56.78125 27.484375 56.78125 20.515625 
Q 56.78125 9.90625 50.3125 4.234375 
Q 43.84375 -1.421875 31.78125 -1.421875 
Q 19.734375 -1.421875 13.25 4.234375 
Q 6.78125 9.90625 6.78125 20.515625 
Q 6.78125 27.484375 10.78125 32.3125 
Q 14.796875 37.15625 21.921875 38.8125 
z
M 18.3125 54.390625 
Q 18.3125 48.734375 21.84375 45.5625 
Q 25.390625 42.390625 31.78125 42.390625 
Q 38.140625 42.390625 41.71875 45.5625 
Q 45.3125 48.734375 45.3125 54.390625 
Q 45.3125 60.0625 41.71875 63.234375 
Q 38.140625 66.40625 31.78125 66.40625 
Q 25.390625 66.40625 21.84375 63.234375 
Q 18.3125 60.0625 18.3125 54.390625 
z
" id="DejaVuSans-56"/>
      </defs>
      <g transform="translate(550.795724 351.757656)scale(0.1 -0.1)">
       <use xlink:href="#DejaVuSans-56"/>
       <use x="63.623047" xlink:href="#DejaVuSans-48"/>
       <use x="127.246094" xlink:href="#DejaVuSans-48"/>
      </g>
     </g>
    </g>
    <g id="xtick_6">
     <g id="line2d_11">
      <path clip-path="url(#p487248210f)" d="M 687.888405 337.159219 
L 687.888405 10.999219 
" style="fill:none;stroke:#b0b0b0;stroke-linecap:square;stroke-width:0.8;"/>
     </g>
     <g id="line2d_12">
      <g>
       <use style="stroke:#000000;stroke-width:0.8;" x="687.888405" xlink:href="#me210d9eafb" y="337.159219"/>
      </g>
     </g>
     <g id="text_6">
      <!-- 1000 -->
      <defs>
       <path d="M 12.40625 8.296875 
L 28.515625 8.296875 
L 28.515625 63.921875 
L 10.984375 60.40625 
L 10.984375 69.390625 
L 28.421875 72.90625 
L 38.28125 72.90625 
L 38.28125 8.296875 
L 54.390625 8.296875 
L 54.390625 0 
L 12.40625 0 
z
" id="DejaVuSans-49"/>
      </defs>
      <g transform="translate(675.163405 351.757656)scale(0.1 -0.1)">
       <use xlink:href="#DejaVuSans-49"/>
       <use x="63.623047" xlink:href="#DejaVuSans-48"/>
       <use x="127.246094" xlink:href="#DejaVuSans-48"/>
       <use x="190.869141" xlink:href="#DejaVuSans-48"/>
      </g>
     </g>
    </g>
    <g id="text_7">
     <!-- Epoch -->
     <defs>
      <path d="M 9.8125 72.90625 
L 55.90625 72.90625 
L 55.90625 64.59375 
L 19.671875 64.59375 
L 19.671875 43.015625 
L 54.390625 43.015625 
L 54.390625 34.71875 
L 19.671875 34.71875 
L 19.671875 8.296875 
L 56.78125 8.296875 
L 56.78125 0 
L 9.8125 0 
z
" id="DejaVuSans-69"/>
      <path d="M 18.109375 8.203125 
L 18.109375 -20.796875 
L 9.078125 -20.796875 
L 9.078125 54.6875 
L 18.109375 54.6875 
L 18.109375 46.390625 
Q 20.953125 51.265625 25.265625 53.625 
Q 29.59375 56 35.59375 56 
Q 45.5625 56 51.78125 48.09375 
Q 58.015625 40.1875 58.015625 27.296875 
Q 58.015625 14.40625 51.78125 6.484375 
Q 45.5625 -1.421875 35.59375 -1.421875 
Q 29.59375 -1.421875 25.265625 0.953125 
Q 20.953125 3.328125 18.109375 8.203125 
z
M 48.6875 27.296875 
Q 48.6875 37.203125 44.609375 42.84375 
Q 40.53125 48.484375 33.40625 48.484375 
Q 26.265625 48.484375 22.1875 42.84375 
Q 18.109375 37.203125 18.109375 27.296875 
Q 18.109375 17.390625 22.1875 11.75 
Q 26.265625 6.109375 33.40625 6.109375 
Q 40.53125 6.109375 44.609375 11.75 
Q 48.6875 17.390625 48.6875 27.296875 
z
" id="DejaVuSans-112"/>
      <path d="M 30.609375 48.390625 
Q 23.390625 48.390625 19.1875 42.75 
Q 14.984375 37.109375 14.984375 27.296875 
Q 14.984375 17.484375 19.15625 11.84375 
Q 23.34375 6.203125 30.609375 6.203125 
Q 37.796875 6.203125 41.984375 11.859375 
Q 46.1875 17.53125 46.1875 27.296875 
Q 46.1875 37.015625 41.984375 42.703125 
Q 37.796875 48.390625 30.609375 48.390625 
z
M 30.609375 56 
Q 42.328125 56 49.015625 48.375 
Q 55.71875 40.765625 55.71875 27.296875 
Q 55.71875 13.875 49.015625 6.21875 
Q 42.328125 -1.421875 30.609375 -1.421875 
Q 18.84375 -1.421875 12.171875 6.21875 
Q 5.515625 13.875 5.515625 27.296875 
Q 5.515625 40.765625 12.171875 48.375 
Q 18.84375 56 30.609375 56 
z
" id="DejaVuSans-111"/>
      <path d="M 48.78125 52.59375 
L 48.78125 44.1875 
Q 44.96875 46.296875 41.140625 47.34375 
Q 37.3125 48.390625 33.40625 48.390625 
Q 24.65625 48.390625 19.8125 42.84375 
Q 14.984375 37.3125 14.984375 27.296875 
Q 14.984375 17.28125 19.8125 11.734375 
Q 24.65625 6.203125 33.40625 6.203125 
Q 37.3125 6.203125 41.140625 7.25 
Q 44.96875 8.296875 48.78125 10.40625 
L 48.78125 2.09375 
Q 45.015625 0.34375 40.984375 -0.53125 
Q 36.96875 -1.421875 32.421875 -1.421875 
Q 20.0625 -1.421875 12.78125 6.34375 
Q 5.515625 14.109375 5.515625 27.296875 
Q 5.515625 40.671875 12.859375 48.328125 
Q 20.21875 56 33.015625 56 
Q 37.15625 56 41.109375 55.140625 
Q 45.0625 54.296875 48.78125 52.59375 
z
" id="DejaVuSans-99"/>
      <path d="M 54.890625 33.015625 
L 54.890625 0 
L 45.90625 0 
L 45.90625 32.71875 
Q 45.90625 40.484375 42.875 44.328125 
Q 39.84375 48.1875 33.796875 48.1875 
Q 26.515625 48.1875 22.3125 43.546875 
Q 18.109375 38.921875 18.109375 30.90625 
L 18.109375 0 
L 9.078125 0 
L 9.078125 75.984375 
L 18.109375 75.984375 
L 18.109375 46.1875 
Q 21.34375 51.125 25.703125 53.5625 
Q 30.078125 56 35.796875 56 
Q 45.21875 56 50.046875 50.171875 
Q 54.890625 44.34375 54.890625 33.015625 
z
" id="DejaVuSans-104"/>
     </defs>
     <g transform="translate(369.632813 365.435781)scale(0.1 -0.1)">
      <use xlink:href="#DejaVuSans-69"/>
      <use x="63.183594" xlink:href="#DejaVuSans-112"/>
      <use x="126.660156" xlink:href="#DejaVuSans-111"/>
      <use x="187.841797" xlink:href="#DejaVuSans-99"/>
      <use x="242.822266" xlink:href="#DejaVuSans-104"/>
     </g>
    </g>
   </g>
   <g id="matplotlib.axis_2">
    <g id="ytick_1">
     <g id="line2d_13">
      <path clip-path="url(#p487248210f)" d="M 50.14375 337.159219 
L 719.74375 337.159219 
" style="fill:none;stroke:#b0b0b0;stroke-linecap:square;stroke-width:0.8;"/>
     </g>
     <g id="line2d_14">
      <defs>
       <path d="M 0 0 
L -3.5 0 
" id="m46df80cf5d" style="stroke:#000000;stroke-width:0.8;"/>
      </defs>
      <g>
       <use style="stroke:#000000;stroke-width:0.8;" x="50.14375" xlink:href="#m46df80cf5d" y="337.159219"/>
      </g>
     </g>
     <g id="text_8">
      <!-- 0.82 -->
      <defs>
       <path d="M 10.6875 12.40625 
L 21 12.40625 
L 21 0 
L 10.6875 0 
z
" id="DejaVuSans-46"/>
      </defs>
      <g transform="translate(20.878125 340.958437)scale(0.1 -0.1)">
       <use xlink:href="#DejaVuSans-48"/>
       <use x="63.623047" xlink:href="#DejaVuSans-46"/>
       <use x="95.410156" xlink:href="#DejaVuSans-56"/>
       <use x="159.033203" xlink:href="#DejaVuSans-50"/>
      </g>
     </g>
    </g>
    <g id="ytick_2">
     <g id="line2d_15">
      <path clip-path="url(#p487248210f)" d="M 50.14375 296.389219 
L 719.74375 296.389219 
" style="fill:none;stroke:#b0b0b0;stroke-linecap:square;stroke-width:0.8;"/>
     </g>
     <g id="line2d_16">
      <g>
       <use style="stroke:#000000;stroke-width:0.8;" x="50.14375" xlink:href="#m46df80cf5d" y="296.389219"/>
      </g>
     </g>
     <g id="text_9">
      <!-- 0.84 -->
      <g transform="translate(20.878125 300.188437)scale(0.1 -0.1)">
       <use xlink:href="#DejaVuSans-48"/>
       <use x="63.623047" xlink:href="#DejaVuSans-46"/>
       <use x="95.410156" xlink:href="#DejaVuSans-56"/>
       <use x="159.033203" xlink:href="#DejaVuSans-52"/>
      </g>
     </g>
    </g>
    <g id="ytick_3">
     <g id="line2d_17">
      <path clip-path="url(#p487248210f)" d="M 50.14375 255.619219 
L 719.74375 255.619219 
" style="fill:none;stroke:#b0b0b0;stroke-linecap:square;stroke-width:0.8;"/>
     </g>
     <g id="line2d_18">
      <g>
       <use style="stroke:#000000;stroke-width:0.8;" x="50.14375" xlink:href="#m46df80cf5d" y="255.619219"/>
      </g>
     </g>
     <g id="text_10">
      <!-- 0.86 -->
      <g transform="translate(20.878125 259.418437)scale(0.1 -0.1)">
       <use xlink:href="#DejaVuSans-48"/>
       <use x="63.623047" xlink:href="#DejaVuSans-46"/>
       <use x="95.410156" xlink:href="#DejaVuSans-56"/>
       <use x="159.033203" xlink:href="#DejaVuSans-54"/>
      </g>
     </g>
    </g>
    <g id="ytick_4">
     <g id="line2d_19">
      <path clip-path="url(#p487248210f)" d="M 50.14375 214.849219 
L 719.74375 214.849219 
" style="fill:none;stroke:#b0b0b0;stroke-linecap:square;stroke-width:0.8;"/>
     </g>
     <g id="line2d_20">
      <g>
       <use style="stroke:#000000;stroke-width:0.8;" x="50.14375" xlink:href="#m46df80cf5d" y="214.849219"/>
      </g>
     </g>
     <g id="text_11">
      <!-- 0.88 -->
      <g transform="translate(20.878125 218.648437)scale(0.1 -0.1)">
       <use xlink:href="#DejaVuSans-48"/>
       <use x="63.623047" xlink:href="#DejaVuSans-46"/>
       <use x="95.410156" xlink:href="#DejaVuSans-56"/>
       <use x="159.033203" xlink:href="#DejaVuSans-56"/>
      </g>
     </g>
    </g>
    <g id="ytick_5">
     <g id="line2d_21">
      <path clip-path="url(#p487248210f)" d="M 50.14375 174.079219 
L 719.74375 174.079219 
" style="fill:none;stroke:#b0b0b0;stroke-linecap:square;stroke-width:0.8;"/>
     </g>
     <g id="line2d_22">
      <g>
       <use style="stroke:#000000;stroke-width:0.8;" x="50.14375" xlink:href="#m46df80cf5d" y="174.079219"/>
      </g>
     </g>
     <g id="text_12">
      <!-- 0.90 -->
      <defs>
       <path d="M 10.984375 1.515625 
L 10.984375 10.5 
Q 14.703125 8.734375 18.5 7.8125 
Q 22.3125 6.890625 25.984375 6.890625 
Q 35.75 6.890625 40.890625 13.453125 
Q 46.046875 20.015625 46.78125 33.40625 
Q 43.953125 29.203125 39.59375 26.953125 
Q 35.25 24.703125 29.984375 24.703125 
Q 19.046875 24.703125 12.671875 31.3125 
Q 6.296875 37.9375 6.296875 49.421875 
Q 6.296875 60.640625 12.9375 67.421875 
Q 19.578125 74.21875 30.609375 74.21875 
Q 43.265625 74.21875 49.921875 64.515625 
Q 56.59375 54.828125 56.59375 36.375 
Q 56.59375 19.140625 48.40625 8.859375 
Q 40.234375 -1.421875 26.421875 -1.421875 
Q 22.703125 -1.421875 18.890625 -0.6875 
Q 15.09375 0.046875 10.984375 1.515625 
z
M 30.609375 32.421875 
Q 37.25 32.421875 41.125 36.953125 
Q 45.015625 41.5 45.015625 49.421875 
Q 45.015625 57.28125 41.125 61.84375 
Q 37.25 66.40625 30.609375 66.40625 
Q 23.96875 66.40625 20.09375 61.84375 
Q 16.21875 57.28125 16.21875 49.421875 
Q 16.21875 41.5 20.09375 36.953125 
Q 23.96875 32.421875 30.609375 32.421875 
z
" id="DejaVuSans-57"/>
      </defs>
      <g transform="translate(20.878125 177.878437)scale(0.1 -0.1)">
       <use xlink:href="#DejaVuSans-48"/>
       <use x="63.623047" xlink:href="#DejaVuSans-46"/>
       <use x="95.410156" xlink:href="#DejaVuSans-57"/>
       <use x="159.033203" xlink:href="#DejaVuSans-48"/>
      </g>
     </g>
    </g>
    <g id="ytick_6">
     <g id="line2d_23">
      <path clip-path="url(#p487248210f)" d="M 50.14375 133.309219 
L 719.74375 133.309219 
" style="fill:none;stroke:#b0b0b0;stroke-linecap:square;stroke-width:0.8;"/>
     </g>
     <g id="line2d_24">
      <g>
       <use style="stroke:#000000;stroke-width:0.8;" x="50.14375" xlink:href="#m46df80cf5d" y="133.309219"/>
      </g>
     </g>
     <g id="text_13">
      <!-- 0.92 -->
      <g transform="translate(20.878125 137.108437)scale(0.1 -0.1)">
       <use xlink:href="#DejaVuSans-48"/>
       <use x="63.623047" xlink:href="#DejaVuSans-46"/>
       <use x="95.410156" xlink:href="#DejaVuSans-57"/>
       <use x="159.033203" xlink:href="#DejaVuSans-50"/>
      </g>
     </g>
    </g>
    <g id="ytick_7">
     <g id="line2d_25">
      <path clip-path="url(#p487248210f)" d="M 50.14375 92.539219 
L 719.74375 92.539219 
" style="fill:none;stroke:#b0b0b0;stroke-linecap:square;stroke-width:0.8;"/>
     </g>
     <g id="line2d_26">
      <g>
       <use style="stroke:#000000;stroke-width:0.8;" x="50.14375" xlink:href="#m46df80cf5d" y="92.539219"/>
      </g>
     </g>
     <g id="text_14">
      <!-- 0.94 -->
      <g transform="translate(20.878125 96.338437)scale(0.1 -0.1)">
       <use xlink:href="#DejaVuSans-48"/>
       <use x="63.623047" xlink:href="#DejaVuSans-46"/>
       <use x="95.410156" xlink:href="#DejaVuSans-57"/>
       <use x="159.033203" xlink:href="#DejaVuSans-52"/>
      </g>
     </g>
    </g>
    <g id="ytick_8">
     <g id="line2d_27">
      <path clip-path="url(#p487248210f)" d="M 50.14375 51.769219 
L 719.74375 51.769219 
" style="fill:none;stroke:#b0b0b0;stroke-linecap:square;stroke-width:0.8;"/>
     </g>
     <g id="line2d_28">
      <g>
       <use style="stroke:#000000;stroke-width:0.8;" x="50.14375" xlink:href="#m46df80cf5d" y="51.769219"/>
      </g>
     </g>
     <g id="text_15">
      <!-- 0.96 -->
      <g transform="translate(20.878125 55.568437)scale(0.1 -0.1)">
       <use xlink:href="#DejaVuSans-48"/>
       <use x="63.623047" xlink:href="#DejaVuSans-46"/>
       <use x="95.410156" xlink:href="#DejaVuSans-57"/>
       <use x="159.033203" xlink:href="#DejaVuSans-54"/>
      </g>
     </g>
    </g>
    <g id="ytick_9">
     <g id="line2d_29">
      <path clip-path="url(#p487248210f)" d="M 50.14375 10.999219 
L 719.74375 10.999219 
" style="fill:none;stroke:#b0b0b0;stroke-linecap:square;stroke-width:0.8;"/>
     </g>
     <g id="line2d_30">
      <g>
       <use style="stroke:#000000;stroke-width:0.8;" x="50.14375" xlink:href="#m46df80cf5d" y="10.999219"/>
      </g>
     </g>
     <g id="text_16">
      <!-- 0.98 -->
      <g transform="translate(20.878125 14.798437)scale(0.1 -0.1)">
       <use xlink:href="#DejaVuSans-48"/>
       <use x="63.623047" xlink:href="#DejaVuSans-46"/>
       <use x="95.410156" xlink:href="#DejaVuSans-57"/>
       <use x="159.033203" xlink:href="#DejaVuSans-56"/>
      </g>
     </g>
    </g>
    <g id="text_17">
     <!-- Accuracy -->
     <defs>
      <path d="M 34.1875 63.1875 
L 20.796875 26.90625 
L 47.609375 26.90625 
z
M 28.609375 72.90625 
L 39.796875 72.90625 
L 67.578125 0 
L 57.328125 0 
L 50.6875 18.703125 
L 17.828125 18.703125 
L 11.1875 0 
L 0.78125 0 
z
" id="DejaVuSans-65"/>
      <path d="M 8.5 21.578125 
L 8.5 54.6875 
L 17.484375 54.6875 
L 17.484375 21.921875 
Q 17.484375 14.15625 20.5 10.265625 
Q 23.53125 6.390625 29.59375 6.390625 
Q 36.859375 6.390625 41.078125 11.03125 
Q 45.3125 15.671875 45.3125 23.6875 
L 45.3125 54.6875 
L 54.296875 54.6875 
L 54.296875 0 
L 45.3125 0 
L 45.3125 8.40625 
Q 42.046875 3.421875 37.71875 1 
Q 33.40625 -1.421875 27.6875 -1.421875 
Q 18.265625 -1.421875 13.375 4.4375 
Q 8.5 10.296875 8.5 21.578125 
z
M 31.109375 56 
z
" id="DejaVuSans-117"/>
      <path d="M 41.109375 46.296875 
Q 39.59375 47.171875 37.8125 47.578125 
Q 36.03125 48 33.890625 48 
Q 26.265625 48 22.1875 43.046875 
Q 18.109375 38.09375 18.109375 28.8125 
L 18.109375 0 
L 9.078125 0 
L 9.078125 54.6875 
L 18.109375 54.6875 
L 18.109375 46.1875 
Q 20.953125 51.171875 25.484375 53.578125 
Q 30.03125 56 36.53125 56 
Q 37.453125 56 38.578125 55.875 
Q 39.703125 55.765625 41.0625 55.515625 
z
" id="DejaVuSans-114"/>
      <path d="M 34.28125 27.484375 
Q 23.390625 27.484375 19.1875 25 
Q 14.984375 22.515625 14.984375 16.5 
Q 14.984375 11.71875 18.140625 8.90625 
Q 21.296875 6.109375 26.703125 6.109375 
Q 34.1875 6.109375 38.703125 11.40625 
Q 43.21875 16.703125 43.21875 25.484375 
L 43.21875 27.484375 
z
M 52.203125 31.203125 
L 52.203125 0 
L 43.21875 0 
L 43.21875 8.296875 
Q 40.140625 3.328125 35.546875 0.953125 
Q 30.953125 -1.421875 24.3125 -1.421875 
Q 15.921875 -1.421875 10.953125 3.296875 
Q 6 8.015625 6 15.921875 
Q 6 25.140625 12.171875 29.828125 
Q 18.359375 34.515625 30.609375 34.515625 
L 43.21875 34.515625 
L 43.21875 35.40625 
Q 43.21875 41.609375 39.140625 45 
Q 35.0625 48.390625 27.6875 48.390625 
Q 23 48.390625 18.546875 47.265625 
Q 14.109375 46.140625 10.015625 43.890625 
L 10.015625 52.203125 
Q 14.9375 54.109375 19.578125 55.046875 
Q 24.21875 56 28.609375 56 
Q 40.484375 56 46.34375 49.84375 
Q 52.203125 43.703125 52.203125 31.203125 
z
" id="DejaVuSans-97"/>
      <path d="M 32.171875 -5.078125 
Q 28.375 -14.84375 24.75 -17.8125 
Q 21.140625 -20.796875 15.09375 -20.796875 
L 7.90625 -20.796875 
L 7.90625 -13.28125 
L 13.1875 -13.28125 
Q 16.890625 -13.28125 18.9375 -11.515625 
Q 21 -9.765625 23.484375 -3.21875 
L 25.09375 0.875 
L 2.984375 54.6875 
L 12.5 54.6875 
L 29.59375 11.921875 
L 46.6875 54.6875 
L 56.203125 54.6875 
z
" id="DejaVuSans-121"/>
     </defs>
     <g transform="translate(14.798438 196.994062)rotate(-90)scale(0.1 -0.1)">
      <use xlink:href="#DejaVuSans-65"/>
      <use x="68.392578" xlink:href="#DejaVuSans-99"/>
      <use x="123.373047" xlink:href="#DejaVuSans-99"/>
      <use x="178.353516" xlink:href="#DejaVuSans-117"/>
      <use x="241.732422" xlink:href="#DejaVuSans-114"/>
      <use x="282.845703" xlink:href="#DejaVuSans-97"/>
      <use x="344.125" xlink:href="#DejaVuSans-99"/>
      <use x="399.105469" xlink:href="#DejaVuSans-121"/>
     </g>
    </g>
   </g>
   <g id="line2d_31">
    <path clip-path="url(#p487248210f)" d="M 78.208568 375.715469 
L 80.755493 361.84464 
L 83.306472 349.482431 
L 85.857451 338.426422 
L 88.408429 328.451127 
L 90.959408 319.33106 
L 94.148131 308.852113 
L 97.336854 299.288661 
L 100.525578 290.572226 
L 103.714301 282.634331 
L 106.903024 275.406497 
L 110.091748 268.820248 
L 113.280471 262.807106 
L 116.469194 257.298593 
L 119.657917 252.226233 
L 123.484385 246.618706 
L 127.310853 241.422301 
L 131.775066 235.722269 
L 136.877023 229.539795 
L 141.97898 223.683632 
L 147.080937 218.138654 
L 152.182895 212.889734 
L 157.922597 207.319747 
L 163.662299 202.083776 
L 169.402 197.160284 
L 175.141702 192.527732 
L 180.881404 188.164584 
L 187.258851 183.606412 
L 193.636297 179.324702 
L 200.651488 174.898875 
L 207.66668 170.732495 
L 215.319616 166.438821 
L 223.610296 162.052171 
L 231.900977 157.922 
L 240.191657 154.029117 
L 249.120082 150.080142 
L 258.686252 146.102562 
L 268.890166 142.116325 
L 279.731826 138.131882 
L 291.211229 134.148096 
L 303.966122 129.957163 
L 316.721016 125.996746 
L 330.113653 122.073272 
L 343.506291 118.376824 
L 357.536673 114.73272 
L 372.204801 111.155752 
L 387.510672 107.658463 
L 403.454289 104.252378 
L 420.03565 100.946035 
L 437.254755 97.74422 
L 455.111606 94.647483 
L 474.243945 91.551816 
L 495.289519 88.373204 
L 518.886071 85.038312 
L 546.309091 81.392547 
L 572.456622 78.136017 
L 596.690919 75.340402 
L 619.649726 72.916394 
L 641.333045 70.850164 
L 661.740874 69.12238 
L 681.510958 67.6658 
L 687.888405 67.244163 
L 687.888405 67.244163 
" style="fill:none;stroke:#377eb8;stroke-linecap:square;stroke-width:2;"/>
   </g>
   <g id="line2d_32">
    <path clip-path="url(#p487248210f)" d="M 66.760689 375.715469 
L 68.0006 359.826804 
L 69.27609 347.840893 
L 70.551579 338.710001 
L 72.464813 327.248393 
L 74.378047 316.975753 
L 76.291281 307.760963 
L 78.204515 299.50439 
L 80.117749 292.1064 
L 82.030983 285.467359 
L 83.944217 279.487633 
L 86.495195 272.36806 
L 89.046174 266.007307 
L 92.234897 258.768261 
L 95.42362 252.072353 
L 98.612344 245.873466 
L 101.801067 240.140985 
L 104.98979 234.844297 
L 108.178514 229.952787 
L 111.367237 225.43584 
L 114.55596 221.262843 
L 117.744683 217.403181 
L 121.571151 213.142085 
L 125.397619 209.235205 
L 129.224087 205.629641 
L 133.6883 201.737534 
L 138.152512 198.148396 
L 142.616725 194.845982 
L 147.080937 191.814312 
L 151.54515 189.037408 
L 156.009363 186.499289 
L 161.11132 183.870474 
L 166.213277 181.508819 
L 171.315234 179.390471 
L 177.054936 177.268457 
L 182.794638 175.390228 
L 189.172085 173.547919 
L 196.187276 171.764968 
L 204.477956 169.904481 
L 215.319616 167.716171 
L 228.074509 165.35991 
L 241.467146 163.11865 
L 254.859784 161.100977 
L 268.890166 159.21053 
L 283.558294 157.459849 
L 298.864165 155.85781 
L 314.807782 154.409063 
L 332.026887 153.067526 
L 350.521482 151.848828 
L 371.567056 150.692357 
L 394.525863 149.653777 
L 419.397905 148.751459 
L 446.820925 147.980282 
L 478.708158 147.312304 
L 520.16156 146.684162 
L 620.925216 145.25143 
L 652.812449 144.519372 
L 680.235469 143.674313 
L 687.888405 143.395438 
L 687.888405 143.395438 
" style="fill:none;stroke:#4daf4a;stroke-linecap:square;stroke-width:2;"/>
   </g>
   <g id="line2d_33">
    <path clip-path="url(#p487248210f)" d="M 77.594531 375.715469 
L 78.204515 371.864683 
L 78.842259 370.284887 
L 79.428106 375.715469 
M 79.503894 375.715469 
L 80.117749 363.353931 
L 80.755493 360.347191 
L 81.393238 353.824002 
L 82.030983 356.219212 
L 82.668727 347.14784 
L 83.306472 351.938381 
L 83.944217 347.249782 
L 84.581961 346.128664 
L 85.219706 344.293952 
L 85.857451 336.190967 
L 86.495195 335.222701 
L 87.13294 328.036951 
L 87.770685 335.528406 
L 88.408429 329.311043 
L 89.046174 324.41856 
L 89.683919 322.430996 
L 90.321663 318.354049 
L 90.959408 317.946403 
L 91.597153 316.723221 
L 92.234897 312.697184 
L 92.872642 318.659874 
L 93.510387 308.722178 
L 94.148131 304.135521 
L 94.785876 304.135521 
L 95.42362 299.803658 
L 96.061365 299.24316 
L 96.69911 301.179692 
L 97.336854 300.924898 
L 97.974599 294.809355 
L 98.612344 292.668939 
L 99.250088 291.394847 
L 99.887833 293.280469 
L 100.525578 290.426582 
L 101.163322 285.839924 
L 101.801067 287.36881 
L 102.438812 284.158187 
L 103.076556 283.444715 
L 103.714301 279.214915 
L 104.352046 281.253389 
L 104.98979 284.005335 
L 105.627535 278.807148 
L 106.26528 278.042765 
L 106.903024 275.239788 
L 107.540769 277.686029 
L 108.178514 276.259086 
L 108.816258 274.271522 
L 109.454003 264.690562 
L 110.091748 270.347427 
L 110.729492 271.366603 
L 111.367237 266.729036 
L 112.004981 263.671264 
L 112.642726 268.359863 
L 113.280471 268.054037 
L 114.55596 256.791339 
L 115.831449 265.047298 
L 116.469194 255.313485 
L 117.106939 261.276055 
L 117.744683 258.320225 
L 118.382428 252.510508 
L 119.020173 258.065431 
L 119.657917 254.701834 
L 120.295662 254.192246 
L 120.933407 249.605589 
L 121.571151 247.618147 
L 122.208896 254.752866 
L 122.846641 248.484471 
L 123.484385 249.04509 
L 124.12213 243.541078 
L 124.759875 244.713227 
L 125.397619 245.222815 
L 126.035364 243.184342 
L 126.673109 237.629419 
L 127.310853 247.108437 
L 127.948598 246.242113 
L 128.586343 239.158304 
L 129.861832 233.042883 
L 130.499576 236.763095 
L 131.137321 235.998713 
L 131.775066 235.590945 
L 132.41281 237.017889 
L 133.050555 230.698584 
L 133.6883 237.476567 
L 134.326044 233.195735 
L 134.963789 236.610243 
L 136.239278 226.570604 
L 136.877023 232.787968 
L 137.514768 229.475402 
L 138.152512 229.220608 
L 138.790257 224.735893 
L 139.428002 223.563865 
L 140.065746 226.213868 
L 140.703491 228.201432 
L 141.341236 221.882005 
L 141.97898 220.608035 
L 142.616725 224.277337 
L 143.25447 221.117623 
L 143.892214 222.748451 
L 144.529959 221.983947 
L 145.167704 215.613611 
L 145.805448 213.269433 
L 146.443193 215.053112 
L 147.080937 218.875266 
L 147.718682 218.926176 
L 148.356427 212.963607 
L 148.994171 217.040554 
L 149.631916 217.193528 
L 150.269661 216.378114 
L 150.907405 209.651041 
L 151.54515 208.071246 
L 152.182895 212.352077 
L 152.820639 210.364513 
L 153.458384 212.199225 
L 154.096129 212.861665 
L 154.733873 214.033815 
L 155.371618 207.102858 
L 156.009363 210.466455 
L 156.647107 201.853761 
L 157.284852 204.300002 
L 157.922597 202.771117 
L 158.560341 204.096118 
L 159.198086 205.828888 
L 159.835831 202.210497 
L 160.473575 208.32604 
L 161.749065 198.337312 
L 162.386809 201.242231 
L 163.024554 202.720085 
L 163.662299 204.75868 
L 164.300043 200.477849 
L 164.937788 205.217358 
L 165.575532 199.305699 
L 166.213277 195.585366 
L 166.851022 199.662435 
L 167.488766 200.172023 
L 168.126511 199.152725 
L 168.764256 202.873058 
L 169.402 198.184459 
L 170.039745 199.509461 
L 170.67749 198.337312 
L 171.315234 194.769952 
L 171.952979 193.699744 
L 172.590724 192.884331 
L 173.228468 198.643137 
L 173.866213 192.119948 
L 174.503958 194.05648 
L 175.141702 193.954538 
L 176.417192 191.202593 
L 177.054936 189.622797 
L 177.692681 187.635233 
L 178.330426 189.215029 
L 178.96817 188.858293 
L 179.605915 187.278497 
L 180.24366 186.870851 
L 180.881404 188.144821 
L 181.519149 183.711138 
L 182.156893 189.673707 
L 182.794638 186.921761 
L 183.432383 186.004406 
L 184.070127 189.520855 
L 184.707872 190.845857 
L 185.345617 188.450647 
L 185.983361 187.686265 
L 186.621106 184.3737 
L 187.258851 187.380439 
L 187.896595 188.450647 
L 188.53434 176.729271 
L 189.172085 184.526552 
L 189.809829 176.627329 
L 190.447574 179.837953 
L 191.085319 180.041836 
L 191.723063 183.456344 
L 192.360808 177.391833 
L 192.998553 178.920597 
L 194.274042 180.602456 
L 194.911787 179.226423 
L 195.549531 177.035097 
L 196.187276 178.258157 
L 196.825021 179.022539 
L 197.462765 176.219683 
L 198.10051 182.335104 
L 198.738255 178.309067 
L 199.375999 181.366838 
L 200.013744 171.429142 
L 200.651488 173.875384 
L 201.289233 174.588855 
L 201.926978 178.767745 
L 202.564722 172.040672 
L 203.202467 172.907118 
L 203.840212 175.149475 
L 204.477956 175.608153 
L 205.115701 172.805176 
L 205.753446 174.89456 
L 207.028935 171.27629 
L 207.66668 174.181088 
L 208.304424 165.925251 
L 208.942169 168.88108 
L 209.579914 166.995459 
L 210.217658 163.835745 
L 210.855403 169.135874 
L 211.493148 168.422402 
L 212.130892 171.734968 
L 212.768637 171.27629 
L 213.406382 164.905953 
L 214.044126 162.001155 
L 214.681871 167.352195 
L 215.319616 169.288726 
L 215.95736 167.759841 
L 216.595105 164.192481 
L 217.232849 167.250253 
L 217.870594 159.605824 
L 218.508339 167.199221 
L 219.783828 169.135874 
L 220.421573 165.670457 
L 221.059317 158.535616 
L 222.334807 160.727064 
L 222.972551 162.357891 
L 223.610296 167.505047 
L 224.248041 161.69533 
L 224.885785 162.357891 
L 225.52353 159.554914 
L 226.161275 157.669292 
L 226.799019 160.625122 
L 227.436764 156.446232 
L 228.074509 158.382764 
L 228.712253 154.815405 
L 229.349998 159.147146 
L 229.987743 158.229912 
L 230.625487 156.446232 
L 231.263232 156.802968 
L 231.900977 155.936523 
L 232.538721 152.369163 
L 233.176466 155.477967 
L 233.81421 150.891309 
L 234.451955 157.771234 
L 235.0897 162.612685 
L 235.727444 153.592345 
L 236.365189 161.0838 
L 237.002934 157.159704 
L 237.640678 154.305817 
L 238.916168 155.477967 
L 239.553912 150.432632 
L 240.191657 158.17888 
L 240.829402 150.024864 
L 241.467146 154.152843 
L 242.742636 152.267222 
L 243.38038 153.388461 
L 244.018125 149.77007 
L 244.65587 151.910486 
L 245.293614 151.298956 
L 246.569104 156.344291 
L 247.206848 148.903746 
L 247.844593 148.648952 
L 248.482338 149.413334 
L 249.120082 149.464366 
L 249.757827 144.011385 
L 250.395572 149.821102 
L 251.033316 147.782628 
L 251.671061 147.833538 
L 252.94655 151.298956 
L 253.584295 149.362424 
L 254.222039 149.77007 
L 254.859784 152.776931 
L 255.497529 152.318253 
L 256.135273 145.183534 
L 256.773018 148.954656 
L 257.410763 145.183534 
L 258.048507 139.475638 
L 258.686252 147.018124 
L 259.323997 148.954656 
L 260.599486 143.909443 
L 261.237231 148.139364 
L 262.51272 141.616053 
L 263.788209 143.195971 
L 264.425954 144.775767 
L 265.063699 139.526669 
L 265.701443 144.622915 
L 266.976933 141.769027 
L 267.614677 141.717995 
L 268.252422 140.953613 
L 268.890166 140.647787 
L 269.527911 143.450765 
L 270.165656 140.18911 
L 270.8034 142.839235 
L 271.441145 142.686261 
L 272.716634 139.118902 
L 273.354379 140.444025 
L 274.629868 138.609314 
L 275.267613 142.176673 
L 275.905358 141.870969 
L 276.543102 143.195971 
L 277.180847 134.481334 
L 277.818592 142.125763 
L 278.456336 135.500632 
L 279.094081 138.150636 
L 279.731826 138.660224 
L 280.36957 137.641048 
L 281.007315 140.240141 
L 281.64506 138.915139 
L 282.282804 138.099726 
L 282.920549 134.634187 
L 283.558294 133.360216 
L 284.196038 136.672782 
L 284.833783 141.055555 
L 285.471528 133.61501 
L 286.109272 140.444025 
L 286.747017 139.424727 
L 287.384761 136.366956 
L 288.022506 135.092864 
L 288.660251 134.78716 
L 289.297995 135.857368 
L 289.93574 129.843767 
L 290.573485 135.806336 
L 291.211229 134.583276 
L 291.848974 138.96605 
L 292.486719 130.964885 
L 293.124463 136.672782 
L 293.762208 133.156333 
L 294.399953 132.952449 
L 295.037697 129.792857 
L 295.675442 137.335222 
L 296.313187 131.423563 
L 296.950931 130.404387 
L 298.226421 136.265014 
L 298.864165 132.901539 
L 299.50191 134.022657 
L 300.139655 131.576537 
L 300.777399 131.525505 
L 301.415144 131.627447 
L 302.052889 128.518765 
L 302.690633 129.283147 
L 303.328378 130.557239 
L 303.966122 130.251413 
L 304.603867 130.302445 
L 305.241612 134.124599 
L 305.879356 127.397526 
L 306.517101 130.659181 
L 307.154846 130.353355 
L 307.79259 129.385089 
L 308.430335 123.320578 
L 309.06808 132.188067 
L 309.705824 124.951406 
L 310.343569 126.480292 
L 310.981314 127.60141 
L 312.256803 132.493771 
L 312.894548 124.441696 
L 313.532292 127.856204 
L 314.170037 125.715788 
L 314.807782 126.633144 
L 315.445526 130.404387 
L 316.083271 126.633144 
L 316.721016 124.237934 
L 317.35876 125.460994 
L 317.996505 125.155168 
L 318.63425 123.575372 
L 319.271994 126.582112 
L 319.909739 127.907235 
L 321.185228 123.065784 
L 321.822973 124.08496 
L 322.460717 120.874337 
L 323.098462 123.269547 
L 323.736207 121.842603 
L 324.373951 122.709048 
L 325.011696 127.244674 
L 325.649441 119.906071 
L 326.287185 125.970582 
L 327.562675 121.129131 
L 328.200419 121.587809 
L 328.838164 126.42926 
L 329.475909 117.052183 
L 330.113653 120.568633 
L 330.751398 121.740782 
L 331.389143 121.434957 
L 332.026887 122.81099 
L 332.664632 123.116694 
L 333.302377 119.039747 
L 333.940121 119.549335 
L 334.577866 126.531202 
L 335.215611 121.078221 
L 335.853355 120.313839 
L 336.4911 117.663713 
L 337.128845 118.020449 
L 337.766589 115.523298 
L 338.404334 116.8483 
L 339.042078 119.498425 
L 339.679823 119.804129 
L 340.317568 116.950241 
L 340.955312 117.45983 
L 341.593057 122.301281 
L 342.230802 114.249206 
L 342.868546 122.148429 
L 343.506291 121.02731 
L 344.144036 115.981976 
L 344.78178 119.396483 
L 345.419525 119.294541 
L 346.05727 116.185859 
L 346.695014 118.122391 
L 347.332759 118.886773 
L 347.970504 117.816565 
L 348.608248 119.243509 
L 349.245993 119.396483 
L 349.883738 116.8483 
L 350.521482 117.45983 
L 351.159227 114.45309 
L 351.796972 113.739618 
L 352.434716 114.198296 
L 353.072461 116.899331 
L 353.710206 112.924204 
L 354.34795 115.421356 
L 354.985695 116.746358 
L 355.62344 117.612803 
L 356.261184 112.312674 
L 356.898929 112.414616 
L 358.174418 110.579905 
L 358.812163 116.593506 
L 359.449907 111.701144 
L 360.087652 113.077056 
L 360.725397 114.045444 
L 361.363141 110.376142 
L 362.000886 113.331972 
L 362.638631 114.758916 
L 363.276375 114.504 
L 363.91412 115.217472 
L 364.551865 113.178998 
L 365.189609 108.592463 
L 365.827354 113.077056 
L 366.465099 111.701144 
L 367.102843 112.822262 
L 367.740588 116.8483 
L 368.378333 112.924204 
L 369.016077 115.319414 
L 369.653822 112.159822 
L 370.291567 105.687543 
L 370.929311 110.325111 
L 371.567056 111.955938 
L 372.204801 115.727182 
L 372.842545 107.165397 
L 373.48029 110.579905 
L 374.118034 106.808661 
L 374.755779 108.745315 
L 375.393524 108.031843 
L 376.031268 107.878991 
L 376.669013 109.407755 
L 377.306758 106.350105 
L 377.944502 114.860736 
L 378.582247 105.177955 
L 379.219992 107.726017 
L 379.857736 105.177955 
L 380.495481 110.172259 
L 381.133226 111.955938 
L 381.77097 109.66267 
L 382.408715 108.490521 
L 383.04646 107.063577 
L 383.684204 109.356845 
L 384.321949 105.48366 
L 384.959694 111.803086 
L 385.597438 108.082753 
L 386.872928 106.757751 
L 387.510672 103.496096 
L 388.148417 102.935598 
L 388.786162 109.254903 
L 389.423906 100.13262 
L 390.061651 111.803086 
L 390.699396 109.509697 
L 391.33714 105.381718 
L 391.974885 105.381718 
L 392.612629 104.209689 
L 393.250374 104.566425 
L 393.888119 106.553867 
L 394.525863 102.273036 
L 395.163608 103.496096 
L 395.801353 110.528994 
L 396.439097 107.114487 
L 397.076842 102.782624 
L 397.714587 107.114487 
L 398.352331 108.745315 
L 398.990076 105.279897 
L 399.627821 105.024982 
L 400.265565 108.949199 
L 400.90331 107.573165 
L 401.541055 104.821219 
L 402.178799 104.362541 
L 402.816544 108.847257 
L 403.454289 103.496096 
L 404.092033 106.910603 
L 404.729778 108.694283 
L 405.367523 103.547128 
L 406.005267 107.827959 
L 406.643012 105.228866 
L 407.280757 101.86539 
L 407.918501 104.31151 
L 408.556246 103.343244 
L 409.19399 102.578862 
L 409.831735 100.948034 
L 410.46948 104.158658 
L 411.107224 105.789485 
L 411.744969 100.846092 
L 412.382714 101.202828 
L 413.020458 103.190392 
L 413.658203 103.801922 
L 414.295948 100.030678 
L 414.933692 100.998944 
L 415.571437 103.343244 
L 416.209182 104.923161 
L 416.846926 98.654766 
L 417.484671 99.623032 
L 418.122416 97.941294 
L 418.76016 104.2606 
L 419.397905 102.324068 
L 420.03565 98.196089 
L 420.673394 98.756587 
L 421.311139 100.846092 
L 421.948884 106.757751 
L 422.586628 97.380675 
L 423.224373 98.043115 
L 423.862118 95.495053 
L 424.499862 100.285472 
L 425.137607 100.998944 
L 425.775352 97.941294 
L 426.413096 102.324068 
L 427.050841 101.712416 
L 427.688585 96.259435 
L 428.32633 97.023939 
L 428.964075 101.610596 
L 429.601819 100.438446 
L 430.239564 98.960471 
L 430.877309 103.445186 
L 431.515053 100.642208 
L 432.152798 98.399851 
L 432.790543 103.852953 
L 433.428287 100.998944 
L 434.066032 104.566425 
L 434.703777 98.246999 
L 435.341521 98.552824 
L 435.979266 99.368238 
L 436.617011 95.545963 
L 437.254755 101.406712 
L 437.8925 94.883523 
L 438.530245 101.508654 
L 439.167989 95.800879 
L 439.805734 96.412409 
L 440.443479 95.647905 
L 441.718968 99.775884 
L 442.356713 95.749847 
L 442.994457 98.756587 
L 443.632202 96.871087 
L 444.269946 96.259435 
L 444.907691 94.679639 
L 445.545436 95.902699 
L 446.18318 95.291169 
L 446.820925 95.902699 
L 447.45867 97.584559 
L 448.096414 92.233398 
L 448.734159 101.100886 
L 449.371904 92.28443 
L 450.009648 94.322903 
L 450.647393 95.291169 
L 451.285138 93.609431 
L 451.922882 97.074849 
L 452.560627 94.577697 
L 453.198372 99.164354 
L 453.836116 97.941294 
L 454.473861 93.252695 
L 455.111606 94.424845 
L 455.74935 97.023939 
L 457.02484 94.628729 
L 457.662584 99.419148 
L 458.300329 97.278733 
L 458.938074 91.469016 
L 459.575818 95.800879 
L 460.213563 93.813315 
L 460.851308 93.303606 
L 461.489052 89.685336 
L 462.126797 93.303606 
L 462.764541 94.883523 
L 463.402286 95.800879 
L 464.040031 93.609431 
L 464.677775 97.176791 
L 465.953265 91.469016 
L 466.591009 92.182488 
L 467.228754 94.068109 
L 467.866499 92.488313 
L 468.504243 89.787278 
L 469.141988 95.851789 
L 469.779733 94.526787 
L 470.417477 88.207361 
L 471.055222 90.653602 
L 471.692967 93.711373 
L 472.330711 91.316164 
L 472.968456 90.755544 
L 473.606201 92.33534 
L 474.243945 90.347776 
L 474.88169 93.762284 
L 475.519435 91.16319 
L 476.157179 91.876662 
L 476.794924 89.583394 
L 477.432669 90.602692 
L 478.070413 89.430542 
L 478.708158 90.602692 
L 479.345902 89.736246 
L 479.983647 90.042072 
L 480.621392 89.37951 
L 481.259136 90.908396 
L 481.896881 91.265132 
L 482.534626 92.080546 
L 483.17237 87.188184 
L 483.810115 89.99104 
L 484.44786 93.303606 
L 485.085604 87.442978 
L 485.723349 91.265132 
L 486.998838 87.595831 
L 487.636583 88.003598 
L 488.274328 88.003598 
L 488.912072 90.194924 
L 490.187562 85.149711 
L 490.825306 89.736246 
L 491.463051 90.296866 
L 492.100796 87.646862 
L 492.73854 88.462276 
L 493.376285 90.602692 
L 494.01403 87.086243 
L 494.651774 88.15645 
L 495.289519 86.117977 
L 495.927264 87.493889 
L 496.565008 90.908396 
L 497.202753 88.971864 
L 498.478242 83.264089 
L 499.115987 86.474713 
L 499.753731 87.595831 
L 500.391476 90.704512 
L 501.666965 88.207361 
L 502.30471 83.569793 
L 502.942455 86.474713 
L 503.580199 85.761241 
L 504.217944 87.646862 
L 504.855689 85.404505 
L 506.131178 92.080546 
L 506.768923 88.462276 
L 507.406667 83.977561 
L 508.044412 86.525623 
L 508.682157 86.831448 
L 509.319901 83.264089 
L 509.957646 91.927694 
L 510.595391 83.264089 
L 511.233135 89.94013 
L 511.87088 85.455415 
L 512.508625 79.238052 
L 513.146369 81.837145 
L 513.784114 86.882359 
L 514.421858 82.193881 
L 515.059603 86.321739 
L 515.697348 83.009174 
L 516.335092 85.710209 
L 516.972837 82.703469 
L 517.610582 87.952567 
L 518.248326 84.283265 
L 518.886071 85.404505 
L 519.523816 84.181323 
L 520.16156 87.54492 
L 520.799305 82.448675 
L 522.074794 85.200621 
L 522.712539 83.722767 
L 523.350284 85.965003 
L 523.988028 83.824587 
L 524.625773 85.914093 
L 525.263518 83.926529 
L 525.901262 86.168887 
L 526.539007 83.365909 
L 527.176752 79.849582 
L 527.814496 82.907353 
L 528.452241 83.620825 
L 529.72773 86.270829 
L 530.365475 82.601527 
L 531.003219 88.666038 
L 531.640964 79.79855 
L 532.278709 84.640001 
L 532.916453 80.91979 
L 533.554198 84.130413 
L 534.829687 79.085078 
L 535.467432 83.213057 
L 536.105177 84.385207 
L 536.742921 82.499585 
L 537.380666 83.111115 
L 538.018411 82.346733 
L 538.656155 81.021731 
L 539.2939 81.072642 
L 539.931645 79.900492 
L 540.569389 83.416941 
L 541.207134 83.111115 
L 541.844879 83.314999 
L 542.482623 82.601527 
L 543.120368 77.607224 
L 543.758113 84.538059 
L 544.395857 83.824587 
L 545.033602 79.339872 
L 545.671347 79.288962 
L 546.309091 80.053466 
L 546.946836 80.461112 
L 547.584581 79.288962 
L 548.222325 81.684172 
L 548.86007 79.339872 
L 549.497814 79.339872 
L 550.135559 77.148546 
L 550.773304 82.346733 
L 551.411048 81.53132 
L 552.048793 78.830284 
L 552.686538 82.040908 
L 553.324282 80.613964 
L 553.962027 77.556192 
L 554.599772 79.79855 
L 555.237516 78.728342 
L 555.875261 77.250488 
L 556.513006 83.314999 
L 557.15075 81.837145 
L 557.788495 84.385207 
L 558.42624 85.200621 
L 559.063984 77.96396 
L 559.701729 84.945827 
L 560.339474 80.104376 
L 560.977218 79.085078 
L 561.614963 73.530155 
L 562.252708 78.983136 
L 562.890452 76.638958 
L 563.528197 79.034168 
L 564.165942 77.556192 
L 564.803686 76.893752 
L 565.441431 79.13611 
L 566.079175 79.441814 
L 566.71692 80.9707 
L 567.354665 77.811108 
L 567.992409 78.269664 
L 568.630154 81.327436 
L 569.267899 76.18028 
L 570.543388 81.786114 
L 571.818877 78.01487 
L 572.456622 79.492846 
L 573.094367 76.7409 
L 573.732111 78.6264 
L 574.369856 78.167844 
L 575.007601 79.441814 
L 575.645345 77.607224 
L 576.28309 75.059041 
L 576.920835 76.689868 
L 577.558579 77.760076 
L 578.196324 78.116812 
L 578.834069 79.594788 
L 579.471813 73.173419 
L 580.109558 80.053466 
L 580.747303 78.065902 
L 581.385047 78.52458 
L 582.022792 79.441814 
L 582.660537 78.065902 
L 583.298281 78.116812 
L 583.936026 80.104376 
L 584.57377 77.097636 
L 585.211515 76.333132 
L 585.84926 76.282222 
L 586.487004 76.7409 
L 587.124749 78.065902 
L 587.762494 78.830284 
L 588.400238 73.428335 
L 589.037983 75.976397 
L 589.675728 75.721602 
L 590.313472 79.18702 
L 590.951217 80.002434 
L 591.588962 73.937923 
L 592.226706 76.129249 
L 592.864451 74.600363 
L 593.502196 75.364867 
L 594.13994 73.632097 
L 594.777685 76.282222 
L 595.41543 77.097636 
L 596.053174 75.466808 
L 596.690919 69.962796 
L 597.328664 76.995694 
L 597.966408 75.212014 
L 598.604153 75.008131 
L 599.241898 73.530155 
L 599.879642 74.549453 
L 600.517387 76.689868 
L 601.155131 74.906189 
L 601.792876 74.702305 
L 602.430621 72.256185 
L 603.068365 72.918625 
L 603.70611 76.944662 
L 604.343855 69.147382 
L 604.981599 71.440771 
L 605.619344 77.556192 
L 606.894833 73.224451 
L 607.532578 75.262925 
L 608.170323 75.008131 
L 608.808067 74.396601 
L 609.445812 77.148546 
L 610.083557 71.389739 
L 610.721301 75.721602 
L 611.359046 71.950359 
L 611.996791 75.619661 
L 612.634535 75.56875 
L 613.27228 74.702305 
L 613.910025 71.746475 
L 614.547769 75.008131 
L 615.185514 71.899449 
L 615.823259 76.027428 
L 616.461003 70.931062 
L 617.098748 72.969657 
L 617.736493 73.988833 
L 618.374237 72.510979 
L 619.011982 71.746475 
L 620.287471 71.491681 
L 620.925216 73.275361 
L 621.56296 74.039865 
L 622.200705 71.746475 
L 622.83845 70.319532 
L 623.476194 71.695565 
L 624.113939 72.103211 
L 624.751684 72.256185 
L 625.389428 73.071599 
L 626.027173 75.059041 
L 626.664918 73.173419 
L 627.302662 74.600363 
L 627.940407 71.440771 
L 628.578152 70.727299 
L 629.215896 75.772513 
L 629.853641 73.122509 
L 630.491386 67.363702 
L 631.12913 67.669528 
L 631.766875 71.338829 
L 632.40462 70.21759 
L 633.042364 71.084035 
L 633.680109 70.778209 
L 634.317854 75.721602 
L 634.955598 73.275361 
L 635.593343 73.988833 
L 636.231087 70.370563 
L 636.868832 70.421474 
L 637.506577 70.013827 
L 638.782066 74.906189 
L 639.419811 72.052301 
L 640.057555 73.326393 
L 640.6953 67.82238 
L 641.333045 69.759033 
L 641.970789 76.7409 
L 642.608534 70.16668 
L 643.246279 70.319532 
L 643.884023 73.479245 
L 644.521768 72.663831 
L 645.159513 68.383 
L 645.797257 67.669528 
L 646.435002 70.778209 
L 647.072747 70.523415 
L 647.710491 70.676268 
L 648.348236 70.370563 
L 648.985981 68.790646 
L 649.623725 70.268621 
L 650.26147 69.402297 
L 650.899215 70.064738 
L 651.536959 71.746475 
L 652.174704 68.230148 
L 652.812449 69.708002 
L 653.450193 67.720438 
L 654.087938 69.55515 
L 654.725682 68.688826 
L 655.363427 70.523415 
L 656.001172 68.99453 
L 656.638916 68.383 
L 657.276661 65.37626 
L 657.914406 68.383 
L 658.55215 69.962796 
L 659.189895 69.249324 
L 659.82764 66.905024 
L 660.465384 69.504118 
L 661.103129 68.739736 
L 661.740874 72.561889 
L 662.378618 70.370563 
L 663.016363 69.198414 
L 663.654108 68.688826 
L 664.291852 64.20411 
L 664.929597 65.783906 
L 665.567342 71.338829 
L 666.205086 67.465644 
L 666.842831 65.478081 
L 667.480576 68.688826 
L 668.11832 67.669528 
L 668.756065 72.612921 
L 669.39381 69.096472 
L 670.031554 71.797507 
L 670.669299 67.873412 
L 671.307043 68.383 
L 671.944788 67.26176 
L 672.582533 66.59932 
L 673.858022 69.504118 
L 674.495767 69.759033 
L 675.133511 69.504118 
L 675.771256 64.611757 
L 676.409001 67.669528 
L 677.046745 71.950359 
L 677.68449 64.866551 
L 678.322235 63.847374 
L 678.959979 69.60606 
L 679.597724 66.242584 
L 680.235469 68.637794 
L 680.873213 66.0387 
L 681.510958 68.892588 
L 682.148703 69.504118 
L 682.786447 69.809944 
L 683.424192 72.307095 
L 684.061937 67.108908 
L 684.699681 65.274318 
L 685.337426 66.701262 
L 685.975171 66.140642 
L 687.25066 70.064738 
L 687.888405 65.936758 
L 687.888405 65.936758 
" style="fill:none;stroke:#377eb8;stroke-linecap:square;stroke-opacity:0.25098;stroke-width:1.5;"/>
   </g>
   <g id="line2d_34">
    <path clip-path="url(#p487248210f)" d="M 67.225459 375.715469 
L 67.362856 368.245563 
L 67.446082 375.715469 
M 68.443897 375.715469 
L 68.638345 353.884147 
L 69.27609 373.169394 
L 69.913834 351.217011 
L 70.551579 341.779547 
L 71.189324 327.418131 
L 71.733278 375.715469 
M 71.923658 375.715469 
L 72.464813 329.059408 
L 73.102558 329.469727 
L 73.740302 319.621822 
L 74.378047 337.881332 
L 75.015792 336.240055 
L 75.653536 318.390864 
L 76.291281 305.465626 
L 76.929025 311.825635 
L 77.56677 309.56894 
L 78.204515 294.591984 
L 78.842259 318.596085 
L 79.480004 296.028162 
L 80.117749 314.082452 
L 80.755493 271.818841 
L 81.393238 304.234668 
L 82.030983 300.541674 
L 82.668727 307.722443 
L 83.306472 284.53898 
L 83.944217 298.079758 
L 84.581961 303.41403 
L 85.219706 280.230568 
L 85.857451 265.458832 
L 86.495195 277.563432 
L 87.13294 264.638194 
L 87.770685 259.509142 
L 88.408429 267.715649 
L 89.046174 252.943913 
L 89.683919 262.586597 
L 90.321663 269.356926 
L 90.959408 251.918054 
L 91.597153 249.661238 
L 92.234897 276.948014 
L 92.872642 251.712955 
L 93.510387 250.276777 
L 94.148131 259.714241 
L 94.785876 249.045819 
L 95.42362 260.945199 
L 96.061365 256.226467 
L 97.336854 237.351539 
L 97.974599 233.863765 
L 98.612344 239.403135 
L 99.250088 242.27537 
L 99.887833 235.915361 
L 100.525578 225.041719 
L 101.163322 232.632807 
L 101.801067 234.479183 
L 102.438812 229.760451 
L 103.076556 250.892317 
L 103.714301 227.093315 
L 104.352046 228.939812 
L 104.98979 242.685689 
L 105.627535 246.173463 
L 106.26528 225.862357 
L 106.903024 217.245532 
L 107.540769 223.810761 
L 108.178514 214.578396 
L 108.816258 239.813454 
L 109.454003 229.760451 
L 110.091748 244.532186 
L 110.729492 224.01586 
L 111.367237 220.322987 
L 112.004981 222.990123 
L 112.642726 223.400442 
L 113.280471 212.937119 
L 113.918215 212.937119 
L 114.55596 221.553944 
L 115.193705 208.218387 
L 115.831449 206.166669 
L 116.469194 217.040311 
L 117.106939 220.733306 
L 117.744683 223.605541 
L 118.382428 206.576988 
L 119.020173 197.755064 
L 119.657917 211.706161 
L 120.295662 218.06617 
L 120.933407 190.574295 
L 121.571151 204.115073 
L 122.208896 195.087928 
L 122.846641 219.092029 
L 123.484385 211.706161 
L 124.12213 195.703346 
L 124.759875 203.499655 
L 125.397619 203.499655 
L 126.035364 218.68171 
L 126.673109 196.934426 
L 127.310853 203.704754 
L 127.948598 201.037618 
L 128.586343 215.193936 
L 129.224087 191.189835 
L 129.861832 219.297128 
L 130.499576 210.269983 
L 131.137321 197.344745 
L 131.775066 199.191121 
L 132.41281 196.113787 
L 133.050555 211.500941 
L 133.6883 211.295842 
L 134.326044 215.604255 
L 134.963789 221.143625 
L 135.601534 206.576988 
L 136.239278 204.115073 
L 136.877023 206.782209 
L 137.514768 194.062069 
L 138.152512 210.885523 
L 138.790257 189.548558 
L 139.428002 199.396341 
L 140.065746 184.214286 
L 140.703491 203.499655 
L 141.341236 181.34193 
L 141.97898 191.805253 
L 142.616725 216.835212 
L 143.25447 188.317479 
L 143.892214 195.498248 
L 144.529959 189.958877 
L 145.167704 192.420792 
L 145.805448 199.80666 
L 146.443193 195.498248 
L 147.080937 194.26729 
L 147.718682 195.908567 
L 148.356427 191.394934 
L 148.994171 192.831112 
L 149.631916 188.933018 
L 150.269661 205.140932 
L 150.907405 186.860645 
L 151.54515 189.958877 
L 152.182895 186.265882 
L 152.820639 198.165383 
L 153.458384 185.240145 
L 154.096129 187.49684 
L 154.733873 187.49684 
L 155.371618 193.036332 
L 156.009363 187.907159 
L 156.647107 186.265882 
L 157.284852 180.521292 
L 157.922597 180.931611 
L 158.560341 193.036332 
L 159.198086 196.524106 
L 159.835831 178.264596 
L 160.473575 179.700653 
L 161.11132 175.39224 
L 161.749065 177.443837 
L 162.386809 187.49684 
L 163.024554 180.521292 
L 163.662299 183.598747 
L 164.300043 185.855563 
L 165.575532 180.110972 
L 166.213277 182.367789 
L 166.851022 183.188427 
L 167.488766 173.135424 
L 168.126511 192.215572 
L 168.764256 196.524106 
L 169.402 179.905873 
L 170.039745 180.110972 
L 170.67749 186.471103 
L 171.315234 167.596053 
L 171.952979 196.524106 
L 172.590724 174.776822 
L 173.228468 174.571602 
L 173.866213 182.16269 
L 174.503958 184.624605 
L 175.141702 177.649057 
L 175.779447 177.033517 
L 176.417192 176.212879 
L 177.054936 173.340644 
L 177.692681 189.138239 
L 178.330426 176.828418 
L 178.96817 176.212879 
L 179.605915 180.316193 
L 180.24366 178.264596 
L 180.881404 180.931611 
L 181.519149 179.085235 
L 182.156893 168.211593 
L 182.794638 179.495554 
L 183.432383 182.367789 
L 184.070127 171.904466 
L 184.707872 170.263189 
L 185.345617 180.931611 
L 185.983361 173.340644 
L 186.621106 171.289048 
L 187.258851 176.623198 
L 187.896595 171.083828 
L 188.53434 170.673508 
L 189.172085 175.39224 
L 189.809829 169.23733 
L 191.085319 176.418099 
L 191.723063 162.261782 
L 192.360808 172.930325 
L 192.998553 179.495554 
L 193.636297 175.597461 
L 194.274042 158.979228 
L 194.911787 171.289048 
L 195.549531 158.158589 
L 196.187276 163.69796 
L 197.462765 167.185734 
L 198.10051 180.316193 
L 198.738255 172.930325 
L 199.375999 159.594767 
L 200.013744 165.339237 
L 200.651488 164.723819 
L 201.289233 178.264596 
L 201.926978 163.90318 
L 202.564722 172.520006 
L 203.202467 174.981921 
L 203.840212 169.85287 
L 204.477956 175.597461 
L 205.115701 168.211593 
L 205.753446 162.467002 
L 206.39119 165.339237 
L 207.028935 169.85287 
L 207.66668 162.261782 
L 208.304424 160.005087 
L 210.217658 178.880015 
L 210.855403 178.469695 
L 211.493148 178.674916 
L 212.130892 173.340644 
L 212.768637 182.16269 
L 213.406382 160.415406 
L 214.044126 167.801274 
L 214.681871 178.264596 
L 215.319616 160.620505 
L 215.95736 154.055275 
L 216.595105 170.057969 
L 217.232849 165.339237 
L 217.870594 174.161283 
L 218.508339 172.520006 
L 219.146083 164.313499 
L 219.783828 164.928917 
L 220.421573 164.928917 
L 221.059317 167.390954 
L 221.697062 166.980635 
L 222.334807 168.621912 
L 222.972551 172.314785 
L 223.610296 165.954776 
L 224.248041 165.749556 
L 224.885785 159.799866 
L 225.52353 171.289048 
L 226.161275 169.647649 
L 226.799019 163.90318 
L 227.436764 173.135424 
L 228.074509 158.363688 
L 228.712253 171.699367 
L 229.349998 169.647649 
L 229.987743 164.928917 
L 230.625487 154.670815 
L 231.263232 170.057969 
L 231.900977 168.416692 
L 232.538721 165.134138 
L 233.176466 160.005087 
L 233.81421 163.287641 
L 234.451955 156.722411 
L 235.0897 160.825725 
L 235.727444 172.725105 
L 236.365189 159.594767 
L 237.002934 167.596053 
L 237.640678 169.032231 
L 238.916168 152.824318 
L 239.553912 166.775415 
L 240.191657 164.108279 
L 240.829402 168.621912 
L 241.467146 152.619219 
L 242.104891 158.363688 
L 242.742636 162.467002 
L 243.38038 174.571602 
L 244.018125 160.415406 
L 245.293614 169.647649 
L 245.931359 158.363688 
L 246.569104 166.365096 
L 247.206848 161.851462 
L 247.844593 167.185734 
L 249.120082 158.568909 
L 249.757827 166.570194 
L 250.395572 161.236044 
L 251.033316 159.909341 
L 251.671061 163.90318 
L 252.308805 158.979228 
L 252.94655 158.979228 
L 253.584295 170.057969 
L 254.222039 165.339237 
L 254.859784 150.772721 
L 255.497529 161.646364 
L 256.135273 164.108279 
L 256.773018 156.312092 
L 257.410763 158.979228 
L 258.048507 158.363688 
L 258.686252 147.490046 
L 259.323997 152.208778 
L 259.961741 154.055275 
L 260.599486 163.08242 
L 261.237231 160.210185 
L 261.874975 165.954776 
L 262.51272 154.875914 
L 263.150465 162.467002 
L 263.788209 168.621912 
L 264.425954 154.465595 
L 265.063699 157.54305 
L 265.701443 152.824318 
L 266.339188 152.619219 
L 266.976933 165.134138 
L 267.614677 174.776822 
L 268.252422 163.69796 
L 268.890166 158.774007 
L 269.527911 156.927632 
L 270.165656 163.287641 
L 270.8034 161.851462 
L 271.441145 158.774007 
L 272.07889 148.721125 
L 272.716634 161.030824 
L 273.354379 154.875914 
L 273.992124 158.774007 
L 274.629868 170.057969 
L 275.267613 145.848769 
L 275.905358 158.979228 
L 276.543102 158.979228 
L 277.180847 162.877321 
L 277.818592 155.491453 
L 278.456336 155.081134 
L 279.094081 162.261782 
L 279.731826 147.900365 
L 281.007315 157.953369 
L 281.64506 151.38814 
L 282.282804 165.339237 
L 282.920549 173.340644 
L 283.558294 163.69796 
L 284.196038 165.134138 
L 284.833783 165.134138 
L 285.471528 153.029538 
L 286.109272 158.158589 
L 286.747017 166.159875 
L 287.384761 158.363688 
L 288.022506 154.465595 
L 288.660251 166.570194 
L 289.297995 156.517312 
L 289.93574 149.131445 
L 290.573485 169.23733 
L 291.211229 162.261782 
L 291.848974 148.926224 
L 292.486719 148.926224 
L 293.124463 153.234637 
L 293.762208 161.236044 
L 294.399953 146.053989 
L 295.037697 153.439857 
L 295.675442 157.54305 
L 296.313187 160.005087 
L 296.950931 154.875914 
L 297.588676 148.310685 
L 298.226421 153.439857 
L 298.864165 164.723819 
L 299.50191 151.183041 
L 300.139655 163.69796 
L 300.777399 156.517312 
L 301.415144 156.312092 
L 302.052889 163.287641 
L 302.690633 156.517312 
L 303.328378 156.722411 
L 303.966122 145.028131 
L 304.603867 159.389547 
L 305.241612 161.441143 
L 305.879356 151.59336 
L 306.517101 150.97782 
L 307.154846 140.104178 
L 307.79259 161.646364 
L 308.430335 158.774007 
L 309.06808 143.181633 
L 309.705824 157.54305 
L 310.343569 154.465595 
L 310.981314 154.670815 
L 311.619058 149.131445 
L 312.256803 159.799866 
L 312.894548 147.695266 
L 313.532292 158.979228 
L 314.170037 150.157182 
L 314.807782 152.208778 
L 315.445526 162.877321 
L 316.083271 152.208778 
L 316.721016 162.056683 
L 317.35876 153.029538 
L 317.996505 160.825725 
L 318.63425 153.029538 
L 319.271994 149.541764 
L 319.909739 153.234637 
L 320.547484 160.620505 
L 321.185228 147.900365 
L 321.822973 153.029538 
L 322.460717 156.927632 
L 323.098462 151.38814 
L 323.736207 149.541764 
L 324.373951 156.106993 
L 325.011696 153.234637 
L 325.649441 148.310685 
L 326.287185 154.465595 
L 326.92493 155.696552 
L 327.562675 147.284947 
L 328.200419 147.490046 
L 328.838164 155.491453 
L 329.475909 156.312092 
L 330.113653 144.617811 
L 330.751398 153.850177 
L 331.389143 152.619219 
L 332.026887 152.619219 
L 332.664632 139.28354 
L 333.302377 153.644956 
L 333.940121 156.312092 
L 334.577866 155.491453 
L 335.215611 155.696552 
L 335.853355 157.54305 
L 336.4911 141.335257 
L 337.128845 149.541764 
L 337.766589 151.798459 
L 338.404334 142.566215 
L 339.042078 152.619219 
L 339.679823 146.874628 
L 340.317568 149.541764 
L 340.955312 146.669408 
L 341.593057 150.772721 
L 342.230802 153.234637 
L 342.868546 153.850177 
L 343.506291 153.439857 
L 344.144036 153.644956 
L 344.78178 145.028131 
L 345.419525 147.284947 
L 346.05727 161.646364 
L 346.695014 158.774007 
L 347.332759 157.13273 
L 347.970504 160.415406 
L 348.608248 149.746863 
L 349.245993 161.646364 
L 349.883738 156.517312 
L 350.521482 148.515905 
L 351.159227 154.39658 
L 351.796972 156.927632 
L 352.434716 152.824318 
L 353.710206 150.97782 
L 354.34795 152.619219 
L 354.985695 148.926224 
L 355.62344 152.003679 
L 356.261184 150.362402 
L 356.898929 144.617811 
L 357.536673 149.131445 
L 358.174418 146.669408 
L 358.812163 152.003679 
L 359.449907 149.952083 
L 360.087652 144.002272 
L 360.725397 143.591953 
L 361.363141 148.926224 
L 362.000886 150.567501 
L 362.638631 144.82291 
L 363.276375 158.568909 
L 363.91412 151.38814 
L 364.551865 157.74827 
L 365.189609 148.310685 
L 366.465099 150.157182 
L 367.102843 154.875914 
L 367.740588 154.875914 
L 368.378333 142.771314 
L 369.016077 148.926224 
L 369.653822 148.105586 
L 370.291567 152.824318 
L 370.929311 149.541764 
L 371.567056 151.798459 
L 372.204801 145.848769 
L 372.842545 142.360995 
L 373.48029 149.746863 
L 374.118034 150.772721 
L 374.755779 153.439857 
L 375.393524 145.233351 
L 376.031268 159.594767 
L 376.669013 147.079727 
L 377.306758 144.82291 
L 377.944502 146.259088 
L 378.582247 144.412591 
L 379.219992 151.798459 
L 379.857736 142.976534 
L 380.495481 160.210185 
L 381.133226 150.567501 
L 381.77097 152.208778 
L 382.408715 143.181633 
L 383.04646 151.183041 
L 383.684204 148.310685 
L 384.321949 144.82291 
L 384.959694 150.157182 
L 385.597438 154.465595 
L 386.872928 148.515905 
L 387.510672 144.412591 
L 388.148417 146.874628 
L 388.786162 151.183041 
L 389.423906 142.771314 
L 390.061651 154.465595 
L 390.699396 154.260496 
L 391.33714 151.59336 
L 391.974885 149.541764 
L 392.612629 150.567501 
L 393.250374 148.515905 
L 393.888119 149.541764 
L 394.525863 154.465595 
L 395.163608 142.155896 
L 395.801353 149.131445 
L 396.439097 154.055275 
L 397.076842 146.259088 
L 397.714587 145.43845 
L 398.352331 138.462901 
L 398.990076 151.38814 
L 399.627821 150.772721 
L 400.265565 149.336543 
L 400.90331 148.721125 
L 401.541055 162.056683 
L 402.178799 154.670815 
L 403.454289 148.926224 
L 404.092033 153.644956 
L 404.729778 144.617811 
L 405.367523 146.464309 
L 406.005267 145.233351 
L 406.643012 158.363688 
L 407.280757 139.693859 
L 407.918501 151.59336 
L 408.556246 146.874628 
L 409.19399 147.695266 
L 409.831735 151.183041 
L 410.46948 141.745577 
L 411.107224 149.336543 
L 411.744969 145.43845 
L 412.382714 151.59336 
L 413.020458 146.464309 
L 413.658203 144.207492 
L 414.295948 156.312092 
L 414.933692 148.105586 
L 415.571437 156.927632 
L 416.209182 143.797173 
L 416.846926 149.336543 
L 418.122416 145.64367 
L 418.76016 153.234637 
L 419.397905 149.336543 
L 420.03565 151.183041 
L 420.673394 146.669408 
L 421.311139 158.979228 
L 421.948884 154.670815 
L 422.586628 138.668122 
L 423.224373 151.183041 
L 423.862118 151.38814 
L 424.499862 156.312092 
L 425.137607 150.772721 
L 425.775352 150.772721 
L 426.413096 148.926224 
L 427.050841 151.183041 
L 427.688585 149.131445 
L 428.32633 149.336543 
L 428.964075 154.055275 
L 429.601819 146.259088 
L 430.239564 146.259088 
L 430.877309 145.233351 
L 431.515053 142.771314 
L 432.152798 151.38814 
L 432.790543 148.721125 
L 433.428287 154.465595 
L 434.066032 148.926224 
L 435.341521 147.695266 
L 435.979266 145.028131 
L 436.617011 149.541764 
L 437.254755 156.106993 
L 437.8925 154.055275 
L 438.530245 145.43845 
L 439.167989 145.43845 
L 439.805734 152.003679 
L 440.443479 153.029538 
L 441.081223 145.43845 
L 441.718968 152.413998 
L 442.356713 142.155896 
L 442.994457 161.030824 
L 443.632202 158.979228 
L 444.269946 152.619219 
L 444.907691 150.772721 
L 445.545436 155.286233 
L 446.18318 144.412591 
L 446.820925 155.491453 
L 447.45867 145.64367 
L 448.096414 152.003679 
L 448.734159 147.900365 
L 449.371904 148.310685 
L 450.009648 146.464309 
L 450.647393 146.669408 
L 451.285138 151.538076 
L 451.922882 149.746863 
L 452.560627 146.669408 
L 453.198372 148.926224 
L 453.836116 145.028131 
L 454.473861 149.746863 
L 455.111606 145.028131 
L 455.74935 150.362402 
L 456.387095 145.848769 
L 457.02484 149.541764 
L 457.662584 152.003679 
L 458.300329 144.207492 
L 458.938074 142.976534 
L 459.575818 147.900365 
L 460.213563 151.59336 
L 460.851308 140.104178 
L 461.489052 141.130037 
L 462.126797 150.567501 
L 462.764541 147.284947 
L 463.402286 153.439857 
L 464.040031 140.104178 
L 464.677775 146.053989 
L 465.31552 149.131445 
L 465.953265 148.926224 
L 466.591009 156.517312 
L 467.228754 153.234637 
L 467.866499 134.359709 
L 468.504243 153.234637 
L 469.141988 146.259088 
L 469.779733 149.541764 
L 470.417477 145.233351 
L 471.055222 151.183041 
L 471.692967 151.183041 
L 472.330711 139.899079 
L 472.968456 145.848769 
L 473.606201 149.952083 
L 474.243945 138.668122 
L 474.88169 154.670815 
L 475.519435 149.541764 
L 476.794924 146.464309 
L 477.432669 143.386854 
L 478.070413 159.799866 
L 478.708158 147.900365 
L 479.345902 147.490046 
L 479.983647 151.59336 
L 480.621392 151.798459 
L 481.259136 145.848769 
L 481.896881 150.362402 
L 482.534626 142.360995 
L 483.17237 148.926224 
L 483.810115 152.619219 
L 484.44786 153.029538 
L 485.085604 147.900365 
L 485.723349 148.926224 
L 486.361094 146.259088 
L 486.998838 148.721125 
L 487.636583 136.411305 
L 488.274328 151.38814 
L 488.912072 154.670815 
L 489.549817 155.081134 
L 490.187562 139.48876 
L 490.825306 155.901773 
L 491.463051 147.079727 
L 492.100796 144.412591 
L 492.73854 142.976534 
L 493.376285 139.48876 
L 494.01403 149.131445 
L 494.651774 141.745577 
L 495.289519 139.899079 
L 495.927264 149.131445 
L 496.565008 145.848769 
L 497.202753 143.591953 
L 497.840497 154.055275 
L 498.478242 144.207492 
L 499.115987 139.28354 
L 499.753731 144.617811 
L 500.391476 152.619219 
L 501.029221 134.154489 
L 501.666965 158.774007 
L 502.30471 137.847483 
L 502.942455 153.029538 
L 503.580199 147.695266 
L 504.217944 146.053989 
L 504.855689 143.797173 
L 505.493433 149.952083 
L 506.131178 145.64367 
L 506.768923 147.490046 
L 507.406667 147.079727 
L 508.044412 153.439857 
L 508.682157 139.28354 
L 509.319901 144.617811 
L 509.957646 148.310685 
L 510.595391 140.924817 
L 511.233135 143.591953 
L 511.87088 127.38416 
L 513.146369 152.413998 
L 513.784114 139.899079 
L 514.421858 149.336543 
L 515.059603 146.259088 
L 515.697348 142.360995 
L 516.335092 139.693859 
L 516.972837 153.439857 
L 517.610582 150.772721 
L 518.248326 144.617811 
L 518.886071 144.002272 
L 519.523816 155.081134 
L 520.16156 151.59336 
L 520.799305 138.668122 
L 521.43705 146.669408 
L 522.074794 143.591953 
L 522.712539 146.669408 
L 523.350284 148.310685 
L 524.625773 141.950676 
L 525.263518 153.439857 
L 525.901262 145.848769 
L 526.539007 144.617811 
L 527.176752 144.412591 
L 527.814496 152.619219 
L 528.452241 148.105586 
L 529.089986 148.515905 
L 529.72773 149.541764 
L 530.365475 139.693859 
L 531.003219 139.078441 
L 531.640964 157.953369 
L 532.278709 154.670815 
L 532.916453 150.772721 
L 533.554198 151.38814 
L 534.191943 156.106993 
L 534.829687 152.619219 
L 535.467432 146.464309 
L 536.105177 148.926224 
L 536.742921 141.745577 
L 537.380666 150.97782 
L 538.018411 142.976534 
L 538.656155 158.158589 
L 539.2939 142.566215 
L 539.931645 153.850177 
L 540.569389 137.847483 
L 541.844879 146.259088 
L 542.482623 144.002272 
L 543.758113 148.515905 
L 544.395857 156.312092 
L 545.033602 149.952083 
L 545.671347 141.950676 
L 546.309091 144.617811 
L 546.946836 138.462901 
L 547.584581 149.131445 
L 548.222325 143.386854 
L 548.86007 148.105586 
L 549.497814 147.490046 
L 550.135559 147.490046 
L 550.773304 148.105586 
L 551.411048 150.108823 
L 552.048793 143.181633 
L 552.686538 143.591953 
L 553.324282 149.131445 
L 553.962027 143.797173 
L 554.599772 142.155896 
L 555.237516 141.540356 
L 555.875261 146.874628 
L 556.513006 148.515905 
L 557.15075 148.926224 
L 557.788495 153.234637 
L 558.42624 144.412591 
L 559.063984 149.952083 
L 559.701729 149.131445 
L 560.339474 141.335257 
L 560.977218 142.155896 
L 561.614963 143.181633 
L 562.252708 146.464309 
L 562.890452 145.233351 
L 563.528197 147.695266 
L 564.165942 153.439857 
L 564.803686 141.950676 
L 565.441431 140.719718 
L 566.079175 148.105586 
L 566.71692 149.952083 
L 567.354665 138.257802 
L 567.992409 146.464309 
L 568.630154 148.721125 
L 569.267899 142.771314 
L 569.905643 149.336543 
L 570.543388 141.540356 
L 571.181133 150.362402 
L 571.818877 144.412591 
L 572.456622 146.464309 
L 573.094367 144.002272 
L 573.732111 148.721125 
L 574.369856 144.412591 
L 575.007601 144.412591 
L 575.645345 144.002272 
L 576.28309 139.693859 
L 576.920835 145.43845 
L 577.558579 146.259088 
L 578.196324 136.821624 
L 578.834069 150.362402 
L 579.471813 141.950676 
L 580.109558 140.719718 
L 580.747303 138.873221 
L 581.385047 144.412591 
L 582.022792 146.669408 
L 582.660537 149.746863 
L 583.298281 145.028131 
L 583.936026 150.97782 
L 584.57377 142.155896 
L 585.211515 138.257802 
L 585.84926 135.590667 
L 586.487004 151.183041 
L 587.124749 157.13273 
L 587.762494 135.385446 
L 588.400238 148.105586 
L 589.037983 144.82291 
L 589.675728 145.028131 
L 590.313472 148.926224 
L 590.951217 145.64367 
L 591.588962 150.567501 
L 592.226706 147.079727 
L 592.864451 148.721125 
L 593.502196 138.668122 
L 594.13994 145.64367 
L 594.777685 149.952083 
L 595.41543 141.130037 
L 596.053174 143.181633 
L 596.690919 147.079727 
L 597.328664 146.259088 
L 597.966408 136.411305 
L 598.604153 148.926224 
L 599.241898 146.874628 
L 599.879642 148.310685 
L 600.517387 145.64367 
L 601.155131 140.309399 
L 601.792876 149.952083 
L 602.430621 143.797173 
L 603.068365 141.540356 
L 603.70611 151.798459 
L 604.343855 139.693859 
L 604.981599 145.233351 
L 605.619344 147.079727 
L 606.257089 137.437042 
L 606.894833 146.464309 
L 607.532578 146.874628 
L 608.170323 130.461615 
L 608.808067 153.644956 
L 609.445812 133.33385 
L 610.083557 138.257802 
L 610.721301 146.259088 
L 611.359046 139.078441 
L 611.996791 153.644956 
L 612.634535 144.82291 
L 613.27228 144.207492 
L 613.910025 151.183041 
L 614.547769 146.669408 
L 615.185514 150.157182 
L 615.823259 144.207492 
L 616.461003 146.464309 
L 617.098748 147.284947 
L 617.736493 142.976534 
L 618.374237 145.233351 
L 619.011982 146.669408 
L 619.649726 154.465595 
L 620.287471 157.54305 
L 620.925216 141.745577 
L 621.56296 136.821624 
L 622.200705 143.181633 
L 622.83845 154.670815 
L 623.476194 140.924817 
L 624.751684 149.336543 
L 625.389428 150.362402 
L 626.027173 140.104178 
L 626.664918 148.105586 
L 627.302662 140.924817 
L 627.940407 147.284947 
L 628.578152 146.053989 
L 629.215896 144.412591 
L 629.853641 145.233351 
L 630.491386 146.464309 
L 631.12913 142.976534 
L 631.766875 146.874628 
L 632.40462 146.053989 
L 633.042364 139.899079 
L 633.680109 154.465595 
L 634.317854 148.515905 
L 634.955598 139.48876 
L 635.593343 150.97782 
L 636.231087 140.309399 
L 636.868832 145.233351 
L 637.506577 154.465595 
L 638.144321 152.208778 
L 638.782066 146.464309 
L 639.419811 143.386854 
L 640.057555 145.43845 
L 640.6953 142.360995 
L 641.333045 143.181633 
L 641.970789 142.976534 
L 642.608534 148.310685 
L 643.246279 138.052582 
L 643.884023 145.028131 
L 644.521768 145.028131 
L 645.159513 144.82291 
L 645.797257 138.052582 
L 646.435002 148.105586 
L 647.072747 146.464309 
L 647.710491 148.515905 
L 648.348236 142.976534 
L 648.985981 157.337951 
L 649.623725 143.591953 
L 650.26147 140.924817 
L 650.899215 142.360995 
L 651.536959 140.308427 
L 652.174704 142.976534 
L 652.812449 142.155896 
L 654.087938 136.206085 
L 654.725682 138.668122 
L 655.363427 142.771314 
L 656.001172 143.386854 
L 656.638916 142.360995 
L 657.276661 142.976534 
L 657.914406 148.926224 
L 658.55215 139.899079 
L 659.189895 146.464309 
L 659.82764 142.155896 
L 660.465384 143.181633 
L 661.103129 144.82291 
L 661.740874 141.950676 
L 662.378618 150.362402 
L 663.016363 148.515905 
L 663.654108 142.771314 
L 664.291852 143.797173 
L 664.929597 134.975127 
L 665.567342 150.97782 
L 666.205086 138.257802 
L 666.842831 150.97782 
L 667.480576 144.002272 
L 668.11832 148.721125 
L 668.756065 152.413998 
L 669.39381 142.566215 
L 670.031554 145.64367 
L 670.669299 143.386854 
L 671.307043 147.490046 
L 671.944788 139.078441 
L 672.582533 151.38814 
L 673.220277 139.48876 
L 673.858022 143.386854 
L 674.495767 138.668122 
L 675.133511 150.772721 
L 675.771256 141.950676 
L 676.409001 148.310685 
L 677.046745 136.616404 
L 677.68449 148.310685 
L 678.322235 142.771314 
L 678.959979 148.515905 
L 679.597724 139.899079 
L 680.235469 142.155896 
L 680.873213 140.104178 
L 681.510958 147.490046 
L 682.148703 138.668122 
L 682.786447 148.926224 
L 683.424192 148.926224 
L 684.061937 138.668122 
L 684.699681 148.310685 
L 685.337426 140.924817 
L 685.975171 144.617811 
L 686.612915 140.719718 
L 687.888405 146.053989 
L 687.888405 146.053989 
" style="fill:none;stroke:#4daf4a;stroke-linecap:square;stroke-opacity:0.25098;stroke-width:1.5;"/>
   </g>
   <g id="patch_3">
    <path d="M 50.14375 337.159219 
L 50.14375 10.999219 
" style="fill:none;stroke:#000000;stroke-linecap:square;stroke-linejoin:miter;stroke-width:0.8;"/>
   </g>
   <g id="patch_4">
    <path d="M 719.74375 337.159219 
L 719.74375 10.999219 
" style="fill:none;stroke:#000000;stroke-linecap:square;stroke-linejoin:miter;stroke-width:0.8;"/>
   </g>
   <g id="patch_5">
    <path d="M 50.14375 337.159219 
L 719.74375 337.159219 
" style="fill:none;stroke:#000000;stroke-linecap:square;stroke-linejoin:miter;stroke-width:0.8;"/>
   </g>
   <g id="patch_6">
    <path d="M 50.14375 10.999219 
L 719.74375 10.999219 
" style="fill:none;stroke:#000000;stroke-linecap:square;stroke-linejoin:miter;stroke-width:0.8;"/>
   </g>
   <g id="legend_1">
    <g id="patch_7">
     <path d="M 57.14375 48.355469 
L 114.584375 48.355469 
Q 116.584375 48.355469 116.584375 46.355469 
L 116.584375 17.999219 
Q 116.584375 15.999219 114.584375 15.999219 
L 57.14375 15.999219 
Q 55.14375 15.999219 55.14375 17.999219 
L 55.14375 46.355469 
Q 55.14375 48.355469 57.14375 48.355469 
z
" style="fill:#ffffff;opacity:0.8;stroke:#cccccc;stroke-linejoin:miter;"/>
    </g>
    <g id="line2d_35">
     <path d="M 59.14375 24.097656 
L 79.14375 24.097656 
" style="fill:none;stroke:#377eb8;stroke-linecap:square;stroke-width:2;"/>
    </g>
    <g id="line2d_36"/>
    <g id="text_18">
     <!-- Train -->
     <defs>
      <path d="M -0.296875 72.90625 
L 61.375 72.90625 
L 61.375 64.59375 
L 35.5 64.59375 
L 35.5 0 
L 25.59375 0 
L 25.59375 64.59375 
L -0.296875 64.59375 
z
" id="DejaVuSans-84"/>
      <path d="M 9.421875 54.6875 
L 18.40625 54.6875 
L 18.40625 0 
L 9.421875 0 
z
M 9.421875 75.984375 
L 18.40625 75.984375 
L 18.40625 64.59375 
L 9.421875 64.59375 
z
" id="DejaVuSans-105"/>
      <path d="M 54.890625 33.015625 
L 54.890625 0 
L 45.90625 0 
L 45.90625 32.71875 
Q 45.90625 40.484375 42.875 44.328125 
Q 39.84375 48.1875 33.796875 48.1875 
Q 26.515625 48.1875 22.3125 43.546875 
Q 18.109375 38.921875 18.109375 30.90625 
L 18.109375 0 
L 9.078125 0 
L 9.078125 54.6875 
L 18.109375 54.6875 
L 18.109375 46.1875 
Q 21.34375 51.125 25.703125 53.5625 
Q 30.078125 56 35.796875 56 
Q 45.21875 56 50.046875 50.171875 
Q 54.890625 44.34375 54.890625 33.015625 
z
" id="DejaVuSans-110"/>
     </defs>
     <g transform="translate(87.14375 27.597656)scale(0.1 -0.1)">
      <use xlink:href="#DejaVuSans-84"/>
      <use x="60.865234" xlink:href="#DejaVuSans-114"/>
      <use x="101.978516" xlink:href="#DejaVuSans-97"/>
      <use x="163.257812" xlink:href="#DejaVuSans-105"/>
      <use x="191.041016" xlink:href="#DejaVuSans-110"/>
     </g>
    </g>
    <g id="line2d_37">
     <path d="M 59.14375 38.775781 
L 79.14375 38.775781 
" style="fill:none;stroke:#4daf4a;stroke-linecap:square;stroke-width:2;"/>
    </g>
    <g id="line2d_38"/>
    <g id="text_19">
     <!-- Test -->
     <defs>
      <path d="M 56.203125 29.59375 
L 56.203125 25.203125 
L 14.890625 25.203125 
Q 15.484375 15.921875 20.484375 11.0625 
Q 25.484375 6.203125 34.421875 6.203125 
Q 39.59375 6.203125 44.453125 7.46875 
Q 49.3125 8.734375 54.109375 11.28125 
L 54.109375 2.78125 
Q 49.265625 0.734375 44.1875 -0.34375 
Q 39.109375 -1.421875 33.890625 -1.421875 
Q 20.796875 -1.421875 13.15625 6.1875 
Q 5.515625 13.8125 5.515625 26.8125 
Q 5.515625 40.234375 12.765625 48.109375 
Q 20.015625 56 32.328125 56 
Q 43.359375 56 49.78125 48.890625 
Q 56.203125 41.796875 56.203125 29.59375 
z
M 47.21875 32.234375 
Q 47.125 39.59375 43.09375 43.984375 
Q 39.0625 48.390625 32.421875 48.390625 
Q 24.90625 48.390625 20.390625 44.140625 
Q 15.875 39.890625 15.1875 32.171875 
z
" id="DejaVuSans-101"/>
      <path d="M 44.28125 53.078125 
L 44.28125 44.578125 
Q 40.484375 46.53125 36.375 47.5 
Q 32.28125 48.484375 27.875 48.484375 
Q 21.1875 48.484375 17.84375 46.4375 
Q 14.5 44.390625 14.5 40.28125 
Q 14.5 37.15625 16.890625 35.375 
Q 19.28125 33.59375 26.515625 31.984375 
L 29.59375 31.296875 
Q 39.15625 29.25 43.1875 25.515625 
Q 47.21875 21.78125 47.21875 15.09375 
Q 47.21875 7.46875 41.1875 3.015625 
Q 35.15625 -1.421875 24.609375 -1.421875 
Q 20.21875 -1.421875 15.453125 -0.5625 
Q 10.6875 0.296875 5.421875 2 
L 5.421875 11.28125 
Q 10.40625 8.6875 15.234375 7.390625 
Q 20.0625 6.109375 24.8125 6.109375 
Q 31.15625 6.109375 34.5625 8.28125 
Q 37.984375 10.453125 37.984375 14.40625 
Q 37.984375 18.0625 35.515625 20.015625 
Q 33.0625 21.96875 24.703125 23.78125 
L 21.578125 24.515625 
Q 13.234375 26.265625 9.515625 29.90625 
Q 5.8125 33.546875 5.8125 39.890625 
Q 5.8125 47.609375 11.28125 51.796875 
Q 16.75 56 26.8125 56 
Q 31.78125 56 36.171875 55.265625 
Q 40.578125 54.546875 44.28125 53.078125 
z
" id="DejaVuSans-115"/>
      <path d="M 18.3125 70.21875 
L 18.3125 54.6875 
L 36.8125 54.6875 
L 36.8125 47.703125 
L 18.3125 47.703125 
L 18.3125 18.015625 
Q 18.3125 11.328125 20.140625 9.421875 
Q 21.96875 7.515625 27.59375 7.515625 
L 36.8125 7.515625 
L 36.8125 0 
L 27.59375 0 
Q 17.1875 0 13.234375 3.875 
Q 9.28125 7.765625 9.28125 18.015625 
L 9.28125 47.703125 
L 2.6875 47.703125 
L 2.6875 54.6875 
L 9.28125 54.6875 
L 9.28125 70.21875 
z
" id="DejaVuSans-116"/>
     </defs>
     <g transform="translate(87.14375 42.275781)scale(0.1 -0.1)">
      <use xlink:href="#DejaVuSans-84"/>
      <use x="60.818359" xlink:href="#DejaVuSans-101"/>
      <use x="122.341797" xlink:href="#DejaVuSans-115"/>
      <use x="174.441406" xlink:href="#DejaVuSans-116"/>
     </g>
    </g>
   </g>
  </g>
 </g>
 <defs>
  <clipPath id="p487248210f">
   <rect height="326.16" width="669.6" x="50.14375" y="10.999219"/>
  </clipPath>
 </defs>
</svg>
