<?xml version="1.0" encoding="utf-8" standalone="no"?>
<!DOCTYPE svg PUBLIC "-//W3C//DTD SVG 1.1//EN"
  "http://www.w3.org/Graphics/SVG/1.1/DTD/svg11.dtd">
<!-- Created with matplotlib (https://matplotlib.org/) -->
<svg height="374.715469pt" version="1.1" viewBox="0 0 726.94375 374.715469" width="726.94375pt" xmlns="http://www.w3.org/2000/svg" xmlns:xlink="http://www.w3.org/1999/xlink">
 <defs>
  <style type="text/css">
*{stroke-linecap:butt;stroke-linejoin:round;white-space:pre;}
  </style>
 </defs>
 <g id="figure_1">
  <g id="patch_1">
   <path d="M 0 374.715469 
L 726.94375 374.715469 
L 726.94375 0 
L 0 0 
z
" style="fill:#ffffff;"/>
  </g>
  <g id="axes_1">
   <g id="patch_2">
    <path d="M 50.14375 337.159219 
L 719.74375 337.159219 
L 719.74375 10.999219 
L 50.14375 10.999219 
z
" style="fill:#ffffff;"/>
   </g>
   <g id="matplotlib.axis_1">
    <g id="xtick_1">
     <g id="line2d_1">
      <path clip-path="url(#p7461408793)" d="M 50.14375 337.159219 
L 50.14375 10.999219 
" style="fill:none;stroke:#b0b0b0;stroke-linecap:square;stroke-width:0.8;"/>
     </g>
     <g id="line2d_2">
      <defs>
       <path d="M 0 0 
L 0 3.5 
" id="m4974ec9c01" style="stroke:#000000;stroke-width:0.8;"/>
      </defs>
      <g>
       <use style="stroke:#000000;stroke-width:0.8;" x="50.14375" xlink:href="#m4974ec9c01" y="337.159219"/>
      </g>
     </g>
     <g id="text_1">
      <!-- 0 -->
      <defs>
       <path d="M 31.78125 66.40625 
Q 24.171875 66.40625 20.328125 58.90625 
Q 16.5 51.421875 16.5 36.375 
Q 16.5 21.390625 20.328125 13.890625 
Q 24.171875 6.390625 31.78125 6.390625 
Q 39.453125 6.390625 43.28125 13.890625 
Q 47.125 21.390625 47.125 36.375 
Q 47.125 51.421875 43.28125 58.90625 
Q 39.453125 66.40625 31.78125 66.40625 
z
M 31.78125 74.21875 
Q 44.046875 74.21875 50.515625 64.515625 
Q 56.984375 54.828125 56.984375 36.375 
Q 56.984375 17.96875 50.515625 8.265625 
Q 44.046875 -1.421875 31.78125 -1.421875 
Q 19.53125 -1.421875 13.0625 8.265625 
Q 6.59375 17.96875 6.59375 36.375 
Q 6.59375 54.828125 13.0625 64.515625 
Q 19.53125 74.21875 31.78125 74.21875 
z
" id="DejaVuSans-48"/>
      </defs>
      <g transform="translate(46.9625 351.757656)scale(0.1 -0.1)">
       <use xlink:href="#DejaVuSans-48"/>
      </g>
     </g>
    </g>
    <g id="xtick_2">
     <g id="line2d_3">
      <path clip-path="url(#p7461408793)" d="M 177.692681 337.159219 
L 177.692681 10.999219 
" style="fill:none;stroke:#b0b0b0;stroke-linecap:square;stroke-width:0.8;"/>
     </g>
     <g id="line2d_4">
      <g>
       <use style="stroke:#000000;stroke-width:0.8;" x="177.692681" xlink:href="#m4974ec9c01" y="337.159219"/>
      </g>
     </g>
     <g id="text_2">
      <!-- 200 -->
      <defs>
       <path d="M 19.1875 8.296875 
L 53.609375 8.296875 
L 53.609375 0 
L 7.328125 0 
L 7.328125 8.296875 
Q 12.9375 14.109375 22.625 23.890625 
Q 32.328125 33.6875 34.8125 36.53125 
Q 39.546875 41.84375 41.421875 45.53125 
Q 43.3125 49.21875 43.3125 52.78125 
Q 43.3125 58.59375 39.234375 62.25 
Q 35.15625 65.921875 28.609375 65.921875 
Q 23.96875 65.921875 18.8125 64.3125 
Q 13.671875 62.703125 7.8125 59.421875 
L 7.8125 69.390625 
Q 13.765625 71.78125 18.9375 73 
Q 24.125 74.21875 28.421875 74.21875 
Q 39.75 74.21875 46.484375 68.546875 
Q 53.21875 62.890625 53.21875 53.421875 
Q 53.21875 48.921875 51.53125 44.890625 
Q 49.859375 40.875 45.40625 35.40625 
Q 44.1875 33.984375 37.640625 27.21875 
Q 31.109375 20.453125 19.1875 8.296875 
z
" id="DejaVuSans-50"/>
      </defs>
      <g transform="translate(168.148931 351.757656)scale(0.1 -0.1)">
       <use xlink:href="#DejaVuSans-50"/>
       <use x="63.623047" xlink:href="#DejaVuSans-48"/>
       <use x="127.246094" xlink:href="#DejaVuSans-48"/>
      </g>
     </g>
    </g>
    <g id="xtick_3">
     <g id="line2d_5">
      <path clip-path="url(#p7461408793)" d="M 305.241612 337.159219 
L 305.241612 10.999219 
" style="fill:none;stroke:#b0b0b0;stroke-linecap:square;stroke-width:0.8;"/>
     </g>
     <g id="line2d_6">
      <g>
       <use style="stroke:#000000;stroke-width:0.8;" x="305.241612" xlink:href="#m4974ec9c01" y="337.159219"/>
      </g>
     </g>
     <g id="text_3">
      <!-- 400 -->
      <defs>
       <path d="M 37.796875 64.3125 
L 12.890625 25.390625 
L 37.796875 25.390625 
z
M 35.203125 72.90625 
L 47.609375 72.90625 
L 47.609375 25.390625 
L 58.015625 25.390625 
L 58.015625 17.1875 
L 47.609375 17.1875 
L 47.609375 0 
L 37.796875 0 
L 37.796875 17.1875 
L 4.890625 17.1875 
L 4.890625 26.703125 
z
" id="DejaVuSans-52"/>
      </defs>
      <g transform="translate(295.697862 351.757656)scale(0.1 -0.1)">
       <use xlink:href="#DejaVuSans-52"/>
       <use x="63.623047" xlink:href="#DejaVuSans-48"/>
       <use x="127.246094" xlink:href="#DejaVuSans-48"/>
      </g>
     </g>
    </g>
    <g id="xtick_4">
     <g id="line2d_7">
      <path clip-path="url(#p7461408793)" d="M 432.790543 337.159219 
L 432.790543 10.999219 
" style="fill:none;stroke:#b0b0b0;stroke-linecap:square;stroke-width:0.8;"/>
     </g>
     <g id="line2d_8">
      <g>
       <use style="stroke:#000000;stroke-width:0.8;" x="432.790543" xlink:href="#m4974ec9c01" y="337.159219"/>
      </g>
     </g>
     <g id="text_4">
      <!-- 600 -->
      <defs>
       <path d="M 33.015625 40.375 
Q 26.375 40.375 22.484375 35.828125 
Q 18.609375 31.296875 18.609375 23.390625 
Q 18.609375 15.53125 22.484375 10.953125 
Q 26.375 6.390625 33.015625 6.390625 
Q 39.65625 6.390625 43.53125 10.953125 
Q 47.40625 15.53125 47.40625 23.390625 
Q 47.40625 31.296875 43.53125 35.828125 
Q 39.65625 40.375 33.015625 40.375 
z
M 52.59375 71.296875 
L 52.59375 62.3125 
Q 48.875 64.0625 45.09375 64.984375 
Q 41.3125 65.921875 37.59375 65.921875 
Q 27.828125 65.921875 22.671875 59.328125 
Q 17.53125 52.734375 16.796875 39.40625 
Q 19.671875 43.65625 24.015625 45.921875 
Q 28.375 48.1875 33.59375 48.1875 
Q 44.578125 48.1875 50.953125 41.515625 
Q 57.328125 34.859375 57.328125 23.390625 
Q 57.328125 12.15625 50.6875 5.359375 
Q 44.046875 -1.421875 33.015625 -1.421875 
Q 20.359375 -1.421875 13.671875 8.265625 
Q 6.984375 17.96875 6.984375 36.375 
Q 6.984375 53.65625 15.1875 63.9375 
Q 23.390625 74.21875 37.203125 74.21875 
Q 40.921875 74.21875 44.703125 73.484375 
Q 48.484375 72.75 52.59375 71.296875 
z
" id="DejaVuSans-54"/>
      </defs>
      <g transform="translate(423.246793 351.757656)scale(0.1 -0.1)">
       <use xlink:href="#DejaVuSans-54"/>
       <use x="63.623047" xlink:href="#DejaVuSans-48"/>
       <use x="127.246094" xlink:href="#DejaVuSans-48"/>
      </g>
     </g>
    </g>
    <g id="xtick_5">
     <g id="line2d_9">
      <path clip-path="url(#p7461408793)" d="M 560.339474 337.159219 
L 560.339474 10.999219 
" style="fill:none;stroke:#b0b0b0;stroke-linecap:square;stroke-width:0.8;"/>
     </g>
     <g id="line2d_10">
      <g>
       <use style="stroke:#000000;stroke-width:0.8;" x="560.339474" xlink:href="#m4974ec9c01" y="337.159219"/>
      </g>
     </g>
     <g id="text_5">
      <!-- 800 -->
      <defs>
       <path d="M 31.78125 34.625 
Q 24.75 34.625 20.71875 30.859375 
Q 16.703125 27.09375 16.703125 20.515625 
Q 16.703125 13.921875 20.71875 10.15625 
Q 24.75 6.390625 31.78125 6.390625 
Q 38.8125 6.390625 42.859375 10.171875 
Q 46.921875 13.96875 46.921875 20.515625 
Q 46.921875 27.09375 42.890625 30.859375 
Q 38.875 34.625 31.78125 34.625 
z
M 21.921875 38.8125 
Q 15.578125 40.375 12.03125 44.71875 
Q 8.5 49.078125 8.5 55.328125 
Q 8.5 64.0625 14.71875 69.140625 
Q 20.953125 74.21875 31.78125 74.21875 
Q 42.671875 74.21875 48.875 69.140625 
Q 55.078125 64.0625 55.078125 55.328125 
Q 55.078125 49.078125 51.53125 44.71875 
Q 48 40.375 41.703125 38.8125 
Q 48.828125 37.15625 52.796875 32.3125 
Q 56.78125 27.484375 56.78125 20.515625 
Q 56.78125 9.90625 50.3125 4.234375 
Q 43.84375 -1.421875 31.78125 -1.421875 
Q 19.734375 -1.421875 13.25 4.234375 
Q 6.78125 9.90625 6.78125 20.515625 
Q 6.78125 27.484375 10.78125 32.3125 
Q 14.796875 37.15625 21.921875 38.8125 
z
M 18.3125 54.390625 
Q 18.3125 48.734375 21.84375 45.5625 
Q 25.390625 42.390625 31.78125 42.390625 
Q 38.140625 42.390625 41.71875 45.5625 
Q 45.3125 48.734375 45.3125 54.390625 
Q 45.3125 60.0625 41.71875 63.234375 
Q 38.140625 66.40625 31.78125 66.40625 
Q 25.390625 66.40625 21.84375 63.234375 
Q 18.3125 60.0625 18.3125 54.390625 
z
" id="DejaVuSans-56"/>
      </defs>
      <g transform="translate(550.795724 351.757656)scale(0.1 -0.1)">
       <use xlink:href="#DejaVuSans-56"/>
       <use x="63.623047" xlink:href="#DejaVuSans-48"/>
       <use x="127.246094" xlink:href="#DejaVuSans-48"/>
      </g>
     </g>
    </g>
    <g id="xtick_6">
     <g id="line2d_11">
      <path clip-path="url(#p7461408793)" d="M 687.888405 337.159219 
L 687.888405 10.999219 
" style="fill:none;stroke:#b0b0b0;stroke-linecap:square;stroke-width:0.8;"/>
     </g>
     <g id="line2d_12">
      <g>
       <use style="stroke:#000000;stroke-width:0.8;" x="687.888405" xlink:href="#m4974ec9c01" y="337.159219"/>
      </g>
     </g>
     <g id="text_6">
      <!-- 1000 -->
      <defs>
       <path d="M 12.40625 8.296875 
L 28.515625 8.296875 
L 28.515625 63.921875 
L 10.984375 60.40625 
L 10.984375 69.390625 
L 28.421875 72.90625 
L 38.28125 72.90625 
L 38.28125 8.296875 
L 54.390625 8.296875 
L 54.390625 0 
L 12.40625 0 
z
" id="DejaVuSans-49"/>
      </defs>
      <g transform="translate(675.163405 351.757656)scale(0.1 -0.1)">
       <use xlink:href="#DejaVuSans-49"/>
       <use x="63.623047" xlink:href="#DejaVuSans-48"/>
       <use x="127.246094" xlink:href="#DejaVuSans-48"/>
       <use x="190.869141" xlink:href="#DejaVuSans-48"/>
      </g>
     </g>
    </g>
    <g id="text_7">
     <!-- Epoch -->
     <defs>
      <path d="M 9.8125 72.90625 
L 55.90625 72.90625 
L 55.90625 64.59375 
L 19.671875 64.59375 
L 19.671875 43.015625 
L 54.390625 43.015625 
L 54.390625 34.71875 
L 19.671875 34.71875 
L 19.671875 8.296875 
L 56.78125 8.296875 
L 56.78125 0 
L 9.8125 0 
z
" id="DejaVuSans-69"/>
      <path d="M 18.109375 8.203125 
L 18.109375 -20.796875 
L 9.078125 -20.796875 
L 9.078125 54.6875 
L 18.109375 54.6875 
L 18.109375 46.390625 
Q 20.953125 51.265625 25.265625 53.625 
Q 29.59375 56 35.59375 56 
Q 45.5625 56 51.78125 48.09375 
Q 58.015625 40.1875 58.015625 27.296875 
Q 58.015625 14.40625 51.78125 6.484375 
Q 45.5625 -1.421875 35.59375 -1.421875 
Q 29.59375 -1.421875 25.265625 0.953125 
Q 20.953125 3.328125 18.109375 8.203125 
z
M 48.6875 27.296875 
Q 48.6875 37.203125 44.609375 42.84375 
Q 40.53125 48.484375 33.40625 48.484375 
Q 26.265625 48.484375 22.1875 42.84375 
Q 18.109375 37.203125 18.109375 27.296875 
Q 18.109375 17.390625 22.1875 11.75 
Q 26.265625 6.109375 33.40625 6.109375 
Q 40.53125 6.109375 44.609375 11.75 
Q 48.6875 17.390625 48.6875 27.296875 
z
" id="DejaVuSans-112"/>
      <path d="M 30.609375 48.390625 
Q 23.390625 48.390625 19.1875 42.75 
Q 14.984375 37.109375 14.984375 27.296875 
Q 14.984375 17.484375 19.15625 11.84375 
Q 23.34375 6.203125 30.609375 6.203125 
Q 37.796875 6.203125 41.984375 11.859375 
Q 46.1875 17.53125 46.1875 27.296875 
Q 46.1875 37.015625 41.984375 42.703125 
Q 37.796875 48.390625 30.609375 48.390625 
z
M 30.609375 56 
Q 42.328125 56 49.015625 48.375 
Q 55.71875 40.765625 55.71875 27.296875 
Q 55.71875 13.875 49.015625 6.21875 
Q 42.328125 -1.421875 30.609375 -1.421875 
Q 18.84375 -1.421875 12.171875 6.21875 
Q 5.515625 13.875 5.515625 27.296875 
Q 5.515625 40.765625 12.171875 48.375 
Q 18.84375 56 30.609375 56 
z
" id="DejaVuSans-111"/>
      <path d="M 48.78125 52.59375 
L 48.78125 44.1875 
Q 44.96875 46.296875 41.140625 47.34375 
Q 37.3125 48.390625 33.40625 48.390625 
Q 24.65625 48.390625 19.8125 42.84375 
Q 14.984375 37.3125 14.984375 27.296875 
Q 14.984375 17.28125 19.8125 11.734375 
Q 24.65625 6.203125 33.40625 6.203125 
Q 37.3125 6.203125 41.140625 7.25 
Q 44.96875 8.296875 48.78125 10.40625 
L 48.78125 2.09375 
Q 45.015625 0.34375 40.984375 -0.53125 
Q 36.96875 -1.421875 32.421875 -1.421875 
Q 20.0625 -1.421875 12.78125 6.34375 
Q 5.515625 14.109375 5.515625 27.296875 
Q 5.515625 40.671875 12.859375 48.328125 
Q 20.21875 56 33.015625 56 
Q 37.15625 56 41.109375 55.140625 
Q 45.0625 54.296875 48.78125 52.59375 
z
" id="DejaVuSans-99"/>
      <path d="M 54.890625 33.015625 
L 54.890625 0 
L 45.90625 0 
L 45.90625 32.71875 
Q 45.90625 40.484375 42.875 44.328125 
Q 39.84375 48.1875 33.796875 48.1875 
Q 26.515625 48.1875 22.3125 43.546875 
Q 18.109375 38.921875 18.109375 30.90625 
L 18.109375 0 
L 9.078125 0 
L 9.078125 75.984375 
L 18.109375 75.984375 
L 18.109375 46.1875 
Q 21.34375 51.125 25.703125 53.5625 
Q 30.078125 56 35.796875 56 
Q 45.21875 56 50.046875 50.171875 
Q 54.890625 44.34375 54.890625 33.015625 
z
" id="DejaVuSans-104"/>
     </defs>
     <g transform="translate(369.632813 365.435781)scale(0.1 -0.1)">
      <use xlink:href="#DejaVuSans-69"/>
      <use x="63.183594" xlink:href="#DejaVuSans-112"/>
      <use x="126.660156" xlink:href="#DejaVuSans-111"/>
      <use x="187.841797" xlink:href="#DejaVuSans-99"/>
      <use x="242.822266" xlink:href="#DejaVuSans-104"/>
     </g>
    </g>
   </g>
   <g id="matplotlib.axis_2">
    <g id="ytick_1">
     <g id="line2d_13">
      <path clip-path="url(#p7461408793)" d="M 50.14375 337.159219 
L 719.74375 337.159219 
" style="fill:none;stroke:#b0b0b0;stroke-linecap:square;stroke-width:0.8;"/>
     </g>
     <g id="line2d_14">
      <defs>
       <path d="M 0 0 
L -3.5 0 
" id="m305e6a0d1c" style="stroke:#000000;stroke-width:0.8;"/>
      </defs>
      <g>
       <use style="stroke:#000000;stroke-width:0.8;" x="50.14375" xlink:href="#m305e6a0d1c" y="337.159219"/>
      </g>
     </g>
     <g id="text_8">
      <!-- 0.82 -->
      <defs>
       <path d="M 10.6875 12.40625 
L 21 12.40625 
L 21 0 
L 10.6875 0 
z
" id="DejaVuSans-46"/>
      </defs>
      <g transform="translate(20.878125 340.958437)scale(0.1 -0.1)">
       <use xlink:href="#DejaVuSans-48"/>
       <use x="63.623047" xlink:href="#DejaVuSans-46"/>
       <use x="95.410156" xlink:href="#DejaVuSans-56"/>
       <use x="159.033203" xlink:href="#DejaVuSans-50"/>
      </g>
     </g>
    </g>
    <g id="ytick_2">
     <g id="line2d_15">
      <path clip-path="url(#p7461408793)" d="M 50.14375 296.389219 
L 719.74375 296.389219 
" style="fill:none;stroke:#b0b0b0;stroke-linecap:square;stroke-width:0.8;"/>
     </g>
     <g id="line2d_16">
      <g>
       <use style="stroke:#000000;stroke-width:0.8;" x="50.14375" xlink:href="#m305e6a0d1c" y="296.389219"/>
      </g>
     </g>
     <g id="text_9">
      <!-- 0.84 -->
      <g transform="translate(20.878125 300.188437)scale(0.1 -0.1)">
       <use xlink:href="#DejaVuSans-48"/>
       <use x="63.623047" xlink:href="#DejaVuSans-46"/>
       <use x="95.410156" xlink:href="#DejaVuSans-56"/>
       <use x="159.033203" xlink:href="#DejaVuSans-52"/>
      </g>
     </g>
    </g>
    <g id="ytick_3">
     <g id="line2d_17">
      <path clip-path="url(#p7461408793)" d="M 50.14375 255.619219 
L 719.74375 255.619219 
" style="fill:none;stroke:#b0b0b0;stroke-linecap:square;stroke-width:0.8;"/>
     </g>
     <g id="line2d_18">
      <g>
       <use style="stroke:#000000;stroke-width:0.8;" x="50.14375" xlink:href="#m305e6a0d1c" y="255.619219"/>
      </g>
     </g>
     <g id="text_10">
      <!-- 0.86 -->
      <g transform="translate(20.878125 259.418437)scale(0.1 -0.1)">
       <use xlink:href="#DejaVuSans-48"/>
       <use x="63.623047" xlink:href="#DejaVuSans-46"/>
       <use x="95.410156" xlink:href="#DejaVuSans-56"/>
       <use x="159.033203" xlink:href="#DejaVuSans-54"/>
      </g>
     </g>
    </g>
    <g id="ytick_4">
     <g id="line2d_19">
      <path clip-path="url(#p7461408793)" d="M 50.14375 214.849219 
L 719.74375 214.849219 
" style="fill:none;stroke:#b0b0b0;stroke-linecap:square;stroke-width:0.8;"/>
     </g>
     <g id="line2d_20">
      <g>
       <use style="stroke:#000000;stroke-width:0.8;" x="50.14375" xlink:href="#m305e6a0d1c" y="214.849219"/>
      </g>
     </g>
     <g id="text_11">
      <!-- 0.88 -->
      <g transform="translate(20.878125 218.648437)scale(0.1 -0.1)">
       <use xlink:href="#DejaVuSans-48"/>
       <use x="63.623047" xlink:href="#DejaVuSans-46"/>
       <use x="95.410156" xlink:href="#DejaVuSans-56"/>
       <use x="159.033203" xlink:href="#DejaVuSans-56"/>
      </g>
     </g>
    </g>
    <g id="ytick_5">
     <g id="line2d_21">
      <path clip-path="url(#p7461408793)" d="M 50.14375 174.079219 
L 719.74375 174.079219 
" style="fill:none;stroke:#b0b0b0;stroke-linecap:square;stroke-width:0.8;"/>
     </g>
     <g id="line2d_22">
      <g>
       <use style="stroke:#000000;stroke-width:0.8;" x="50.14375" xlink:href="#m305e6a0d1c" y="174.079219"/>
      </g>
     </g>
     <g id="text_12">
      <!-- 0.90 -->
      <defs>
       <path d="M 10.984375 1.515625 
L 10.984375 10.5 
Q 14.703125 8.734375 18.5 7.8125 
Q 22.3125 6.890625 25.984375 6.890625 
Q 35.75 6.890625 40.890625 13.453125 
Q 46.046875 20.015625 46.78125 33.40625 
Q 43.953125 29.203125 39.59375 26.953125 
Q 35.25 24.703125 29.984375 24.703125 
Q 19.046875 24.703125 12.671875 31.3125 
Q 6.296875 37.9375 6.296875 49.421875 
Q 6.296875 60.640625 12.9375 67.421875 
Q 19.578125 74.21875 30.609375 74.21875 
Q 43.265625 74.21875 49.921875 64.515625 
Q 56.59375 54.828125 56.59375 36.375 
Q 56.59375 19.140625 48.40625 8.859375 
Q 40.234375 -1.421875 26.421875 -1.421875 
Q 22.703125 -1.421875 18.890625 -0.6875 
Q 15.09375 0.046875 10.984375 1.515625 
z
M 30.609375 32.421875 
Q 37.25 32.421875 41.125 36.953125 
Q 45.015625 41.5 45.015625 49.421875 
Q 45.015625 57.28125 41.125 61.84375 
Q 37.25 66.40625 30.609375 66.40625 
Q 23.96875 66.40625 20.09375 61.84375 
Q 16.21875 57.28125 16.21875 49.421875 
Q 16.21875 41.5 20.09375 36.953125 
Q 23.96875 32.421875 30.609375 32.421875 
z
" id="DejaVuSans-57"/>
      </defs>
      <g transform="translate(20.878125 177.878437)scale(0.1 -0.1)">
       <use xlink:href="#DejaVuSans-48"/>
       <use x="63.623047" xlink:href="#DejaVuSans-46"/>
       <use x="95.410156" xlink:href="#DejaVuSans-57"/>
       <use x="159.033203" xlink:href="#DejaVuSans-48"/>
      </g>
     </g>
    </g>
    <g id="ytick_6">
     <g id="line2d_23">
      <path clip-path="url(#p7461408793)" d="M 50.14375 133.309219 
L 719.74375 133.309219 
" style="fill:none;stroke:#b0b0b0;stroke-linecap:square;stroke-width:0.8;"/>
     </g>
     <g id="line2d_24">
      <g>
       <use style="stroke:#000000;stroke-width:0.8;" x="50.14375" xlink:href="#m305e6a0d1c" y="133.309219"/>
      </g>
     </g>
     <g id="text_13">
      <!-- 0.92 -->
      <g transform="translate(20.878125 137.108437)scale(0.1 -0.1)">
       <use xlink:href="#DejaVuSans-48"/>
       <use x="63.623047" xlink:href="#DejaVuSans-46"/>
       <use x="95.410156" xlink:href="#DejaVuSans-57"/>
       <use x="159.033203" xlink:href="#DejaVuSans-50"/>
      </g>
     </g>
    </g>
    <g id="ytick_7">
     <g id="line2d_25">
      <path clip-path="url(#p7461408793)" d="M 50.14375 92.539219 
L 719.74375 92.539219 
" style="fill:none;stroke:#b0b0b0;stroke-linecap:square;stroke-width:0.8;"/>
     </g>
     <g id="line2d_26">
      <g>
       <use style="stroke:#000000;stroke-width:0.8;" x="50.14375" xlink:href="#m305e6a0d1c" y="92.539219"/>
      </g>
     </g>
     <g id="text_14">
      <!-- 0.94 -->
      <g transform="translate(20.878125 96.338437)scale(0.1 -0.1)">
       <use xlink:href="#DejaVuSans-48"/>
       <use x="63.623047" xlink:href="#DejaVuSans-46"/>
       <use x="95.410156" xlink:href="#DejaVuSans-57"/>
       <use x="159.033203" xlink:href="#DejaVuSans-52"/>
      </g>
     </g>
    </g>
    <g id="ytick_8">
     <g id="line2d_27">
      <path clip-path="url(#p7461408793)" d="M 50.14375 51.769219 
L 719.74375 51.769219 
" style="fill:none;stroke:#b0b0b0;stroke-linecap:square;stroke-width:0.8;"/>
     </g>
     <g id="line2d_28">
      <g>
       <use style="stroke:#000000;stroke-width:0.8;" x="50.14375" xlink:href="#m305e6a0d1c" y="51.769219"/>
      </g>
     </g>
     <g id="text_15">
      <!-- 0.96 -->
      <g transform="translate(20.878125 55.568437)scale(0.1 -0.1)">
       <use xlink:href="#DejaVuSans-48"/>
       <use x="63.623047" xlink:href="#DejaVuSans-46"/>
       <use x="95.410156" xlink:href="#DejaVuSans-57"/>
       <use x="159.033203" xlink:href="#DejaVuSans-54"/>
      </g>
     </g>
    </g>
    <g id="ytick_9">
     <g id="line2d_29">
      <path clip-path="url(#p7461408793)" d="M 50.14375 10.999219 
L 719.74375 10.999219 
" style="fill:none;stroke:#b0b0b0;stroke-linecap:square;stroke-width:0.8;"/>
     </g>
     <g id="line2d_30">
      <g>
       <use style="stroke:#000000;stroke-width:0.8;" x="50.14375" xlink:href="#m305e6a0d1c" y="10.999219"/>
      </g>
     </g>
     <g id="text_16">
      <!-- 0.98 -->
      <g transform="translate(20.878125 14.798437)scale(0.1 -0.1)">
       <use xlink:href="#DejaVuSans-48"/>
       <use x="63.623047" xlink:href="#DejaVuSans-46"/>
       <use x="95.410156" xlink:href="#DejaVuSans-57"/>
       <use x="159.033203" xlink:href="#DejaVuSans-56"/>
      </g>
     </g>
    </g>
    <g id="text_17">
     <!-- Accuracy -->
     <defs>
      <path d="M 34.1875 63.1875 
L 20.796875 26.90625 
L 47.609375 26.90625 
z
M 28.609375 72.90625 
L 39.796875 72.90625 
L 67.578125 0 
L 57.328125 0 
L 50.6875 18.703125 
L 17.828125 18.703125 
L 11.1875 0 
L 0.78125 0 
z
" id="DejaVuSans-65"/>
      <path d="M 8.5 21.578125 
L 8.5 54.6875 
L 17.484375 54.6875 
L 17.484375 21.921875 
Q 17.484375 14.15625 20.5 10.265625 
Q 23.53125 6.390625 29.59375 6.390625 
Q 36.859375 6.390625 41.078125 11.03125 
Q 45.3125 15.671875 45.3125 23.6875 
L 45.3125 54.6875 
L 54.296875 54.6875 
L 54.296875 0 
L 45.3125 0 
L 45.3125 8.40625 
Q 42.046875 3.421875 37.71875 1 
Q 33.40625 -1.421875 27.6875 -1.421875 
Q 18.265625 -1.421875 13.375 4.4375 
Q 8.5 10.296875 8.5 21.578125 
z
M 31.109375 56 
z
" id="DejaVuSans-117"/>
      <path d="M 41.109375 46.296875 
Q 39.59375 47.171875 37.8125 47.578125 
Q 36.03125 48 33.890625 48 
Q 26.265625 48 22.1875 43.046875 
Q 18.109375 38.09375 18.109375 28.8125 
L 18.109375 0 
L 9.078125 0 
L 9.078125 54.6875 
L 18.109375 54.6875 
L 18.109375 46.1875 
Q 20.953125 51.171875 25.484375 53.578125 
Q 30.03125 56 36.53125 56 
Q 37.453125 56 38.578125 55.875 
Q 39.703125 55.765625 41.0625 55.515625 
z
" id="DejaVuSans-114"/>
      <path d="M 34.28125 27.484375 
Q 23.390625 27.484375 19.1875 25 
Q 14.984375 22.515625 14.984375 16.5 
Q 14.984375 11.71875 18.140625 8.90625 
Q 21.296875 6.109375 26.703125 6.109375 
Q 34.1875 6.109375 38.703125 11.40625 
Q 43.21875 16.703125 43.21875 25.484375 
L 43.21875 27.484375 
z
M 52.203125 31.203125 
L 52.203125 0 
L 43.21875 0 
L 43.21875 8.296875 
Q 40.140625 3.328125 35.546875 0.953125 
Q 30.953125 -1.421875 24.3125 -1.421875 
Q 15.921875 -1.421875 10.953125 3.296875 
Q 6 8.015625 6 15.921875 
Q 6 25.140625 12.171875 29.828125 
Q 18.359375 34.515625 30.609375 34.515625 
L 43.21875 34.515625 
L 43.21875 35.40625 
Q 43.21875 41.609375 39.140625 45 
Q 35.0625 48.390625 27.6875 48.390625 
Q 23 48.390625 18.546875 47.265625 
Q 14.109375 46.140625 10.015625 43.890625 
L 10.015625 52.203125 
Q 14.9375 54.109375 19.578125 55.046875 
Q 24.21875 56 28.609375 56 
Q 40.484375 56 46.34375 49.84375 
Q 52.203125 43.703125 52.203125 31.203125 
z
" id="DejaVuSans-97"/>
      <path d="M 32.171875 -5.078125 
Q 28.375 -14.84375 24.75 -17.8125 
Q 21.140625 -20.796875 15.09375 -20.796875 
L 7.90625 -20.796875 
L 7.90625 -13.28125 
L 13.1875 -13.28125 
Q 16.890625 -13.28125 18.9375 -11.515625 
Q 21 -9.765625 23.484375 -3.21875 
L 25.09375 0.875 
L 2.984375 54.6875 
L 12.5 54.6875 
L 29.59375 11.921875 
L 46.6875 54.6875 
L 56.203125 54.6875 
z
" id="DejaVuSans-121"/>
     </defs>
     <g transform="translate(14.798438 196.994062)rotate(-90)scale(0.1 -0.1)">
      <use xlink:href="#DejaVuSans-65"/>
      <use x="68.392578" xlink:href="#DejaVuSans-99"/>
      <use x="123.373047" xlink:href="#DejaVuSans-99"/>
      <use x="178.353516" xlink:href="#DejaVuSans-117"/>
      <use x="241.732422" xlink:href="#DejaVuSans-114"/>
      <use x="282.845703" xlink:href="#DejaVuSans-97"/>
      <use x="344.125" xlink:href="#DejaVuSans-99"/>
      <use x="399.105469" xlink:href="#DejaVuSans-121"/>
     </g>
    </g>
   </g>
   <g id="line2d_31">
    <path clip-path="url(#p7461408793)" d="M 71.876887 375.715469 
L 73.740302 361.911827 
L 75.653536 349.183658 
L 77.56677 337.784171 
L 79.480004 327.583902 
L 81.393238 318.453385 
L 83.306472 310.263157 
L 85.219706 302.883751 
L 87.770685 294.082057 
L 90.321663 286.184787 
L 93.510387 277.163994 
L 96.69911 268.913797 
L 99.887833 261.37857 
L 103.076556 254.503417 
L 106.26528 248.23344 
L 109.454003 242.51374 
L 112.642726 237.28942 
L 115.831449 232.505581 
L 119.020173 228.107328 
L 122.846641 223.261098 
L 126.673109 218.796193 
L 131.137321 213.9426 
L 136.239278 208.728931 
L 141.341236 203.836367 
L 146.443193 199.247563 
L 151.54515 194.945174 
L 156.647107 190.911853 
L 162.386809 186.674392 
L 168.126511 182.730822 
L 173.866213 179.056445 
L 180.24366 175.259488 
L 186.621106 171.730501 
L 193.636297 168.117689 
L 201.289233 164.446502 
L 209.579914 160.721331 
L 219.146083 156.667686 
L 228.712253 152.847695 
L 238.916168 149.017257 
L 249.120082 145.424875 
L 259.961741 141.852769 
L 270.8034 138.516017 
L 282.282804 135.220397 
L 294.399953 131.984459 
L 307.154846 128.821627 
L 320.547484 125.739208 
L 334.577866 122.737335 
L 350.521482 119.561853 
L 368.378333 116.238099 
L 389.423906 112.552352 
L 410.46948 109.093605 
L 431.515053 105.8575 
L 453.198372 102.751594 
L 474.88169 99.872644 
L 496.565008 97.215888 
L 518.886071 94.708062 
L 541.207134 92.423942 
L 567.354665 89.983403 
L 604.343855 86.78113 
L 659.189895 82.021494 
L 685.337426 79.515862 
L 687.888405 79.257563 
L 687.888405 79.257563 
" style="fill:none;stroke:#377eb8;stroke-linecap:square;stroke-width:2;"/>
   </g>
   <g id="line2d_32">
    <path clip-path="url(#p7461408793)" d="M 64.87062 375.715469 
L 66.087366 351.41206 
L 67.362856 333.352564 
L 68.0006 326.574554 
L 69.27609 316.386266 
L 70.551579 309.173963 
L 73.102558 297.426387 
L 75.653536 286.671181 
L 78.204515 276.809164 
L 80.755493 267.778849 
L 83.306472 259.518752 
L 85.857451 251.967389 
L 88.408429 245.063276 
L 90.959408 238.744927 
L 93.510387 232.956176 
L 96.061365 227.662133 
L 98.612344 222.833226 
L 101.163322 218.439882 
L 103.714301 214.452528 
L 106.26528 210.841593 
L 108.816258 207.577505 
L 111.367237 204.630691 
L 113.918215 201.971579 
L 117.106939 199.007218 
L 120.295662 196.388426 
L 123.484385 194.057446 
L 127.310853 191.558856 
L 131.775066 188.929955 
L 136.877023 186.1787 
L 141.97898 183.671706 
L 147.080937 181.393469 
L 152.820639 179.084583 
L 158.560341 177.023521 
L 164.300043 175.188207 
L 170.67749 173.386887 
L 177.054936 171.806734 
L 184.070127 170.287875 
L 192.360808 168.735531 
L 201.926978 167.188371 
L 215.319616 165.277107 
L 232.538721 163.04403 
L 250.395572 160.959825 
L 268.890166 159.027813 
L 288.660251 157.191702 
L 309.705824 155.466281 
L 332.664632 153.81426 
L 358.174418 152.208113 
L 388.148417 150.553231 
L 420.03565 149.017936 
L 453.198372 147.646101 
L 488.274328 146.420618 
L 525.263518 145.351325 
L 565.441431 144.414405 
L 610.083557 143.601431 
L 661.740874 142.892296 
L 687.888405 142.60311 
L 687.888405 142.60311 
" style="fill:none;stroke:#4daf4a;stroke-linecap:square;stroke-width:2;"/>
   </g>
   <g id="line2d_33">
    <path clip-path="url(#p7461408793)" d="M 71.748999 375.715469 
L 71.827068 374.056009 
L 72.464813 365.69823 
L 73.102558 369.979062 
L 73.740302 362.232813 
L 74.378047 357.391362 
L 75.015792 354.129707 
L 75.653536 345.720896 
L 76.291281 345.058456 
L 76.929025 342.255478 
L 77.56677 334.662082 
L 78.204515 331.400427 
L 78.842259 331.451458 
L 79.480004 321.564672 
L 80.117749 320.698348 
L 80.755493 319.01661 
L 81.393238 317.742519 
L 82.030983 320.23967 
L 82.668727 312.136685 
L 83.306472 309.996148 
L 83.944217 302.453783 
L 84.581961 305.205729 
L 85.219706 300.51713 
L 85.857451 296.89886 
L 86.495195 299.090186 
L 87.13294 296.032536 
L 87.770685 291.394847 
L 88.408429 295.064149 
L 89.683919 286.655338 
L 90.321663 288.235256 
L 90.959408 286.70637 
L 91.597153 279.775413 
L 92.234897 277.074378 
L 92.872642 278.909089 
L 93.510387 275.545614 
L 94.148131 275.596524 
L 94.785876 275.95326 
L 96.69911 268.818541 
L 97.974599 257.759605 
L 98.612344 266.98383 
L 99.250088 263.41647 
L 99.887833 264.53771 
L 100.525578 258.676961 
L 101.163322 259.951053 
L 101.801067 254.854807 
L 102.438812 254.192246 
L 103.076556 258.524109 
L 103.714301 257.250017 
L 104.352046 248.025793 
L 104.98979 253.071128 
L 105.627535 247.108437 
L 106.26528 247.618147 
L 106.903024 249.503768 
L 107.540769 248.229677 
L 108.178514 244.917111 
L 108.816258 250.166209 
L 109.454003 242.063224 
L 110.091748 241.451694 
L 110.729492 238.597685 
L 111.367237 238.342891 
L 112.004981 239.260246 
L 112.642726 238.088097 
L 113.280471 235.641977 
L 113.918215 241.400662 
L 114.55596 239.871776 
L 115.193705 233.348587 
L 115.831449 229.424492 
L 116.469194 232.635116 
L 117.106939 229.628376 
L 117.744683 232.686147 
L 118.382428 230.392758 
L 119.020173 228.66011 
L 119.657917 228.456226 
L 120.295662 225.908043 
L 120.933407 225.653249 
L 121.571151 228.048458 
L 122.208896 223.767627 
L 122.846641 224.583041 
L 123.484385 223.359981 
L 124.12213 225.653249 
L 124.759875 219.028118 
L 125.397619 217.652206 
L 126.035364 223.461923 
L 127.310853 214.543403 
L 128.586343 218.977208 
L 129.224087 212.250135 
L 129.861832 212.912697 
L 130.499576 213.931873 
L 131.137321 211.791457 
L 131.775066 212.046251 
L 132.41281 211.027075 
L 133.050555 214.033815 
L 133.6883 209.345216 
L 134.326044 214.594434 
L 134.963789 210.721249 
L 135.601534 203.637441 
L 136.239278 211.383811 
L 136.877023 206.644302 
L 137.514768 210.466455 
L 138.152512 208.427981 
L 138.790257 204.350912 
L 139.428002 203.127852 
L 140.065746 207.001038 
L 140.703491 203.280705 
L 141.341236 203.739382 
L 141.97898 202.057645 
L 142.616725 199.560493 
L 143.25447 198.184459 
L 143.892214 198.337312 
L 144.529959 198.999873 
L 145.167704 198.745079 
L 145.805448 198.948963 
L 146.443193 197.776813 
L 147.080937 199.101815 
L 147.718682 195.534456 
L 148.356427 196.604664 
L 148.994171 202.159587 
L 149.631916 192.935362 
L 150.907405 195.22863 
L 151.54515 195.585366 
L 152.182895 192.323832 
L 152.820639 193.852718 
L 153.458384 197.827724 
L 154.096129 196.298838 
L 155.371618 189.673707 
L 156.009363 189.520855 
L 156.647107 192.935362 
L 157.284852 189.164119 
L 157.922597 190.030443 
L 158.560341 187.023703 
L 159.198086 189.622797 
L 159.835831 189.266061 
L 160.473575 189.622797 
L 161.11132 189.622797 
L 161.749065 193.190156 
L 162.386809 185.392876 
L 163.024554 186.615936 
L 163.662299 186.208289 
L 164.300043 182.08031 
L 164.937788 182.793782 
L 165.575532 183.915022 
L 166.213277 185.545728 
L 166.851022 184.781346 
L 167.488766 182.131342 
L 168.126511 184.322668 
L 168.764256 183.965932 
L 169.402 179.685101 
L 170.039745 183.609196 
L 170.67749 183.405312 
L 171.315234 174.334061 
L 171.952979 179.888984 
L 172.590724 182.488078 
L 173.228468 180.908161 
L 173.866213 174.639766 
L 174.503958 176.933155 
L 175.141702 177.238859 
L 175.779447 174.588855 
L 176.417192 178.207125 
L 177.054936 181.162955 
L 177.692681 175.709973 
L 178.96817 178.869687 
L 179.605915 176.474477 
L 180.24366 175.761005 
L 181.519149 171.83691 
L 182.156893 179.685101 
L 182.794638 175.659063 
L 183.432383 173.6715 
L 184.070127 176.015799 
L 184.707872 175.098443 
L 185.345617 173.518648 
L 185.983361 173.6715 
L 186.621106 171.938852 
L 187.258851 173.212822 
L 187.896595 167.606989 
L 188.53434 171.072406 
L 189.172085 168.931991 
L 189.809829 170.15505 
L 190.447574 172.244556 
L 191.085319 169.135874 
L 191.723063 169.237816 
L 192.360808 171.83691 
L 192.998553 165.772277 
L 193.636297 174.436003 
L 194.911787 165.109837 
L 195.549531 168.014635 
L 196.187276 168.320461 
L 196.825021 166.689633 
L 197.462765 166.027193 
L 198.10051 167.912814 
L 198.738255 161.899214 
L 199.375999 169.084843 
L 200.651488 164.753101 
L 201.289233 164.090539 
L 201.926978 158.382764 
L 202.564722 162.30686 
L 203.202467 168.422402 
L 203.840212 162.816448 
L 204.477956 163.530041 
L 205.115701 165.517483 
L 205.753446 157.873176 
L 206.39119 164.141571 
L 207.028935 160.013592 
L 207.66668 160.370328 
L 208.304424 167.301163 
L 208.942169 162.612685 
L 209.579914 159.656856 
L 210.217658 158.7395 
L 210.855403 162.91839 
L 211.493148 158.331854 
L 212.130892 162.102976 
L 212.768637 155.376025 
L 213.406382 157.414498 
L 214.044126 157.51644 
L 214.681871 160.370328 
L 215.319616 152.725899 
L 215.95736 154.866315 
L 216.595105 158.026028 
L 217.232849 159.707766 
L 217.870594 156.548174 
L 218.508339 155.783671 
L 219.146083 155.936523 
L 219.783828 154.815405 
L 220.421573 152.878873 
L 221.059317 156.089496 
L 221.697062 156.751937 
L 222.334807 151.298956 
L 222.972551 159.91165 
L 223.610296 155.681729 
L 224.248041 153.898049 
L 224.885785 150.585484 
L 225.52353 151.961517 
L 226.161275 151.451929 
L 226.799019 153.949081 
L 227.436764 151.146103 
L 228.074509 149.923044 
L 228.712253 153.388461 
L 229.349998 154.815405 
L 229.987743 150.177838 
L 231.263232 150.228748 
L 231.900977 151.197014 
L 232.538721 150.228748 
L 233.176466 153.286519 
L 233.81421 154.203875 
L 234.451955 147.018124 
L 235.0897 149.923044 
L 235.727444 150.228748 
L 236.365189 151.095072 
L 237.002934 150.687426 
L 237.640678 148.59792 
L 238.278423 152.471105 
L 238.916168 146.100769 
L 239.553912 146.559446 
L 240.191657 147.32395 
L 240.829402 151.859575 
L 241.467146 148.292216 
L 242.104891 147.32395 
L 242.742636 147.32395 
L 243.38038 145.336386 
L 244.018125 146.81424 
L 244.65587 149.515276 
L 245.293614 148.445068 
L 245.931359 149.464366 
L 247.206848 141.921879 
L 247.844593 147.833538 
L 248.482338 144.113326 
L 249.120082 148.139364 
L 249.757827 147.884448 
L 250.395572 147.37486 
L 251.033316 144.419031 
L 251.671061 145.183534 
L 252.308805 145.081592 
L 252.94655 143.603617 
L 253.584295 140.291052 
L 254.222039 146.406594 
L 254.859784 147.018124 
L 255.497529 143.960353 
L 256.135273 142.533409 
L 256.773018 140.138199 
L 257.410763 142.431467 
L 258.048507 146.406594 
L 258.686252 145.693122 
L 259.323997 138.762166 
L 259.961741 140.698819 
L 260.599486 139.424727 
L 261.237231 139.57758 
L 261.874975 138.558403 
L 262.51272 137.029518 
L 263.150465 139.322786 
L 263.788209 142.074731 
L 264.425954 138.864108 
L 265.063699 139.373696 
L 265.701443 143.450765 
L 266.339188 140.240141 
L 266.976933 136.214104 
L 267.614677 139.067992 
L 268.252422 138.35452 
L 268.890166 139.628611 
L 269.527911 135.602574 
L 270.165656 135.194806 
L 270.8034 141.972789 
L 271.441145 140.494935 
L 272.07889 134.634187 
L 272.716634 141.106465 
L 273.354379 137.23328 
L 273.992124 136.927576 
L 274.629868 137.74299 
L 275.267613 140.18911 
L 275.905358 135.704516 
L 276.543102 135.602574 
L 277.818592 136.366956 
L 278.456336 137.488196 
L 279.094081 132.493771 
L 279.731826 136.62175 
L 280.36957 137.946752 
L 281.007315 137.386254 
L 281.64506 131.525505 
L 282.282804 137.488196 
L 282.920549 134.481334 
L 283.558294 132.646745 
L 284.196038 133.054391 
L 284.833783 135.245838 
L 285.471528 137.895842 
L 286.109272 136.061252 
L 286.747017 135.296748 
L 287.384761 131.525505 
L 288.022506 134.022657 
L 288.660251 135.704516 
L 289.297995 131.423563 
L 289.93574 136.62175 
L 290.573485 130.761123 
L 291.848974 136.62175 
L 292.486719 134.277451 
L 293.124463 133.360216 
L 293.762208 130.251413 
L 294.399953 130.812033 
L 295.037697 129.079385 
L 295.675442 133.207243 
L 296.313187 133.971746 
L 296.950931 133.054391 
L 297.588676 133.411127 
L 298.226421 131.321621 
L 298.864165 132.391951 
L 299.50191 133.105422 
L 300.139655 130.251413 
L 300.777399 129.996619 
L 301.415144 126.684054 
L 302.052889 128.060087 
L 302.690633 127.856204 
L 303.328378 131.576537 
L 303.966122 126.480292 
L 304.603867 129.130295 
L 305.241612 127.907235 
L 305.879356 130.149593 
L 306.517101 130.506329 
L 307.154846 129.487031 
L 307.79259 129.487031 
L 308.430335 123.014753 
L 309.06808 129.130295 
L 309.705824 130.659181 
L 310.981314 124.237934 
L 311.619058 131.270711 
L 312.894548 126.684054 
L 313.532292 130.047651 
L 314.170037 124.03405 
L 314.807782 125.359052 
L 315.445526 127.04079 
L 316.083271 124.59467 
L 316.721016 129.130295 
L 317.35876 126.225376 
L 317.996505 128.365913 
L 318.63425 124.543638 
L 319.271994 126.633144 
L 319.909739 125.511904 
L 320.547484 125.562936 
L 321.185228 126.633144 
L 321.822973 127.958146 
L 322.460717 129.894677 
L 323.098462 124.951406 
L 324.373951 128.365913 
L 325.011696 122.607106 
L 325.649441 124.951406 
L 326.287185 124.237934 
L 326.92493 126.531202 
L 327.562675 125.562936 
L 328.838164 124.543638 
L 329.475909 124.543638 
L 330.113653 123.065784 
L 330.751398 121.078221 
L 331.389143 123.269547 
L 332.026887 122.81099 
L 332.664632 123.371488 
L 333.302377 127.550499 
L 333.940121 121.791693 
L 334.577866 125.715788 
L 335.215611 126.123556 
L 335.853355 122.097518 
L 336.4911 122.607106 
L 337.128845 124.08496 
L 337.766589 123.167726 
L 338.404334 125.410084 
L 339.042078 117.612803 
L 339.679823 119.957103 
L 340.317568 118.224333 
L 340.955312 120.670575 
L 341.593057 123.932108 
L 342.230802 122.148429 
L 342.868546 124.390786 
L 343.506291 121.740782 
L 344.144036 117.867597 
L 345.419525 119.804129 
L 346.05727 119.600367 
L 346.695014 124.492728 
L 347.332759 117.45983 
L 347.970504 118.020449 
L 348.608248 120.925369 
L 349.883738 116.083917 
L 350.521482 118.173301 
L 351.159227 120.721485 
L 351.796972 121.791693 
L 352.434716 115.67615 
L 353.072461 121.180163 
L 353.710206 122.963842 
L 354.34795 116.389622 
L 354.985695 121.02731 
L 355.62344 118.886773 
L 356.261184 121.689751 
L 356.898929 121.078221 
L 357.536673 122.607106 
L 358.174418 116.695447 
L 358.812163 116.593506 
L 359.449907 119.090657 
L 360.087652 116.695447 
L 360.725397 118.683011 
L 361.363141 116.440653 
L 362.000886 118.326275 
L 362.638631 116.287801 
L 363.276375 119.651277 
L 363.91412 118.886773 
L 364.551865 114.707884 
L 365.189609 116.950241 
L 366.465099 112.771352 
L 367.102843 113.89247 
L 367.740588 118.835863 
L 368.378333 116.287801 
L 369.016077 116.083917 
L 369.653822 117.816565 
L 370.291567 116.797389 
L 370.929311 109.000109 
L 371.567056 115.06462 
L 372.204801 112.10879 
L 372.842545 118.071481 
L 373.48029 116.032886 
L 374.118034 109.458787 
L 374.755779 116.134828 
L 375.393524 115.01371 
L 376.031268 113.535734 
L 376.669013 116.695447 
L 377.306758 114.249206 
L 377.944502 114.096354 
L 378.582247 110.88573 
L 379.219992 112.261764 
L 379.857736 110.477963 
L 380.495481 112.567468 
L 381.133226 118.020449 
L 382.408715 111.293377 
L 383.04646 112.516558 
L 383.684204 108.388579 
L 384.321949 116.593506 
L 384.959694 115.166562 
L 386.235183 117.510861 
L 386.872928 112.72032 
L 387.510672 111.191435 
L 388.148417 111.344408 
L 388.786162 113.178998 
L 389.423906 117.969539 
L 390.061651 111.853996 
L 390.699396 114.096354 
L 391.33714 113.688708 
L 391.974885 111.191435 
L 392.612629 114.809826 
L 393.250374 109.917464 
L 393.888119 114.860736 
L 394.525863 108.898167 
L 395.163608 109.866433 
L 395.801353 109.713581 
L 396.439097 109.203993 
L 397.076842 110.783789 
L 397.714587 108.490521 
L 398.352331 113.84156 
L 398.990076 111.344408 
L 399.627821 105.738454 
L 400.265565 110.88573 
L 400.90331 109.509697 
L 401.541055 110.987672 
L 402.178799 110.834699 
L 402.816544 108.694283 
L 403.454289 108.541431 
L 404.092033 109.458787 
L 404.729778 108.898167 
L 405.367523 111.701144 
L 406.005267 110.325111 
L 406.643012 112.363584 
L 407.280757 108.082753 
L 408.556246 111.955938 
L 409.19399 110.325111 
L 409.831735 109.203993 
L 410.46948 106.248163 
L 411.107224 107.573165 
L 411.744969 110.936641 
L 412.382714 109.356845 
L 413.020458 110.732878 
L 413.658203 103.547128 
L 414.295948 107.522133 
L 414.933692 107.522133 
L 415.571437 107.777049 
L 416.209182 112.66941 
L 416.846926 106.044279 
L 417.484671 110.579905 
L 418.122416 108.643373 
L 418.76016 109.458787 
L 419.397905 107.063577 
L 420.03565 109.203993 
L 420.673394 106.961635 
L 421.311139 105.840395 
L 422.586628 105.840395 
L 423.862118 108.490521 
L 424.499862 105.636633 
L 425.137607 110.019406 
L 425.775352 102.273036 
L 426.413096 108.592463 
L 427.050841 105.126924 
L 427.688585 107.522133 
L 428.32633 108.133785 
L 428.964075 104.31151 
L 429.601819 104.515394 
L 430.239564 108.031843 
L 430.877309 107.878991 
L 431.515053 103.598038 
L 432.152798 104.515394 
L 432.790543 108.490521 
L 433.428287 107.420313 
L 434.066032 101.406712 
L 434.703777 103.64907 
L 435.341521 101.763448 
L 435.979266 102.273036 
L 437.254755 109.254903 
L 437.8925 105.789485 
L 438.530245 106.299073 
L 439.167989 102.731714 
L 439.805734 100.846092 
L 440.443479 103.190392 
L 441.081223 101.814358 
L 441.718968 102.884566 
L 442.356713 104.362541 
L 442.994457 99.266296 
L 443.632202 104.515394 
L 444.269946 105.585601 
L 444.907691 105.840395 
L 445.545436 105.942337 
L 446.18318 103.598038 
L 446.820925 103.598038 
L 448.096414 101.151918 
L 448.734159 96.259435 
L 449.371904 99.826916 
L 450.009648 101.151918 
L 450.647393 99.623032 
L 451.285138 105.177955 
L 451.922882 108.184695 
L 452.560627 99.775884 
L 453.198372 105.381718 
L 453.836116 103.445186 
L 454.473861 104.056716 
L 455.111606 105.891427 
L 455.74935 103.343244 
L 456.387095 102.986508 
L 457.02484 105.279897 
L 457.662584 105.942337 
L 458.300329 103.903864 
L 458.938074 103.343244 
L 459.575818 100.285472 
L 460.213563 104.668246 
L 460.851308 100.69324 
L 461.489052 104.056716 
L 462.126797 99.979768 
L 462.764541 102.884566 
L 463.402286 99.113323 
L 464.040031 101.049976 
L 464.677775 102.069152 
L 465.31552 102.425888 
L 465.953265 102.986508 
L 466.591009 101.508654 
L 467.228754 104.87213 
L 467.866499 102.069152 
L 468.504243 101.25386 
L 469.141988 101.559564 
L 469.779733 102.374978 
L 470.417477 98.450883 
L 471.055222 98.807618 
L 471.692967 99.52109 
L 472.330711 104.107747 
L 472.968456 100.234562 
L 473.606201 101.049976 
L 474.88169 95.698937 
L 475.519435 99.928737 
L 476.157179 99.470059 
L 476.794924 102.680804 
L 477.432669 93.354637 
L 478.070413 101.35568 
L 478.708158 100.540388 
L 479.345902 97.431585 
L 479.983647 102.578862 
L 480.621392 97.839353 
L 481.259136 97.125881 
L 481.896881 99.928737 
L 482.534626 98.90956 
L 483.17237 101.712416 
L 483.810115 97.278733 
L 484.44786 100.591298 
L 485.085604 100.234562 
L 485.723349 101.86539 
L 486.361094 96.616171 
L 486.998838 96.514351 
L 487.636583 94.985465 
L 490.187562 99.419148 
L 490.825306 98.603735 
L 491.463051 96.616171 
L 492.100796 96.769145 
L 492.73854 101.30477 
L 493.376285 96.667203 
L 494.01403 93.099843 
L 494.651774 98.29803 
L 495.289519 98.29803 
L 495.927264 95.647905 
L 496.565008 97.941294 
L 497.202753 99.215265 
L 499.115987 96.565261 
L 499.753731 97.125881 
L 500.391476 98.246999 
L 501.029221 97.482617 
L 501.666965 99.470059 
L 502.30471 99.113323 
L 502.942455 96.667203 
L 503.580199 100.540388 
L 504.217944 98.094147 
L 504.855689 98.29803 
L 505.493433 97.992205 
L 506.131178 95.495053 
L 506.768923 97.329643 
L 507.406667 96.310467 
L 508.044412 94.068109 
L 508.682157 94.679639 
L 509.319901 92.590134 
L 510.595391 96.361377 
L 511.233135 96.157615 
L 511.87088 92.029636 
L 512.508625 93.201785 
L 513.146369 96.157615 
L 513.784114 94.373814 
L 514.421858 91.010338 
L 515.059603 95.138317 
L 515.697348 96.259435 
L 516.335092 93.099843 
L 516.972837 96.921997 
L 517.610582 97.227823 
L 518.248326 98.196089 
L 518.886071 96.972907 
L 519.523816 94.017078 
L 520.16156 94.679639 
L 520.799305 94.373814 
L 521.43705 95.444021 
L 522.074794 92.845049 
L 522.712539 91.11228 
L 523.350284 94.11902 
L 523.988028 92.845049 
L 524.625773 94.068109 
L 525.263518 96.361377 
L 525.901262 92.590134 
L 526.539007 96.921997 
L 527.176752 93.762284 
L 527.814496 91.927694 
L 528.452241 91.774842 
L 529.089986 94.679639 
L 529.72773 95.087285 
L 530.365475 92.845049 
L 531.003219 92.997901 
L 531.640964 96.106583 
L 532.278709 92.743107 
L 532.916453 91.978604 
L 533.554198 94.322903 
L 534.191943 88.76798 
L 534.829687 95.749847 
L 535.467432 88.76798 
L 536.105177 89.073806 
L 536.742921 91.927694 
L 537.380666 93.405548 
L 538.018411 89.481452 
L 538.656155 91.570958 
L 539.2939 90.959428 
L 539.931645 92.641166 
L 540.569389 87.442978 
L 541.207134 91.061248 
L 541.844879 91.876662 
L 542.482623 90.959428 
L 543.120368 92.28443 
L 543.758113 87.290126 
L 544.395857 89.430542 
L 545.033602 89.430542 
L 545.671347 95.444021 
L 546.946836 90.704512 
L 547.584581 89.736246 
L 548.86007 95.444021 
L 549.497814 94.577697 
L 550.135559 93.405548 
L 550.773304 94.068109 
L 551.411048 89.124716 
L 552.048793 92.94687 
L 552.686538 89.94013 
L 553.324282 92.89596 
L 553.962027 89.634304 
L 554.599772 90.194924 
L 555.237516 93.813315 
L 555.875261 94.679639 
L 556.513006 92.845049 
L 557.788495 90.704512 
L 558.42624 92.080546 
L 559.063984 89.430542 
L 559.701729 95.036375 
L 560.339474 88.971864 
L 560.977218 91.774842 
L 561.614963 92.386371 
L 562.252708 87.035211 
L 562.890452 89.175748 
L 563.528197 88.10554 
L 564.165942 91.876662 
L 564.803686 90.755544 
L 565.441431 92.029636 
L 566.079175 89.94013 
L 566.71692 88.462276 
L 567.354665 89.481452 
L 567.992409 93.252695 
L 568.630154 92.488313 
L 569.267899 91.265132 
L 569.905643 90.857486 
L 571.181133 87.341037 
L 571.818877 90.296866 
L 572.456622 87.290126 
L 573.094367 89.736246 
L 573.732111 90.959428 
L 574.369856 87.54492 
L 575.007601 92.080546 
L 575.645345 88.666038 
L 576.28309 88.71707 
L 576.920835 87.799714 
L 577.558579 88.76798 
L 578.196324 91.367074 
L 578.834069 90.194924 
L 579.471813 88.10554 
L 580.109558 87.697773 
L 580.747303 84.741943 
L 581.385047 86.729507 
L 582.022792 86.831448 
L 582.660537 87.086243 
L 583.298281 87.188184 
L 583.936026 88.71707 
L 584.57377 91.265132 
L 585.211515 88.207361 
L 585.84926 89.226658 
L 586.487004 87.493889 
L 587.124749 92.743107 
L 587.762494 88.76798 
L 588.400238 90.653602 
L 589.037983 85.863183 
L 589.675728 89.532484 
L 590.313472 87.442978 
L 590.951217 86.576654 
L 591.588962 87.646862 
L 592.226706 86.168887 
L 592.864451 87.697773 
L 593.502196 88.615128 
L 594.13994 87.391947 
L 594.777685 84.792975 
L 595.41543 85.098679 
L 596.053174 89.94013 
L 596.690919 88.207361 
L 597.328664 91.16319 
L 597.966408 86.93339 
L 598.604153 86.678475 
L 599.241898 86.729507 
L 599.879642 89.226658 
L 600.517387 86.066945 
L 601.155131 86.321739 
L 601.792876 88.411244 
L 602.430621 85.608267 
L 603.068365 83.365909 
L 603.70611 90.55166 
L 604.343855 87.901656 
L 604.981599 84.589091 
L 605.619344 86.219919 
L 606.257089 92.386371 
L 606.894833 87.086243 
L 607.532578 86.525623 
L 608.170323 87.239095 
L 608.808067 84.589091 
L 609.445812 87.646862 
L 610.083557 87.188184 
L 610.721301 87.748804 
L 611.359046 87.341037 
L 611.996791 87.137153 
L 612.634535 81.327436 
L 613.27228 89.736246 
L 613.910025 89.736246 
L 614.547769 84.691033 
L 615.185514 87.290126 
L 615.823259 82.193881 
L 616.461003 84.232355 
L 617.098748 84.945827 
L 617.736493 83.671735 
L 618.374237 84.843885 
L 619.011982 85.761241 
L 619.649726 88.15645 
L 620.287471 85.047769 
L 620.925216 84.130413 
L 621.56296 83.467851 
L 622.200705 85.302563 
L 622.83845 87.901656 
L 623.476194 86.984301 
L 624.113939 84.232355 
L 624.751684 85.863183 
L 625.389428 84.691033 
L 626.027173 84.334297 
L 626.664918 85.710209 
L 627.302662 88.513186 
L 627.940407 81.174584 
L 628.578152 86.678475 
L 629.215896 86.93339 
L 629.853641 87.493889 
L 630.491386 79.900492 
L 631.12913 83.773677 
L 631.766875 85.353473 
L 632.40462 86.576654 
L 633.042364 84.640001 
L 634.317854 84.894795 
L 634.955598 87.391947 
L 635.593343 84.996737 
L 636.231087 86.016035 
L 636.868832 80.410201 
L 637.506577 86.372771 
L 638.144321 81.378467 
L 638.782066 83.416941 
L 639.419811 83.111115 
L 640.057555 77.862018 
L 641.333045 87.799714 
L 642.608534 79.645698 
L 644.521768 85.200621 
L 645.159513 80.461112 
L 645.797257 79.696608 
L 647.072747 85.812151 
L 647.710491 81.888055 
L 648.348236 82.397644 
L 649.623725 82.244791 
L 650.26147 81.276525 
L 650.899215 85.455415 
L 651.536959 82.703469 
L 652.174704 84.487149 
L 652.812449 81.480409 
L 653.450193 85.455415 
L 654.087938 85.302563 
L 654.725682 81.021731 
L 655.363427 83.926529 
L 656.001172 82.805411 
L 656.638916 77.709166 
L 657.276661 81.480409 
L 657.914406 80.868758 
L 658.55215 84.283265 
L 659.189895 80.512022 
L 659.82764 79.13611 
L 660.465384 84.436239 
L 661.103129 81.072642 
L 661.740874 85.302563 
L 662.378618 79.900492 
L 663.016363 78.422638 
L 663.654108 77.862018 
L 664.291852 80.512022 
L 664.929597 79.13611 
L 665.567342 83.671735 
L 666.205086 78.932226 
L 666.842831 79.645698 
L 667.480576 81.684172 
L 668.11832 80.613964 
L 668.756065 81.021731 
L 669.39381 84.945827 
L 670.031554 80.002434 
L 670.669299 77.709166 
L 671.307043 80.91979 
L 671.944788 78.932226 
L 672.582533 80.35917 
L 673.220277 83.518883 
L 673.858022 82.958263 
L 674.495767 83.060205 
L 675.133511 79.085078 
L 675.771256 81.989997 
L 676.409001 77.96396 
L 677.046745 85.302563 
L 677.68449 84.232355 
L 678.322235 80.664996 
L 678.959979 76.282222 
L 679.597724 76.893752 
L 680.873213 79.543756 
L 681.510958 81.989997 
L 682.148703 76.689868 
L 682.786447 82.193881 
L 683.424192 79.900492 
L 684.061937 78.932226 
L 684.699681 80.206318 
L 685.337426 77.454372 
L 685.975171 82.14285 
L 686.612915 81.633261 
L 687.25066 81.480409 
L 687.888405 79.79855 
L 687.888405 79.79855 
" style="fill:none;stroke:#377eb8;stroke-linecap:square;stroke-opacity:0.25098;stroke-width:1.5;"/>
   </g>
   <g id="line2d_34">
    <path clip-path="url(#p7461408793)" d="M 66.033582 375.715469 
L 66.087366 374.400473 
L 66.725111 363.321611 
L 67.362856 327.62323 
L 68.0006 356.346062 
L 69.27609 330.290365 
L 69.913834 296.848801 
L 70.551579 315.51863 
L 71.189324 287.821656 
L 71.827068 307.722443 
L 72.464813 320.852901 
L 73.102558 295.822942 
L 73.740302 276.127375 
L 74.378047 335.829736 
L 75.015792 283.308023 
L 75.653536 277.563432 
L 76.291281 258.688504 
L 76.929025 289.873252 
L 77.56677 267.715649 
L 78.204515 280.435788 
L 78.842259 258.483283 
L 79.480004 269.972465 
L 80.117749 269.356926 
L 80.755493 251.712955 
L 81.393238 271.203423 
L 82.030983 258.072964 
L 82.668727 265.869151 
L 83.306472 253.559331 
L 83.944217 275.716935 
L 84.581961 241.454731 
L 85.219706 276.948014 
L 85.857451 245.763144 
L 86.495195 241.659952 
L 87.13294 247.814862 
L 87.770685 267.100109 
L 88.408429 230.991408 
L 89.046174 250.481876 
L 89.683919 237.351539 
L 90.321663 236.5309 
L 90.959408 241.659952 
L 91.597153 237.761858 
L 92.234897 236.120581 
L 92.872642 229.555352 
L 93.510387 238.172177 
L 94.148131 220.322987 
L 94.785876 231.812047 
L 95.42362 219.297128 
L 96.061365 242.27537 
L 96.69911 212.937119 
L 97.336854 223.195221 
L 97.974599 213.347438 
L 98.612344 226.067578 
L 99.250088 210.269983 
L 99.887833 210.269983 
L 100.525578 217.040311 
L 101.163322 215.399034 
L 101.801067 219.297128 
L 102.438812 209.449345 
L 103.076556 202.063477 
L 103.714301 202.884115 
L 104.352046 214.783616 
L 104.98979 204.935712 
L 105.627535 204.525392 
L 106.26528 210.680302 
L 106.903024 208.013167 
L 107.540769 206.166669 
L 108.178514 202.473796 
L 108.816258 211.500941 
L 109.454003 230.78631 
L 110.091748 213.552537 
L 110.729492 210.475082 
L 111.367237 203.704754 
L 112.004981 204.730613 
L 112.642726 227.093315 
L 113.280471 206.576988 
L 113.918215 200.4222 
L 114.55596 195.498248 
L 115.193705 202.678895 
L 115.831449 189.753657 
L 116.469194 201.447937 
L 117.106939 210.475082 
L 117.744683 205.140932 
L 118.382428 198.165383 
L 119.020173 199.191121 
L 119.657917 204.730613 
L 120.295662 191.394934 
L 120.933407 189.548558 
L 121.571151 204.320293 
L 122.208896 209.654444 
L 122.846641 191.805253 
L 123.484385 192.831112 
L 124.12213 191.805253 
L 124.759875 181.54715 
L 125.397619 189.138239 
L 126.035364 198.575703 
L 126.673109 194.26729 
L 127.310853 186.265882 
L 127.948598 191.394934 
L 128.586343 181.752371 
L 129.224087 195.087928 
L 129.861832 198.780801 
L 130.499576 185.445244 
L 131.137321 183.598747 
L 131.775066 196.318886 
L 132.41281 186.881422 
L 133.050555 193.446651 
L 133.6883 196.729205 
L 134.326044 185.855563 
L 134.963789 196.729205 
L 135.601534 182.778108 
L 136.239278 195.908567 
L 136.877023 185.855563 
L 137.514768 183.803967 
L 138.152512 184.419385 
L 138.790257 182.367789 
L 139.428002 179.700653 
L 140.065746 180.726512 
L 140.703491 197.344745 
L 141.341236 184.214286 
L 141.97898 191.805253 
L 142.616725 175.39224 
L 143.25447 176.00778 
L 143.892214 175.80256 
L 144.529959 181.54715 
L 145.167704 193.241431 
L 145.805448 172.314785 
L 146.443193 191.189835 
L 147.080937 175.597461 
L 147.718682 194.882708 
L 148.356427 174.571602 
L 148.994171 184.829704 
L 149.631916 186.060784 
L 150.269661 181.34193 
L 150.907405 184.614764 
L 151.54515 184.419385 
L 152.182895 176.418099 
L 152.820639 179.085235 
L 153.458384 177.238738 
L 154.096129 173.545743 
L 154.733873 175.80256 
L 155.371618 179.290334 
L 156.009363 171.083828 
L 156.647107 172.314785 
L 157.284852 180.726512 
L 157.922597 179.495554 
L 158.560341 174.161283 
L 159.198086 174.776822 
L 159.835831 185.034925 
L 160.473575 176.623198 
L 161.11132 178.674916 
L 161.749065 176.212879 
L 162.386809 174.776822 
L 163.024554 179.290334 
L 164.300043 168.416692 
L 164.937788 182.16269 
L 165.575532 162.056683 
L 166.213277 182.573009 
L 166.851022 167.801274 
L 167.488766 174.776822 
L 168.126511 172.930325 
L 168.764256 182.367789 
L 169.402 166.159875 
L 170.039745 165.954776 
L 170.67749 178.880015 
L 171.315234 179.290334 
L 171.952979 172.520006 
L 172.590724 178.264596 
L 173.228468 162.056683 
L 173.866213 186.060784 
L 174.503958 175.80256 
L 175.141702 160.620505 
L 175.779447 180.316193 
L 176.417192 175.187141 
L 177.054936 173.750963 
L 177.692681 159.184327 
L 178.330426 174.161283 
L 178.96817 165.544457 
L 179.605915 176.828418 
L 180.24366 176.623198 
L 180.881404 168.827011 
L 181.519149 158.158589 
L 182.156893 168.416692 
L 182.794638 168.211593 
L 183.432383 171.904466 
L 184.070127 162.877321 
L 184.707872 173.135424 
L 185.983361 162.261782 
L 186.621106 174.161283 
L 187.258851 168.416692 
L 187.896595 166.159875 
L 188.53434 171.289048 
L 189.172085 164.928917 
L 189.809829 167.390954 
L 190.447574 158.774007 
L 191.085319 168.827011 
L 192.360808 179.290334 
L 192.998553 157.74827 
L 194.274042 170.057969 
L 194.911787 167.185734 
L 195.549531 165.134138 
L 196.187276 159.594767 
L 196.825021 174.366503 
L 197.462765 165.954776 
L 198.10051 160.620505 
L 198.738255 168.827011 
L 199.375999 171.699367 
L 200.013744 163.90318 
L 200.651488 163.90318 
L 201.289233 165.134138 
L 201.926978 173.956062 
L 202.564722 162.056683 
L 203.202467 154.465595 
L 203.840212 163.287641 
L 204.477956 168.416692 
L 205.115701 169.442551 
L 205.753446 178.264596 
L 206.39119 165.954776 
L 207.028935 166.775415 
L 207.66668 170.878729 
L 208.304424 166.570194 
L 208.942169 159.799866 
L 209.579914 163.287641 
L 210.217658 161.646364 
L 210.855403 177.649057 
L 211.493148 169.85287 
L 212.768637 162.672101 
L 213.406382 157.54305 
L 214.044126 166.570194 
L 214.681871 162.467002 
L 215.319616 161.030824 
L 215.95736 164.928917 
L 216.595105 159.389547 
L 217.232849 164.518598 
L 217.870594 167.801274 
L 218.508339 164.518598 
L 219.146083 166.365096 
L 219.783828 162.056683 
L 220.421573 160.210185 
L 221.059317 159.389547 
L 221.697062 177.238738 
L 222.334807 161.851462 
L 222.972551 160.005087 
L 223.610296 163.287641 
L 224.248041 160.620505 
L 224.885785 169.032231 
L 225.52353 166.980635 
L 226.161275 157.74827 
L 226.799019 169.647649 
L 227.436764 159.594767 
L 228.712253 170.057969 
L 229.349998 160.415406 
L 229.987743 165.954776 
L 230.625487 169.032231 
L 231.263232 162.672101 
L 231.900977 158.158589 
L 232.538721 166.365096 
L 233.176466 167.801274 
L 233.81421 158.568909 
L 234.451955 157.337951 
L 235.727444 168.416692 
L 236.365189 157.54305 
L 237.002934 169.85287 
L 237.640678 164.723819 
L 238.278423 169.442551 
L 238.916168 166.365096 
L 239.553912 158.979228 
L 240.191657 161.030824 
L 240.829402 168.827011 
L 241.467146 162.467002 
L 242.104891 168.211593 
L 242.742636 164.518598 
L 243.38038 166.980635 
L 244.018125 167.596053 
L 244.65587 154.875914 
L 245.293614 158.979228 
L 245.931359 164.518598 
L 246.569104 159.594767 
L 247.206848 164.108279 
L 247.844593 164.108279 
L 248.482338 160.415406 
L 249.120082 165.134138 
L 249.757827 158.979228 
L 250.395572 174.366503 
L 251.033316 170.322362 
L 251.671061 162.672101 
L 252.308805 158.568909 
L 252.94655 161.851462 
L 253.584295 157.13273 
L 254.222039 157.953369 
L 254.859784 166.980635 
L 255.497529 165.134138 
L 256.135273 166.570194 
L 256.773018 172.109686 
L 257.410763 160.825725 
L 258.048507 158.363688 
L 258.686252 155.081134 
L 259.323997 161.441143 
L 260.599486 156.722411 
L 261.237231 164.928917 
L 261.874975 158.774007 
L 262.51272 151.38814 
L 263.150465 158.363688 
L 263.788209 158.568909 
L 264.425954 165.954776 
L 265.063699 165.134138 
L 265.701443 154.465595 
L 266.976933 167.596053 
L 267.614677 163.287641 
L 268.252422 161.851462 
L 268.890166 152.619219 
L 269.527911 151.59336 
L 270.165656 159.799866 
L 270.8034 161.851462 
L 271.441145 159.594767 
L 272.07889 167.596053 
L 272.716634 153.234637 
L 273.354379 160.005087 
L 273.992124 150.97782 
L 275.267613 165.544457 
L 275.905358 153.439857 
L 276.543102 152.413998 
L 277.180847 154.875914 
L 277.818592 147.490046 
L 278.456336 165.339237 
L 279.094081 150.362402 
L 279.731826 161.646364 
L 280.36957 154.260496 
L 281.007315 154.260496 
L 281.64506 156.312092 
L 282.282804 153.439857 
L 282.920549 165.544457 
L 283.558294 150.362402 
L 284.196038 157.13273 
L 284.833783 152.619219 
L 285.471528 149.336543 
L 286.109272 161.236044 
L 286.747017 162.056683 
L 287.384761 152.003679 
L 288.022506 171.289048 
L 288.660251 153.029538 
L 289.297995 169.442551 
L 290.573485 144.002272 
L 291.211229 159.594767 
L 291.848974 160.415406 
L 292.486719 157.953369 
L 293.124463 156.517312 
L 293.762208 148.105586 
L 294.399953 157.13273 
L 295.037697 157.54305 
L 295.675442 149.746863 
L 296.313187 161.851462 
L 296.950931 153.850177 
L 297.588676 160.415406 
L 298.226421 147.900365 
L 298.864165 156.722411 
L 299.50191 150.97782 
L 300.777399 158.979228 
L 301.415144 151.38814 
L 302.052889 149.952083 
L 302.690633 162.056683 
L 303.328378 152.824318 
L 303.966122 161.030824 
L 304.603867 158.774007 
L 305.241612 148.721125 
L 305.879356 153.784078 
L 306.517101 149.952083 
L 307.154846 149.541764 
L 307.79259 151.798459 
L 308.430335 153.029538 
L 309.06808 161.236044 
L 309.705824 153.234637 
L 310.343569 151.38814 
L 310.981314 147.695266 
L 311.619058 157.953369 
L 312.256803 146.464309 
L 312.894548 161.236044 
L 313.532292 144.82291 
L 314.170037 153.850177 
L 314.807782 154.670815 
L 315.445526 149.131445 
L 316.083271 154.670815 
L 316.721016 168.006373 
L 317.35876 152.619219 
L 317.996505 151.59336 
L 319.271994 157.337951 
L 319.909739 152.208778 
L 320.547484 157.74827 
L 321.185228 156.517312 
L 321.822973 151.798459 
L 322.460717 159.594767 
L 323.098462 154.055275 
L 323.736207 151.183041 
L 324.373951 154.465595 
L 325.011696 160.005087 
L 325.649441 163.90318 
L 326.287185 160.210185 
L 326.92493 163.287641 
L 327.562675 155.081134 
L 328.200419 155.081134 
L 328.838164 156.927632 
L 330.113653 145.028131 
L 330.751398 161.646364 
L 331.389143 161.851462 
L 332.026887 151.59336 
L 332.664632 159.389547 
L 333.302377 165.134138 
L 333.940121 157.13273 
L 334.577866 156.106993 
L 335.215611 146.669408 
L 335.853355 157.953369 
L 336.4911 145.43845 
L 337.128845 152.003679 
L 337.766589 153.644956 
L 338.404334 158.979228 
L 339.042078 146.053989 
L 339.679823 158.774007 
L 340.317568 160.825725 
L 340.955312 149.336543 
L 341.593057 155.491453 
L 342.230802 154.875914 
L 342.868546 147.079727 
L 343.506291 157.13273 
L 344.144036 148.926224 
L 344.78178 145.848769 
L 345.419525 150.157182 
L 346.05727 165.544457 
L 346.695014 155.286233 
L 347.332759 152.619219 
L 347.970504 148.105586 
L 348.608248 147.695266 
L 349.245993 150.157182 
L 349.883738 153.644956 
L 350.521482 155.696552 
L 351.159227 147.695266 
L 351.796972 150.772721 
L 352.434716 142.976534 
L 353.072461 146.874628 
L 353.710206 154.670815 
L 354.34795 152.619219 
L 354.985695 158.568909 
L 355.62344 143.591953 
L 356.898929 151.59336 
L 357.536673 157.74827 
L 358.174418 146.259088 
L 358.812163 153.644956 
L 359.449907 151.183041 
L 360.087652 155.901773 
L 360.725397 142.771314 
L 361.363141 158.568909 
L 362.000886 157.54305 
L 362.638631 143.591953 
L 363.276375 157.337951 
L 363.91412 152.413998 
L 364.551865 149.746863 
L 365.189609 152.824318 
L 365.827354 151.183041 
L 366.465099 143.591953 
L 367.102843 152.824318 
L 367.740588 145.233351 
L 368.378333 155.081134 
L 369.016077 152.208778 
L 369.653822 154.260496 
L 370.291567 156.927632 
L 370.929311 152.413998 
L 371.567056 153.029538 
L 372.204801 150.772721 
L 372.842545 152.824318 
L 373.48029 150.567501 
L 374.118034 158.979228 
L 374.755779 147.284947 
L 375.393524 158.979228 
L 376.031268 154.465595 
L 376.669013 146.464309 
L 377.306758 153.850177 
L 377.944502 151.798459 
L 378.582247 149.131445 
L 379.219992 144.617811 
L 379.857736 152.208778 
L 380.495481 156.106993 
L 381.133226 146.259088 
L 381.77097 158.979228 
L 382.408715 152.824318 
L 383.04646 156.722411 
L 383.684204 150.772721 
L 384.321949 150.362402 
L 384.959694 148.310685 
L 385.597438 155.491453 
L 386.235183 154.055275 
L 386.872928 140.514497 
L 387.510672 152.003679 
L 388.148417 144.412591 
L 388.786162 152.413998 
L 389.423906 155.081134 
L 390.061651 149.131445 
L 390.699396 150.772721 
L 391.33714 149.746863 
L 391.974885 149.131445 
L 392.612629 145.43845 
L 393.250374 147.284947 
L 393.888119 153.234637 
L 394.525863 155.286233 
L 395.163608 144.002272 
L 395.801353 142.976534 
L 396.439097 142.771314 
L 397.076842 149.746863 
L 397.714587 144.82291 
L 398.352331 145.233351 
L 398.990076 153.029538 
L 399.627821 144.617811 
L 400.265565 154.260496 
L 400.90331 147.490046 
L 401.541055 150.97782 
L 402.178799 157.953369 
L 402.816544 154.875914 
L 403.454289 150.157182 
L 404.092033 149.746863 
L 405.367523 150.157182 
L 406.005267 145.616939 
L 406.643012 149.746863 
L 407.280757 142.155896 
L 407.918501 149.952083 
L 408.556246 150.772721 
L 409.19399 150.567501 
L 409.831735 149.952083 
L 410.46948 153.850177 
L 411.107224 153.439857 
L 411.744969 147.490046 
L 412.382714 168.006373 
L 413.020458 147.079727 
L 413.658203 148.515905 
L 414.295948 151.798459 
L 414.933692 150.772721 
L 415.571437 151.59336 
L 416.209182 147.490046 
L 416.846926 145.028131 
L 417.484671 154.465595 
L 418.122416 160.005087 
L 418.76016 144.002272 
L 419.397905 155.901773 
L 420.03565 153.029538 
L 420.673394 144.82291 
L 421.311139 152.619219 
L 421.948884 152.413998 
L 422.586628 143.181633 
L 423.224373 152.413998 
L 423.862118 153.850177 
L 424.499862 151.798459 
L 425.137607 157.54305 
L 425.775352 146.464309 
L 426.413096 146.874628 
L 427.050841 154.670815 
L 427.688585 156.106993 
L 428.32633 142.771314 
L 428.964075 150.362402 
L 429.601819 148.515905 
L 430.239564 143.386854 
L 430.877309 149.336543 
L 431.515053 143.591953 
L 432.152798 150.772721 
L 432.790543 154.670815 
L 433.428287 139.693859 
L 434.066032 148.515905 
L 434.703777 140.514497 
L 435.341521 142.771314 
L 435.979266 148.310685 
L 436.617011 147.284947 
L 437.254755 150.567501 
L 438.530245 139.899079 
L 439.167989 150.97782 
L 439.805734 141.130037 
L 440.443479 155.696552 
L 441.081223 144.82291 
L 441.718968 145.028131 
L 442.356713 149.952083 
L 442.994457 152.208778 
L 443.632202 146.669408 
L 444.269946 158.774007 
L 444.907691 142.360995 
L 445.545436 147.695266 
L 446.18318 143.386854 
L 446.820925 140.309399 
L 447.45867 141.540356 
L 448.096414 155.696552 
L 448.734159 146.259088 
L 449.371904 149.541764 
L 450.009648 155.081134 
L 450.647393 151.183041 
L 451.285138 144.412591 
L 451.922882 146.874628 
L 452.560627 147.284947 
L 453.198372 142.155896 
L 453.836116 152.413998 
L 454.473861 155.286233 
L 455.111606 140.924817 
L 455.74935 158.568909 
L 456.387095 141.950676 
L 457.02484 145.233351 
L 457.662584 149.541764 
L 458.300329 150.772721 
L 458.938074 142.155896 
L 459.575818 147.490046 
L 460.213563 140.104178 
L 460.851308 151.38814 
L 461.489052 154.875914 
L 462.126797 141.745577 
L 462.764541 147.284947 
L 463.402286 150.362402 
L 464.040031 145.233351 
L 464.677775 147.695266 
L 465.31552 154.260496 
L 465.953265 153.850177 
L 466.591009 148.515905 
L 467.228754 149.541764 
L 467.866499 146.464309 
L 469.141988 144.207492 
L 469.779733 141.130037 
L 470.417477 153.029538 
L 471.055222 143.797173 
L 471.692967 140.924817 
L 472.330711 148.105586 
L 472.968456 145.028131 
L 473.606201 147.284947 
L 474.243945 146.259088 
L 474.88169 145.64367 
L 475.519435 147.900365 
L 476.157179 148.721125 
L 476.794924 150.362402 
L 477.432669 144.82291 
L 478.070413 137.847483 
L 478.708158 140.514497 
L 479.345902 149.746863 
L 479.983647 140.104178 
L 480.621392 144.617811 
L 481.259136 143.797173 
L 481.896881 148.105586 
L 482.534626 147.284947 
L 483.17237 141.950676 
L 483.810115 150.362402 
L 484.44786 152.003679 
L 485.085604 151.798459 
L 485.723349 143.591953 
L 486.361094 143.386854 
L 486.998838 148.515905 
L 487.636583 139.28354 
L 488.274328 144.617811 
L 488.912072 150.97782 
L 489.549817 141.540356 
L 490.187562 147.079727 
L 490.825306 149.952083 
L 491.463051 150.97782 
L 492.100796 139.899079 
L 492.73854 144.412591 
L 493.376285 154.875914 
L 494.01403 145.848769 
L 494.651774 150.157182 
L 495.289519 144.412591 
L 495.927264 145.233351 
L 496.565008 146.464309 
L 497.202753 145.43845 
L 497.840497 145.233351 
L 498.478242 144.82291 
L 499.115987 145.43845 
L 499.753731 149.131445 
L 501.029221 142.566215 
L 501.666965 148.721125 
L 502.30471 144.412591 
L 502.942455 147.900365 
L 503.580199 149.131445 
L 504.217944 141.335257 
L 504.855689 147.079727 
L 505.493433 143.181633 
L 506.131178 145.821188 
L 506.768923 146.669408 
L 507.406667 141.335257 
L 508.682157 144.617811 
L 509.319901 149.541764 
L 509.957646 146.053989 
L 510.595391 143.797173 
L 511.233135 142.360995 
L 511.87088 147.284947 
L 512.508625 145.64367 
L 513.146369 142.360995 
L 513.784114 148.105586 
L 514.421858 145.64367 
L 515.059603 148.310685 
L 515.697348 143.797173 
L 516.335092 150.772721 
L 516.972837 147.490046 
L 517.610582 148.515905 
L 518.248326 148.515905 
L 518.886071 144.617811 
L 519.523816 147.079727 
L 520.16156 142.771314 
L 520.799305 140.514497 
L 521.43705 155.696552 
L 522.074794 146.669408 
L 522.712539 140.924817 
L 523.350284 146.053989 
L 523.988028 143.386854 
L 524.625773 152.003679 
L 525.263518 146.259088 
L 525.901262 138.257802 
L 526.539007 141.130037 
L 527.176752 151.38814 
L 527.814496 142.976534 
L 528.452241 148.926224 
L 529.089986 146.874628 
L 529.72773 144.412591 
L 530.365475 140.514497 
L 531.003219 142.155896 
L 531.640964 146.259088 
L 532.278709 139.899079 
L 532.916453 138.052582 
L 533.554198 141.335257 
L 534.191943 136.821624 
L 534.829687 155.901773 
L 535.467432 139.078441 
L 536.105177 147.490046 
L 536.742921 144.207492 
L 537.380666 145.43845 
L 538.656155 143.181633 
L 539.2939 145.848769 
L 539.931645 144.002272 
L 540.569389 147.079727 
L 541.207134 147.695266 
L 541.844879 138.052582 
L 542.482623 149.131445 
L 543.120368 141.540356 
L 543.758113 142.771314 
L 544.395857 139.078441 
L 545.033602 132.513212 
L 545.671347 146.259088 
L 546.309091 137.437042 
L 546.946836 145.848769 
L 547.584581 151.798459 
L 548.222325 144.412591 
L 548.86007 150.157182 
L 549.497814 148.721125 
L 550.135559 135.180347 
L 550.773304 144.617811 
L 551.411048 150.362402 
L 552.048793 129.846076 
L 552.686538 145.848769 
L 553.324282 138.668122 
L 553.962027 147.490046 
L 554.599772 144.412591 
L 555.237516 153.029538 
L 555.875261 146.669408 
L 556.513006 149.541764 
L 557.15075 153.234637 
L 557.788495 148.926224 
L 558.42624 138.052582 
L 559.063984 144.412591 
L 559.701729 139.078441 
L 560.339474 146.464309 
L 560.977218 147.284947 
L 561.614963 141.745577 
L 562.252708 145.233351 
L 563.528197 138.873221 
L 564.165942 144.82291 
L 564.803686 142.976534 
L 565.441431 140.309399 
L 566.079175 139.48876 
L 566.71692 156.517312 
L 567.354665 143.591953 
L 567.992409 141.540356 
L 568.630154 148.721125 
L 569.267899 141.950676 
L 569.905643 143.386854 
L 570.543388 151.183041 
L 571.181133 149.952083 
L 571.818877 141.335257 
L 572.456622 149.952083 
L 573.094367 150.362402 
L 573.732111 147.490046 
L 574.369856 147.695266 
L 575.007601 144.412591 
L 575.645345 147.284947 
L 576.28309 150.97782 
L 576.920835 144.617811 
L 577.558579 134.564808 
L 578.834069 150.157182 
L 579.471813 138.052582 
L 580.109558 140.309399 
L 580.747303 146.669408 
L 581.385047 142.360995 
L 582.022792 147.695266 
L 582.660537 142.771314 
L 583.298281 142.976534 
L 583.936026 141.745577 
L 584.57377 145.028131 
L 585.211515 152.003679 
L 585.84926 139.48876 
L 586.487004 149.952083 
L 587.124749 141.950676 
L 587.762494 141.950676 
L 588.400238 149.746863 
L 589.037983 139.078441 
L 589.675728 137.231944 
L 590.313472 150.362402 
L 590.951217 136.206085 
L 591.588962 146.259088 
L 592.226706 141.540356 
L 592.864451 142.360995 
L 593.502196 140.514497 
L 594.13994 143.386854 
L 594.777685 151.798459 
L 595.41543 142.976534 
L 596.053174 140.924817 
L 596.690919 146.259088 
L 597.328664 140.514497 
L 597.966408 141.950676 
L 598.604153 142.566215 
L 599.241898 150.567501 
L 600.517387 144.412591 
L 601.155131 146.669408 
L 602.430621 143.797173 
L 603.068365 138.873221 
L 603.70611 146.259088 
L 604.343855 141.950676 
L 604.981599 143.386854 
L 606.257089 144.187808 
L 606.894833 140.104178 
L 607.532578 142.360995 
L 608.170323 140.309399 
L 609.445812 140.309399 
L 610.083557 149.541764 
L 610.721301 140.719718 
L 611.359046 148.310685 
L 611.996791 147.900365 
L 612.634535 136.821624 
L 613.27228 145.64367 
L 613.910025 146.259088 
L 614.547769 137.437042 
L 615.185514 145.64367 
L 615.823259 145.848769 
L 616.461003 145.028131 
L 617.098748 145.64367 
L 617.736493 144.82291 
L 618.374237 143.386854 
L 619.011982 144.002272 
L 619.649726 144.412591 
L 620.287471 139.48876 
L 621.56296 151.183041 
L 622.200705 139.48876 
L 622.83845 137.847483 
L 623.476194 133.744169 
L 624.113939 160.415406 
L 624.751684 140.309399 
L 625.389428 141.130037 
L 626.027173 144.002272 
L 626.664918 145.848769 
L 627.302662 148.310685 
L 627.940407 138.668122 
L 628.578152 138.462901 
L 629.215896 147.900365 
L 629.853641 134.154489 
L 630.491386 136.821624 
L 631.12913 147.900365 
L 631.766875 145.848769 
L 632.40462 134.359709 
L 633.042364 137.847483 
L 633.680109 150.157182 
L 634.317854 145.64367 
L 634.955598 146.053989 
L 635.593343 134.770028 
L 636.231087 148.310685 
L 636.868832 139.899079 
L 637.506577 149.131445 
L 638.144321 142.360995 
L 638.782066 147.900365 
L 639.419811 148.515905 
L 640.057555 142.360995 
L 640.6953 140.719718 
L 641.333045 150.157182 
L 641.970789 138.668122 
L 642.608534 143.181633 
L 643.246279 142.771314 
L 643.884023 144.207492 
L 644.521768 144.207492 
L 645.159513 141.540356 
L 645.797257 152.003679 
L 646.435002 141.540356 
L 647.072747 139.48876 
L 647.710491 146.464309 
L 648.348236 142.771314 
L 648.985981 142.771314 
L 649.623725 140.309399 
L 650.899215 139.48876 
L 651.536959 142.771314 
L 652.174704 137.231944 
L 652.812449 145.43845 
L 653.450193 155.286233 
L 654.087938 145.028131 
L 654.725682 150.567501 
L 655.363427 144.207492 
L 656.001172 154.260496 
L 656.638916 136.411305 
L 657.276661 145.028131 
L 657.914406 151.59336 
L 658.55215 142.566215 
L 659.189895 135.180347 
L 659.82764 149.131445 
L 660.465384 151.38814 
L 661.103129 137.231944 
L 661.740874 148.926224 
L 662.378618 151.59336 
L 663.016363 138.462901 
L 663.654108 141.950676 
L 664.291852 146.259088 
L 664.929597 140.514497 
L 665.567342 131.077033 
L 666.205086 149.131445 
L 666.842831 141.950676 
L 667.480576 140.514497 
L 668.11832 137.026723 
L 668.756065 146.874628 
L 669.39381 138.462901 
L 670.031554 139.899079 
L 670.669299 133.538949 
L 671.307043 142.566215 
L 671.944788 142.976534 
L 672.582533 143.181633 
L 673.220277 139.899079 
L 674.495767 152.208778 
L 675.133511 143.386854 
L 675.771256 145.64367 
L 676.409001 140.104178 
L 677.046745 150.362402 
L 677.68449 140.719718 
L 678.322235 142.155896 
L 678.959979 137.231944 
L 679.597724 136.411305 
L 680.235469 145.848769 
L 680.873213 137.847483 
L 681.510958 144.002272 
L 682.148703 142.360995 
L 682.786447 141.745577 
L 683.424192 138.462901 
L 684.061937 139.899079 
L 684.699681 141.950676 
L 685.337426 140.924817 
L 685.975171 137.642263 
L 686.612915 148.105586 
L 687.25066 140.924817 
L 687.888405 138.873221 
L 687.888405 138.873221 
" style="fill:none;stroke:#4daf4a;stroke-linecap:square;stroke-opacity:0.25098;stroke-width:1.5;"/>
   </g>
   <g id="patch_3">
    <path d="M 50.14375 337.159219 
L 50.14375 10.999219 
" style="fill:none;stroke:#000000;stroke-linecap:square;stroke-linejoin:miter;stroke-width:0.8;"/>
   </g>
   <g id="patch_4">
    <path d="M 719.74375 337.159219 
L 719.74375 10.999219 
" style="fill:none;stroke:#000000;stroke-linecap:square;stroke-linejoin:miter;stroke-width:0.8;"/>
   </g>
   <g id="patch_5">
    <path d="M 50.14375 337.159219 
L 719.74375 337.159219 
" style="fill:none;stroke:#000000;stroke-linecap:square;stroke-linejoin:miter;stroke-width:0.8;"/>
   </g>
   <g id="patch_6">
    <path d="M 50.14375 10.999219 
L 719.74375 10.999219 
" style="fill:none;stroke:#000000;stroke-linecap:square;stroke-linejoin:miter;stroke-width:0.8;"/>
   </g>
   <g id="legend_1">
    <g id="patch_7">
     <path d="M 57.14375 48.355469 
L 114.584375 48.355469 
Q 116.584375 48.355469 116.584375 46.355469 
L 116.584375 17.999219 
Q 116.584375 15.999219 114.584375 15.999219 
L 57.14375 15.999219 
Q 55.14375 15.999219 55.14375 17.999219 
L 55.14375 46.355469 
Q 55.14375 48.355469 57.14375 48.355469 
z
" style="fill:#ffffff;opacity:0.8;stroke:#cccccc;stroke-linejoin:miter;"/>
    </g>
    <g id="line2d_35">
     <path d="M 59.14375 24.097656 
L 79.14375 24.097656 
" style="fill:none;stroke:#377eb8;stroke-linecap:square;stroke-width:2;"/>
    </g>
    <g id="line2d_36"/>
    <g id="text_18">
     <!-- Train -->
     <defs>
      <path d="M -0.296875 72.90625 
L 61.375 72.90625 
L 61.375 64.59375 
L 35.5 64.59375 
L 35.5 0 
L 25.59375 0 
L 25.59375 64.59375 
L -0.296875 64.59375 
z
" id="DejaVuSans-84"/>
      <path d="M 9.421875 54.6875 
L 18.40625 54.6875 
L 18.40625 0 
L 9.421875 0 
z
M 9.421875 75.984375 
L 18.40625 75.984375 
L 18.40625 64.59375 
L 9.421875 64.59375 
z
" id="DejaVuSans-105"/>
      <path d="M 54.890625 33.015625 
L 54.890625 0 
L 45.90625 0 
L 45.90625 32.71875 
Q 45.90625 40.484375 42.875 44.328125 
Q 39.84375 48.1875 33.796875 48.1875 
Q 26.515625 48.1875 22.3125 43.546875 
Q 18.109375 38.921875 18.109375 30.90625 
L 18.109375 0 
L 9.078125 0 
L 9.078125 54.6875 
L 18.109375 54.6875 
L 18.109375 46.1875 
Q 21.34375 51.125 25.703125 53.5625 
Q 30.078125 56 35.796875 56 
Q 45.21875 56 50.046875 50.171875 
Q 54.890625 44.34375 54.890625 33.015625 
z
" id="DejaVuSans-110"/>
     </defs>
     <g transform="translate(87.14375 27.597656)scale(0.1 -0.1)">
      <use xlink:href="#DejaVuSans-84"/>
      <use x="60.865234" xlink:href="#DejaVuSans-114"/>
      <use x="101.978516" xlink:href="#DejaVuSans-97"/>
      <use x="163.257812" xlink:href="#DejaVuSans-105"/>
      <use x="191.041016" xlink:href="#DejaVuSans-110"/>
     </g>
    </g>
    <g id="line2d_37">
     <path d="M 59.14375 38.775781 
L 79.14375 38.775781 
" style="fill:none;stroke:#4daf4a;stroke-linecap:square;stroke-width:2;"/>
    </g>
    <g id="line2d_38"/>
    <g id="text_19">
     <!-- Test -->
     <defs>
      <path d="M 56.203125 29.59375 
L 56.203125 25.203125 
L 14.890625 25.203125 
Q 15.484375 15.921875 20.484375 11.0625 
Q 25.484375 6.203125 34.421875 6.203125 
Q 39.59375 6.203125 44.453125 7.46875 
Q 49.3125 8.734375 54.109375 11.28125 
L 54.109375 2.78125 
Q 49.265625 0.734375 44.1875 -0.34375 
Q 39.109375 -1.421875 33.890625 -1.421875 
Q 20.796875 -1.421875 13.15625 6.1875 
Q 5.515625 13.8125 5.515625 26.8125 
Q 5.515625 40.234375 12.765625 48.109375 
Q 20.015625 56 32.328125 56 
Q 43.359375 56 49.78125 48.890625 
Q 56.203125 41.796875 56.203125 29.59375 
z
M 47.21875 32.234375 
Q 47.125 39.59375 43.09375 43.984375 
Q 39.0625 48.390625 32.421875 48.390625 
Q 24.90625 48.390625 20.390625 44.140625 
Q 15.875 39.890625 15.1875 32.171875 
z
" id="DejaVuSans-101"/>
      <path d="M 44.28125 53.078125 
L 44.28125 44.578125 
Q 40.484375 46.53125 36.375 47.5 
Q 32.28125 48.484375 27.875 48.484375 
Q 21.1875 48.484375 17.84375 46.4375 
Q 14.5 44.390625 14.5 40.28125 
Q 14.5 37.15625 16.890625 35.375 
Q 19.28125 33.59375 26.515625 31.984375 
L 29.59375 31.296875 
Q 39.15625 29.25 43.1875 25.515625 
Q 47.21875 21.78125 47.21875 15.09375 
Q 47.21875 7.46875 41.1875 3.015625 
Q 35.15625 -1.421875 24.609375 -1.421875 
Q 20.21875 -1.421875 15.453125 -0.5625 
Q 10.6875 0.296875 5.421875 2 
L 5.421875 11.28125 
Q 10.40625 8.6875 15.234375 7.390625 
Q 20.0625 6.109375 24.8125 6.109375 
Q 31.15625 6.109375 34.5625 8.28125 
Q 37.984375 10.453125 37.984375 14.40625 
Q 37.984375 18.0625 35.515625 20.015625 
Q 33.0625 21.96875 24.703125 23.78125 
L 21.578125 24.515625 
Q 13.234375 26.265625 9.515625 29.90625 
Q 5.8125 33.546875 5.8125 39.890625 
Q 5.8125 47.609375 11.28125 51.796875 
Q 16.75 56 26.8125 56 
Q 31.78125 56 36.171875 55.265625 
Q 40.578125 54.546875 44.28125 53.078125 
z
" id="DejaVuSans-115"/>
      <path d="M 18.3125 70.21875 
L 18.3125 54.6875 
L 36.8125 54.6875 
L 36.8125 47.703125 
L 18.3125 47.703125 
L 18.3125 18.015625 
Q 18.3125 11.328125 20.140625 9.421875 
Q 21.96875 7.515625 27.59375 7.515625 
L 36.8125 7.515625 
L 36.8125 0 
L 27.59375 0 
Q 17.1875 0 13.234375 3.875 
Q 9.28125 7.765625 9.28125 18.015625 
L 9.28125 47.703125 
L 2.6875 47.703125 
L 2.6875 54.6875 
L 9.28125 54.6875 
L 9.28125 70.21875 
z
" id="DejaVuSans-116"/>
     </defs>
     <g transform="translate(87.14375 42.275781)scale(0.1 -0.1)">
      <use xlink:href="#DejaVuSans-84"/>
      <use x="60.818359" xlink:href="#DejaVuSans-101"/>
      <use x="122.341797" xlink:href="#DejaVuSans-115"/>
      <use x="174.441406" xlink:href="#DejaVuSans-116"/>
     </g>
    </g>
   </g>
  </g>
 </g>
 <defs>
  <clipPath id="p7461408793">
   <rect height="326.16" width="669.6" x="50.14375" y="10.999219"/>
  </clipPath>
 </defs>
</svg>
