<?xml version="1.0" encoding="utf-8" standalone="no"?>
<!DOCTYPE svg PUBLIC "-//W3C//DTD SVG 1.1//EN"
  "http://www.w3.org/Graphics/SVG/1.1/DTD/svg11.dtd">
<!-- Created with matplotlib (https://matplotlib.org/) -->
<svg height="374.715469pt" version="1.1" viewBox="0 0 726.94375 374.715469" width="726.94375pt" xmlns="http://www.w3.org/2000/svg" xmlns:xlink="http://www.w3.org/1999/xlink">
 <defs>
  <style type="text/css">
*{stroke-linecap:butt;stroke-linejoin:round;white-space:pre;}
  </style>
 </defs>
 <g id="figure_1">
  <g id="patch_1">
   <path d="M 0 374.715469 
L 726.94375 374.715469 
L 726.94375 0 
L 0 0 
z
" style="fill:#ffffff;"/>
  </g>
  <g id="axes_1">
   <g id="patch_2">
    <path d="M 50.14375 337.159219 
L 719.74375 337.159219 
L 719.74375 10.999219 
L 50.14375 10.999219 
z
" style="fill:#ffffff;"/>
   </g>
   <g id="matplotlib.axis_1">
    <g id="xtick_1">
     <g id="line2d_1">
      <path clip-path="url(#pf1ef83f095)" d="M 50.14375 337.159219 
L 50.14375 10.999219 
" style="fill:none;stroke:#b0b0b0;stroke-linecap:square;stroke-width:0.8;"/>
     </g>
     <g id="line2d_2">
      <defs>
       <path d="M 0 0 
L 0 3.5 
" id="mcc95e5c47b" style="stroke:#000000;stroke-width:0.8;"/>
      </defs>
      <g>
       <use style="stroke:#000000;stroke-width:0.8;" x="50.14375" xlink:href="#mcc95e5c47b" y="337.159219"/>
      </g>
     </g>
     <g id="text_1">
      <!-- 0 -->
      <defs>
       <path d="M 31.78125 66.40625 
Q 24.171875 66.40625 20.328125 58.90625 
Q 16.5 51.421875 16.5 36.375 
Q 16.5 21.390625 20.328125 13.890625 
Q 24.171875 6.390625 31.78125 6.390625 
Q 39.453125 6.390625 43.28125 13.890625 
Q 47.125 21.390625 47.125 36.375 
Q 47.125 51.421875 43.28125 58.90625 
Q 39.453125 66.40625 31.78125 66.40625 
z
M 31.78125 74.21875 
Q 44.046875 74.21875 50.515625 64.515625 
Q 56.984375 54.828125 56.984375 36.375 
Q 56.984375 17.96875 50.515625 8.265625 
Q 44.046875 -1.421875 31.78125 -1.421875 
Q 19.53125 -1.421875 13.0625 8.265625 
Q 6.59375 17.96875 6.59375 36.375 
Q 6.59375 54.828125 13.0625 64.515625 
Q 19.53125 74.21875 31.78125 74.21875 
z
" id="DejaVuSans-48"/>
      </defs>
      <g transform="translate(46.9625 351.757656)scale(0.1 -0.1)">
       <use xlink:href="#DejaVuSans-48"/>
      </g>
     </g>
    </g>
    <g id="xtick_2">
     <g id="line2d_3">
      <path clip-path="url(#pf1ef83f095)" d="M 129.867527 337.159219 
L 129.867527 10.999219 
" style="fill:none;stroke:#b0b0b0;stroke-linecap:square;stroke-width:0.8;"/>
     </g>
     <g id="line2d_4">
      <g>
       <use style="stroke:#000000;stroke-width:0.8;" x="129.867527" xlink:href="#mcc95e5c47b" y="337.159219"/>
      </g>
     </g>
     <g id="text_2">
      <!-- 50 -->
      <defs>
       <path d="M 10.796875 72.90625 
L 49.515625 72.90625 
L 49.515625 64.59375 
L 19.828125 64.59375 
L 19.828125 46.734375 
Q 21.96875 47.46875 24.109375 47.828125 
Q 26.265625 48.1875 28.421875 48.1875 
Q 40.625 48.1875 47.75 41.5 
Q 54.890625 34.8125 54.890625 23.390625 
Q 54.890625 11.625 47.5625 5.09375 
Q 40.234375 -1.421875 26.90625 -1.421875 
Q 22.3125 -1.421875 17.546875 -0.640625 
Q 12.796875 0.140625 7.71875 1.703125 
L 7.71875 11.625 
Q 12.109375 9.234375 16.796875 8.0625 
Q 21.484375 6.890625 26.703125 6.890625 
Q 35.15625 6.890625 40.078125 11.328125 
Q 45.015625 15.765625 45.015625 23.390625 
Q 45.015625 31 40.078125 35.4375 
Q 35.15625 39.890625 26.703125 39.890625 
Q 22.75 39.890625 18.8125 39.015625 
Q 14.890625 38.140625 10.796875 36.28125 
z
" id="DejaVuSans-53"/>
      </defs>
      <g transform="translate(123.505027 351.757656)scale(0.1 -0.1)">
       <use xlink:href="#DejaVuSans-53"/>
       <use x="63.623047" xlink:href="#DejaVuSans-48"/>
      </g>
     </g>
    </g>
    <g id="xtick_3">
     <g id="line2d_5">
      <path clip-path="url(#pf1ef83f095)" d="M 209.591303 337.159219 
L 209.591303 10.999219 
" style="fill:none;stroke:#b0b0b0;stroke-linecap:square;stroke-width:0.8;"/>
     </g>
     <g id="line2d_6">
      <g>
       <use style="stroke:#000000;stroke-width:0.8;" x="209.591303" xlink:href="#mcc95e5c47b" y="337.159219"/>
      </g>
     </g>
     <g id="text_3">
      <!-- 100 -->
      <defs>
       <path d="M 12.40625 8.296875 
L 28.515625 8.296875 
L 28.515625 63.921875 
L 10.984375 60.40625 
L 10.984375 69.390625 
L 28.421875 72.90625 
L 38.28125 72.90625 
L 38.28125 8.296875 
L 54.390625 8.296875 
L 54.390625 0 
L 12.40625 0 
z
" id="DejaVuSans-49"/>
      </defs>
      <g transform="translate(200.047553 351.757656)scale(0.1 -0.1)">
       <use xlink:href="#DejaVuSans-49"/>
       <use x="63.623047" xlink:href="#DejaVuSans-48"/>
       <use x="127.246094" xlink:href="#DejaVuSans-48"/>
      </g>
     </g>
    </g>
    <g id="xtick_4">
     <g id="line2d_7">
      <path clip-path="url(#pf1ef83f095)" d="M 289.31508 337.159219 
L 289.31508 10.999219 
" style="fill:none;stroke:#b0b0b0;stroke-linecap:square;stroke-width:0.8;"/>
     </g>
     <g id="line2d_8">
      <g>
       <use style="stroke:#000000;stroke-width:0.8;" x="289.31508" xlink:href="#mcc95e5c47b" y="337.159219"/>
      </g>
     </g>
     <g id="text_4">
      <!-- 150 -->
      <g transform="translate(279.77133 351.757656)scale(0.1 -0.1)">
       <use xlink:href="#DejaVuSans-49"/>
       <use x="63.623047" xlink:href="#DejaVuSans-53"/>
       <use x="127.246094" xlink:href="#DejaVuSans-48"/>
      </g>
     </g>
    </g>
    <g id="xtick_5">
     <g id="line2d_9">
      <path clip-path="url(#pf1ef83f095)" d="M 369.038857 337.159219 
L 369.038857 10.999219 
" style="fill:none;stroke:#b0b0b0;stroke-linecap:square;stroke-width:0.8;"/>
     </g>
     <g id="line2d_10">
      <g>
       <use style="stroke:#000000;stroke-width:0.8;" x="369.038857" xlink:href="#mcc95e5c47b" y="337.159219"/>
      </g>
     </g>
     <g id="text_5">
      <!-- 200 -->
      <defs>
       <path d="M 19.1875 8.296875 
L 53.609375 8.296875 
L 53.609375 0 
L 7.328125 0 
L 7.328125 8.296875 
Q 12.9375 14.109375 22.625 23.890625 
Q 32.328125 33.6875 34.8125 36.53125 
Q 39.546875 41.84375 41.421875 45.53125 
Q 43.3125 49.21875 43.3125 52.78125 
Q 43.3125 58.59375 39.234375 62.25 
Q 35.15625 65.921875 28.609375 65.921875 
Q 23.96875 65.921875 18.8125 64.3125 
Q 13.671875 62.703125 7.8125 59.421875 
L 7.8125 69.390625 
Q 13.765625 71.78125 18.9375 73 
Q 24.125 74.21875 28.421875 74.21875 
Q 39.75 74.21875 46.484375 68.546875 
Q 53.21875 62.890625 53.21875 53.421875 
Q 53.21875 48.921875 51.53125 44.890625 
Q 49.859375 40.875 45.40625 35.40625 
Q 44.1875 33.984375 37.640625 27.21875 
Q 31.109375 20.453125 19.1875 8.296875 
z
" id="DejaVuSans-50"/>
      </defs>
      <g transform="translate(359.495107 351.757656)scale(0.1 -0.1)">
       <use xlink:href="#DejaVuSans-50"/>
       <use x="63.623047" xlink:href="#DejaVuSans-48"/>
       <use x="127.246094" xlink:href="#DejaVuSans-48"/>
      </g>
     </g>
    </g>
    <g id="xtick_6">
     <g id="line2d_11">
      <path clip-path="url(#pf1ef83f095)" d="M 448.762633 337.159219 
L 448.762633 10.999219 
" style="fill:none;stroke:#b0b0b0;stroke-linecap:square;stroke-width:0.8;"/>
     </g>
     <g id="line2d_12">
      <g>
       <use style="stroke:#000000;stroke-width:0.8;" x="448.762633" xlink:href="#mcc95e5c47b" y="337.159219"/>
      </g>
     </g>
     <g id="text_6">
      <!-- 250 -->
      <g transform="translate(439.218883 351.757656)scale(0.1 -0.1)">
       <use xlink:href="#DejaVuSans-50"/>
       <use x="63.623047" xlink:href="#DejaVuSans-53"/>
       <use x="127.246094" xlink:href="#DejaVuSans-48"/>
      </g>
     </g>
    </g>
    <g id="xtick_7">
     <g id="line2d_13">
      <path clip-path="url(#pf1ef83f095)" d="M 528.48641 337.159219 
L 528.48641 10.999219 
" style="fill:none;stroke:#b0b0b0;stroke-linecap:square;stroke-width:0.8;"/>
     </g>
     <g id="line2d_14">
      <g>
       <use style="stroke:#000000;stroke-width:0.8;" x="528.48641" xlink:href="#mcc95e5c47b" y="337.159219"/>
      </g>
     </g>
     <g id="text_7">
      <!-- 300 -->
      <defs>
       <path d="M 40.578125 39.3125 
Q 47.65625 37.796875 51.625 33 
Q 55.609375 28.21875 55.609375 21.1875 
Q 55.609375 10.40625 48.1875 4.484375 
Q 40.765625 -1.421875 27.09375 -1.421875 
Q 22.515625 -1.421875 17.65625 -0.515625 
Q 12.796875 0.390625 7.625 2.203125 
L 7.625 11.71875 
Q 11.71875 9.328125 16.59375 8.109375 
Q 21.484375 6.890625 26.8125 6.890625 
Q 36.078125 6.890625 40.9375 10.546875 
Q 45.796875 14.203125 45.796875 21.1875 
Q 45.796875 27.640625 41.28125 31.265625 
Q 36.765625 34.90625 28.71875 34.90625 
L 20.21875 34.90625 
L 20.21875 43.015625 
L 29.109375 43.015625 
Q 36.375 43.015625 40.234375 45.921875 
Q 44.09375 48.828125 44.09375 54.296875 
Q 44.09375 59.90625 40.109375 62.90625 
Q 36.140625 65.921875 28.71875 65.921875 
Q 24.65625 65.921875 20.015625 65.03125 
Q 15.375 64.15625 9.8125 62.3125 
L 9.8125 71.09375 
Q 15.4375 72.65625 20.34375 73.4375 
Q 25.25 74.21875 29.59375 74.21875 
Q 40.828125 74.21875 47.359375 69.109375 
Q 53.90625 64.015625 53.90625 55.328125 
Q 53.90625 49.265625 50.4375 45.09375 
Q 46.96875 40.921875 40.578125 39.3125 
z
" id="DejaVuSans-51"/>
      </defs>
      <g transform="translate(518.94266 351.757656)scale(0.1 -0.1)">
       <use xlink:href="#DejaVuSans-51"/>
       <use x="63.623047" xlink:href="#DejaVuSans-48"/>
       <use x="127.246094" xlink:href="#DejaVuSans-48"/>
      </g>
     </g>
    </g>
    <g id="xtick_8">
     <g id="line2d_15">
      <path clip-path="url(#pf1ef83f095)" d="M 608.210186 337.159219 
L 608.210186 10.999219 
" style="fill:none;stroke:#b0b0b0;stroke-linecap:square;stroke-width:0.8;"/>
     </g>
     <g id="line2d_16">
      <g>
       <use style="stroke:#000000;stroke-width:0.8;" x="608.210186" xlink:href="#mcc95e5c47b" y="337.159219"/>
      </g>
     </g>
     <g id="text_8">
      <!-- 350 -->
      <g transform="translate(598.666436 351.757656)scale(0.1 -0.1)">
       <use xlink:href="#DejaVuSans-51"/>
       <use x="63.623047" xlink:href="#DejaVuSans-53"/>
       <use x="127.246094" xlink:href="#DejaVuSans-48"/>
      </g>
     </g>
    </g>
    <g id="xtick_9">
     <g id="line2d_17">
      <path clip-path="url(#pf1ef83f095)" d="M 687.933963 337.159219 
L 687.933963 10.999219 
" style="fill:none;stroke:#b0b0b0;stroke-linecap:square;stroke-width:0.8;"/>
     </g>
     <g id="line2d_18">
      <g>
       <use style="stroke:#000000;stroke-width:0.8;" x="687.933963" xlink:href="#mcc95e5c47b" y="337.159219"/>
      </g>
     </g>
     <g id="text_9">
      <!-- 400 -->
      <defs>
       <path d="M 37.796875 64.3125 
L 12.890625 25.390625 
L 37.796875 25.390625 
z
M 35.203125 72.90625 
L 47.609375 72.90625 
L 47.609375 25.390625 
L 58.015625 25.390625 
L 58.015625 17.1875 
L 47.609375 17.1875 
L 47.609375 0 
L 37.796875 0 
L 37.796875 17.1875 
L 4.890625 17.1875 
L 4.890625 26.703125 
z
" id="DejaVuSans-52"/>
      </defs>
      <g transform="translate(678.390213 351.757656)scale(0.1 -0.1)">
       <use xlink:href="#DejaVuSans-52"/>
       <use x="63.623047" xlink:href="#DejaVuSans-48"/>
       <use x="127.246094" xlink:href="#DejaVuSans-48"/>
      </g>
     </g>
    </g>
    <g id="text_10">
     <!-- Epoch -->
     <defs>
      <path d="M 9.8125 72.90625 
L 55.90625 72.90625 
L 55.90625 64.59375 
L 19.671875 64.59375 
L 19.671875 43.015625 
L 54.390625 43.015625 
L 54.390625 34.71875 
L 19.671875 34.71875 
L 19.671875 8.296875 
L 56.78125 8.296875 
L 56.78125 0 
L 9.8125 0 
z
" id="DejaVuSans-69"/>
      <path d="M 18.109375 8.203125 
L 18.109375 -20.796875 
L 9.078125 -20.796875 
L 9.078125 54.6875 
L 18.109375 54.6875 
L 18.109375 46.390625 
Q 20.953125 51.265625 25.265625 53.625 
Q 29.59375 56 35.59375 56 
Q 45.5625 56 51.78125 48.09375 
Q 58.015625 40.1875 58.015625 27.296875 
Q 58.015625 14.40625 51.78125 6.484375 
Q 45.5625 -1.421875 35.59375 -1.421875 
Q 29.59375 -1.421875 25.265625 0.953125 
Q 20.953125 3.328125 18.109375 8.203125 
z
M 48.6875 27.296875 
Q 48.6875 37.203125 44.609375 42.84375 
Q 40.53125 48.484375 33.40625 48.484375 
Q 26.265625 48.484375 22.1875 42.84375 
Q 18.109375 37.203125 18.109375 27.296875 
Q 18.109375 17.390625 22.1875 11.75 
Q 26.265625 6.109375 33.40625 6.109375 
Q 40.53125 6.109375 44.609375 11.75 
Q 48.6875 17.390625 48.6875 27.296875 
z
" id="DejaVuSans-112"/>
      <path d="M 30.609375 48.390625 
Q 23.390625 48.390625 19.1875 42.75 
Q 14.984375 37.109375 14.984375 27.296875 
Q 14.984375 17.484375 19.15625 11.84375 
Q 23.34375 6.203125 30.609375 6.203125 
Q 37.796875 6.203125 41.984375 11.859375 
Q 46.1875 17.53125 46.1875 27.296875 
Q 46.1875 37.015625 41.984375 42.703125 
Q 37.796875 48.390625 30.609375 48.390625 
z
M 30.609375 56 
Q 42.328125 56 49.015625 48.375 
Q 55.71875 40.765625 55.71875 27.296875 
Q 55.71875 13.875 49.015625 6.21875 
Q 42.328125 -1.421875 30.609375 -1.421875 
Q 18.84375 -1.421875 12.171875 6.21875 
Q 5.515625 13.875 5.515625 27.296875 
Q 5.515625 40.765625 12.171875 48.375 
Q 18.84375 56 30.609375 56 
z
" id="DejaVuSans-111"/>
      <path d="M 48.78125 52.59375 
L 48.78125 44.1875 
Q 44.96875 46.296875 41.140625 47.34375 
Q 37.3125 48.390625 33.40625 48.390625 
Q 24.65625 48.390625 19.8125 42.84375 
Q 14.984375 37.3125 14.984375 27.296875 
Q 14.984375 17.28125 19.8125 11.734375 
Q 24.65625 6.203125 33.40625 6.203125 
Q 37.3125 6.203125 41.140625 7.25 
Q 44.96875 8.296875 48.78125 10.40625 
L 48.78125 2.09375 
Q 45.015625 0.34375 40.984375 -0.53125 
Q 36.96875 -1.421875 32.421875 -1.421875 
Q 20.0625 -1.421875 12.78125 6.34375 
Q 5.515625 14.109375 5.515625 27.296875 
Q 5.515625 40.671875 12.859375 48.328125 
Q 20.21875 56 33.015625 56 
Q 37.15625 56 41.109375 55.140625 
Q 45.0625 54.296875 48.78125 52.59375 
z
" id="DejaVuSans-99"/>
      <path d="M 54.890625 33.015625 
L 54.890625 0 
L 45.90625 0 
L 45.90625 32.71875 
Q 45.90625 40.484375 42.875 44.328125 
Q 39.84375 48.1875 33.796875 48.1875 
Q 26.515625 48.1875 22.3125 43.546875 
Q 18.109375 38.921875 18.109375 30.90625 
L 18.109375 0 
L 9.078125 0 
L 9.078125 75.984375 
L 18.109375 75.984375 
L 18.109375 46.1875 
Q 21.34375 51.125 25.703125 53.5625 
Q 30.078125 56 35.796875 56 
Q 45.21875 56 50.046875 50.171875 
Q 54.890625 44.34375 54.890625 33.015625 
z
" id="DejaVuSans-104"/>
     </defs>
     <g transform="translate(369.632813 365.435781)scale(0.1 -0.1)">
      <use xlink:href="#DejaVuSans-69"/>
      <use x="63.183594" xlink:href="#DejaVuSans-112"/>
      <use x="126.660156" xlink:href="#DejaVuSans-111"/>
      <use x="187.841797" xlink:href="#DejaVuSans-99"/>
      <use x="242.822266" xlink:href="#DejaVuSans-104"/>
     </g>
    </g>
   </g>
   <g id="matplotlib.axis_2">
    <g id="ytick_1">
     <g id="line2d_19">
      <path clip-path="url(#pf1ef83f095)" d="M 50.14375 337.159219 
L 719.74375 337.159219 
" style="fill:none;stroke:#b0b0b0;stroke-linecap:square;stroke-width:0.8;"/>
     </g>
     <g id="line2d_20">
      <defs>
       <path d="M 0 0 
L -3.5 0 
" id="mbd2e138856" style="stroke:#000000;stroke-width:0.8;"/>
      </defs>
      <g>
       <use style="stroke:#000000;stroke-width:0.8;" x="50.14375" xlink:href="#mbd2e138856" y="337.159219"/>
      </g>
     </g>
     <g id="text_11">
      <!-- 0.82 -->
      <defs>
       <path d="M 10.6875 12.40625 
L 21 12.40625 
L 21 0 
L 10.6875 0 
z
" id="DejaVuSans-46"/>
       <path d="M 31.78125 34.625 
Q 24.75 34.625 20.71875 30.859375 
Q 16.703125 27.09375 16.703125 20.515625 
Q 16.703125 13.921875 20.71875 10.15625 
Q 24.75 6.390625 31.78125 6.390625 
Q 38.8125 6.390625 42.859375 10.171875 
Q 46.921875 13.96875 46.921875 20.515625 
Q 46.921875 27.09375 42.890625 30.859375 
Q 38.875 34.625 31.78125 34.625 
z
M 21.921875 38.8125 
Q 15.578125 40.375 12.03125 44.71875 
Q 8.5 49.078125 8.5 55.328125 
Q 8.5 64.0625 14.71875 69.140625 
Q 20.953125 74.21875 31.78125 74.21875 
Q 42.671875 74.21875 48.875 69.140625 
Q 55.078125 64.0625 55.078125 55.328125 
Q 55.078125 49.078125 51.53125 44.71875 
Q 48 40.375 41.703125 38.8125 
Q 48.828125 37.15625 52.796875 32.3125 
Q 56.78125 27.484375 56.78125 20.515625 
Q 56.78125 9.90625 50.3125 4.234375 
Q 43.84375 -1.421875 31.78125 -1.421875 
Q 19.734375 -1.421875 13.25 4.234375 
Q 6.78125 9.90625 6.78125 20.515625 
Q 6.78125 27.484375 10.78125 32.3125 
Q 14.796875 37.15625 21.921875 38.8125 
z
M 18.3125 54.390625 
Q 18.3125 48.734375 21.84375 45.5625 
Q 25.390625 42.390625 31.78125 42.390625 
Q 38.140625 42.390625 41.71875 45.5625 
Q 45.3125 48.734375 45.3125 54.390625 
Q 45.3125 60.0625 41.71875 63.234375 
Q 38.140625 66.40625 31.78125 66.40625 
Q 25.390625 66.40625 21.84375 63.234375 
Q 18.3125 60.0625 18.3125 54.390625 
z
" id="DejaVuSans-56"/>
      </defs>
      <g transform="translate(20.878125 340.958437)scale(0.1 -0.1)">
       <use xlink:href="#DejaVuSans-48"/>
       <use x="63.623047" xlink:href="#DejaVuSans-46"/>
       <use x="95.410156" xlink:href="#DejaVuSans-56"/>
       <use x="159.033203" xlink:href="#DejaVuSans-50"/>
      </g>
     </g>
    </g>
    <g id="ytick_2">
     <g id="line2d_21">
      <path clip-path="url(#pf1ef83f095)" d="M 50.14375 296.389219 
L 719.74375 296.389219 
" style="fill:none;stroke:#b0b0b0;stroke-linecap:square;stroke-width:0.8;"/>
     </g>
     <g id="line2d_22">
      <g>
       <use style="stroke:#000000;stroke-width:0.8;" x="50.14375" xlink:href="#mbd2e138856" y="296.389219"/>
      </g>
     </g>
     <g id="text_12">
      <!-- 0.84 -->
      <g transform="translate(20.878125 300.188437)scale(0.1 -0.1)">
       <use xlink:href="#DejaVuSans-48"/>
       <use x="63.623047" xlink:href="#DejaVuSans-46"/>
       <use x="95.410156" xlink:href="#DejaVuSans-56"/>
       <use x="159.033203" xlink:href="#DejaVuSans-52"/>
      </g>
     </g>
    </g>
    <g id="ytick_3">
     <g id="line2d_23">
      <path clip-path="url(#pf1ef83f095)" d="M 50.14375 255.619219 
L 719.74375 255.619219 
" style="fill:none;stroke:#b0b0b0;stroke-linecap:square;stroke-width:0.8;"/>
     </g>
     <g id="line2d_24">
      <g>
       <use style="stroke:#000000;stroke-width:0.8;" x="50.14375" xlink:href="#mbd2e138856" y="255.619219"/>
      </g>
     </g>
     <g id="text_13">
      <!-- 0.86 -->
      <defs>
       <path d="M 33.015625 40.375 
Q 26.375 40.375 22.484375 35.828125 
Q 18.609375 31.296875 18.609375 23.390625 
Q 18.609375 15.53125 22.484375 10.953125 
Q 26.375 6.390625 33.015625 6.390625 
Q 39.65625 6.390625 43.53125 10.953125 
Q 47.40625 15.53125 47.40625 23.390625 
Q 47.40625 31.296875 43.53125 35.828125 
Q 39.65625 40.375 33.015625 40.375 
z
M 52.59375 71.296875 
L 52.59375 62.3125 
Q 48.875 64.0625 45.09375 64.984375 
Q 41.3125 65.921875 37.59375 65.921875 
Q 27.828125 65.921875 22.671875 59.328125 
Q 17.53125 52.734375 16.796875 39.40625 
Q 19.671875 43.65625 24.015625 45.921875 
Q 28.375 48.1875 33.59375 48.1875 
Q 44.578125 48.1875 50.953125 41.515625 
Q 57.328125 34.859375 57.328125 23.390625 
Q 57.328125 12.15625 50.6875 5.359375 
Q 44.046875 -1.421875 33.015625 -1.421875 
Q 20.359375 -1.421875 13.671875 8.265625 
Q 6.984375 17.96875 6.984375 36.375 
Q 6.984375 53.65625 15.1875 63.9375 
Q 23.390625 74.21875 37.203125 74.21875 
Q 40.921875 74.21875 44.703125 73.484375 
Q 48.484375 72.75 52.59375 71.296875 
z
" id="DejaVuSans-54"/>
      </defs>
      <g transform="translate(20.878125 259.418437)scale(0.1 -0.1)">
       <use xlink:href="#DejaVuSans-48"/>
       <use x="63.623047" xlink:href="#DejaVuSans-46"/>
       <use x="95.410156" xlink:href="#DejaVuSans-56"/>
       <use x="159.033203" xlink:href="#DejaVuSans-54"/>
      </g>
     </g>
    </g>
    <g id="ytick_4">
     <g id="line2d_25">
      <path clip-path="url(#pf1ef83f095)" d="M 50.14375 214.849219 
L 719.74375 214.849219 
" style="fill:none;stroke:#b0b0b0;stroke-linecap:square;stroke-width:0.8;"/>
     </g>
     <g id="line2d_26">
      <g>
       <use style="stroke:#000000;stroke-width:0.8;" x="50.14375" xlink:href="#mbd2e138856" y="214.849219"/>
      </g>
     </g>
     <g id="text_14">
      <!-- 0.88 -->
      <g transform="translate(20.878125 218.648437)scale(0.1 -0.1)">
       <use xlink:href="#DejaVuSans-48"/>
       <use x="63.623047" xlink:href="#DejaVuSans-46"/>
       <use x="95.410156" xlink:href="#DejaVuSans-56"/>
       <use x="159.033203" xlink:href="#DejaVuSans-56"/>
      </g>
     </g>
    </g>
    <g id="ytick_5">
     <g id="line2d_27">
      <path clip-path="url(#pf1ef83f095)" d="M 50.14375 174.079219 
L 719.74375 174.079219 
" style="fill:none;stroke:#b0b0b0;stroke-linecap:square;stroke-width:0.8;"/>
     </g>
     <g id="line2d_28">
      <g>
       <use style="stroke:#000000;stroke-width:0.8;" x="50.14375" xlink:href="#mbd2e138856" y="174.079219"/>
      </g>
     </g>
     <g id="text_15">
      <!-- 0.90 -->
      <defs>
       <path d="M 10.984375 1.515625 
L 10.984375 10.5 
Q 14.703125 8.734375 18.5 7.8125 
Q 22.3125 6.890625 25.984375 6.890625 
Q 35.75 6.890625 40.890625 13.453125 
Q 46.046875 20.015625 46.78125 33.40625 
Q 43.953125 29.203125 39.59375 26.953125 
Q 35.25 24.703125 29.984375 24.703125 
Q 19.046875 24.703125 12.671875 31.3125 
Q 6.296875 37.9375 6.296875 49.421875 
Q 6.296875 60.640625 12.9375 67.421875 
Q 19.578125 74.21875 30.609375 74.21875 
Q 43.265625 74.21875 49.921875 64.515625 
Q 56.59375 54.828125 56.59375 36.375 
Q 56.59375 19.140625 48.40625 8.859375 
Q 40.234375 -1.421875 26.421875 -1.421875 
Q 22.703125 -1.421875 18.890625 -0.6875 
Q 15.09375 0.046875 10.984375 1.515625 
z
M 30.609375 32.421875 
Q 37.25 32.421875 41.125 36.953125 
Q 45.015625 41.5 45.015625 49.421875 
Q 45.015625 57.28125 41.125 61.84375 
Q 37.25 66.40625 30.609375 66.40625 
Q 23.96875 66.40625 20.09375 61.84375 
Q 16.21875 57.28125 16.21875 49.421875 
Q 16.21875 41.5 20.09375 36.953125 
Q 23.96875 32.421875 30.609375 32.421875 
z
" id="DejaVuSans-57"/>
      </defs>
      <g transform="translate(20.878125 177.878437)scale(0.1 -0.1)">
       <use xlink:href="#DejaVuSans-48"/>
       <use x="63.623047" xlink:href="#DejaVuSans-46"/>
       <use x="95.410156" xlink:href="#DejaVuSans-57"/>
       <use x="159.033203" xlink:href="#DejaVuSans-48"/>
      </g>
     </g>
    </g>
    <g id="ytick_6">
     <g id="line2d_29">
      <path clip-path="url(#pf1ef83f095)" d="M 50.14375 133.309219 
L 719.74375 133.309219 
" style="fill:none;stroke:#b0b0b0;stroke-linecap:square;stroke-width:0.8;"/>
     </g>
     <g id="line2d_30">
      <g>
       <use style="stroke:#000000;stroke-width:0.8;" x="50.14375" xlink:href="#mbd2e138856" y="133.309219"/>
      </g>
     </g>
     <g id="text_16">
      <!-- 0.92 -->
      <g transform="translate(20.878125 137.108437)scale(0.1 -0.1)">
       <use xlink:href="#DejaVuSans-48"/>
       <use x="63.623047" xlink:href="#DejaVuSans-46"/>
       <use x="95.410156" xlink:href="#DejaVuSans-57"/>
       <use x="159.033203" xlink:href="#DejaVuSans-50"/>
      </g>
     </g>
    </g>
    <g id="ytick_7">
     <g id="line2d_31">
      <path clip-path="url(#pf1ef83f095)" d="M 50.14375 92.539219 
L 719.74375 92.539219 
" style="fill:none;stroke:#b0b0b0;stroke-linecap:square;stroke-width:0.8;"/>
     </g>
     <g id="line2d_32">
      <g>
       <use style="stroke:#000000;stroke-width:0.8;" x="50.14375" xlink:href="#mbd2e138856" y="92.539219"/>
      </g>
     </g>
     <g id="text_17">
      <!-- 0.94 -->
      <g transform="translate(20.878125 96.338437)scale(0.1 -0.1)">
       <use xlink:href="#DejaVuSans-48"/>
       <use x="63.623047" xlink:href="#DejaVuSans-46"/>
       <use x="95.410156" xlink:href="#DejaVuSans-57"/>
       <use x="159.033203" xlink:href="#DejaVuSans-52"/>
      </g>
     </g>
    </g>
    <g id="ytick_8">
     <g id="line2d_33">
      <path clip-path="url(#pf1ef83f095)" d="M 50.14375 51.769219 
L 719.74375 51.769219 
" style="fill:none;stroke:#b0b0b0;stroke-linecap:square;stroke-width:0.8;"/>
     </g>
     <g id="line2d_34">
      <g>
       <use style="stroke:#000000;stroke-width:0.8;" x="50.14375" xlink:href="#mbd2e138856" y="51.769219"/>
      </g>
     </g>
     <g id="text_18">
      <!-- 0.96 -->
      <g transform="translate(20.878125 55.568437)scale(0.1 -0.1)">
       <use xlink:href="#DejaVuSans-48"/>
       <use x="63.623047" xlink:href="#DejaVuSans-46"/>
       <use x="95.410156" xlink:href="#DejaVuSans-57"/>
       <use x="159.033203" xlink:href="#DejaVuSans-54"/>
      </g>
     </g>
    </g>
    <g id="ytick_9">
     <g id="line2d_35">
      <path clip-path="url(#pf1ef83f095)" d="M 50.14375 10.999219 
L 719.74375 10.999219 
" style="fill:none;stroke:#b0b0b0;stroke-linecap:square;stroke-width:0.8;"/>
     </g>
     <g id="line2d_36">
      <g>
       <use style="stroke:#000000;stroke-width:0.8;" x="50.14375" xlink:href="#mbd2e138856" y="10.999219"/>
      </g>
     </g>
     <g id="text_19">
      <!-- 0.98 -->
      <g transform="translate(20.878125 14.798437)scale(0.1 -0.1)">
       <use xlink:href="#DejaVuSans-48"/>
       <use x="63.623047" xlink:href="#DejaVuSans-46"/>
       <use x="95.410156" xlink:href="#DejaVuSans-57"/>
       <use x="159.033203" xlink:href="#DejaVuSans-56"/>
      </g>
     </g>
    </g>
    <g id="text_20">
     <!-- Accuracy -->
     <defs>
      <path d="M 34.1875 63.1875 
L 20.796875 26.90625 
L 47.609375 26.90625 
z
M 28.609375 72.90625 
L 39.796875 72.90625 
L 67.578125 0 
L 57.328125 0 
L 50.6875 18.703125 
L 17.828125 18.703125 
L 11.1875 0 
L 0.78125 0 
z
" id="DejaVuSans-65"/>
      <path d="M 8.5 21.578125 
L 8.5 54.6875 
L 17.484375 54.6875 
L 17.484375 21.921875 
Q 17.484375 14.15625 20.5 10.265625 
Q 23.53125 6.390625 29.59375 6.390625 
Q 36.859375 6.390625 41.078125 11.03125 
Q 45.3125 15.671875 45.3125 23.6875 
L 45.3125 54.6875 
L 54.296875 54.6875 
L 54.296875 0 
L 45.3125 0 
L 45.3125 8.40625 
Q 42.046875 3.421875 37.71875 1 
Q 33.40625 -1.421875 27.6875 -1.421875 
Q 18.265625 -1.421875 13.375 4.4375 
Q 8.5 10.296875 8.5 21.578125 
z
M 31.109375 56 
z
" id="DejaVuSans-117"/>
      <path d="M 41.109375 46.296875 
Q 39.59375 47.171875 37.8125 47.578125 
Q 36.03125 48 33.890625 48 
Q 26.265625 48 22.1875 43.046875 
Q 18.109375 38.09375 18.109375 28.8125 
L 18.109375 0 
L 9.078125 0 
L 9.078125 54.6875 
L 18.109375 54.6875 
L 18.109375 46.1875 
Q 20.953125 51.171875 25.484375 53.578125 
Q 30.03125 56 36.53125 56 
Q 37.453125 56 38.578125 55.875 
Q 39.703125 55.765625 41.0625 55.515625 
z
" id="DejaVuSans-114"/>
      <path d="M 34.28125 27.484375 
Q 23.390625 27.484375 19.1875 25 
Q 14.984375 22.515625 14.984375 16.5 
Q 14.984375 11.71875 18.140625 8.90625 
Q 21.296875 6.109375 26.703125 6.109375 
Q 34.1875 6.109375 38.703125 11.40625 
Q 43.21875 16.703125 43.21875 25.484375 
L 43.21875 27.484375 
z
M 52.203125 31.203125 
L 52.203125 0 
L 43.21875 0 
L 43.21875 8.296875 
Q 40.140625 3.328125 35.546875 0.953125 
Q 30.953125 -1.421875 24.3125 -1.421875 
Q 15.921875 -1.421875 10.953125 3.296875 
Q 6 8.015625 6 15.921875 
Q 6 25.140625 12.171875 29.828125 
Q 18.359375 34.515625 30.609375 34.515625 
L 43.21875 34.515625 
L 43.21875 35.40625 
Q 43.21875 41.609375 39.140625 45 
Q 35.0625 48.390625 27.6875 48.390625 
Q 23 48.390625 18.546875 47.265625 
Q 14.109375 46.140625 10.015625 43.890625 
L 10.015625 52.203125 
Q 14.9375 54.109375 19.578125 55.046875 
Q 24.21875 56 28.609375 56 
Q 40.484375 56 46.34375 49.84375 
Q 52.203125 43.703125 52.203125 31.203125 
z
" id="DejaVuSans-97"/>
      <path d="M 32.171875 -5.078125 
Q 28.375 -14.84375 24.75 -17.8125 
Q 21.140625 -20.796875 15.09375 -20.796875 
L 7.90625 -20.796875 
L 7.90625 -13.28125 
L 13.1875 -13.28125 
Q 16.890625 -13.28125 18.9375 -11.515625 
Q 21 -9.765625 23.484375 -3.21875 
L 25.09375 0.875 
L 2.984375 54.6875 
L 12.5 54.6875 
L 29.59375 11.921875 
L 46.6875 54.6875 
L 56.203125 54.6875 
z
" id="DejaVuSans-121"/>
     </defs>
     <g transform="translate(14.798438 196.994062)rotate(-90)scale(0.1 -0.1)">
      <use xlink:href="#DejaVuSans-65"/>
      <use x="68.392578" xlink:href="#DejaVuSans-99"/>
      <use x="123.373047" xlink:href="#DejaVuSans-99"/>
      <use x="178.353516" xlink:href="#DejaVuSans-117"/>
      <use x="241.732422" xlink:href="#DejaVuSans-114"/>
      <use x="282.845703" xlink:href="#DejaVuSans-97"/>
      <use x="344.125" xlink:href="#DejaVuSans-99"/>
      <use x="399.105469" xlink:href="#DejaVuSans-121"/>
     </g>
    </g>
   </g>
   <g id="line2d_37">
    <path clip-path="url(#pf1ef83f095)" d="M 85.043252 375.715469 
L 86.764017 364.958548 
L 88.674515 354.619008 
L 90.585012 345.437414 
L 93.769175 331.425257 
L 96.953338 318.401545 
L 100.137501 306.296728 
L 103.321664 295.053894 
L 106.505827 284.61613 
L 109.689989 274.926522 
L 112.874152 265.928156 
L 116.058315 257.56412 
L 119.242478 249.7775 
L 122.426641 242.511383 
L 126.247636 234.398971 
L 130.068632 226.855782 
L 133.889627 219.786868 
L 137.710623 213.141672 
L 141.531618 206.900759 
L 145.352613 201.045339 
L 149.173609 195.55662 
L 152.994604 190.415811 
L 156.8156 185.604121 
L 160.636595 181.102761 
L 165.094423 176.218325 
L 169.552251 171.700865 
L 174.010079 167.520541 
L 178.467907 163.647515 
L 182.925735 160.051947 
L 188.020396 156.244192 
L 193.115056 152.715317 
L 198.846549 149.02322 
L 205.214875 145.191599 
L 213.493698 140.49844 
L 223.046187 135.344349 
L 232.598675 130.445951 
L 242.151164 125.793 
L 251.703653 121.375249 
L 261.892974 116.91068 
L 272.082295 112.689623 
L 282.271616 108.699644 
L 293.09777 104.699573 
L 303.923923 100.931413 
L 315.38691 97.177794 
L 327.486728 93.46 
L 339.586547 89.972711 
L 352.323199 86.528011 
L 366.333515 82.978198 
L 380.980664 79.502554 
L 396.264646 76.110612 
L 411.548628 72.944663 
L 427.469442 69.872123 
L 444.027089 66.903915 
L 461.221568 64.048063 
L 479.05288 61.309301 
L 498.157857 58.601929 
L 518.536499 55.942986 
L 540.825639 53.267215 
L 565.66211 50.520439 
L 594.319575 47.583217 
L 633.803195 43.781432 
L 687.933963 38.628748 
L 687.933963 38.628748 
" style="fill:none;stroke:#377eb8;stroke-linecap:square;stroke-width:2;"/>
   </g>
   <g id="line2d_38">
    <path clip-path="url(#pf1ef83f095)" d="M 81.906817 375.715469 
L 83.579854 363.833114 
L 85.490352 352.022403 
L 87.400849 341.737655 
L 89.311347 332.650305 
L 91.858677 321.828701 
L 94.406008 311.935844 
L 96.953338 302.837099 
L 99.500668 294.486419 
L 102.047999 286.837756 
L 104.595329 279.845062 
L 107.142659 273.462289 
L 109.689989 267.643389 
L 112.23732 262.342315 
L 114.78465 257.513019 
L 117.33198 253.109453 
L 119.879311 249.085568 
L 123.063473 244.51949 
L 126.247636 240.384778 
L 129.431799 236.591494 
L 133.252795 232.366068 
L 137.710623 227.785902 
L 142.16845 223.559283 
L 146.626278 219.666963 
L 151.084106 216.089692 
L 155.541934 212.808219 
L 159.999762 209.803295 
L 164.45759 207.05567 
L 168.915418 204.546093 
L 174.010079 201.944801 
L 179.10474 199.600553 
L 184.1994 197.484614 
L 189.930893 195.341306 
L 196.299219 193.206335 
L 203.304377 191.092718 
L 212.220033 188.643948 
L 223.683019 185.728152 
L 235.146006 183.035313 
L 247.245825 180.41768 
L 259.982476 177.892075 
L 273.35596 175.471038 
L 287.366276 173.162036 
L 302.650258 170.87575 
L 319.207905 168.631533 
L 337.67605 166.3581 
L 359.965189 163.847909 
L 391.806818 160.509654 
L 423.011614 157.45559 
L 451.66908 154.8752 
L 478.416048 152.690658 
L 503.252518 150.879696 
L 527.452155 149.337693 
L 551.014961 148.062072 
L 575.214598 146.973064 
L 600.687901 146.046574 
L 628.071702 145.275341 
L 657.366 144.675414 
L 687.933963 144.25924 
L 687.933963 144.25924 
" style="fill:none;stroke:#4daf4a;stroke-linecap:square;stroke-width:2;"/>
   </g>
   <g id="line2d_39">
    <path clip-path="url(#pf1ef83f095)" d="M 86.413492 375.715469 
L 86.816687 370.947328 
L 88.411163 363.914551 
L 90.005638 354.180738 
L 91.600114 347.70846 
L 93.194589 331.706252 
L 96.38354 318.150165 
L 97.978016 317.181899 
L 99.572492 306.326847 
L 101.166967 298.427746 
L 102.761443 293.178527 
L 104.355918 285.330336 
L 105.950394 284.616865 
L 107.544869 274.16958 
L 109.139345 276.717642 
L 110.73382 267.850275 
L 112.328296 266.932919 
L 113.922771 257.912579 
L 117.111722 253.478774 
L 118.706198 248.025793 
L 120.300673 246.496907 
L 121.895149 241.29872 
L 123.489625 228.507136 
L 125.0841 233.552471 
L 126.678576 230.290816 
L 128.273051 228.863872 
L 129.867527 224.073453 
L 131.462002 225.398455 
L 133.056478 219.028118 
L 134.650953 217.499232 
L 136.245429 213.116459 
L 137.839904 209.345216 
L 139.43438 212.402987 
L 141.028855 201.344173 
L 142.623331 207.102858 
L 144.217806 198.592227 
L 145.812282 203.127852 
L 147.406758 199.713345 
L 149.001233 197.725782 
L 150.595709 193.903628 
L 152.190184 191.763212 
L 153.78466 185.392876 
L 155.379135 191.202593 
L 156.973611 186.463084 
L 158.568086 182.69184 
L 160.162562 186.004406 
L 161.757037 178.869687 
L 163.351513 179.888984 
L 164.945988 178.054273 
L 166.540464 178.258157 
L 168.134939 176.168651 
L 169.729415 170.409966 
L 171.32389 170.766702 
L 172.918366 169.645462 
L 174.512842 171.734968 
L 176.107317 168.575255 
L 177.701793 165.670457 
L 179.296268 166.842485 
L 180.890744 160.676032 
L 182.485219 164.243513 
L 184.079695 154.968257 
L 185.67417 163.886777 
L 187.268646 160.930948 
L 188.863121 159.504004 
L 190.457597 153.592345 
L 192.052072 154.713463 
L 193.646548 150.993251 
L 195.241023 150.279779 
L 196.835499 150.432632 
L 200.02445 148.190274 
L 201.618926 148.903746 
L 203.213401 148.903746 
L 204.807877 151.349987 
L 206.402352 142.227705 
L 207.996828 144.062295 
L 209.591303 144.571883 
L 211.185779 141.259317 
L 212.780254 145.132503 
L 214.37473 138.048694 
L 215.969205 140.036257 
L 217.563681 138.96605 
L 219.158156 137.539106 
L 220.752632 139.271875 
L 222.347108 134.634187 
L 223.941583 134.328482 
L 225.536059 131.219801 
L 227.130534 128.365913 
L 228.72501 128.620707 
L 231.913961 133.665921 
L 233.508436 129.130295 
L 235.102912 128.518765 
L 236.697387 129.843767 
L 238.291863 131.015917 
L 239.886338 127.142732 
L 241.480814 126.276408 
L 243.075289 125.562936 
L 244.669765 120.823427 
L 246.264241 121.231073 
L 249.453192 126.327318 
L 251.047667 120.008013 
L 252.642143 115.931065 
L 254.236618 125.970582 
L 255.831094 118.020449 
L 257.425569 117.205036 
L 259.020045 121.434957 
L 260.61452 118.886773 
L 262.208996 115.421356 
L 263.803471 114.351148 
L 265.397947 114.605942 
L 266.992422 115.62524 
L 268.586898 113.89247 
L 270.181374 110.376142 
L 271.775849 116.032886 
L 273.370325 114.605942 
L 274.9648 112.006848 
L 276.559276 108.541431 
L 278.153751 109.051019 
L 279.748227 107.165397 
L 281.342702 107.675107 
L 282.937178 110.579905 
L 284.531653 108.133785 
L 286.126129 103.852953 
L 287.720604 106.350105 
L 289.31508 102.782624 
L 290.909555 104.158658 
L 292.504031 104.923161 
L 294.098507 94.781581 
L 295.692982 103.190392 
L 297.287458 102.629772 
L 298.881933 100.69324 
L 300.476409 101.9163 
L 302.070884 103.394276 
L 303.66536 99.724974 
L 305.259835 100.897124 
L 306.854311 101.508654 
L 308.448786 97.380675 
L 310.043262 96.361377 
L 311.637737 101.559564 
L 313.232213 96.972907 
L 314.826688 97.074849 
L 316.421164 92.641166 
L 318.01564 93.609431 
L 319.610115 93.762284 
L 321.204591 95.393111 
L 322.799066 100.387414 
L 325.988017 92.233398 
L 327.582493 96.055673 
L 329.176968 91.367074 
L 330.771444 93.966167 
L 332.365919 95.749847 
L 333.960395 92.692076 
L 335.55487 91.010338 
L 337.149346 92.437282 
L 338.743821 91.621868 
L 340.338297 89.430542 
L 341.932773 88.10554 
L 343.527248 86.219919 
L 345.121724 90.296866 
L 346.716199 90.50075 
L 348.310675 85.098679 
L 349.90515 88.920832 
L 351.499626 86.831448 
L 353.094101 81.276525 
L 354.688577 86.882359 
L 356.283052 84.079503 
L 357.877528 85.710209 
L 359.472003 83.111115 
L 361.066479 83.111115 
L 362.660954 87.086243 
L 364.25543 83.314999 
L 365.849905 83.416941 
L 367.444381 85.455415 
L 369.038857 78.932226 
L 370.633332 80.563054 
L 372.227808 79.18702 
L 373.822283 82.601527 
L 375.416759 77.862018 
L 377.011234 82.091939 
L 378.60571 81.276525 
L 380.200185 77.912928 
L 381.794661 77.301398 
L 383.389136 81.786114 
L 384.983612 78.065902 
L 386.578087 81.633261 
L 388.172563 79.085078 
L 389.767038 78.422638 
L 391.361514 77.607224 
L 392.95599 75.313835 
L 394.550465 77.250488 
L 396.144941 78.116812 
L 397.739416 76.027428 
L 399.333892 77.862018 
L 400.928367 72.612921 
L 402.522843 76.333132 
L 404.117318 76.689868 
L 405.711794 70.064738 
L 407.306269 75.466808 
L 408.900745 71.338829 
L 410.49522 71.848417 
L 412.089696 71.236887 
L 413.684171 71.185977 
L 415.278647 76.129249 
L 416.873123 71.950359 
L 418.467598 72.714863 
L 420.062074 70.268621 
L 421.656549 69.504118 
L 423.251025 69.657091 
L 424.8455 71.695565 
L 426.439976 67.975354 
L 428.034451 63.796343 
L 429.628927 67.720438 
L 431.223402 68.688826 
L 432.817878 70.625357 
L 434.412353 67.924322 
L 436.006829 66.293494 
L 437.601304 69.962796 
L 439.19578 70.421474 
L 440.790256 67.414734 
L 442.384731 68.99453 
L 443.979207 63.133903 
L 445.573682 64.611757 
L 447.168158 65.936758 
L 448.762633 68.383 
L 450.357109 64.509815 
L 451.951584 64.968492 
L 453.54606 68.230148 
L 455.140535 60.381835 
L 456.735011 67.669528 
L 458.329486 69.453208 
L 459.923962 65.631054 
L 461.518437 65.42717 
L 463.112913 67.414734 
L 464.707389 65.98779 
L 466.301864 63.082871 
L 467.89634 65.580022 
L 469.490815 62.267457 
L 471.085291 63.133903 
L 472.679766 62.522251 
L 474.274242 64.102168 
L 475.868717 59.260717 
L 477.463193 65.325228 
L 479.057668 64.102168 
L 480.652144 60.534809 
L 482.246619 61.910721 
L 483.841095 58.394393 
L 485.43557 61.350223 
L 487.030046 60.687661 
L 488.624522 65.019524 
L 490.218997 60.738571 
L 491.813473 59.260717 
L 493.407948 56.763566 
L 495.002424 62.114605 
L 496.596899 59.107865 
L 498.191375 57.01836 
L 499.78585 59.056834 
L 501.380326 60.840513 
L 502.974801 57.01836 
L 504.569277 60.280015 
L 506.163752 52.83947 
L 507.758228 61.248281 
L 509.352703 58.088568 
L 510.947179 53.909678 
L 512.541655 56.763566 
L 514.13613 55.030796 
L 515.730606 56.45774 
L 517.325081 58.139478 
L 518.919557 60.432867 
L 520.514032 57.273154 
L 522.108508 55.030796 
L 523.702983 55.438564 
L 525.297459 52.329761 
L 526.891934 51.157611 
L 528.48641 54.826912 
L 530.080885 54.164472 
L 531.675361 54.419266 
L 533.269836 50.648023 
L 534.864312 49.934551 
L 536.458788 54.419266 
L 538.053263 52.176909 
L 539.647739 52.22794 
L 541.242214 55.28559 
L 542.83669 53.196206 
L 544.431165 53.552942 
L 546.025641 53.451 
L 549.214592 54.06253 
L 550.809067 51.463437 
L 552.403543 52.788439 
L 553.998018 50.291287 
L 555.592494 52.635586 
L 557.186969 53.145175 
L 558.781445 50.800875 
L 560.37592 49.985583 
L 561.970396 48.507607 
L 563.564872 47.998019 
L 565.159347 51.616289 
L 566.753823 50.597113 
L 568.348298 47.590252 
L 569.942774 47.845046 
L 571.537249 54.368356 
L 573.131725 49.781699 
L 574.7262 52.125998 
L 576.320676 50.189345 
L 577.915151 47.284547 
L 579.509627 50.342319 
L 581.104102 48.711491 
L 582.698578 44.43066 
L 584.293053 51.565379 
L 585.887529 48.456697 
L 587.482005 43.462272 
L 589.07648 48.660459 
L 592.265431 47.48831 
L 593.859907 46.214339 
L 595.454382 46.061366 
L 598.643333 47.590252 
L 600.237809 47.284547 
L 601.832284 49.068227 
L 603.42676 43.615246 
L 605.021235 45.449836 
L 606.615711 43.819008 
L 608.210186 45.755662 
L 609.804662 43.768098 
L 611.399138 46.825869 
L 612.993613 44.736364 
L 614.588089 44.634422 
L 616.182564 42.69789 
L 617.77704 46.418102 
L 619.371515 47.386489 
L 620.965991 43.971982 
L 622.560466 43.25851 
L 624.154942 46.571075 
L 625.749417 43.462272 
L 627.343893 43.92095 
L 628.938368 44.022892 
L 630.532844 43.411362 
L 632.127319 44.787396 
L 633.721795 40.455533 
L 635.316271 42.901774 
L 636.910746 41.016152 
L 638.505222 43.25851 
L 640.099697 47.233516 
L 641.694173 45.755662 
L 643.288648 43.360452 
L 644.883124 44.736364 
L 646.477599 45.500868 
L 648.072075 43.105536 
L 649.66655 38.519001 
L 651.261026 42.290244 
L 652.855501 41.47483 
L 654.449977 45.755662 
L 656.044452 41.831566 
L 657.638928 42.545038 
L 659.233404 44.787396 
L 660.827879 41.729624 
L 662.422355 37.041025 
L 664.01683 41.423799 
L 665.611306 41.067063 
L 667.205781 39.742061 
L 668.800257 42.901774 
L 670.394732 43.360452 
L 671.989208 40.914211 
L 673.583683 40.608385 
L 675.178159 36.786231 
L 676.772634 37.856439 
L 678.36711 40.455533 
L 679.961585 37.550735 
L 681.556061 38.417059 
L 683.150537 39.589209 
L 684.745012 40.200739 
L 686.339488 40.404622 
L 687.933963 37.550735 
L 687.933963 37.550735 
" style="fill:none;stroke:#377eb8;stroke-linecap:square;stroke-opacity:0.25098;stroke-width:1.5;"/>
   </g>
   <g id="line2d_40">
    <path clip-path="url(#pf1ef83f095)" d="M 83.233105 375.715469 
L 83.627736 363.73193 
L 85.222212 368.860981 
L 86.816687 353.884147 
L 88.411163 324.956094 
L 90.005638 343.215604 
L 91.600114 313.877353 
L 93.194589 310.594677 
L 94.789065 313.467034 
L 96.38354 317.365127 
L 97.978016 293.771346 
L 99.572492 301.567533 
L 101.166967 275.511836 
L 102.761443 280.025469 
L 104.355918 266.89501 
L 105.950394 271.408522 
L 107.544869 262.996917 
L 109.139345 280.846107 
L 110.73382 267.305329 
L 112.328296 249.045819 
L 113.922771 239.608355 
L 115.517247 280.435788 
L 117.111722 252.738693 
L 118.706198 240.018675 
L 120.300673 256.842007 
L 121.895149 248.840599 
L 123.489625 268.536287 
L 125.0841 246.789003 
L 126.678576 228.324273 
L 128.273051 239.403135 
L 129.867527 219.912668 
L 131.462002 234.068864 
L 133.056478 239.608355 
L 134.650953 230.581089 
L 136.245429 213.962856 
L 137.839904 226.477897 
L 139.43438 236.5309 
L 141.028855 220.938405 
L 142.623331 225.657258 
L 144.217806 217.450631 
L 145.812282 225.862357 
L 147.406758 241.659952 
L 149.001233 226.888216 
L 150.595709 198.165383 
L 152.190184 208.628706 
L 153.78466 216.014574 
L 155.379135 215.193936 
L 156.973611 209.654444 
L 158.568086 216.014574 
L 160.162562 221.553944 
L 161.757037 198.370482 
L 163.351513 196.934426 
L 166.540464 208.013167 
L 168.134939 197.139524 
L 169.729415 196.729205 
L 171.32389 210.680302 
L 172.918366 194.472389 
L 174.512842 212.321579 
L 176.107317 205.551251 
L 177.701793 201.858256 
L 179.296268 199.396341 
L 180.890744 194.472389 
L 182.485219 195.498248 
L 184.079695 201.858256 
L 185.67417 189.548558 
L 187.268646 190.574295 
L 188.863121 201.242838 
L 190.457597 202.884115 
L 192.052072 180.521292 
L 193.646548 190.369196 
L 195.241023 179.495554 
L 196.835499 192.215572 
L 198.429975 194.472389 
L 200.02445 203.089214 
L 201.618926 201.447937 
L 203.213401 179.905873 
L 204.807877 206.37189 
L 206.402352 186.676202 
L 207.996828 198.780801 
L 209.591303 199.396341 
L 211.185779 177.649057 
L 212.780254 193.856971 
L 214.37473 182.367789 
L 215.969205 186.676202 
L 217.563681 196.524106 
L 219.158156 195.908567 
L 220.752632 173.340644 
L 222.347108 184.419385 
L 223.941583 196.524106 
L 225.536059 180.316193 
L 227.130534 197.960163 
L 228.72501 190.369196 
L 230.319485 192.215572 
L 231.913961 180.316193 
L 233.508436 179.085235 
L 235.102912 187.086521 
L 236.697387 176.00778 
L 239.886338 193.446651 
L 241.480814 180.726512 
L 243.075289 180.521292 
L 244.669765 181.95747 
L 246.264241 172.930325 
L 247.858716 181.54715 
L 249.453192 182.573009 
L 251.047667 166.980635 
L 252.642143 182.778108 
L 254.236618 168.827011 
L 255.831094 178.674916 
L 257.425569 170.263189 
L 259.020045 176.828418 
L 260.61452 175.80256 
L 262.208996 178.264596 
L 263.803471 185.445244 
L 265.397947 178.674916 
L 266.992422 175.39224 
L 268.586898 190.163976 
L 270.181374 177.854277 
L 271.775849 169.23733 
L 273.370325 178.059376 
L 274.9648 171.083828 
L 276.559276 169.032231 
L 278.153751 179.085235 
L 279.748227 166.980635 
L 281.342702 169.032231 
L 282.937178 173.956062 
L 284.531653 170.673508 
L 286.126129 180.110972 
L 287.720604 185.240145 
L 289.31508 172.930325 
L 290.909555 180.726512 
L 292.504031 170.878729 
L 294.098507 165.954776 
L 295.692982 170.673508 
L 297.287458 171.289048 
L 298.881933 177.238738 
L 300.476409 174.366503 
L 302.070884 172.159989 
L 303.66536 162.056683 
L 305.259835 168.006373 
L 306.854311 167.801274 
L 308.448786 171.083828 
L 310.043262 176.623198 
L 311.637737 167.390954 
L 313.232213 174.571602 
L 314.826688 174.161283 
L 316.421164 172.725105 
L 318.01564 148.926224 
L 319.610115 170.878729 
L 321.204591 160.825725 
L 322.799066 167.596053 
L 324.393542 166.980635 
L 325.988017 165.339237 
L 327.582493 167.185734 
L 329.176968 166.775415 
L 330.771444 174.776822 
L 332.365919 161.030824 
L 333.960395 167.390954 
L 335.55487 162.467002 
L 337.149346 168.416692 
L 338.743821 170.468409 
L 340.338297 159.184327 
L 341.932773 168.827011 
L 343.527248 165.339237 
L 345.121724 172.930325 
L 346.716199 156.517312 
L 348.310675 153.234637 
L 349.90515 160.825725 
L 351.499626 167.801274 
L 353.094101 161.851462 
L 354.688577 165.954776 
L 356.283052 157.953369 
L 357.877528 150.772721 
L 359.472003 158.774007 
L 361.066479 149.336543 
L 362.660954 161.851462 
L 364.25543 158.979228 
L 365.849905 158.363688 
L 367.444381 161.236044 
L 369.038857 165.134138 
L 370.633332 154.055275 
L 372.227808 161.441143 
L 373.822283 162.877321 
L 375.416759 167.185734 
L 377.011234 163.90318 
L 378.60571 162.261782 
L 380.200185 155.081134 
L 381.794661 173.135424 
L 383.389136 165.544457 
L 384.983612 165.134138 
L 386.578087 157.953369 
L 388.172563 162.056683 
L 389.767038 159.594767 
L 391.361514 160.620505 
L 392.95599 168.416692 
L 394.550465 154.055275 
L 396.144941 154.055275 
L 397.739416 176.418099 
L 399.333892 155.081134 
L 400.928367 163.90318 
L 402.522843 185.855563 
L 404.117318 148.721125 
L 405.711794 164.518598 
L 407.306269 169.442551 
L 408.900745 163.492861 
L 410.49522 169.647649 
L 412.089696 168.416692 
L 413.684171 164.313499 
L 415.278647 161.236044 
L 416.873123 162.672101 
L 418.467598 162.877321 
L 420.062074 166.159875 
L 421.656549 150.772721 
L 423.251025 158.979228 
L 424.8455 151.38814 
L 426.439976 158.158589 
L 428.034451 158.979228 
L 429.628927 165.954776 
L 431.223402 154.670815 
L 432.817878 165.339237 
L 434.412353 141.950676 
L 436.006829 172.930325 
L 437.601304 150.362402 
L 439.19578 153.234637 
L 440.790256 156.517312 
L 442.384731 151.183041 
L 443.979207 157.337951 
L 445.573682 162.056683 
L 447.168158 145.43845 
L 448.762633 146.464309 
L 450.357109 147.695266 
L 451.951584 158.979228 
L 453.54606 160.005087 
L 455.140535 148.105586 
L 456.735011 147.490046 
L 458.329486 160.005087 
L 459.923962 150.97782 
L 461.518437 148.721125 
L 463.112913 163.90318 
L 464.707389 156.312092 
L 466.301864 154.260496 
L 467.89634 157.74827 
L 469.490815 145.233351 
L 471.085291 148.721125 
L 472.679766 154.260496 
L 474.274242 161.441143 
L 475.868717 143.797173 
L 477.463193 147.284947 
L 479.057668 145.028131 
L 480.652144 154.260496 
L 482.246619 143.386854 
L 483.841095 156.722411 
L 485.43557 151.59336 
L 487.030046 160.005087 
L 488.624522 144.617811 
L 490.218997 148.926224 
L 491.813473 150.567501 
L 493.407948 154.875914 
L 495.002424 148.310685 
L 496.596899 156.312092 
L 498.191375 146.053989 
L 499.78585 153.234637 
L 501.380326 154.055275 
L 502.974801 148.721125 
L 504.569277 145.233351 
L 506.163752 154.260496 
L 507.758228 147.695266 
L 509.352703 149.131445 
L 510.947179 151.183041 
L 512.541655 143.797173 
L 514.13613 151.59336 
L 515.730606 158.568909 
L 517.325081 144.207492 
L 518.919557 150.567501 
L 520.514032 151.59336 
L 522.108508 139.078441 
L 523.702983 153.644956 
L 525.297459 147.900365 
L 528.48641 144.617811 
L 530.080885 149.131445 
L 531.675361 151.38814 
L 533.269836 146.053989 
L 534.864312 142.155896 
L 536.458788 152.003679 
L 538.053263 151.38814 
L 539.647739 158.774007 
L 541.242214 153.029538 
L 542.83669 146.053989 
L 544.431165 147.900365 
L 546.025641 150.567501 
L 547.620116 145.848769 
L 549.214592 148.515905 
L 550.809067 153.029538 
L 552.403543 151.538076 
L 553.998018 148.310685 
L 555.592494 149.336543 
L 557.186969 152.413998 
L 558.781445 153.850177 
L 560.37592 145.028131 
L 561.970396 143.386854 
L 563.564872 156.106993 
L 565.159347 148.310685 
L 566.753823 148.515905 
L 568.348298 145.43845 
L 569.942774 144.207492 
L 571.537249 141.335257 
L 573.131725 144.002272 
L 574.7262 143.591953 
L 576.320676 142.771314 
L 577.915151 145.64367 
L 579.509627 146.053989 
L 581.104102 148.721125 
L 582.698578 150.97782 
L 584.293053 144.002272 
L 585.887529 146.464309 
L 587.482005 136.821624 
L 589.07648 149.746863 
L 590.670956 143.591953 
L 592.265431 142.360995 
L 593.859907 140.719718 
L 595.454382 155.491453 
L 597.048858 141.335257 
L 598.643333 156.517312 
L 600.237809 147.695266 
L 601.832284 137.847483 
L 603.42676 155.491453 
L 605.021235 144.002272 
L 606.615711 148.926224 
L 608.210186 146.669408 
L 609.804662 149.746863 
L 611.399138 148.926224 
L 612.993613 155.081134 
L 614.588089 151.798459 
L 616.182564 150.97782 
L 617.77704 138.052582 
L 619.371515 146.053989 
L 620.965991 146.053989 
L 622.560466 137.026723 
L 624.154942 142.771314 
L 625.749417 136.206085 
L 627.343893 141.950676 
L 628.938368 145.028131 
L 630.532844 139.693859 
L 632.127319 137.437042 
L 633.721795 147.490046 
L 635.316271 145.028131 
L 636.910746 150.567501 
L 638.505222 136.821624 
L 640.099697 148.926224 
L 641.694173 145.028131 
L 643.288648 147.695266 
L 644.883124 136.411305 
L 646.477599 155.901773 
L 648.072075 143.386854 
L 649.66655 139.693859 
L 651.261026 149.541764 
L 652.855501 145.848769 
L 654.449977 144.82291 
L 656.044452 147.695266 
L 657.638928 136.821624 
L 659.233404 147.079727 
L 660.827879 149.541764 
L 662.422355 156.927632 
L 664.01683 144.412591 
L 665.611306 148.310685 
L 667.205781 146.464309 
L 668.800257 136.000986 
L 670.394732 144.82291 
L 671.989208 147.490046 
L 673.583683 141.540356 
L 675.178159 149.131445 
L 676.772634 145.233351 
L 678.36711 131.897672 
L 679.961585 151.183041 
L 681.556061 143.591953 
L 683.150537 151.183041 
L 684.745012 143.386854 
L 686.339488 140.924817 
L 687.933963 138.052582 
L 687.933963 138.052582 
" style="fill:none;stroke:#4daf4a;stroke-linecap:square;stroke-opacity:0.25098;stroke-width:1.5;"/>
   </g>
   <g id="patch_3">
    <path d="M 50.14375 337.159219 
L 50.14375 10.999219 
" style="fill:none;stroke:#000000;stroke-linecap:square;stroke-linejoin:miter;stroke-width:0.8;"/>
   </g>
   <g id="patch_4">
    <path d="M 719.74375 337.159219 
L 719.74375 10.999219 
" style="fill:none;stroke:#000000;stroke-linecap:square;stroke-linejoin:miter;stroke-width:0.8;"/>
   </g>
   <g id="patch_5">
    <path d="M 50.14375 337.159219 
L 719.74375 337.159219 
" style="fill:none;stroke:#000000;stroke-linecap:square;stroke-linejoin:miter;stroke-width:0.8;"/>
   </g>
   <g id="patch_6">
    <path d="M 50.14375 10.999219 
L 719.74375 10.999219 
" style="fill:none;stroke:#000000;stroke-linecap:square;stroke-linejoin:miter;stroke-width:0.8;"/>
   </g>
   <g id="legend_1">
    <g id="patch_7">
     <path d="M 57.14375 48.355469 
L 114.584375 48.355469 
Q 116.584375 48.355469 116.584375 46.355469 
L 116.584375 17.999219 
Q 116.584375 15.999219 114.584375 15.999219 
L 57.14375 15.999219 
Q 55.14375 15.999219 55.14375 17.999219 
L 55.14375 46.355469 
Q 55.14375 48.355469 57.14375 48.355469 
z
" style="fill:#ffffff;opacity:0.8;stroke:#cccccc;stroke-linejoin:miter;"/>
    </g>
    <g id="line2d_41">
     <path d="M 59.14375 24.097656 
L 79.14375 24.097656 
" style="fill:none;stroke:#377eb8;stroke-linecap:square;stroke-width:2;"/>
    </g>
    <g id="line2d_42"/>
    <g id="text_21">
     <!-- Train -->
     <defs>
      <path d="M -0.296875 72.90625 
L 61.375 72.90625 
L 61.375 64.59375 
L 35.5 64.59375 
L 35.5 0 
L 25.59375 0 
L 25.59375 64.59375 
L -0.296875 64.59375 
z
" id="DejaVuSans-84"/>
      <path d="M 9.421875 54.6875 
L 18.40625 54.6875 
L 18.40625 0 
L 9.421875 0 
z
M 9.421875 75.984375 
L 18.40625 75.984375 
L 18.40625 64.59375 
L 9.421875 64.59375 
z
" id="DejaVuSans-105"/>
      <path d="M 54.890625 33.015625 
L 54.890625 0 
L 45.90625 0 
L 45.90625 32.71875 
Q 45.90625 40.484375 42.875 44.328125 
Q 39.84375 48.1875 33.796875 48.1875 
Q 26.515625 48.1875 22.3125 43.546875 
Q 18.109375 38.921875 18.109375 30.90625 
L 18.109375 0 
L 9.078125 0 
L 9.078125 54.6875 
L 18.109375 54.6875 
L 18.109375 46.1875 
Q 21.34375 51.125 25.703125 53.5625 
Q 30.078125 56 35.796875 56 
Q 45.21875 56 50.046875 50.171875 
Q 54.890625 44.34375 54.890625 33.015625 
z
" id="DejaVuSans-110"/>
     </defs>
     <g transform="translate(87.14375 27.597656)scale(0.1 -0.1)">
      <use xlink:href="#DejaVuSans-84"/>
      <use x="60.865234" xlink:href="#DejaVuSans-114"/>
      <use x="101.978516" xlink:href="#DejaVuSans-97"/>
      <use x="163.257812" xlink:href="#DejaVuSans-105"/>
      <use x="191.041016" xlink:href="#DejaVuSans-110"/>
     </g>
    </g>
    <g id="line2d_43">
     <path d="M 59.14375 38.775781 
L 79.14375 38.775781 
" style="fill:none;stroke:#4daf4a;stroke-linecap:square;stroke-width:2;"/>
    </g>
    <g id="line2d_44"/>
    <g id="text_22">
     <!-- Test -->
     <defs>
      <path d="M 56.203125 29.59375 
L 56.203125 25.203125 
L 14.890625 25.203125 
Q 15.484375 15.921875 20.484375 11.0625 
Q 25.484375 6.203125 34.421875 6.203125 
Q 39.59375 6.203125 44.453125 7.46875 
Q 49.3125 8.734375 54.109375 11.28125 
L 54.109375 2.78125 
Q 49.265625 0.734375 44.1875 -0.34375 
Q 39.109375 -1.421875 33.890625 -1.421875 
Q 20.796875 -1.421875 13.15625 6.1875 
Q 5.515625 13.8125 5.515625 26.8125 
Q 5.515625 40.234375 12.765625 48.109375 
Q 20.015625 56 32.328125 56 
Q 43.359375 56 49.78125 48.890625 
Q 56.203125 41.796875 56.203125 29.59375 
z
M 47.21875 32.234375 
Q 47.125 39.59375 43.09375 43.984375 
Q 39.0625 48.390625 32.421875 48.390625 
Q 24.90625 48.390625 20.390625 44.140625 
Q 15.875 39.890625 15.1875 32.171875 
z
" id="DejaVuSans-101"/>
      <path d="M 44.28125 53.078125 
L 44.28125 44.578125 
Q 40.484375 46.53125 36.375 47.5 
Q 32.28125 48.484375 27.875 48.484375 
Q 21.1875 48.484375 17.84375 46.4375 
Q 14.5 44.390625 14.5 40.28125 
Q 14.5 37.15625 16.890625 35.375 
Q 19.28125 33.59375 26.515625 31.984375 
L 29.59375 31.296875 
Q 39.15625 29.25 43.1875 25.515625 
Q 47.21875 21.78125 47.21875 15.09375 
Q 47.21875 7.46875 41.1875 3.015625 
Q 35.15625 -1.421875 24.609375 -1.421875 
Q 20.21875 -1.421875 15.453125 -0.5625 
Q 10.6875 0.296875 5.421875 2 
L 5.421875 11.28125 
Q 10.40625 8.6875 15.234375 7.390625 
Q 20.0625 6.109375 24.8125 6.109375 
Q 31.15625 6.109375 34.5625 8.28125 
Q 37.984375 10.453125 37.984375 14.40625 
Q 37.984375 18.0625 35.515625 20.015625 
Q 33.0625 21.96875 24.703125 23.78125 
L 21.578125 24.515625 
Q 13.234375 26.265625 9.515625 29.90625 
Q 5.8125 33.546875 5.8125 39.890625 
Q 5.8125 47.609375 11.28125 51.796875 
Q 16.75 56 26.8125 56 
Q 31.78125 56 36.171875 55.265625 
Q 40.578125 54.546875 44.28125 53.078125 
z
" id="DejaVuSans-115"/>
      <path d="M 18.3125 70.21875 
L 18.3125 54.6875 
L 36.8125 54.6875 
L 36.8125 47.703125 
L 18.3125 47.703125 
L 18.3125 18.015625 
Q 18.3125 11.328125 20.140625 9.421875 
Q 21.96875 7.515625 27.59375 7.515625 
L 36.8125 7.515625 
L 36.8125 0 
L 27.59375 0 
Q 17.1875 0 13.234375 3.875 
Q 9.28125 7.765625 9.28125 18.015625 
L 9.28125 47.703125 
L 2.6875 47.703125 
L 2.6875 54.6875 
L 9.28125 54.6875 
L 9.28125 70.21875 
z
" id="DejaVuSans-116"/>
     </defs>
     <g transform="translate(87.14375 42.275781)scale(0.1 -0.1)">
      <use xlink:href="#DejaVuSans-84"/>
      <use x="60.818359" xlink:href="#DejaVuSans-101"/>
      <use x="122.341797" xlink:href="#DejaVuSans-115"/>
      <use x="174.441406" xlink:href="#DejaVuSans-116"/>
     </g>
    </g>
   </g>
  </g>
 </g>
 <defs>
  <clipPath id="pf1ef83f095">
   <rect height="326.16" width="669.6" x="50.14375" y="10.999219"/>
  </clipPath>
 </defs>
</svg>
