<?xml version="1.0" encoding="utf-8" standalone="no"?>
<!DOCTYPE svg PUBLIC "-//W3C//DTD SVG 1.1//EN"
  "http://www.w3.org/Graphics/SVG/1.1/DTD/svg11.dtd">
<!-- Created with matplotlib (https://matplotlib.org/) -->
<svg height="374.715469pt" version="1.1" viewBox="0 0 726.94375 374.715469" width="726.94375pt" xmlns="http://www.w3.org/2000/svg" xmlns:xlink="http://www.w3.org/1999/xlink">
 <defs>
  <style type="text/css">
*{stroke-linecap:butt;stroke-linejoin:round;white-space:pre;}
  </style>
 </defs>
 <g id="figure_1">
  <g id="patch_1">
   <path d="M 0 374.715469 
L 726.94375 374.715469 
L 726.94375 0 
L 0 0 
z
" style="fill:#ffffff;"/>
  </g>
  <g id="axes_1">
   <g id="patch_2">
    <path d="M 50.14375 337.159219 
L 719.74375 337.159219 
L 719.74375 10.999219 
L 50.14375 10.999219 
z
" style="fill:#ffffff;"/>
   </g>
   <g id="matplotlib.axis_1">
    <g id="xtick_1">
     <g id="line2d_1">
      <path clip-path="url(#pead715ada6)" d="M 50.14375 337.159219 
L 50.14375 10.999219 
" style="fill:none;stroke:#b0b0b0;stroke-linecap:square;stroke-width:0.8;"/>
     </g>
     <g id="line2d_2">
      <defs>
       <path d="M 0 0 
L 0 3.5 
" id="m7c15fc9856" style="stroke:#000000;stroke-width:0.8;"/>
      </defs>
      <g>
       <use style="stroke:#000000;stroke-width:0.8;" x="50.14375" xlink:href="#m7c15fc9856" y="337.159219"/>
      </g>
     </g>
     <g id="text_1">
      <!-- 0 -->
      <defs>
       <path d="M 31.78125 66.40625 
Q 24.171875 66.40625 20.328125 58.90625 
Q 16.5 51.421875 16.5 36.375 
Q 16.5 21.390625 20.328125 13.890625 
Q 24.171875 6.390625 31.78125 6.390625 
Q 39.453125 6.390625 43.28125 13.890625 
Q 47.125 21.390625 47.125 36.375 
Q 47.125 51.421875 43.28125 58.90625 
Q 39.453125 66.40625 31.78125 66.40625 
z
M 31.78125 74.21875 
Q 44.046875 74.21875 50.515625 64.515625 
Q 56.984375 54.828125 56.984375 36.375 
Q 56.984375 17.96875 50.515625 8.265625 
Q 44.046875 -1.421875 31.78125 -1.421875 
Q 19.53125 -1.421875 13.0625 8.265625 
Q 6.59375 17.96875 6.59375 36.375 
Q 6.59375 54.828125 13.0625 64.515625 
Q 19.53125 74.21875 31.78125 74.21875 
z
" id="DejaVuSans-48"/>
      </defs>
      <g transform="translate(46.9625 351.757656)scale(0.1 -0.1)">
       <use xlink:href="#DejaVuSans-48"/>
      </g>
     </g>
    </g>
    <g id="xtick_2">
     <g id="line2d_3">
      <path clip-path="url(#pead715ada6)" d="M 129.867527 337.159219 
L 129.867527 10.999219 
" style="fill:none;stroke:#b0b0b0;stroke-linecap:square;stroke-width:0.8;"/>
     </g>
     <g id="line2d_4">
      <g>
       <use style="stroke:#000000;stroke-width:0.8;" x="129.867527" xlink:href="#m7c15fc9856" y="337.159219"/>
      </g>
     </g>
     <g id="text_2">
      <!-- 50 -->
      <defs>
       <path d="M 10.796875 72.90625 
L 49.515625 72.90625 
L 49.515625 64.59375 
L 19.828125 64.59375 
L 19.828125 46.734375 
Q 21.96875 47.46875 24.109375 47.828125 
Q 26.265625 48.1875 28.421875 48.1875 
Q 40.625 48.1875 47.75 41.5 
Q 54.890625 34.8125 54.890625 23.390625 
Q 54.890625 11.625 47.5625 5.09375 
Q 40.234375 -1.421875 26.90625 -1.421875 
Q 22.3125 -1.421875 17.546875 -0.640625 
Q 12.796875 0.140625 7.71875 1.703125 
L 7.71875 11.625 
Q 12.109375 9.234375 16.796875 8.0625 
Q 21.484375 6.890625 26.703125 6.890625 
Q 35.15625 6.890625 40.078125 11.328125 
Q 45.015625 15.765625 45.015625 23.390625 
Q 45.015625 31 40.078125 35.4375 
Q 35.15625 39.890625 26.703125 39.890625 
Q 22.75 39.890625 18.8125 39.015625 
Q 14.890625 38.140625 10.796875 36.28125 
z
" id="DejaVuSans-53"/>
      </defs>
      <g transform="translate(123.505027 351.757656)scale(0.1 -0.1)">
       <use xlink:href="#DejaVuSans-53"/>
       <use x="63.623047" xlink:href="#DejaVuSans-48"/>
      </g>
     </g>
    </g>
    <g id="xtick_3">
     <g id="line2d_5">
      <path clip-path="url(#pead715ada6)" d="M 209.591303 337.159219 
L 209.591303 10.999219 
" style="fill:none;stroke:#b0b0b0;stroke-linecap:square;stroke-width:0.8;"/>
     </g>
     <g id="line2d_6">
      <g>
       <use style="stroke:#000000;stroke-width:0.8;" x="209.591303" xlink:href="#m7c15fc9856" y="337.159219"/>
      </g>
     </g>
     <g id="text_3">
      <!-- 100 -->
      <defs>
       <path d="M 12.40625 8.296875 
L 28.515625 8.296875 
L 28.515625 63.921875 
L 10.984375 60.40625 
L 10.984375 69.390625 
L 28.421875 72.90625 
L 38.28125 72.90625 
L 38.28125 8.296875 
L 54.390625 8.296875 
L 54.390625 0 
L 12.40625 0 
z
" id="DejaVuSans-49"/>
      </defs>
      <g transform="translate(200.047553 351.757656)scale(0.1 -0.1)">
       <use xlink:href="#DejaVuSans-49"/>
       <use x="63.623047" xlink:href="#DejaVuSans-48"/>
       <use x="127.246094" xlink:href="#DejaVuSans-48"/>
      </g>
     </g>
    </g>
    <g id="xtick_4">
     <g id="line2d_7">
      <path clip-path="url(#pead715ada6)" d="M 289.31508 337.159219 
L 289.31508 10.999219 
" style="fill:none;stroke:#b0b0b0;stroke-linecap:square;stroke-width:0.8;"/>
     </g>
     <g id="line2d_8">
      <g>
       <use style="stroke:#000000;stroke-width:0.8;" x="289.31508" xlink:href="#m7c15fc9856" y="337.159219"/>
      </g>
     </g>
     <g id="text_4">
      <!-- 150 -->
      <g transform="translate(279.77133 351.757656)scale(0.1 -0.1)">
       <use xlink:href="#DejaVuSans-49"/>
       <use x="63.623047" xlink:href="#DejaVuSans-53"/>
       <use x="127.246094" xlink:href="#DejaVuSans-48"/>
      </g>
     </g>
    </g>
    <g id="xtick_5">
     <g id="line2d_9">
      <path clip-path="url(#pead715ada6)" d="M 369.038857 337.159219 
L 369.038857 10.999219 
" style="fill:none;stroke:#b0b0b0;stroke-linecap:square;stroke-width:0.8;"/>
     </g>
     <g id="line2d_10">
      <g>
       <use style="stroke:#000000;stroke-width:0.8;" x="369.038857" xlink:href="#m7c15fc9856" y="337.159219"/>
      </g>
     </g>
     <g id="text_5">
      <!-- 200 -->
      <defs>
       <path d="M 19.1875 8.296875 
L 53.609375 8.296875 
L 53.609375 0 
L 7.328125 0 
L 7.328125 8.296875 
Q 12.9375 14.109375 22.625 23.890625 
Q 32.328125 33.6875 34.8125 36.53125 
Q 39.546875 41.84375 41.421875 45.53125 
Q 43.3125 49.21875 43.3125 52.78125 
Q 43.3125 58.59375 39.234375 62.25 
Q 35.15625 65.921875 28.609375 65.921875 
Q 23.96875 65.921875 18.8125 64.3125 
Q 13.671875 62.703125 7.8125 59.421875 
L 7.8125 69.390625 
Q 13.765625 71.78125 18.9375 73 
Q 24.125 74.21875 28.421875 74.21875 
Q 39.75 74.21875 46.484375 68.546875 
Q 53.21875 62.890625 53.21875 53.421875 
Q 53.21875 48.921875 51.53125 44.890625 
Q 49.859375 40.875 45.40625 35.40625 
Q 44.1875 33.984375 37.640625 27.21875 
Q 31.109375 20.453125 19.1875 8.296875 
z
" id="DejaVuSans-50"/>
      </defs>
      <g transform="translate(359.495107 351.757656)scale(0.1 -0.1)">
       <use xlink:href="#DejaVuSans-50"/>
       <use x="63.623047" xlink:href="#DejaVuSans-48"/>
       <use x="127.246094" xlink:href="#DejaVuSans-48"/>
      </g>
     </g>
    </g>
    <g id="xtick_6">
     <g id="line2d_11">
      <path clip-path="url(#pead715ada6)" d="M 448.762633 337.159219 
L 448.762633 10.999219 
" style="fill:none;stroke:#b0b0b0;stroke-linecap:square;stroke-width:0.8;"/>
     </g>
     <g id="line2d_12">
      <g>
       <use style="stroke:#000000;stroke-width:0.8;" x="448.762633" xlink:href="#m7c15fc9856" y="337.159219"/>
      </g>
     </g>
     <g id="text_6">
      <!-- 250 -->
      <g transform="translate(439.218883 351.757656)scale(0.1 -0.1)">
       <use xlink:href="#DejaVuSans-50"/>
       <use x="63.623047" xlink:href="#DejaVuSans-53"/>
       <use x="127.246094" xlink:href="#DejaVuSans-48"/>
      </g>
     </g>
    </g>
    <g id="xtick_7">
     <g id="line2d_13">
      <path clip-path="url(#pead715ada6)" d="M 528.48641 337.159219 
L 528.48641 10.999219 
" style="fill:none;stroke:#b0b0b0;stroke-linecap:square;stroke-width:0.8;"/>
     </g>
     <g id="line2d_14">
      <g>
       <use style="stroke:#000000;stroke-width:0.8;" x="528.48641" xlink:href="#m7c15fc9856" y="337.159219"/>
      </g>
     </g>
     <g id="text_7">
      <!-- 300 -->
      <defs>
       <path d="M 40.578125 39.3125 
Q 47.65625 37.796875 51.625 33 
Q 55.609375 28.21875 55.609375 21.1875 
Q 55.609375 10.40625 48.1875 4.484375 
Q 40.765625 -1.421875 27.09375 -1.421875 
Q 22.515625 -1.421875 17.65625 -0.515625 
Q 12.796875 0.390625 7.625 2.203125 
L 7.625 11.71875 
Q 11.71875 9.328125 16.59375 8.109375 
Q 21.484375 6.890625 26.8125 6.890625 
Q 36.078125 6.890625 40.9375 10.546875 
Q 45.796875 14.203125 45.796875 21.1875 
Q 45.796875 27.640625 41.28125 31.265625 
Q 36.765625 34.90625 28.71875 34.90625 
L 20.21875 34.90625 
L 20.21875 43.015625 
L 29.109375 43.015625 
Q 36.375 43.015625 40.234375 45.921875 
Q 44.09375 48.828125 44.09375 54.296875 
Q 44.09375 59.90625 40.109375 62.90625 
Q 36.140625 65.921875 28.71875 65.921875 
Q 24.65625 65.921875 20.015625 65.03125 
Q 15.375 64.15625 9.8125 62.3125 
L 9.8125 71.09375 
Q 15.4375 72.65625 20.34375 73.4375 
Q 25.25 74.21875 29.59375 74.21875 
Q 40.828125 74.21875 47.359375 69.109375 
Q 53.90625 64.015625 53.90625 55.328125 
Q 53.90625 49.265625 50.4375 45.09375 
Q 46.96875 40.921875 40.578125 39.3125 
z
" id="DejaVuSans-51"/>
      </defs>
      <g transform="translate(518.94266 351.757656)scale(0.1 -0.1)">
       <use xlink:href="#DejaVuSans-51"/>
       <use x="63.623047" xlink:href="#DejaVuSans-48"/>
       <use x="127.246094" xlink:href="#DejaVuSans-48"/>
      </g>
     </g>
    </g>
    <g id="xtick_8">
     <g id="line2d_15">
      <path clip-path="url(#pead715ada6)" d="M 608.210186 337.159219 
L 608.210186 10.999219 
" style="fill:none;stroke:#b0b0b0;stroke-linecap:square;stroke-width:0.8;"/>
     </g>
     <g id="line2d_16">
      <g>
       <use style="stroke:#000000;stroke-width:0.8;" x="608.210186" xlink:href="#m7c15fc9856" y="337.159219"/>
      </g>
     </g>
     <g id="text_8">
      <!-- 350 -->
      <g transform="translate(598.666436 351.757656)scale(0.1 -0.1)">
       <use xlink:href="#DejaVuSans-51"/>
       <use x="63.623047" xlink:href="#DejaVuSans-53"/>
       <use x="127.246094" xlink:href="#DejaVuSans-48"/>
      </g>
     </g>
    </g>
    <g id="xtick_9">
     <g id="line2d_17">
      <path clip-path="url(#pead715ada6)" d="M 687.933963 337.159219 
L 687.933963 10.999219 
" style="fill:none;stroke:#b0b0b0;stroke-linecap:square;stroke-width:0.8;"/>
     </g>
     <g id="line2d_18">
      <g>
       <use style="stroke:#000000;stroke-width:0.8;" x="687.933963" xlink:href="#m7c15fc9856" y="337.159219"/>
      </g>
     </g>
     <g id="text_9">
      <!-- 400 -->
      <defs>
       <path d="M 37.796875 64.3125 
L 12.890625 25.390625 
L 37.796875 25.390625 
z
M 35.203125 72.90625 
L 47.609375 72.90625 
L 47.609375 25.390625 
L 58.015625 25.390625 
L 58.015625 17.1875 
L 47.609375 17.1875 
L 47.609375 0 
L 37.796875 0 
L 37.796875 17.1875 
L 4.890625 17.1875 
L 4.890625 26.703125 
z
" id="DejaVuSans-52"/>
      </defs>
      <g transform="translate(678.390213 351.757656)scale(0.1 -0.1)">
       <use xlink:href="#DejaVuSans-52"/>
       <use x="63.623047" xlink:href="#DejaVuSans-48"/>
       <use x="127.246094" xlink:href="#DejaVuSans-48"/>
      </g>
     </g>
    </g>
    <g id="text_10">
     <!-- Epoch -->
     <defs>
      <path d="M 9.8125 72.90625 
L 55.90625 72.90625 
L 55.90625 64.59375 
L 19.671875 64.59375 
L 19.671875 43.015625 
L 54.390625 43.015625 
L 54.390625 34.71875 
L 19.671875 34.71875 
L 19.671875 8.296875 
L 56.78125 8.296875 
L 56.78125 0 
L 9.8125 0 
z
" id="DejaVuSans-69"/>
      <path d="M 18.109375 8.203125 
L 18.109375 -20.796875 
L 9.078125 -20.796875 
L 9.078125 54.6875 
L 18.109375 54.6875 
L 18.109375 46.390625 
Q 20.953125 51.265625 25.265625 53.625 
Q 29.59375 56 35.59375 56 
Q 45.5625 56 51.78125 48.09375 
Q 58.015625 40.1875 58.015625 27.296875 
Q 58.015625 14.40625 51.78125 6.484375 
Q 45.5625 -1.421875 35.59375 -1.421875 
Q 29.59375 -1.421875 25.265625 0.953125 
Q 20.953125 3.328125 18.109375 8.203125 
z
M 48.6875 27.296875 
Q 48.6875 37.203125 44.609375 42.84375 
Q 40.53125 48.484375 33.40625 48.484375 
Q 26.265625 48.484375 22.1875 42.84375 
Q 18.109375 37.203125 18.109375 27.296875 
Q 18.109375 17.390625 22.1875 11.75 
Q 26.265625 6.109375 33.40625 6.109375 
Q 40.53125 6.109375 44.609375 11.75 
Q 48.6875 17.390625 48.6875 27.296875 
z
" id="DejaVuSans-112"/>
      <path d="M 30.609375 48.390625 
Q 23.390625 48.390625 19.1875 42.75 
Q 14.984375 37.109375 14.984375 27.296875 
Q 14.984375 17.484375 19.15625 11.84375 
Q 23.34375 6.203125 30.609375 6.203125 
Q 37.796875 6.203125 41.984375 11.859375 
Q 46.1875 17.53125 46.1875 27.296875 
Q 46.1875 37.015625 41.984375 42.703125 
Q 37.796875 48.390625 30.609375 48.390625 
z
M 30.609375 56 
Q 42.328125 56 49.015625 48.375 
Q 55.71875 40.765625 55.71875 27.296875 
Q 55.71875 13.875 49.015625 6.21875 
Q 42.328125 -1.421875 30.609375 -1.421875 
Q 18.84375 -1.421875 12.171875 6.21875 
Q 5.515625 13.875 5.515625 27.296875 
Q 5.515625 40.765625 12.171875 48.375 
Q 18.84375 56 30.609375 56 
z
" id="DejaVuSans-111"/>
      <path d="M 48.78125 52.59375 
L 48.78125 44.1875 
Q 44.96875 46.296875 41.140625 47.34375 
Q 37.3125 48.390625 33.40625 48.390625 
Q 24.65625 48.390625 19.8125 42.84375 
Q 14.984375 37.3125 14.984375 27.296875 
Q 14.984375 17.28125 19.8125 11.734375 
Q 24.65625 6.203125 33.40625 6.203125 
Q 37.3125 6.203125 41.140625 7.25 
Q 44.96875 8.296875 48.78125 10.40625 
L 48.78125 2.09375 
Q 45.015625 0.34375 40.984375 -0.53125 
Q 36.96875 -1.421875 32.421875 -1.421875 
Q 20.0625 -1.421875 12.78125 6.34375 
Q 5.515625 14.109375 5.515625 27.296875 
Q 5.515625 40.671875 12.859375 48.328125 
Q 20.21875 56 33.015625 56 
Q 37.15625 56 41.109375 55.140625 
Q 45.0625 54.296875 48.78125 52.59375 
z
" id="DejaVuSans-99"/>
      <path d="M 54.890625 33.015625 
L 54.890625 0 
L 45.90625 0 
L 45.90625 32.71875 
Q 45.90625 40.484375 42.875 44.328125 
Q 39.84375 48.1875 33.796875 48.1875 
Q 26.515625 48.1875 22.3125 43.546875 
Q 18.109375 38.921875 18.109375 30.90625 
L 18.109375 0 
L 9.078125 0 
L 9.078125 75.984375 
L 18.109375 75.984375 
L 18.109375 46.1875 
Q 21.34375 51.125 25.703125 53.5625 
Q 30.078125 56 35.796875 56 
Q 45.21875 56 50.046875 50.171875 
Q 54.890625 44.34375 54.890625 33.015625 
z
" id="DejaVuSans-104"/>
     </defs>
     <g transform="translate(369.632813 365.435781)scale(0.1 -0.1)">
      <use xlink:href="#DejaVuSans-69"/>
      <use x="63.183594" xlink:href="#DejaVuSans-112"/>
      <use x="126.660156" xlink:href="#DejaVuSans-111"/>
      <use x="187.841797" xlink:href="#DejaVuSans-99"/>
      <use x="242.822266" xlink:href="#DejaVuSans-104"/>
     </g>
    </g>
   </g>
   <g id="matplotlib.axis_2">
    <g id="ytick_1">
     <g id="line2d_19">
      <path clip-path="url(#pead715ada6)" d="M 50.14375 337.159219 
L 719.74375 337.159219 
" style="fill:none;stroke:#b0b0b0;stroke-linecap:square;stroke-width:0.8;"/>
     </g>
     <g id="line2d_20">
      <defs>
       <path d="M 0 0 
L -3.5 0 
" id="m89ad6b6515" style="stroke:#000000;stroke-width:0.8;"/>
      </defs>
      <g>
       <use style="stroke:#000000;stroke-width:0.8;" x="50.14375" xlink:href="#m89ad6b6515" y="337.159219"/>
      </g>
     </g>
     <g id="text_11">
      <!-- 0.82 -->
      <defs>
       <path d="M 10.6875 12.40625 
L 21 12.40625 
L 21 0 
L 10.6875 0 
z
" id="DejaVuSans-46"/>
       <path d="M 31.78125 34.625 
Q 24.75 34.625 20.71875 30.859375 
Q 16.703125 27.09375 16.703125 20.515625 
Q 16.703125 13.921875 20.71875 10.15625 
Q 24.75 6.390625 31.78125 6.390625 
Q 38.8125 6.390625 42.859375 10.171875 
Q 46.921875 13.96875 46.921875 20.515625 
Q 46.921875 27.09375 42.890625 30.859375 
Q 38.875 34.625 31.78125 34.625 
z
M 21.921875 38.8125 
Q 15.578125 40.375 12.03125 44.71875 
Q 8.5 49.078125 8.5 55.328125 
Q 8.5 64.0625 14.71875 69.140625 
Q 20.953125 74.21875 31.78125 74.21875 
Q 42.671875 74.21875 48.875 69.140625 
Q 55.078125 64.0625 55.078125 55.328125 
Q 55.078125 49.078125 51.53125 44.71875 
Q 48 40.375 41.703125 38.8125 
Q 48.828125 37.15625 52.796875 32.3125 
Q 56.78125 27.484375 56.78125 20.515625 
Q 56.78125 9.90625 50.3125 4.234375 
Q 43.84375 -1.421875 31.78125 -1.421875 
Q 19.734375 -1.421875 13.25 4.234375 
Q 6.78125 9.90625 6.78125 20.515625 
Q 6.78125 27.484375 10.78125 32.3125 
Q 14.796875 37.15625 21.921875 38.8125 
z
M 18.3125 54.390625 
Q 18.3125 48.734375 21.84375 45.5625 
Q 25.390625 42.390625 31.78125 42.390625 
Q 38.140625 42.390625 41.71875 45.5625 
Q 45.3125 48.734375 45.3125 54.390625 
Q 45.3125 60.0625 41.71875 63.234375 
Q 38.140625 66.40625 31.78125 66.40625 
Q 25.390625 66.40625 21.84375 63.234375 
Q 18.3125 60.0625 18.3125 54.390625 
z
" id="DejaVuSans-56"/>
      </defs>
      <g transform="translate(20.878125 340.958437)scale(0.1 -0.1)">
       <use xlink:href="#DejaVuSans-48"/>
       <use x="63.623047" xlink:href="#DejaVuSans-46"/>
       <use x="95.410156" xlink:href="#DejaVuSans-56"/>
       <use x="159.033203" xlink:href="#DejaVuSans-50"/>
      </g>
     </g>
    </g>
    <g id="ytick_2">
     <g id="line2d_21">
      <path clip-path="url(#pead715ada6)" d="M 50.14375 296.389219 
L 719.74375 296.389219 
" style="fill:none;stroke:#b0b0b0;stroke-linecap:square;stroke-width:0.8;"/>
     </g>
     <g id="line2d_22">
      <g>
       <use style="stroke:#000000;stroke-width:0.8;" x="50.14375" xlink:href="#m89ad6b6515" y="296.389219"/>
      </g>
     </g>
     <g id="text_12">
      <!-- 0.84 -->
      <g transform="translate(20.878125 300.188437)scale(0.1 -0.1)">
       <use xlink:href="#DejaVuSans-48"/>
       <use x="63.623047" xlink:href="#DejaVuSans-46"/>
       <use x="95.410156" xlink:href="#DejaVuSans-56"/>
       <use x="159.033203" xlink:href="#DejaVuSans-52"/>
      </g>
     </g>
    </g>
    <g id="ytick_3">
     <g id="line2d_23">
      <path clip-path="url(#pead715ada6)" d="M 50.14375 255.619219 
L 719.74375 255.619219 
" style="fill:none;stroke:#b0b0b0;stroke-linecap:square;stroke-width:0.8;"/>
     </g>
     <g id="line2d_24">
      <g>
       <use style="stroke:#000000;stroke-width:0.8;" x="50.14375" xlink:href="#m89ad6b6515" y="255.619219"/>
      </g>
     </g>
     <g id="text_13">
      <!-- 0.86 -->
      <defs>
       <path d="M 33.015625 40.375 
Q 26.375 40.375 22.484375 35.828125 
Q 18.609375 31.296875 18.609375 23.390625 
Q 18.609375 15.53125 22.484375 10.953125 
Q 26.375 6.390625 33.015625 6.390625 
Q 39.65625 6.390625 43.53125 10.953125 
Q 47.40625 15.53125 47.40625 23.390625 
Q 47.40625 31.296875 43.53125 35.828125 
Q 39.65625 40.375 33.015625 40.375 
z
M 52.59375 71.296875 
L 52.59375 62.3125 
Q 48.875 64.0625 45.09375 64.984375 
Q 41.3125 65.921875 37.59375 65.921875 
Q 27.828125 65.921875 22.671875 59.328125 
Q 17.53125 52.734375 16.796875 39.40625 
Q 19.671875 43.65625 24.015625 45.921875 
Q 28.375 48.1875 33.59375 48.1875 
Q 44.578125 48.1875 50.953125 41.515625 
Q 57.328125 34.859375 57.328125 23.390625 
Q 57.328125 12.15625 50.6875 5.359375 
Q 44.046875 -1.421875 33.015625 -1.421875 
Q 20.359375 -1.421875 13.671875 8.265625 
Q 6.984375 17.96875 6.984375 36.375 
Q 6.984375 53.65625 15.1875 63.9375 
Q 23.390625 74.21875 37.203125 74.21875 
Q 40.921875 74.21875 44.703125 73.484375 
Q 48.484375 72.75 52.59375 71.296875 
z
" id="DejaVuSans-54"/>
      </defs>
      <g transform="translate(20.878125 259.418437)scale(0.1 -0.1)">
       <use xlink:href="#DejaVuSans-48"/>
       <use x="63.623047" xlink:href="#DejaVuSans-46"/>
       <use x="95.410156" xlink:href="#DejaVuSans-56"/>
       <use x="159.033203" xlink:href="#DejaVuSans-54"/>
      </g>
     </g>
    </g>
    <g id="ytick_4">
     <g id="line2d_25">
      <path clip-path="url(#pead715ada6)" d="M 50.14375 214.849219 
L 719.74375 214.849219 
" style="fill:none;stroke:#b0b0b0;stroke-linecap:square;stroke-width:0.8;"/>
     </g>
     <g id="line2d_26">
      <g>
       <use style="stroke:#000000;stroke-width:0.8;" x="50.14375" xlink:href="#m89ad6b6515" y="214.849219"/>
      </g>
     </g>
     <g id="text_14">
      <!-- 0.88 -->
      <g transform="translate(20.878125 218.648437)scale(0.1 -0.1)">
       <use xlink:href="#DejaVuSans-48"/>
       <use x="63.623047" xlink:href="#DejaVuSans-46"/>
       <use x="95.410156" xlink:href="#DejaVuSans-56"/>
       <use x="159.033203" xlink:href="#DejaVuSans-56"/>
      </g>
     </g>
    </g>
    <g id="ytick_5">
     <g id="line2d_27">
      <path clip-path="url(#pead715ada6)" d="M 50.14375 174.079219 
L 719.74375 174.079219 
" style="fill:none;stroke:#b0b0b0;stroke-linecap:square;stroke-width:0.8;"/>
     </g>
     <g id="line2d_28">
      <g>
       <use style="stroke:#000000;stroke-width:0.8;" x="50.14375" xlink:href="#m89ad6b6515" y="174.079219"/>
      </g>
     </g>
     <g id="text_15">
      <!-- 0.90 -->
      <defs>
       <path d="M 10.984375 1.515625 
L 10.984375 10.5 
Q 14.703125 8.734375 18.5 7.8125 
Q 22.3125 6.890625 25.984375 6.890625 
Q 35.75 6.890625 40.890625 13.453125 
Q 46.046875 20.015625 46.78125 33.40625 
Q 43.953125 29.203125 39.59375 26.953125 
Q 35.25 24.703125 29.984375 24.703125 
Q 19.046875 24.703125 12.671875 31.3125 
Q 6.296875 37.9375 6.296875 49.421875 
Q 6.296875 60.640625 12.9375 67.421875 
Q 19.578125 74.21875 30.609375 74.21875 
Q 43.265625 74.21875 49.921875 64.515625 
Q 56.59375 54.828125 56.59375 36.375 
Q 56.59375 19.140625 48.40625 8.859375 
Q 40.234375 -1.421875 26.421875 -1.421875 
Q 22.703125 -1.421875 18.890625 -0.6875 
Q 15.09375 0.046875 10.984375 1.515625 
z
M 30.609375 32.421875 
Q 37.25 32.421875 41.125 36.953125 
Q 45.015625 41.5 45.015625 49.421875 
Q 45.015625 57.28125 41.125 61.84375 
Q 37.25 66.40625 30.609375 66.40625 
Q 23.96875 66.40625 20.09375 61.84375 
Q 16.21875 57.28125 16.21875 49.421875 
Q 16.21875 41.5 20.09375 36.953125 
Q 23.96875 32.421875 30.609375 32.421875 
z
" id="DejaVuSans-57"/>
      </defs>
      <g transform="translate(20.878125 177.878437)scale(0.1 -0.1)">
       <use xlink:href="#DejaVuSans-48"/>
       <use x="63.623047" xlink:href="#DejaVuSans-46"/>
       <use x="95.410156" xlink:href="#DejaVuSans-57"/>
       <use x="159.033203" xlink:href="#DejaVuSans-48"/>
      </g>
     </g>
    </g>
    <g id="ytick_6">
     <g id="line2d_29">
      <path clip-path="url(#pead715ada6)" d="M 50.14375 133.309219 
L 719.74375 133.309219 
" style="fill:none;stroke:#b0b0b0;stroke-linecap:square;stroke-width:0.8;"/>
     </g>
     <g id="line2d_30">
      <g>
       <use style="stroke:#000000;stroke-width:0.8;" x="50.14375" xlink:href="#m89ad6b6515" y="133.309219"/>
      </g>
     </g>
     <g id="text_16">
      <!-- 0.92 -->
      <g transform="translate(20.878125 137.108437)scale(0.1 -0.1)">
       <use xlink:href="#DejaVuSans-48"/>
       <use x="63.623047" xlink:href="#DejaVuSans-46"/>
       <use x="95.410156" xlink:href="#DejaVuSans-57"/>
       <use x="159.033203" xlink:href="#DejaVuSans-50"/>
      </g>
     </g>
    </g>
    <g id="ytick_7">
     <g id="line2d_31">
      <path clip-path="url(#pead715ada6)" d="M 50.14375 92.539219 
L 719.74375 92.539219 
" style="fill:none;stroke:#b0b0b0;stroke-linecap:square;stroke-width:0.8;"/>
     </g>
     <g id="line2d_32">
      <g>
       <use style="stroke:#000000;stroke-width:0.8;" x="50.14375" xlink:href="#m89ad6b6515" y="92.539219"/>
      </g>
     </g>
     <g id="text_17">
      <!-- 0.94 -->
      <g transform="translate(20.878125 96.338437)scale(0.1 -0.1)">
       <use xlink:href="#DejaVuSans-48"/>
       <use x="63.623047" xlink:href="#DejaVuSans-46"/>
       <use x="95.410156" xlink:href="#DejaVuSans-57"/>
       <use x="159.033203" xlink:href="#DejaVuSans-52"/>
      </g>
     </g>
    </g>
    <g id="ytick_8">
     <g id="line2d_33">
      <path clip-path="url(#pead715ada6)" d="M 50.14375 51.769219 
L 719.74375 51.769219 
" style="fill:none;stroke:#b0b0b0;stroke-linecap:square;stroke-width:0.8;"/>
     </g>
     <g id="line2d_34">
      <g>
       <use style="stroke:#000000;stroke-width:0.8;" x="50.14375" xlink:href="#m89ad6b6515" y="51.769219"/>
      </g>
     </g>
     <g id="text_18">
      <!-- 0.96 -->
      <g transform="translate(20.878125 55.568437)scale(0.1 -0.1)">
       <use xlink:href="#DejaVuSans-48"/>
       <use x="63.623047" xlink:href="#DejaVuSans-46"/>
       <use x="95.410156" xlink:href="#DejaVuSans-57"/>
       <use x="159.033203" xlink:href="#DejaVuSans-54"/>
      </g>
     </g>
    </g>
    <g id="ytick_9">
     <g id="line2d_35">
      <path clip-path="url(#pead715ada6)" d="M 50.14375 10.999219 
L 719.74375 10.999219 
" style="fill:none;stroke:#b0b0b0;stroke-linecap:square;stroke-width:0.8;"/>
     </g>
     <g id="line2d_36">
      <g>
       <use style="stroke:#000000;stroke-width:0.8;" x="50.14375" xlink:href="#m89ad6b6515" y="10.999219"/>
      </g>
     </g>
     <g id="text_19">
      <!-- 0.98 -->
      <g transform="translate(20.878125 14.798437)scale(0.1 -0.1)">
       <use xlink:href="#DejaVuSans-48"/>
       <use x="63.623047" xlink:href="#DejaVuSans-46"/>
       <use x="95.410156" xlink:href="#DejaVuSans-57"/>
       <use x="159.033203" xlink:href="#DejaVuSans-56"/>
      </g>
     </g>
    </g>
    <g id="text_20">
     <!-- Accuracy -->
     <defs>
      <path d="M 34.1875 63.1875 
L 20.796875 26.90625 
L 47.609375 26.90625 
z
M 28.609375 72.90625 
L 39.796875 72.90625 
L 67.578125 0 
L 57.328125 0 
L 50.6875 18.703125 
L 17.828125 18.703125 
L 11.1875 0 
L 0.78125 0 
z
" id="DejaVuSans-65"/>
      <path d="M 8.5 21.578125 
L 8.5 54.6875 
L 17.484375 54.6875 
L 17.484375 21.921875 
Q 17.484375 14.15625 20.5 10.265625 
Q 23.53125 6.390625 29.59375 6.390625 
Q 36.859375 6.390625 41.078125 11.03125 
Q 45.3125 15.671875 45.3125 23.6875 
L 45.3125 54.6875 
L 54.296875 54.6875 
L 54.296875 0 
L 45.3125 0 
L 45.3125 8.40625 
Q 42.046875 3.421875 37.71875 1 
Q 33.40625 -1.421875 27.6875 -1.421875 
Q 18.265625 -1.421875 13.375 4.4375 
Q 8.5 10.296875 8.5 21.578125 
z
M 31.109375 56 
z
" id="DejaVuSans-117"/>
      <path d="M 41.109375 46.296875 
Q 39.59375 47.171875 37.8125 47.578125 
Q 36.03125 48 33.890625 48 
Q 26.265625 48 22.1875 43.046875 
Q 18.109375 38.09375 18.109375 28.8125 
L 18.109375 0 
L 9.078125 0 
L 9.078125 54.6875 
L 18.109375 54.6875 
L 18.109375 46.1875 
Q 20.953125 51.171875 25.484375 53.578125 
Q 30.03125 56 36.53125 56 
Q 37.453125 56 38.578125 55.875 
Q 39.703125 55.765625 41.0625 55.515625 
z
" id="DejaVuSans-114"/>
      <path d="M 34.28125 27.484375 
Q 23.390625 27.484375 19.1875 25 
Q 14.984375 22.515625 14.984375 16.5 
Q 14.984375 11.71875 18.140625 8.90625 
Q 21.296875 6.109375 26.703125 6.109375 
Q 34.1875 6.109375 38.703125 11.40625 
Q 43.21875 16.703125 43.21875 25.484375 
L 43.21875 27.484375 
z
M 52.203125 31.203125 
L 52.203125 0 
L 43.21875 0 
L 43.21875 8.296875 
Q 40.140625 3.328125 35.546875 0.953125 
Q 30.953125 -1.421875 24.3125 -1.421875 
Q 15.921875 -1.421875 10.953125 3.296875 
Q 6 8.015625 6 15.921875 
Q 6 25.140625 12.171875 29.828125 
Q 18.359375 34.515625 30.609375 34.515625 
L 43.21875 34.515625 
L 43.21875 35.40625 
Q 43.21875 41.609375 39.140625 45 
Q 35.0625 48.390625 27.6875 48.390625 
Q 23 48.390625 18.546875 47.265625 
Q 14.109375 46.140625 10.015625 43.890625 
L 10.015625 52.203125 
Q 14.9375 54.109375 19.578125 55.046875 
Q 24.21875 56 28.609375 56 
Q 40.484375 56 46.34375 49.84375 
Q 52.203125 43.703125 52.203125 31.203125 
z
" id="DejaVuSans-97"/>
      <path d="M 32.171875 -5.078125 
Q 28.375 -14.84375 24.75 -17.8125 
Q 21.140625 -20.796875 15.09375 -20.796875 
L 7.90625 -20.796875 
L 7.90625 -13.28125 
L 13.1875 -13.28125 
Q 16.890625 -13.28125 18.9375 -11.515625 
Q 21 -9.765625 23.484375 -3.21875 
L 25.09375 0.875 
L 2.984375 54.6875 
L 12.5 54.6875 
L 29.59375 11.921875 
L 46.6875 54.6875 
L 56.203125 54.6875 
z
" id="DejaVuSans-121"/>
     </defs>
     <g transform="translate(14.798438 196.994062)rotate(-90)scale(0.1 -0.1)">
      <use xlink:href="#DejaVuSans-65"/>
      <use x="68.392578" xlink:href="#DejaVuSans-99"/>
      <use x="123.373047" xlink:href="#DejaVuSans-99"/>
      <use x="178.353516" xlink:href="#DejaVuSans-117"/>
      <use x="241.732422" xlink:href="#DejaVuSans-114"/>
      <use x="282.845703" xlink:href="#DejaVuSans-97"/>
      <use x="344.125" xlink:href="#DejaVuSans-99"/>
      <use x="399.105469" xlink:href="#DejaVuSans-121"/>
     </g>
    </g>
   </g>
   <g id="line2d_37">
    <path clip-path="url(#pead715ada6)" d="M 95.565437 375.715469 
L 97.590171 365.666399 
L 100.137501 354.034918 
L 102.684831 343.451456 
L 105.232161 333.839564 
L 107.779492 325.122789 
L 110.326822 317.22468 
L 112.874152 310.068788 
L 115.421483 303.57866 
L 117.968813 297.677847 
L 120.516143 292.289896 
L 123.063473 287.338358 
L 126.247636 281.646172 
L 130.068632 275.347728 
L 135.163292 267.467096 
L 140.257953 260.006206 
L 145.352613 252.943916 
L 150.447274 246.261106 
L 155.541934 239.938656 
L 160.636595 233.957444 
L 165.731256 228.298351 
L 170.825916 222.942255 
L 176.557409 217.255016 
L 182.288902 211.899835 
L 188.020396 206.849486 
L 193.751889 202.076745 
L 200.120214 197.066177 
L 206.48854 192.327379 
L 213.493698 187.384265 
L 221.135689 182.275512 
L 228.77768 177.448374 
L 236.419671 172.890337 
L 244.061662 168.588888 
L 251.703653 164.531512 
L 259.982476 160.396938 
L 268.261299 156.518217 
L 276.540123 152.879437 
L 285.455779 149.210838 
L 294.371435 145.782193 
L 303.923923 142.352342 
L 314.113244 138.944767 
L 324.939398 135.575535 
L 336.402384 132.251561 
L 349.139036 128.801489 
L 363.786185 125.077615 
L 382.254329 120.629976 
L 401.359307 116.253334 
L 421.101116 111.963029 
L 440.842926 107.902658 
L 460.584736 104.066058 
L 480.963378 100.333879 
L 501.34202 96.826796 
L 522.357495 93.438699 
L 543.37297 90.275341 
L 565.025277 87.243329 
L 586.677584 84.433861 
L 608.966724 81.765644 
L 631.892697 79.248892 
L 654.818669 76.953484 
L 678.381475 74.814817 
L 687.933963 74.0091 
L 687.933963 74.0091 
" style="fill:none;stroke:#377eb8;stroke-linecap:square;stroke-width:2;"/>
   </g>
   <g id="line2d_38">
    <path clip-path="url(#pead715ada6)" d="M 89.286677 375.715469 
L 91.221845 364.941294 
L 93.769175 351.851264 
L 96.316505 339.88494 
L 98.863836 328.974794 
L 101.411166 319.053457 
L 103.958496 310.053555 
L 106.505827 301.90772 
L 109.053157 294.54858 
L 111.600487 287.908765 
L 114.147817 281.920902 
L 116.695148 276.517623 
L 119.242478 271.631555 
L 121.789808 267.195328 
L 124.337139 263.141572 
L 127.521301 258.50959 
L 131.342297 253.415834 
L 135.800125 247.87902 
L 140.257953 242.712404 
L 144.715781 237.897788 
L 149.173609 233.416973 
L 153.631437 229.25176 
L 158.089265 225.383952 
L 162.547093 221.79535 
L 167.004921 218.467754 
L 172.099581 214.961044 
L 177.194242 211.744308 
L 182.288902 208.79038 
L 188.020396 205.747525 
L 193.751889 202.964228 
L 200.120214 200.129052 
L 207.125373 197.261994 
L 215.404196 194.122073 
L 224.319852 190.97787 
L 233.235508 188.065386 
L 242.787997 185.188067 
L 252.340485 182.547583 
L 261.892974 180.128844 
L 272.082295 177.776271 
L 282.908449 175.513815 
L 293.734602 173.474165 
L 305.197588 171.532979 
L 317.93424 169.608481 
L 331.307724 167.813165 
L 346.591706 165.991811 
L 364.423017 164.098369 
L 387.985823 161.83333 
L 412.822293 159.665138 
L 438.932428 157.610144 
L 466.316229 155.681729 
L 494.973694 153.888981 
L 525.541658 152.203048 
L 558.656951 150.605856 
L 594.956408 149.084459 
L 636.350525 147.579313 
L 687.933963 145.936771 
L 687.933963 145.936771 
" style="fill:none;stroke:#4daf4a;stroke-linecap:square;stroke-width:2;"/>
   </g>
   <g id="line2d_39">
    <path clip-path="url(#pead715ada6)" d="M 96.644313 375.715469 
L 97.978016 368.04253 
L 99.572492 363.761699 
L 101.166967 358.104834 
L 102.761443 351.071935 
L 104.355918 341.592917 
L 105.950394 336.037994 
L 107.544869 329.209101 
L 109.139345 327.374389 
L 110.73382 318.710785 
L 112.328296 320.596406 
L 115.517247 304.645109 
L 117.111722 306.377879 
L 118.706198 300.975808 
L 120.300673 296.338241 
L 121.895149 298.988366 
L 123.489625 288.184224 
L 125.0841 285.687072 
L 126.678576 281.457151 
L 128.273051 276.106112 
L 129.867527 279.622561 
L 131.462002 273.60896 
L 133.056478 271.672429 
L 134.650953 272.589784 
L 136.245429 268.971393 
L 137.839904 261.887584 
L 139.43438 258.218283 
L 141.028855 257.657663 
L 142.623331 254.600013 
L 144.217806 254.650924 
L 145.812282 252.918154 
L 147.406758 245.171905 
L 149.001233 247.923851 
L 150.595709 244.356491 
L 152.190184 237.119831 
L 153.78466 243.0824 
L 155.379135 234.520737 
L 156.973611 236.814005 
L 158.568086 231.462966 
L 160.162562 232.88991 
L 161.757037 228.812962 
L 163.351513 232.125527 
L 164.945988 226.366721 
L 166.540464 219.74159 
L 168.134939 222.544567 
L 169.729415 223.156097 
L 171.32389 222.646509 
L 172.918366 222.544567 
L 174.512842 215.460758 
L 176.107317 218.467498 
L 177.701793 213.829931 
L 179.296268 210.058688 
L 180.890744 215.919436 
L 182.485219 205.217358 
L 184.079695 210.772159 
L 185.67417 206.848064 
L 187.268646 209.803894 
L 188.863121 204.401944 
L 190.457597 203.892235 
L 192.052072 204.554796 
L 193.646548 196.044044 
L 195.241023 192.935362 
L 196.835499 201.904793 
L 198.429975 197.725782 
L 200.02445 192.476684 
L 201.618926 194.362306 
L 203.213401 190.794947 
L 204.807877 192.78251 
L 206.402352 196.145986 
L 207.996828 185.494818 
L 209.591303 185.953495 
L 211.185779 186.768909 
L 212.780254 185.494818 
L 214.37473 181.213986 
L 215.969205 182.131342 
L 217.563681 187.380439 
L 219.158156 186.463084 
L 220.752632 180.806219 
L 222.347108 179.277454 
L 223.941583 183.150518 
L 225.536059 177.646627 
L 227.130534 176.627329 
L 228.72501 172.703234 
L 230.319485 178.462041 
L 231.913961 173.6715 
L 233.508436 177.187949 
L 235.102912 175.098443 
L 236.697387 172.601292 
L 238.291863 175.913857 
L 239.886338 169.339758 
L 241.480814 172.44844 
L 243.075289 172.397408 
L 244.669765 168.677196 
L 246.264241 167.708931 
L 247.858716 170.868522 
L 249.453192 164.702069 
L 251.047667 168.167608 
L 252.642143 164.905953 
L 254.236618 162.867479 
L 255.831094 165.364631 
L 257.425569 163.835745 
L 259.020045 163.733803 
L 260.61452 157.669292 
L 262.208996 158.68859 
L 263.803471 161.644419 
L 265.397947 158.17888 
L 266.992422 156.344291 
L 268.586898 160.930948 
L 270.181374 152.674989 
L 271.775849 159.96256 
L 273.370325 157.159704 
L 274.9648 153.133667 
L 276.559276 156.344291 
L 278.153751 151.961517 
L 279.748227 155.070199 
L 281.342702 151.248045 
L 282.937178 151.095072 
L 284.531653 150.483542 
L 286.126129 153.337429 
L 287.720604 148.954656 
L 289.31508 147.120066 
L 290.909555 150.177838 
L 292.504031 145.234445 
L 294.098507 146.457504 
L 295.692982 146.457504 
L 297.287458 146.712299 
L 298.881933 147.629654 
L 300.476409 142.227705 
L 302.070884 137.691958 
L 303.66536 146.355563 
L 305.259835 139.628611 
L 306.854311 143.348823 
L 308.448786 141.310349 
L 310.043262 141.819937 
L 311.637737 141.361259 
L 313.232213 139.169933 
L 314.826688 140.291052 
L 316.421164 138.915139 
L 318.01564 133.563979 
L 319.610115 138.456462 
L 321.204591 140.800761 
L 322.799066 138.303488 
L 324.393542 136.366956 
L 325.988017 138.609314 
L 327.582493 133.156333 
L 329.176968 134.83807 
L 330.771444 133.971746 
L 332.365919 140.749729 
L 333.960395 135.500632 
L 335.55487 130.710091 
L 337.149346 129.996619 
L 338.743821 134.17563 
L 340.338297 127.856204 
L 341.932773 128.569676 
L 343.527248 128.875501 
L 345.121724 128.060087 
L 346.716199 128.314882 
L 348.310675 126.327318 
L 349.90515 123.626404 
L 351.499626 128.875501 
L 353.094101 131.780299 
L 354.688577 128.110998 
L 357.877528 127.295584 
L 359.472003 128.009177 
L 361.066479 126.684054 
L 362.660954 124.08496 
L 364.25543 126.735086 
L 365.849905 125.562936 
L 367.444381 127.397526 
L 369.038857 122.658017 
L 370.633332 121.282105 
L 372.227808 123.830166 
L 373.822283 124.492728 
L 375.416759 119.957103 
L 377.011234 122.607106 
L 378.60571 119.906071 
L 380.200185 121.63884 
L 381.794661 120.415659 
L 383.389136 116.644537 
L 384.983612 116.950241 
L 386.578087 121.995576 
L 388.172563 122.556075 
L 389.767038 116.134828 
L 391.361514 123.42252 
L 392.95599 117.103094 
L 394.550465 112.771352 
L 396.144941 115.829123 
L 397.739416 118.020449 
L 399.333892 116.797389 
L 400.928367 117.103094 
L 402.522843 111.853996 
L 404.117318 113.994412 
L 405.711794 118.275243 
L 407.306269 113.790528 
L 408.900745 115.67615 
L 410.49522 114.758916 
L 412.089696 117.205036 
L 413.684171 111.242466 
L 415.278647 117.867597 
L 416.873123 115.523298 
L 418.467598 111.548171 
L 420.062074 110.630936 
L 421.656549 106.808661 
L 423.251025 109.815523 
L 424.8455 110.88573 
L 426.439976 104.31151 
L 428.034451 107.471223 
L 429.628927 109.305935 
L 431.223402 108.439489 
L 432.817878 108.796225 
L 434.412353 105.789485 
L 436.006829 111.089614 
L 437.601304 110.325111 
L 439.19578 108.490521 
L 440.790256 108.184695 
L 442.384731 109.152961 
L 443.979207 104.719277 
L 445.573682 106.961635 
L 447.168158 105.330807 
L 448.762633 105.789485 
L 450.357109 108.031843 
L 451.951584 106.706841 
L 453.54606 101.202828 
L 455.140535 109.102051 
L 456.735011 107.777049 
L 458.329486 101.457622 
L 459.923962 106.604899 
L 461.518437 99.724974 
L 463.112913 103.801922 
L 464.707389 100.948034 
L 466.301864 101.457622 
L 467.89634 101.25386 
L 469.490815 104.31151 
L 471.085291 97.788321 
L 472.679766 97.686379 
L 474.274242 100.795182 
L 475.868717 100.489356 
L 477.463193 100.540388 
L 479.057668 100.030678 
L 480.652144 101.151918 
L 482.246619 96.871087 
L 483.841095 100.08171 
L 485.43557 101.25386 
L 487.030046 97.074849 
L 488.624522 99.572001 
L 490.218997 97.686379 
L 491.813473 95.444021 
L 493.407948 98.094147 
L 495.002424 97.584559 
L 496.596899 96.565261 
L 498.191375 96.921997 
L 499.78585 98.807618 
L 501.380326 95.800879 
L 502.974801 95.647905 
L 504.569277 99.011502 
L 506.163752 98.348941 
L 507.758228 96.106583 
L 510.947179 99.52109 
L 512.541655 96.769145 
L 514.13613 93.150754 
L 515.730606 97.992205 
L 517.325081 90.653602 
L 518.919557 98.552824 
L 520.514032 92.28443 
L 523.702983 93.201785 
L 525.297459 91.570958 
L 526.891934 90.857486 
L 528.48641 93.762284 
L 531.675361 91.010338 
L 533.269836 92.28443 
L 534.864312 89.634304 
L 536.458788 87.748804 
L 538.053263 95.342201 
L 539.647739 91.417984 
L 541.242214 91.876662 
L 542.83669 92.029636 
L 544.431165 92.437282 
L 546.025641 91.265132 
L 549.214592 90.194924 
L 550.809067 91.11228 
L 552.403543 88.76798 
L 553.998018 88.10554 
L 555.592494 91.978604 
L 557.186969 86.117977 
L 558.781445 87.493889 
L 560.37592 86.321739 
L 561.970396 85.710209 
L 563.564872 85.761241 
L 565.159347 86.882359 
L 566.753823 89.94013 
L 568.348298 83.671735 
L 569.942774 88.15645 
L 571.537249 84.589091 
L 573.131725 85.863183 
L 574.7262 81.786114 
L 576.320676 84.894795 
L 577.915151 86.882359 
L 579.509627 86.984301 
L 581.104102 83.671735 
L 582.698578 87.493889 
L 584.293053 85.200621 
L 585.887529 85.506447 
L 587.482005 83.009174 
L 589.07648 83.722767 
L 590.670956 86.525623 
L 592.265431 84.640001 
L 593.859907 83.162147 
L 595.454382 85.149711 
L 597.048858 82.397644 
L 598.643333 80.91979 
L 600.237809 81.429378 
L 601.832284 87.086243 
L 603.42676 85.659299 
L 605.021235 82.448675 
L 606.615711 83.620825 
L 608.210186 85.863183 
L 609.804662 83.416941 
L 611.399138 79.441814 
L 612.993613 84.436239 
L 614.588089 77.250488 
L 616.182564 83.671735 
L 617.77704 81.123673 
L 619.371515 79.900492 
L 620.965991 83.213057 
L 622.560466 79.645698 
L 624.154942 78.57549 
L 625.749417 78.422638 
L 627.343893 79.951524 
L 628.938368 76.689868 
L 630.532844 79.74764 
L 632.127319 76.282222 
L 633.721795 81.021731 
L 635.316271 78.983136 
L 636.910746 76.689868 
L 638.505222 79.441814 
L 640.099697 78.728342 
L 641.694173 76.435074 
L 644.883124 80.512022 
L 646.477599 79.900492 
L 648.072075 76.384164 
L 649.66655 73.886891 
L 651.261026 79.441814 
L 652.855501 77.556192 
L 654.449977 77.250488 
L 656.044452 78.57549 
L 657.638928 78.167844 
L 659.233404 75.160983 
L 660.827879 75.670571 
L 662.422355 77.760076 
L 664.01683 74.906189 
L 665.611306 78.01487 
L 667.205781 73.428335 
L 668.800257 74.498543 
L 670.394732 76.282222 
L 671.989208 75.212014 
L 673.583683 77.250488 
L 675.178159 75.466808 
L 676.772634 74.702305 
L 678.36711 74.600363 
L 679.961585 75.670571 
L 681.556061 74.294659 
L 683.150537 76.995694 
L 684.745012 71.084035 
L 686.339488 71.593623 
L 687.933963 70.268621 
L 687.933963 70.268621 
" style="fill:none;stroke:#377eb8;stroke-linecap:square;stroke-opacity:0.25098;stroke-width:1.5;"/>
   </g>
   <g id="line2d_40">
    <path clip-path="url(#pead715ada6)" d="M 86.300152 375.715469 
L 86.816687 366.809385 
L 87.88155 375.715469 
M 89.598231 375.715469 
L 90.005638 374.195253 
L 91.600114 338.086552 
L 93.194589 338.702092 
L 94.789065 341.369106 
L 96.38354 355.115105 
L 97.978016 315.723729 
L 101.166967 332.136863 
L 102.761443 339.112411 
L 104.355918 321.67354 
L 105.950394 332.341962 
L 107.544869 291.924848 
L 109.139345 284.128661 
L 110.73382 294.797204 
L 112.328296 304.234668 
L 113.922771 269.562146 
L 115.517247 276.537695 
L 117.111722 255.611049 
L 118.706198 275.922155 
L 120.300673 266.89501 
L 121.895149 279.615028 
L 123.489625 268.331067 
L 126.678576 249.250918 
L 128.273051 248.6355 
L 129.867527 243.301229 
L 131.462002 255.20073 
L 133.056478 252.533594 
L 134.650953 244.327087 
L 136.245429 248.43028 
L 137.839904 246.173463 
L 139.43438 249.456139 
L 141.028855 263.817555 
L 142.623331 251.507735 
L 144.217806 225.452038 
L 145.812282 221.553944 
L 147.406758 218.476489 
L 149.001233 226.888216 
L 150.595709 237.351539 
L 152.190184 237.761858 
L 153.78466 220.733306 
L 155.379135 237.761858 
L 156.973611 219.502348 
L 158.568086 219.707447 
L 160.162562 227.503634 
L 161.757037 226.682996 
L 163.351513 226.067578 
L 164.945988 215.809354 
L 166.540464 214.783616 
L 168.134939 233.043126 
L 169.729415 209.244124 
L 171.32389 231.196629 
L 172.918366 215.399034 
L 174.512842 213.757757 
L 176.107317 210.064763 
L 177.701793 214.988715 
L 179.296268 208.013167 
L 182.485219 220.322987 
L 184.079695 199.601561 
L 185.67417 203.909974 
L 187.268646 207.192528 
L 188.863121 211.706161 
L 190.457597 203.704754 
L 192.052072 215.604255 
L 193.646548 198.575703 
L 195.241023 194.677609 
L 196.835499 201.447937 
L 198.429975 188.11238 
L 200.02445 206.576988 
L 201.618926 194.472389 
L 203.213401 205.75635 
L 204.807877 196.318886 
L 206.402352 192.215572 
L 207.996828 192.010473 
L 209.591303 192.831112 
L 211.185779 204.525392 
L 212.780254 189.343337 
L 214.37473 197.960163 
L 215.969205 192.010473 
L 217.563681 199.396341 
L 219.158156 190.574295 
L 220.752632 177.854277 
L 222.347108 191.600154 
L 223.941583 200.21698 
L 225.536059 181.752371 
L 227.130534 195.703346 
L 228.72501 178.880015 
L 230.319485 181.136831 
L 231.913961 189.138239 
L 233.508436 194.882708 
L 235.102912 186.265882 
L 236.697387 190.163976 
L 238.291863 189.138239 
L 239.886338 171.494147 
L 241.480814 188.11238 
L 243.075289 175.597461 
L 244.669765 178.264596 
L 246.264241 193.856971 
L 247.858716 181.54715 
L 249.453192 185.650464 
L 251.047667 178.059376 
L 252.642143 195.087928 
L 254.236618 194.677609 
L 255.831094 174.571602 
L 257.425569 179.495554 
L 259.020045 182.16269 
L 260.61452 189.548558 
L 262.208996 180.110972 
L 263.803471 181.54715 
L 265.397947 182.367789 
L 266.992422 187.086521 
L 268.586898 177.443837 
L 270.181374 173.545743 
L 271.775849 190.984614 
L 273.370325 180.110972 
L 274.9648 184.214286 
L 276.559276 174.366503 
L 278.153751 189.343337 
L 279.748227 167.801274 
L 281.342702 184.214286 
L 282.937178 167.596053 
L 284.531653 176.00778 
L 286.126129 174.161283 
L 287.720604 178.469695 
L 289.31508 171.083828 
L 290.909555 172.314785 
L 292.504031 164.723819 
L 294.098507 171.289048 
L 295.692982 180.521292 
L 297.287458 175.597461 
L 298.881933 175.80256 
L 300.476409 172.930325 
L 302.070884 171.955741 
L 303.66536 178.469695 
L 305.259835 169.647649 
L 306.854311 174.366503 
L 308.448786 164.108279 
L 310.043262 167.596053 
L 311.637737 162.672101 
L 313.232213 170.057969 
L 314.826688 161.646364 
L 316.421164 172.520006 
L 318.01564 176.00778 
L 319.610115 174.366503 
L 321.204591 174.366503 
L 322.799066 164.108279 
L 324.393542 175.39224 
L 325.988017 165.544457 
L 327.582493 160.825725 
L 329.176968 158.568909 
L 330.771444 163.90318 
L 332.365919 180.726512 
L 333.960395 162.467002 
L 335.55487 171.699367 
L 337.149346 162.261782 
L 338.743821 176.212879 
L 340.338297 163.08242 
L 341.932773 164.108279 
L 343.527248 162.056683 
L 345.121724 162.467002 
L 346.716199 156.722411 
L 348.310675 165.544457 
L 349.90515 162.672101 
L 351.499626 164.723819 
L 353.094101 162.261782 
L 354.688577 170.057969 
L 356.283052 164.313499 
L 357.877528 152.619219 
L 359.472003 156.517312 
L 361.066479 172.314785 
L 362.660954 169.85287 
L 364.25543 163.90318 
L 365.849905 174.776822 
L 367.444381 163.69796 
L 369.038857 161.030824 
L 370.633332 162.672101 
L 372.227808 159.594767 
L 373.822283 156.927632 
L 375.416759 163.90318 
L 377.011234 162.877321 
L 378.60571 157.337951 
L 380.200185 161.236044 
L 381.794661 164.108279 
L 383.389136 154.465595 
L 384.983612 163.08242 
L 386.578087 160.620505 
L 388.172563 157.74827 
L 389.767038 155.491453 
L 391.361514 157.54305 
L 392.95599 154.875914 
L 394.550465 173.956062 
L 396.144941 158.363688 
L 397.739416 161.851462 
L 399.333892 164.723819 
L 400.928367 153.644956 
L 402.522843 165.339237 
L 404.117318 158.979228 
L 405.711794 162.877321 
L 407.306269 169.23733 
L 408.900745 153.029538 
L 410.49522 153.644956 
L 412.089696 162.672101 
L 413.684171 154.055275 
L 415.278647 163.90318 
L 416.873123 160.210185 
L 418.467598 160.825725 
L 420.062074 163.287641 
L 421.656549 152.003679 
L 423.251025 162.672101 
L 424.8455 153.234637 
L 426.439976 161.646364 
L 428.034451 163.287641 
L 429.628927 164.723819 
L 431.223402 154.465595 
L 432.817878 158.158589 
L 434.412353 154.260496 
L 436.006829 159.389547 
L 437.601304 158.979228 
L 439.19578 154.670815 
L 440.790256 150.97782 
L 442.384731 157.13273 
L 443.979207 161.236044 
L 445.573682 150.567501 
L 447.168158 162.672101 
L 448.762633 152.824318 
L 450.357109 164.108279 
L 451.951584 154.260496 
L 453.54606 160.825725 
L 455.140535 151.798459 
L 456.735011 166.775415 
L 458.329486 147.284947 
L 459.923962 162.261782 
L 461.518437 160.415406 
L 463.112913 154.465595 
L 464.707389 158.363688 
L 466.301864 161.236044 
L 467.89634 158.568909 
L 469.490815 152.003679 
L 471.085291 150.157182 
L 472.679766 165.339237 
L 474.274242 166.570194 
L 475.868717 149.746863 
L 477.463193 160.620505 
L 479.057668 153.644956 
L 480.652144 161.030824 
L 482.246619 154.670815 
L 483.841095 151.183041 
L 485.43557 150.772721 
L 487.030046 156.517312 
L 488.624522 166.365096 
L 490.218997 157.54305 
L 491.813473 161.646364 
L 493.407948 161.441143 
L 495.002424 164.723819 
L 496.596899 142.155896 
L 498.191375 145.43845 
L 499.78585 153.850177 
L 501.380326 148.721125 
L 502.974801 152.619219 
L 504.569277 148.926224 
L 506.163752 151.183041 
L 507.758228 159.184327 
L 509.352703 163.69796 
L 510.947179 148.310685 
L 512.541655 157.337951 
L 514.13613 152.003679 
L 515.730606 156.106993 
L 517.325081 157.74827 
L 518.919557 147.079727 
L 520.514032 153.234637 
L 522.108508 153.029538 
L 523.702983 156.106993 
L 525.297459 148.105586 
L 526.891934 156.927632 
L 528.48641 150.97782 
L 530.080885 145.64367 
L 531.675361 153.029538 
L 533.269836 147.695266 
L 534.864312 154.465595 
L 536.458788 148.105586 
L 538.053263 151.38814 
L 539.647739 143.797173 
L 541.242214 159.799866 
L 542.83669 144.412591 
L 544.431165 149.952083 
L 546.025641 147.490046 
L 547.620116 149.952083 
L 549.214592 149.131445 
L 550.809067 147.284947 
L 552.403543 151.946451 
L 553.998018 152.824318 
L 555.592494 146.874628 
L 557.186969 152.003679 
L 558.781445 150.567501 
L 560.37592 154.875914 
L 561.970396 146.874628 
L 563.564872 154.875914 
L 565.159347 148.721125 
L 566.753823 153.644956 
L 568.348298 144.412591 
L 569.942774 158.774007 
L 571.537249 149.541764 
L 573.131725 148.926224 
L 574.7262 148.926224 
L 576.320676 143.386854 
L 577.915151 149.541764 
L 579.509627 143.797173 
L 581.104102 152.824318 
L 582.698578 144.82291 
L 584.293053 149.131445 
L 585.887529 146.464309 
L 587.482005 151.59336 
L 590.670956 140.514497 
L 592.265431 152.003679 
L 593.859907 151.59336 
L 595.454382 154.260496 
L 597.048858 150.97782 
L 598.643333 151.59336 
L 600.237809 148.310685 
L 601.832284 143.797173 
L 603.42676 155.081134 
L 605.021235 155.286233 
L 606.615711 142.566215 
L 608.210186 148.926224 
L 609.804662 151.798459 
L 611.399138 142.976534 
L 612.993613 146.464309 
L 614.588089 142.155896 
L 616.182564 150.97782 
L 617.77704 149.541764 
L 619.371515 146.053989 
L 620.965991 156.927632 
L 622.560466 145.64367 
L 624.154942 150.362402 
L 625.749417 150.157182 
L 627.343893 140.719718 
L 628.938368 146.053989 
L 630.532844 155.286233 
L 632.127319 147.284947 
L 633.721795 147.695266 
L 635.316271 138.668122 
L 636.910746 139.693859 
L 638.505222 140.309399 
L 640.099697 147.490046 
L 641.694173 149.952083 
L 643.288648 147.284947 
L 644.883124 148.515905 
L 646.477599 149.131445 
L 648.072075 148.310685 
L 649.66655 144.412591 
L 651.261026 142.771314 
L 652.855501 155.491453 
L 654.449977 141.130037 
L 656.044452 151.183041 
L 657.638928 141.335257 
L 659.233404 137.437042 
L 660.827879 150.772721 
L 662.422355 142.771314 
L 665.611306 152.413998 
L 667.205781 152.208778 
L 668.800257 141.745577 
L 670.394732 151.38814 
L 671.989208 140.104178 
L 673.583683 155.696552 
L 675.178159 144.82291 
L 676.772634 156.722411 
L 678.36711 146.259088 
L 679.961585 152.208778 
L 681.556061 142.566215 
L 683.150537 141.540356 
L 684.745012 150.97782 
L 686.339488 145.028131 
L 687.933963 145.233351 
L 687.933963 145.233351 
" style="fill:none;stroke:#4daf4a;stroke-linecap:square;stroke-opacity:0.25098;stroke-width:1.5;"/>
   </g>
   <g id="patch_3">
    <path d="M 50.14375 337.159219 
L 50.14375 10.999219 
" style="fill:none;stroke:#000000;stroke-linecap:square;stroke-linejoin:miter;stroke-width:0.8;"/>
   </g>
   <g id="patch_4">
    <path d="M 719.74375 337.159219 
L 719.74375 10.999219 
" style="fill:none;stroke:#000000;stroke-linecap:square;stroke-linejoin:miter;stroke-width:0.8;"/>
   </g>
   <g id="patch_5">
    <path d="M 50.14375 337.159219 
L 719.74375 337.159219 
" style="fill:none;stroke:#000000;stroke-linecap:square;stroke-linejoin:miter;stroke-width:0.8;"/>
   </g>
   <g id="patch_6">
    <path d="M 50.14375 10.999219 
L 719.74375 10.999219 
" style="fill:none;stroke:#000000;stroke-linecap:square;stroke-linejoin:miter;stroke-width:0.8;"/>
   </g>
   <g id="legend_1">
    <g id="patch_7">
     <path d="M 57.14375 48.355469 
L 114.584375 48.355469 
Q 116.584375 48.355469 116.584375 46.355469 
L 116.584375 17.999219 
Q 116.584375 15.999219 114.584375 15.999219 
L 57.14375 15.999219 
Q 55.14375 15.999219 55.14375 17.999219 
L 55.14375 46.355469 
Q 55.14375 48.355469 57.14375 48.355469 
z
" style="fill:#ffffff;opacity:0.8;stroke:#cccccc;stroke-linejoin:miter;"/>
    </g>
    <g id="line2d_41">
     <path d="M 59.14375 24.097656 
L 79.14375 24.097656 
" style="fill:none;stroke:#377eb8;stroke-linecap:square;stroke-width:2;"/>
    </g>
    <g id="line2d_42"/>
    <g id="text_21">
     <!-- Train -->
     <defs>
      <path d="M -0.296875 72.90625 
L 61.375 72.90625 
L 61.375 64.59375 
L 35.5 64.59375 
L 35.5 0 
L 25.59375 0 
L 25.59375 64.59375 
L -0.296875 64.59375 
z
" id="DejaVuSans-84"/>
      <path d="M 9.421875 54.6875 
L 18.40625 54.6875 
L 18.40625 0 
L 9.421875 0 
z
M 9.421875 75.984375 
L 18.40625 75.984375 
L 18.40625 64.59375 
L 9.421875 64.59375 
z
" id="DejaVuSans-105"/>
      <path d="M 54.890625 33.015625 
L 54.890625 0 
L 45.90625 0 
L 45.90625 32.71875 
Q 45.90625 40.484375 42.875 44.328125 
Q 39.84375 48.1875 33.796875 48.1875 
Q 26.515625 48.1875 22.3125 43.546875 
Q 18.109375 38.921875 18.109375 30.90625 
L 18.109375 0 
L 9.078125 0 
L 9.078125 54.6875 
L 18.109375 54.6875 
L 18.109375 46.1875 
Q 21.34375 51.125 25.703125 53.5625 
Q 30.078125 56 35.796875 56 
Q 45.21875 56 50.046875 50.171875 
Q 54.890625 44.34375 54.890625 33.015625 
z
" id="DejaVuSans-110"/>
     </defs>
     <g transform="translate(87.14375 27.597656)scale(0.1 -0.1)">
      <use xlink:href="#DejaVuSans-84"/>
      <use x="60.865234" xlink:href="#DejaVuSans-114"/>
      <use x="101.978516" xlink:href="#DejaVuSans-97"/>
      <use x="163.257812" xlink:href="#DejaVuSans-105"/>
      <use x="191.041016" xlink:href="#DejaVuSans-110"/>
     </g>
    </g>
    <g id="line2d_43">
     <path d="M 59.14375 38.775781 
L 79.14375 38.775781 
" style="fill:none;stroke:#4daf4a;stroke-linecap:square;stroke-width:2;"/>
    </g>
    <g id="line2d_44"/>
    <g id="text_22">
     <!-- Test -->
     <defs>
      <path d="M 56.203125 29.59375 
L 56.203125 25.203125 
L 14.890625 25.203125 
Q 15.484375 15.921875 20.484375 11.0625 
Q 25.484375 6.203125 34.421875 6.203125 
Q 39.59375 6.203125 44.453125 7.46875 
Q 49.3125 8.734375 54.109375 11.28125 
L 54.109375 2.78125 
Q 49.265625 0.734375 44.1875 -0.34375 
Q 39.109375 -1.421875 33.890625 -1.421875 
Q 20.796875 -1.421875 13.15625 6.1875 
Q 5.515625 13.8125 5.515625 26.8125 
Q 5.515625 40.234375 12.765625 48.109375 
Q 20.015625 56 32.328125 56 
Q 43.359375 56 49.78125 48.890625 
Q 56.203125 41.796875 56.203125 29.59375 
z
M 47.21875 32.234375 
Q 47.125 39.59375 43.09375 43.984375 
Q 39.0625 48.390625 32.421875 48.390625 
Q 24.90625 48.390625 20.390625 44.140625 
Q 15.875 39.890625 15.1875 32.171875 
z
" id="DejaVuSans-101"/>
      <path d="M 44.28125 53.078125 
L 44.28125 44.578125 
Q 40.484375 46.53125 36.375 47.5 
Q 32.28125 48.484375 27.875 48.484375 
Q 21.1875 48.484375 17.84375 46.4375 
Q 14.5 44.390625 14.5 40.28125 
Q 14.5 37.15625 16.890625 35.375 
Q 19.28125 33.59375 26.515625 31.984375 
L 29.59375 31.296875 
Q 39.15625 29.25 43.1875 25.515625 
Q 47.21875 21.78125 47.21875 15.09375 
Q 47.21875 7.46875 41.1875 3.015625 
Q 35.15625 -1.421875 24.609375 -1.421875 
Q 20.21875 -1.421875 15.453125 -0.5625 
Q 10.6875 0.296875 5.421875 2 
L 5.421875 11.28125 
Q 10.40625 8.6875 15.234375 7.390625 
Q 20.0625 6.109375 24.8125 6.109375 
Q 31.15625 6.109375 34.5625 8.28125 
Q 37.984375 10.453125 37.984375 14.40625 
Q 37.984375 18.0625 35.515625 20.015625 
Q 33.0625 21.96875 24.703125 23.78125 
L 21.578125 24.515625 
Q 13.234375 26.265625 9.515625 29.90625 
Q 5.8125 33.546875 5.8125 39.890625 
Q 5.8125 47.609375 11.28125 51.796875 
Q 16.75 56 26.8125 56 
Q 31.78125 56 36.171875 55.265625 
Q 40.578125 54.546875 44.28125 53.078125 
z
" id="DejaVuSans-115"/>
      <path d="M 18.3125 70.21875 
L 18.3125 54.6875 
L 36.8125 54.6875 
L 36.8125 47.703125 
L 18.3125 47.703125 
L 18.3125 18.015625 
Q 18.3125 11.328125 20.140625 9.421875 
Q 21.96875 7.515625 27.59375 7.515625 
L 36.8125 7.515625 
L 36.8125 0 
L 27.59375 0 
Q 17.1875 0 13.234375 3.875 
Q 9.28125 7.765625 9.28125 18.015625 
L 9.28125 47.703125 
L 2.6875 47.703125 
L 2.6875 54.6875 
L 9.28125 54.6875 
L 9.28125 70.21875 
z
" id="DejaVuSans-116"/>
     </defs>
     <g transform="translate(87.14375 42.275781)scale(0.1 -0.1)">
      <use xlink:href="#DejaVuSans-84"/>
      <use x="60.818359" xlink:href="#DejaVuSans-101"/>
      <use x="122.341797" xlink:href="#DejaVuSans-115"/>
      <use x="174.441406" xlink:href="#DejaVuSans-116"/>
     </g>
    </g>
   </g>
  </g>
 </g>
 <defs>
  <clipPath id="pead715ada6">
   <rect height="326.16" width="669.6" x="50.14375" y="10.999219"/>
  </clipPath>
 </defs>
</svg>
