<?xml version="1.0" encoding="utf-8" standalone="no"?>
<!DOCTYPE svg PUBLIC "-//W3C//DTD SVG 1.1//EN"
  "http://www.w3.org/Graphics/SVG/1.1/DTD/svg11.dtd">
<!-- Created with matplotlib (https://matplotlib.org/) -->
<svg height="374.715469pt" version="1.1" viewBox="0 0 726.94375 374.715469" width="726.94375pt" xmlns="http://www.w3.org/2000/svg" xmlns:xlink="http://www.w3.org/1999/xlink">
 <defs>
  <style type="text/css">
*{stroke-linecap:butt;stroke-linejoin:round;white-space:pre;}
  </style>
 </defs>
 <g id="figure_1">
  <g id="patch_1">
   <path d="M 0 374.715469 
L 726.94375 374.715469 
L 726.94375 0 
L 0 0 
z
" style="fill:#ffffff;"/>
  </g>
  <g id="axes_1">
   <g id="patch_2">
    <path d="M 50.14375 337.159219 
L 719.74375 337.159219 
L 719.74375 10.999219 
L 50.14375 10.999219 
z
" style="fill:#ffffff;"/>
   </g>
   <g id="matplotlib.axis_1">
    <g id="xtick_1">
     <g id="line2d_1">
      <path clip-path="url(#p74fd9a041e)" d="M 50.14375 337.159219 
L 50.14375 10.999219 
" style="fill:none;stroke:#b0b0b0;stroke-linecap:square;stroke-width:0.8;"/>
     </g>
     <g id="line2d_2">
      <defs>
       <path d="M 0 0 
L 0 3.5 
" id="m9c40959769" style="stroke:#000000;stroke-width:0.8;"/>
      </defs>
      <g>
       <use style="stroke:#000000;stroke-width:0.8;" x="50.14375" xlink:href="#m9c40959769" y="337.159219"/>
      </g>
     </g>
     <g id="text_1">
      <!-- 0 -->
      <defs>
       <path d="M 31.78125 66.40625 
Q 24.171875 66.40625 20.328125 58.90625 
Q 16.5 51.421875 16.5 36.375 
Q 16.5 21.390625 20.328125 13.890625 
Q 24.171875 6.390625 31.78125 6.390625 
Q 39.453125 6.390625 43.28125 13.890625 
Q 47.125 21.390625 47.125 36.375 
Q 47.125 51.421875 43.28125 58.90625 
Q 39.453125 66.40625 31.78125 66.40625 
z
M 31.78125 74.21875 
Q 44.046875 74.21875 50.515625 64.515625 
Q 56.984375 54.828125 56.984375 36.375 
Q 56.984375 17.96875 50.515625 8.265625 
Q 44.046875 -1.421875 31.78125 -1.421875 
Q 19.53125 -1.421875 13.0625 8.265625 
Q 6.59375 17.96875 6.59375 36.375 
Q 6.59375 54.828125 13.0625 64.515625 
Q 19.53125 74.21875 31.78125 74.21875 
z
" id="DejaVuSans-48"/>
      </defs>
      <g transform="translate(46.9625 351.757656)scale(0.1 -0.1)">
       <use xlink:href="#DejaVuSans-48"/>
      </g>
     </g>
    </g>
    <g id="xtick_2">
     <g id="line2d_3">
      <path clip-path="url(#p74fd9a041e)" d="M 174.703114 337.159219 
L 174.703114 10.999219 
" style="fill:none;stroke:#b0b0b0;stroke-linecap:square;stroke-width:0.8;"/>
     </g>
     <g id="line2d_4">
      <g>
       <use style="stroke:#000000;stroke-width:0.8;" x="174.703114" xlink:href="#m9c40959769" y="337.159219"/>
      </g>
     </g>
     <g id="text_2">
      <!-- 200 -->
      <defs>
       <path d="M 19.1875 8.296875 
L 53.609375 8.296875 
L 53.609375 0 
L 7.328125 0 
L 7.328125 8.296875 
Q 12.9375 14.109375 22.625 23.890625 
Q 32.328125 33.6875 34.8125 36.53125 
Q 39.546875 41.84375 41.421875 45.53125 
Q 43.3125 49.21875 43.3125 52.78125 
Q 43.3125 58.59375 39.234375 62.25 
Q 35.15625 65.921875 28.609375 65.921875 
Q 23.96875 65.921875 18.8125 64.3125 
Q 13.671875 62.703125 7.8125 59.421875 
L 7.8125 69.390625 
Q 13.765625 71.78125 18.9375 73 
Q 24.125 74.21875 28.421875 74.21875 
Q 39.75 74.21875 46.484375 68.546875 
Q 53.21875 62.890625 53.21875 53.421875 
Q 53.21875 48.921875 51.53125 44.890625 
Q 49.859375 40.875 45.40625 35.40625 
Q 44.1875 33.984375 37.640625 27.21875 
Q 31.109375 20.453125 19.1875 8.296875 
z
" id="DejaVuSans-50"/>
      </defs>
      <g transform="translate(165.159364 351.757656)scale(0.1 -0.1)">
       <use xlink:href="#DejaVuSans-50"/>
       <use x="63.623047" xlink:href="#DejaVuSans-48"/>
       <use x="127.246094" xlink:href="#DejaVuSans-48"/>
      </g>
     </g>
    </g>
    <g id="xtick_3">
     <g id="line2d_5">
      <path clip-path="url(#p74fd9a041e)" d="M 299.262478 337.159219 
L 299.262478 10.999219 
" style="fill:none;stroke:#b0b0b0;stroke-linecap:square;stroke-width:0.8;"/>
     </g>
     <g id="line2d_6">
      <g>
       <use style="stroke:#000000;stroke-width:0.8;" x="299.262478" xlink:href="#m9c40959769" y="337.159219"/>
      </g>
     </g>
     <g id="text_3">
      <!-- 400 -->
      <defs>
       <path d="M 37.796875 64.3125 
L 12.890625 25.390625 
L 37.796875 25.390625 
z
M 35.203125 72.90625 
L 47.609375 72.90625 
L 47.609375 25.390625 
L 58.015625 25.390625 
L 58.015625 17.1875 
L 47.609375 17.1875 
L 47.609375 0 
L 37.796875 0 
L 37.796875 17.1875 
L 4.890625 17.1875 
L 4.890625 26.703125 
z
" id="DejaVuSans-52"/>
      </defs>
      <g transform="translate(289.718728 351.757656)scale(0.1 -0.1)">
       <use xlink:href="#DejaVuSans-52"/>
       <use x="63.623047" xlink:href="#DejaVuSans-48"/>
       <use x="127.246094" xlink:href="#DejaVuSans-48"/>
      </g>
     </g>
    </g>
    <g id="xtick_4">
     <g id="line2d_7">
      <path clip-path="url(#p74fd9a041e)" d="M 423.821841 337.159219 
L 423.821841 10.999219 
" style="fill:none;stroke:#b0b0b0;stroke-linecap:square;stroke-width:0.8;"/>
     </g>
     <g id="line2d_8">
      <g>
       <use style="stroke:#000000;stroke-width:0.8;" x="423.821841" xlink:href="#m9c40959769" y="337.159219"/>
      </g>
     </g>
     <g id="text_4">
      <!-- 600 -->
      <defs>
       <path d="M 33.015625 40.375 
Q 26.375 40.375 22.484375 35.828125 
Q 18.609375 31.296875 18.609375 23.390625 
Q 18.609375 15.53125 22.484375 10.953125 
Q 26.375 6.390625 33.015625 6.390625 
Q 39.65625 6.390625 43.53125 10.953125 
Q 47.40625 15.53125 47.40625 23.390625 
Q 47.40625 31.296875 43.53125 35.828125 
Q 39.65625 40.375 33.015625 40.375 
z
M 52.59375 71.296875 
L 52.59375 62.3125 
Q 48.875 64.0625 45.09375 64.984375 
Q 41.3125 65.921875 37.59375 65.921875 
Q 27.828125 65.921875 22.671875 59.328125 
Q 17.53125 52.734375 16.796875 39.40625 
Q 19.671875 43.65625 24.015625 45.921875 
Q 28.375 48.1875 33.59375 48.1875 
Q 44.578125 48.1875 50.953125 41.515625 
Q 57.328125 34.859375 57.328125 23.390625 
Q 57.328125 12.15625 50.6875 5.359375 
Q 44.046875 -1.421875 33.015625 -1.421875 
Q 20.359375 -1.421875 13.671875 8.265625 
Q 6.984375 17.96875 6.984375 36.375 
Q 6.984375 53.65625 15.1875 63.9375 
Q 23.390625 74.21875 37.203125 74.21875 
Q 40.921875 74.21875 44.703125 73.484375 
Q 48.484375 72.75 52.59375 71.296875 
z
" id="DejaVuSans-54"/>
      </defs>
      <g transform="translate(414.278091 351.757656)scale(0.1 -0.1)">
       <use xlink:href="#DejaVuSans-54"/>
       <use x="63.623047" xlink:href="#DejaVuSans-48"/>
       <use x="127.246094" xlink:href="#DejaVuSans-48"/>
      </g>
     </g>
    </g>
    <g id="xtick_5">
     <g id="line2d_9">
      <path clip-path="url(#p74fd9a041e)" d="M 548.381205 337.159219 
L 548.381205 10.999219 
" style="fill:none;stroke:#b0b0b0;stroke-linecap:square;stroke-width:0.8;"/>
     </g>
     <g id="line2d_10">
      <g>
       <use style="stroke:#000000;stroke-width:0.8;" x="548.381205" xlink:href="#m9c40959769" y="337.159219"/>
      </g>
     </g>
     <g id="text_5">
      <!-- 800 -->
      <defs>
       <path d="M 31.78125 34.625 
Q 24.75 34.625 20.71875 30.859375 
Q 16.703125 27.09375 16.703125 20.515625 
Q 16.703125 13.921875 20.71875 10.15625 
Q 24.75 6.390625 31.78125 6.390625 
Q 38.8125 6.390625 42.859375 10.171875 
Q 46.921875 13.96875 46.921875 20.515625 
Q 46.921875 27.09375 42.890625 30.859375 
Q 38.875 34.625 31.78125 34.625 
z
M 21.921875 38.8125 
Q 15.578125 40.375 12.03125 44.71875 
Q 8.5 49.078125 8.5 55.328125 
Q 8.5 64.0625 14.71875 69.140625 
Q 20.953125 74.21875 31.78125 74.21875 
Q 42.671875 74.21875 48.875 69.140625 
Q 55.078125 64.0625 55.078125 55.328125 
Q 55.078125 49.078125 51.53125 44.71875 
Q 48 40.375 41.703125 38.8125 
Q 48.828125 37.15625 52.796875 32.3125 
Q 56.78125 27.484375 56.78125 20.515625 
Q 56.78125 9.90625 50.3125 4.234375 
Q 43.84375 -1.421875 31.78125 -1.421875 
Q 19.734375 -1.421875 13.25 4.234375 
Q 6.78125 9.90625 6.78125 20.515625 
Q 6.78125 27.484375 10.78125 32.3125 
Q 14.796875 37.15625 21.921875 38.8125 
z
M 18.3125 54.390625 
Q 18.3125 48.734375 21.84375 45.5625 
Q 25.390625 42.390625 31.78125 42.390625 
Q 38.140625 42.390625 41.71875 45.5625 
Q 45.3125 48.734375 45.3125 54.390625 
Q 45.3125 60.0625 41.71875 63.234375 
Q 38.140625 66.40625 31.78125 66.40625 
Q 25.390625 66.40625 21.84375 63.234375 
Q 18.3125 60.0625 18.3125 54.390625 
z
" id="DejaVuSans-56"/>
      </defs>
      <g transform="translate(538.837455 351.757656)scale(0.1 -0.1)">
       <use xlink:href="#DejaVuSans-56"/>
       <use x="63.623047" xlink:href="#DejaVuSans-48"/>
       <use x="127.246094" xlink:href="#DejaVuSans-48"/>
      </g>
     </g>
    </g>
    <g id="xtick_6">
     <g id="line2d_11">
      <path clip-path="url(#p74fd9a041e)" d="M 672.940569 337.159219 
L 672.940569 10.999219 
" style="fill:none;stroke:#b0b0b0;stroke-linecap:square;stroke-width:0.8;"/>
     </g>
     <g id="line2d_12">
      <g>
       <use style="stroke:#000000;stroke-width:0.8;" x="672.940569" xlink:href="#m9c40959769" y="337.159219"/>
      </g>
     </g>
     <g id="text_6">
      <!-- 1000 -->
      <defs>
       <path d="M 12.40625 8.296875 
L 28.515625 8.296875 
L 28.515625 63.921875 
L 10.984375 60.40625 
L 10.984375 69.390625 
L 28.421875 72.90625 
L 38.28125 72.90625 
L 38.28125 8.296875 
L 54.390625 8.296875 
L 54.390625 0 
L 12.40625 0 
z
" id="DejaVuSans-49"/>
      </defs>
      <g transform="translate(660.215569 351.757656)scale(0.1 -0.1)">
       <use xlink:href="#DejaVuSans-49"/>
       <use x="63.623047" xlink:href="#DejaVuSans-48"/>
       <use x="127.246094" xlink:href="#DejaVuSans-48"/>
       <use x="190.869141" xlink:href="#DejaVuSans-48"/>
      </g>
     </g>
    </g>
    <g id="text_7">
     <!-- Epoch -->
     <defs>
      <path d="M 9.8125 72.90625 
L 55.90625 72.90625 
L 55.90625 64.59375 
L 19.671875 64.59375 
L 19.671875 43.015625 
L 54.390625 43.015625 
L 54.390625 34.71875 
L 19.671875 34.71875 
L 19.671875 8.296875 
L 56.78125 8.296875 
L 56.78125 0 
L 9.8125 0 
z
" id="DejaVuSans-69"/>
      <path d="M 18.109375 8.203125 
L 18.109375 -20.796875 
L 9.078125 -20.796875 
L 9.078125 54.6875 
L 18.109375 54.6875 
L 18.109375 46.390625 
Q 20.953125 51.265625 25.265625 53.625 
Q 29.59375 56 35.59375 56 
Q 45.5625 56 51.78125 48.09375 
Q 58.015625 40.1875 58.015625 27.296875 
Q 58.015625 14.40625 51.78125 6.484375 
Q 45.5625 -1.421875 35.59375 -1.421875 
Q 29.59375 -1.421875 25.265625 0.953125 
Q 20.953125 3.328125 18.109375 8.203125 
z
M 48.6875 27.296875 
Q 48.6875 37.203125 44.609375 42.84375 
Q 40.53125 48.484375 33.40625 48.484375 
Q 26.265625 48.484375 22.1875 42.84375 
Q 18.109375 37.203125 18.109375 27.296875 
Q 18.109375 17.390625 22.1875 11.75 
Q 26.265625 6.109375 33.40625 6.109375 
Q 40.53125 6.109375 44.609375 11.75 
Q 48.6875 17.390625 48.6875 27.296875 
z
" id="DejaVuSans-112"/>
      <path d="M 30.609375 48.390625 
Q 23.390625 48.390625 19.1875 42.75 
Q 14.984375 37.109375 14.984375 27.296875 
Q 14.984375 17.484375 19.15625 11.84375 
Q 23.34375 6.203125 30.609375 6.203125 
Q 37.796875 6.203125 41.984375 11.859375 
Q 46.1875 17.53125 46.1875 27.296875 
Q 46.1875 37.015625 41.984375 42.703125 
Q 37.796875 48.390625 30.609375 48.390625 
z
M 30.609375 56 
Q 42.328125 56 49.015625 48.375 
Q 55.71875 40.765625 55.71875 27.296875 
Q 55.71875 13.875 49.015625 6.21875 
Q 42.328125 -1.421875 30.609375 -1.421875 
Q 18.84375 -1.421875 12.171875 6.21875 
Q 5.515625 13.875 5.515625 27.296875 
Q 5.515625 40.765625 12.171875 48.375 
Q 18.84375 56 30.609375 56 
z
" id="DejaVuSans-111"/>
      <path d="M 48.78125 52.59375 
L 48.78125 44.1875 
Q 44.96875 46.296875 41.140625 47.34375 
Q 37.3125 48.390625 33.40625 48.390625 
Q 24.65625 48.390625 19.8125 42.84375 
Q 14.984375 37.3125 14.984375 27.296875 
Q 14.984375 17.28125 19.8125 11.734375 
Q 24.65625 6.203125 33.40625 6.203125 
Q 37.3125 6.203125 41.140625 7.25 
Q 44.96875 8.296875 48.78125 10.40625 
L 48.78125 2.09375 
Q 45.015625 0.34375 40.984375 -0.53125 
Q 36.96875 -1.421875 32.421875 -1.421875 
Q 20.0625 -1.421875 12.78125 6.34375 
Q 5.515625 14.109375 5.515625 27.296875 
Q 5.515625 40.671875 12.859375 48.328125 
Q 20.21875 56 33.015625 56 
Q 37.15625 56 41.109375 55.140625 
Q 45.0625 54.296875 48.78125 52.59375 
z
" id="DejaVuSans-99"/>
      <path d="M 54.890625 33.015625 
L 54.890625 0 
L 45.90625 0 
L 45.90625 32.71875 
Q 45.90625 40.484375 42.875 44.328125 
Q 39.84375 48.1875 33.796875 48.1875 
Q 26.515625 48.1875 22.3125 43.546875 
Q 18.109375 38.921875 18.109375 30.90625 
L 18.109375 0 
L 9.078125 0 
L 9.078125 75.984375 
L 18.109375 75.984375 
L 18.109375 46.1875 
Q 21.34375 51.125 25.703125 53.5625 
Q 30.078125 56 35.796875 56 
Q 45.21875 56 50.046875 50.171875 
Q 54.890625 44.34375 54.890625 33.015625 
z
" id="DejaVuSans-104"/>
     </defs>
     <g transform="translate(369.632813 365.435781)scale(0.1 -0.1)">
      <use xlink:href="#DejaVuSans-69"/>
      <use x="63.183594" xlink:href="#DejaVuSans-112"/>
      <use x="126.660156" xlink:href="#DejaVuSans-111"/>
      <use x="187.841797" xlink:href="#DejaVuSans-99"/>
      <use x="242.822266" xlink:href="#DejaVuSans-104"/>
     </g>
    </g>
   </g>
   <g id="matplotlib.axis_2">
    <g id="ytick_1">
     <g id="line2d_13">
      <path clip-path="url(#p74fd9a041e)" d="M 50.14375 337.159219 
L 719.74375 337.159219 
" style="fill:none;stroke:#b0b0b0;stroke-linecap:square;stroke-width:0.8;"/>
     </g>
     <g id="line2d_14">
      <defs>
       <path d="M 0 0 
L -3.5 0 
" id="m7420ac1671" style="stroke:#000000;stroke-width:0.8;"/>
      </defs>
      <g>
       <use style="stroke:#000000;stroke-width:0.8;" x="50.14375" xlink:href="#m7420ac1671" y="337.159219"/>
      </g>
     </g>
     <g id="text_8">
      <!-- 0.82 -->
      <defs>
       <path d="M 10.6875 12.40625 
L 21 12.40625 
L 21 0 
L 10.6875 0 
z
" id="DejaVuSans-46"/>
      </defs>
      <g transform="translate(20.878125 340.958437)scale(0.1 -0.1)">
       <use xlink:href="#DejaVuSans-48"/>
       <use x="63.623047" xlink:href="#DejaVuSans-46"/>
       <use x="95.410156" xlink:href="#DejaVuSans-56"/>
       <use x="159.033203" xlink:href="#DejaVuSans-50"/>
      </g>
     </g>
    </g>
    <g id="ytick_2">
     <g id="line2d_15">
      <path clip-path="url(#p74fd9a041e)" d="M 50.14375 296.389219 
L 719.74375 296.389219 
" style="fill:none;stroke:#b0b0b0;stroke-linecap:square;stroke-width:0.8;"/>
     </g>
     <g id="line2d_16">
      <g>
       <use style="stroke:#000000;stroke-width:0.8;" x="50.14375" xlink:href="#m7420ac1671" y="296.389219"/>
      </g>
     </g>
     <g id="text_9">
      <!-- 0.84 -->
      <g transform="translate(20.878125 300.188437)scale(0.1 -0.1)">
       <use xlink:href="#DejaVuSans-48"/>
       <use x="63.623047" xlink:href="#DejaVuSans-46"/>
       <use x="95.410156" xlink:href="#DejaVuSans-56"/>
       <use x="159.033203" xlink:href="#DejaVuSans-52"/>
      </g>
     </g>
    </g>
    <g id="ytick_3">
     <g id="line2d_17">
      <path clip-path="url(#p74fd9a041e)" d="M 50.14375 255.619219 
L 719.74375 255.619219 
" style="fill:none;stroke:#b0b0b0;stroke-linecap:square;stroke-width:0.8;"/>
     </g>
     <g id="line2d_18">
      <g>
       <use style="stroke:#000000;stroke-width:0.8;" x="50.14375" xlink:href="#m7420ac1671" y="255.619219"/>
      </g>
     </g>
     <g id="text_10">
      <!-- 0.86 -->
      <g transform="translate(20.878125 259.418437)scale(0.1 -0.1)">
       <use xlink:href="#DejaVuSans-48"/>
       <use x="63.623047" xlink:href="#DejaVuSans-46"/>
       <use x="95.410156" xlink:href="#DejaVuSans-56"/>
       <use x="159.033203" xlink:href="#DejaVuSans-54"/>
      </g>
     </g>
    </g>
    <g id="ytick_4">
     <g id="line2d_19">
      <path clip-path="url(#p74fd9a041e)" d="M 50.14375 214.849219 
L 719.74375 214.849219 
" style="fill:none;stroke:#b0b0b0;stroke-linecap:square;stroke-width:0.8;"/>
     </g>
     <g id="line2d_20">
      <g>
       <use style="stroke:#000000;stroke-width:0.8;" x="50.14375" xlink:href="#m7420ac1671" y="214.849219"/>
      </g>
     </g>
     <g id="text_11">
      <!-- 0.88 -->
      <g transform="translate(20.878125 218.648437)scale(0.1 -0.1)">
       <use xlink:href="#DejaVuSans-48"/>
       <use x="63.623047" xlink:href="#DejaVuSans-46"/>
       <use x="95.410156" xlink:href="#DejaVuSans-56"/>
       <use x="159.033203" xlink:href="#DejaVuSans-56"/>
      </g>
     </g>
    </g>
    <g id="ytick_5">
     <g id="line2d_21">
      <path clip-path="url(#p74fd9a041e)" d="M 50.14375 174.079219 
L 719.74375 174.079219 
" style="fill:none;stroke:#b0b0b0;stroke-linecap:square;stroke-width:0.8;"/>
     </g>
     <g id="line2d_22">
      <g>
       <use style="stroke:#000000;stroke-width:0.8;" x="50.14375" xlink:href="#m7420ac1671" y="174.079219"/>
      </g>
     </g>
     <g id="text_12">
      <!-- 0.90 -->
      <defs>
       <path d="M 10.984375 1.515625 
L 10.984375 10.5 
Q 14.703125 8.734375 18.5 7.8125 
Q 22.3125 6.890625 25.984375 6.890625 
Q 35.75 6.890625 40.890625 13.453125 
Q 46.046875 20.015625 46.78125 33.40625 
Q 43.953125 29.203125 39.59375 26.953125 
Q 35.25 24.703125 29.984375 24.703125 
Q 19.046875 24.703125 12.671875 31.3125 
Q 6.296875 37.9375 6.296875 49.421875 
Q 6.296875 60.640625 12.9375 67.421875 
Q 19.578125 74.21875 30.609375 74.21875 
Q 43.265625 74.21875 49.921875 64.515625 
Q 56.59375 54.828125 56.59375 36.375 
Q 56.59375 19.140625 48.40625 8.859375 
Q 40.234375 -1.421875 26.421875 -1.421875 
Q 22.703125 -1.421875 18.890625 -0.6875 
Q 15.09375 0.046875 10.984375 1.515625 
z
M 30.609375 32.421875 
Q 37.25 32.421875 41.125 36.953125 
Q 45.015625 41.5 45.015625 49.421875 
Q 45.015625 57.28125 41.125 61.84375 
Q 37.25 66.40625 30.609375 66.40625 
Q 23.96875 66.40625 20.09375 61.84375 
Q 16.21875 57.28125 16.21875 49.421875 
Q 16.21875 41.5 20.09375 36.953125 
Q 23.96875 32.421875 30.609375 32.421875 
z
" id="DejaVuSans-57"/>
      </defs>
      <g transform="translate(20.878125 177.878437)scale(0.1 -0.1)">
       <use xlink:href="#DejaVuSans-48"/>
       <use x="63.623047" xlink:href="#DejaVuSans-46"/>
       <use x="95.410156" xlink:href="#DejaVuSans-57"/>
       <use x="159.033203" xlink:href="#DejaVuSans-48"/>
      </g>
     </g>
    </g>
    <g id="ytick_6">
     <g id="line2d_23">
      <path clip-path="url(#p74fd9a041e)" d="M 50.14375 133.309219 
L 719.74375 133.309219 
" style="fill:none;stroke:#b0b0b0;stroke-linecap:square;stroke-width:0.8;"/>
     </g>
     <g id="line2d_24">
      <g>
       <use style="stroke:#000000;stroke-width:0.8;" x="50.14375" xlink:href="#m7420ac1671" y="133.309219"/>
      </g>
     </g>
     <g id="text_13">
      <!-- 0.92 -->
      <g transform="translate(20.878125 137.108437)scale(0.1 -0.1)">
       <use xlink:href="#DejaVuSans-48"/>
       <use x="63.623047" xlink:href="#DejaVuSans-46"/>
       <use x="95.410156" xlink:href="#DejaVuSans-57"/>
       <use x="159.033203" xlink:href="#DejaVuSans-50"/>
      </g>
     </g>
    </g>
    <g id="ytick_7">
     <g id="line2d_25">
      <path clip-path="url(#p74fd9a041e)" d="M 50.14375 92.539219 
L 719.74375 92.539219 
" style="fill:none;stroke:#b0b0b0;stroke-linecap:square;stroke-width:0.8;"/>
     </g>
     <g id="line2d_26">
      <g>
       <use style="stroke:#000000;stroke-width:0.8;" x="50.14375" xlink:href="#m7420ac1671" y="92.539219"/>
      </g>
     </g>
     <g id="text_14">
      <!-- 0.94 -->
      <g transform="translate(20.878125 96.338437)scale(0.1 -0.1)">
       <use xlink:href="#DejaVuSans-48"/>
       <use x="63.623047" xlink:href="#DejaVuSans-46"/>
       <use x="95.410156" xlink:href="#DejaVuSans-57"/>
       <use x="159.033203" xlink:href="#DejaVuSans-52"/>
      </g>
     </g>
    </g>
    <g id="ytick_8">
     <g id="line2d_27">
      <path clip-path="url(#p74fd9a041e)" d="M 50.14375 51.769219 
L 719.74375 51.769219 
" style="fill:none;stroke:#b0b0b0;stroke-linecap:square;stroke-width:0.8;"/>
     </g>
     <g id="line2d_28">
      <g>
       <use style="stroke:#000000;stroke-width:0.8;" x="50.14375" xlink:href="#m7420ac1671" y="51.769219"/>
      </g>
     </g>
     <g id="text_15">
      <!-- 0.96 -->
      <g transform="translate(20.878125 55.568437)scale(0.1 -0.1)">
       <use xlink:href="#DejaVuSans-48"/>
       <use x="63.623047" xlink:href="#DejaVuSans-46"/>
       <use x="95.410156" xlink:href="#DejaVuSans-57"/>
       <use x="159.033203" xlink:href="#DejaVuSans-54"/>
      </g>
     </g>
    </g>
    <g id="ytick_9">
     <g id="line2d_29">
      <path clip-path="url(#p74fd9a041e)" d="M 50.14375 10.999219 
L 719.74375 10.999219 
" style="fill:none;stroke:#b0b0b0;stroke-linecap:square;stroke-width:0.8;"/>
     </g>
     <g id="line2d_30">
      <g>
       <use style="stroke:#000000;stroke-width:0.8;" x="50.14375" xlink:href="#m7420ac1671" y="10.999219"/>
      </g>
     </g>
     <g id="text_16">
      <!-- 0.98 -->
      <g transform="translate(20.878125 14.798437)scale(0.1 -0.1)">
       <use xlink:href="#DejaVuSans-48"/>
       <use x="63.623047" xlink:href="#DejaVuSans-46"/>
       <use x="95.410156" xlink:href="#DejaVuSans-57"/>
       <use x="159.033203" xlink:href="#DejaVuSans-56"/>
      </g>
     </g>
    </g>
    <g id="text_17">
     <!-- Accuracy -->
     <defs>
      <path d="M 34.1875 63.1875 
L 20.796875 26.90625 
L 47.609375 26.90625 
z
M 28.609375 72.90625 
L 39.796875 72.90625 
L 67.578125 0 
L 57.328125 0 
L 50.6875 18.703125 
L 17.828125 18.703125 
L 11.1875 0 
L 0.78125 0 
z
" id="DejaVuSans-65"/>
      <path d="M 8.5 21.578125 
L 8.5 54.6875 
L 17.484375 54.6875 
L 17.484375 21.921875 
Q 17.484375 14.15625 20.5 10.265625 
Q 23.53125 6.390625 29.59375 6.390625 
Q 36.859375 6.390625 41.078125 11.03125 
Q 45.3125 15.671875 45.3125 23.6875 
L 45.3125 54.6875 
L 54.296875 54.6875 
L 54.296875 0 
L 45.3125 0 
L 45.3125 8.40625 
Q 42.046875 3.421875 37.71875 1 
Q 33.40625 -1.421875 27.6875 -1.421875 
Q 18.265625 -1.421875 13.375 4.4375 
Q 8.5 10.296875 8.5 21.578125 
z
M 31.109375 56 
z
" id="DejaVuSans-117"/>
      <path d="M 41.109375 46.296875 
Q 39.59375 47.171875 37.8125 47.578125 
Q 36.03125 48 33.890625 48 
Q 26.265625 48 22.1875 43.046875 
Q 18.109375 38.09375 18.109375 28.8125 
L 18.109375 0 
L 9.078125 0 
L 9.078125 54.6875 
L 18.109375 54.6875 
L 18.109375 46.1875 
Q 20.953125 51.171875 25.484375 53.578125 
Q 30.03125 56 36.53125 56 
Q 37.453125 56 38.578125 55.875 
Q 39.703125 55.765625 41.0625 55.515625 
z
" id="DejaVuSans-114"/>
      <path d="M 34.28125 27.484375 
Q 23.390625 27.484375 19.1875 25 
Q 14.984375 22.515625 14.984375 16.5 
Q 14.984375 11.71875 18.140625 8.90625 
Q 21.296875 6.109375 26.703125 6.109375 
Q 34.1875 6.109375 38.703125 11.40625 
Q 43.21875 16.703125 43.21875 25.484375 
L 43.21875 27.484375 
z
M 52.203125 31.203125 
L 52.203125 0 
L 43.21875 0 
L 43.21875 8.296875 
Q 40.140625 3.328125 35.546875 0.953125 
Q 30.953125 -1.421875 24.3125 -1.421875 
Q 15.921875 -1.421875 10.953125 3.296875 
Q 6 8.015625 6 15.921875 
Q 6 25.140625 12.171875 29.828125 
Q 18.359375 34.515625 30.609375 34.515625 
L 43.21875 34.515625 
L 43.21875 35.40625 
Q 43.21875 41.609375 39.140625 45 
Q 35.0625 48.390625 27.6875 48.390625 
Q 23 48.390625 18.546875 47.265625 
Q 14.109375 46.140625 10.015625 43.890625 
L 10.015625 52.203125 
Q 14.9375 54.109375 19.578125 55.046875 
Q 24.21875 56 28.609375 56 
Q 40.484375 56 46.34375 49.84375 
Q 52.203125 43.703125 52.203125 31.203125 
z
" id="DejaVuSans-97"/>
      <path d="M 32.171875 -5.078125 
Q 28.375 -14.84375 24.75 -17.8125 
Q 21.140625 -20.796875 15.09375 -20.796875 
L 7.90625 -20.796875 
L 7.90625 -13.28125 
L 13.1875 -13.28125 
Q 16.890625 -13.28125 18.9375 -11.515625 
Q 21 -9.765625 23.484375 -3.21875 
L 25.09375 0.875 
L 2.984375 54.6875 
L 12.5 54.6875 
L 29.59375 11.921875 
L 46.6875 54.6875 
L 56.203125 54.6875 
z
" id="DejaVuSans-121"/>
     </defs>
     <g transform="translate(14.798438 196.994062)rotate(-90)scale(0.1 -0.1)">
      <use xlink:href="#DejaVuSans-65"/>
      <use x="68.392578" xlink:href="#DejaVuSans-99"/>
      <use x="123.373047" xlink:href="#DejaVuSans-99"/>
      <use x="178.353516" xlink:href="#DejaVuSans-117"/>
      <use x="241.732422" xlink:href="#DejaVuSans-114"/>
      <use x="282.845703" xlink:href="#DejaVuSans-97"/>
      <use x="344.125" xlink:href="#DejaVuSans-99"/>
      <use x="399.105469" xlink:href="#DejaVuSans-121"/>
     </g>
    </g>
   </g>
   <g id="line2d_31">
    <path clip-path="url(#p74fd9a041e)" d="M 70.992189 375.715469 
L 71.318842 372.374271 
L 71.941639 369.061706 
L 73.187232 359.990455 
L 73.810029 357.90095 
L 74.432826 366.105877 
L 75.055623 351.071935 
L 75.67842 350.154701 
L 76.301216 348.829578 
L 76.924013 351.275819 
L 77.54681 349.746933 
L 78.169607 342.91804 
L 78.792404 342.102626 
L 79.4152 337.159233 
L 80.037997 337.006381 
L 80.660794 337.719853 
L 81.283591 331.094722 
L 81.906388 323.1955 
L 82.529185 325.539799 
L 83.151981 323.042648 
L 83.774778 318.710785 
L 84.397575 319.220373 
L 85.020372 317.232931 
L 85.643169 316.315575 
L 86.265966 311.932802 
L 86.888762 309.792386 
L 87.511559 310.505858 
L 88.757153 305.919201 
L 90.002746 306.734615 
L 90.625543 298.68254 
L 91.24834 299.9056 
L 92.493934 300.262336 
L 93.116731 300.568162 
L 93.739527 293.535263 
L 94.362324 291.343937 
L 95.607918 293.229559 
L 96.230715 293.382411 
L 96.853511 291.802615 
L 97.476308 289.203522 
L 98.099105 280.692769 
L 98.721902 288.846786 
L 99.344699 287.012074 
L 99.967496 277.278262 
L 100.590292 282.272565 
L 101.213089 283.546657 
L 101.835886 272.99743 
L 102.458683 283.393805 
L 103.08148 274.984994 
L 103.704276 273.761813 
L 104.327073 277.329294 
L 104.94987 270.805983 
L 105.572667 269.582923 
L 106.195464 274.373464 
L 106.818261 268.920483 
L 107.441057 277.329294 
L 108.063854 269.226187 
L 108.686651 269.379039 
L 109.309448 263.97709 
L 109.932245 264.741472 
L 110.555041 265.251182 
L 111.800635 263.875148 
L 112.423432 258.116341 
L 113.046229 266.117506 
L 113.669026 258.116341 
L 114.291822 255.61919 
L 114.914619 263.263618 
L 116.160213 250.930712 
L 117.405806 257.606753 
L 118.028603 256.842371 
L 118.6514 253.122038 
L 119.274197 252.765302 
L 119.896994 255.721132 
L 120.519791 248.943149 
L 121.142587 247.669057 
L 121.765384 252.00092 
L 122.388181 244.25455 
L 123.010978 248.586413 
L 123.633775 248.076825 
L 124.256571 240.63628 
L 124.879368 248.688355 
L 125.502165 247.363353 
L 126.124962 241.349752 
L 126.747759 244.050787 
L 127.370556 237.578509 
L 127.993352 241.349752 
L 128.616149 237.170741 
L 129.238946 240.534338 
L 129.861743 236.406359 
L 130.48454 242.776696 
L 131.107336 232.991851 
L 131.730133 240.63628 
L 132.35293 238.190039 
L 132.975727 236.763095 
L 133.598524 237.170741 
L 134.221321 236.151565 
L 134.844117 238.90351 
L 135.466914 235.896771 
L 136.089711 225.041719 
L 136.712508 234.316853 
L 137.335305 228.914904 
L 138.580898 231.66685 
L 139.203695 228.303374 
L 139.826492 227.589902 
L 140.449289 226.009985 
L 141.072086 231.412056 
L 141.694882 226.570604 
L 142.317679 224.735893 
L 142.940476 226.774488 
L 143.563273 225.551307 
L 144.18607 227.233166 
L 144.808866 219.69068 
L 145.431663 221.168534 
L 146.05446 226.213868 
L 146.677257 220.404151 
L 147.300054 218.467498 
L 147.922851 219.537827 
L 148.545647 226.213868 
L 149.168444 218.875266 
L 149.791241 220.811798 
L 150.414038 223.665685 
L 151.036835 218.110762 
L 151.659632 216.887702 
L 152.282428 222.697419 
L 152.905225 215.307906 
L 153.528022 215.358817 
L 154.150819 212.912697 
L 154.773616 215.053112 
L 155.396412 218.008942 
L 156.019209 215.155054 
L 156.642006 211.536663 
L 157.264803 214.288609 
L 157.8876 218.875266 
L 158.510397 209.192364 
L 159.133193 211.689515 
L 159.75599 212.504929 
L 160.378787 215.5627 
L 161.001584 212.708813 
L 161.624381 208.071246 
L 162.247177 210.058688 
L 162.869974 213.371253 
L 163.492771 207.663478 
L 164.115568 206.950006 
L 164.738365 214.95117 
L 165.361162 211.536663 
L 165.983958 211.281869 
L 166.606755 207.001038 
L 167.229552 209.854925 
L 167.852349 207.71451 
L 168.475146 204.75868 
L 169.097942 205.726946 
L 169.720739 201.395083 
L 170.343536 203.790414 
L 170.966333 201.853761 
L 171.58913 202.822027 
L 172.211927 207.051948 
L 172.834723 203.790414 
L 173.45752 205.675914 
L 174.080317 208.275008 
L 174.703114 206.389386 
L 175.325911 206.236534 
L 175.948707 199.203757 
L 176.571504 201.649877 
L 177.194301 201.242231 
L 177.817098 202.465291 
L 178.439895 201.038347 
L 179.062692 193.292098 
L 179.685488 197.470988 
L 180.308285 199.815287 
L 180.931082 198.133549 
L 181.553879 197.267104 
L 182.176676 194.769952 
L 182.799472 198.388343 
L 183.422269 201.089379 
L 184.045066 200.222933 
L 184.667863 194.362306 
L 185.29066 195.432514 
L 185.913457 193.241066 
L 186.536253 194.719042 
L 187.15905 197.776813 
L 187.781847 195.585366 
L 188.404644 196.196896 
L 189.027441 190.743915 
L 189.650237 194.05648 
L 190.273034 187.737175 
L 190.895831 196.553632 
L 191.518628 195.534456 
L 192.141425 191.712302 
L 193.387018 194.209454 
L 194.009815 190.132385 
L 194.632612 193.954538 
L 195.255409 194.515158 
L 195.878206 188.246763 
L 196.501002 188.297795 
L 197.123799 188.960235 
L 197.746596 183.762048 
L 198.369393 191.100651 
L 198.99219 190.030443 
L 199.614987 191.100651 
L 200.237783 190.336269 
L 200.86058 187.788085 
L 201.483377 184.118784 
L 202.106174 190.743915 
L 202.728971 191.814123 
L 203.351767 183.711138 
L 203.974564 186.412173 
L 204.597361 185.03614 
L 205.220158 184.067874 
L 205.842955 187.991969 
L 206.465752 186.004406 
L 207.088548 184.832256 
L 207.711345 181.010102 
L 208.334142 179.175512 
L 208.956939 180.347662 
L 209.579736 182.386136 
L 210.202532 187.074613 
L 210.825329 185.392876 
L 211.448126 179.837953 
L 212.69372 182.131342 
L 213.316517 185.800643 
L 214.56211 177.952331 
L 215.184907 182.64093 
L 215.807704 178.920597 
L 216.430501 178.411009 
L 217.053298 182.64093 
L 217.676094 180.908161 
L 218.298891 181.112044 
L 218.921688 180.092747 
L 219.544485 176.627329 
L 220.167282 178.360099 
L 220.790078 176.831213 
L 221.412875 177.442743 
L 222.035672 173.212822 
L 222.658469 181.112044 
L 223.281266 179.685101 
L 223.904063 173.977325 
L 224.526859 177.799479 
L 225.149656 176.984065 
L 225.772453 178.054273 
L 226.39525 177.442743 
L 227.018047 175.404269 
L 227.640843 176.321625 
L 228.26364 175.913857 
L 228.886437 173.620589 
L 229.509234 174.384972 
L 230.132031 172.49935 
L 230.754828 172.142614 
L 231.377624 172.805176 
L 232.000421 172.193646 
L 232.623218 171.378232 
L 233.246015 166.842485 
L 233.868812 172.193646 
L 234.491608 168.26955 
L 235.114405 167.403105 
L 235.737202 173.569558 
L 236.359999 173.518648 
L 236.982796 171.633026 
L 237.605593 167.556078 
L 238.228389 169.49261 
L 238.851186 170.05323 
L 239.473983 170.308024 
L 240.09678 167.505047 
L 240.719577 168.473313 
L 241.342373 165.364631 
L 241.96517 168.524344 
L 242.587967 170.358934 
L 243.210764 163.784835 
L 243.833561 167.759841 
L 244.456358 167.250253 
L 245.079154 165.466573 
L 245.701951 167.861783 
L 246.324748 168.830049 
L 246.947545 169.135874 
L 247.570342 162.052066 
L 248.193138 161.389504 
L 248.815935 168.88108 
L 249.438732 163.886777 
L 250.061529 170.15505 
L 250.684326 169.237816 
L 251.307123 166.230955 
L 251.929919 161.236652 
L 252.552716 166.689633 
L 253.175513 164.549217 
L 253.79831 164.447275 
L 254.421107 167.352195 
L 255.043903 163.122273 
L 255.6667 162.408802 
L 256.289497 164.702069 
L 256.912294 164.956985 
L 257.535091 157.720203 
L 258.157888 162.102976 
L 258.780684 162.714627 
L 259.403481 161.440536 
L 260.026278 163.784835 
L 260.649075 158.586648 
L 261.271872 157.873176 
L 261.894668 159.86074 
L 262.517465 160.574212 
L 263.140262 157.873176 
L 263.763059 155.783671 
L 264.385856 155.376025 
L 265.008653 154.203875 
L 265.631449 157.771234 
L 266.254246 155.070199 
L 266.877043 157.108673 
L 267.49984 159.758798 
L 268.122637 158.841442 
L 268.745433 153.133667 
L 269.36823 153.031725 
L 269.991027 156.853879 
L 270.613824 158.586648 
L 271.236621 156.95582 
L 271.859418 151.859575 
L 272.482214 152.165401 
L 273.105011 157.006731 
L 273.727808 156.599085 
L 274.350605 159.86074 
L 274.973402 153.592345 
L 275.596198 157.414498 
L 276.218995 150.636515 
L 276.841792 154.305817 
L 277.464589 156.293259 
L 278.087386 150.279779 
L 278.710183 146.76333 
L 279.332979 148.699862 
L 280.578573 154.509579 
L 281.20137 151.859575 
L 281.824167 150.840278 
L 282.446964 157.006731 
L 283.06976 151.706723 
L 283.692557 155.019289 
L 284.315354 153.949081 
L 284.938151 150.840278 
L 285.560948 151.248045 
L 286.183744 152.216311 
L 286.806541 149.005688 
L 287.429338 148.088332 
L 288.052135 156.446232 
L 289.297729 146.712299 
L 289.920525 146.355563 
L 290.543322 149.362424 
L 291.166119 150.483542 
L 291.788916 147.731596 
L 292.411713 146.967214 
L 293.034509 151.248045 
L 293.657306 149.923044 
L 294.280103 145.183534 
L 294.9029 148.292216 
L 295.525697 145.387297 
L 296.148494 150.789368 
L 296.77129 147.120066 
L 297.394087 149.413334 
L 298.016884 143.603617 
L 298.639681 145.132503 
L 299.262478 144.826798 
L 299.885274 145.845975 
L 300.508071 145.030561 
L 301.130868 143.246881 
L 301.753665 142.992087 
L 302.376462 141.667085 
L 302.999259 141.259317 
L 303.622055 146.610478 
L 304.244852 143.807501 
L 304.867649 143.399733 
L 305.490446 143.552707 
L 306.113243 139.934316 
L 306.736039 142.227705 
L 307.358836 140.800761 
L 307.981633 141.361259 
L 308.60443 144.419031 
L 309.227227 140.240141 
L 309.850024 141.463201 
L 310.47282 139.373696 
L 311.095617 142.176673 
L 311.718414 145.998827 
L 312.341211 138.252578 
L 312.964008 142.176673 
L 313.586804 138.660224 
L 314.209601 145.54027 
L 314.832398 137.18237 
L 315.455195 138.558403 
L 316.077992 136.927576 
L 316.700789 139.067992 
L 317.323585 139.220844 
L 318.569179 137.74299 
L 319.191976 138.96605 
L 319.814773 136.265014 
L 320.437569 136.57084 
L 321.060366 143.195971 
L 321.683163 139.730553 
L 322.30596 138.252578 
L 322.928757 139.57758 
L 323.551554 138.303488 
L 324.17435 137.386254 
L 324.797147 136.265014 
L 325.419944 139.57758 
L 326.042741 138.252578 
L 326.665538 139.322786 
L 327.288334 136.265014 
L 327.911131 138.303488 
L 328.533928 135.500632 
L 329.156725 135.245838 
L 329.779522 132.238977 
L 330.402319 130.863065 
L 331.025115 131.525505 
L 331.647912 134.073688 
L 332.270709 133.462158 
L 332.893506 133.818894 
L 333.516303 133.462158 
L 334.139099 129.436121 
L 334.761896 131.321621 
L 335.384693 132.137035 
L 336.00749 137.386254 
L 336.630287 133.207243 
L 337.253084 132.850507 
L 337.87588 132.137035 
L 338.498677 131.984183 
L 339.744271 133.869805 
L 340.367068 130.455297 
L 340.989864 134.83807 
L 341.612661 129.283147 
L 342.235458 130.302445 
L 342.858255 129.843767 
L 343.481052 140.647787 
L 344.103849 133.563979 
L 344.726645 129.436121 
L 345.349442 131.270711 
L 345.972239 130.404387 
L 347.217833 129.181206 
L 347.84063 128.671617 
L 348.463426 127.193763 
L 349.086223 129.181206 
L 349.70902 128.162029 
L 350.331817 126.174466 
L 350.954614 129.334179 
L 351.57741 128.82447 
L 352.200207 123.98314 
L 352.823004 125.86864 
L 353.445801 125.053348 
L 354.068598 125.970582 
L 354.691395 123.218636 
L 355.314191 127.448557 
L 355.936988 127.499468 
L 356.559785 124.849464 
L 357.182582 125.715788 
L 357.805379 127.397526 
L 358.428175 125.715788 
L 359.050972 126.633144 
L 359.673769 125.613846 
L 360.296566 122.556075 
L 360.919363 126.225376 
L 361.54216 122.912811 
L 362.164956 122.8619 
L 362.787753 121.842603 
L 363.41055 121.384046 
L 364.033347 124.951406 
L 364.656144 127.346616 
L 365.27894 122.709048 
L 365.901737 124.03405 
L 366.524534 120.313839 
L 367.147331 123.728224 
L 367.770128 124.186902 
L 368.392925 121.02731 
L 369.015721 123.677314 
L 369.638518 124.849464 
L 370.261315 120.211897 
L 370.884112 121.536899 
L 371.506909 127.193763 
L 372.129705 121.434957 
L 372.752502 120.466691 
L 373.375299 118.937805 
L 373.998096 120.415659 
L 374.620893 119.549335 
L 375.24369 119.600367 
L 375.866486 118.071481 
L 376.489283 116.134828 
L 377.11208 119.294541 
L 377.734877 119.192599 
L 378.357674 120.772395 
L 378.98047 117.154125 
L 379.603267 121.02731 
L 380.226064 117.765655 
L 380.848861 119.600367 
L 381.471658 120.925369 
L 382.094455 114.656974 
L 382.717251 119.855161 
L 383.340048 121.180163 
L 383.962845 114.351148 
L 384.585642 117.45983 
L 385.208439 115.778092 
L 385.831235 115.217472 
L 386.454032 115.421356 
L 387.076829 112.312674 
L 387.699626 115.217472 
L 388.322423 115.67615 
L 388.94522 114.707884 
L 389.568016 115.217472 
L 390.190813 118.173301 
L 390.81361 113.688708 
L 391.436407 118.886773 
L 392.682 111.905028 
L 393.304797 117.052183 
L 393.927594 113.28094 
L 394.550391 115.217472 
L 395.173188 113.739618 
L 395.795985 109.152961 
L 396.418781 114.605942 
L 397.041578 113.178998 
L 397.664375 111.038583 
L 398.287172 116.899331 
L 398.909969 109.051019 
L 399.532765 113.89247 
L 400.155562 113.23003 
L 400.778359 111.752054 
L 401.401156 112.261764 
L 402.64675 117.358009 
L 403.269546 111.191435 
L 403.892343 112.10879 
L 404.51514 108.694283 
L 405.137937 114.351148 
L 405.760734 111.548171 
L 406.38353 105.585601 
L 407.006327 109.305935 
L 407.629124 109.917464 
L 408.251921 109.407755 
L 408.874718 107.827959 
L 409.497515 105.789485 
L 410.120311 109.407755 
L 410.743108 108.337547 
L 411.365905 111.650113 
L 411.988702 108.388579 
L 412.611499 110.732878 
L 413.234296 110.936641 
L 413.857092 112.414616 
L 415.102686 109.203993 
L 415.725483 105.687543 
L 416.34828 108.694283 
L 416.971076 107.777049 
L 418.21667 113.688708 
L 418.839467 106.09519 
L 419.462264 110.070317 
L 420.085061 108.286637 
L 420.707857 103.03754 
L 421.330654 102.324068 
L 421.953451 104.056716 
L 422.576248 111.701144 
L 423.821841 98.960471 
L 424.444638 103.547128 
L 425.067435 99.113323 
L 425.690232 106.757751 
L 426.313029 100.438446 
L 426.935826 107.216429 
L 427.558622 103.954774 
L 428.181419 101.763448 
L 428.804216 102.324068 
L 429.427013 100.642208 
L 430.04981 104.056716 
L 430.672606 102.52783 
L 431.295403 104.464483 
L 431.9182 99.011502 
L 432.540997 102.578862 
L 433.163794 103.852953 
L 433.786591 100.438446 
L 434.409387 100.285472 
L 435.032184 104.770188 
L 435.654981 102.986508 
L 436.900575 101.610596 
L 437.523371 104.515394 
L 438.146168 100.74415 
L 438.768965 100.897124 
L 439.391762 104.005806 
L 440.014559 100.69324 
L 440.637356 99.979768 
L 441.260152 100.234562 
L 441.882949 99.317207 
L 442.505746 97.482617 
L 443.128543 101.559564 
L 443.75134 104.668246 
L 444.374136 102.374978 
L 444.996933 100.591298 
L 445.61973 101.508654 
L 446.242527 99.368238 
L 446.865324 98.196089 
L 447.488121 100.183652 
L 448.110917 100.183652 
L 448.733714 95.851789 
L 449.356511 101.202828 
L 449.979308 97.278733 
L 450.602105 96.412409 
L 451.224901 95.953731 
L 451.847698 94.985465 
L 452.470495 97.023939 
L 453.093292 102.680804 
L 453.716089 97.533527 
L 454.338886 97.941294 
L 454.961682 95.240259 
L 455.584479 99.877826 
L 456.207276 98.246999 
L 456.830073 93.915257 
L 457.45287 96.871087 
L 458.075666 92.437282 
L 458.698463 93.405548 
L 459.32126 97.941294 
L 459.944057 94.832491 
L 460.566854 93.456579 
L 461.189651 92.488313 
L 461.812447 91.927694 
L 462.435244 92.641166 
L 463.058041 95.495053 
L 463.680838 92.94687 
L 464.303635 95.953731 
L 464.926431 88.462276 
L 465.549228 95.647905 
L 466.172025 99.826916 
L 467.417619 93.609431 
L 468.040416 92.28443 
L 468.663212 92.692076 
L 469.286009 94.220961 
L 469.908806 92.997901 
L 470.531603 92.437282 
L 471.1544 93.405548 
L 471.777196 92.590134 
L 472.399993 95.393111 
L 473.02279 94.373814 
L 473.645587 92.131577 
L 474.268384 88.462276 
L 474.891181 90.398808 
L 475.513977 91.417984 
L 476.136774 88.76798 
L 476.759571 92.437282 
L 477.382368 93.099843 
L 478.005165 87.341037 
L 478.627962 90.755544 
L 479.250758 89.583394 
L 479.873555 93.711373 
L 480.496352 90.602692 
L 481.119149 88.869922 
L 481.741946 91.417984 
L 482.364742 88.360334 
L 482.987539 93.099843 
L 484.233133 87.799714 
L 484.85593 89.583394 
L 485.478727 88.411244 
L 486.101523 92.89596 
L 487.347117 86.525623 
L 487.969914 84.385207 
L 488.592711 88.76798 
L 489.215507 87.646862 
L 489.838304 88.76798 
L 490.461101 86.372771 
L 491.083898 87.341037 
L 491.706695 92.692076 
L 492.329492 84.945827 
L 492.952288 85.761241 
L 493.575085 84.996737 
L 494.197882 87.799714 
L 494.820679 84.283265 
L 495.443476 82.244791 
L 496.066272 82.14285 
L 496.689069 88.920832 
L 497.311866 85.404505 
L 497.934663 83.824587 
L 498.55746 85.761241 
L 499.180257 84.792975 
L 499.803053 82.346733 
L 500.42585 82.652438 
L 501.048647 87.035211 
L 501.671444 82.550617 
L 502.294241 81.684172 
L 502.917037 82.652438 
L 503.539834 82.295702 
L 504.162631 81.021731 
L 504.785428 80.563054 
L 505.408225 86.780417 
L 506.031022 82.703469 
L 506.653818 82.091939 
L 507.276615 85.659299 
L 507.899412 83.264089 
L 508.522209 83.569793 
L 509.145006 83.467851 
L 509.767802 82.448675 
L 510.390599 83.264089 
L 511.013396 85.302563 
L 511.636193 81.837145 
L 512.25899 80.461112 
L 512.881787 82.550617 
L 513.504583 81.58223 
L 514.12738 81.735203 
L 514.750177 75.823544 
L 515.995771 85.047769 
L 517.241364 80.155286 
L 517.864161 75.262925 
L 518.486958 76.384164 
L 519.109755 77.148546 
L 519.732552 81.480409 
L 520.355348 76.333132 
L 520.978145 78.473548 
L 521.600942 76.333132 
L 522.223739 76.333132 
L 522.846536 78.065902 
L 523.469332 79.085078 
L 524.092129 78.932226 
L 524.714926 77.607224 
L 525.337723 78.320696 
L 525.96052 78.269664 
L 526.583317 75.619661 
L 527.206113 71.185977 
L 527.82891 74.957099 
L 528.451707 74.600363 
L 529.074504 77.35243 
L 529.697301 71.491681 
L 530.320097 73.988833 
L 530.942894 72.663831 
L 531.565691 76.129249 
L 532.188488 77.454372 
L 532.811285 77.505282 
L 533.434082 77.301398 
L 534.056878 74.600363 
L 534.679675 74.753337 
L 535.302472 74.702305 
L 535.925269 73.937923 
L 536.548066 73.683129 
L 537.170862 73.122509 
L 537.793659 74.243627 
L 538.416456 78.065902 
L 539.039253 74.243627 
L 539.66205 74.345569 
L 540.284847 75.619661 
L 540.907643 73.020567 
L 541.53044 75.976397 
L 542.153237 70.778209 
L 542.776034 73.224451 
L 543.398831 72.409037 
L 544.021628 74.753337 
L 544.644424 70.421474 
L 545.267221 71.033004 
L 545.890018 75.670571 
L 546.512815 71.033004 
L 547.135612 70.931062 
L 547.758408 72.205153 
L 548.381205 69.809944 
L 549.004002 68.230148 
L 549.626799 71.033004 
L 550.249596 68.637794 
L 550.872393 73.326393 
L 551.495189 68.484942 
L 552.117986 65.019524 
L 552.740783 71.797507 
L 553.36358 68.841678 
L 553.986377 71.236887 
L 554.609173 71.236887 
L 555.23197 64.81564 
L 555.854767 67.108908 
L 556.477564 66.497378 
L 557.100361 69.198414 
L 557.723158 68.739736 
L 558.345954 69.096472 
L 558.968751 68.688826 
L 559.591548 70.319532 
L 560.214345 65.681964 
L 560.837142 65.529112 
L 561.459938 66.0387 
L 562.082735 69.504118 
L 562.705532 68.790646 
L 563.328329 61.452043 
L 563.951126 64.407873 
L 564.573923 68.128206 
L 565.196719 65.885848 
L 565.819516 67.006966 
L 566.442313 66.803204 
L 567.06511 68.688826 
L 567.687907 65.37626 
L 568.310703 67.414734 
L 568.9335 64.153079 
L 569.556297 65.631054 
L 570.179094 65.019524 
L 570.801891 66.242584 
L 571.424688 65.681964 
L 572.047484 66.344526 
L 572.670281 65.580022 
L 573.293078 73.071599 
L 573.915875 62.777167 
L 574.538672 64.051137 
L 575.161468 64.458904 
L 575.784265 61.808779 
L 576.407062 61.044397 
L 577.029859 62.828077 
L 577.652656 64.968492 
L 578.275453 68.637794 
L 578.898249 64.051137 
L 579.521046 62.165515 
L 580.143843 65.783906 
L 580.76664 59.413569 
L 581.389437 64.968492 
L 582.012233 64.509815 
L 582.63503 65.580022 
L 583.257827 61.350223 
L 583.880624 63.337665 
L 584.503421 66.497378 
L 585.126218 60.636751 
L 585.749014 63.082871 
L 586.371811 61.503075 
L 586.994608 60.738571 
L 587.617405 61.299191 
L 588.240202 60.432867 
L 588.862998 60.636751 
L 589.485795 59.923279 
L 590.108592 63.184813 
L 591.354186 58.802039 
L 591.976983 60.330925 
L 592.599779 60.127041 
L 593.222576 57.273154 
L 593.845373 58.903981 
L 594.46817 58.445304 
L 595.090967 62.624193 
L 595.713763 57.833774 
L 596.33656 62.165515 
L 596.959357 58.394393 
L 597.582154 56.916418 
L 598.204951 58.24142 
L 598.827748 56.45774 
L 599.450544 58.292451 
L 600.073341 57.375096 
L 600.696138 58.85295 
L 601.318935 58.394393 
L 601.941732 55.693358 
L 602.564528 57.57898 
L 603.187325 56.202946 
L 603.810122 57.375096 
L 605.055716 53.552942 
L 605.678513 56.253978 
L 606.301309 56.253978 
L 606.924106 55.489474 
L 607.546903 56.050094 
L 608.1697 55.183648 
L 608.792497 60.330925 
L 609.415294 52.941412 
L 610.03809 62.420431 
L 610.660887 52.125998 
L 611.283684 58.343362 
L 611.906481 54.06253 
L 612.529278 53.960588 
L 613.152074 57.273154 
L 613.774871 56.304888 
L 614.397668 53.247116 
L 615.020465 53.399969 
L 615.643262 54.01162 
L 616.266059 52.380792 
L 616.888855 53.451 
L 617.511652 50.546081 
L 618.134449 53.349058 
L 618.757246 56.814476 
L 619.380043 55.897242 
L 620.002839 52.431703 
L 620.625636 53.298148 
L 621.248433 51.565379 
L 621.87123 53.501911 
L 622.494027 51.259553 
L 623.116824 52.329761 
L 623.73962 49.730667 
L 624.362417 53.858646 
L 624.985214 52.380792 
L 625.608011 54.06253 
L 626.230808 52.380792 
L 626.853604 49.781699 
L 627.476401 51.514347 
L 628.099198 53.756705 
L 628.721995 49.170169 
L 629.344792 51.667321 
L 629.967589 51.871204 
L 630.590385 50.240377 
L 631.213182 50.393229 
L 631.835979 47.896077 
L 632.458776 49.832609 
L 633.081573 48.762401 
L 633.704369 51.004759 
L 634.327166 50.138435 
L 634.949963 47.131574 
L 635.57276 48.813433 
L 636.195557 51.463437 
L 636.818354 46.978722 
L 637.44115 51.718231 
L 638.063947 47.845046 
L 638.686744 48.507607 
L 639.309541 49.373931 
L 639.932338 50.953849 
L 640.555134 47.284547 
L 641.177931 50.342319 
L 641.800728 48.456697 
L 642.423525 53.705794 
L 643.046322 50.291287 
L 643.669119 50.240377 
L 644.291915 45.551778 
L 644.914712 46.26525 
L 645.537509 49.323021 
L 646.160306 46.774838 
L 646.783103 47.794135 
L 647.405899 45.908514 
L 648.028696 46.26525 
L 648.651493 44.175866 
L 649.27429 47.539341 
L 649.897087 48.558639 
L 650.519884 42.901774 
L 651.765477 47.641283 
L 653.011071 45.195042 
L 653.633868 46.927811 
L 654.256664 45.347894 
L 654.879461 41.576772 
L 655.502258 45.70463 
L 656.125055 45.195042 
L 656.747852 45.296984 
L 657.370649 43.462272 
L 657.993445 40.8633 
L 658.616242 44.889338 
L 659.239039 44.736364 
L 659.861836 41.678593 
L 660.484633 42.595948 
L 661.107429 44.175866 
L 661.730226 43.819008 
L 662.353023 42.494006 
L 662.97582 45.449836 
L 663.598617 45.857604 
L 664.221414 44.940248 
L 664.84421 42.64698 
L 665.467007 41.270946 
L 666.089804 41.169005 
L 666.712601 40.506564 
L 667.335398 41.576772 
L 667.958194 40.812269 
L 668.580991 43.25851 
L 669.203788 43.768098 
L 669.826585 38.875737 
L 670.449382 41.118094 
L 671.072179 40.506564 
L 671.694975 40.200739 
L 672.317772 40.914211 
L 672.940569 44.277686 
L 673.563366 44.226776 
L 674.186163 42.443096 
L 674.80896 43.207478 
L 675.431756 42.799832 
L 676.054553 40.608385 
L 676.67735 42.7488 
L 677.300147 40.659416 
L 677.922944 41.678593 
L 678.54574 41.627682 
L 679.168537 40.812269 
L 679.791334 44.022892 
L 680.414131 41.118094 
L 681.036928 39.283383 
L 681.659725 41.169005 
L 682.282521 36.684289 
L 682.905318 39.130531 
L 683.528115 40.404622 
L 684.150912 37.499703 
L 684.773709 42.7488 
L 685.396505 40.404622 
L 686.642099 40.098797 
L 687.887693 40.200739 
L 687.887693 40.200739 
" style="fill:none;stroke:#377eb8;stroke-linecap:square;stroke-width:1.5;"/>
   </g>
   <g id="line2d_32">
    <path clip-path="url(#p74fd9a041e)" d="M 61.876495 375.715469 
L 61.97689 372.143657 
L 62.519032 375.715469 
M 63.702712 375.715469 
L 63.84528 374.400473 
L 64.468077 352.447969 
L 65.090874 355.525424 
L 65.71367 351.832429 
L 66.336467 370.297159 
L 66.959264 368.860981 
L 67.582061 333.36782 
L 68.204858 338.086552 
L 68.827655 334.188459 
L 69.450451 314.082452 
L 70.073248 355.935743 
L 70.696045 325.981953 
L 71.318842 353.884147 
L 71.941639 322.494178 
L 72.564435 316.134169 
L 73.187232 325.981953 
L 73.810029 321.468319 
L 74.432826 282.487384 
L 75.055623 301.772753 
L 75.67842 300.541674 
L 76.301216 300.541674 
L 76.924013 299.721035 
L 77.54681 282.487384 
L 78.169607 294.591984 
L 78.792404 288.231975 
L 79.4152 278.99961 
L 80.037997 261.355518 
L 80.660794 281.666746 
L 81.283591 256.842007 
L 82.529185 287.001017 
L 83.151981 294.386885 
L 83.774778 279.615028 
L 84.397575 272.639601 
L 85.020372 274.896296 
L 85.643169 257.662645 
L 86.265966 270.998203 
L 86.888762 255.816148 
L 87.511559 256.431687 
L 88.134356 248.6355 
L 88.757153 277.973751 
L 89.37995 244.327087 
L 90.002746 259.098823 
L 90.625543 250.071557 
L 91.24834 248.6355 
L 92.493934 253.149012 
L 93.116731 270.998203 
L 93.739527 245.352825 
L 94.362324 232.427587 
L 95.607918 247.814862 
L 96.230715 248.6355 
L 96.853511 256.842007 
L 97.476308 241.249632 
L 98.099105 243.711548 
L 98.721902 220.938405 
L 99.344699 231.196629 
L 99.967496 220.322987 
L 100.590292 233.863765 
L 101.213089 237.761858 
L 101.835886 232.017267 
L 102.458683 236.94122 
L 103.08148 227.708855 
L 103.704276 238.377276 
L 104.327073 238.787596 
L 105.572667 224.01586 
L 106.195464 227.298535 
L 106.818261 218.271391 
L 107.441057 223.810761 
L 108.063854 226.477897 
L 108.686651 245.968364 
L 109.309448 229.965671 
L 109.932245 240.018675 
L 110.555041 231.401728 
L 111.177838 238.377276 
L 111.800635 227.503634 
L 113.046229 235.915361 
L 113.669026 207.397748 
L 114.291822 239.608355 
L 114.914619 220.733306 
L 115.537416 217.861071 
L 116.160213 203.704754 
L 116.78301 210.680302 
L 117.405806 226.682996 
L 118.028603 239.197915 
L 118.6514 217.040311 
L 119.274197 222.579803 
L 119.896994 218.886809 
L 120.519791 210.680302 
L 121.142587 216.424893 
L 121.765384 208.628706 
L 122.388181 214.783616 
L 123.010978 232.222366 
L 123.633775 215.809354 
L 124.256571 208.218387 
L 124.879368 219.502348 
L 125.502165 213.347438 
L 126.124962 205.75635 
L 126.747759 215.193936 
L 127.370556 215.399034 
L 127.993352 205.140932 
L 128.616149 216.014574 
L 129.238946 216.835212 
L 129.861743 200.4222 
L 130.48454 201.653158 
L 131.107336 196.729205 
L 131.730133 196.934426 
L 132.35293 217.861071 
L 132.975727 201.858256 
L 133.598524 216.014574 
L 134.221321 201.242838 
L 134.844117 215.604255 
L 135.466914 201.447937 
L 136.089711 209.244124 
L 136.712508 201.037618 
L 137.335305 210.475082 
L 137.958101 204.320293 
L 138.580898 219.707447 
L 139.203695 200.21698 
L 140.449289 209.859664 
L 141.072086 219.912668 
L 141.694882 210.269983 
L 142.317679 204.115073 
L 142.940476 207.397748 
L 143.563273 228.529493 
L 144.18607 203.704754 
L 144.808866 198.986022 
L 145.431663 198.780801 
L 146.05446 206.576988 
L 146.677257 208.013167 
L 147.300054 196.113787 
L 148.545647 203.39905 
L 149.168444 192.626013 
L 149.791241 197.960163 
L 150.414038 189.343337 
L 151.036835 206.576988 
L 151.659632 189.138239 
L 152.282428 206.576988 
L 152.905225 188.317479 
L 153.528022 193.446651 
L 154.150819 200.627299 
L 154.773616 205.96157 
L 155.396412 192.420792 
L 156.019209 192.010473 
L 157.264803 209.654444 
L 157.8876 187.70206 
L 158.510397 189.958877 
L 159.133193 205.96157 
L 159.75599 187.291741 
L 160.378787 197.755064 
L 161.001584 192.010473 
L 161.624381 196.524106 
L 162.247177 203.089214 
L 162.869974 189.958877 
L 163.492771 193.036332 
L 164.115568 190.574295 
L 164.738365 185.650464 
L 165.361162 191.189835 
L 165.983958 189.343337 
L 166.606755 178.880015 
L 167.229552 173.750963 
L 167.852349 192.420792 
L 168.475146 193.241431 
L 169.097942 197.139524 
L 169.720739 197.549844 
L 170.343536 193.446651 
L 170.966333 182.573009 
L 171.58913 193.856971 
L 172.834723 186.881422 
L 173.45752 193.856971 
L 174.080317 196.113787 
L 174.703114 196.934426 
L 175.325911 186.471103 
L 176.571504 189.753657 
L 177.194301 196.729205 
L 177.817098 191.189835 
L 178.439895 180.316193 
L 179.062692 183.803967 
L 179.685488 184.419385 
L 180.308285 186.265882 
L 180.931082 181.136831 
L 181.553879 177.238738 
L 182.176676 181.136831 
L 182.799472 173.340644 
L 183.422269 185.034925 
L 184.045066 187.291741 
L 184.667863 192.215572 
L 185.29066 184.419385 
L 185.913457 186.265882 
L 186.536253 173.750963 
L 187.15905 190.574295 
L 187.781847 180.316193 
L 188.404644 178.264596 
L 189.027441 191.394934 
L 189.650237 180.110972 
L 190.273034 180.726512 
L 190.895831 177.238738 
L 191.518628 172.314785 
L 192.141425 196.318886 
L 192.764222 176.828418 
L 193.387018 175.80256 
L 194.009815 185.034925 
L 194.632612 180.110972 
L 195.255409 179.495554 
L 195.878206 180.726512 
L 196.501002 174.981921 
L 197.123799 171.289048 
L 197.746596 169.647649 
L 198.369393 181.95747 
L 198.99219 177.443837 
L 199.614987 160.005087 
L 200.237783 195.498248 
L 200.86058 182.983328 
L 201.483377 176.828418 
L 202.106174 175.597461 
L 202.728971 197.549844 
L 203.351767 182.778108 
L 203.974564 180.931611 
L 204.597361 182.778108 
L 205.220158 169.442551 
L 205.842955 186.881422 
L 206.465752 179.495554 
L 207.088548 181.34193 
L 207.711345 168.211593 
L 208.334142 178.469695 
L 208.956939 177.033517 
L 209.579736 181.95747 
L 210.202532 168.827011 
L 210.825329 178.469695 
L 211.448126 177.854277 
L 212.070923 162.877321 
L 212.69372 182.573009 
L 213.316517 181.95747 
L 213.939313 172.725105 
L 214.56211 185.650464 
L 215.184907 180.316193 
L 215.807704 172.930325 
L 216.430501 181.34193 
L 217.676094 167.596053 
L 218.298891 179.290334 
L 218.921688 197.960163 
L 219.544485 173.545743 
L 220.167282 173.956062 
L 220.790078 182.367789 
L 221.412875 182.983328 
L 222.035672 173.545743 
L 222.658469 174.571602 
L 223.281266 166.775415 
L 223.904063 173.340644 
L 224.526859 164.518598 
L 225.149656 160.005087 
L 225.772453 169.85287 
L 226.39525 184.829704 
L 227.018047 172.725105 
L 227.640843 177.443837 
L 228.26364 183.188427 
L 228.886437 186.471103 
L 229.509234 181.54715 
L 230.132031 170.468409 
L 230.754828 171.904466 
L 231.377624 177.649057 
L 232.000421 171.699367 
L 232.623218 177.649057 
L 233.246015 179.700653 
L 233.868812 177.649057 
L 234.491608 178.059376 
L 235.114405 166.570194 
L 236.982796 180.316193 
L 237.605593 169.442551 
L 238.228389 181.752371 
L 238.851186 154.670815 
L 239.473983 171.904466 
L 240.09678 182.983328 
L 241.342373 171.289048 
L 241.96517 188.317479 
L 243.210764 173.750963 
L 243.833561 172.520006 
L 244.456358 170.263189 
L 245.079154 163.69796 
L 245.701951 175.39224 
L 246.324748 168.893109 
L 246.947545 166.365096 
L 247.570342 178.674916 
L 248.193138 164.108279 
L 248.815935 172.109686 
L 249.438732 166.570194 
L 250.061529 178.059376 
L 250.684326 171.083828 
L 251.307123 175.187141 
L 251.929919 169.032231 
L 252.552716 165.134138 
L 253.175513 173.545743 
L 253.79831 167.596053 
L 254.421107 177.854277 
L 255.043903 176.418099 
L 255.6667 164.928917 
L 256.289497 160.005087 
L 257.535091 175.187141 
L 258.157888 164.928917 
L 258.780684 164.723819 
L 259.403481 170.057969 
L 260.026278 159.799866 
L 260.649075 163.69796 
L 261.271872 169.032231 
L 261.894668 161.441143 
L 262.517465 172.520006 
L 263.140262 165.134138 
L 263.763059 172.725105 
L 264.385856 172.520006 
L 265.008653 164.723819 
L 266.254246 175.39224 
L 266.877043 177.033517 
L 267.49984 167.801274 
L 268.122637 173.750963 
L 268.745433 167.390954 
L 269.36823 162.877321 
L 269.991027 176.418099 
L 270.613824 172.930325 
L 271.236621 168.416692 
L 271.859418 162.877321 
L 272.482214 182.778108 
L 273.105011 173.956062 
L 274.973402 154.055275 
L 275.596198 176.212879 
L 276.218995 167.596053 
L 276.841792 163.08242 
L 277.464589 165.749556 
L 278.087386 154.670815 
L 278.710183 159.389547 
L 279.332979 155.696552 
L 279.955776 166.365096 
L 280.578573 148.721125 
L 281.20137 166.365096 
L 281.824167 163.90318 
L 282.446964 160.415406 
L 283.06976 166.365096 
L 283.692557 159.594767 
L 284.315354 155.286233 
L 284.938151 170.263189 
L 285.560948 167.801274 
L 286.183744 173.956062 
L 286.806541 164.313499 
L 287.429338 167.596053 
L 288.052135 167.596053 
L 288.674932 156.517312 
L 289.297729 161.851462 
L 289.920525 154.670815 
L 290.543322 179.085235 
L 291.166119 152.619219 
L 291.788916 167.801274 
L 292.411713 157.337951 
L 293.034509 178.469695 
L 293.657306 176.623198 
L 294.280103 165.749556 
L 295.525697 170.057969 
L 296.148494 171.494147 
L 296.77129 159.799866 
L 297.394087 160.210185 
L 298.016884 161.236044 
L 298.639681 160.415406 
L 299.262478 167.185734 
L 299.885274 157.74827 
L 300.508071 152.824318 
L 301.130868 174.161283 
L 301.753665 164.108279 
L 302.376462 173.956062 
L 302.999259 153.439857 
L 303.622055 177.854277 
L 304.244852 164.928917 
L 304.867649 166.980635 
L 305.490446 153.850177 
L 306.113243 169.442551 
L 306.736039 161.441143 
L 307.358836 162.056683 
L 307.981633 159.594767 
L 308.60443 173.545743 
L 309.227227 149.131445 
L 309.850024 177.854277 
L 310.47282 164.108279 
L 311.095617 170.468409 
L 311.718414 166.775415 
L 312.341211 161.030824 
L 312.964008 164.928917 
L 313.586804 171.494147 
L 314.209601 160.620505 
L 314.832398 156.927632 
L 315.455195 172.314785 
L 316.077992 163.287641 
L 316.700789 166.365096 
L 317.323585 161.236044 
L 317.946382 166.365096 
L 318.569179 152.413998 
L 319.191976 160.415406 
L 319.814773 166.775415 
L 320.437569 171.699367 
L 321.060366 154.465595 
L 321.683163 160.415406 
L 322.30596 157.54305 
L 322.928757 163.08242 
L 323.551554 166.570194 
L 324.17435 156.517312 
L 324.797147 165.339237 
L 325.419944 167.801274 
L 326.042741 158.774007 
L 327.288334 163.08242 
L 327.911131 163.08242 
L 329.156725 158.568909 
L 329.779522 161.441143 
L 330.402319 165.134138 
L 331.025115 155.696552 
L 331.647912 161.236044 
L 332.270709 161.851462 
L 332.893506 155.901773 
L 333.516303 156.927632 
L 334.139099 161.236044 
L 334.761896 154.875914 
L 335.384693 159.799866 
L 336.00749 168.211593 
L 336.630287 174.571602 
L 337.253084 159.389547 
L 337.87588 154.055275 
L 338.498677 167.596053 
L 339.121474 159.389547 
L 339.744271 156.927632 
L 340.367068 156.517312 
L 340.989864 159.184327 
L 341.612661 156.312092 
L 342.235458 161.030824 
L 342.858255 161.236044 
L 343.481052 160.005087 
L 344.103849 157.459212 
L 344.726645 161.851462 
L 345.349442 159.389547 
L 345.972239 157.54305 
L 346.595036 161.441143 
L 347.217833 158.774007 
L 347.84063 154.260496 
L 348.463426 158.363688 
L 349.086223 160.005087 
L 349.70902 157.54305 
L 350.331817 156.517312 
L 350.954614 156.517312 
L 351.57741 152.824318 
L 352.200207 160.005087 
L 352.823004 158.979228 
L 353.445801 155.081134 
L 354.068598 160.620505 
L 354.691395 148.721125 
L 355.314191 164.108279 
L 355.936988 155.901773 
L 356.559785 156.312092 
L 357.182582 158.979228 
L 357.805379 164.518598 
L 358.428175 154.670815 
L 359.050972 161.441143 
L 359.673769 153.644956 
L 360.296566 160.005087 
L 360.919363 171.494147 
L 361.54216 145.848769 
L 362.164956 163.69796 
L 362.787753 158.568909 
L 363.41055 150.97782 
L 364.033347 154.875914 
L 364.656144 154.055275 
L 365.27894 149.336543 
L 365.901737 158.774007 
L 366.524534 161.441143 
L 367.147331 151.38814 
L 367.770128 165.134138 
L 368.392925 161.030824 
L 369.015721 151.38814 
L 369.638518 150.772721 
L 370.261315 148.310685 
L 370.884112 161.441143 
L 371.506909 161.441143 
L 372.129705 160.620505 
L 372.752502 153.850177 
L 373.375299 162.261782 
L 373.998096 150.97782 
L 374.620893 161.030824 
L 375.24369 150.567501 
L 375.866486 149.541764 
L 376.489283 157.54305 
L 377.11208 161.236044 
L 377.734877 162.467002 
L 378.357674 160.005087 
L 378.98047 161.441143 
L 379.603267 150.157182 
L 380.226064 156.927632 
L 380.848861 147.490046 
L 382.094455 162.261782 
L 382.717251 146.874628 
L 383.340048 163.90318 
L 383.962845 139.28354 
L 385.208439 154.465595 
L 385.831235 155.081134 
L 386.454032 158.979228 
L 387.076829 146.464309 
L 387.699626 157.54305 
L 388.322423 155.696552 
L 389.568016 160.005087 
L 390.190813 161.236044 
L 390.81361 152.619219 
L 391.436407 155.901773 
L 392.059204 160.005087 
L 392.682 152.824318 
L 393.304797 150.567501 
L 393.927594 161.236044 
L 394.550391 163.492861 
L 395.173188 145.43845 
L 395.795985 156.722411 
L 396.418781 158.158589 
L 397.041578 145.233351 
L 397.664375 162.877321 
L 398.287172 151.183041 
L 398.909969 161.236044 
L 399.532765 153.234637 
L 400.155562 157.337951 
L 400.778359 150.97782 
L 401.401156 154.875914 
L 402.023953 151.38814 
L 402.64675 160.415406 
L 403.269546 157.74827 
L 403.892343 146.464309 
L 404.51514 154.055275 
L 405.137937 158.158589 
L 405.760734 157.13273 
L 407.006327 142.566215 
L 407.629124 148.310685 
L 408.251921 152.824318 
L 408.874718 151.59336 
L 409.497515 160.415406 
L 410.120311 148.926224 
L 410.743108 146.464309 
L 411.365905 155.696552 
L 411.988702 151.798459 
L 412.611499 155.901773 
L 413.234296 157.54305 
L 413.857092 144.412591 
L 414.479889 158.363688 
L 415.102686 156.517312 
L 415.725483 160.825725 
L 416.34828 160.825725 
L 416.971076 161.030824 
L 417.593873 148.105586 
L 418.21667 153.234637 
L 418.839467 156.517312 
L 419.462264 153.439857 
L 420.085061 147.284947 
L 420.707857 156.722411 
L 421.330654 154.260496 
L 421.953451 152.619219 
L 422.576248 152.824318 
L 423.199045 153.644956 
L 423.821841 155.491453 
L 424.444638 153.850177 
L 425.067435 163.287641 
L 425.690232 147.079727 
L 426.313029 152.003679 
L 426.935826 149.336543 
L 427.558622 158.568909 
L 428.181419 150.157182 
L 428.804216 158.158589 
L 429.427013 156.517312 
L 430.04981 151.183041 
L 430.672606 159.389547 
L 431.295403 155.286233 
L 431.9182 155.901773 
L 432.540997 149.541764 
L 433.163794 151.38814 
L 433.786591 156.722411 
L 434.409387 156.312092 
L 435.032184 150.772721 
L 435.654981 155.286233 
L 436.277778 150.362402 
L 436.900575 149.336543 
L 437.523371 152.824318 
L 438.146168 148.105586 
L 438.768965 149.131445 
L 439.391762 151.38814 
L 440.014559 148.721125 
L 440.637356 152.208778 
L 441.260152 152.413998 
L 441.882949 150.517198 
L 442.505746 141.540356 
L 443.128543 153.850177 
L 443.75134 149.336543 
L 444.374136 145.64367 
L 444.996933 148.515905 
L 445.61973 147.284947 
L 446.242527 148.105586 
L 447.488121 155.491453 
L 448.110917 146.874628 
L 448.733714 153.439857 
L 450.602105 148.926224 
L 451.224901 152.413998 
L 451.847698 154.875914 
L 453.093292 144.207492 
L 454.338886 147.900365 
L 454.961682 152.208778 
L 455.584479 142.155896 
L 456.207276 153.029538 
L 456.830073 147.490046 
L 457.45287 155.696552 
L 458.075666 149.336543 
L 458.698463 151.798459 
L 459.32126 152.413998 
L 459.944057 142.771314 
L 460.566854 153.439857 
L 461.189651 150.362402 
L 461.812447 148.310685 
L 462.435244 147.079727 
L 463.058041 158.363688 
L 463.680838 141.130037 
L 464.303635 160.415406 
L 464.926431 148.310685 
L 465.549228 142.360995 
L 466.172025 144.617811 
L 466.794822 156.106993 
L 467.417619 155.696552 
L 468.040416 138.873221 
L 468.663212 151.59336 
L 469.908806 144.002272 
L 470.531603 148.926224 
L 471.1544 152.619219 
L 471.777196 155.286233 
L 472.399993 156.927632 
L 473.02279 146.259088 
L 474.268384 152.824318 
L 474.891181 140.924817 
L 475.513977 157.337951 
L 476.136774 146.259088 
L 476.759571 145.43845 
L 477.382368 154.875914 
L 478.005165 149.952083 
L 478.627962 150.97782 
L 479.250758 155.491453 
L 479.873555 156.312092 
L 480.496352 151.59336 
L 481.119149 148.310685 
L 481.741946 149.952083 
L 482.364742 147.490046 
L 482.987539 151.798459 
L 483.610336 153.644956 
L 484.233133 144.412591 
L 484.85593 153.644956 
L 485.478727 146.464309 
L 486.101523 152.824318 
L 486.72432 147.695266 
L 487.347117 140.104178 
L 487.969914 153.850177 
L 488.592711 150.362402 
L 489.215507 145.43845 
L 489.838304 149.746863 
L 490.461101 151.798459 
L 491.083898 142.566215 
L 491.706695 143.591953 
L 492.329492 140.719718 
L 492.952288 148.721125 
L 493.575085 139.899079 
L 494.197882 157.74827 
L 494.820679 145.848769 
L 495.443476 148.926224 
L 496.066272 149.541764 
L 496.689069 149.952083 
L 497.311866 141.540356 
L 497.934663 155.491453 
L 498.55746 144.412591 
L 499.180257 145.43845 
L 499.803053 154.875914 
L 501.048647 138.873221 
L 501.671444 156.927632 
L 502.294241 159.184327 
L 502.917037 149.952083 
L 503.539834 145.43845 
L 504.162631 152.619219 
L 504.785428 151.59336 
L 505.408225 155.491453 
L 506.031022 146.259088 
L 506.653818 148.721125 
L 507.276615 148.515905 
L 507.899412 150.567501 
L 508.522209 144.617811 
L 509.145006 140.514497 
L 509.767802 153.850177 
L 510.390599 156.312092 
L 511.013396 141.745577 
L 511.636193 143.386854 
L 512.25899 153.234637 
L 512.881787 146.464309 
L 513.504583 144.412591 
L 514.12738 152.003679 
L 514.750177 149.952083 
L 515.372974 149.131445 
L 515.995771 151.59336 
L 516.618567 147.490046 
L 517.241364 147.490046 
L 517.864161 149.541764 
L 518.486958 149.952083 
L 519.109755 132.71831 
L 519.732552 147.490046 
L 520.355348 148.310685 
L 520.978145 142.360995 
L 521.600942 146.053989 
L 522.223739 137.437042 
L 522.846536 152.003679 
L 523.469332 149.746863 
L 524.092129 145.64367 
L 524.714926 147.490046 
L 525.337723 143.181633 
L 526.583317 147.490046 
L 527.206113 145.64367 
L 527.82891 152.208778 
L 528.451707 141.745577 
L 529.074504 150.772721 
L 529.697301 146.874628 
L 530.320097 148.721125 
L 530.942894 149.746863 
L 531.565691 154.260496 
L 532.188488 149.131445 
L 532.811285 142.771314 
L 533.434082 153.234637 
L 534.056878 150.97782 
L 534.679675 150.157182 
L 535.302472 157.13273 
L 535.925269 151.59336 
L 536.548066 148.310685 
L 537.170862 141.745577 
L 537.793659 143.386854 
L 538.416456 142.976534 
L 539.039253 141.130037 
L 540.284847 150.567501 
L 540.907643 141.745577 
L 541.53044 154.465595 
L 542.153237 148.515905 
L 542.776034 146.053989 
L 543.398831 147.490046 
L 544.021628 142.155896 
L 544.644424 144.002272 
L 545.267221 143.386854 
L 545.890018 138.462901 
L 546.512815 146.669408 
L 547.135612 147.284947 
L 547.758408 146.259088 
L 548.381205 149.746863 
L 549.004002 142.566215 
L 549.626799 146.874628 
L 550.249596 146.669408 
L 550.872393 151.59336 
L 552.117986 140.309399 
L 552.740783 151.38814 
L 553.36358 138.462901 
L 553.986377 144.82291 
L 554.609173 143.386854 
L 555.23197 143.591953 
L 555.854767 150.157182 
L 556.477564 145.233351 
L 557.100361 148.105586 
L 557.723158 153.234637 
L 558.345954 145.028131 
L 558.968751 150.157182 
L 559.591548 144.002272 
L 560.214345 146.464309 
L 560.837142 139.899079 
L 561.459938 144.412591 
L 562.082735 139.078441 
L 562.705532 149.746863 
L 563.328329 139.28354 
L 563.951126 149.952083 
L 564.573923 145.64367 
L 565.196719 154.055275 
L 565.819516 139.899079 
L 566.442313 141.950676 
L 567.06511 152.003679 
L 567.687907 147.079727 
L 568.310703 147.900365 
L 568.9335 138.052582 
L 569.556297 154.055275 
L 570.179094 139.48876 
L 570.801891 137.437042 
L 571.424688 147.490046 
L 572.047484 151.38814 
L 572.670281 142.976534 
L 573.293078 144.412591 
L 573.915875 133.744169 
L 574.538672 154.055275 
L 575.161468 136.821624 
L 575.784265 145.64367 
L 576.407062 145.43845 
L 577.029859 141.540356 
L 577.652656 138.668122 
L 578.275453 142.360995 
L 578.898249 138.052582 
L 579.521046 137.642263 
L 580.143843 143.591953 
L 580.76664 142.566215 
L 581.389437 147.900365 
L 582.012233 142.771314 
L 582.63503 135.590667 
L 583.257827 150.97782 
L 583.880624 147.284947 
L 584.503421 147.695266 
L 585.126218 138.052582 
L 585.749014 148.105586 
L 586.371811 134.975127 
L 586.994608 152.208778 
L 587.617405 138.668122 
L 588.240202 142.771314 
L 588.862998 141.540356 
L 589.485795 145.028131 
L 590.108592 144.82291 
L 590.731389 139.693859 
L 591.354186 150.567501 
L 591.976983 145.64367 
L 592.599779 147.284947 
L 593.222576 141.335257 
L 593.845373 146.464309 
L 594.46817 148.515905 
L 595.090967 136.411305 
L 595.713763 148.105586 
L 596.33656 140.309399 
L 596.959357 150.567501 
L 597.582154 141.130037 
L 598.204951 145.64367 
L 598.827748 141.540356 
L 599.450544 144.412591 
L 600.073341 145.848769 
L 600.696138 140.719718 
L 601.318935 149.746863 
L 601.941732 145.848769 
L 603.187325 142.155896 
L 603.810122 137.437042 
L 604.432919 150.97782 
L 605.055716 141.335257 
L 606.301309 148.926224 
L 606.924106 139.899079 
L 607.546903 147.900365 
L 608.1697 139.693859 
L 608.792497 150.567501 
L 609.415294 141.540356 
L 610.03809 145.43845 
L 610.660887 144.82291 
L 611.283684 149.336543 
L 611.906481 143.797173 
L 612.529278 137.026723 
L 613.152074 143.181633 
L 613.774871 143.797173 
L 614.397668 137.026723 
L 615.020465 150.157182 
L 615.643262 138.873221 
L 616.266059 136.821624 
L 616.888855 147.695266 
L 617.511652 144.412591 
L 618.134449 146.669408 
L 618.757246 141.335257 
L 619.380043 139.48876 
L 620.002839 147.695266 
L 620.625636 139.48876 
L 621.248433 146.053989 
L 621.87123 143.797173 
L 622.494027 138.873221 
L 623.116824 140.309399 
L 623.73962 144.207492 
L 624.362417 146.464309 
L 624.985214 138.257802 
L 625.608011 143.591953 
L 626.230808 147.490046 
L 626.853604 145.233351 
L 627.476401 137.231944 
L 628.099198 139.078441 
L 628.721995 143.797173 
L 629.344792 143.797173 
L 629.967589 143.386854 
L 630.590385 141.950676 
L 631.213182 143.181633 
L 631.835979 139.48876 
L 632.458776 145.64367 
L 633.081573 141.130037 
L 633.704369 139.28354 
L 634.327166 143.181633 
L 634.949963 143.181633 
L 635.57276 144.82291 
L 636.195557 142.566215 
L 636.818354 139.078441 
L 637.44115 139.083301 
L 638.063947 142.771314 
L 638.686744 141.745577 
L 639.309541 143.181633 
L 639.932338 142.771314 
L 640.555134 144.412591 
L 641.177931 142.976534 
L 641.800728 142.771314 
L 642.423525 141.745577 
L 643.669119 137.847483 
L 644.291915 143.386854 
L 644.914712 138.668122 
L 645.537509 141.130037 
L 646.160306 140.719718 
L 646.783103 141.950676 
L 647.405899 141.130037 
L 648.028696 145.43845 
L 648.651493 138.052582 
L 649.27429 138.668122 
L 649.897087 146.669408 
L 650.519884 136.000986 
L 651.14268 144.82291 
L 651.765477 145.64367 
L 652.388274 140.514497 
L 653.011071 143.386854 
L 653.633868 135.795765 
L 654.256664 138.668122 
L 654.879461 140.104178 
L 655.502258 142.155896 
L 656.125055 145.848769 
L 656.747852 135.180347 
L 657.370649 138.668122 
L 657.993445 137.231944 
L 658.616242 141.335257 
L 659.239039 140.924817 
L 659.861836 145.848769 
L 660.484633 138.052582 
L 661.107429 141.745577 
L 661.730226 135.180347 
L 662.353023 142.771314 
L 662.97582 139.078441 
L 664.221414 142.771314 
L 664.84421 136.821624 
L 665.467007 143.181633 
L 666.089804 133.33385 
L 666.712601 139.899079 
L 667.335398 139.693859 
L 667.958194 137.847483 
L 668.580991 143.181633 
L 669.203788 138.052582 
L 669.826585 141.745577 
L 670.449382 131.897672 
L 671.072179 142.771314 
L 671.694975 140.514497 
L 672.317772 135.590667 
L 672.940569 145.848769 
L 673.563366 134.564808 
L 674.186163 134.359709 
L 674.80896 142.771314 
L 675.431756 132.102892 
L 676.054553 147.284947 
L 676.67735 137.437042 
L 677.300147 135.385446 
L 677.922944 142.976534 
L 678.54574 140.924817 
L 679.168537 138.052582 
L 679.791334 137.231944 
L 680.414131 139.48876 
L 681.036928 145.64367 
L 681.659725 136.411305 
L 682.282521 141.745577 
L 682.905318 140.309399 
L 683.528115 136.411305 
L 684.150912 137.231944 
L 684.773709 140.719718 
L 685.396505 141.745577 
L 686.019302 137.026723 
L 686.642099 142.566215 
L 687.264896 138.257802 
L 687.887693 141.950676 
L 687.887693 141.950676 
" style="fill:none;stroke:#4daf4a;stroke-linecap:square;stroke-width:1.5;"/>
   </g>
   <g id="patch_3">
    <path d="M 50.14375 337.159219 
L 50.14375 10.999219 
" style="fill:none;stroke:#000000;stroke-linecap:square;stroke-linejoin:miter;stroke-width:0.8;"/>
   </g>
   <g id="patch_4">
    <path d="M 719.74375 337.159219 
L 719.74375 10.999219 
" style="fill:none;stroke:#000000;stroke-linecap:square;stroke-linejoin:miter;stroke-width:0.8;"/>
   </g>
   <g id="patch_5">
    <path d="M 50.14375 337.159219 
L 719.74375 337.159219 
" style="fill:none;stroke:#000000;stroke-linecap:square;stroke-linejoin:miter;stroke-width:0.8;"/>
   </g>
   <g id="patch_6">
    <path d="M 50.14375 10.999219 
L 719.74375 10.999219 
" style="fill:none;stroke:#000000;stroke-linecap:square;stroke-linejoin:miter;stroke-width:0.8;"/>
   </g>
   <g id="legend_1">
    <g id="patch_7">
     <path d="M 57.14375 48.355469 
L 114.584375 48.355469 
Q 116.584375 48.355469 116.584375 46.355469 
L 116.584375 17.999219 
Q 116.584375 15.999219 114.584375 15.999219 
L 57.14375 15.999219 
Q 55.14375 15.999219 55.14375 17.999219 
L 55.14375 46.355469 
Q 55.14375 48.355469 57.14375 48.355469 
z
" style="fill:#ffffff;opacity:0.8;stroke:#cccccc;stroke-linejoin:miter;"/>
    </g>
    <g id="line2d_33">
     <path d="M 59.14375 24.097656 
L 79.14375 24.097656 
" style="fill:none;stroke:#377eb8;stroke-linecap:square;stroke-width:1.5;"/>
    </g>
    <g id="line2d_34"/>
    <g id="text_18">
     <!-- Train -->
     <defs>
      <path d="M -0.296875 72.90625 
L 61.375 72.90625 
L 61.375 64.59375 
L 35.5 64.59375 
L 35.5 0 
L 25.59375 0 
L 25.59375 64.59375 
L -0.296875 64.59375 
z
" id="DejaVuSans-84"/>
      <path d="M 9.421875 54.6875 
L 18.40625 54.6875 
L 18.40625 0 
L 9.421875 0 
z
M 9.421875 75.984375 
L 18.40625 75.984375 
L 18.40625 64.59375 
L 9.421875 64.59375 
z
" id="DejaVuSans-105"/>
      <path d="M 54.890625 33.015625 
L 54.890625 0 
L 45.90625 0 
L 45.90625 32.71875 
Q 45.90625 40.484375 42.875 44.328125 
Q 39.84375 48.1875 33.796875 48.1875 
Q 26.515625 48.1875 22.3125 43.546875 
Q 18.109375 38.921875 18.109375 30.90625 
L 18.109375 0 
L 9.078125 0 
L 9.078125 54.6875 
L 18.109375 54.6875 
L 18.109375 46.1875 
Q 21.34375 51.125 25.703125 53.5625 
Q 30.078125 56 35.796875 56 
Q 45.21875 56 50.046875 50.171875 
Q 54.890625 44.34375 54.890625 33.015625 
z
" id="DejaVuSans-110"/>
     </defs>
     <g transform="translate(87.14375 27.597656)scale(0.1 -0.1)">
      <use xlink:href="#DejaVuSans-84"/>
      <use x="60.865234" xlink:href="#DejaVuSans-114"/>
      <use x="101.978516" xlink:href="#DejaVuSans-97"/>
      <use x="163.257812" xlink:href="#DejaVuSans-105"/>
      <use x="191.041016" xlink:href="#DejaVuSans-110"/>
     </g>
    </g>
    <g id="line2d_35">
     <path d="M 59.14375 38.775781 
L 79.14375 38.775781 
" style="fill:none;stroke:#4daf4a;stroke-linecap:square;stroke-width:1.5;"/>
    </g>
    <g id="line2d_36"/>
    <g id="text_19">
     <!-- Test -->
     <defs>
      <path d="M 56.203125 29.59375 
L 56.203125 25.203125 
L 14.890625 25.203125 
Q 15.484375 15.921875 20.484375 11.0625 
Q 25.484375 6.203125 34.421875 6.203125 
Q 39.59375 6.203125 44.453125 7.46875 
Q 49.3125 8.734375 54.109375 11.28125 
L 54.109375 2.78125 
Q 49.265625 0.734375 44.1875 -0.34375 
Q 39.109375 -1.421875 33.890625 -1.421875 
Q 20.796875 -1.421875 13.15625 6.1875 
Q 5.515625 13.8125 5.515625 26.8125 
Q 5.515625 40.234375 12.765625 48.109375 
Q 20.015625 56 32.328125 56 
Q 43.359375 56 49.78125 48.890625 
Q 56.203125 41.796875 56.203125 29.59375 
z
M 47.21875 32.234375 
Q 47.125 39.59375 43.09375 43.984375 
Q 39.0625 48.390625 32.421875 48.390625 
Q 24.90625 48.390625 20.390625 44.140625 
Q 15.875 39.890625 15.1875 32.171875 
z
" id="DejaVuSans-101"/>
      <path d="M 44.28125 53.078125 
L 44.28125 44.578125 
Q 40.484375 46.53125 36.375 47.5 
Q 32.28125 48.484375 27.875 48.484375 
Q 21.1875 48.484375 17.84375 46.4375 
Q 14.5 44.390625 14.5 40.28125 
Q 14.5 37.15625 16.890625 35.375 
Q 19.28125 33.59375 26.515625 31.984375 
L 29.59375 31.296875 
Q 39.15625 29.25 43.1875 25.515625 
Q 47.21875 21.78125 47.21875 15.09375 
Q 47.21875 7.46875 41.1875 3.015625 
Q 35.15625 -1.421875 24.609375 -1.421875 
Q 20.21875 -1.421875 15.453125 -0.5625 
Q 10.6875 0.296875 5.421875 2 
L 5.421875 11.28125 
Q 10.40625 8.6875 15.234375 7.390625 
Q 20.0625 6.109375 24.8125 6.109375 
Q 31.15625 6.109375 34.5625 8.28125 
Q 37.984375 10.453125 37.984375 14.40625 
Q 37.984375 18.0625 35.515625 20.015625 
Q 33.0625 21.96875 24.703125 23.78125 
L 21.578125 24.515625 
Q 13.234375 26.265625 9.515625 29.90625 
Q 5.8125 33.546875 5.8125 39.890625 
Q 5.8125 47.609375 11.28125 51.796875 
Q 16.75 56 26.8125 56 
Q 31.78125 56 36.171875 55.265625 
Q 40.578125 54.546875 44.28125 53.078125 
z
" id="DejaVuSans-115"/>
      <path d="M 18.3125 70.21875 
L 18.3125 54.6875 
L 36.8125 54.6875 
L 36.8125 47.703125 
L 18.3125 47.703125 
L 18.3125 18.015625 
Q 18.3125 11.328125 20.140625 9.421875 
Q 21.96875 7.515625 27.59375 7.515625 
L 36.8125 7.515625 
L 36.8125 0 
L 27.59375 0 
Q 17.1875 0 13.234375 3.875 
Q 9.28125 7.765625 9.28125 18.015625 
L 9.28125 47.703125 
L 2.6875 47.703125 
L 2.6875 54.6875 
L 9.28125 54.6875 
L 9.28125 70.21875 
z
" id="DejaVuSans-116"/>
     </defs>
     <g transform="translate(87.14375 42.275781)scale(0.1 -0.1)">
      <use xlink:href="#DejaVuSans-84"/>
      <use x="60.818359" xlink:href="#DejaVuSans-101"/>
      <use x="122.341797" xlink:href="#DejaVuSans-115"/>
      <use x="174.441406" xlink:href="#DejaVuSans-116"/>
     </g>
    </g>
   </g>
  </g>
 </g>
 <defs>
  <clipPath id="p74fd9a041e">
   <rect height="326.16" width="669.6" x="50.14375" y="10.999219"/>
  </clipPath>
 </defs>
</svg>
