<?xml version="1.0" encoding="utf-8" standalone="no"?>
<!DOCTYPE svg PUBLIC "-//W3C//DTD SVG 1.1//EN"
  "http://www.w3.org/Graphics/SVG/1.1/DTD/svg11.dtd">
<!-- Created with matplotlib (https://matplotlib.org/) -->
<svg height="374.715469pt" version="1.1" viewBox="0 0 726.94375 374.715469" width="726.94375pt" xmlns="http://www.w3.org/2000/svg" xmlns:xlink="http://www.w3.org/1999/xlink">
 <defs>
  <style type="text/css">
*{stroke-linecap:butt;stroke-linejoin:round;white-space:pre;}
  </style>
 </defs>
 <g id="figure_1">
  <g id="patch_1">
   <path d="M 0 374.715469 
L 726.94375 374.715469 
L 726.94375 0 
L 0 0 
z
" style="fill:#ffffff;"/>
  </g>
  <g id="axes_1">
   <g id="patch_2">
    <path d="M 50.14375 337.159219 
L 719.74375 337.159219 
L 719.74375 10.999219 
L 50.14375 10.999219 
z
" style="fill:#ffffff;"/>
   </g>
   <g id="matplotlib.axis_1">
    <g id="xtick_1">
     <g id="line2d_1">
      <path clip-path="url(#pe2af0781c9)" d="M 50.14375 337.159219 
L 50.14375 10.999219 
" style="fill:none;stroke:#b0b0b0;stroke-linecap:square;stroke-width:0.8;"/>
     </g>
     <g id="line2d_2">
      <defs>
       <path d="M 0 0 
L 0 3.5 
" id="me7ecfa34bd" style="stroke:#000000;stroke-width:0.8;"/>
      </defs>
      <g>
       <use style="stroke:#000000;stroke-width:0.8;" x="50.14375" xlink:href="#me7ecfa34bd" y="337.159219"/>
      </g>
     </g>
     <g id="text_1">
      <!-- 0 -->
      <defs>
       <path d="M 31.78125 66.40625 
Q 24.171875 66.40625 20.328125 58.90625 
Q 16.5 51.421875 16.5 36.375 
Q 16.5 21.390625 20.328125 13.890625 
Q 24.171875 6.390625 31.78125 6.390625 
Q 39.453125 6.390625 43.28125 13.890625 
Q 47.125 21.390625 47.125 36.375 
Q 47.125 51.421875 43.28125 58.90625 
Q 39.453125 66.40625 31.78125 66.40625 
z
M 31.78125 74.21875 
Q 44.046875 74.21875 50.515625 64.515625 
Q 56.984375 54.828125 56.984375 36.375 
Q 56.984375 17.96875 50.515625 8.265625 
Q 44.046875 -1.421875 31.78125 -1.421875 
Q 19.53125 -1.421875 13.0625 8.265625 
Q 6.59375 17.96875 6.59375 36.375 
Q 6.59375 54.828125 13.0625 64.515625 
Q 19.53125 74.21875 31.78125 74.21875 
z
" id="DejaVuSans-48"/>
      </defs>
      <g transform="translate(46.9625 351.757656)scale(0.1 -0.1)">
       <use xlink:href="#DejaVuSans-48"/>
      </g>
     </g>
    </g>
    <g id="xtick_2">
     <g id="line2d_3">
      <path clip-path="url(#pe2af0781c9)" d="M 129.867527 337.159219 
L 129.867527 10.999219 
" style="fill:none;stroke:#b0b0b0;stroke-linecap:square;stroke-width:0.8;"/>
     </g>
     <g id="line2d_4">
      <g>
       <use style="stroke:#000000;stroke-width:0.8;" x="129.867527" xlink:href="#me7ecfa34bd" y="337.159219"/>
      </g>
     </g>
     <g id="text_2">
      <!-- 50 -->
      <defs>
       <path d="M 10.796875 72.90625 
L 49.515625 72.90625 
L 49.515625 64.59375 
L 19.828125 64.59375 
L 19.828125 46.734375 
Q 21.96875 47.46875 24.109375 47.828125 
Q 26.265625 48.1875 28.421875 48.1875 
Q 40.625 48.1875 47.75 41.5 
Q 54.890625 34.8125 54.890625 23.390625 
Q 54.890625 11.625 47.5625 5.09375 
Q 40.234375 -1.421875 26.90625 -1.421875 
Q 22.3125 -1.421875 17.546875 -0.640625 
Q 12.796875 0.140625 7.71875 1.703125 
L 7.71875 11.625 
Q 12.109375 9.234375 16.796875 8.0625 
Q 21.484375 6.890625 26.703125 6.890625 
Q 35.15625 6.890625 40.078125 11.328125 
Q 45.015625 15.765625 45.015625 23.390625 
Q 45.015625 31 40.078125 35.4375 
Q 35.15625 39.890625 26.703125 39.890625 
Q 22.75 39.890625 18.8125 39.015625 
Q 14.890625 38.140625 10.796875 36.28125 
z
" id="DejaVuSans-53"/>
      </defs>
      <g transform="translate(123.505027 351.757656)scale(0.1 -0.1)">
       <use xlink:href="#DejaVuSans-53"/>
       <use x="63.623047" xlink:href="#DejaVuSans-48"/>
      </g>
     </g>
    </g>
    <g id="xtick_3">
     <g id="line2d_5">
      <path clip-path="url(#pe2af0781c9)" d="M 209.591303 337.159219 
L 209.591303 10.999219 
" style="fill:none;stroke:#b0b0b0;stroke-linecap:square;stroke-width:0.8;"/>
     </g>
     <g id="line2d_6">
      <g>
       <use style="stroke:#000000;stroke-width:0.8;" x="209.591303" xlink:href="#me7ecfa34bd" y="337.159219"/>
      </g>
     </g>
     <g id="text_3">
      <!-- 100 -->
      <defs>
       <path d="M 12.40625 8.296875 
L 28.515625 8.296875 
L 28.515625 63.921875 
L 10.984375 60.40625 
L 10.984375 69.390625 
L 28.421875 72.90625 
L 38.28125 72.90625 
L 38.28125 8.296875 
L 54.390625 8.296875 
L 54.390625 0 
L 12.40625 0 
z
" id="DejaVuSans-49"/>
      </defs>
      <g transform="translate(200.047553 351.757656)scale(0.1 -0.1)">
       <use xlink:href="#DejaVuSans-49"/>
       <use x="63.623047" xlink:href="#DejaVuSans-48"/>
       <use x="127.246094" xlink:href="#DejaVuSans-48"/>
      </g>
     </g>
    </g>
    <g id="xtick_4">
     <g id="line2d_7">
      <path clip-path="url(#pe2af0781c9)" d="M 289.31508 337.159219 
L 289.31508 10.999219 
" style="fill:none;stroke:#b0b0b0;stroke-linecap:square;stroke-width:0.8;"/>
     </g>
     <g id="line2d_8">
      <g>
       <use style="stroke:#000000;stroke-width:0.8;" x="289.31508" xlink:href="#me7ecfa34bd" y="337.159219"/>
      </g>
     </g>
     <g id="text_4">
      <!-- 150 -->
      <g transform="translate(279.77133 351.757656)scale(0.1 -0.1)">
       <use xlink:href="#DejaVuSans-49"/>
       <use x="63.623047" xlink:href="#DejaVuSans-53"/>
       <use x="127.246094" xlink:href="#DejaVuSans-48"/>
      </g>
     </g>
    </g>
    <g id="xtick_5">
     <g id="line2d_9">
      <path clip-path="url(#pe2af0781c9)" d="M 369.038857 337.159219 
L 369.038857 10.999219 
" style="fill:none;stroke:#b0b0b0;stroke-linecap:square;stroke-width:0.8;"/>
     </g>
     <g id="line2d_10">
      <g>
       <use style="stroke:#000000;stroke-width:0.8;" x="369.038857" xlink:href="#me7ecfa34bd" y="337.159219"/>
      </g>
     </g>
     <g id="text_5">
      <!-- 200 -->
      <defs>
       <path d="M 19.1875 8.296875 
L 53.609375 8.296875 
L 53.609375 0 
L 7.328125 0 
L 7.328125 8.296875 
Q 12.9375 14.109375 22.625 23.890625 
Q 32.328125 33.6875 34.8125 36.53125 
Q 39.546875 41.84375 41.421875 45.53125 
Q 43.3125 49.21875 43.3125 52.78125 
Q 43.3125 58.59375 39.234375 62.25 
Q 35.15625 65.921875 28.609375 65.921875 
Q 23.96875 65.921875 18.8125 64.3125 
Q 13.671875 62.703125 7.8125 59.421875 
L 7.8125 69.390625 
Q 13.765625 71.78125 18.9375 73 
Q 24.125 74.21875 28.421875 74.21875 
Q 39.75 74.21875 46.484375 68.546875 
Q 53.21875 62.890625 53.21875 53.421875 
Q 53.21875 48.921875 51.53125 44.890625 
Q 49.859375 40.875 45.40625 35.40625 
Q 44.1875 33.984375 37.640625 27.21875 
Q 31.109375 20.453125 19.1875 8.296875 
z
" id="DejaVuSans-50"/>
      </defs>
      <g transform="translate(359.495107 351.757656)scale(0.1 -0.1)">
       <use xlink:href="#DejaVuSans-50"/>
       <use x="63.623047" xlink:href="#DejaVuSans-48"/>
       <use x="127.246094" xlink:href="#DejaVuSans-48"/>
      </g>
     </g>
    </g>
    <g id="xtick_6">
     <g id="line2d_11">
      <path clip-path="url(#pe2af0781c9)" d="M 448.762633 337.159219 
L 448.762633 10.999219 
" style="fill:none;stroke:#b0b0b0;stroke-linecap:square;stroke-width:0.8;"/>
     </g>
     <g id="line2d_12">
      <g>
       <use style="stroke:#000000;stroke-width:0.8;" x="448.762633" xlink:href="#me7ecfa34bd" y="337.159219"/>
      </g>
     </g>
     <g id="text_6">
      <!-- 250 -->
      <g transform="translate(439.218883 351.757656)scale(0.1 -0.1)">
       <use xlink:href="#DejaVuSans-50"/>
       <use x="63.623047" xlink:href="#DejaVuSans-53"/>
       <use x="127.246094" xlink:href="#DejaVuSans-48"/>
      </g>
     </g>
    </g>
    <g id="xtick_7">
     <g id="line2d_13">
      <path clip-path="url(#pe2af0781c9)" d="M 528.48641 337.159219 
L 528.48641 10.999219 
" style="fill:none;stroke:#b0b0b0;stroke-linecap:square;stroke-width:0.8;"/>
     </g>
     <g id="line2d_14">
      <g>
       <use style="stroke:#000000;stroke-width:0.8;" x="528.48641" xlink:href="#me7ecfa34bd" y="337.159219"/>
      </g>
     </g>
     <g id="text_7">
      <!-- 300 -->
      <defs>
       <path d="M 40.578125 39.3125 
Q 47.65625 37.796875 51.625 33 
Q 55.609375 28.21875 55.609375 21.1875 
Q 55.609375 10.40625 48.1875 4.484375 
Q 40.765625 -1.421875 27.09375 -1.421875 
Q 22.515625 -1.421875 17.65625 -0.515625 
Q 12.796875 0.390625 7.625 2.203125 
L 7.625 11.71875 
Q 11.71875 9.328125 16.59375 8.109375 
Q 21.484375 6.890625 26.8125 6.890625 
Q 36.078125 6.890625 40.9375 10.546875 
Q 45.796875 14.203125 45.796875 21.1875 
Q 45.796875 27.640625 41.28125 31.265625 
Q 36.765625 34.90625 28.71875 34.90625 
L 20.21875 34.90625 
L 20.21875 43.015625 
L 29.109375 43.015625 
Q 36.375 43.015625 40.234375 45.921875 
Q 44.09375 48.828125 44.09375 54.296875 
Q 44.09375 59.90625 40.109375 62.90625 
Q 36.140625 65.921875 28.71875 65.921875 
Q 24.65625 65.921875 20.015625 65.03125 
Q 15.375 64.15625 9.8125 62.3125 
L 9.8125 71.09375 
Q 15.4375 72.65625 20.34375 73.4375 
Q 25.25 74.21875 29.59375 74.21875 
Q 40.828125 74.21875 47.359375 69.109375 
Q 53.90625 64.015625 53.90625 55.328125 
Q 53.90625 49.265625 50.4375 45.09375 
Q 46.96875 40.921875 40.578125 39.3125 
z
" id="DejaVuSans-51"/>
      </defs>
      <g transform="translate(518.94266 351.757656)scale(0.1 -0.1)">
       <use xlink:href="#DejaVuSans-51"/>
       <use x="63.623047" xlink:href="#DejaVuSans-48"/>
       <use x="127.246094" xlink:href="#DejaVuSans-48"/>
      </g>
     </g>
    </g>
    <g id="xtick_8">
     <g id="line2d_15">
      <path clip-path="url(#pe2af0781c9)" d="M 608.210186 337.159219 
L 608.210186 10.999219 
" style="fill:none;stroke:#b0b0b0;stroke-linecap:square;stroke-width:0.8;"/>
     </g>
     <g id="line2d_16">
      <g>
       <use style="stroke:#000000;stroke-width:0.8;" x="608.210186" xlink:href="#me7ecfa34bd" y="337.159219"/>
      </g>
     </g>
     <g id="text_8">
      <!-- 350 -->
      <g transform="translate(598.666436 351.757656)scale(0.1 -0.1)">
       <use xlink:href="#DejaVuSans-51"/>
       <use x="63.623047" xlink:href="#DejaVuSans-53"/>
       <use x="127.246094" xlink:href="#DejaVuSans-48"/>
      </g>
     </g>
    </g>
    <g id="xtick_9">
     <g id="line2d_17">
      <path clip-path="url(#pe2af0781c9)" d="M 687.933963 337.159219 
L 687.933963 10.999219 
" style="fill:none;stroke:#b0b0b0;stroke-linecap:square;stroke-width:0.8;"/>
     </g>
     <g id="line2d_18">
      <g>
       <use style="stroke:#000000;stroke-width:0.8;" x="687.933963" xlink:href="#me7ecfa34bd" y="337.159219"/>
      </g>
     </g>
     <g id="text_9">
      <!-- 400 -->
      <defs>
       <path d="M 37.796875 64.3125 
L 12.890625 25.390625 
L 37.796875 25.390625 
z
M 35.203125 72.90625 
L 47.609375 72.90625 
L 47.609375 25.390625 
L 58.015625 25.390625 
L 58.015625 17.1875 
L 47.609375 17.1875 
L 47.609375 0 
L 37.796875 0 
L 37.796875 17.1875 
L 4.890625 17.1875 
L 4.890625 26.703125 
z
" id="DejaVuSans-52"/>
      </defs>
      <g transform="translate(678.390213 351.757656)scale(0.1 -0.1)">
       <use xlink:href="#DejaVuSans-52"/>
       <use x="63.623047" xlink:href="#DejaVuSans-48"/>
       <use x="127.246094" xlink:href="#DejaVuSans-48"/>
      </g>
     </g>
    </g>
    <g id="text_10">
     <!-- Epoch -->
     <defs>
      <path d="M 9.8125 72.90625 
L 55.90625 72.90625 
L 55.90625 64.59375 
L 19.671875 64.59375 
L 19.671875 43.015625 
L 54.390625 43.015625 
L 54.390625 34.71875 
L 19.671875 34.71875 
L 19.671875 8.296875 
L 56.78125 8.296875 
L 56.78125 0 
L 9.8125 0 
z
" id="DejaVuSans-69"/>
      <path d="M 18.109375 8.203125 
L 18.109375 -20.796875 
L 9.078125 -20.796875 
L 9.078125 54.6875 
L 18.109375 54.6875 
L 18.109375 46.390625 
Q 20.953125 51.265625 25.265625 53.625 
Q 29.59375 56 35.59375 56 
Q 45.5625 56 51.78125 48.09375 
Q 58.015625 40.1875 58.015625 27.296875 
Q 58.015625 14.40625 51.78125 6.484375 
Q 45.5625 -1.421875 35.59375 -1.421875 
Q 29.59375 -1.421875 25.265625 0.953125 
Q 20.953125 3.328125 18.109375 8.203125 
z
M 48.6875 27.296875 
Q 48.6875 37.203125 44.609375 42.84375 
Q 40.53125 48.484375 33.40625 48.484375 
Q 26.265625 48.484375 22.1875 42.84375 
Q 18.109375 37.203125 18.109375 27.296875 
Q 18.109375 17.390625 22.1875 11.75 
Q 26.265625 6.109375 33.40625 6.109375 
Q 40.53125 6.109375 44.609375 11.75 
Q 48.6875 17.390625 48.6875 27.296875 
z
" id="DejaVuSans-112"/>
      <path d="M 30.609375 48.390625 
Q 23.390625 48.390625 19.1875 42.75 
Q 14.984375 37.109375 14.984375 27.296875 
Q 14.984375 17.484375 19.15625 11.84375 
Q 23.34375 6.203125 30.609375 6.203125 
Q 37.796875 6.203125 41.984375 11.859375 
Q 46.1875 17.53125 46.1875 27.296875 
Q 46.1875 37.015625 41.984375 42.703125 
Q 37.796875 48.390625 30.609375 48.390625 
z
M 30.609375 56 
Q 42.328125 56 49.015625 48.375 
Q 55.71875 40.765625 55.71875 27.296875 
Q 55.71875 13.875 49.015625 6.21875 
Q 42.328125 -1.421875 30.609375 -1.421875 
Q 18.84375 -1.421875 12.171875 6.21875 
Q 5.515625 13.875 5.515625 27.296875 
Q 5.515625 40.765625 12.171875 48.375 
Q 18.84375 56 30.609375 56 
z
" id="DejaVuSans-111"/>
      <path d="M 48.78125 52.59375 
L 48.78125 44.1875 
Q 44.96875 46.296875 41.140625 47.34375 
Q 37.3125 48.390625 33.40625 48.390625 
Q 24.65625 48.390625 19.8125 42.84375 
Q 14.984375 37.3125 14.984375 27.296875 
Q 14.984375 17.28125 19.8125 11.734375 
Q 24.65625 6.203125 33.40625 6.203125 
Q 37.3125 6.203125 41.140625 7.25 
Q 44.96875 8.296875 48.78125 10.40625 
L 48.78125 2.09375 
Q 45.015625 0.34375 40.984375 -0.53125 
Q 36.96875 -1.421875 32.421875 -1.421875 
Q 20.0625 -1.421875 12.78125 6.34375 
Q 5.515625 14.109375 5.515625 27.296875 
Q 5.515625 40.671875 12.859375 48.328125 
Q 20.21875 56 33.015625 56 
Q 37.15625 56 41.109375 55.140625 
Q 45.0625 54.296875 48.78125 52.59375 
z
" id="DejaVuSans-99"/>
      <path d="M 54.890625 33.015625 
L 54.890625 0 
L 45.90625 0 
L 45.90625 32.71875 
Q 45.90625 40.484375 42.875 44.328125 
Q 39.84375 48.1875 33.796875 48.1875 
Q 26.515625 48.1875 22.3125 43.546875 
Q 18.109375 38.921875 18.109375 30.90625 
L 18.109375 0 
L 9.078125 0 
L 9.078125 75.984375 
L 18.109375 75.984375 
L 18.109375 46.1875 
Q 21.34375 51.125 25.703125 53.5625 
Q 30.078125 56 35.796875 56 
Q 45.21875 56 50.046875 50.171875 
Q 54.890625 44.34375 54.890625 33.015625 
z
" id="DejaVuSans-104"/>
     </defs>
     <g transform="translate(369.632813 365.435781)scale(0.1 -0.1)">
      <use xlink:href="#DejaVuSans-69"/>
      <use x="63.183594" xlink:href="#DejaVuSans-112"/>
      <use x="126.660156" xlink:href="#DejaVuSans-111"/>
      <use x="187.841797" xlink:href="#DejaVuSans-99"/>
      <use x="242.822266" xlink:href="#DejaVuSans-104"/>
     </g>
    </g>
   </g>
   <g id="matplotlib.axis_2">
    <g id="ytick_1">
     <g id="line2d_19">
      <path clip-path="url(#pe2af0781c9)" d="M 50.14375 337.159219 
L 719.74375 337.159219 
" style="fill:none;stroke:#b0b0b0;stroke-linecap:square;stroke-width:0.8;"/>
     </g>
     <g id="line2d_20">
      <defs>
       <path d="M 0 0 
L -3.5 0 
" id="m22c36a2e3f" style="stroke:#000000;stroke-width:0.8;"/>
      </defs>
      <g>
       <use style="stroke:#000000;stroke-width:0.8;" x="50.14375" xlink:href="#m22c36a2e3f" y="337.159219"/>
      </g>
     </g>
     <g id="text_11">
      <!-- 0.82 -->
      <defs>
       <path d="M 10.6875 12.40625 
L 21 12.40625 
L 21 0 
L 10.6875 0 
z
" id="DejaVuSans-46"/>
       <path d="M 31.78125 34.625 
Q 24.75 34.625 20.71875 30.859375 
Q 16.703125 27.09375 16.703125 20.515625 
Q 16.703125 13.921875 20.71875 10.15625 
Q 24.75 6.390625 31.78125 6.390625 
Q 38.8125 6.390625 42.859375 10.171875 
Q 46.921875 13.96875 46.921875 20.515625 
Q 46.921875 27.09375 42.890625 30.859375 
Q 38.875 34.625 31.78125 34.625 
z
M 21.921875 38.8125 
Q 15.578125 40.375 12.03125 44.71875 
Q 8.5 49.078125 8.5 55.328125 
Q 8.5 64.0625 14.71875 69.140625 
Q 20.953125 74.21875 31.78125 74.21875 
Q 42.671875 74.21875 48.875 69.140625 
Q 55.078125 64.0625 55.078125 55.328125 
Q 55.078125 49.078125 51.53125 44.71875 
Q 48 40.375 41.703125 38.8125 
Q 48.828125 37.15625 52.796875 32.3125 
Q 56.78125 27.484375 56.78125 20.515625 
Q 56.78125 9.90625 50.3125 4.234375 
Q 43.84375 -1.421875 31.78125 -1.421875 
Q 19.734375 -1.421875 13.25 4.234375 
Q 6.78125 9.90625 6.78125 20.515625 
Q 6.78125 27.484375 10.78125 32.3125 
Q 14.796875 37.15625 21.921875 38.8125 
z
M 18.3125 54.390625 
Q 18.3125 48.734375 21.84375 45.5625 
Q 25.390625 42.390625 31.78125 42.390625 
Q 38.140625 42.390625 41.71875 45.5625 
Q 45.3125 48.734375 45.3125 54.390625 
Q 45.3125 60.0625 41.71875 63.234375 
Q 38.140625 66.40625 31.78125 66.40625 
Q 25.390625 66.40625 21.84375 63.234375 
Q 18.3125 60.0625 18.3125 54.390625 
z
" id="DejaVuSans-56"/>
      </defs>
      <g transform="translate(20.878125 340.958437)scale(0.1 -0.1)">
       <use xlink:href="#DejaVuSans-48"/>
       <use x="63.623047" xlink:href="#DejaVuSans-46"/>
       <use x="95.410156" xlink:href="#DejaVuSans-56"/>
       <use x="159.033203" xlink:href="#DejaVuSans-50"/>
      </g>
     </g>
    </g>
    <g id="ytick_2">
     <g id="line2d_21">
      <path clip-path="url(#pe2af0781c9)" d="M 50.14375 296.389219 
L 719.74375 296.389219 
" style="fill:none;stroke:#b0b0b0;stroke-linecap:square;stroke-width:0.8;"/>
     </g>
     <g id="line2d_22">
      <g>
       <use style="stroke:#000000;stroke-width:0.8;" x="50.14375" xlink:href="#m22c36a2e3f" y="296.389219"/>
      </g>
     </g>
     <g id="text_12">
      <!-- 0.84 -->
      <g transform="translate(20.878125 300.188437)scale(0.1 -0.1)">
       <use xlink:href="#DejaVuSans-48"/>
       <use x="63.623047" xlink:href="#DejaVuSans-46"/>
       <use x="95.410156" xlink:href="#DejaVuSans-56"/>
       <use x="159.033203" xlink:href="#DejaVuSans-52"/>
      </g>
     </g>
    </g>
    <g id="ytick_3">
     <g id="line2d_23">
      <path clip-path="url(#pe2af0781c9)" d="M 50.14375 255.619219 
L 719.74375 255.619219 
" style="fill:none;stroke:#b0b0b0;stroke-linecap:square;stroke-width:0.8;"/>
     </g>
     <g id="line2d_24">
      <g>
       <use style="stroke:#000000;stroke-width:0.8;" x="50.14375" xlink:href="#m22c36a2e3f" y="255.619219"/>
      </g>
     </g>
     <g id="text_13">
      <!-- 0.86 -->
      <defs>
       <path d="M 33.015625 40.375 
Q 26.375 40.375 22.484375 35.828125 
Q 18.609375 31.296875 18.609375 23.390625 
Q 18.609375 15.53125 22.484375 10.953125 
Q 26.375 6.390625 33.015625 6.390625 
Q 39.65625 6.390625 43.53125 10.953125 
Q 47.40625 15.53125 47.40625 23.390625 
Q 47.40625 31.296875 43.53125 35.828125 
Q 39.65625 40.375 33.015625 40.375 
z
M 52.59375 71.296875 
L 52.59375 62.3125 
Q 48.875 64.0625 45.09375 64.984375 
Q 41.3125 65.921875 37.59375 65.921875 
Q 27.828125 65.921875 22.671875 59.328125 
Q 17.53125 52.734375 16.796875 39.40625 
Q 19.671875 43.65625 24.015625 45.921875 
Q 28.375 48.1875 33.59375 48.1875 
Q 44.578125 48.1875 50.953125 41.515625 
Q 57.328125 34.859375 57.328125 23.390625 
Q 57.328125 12.15625 50.6875 5.359375 
Q 44.046875 -1.421875 33.015625 -1.421875 
Q 20.359375 -1.421875 13.671875 8.265625 
Q 6.984375 17.96875 6.984375 36.375 
Q 6.984375 53.65625 15.1875 63.9375 
Q 23.390625 74.21875 37.203125 74.21875 
Q 40.921875 74.21875 44.703125 73.484375 
Q 48.484375 72.75 52.59375 71.296875 
z
" id="DejaVuSans-54"/>
      </defs>
      <g transform="translate(20.878125 259.418437)scale(0.1 -0.1)">
       <use xlink:href="#DejaVuSans-48"/>
       <use x="63.623047" xlink:href="#DejaVuSans-46"/>
       <use x="95.410156" xlink:href="#DejaVuSans-56"/>
       <use x="159.033203" xlink:href="#DejaVuSans-54"/>
      </g>
     </g>
    </g>
    <g id="ytick_4">
     <g id="line2d_25">
      <path clip-path="url(#pe2af0781c9)" d="M 50.14375 214.849219 
L 719.74375 214.849219 
" style="fill:none;stroke:#b0b0b0;stroke-linecap:square;stroke-width:0.8;"/>
     </g>
     <g id="line2d_26">
      <g>
       <use style="stroke:#000000;stroke-width:0.8;" x="50.14375" xlink:href="#m22c36a2e3f" y="214.849219"/>
      </g>
     </g>
     <g id="text_14">
      <!-- 0.88 -->
      <g transform="translate(20.878125 218.648437)scale(0.1 -0.1)">
       <use xlink:href="#DejaVuSans-48"/>
       <use x="63.623047" xlink:href="#DejaVuSans-46"/>
       <use x="95.410156" xlink:href="#DejaVuSans-56"/>
       <use x="159.033203" xlink:href="#DejaVuSans-56"/>
      </g>
     </g>
    </g>
    <g id="ytick_5">
     <g id="line2d_27">
      <path clip-path="url(#pe2af0781c9)" d="M 50.14375 174.079219 
L 719.74375 174.079219 
" style="fill:none;stroke:#b0b0b0;stroke-linecap:square;stroke-width:0.8;"/>
     </g>
     <g id="line2d_28">
      <g>
       <use style="stroke:#000000;stroke-width:0.8;" x="50.14375" xlink:href="#m22c36a2e3f" y="174.079219"/>
      </g>
     </g>
     <g id="text_15">
      <!-- 0.90 -->
      <defs>
       <path d="M 10.984375 1.515625 
L 10.984375 10.5 
Q 14.703125 8.734375 18.5 7.8125 
Q 22.3125 6.890625 25.984375 6.890625 
Q 35.75 6.890625 40.890625 13.453125 
Q 46.046875 20.015625 46.78125 33.40625 
Q 43.953125 29.203125 39.59375 26.953125 
Q 35.25 24.703125 29.984375 24.703125 
Q 19.046875 24.703125 12.671875 31.3125 
Q 6.296875 37.9375 6.296875 49.421875 
Q 6.296875 60.640625 12.9375 67.421875 
Q 19.578125 74.21875 30.609375 74.21875 
Q 43.265625 74.21875 49.921875 64.515625 
Q 56.59375 54.828125 56.59375 36.375 
Q 56.59375 19.140625 48.40625 8.859375 
Q 40.234375 -1.421875 26.421875 -1.421875 
Q 22.703125 -1.421875 18.890625 -0.6875 
Q 15.09375 0.046875 10.984375 1.515625 
z
M 30.609375 32.421875 
Q 37.25 32.421875 41.125 36.953125 
Q 45.015625 41.5 45.015625 49.421875 
Q 45.015625 57.28125 41.125 61.84375 
Q 37.25 66.40625 30.609375 66.40625 
Q 23.96875 66.40625 20.09375 61.84375 
Q 16.21875 57.28125 16.21875 49.421875 
Q 16.21875 41.5 20.09375 36.953125 
Q 23.96875 32.421875 30.609375 32.421875 
z
" id="DejaVuSans-57"/>
      </defs>
      <g transform="translate(20.878125 177.878437)scale(0.1 -0.1)">
       <use xlink:href="#DejaVuSans-48"/>
       <use x="63.623047" xlink:href="#DejaVuSans-46"/>
       <use x="95.410156" xlink:href="#DejaVuSans-57"/>
       <use x="159.033203" xlink:href="#DejaVuSans-48"/>
      </g>
     </g>
    </g>
    <g id="ytick_6">
     <g id="line2d_29">
      <path clip-path="url(#pe2af0781c9)" d="M 50.14375 133.309219 
L 719.74375 133.309219 
" style="fill:none;stroke:#b0b0b0;stroke-linecap:square;stroke-width:0.8;"/>
     </g>
     <g id="line2d_30">
      <g>
       <use style="stroke:#000000;stroke-width:0.8;" x="50.14375" xlink:href="#m22c36a2e3f" y="133.309219"/>
      </g>
     </g>
     <g id="text_16">
      <!-- 0.92 -->
      <g transform="translate(20.878125 137.108437)scale(0.1 -0.1)">
       <use xlink:href="#DejaVuSans-48"/>
       <use x="63.623047" xlink:href="#DejaVuSans-46"/>
       <use x="95.410156" xlink:href="#DejaVuSans-57"/>
       <use x="159.033203" xlink:href="#DejaVuSans-50"/>
      </g>
     </g>
    </g>
    <g id="ytick_7">
     <g id="line2d_31">
      <path clip-path="url(#pe2af0781c9)" d="M 50.14375 92.539219 
L 719.74375 92.539219 
" style="fill:none;stroke:#b0b0b0;stroke-linecap:square;stroke-width:0.8;"/>
     </g>
     <g id="line2d_32">
      <g>
       <use style="stroke:#000000;stroke-width:0.8;" x="50.14375" xlink:href="#m22c36a2e3f" y="92.539219"/>
      </g>
     </g>
     <g id="text_17">
      <!-- 0.94 -->
      <g transform="translate(20.878125 96.338437)scale(0.1 -0.1)">
       <use xlink:href="#DejaVuSans-48"/>
       <use x="63.623047" xlink:href="#DejaVuSans-46"/>
       <use x="95.410156" xlink:href="#DejaVuSans-57"/>
       <use x="159.033203" xlink:href="#DejaVuSans-52"/>
      </g>
     </g>
    </g>
    <g id="ytick_8">
     <g id="line2d_33">
      <path clip-path="url(#pe2af0781c9)" d="M 50.14375 51.769219 
L 719.74375 51.769219 
" style="fill:none;stroke:#b0b0b0;stroke-linecap:square;stroke-width:0.8;"/>
     </g>
     <g id="line2d_34">
      <g>
       <use style="stroke:#000000;stroke-width:0.8;" x="50.14375" xlink:href="#m22c36a2e3f" y="51.769219"/>
      </g>
     </g>
     <g id="text_18">
      <!-- 0.96 -->
      <g transform="translate(20.878125 55.568437)scale(0.1 -0.1)">
       <use xlink:href="#DejaVuSans-48"/>
       <use x="63.623047" xlink:href="#DejaVuSans-46"/>
       <use x="95.410156" xlink:href="#DejaVuSans-57"/>
       <use x="159.033203" xlink:href="#DejaVuSans-54"/>
      </g>
     </g>
    </g>
    <g id="ytick_9">
     <g id="line2d_35">
      <path clip-path="url(#pe2af0781c9)" d="M 50.14375 10.999219 
L 719.74375 10.999219 
" style="fill:none;stroke:#b0b0b0;stroke-linecap:square;stroke-width:0.8;"/>
     </g>
     <g id="line2d_36">
      <g>
       <use style="stroke:#000000;stroke-width:0.8;" x="50.14375" xlink:href="#m22c36a2e3f" y="10.999219"/>
      </g>
     </g>
     <g id="text_19">
      <!-- 0.98 -->
      <g transform="translate(20.878125 14.798437)scale(0.1 -0.1)">
       <use xlink:href="#DejaVuSans-48"/>
       <use x="63.623047" xlink:href="#DejaVuSans-46"/>
       <use x="95.410156" xlink:href="#DejaVuSans-57"/>
       <use x="159.033203" xlink:href="#DejaVuSans-56"/>
      </g>
     </g>
    </g>
    <g id="text_20">
     <!-- Accuracy -->
     <defs>
      <path d="M 34.1875 63.1875 
L 20.796875 26.90625 
L 47.609375 26.90625 
z
M 28.609375 72.90625 
L 39.796875 72.90625 
L 67.578125 0 
L 57.328125 0 
L 50.6875 18.703125 
L 17.828125 18.703125 
L 11.1875 0 
L 0.78125 0 
z
" id="DejaVuSans-65"/>
      <path d="M 8.5 21.578125 
L 8.5 54.6875 
L 17.484375 54.6875 
L 17.484375 21.921875 
Q 17.484375 14.15625 20.5 10.265625 
Q 23.53125 6.390625 29.59375 6.390625 
Q 36.859375 6.390625 41.078125 11.03125 
Q 45.3125 15.671875 45.3125 23.6875 
L 45.3125 54.6875 
L 54.296875 54.6875 
L 54.296875 0 
L 45.3125 0 
L 45.3125 8.40625 
Q 42.046875 3.421875 37.71875 1 
Q 33.40625 -1.421875 27.6875 -1.421875 
Q 18.265625 -1.421875 13.375 4.4375 
Q 8.5 10.296875 8.5 21.578125 
z
M 31.109375 56 
z
" id="DejaVuSans-117"/>
      <path d="M 41.109375 46.296875 
Q 39.59375 47.171875 37.8125 47.578125 
Q 36.03125 48 33.890625 48 
Q 26.265625 48 22.1875 43.046875 
Q 18.109375 38.09375 18.109375 28.8125 
L 18.109375 0 
L 9.078125 0 
L 9.078125 54.6875 
L 18.109375 54.6875 
L 18.109375 46.1875 
Q 20.953125 51.171875 25.484375 53.578125 
Q 30.03125 56 36.53125 56 
Q 37.453125 56 38.578125 55.875 
Q 39.703125 55.765625 41.0625 55.515625 
z
" id="DejaVuSans-114"/>
      <path d="M 34.28125 27.484375 
Q 23.390625 27.484375 19.1875 25 
Q 14.984375 22.515625 14.984375 16.5 
Q 14.984375 11.71875 18.140625 8.90625 
Q 21.296875 6.109375 26.703125 6.109375 
Q 34.1875 6.109375 38.703125 11.40625 
Q 43.21875 16.703125 43.21875 25.484375 
L 43.21875 27.484375 
z
M 52.203125 31.203125 
L 52.203125 0 
L 43.21875 0 
L 43.21875 8.296875 
Q 40.140625 3.328125 35.546875 0.953125 
Q 30.953125 -1.421875 24.3125 -1.421875 
Q 15.921875 -1.421875 10.953125 3.296875 
Q 6 8.015625 6 15.921875 
Q 6 25.140625 12.171875 29.828125 
Q 18.359375 34.515625 30.609375 34.515625 
L 43.21875 34.515625 
L 43.21875 35.40625 
Q 43.21875 41.609375 39.140625 45 
Q 35.0625 48.390625 27.6875 48.390625 
Q 23 48.390625 18.546875 47.265625 
Q 14.109375 46.140625 10.015625 43.890625 
L 10.015625 52.203125 
Q 14.9375 54.109375 19.578125 55.046875 
Q 24.21875 56 28.609375 56 
Q 40.484375 56 46.34375 49.84375 
Q 52.203125 43.703125 52.203125 31.203125 
z
" id="DejaVuSans-97"/>
      <path d="M 32.171875 -5.078125 
Q 28.375 -14.84375 24.75 -17.8125 
Q 21.140625 -20.796875 15.09375 -20.796875 
L 7.90625 -20.796875 
L 7.90625 -13.28125 
L 13.1875 -13.28125 
Q 16.890625 -13.28125 18.9375 -11.515625 
Q 21 -9.765625 23.484375 -3.21875 
L 25.09375 0.875 
L 2.984375 54.6875 
L 12.5 54.6875 
L 29.59375 11.921875 
L 46.6875 54.6875 
L 56.203125 54.6875 
z
" id="DejaVuSans-121"/>
     </defs>
     <g transform="translate(14.798438 196.994062)rotate(-90)scale(0.1 -0.1)">
      <use xlink:href="#DejaVuSans-65"/>
      <use x="68.392578" xlink:href="#DejaVuSans-99"/>
      <use x="123.373047" xlink:href="#DejaVuSans-99"/>
      <use x="178.353516" xlink:href="#DejaVuSans-117"/>
      <use x="241.732422" xlink:href="#DejaVuSans-114"/>
      <use x="282.845703" xlink:href="#DejaVuSans-97"/>
      <use x="344.125" xlink:href="#DejaVuSans-99"/>
      <use x="399.105469" xlink:href="#DejaVuSans-121"/>
     </g>
    </g>
   </g>
   <g id="line2d_37">
    <path clip-path="url(#pe2af0781c9)" d="M 89.390002 375.715469 
L 91.858677 363.60952 
L 95.04284 349.177097 
L 98.227003 335.817261 
L 101.411166 323.462808 
L 104.595329 312.04653 
L 107.779492 301.501223 
L 110.963655 291.759681 
L 114.147817 282.754697 
L 117.33198 274.419067 
L 120.516143 266.685583 
L 123.700306 259.487042 
L 127.521301 251.460289 
L 131.342297 243.990944 
L 135.163292 236.977609 
L 138.984288 230.383632 
L 142.805283 224.19014 
L 146.626278 218.37826 
L 150.447274 212.92912 
L 154.268269 207.823848 
L 158.089265 203.043572 
L 162.547093 197.852163 
L 167.004921 193.047453 
L 171.462749 188.599473 
L 175.920577 184.478255 
L 180.378405 180.653831 
L 184.836233 177.09623 
L 189.930893 173.318682 
L 195.025554 169.805762 
L 200.757047 166.114342 
L 207.762205 161.887643 
L 216.677861 156.797394 
L 226.23035 151.604863 
L 235.782838 146.669904 
L 245.335327 141.981954 
L 254.887815 137.53045 
L 265.077137 133.030895 
L 275.266458 128.775526 
L 285.455779 124.751525 
L 296.281932 120.715195 
L 307.108086 116.910209 
L 318.571072 113.116471 
L 330.670891 109.354475 
L 343.407543 105.640357 
L 356.781027 101.984996 
L 370.791343 98.393083 
L 385.438492 94.866467 
L 400.722474 91.41787 
L 416.643288 88.061297 
L 432.564102 84.928964 
L 449.121749 81.891468 
L 466.953061 78.850297 
L 485.421206 75.927782 
L 505.163015 73.030626 
L 526.815323 70.086136 
L 550.378128 67.111666 
L 577.761928 63.88676 
L 613.424552 59.92789 
L 687.933963 51.766832 
L 687.933963 51.766832 
" style="fill:none;stroke:#377eb8;stroke-linecap:square;stroke-width:2;"/>
   </g>
   <g id="line2d_38">
    <path clip-path="url(#pe2af0781c9)" d="M 80.486696 375.715469 
L 81.669356 364.858493 
L 82.943021 354.928653 
L 84.216687 346.576661 
L 85.490352 339.581045 
L 86.764017 333.720336 
L 88.037682 328.77306 
L 89.311347 324.517746 
L 91.221845 318.947736 
L 95.04284 308.719621 
L 98.863836 299.122808 
L 102.684831 290.131658 
L 106.505827 281.721497 
L 110.326822 273.867649 
L 114.147817 266.545439 
L 117.968813 259.73019 
L 121.789808 253.397229 
L 125.610804 247.52188 
L 129.431799 242.079467 
L 133.252795 237.04542 
L 137.07379 232.397987 
L 140.894785 228.118471 
L 144.715781 224.188329 
L 148.536776 220.589018 
L 152.357772 217.301995 
L 156.178767 214.308718 
L 159.999762 211.590644 
L 163.820758 209.129229 
L 167.641753 206.905932 
L 172.099581 204.5883 
L 176.557409 202.540087 
L 181.015237 200.731848 
L 186.109898 198.921362 
L 191.204558 197.341899 
L 196.936052 195.786419 
L 203.94121 194.115519 
L 215.404196 191.647977 
L 235.146006 187.610442 
L 254.887815 183.79997 
L 273.992793 180.333714 
L 293.09777 177.090093 
L 312.202747 174.074019 
L 330.670891 171.379392 
L 349.139036 168.90642 
L 367.60718 166.659539 
L 386.075325 164.641655 
L 404.543469 162.845592 
L 423.648447 161.20904 
L 443.390256 159.741415 
L 463.768898 158.450261 
L 484.784373 157.341037 
L 507.073513 156.392894 
L 529.999486 155.64238 
L 554.199123 155.073796 
L 580.309259 154.689226 
L 608.329892 154.505401 
L 638.897855 154.529895 
L 674.560479 154.78888 
L 687.933963 154.934407 
L 687.933963 154.934407 
" style="fill:none;stroke:#4daf4a;stroke-linecap:square;stroke-width:2;"/>
   </g>
   <g id="line2d_39">
    <path clip-path="url(#pe2af0781c9)" d="M 90.414281 375.715469 
L 91.600114 368.552118 
L 93.194589 362.946285 
L 94.789065 353.620118 
L 96.38354 346.077632 
L 97.978016 335.681258 
L 99.572492 330.941749 
L 101.166967 325.437857 
L 102.761443 305.715317 
L 104.355918 304.950935 
L 105.950394 307.600939 
L 107.544869 297.306506 
L 109.139345 294.503651 
L 110.73382 287.87852 
L 112.328296 286.247692 
L 113.922771 279.265825 
L 115.517247 273.659992 
L 117.111722 274.628258 
L 118.706198 273.048341 
L 120.300673 262.652088 
L 121.895149 265.913622 
L 123.489625 253.7846 
L 125.0841 251.542242 
L 126.678576 249.707531 
L 128.273051 248.127735 
L 129.867527 237.731361 
L 131.462002 237.119831 
L 133.056478 241.196778 
L 134.650953 234.469827 
L 136.245429 234.571647 
L 137.839904 235.896771 
L 139.43438 223.563865 
L 141.028855 223.054155 
L 142.623331 224.990809 
L 144.217806 221.270475 
L 145.812282 220.35312 
L 147.406758 216.581998 
L 149.001233 215.460758 
L 150.595709 213.422285 
L 152.190184 216.17423 
L 153.78466 207.816451 
L 155.379135 207.71451 
L 156.973611 204.045208 
L 158.568086 205.625004 
L 160.162562 201.242231 
L 161.757037 198.745079 
L 163.351513 199.509461 
L 164.945988 197.01231 
L 166.540464 196.451811 
L 168.134939 193.852718 
L 169.729415 194.66801 
L 171.32389 188.603499 
L 172.918366 188.654531 
L 174.512842 183.507254 
L 176.107317 189.520855 
L 177.701793 183.099608 
L 179.296268 185.698701 
L 182.485219 181.672664 
L 184.079695 177.850389 
L 185.67417 175.811915 
L 187.268646 176.780181 
L 188.863121 175.964889 
L 190.457597 177.442743 
L 192.052072 173.620589 
L 193.646548 177.238859 
L 195.241023 170.002198 
L 196.835499 170.817612 
L 198.429975 166.281987 
L 200.02445 167.861783 
L 201.618926 168.116577 
L 203.213401 159.86074 
L 204.807877 161.542478 
L 206.402352 168.116577 
L 207.996828 159.504004 
L 209.591303 157.975118 
L 211.185779 163.479009 
L 212.780254 157.312556 
L 214.37473 159.707766 
L 215.969205 150.738336 
L 217.563681 153.388461 
L 219.158156 154.254785 
L 220.752632 152.929783 
L 222.347108 157.873176 
L 223.941583 152.114369 
L 225.536059 151.451929 
L 227.130534 151.451929 
L 228.72501 152.623957 
L 230.319485 150.075896 
L 231.913961 148.241184 
L 233.508436 149.209572 
L 235.102912 146.916182 
L 236.697387 147.578744 
L 238.291863 144.164237 
L 239.886338 141.921879 
L 241.480814 144.011385 
L 243.075289 145.438328 
L 244.669765 141.769027 
L 246.264241 143.195971 
L 247.858716 145.132503 
L 249.453192 141.004523 
L 251.047667 138.507372 
L 252.642143 137.844932 
L 254.236618 132.137035 
L 255.831094 135.95931 
L 257.425569 139.118902 
L 259.020045 133.207243 
L 260.61452 134.889102 
L 262.208996 131.117859 
L 263.803471 131.525505 
L 265.397947 129.996619 
L 266.992422 134.430424 
L 268.586898 130.710091 
L 270.181374 129.028353 
L 271.775849 132.188067 
L 273.370325 126.938848 
L 274.9648 128.518765 
L 276.559276 129.792857 
L 278.153751 127.907235 
L 279.748227 127.142732 
L 281.342702 122.912811 
L 282.937178 123.218636 
L 284.531653 124.08496 
L 286.126129 121.333015 
L 287.720604 122.097518 
L 289.31508 124.59467 
L 290.909555 123.014753 
L 292.504031 123.167726 
L 294.098507 117.408919 
L 295.692982 126.37835 
L 297.287458 122.097518 
L 298.881933 126.276408 
L 302.070884 115.62524 
L 303.66536 114.249206 
L 305.259835 121.02731 
L 306.854311 117.510861 
L 308.448786 115.523298 
L 310.043262 117.154125 
L 311.637737 112.516558 
L 313.232213 114.504 
L 314.826688 111.853996 
L 316.421164 109.66267 
L 318.01564 113.433792 
L 319.610115 110.172259 
L 322.799066 114.911768 
L 324.393542 109.611639 
L 325.988017 109.509697 
L 327.582493 110.477963 
L 329.176968 109.560729 
L 330.771444 108.949199 
L 332.365919 109.815523 
L 333.960395 110.528994 
L 335.55487 105.48366 
L 337.149346 107.980811 
L 338.743821 107.165397 
L 340.338297 107.063577 
L 341.932773 104.31151 
L 343.527248 102.018242 
L 345.121724 105.840395 
L 346.716199 108.796225 
L 348.310675 103.190392 
L 349.90515 102.47692 
L 351.499626 102.884566 
L 353.094101 101.86539 
L 354.688577 103.64907 
L 356.283052 103.190392 
L 357.877528 98.90956 
L 359.472003 98.450883 
L 362.660954 100.591298 
L 364.25543 100.387414 
L 365.849905 103.801922 
L 367.444381 98.043115 
L 369.038857 101.967332 
L 370.633332 100.438446 
L 372.227808 100.998944 
L 373.822283 95.698937 
L 375.416759 94.883523 
L 377.011234 97.992205 
L 378.60571 94.526787 
L 380.200185 95.851789 
L 381.794661 93.150754 
L 383.389136 94.424845 
L 384.983612 92.845049 
L 386.578087 90.55166 
L 388.172563 95.240259 
L 389.767038 92.89596 
L 391.361514 94.373814 
L 392.95599 93.201785 
L 394.550465 96.769145 
L 396.144941 91.316164 
L 397.739416 90.704512 
L 399.333892 90.55166 
L 400.928367 92.437282 
L 402.522843 91.417984 
L 404.117318 92.641166 
L 405.711794 87.391947 
L 407.306269 91.72381 
L 408.900745 91.16319 
L 410.49522 89.481452 
L 412.089696 86.016035 
L 413.684171 88.869922 
L 415.278647 91.16319 
L 416.873123 91.316164 
L 418.467598 88.360334 
L 420.062074 85.914093 
L 421.656549 86.984301 
L 423.251025 89.99104 
L 424.8455 86.117977 
L 426.439976 87.952567 
L 428.034451 85.149711 
L 429.628927 82.907353 
L 431.223402 84.232355 
L 432.817878 87.391947 
L 434.412353 81.327436 
L 436.006829 84.283265 
L 437.601304 84.894795 
L 439.19578 81.684172 
L 440.790256 81.429378 
L 442.384731 84.691033 
L 443.979207 82.448675 
L 445.573682 80.715906 
L 447.168158 80.563054 
L 448.762633 82.805411 
L 450.357109 86.321739 
L 451.951584 80.563054 
L 453.54606 80.512022 
L 455.140535 81.633261 
L 456.735011 81.633261 
L 458.329486 82.805411 
L 459.923962 83.365909 
L 461.518437 83.060205 
L 463.112913 80.715906 
L 464.707389 81.378467 
L 466.301864 81.225494 
L 467.89634 78.881316 
L 469.490815 78.728342 
L 471.085291 77.097636 
L 472.679766 75.976397 
L 474.274242 77.301398 
L 475.868717 77.709166 
L 477.463193 80.766937 
L 479.057668 76.537016 
L 480.652144 81.327436 
L 482.246619 74.447511 
L 483.841095 74.294659 
L 485.43557 75.212014 
L 487.030046 76.537016 
L 488.624522 75.415777 
L 490.218997 77.862018 
L 491.813473 74.192717 
L 493.407948 75.976397 
L 495.002424 75.415777 
L 496.596899 74.702305 
L 498.191375 70.931062 
L 499.78585 76.282222 
L 501.380326 73.886891 
L 502.974801 75.364867 
L 504.569277 75.721602 
L 506.163752 71.848417 
L 507.758228 72.307095 
L 509.352703 73.530155 
L 510.947179 76.537016 
L 512.541655 70.319532 
L 514.13613 70.319532 
L 515.730606 71.746475 
L 517.325081 70.931062 
L 518.919557 72.409037 
L 520.514032 71.899449 
L 522.108508 69.962796 
L 523.702983 68.281058 
L 525.297459 65.478081 
L 526.891934 68.739736 
L 528.48641 67.82238 
L 530.080885 70.115769 
L 531.675361 70.625357 
L 533.269836 68.739736 
L 534.864312 69.55515 
L 536.458788 67.21085 
L 538.053263 65.121345 
L 539.647739 70.370563 
L 541.242214 68.077174 
L 542.83669 68.99453 
L 544.431165 66.395436 
L 546.025641 72.103211 
L 547.620116 66.344526 
L 549.214592 64.255021 
L 550.809067 67.21085 
L 552.403543 66.752172 
L 553.998018 65.98779 
L 555.592494 64.81564 
L 557.186969 66.65023 
L 558.781445 66.191552 
L 560.37592 67.15994 
L 561.970396 65.325228 
L 563.564872 62.420431 
L 565.159347 64.764609 
L 566.753823 63.031961 
L 568.348298 66.59932 
L 569.942774 66.548288 
L 571.537249 65.529112 
L 573.131725 65.325228 
L 574.7262 64.611757 
L 576.320676 62.675225 
L 577.915151 67.669528 
L 579.509627 62.828077 
L 581.104102 61.095307 
L 582.698578 66.803204 
L 584.293053 59.974189 
L 585.887529 63.184813 
L 587.482005 62.777167 
L 589.07648 59.260717 
L 590.670956 60.738571 
L 592.265431 66.191552 
L 593.859907 62.471341 
L 595.454382 62.063695 
L 597.048858 66.242584 
L 598.643333 57.986626 
L 600.237809 66.293494 
L 601.832284 60.076131 
L 603.42676 59.515511 
L 605.021235 59.668363 
L 606.615711 58.700098 
L 608.210186 61.095307 
L 609.804662 56.865508 
L 611.399138 55.642326 
L 612.993613 62.777167 
L 614.588089 61.095307 
L 616.182564 57.935715 
L 617.77704 58.190509 
L 619.371515 56.40683 
L 620.965991 59.056834 
L 622.560466 57.120302 
L 624.154942 63.235723 
L 625.749417 54.368356 
L 627.343893 55.948152 
L 628.938368 58.24142 
L 630.532844 61.401133 
L 633.721795 57.57898 
L 635.316271 59.464601 
L 636.910746 57.120302 
L 638.505222 57.426006 
L 640.099697 56.508772 
L 641.694173 58.496214 
L 643.288648 56.610714 
L 644.883124 56.40683 
L 646.477599 55.897242 
L 648.072075 55.84621 
L 649.66655 52.890381 
L 651.261026 53.451 
L 652.855501 55.7953 
L 654.449977 57.222244 
L 656.044452 54.725092 
L 657.638928 55.489474 
L 659.233404 53.858646 
L 660.827879 54.368356 
L 662.422355 55.081828 
L 664.01683 55.030796 
L 665.611306 53.501911 
L 667.205781 54.215382 
L 668.800257 52.737528 
L 670.394732 55.999062 
L 671.989208 53.705794 
L 673.583683 56.559682 
L 675.178159 52.431703 
L 676.772634 55.030796 
L 678.36711 52.584676 
L 679.961585 54.725092 
L 681.556061 55.030796 
L 683.150537 50.546081 
L 684.745012 54.01162 
L 686.339488 48.303723 
L 687.933963 53.043233 
L 687.933963 53.043233 
" style="fill:none;stroke:#377eb8;stroke-linecap:square;stroke-opacity:0.25098;stroke-width:1.5;"/>
   </g>
   <g id="line2d_40">
    <path clip-path="url(#pe2af0781c9)" d="M 81.544039 375.715469 
L 82.033261 366.399066 
L 83.374097 375.715469 
M 83.81536 375.715469 
L 85.222212 362.500972 
L 86.816687 332.957501 
L 88.411163 350.806692 
L 90.005638 325.776732 
L 91.600114 317.570226 
L 93.194589 326.392272 
L 94.789065 317.159907 
L 96.38354 328.443868 
L 97.978016 292.950707 
L 99.572492 308.337861 
L 101.166967 312.646395 
L 102.761443 286.795797 
L 104.355918 282.282164 
L 105.950394 286.590577 
L 107.544869 281.051206 
L 109.139345 278.99961 
L 110.73382 275.101516 
L 112.328296 261.150419 
L 113.922771 274.075658 
L 115.517247 262.791696 
L 117.111722 247.609641 
L 118.706198 265.048513 
L 120.300673 249.045819 
L 121.895149 255.611049 
L 123.489625 256.226467 
L 125.0841 246.994223 
L 126.678576 241.865051 
L 128.273051 231.401728 
L 129.867527 244.327087 
L 131.462002 230.581089 
L 133.056478 233.863765 
L 134.650953 243.506449 
L 136.245429 213.552537 
L 137.839904 225.657258 
L 139.43438 229.350132 
L 141.028855 227.503634 
L 142.623331 213.962856 
L 144.217806 230.37599 
L 145.812282 223.810761 
L 147.406758 239.813454 
L 149.001233 215.399034 
L 150.595709 211.91126 
L 152.190184 218.68171 
L 153.78466 208.833805 
L 155.379135 212.731899 
L 156.973611 215.604255 
L 158.568086 224.426179 
L 161.757037 199.191121 
L 163.351513 222.990123 
L 164.945988 218.06617 
L 168.134939 197.139524 
L 169.729415 216.424893 
L 171.32389 208.013167 
L 172.918366 210.885523 
L 174.512842 205.96157 
L 176.107317 211.090622 
L 177.701793 192.010473 
L 179.296268 201.447937 
L 180.890744 202.884115 
L 182.485219 207.397748 
L 184.079695 194.26729 
L 185.67417 196.318886 
L 187.268646 205.551251 
L 188.863121 212.5268 
L 192.052072 183.803967 
L 193.646548 185.445244 
L 195.241023 194.677609 
L 196.835499 192.626013 
L 200.02445 191.805253 
L 201.618926 192.010473 
L 203.213401 199.80666 
L 204.807877 191.805253 
L 206.402352 203.499655 
L 207.996828 193.036332 
L 209.591303 184.214286 
L 211.185779 189.343337 
L 212.780254 179.290334 
L 214.37473 189.958877 
L 215.969205 187.907159 
L 217.563681 178.469695 
L 219.158156 171.494147 
L 220.752632 188.933018 
L 222.347108 193.036332 
L 223.941583 182.16269 
L 225.536059 186.265882 
L 227.130534 185.855563 
L 228.72501 187.907159 
L 230.319485 182.983328 
L 231.913961 182.367789 
L 233.508436 185.240145 
L 235.102912 191.394934 
L 236.697387 192.215572 
L 238.291863 189.548558 
L 239.886338 189.958877 
L 241.480814 177.649057 
L 243.075289 183.188427 
L 244.669765 185.240145 
L 246.264241 189.958877 
L 247.858716 180.726512 
L 249.453192 195.703346 
L 251.047667 187.49684 
L 252.642143 186.471103 
L 254.236618 188.933018 
L 255.831094 187.907159 
L 257.425569 195.703346 
L 259.020045 171.289048 
L 260.61452 185.445244 
L 262.208996 190.984614 
L 263.803471 171.904466 
L 265.397947 178.880015 
L 266.992422 188.933018 
L 268.586898 181.752371 
L 270.181374 181.136831 
L 271.775849 182.573009 
L 273.370325 177.854277 
L 274.9648 184.214286 
L 276.559276 178.264596 
L 278.153751 176.00778 
L 279.748227 184.214286 
L 281.342702 185.445244 
L 282.937178 182.778108 
L 284.531653 172.725105 
L 286.126129 172.109686 
L 287.720604 179.085235 
L 289.31508 186.881422 
L 292.504031 168.827011 
L 294.098507 176.828418 
L 295.692982 171.699367 
L 297.287458 174.366503 
L 298.881933 179.905873 
L 300.476409 168.621912 
L 302.070884 181.960386 
L 303.66536 189.138239 
L 305.259835 173.956062 
L 306.854311 169.647649 
L 308.448786 177.649057 
L 310.043262 172.725105 
L 311.637737 186.676202 
L 313.232213 180.931611 
L 314.826688 168.006373 
L 316.421164 172.314785 
L 318.01564 164.723819 
L 319.610115 168.006373 
L 321.204591 175.597461 
L 322.799066 167.185734 
L 324.393542 177.238738 
L 325.988017 178.880015 
L 327.582493 173.750963 
L 329.176968 170.057969 
L 330.771444 180.110972 
L 332.365919 176.828418 
L 333.960395 169.85287 
L 337.149346 187.086521 
L 338.743821 179.085235 
L 340.338297 175.39224 
L 341.932773 168.211593 
L 343.527248 168.416692 
L 345.121724 169.85287 
L 346.716199 181.34193 
L 348.310675 169.85287 
L 349.90515 178.880015 
L 351.499626 162.056683 
L 353.094101 163.08242 
L 354.688577 161.646364 
L 356.283052 164.108279 
L 357.877528 173.135424 
L 359.472003 164.723819 
L 361.066479 180.931611 
L 362.660954 174.366503 
L 364.25543 177.443837 
L 365.849905 166.980635 
L 367.444381 166.775415 
L 369.038857 164.518598 
L 370.633332 167.801274 
L 372.227808 168.416692 
L 373.822283 165.544457 
L 375.416759 158.158589 
L 377.011234 172.314785 
L 378.60571 164.108279 
L 380.200185 172.314785 
L 381.794661 157.13273 
L 383.389136 164.313499 
L 384.983612 162.672101 
L 386.578087 153.029538 
L 388.172563 161.851462 
L 389.767038 163.287641 
L 391.361514 167.596053 
L 392.95599 167.596053 
L 394.550465 159.799866 
L 396.144941 165.339237 
L 397.739416 160.210185 
L 399.333892 162.877321 
L 400.928367 155.696552 
L 402.522843 162.467002 
L 404.117318 159.184327 
L 405.711794 166.570194 
L 407.306269 158.568909 
L 408.900745 160.005087 
L 410.49522 155.901773 
L 412.089696 165.954776 
L 413.684171 174.366503 
L 415.278647 156.106993 
L 416.873123 162.877321 
L 418.467598 154.875914 
L 420.062074 163.69796 
L 421.656549 148.721125 
L 423.251025 156.517312 
L 424.8455 144.207492 
L 426.439976 168.827011 
L 428.034451 149.746863 
L 429.628927 160.210185 
L 431.223402 158.568909 
L 432.817878 157.54305 
L 434.412353 156.106993 
L 436.006829 165.134138 
L 437.601304 154.260496 
L 439.19578 160.620505 
L 440.790256 162.056683 
L 442.384731 161.030824 
L 443.979207 160.210185 
L 445.573682 163.08242 
L 447.168158 161.441143 
L 448.762633 163.69796 
L 450.357109 157.13273 
L 451.951584 158.363688 
L 453.54606 160.620505 
L 455.140535 153.234637 
L 456.735011 154.875914 
L 458.329486 158.774007 
L 459.923962 160.415406 
L 461.518437 157.13273 
L 463.112913 172.930325 
L 464.707389 156.517312 
L 466.301864 156.927632 
L 467.89634 153.234637 
L 469.490815 155.286233 
L 471.085291 151.59336 
L 472.679766 157.953369 
L 474.274242 155.696552 
L 475.868717 155.491453 
L 477.463193 154.260496 
L 479.057668 163.90318 
L 480.652144 157.953369 
L 482.246619 156.722411 
L 483.841095 149.952083 
L 485.43557 156.312092 
L 487.030046 152.824318 
L 488.624522 158.568909 
L 490.218997 151.798459 
L 491.813473 156.722411 
L 493.407948 149.952083 
L 495.002424 161.851462 
L 496.596899 158.363688 
L 498.191375 150.772721 
L 499.78585 156.312092 
L 501.380326 146.669408 
L 502.974801 158.363688 
L 504.569277 148.310685 
L 506.163752 157.337951 
L 507.758228 156.106993 
L 509.352703 158.979228 
L 510.947179 150.772721 
L 512.541655 158.158589 
L 514.13613 166.159875 
L 515.730606 161.030824 
L 517.325081 158.774007 
L 518.919557 147.284947 
L 520.514032 163.08242 
L 522.108508 154.260496 
L 523.702983 157.337951 
L 525.297459 157.54305 
L 526.891934 150.157182 
L 528.48641 157.13273 
L 530.080885 160.825725 
L 531.675361 161.851462 
L 533.269836 160.825725 
L 534.864312 152.824318 
L 536.458788 157.953369 
L 538.053263 154.670815 
L 539.647739 156.106993 
L 541.242214 153.234637 
L 542.83669 155.901773 
L 544.431165 154.465595 
L 546.025641 150.157182 
L 547.620116 162.672101 
L 549.214592 155.081134 
L 550.809067 157.337951 
L 552.403543 157.867587 
L 553.998018 152.619219 
L 555.592494 155.901773 
L 557.186969 155.491453 
L 558.781445 164.108279 
L 560.37592 159.594767 
L 561.970396 161.646364 
L 563.564872 155.696552 
L 565.159347 155.286233 
L 566.753823 152.619219 
L 568.348298 154.670815 
L 569.942774 150.772721 
L 571.537249 150.157182 
L 573.131725 157.54305 
L 574.7262 151.59336 
L 576.320676 153.850177 
L 577.915151 150.97782 
L 579.509627 149.746863 
L 581.104102 160.210185 
L 582.698578 163.492861 
L 584.293053 157.13273 
L 585.887529 151.798459 
L 587.482005 158.774007 
L 589.07648 152.003679 
L 590.670956 155.696552 
L 592.265431 166.159875 
L 593.859907 159.799866 
L 595.454382 158.979228 
L 597.048858 148.105586 
L 598.643333 156.722411 
L 600.237809 154.465595 
L 601.832284 153.029538 
L 603.42676 149.746863 
L 605.021235 157.54305 
L 606.615711 157.337951 
L 608.210186 158.979228 
L 609.804662 158.979228 
L 611.399138 152.824318 
L 612.993613 150.362402 
L 614.588089 153.644956 
L 616.182564 149.131445 
L 617.77704 155.491453 
L 619.371515 145.848769 
L 620.965991 151.183041 
L 622.560466 165.134138 
L 624.154942 158.363688 
L 625.749417 150.97782 
L 627.343893 154.670815 
L 628.938368 152.619219 
L 630.532844 153.644956 
L 632.127319 150.567501 
L 633.721795 156.722411 
L 635.316271 156.312092 
L 636.910746 156.927632 
L 638.505222 148.105586 
L 640.099697 161.441143 
L 641.694173 155.081134 
L 643.288648 155.081134 
L 644.883124 153.439857 
L 646.477599 156.927632 
L 648.072075 145.848769 
L 649.66655 152.413998 
L 651.261026 147.900365 
L 652.855501 154.260496 
L 654.449977 159.594767 
L 656.044452 157.54305 
L 657.638928 155.901773 
L 659.233404 155.286233 
L 660.827879 152.824318 
L 662.422355 155.286233 
L 664.01683 160.415406 
L 665.611306 150.567501 
L 667.205781 154.875914 
L 668.800257 153.029538 
L 670.394732 150.362402 
L 671.989208 160.415406 
L 673.583683 155.286233 
L 675.178159 153.644956 
L 676.772634 156.927632 
L 678.36711 155.081134 
L 679.961585 148.721125 
L 681.556061 165.544457 
L 683.150537 146.669408 
L 684.745012 162.672101 
L 686.339488 147.900365 
L 687.933963 149.746863 
L 687.933963 149.746863 
" style="fill:none;stroke:#4daf4a;stroke-linecap:square;stroke-opacity:0.25098;stroke-width:1.5;"/>
   </g>
   <g id="patch_3">
    <path d="M 50.14375 337.159219 
L 50.14375 10.999219 
" style="fill:none;stroke:#000000;stroke-linecap:square;stroke-linejoin:miter;stroke-width:0.8;"/>
   </g>
   <g id="patch_4">
    <path d="M 719.74375 337.159219 
L 719.74375 10.999219 
" style="fill:none;stroke:#000000;stroke-linecap:square;stroke-linejoin:miter;stroke-width:0.8;"/>
   </g>
   <g id="patch_5">
    <path d="M 50.14375 337.159219 
L 719.74375 337.159219 
" style="fill:none;stroke:#000000;stroke-linecap:square;stroke-linejoin:miter;stroke-width:0.8;"/>
   </g>
   <g id="patch_6">
    <path d="M 50.14375 10.999219 
L 719.74375 10.999219 
" style="fill:none;stroke:#000000;stroke-linecap:square;stroke-linejoin:miter;stroke-width:0.8;"/>
   </g>
   <g id="legend_1">
    <g id="patch_7">
     <path d="M 57.14375 48.355469 
L 114.584375 48.355469 
Q 116.584375 48.355469 116.584375 46.355469 
L 116.584375 17.999219 
Q 116.584375 15.999219 114.584375 15.999219 
L 57.14375 15.999219 
Q 55.14375 15.999219 55.14375 17.999219 
L 55.14375 46.355469 
Q 55.14375 48.355469 57.14375 48.355469 
z
" style="fill:#ffffff;opacity:0.8;stroke:#cccccc;stroke-linejoin:miter;"/>
    </g>
    <g id="line2d_41">
     <path d="M 59.14375 24.097656 
L 79.14375 24.097656 
" style="fill:none;stroke:#377eb8;stroke-linecap:square;stroke-width:2;"/>
    </g>
    <g id="line2d_42"/>
    <g id="text_21">
     <!-- Train -->
     <defs>
      <path d="M -0.296875 72.90625 
L 61.375 72.90625 
L 61.375 64.59375 
L 35.5 64.59375 
L 35.5 0 
L 25.59375 0 
L 25.59375 64.59375 
L -0.296875 64.59375 
z
" id="DejaVuSans-84"/>
      <path d="M 9.421875 54.6875 
L 18.40625 54.6875 
L 18.40625 0 
L 9.421875 0 
z
M 9.421875 75.984375 
L 18.40625 75.984375 
L 18.40625 64.59375 
L 9.421875 64.59375 
z
" id="DejaVuSans-105"/>
      <path d="M 54.890625 33.015625 
L 54.890625 0 
L 45.90625 0 
L 45.90625 32.71875 
Q 45.90625 40.484375 42.875 44.328125 
Q 39.84375 48.1875 33.796875 48.1875 
Q 26.515625 48.1875 22.3125 43.546875 
Q 18.109375 38.921875 18.109375 30.90625 
L 18.109375 0 
L 9.078125 0 
L 9.078125 54.6875 
L 18.109375 54.6875 
L 18.109375 46.1875 
Q 21.34375 51.125 25.703125 53.5625 
Q 30.078125 56 35.796875 56 
Q 45.21875 56 50.046875 50.171875 
Q 54.890625 44.34375 54.890625 33.015625 
z
" id="DejaVuSans-110"/>
     </defs>
     <g transform="translate(87.14375 27.597656)scale(0.1 -0.1)">
      <use xlink:href="#DejaVuSans-84"/>
      <use x="60.865234" xlink:href="#DejaVuSans-114"/>
      <use x="101.978516" xlink:href="#DejaVuSans-97"/>
      <use x="163.257812" xlink:href="#DejaVuSans-105"/>
      <use x="191.041016" xlink:href="#DejaVuSans-110"/>
     </g>
    </g>
    <g id="line2d_43">
     <path d="M 59.14375 38.775781 
L 79.14375 38.775781 
" style="fill:none;stroke:#4daf4a;stroke-linecap:square;stroke-width:2;"/>
    </g>
    <g id="line2d_44"/>
    <g id="text_22">
     <!-- Test -->
     <defs>
      <path d="M 56.203125 29.59375 
L 56.203125 25.203125 
L 14.890625 25.203125 
Q 15.484375 15.921875 20.484375 11.0625 
Q 25.484375 6.203125 34.421875 6.203125 
Q 39.59375 6.203125 44.453125 7.46875 
Q 49.3125 8.734375 54.109375 11.28125 
L 54.109375 2.78125 
Q 49.265625 0.734375 44.1875 -0.34375 
Q 39.109375 -1.421875 33.890625 -1.421875 
Q 20.796875 -1.421875 13.15625 6.1875 
Q 5.515625 13.8125 5.515625 26.8125 
Q 5.515625 40.234375 12.765625 48.109375 
Q 20.015625 56 32.328125 56 
Q 43.359375 56 49.78125 48.890625 
Q 56.203125 41.796875 56.203125 29.59375 
z
M 47.21875 32.234375 
Q 47.125 39.59375 43.09375 43.984375 
Q 39.0625 48.390625 32.421875 48.390625 
Q 24.90625 48.390625 20.390625 44.140625 
Q 15.875 39.890625 15.1875 32.171875 
z
" id="DejaVuSans-101"/>
      <path d="M 44.28125 53.078125 
L 44.28125 44.578125 
Q 40.484375 46.53125 36.375 47.5 
Q 32.28125 48.484375 27.875 48.484375 
Q 21.1875 48.484375 17.84375 46.4375 
Q 14.5 44.390625 14.5 40.28125 
Q 14.5 37.15625 16.890625 35.375 
Q 19.28125 33.59375 26.515625 31.984375 
L 29.59375 31.296875 
Q 39.15625 29.25 43.1875 25.515625 
Q 47.21875 21.78125 47.21875 15.09375 
Q 47.21875 7.46875 41.1875 3.015625 
Q 35.15625 -1.421875 24.609375 -1.421875 
Q 20.21875 -1.421875 15.453125 -0.5625 
Q 10.6875 0.296875 5.421875 2 
L 5.421875 11.28125 
Q 10.40625 8.6875 15.234375 7.390625 
Q 20.0625 6.109375 24.8125 6.109375 
Q 31.15625 6.109375 34.5625 8.28125 
Q 37.984375 10.453125 37.984375 14.40625 
Q 37.984375 18.0625 35.515625 20.015625 
Q 33.0625 21.96875 24.703125 23.78125 
L 21.578125 24.515625 
Q 13.234375 26.265625 9.515625 29.90625 
Q 5.8125 33.546875 5.8125 39.890625 
Q 5.8125 47.609375 11.28125 51.796875 
Q 16.75 56 26.8125 56 
Q 31.78125 56 36.171875 55.265625 
Q 40.578125 54.546875 44.28125 53.078125 
z
" id="DejaVuSans-115"/>
      <path d="M 18.3125 70.21875 
L 18.3125 54.6875 
L 36.8125 54.6875 
L 36.8125 47.703125 
L 18.3125 47.703125 
L 18.3125 18.015625 
Q 18.3125 11.328125 20.140625 9.421875 
Q 21.96875 7.515625 27.59375 7.515625 
L 36.8125 7.515625 
L 36.8125 0 
L 27.59375 0 
Q 17.1875 0 13.234375 3.875 
Q 9.28125 7.765625 9.28125 18.015625 
L 9.28125 47.703125 
L 2.6875 47.703125 
L 2.6875 54.6875 
L 9.28125 54.6875 
L 9.28125 70.21875 
z
" id="DejaVuSans-116"/>
     </defs>
     <g transform="translate(87.14375 42.275781)scale(0.1 -0.1)">
      <use xlink:href="#DejaVuSans-84"/>
      <use x="60.818359" xlink:href="#DejaVuSans-101"/>
      <use x="122.341797" xlink:href="#DejaVuSans-115"/>
      <use x="174.441406" xlink:href="#DejaVuSans-116"/>
     </g>
    </g>
   </g>
  </g>
 </g>
 <defs>
  <clipPath id="pe2af0781c9">
   <rect height="326.16" width="669.6" x="50.14375" y="10.999219"/>
  </clipPath>
 </defs>
</svg>
