<?xml version="1.0" encoding="utf-8" standalone="no"?>
<!DOCTYPE svg PUBLIC "-//W3C//DTD SVG 1.1//EN"
  "http://www.w3.org/Graphics/SVG/1.1/DTD/svg11.dtd">
<!-- Created with matplotlib (https://matplotlib.org/) -->
<svg height="374.715469pt" version="1.1" viewBox="0 0 726.94375 374.715469" width="726.94375pt" xmlns="http://www.w3.org/2000/svg" xmlns:xlink="http://www.w3.org/1999/xlink">
 <defs>
  <style type="text/css">
*{stroke-linecap:butt;stroke-linejoin:round;white-space:pre;}
  </style>
 </defs>
 <g id="figure_1">
  <g id="patch_1">
   <path d="M 0 374.715469 
L 726.94375 374.715469 
L 726.94375 0 
L 0 0 
z
" style="fill:#ffffff;"/>
  </g>
  <g id="axes_1">
   <g id="patch_2">
    <path d="M 50.14375 337.159219 
L 719.74375 337.159219 
L 719.74375 10.999219 
L 50.14375 10.999219 
z
" style="fill:#ffffff;"/>
   </g>
   <g id="matplotlib.axis_1">
    <g id="xtick_1">
     <g id="line2d_1">
      <path clip-path="url(#p423f643442)" d="M 50.14375 337.159219 
L 50.14375 10.999219 
" style="fill:none;stroke:#b0b0b0;stroke-linecap:square;stroke-width:0.8;"/>
     </g>
     <g id="line2d_2">
      <defs>
       <path d="M 0 0 
L 0 3.5 
" id="m3cb89c292c" style="stroke:#000000;stroke-width:0.8;"/>
      </defs>
      <g>
       <use style="stroke:#000000;stroke-width:0.8;" x="50.14375" xlink:href="#m3cb89c292c" y="337.159219"/>
      </g>
     </g>
     <g id="text_1">
      <!-- 0 -->
      <defs>
       <path d="M 31.78125 66.40625 
Q 24.171875 66.40625 20.328125 58.90625 
Q 16.5 51.421875 16.5 36.375 
Q 16.5 21.390625 20.328125 13.890625 
Q 24.171875 6.390625 31.78125 6.390625 
Q 39.453125 6.390625 43.28125 13.890625 
Q 47.125 21.390625 47.125 36.375 
Q 47.125 51.421875 43.28125 58.90625 
Q 39.453125 66.40625 31.78125 66.40625 
z
M 31.78125 74.21875 
Q 44.046875 74.21875 50.515625 64.515625 
Q 56.984375 54.828125 56.984375 36.375 
Q 56.984375 17.96875 50.515625 8.265625 
Q 44.046875 -1.421875 31.78125 -1.421875 
Q 19.53125 -1.421875 13.0625 8.265625 
Q 6.59375 17.96875 6.59375 36.375 
Q 6.59375 54.828125 13.0625 64.515625 
Q 19.53125 74.21875 31.78125 74.21875 
z
" id="DejaVuSans-48"/>
      </defs>
      <g transform="translate(46.9625 351.757656)scale(0.1 -0.1)">
       <use xlink:href="#DejaVuSans-48"/>
      </g>
     </g>
    </g>
    <g id="xtick_2">
     <g id="line2d_3">
      <path clip-path="url(#p423f643442)" d="M 177.692681 337.159219 
L 177.692681 10.999219 
" style="fill:none;stroke:#b0b0b0;stroke-linecap:square;stroke-width:0.8;"/>
     </g>
     <g id="line2d_4">
      <g>
       <use style="stroke:#000000;stroke-width:0.8;" x="177.692681" xlink:href="#m3cb89c292c" y="337.159219"/>
      </g>
     </g>
     <g id="text_2">
      <!-- 200 -->
      <defs>
       <path d="M 19.1875 8.296875 
L 53.609375 8.296875 
L 53.609375 0 
L 7.328125 0 
L 7.328125 8.296875 
Q 12.9375 14.109375 22.625 23.890625 
Q 32.328125 33.6875 34.8125 36.53125 
Q 39.546875 41.84375 41.421875 45.53125 
Q 43.3125 49.21875 43.3125 52.78125 
Q 43.3125 58.59375 39.234375 62.25 
Q 35.15625 65.921875 28.609375 65.921875 
Q 23.96875 65.921875 18.8125 64.3125 
Q 13.671875 62.703125 7.8125 59.421875 
L 7.8125 69.390625 
Q 13.765625 71.78125 18.9375 73 
Q 24.125 74.21875 28.421875 74.21875 
Q 39.75 74.21875 46.484375 68.546875 
Q 53.21875 62.890625 53.21875 53.421875 
Q 53.21875 48.921875 51.53125 44.890625 
Q 49.859375 40.875 45.40625 35.40625 
Q 44.1875 33.984375 37.640625 27.21875 
Q 31.109375 20.453125 19.1875 8.296875 
z
" id="DejaVuSans-50"/>
      </defs>
      <g transform="translate(168.148931 351.757656)scale(0.1 -0.1)">
       <use xlink:href="#DejaVuSans-50"/>
       <use x="63.623047" xlink:href="#DejaVuSans-48"/>
       <use x="127.246094" xlink:href="#DejaVuSans-48"/>
      </g>
     </g>
    </g>
    <g id="xtick_3">
     <g id="line2d_5">
      <path clip-path="url(#p423f643442)" d="M 305.241612 337.159219 
L 305.241612 10.999219 
" style="fill:none;stroke:#b0b0b0;stroke-linecap:square;stroke-width:0.8;"/>
     </g>
     <g id="line2d_6">
      <g>
       <use style="stroke:#000000;stroke-width:0.8;" x="305.241612" xlink:href="#m3cb89c292c" y="337.159219"/>
      </g>
     </g>
     <g id="text_3">
      <!-- 400 -->
      <defs>
       <path d="M 37.796875 64.3125 
L 12.890625 25.390625 
L 37.796875 25.390625 
z
M 35.203125 72.90625 
L 47.609375 72.90625 
L 47.609375 25.390625 
L 58.015625 25.390625 
L 58.015625 17.1875 
L 47.609375 17.1875 
L 47.609375 0 
L 37.796875 0 
L 37.796875 17.1875 
L 4.890625 17.1875 
L 4.890625 26.703125 
z
" id="DejaVuSans-52"/>
      </defs>
      <g transform="translate(295.697862 351.757656)scale(0.1 -0.1)">
       <use xlink:href="#DejaVuSans-52"/>
       <use x="63.623047" xlink:href="#DejaVuSans-48"/>
       <use x="127.246094" xlink:href="#DejaVuSans-48"/>
      </g>
     </g>
    </g>
    <g id="xtick_4">
     <g id="line2d_7">
      <path clip-path="url(#p423f643442)" d="M 432.790543 337.159219 
L 432.790543 10.999219 
" style="fill:none;stroke:#b0b0b0;stroke-linecap:square;stroke-width:0.8;"/>
     </g>
     <g id="line2d_8">
      <g>
       <use style="stroke:#000000;stroke-width:0.8;" x="432.790543" xlink:href="#m3cb89c292c" y="337.159219"/>
      </g>
     </g>
     <g id="text_4">
      <!-- 600 -->
      <defs>
       <path d="M 33.015625 40.375 
Q 26.375 40.375 22.484375 35.828125 
Q 18.609375 31.296875 18.609375 23.390625 
Q 18.609375 15.53125 22.484375 10.953125 
Q 26.375 6.390625 33.015625 6.390625 
Q 39.65625 6.390625 43.53125 10.953125 
Q 47.40625 15.53125 47.40625 23.390625 
Q 47.40625 31.296875 43.53125 35.828125 
Q 39.65625 40.375 33.015625 40.375 
z
M 52.59375 71.296875 
L 52.59375 62.3125 
Q 48.875 64.0625 45.09375 64.984375 
Q 41.3125 65.921875 37.59375 65.921875 
Q 27.828125 65.921875 22.671875 59.328125 
Q 17.53125 52.734375 16.796875 39.40625 
Q 19.671875 43.65625 24.015625 45.921875 
Q 28.375 48.1875 33.59375 48.1875 
Q 44.578125 48.1875 50.953125 41.515625 
Q 57.328125 34.859375 57.328125 23.390625 
Q 57.328125 12.15625 50.6875 5.359375 
Q 44.046875 -1.421875 33.015625 -1.421875 
Q 20.359375 -1.421875 13.671875 8.265625 
Q 6.984375 17.96875 6.984375 36.375 
Q 6.984375 53.65625 15.1875 63.9375 
Q 23.390625 74.21875 37.203125 74.21875 
Q 40.921875 74.21875 44.703125 73.484375 
Q 48.484375 72.75 52.59375 71.296875 
z
" id="DejaVuSans-54"/>
      </defs>
      <g transform="translate(423.246793 351.757656)scale(0.1 -0.1)">
       <use xlink:href="#DejaVuSans-54"/>
       <use x="63.623047" xlink:href="#DejaVuSans-48"/>
       <use x="127.246094" xlink:href="#DejaVuSans-48"/>
      </g>
     </g>
    </g>
    <g id="xtick_5">
     <g id="line2d_9">
      <path clip-path="url(#p423f643442)" d="M 560.339474 337.159219 
L 560.339474 10.999219 
" style="fill:none;stroke:#b0b0b0;stroke-linecap:square;stroke-width:0.8;"/>
     </g>
     <g id="line2d_10">
      <g>
       <use style="stroke:#000000;stroke-width:0.8;" x="560.339474" xlink:href="#m3cb89c292c" y="337.159219"/>
      </g>
     </g>
     <g id="text_5">
      <!-- 800 -->
      <defs>
       <path d="M 31.78125 34.625 
Q 24.75 34.625 20.71875 30.859375 
Q 16.703125 27.09375 16.703125 20.515625 
Q 16.703125 13.921875 20.71875 10.15625 
Q 24.75 6.390625 31.78125 6.390625 
Q 38.8125 6.390625 42.859375 10.171875 
Q 46.921875 13.96875 46.921875 20.515625 
Q 46.921875 27.09375 42.890625 30.859375 
Q 38.875 34.625 31.78125 34.625 
z
M 21.921875 38.8125 
Q 15.578125 40.375 12.03125 44.71875 
Q 8.5 49.078125 8.5 55.328125 
Q 8.5 64.0625 14.71875 69.140625 
Q 20.953125 74.21875 31.78125 74.21875 
Q 42.671875 74.21875 48.875 69.140625 
Q 55.078125 64.0625 55.078125 55.328125 
Q 55.078125 49.078125 51.53125 44.71875 
Q 48 40.375 41.703125 38.8125 
Q 48.828125 37.15625 52.796875 32.3125 
Q 56.78125 27.484375 56.78125 20.515625 
Q 56.78125 9.90625 50.3125 4.234375 
Q 43.84375 -1.421875 31.78125 -1.421875 
Q 19.734375 -1.421875 13.25 4.234375 
Q 6.78125 9.90625 6.78125 20.515625 
Q 6.78125 27.484375 10.78125 32.3125 
Q 14.796875 37.15625 21.921875 38.8125 
z
M 18.3125 54.390625 
Q 18.3125 48.734375 21.84375 45.5625 
Q 25.390625 42.390625 31.78125 42.390625 
Q 38.140625 42.390625 41.71875 45.5625 
Q 45.3125 48.734375 45.3125 54.390625 
Q 45.3125 60.0625 41.71875 63.234375 
Q 38.140625 66.40625 31.78125 66.40625 
Q 25.390625 66.40625 21.84375 63.234375 
Q 18.3125 60.0625 18.3125 54.390625 
z
" id="DejaVuSans-56"/>
      </defs>
      <g transform="translate(550.795724 351.757656)scale(0.1 -0.1)">
       <use xlink:href="#DejaVuSans-56"/>
       <use x="63.623047" xlink:href="#DejaVuSans-48"/>
       <use x="127.246094" xlink:href="#DejaVuSans-48"/>
      </g>
     </g>
    </g>
    <g id="xtick_6">
     <g id="line2d_11">
      <path clip-path="url(#p423f643442)" d="M 687.888405 337.159219 
L 687.888405 10.999219 
" style="fill:none;stroke:#b0b0b0;stroke-linecap:square;stroke-width:0.8;"/>
     </g>
     <g id="line2d_12">
      <g>
       <use style="stroke:#000000;stroke-width:0.8;" x="687.888405" xlink:href="#m3cb89c292c" y="337.159219"/>
      </g>
     </g>
     <g id="text_6">
      <!-- 1000 -->
      <defs>
       <path d="M 12.40625 8.296875 
L 28.515625 8.296875 
L 28.515625 63.921875 
L 10.984375 60.40625 
L 10.984375 69.390625 
L 28.421875 72.90625 
L 38.28125 72.90625 
L 38.28125 8.296875 
L 54.390625 8.296875 
L 54.390625 0 
L 12.40625 0 
z
" id="DejaVuSans-49"/>
      </defs>
      <g transform="translate(675.163405 351.757656)scale(0.1 -0.1)">
       <use xlink:href="#DejaVuSans-49"/>
       <use x="63.623047" xlink:href="#DejaVuSans-48"/>
       <use x="127.246094" xlink:href="#DejaVuSans-48"/>
       <use x="190.869141" xlink:href="#DejaVuSans-48"/>
      </g>
     </g>
    </g>
    <g id="text_7">
     <!-- Epoch -->
     <defs>
      <path d="M 9.8125 72.90625 
L 55.90625 72.90625 
L 55.90625 64.59375 
L 19.671875 64.59375 
L 19.671875 43.015625 
L 54.390625 43.015625 
L 54.390625 34.71875 
L 19.671875 34.71875 
L 19.671875 8.296875 
L 56.78125 8.296875 
L 56.78125 0 
L 9.8125 0 
z
" id="DejaVuSans-69"/>
      <path d="M 18.109375 8.203125 
L 18.109375 -20.796875 
L 9.078125 -20.796875 
L 9.078125 54.6875 
L 18.109375 54.6875 
L 18.109375 46.390625 
Q 20.953125 51.265625 25.265625 53.625 
Q 29.59375 56 35.59375 56 
Q 45.5625 56 51.78125 48.09375 
Q 58.015625 40.1875 58.015625 27.296875 
Q 58.015625 14.40625 51.78125 6.484375 
Q 45.5625 -1.421875 35.59375 -1.421875 
Q 29.59375 -1.421875 25.265625 0.953125 
Q 20.953125 3.328125 18.109375 8.203125 
z
M 48.6875 27.296875 
Q 48.6875 37.203125 44.609375 42.84375 
Q 40.53125 48.484375 33.40625 48.484375 
Q 26.265625 48.484375 22.1875 42.84375 
Q 18.109375 37.203125 18.109375 27.296875 
Q 18.109375 17.390625 22.1875 11.75 
Q 26.265625 6.109375 33.40625 6.109375 
Q 40.53125 6.109375 44.609375 11.75 
Q 48.6875 17.390625 48.6875 27.296875 
z
" id="DejaVuSans-112"/>
      <path d="M 30.609375 48.390625 
Q 23.390625 48.390625 19.1875 42.75 
Q 14.984375 37.109375 14.984375 27.296875 
Q 14.984375 17.484375 19.15625 11.84375 
Q 23.34375 6.203125 30.609375 6.203125 
Q 37.796875 6.203125 41.984375 11.859375 
Q 46.1875 17.53125 46.1875 27.296875 
Q 46.1875 37.015625 41.984375 42.703125 
Q 37.796875 48.390625 30.609375 48.390625 
z
M 30.609375 56 
Q 42.328125 56 49.015625 48.375 
Q 55.71875 40.765625 55.71875 27.296875 
Q 55.71875 13.875 49.015625 6.21875 
Q 42.328125 -1.421875 30.609375 -1.421875 
Q 18.84375 -1.421875 12.171875 6.21875 
Q 5.515625 13.875 5.515625 27.296875 
Q 5.515625 40.765625 12.171875 48.375 
Q 18.84375 56 30.609375 56 
z
" id="DejaVuSans-111"/>
      <path d="M 48.78125 52.59375 
L 48.78125 44.1875 
Q 44.96875 46.296875 41.140625 47.34375 
Q 37.3125 48.390625 33.40625 48.390625 
Q 24.65625 48.390625 19.8125 42.84375 
Q 14.984375 37.3125 14.984375 27.296875 
Q 14.984375 17.28125 19.8125 11.734375 
Q 24.65625 6.203125 33.40625 6.203125 
Q 37.3125 6.203125 41.140625 7.25 
Q 44.96875 8.296875 48.78125 10.40625 
L 48.78125 2.09375 
Q 45.015625 0.34375 40.984375 -0.53125 
Q 36.96875 -1.421875 32.421875 -1.421875 
Q 20.0625 -1.421875 12.78125 6.34375 
Q 5.515625 14.109375 5.515625 27.296875 
Q 5.515625 40.671875 12.859375 48.328125 
Q 20.21875 56 33.015625 56 
Q 37.15625 56 41.109375 55.140625 
Q 45.0625 54.296875 48.78125 52.59375 
z
" id="DejaVuSans-99"/>
      <path d="M 54.890625 33.015625 
L 54.890625 0 
L 45.90625 0 
L 45.90625 32.71875 
Q 45.90625 40.484375 42.875 44.328125 
Q 39.84375 48.1875 33.796875 48.1875 
Q 26.515625 48.1875 22.3125 43.546875 
Q 18.109375 38.921875 18.109375 30.90625 
L 18.109375 0 
L 9.078125 0 
L 9.078125 75.984375 
L 18.109375 75.984375 
L 18.109375 46.1875 
Q 21.34375 51.125 25.703125 53.5625 
Q 30.078125 56 35.796875 56 
Q 45.21875 56 50.046875 50.171875 
Q 54.890625 44.34375 54.890625 33.015625 
z
" id="DejaVuSans-104"/>
     </defs>
     <g transform="translate(369.632813 365.435781)scale(0.1 -0.1)">
      <use xlink:href="#DejaVuSans-69"/>
      <use x="63.183594" xlink:href="#DejaVuSans-112"/>
      <use x="126.660156" xlink:href="#DejaVuSans-111"/>
      <use x="187.841797" xlink:href="#DejaVuSans-99"/>
      <use x="242.822266" xlink:href="#DejaVuSans-104"/>
     </g>
    </g>
   </g>
   <g id="matplotlib.axis_2">
    <g id="ytick_1">
     <g id="line2d_13">
      <path clip-path="url(#p423f643442)" d="M 50.14375 337.159219 
L 719.74375 337.159219 
" style="fill:none;stroke:#b0b0b0;stroke-linecap:square;stroke-width:0.8;"/>
     </g>
     <g id="line2d_14">
      <defs>
       <path d="M 0 0 
L -3.5 0 
" id="m83b39989fc" style="stroke:#000000;stroke-width:0.8;"/>
      </defs>
      <g>
       <use style="stroke:#000000;stroke-width:0.8;" x="50.14375" xlink:href="#m83b39989fc" y="337.159219"/>
      </g>
     </g>
     <g id="text_8">
      <!-- 0.82 -->
      <defs>
       <path d="M 10.6875 12.40625 
L 21 12.40625 
L 21 0 
L 10.6875 0 
z
" id="DejaVuSans-46"/>
      </defs>
      <g transform="translate(20.878125 340.958437)scale(0.1 -0.1)">
       <use xlink:href="#DejaVuSans-48"/>
       <use x="63.623047" xlink:href="#DejaVuSans-46"/>
       <use x="95.410156" xlink:href="#DejaVuSans-56"/>
       <use x="159.033203" xlink:href="#DejaVuSans-50"/>
      </g>
     </g>
    </g>
    <g id="ytick_2">
     <g id="line2d_15">
      <path clip-path="url(#p423f643442)" d="M 50.14375 296.389219 
L 719.74375 296.389219 
" style="fill:none;stroke:#b0b0b0;stroke-linecap:square;stroke-width:0.8;"/>
     </g>
     <g id="line2d_16">
      <g>
       <use style="stroke:#000000;stroke-width:0.8;" x="50.14375" xlink:href="#m83b39989fc" y="296.389219"/>
      </g>
     </g>
     <g id="text_9">
      <!-- 0.84 -->
      <g transform="translate(20.878125 300.188437)scale(0.1 -0.1)">
       <use xlink:href="#DejaVuSans-48"/>
       <use x="63.623047" xlink:href="#DejaVuSans-46"/>
       <use x="95.410156" xlink:href="#DejaVuSans-56"/>
       <use x="159.033203" xlink:href="#DejaVuSans-52"/>
      </g>
     </g>
    </g>
    <g id="ytick_3">
     <g id="line2d_17">
      <path clip-path="url(#p423f643442)" d="M 50.14375 255.619219 
L 719.74375 255.619219 
" style="fill:none;stroke:#b0b0b0;stroke-linecap:square;stroke-width:0.8;"/>
     </g>
     <g id="line2d_18">
      <g>
       <use style="stroke:#000000;stroke-width:0.8;" x="50.14375" xlink:href="#m83b39989fc" y="255.619219"/>
      </g>
     </g>
     <g id="text_10">
      <!-- 0.86 -->
      <g transform="translate(20.878125 259.418437)scale(0.1 -0.1)">
       <use xlink:href="#DejaVuSans-48"/>
       <use x="63.623047" xlink:href="#DejaVuSans-46"/>
       <use x="95.410156" xlink:href="#DejaVuSans-56"/>
       <use x="159.033203" xlink:href="#DejaVuSans-54"/>
      </g>
     </g>
    </g>
    <g id="ytick_4">
     <g id="line2d_19">
      <path clip-path="url(#p423f643442)" d="M 50.14375 214.849219 
L 719.74375 214.849219 
" style="fill:none;stroke:#b0b0b0;stroke-linecap:square;stroke-width:0.8;"/>
     </g>
     <g id="line2d_20">
      <g>
       <use style="stroke:#000000;stroke-width:0.8;" x="50.14375" xlink:href="#m83b39989fc" y="214.849219"/>
      </g>
     </g>
     <g id="text_11">
      <!-- 0.88 -->
      <g transform="translate(20.878125 218.648437)scale(0.1 -0.1)">
       <use xlink:href="#DejaVuSans-48"/>
       <use x="63.623047" xlink:href="#DejaVuSans-46"/>
       <use x="95.410156" xlink:href="#DejaVuSans-56"/>
       <use x="159.033203" xlink:href="#DejaVuSans-56"/>
      </g>
     </g>
    </g>
    <g id="ytick_5">
     <g id="line2d_21">
      <path clip-path="url(#p423f643442)" d="M 50.14375 174.079219 
L 719.74375 174.079219 
" style="fill:none;stroke:#b0b0b0;stroke-linecap:square;stroke-width:0.8;"/>
     </g>
     <g id="line2d_22">
      <g>
       <use style="stroke:#000000;stroke-width:0.8;" x="50.14375" xlink:href="#m83b39989fc" y="174.079219"/>
      </g>
     </g>
     <g id="text_12">
      <!-- 0.90 -->
      <defs>
       <path d="M 10.984375 1.515625 
L 10.984375 10.5 
Q 14.703125 8.734375 18.5 7.8125 
Q 22.3125 6.890625 25.984375 6.890625 
Q 35.75 6.890625 40.890625 13.453125 
Q 46.046875 20.015625 46.78125 33.40625 
Q 43.953125 29.203125 39.59375 26.953125 
Q 35.25 24.703125 29.984375 24.703125 
Q 19.046875 24.703125 12.671875 31.3125 
Q 6.296875 37.9375 6.296875 49.421875 
Q 6.296875 60.640625 12.9375 67.421875 
Q 19.578125 74.21875 30.609375 74.21875 
Q 43.265625 74.21875 49.921875 64.515625 
Q 56.59375 54.828125 56.59375 36.375 
Q 56.59375 19.140625 48.40625 8.859375 
Q 40.234375 -1.421875 26.421875 -1.421875 
Q 22.703125 -1.421875 18.890625 -0.6875 
Q 15.09375 0.046875 10.984375 1.515625 
z
M 30.609375 32.421875 
Q 37.25 32.421875 41.125 36.953125 
Q 45.015625 41.5 45.015625 49.421875 
Q 45.015625 57.28125 41.125 61.84375 
Q 37.25 66.40625 30.609375 66.40625 
Q 23.96875 66.40625 20.09375 61.84375 
Q 16.21875 57.28125 16.21875 49.421875 
Q 16.21875 41.5 20.09375 36.953125 
Q 23.96875 32.421875 30.609375 32.421875 
z
" id="DejaVuSans-57"/>
      </defs>
      <g transform="translate(20.878125 177.878437)scale(0.1 -0.1)">
       <use xlink:href="#DejaVuSans-48"/>
       <use x="63.623047" xlink:href="#DejaVuSans-46"/>
       <use x="95.410156" xlink:href="#DejaVuSans-57"/>
       <use x="159.033203" xlink:href="#DejaVuSans-48"/>
      </g>
     </g>
    </g>
    <g id="ytick_6">
     <g id="line2d_23">
      <path clip-path="url(#p423f643442)" d="M 50.14375 133.309219 
L 719.74375 133.309219 
" style="fill:none;stroke:#b0b0b0;stroke-linecap:square;stroke-width:0.8;"/>
     </g>
     <g id="line2d_24">
      <g>
       <use style="stroke:#000000;stroke-width:0.8;" x="50.14375" xlink:href="#m83b39989fc" y="133.309219"/>
      </g>
     </g>
     <g id="text_13">
      <!-- 0.92 -->
      <g transform="translate(20.878125 137.108437)scale(0.1 -0.1)">
       <use xlink:href="#DejaVuSans-48"/>
       <use x="63.623047" xlink:href="#DejaVuSans-46"/>
       <use x="95.410156" xlink:href="#DejaVuSans-57"/>
       <use x="159.033203" xlink:href="#DejaVuSans-50"/>
      </g>
     </g>
    </g>
    <g id="ytick_7">
     <g id="line2d_25">
      <path clip-path="url(#p423f643442)" d="M 50.14375 92.539219 
L 719.74375 92.539219 
" style="fill:none;stroke:#b0b0b0;stroke-linecap:square;stroke-width:0.8;"/>
     </g>
     <g id="line2d_26">
      <g>
       <use style="stroke:#000000;stroke-width:0.8;" x="50.14375" xlink:href="#m83b39989fc" y="92.539219"/>
      </g>
     </g>
     <g id="text_14">
      <!-- 0.94 -->
      <g transform="translate(20.878125 96.338437)scale(0.1 -0.1)">
       <use xlink:href="#DejaVuSans-48"/>
       <use x="63.623047" xlink:href="#DejaVuSans-46"/>
       <use x="95.410156" xlink:href="#DejaVuSans-57"/>
       <use x="159.033203" xlink:href="#DejaVuSans-52"/>
      </g>
     </g>
    </g>
    <g id="ytick_8">
     <g id="line2d_27">
      <path clip-path="url(#p423f643442)" d="M 50.14375 51.769219 
L 719.74375 51.769219 
" style="fill:none;stroke:#b0b0b0;stroke-linecap:square;stroke-width:0.8;"/>
     </g>
     <g id="line2d_28">
      <g>
       <use style="stroke:#000000;stroke-width:0.8;" x="50.14375" xlink:href="#m83b39989fc" y="51.769219"/>
      </g>
     </g>
     <g id="text_15">
      <!-- 0.96 -->
      <g transform="translate(20.878125 55.568437)scale(0.1 -0.1)">
       <use xlink:href="#DejaVuSans-48"/>
       <use x="63.623047" xlink:href="#DejaVuSans-46"/>
       <use x="95.410156" xlink:href="#DejaVuSans-57"/>
       <use x="159.033203" xlink:href="#DejaVuSans-54"/>
      </g>
     </g>
    </g>
    <g id="ytick_9">
     <g id="line2d_29">
      <path clip-path="url(#p423f643442)" d="M 50.14375 10.999219 
L 719.74375 10.999219 
" style="fill:none;stroke:#b0b0b0;stroke-linecap:square;stroke-width:0.8;"/>
     </g>
     <g id="line2d_30">
      <g>
       <use style="stroke:#000000;stroke-width:0.8;" x="50.14375" xlink:href="#m83b39989fc" y="10.999219"/>
      </g>
     </g>
     <g id="text_16">
      <!-- 0.98 -->
      <g transform="translate(20.878125 14.798437)scale(0.1 -0.1)">
       <use xlink:href="#DejaVuSans-48"/>
       <use x="63.623047" xlink:href="#DejaVuSans-46"/>
       <use x="95.410156" xlink:href="#DejaVuSans-57"/>
       <use x="159.033203" xlink:href="#DejaVuSans-56"/>
      </g>
     </g>
    </g>
    <g id="text_17">
     <!-- Accuracy -->
     <defs>
      <path d="M 34.1875 63.1875 
L 20.796875 26.90625 
L 47.609375 26.90625 
z
M 28.609375 72.90625 
L 39.796875 72.90625 
L 67.578125 0 
L 57.328125 0 
L 50.6875 18.703125 
L 17.828125 18.703125 
L 11.1875 0 
L 0.78125 0 
z
" id="DejaVuSans-65"/>
      <path d="M 8.5 21.578125 
L 8.5 54.6875 
L 17.484375 54.6875 
L 17.484375 21.921875 
Q 17.484375 14.15625 20.5 10.265625 
Q 23.53125 6.390625 29.59375 6.390625 
Q 36.859375 6.390625 41.078125 11.03125 
Q 45.3125 15.671875 45.3125 23.6875 
L 45.3125 54.6875 
L 54.296875 54.6875 
L 54.296875 0 
L 45.3125 0 
L 45.3125 8.40625 
Q 42.046875 3.421875 37.71875 1 
Q 33.40625 -1.421875 27.6875 -1.421875 
Q 18.265625 -1.421875 13.375 4.4375 
Q 8.5 10.296875 8.5 21.578125 
z
M 31.109375 56 
z
" id="DejaVuSans-117"/>
      <path d="M 41.109375 46.296875 
Q 39.59375 47.171875 37.8125 47.578125 
Q 36.03125 48 33.890625 48 
Q 26.265625 48 22.1875 43.046875 
Q 18.109375 38.09375 18.109375 28.8125 
L 18.109375 0 
L 9.078125 0 
L 9.078125 54.6875 
L 18.109375 54.6875 
L 18.109375 46.1875 
Q 20.953125 51.171875 25.484375 53.578125 
Q 30.03125 56 36.53125 56 
Q 37.453125 56 38.578125 55.875 
Q 39.703125 55.765625 41.0625 55.515625 
z
" id="DejaVuSans-114"/>
      <path d="M 34.28125 27.484375 
Q 23.390625 27.484375 19.1875 25 
Q 14.984375 22.515625 14.984375 16.5 
Q 14.984375 11.71875 18.140625 8.90625 
Q 21.296875 6.109375 26.703125 6.109375 
Q 34.1875 6.109375 38.703125 11.40625 
Q 43.21875 16.703125 43.21875 25.484375 
L 43.21875 27.484375 
z
M 52.203125 31.203125 
L 52.203125 0 
L 43.21875 0 
L 43.21875 8.296875 
Q 40.140625 3.328125 35.546875 0.953125 
Q 30.953125 -1.421875 24.3125 -1.421875 
Q 15.921875 -1.421875 10.953125 3.296875 
Q 6 8.015625 6 15.921875 
Q 6 25.140625 12.171875 29.828125 
Q 18.359375 34.515625 30.609375 34.515625 
L 43.21875 34.515625 
L 43.21875 35.40625 
Q 43.21875 41.609375 39.140625 45 
Q 35.0625 48.390625 27.6875 48.390625 
Q 23 48.390625 18.546875 47.265625 
Q 14.109375 46.140625 10.015625 43.890625 
L 10.015625 52.203125 
Q 14.9375 54.109375 19.578125 55.046875 
Q 24.21875 56 28.609375 56 
Q 40.484375 56 46.34375 49.84375 
Q 52.203125 43.703125 52.203125 31.203125 
z
" id="DejaVuSans-97"/>
      <path d="M 32.171875 -5.078125 
Q 28.375 -14.84375 24.75 -17.8125 
Q 21.140625 -20.796875 15.09375 -20.796875 
L 7.90625 -20.796875 
L 7.90625 -13.28125 
L 13.1875 -13.28125 
Q 16.890625 -13.28125 18.9375 -11.515625 
Q 21 -9.765625 23.484375 -3.21875 
L 25.09375 0.875 
L 2.984375 54.6875 
L 12.5 54.6875 
L 29.59375 11.921875 
L 46.6875 54.6875 
L 56.203125 54.6875 
z
" id="DejaVuSans-121"/>
     </defs>
     <g transform="translate(14.798438 196.994062)rotate(-90)scale(0.1 -0.1)">
      <use xlink:href="#DejaVuSans-65"/>
      <use x="68.392578" xlink:href="#DejaVuSans-99"/>
      <use x="123.373047" xlink:href="#DejaVuSans-99"/>
      <use x="178.353516" xlink:href="#DejaVuSans-117"/>
      <use x="241.732422" xlink:href="#DejaVuSans-114"/>
      <use x="282.845703" xlink:href="#DejaVuSans-97"/>
      <use x="344.125" xlink:href="#DejaVuSans-99"/>
      <use x="399.105469" xlink:href="#DejaVuSans-121"/>
     </g>
    </g>
   </g>
   <g id="line2d_31">
    <path clip-path="url(#p423f643442)" d="M 75.640143 375.715469 
L 75.653536 375.584895 
L 75.67422 375.715469 
M 76.900636 375.715469 
L 76.929025 375.533985 
L 77.56677 373.954189 
L 78.204515 371.202122 
L 78.842259 367.431 
L 79.480004 362.538517 
L 80.117749 363.201079 
L 80.755493 359.429836 
L 81.393238 360.347191 
L 82.030983 353.161441 
L 82.668727 350.103669 
L 83.306472 352.447969 
L 83.944217 345.517012 
L 84.581961 350.919083 
L 85.219706 348.167137 
L 85.857451 348.014285 
L 86.495195 342.051595 
L 87.13294 343.937216 
L 87.770685 341.796801 
L 88.408429 341.440065 
L 89.046174 344.956514 
L 89.683919 329.973483 
L 90.321663 330.534102 
L 90.959408 334.865966 
L 91.597153 334.407288 
L 92.234897 332.419724 
L 92.872642 333.540842 
L 93.510387 331.196664 
L 94.785876 324.010914 
L 95.42362 325.743562 
L 96.061365 326.304181 
L 96.69911 329.260011 
L 97.336854 323.450294 
L 97.974599 323.093558 
L 98.612344 320.902232 
L 99.250088 323.80703 
L 99.887833 314.633837 
L 100.525578 311.77995 
L 101.163322 313.869334 
L 101.801067 317.793429 
L 102.438812 310.149122 
L 103.076556 312.901068 
L 103.714301 316.825163 
L 104.352046 311.728918 
L 104.98979 312.748215 
L 105.627535 309.231766 
L 106.26528 312.034744 
L 106.903024 304.390315 
L 107.540769 305.919201 
L 108.178514 306.326847 
L 108.816258 307.142261 
L 109.454003 308.620236 
L 110.091748 308.212469 
L 110.729492 304.288373 
L 111.367237 304.186431 
L 112.004981 299.497954 
L 112.642726 299.29407 
L 113.280471 301.179692 
L 113.918215 302.402752 
L 114.55596 297.306506 
L 115.831449 303.065313 
L 116.469194 295.879563 
L 117.106939 296.185388 
L 117.744683 294.911297 
L 118.382428 300.721014 
L 119.020173 297.306506 
L 119.657917 295.981505 
L 120.295662 290.936291 
L 120.933407 292.872823 
L 121.571151 288.49005 
L 122.208896 290.528523 
L 122.846641 289.15249 
L 123.484385 295.828652 
L 124.12213 285.687072 
L 124.759875 292.566997 
L 125.397619 284.056245 
L 126.035364 287.470752 
L 126.673109 287.623726 
L 127.310853 285.177484 
L 127.948598 285.432278 
L 128.586343 284.718806 
L 129.224087 281.508183 
L 129.861832 287.3179 
L 130.499576 290.273729 
L 131.137321 281.457151 
L 131.775066 286.247692 
L 132.41281 281.151447 
L 133.050555 288.642902 
L 133.6883 280.998595 
L 134.326044 279.877355 
L 134.963789 277.838882 
L 135.601534 280.743679 
L 136.239278 281.355331 
L 136.877023 282.476449 
L 137.514768 279.163883 
L 138.152512 279.520619 
L 138.790257 276.411938 
L 139.428002 275.290698 
L 140.065746 276.717642 
L 140.703491 280.437975 
L 141.341236 273.710902 
L 141.97898 276.768674 
L 142.616725 270.296395 
L 143.25447 277.73694 
L 143.892214 274.16958 
L 144.529959 275.698466 
L 145.167704 276.615822 
L 145.805448 271.111809 
L 146.443193 272.3859 
L 147.080937 273.150283 
L 147.718682 272.334869 
L 148.356427 270.857015 
L 148.994171 269.786807 
L 149.631916 267.391597 
L 150.269661 270.857015 
L 150.907405 271.723339 
L 151.54515 269.328129 
L 152.182895 268.461805 
L 152.820639 270.194453 
L 154.096129 266.830977 
L 154.733873 271.060899 
L 155.371618 261.479938 
L 156.009363 268.003127 
L 156.647107 266.627094 
L 157.284852 262.397173 
L 157.922597 266.881888 
L 158.560341 267.799243 
L 159.198086 263.926058 
L 159.835831 261.072171 
L 160.473575 267.289655 
L 161.11132 258.676961 
L 161.749065 260.358699 
L 162.386809 258.116341 
L 163.024554 266.627094 
L 163.662299 266.932919 
L 164.300043 259.696259 
L 164.937788 257.912579 
L 165.575532 262.753908 
L 166.213277 256.128899 
L 166.851022 257.148075 
L 167.488766 256.842371 
L 168.126511 259.645227 
L 168.764256 262.957792 
L 169.402 257.148075 
L 170.039745 261.276055 
L 170.67749 258.320225 
L 171.315234 252.306624 
L 171.952979 253.529806 
L 172.590724 253.631626 
L 173.228468 257.759605 
L 173.866213 256.128899 
L 174.503958 249.299884 
L 175.141702 253.988362 
L 175.779447 256.026957 
L 176.417192 258.626051 
L 177.054936 252.765302 
L 177.692681 251.949888 
L 178.330426 258.218283 
L 179.605915 248.127735 
L 180.24366 254.650924 
L 180.881404 252.204682 
L 181.519149 252.765302 
L 182.156893 252.306624 
L 182.794638 253.071128 
L 184.070127 248.382529 
L 184.707872 248.484471 
L 185.345617 249.299884 
L 185.983361 246.496907 
L 186.621106 250.930712 
L 187.258851 246.140171 
L 187.896595 251.542242 
L 188.53434 249.401826 
L 189.172085 249.962325 
L 189.809829 250.370092 
L 190.447574 245.426699 
L 191.085319 246.140171 
L 191.723063 246.344055 
L 192.360808 241.043926 
L 192.998553 246.445997 
L 193.636297 245.732525 
L 194.274042 246.700791 
L 194.911787 245.579551 
L 196.187276 248.178645 
L 196.825021 243.897814 
L 197.462765 245.630583 
L 198.10051 242.878637 
L 198.738255 241.961282 
L 199.375999 246.700791 
L 200.013744 243.03149 
L 200.651488 246.853643 
L 201.289233 245.273847 
L 201.926978 240.585248 
L 202.564722 240.891074 
L 203.202467 246.140171 
L 203.840212 241.553514 
L 204.477956 243.999756 
L 205.115701 241.043926 
L 205.753446 242.776696 
L 206.39119 237.935244 
L 207.028935 237.170741 
L 207.66668 239.107394 
L 208.304424 237.06892 
L 208.942169 243.592109 
L 209.579914 237.119831 
L 210.217658 242.878637 
L 210.855403 234.724621 
L 211.493148 241.655456 
L 212.130892 236.915947 
L 212.768637 241.961282 
L 213.406382 238.190039 
L 214.044126 241.24781 
L 214.681871 231.972675 
L 215.319616 234.011149 
L 215.95736 234.571647 
L 216.595105 232.584205 
L 217.870594 234.062059 
L 218.508339 233.756355 
L 219.146083 232.686147 
L 219.783828 234.367885 
L 220.421573 237.06892 
L 221.059317 225.245603 
L 221.697062 236.661153 
L 222.334807 236.457269 
L 222.972551 234.316853 
L 223.610296 236.304417 
L 224.248041 236.763095 
L 224.885785 232.227469 
L 225.52353 232.635116 
L 226.161275 229.628376 
L 226.799019 233.195735 
L 227.436764 230.800526 
L 228.074509 231.71776 
L 228.712253 227.131224 
L 229.349998 225.755191 
L 229.987743 231.921644 
L 230.625487 228.863872 
L 231.263232 230.239906 
L 231.900977 230.44379 
L 232.538721 231.66685 
L 233.176466 233.858175 
L 233.81421 229.373582 
L 234.451955 228.252342 
L 235.0897 224.939777 
L 235.727444 223.818659 
L 236.365189 227.946638 
L 237.002934 227.386018 
L 237.640678 229.985112 
L 238.278423 223.665685 
L 238.916168 223.971511 
L 239.553912 229.781228 
L 240.191657 225.500397 
L 240.829402 224.939777 
L 241.467146 224.837835 
L 242.104891 228.66011 
L 242.742636 225.806101 
L 243.38038 221.117623 
L 244.018125 226.111927 
L 244.65587 224.786925 
L 245.293614 229.32255 
L 245.931359 225.755191 
L 246.569104 230.647552 
L 247.206848 222.799361 
L 247.844593 220.658945 
L 248.482338 226.774488 
L 249.120082 223.359981 
L 249.757827 223.054155 
L 250.395572 226.468663 
L 251.671061 224.430189 
L 252.308805 226.468663 
L 252.94655 221.015681 
L 253.584295 220.30221 
L 254.222039 220.149357 
L 254.859784 221.474359 
L 255.497529 223.410891 
L 256.135273 222.289773 
L 256.773018 218.314646 
L 257.410763 219.792621 
L 258.048507 216.429024 
L 258.686252 215.970347 
L 259.323997 217.448322 
L 259.961741 216.938734 
L 260.599486 214.033815 
L 261.237231 222.187831 
L 261.874975 222.697419 
L 262.51272 221.933037 
L 263.150465 220.506093 
L 263.788209 213.524227 
L 264.425954 213.320343 
L 265.063699 210.466455 
L 265.701443 220.098326 
L 266.339188 219.435886 
L 266.976933 212.504929 
L 268.252422 217.34638 
L 268.890166 213.575137 
L 269.527911 220.455062 
L 270.165656 217.499232 
L 270.8034 213.677079 
L 271.441145 215.256875 
L 272.07889 212.301045 
L 272.716634 211.536663 
L 273.354379 216.12332 
L 273.992124 214.747287 
L 274.629868 218.467498 
L 275.267613 209.752983 
L 275.905358 212.199225 
L 276.543102 217.091586 
L 277.180847 212.504929 
L 277.818592 219.028118 
L 278.456336 210.364513 
L 279.094081 214.33964 
L 279.731826 213.779021 
L 280.36957 212.708813 
L 281.007315 213.982904 
L 281.64506 210.211661 
L 282.282804 219.384854 
L 282.920549 213.371253 
L 283.558294 212.250135 
L 284.196038 212.657781 
L 284.833783 215.919436 
L 285.471528 200.528759 
L 286.109272 212.606871 
L 286.747017 210.670339 
L 287.384761 208.020214 
L 288.022506 208.631744 
L 288.660251 212.301045 
L 289.297995 206.236534 
L 289.93574 209.243395 
L 290.573485 207.357774 
L 291.211229 210.517365 
L 291.848974 211.179927 
L 292.486719 209.243395 
L 293.124463 208.020214 
L 293.762208 205.268268 
L 294.399953 206.899096 
L 295.037697 210.211661 
L 295.675442 206.695212 
L 296.313187 205.93083 
L 296.950931 201.395083 
L 297.588676 207.867362 
L 298.226421 201.598967 
L 298.864165 205.523062 
L 299.50191 204.350912 
L 300.139655 207.408684 
L 300.777399 205.166326 
L 301.415144 206.491328 
L 302.052889 204.656738 
L 302.690633 204.14715 
L 303.328378 208.733686 
L 303.966122 203.076821 
L 304.603867 200.681611 
L 305.241612 204.962442 
L 305.879356 201.802851 
L 306.517101 206.797154 
L 307.154846 203.688472 
L 307.79259 206.54236 
L 308.430335 201.751819 
L 309.06808 195.432514 
L 309.705824 201.548057 
L 310.343569 200.936405 
L 310.981314 204.045208 
L 311.619058 198.337312 
L 312.256803 205.777856 
L 312.894548 199.560493 
L 313.532292 200.630701 
L 314.170037 202.057645 
L 314.807782 200.121113 
L 315.445526 201.038347 
L 316.083271 198.847021 
L 316.721016 200.936405 
L 317.35876 197.929665 
L 317.996505 199.866197 
L 318.63425 203.943266 
L 319.271994 202.618264 
L 319.909739 202.057645 
L 320.547484 198.133549 
L 321.185228 197.827724 
L 321.822973 195.585366 
L 322.460717 201.751819 
L 323.098462 199.203757 
L 323.736207 197.267104 
L 324.373951 192.22189 
L 325.011696 195.73834 
L 325.649441 200.783553 
L 326.287185 187.074613 
L 326.92493 198.184459 
L 327.562675 198.795989 
L 328.200419 194.107512 
L 328.838164 195.534456 
L 329.475909 199.815287 
L 330.113653 195.330572 
L 330.751398 195.891192 
L 331.389143 193.750776 
L 332.026887 196.247928 
L 332.664632 193.39404 
L 333.302377 199.866197 
L 333.940121 192.374742 
L 334.577866 198.694048 
L 335.215611 197.267104 
L 335.853355 194.209454 
L 336.4911 194.413216 
L 337.128845 194.00557 
L 337.766589 190.743915 
L 338.404334 194.922926 
L 339.042078 193.190156 
L 339.679823 191.916065 
L 340.317568 192.78251 
L 340.955312 194.209454 
L 341.593057 192.069038 
L 342.230802 194.515158 
L 342.868546 195.78925 
L 343.506291 189.011267 
L 344.144036 194.158422 
L 344.78178 193.699744 
L 345.419525 190.081475 
L 346.05727 191.049741 
L 346.695014 189.469945 
L 347.332759 192.170859 
L 347.970504 193.597802 
L 348.608248 186.666967 
L 349.245993 187.584323 
L 349.883738 189.368003 
L 350.521482 189.571765 
L 351.159227 188.807383 
L 351.796972 189.520855 
L 352.434716 190.794947 
L 353.072461 184.47552 
L 353.710206 196.808547 
L 354.34795 189.571765 
L 354.985695 190.947799 
L 355.62344 184.832256 
L 356.261184 192.22189 
L 356.898929 185.64767 
L 357.536673 182.284194 
L 358.174418 186.412173 
L 358.812163 185.953495 
L 359.449907 185.03614 
L 360.087652 181.061134 
L 360.725397 186.717878 
L 361.363141 187.737175 
L 362.000886 186.004406 
L 362.638631 183.25246 
L 363.276375 185.851554 
L 363.91412 183.558286 
L 364.551865 189.775649 
L 365.189609 189.469945 
L 365.827354 183.405312 
L 366.465099 180.908161 
L 367.102843 181.825516 
L 367.740588 183.20155 
L 368.378333 183.711138 
L 369.016077 186.157379 
L 369.653822 178.665803 
L 370.291567 185.138082 
L 370.929311 181.46878 
L 371.567056 185.800643 
L 372.204801 182.844814 
L 372.842545 183.81308 
L 373.48029 182.08031 
L 374.118034 182.538988 
L 374.755779 179.939895 
L 375.393524 182.742872 
L 376.031268 178.767745 
L 376.669013 178.818777 
L 377.306758 182.488078 
L 377.944502 182.793782 
L 378.582247 181.774606 
L 379.219992 179.430307 
L 379.857736 181.264896 
L 380.495481 181.825516 
L 381.133226 177.187949 
L 381.77097 183.25246 
L 382.408715 182.742872 
L 383.04646 181.162955 
L 383.684204 174.334061 
L 384.321949 179.328365 
L 384.959694 179.430307 
L 385.597438 180.755308 
L 386.235183 179.022539 
L 386.872928 179.685101 
L 387.510672 178.003363 
L 388.148417 178.309067 
L 388.786162 176.117741 
L 389.423906 178.716835 
L 390.699396 174.384972 
L 391.33714 178.054273 
L 391.974885 177.340801 
L 392.612629 175.811915 
L 393.250374 175.709973 
L 393.888119 179.430307 
L 394.525863 175.506211 
L 395.163608 177.799479 
L 395.801353 176.219683 
L 396.439097 176.780181 
L 397.076842 174.741708 
L 397.714587 175.659063 
L 398.352331 174.690797 
L 398.990076 174.181088 
L 399.627821 174.334061 
L 400.265565 168.065666 
L 400.90331 174.843649 
L 401.541055 173.773442 
L 402.178799 174.639766 
L 402.816544 173.824352 
L 403.454289 171.633026 
L 404.092033 174.130178 
L 404.729778 170.460876 
L 405.367523 176.423445 
L 406.005267 168.931991 
L 406.643012 173.212822 
L 407.280757 168.473313 
L 407.918501 172.397408 
L 408.556246 171.480174 
L 409.19399 167.810872 
L 409.831735 171.989762 
L 410.46948 171.072406 
L 411.107224 169.339758 
L 412.382714 172.091704 
L 413.020458 169.339758 
L 413.658203 173.773442 
L 414.295948 169.237816 
L 414.933692 172.142614 
L 415.571437 169.594552 
L 416.209182 170.868522 
L 416.846926 165.976161 
L 418.122416 169.747404 
L 419.397905 165.517483 
L 420.03565 171.938852 
L 420.673394 169.237816 
L 421.311139 164.804011 
L 421.948884 169.390668 
L 422.586628 167.097401 
L 423.224373 162.714627 
L 423.862118 162.765538 
L 424.499862 167.708931 
L 425.137607 165.517483 
L 425.775352 168.983022 
L 426.413096 162.714627 
L 427.050841 171.072406 
L 427.688585 166.944427 
L 428.32633 168.626286 
L 428.964075 161.389504 
L 429.601819 167.403105 
L 430.239564 167.708931 
L 430.877309 167.505047 
L 431.515053 163.631862 
L 432.152798 158.433674 
L 432.790543 167.097401 
L 433.428287 160.829006 
L 434.066032 166.842485 
L 434.703777 162.408802 
L 435.341521 164.600249 
L 435.979266 164.447275 
L 437.254755 163.122273 
L 437.8925 160.064502 
L 438.530245 160.319296 
L 439.167989 162.765538 
L 439.805734 163.326157 
L 440.443479 161.389504 
L 441.081223 157.210615 
L 441.718968 164.039629 
L 442.356713 164.345333 
L 442.994457 165.262689 
L 443.632202 161.593388 
L 444.269946 161.185742 
L 444.907691 162.357891 
L 445.545436 158.841442 
L 446.18318 161.848182 
L 446.820925 159.91165 
L 447.45867 157.261646 
L 448.096414 157.873176 
L 448.734159 161.797272 
L 449.371904 160.013592 
L 450.009648 156.548174 
L 450.647393 158.994294 
L 451.285138 157.618382 
L 451.922882 161.74624 
L 452.560627 160.319296 
L 453.198372 158.026028 
L 453.836116 153.796107 
L 454.473861 157.975118 
L 455.111606 154.050901 
L 455.74935 151.298956 
L 456.387095 157.822145 
L 457.02484 156.293259 
L 457.662584 157.261646 
L 458.300329 155.274083 
L 458.938074 150.993251 
L 459.575818 150.279779 
L 460.213563 157.108673 
L 460.851308 150.94222 
L 461.489052 155.426935 
L 462.126797 157.006731 
L 463.402286 152.114369 
L 464.040031 152.776931 
L 464.677775 156.089496 
L 465.31552 155.987555 
L 465.953265 153.184577 
L 466.591009 152.522137 
L 467.228754 147.32395 
L 467.866499 154.254785 
L 468.504243 151.298956 
L 469.141988 154.458669 
L 469.779733 153.796107 
L 470.417477 148.4961 
L 471.055222 149.923044 
L 471.692967 156.191438 
L 472.330711 147.476802 
L 472.968456 151.706723 
L 473.606201 151.298956 
L 474.243945 148.699862 
L 474.88169 150.483542 
L 475.519435 153.388461 
L 476.157179 150.534573 
L 476.794924 146.049858 
L 477.432669 147.527712 
L 478.070413 146.661388 
L 478.708158 150.33069 
L 479.345902 145.947916 
L 479.983647 152.369163 
L 480.621392 151.248045 
L 481.259136 150.432632 
L 481.896881 148.445068 
L 482.534626 151.655692 
L 483.17237 150.33069 
L 483.810115 147.425892 
L 484.44786 146.508536 
L 485.085604 148.750894 
L 486.361094 146.100769 
L 486.998838 149.15854 
L 487.636583 149.77007 
L 488.274328 143.501675 
L 489.549817 142.635351 
L 490.187562 143.858411 
L 490.825306 144.164237 
L 491.463051 145.489239 
L 492.100796 146.100769 
L 492.73854 143.807501 
L 493.376285 144.266179 
L 494.01403 143.858411 
L 494.651774 145.998827 
L 495.289519 142.176673 
L 496.565008 140.698819 
L 497.202753 140.494935 
L 497.840497 137.18237 
L 498.478242 142.737293 
L 499.115987 142.635351 
L 499.753731 138.252578 
L 500.391476 141.106465 
L 501.029221 142.074731 
L 501.666965 141.106465 
L 502.30471 137.284312 
L 502.942455 137.18237 
L 503.580199 141.412291 
L 504.217944 139.067992 
L 504.855689 140.902581 
L 505.493433 140.698819 
L 506.131178 141.667085 
L 506.768923 136.672782 
L 507.406667 142.227705 
L 508.044412 136.163072 
L 508.682157 141.208407 
L 509.319901 139.271875 
L 509.957646 139.271875 
L 510.595391 139.01696 
L 511.87088 133.869805 
L 512.508625 135.143896 
L 513.146369 136.978486 
L 513.784114 132.188067 
L 514.421858 139.118902 
L 515.059603 134.17563 
L 515.697348 138.864108 
L 516.335092 133.156333 
L 516.972837 138.35452 
L 517.610582 134.481334 
L 518.248326 134.022657 
L 519.523816 134.583276 
L 520.16156 136.01022 
L 520.799305 136.825634 
L 521.43705 134.073688 
L 522.712539 136.57084 
L 523.350284 132.290009 
L 523.988028 134.430424 
L 524.625773 130.710091 
L 525.263518 134.379393 
L 525.901262 132.544803 
L 526.539007 133.207243 
L 527.176752 127.958146 
L 527.814496 130.149593 
L 528.452241 133.207243 
L 529.089986 132.086125 
L 529.72773 129.537941 
L 530.365475 127.754262 
L 531.003219 128.773559 
L 531.640964 130.557239 
L 532.278709 130.251413 
L 532.916453 125.104258 
L 533.554198 131.933273 
L 534.191943 124.951406 
L 534.829687 130.404387 
L 535.467432 127.244674 
L 536.105177 126.735086 
L 536.742921 129.843767 
L 537.380666 131.423563 
L 538.018411 125.81773 
L 538.656155 127.856204 
L 539.2939 125.2062 
L 539.931645 125.002316 
L 540.569389 128.875501 
L 541.207134 125.562936 
L 541.844879 127.754262 
L 542.482623 126.837028 
L 543.120368 123.779256 
L 543.758113 127.907235 
L 544.395857 126.633144 
L 545.033602 127.805293 
L 545.671347 126.174466 
L 546.309091 127.856204 
L 546.946836 124.543638 
L 547.584581 122.709048 
L 548.222325 126.684054 
L 548.86007 127.295584 
L 549.497814 121.384046 
L 550.135559 123.830166 
L 550.773304 123.524462 
L 551.411048 125.562936 
L 552.048793 122.046487 
L 552.686538 119.651277 
L 553.324282 126.633144 
L 553.962027 119.498425 
L 554.599772 123.269547 
L 555.237516 125.104258 
L 555.875261 124.186902 
L 556.513006 126.276408 
L 557.15075 119.447393 
L 557.788495 121.384046 
L 558.42624 120.058923 
L 559.063984 116.797389 
L 559.701729 120.874337 
L 560.339474 113.128088 
L 560.977218 121.434957 
L 561.614963 120.568633 
L 562.252708 120.160865 
L 562.890452 117.306977 
L 563.528197 117.358009 
L 564.165942 115.880034 
L 564.803686 122.097518 
L 566.079175 115.62524 
L 566.71692 119.141689 
L 567.992409 111.905028 
L 568.630154 115.166562 
L 569.267899 117.408919 
L 569.905643 111.701144 
L 570.543388 119.600367 
L 571.181133 114.045444 
L 571.818877 115.523298 
L 572.456622 119.039747 
L 573.094367 111.038583 
L 573.732111 112.210732 
L 574.369856 115.778092 
L 575.007601 112.66941 
L 575.645345 111.853996 
L 577.558579 114.45309 
L 578.196324 112.006848 
L 578.834069 112.771352 
L 579.471813 109.254903 
L 580.109558 113.89247 
L 580.747303 113.790528 
L 581.385047 109.000109 
L 582.022792 110.427053 
L 582.660537 110.88573 
L 583.298281 109.764491 
L 583.936026 112.822262 
L 584.57377 107.980811 
L 585.211515 109.66267 
L 585.84926 109.66267 
L 586.487004 107.980811 
L 587.124749 105.840395 
L 587.762494 106.09519 
L 588.400238 111.803086 
L 589.037983 105.891427 
L 589.675728 107.369281 
L 590.313472 110.732878 
L 590.951217 104.2606 
L 591.588962 107.012545 
L 592.226706 111.293377 
L 592.864451 104.566425 
L 593.502196 105.789485 
L 594.13994 101.457622 
L 594.777685 107.318371 
L 595.41543 105.126924 
L 596.053174 105.076013 
L 596.690919 103.241302 
L 597.328664 99.826916 
L 597.966408 105.891427 
L 598.604153 107.929901 
L 599.241898 101.406712 
L 599.879642 100.183652 
L 600.517387 105.585601 
L 601.155131 100.998944 
L 601.792876 105.534691 
L 602.430621 101.30477 
L 603.068365 102.222126 
L 604.343855 106.553867 
L 604.981599 101.457622 
L 605.619344 98.196089 
L 606.257089 102.986508 
L 606.894833 102.069152 
L 607.532578 100.846092 
L 608.170323 96.921997 
L 608.808067 94.628729 
L 609.445812 94.11902 
L 610.083557 100.336504 
L 610.721301 97.584559 
L 611.359046 102.120184 
L 611.996791 96.565261 
L 612.634535 95.444021 
L 613.27228 100.030678 
L 613.910025 96.514351 
L 614.547769 98.196089 
L 615.185514 94.832491 
L 615.823259 94.934433 
L 616.461003 96.871087 
L 617.098748 97.125881 
L 617.736493 95.902699 
L 618.374237 92.488313 
L 619.011982 95.240259 
L 619.649726 91.72381 
L 620.287471 95.240259 
L 620.925216 90.755544 
L 621.56296 93.201785 
L 622.200705 93.048812 
L 622.83845 93.966167 
L 623.476194 95.291169 
L 624.113939 94.220961 
L 624.751684 90.653602 
L 625.389428 92.794018 
L 626.027173 92.131577 
L 626.664918 91.825752 
L 627.302662 90.959428 
L 627.940407 96.412409 
L 628.578152 90.653602 
L 629.215896 92.89596 
L 629.853641 89.787278 
L 630.491386 87.493889 
L 631.12913 87.239095 
L 631.766875 91.6729 
L 632.40462 88.15645 
L 633.042364 87.137153 
L 634.317854 88.666038 
L 634.955598 87.748804 
L 635.593343 85.251531 
L 636.231087 86.219919 
L 636.868832 85.608267 
L 637.506577 83.773677 
L 638.782066 88.054508 
L 639.419811 87.850625 
L 640.057555 88.819012 
L 640.6953 87.137153 
L 641.333045 84.028471 
L 641.970789 83.773677 
L 642.608534 82.907353 
L 643.246279 86.984301 
L 643.884023 81.58223 
L 644.521768 82.601527 
L 645.159513 83.926529 
L 645.797257 84.079503 
L 646.435002 80.766937 
L 647.072747 82.295702 
L 647.710491 83.518883 
L 648.348236 81.735203 
L 648.985981 83.722767 
L 649.623725 78.830284 
L 650.26147 84.792975 
L 650.899215 86.627565 
L 651.536959 78.422638 
L 652.174704 84.843885 
L 652.812449 82.091939 
L 653.450193 78.6264 
L 654.087938 82.14285 
L 654.725682 78.371606 
L 655.363427 81.123673 
L 656.001172 78.371606 
L 656.638916 78.01487 
L 657.276661 80.257228 
L 657.914406 79.238052 
L 658.55215 77.811108 
L 659.189895 75.670571 
L 659.82764 76.485985 
L 660.465384 78.881316 
L 661.103129 75.466808 
L 661.740874 78.473548 
L 662.378618 74.447511 
L 663.016363 71.899449 
L 663.654108 74.651395 
L 664.291852 75.008131 
L 664.929597 73.122509 
L 665.567342 70.727299 
L 666.205086 74.855278 
L 666.842831 71.644533 
L 667.480576 71.950359 
L 668.11832 71.236887 
L 668.756065 74.855278 
L 669.39381 71.593623 
L 670.031554 69.759033 
L 670.669299 69.147382 
L 671.307043 68.892588 
L 671.944788 70.472505 
L 672.582533 72.459947 
L 673.220277 69.911885 
L 673.858022 71.695565 
L 674.495767 67.465644 
L 675.133511 69.708002 
L 675.771256 68.688826 
L 676.409001 72.612921 
L 677.68449 67.82238 
L 678.322235 71.185977 
L 678.959979 69.198414 
L 679.597724 67.873412 
L 680.235469 69.809944 
L 680.873213 68.230148 
L 681.510958 69.249324 
L 682.148703 66.089732 
L 682.786447 64.000227 
L 683.424192 64.458904 
L 684.061937 68.484942 
L 684.699681 69.504118 
L 685.337426 67.975354 
L 685.975171 69.657091 
L 686.612915 69.147382 
L 687.25066 64.356962 
L 687.888405 67.21085 
L 687.888405 67.21085 
" style="fill:none;stroke:#377eb8;stroke-linecap:square;stroke-width:1.5;"/>
   </g>
   <g id="line2d_32">
    <path clip-path="url(#p423f643442)" d="M 62.783146 375.715469 
L 62.898643 363.93715 
L 62.991569 375.715469 
M 64.689577 375.715469 
L 64.811877 371.938436 
L 64.966362 375.715469 
M 65.701182 375.715469 
L 66.087366 357.57702 
L 66.531327 375.715469 
M 67.053254 375.715469 
L 67.362856 368.245563 
L 68.0006 368.040343 
L 68.356687 375.715469 
M 68.714438 375.715469 
L 69.27609 330.905905 
L 69.871345 375.715469 
M 69.952825 375.715469 
L 70.551579 326.597371 
L 71.189324 320.852901 
L 71.827068 312.235954 
L 72.464813 364.34747 
L 73.102558 336.240055 
L 73.740302 354.499565 
L 74.378047 310.594677 
L 75.015792 297.669439 
L 75.653536 312.646395 
L 76.291281 359.833837 
L 76.929025 340.753688 
L 77.56677 313.467034 
L 78.204515 307.722443 
L 78.842259 297.669439 
L 79.480004 344.241462 
L 80.117749 304.234668 
L 80.755493 320.442582 
L 81.393238 280.435788 
L 82.030983 273.870559 
L 82.668727 326.597371 
L 83.306472 290.693891 
L 83.944217 287.821656 
L 84.581961 344.241462 
L 85.219706 295.412623 
L 85.857451 297.053899 
L 86.495195 318.390864 
L 87.13294 289.873252 
L 87.770685 321.058 
L 88.408429 288.437074 
L 89.046174 276.948014 
L 89.683919 255.20073 
L 90.321663 306.286265 
L 90.959408 266.68979 
L 91.597153 266.68979 
L 92.234897 300.951993 
L 92.872642 266.074372 
L 93.510387 309.979259 
L 94.148131 254.79041 
L 94.785876 267.920747 
L 95.42362 270.998203 
L 96.061365 260.945199 
L 96.69911 283.718342 
L 97.336854 256.226467 
L 97.974599 277.973751 
L 98.612344 257.047105 
L 99.250088 277.358333 
L 99.887833 271.408522 
L 100.525578 259.714241 
L 101.163322 253.764551 
L 101.801067 268.536287 
L 102.438812 271.818841 
L 103.076556 267.920747 
L 103.714301 310.184358 
L 104.352046 263.817555 
L 104.98979 274.280878 
L 105.627535 246.994223 
L 106.26528 270.793104 
L 106.903024 253.559331 
L 107.540769 275.716935 
L 108.178514 281.256427 
L 108.816258 258.072964 
L 109.454003 250.687096 
L 110.091748 265.048513 
L 110.729492 241.044412 
L 111.367237 259.098823 
L 112.004981 304.029448 
L 112.642726 258.688504 
L 113.280471 270.382784 
L 113.918215 295.617843 
L 114.55596 227.298535 
L 115.193705 262.176278 
L 115.831449 244.942506 
L 116.469194 263.202015 
L 117.106939 243.916768 
L 117.744683 237.966957 
L 118.382428 250.276777 
L 119.020173 269.151827 
L 119.657917 275.511836 
L 120.295662 285.769938 
L 120.933407 290.283571 
L 121.571151 237.556638 
L 122.208896 231.401728 
L 122.846641 269.562146 
L 123.484385 256.226467 
L 124.12213 225.246939 
L 124.759875 234.274084 
L 125.397619 252.123275 
L 126.035364 238.172177 
L 126.673109 250.892317 
L 127.310853 256.431687 
L 127.948598 241.659952 
L 128.586343 233.863765 
L 129.224087 258.072964 
L 129.861832 272.8447 
L 130.499576 231.606948 
L 131.137321 236.5309 
L 131.775066 243.916768 
L 132.41281 229.965671 
L 133.050555 237.351539 
L 133.6883 247.814862 
L 134.326044 245.147726 
L 134.963789 294.591984 
L 135.601534 251.097416 
L 136.239278 240.634093 
L 136.877023 236.120581 
L 137.514768 253.149012 
L 138.152512 225.452038 
L 138.790257 221.759165 
L 139.428002 245.352825 
L 140.065746 238.992816 
L 140.703491 312.441175 
L 141.341236 228.939812 
L 141.97898 244.532186 
L 142.616725 227.708855 
L 143.25447 233.658544 
L 143.892214 236.32568 
L 144.529959 276.948014 
L 145.167704 234.889502 
L 145.805448 220.117766 
L 146.443193 212.11648 
L 147.080937 244.327087 
L 147.718682 241.249632 
L 148.356427 232.837906 
L 148.994171 217.450631 
L 149.631916 236.94122 
L 150.269661 233.453445 
L 150.907405 219.324831 
L 151.54515 248.43028 
L 152.182895 243.301229 
L 152.820639 209.859664 
L 153.458384 214.783616 
L 154.096129 237.351539 
L 154.733873 234.068864 
L 155.371618 251.712955 
L 156.009363 238.787596 
L 156.647107 235.094722 
L 157.284852 259.714241 
L 157.922597 216.014574 
L 158.560341 219.707447 
L 159.198086 251.097416 
L 159.835831 229.350132 
L 160.473575 232.632807 
L 161.11132 251.097416 
L 161.749065 226.888216 
L 162.386809 245.352825 
L 163.024554 226.067578 
L 163.662299 273.870559 
L 164.300043 240.839313 
L 164.937788 224.836498 
L 165.575532 231.401728 
L 166.851022 204.320293 
L 167.488766 229.965671 
L 168.126511 224.426179 
L 168.764256 234.684403 
L 169.402 213.347438 
L 170.039745 253.559331 
L 170.67749 238.992816 
L 171.315234 254.174871 
L 172.590724 212.937119 
L 173.228468 235.299821 
L 173.866213 233.043126 
L 174.503958 205.551251 
L 175.141702 225.246939 
L 175.779447 204.320293 
L 176.417192 214.168077 
L 177.054936 221.964264 
L 177.692681 243.096008 
L 178.330426 222.169484 
L 178.96817 217.245532 
L 179.605915 226.477897 
L 180.24366 230.581089 
L 180.881404 217.861071 
L 181.519149 220.322987 
L 182.156893 203.499655 
L 182.794638 235.299821 
L 184.070127 217.040311 
L 184.707872 221.759165 
L 185.345617 229.350132 
L 185.983361 214.168077 
L 186.621106 213.347438 
L 187.258851 223.400442 
L 187.896595 219.297128 
L 188.53434 212.321579 
L 189.172085 200.832519 
L 189.809829 216.835212 
L 190.447574 205.551251 
L 191.085319 233.453445 
L 191.723063 201.858256 
L 192.360808 208.628706 
L 192.998553 220.938405 
L 193.636297 252.328373 
L 194.274042 218.68171 
L 194.911787 215.809354 
L 195.549531 240.223774 
L 196.187276 208.013167 
L 196.825021 261.560739 
L 197.462765 227.913953 
L 198.10051 232.222366 
L 198.738255 202.884115 
L 199.375999 249.866458 
L 200.013744 217.861071 
L 200.651488 208.423486 
L 201.289233 248.6355 
L 201.926978 199.191121 
L 202.564722 207.808068 
L 203.202467 226.888216 
L 203.840212 190.984614 
L 204.477956 214.578396 
L 205.115701 214.578396 
L 206.39119 201.858256 
L 207.028935 248.019961 
L 207.66668 202.063477 
L 208.304424 214.988715 
L 208.942169 216.219673 
L 209.579914 213.962856 
L 210.217658 191.805253 
L 210.855403 210.475082 
L 211.493148 220.322987 
L 212.130892 197.960163 
L 212.768637 216.629992 
L 213.406382 201.653158 
L 214.044126 220.733306 
L 214.681871 210.885523 
L 215.319616 209.449345 
L 215.95736 221.348724 
L 216.595105 223.195221 
L 217.232849 208.423486 
L 217.870594 227.503634 
L 218.508339 208.628706 
L 219.146083 215.809354 
L 219.783828 201.858256 
L 220.421573 204.525392 
L 221.059317 212.937119 
L 221.697062 195.498248 
L 222.334807 204.115073 
L 222.972551 224.22108 
L 223.610296 207.192528 
L 224.248041 227.503634 
L 224.885785 217.861071 
L 225.423819 375.715469 
M 225.618552 375.715469 
L 226.161275 208.628706 
L 226.799019 213.347438 
L 227.436764 237.556638 
L 228.074509 222.784902 
L 228.712253 198.780801 
L 229.349998 194.882708 
L 229.987743 202.063477 
L 231.263232 248.019961 
L 231.900977 208.218387 
L 232.538721 203.704754 
L 233.176466 203.499655 
L 233.81421 201.037618 
L 234.451955 201.653158 
L 235.0897 210.885523 
L 235.727444 227.093315 
L 236.365189 204.525392 
L 237.002934 220.322987 
L 237.640678 197.344745 
L 238.278423 187.291741 
L 238.916168 218.06617 
L 239.553912 208.013167 
L 240.191657 190.369196 
L 240.829402 205.140932 
L 241.467146 190.574295 
L 242.104891 188.727919 
L 242.742636 199.396341 
L 243.38038 196.113787 
L 244.018125 200.4222 
L 244.65587 242.48059 
L 245.293614 197.344745 
L 245.931359 198.780801 
L 246.569104 213.962856 
L 247.206848 195.293027 
L 247.844593 197.139524 
L 248.482338 247.814862 
L 249.120082 198.575703 
L 249.757827 204.525392 
L 250.395572 204.320293 
L 251.033316 210.953565 
L 251.671061 206.37189 
L 252.308805 203.294435 
L 252.94655 198.370482 
L 253.584295 221.964264 
L 254.222039 205.551251 
L 254.859784 223.605541 
L 255.497529 197.960163 
L 256.135273 184.624605 
L 256.773018 194.26729 
L 257.410763 192.420792 
L 258.048507 178.059376 
L 258.686252 206.166669 
L 259.323997 197.344745 
L 259.961741 194.472389 
L 260.599486 192.626013 
L 261.237231 253.764551 
L 261.874975 185.855563 
L 262.51272 200.21698 
L 263.150465 194.26729 
L 263.788209 190.779516 
L 264.425954 199.80666 
L 265.063699 195.293027 
L 265.701443 196.729205 
L 266.339188 193.446651 
L 266.976933 203.499655 
L 267.614677 202.678895 
L 268.252422 191.600154 
L 268.890166 198.986022 
L 269.527911 194.677609 
L 270.165656 191.189835 
L 270.8034 188.522699 
L 271.441145 192.626013 
L 272.07889 190.984614 
L 272.716634 193.036332 
L 273.354379 208.013167 
L 273.992124 210.885523 
L 274.629868 218.271391 
L 275.267613 189.753657 
L 275.905358 182.16269 
L 276.543102 208.628706 
L 277.180847 199.601561 
L 277.818592 219.297128 
L 278.456336 186.265882 
L 279.094081 186.471103 
L 279.731826 202.884115 
L 280.36957 182.16269 
L 281.007315 182.16269 
L 281.64506 204.320293 
L 282.282804 211.706161 
L 282.920549 188.933018 
L 283.558294 194.882708 
L 284.196038 208.423486 
L 284.833783 180.931611 
L 285.471528 200.4222 
L 286.109272 189.753657 
L 286.747017 211.295842 
L 287.384761 222.579803 
L 288.022506 202.678895 
L 288.660251 198.575703 
L 289.297995 197.139524 
L 289.93574 212.937119 
L 291.211229 210.885523 
L 292.486719 198.575703 
L 293.124463 185.650464 
L 293.762208 198.370482 
L 294.399953 185.855563 
L 295.037697 181.752371 
L 295.675442 198.370482 
L 296.313187 189.343337 
L 296.950931 200.011881 
L 297.588676 179.700653 
L 298.226421 193.856971 
L 298.864165 202.884115 
L 299.50191 188.522699 
L 300.139655 187.907159 
L 300.777399 181.95747 
L 301.415144 186.676202 
L 302.052889 197.755064 
L 302.690633 176.828418 
L 303.328378 182.367789 
L 304.603867 200.011881 
L 305.241612 203.294435 
L 305.879356 203.499655 
L 306.517101 174.366503 
L 307.154846 193.036332 
L 307.79259 179.085235 
L 308.430335 204.115073 
L 309.06808 190.574295 
L 310.343569 176.418099 
L 310.981314 189.958877 
L 311.619058 176.828418 
L 312.256803 182.983328 
L 312.894548 193.241431 
L 313.532292 191.805253 
L 314.170037 183.803967 
L 314.807782 185.240145 
L 315.445526 185.445244 
L 316.083271 180.316193 
L 316.721016 201.858256 
L 317.35876 181.136831 
L 317.996505 196.729205 
L 318.63425 181.752371 
L 319.271994 187.907159 
L 319.909739 189.343337 
L 320.547484 192.010473 
L 321.185228 199.191121 
L 321.822973 185.034925 
L 322.460717 197.549844 
L 323.098462 190.369196 
L 323.736207 188.317479 
L 324.373951 193.446651 
L 325.011696 181.34193 
L 325.649441 189.958877 
L 326.287185 187.291741 
L 326.92493 186.060784 
L 327.562675 201.037618 
L 328.200419 185.034925 
L 328.838164 188.727919 
L 329.475909 181.752371 
L 330.113653 181.136831 
L 330.751398 186.265882 
L 331.389143 192.626013 
L 332.026887 200.21698 
L 332.664632 184.419385 
L 333.302377 203.909974 
L 333.940121 203.499655 
L 334.577866 180.316193 
L 335.215611 199.601561 
L 335.853355 185.240145 
L 336.4911 203.909974 
L 337.128845 179.290334 
L 337.766589 183.598747 
L 338.404334 192.831112 
L 339.042078 174.161283 
L 339.679823 196.524106 
L 340.317568 183.188427 
L 340.955312 182.16269 
L 341.593057 178.264596 
L 342.230802 180.931611 
L 342.868546 180.521292 
L 343.506291 180.316193 
L 344.144036 192.420792 
L 344.78178 180.931611 
L 345.419525 175.80256 
L 346.05727 196.524106 
L 346.695014 189.343337 
L 347.332759 175.80256 
L 347.970504 180.110972 
L 348.608248 171.904466 
L 349.245993 177.649057 
L 349.883738 203.909974 
L 350.521482 182.367789 
L 351.159227 195.231911 
L 351.796972 190.779516 
L 352.434716 178.264596 
L 353.072461 182.983328 
L 353.710206 184.419385 
L 354.34795 201.858256 
L 354.985695 182.367789 
L 355.62344 178.059376 
L 356.261184 185.240145 
L 356.898929 169.032231 
L 357.536673 188.522699 
L 358.174418 178.264596 
L 358.812163 180.931611 
L 359.449907 179.495554 
L 360.087652 185.855563 
L 360.725397 184.829704 
L 361.363141 178.059376 
L 362.000886 176.00778 
L 362.638631 182.367789 
L 363.276375 179.905873 
L 363.91412 180.521292 
L 364.551865 192.215572 
L 365.189609 184.009066 
L 365.827354 181.34193 
L 366.465099 179.905873 
L 367.102843 185.034925 
L 367.740588 179.700653 
L 368.378333 177.854277 
L 369.016077 179.495554 
L 369.653822 176.418099 
L 370.291567 191.189835 
L 370.929311 184.214286 
L 371.567056 173.545743 
L 372.204801 199.80666 
L 372.842545 179.905873 
L 373.48029 181.95747 
L 374.118034 178.264596 
L 374.755779 172.725105 
L 375.393524 191.805253 
L 376.031268 175.80256 
L 376.669013 175.597461 
L 377.306758 186.676202 
L 377.944502 169.032231 
L 378.582247 190.369196 
L 379.219992 173.545743 
L 379.857736 179.290334 
L 380.495481 181.136831 
L 381.133226 179.495554 
L 381.77097 175.597461 
L 382.408715 168.827011 
L 383.04646 175.187141 
L 383.684204 187.907159 
L 384.321949 177.238738 
L 384.959694 186.060784 
L 385.597438 177.649057 
L 386.235183 171.699367 
L 386.872928 170.878729 
L 387.510672 178.880015 
L 388.148417 176.00778 
L 388.786162 199.396341 
L 389.423906 179.085235 
L 390.061651 176.00778 
L 390.699396 188.933018 
L 391.33714 165.954776 
L 391.974885 167.801274 
L 392.612629 179.290334 
L 393.250374 173.545743 
L 393.888119 184.829704 
L 394.525863 178.880015 
L 395.163608 178.469695 
L 396.439097 170.878729 
L 397.076842 181.34193 
L 398.352331 164.518598 
L 398.990076 182.16269 
L 399.627821 179.085235 
L 400.265565 156.722411 
L 400.90331 185.240145 
L 401.541055 181.95747 
L 402.178799 181.34193 
L 402.816544 175.187141 
L 403.454289 184.419385 
L 404.092033 174.366503 
L 404.729778 189.343337 
L 405.367523 173.135424 
L 406.005267 172.930325 
L 406.643012 176.418099 
L 407.280757 159.184327 
L 407.918501 161.030824 
L 408.556246 171.289048 
L 409.19399 162.056683 
L 409.831735 172.930325 
L 410.46948 170.263189 
L 411.107224 173.750963 
L 411.744969 184.829704 
L 412.382714 175.597461 
L 413.020458 179.495554 
L 413.658203 172.930325 
L 414.295948 178.674916 
L 414.933692 169.032231 
L 415.571437 184.214286 
L 416.209182 164.518598 
L 416.846926 182.778108 
L 417.484671 174.776822 
L 418.122416 183.803967 
L 418.76016 187.086521 
L 419.397905 175.80256 
L 420.03565 168.416692 
L 420.673394 176.212879 
L 421.311139 174.161283 
L 421.948884 192.831112 
L 423.224373 161.851462 
L 423.862118 177.854277 
L 425.137607 164.928917 
L 425.775352 174.571602 
L 426.413096 176.828418 
L 427.050841 175.187141 
L 427.688585 174.366503 
L 428.964075 157.953369 
L 429.601819 176.623198 
L 430.239564 184.829704 
L 430.877309 181.95747 
L 431.515053 176.418099 
L 432.152798 164.518598 
L 432.790543 182.16269 
L 433.428287 185.650464 
L 434.066032 167.596053 
L 434.703777 164.108279 
L 435.341521 172.109686 
L 435.979266 166.365096 
L 436.617011 171.904466 
L 437.254755 166.980635 
L 437.8925 164.518598 
L 438.530245 160.620505 
L 439.167989 173.135424 
L 439.805734 162.467002 
L 440.443479 173.135424 
L 441.081223 166.980635 
L 441.718968 165.749556 
L 442.356713 172.520006 
L 442.994457 175.187141 
L 443.632202 170.468409 
L 444.907691 168.211593 
L 445.545436 166.775415 
L 446.18318 154.875914 
L 446.820925 169.85287 
L 447.45867 165.544457 
L 448.096414 162.056683 
L 448.734159 179.085235 
L 449.371904 165.749556 
L 450.009648 179.905873 
L 450.647393 163.90318 
L 451.285138 187.881522 
L 451.922882 166.159875 
L 452.560627 162.672101 
L 453.198372 166.775415 
L 453.836116 165.339237 
L 454.473861 164.518598 
L 455.111606 170.263189 
L 455.74935 174.571602 
L 456.387095 175.187141 
L 457.02484 170.263189 
L 457.662584 155.286233 
L 458.300329 170.057969 
L 458.938074 177.649057 
L 459.575818 173.750963 
L 460.213563 159.594767 
L 460.851308 155.081134 
L 461.489052 177.033517 
L 462.126797 164.723819 
L 462.764541 162.261782 
L 463.402286 168.827011 
L 464.040031 161.236044 
L 464.677775 173.750963 
L 465.31552 161.441143 
L 465.953265 153.234637 
L 466.591009 165.749556 
L 467.228754 169.85287 
L 467.866499 164.313499 
L 468.504243 163.90318 
L 469.141988 170.263189 
L 469.779733 168.006373 
L 470.417477 162.467002 
L 471.055222 160.210185 
L 471.692967 160.415406 
L 472.330711 157.54305 
L 472.968456 156.517312 
L 473.606201 165.544457 
L 474.243945 171.494147 
L 474.88169 159.389547 
L 475.519435 167.801274 
L 476.157179 167.185734 
L 476.794924 161.236044 
L 477.432669 164.723819 
L 478.070413 156.927632 
L 478.708158 169.647649 
L 479.345902 157.74827 
L 479.983647 165.134138 
L 480.621392 167.185734 
L 481.259136 165.134138 
L 481.896881 153.644956 
L 482.534626 163.287641 
L 483.17237 161.441143 
L 483.810115 165.339237 
L 484.44786 167.390954 
L 485.085604 158.979228 
L 485.723349 154.670815 
L 486.361094 170.673508 
L 486.998838 152.003679 
L 487.636583 177.238738 
L 488.274328 147.900365 
L 488.912072 162.467002 
L 489.549817 189.753657 
L 490.187562 164.723819 
L 490.825306 159.594767 
L 491.463051 173.340644 
L 492.100796 160.005087 
L 492.73854 177.854277 
L 493.376285 158.568909 
L 494.01403 165.339237 
L 494.651774 164.313499 
L 495.289519 160.210185 
L 495.927264 160.620505 
L 496.565008 178.264596 
L 497.202753 173.750963 
L 497.840497 163.69796 
L 498.478242 165.749556 
L 499.115987 166.570194 
L 499.753731 165.544457 
L 500.391476 168.827011 
L 501.029221 154.260496 
L 501.666965 154.055275 
L 502.30471 166.365096 
L 502.942455 156.517312 
L 503.580199 172.520006 
L 504.217944 158.979228 
L 504.855689 156.722411 
L 505.493433 149.336543 
L 506.131178 165.954776 
L 506.768923 176.418099 
L 507.406667 158.774007 
L 508.044412 165.134138 
L 509.319901 151.38814 
L 509.957646 155.081134 
L 510.595391 162.056683 
L 511.233135 161.851462 
L 511.87088 169.85287 
L 512.508625 164.928917 
L 513.146369 162.261782 
L 513.784114 149.336543 
L 514.421858 168.211593 
L 515.059603 154.465595 
L 515.697348 170.057969 
L 516.335092 156.927632 
L 516.972837 163.90318 
L 517.610582 159.594767 
L 518.248326 156.106993 
L 518.886071 155.696552 
L 519.523816 155.081134 
L 520.16156 146.053989 
L 520.799305 156.517312 
L 521.43705 162.672101 
L 522.074794 160.210185 
L 522.712539 161.441143 
L 523.350284 156.722411 
L 523.988028 165.339237 
L 524.625773 162.877321 
L 525.263518 168.416692 
L 525.901262 161.851462 
L 526.539007 159.799866 
L 527.176752 156.927632 
L 527.814496 158.158589 
L 528.452241 157.54305 
L 529.089986 165.954776 
L 529.72773 161.441143 
L 530.365475 152.824318 
L 531.003219 153.234637 
L 531.640964 155.081134 
L 532.278709 160.210185 
L 532.916453 163.90318 
L 533.554198 153.029538 
L 534.191943 158.363688 
L 534.829687 164.723819 
L 535.467432 139.48876 
L 536.105177 160.005087 
L 536.742921 154.465595 
L 537.380666 158.363688 
L 538.018411 154.055275 
L 538.656155 153.850177 
L 539.2939 150.157182 
L 539.931645 150.157182 
L 540.569389 150.772721 
L 541.207134 158.158589 
L 541.844879 163.90318 
L 542.482623 156.927632 
L 543.120368 155.081134 
L 543.758113 155.491453 
L 544.395857 153.850177 
L 545.033602 162.056683 
L 545.671347 151.183041 
L 546.309091 151.38814 
L 546.946836 157.337951 
L 547.584581 161.030824 
L 548.222325 152.619219 
L 548.86007 164.928917 
L 549.497814 149.746863 
L 550.135559 159.799866 
L 550.773304 172.520006 
L 551.411048 155.621706 
L 552.048793 154.670815 
L 552.686538 160.620505 
L 553.324282 157.337951 
L 553.962027 156.312092 
L 554.599772 153.439857 
L 555.237516 160.825725 
L 555.875261 148.310685 
L 556.513006 167.185734 
L 557.15075 152.413998 
L 557.788495 154.465595 
L 558.42624 152.003679 
L 559.063984 162.261782 
L 559.701729 161.030824 
L 560.339474 159.389547 
L 560.977218 153.644956 
L 561.614963 155.081134 
L 562.252708 153.850177 
L 562.890452 154.670815 
L 563.528197 149.952083 
L 564.165942 154.260496 
L 564.803686 150.157182 
L 565.441431 153.234637 
L 566.079175 153.644956 
L 566.71692 150.362402 
L 567.354665 153.644956 
L 567.992409 147.900365 
L 569.267899 140.104178 
L 569.905643 163.69796 
L 570.543388 146.669408 
L 571.181133 157.54305 
L 571.818877 147.695266 
L 572.456622 152.619219 
L 573.094367 160.825725 
L 574.369856 143.797173 
L 575.007601 156.927632 
L 575.645345 149.336543 
L 576.28309 159.389547 
L 576.920835 147.490046 
L 577.558579 149.952083 
L 578.196324 154.260496 
L 578.834069 148.926224 
L 579.471813 145.848769 
L 580.109558 161.441143 
L 580.747303 141.950676 
L 581.385047 166.570194 
L 582.022792 149.131445 
L 582.660537 158.568909 
L 583.298281 140.104178 
L 584.57377 163.90318 
L 585.211515 149.952083 
L 585.84926 141.335257 
L 586.487004 160.415406 
L 587.124749 138.668122 
L 587.762494 152.619219 
L 588.400238 144.617811 
L 589.037983 147.284947 
L 589.675728 144.207492 
L 590.313472 147.695266 
L 590.951217 141.540356 
L 591.588962 149.952083 
L 592.226706 148.515905 
L 592.864451 145.43845 
L 593.502196 151.183041 
L 594.13994 158.979228 
L 594.777685 145.233351 
L 595.41543 145.028131 
L 596.053174 145.028131 
L 596.690919 145.43845 
L 597.328664 144.002272 
L 597.966408 152.824318 
L 598.604153 149.746863 
L 599.241898 144.82291 
L 599.879642 141.950676 
L 601.155131 154.260496 
L 601.792876 146.464309 
L 602.430621 147.079727 
L 603.068365 163.69796 
L 604.343855 143.797173 
L 604.981599 150.362402 
L 605.619344 155.081134 
L 606.257089 148.105586 
L 606.894833 152.208778 
L 607.532578 141.335257 
L 608.170323 158.568909 
L 608.808067 147.695266 
L 609.445812 149.336543 
L 610.083557 147.900365 
L 610.721301 148.105586 
L 611.359046 142.155896 
L 611.996791 146.874628 
L 612.634535 146.464309 
L 613.27228 144.207492 
L 613.910025 153.439857 
L 614.547769 146.053989 
L 615.185514 150.97782 
L 615.823259 149.336543 
L 616.461003 143.181633 
L 617.098748 144.412591 
L 617.736493 154.260496 
L 618.374237 141.335257 
L 619.011982 148.310685 
L 619.649726 146.464309 
L 620.287471 137.847483 
L 620.925216 145.233351 
L 621.56296 146.874628 
L 622.200705 136.206085 
L 622.83845 148.515905 
L 623.476194 144.412591 
L 624.113939 145.64367 
L 624.751684 137.642263 
L 625.389428 145.233351 
L 626.027173 145.848769 
L 626.664918 143.181633 
L 627.302662 145.64367 
L 627.940407 136.616404 
L 628.578152 146.053989 
L 629.215896 139.693859 
L 629.853641 136.000986 
L 630.491386 145.43845 
L 631.12913 144.617811 
L 631.766875 147.490046 
L 632.40462 146.053989 
L 633.680109 132.923531 
L 634.317854 143.386854 
L 634.955598 149.131445 
L 635.593343 139.28354 
L 636.231087 144.002272 
L 636.868832 134.359709 
L 637.506577 143.591953 
L 638.144321 142.360995 
L 638.782066 142.771314 
L 639.419811 137.437042 
L 640.057555 136.411305 
L 640.6953 141.130037 
L 641.333045 144.002272 
L 641.970789 137.231944 
L 642.608534 137.026723 
L 643.246279 141.540356 
L 643.884023 136.000986 
L 644.521768 142.566215 
L 645.159513 137.231944 
L 645.797257 140.719718 
L 646.435002 145.848769 
L 647.072747 137.847483 
L 648.348236 134.770028 
L 648.985981 136.206085 
L 649.623725 136.411305 
L 650.26147 135.795765 
L 650.899215 137.642263 
L 651.536959 135.203919 
L 652.174704 139.899079 
L 652.812449 132.71831 
L 653.450193 136.821624 
L 654.087938 136.206085 
L 654.725682 137.847483 
L 655.363427 135.385446 
L 656.001172 144.412591 
L 656.638916 140.309399 
L 657.276661 143.591953 
L 657.914406 142.566215 
L 658.55215 141.950676 
L 659.189895 133.12863 
L 659.82764 142.155896 
L 660.465384 134.564808 
L 661.103129 140.719718 
L 661.740874 137.026723 
L 662.378618 139.693859 
L 663.016363 136.411305 
L 663.654108 134.975127 
L 664.291852 137.847483 
L 664.929597 141.950676 
L 665.567342 142.566215 
L 666.205086 139.899079 
L 666.842831 141.130037 
L 667.480576 138.052582 
L 668.11832 137.026723 
L 668.756065 133.12863 
L 669.39381 145.43845 
L 670.031554 134.770028 
L 670.669299 136.616404 
L 671.307043 139.078441 
L 671.944788 134.975127 
L 672.582533 135.385446 
L 673.220277 131.282254 
L 673.858022 136.616404 
L 674.495767 132.513212 
L 675.133511 138.462901 
L 675.771256 130.666714 
L 676.409001 138.668122 
L 677.046745 134.770028 
L 677.68449 128.615118 
L 678.322235 135.795765 
L 678.959979 140.309399 
L 680.235469 132.513212 
L 680.873213 133.538949 
L 681.510958 141.745577 
L 682.148703 131.692573 
L 682.786447 133.33385 
L 683.424192 138.052582 
L 684.061937 138.668122 
L 685.337426 132.102892 
L 685.975171 134.154489 
L 686.612915 137.026723 
L 687.25066 134.770028 
L 687.888405 136.821624 
L 687.888405 136.821624 
" style="fill:none;stroke:#4daf4a;stroke-linecap:square;stroke-width:1.5;"/>
   </g>
   <g id="patch_3">
    <path d="M 50.14375 337.159219 
L 50.14375 10.999219 
" style="fill:none;stroke:#000000;stroke-linecap:square;stroke-linejoin:miter;stroke-width:0.8;"/>
   </g>
   <g id="patch_4">
    <path d="M 719.74375 337.159219 
L 719.74375 10.999219 
" style="fill:none;stroke:#000000;stroke-linecap:square;stroke-linejoin:miter;stroke-width:0.8;"/>
   </g>
   <g id="patch_5">
    <path d="M 50.14375 337.159219 
L 719.74375 337.159219 
" style="fill:none;stroke:#000000;stroke-linecap:square;stroke-linejoin:miter;stroke-width:0.8;"/>
   </g>
   <g id="patch_6">
    <path d="M 50.14375 10.999219 
L 719.74375 10.999219 
" style="fill:none;stroke:#000000;stroke-linecap:square;stroke-linejoin:miter;stroke-width:0.8;"/>
   </g>
   <g id="legend_1">
    <g id="patch_7">
     <path d="M 57.14375 48.355469 
L 114.584375 48.355469 
Q 116.584375 48.355469 116.584375 46.355469 
L 116.584375 17.999219 
Q 116.584375 15.999219 114.584375 15.999219 
L 57.14375 15.999219 
Q 55.14375 15.999219 55.14375 17.999219 
L 55.14375 46.355469 
Q 55.14375 48.355469 57.14375 48.355469 
z
" style="fill:#ffffff;opacity:0.8;stroke:#cccccc;stroke-linejoin:miter;"/>
    </g>
    <g id="line2d_33">
     <path d="M 59.14375 24.097656 
L 79.14375 24.097656 
" style="fill:none;stroke:#377eb8;stroke-linecap:square;stroke-width:1.5;"/>
    </g>
    <g id="line2d_34"/>
    <g id="text_18">
     <!-- Train -->
     <defs>
      <path d="M -0.296875 72.90625 
L 61.375 72.90625 
L 61.375 64.59375 
L 35.5 64.59375 
L 35.5 0 
L 25.59375 0 
L 25.59375 64.59375 
L -0.296875 64.59375 
z
" id="DejaVuSans-84"/>
      <path d="M 9.421875 54.6875 
L 18.40625 54.6875 
L 18.40625 0 
L 9.421875 0 
z
M 9.421875 75.984375 
L 18.40625 75.984375 
L 18.40625 64.59375 
L 9.421875 64.59375 
z
" id="DejaVuSans-105"/>
      <path d="M 54.890625 33.015625 
L 54.890625 0 
L 45.90625 0 
L 45.90625 32.71875 
Q 45.90625 40.484375 42.875 44.328125 
Q 39.84375 48.1875 33.796875 48.1875 
Q 26.515625 48.1875 22.3125 43.546875 
Q 18.109375 38.921875 18.109375 30.90625 
L 18.109375 0 
L 9.078125 0 
L 9.078125 54.6875 
L 18.109375 54.6875 
L 18.109375 46.1875 
Q 21.34375 51.125 25.703125 53.5625 
Q 30.078125 56 35.796875 56 
Q 45.21875 56 50.046875 50.171875 
Q 54.890625 44.34375 54.890625 33.015625 
z
" id="DejaVuSans-110"/>
     </defs>
     <g transform="translate(87.14375 27.597656)scale(0.1 -0.1)">
      <use xlink:href="#DejaVuSans-84"/>
      <use x="60.865234" xlink:href="#DejaVuSans-114"/>
      <use x="101.978516" xlink:href="#DejaVuSans-97"/>
      <use x="163.257812" xlink:href="#DejaVuSans-105"/>
      <use x="191.041016" xlink:href="#DejaVuSans-110"/>
     </g>
    </g>
    <g id="line2d_35">
     <path d="M 59.14375 38.775781 
L 79.14375 38.775781 
" style="fill:none;stroke:#4daf4a;stroke-linecap:square;stroke-width:1.5;"/>
    </g>
    <g id="line2d_36"/>
    <g id="text_19">
     <!-- Test -->
     <defs>
      <path d="M 56.203125 29.59375 
L 56.203125 25.203125 
L 14.890625 25.203125 
Q 15.484375 15.921875 20.484375 11.0625 
Q 25.484375 6.203125 34.421875 6.203125 
Q 39.59375 6.203125 44.453125 7.46875 
Q 49.3125 8.734375 54.109375 11.28125 
L 54.109375 2.78125 
Q 49.265625 0.734375 44.1875 -0.34375 
Q 39.109375 -1.421875 33.890625 -1.421875 
Q 20.796875 -1.421875 13.15625 6.1875 
Q 5.515625 13.8125 5.515625 26.8125 
Q 5.515625 40.234375 12.765625 48.109375 
Q 20.015625 56 32.328125 56 
Q 43.359375 56 49.78125 48.890625 
Q 56.203125 41.796875 56.203125 29.59375 
z
M 47.21875 32.234375 
Q 47.125 39.59375 43.09375 43.984375 
Q 39.0625 48.390625 32.421875 48.390625 
Q 24.90625 48.390625 20.390625 44.140625 
Q 15.875 39.890625 15.1875 32.171875 
z
" id="DejaVuSans-101"/>
      <path d="M 44.28125 53.078125 
L 44.28125 44.578125 
Q 40.484375 46.53125 36.375 47.5 
Q 32.28125 48.484375 27.875 48.484375 
Q 21.1875 48.484375 17.84375 46.4375 
Q 14.5 44.390625 14.5 40.28125 
Q 14.5 37.15625 16.890625 35.375 
Q 19.28125 33.59375 26.515625 31.984375 
L 29.59375 31.296875 
Q 39.15625 29.25 43.1875 25.515625 
Q 47.21875 21.78125 47.21875 15.09375 
Q 47.21875 7.46875 41.1875 3.015625 
Q 35.15625 -1.421875 24.609375 -1.421875 
Q 20.21875 -1.421875 15.453125 -0.5625 
Q 10.6875 0.296875 5.421875 2 
L 5.421875 11.28125 
Q 10.40625 8.6875 15.234375 7.390625 
Q 20.0625 6.109375 24.8125 6.109375 
Q 31.15625 6.109375 34.5625 8.28125 
Q 37.984375 10.453125 37.984375 14.40625 
Q 37.984375 18.0625 35.515625 20.015625 
Q 33.0625 21.96875 24.703125 23.78125 
L 21.578125 24.515625 
Q 13.234375 26.265625 9.515625 29.90625 
Q 5.8125 33.546875 5.8125 39.890625 
Q 5.8125 47.609375 11.28125 51.796875 
Q 16.75 56 26.8125 56 
Q 31.78125 56 36.171875 55.265625 
Q 40.578125 54.546875 44.28125 53.078125 
z
" id="DejaVuSans-115"/>
      <path d="M 18.3125 70.21875 
L 18.3125 54.6875 
L 36.8125 54.6875 
L 36.8125 47.703125 
L 18.3125 47.703125 
L 18.3125 18.015625 
Q 18.3125 11.328125 20.140625 9.421875 
Q 21.96875 7.515625 27.59375 7.515625 
L 36.8125 7.515625 
L 36.8125 0 
L 27.59375 0 
Q 17.1875 0 13.234375 3.875 
Q 9.28125 7.765625 9.28125 18.015625 
L 9.28125 47.703125 
L 2.6875 47.703125 
L 2.6875 54.6875 
L 9.28125 54.6875 
L 9.28125 70.21875 
z
" id="DejaVuSans-116"/>
     </defs>
     <g transform="translate(87.14375 42.275781)scale(0.1 -0.1)">
      <use xlink:href="#DejaVuSans-84"/>
      <use x="60.818359" xlink:href="#DejaVuSans-101"/>
      <use x="122.341797" xlink:href="#DejaVuSans-115"/>
      <use x="174.441406" xlink:href="#DejaVuSans-116"/>
     </g>
    </g>
   </g>
  </g>
 </g>
 <defs>
  <clipPath id="p423f643442">
   <rect height="326.16" width="669.6" x="50.14375" y="10.999219"/>
  </clipPath>
 </defs>
</svg>
