<?xml version="1.0" encoding="utf-8" standalone="no"?>
<!DOCTYPE svg PUBLIC "-//W3C//DTD SVG 1.1//EN"
  "http://www.w3.org/Graphics/SVG/1.1/DTD/svg11.dtd">
<!-- Created with matplotlib (https://matplotlib.org/) -->
<svg height="374.715469pt" version="1.1" viewBox="0 0 726.94375 374.715469" width="726.94375pt" xmlns="http://www.w3.org/2000/svg" xmlns:xlink="http://www.w3.org/1999/xlink">
 <defs>
  <style type="text/css">
*{stroke-linecap:butt;stroke-linejoin:round;white-space:pre;}
  </style>
 </defs>
 <g id="figure_1">
  <g id="patch_1">
   <path d="M 0 374.715469 
L 726.94375 374.715469 
L 726.94375 0 
L 0 0 
z
" style="fill:#ffffff;"/>
  </g>
  <g id="axes_1">
   <g id="patch_2">
    <path d="M 50.14375 337.159219 
L 719.74375 337.159219 
L 719.74375 10.999219 
L 50.14375 10.999219 
z
" style="fill:#ffffff;"/>
   </g>
   <g id="matplotlib.axis_1">
    <g id="xtick_1">
     <g id="line2d_1">
      <path clip-path="url(#p49918a2694)" d="M 50.14375 337.159219 
L 50.14375 10.999219 
" style="fill:none;stroke:#b0b0b0;stroke-linecap:square;stroke-width:0.8;"/>
     </g>
     <g id="line2d_2">
      <defs>
       <path d="M 0 0 
L 0 3.5 
" id="md9ccaeab0c" style="stroke:#000000;stroke-width:0.8;"/>
      </defs>
      <g>
       <use style="stroke:#000000;stroke-width:0.8;" x="50.14375" xlink:href="#md9ccaeab0c" y="337.159219"/>
      </g>
     </g>
     <g id="text_1">
      <!-- 0 -->
      <defs>
       <path d="M 31.78125 66.40625 
Q 24.171875 66.40625 20.328125 58.90625 
Q 16.5 51.421875 16.5 36.375 
Q 16.5 21.390625 20.328125 13.890625 
Q 24.171875 6.390625 31.78125 6.390625 
Q 39.453125 6.390625 43.28125 13.890625 
Q 47.125 21.390625 47.125 36.375 
Q 47.125 51.421875 43.28125 58.90625 
Q 39.453125 66.40625 31.78125 66.40625 
z
M 31.78125 74.21875 
Q 44.046875 74.21875 50.515625 64.515625 
Q 56.984375 54.828125 56.984375 36.375 
Q 56.984375 17.96875 50.515625 8.265625 
Q 44.046875 -1.421875 31.78125 -1.421875 
Q 19.53125 -1.421875 13.0625 8.265625 
Q 6.59375 17.96875 6.59375 36.375 
Q 6.59375 54.828125 13.0625 64.515625 
Q 19.53125 74.21875 31.78125 74.21875 
z
" id="DejaVuSans-48"/>
      </defs>
      <g transform="translate(46.9625 351.757656)scale(0.1 -0.1)">
       <use xlink:href="#DejaVuSans-48"/>
      </g>
     </g>
    </g>
    <g id="xtick_2">
     <g id="line2d_3">
      <path clip-path="url(#p49918a2694)" d="M 177.698755 337.159219 
L 177.698755 10.999219 
" style="fill:none;stroke:#b0b0b0;stroke-linecap:square;stroke-width:0.8;"/>
     </g>
     <g id="line2d_4">
      <g>
       <use style="stroke:#000000;stroke-width:0.8;" x="177.698755" xlink:href="#md9ccaeab0c" y="337.159219"/>
      </g>
     </g>
     <g id="text_2">
      <!-- 100 -->
      <defs>
       <path d="M 12.40625 8.296875 
L 28.515625 8.296875 
L 28.515625 63.921875 
L 10.984375 60.40625 
L 10.984375 69.390625 
L 28.421875 72.90625 
L 38.28125 72.90625 
L 38.28125 8.296875 
L 54.390625 8.296875 
L 54.390625 0 
L 12.40625 0 
z
" id="DejaVuSans-49"/>
      </defs>
      <g transform="translate(168.155005 351.757656)scale(0.1 -0.1)">
       <use xlink:href="#DejaVuSans-49"/>
       <use x="63.623047" xlink:href="#DejaVuSans-48"/>
       <use x="127.246094" xlink:href="#DejaVuSans-48"/>
      </g>
     </g>
    </g>
    <g id="xtick_3">
     <g id="line2d_5">
      <path clip-path="url(#p49918a2694)" d="M 305.25376 337.159219 
L 305.25376 10.999219 
" style="fill:none;stroke:#b0b0b0;stroke-linecap:square;stroke-width:0.8;"/>
     </g>
     <g id="line2d_6">
      <g>
       <use style="stroke:#000000;stroke-width:0.8;" x="305.25376" xlink:href="#md9ccaeab0c" y="337.159219"/>
      </g>
     </g>
     <g id="text_3">
      <!-- 200 -->
      <defs>
       <path d="M 19.1875 8.296875 
L 53.609375 8.296875 
L 53.609375 0 
L 7.328125 0 
L 7.328125 8.296875 
Q 12.9375 14.109375 22.625 23.890625 
Q 32.328125 33.6875 34.8125 36.53125 
Q 39.546875 41.84375 41.421875 45.53125 
Q 43.3125 49.21875 43.3125 52.78125 
Q 43.3125 58.59375 39.234375 62.25 
Q 35.15625 65.921875 28.609375 65.921875 
Q 23.96875 65.921875 18.8125 64.3125 
Q 13.671875 62.703125 7.8125 59.421875 
L 7.8125 69.390625 
Q 13.765625 71.78125 18.9375 73 
Q 24.125 74.21875 28.421875 74.21875 
Q 39.75 74.21875 46.484375 68.546875 
Q 53.21875 62.890625 53.21875 53.421875 
Q 53.21875 48.921875 51.53125 44.890625 
Q 49.859375 40.875 45.40625 35.40625 
Q 44.1875 33.984375 37.640625 27.21875 
Q 31.109375 20.453125 19.1875 8.296875 
z
" id="DejaVuSans-50"/>
      </defs>
      <g transform="translate(295.71001 351.757656)scale(0.1 -0.1)">
       <use xlink:href="#DejaVuSans-50"/>
       <use x="63.623047" xlink:href="#DejaVuSans-48"/>
       <use x="127.246094" xlink:href="#DejaVuSans-48"/>
      </g>
     </g>
    </g>
    <g id="xtick_4">
     <g id="line2d_7">
      <path clip-path="url(#p49918a2694)" d="M 432.808766 337.159219 
L 432.808766 10.999219 
" style="fill:none;stroke:#b0b0b0;stroke-linecap:square;stroke-width:0.8;"/>
     </g>
     <g id="line2d_8">
      <g>
       <use style="stroke:#000000;stroke-width:0.8;" x="432.808766" xlink:href="#md9ccaeab0c" y="337.159219"/>
      </g>
     </g>
     <g id="text_4">
      <!-- 300 -->
      <defs>
       <path d="M 40.578125 39.3125 
Q 47.65625 37.796875 51.625 33 
Q 55.609375 28.21875 55.609375 21.1875 
Q 55.609375 10.40625 48.1875 4.484375 
Q 40.765625 -1.421875 27.09375 -1.421875 
Q 22.515625 -1.421875 17.65625 -0.515625 
Q 12.796875 0.390625 7.625 2.203125 
L 7.625 11.71875 
Q 11.71875 9.328125 16.59375 8.109375 
Q 21.484375 6.890625 26.8125 6.890625 
Q 36.078125 6.890625 40.9375 10.546875 
Q 45.796875 14.203125 45.796875 21.1875 
Q 45.796875 27.640625 41.28125 31.265625 
Q 36.765625 34.90625 28.71875 34.90625 
L 20.21875 34.90625 
L 20.21875 43.015625 
L 29.109375 43.015625 
Q 36.375 43.015625 40.234375 45.921875 
Q 44.09375 48.828125 44.09375 54.296875 
Q 44.09375 59.90625 40.109375 62.90625 
Q 36.140625 65.921875 28.71875 65.921875 
Q 24.65625 65.921875 20.015625 65.03125 
Q 15.375 64.15625 9.8125 62.3125 
L 9.8125 71.09375 
Q 15.4375 72.65625 20.34375 73.4375 
Q 25.25 74.21875 29.59375 74.21875 
Q 40.828125 74.21875 47.359375 69.109375 
Q 53.90625 64.015625 53.90625 55.328125 
Q 53.90625 49.265625 50.4375 45.09375 
Q 46.96875 40.921875 40.578125 39.3125 
z
" id="DejaVuSans-51"/>
      </defs>
      <g transform="translate(423.265016 351.757656)scale(0.1 -0.1)">
       <use xlink:href="#DejaVuSans-51"/>
       <use x="63.623047" xlink:href="#DejaVuSans-48"/>
       <use x="127.246094" xlink:href="#DejaVuSans-48"/>
      </g>
     </g>
    </g>
    <g id="xtick_5">
     <g id="line2d_9">
      <path clip-path="url(#p49918a2694)" d="M 560.363771 337.159219 
L 560.363771 10.999219 
" style="fill:none;stroke:#b0b0b0;stroke-linecap:square;stroke-width:0.8;"/>
     </g>
     <g id="line2d_10">
      <g>
       <use style="stroke:#000000;stroke-width:0.8;" x="560.363771" xlink:href="#md9ccaeab0c" y="337.159219"/>
      </g>
     </g>
     <g id="text_5">
      <!-- 400 -->
      <defs>
       <path d="M 37.796875 64.3125 
L 12.890625 25.390625 
L 37.796875 25.390625 
z
M 35.203125 72.90625 
L 47.609375 72.90625 
L 47.609375 25.390625 
L 58.015625 25.390625 
L 58.015625 17.1875 
L 47.609375 17.1875 
L 47.609375 0 
L 37.796875 0 
L 37.796875 17.1875 
L 4.890625 17.1875 
L 4.890625 26.703125 
z
" id="DejaVuSans-52"/>
      </defs>
      <g transform="translate(550.820021 351.757656)scale(0.1 -0.1)">
       <use xlink:href="#DejaVuSans-52"/>
       <use x="63.623047" xlink:href="#DejaVuSans-48"/>
       <use x="127.246094" xlink:href="#DejaVuSans-48"/>
      </g>
     </g>
    </g>
    <g id="xtick_6">
     <g id="line2d_11">
      <path clip-path="url(#p49918a2694)" d="M 687.918776 337.159219 
L 687.918776 10.999219 
" style="fill:none;stroke:#b0b0b0;stroke-linecap:square;stroke-width:0.8;"/>
     </g>
     <g id="line2d_12">
      <g>
       <use style="stroke:#000000;stroke-width:0.8;" x="687.918776" xlink:href="#md9ccaeab0c" y="337.159219"/>
      </g>
     </g>
     <g id="text_6">
      <!-- 500 -->
      <defs>
       <path d="M 10.796875 72.90625 
L 49.515625 72.90625 
L 49.515625 64.59375 
L 19.828125 64.59375 
L 19.828125 46.734375 
Q 21.96875 47.46875 24.109375 47.828125 
Q 26.265625 48.1875 28.421875 48.1875 
Q 40.625 48.1875 47.75 41.5 
Q 54.890625 34.8125 54.890625 23.390625 
Q 54.890625 11.625 47.5625 5.09375 
Q 40.234375 -1.421875 26.90625 -1.421875 
Q 22.3125 -1.421875 17.546875 -0.640625 
Q 12.796875 0.140625 7.71875 1.703125 
L 7.71875 11.625 
Q 12.109375 9.234375 16.796875 8.0625 
Q 21.484375 6.890625 26.703125 6.890625 
Q 35.15625 6.890625 40.078125 11.328125 
Q 45.015625 15.765625 45.015625 23.390625 
Q 45.015625 31 40.078125 35.4375 
Q 35.15625 39.890625 26.703125 39.890625 
Q 22.75 39.890625 18.8125 39.015625 
Q 14.890625 38.140625 10.796875 36.28125 
z
" id="DejaVuSans-53"/>
      </defs>
      <g transform="translate(678.375026 351.757656)scale(0.1 -0.1)">
       <use xlink:href="#DejaVuSans-53"/>
       <use x="63.623047" xlink:href="#DejaVuSans-48"/>
       <use x="127.246094" xlink:href="#DejaVuSans-48"/>
      </g>
     </g>
    </g>
    <g id="text_7">
     <!-- Epoch -->
     <defs>
      <path d="M 9.8125 72.90625 
L 55.90625 72.90625 
L 55.90625 64.59375 
L 19.671875 64.59375 
L 19.671875 43.015625 
L 54.390625 43.015625 
L 54.390625 34.71875 
L 19.671875 34.71875 
L 19.671875 8.296875 
L 56.78125 8.296875 
L 56.78125 0 
L 9.8125 0 
z
" id="DejaVuSans-69"/>
      <path d="M 18.109375 8.203125 
L 18.109375 -20.796875 
L 9.078125 -20.796875 
L 9.078125 54.6875 
L 18.109375 54.6875 
L 18.109375 46.390625 
Q 20.953125 51.265625 25.265625 53.625 
Q 29.59375 56 35.59375 56 
Q 45.5625 56 51.78125 48.09375 
Q 58.015625 40.1875 58.015625 27.296875 
Q 58.015625 14.40625 51.78125 6.484375 
Q 45.5625 -1.421875 35.59375 -1.421875 
Q 29.59375 -1.421875 25.265625 0.953125 
Q 20.953125 3.328125 18.109375 8.203125 
z
M 48.6875 27.296875 
Q 48.6875 37.203125 44.609375 42.84375 
Q 40.53125 48.484375 33.40625 48.484375 
Q 26.265625 48.484375 22.1875 42.84375 
Q 18.109375 37.203125 18.109375 27.296875 
Q 18.109375 17.390625 22.1875 11.75 
Q 26.265625 6.109375 33.40625 6.109375 
Q 40.53125 6.109375 44.609375 11.75 
Q 48.6875 17.390625 48.6875 27.296875 
z
" id="DejaVuSans-112"/>
      <path d="M 30.609375 48.390625 
Q 23.390625 48.390625 19.1875 42.75 
Q 14.984375 37.109375 14.984375 27.296875 
Q 14.984375 17.484375 19.15625 11.84375 
Q 23.34375 6.203125 30.609375 6.203125 
Q 37.796875 6.203125 41.984375 11.859375 
Q 46.1875 17.53125 46.1875 27.296875 
Q 46.1875 37.015625 41.984375 42.703125 
Q 37.796875 48.390625 30.609375 48.390625 
z
M 30.609375 56 
Q 42.328125 56 49.015625 48.375 
Q 55.71875 40.765625 55.71875 27.296875 
Q 55.71875 13.875 49.015625 6.21875 
Q 42.328125 -1.421875 30.609375 -1.421875 
Q 18.84375 -1.421875 12.171875 6.21875 
Q 5.515625 13.875 5.515625 27.296875 
Q 5.515625 40.765625 12.171875 48.375 
Q 18.84375 56 30.609375 56 
z
" id="DejaVuSans-111"/>
      <path d="M 48.78125 52.59375 
L 48.78125 44.1875 
Q 44.96875 46.296875 41.140625 47.34375 
Q 37.3125 48.390625 33.40625 48.390625 
Q 24.65625 48.390625 19.8125 42.84375 
Q 14.984375 37.3125 14.984375 27.296875 
Q 14.984375 17.28125 19.8125 11.734375 
Q 24.65625 6.203125 33.40625 6.203125 
Q 37.3125 6.203125 41.140625 7.25 
Q 44.96875 8.296875 48.78125 10.40625 
L 48.78125 2.09375 
Q 45.015625 0.34375 40.984375 -0.53125 
Q 36.96875 -1.421875 32.421875 -1.421875 
Q 20.0625 -1.421875 12.78125 6.34375 
Q 5.515625 14.109375 5.515625 27.296875 
Q 5.515625 40.671875 12.859375 48.328125 
Q 20.21875 56 33.015625 56 
Q 37.15625 56 41.109375 55.140625 
Q 45.0625 54.296875 48.78125 52.59375 
z
" id="DejaVuSans-99"/>
      <path d="M 54.890625 33.015625 
L 54.890625 0 
L 45.90625 0 
L 45.90625 32.71875 
Q 45.90625 40.484375 42.875 44.328125 
Q 39.84375 48.1875 33.796875 48.1875 
Q 26.515625 48.1875 22.3125 43.546875 
Q 18.109375 38.921875 18.109375 30.90625 
L 18.109375 0 
L 9.078125 0 
L 9.078125 75.984375 
L 18.109375 75.984375 
L 18.109375 46.1875 
Q 21.34375 51.125 25.703125 53.5625 
Q 30.078125 56 35.796875 56 
Q 45.21875 56 50.046875 50.171875 
Q 54.890625 44.34375 54.890625 33.015625 
z
" id="DejaVuSans-104"/>
     </defs>
     <g transform="translate(369.632813 365.435781)scale(0.1 -0.1)">
      <use xlink:href="#DejaVuSans-69"/>
      <use x="63.183594" xlink:href="#DejaVuSans-112"/>
      <use x="126.660156" xlink:href="#DejaVuSans-111"/>
      <use x="187.841797" xlink:href="#DejaVuSans-99"/>
      <use x="242.822266" xlink:href="#DejaVuSans-104"/>
     </g>
    </g>
   </g>
   <g id="matplotlib.axis_2">
    <g id="ytick_1">
     <g id="line2d_13">
      <path clip-path="url(#p49918a2694)" d="M 50.14375 337.159219 
L 719.74375 337.159219 
" style="fill:none;stroke:#b0b0b0;stroke-linecap:square;stroke-width:0.8;"/>
     </g>
     <g id="line2d_14">
      <defs>
       <path d="M 0 0 
L -3.5 0 
" id="m06999a1b0d" style="stroke:#000000;stroke-width:0.8;"/>
      </defs>
      <g>
       <use style="stroke:#000000;stroke-width:0.8;" x="50.14375" xlink:href="#m06999a1b0d" y="337.159219"/>
      </g>
     </g>
     <g id="text_8">
      <!-- 0.82 -->
      <defs>
       <path d="M 10.6875 12.40625 
L 21 12.40625 
L 21 0 
L 10.6875 0 
z
" id="DejaVuSans-46"/>
       <path d="M 31.78125 34.625 
Q 24.75 34.625 20.71875 30.859375 
Q 16.703125 27.09375 16.703125 20.515625 
Q 16.703125 13.921875 20.71875 10.15625 
Q 24.75 6.390625 31.78125 6.390625 
Q 38.8125 6.390625 42.859375 10.171875 
Q 46.921875 13.96875 46.921875 20.515625 
Q 46.921875 27.09375 42.890625 30.859375 
Q 38.875 34.625 31.78125 34.625 
z
M 21.921875 38.8125 
Q 15.578125 40.375 12.03125 44.71875 
Q 8.5 49.078125 8.5 55.328125 
Q 8.5 64.0625 14.71875 69.140625 
Q 20.953125 74.21875 31.78125 74.21875 
Q 42.671875 74.21875 48.875 69.140625 
Q 55.078125 64.0625 55.078125 55.328125 
Q 55.078125 49.078125 51.53125 44.71875 
Q 48 40.375 41.703125 38.8125 
Q 48.828125 37.15625 52.796875 32.3125 
Q 56.78125 27.484375 56.78125 20.515625 
Q 56.78125 9.90625 50.3125 4.234375 
Q 43.84375 -1.421875 31.78125 -1.421875 
Q 19.734375 -1.421875 13.25 4.234375 
Q 6.78125 9.90625 6.78125 20.515625 
Q 6.78125 27.484375 10.78125 32.3125 
Q 14.796875 37.15625 21.921875 38.8125 
z
M 18.3125 54.390625 
Q 18.3125 48.734375 21.84375 45.5625 
Q 25.390625 42.390625 31.78125 42.390625 
Q 38.140625 42.390625 41.71875 45.5625 
Q 45.3125 48.734375 45.3125 54.390625 
Q 45.3125 60.0625 41.71875 63.234375 
Q 38.140625 66.40625 31.78125 66.40625 
Q 25.390625 66.40625 21.84375 63.234375 
Q 18.3125 60.0625 18.3125 54.390625 
z
" id="DejaVuSans-56"/>
      </defs>
      <g transform="translate(20.878125 340.958437)scale(0.1 -0.1)">
       <use xlink:href="#DejaVuSans-48"/>
       <use x="63.623047" xlink:href="#DejaVuSans-46"/>
       <use x="95.410156" xlink:href="#DejaVuSans-56"/>
       <use x="159.033203" xlink:href="#DejaVuSans-50"/>
      </g>
     </g>
    </g>
    <g id="ytick_2">
     <g id="line2d_15">
      <path clip-path="url(#p49918a2694)" d="M 50.14375 296.389219 
L 719.74375 296.389219 
" style="fill:none;stroke:#b0b0b0;stroke-linecap:square;stroke-width:0.8;"/>
     </g>
     <g id="line2d_16">
      <g>
       <use style="stroke:#000000;stroke-width:0.8;" x="50.14375" xlink:href="#m06999a1b0d" y="296.389219"/>
      </g>
     </g>
     <g id="text_9">
      <!-- 0.84 -->
      <g transform="translate(20.878125 300.188437)scale(0.1 -0.1)">
       <use xlink:href="#DejaVuSans-48"/>
       <use x="63.623047" xlink:href="#DejaVuSans-46"/>
       <use x="95.410156" xlink:href="#DejaVuSans-56"/>
       <use x="159.033203" xlink:href="#DejaVuSans-52"/>
      </g>
     </g>
    </g>
    <g id="ytick_3">
     <g id="line2d_17">
      <path clip-path="url(#p49918a2694)" d="M 50.14375 255.619219 
L 719.74375 255.619219 
" style="fill:none;stroke:#b0b0b0;stroke-linecap:square;stroke-width:0.8;"/>
     </g>
     <g id="line2d_18">
      <g>
       <use style="stroke:#000000;stroke-width:0.8;" x="50.14375" xlink:href="#m06999a1b0d" y="255.619219"/>
      </g>
     </g>
     <g id="text_10">
      <!-- 0.86 -->
      <defs>
       <path d="M 33.015625 40.375 
Q 26.375 40.375 22.484375 35.828125 
Q 18.609375 31.296875 18.609375 23.390625 
Q 18.609375 15.53125 22.484375 10.953125 
Q 26.375 6.390625 33.015625 6.390625 
Q 39.65625 6.390625 43.53125 10.953125 
Q 47.40625 15.53125 47.40625 23.390625 
Q 47.40625 31.296875 43.53125 35.828125 
Q 39.65625 40.375 33.015625 40.375 
z
M 52.59375 71.296875 
L 52.59375 62.3125 
Q 48.875 64.0625 45.09375 64.984375 
Q 41.3125 65.921875 37.59375 65.921875 
Q 27.828125 65.921875 22.671875 59.328125 
Q 17.53125 52.734375 16.796875 39.40625 
Q 19.671875 43.65625 24.015625 45.921875 
Q 28.375 48.1875 33.59375 48.1875 
Q 44.578125 48.1875 50.953125 41.515625 
Q 57.328125 34.859375 57.328125 23.390625 
Q 57.328125 12.15625 50.6875 5.359375 
Q 44.046875 -1.421875 33.015625 -1.421875 
Q 20.359375 -1.421875 13.671875 8.265625 
Q 6.984375 17.96875 6.984375 36.375 
Q 6.984375 53.65625 15.1875 63.9375 
Q 23.390625 74.21875 37.203125 74.21875 
Q 40.921875 74.21875 44.703125 73.484375 
Q 48.484375 72.75 52.59375 71.296875 
z
" id="DejaVuSans-54"/>
      </defs>
      <g transform="translate(20.878125 259.418437)scale(0.1 -0.1)">
       <use xlink:href="#DejaVuSans-48"/>
       <use x="63.623047" xlink:href="#DejaVuSans-46"/>
       <use x="95.410156" xlink:href="#DejaVuSans-56"/>
       <use x="159.033203" xlink:href="#DejaVuSans-54"/>
      </g>
     </g>
    </g>
    <g id="ytick_4">
     <g id="line2d_19">
      <path clip-path="url(#p49918a2694)" d="M 50.14375 214.849219 
L 719.74375 214.849219 
" style="fill:none;stroke:#b0b0b0;stroke-linecap:square;stroke-width:0.8;"/>
     </g>
     <g id="line2d_20">
      <g>
       <use style="stroke:#000000;stroke-width:0.8;" x="50.14375" xlink:href="#m06999a1b0d" y="214.849219"/>
      </g>
     </g>
     <g id="text_11">
      <!-- 0.88 -->
      <g transform="translate(20.878125 218.648437)scale(0.1 -0.1)">
       <use xlink:href="#DejaVuSans-48"/>
       <use x="63.623047" xlink:href="#DejaVuSans-46"/>
       <use x="95.410156" xlink:href="#DejaVuSans-56"/>
       <use x="159.033203" xlink:href="#DejaVuSans-56"/>
      </g>
     </g>
    </g>
    <g id="ytick_5">
     <g id="line2d_21">
      <path clip-path="url(#p49918a2694)" d="M 50.14375 174.079219 
L 719.74375 174.079219 
" style="fill:none;stroke:#b0b0b0;stroke-linecap:square;stroke-width:0.8;"/>
     </g>
     <g id="line2d_22">
      <g>
       <use style="stroke:#000000;stroke-width:0.8;" x="50.14375" xlink:href="#m06999a1b0d" y="174.079219"/>
      </g>
     </g>
     <g id="text_12">
      <!-- 0.90 -->
      <defs>
       <path d="M 10.984375 1.515625 
L 10.984375 10.5 
Q 14.703125 8.734375 18.5 7.8125 
Q 22.3125 6.890625 25.984375 6.890625 
Q 35.75 6.890625 40.890625 13.453125 
Q 46.046875 20.015625 46.78125 33.40625 
Q 43.953125 29.203125 39.59375 26.953125 
Q 35.25 24.703125 29.984375 24.703125 
Q 19.046875 24.703125 12.671875 31.3125 
Q 6.296875 37.9375 6.296875 49.421875 
Q 6.296875 60.640625 12.9375 67.421875 
Q 19.578125 74.21875 30.609375 74.21875 
Q 43.265625 74.21875 49.921875 64.515625 
Q 56.59375 54.828125 56.59375 36.375 
Q 56.59375 19.140625 48.40625 8.859375 
Q 40.234375 -1.421875 26.421875 -1.421875 
Q 22.703125 -1.421875 18.890625 -0.6875 
Q 15.09375 0.046875 10.984375 1.515625 
z
M 30.609375 32.421875 
Q 37.25 32.421875 41.125 36.953125 
Q 45.015625 41.5 45.015625 49.421875 
Q 45.015625 57.28125 41.125 61.84375 
Q 37.25 66.40625 30.609375 66.40625 
Q 23.96875 66.40625 20.09375 61.84375 
Q 16.21875 57.28125 16.21875 49.421875 
Q 16.21875 41.5 20.09375 36.953125 
Q 23.96875 32.421875 30.609375 32.421875 
z
" id="DejaVuSans-57"/>
      </defs>
      <g transform="translate(20.878125 177.878437)scale(0.1 -0.1)">
       <use xlink:href="#DejaVuSans-48"/>
       <use x="63.623047" xlink:href="#DejaVuSans-46"/>
       <use x="95.410156" xlink:href="#DejaVuSans-57"/>
       <use x="159.033203" xlink:href="#DejaVuSans-48"/>
      </g>
     </g>
    </g>
    <g id="ytick_6">
     <g id="line2d_23">
      <path clip-path="url(#p49918a2694)" d="M 50.14375 133.309219 
L 719.74375 133.309219 
" style="fill:none;stroke:#b0b0b0;stroke-linecap:square;stroke-width:0.8;"/>
     </g>
     <g id="line2d_24">
      <g>
       <use style="stroke:#000000;stroke-width:0.8;" x="50.14375" xlink:href="#m06999a1b0d" y="133.309219"/>
      </g>
     </g>
     <g id="text_13">
      <!-- 0.92 -->
      <g transform="translate(20.878125 137.108437)scale(0.1 -0.1)">
       <use xlink:href="#DejaVuSans-48"/>
       <use x="63.623047" xlink:href="#DejaVuSans-46"/>
       <use x="95.410156" xlink:href="#DejaVuSans-57"/>
       <use x="159.033203" xlink:href="#DejaVuSans-50"/>
      </g>
     </g>
    </g>
    <g id="ytick_7">
     <g id="line2d_25">
      <path clip-path="url(#p49918a2694)" d="M 50.14375 92.539219 
L 719.74375 92.539219 
" style="fill:none;stroke:#b0b0b0;stroke-linecap:square;stroke-width:0.8;"/>
     </g>
     <g id="line2d_26">
      <g>
       <use style="stroke:#000000;stroke-width:0.8;" x="50.14375" xlink:href="#m06999a1b0d" y="92.539219"/>
      </g>
     </g>
     <g id="text_14">
      <!-- 0.94 -->
      <g transform="translate(20.878125 96.338437)scale(0.1 -0.1)">
       <use xlink:href="#DejaVuSans-48"/>
       <use x="63.623047" xlink:href="#DejaVuSans-46"/>
       <use x="95.410156" xlink:href="#DejaVuSans-57"/>
       <use x="159.033203" xlink:href="#DejaVuSans-52"/>
      </g>
     </g>
    </g>
    <g id="ytick_8">
     <g id="line2d_27">
      <path clip-path="url(#p49918a2694)" d="M 50.14375 51.769219 
L 719.74375 51.769219 
" style="fill:none;stroke:#b0b0b0;stroke-linecap:square;stroke-width:0.8;"/>
     </g>
     <g id="line2d_28">
      <g>
       <use style="stroke:#000000;stroke-width:0.8;" x="50.14375" xlink:href="#m06999a1b0d" y="51.769219"/>
      </g>
     </g>
     <g id="text_15">
      <!-- 0.96 -->
      <g transform="translate(20.878125 55.568437)scale(0.1 -0.1)">
       <use xlink:href="#DejaVuSans-48"/>
       <use x="63.623047" xlink:href="#DejaVuSans-46"/>
       <use x="95.410156" xlink:href="#DejaVuSans-57"/>
       <use x="159.033203" xlink:href="#DejaVuSans-54"/>
      </g>
     </g>
    </g>
    <g id="ytick_9">
     <g id="line2d_29">
      <path clip-path="url(#p49918a2694)" d="M 50.14375 10.999219 
L 719.74375 10.999219 
" style="fill:none;stroke:#b0b0b0;stroke-linecap:square;stroke-width:0.8;"/>
     </g>
     <g id="line2d_30">
      <g>
       <use style="stroke:#000000;stroke-width:0.8;" x="50.14375" xlink:href="#m06999a1b0d" y="10.999219"/>
      </g>
     </g>
     <g id="text_16">
      <!-- 0.98 -->
      <g transform="translate(20.878125 14.798437)scale(0.1 -0.1)">
       <use xlink:href="#DejaVuSans-48"/>
       <use x="63.623047" xlink:href="#DejaVuSans-46"/>
       <use x="95.410156" xlink:href="#DejaVuSans-57"/>
       <use x="159.033203" xlink:href="#DejaVuSans-56"/>
      </g>
     </g>
    </g>
    <g id="text_17">
     <!-- Accuracy -->
     <defs>
      <path d="M 34.1875 63.1875 
L 20.796875 26.90625 
L 47.609375 26.90625 
z
M 28.609375 72.90625 
L 39.796875 72.90625 
L 67.578125 0 
L 57.328125 0 
L 50.6875 18.703125 
L 17.828125 18.703125 
L 11.1875 0 
L 0.78125 0 
z
" id="DejaVuSans-65"/>
      <path d="M 8.5 21.578125 
L 8.5 54.6875 
L 17.484375 54.6875 
L 17.484375 21.921875 
Q 17.484375 14.15625 20.5 10.265625 
Q 23.53125 6.390625 29.59375 6.390625 
Q 36.859375 6.390625 41.078125 11.03125 
Q 45.3125 15.671875 45.3125 23.6875 
L 45.3125 54.6875 
L 54.296875 54.6875 
L 54.296875 0 
L 45.3125 0 
L 45.3125 8.40625 
Q 42.046875 3.421875 37.71875 1 
Q 33.40625 -1.421875 27.6875 -1.421875 
Q 18.265625 -1.421875 13.375 4.4375 
Q 8.5 10.296875 8.5 21.578125 
z
M 31.109375 56 
z
" id="DejaVuSans-117"/>
      <path d="M 41.109375 46.296875 
Q 39.59375 47.171875 37.8125 47.578125 
Q 36.03125 48 33.890625 48 
Q 26.265625 48 22.1875 43.046875 
Q 18.109375 38.09375 18.109375 28.8125 
L 18.109375 0 
L 9.078125 0 
L 9.078125 54.6875 
L 18.109375 54.6875 
L 18.109375 46.1875 
Q 20.953125 51.171875 25.484375 53.578125 
Q 30.03125 56 36.53125 56 
Q 37.453125 56 38.578125 55.875 
Q 39.703125 55.765625 41.0625 55.515625 
z
" id="DejaVuSans-114"/>
      <path d="M 34.28125 27.484375 
Q 23.390625 27.484375 19.1875 25 
Q 14.984375 22.515625 14.984375 16.5 
Q 14.984375 11.71875 18.140625 8.90625 
Q 21.296875 6.109375 26.703125 6.109375 
Q 34.1875 6.109375 38.703125 11.40625 
Q 43.21875 16.703125 43.21875 25.484375 
L 43.21875 27.484375 
z
M 52.203125 31.203125 
L 52.203125 0 
L 43.21875 0 
L 43.21875 8.296875 
Q 40.140625 3.328125 35.546875 0.953125 
Q 30.953125 -1.421875 24.3125 -1.421875 
Q 15.921875 -1.421875 10.953125 3.296875 
Q 6 8.015625 6 15.921875 
Q 6 25.140625 12.171875 29.828125 
Q 18.359375 34.515625 30.609375 34.515625 
L 43.21875 34.515625 
L 43.21875 35.40625 
Q 43.21875 41.609375 39.140625 45 
Q 35.0625 48.390625 27.6875 48.390625 
Q 23 48.390625 18.546875 47.265625 
Q 14.109375 46.140625 10.015625 43.890625 
L 10.015625 52.203125 
Q 14.9375 54.109375 19.578125 55.046875 
Q 24.21875 56 28.609375 56 
Q 40.484375 56 46.34375 49.84375 
Q 52.203125 43.703125 52.203125 31.203125 
z
" id="DejaVuSans-97"/>
      <path d="M 32.171875 -5.078125 
Q 28.375 -14.84375 24.75 -17.8125 
Q 21.140625 -20.796875 15.09375 -20.796875 
L 7.90625 -20.796875 
L 7.90625 -13.28125 
L 13.1875 -13.28125 
Q 16.890625 -13.28125 18.9375 -11.515625 
Q 21 -9.765625 23.484375 -3.21875 
L 25.09375 0.875 
L 2.984375 54.6875 
L 12.5 54.6875 
L 29.59375 11.921875 
L 46.6875 54.6875 
L 56.203125 54.6875 
z
" id="DejaVuSans-121"/>
     </defs>
     <g transform="translate(14.798438 196.994062)rotate(-90)scale(0.1 -0.1)">
      <use xlink:href="#DejaVuSans-65"/>
      <use x="68.392578" xlink:href="#DejaVuSans-99"/>
      <use x="123.373047" xlink:href="#DejaVuSans-99"/>
      <use x="178.353516" xlink:href="#DejaVuSans-117"/>
      <use x="241.732422" xlink:href="#DejaVuSans-114"/>
      <use x="282.845703" xlink:href="#DejaVuSans-97"/>
      <use x="344.125" xlink:href="#DejaVuSans-99"/>
      <use x="399.105469" xlink:href="#DejaVuSans-121"/>
     </g>
    </g>
   </g>
   <g id="line2d_31">
    <path clip-path="url(#p49918a2694)" d="M 102.979538 375.715469 
L 103.716852 370.029972 
L 104.992402 369.26559 
L 106.267952 363.761699 
L 107.543502 363.812609 
L 108.819052 362.589549 
L 110.094602 354.639416 
L 111.370153 356.626858 
L 112.645703 351.887349 
L 113.921253 349.084493 
L 115.196803 344.039158 
L 116.472353 343.937216 
L 117.747903 342.255478 
L 119.023453 330.38125 
L 120.299003 339.554443 
L 121.574553 332.16493 
L 122.850103 332.929312 
L 124.125653 330.126335 
L 125.401203 323.75612 
L 126.676753 332.521666 
L 127.952303 328.801333 
L 129.227853 323.552236 
L 130.503403 323.75612 
L 131.778953 324.265708 
L 133.054503 317.691487 
L 134.330053 313.003009 
L 135.605604 307.498997 
L 136.881154 312.850157 
L 138.156704 310.301974 
L 139.432254 309.027882 
L 140.707804 305.868291 
L 141.983354 302.30081 
L 143.258904 302.147958 
L 144.534454 296.694976 
L 145.810004 298.07101 
L 147.085554 301.07775 
L 148.361104 298.478656 
L 149.636654 296.491093 
L 150.912204 292.057409 
L 152.187754 291.802615 
L 153.463304 287.215958 
L 154.738854 284.616865 
L 156.014404 288.388108 
L 157.289954 284.056245 
L 158.565504 280.998595 
L 159.841055 277.533056 
L 161.116605 281.864919 
L 162.392155 281.864919 
L 164.943255 274.984994 
L 166.218805 271.264661 
L 167.494355 275.39264 
L 168.769905 270.704163 
L 170.045455 272.844578 
L 171.321005 270.958957 
L 172.596555 272.742636 
L 173.872105 271.366603 
L 175.147655 260.40973 
L 176.423205 266.015564 
L 177.698755 263.059734 
L 178.974305 263.569322 
L 180.249855 253.27489 
L 181.525405 263.212586 
L 182.800955 259.237581 
L 184.076506 258.524109 
L 185.352056 257.606753 
L 186.627606 251.338358 
L 187.903156 250.82877 
L 189.178706 253.122038 
L 191.729806 252.204682 
L 193.005356 246.191203 
L 194.280906 248.484471 
L 195.556456 249.197943 
L 196.832006 242.47087 
L 198.107556 249.248853 
L 199.383106 248.025793 
L 200.658656 245.630583 
L 201.934206 251.898978 
L 203.209756 244.152608 
L 204.485306 241.604546 
L 205.760856 245.324757 
L 207.036406 244.152608 
L 208.311956 243.64302 
L 209.587507 241.196778 
L 210.863057 231.972675 
L 212.138607 240.63628 
L 213.414157 236.457269 
L 214.689707 236.355449 
L 215.965257 238.648716 
L 217.240807 233.450529 
L 218.516357 237.323714 
L 219.791907 232.838999 
L 221.067457 233.042883 
L 222.343007 229.985112 
L 223.618557 232.176438 
L 224.894107 229.220608 
L 226.169657 227.640812 
L 227.445207 227.131224 
L 228.720757 224.277337 
L 229.996307 229.475402 
L 231.271857 224.888867 
L 232.547407 226.774488 
L 233.822958 224.634073 
L 235.098508 224.175395 
L 236.374058 220.30221 
L 237.649608 222.952213 
L 238.925158 223.665685 
L 240.200708 221.52527 
L 241.476258 218.722414 
L 242.751808 219.232002 
L 244.027358 218.059852 
L 245.302908 220.251299 
L 246.578458 216.836792 
L 247.854008 215.766584 
L 249.129558 214.084725 
L 250.405108 213.575137 
L 251.680658 214.747287 
L 252.956208 214.95117 
L 254.231758 214.645345 
L 255.507308 211.129017 
L 256.782858 209.243395 
L 258.058409 212.199225 
L 259.333959 208.478892 
L 260.609509 210.415424 
L 261.885059 209.294305 
L 263.160609 206.185624 
L 264.436159 210.364513 
L 265.711709 208.478892 
L 266.987259 206.287566 
L 268.262809 205.319178 
L 269.538359 206.695212 
L 270.813909 201.140289 
L 272.089459 213.065549 
L 273.365009 204.19806 
L 274.640559 200.070081 
L 275.916109 204.656738 
L 277.191659 198.694048 
L 278.467209 200.834585 
L 279.742759 196.808547 
L 281.018309 199.560493 
L 282.29386 202.006613 
L 283.56941 200.121113 
L 284.84496 198.490285 
L 286.12051 198.999873 
L 287.39606 192.323832 
L 288.67161 198.439254 
L 289.94716 200.324875 
L 291.22271 194.922926 
L 292.49826 192.629536 
L 293.77381 194.311274 
L 295.04936 193.495982 
L 296.32491 193.699744 
L 297.60046 192.018007 
L 298.87601 181.774606 
L 300.15156 196.553632 
L 301.42711 192.374742 
L 302.70266 190.947799 
L 303.97821 184.628494 
L 305.25376 189.062177 
L 306.529311 191.661271 
L 307.804861 183.25246 
L 309.080411 188.297795 
L 310.355961 183.048576 
L 311.631511 185.749612 
L 312.907061 186.819819 
L 314.182611 182.946634 
L 315.458161 181.723574 
L 316.733711 184.016964 
L 318.009261 180.500514 
L 319.284811 182.895724 
L 320.560361 179.888984 
L 321.835911 178.512951 
L 323.111461 179.073571 
L 324.387011 180.500514 
L 325.662561 174.945591 
L 326.938111 175.659063 
L 328.213661 182.538988 
L 329.489211 183.099608 
L 330.764762 176.729271 
L 332.040312 180.449483 
L 333.315862 175.149475 
L 334.591412 180.704398 
L 335.866962 178.054273 
L 337.142512 172.397408 
L 338.418062 168.218519 
L 339.693612 172.397408 
L 340.969162 176.117741 
L 342.244712 172.040672 
L 343.520262 174.130178 
L 344.795812 171.531084 
L 346.071362 173.212822 
L 347.346912 171.582116 
L 348.622462 172.346498 
L 349.898012 167.403105 
L 351.173562 172.601292 
L 352.449112 168.983022 
L 353.724662 172.091704 
L 355.000213 168.931991 
L 356.275763 169.747404 
L 357.551313 166.689633 
L 358.826863 165.517483 
L 360.102413 162.001155 
L 361.377963 163.682893 
L 362.653513 168.065666 
L 363.929063 167.454137 
L 365.204613 165.415541 
L 366.480163 164.905953 
L 367.755713 161.13471 
L 369.031263 162.867479 
L 370.306813 164.396365 
L 371.582363 165.109837 
L 372.857913 160.217476 
L 374.133463 156.242349 
L 375.409013 161.13471 
L 376.684563 160.574212 
L 377.960113 161.440536 
L 379.235664 162.612685 
L 380.511214 158.586648 
L 381.786764 156.802968 
L 383.062314 158.382764 
L 384.337864 156.90491 
L 385.613414 160.217476 
L 386.888964 157.312556 
L 388.164514 159.147146 
L 389.440064 159.30012 
L 390.715614 153.643255 
L 393.266714 152.980693 
L 394.542264 156.649995 
L 395.817814 153.184577 
L 397.093364 150.3816 
L 398.368914 154.356727 
L 399.644464 154.509579 
L 400.920014 153.898049 
L 402.195564 152.623957 
L 403.471115 145.998827 
L 404.746665 151.502839 
L 406.022215 153.337429 
L 407.297765 153.541313 
L 408.573315 150.024864 
L 409.848865 151.095072 
L 411.124415 146.76333 
L 412.399965 147.527712 
L 413.675515 141.106465 
L 416.226615 147.120066 
L 417.502165 142.125763 
L 418.777715 136.57084 
L 420.053265 142.584441 
L 421.328815 146.610478 
L 422.604365 142.278615 
L 423.879915 142.533409 
L 425.155465 146.406594 
L 426.431015 148.088332 
L 427.706566 137.029518 
L 428.982116 138.558403 
L 430.257666 139.220844 
L 431.533216 138.40543 
L 432.808766 143.450765 
L 434.084316 138.96605 
L 435.359866 141.361259 
L 436.635416 136.163072 
L 437.910966 136.112162 
L 439.186516 142.074731 
L 440.462066 140.800761 
L 441.737616 134.277451 
L 443.013166 136.417988 
L 444.288716 139.169933 
L 445.564266 134.889102 
L 446.839816 137.18237 
L 448.115366 134.889102 
L 449.390916 130.353355 
L 450.666466 135.602574 
L 451.942017 135.194806 
L 453.217567 133.156333 
L 454.493117 133.207243 
L 457.044217 128.926411 
L 458.319767 137.13146 
L 459.595317 132.850507 
L 460.870867 132.238977 
L 462.146417 129.588973 
L 463.421967 131.831331 
L 464.697517 130.353355 
L 465.973067 131.423563 
L 467.248617 130.200503 
L 468.524167 127.295584 
L 469.799717 127.856204 
L 471.075267 127.295584 
L 472.350817 127.550499 
L 473.626367 132.442861 
L 474.901917 125.511904 
L 476.177467 125.86864 
L 477.453018 129.741825 
L 478.728568 130.404387 
L 480.004118 130.455297 
L 481.279668 126.37835 
L 482.555218 126.633144 
L 485.106318 121.944545 
L 486.381868 125.511904 
L 487.657418 119.498425 
L 488.932968 121.485867 
L 490.208518 121.384046 
L 491.484068 119.243509 
L 492.759618 118.886773 
L 494.035168 122.658017 
L 495.310718 118.173301 
L 496.586268 122.709048 
L 497.861818 121.63884 
L 499.137368 118.733921 
L 500.412918 121.536899 
L 501.688469 114.758916 
L 502.964019 116.440653 
L 504.239569 115.319414 
L 505.515119 115.472387 
L 506.790669 119.192599 
L 508.066219 116.083917 
L 509.341769 113.739618 
L 510.617319 115.217472 
L 511.892869 115.67615 
L 513.168419 116.746358 
L 514.443969 113.586766 
L 515.719519 112.822262 
L 516.995069 111.242466 
L 518.270619 110.834699 
L 519.546169 112.975236 
L 522.097269 110.732878 
L 523.372819 109.917464 
L 524.648369 111.955938 
L 527.19947 108.388579 
L 528.47502 115.931065 
L 529.75057 109.102051 
L 531.02612 104.668246 
L 532.30167 109.356845 
L 533.57722 103.598038 
L 534.85277 102.629772 
L 536.12832 105.534691 
L 537.40387 104.923161 
L 538.67942 106.146221 
L 539.95497 107.063577 
L 541.23052 104.515394 
L 543.78162 107.980811 
L 545.05717 105.279897 
L 546.33272 104.821219 
L 547.60827 104.107747 
L 548.88382 100.795182 
L 550.159371 111.955938 
L 551.434921 100.336504 
L 552.710471 98.094147 
L 553.986021 103.03754 
L 555.261571 100.13262 
L 556.537121 95.596995 
L 557.812671 99.979768 
L 559.088221 101.508654 
L 560.363771 96.820055 
L 561.639321 103.69998 
L 562.914871 97.125881 
L 564.190421 95.545963 
L 565.465971 99.826916 
L 566.741521 94.730549 
L 568.017071 97.329643 
L 569.292621 94.424845 
L 570.568171 93.252695 
L 571.843721 94.934433 
L 573.119271 96.921997 
L 574.394822 97.329643 
L 575.670372 96.463319 
L 576.945922 91.469016 
L 578.221472 92.28443 
L 579.497022 95.545963 
L 580.772572 94.068109 
L 582.048122 90.806454 
L 583.323672 91.621868 
L 584.599222 93.609431 
L 585.874772 92.94687 
L 587.150322 87.901656 
L 588.425872 85.659299 
L 589.701422 90.857486 
L 592.252522 80.410201 
L 593.528072 87.442978 
L 594.803622 88.462276 
L 596.079172 89.073806 
L 597.354722 85.404505 
L 598.630273 87.493889 
L 599.905823 85.200621 
L 601.181373 79.492846 
L 602.456923 84.487149 
L 603.732473 84.334297 
L 606.283573 85.353473 
L 607.559123 83.365909 
L 608.834673 81.072642 
L 610.110223 80.257228 
L 611.385773 84.640001 
L 612.661323 79.74764 
L 613.936873 78.983136 
L 615.212423 78.779374 
L 616.487973 82.499585 
L 617.763523 78.881316 
L 620.314623 78.01487 
L 621.590173 77.709166 
L 622.865724 80.002434 
L 624.141274 76.384164 
L 625.416824 74.804247 
L 626.692374 80.002434 
L 627.967924 78.320696 
L 629.243474 75.364867 
L 630.519024 74.498543 
L 631.794574 76.537016 
L 633.070124 73.581187 
L 634.345674 73.785071 
L 635.621224 75.415777 
L 636.896774 72.154243 
L 638.172324 73.937923 
L 639.447874 71.746475 
L 640.723424 70.574326 
L 641.998974 73.479245 
L 643.274524 71.644533 
L 644.550074 70.21759 
L 645.825624 72.205153 
L 647.101175 68.94362 
L 648.376725 66.905024 
L 649.652275 66.905024 
L 650.927825 67.15994 
L 652.203375 69.198414 
L 653.478925 68.383 
L 654.754475 67.975354 
L 656.030025 68.026264 
L 657.305575 66.854114 
L 658.581125 64.917582 
L 659.856675 67.567586 
L 661.132225 68.790646 
L 662.407775 65.325228 
L 663.683325 65.223286 
L 664.958875 62.216547 
L 666.234425 64.306052 
L 667.509975 59.413569 
L 668.785525 62.624193 
L 670.061075 66.395436 
L 671.336626 63.235723 
L 672.612176 62.980929 
L 673.887726 60.687661 
L 675.163276 59.617453 
L 676.438826 63.184813 
L 677.714376 57.833774 
L 678.989926 58.751129 
L 680.265476 60.789603 
L 681.541026 58.496214 
L 682.816576 59.209686 
L 684.092126 58.649187 
L 685.367676 60.228983 
L 686.643226 57.731832 
L 687.918776 58.394393 
L 687.918776 58.394393 
" style="fill:none;stroke:#abd9e9;stroke-linecap:square;stroke-width:1.5;"/>
   </g>
   <g id="line2d_32">
    <path clip-path="url(#p49918a2694)" d="M 83.424555 375.715469 
L 84.583601 356.140963 
L 85.859151 354.704785 
L 87.134702 346.498279 
L 88.410252 355.730523 
L 89.685802 353.678926 
L 90.961352 322.699277 
L 93.512452 339.93305 
L 94.788002 350.191152 
L 96.063552 317.570226 
L 97.339102 344.446561 
L 98.614652 346.703378 
L 99.890202 306.286265 
L 101.165752 287.001017 
L 102.441302 335.624637 
L 103.716852 292.335167 
L 104.992402 333.1626 
L 106.267952 292.745487 
L 107.543502 304.850087 
L 108.819052 294.591984 
L 110.094602 317.365127 
L 111.370153 284.53898 
L 112.645703 296.438481 
L 113.921253 272.639601 
L 115.196803 281.871845 
L 116.472353 266.484691 
L 117.747903 259.303922 
L 119.023453 281.871845 
L 120.299003 268.946606 
L 122.850103 290.693891 
L 124.125653 276.537695 
L 125.401203 267.715649 
L 126.676753 271.613742 
L 127.952303 267.715649 
L 129.227853 265.253733 
L 130.503403 244.327087 
L 131.778953 263.817555 
L 133.054503 259.919462 
L 134.330053 259.714241 
L 135.605604 252.123275 
L 136.881154 238.172177 
L 138.156704 251.507735 
L 139.432254 256.431687 
L 140.707804 255.405828 
L 141.983354 242.27537 
L 143.258904 243.301229 
L 144.534454 254.174871 
L 145.810004 222.579803 
L 147.085554 250.071557 
L 148.361104 224.426179 
L 149.636654 240.634093 
L 150.912204 264.843292 
L 152.187754 241.454731 
L 153.463304 228.734713 
L 154.738854 238.992816 
L 156.014404 220.528086 
L 157.289954 232.427587 
L 158.565504 238.582497 
L 159.841055 250.276777 
L 161.116605 232.427587 
L 162.392155 222.579803 
L 163.667705 230.37599 
L 164.943255 213.962856 
L 166.218805 235.094722 
L 167.494355 241.865051 
L 168.769905 241.249632 
L 170.045455 212.937119 
L 171.321005 210.680302 
L 172.596555 228.119174 
L 173.872105 220.733306 
L 175.147655 215.399034 
L 176.423205 226.888216 
L 177.698755 235.299821 
L 178.974305 210.680302 
L 180.249855 213.552537 
L 181.525405 232.837906 
L 182.800955 220.322987 
L 184.076506 210.064763 
L 185.352056 232.427587 
L 186.627606 219.707447 
L 187.903156 216.014574 
L 189.178706 206.782209 
L 190.454256 211.500941 
L 191.729806 215.399034 
L 193.005356 201.037618 
L 194.280906 209.449345 
L 195.556456 210.885523 
L 196.832006 227.298535 
L 198.107556 208.423486 
L 199.383106 207.192528 
L 200.658656 200.832519 
L 201.934206 211.500941 
L 203.209756 214.578396 
L 204.485306 197.549844 
L 205.760856 199.396341 
L 207.036406 204.525392 
L 208.311956 203.089214 
L 209.587507 213.142218 
L 210.863057 208.423486 
L 212.138607 188.933018 
L 213.414157 194.26729 
L 214.689707 200.627299 
L 215.965257 216.629992 
L 217.240807 214.988715 
L 218.516357 204.730613 
L 219.791907 196.318886 
L 221.067457 208.013167 
L 222.343007 197.549844 
L 223.618557 197.960163 
L 224.894107 199.191121 
L 226.169657 191.189835 
L 227.445207 189.958877 
L 228.720757 189.548558 
L 229.996307 191.394934 
L 231.271857 190.369196 
L 232.547407 190.163976 
L 233.822958 186.265882 
L 235.098508 187.49684 
L 236.374058 192.215572 
L 237.649608 183.598747 
L 238.925158 185.855563 
L 240.200708 185.034925 
L 241.476258 176.828418 
L 242.751808 188.11238 
L 244.027358 180.931611 
L 245.302908 192.215572 
L 246.578458 194.472389 
L 247.854008 186.060784 
L 249.129558 194.26729 
L 250.405108 193.446651 
L 251.680658 179.714505 
L 252.956208 186.676202 
L 254.231758 191.189835 
L 255.507308 187.49684 
L 256.782858 186.471103 
L 258.058409 188.522699 
L 259.333959 188.11238 
L 260.609509 198.986022 
L 261.885059 199.80666 
L 263.160609 180.316193 
L 264.436159 183.188427 
L 265.711709 185.034925 
L 266.987259 187.907159 
L 268.262809 181.54715 
L 269.538359 197.344745 
L 270.813909 194.26729 
L 272.089459 191.600154 
L 273.365009 178.059376 
L 274.640559 177.854277 
L 275.916109 180.521292 
L 277.191659 172.930325 
L 278.467209 189.753657 
L 279.742759 202.473796 
L 281.018309 196.113787 
L 282.29386 183.188427 
L 283.56941 189.138239 
L 284.84496 172.520006 
L 286.12051 183.188427 
L 287.39606 189.138239 
L 288.67161 187.907159 
L 289.94716 185.650464 
L 291.22271 182.573009 
L 292.49826 174.161283 
L 293.77381 172.314785 
L 295.04936 179.495554 
L 296.32491 182.778108 
L 297.60046 181.95747 
L 298.87601 179.905873 
L 301.42711 178.264596 
L 302.70266 178.059376 
L 303.97821 183.393648 
L 305.25376 166.365096 
L 306.529311 182.367789 
L 307.804861 173.545743 
L 309.080411 182.16269 
L 310.355961 187.49684 
L 311.631511 165.954776 
L 312.907061 173.545743 
L 314.182611 176.418099 
L 315.458161 168.827011 
L 316.733711 167.801274 
L 318.009261 184.829704 
L 319.284811 184.829704 
L 320.560361 176.00778 
L 321.835911 186.881422 
L 323.111461 165.544457 
L 324.387011 177.238738 
L 325.662561 173.750963 
L 326.938111 179.290334 
L 328.213661 169.442551 
L 329.489211 162.877321 
L 330.764762 167.801274 
L 332.040312 172.109686 
L 333.315862 174.366503 
L 334.591412 154.875914 
L 337.142512 172.725105 
L 338.418062 187.291741 
L 339.693612 165.134138 
L 340.969162 171.904466 
L 342.244712 169.032231 
L 343.520262 158.568909 
L 344.795812 168.211593 
L 346.071362 174.571602 
L 347.346912 164.928917 
L 348.622462 160.415406 
L 349.898012 176.00778 
L 351.173562 169.442551 
L 352.449112 170.673508 
L 353.724662 162.261782 
L 355.000213 184.829704 
L 356.275763 185.650464 
L 357.551313 169.442551 
L 358.826863 161.851462 
L 360.102413 158.363688 
L 361.377963 172.109686 
L 362.653513 165.749556 
L 363.929063 165.749556 
L 365.204613 161.441143 
L 366.480163 166.775415 
L 367.755713 169.85287 
L 369.031263 156.517312 
L 370.306813 166.980635 
L 371.582363 146.874628 
L 372.857913 159.184327 
L 374.133463 167.801274 
L 375.409013 168.416692 
L 376.684563 148.310685 
L 377.960113 172.314785 
L 379.235664 178.059376 
L 380.511214 154.465595 
L 381.786764 164.518598 
L 383.062314 165.339237 
L 385.613414 153.439857 
L 386.888964 169.647649 
L 388.164514 150.362402 
L 389.440064 160.210185 
L 390.715614 159.389547 
L 391.991164 157.337951 
L 393.266714 167.390954 
L 394.542264 160.620505 
L 395.817814 164.313499 
L 397.093364 154.465595 
L 398.368914 164.108279 
L 399.644464 157.54305 
L 400.920014 155.901773 
L 402.195564 154.875914 
L 403.471115 156.722411 
L 404.746665 154.055275 
L 406.022215 158.979228 
L 407.297765 154.670815 
L 409.848865 148.515905 
L 411.124415 156.312092 
L 412.399965 163.287641 
L 413.675515 148.515905 
L 414.951065 157.13273 
L 416.226615 158.979228 
L 417.502165 156.106993 
L 418.777715 160.415406 
L 420.053265 162.877321 
L 421.328815 158.774007 
L 422.604365 159.594767 
L 423.879915 156.722411 
L 425.155465 156.312092 
L 426.431015 163.287641 
L 427.706566 151.38814 
L 428.982116 153.234637 
L 430.257666 162.672101 
L 431.533216 151.59336 
L 432.808766 154.670815 
L 434.084316 153.644956 
L 435.359866 156.927632 
L 436.635416 162.672101 
L 437.910966 153.850177 
L 439.186516 157.74827 
L 440.462066 155.901773 
L 441.737616 152.824318 
L 443.013166 154.670815 
L 445.564266 160.210185 
L 446.839816 154.055275 
L 448.115366 150.772721 
L 449.390916 169.032231 
L 450.666466 152.208778 
L 451.942017 155.621706 
L 453.217567 149.131445 
L 454.493117 157.74827 
L 455.768667 155.286233 
L 457.044217 150.157182 
L 458.319767 148.926224 
L 459.595317 154.260496 
L 460.870867 147.900365 
L 463.421967 149.952083 
L 464.697517 167.801274 
L 465.973067 159.799866 
L 467.248617 149.746863 
L 468.524167 149.131445 
L 469.799717 152.003679 
L 471.075267 153.644956 
L 472.350817 155.696552 
L 473.626367 150.157182 
L 474.901917 150.772721 
L 476.177467 156.312092 
L 477.453018 150.157182 
L 478.728568 153.644956 
L 480.004118 151.59336 
L 481.279668 151.38814 
L 482.555218 155.081134 
L 483.830768 147.284947 
L 485.106318 142.771314 
L 486.381868 144.617811 
L 487.657418 156.722411 
L 488.932968 144.82291 
L 490.208518 151.798459 
L 491.484068 145.64367 
L 492.759618 146.874628 
L 494.035168 145.43845 
L 495.310718 153.850177 
L 496.586268 146.053989 
L 497.861818 156.517312 
L 499.137368 151.183041 
L 500.412918 149.746863 
L 501.688469 150.772721 
L 502.964019 154.670815 
L 504.239569 147.490046 
L 505.515119 152.824318 
L 506.790669 150.567501 
L 508.066219 142.566215 
L 509.341769 155.901773 
L 510.617319 150.772721 
L 511.892869 157.953369 
L 513.168419 146.053989 
L 514.443969 153.439857 
L 515.719519 140.309399 
L 516.995069 154.670815 
L 518.270619 146.259088 
L 519.546169 147.900365 
L 520.821719 151.183041 
L 522.097269 150.772721 
L 523.372819 157.13273 
L 524.648369 141.540356 
L 525.92392 150.97782 
L 527.19947 138.668122 
L 528.47502 146.053989 
L 529.75057 146.874628 
L 531.02612 141.540356 
L 532.30167 150.567501 
L 533.57722 139.28354 
L 534.85277 145.028131 
L 536.12832 143.797173 
L 537.40387 153.644956 
L 538.67942 140.309399 
L 539.95497 141.130037 
L 541.23052 143.386854 
L 542.50607 142.155896 
L 543.78162 147.490046 
L 546.33272 140.924817 
L 547.60827 143.591953 
L 548.88382 147.490046 
L 550.159371 142.771314 
L 551.434921 150.772721 
L 552.710471 143.797173 
L 553.986021 133.538949 
L 555.261571 141.335257 
L 556.537121 133.949268 
L 557.812671 140.514497 
L 559.088221 137.847483 
L 560.363771 131.897672 
L 561.639321 145.64367 
L 562.914871 141.745577 
L 564.190421 149.131445 
L 565.465971 139.899079 
L 566.741521 141.745577 
L 568.017071 135.385446 
L 569.292621 140.104178 
L 570.568171 136.616404 
L 571.843721 143.591953 
L 573.119271 140.924817 
L 574.394822 141.335257 
L 575.670372 143.591953 
L 576.945922 143.591953 
L 578.221472 146.669408 
L 579.497022 140.924817 
L 580.772572 148.105586 
L 582.048122 145.028131 
L 583.323672 132.513212 
L 584.599222 136.411305 
L 585.874772 138.873221 
L 587.150322 136.206085 
L 588.425872 149.131445 
L 589.701422 136.821624 
L 590.976972 145.64367 
L 592.252522 140.924817 
L 593.528072 134.359709 
L 594.803622 144.207492 
L 597.354722 136.821624 
L 598.630273 136.000986 
L 599.905823 140.719718 
L 601.181373 138.668122 
L 602.456923 137.231944 
L 603.732473 133.744169 
L 605.008023 142.360995 
L 606.283573 140.104178 
L 607.559123 134.359709 
L 608.834673 139.078441 
L 610.110223 134.154489 
L 611.385773 140.924817 
L 612.661323 133.12863 
L 613.936873 133.744169 
L 615.212423 136.206085 
L 616.487973 139.899079 
L 617.763523 136.616404 
L 619.039073 134.564808 
L 620.314623 133.744169 
L 621.590173 132.71831 
L 622.865724 135.590667 
L 624.141274 134.154489 
L 625.416824 143.386854 
L 626.692374 133.744169 
L 627.967924 137.437042 
L 629.243474 139.693859 
L 630.519024 135.795765 
L 631.794574 129.025437 
L 633.070124 138.462901 
L 634.345674 130.871935 
L 635.621224 135.385446 
L 636.896774 133.744169 
L 638.172324 130.461615 
L 639.447874 135.385446 
L 640.723424 131.282254 
L 641.998974 132.923531 
L 643.274524 133.33385 
L 644.550074 136.411305 
L 647.101175 130.871935 
L 648.376725 127.999578 
L 649.652275 133.538949 
L 650.927825 132.923531 
L 652.203375 131.733034 
L 653.478925 130.256395 
L 654.754475 130.461615 
L 656.030025 128.820217 
L 657.305575 127.999578 
L 658.581125 130.256395 
L 659.856675 129.640855 
L 661.132225 129.846076 
L 662.407775 133.538949 
L 663.683325 130.461615 
L 664.958875 134.154489 
L 666.234425 126.768621 
L 667.509975 131.692573 
L 668.785525 126.358301 
L 670.061075 129.025437 
L 671.336626 132.102892 
L 672.612176 128.204799 
L 673.887726 130.256395 
L 675.163276 128.204799 
L 676.438826 124.717025 
L 677.714376 132.923531 
L 678.989926 128.615118 
L 680.265476 126.358301 
L 681.541026 128.820217 
L 682.816576 133.538949 
L 684.092126 125.127344 
L 685.367676 129.025437 
L 686.643226 131.692573 
L 687.918776 124.922123 
L 687.918776 124.922123 
" style="fill:none;stroke:#2c7bb6;stroke-linecap:square;stroke-width:1.5;"/>
   </g>
   <g id="line2d_33">
    <path clip-path="url(#p49918a2694)" d="M 156.80944 375.715469 
L 157.289954 372.221419 
L 158.565504 372.883981 
L 159.841055 367.278026 
L 161.116605 369.418442 
L 162.392155 366.360671 
L 163.667705 369.979062 
L 164.943255 363.404963 
L 166.218805 364.780875 
L 167.494355 360.958721 
L 168.769905 357.90095 
L 170.045455 358.971158 
L 171.321005 358.002892 
L 172.596555 351.071935 
L 173.872105 353.518177 
L 175.147655 346.4854 
L 176.423205 349.033461 
L 177.698755 341.185271 
L 178.974305 348.523873 
L 180.249855 346.740194 
L 181.525405 338.178409 
L 182.800955 341.134239 
L 184.076506 338.688119 
L 185.352056 335.630348 
L 186.627606 336.445761 
L 187.903156 332.77646 
L 189.178706 334.305346 
L 190.454256 329.871541 
L 191.729806 326.915711 
L 193.005356 321.615704 
L 194.280906 319.832024 
L 195.556456 328.240835 
L 196.832006 327.323479 
L 198.107556 323.1955 
L 199.383106 316.570369 
L 200.658656 320.80029 
L 201.934206 313.818423 
L 203.209756 318.914668 
L 204.485306 316.366485 
L 205.760856 314.837599 
L 207.036406 314.582805 
L 208.311956 307.753912 
L 209.587507 312.39148 
L 210.863057 311.983712 
L 212.138607 308.2635 
L 213.414157 305.154819 
L 214.689707 304.594199 
L 215.965257 302.708577 
L 217.240807 298.835392 
L 218.516357 301.638369 
L 219.791907 297.204565 
L 221.067457 298.274772 
L 222.343007 297.663242 
L 223.618557 298.529688 
L 224.894107 292.668939 
L 226.169657 294.452619 
L 227.445207 292.006499 
L 228.720757 295.115181 
L 229.996307 295.064149 
L 231.271857 294.605471 
L 232.547407 285.024632 
L 233.822958 289.15249 
L 235.098508 277.686029 
L 236.374058 284.005335 
L 237.649608 284.871659 
L 238.925158 281.712067 
L 240.200708 284.769717 
L 241.476258 282.833185 
L 242.751808 282.323597 
L 244.027358 277.634998 
L 245.302908 275.749376 
L 246.578458 279.214915 
L 247.854008 275.137846 
L 249.129558 279.316736 
L 250.405108 276.921526 
L 251.680658 272.538753 
L 252.956208 269.532013 
L 254.231758 271.264661 
L 255.507308 266.3723 
L 256.782858 263.875148 
L 258.058409 263.110766 
L 259.333959 266.525152 
L 260.609509 271.723339 
L 261.885059 272.487842 
L 263.160609 266.270358 
L 264.436159 264.384736 
L 265.711709 262.753908 
L 266.987259 262.040437 
L 268.262809 263.620354 
L 269.538359 261.785643 
L 270.813909 258.575019 
L 272.089459 256.638487 
L 273.365009 257.912579 
L 274.640559 255.415427 
L 275.916109 255.517248 
L 277.191659 256.995223 
L 278.467209 260.001963 
L 279.742759 258.829813 
L 281.018309 250.82877 
L 282.29386 251.542242 
L 283.56941 257.912579 
L 286.12051 250.981622 
L 287.39606 246.293023 
L 288.67161 253.7846 
L 289.94716 252.867244 
L 291.22271 246.038229 
L 292.49826 251.746126 
L 293.77381 246.394965 
L 295.04936 243.846903 
L 296.32491 242.012192 
L 297.60046 245.936287 
L 298.87601 247.006617 
L 301.42711 241.24781 
L 302.70266 243.64302 
L 303.97821 240.483306 
L 305.25376 241.400662 
L 306.529311 239.616982 
L 307.804861 238.139128 
L 309.080411 238.954421 
L 310.355961 236.814005 
L 311.631511 241.757398 
L 312.907061 237.731361 
L 314.182611 232.176438 
L 315.458161 236.406359 
L 316.733711 233.195735 
L 318.009261 238.139128 
L 319.284811 231.10623 
L 320.560361 233.195735 
L 321.835911 232.88991 
L 323.111461 235.743797 
L 324.387011 234.062059 
L 325.662561 227.793664 
L 326.938111 223.563865 
L 329.489211 229.475402 
L 330.764762 231.412056 
L 332.040312 227.844696 
L 333.315862 223.767627 
L 334.591412 231.921644 
L 335.866962 232.991851 
L 337.142512 226.366721 
L 338.418062 229.067756 
L 339.693612 228.456226 
L 340.969162 222.595477 
L 342.244712 225.092629 
L 343.520262 223.869569 
L 344.795812 224.277337 
L 346.071362 222.187831 
L 347.346912 219.333944 
L 348.622462 222.646509 
L 349.898012 222.187831 
L 351.173562 216.73485 
L 352.449112 217.601174 
L 353.724662 214.084725 
L 355.000213 217.040554 
L 356.275763 219.537827 
L 357.551313 219.639648 
L 358.826863 218.263736 
L 360.102413 218.51853 
L 361.377963 217.855968 
L 362.653513 213.931873 
L 363.929063 211.842489 
L 365.204613 212.810755 
L 366.480163 216.17423 
L 367.755713 216.683818 
L 369.031263 210.772159 
L 370.306813 213.626169 
L 371.582363 215.868526 
L 372.857913 212.148193 
L 374.133463 209.192364 
L 375.409013 212.046251 
L 376.684563 217.448322 
L 377.960113 209.701952 
L 379.235664 205.726946 
L 380.511214 209.243395 
L 381.786764 211.689515 
L 383.062314 208.020214 
L 384.337864 209.345216 
L 385.613414 206.338476 
L 386.888964 207.816451 
L 388.164514 205.828888 
L 389.440064 206.440418 
L 390.715614 210.466455 
L 391.991164 204.911532 
L 393.266714 209.396247 
L 395.817814 203.739382 
L 397.093364 205.675914 
L 398.368914 203.739382 
L 399.644464 198.897931 
L 400.920014 204.248971 
L 402.195564 206.338476 
L 403.471115 200.222933 
L 404.746665 199.968139 
L 406.022215 200.019171 
L 407.297765 197.114252 
L 408.573315 201.089379 
L 409.848865 196.859458 
L 411.124415 196.706605 
L 412.399965 201.751819 
L 413.675515 201.191321 
L 414.951065 198.643137 
L 416.226615 197.063341 
L 417.502165 198.643137 
L 418.777715 198.745079 
L 420.053265 198.082518 
L 421.328815 194.260364 
L 422.604365 196.451811 
L 423.879915 193.954538 
L 425.155465 201.649877 
L 426.431015 195.585366 
L 427.706566 195.17772 
L 428.982116 199.305699 
L 430.257666 193.699744 
L 431.533216 192.272801 
L 432.808766 193.852718 
L 434.084316 195.22863 
L 435.359866 189.673707 
L 436.635416 192.476684 
L 437.910966 194.719042 
L 439.186516 187.431349 
L 440.462066 191.202593 
L 441.737616 192.884331 
L 443.013166 193.801686 
L 444.288716 193.088214 
L 445.564266 192.884331 
L 446.839816 190.438211 
L 448.115366 188.858293 
L 449.390916 191.355566 
L 450.666466 190.234327 
L 451.942017 192.119948 
L 453.217567 194.464248 
L 454.493117 188.858293 
L 455.768667 192.476684 
L 457.044217 191.100651 
L 458.319767 186.565025 
L 459.595317 189.266061 
L 460.870867 188.399737 
L 462.146417 187.380439 
L 463.421967 193.088214 
L 464.697517 188.654531 
L 465.973067 185.851554 
L 467.248617 188.501557 
L 468.524167 187.431349 
L 469.799717 186.004406 
L 471.075267 180.85725 
L 472.350817 181.570722 
L 473.626367 192.22189 
L 474.901917 186.2592 
L 476.177467 183.20155 
L 477.453018 185.138082 
L 478.728568 188.348705 
L 481.279668 181.51969 
L 482.555218 183.660228 
L 483.830768 180.85725 
L 485.106318 180.398572 
L 486.381868 178.563861 
L 487.657418 181.366838 
L 488.932968 180.500514 
L 490.208518 179.328365 
L 491.484068 182.0294 
L 494.035168 184.271758 
L 495.310718 184.577462 
L 496.586268 183.354402 
L 497.861818 180.24572 
L 499.137368 173.620589 
L 500.412918 183.915022 
L 501.688469 182.386136 
L 502.964019 181.213986 
L 504.239569 179.532248 
L 505.515119 184.730435 
L 506.790669 182.793782 
L 508.066219 176.933155 
L 509.341769 178.563861 
L 510.617319 171.683936 
L 511.892869 177.391833 
L 513.168419 176.933155 
L 514.443969 180.041836 
L 515.719519 176.066709 
L 516.995069 178.054273 
L 518.270619 176.831213 
L 519.546169 177.850389 
L 520.821719 175.913857 
L 522.097269 178.462041 
L 523.372819 176.270593 
L 524.648369 178.003363 
L 525.92392 174.996502 
L 527.19947 171.683936 
L 528.47502 169.441579 
L 529.75057 172.550382 
L 531.02612 174.181088 
L 532.30167 176.984065 
L 533.57722 173.11088 
L 534.85277 172.397408 
L 536.12832 173.773442 
L 537.40387 169.951288 
L 538.67942 176.015799 
L 539.95497 175.913857 
L 541.23052 174.89456 
L 542.50607 172.754144 
L 543.78162 168.830049 
L 545.05717 170.409966 
L 546.33272 170.511786 
L 547.60827 170.817612 
L 548.88382 170.613728 
L 550.159371 175.149475 
L 551.434921 172.652324 
L 552.710471 166.638723 
L 553.986021 168.575255 
L 555.261571 173.00906 
L 556.537121 168.014635 
L 557.812671 168.167608 
L 559.088221 175.608153 
L 560.363771 169.645462 
L 561.639321 167.505047 
L 562.914871 167.963725 
L 564.190421 172.091704 
L 565.465971 167.606989 
L 566.741521 170.358934 
L 568.017071 169.54352 
L 569.292621 169.339758 
L 570.568171 164.956985 
L 571.843721 166.791575 
L 573.119271 176.015799 
L 574.394822 171.480174 
L 575.670372 163.479009 
L 576.945922 170.308024 
L 578.221472 165.313721 
L 579.497022 168.26955 
L 580.772572 161.848182 
L 582.048122 164.294423 
L 583.323672 167.708931 
L 584.599222 168.26955 
L 585.874772 167.403105 
L 587.150322 169.54352 
L 588.425872 170.511786 
L 589.701422 168.371371 
L 590.976972 164.651159 
L 592.252522 167.708931 
L 593.528072 165.109837 
L 594.803622 167.963725 
L 596.079172 167.301163 
L 597.354722 164.039629 
L 598.630273 165.466573 
L 599.905823 165.415541 
L 601.181373 163.886777 
L 602.456923 161.74624 
L 603.732473 169.084843 
L 605.008023 168.779138 
L 606.283573 165.568515 
L 607.559123 165.670457 
L 608.834673 166.180045 
L 610.110223 165.721367 
L 611.385773 166.383929 
L 612.661323 160.52318 
L 613.936873 160.319296 
L 615.212423 164.192481 
L 616.487973 163.326157 
L 617.763523 164.294423 
L 619.039073 166.791575 
L 620.314623 165.058805 
L 621.590173 161.593388 
L 622.865724 161.236652 
L 624.141274 166.332897 
L 625.416824 161.950124 
L 626.692374 162.052066 
L 627.967924 163.428099 
L 629.243474 160.625122 
L 630.519024 162.357891 
L 631.794574 165.517483 
L 633.070124 159.452972 
L 634.345674 165.313721 
L 635.621224 161.69533 
L 636.896774 164.447275 
L 638.172324 165.517483 
L 639.447874 162.408802 
L 640.723424 163.682893 
L 641.998974 160.777974 
L 643.274524 161.848182 
L 644.550074 161.287684 
L 645.825624 159.809708 
L 647.101175 163.224215 
L 648.376725 160.268386 
L 649.652275 166.485749 
L 650.927825 158.229912 
L 652.203375 161.593388 
L 653.478925 163.326157 
L 654.754475 160.064502 
L 656.030025 161.797272 
L 657.305575 161.0838 
L 658.581125 162.408802 
L 659.856675 161.542478 
L 661.132225 159.758798 
L 662.407775 164.600249 
L 663.683325 162.867479 
L 664.958875 160.166444 
L 666.234425 163.682893 
L 667.509975 157.56735 
L 668.785525 159.96256 
L 670.061075 159.35103 
L 672.612176 160.574212 
L 673.887726 161.593388 
L 675.163276 166.078103 
L 676.438826 160.829006 
L 677.714376 161.389504 
L 678.989926 161.185742 
L 680.265476 161.236652 
L 681.541026 164.294423 
L 682.816576 160.52318 
L 684.092126 160.829006 
L 685.367676 158.535616 
L 686.643226 153.133667 
L 687.918776 156.853879 
L 687.918776 156.853879 
" style="fill:none;stroke:#fdae61;stroke-linecap:square;stroke-width:1.5;"/>
   </g>
   <g id="line2d_34">
    <path clip-path="url(#p49918a2694)" d="M 128.47191 375.715469 
L 129.227853 369.271301 
L 130.503403 369.68162 
L 131.79916 375.715469 
M 133.752789 375.715469 
L 134.330053 360.859695 
L 135.605604 368.245563 
L 136.881154 364.962888 
L 138.156704 354.499565 
L 139.432254 365.168108 
L 140.707804 363.321611 
L 141.983354 352.03765 
L 143.258904 351.217011 
L 144.534454 343.215604 
L 145.810004 364.552569 
L 147.085554 340.548468 
L 148.361104 331.931642 
L 149.636654 350.806692 
L 150.912204 337.471013 
L 152.187754 344.241462 
L 153.463304 331.111004 
L 154.738854 326.187051 
L 156.014404 334.188459 
L 157.289954 317.159907 
L 158.565504 326.597371 
L 159.841055 320.032263 
L 161.116605 330.905905 
L 162.392155 316.339268 
L 163.667705 314.697991 
L 164.943255 308.74818 
L 166.218805 327.007811 
L 167.494355 315.51863 
L 168.769905 315.10831 
L 170.045455 312.030855 
L 171.321005 312.441175 
L 172.596555 312.235954 
L 173.872105 304.029448 
L 175.147655 316.954808 
L 176.423205 311.825635 
L 177.698755 287.616435 
L 178.974305 317.570226 
L 180.249855 304.850087 
L 181.525405 303.619129 
L 182.800955 290.899111 
L 184.076506 296.233261 
L 185.352056 296.64358 
L 186.627606 292.335167 
L 187.903156 290.283571 
L 189.178706 295.207524 
L 190.454256 294.386885 
L 191.729806 288.437074 
L 193.005356 291.10421 
L 194.280906 292.130069 
L 195.556456 304.234668 
L 196.832006 276.127375 
L 198.107556 289.052614 
L 199.383106 293.566125 
L 200.658656 285.564839 
L 201.934206 289.668032 
L 203.209756 282.077065 
L 204.485306 285.564839 
L 205.760856 285.564839 
L 207.036406 284.333882 
L 208.311956 268.125968 
L 209.587507 279.615028 
L 210.863057 275.922155 
L 212.138607 265.048513 
L 213.414157 267.920747 
L 214.689707 271.613742 
L 215.965257 284.53898 
L 217.240807 277.153113 
L 218.516357 267.920747 
L 219.791907 270.793104 
L 221.067457 267.510428 
L 222.343007 272.8447 
L 223.618557 270.382784 
L 224.894107 268.331067 
L 226.169657 264.843292 
L 227.445207 267.305329 
L 228.720757 263.817555 
L 229.996307 264.843292 
L 231.271857 279.204709 
L 232.547407 267.100109 
L 233.822958 268.946606 
L 235.098508 270.587883 
L 236.374058 258.278185 
L 237.649608 260.53488 
L 238.925158 258.893603 
L 240.200708 255.405828 
L 241.476258 255.816148 
L 242.751808 266.074372 
L 244.027358 259.714241 
L 245.302908 251.302636 
L 246.578458 247.609641 
L 247.854008 252.738693 
L 249.129558 259.303922 
L 250.405108 256.021368 
L 251.680658 255.668277 
L 252.956208 260.12456 
L 254.231758 254.79041 
L 255.507308 255.611049 
L 256.782858 248.6355 
L 258.058409 239.403135 
L 259.333959 250.071557 
L 260.609509 242.27537 
L 261.885059 245.968364 
L 263.160609 249.250918 
L 264.436159 251.302636 
L 265.711709 245.968364 
L 266.987259 253.354232 
L 268.262809 244.121867 
L 269.538359 244.737407 
L 270.813909 246.789003 
L 272.089459 240.018675 
L 273.365009 243.916768 
L 274.640559 245.558045 
L 275.916109 243.506449 
L 277.191659 246.173463 
L 278.467209 247.814862 
L 279.742759 240.223774 
L 281.018309 245.352825 
L 282.29386 233.248225 
L 283.56941 241.659952 
L 284.84496 238.787596 
L 286.12051 241.454731 
L 287.39606 235.299821 
L 288.67161 242.27537 
L 289.94716 242.890909 
L 291.22271 230.78631 
L 292.49826 243.711548 
L 293.77381 234.068864 
L 295.04936 230.17077 
L 296.32491 239.813454 
L 297.60046 234.068864 
L 298.87601 243.916768 
L 300.15156 235.915361 
L 301.42711 244.532186 
L 302.70266 235.094722 
L 303.97821 237.761858 
L 305.25376 233.658544 
L 306.529311 234.068864 
L 307.804861 231.196629 
L 309.080411 243.506449 
L 310.355961 230.991408 
L 311.631511 231.401728 
L 312.907061 236.735999 
L 314.182611 226.888216 
L 315.458161 238.172177 
L 316.733711 232.632807 
L 318.009261 222.374583 
L 319.284811 229.350132 
L 320.560361 230.17077 
L 321.835911 218.68171 
L 323.111461 234.274084 
L 324.387011 226.272676 
L 325.662561 225.657258 
L 326.938111 230.17077 
L 328.213661 221.759165 
L 329.489211 230.991408 
L 330.764762 223.195221 
L 332.040312 234.068864 
L 333.315862 225.452038 
L 334.591412 226.888216 
L 335.866962 230.37599 
L 337.142512 220.117766 
L 338.418062 222.169484 
L 339.693612 229.760451 
L 340.969162 224.22108 
L 342.244712 228.734713 
L 343.520262 220.528086 
L 344.795812 224.836498 
L 346.071362 231.401728 
L 347.346912 224.01586 
L 348.622462 224.6314 
L 349.898012 229.555352 
L 351.173562 220.733306 
L 352.449112 227.913953 
L 353.724662 213.962856 
L 355.000213 232.632807 
L 356.275763 222.784902 
L 357.551313 223.400442 
L 358.826863 229.965671 
L 360.102413 220.322987 
L 361.377963 227.298535 
L 362.653513 219.297128 
L 363.929063 220.528086 
L 365.204613 218.476489 
L 366.480163 211.090622 
L 367.755713 226.888216 
L 369.031263 222.579803 
L 370.306813 226.067578 
L 371.582363 228.119174 
L 372.857913 224.01586 
L 374.133463 213.552537 
L 375.409013 225.246939 
L 376.684563 214.373297 
L 377.960113 218.271391 
L 379.235664 218.68171 
L 380.511214 210.269983 
L 381.786764 224.426179 
L 383.062314 217.655851 
L 384.337864 216.835212 
L 386.888964 224.426179 
L 388.164514 217.245532 
L 389.440064 207.602847 
L 390.715614 227.093315 
L 391.991164 219.297128 
L 393.266714 214.578396 
L 395.817814 212.11648 
L 397.093364 219.092029 
L 398.368914 223.605541 
L 399.644464 203.909974 
L 400.920014 212.321579 
L 402.195564 229.965671 
L 403.471115 209.244124 
L 404.746665 226.477897 
L 406.022215 211.500941 
L 407.297765 215.193936 
L 408.573315 216.629992 
L 411.124415 217.450631 
L 412.399965 211.090622 
L 414.951065 220.322987 
L 416.226615 214.783616 
L 417.502165 221.348724 
L 418.777715 207.192528 
L 420.053265 211.295842 
L 421.328815 206.987429 
L 422.604365 212.11648 
L 423.879915 206.166669 
L 425.155465 211.706161 
L 426.431015 210.680302 
L 427.706566 210.269983 
L 428.982116 215.809354 
L 430.257666 212.731899 
L 431.533216 213.142218 
L 432.808766 209.859664 
L 434.084316 207.397748 
L 435.359866 213.347438 
L 436.635416 213.757757 
L 437.910966 206.987429 
L 439.186516 212.731899 
L 440.462066 208.013167 
L 441.737616 210.064763 
L 443.013166 208.218387 
L 444.288716 207.808068 
L 445.564266 209.859664 
L 446.839816 202.063477 
L 448.115366 204.320293 
L 449.390916 207.808068 
L 450.666466 209.449345 
L 451.942017 207.27831 
L 453.217567 204.320293 
L 454.493117 202.884115 
L 455.768667 207.602847 
L 457.044217 211.295842 
L 458.319767 207.808068 
L 459.595317 199.601561 
L 460.870867 206.166669 
L 462.146417 207.397748 
L 463.421967 208.833805 
L 464.697517 208.013167 
L 465.973067 197.344745 
L 467.248617 210.064763 
L 468.524167 209.449345 
L 469.799717 199.601561 
L 471.075267 210.885523 
L 472.350817 202.473796 
L 473.626367 206.576988 
L 474.901917 200.21698 
L 476.177467 203.704754 
L 477.453018 213.552537 
L 478.728568 205.140932 
L 480.004118 199.601561 
L 481.279668 203.704754 
L 482.555218 203.499655 
L 483.830768 203.089214 
L 485.106318 210.680302 
L 486.381868 211.91126 
L 487.657418 204.320293 
L 488.932968 215.193936 
L 490.208518 210.680302 
L 491.484068 202.884115 
L 492.759618 204.730613 
L 494.035168 205.75635 
L 495.310718 202.678895 
L 496.586268 203.089214 
L 497.861818 203.704754 
L 499.137368 216.835212 
L 500.412918 205.75635 
L 501.688469 205.551251 
L 502.964019 205.96157 
L 504.239569 201.653158 
L 505.515119 212.321579 
L 506.790669 192.420792 
L 508.066219 205.551251 
L 509.341769 205.96157 
L 510.617319 208.013167 
L 511.892869 201.037618 
L 513.168419 191.189835 
L 514.443969 213.962856 
L 515.719519 200.627299 
L 516.995069 198.575703 
L 518.270619 200.4222 
L 519.546169 208.218387 
L 520.821719 195.087928 
L 522.097269 203.089214 
L 523.372819 198.165383 
L 524.648369 203.909974 
L 525.92392 199.80666 
L 527.19947 203.499655 
L 528.47502 202.268576 
L 529.75057 203.089214 
L 531.02612 203.704754 
L 532.30167 211.295842 
L 533.57722 193.65175 
L 534.85277 210.475082 
L 536.12832 192.626013 
L 537.40387 203.704754 
L 538.67942 196.934426 
L 539.95497 206.166669 
L 541.23052 200.011881 
L 542.50607 204.525392 
L 543.78162 210.269983 
L 545.05717 193.036332 
L 546.33272 207.192528 
L 547.60827 197.344745 
L 548.88382 203.909974 
L 550.159371 199.601561 
L 551.434921 206.166669 
L 552.710471 195.087928 
L 553.986021 194.882708 
L 555.261571 205.140932 
L 556.537121 202.678895 
L 557.812671 197.344745 
L 559.088221 204.320293 
L 560.363771 193.65175 
L 561.639321 204.115073 
L 562.914871 200.627299 
L 564.190421 198.165383 
L 565.465971 197.960163 
L 566.741521 209.859664 
L 568.017071 184.214286 
L 569.292621 205.346031 
L 570.568171 206.37189 
L 571.843721 200.4222 
L 573.119271 203.704754 
L 574.394822 202.268576 
L 575.670372 194.472389 
L 576.945922 205.346031 
L 578.221472 199.601561 
L 579.497022 192.215572 
L 580.772572 202.473796 
L 582.048122 195.498248 
L 583.323672 206.782209 
L 584.599222 202.678895 
L 585.874772 200.627299 
L 587.150322 204.115073 
L 588.425872 189.753657 
L 589.701422 208.423486 
L 590.976972 195.498248 
L 592.252522 205.346031 
L 593.528072 196.318886 
L 594.803622 195.498248 
L 596.079172 196.934426 
L 597.354722 201.858256 
L 598.630273 195.293027 
L 599.905823 202.678895 
L 601.181373 189.548558 
L 602.456923 200.832519 
L 603.732473 197.549844 
L 605.008023 198.165383 
L 606.283573 197.960163 
L 607.559123 191.189835 
L 608.834673 200.21698 
L 610.110223 190.779516 
L 611.385773 202.678895 
L 612.661323 195.703346 
L 613.936873 196.524106 
L 615.212423 195.908567 
L 616.487973 195.703346 
L 617.763523 198.986022 
L 619.039073 199.191121 
L 620.314623 193.036332 
L 621.590173 205.551251 
L 622.865724 185.445244 
L 624.141274 206.37189 
L 625.416824 194.677609 
L 626.692374 202.268576 
L 627.967924 194.882708 
L 629.243474 195.087928 
L 630.519024 198.986022 
L 631.794574 200.627299 
L 633.070124 194.26729 
L 634.345674 196.729205 
L 635.621224 193.241431 
L 636.896774 198.986022 
L 638.172324 200.4222 
L 639.447874 195.703346 
L 640.723424 199.601561 
L 641.998974 201.037618 
L 643.274524 197.960163 
L 644.550074 191.805253 
L 645.825624 198.575703 
L 647.101175 195.703346 
L 648.376725 195.703346 
L 649.652275 197.344745 
L 650.927825 194.472389 
L 652.203375 196.661163 
L 653.478925 194.472389 
L 654.754475 196.729205 
L 656.030025 192.626013 
L 657.305575 194.677609 
L 658.581125 192.626013 
L 659.856675 196.934426 
L 661.132225 192.626013 
L 662.407775 197.755064 
L 663.683325 196.524106 
L 664.958875 195.908567 
L 666.234425 194.472389 
L 667.509975 196.524106 
L 668.785525 195.498248 
L 670.061075 192.626013 
L 671.336626 196.318886 
L 672.612176 195.908567 
L 673.887726 195.703346 
L 675.163276 202.473796 
L 676.438826 190.574295 
L 677.714376 194.882708 
L 678.989926 197.960163 
L 680.265476 192.626013 
L 682.816576 195.087928 
L 684.092126 197.960163 
L 685.367676 190.369196 
L 686.643226 197.549844 
L 687.918776 193.65175 
L 687.918776 193.65175 
" style="fill:none;stroke:#d7191c;stroke-linecap:square;stroke-width:1.5;"/>
   </g>
   <g id="patch_3">
    <path d="M 50.14375 337.159219 
L 50.14375 10.999219 
" style="fill:none;stroke:#000000;stroke-linecap:square;stroke-linejoin:miter;stroke-width:0.8;"/>
   </g>
   <g id="patch_4">
    <path d="M 719.74375 337.159219 
L 719.74375 10.999219 
" style="fill:none;stroke:#000000;stroke-linecap:square;stroke-linejoin:miter;stroke-width:0.8;"/>
   </g>
   <g id="patch_5">
    <path d="M 50.14375 337.159219 
L 719.74375 337.159219 
" style="fill:none;stroke:#000000;stroke-linecap:square;stroke-linejoin:miter;stroke-width:0.8;"/>
   </g>
   <g id="patch_6">
    <path d="M 50.14375 10.999219 
L 719.74375 10.999219 
" style="fill:none;stroke:#000000;stroke-linecap:square;stroke-linejoin:miter;stroke-width:0.8;"/>
   </g>
   <g id="legend_1">
    <g id="patch_7">
     <path d="M 57.14375 77.711719 
L 227.607813 77.711719 
Q 229.607813 77.711719 229.607813 75.711719 
L 229.607813 17.999219 
Q 229.607813 15.999219 227.607813 15.999219 
L 57.14375 15.999219 
Q 55.14375 15.999219 55.14375 17.999219 
L 55.14375 75.711719 
Q 55.14375 77.711719 57.14375 77.711719 
z
" style="fill:#ffffff;opacity:0.8;stroke:#cccccc;stroke-linejoin:miter;"/>
    </g>
    <g id="line2d_35">
     <path d="M 59.14375 24.097656 
L 79.14375 24.097656 
" style="fill:none;stroke:#abd9e9;stroke-linecap:square;stroke-width:1.5;"/>
    </g>
    <g id="line2d_36"/>
    <g id="text_18">
     <!-- Train -->
     <defs>
      <path d="M -0.296875 72.90625 
L 61.375 72.90625 
L 61.375 64.59375 
L 35.5 64.59375 
L 35.5 0 
L 25.59375 0 
L 25.59375 64.59375 
L -0.296875 64.59375 
z
" id="DejaVuSans-84"/>
      <path d="M 9.421875 54.6875 
L 18.40625 54.6875 
L 18.40625 0 
L 9.421875 0 
z
M 9.421875 75.984375 
L 18.40625 75.984375 
L 18.40625 64.59375 
L 9.421875 64.59375 
z
" id="DejaVuSans-105"/>
      <path d="M 54.890625 33.015625 
L 54.890625 0 
L 45.90625 0 
L 45.90625 32.71875 
Q 45.90625 40.484375 42.875 44.328125 
Q 39.84375 48.1875 33.796875 48.1875 
Q 26.515625 48.1875 22.3125 43.546875 
Q 18.109375 38.921875 18.109375 30.90625 
L 18.109375 0 
L 9.078125 0 
L 9.078125 54.6875 
L 18.109375 54.6875 
L 18.109375 46.1875 
Q 21.34375 51.125 25.703125 53.5625 
Q 30.078125 56 35.796875 56 
Q 45.21875 56 50.046875 50.171875 
Q 54.890625 44.34375 54.890625 33.015625 
z
" id="DejaVuSans-110"/>
     </defs>
     <g transform="translate(87.14375 27.597656)scale(0.1 -0.1)">
      <use xlink:href="#DejaVuSans-84"/>
      <use x="60.865234" xlink:href="#DejaVuSans-114"/>
      <use x="101.978516" xlink:href="#DejaVuSans-97"/>
      <use x="163.257812" xlink:href="#DejaVuSans-105"/>
      <use x="191.041016" xlink:href="#DejaVuSans-110"/>
     </g>
    </g>
    <g id="line2d_37">
     <path d="M 59.14375 38.775781 
L 79.14375 38.775781 
" style="fill:none;stroke:#2c7bb6;stroke-linecap:square;stroke-width:1.5;"/>
    </g>
    <g id="line2d_38"/>
    <g id="text_19">
     <!-- Validation -->
     <defs>
      <path d="M 28.609375 0 
L 0.78125 72.90625 
L 11.078125 72.90625 
L 34.1875 11.53125 
L 57.328125 72.90625 
L 67.578125 72.90625 
L 39.796875 0 
z
" id="DejaVuSans-86"/>
      <path d="M 9.421875 75.984375 
L 18.40625 75.984375 
L 18.40625 0 
L 9.421875 0 
z
" id="DejaVuSans-108"/>
      <path d="M 45.40625 46.390625 
L 45.40625 75.984375 
L 54.390625 75.984375 
L 54.390625 0 
L 45.40625 0 
L 45.40625 8.203125 
Q 42.578125 3.328125 38.25 0.953125 
Q 33.9375 -1.421875 27.875 -1.421875 
Q 17.96875 -1.421875 11.734375 6.484375 
Q 5.515625 14.40625 5.515625 27.296875 
Q 5.515625 40.1875 11.734375 48.09375 
Q 17.96875 56 27.875 56 
Q 33.9375 56 38.25 53.625 
Q 42.578125 51.265625 45.40625 46.390625 
z
M 14.796875 27.296875 
Q 14.796875 17.390625 18.875 11.75 
Q 22.953125 6.109375 30.078125 6.109375 
Q 37.203125 6.109375 41.296875 11.75 
Q 45.40625 17.390625 45.40625 27.296875 
Q 45.40625 37.203125 41.296875 42.84375 
Q 37.203125 48.484375 30.078125 48.484375 
Q 22.953125 48.484375 18.875 42.84375 
Q 14.796875 37.203125 14.796875 27.296875 
z
" id="DejaVuSans-100"/>
      <path d="M 18.3125 70.21875 
L 18.3125 54.6875 
L 36.8125 54.6875 
L 36.8125 47.703125 
L 18.3125 47.703125 
L 18.3125 18.015625 
Q 18.3125 11.328125 20.140625 9.421875 
Q 21.96875 7.515625 27.59375 7.515625 
L 36.8125 7.515625 
L 36.8125 0 
L 27.59375 0 
Q 17.1875 0 13.234375 3.875 
Q 9.28125 7.765625 9.28125 18.015625 
L 9.28125 47.703125 
L 2.6875 47.703125 
L 2.6875 54.6875 
L 9.28125 54.6875 
L 9.28125 70.21875 
z
" id="DejaVuSans-116"/>
     </defs>
     <g transform="translate(87.14375 42.275781)scale(0.1 -0.1)">
      <use xlink:href="#DejaVuSans-86"/>
      <use x="68.298828" xlink:href="#DejaVuSans-97"/>
      <use x="129.578125" xlink:href="#DejaVuSans-108"/>
      <use x="157.361328" xlink:href="#DejaVuSans-105"/>
      <use x="185.144531" xlink:href="#DejaVuSans-100"/>
      <use x="248.621094" xlink:href="#DejaVuSans-97"/>
      <use x="309.900391" xlink:href="#DejaVuSans-116"/>
      <use x="349.109375" xlink:href="#DejaVuSans-105"/>
      <use x="376.892578" xlink:href="#DejaVuSans-111"/>
      <use x="438.074219" xlink:href="#DejaVuSans-110"/>
     </g>
    </g>
    <g id="line2d_39">
     <path d="M 59.14375 53.453906 
L 79.14375 53.453906 
" style="fill:none;stroke:#fdae61;stroke-linecap:square;stroke-width:1.5;"/>
    </g>
    <g id="line2d_40"/>
    <g id="text_20">
     <!-- No regularization train -->
     <defs>
      <path d="M 9.8125 72.90625 
L 23.09375 72.90625 
L 55.421875 11.921875 
L 55.421875 72.90625 
L 64.984375 72.90625 
L 64.984375 0 
L 51.703125 0 
L 19.390625 60.984375 
L 19.390625 0 
L 9.8125 0 
z
" id="DejaVuSans-78"/>
      <path id="DejaVuSans-32"/>
      <path d="M 56.203125 29.59375 
L 56.203125 25.203125 
L 14.890625 25.203125 
Q 15.484375 15.921875 20.484375 11.0625 
Q 25.484375 6.203125 34.421875 6.203125 
Q 39.59375 6.203125 44.453125 7.46875 
Q 49.3125 8.734375 54.109375 11.28125 
L 54.109375 2.78125 
Q 49.265625 0.734375 44.1875 -0.34375 
Q 39.109375 -1.421875 33.890625 -1.421875 
Q 20.796875 -1.421875 13.15625 6.1875 
Q 5.515625 13.8125 5.515625 26.8125 
Q 5.515625 40.234375 12.765625 48.109375 
Q 20.015625 56 32.328125 56 
Q 43.359375 56 49.78125 48.890625 
Q 56.203125 41.796875 56.203125 29.59375 
z
M 47.21875 32.234375 
Q 47.125 39.59375 43.09375 43.984375 
Q 39.0625 48.390625 32.421875 48.390625 
Q 24.90625 48.390625 20.390625 44.140625 
Q 15.875 39.890625 15.1875 32.171875 
z
" id="DejaVuSans-101"/>
      <path d="M 45.40625 27.984375 
Q 45.40625 37.75 41.375 43.109375 
Q 37.359375 48.484375 30.078125 48.484375 
Q 22.859375 48.484375 18.828125 43.109375 
Q 14.796875 37.75 14.796875 27.984375 
Q 14.796875 18.265625 18.828125 12.890625 
Q 22.859375 7.515625 30.078125 7.515625 
Q 37.359375 7.515625 41.375 12.890625 
Q 45.40625 18.265625 45.40625 27.984375 
z
M 54.390625 6.78125 
Q 54.390625 -7.171875 48.1875 -13.984375 
Q 42 -20.796875 29.203125 -20.796875 
Q 24.46875 -20.796875 20.265625 -20.09375 
Q 16.0625 -19.390625 12.109375 -17.921875 
L 12.109375 -9.1875 
Q 16.0625 -11.328125 19.921875 -12.34375 
Q 23.78125 -13.375 27.78125 -13.375 
Q 36.625 -13.375 41.015625 -8.765625 
Q 45.40625 -4.15625 45.40625 5.171875 
L 45.40625 9.625 
Q 42.625 4.78125 38.28125 2.390625 
Q 33.9375 0 27.875 0 
Q 17.828125 0 11.671875 7.65625 
Q 5.515625 15.328125 5.515625 27.984375 
Q 5.515625 40.671875 11.671875 48.328125 
Q 17.828125 56 27.875 56 
Q 33.9375 56 38.28125 53.609375 
Q 42.625 51.21875 45.40625 46.390625 
L 45.40625 54.6875 
L 54.390625 54.6875 
z
" id="DejaVuSans-103"/>
      <path d="M 5.515625 54.6875 
L 48.1875 54.6875 
L 48.1875 46.484375 
L 14.40625 7.171875 
L 48.1875 7.171875 
L 48.1875 0 
L 4.296875 0 
L 4.296875 8.203125 
L 38.09375 47.515625 
L 5.515625 47.515625 
z
" id="DejaVuSans-122"/>
     </defs>
     <g transform="translate(87.14375 56.953906)scale(0.1 -0.1)">
      <use xlink:href="#DejaVuSans-78"/>
      <use x="74.804688" xlink:href="#DejaVuSans-111"/>
      <use x="135.986328" xlink:href="#DejaVuSans-32"/>
      <use x="167.773438" xlink:href="#DejaVuSans-114"/>
      <use x="208.855469" xlink:href="#DejaVuSans-101"/>
      <use x="270.378906" xlink:href="#DejaVuSans-103"/>
      <use x="333.855469" xlink:href="#DejaVuSans-117"/>
      <use x="397.234375" xlink:href="#DejaVuSans-108"/>
      <use x="425.017578" xlink:href="#DejaVuSans-97"/>
      <use x="486.296875" xlink:href="#DejaVuSans-114"/>
      <use x="527.410156" xlink:href="#DejaVuSans-105"/>
      <use x="555.193359" xlink:href="#DejaVuSans-122"/>
      <use x="607.683594" xlink:href="#DejaVuSans-97"/>
      <use x="668.962891" xlink:href="#DejaVuSans-116"/>
      <use x="708.171875" xlink:href="#DejaVuSans-105"/>
      <use x="735.955078" xlink:href="#DejaVuSans-111"/>
      <use x="797.136719" xlink:href="#DejaVuSans-110"/>
      <use x="860.515625" xlink:href="#DejaVuSans-32"/>
      <use x="892.302734" xlink:href="#DejaVuSans-116"/>
      <use x="931.511719" xlink:href="#DejaVuSans-114"/>
      <use x="972.625" xlink:href="#DejaVuSans-97"/>
      <use x="1033.904297" xlink:href="#DejaVuSans-105"/>
      <use x="1061.6875" xlink:href="#DejaVuSans-110"/>
     </g>
    </g>
    <g id="line2d_41">
     <path d="M 59.14375 68.132031 
L 79.14375 68.132031 
" style="fill:none;stroke:#d7191c;stroke-linecap:square;stroke-width:1.5;"/>
    </g>
    <g id="line2d_42"/>
    <g id="text_21">
     <!-- No regularization validation -->
     <defs>
      <path d="M 2.984375 54.6875 
L 12.5 54.6875 
L 29.59375 8.796875 
L 46.6875 54.6875 
L 56.203125 54.6875 
L 35.6875 0 
L 23.484375 0 
z
" id="DejaVuSans-118"/>
     </defs>
     <g transform="translate(87.14375 71.632031)scale(0.1 -0.1)">
      <use xlink:href="#DejaVuSans-78"/>
      <use x="74.804688" xlink:href="#DejaVuSans-111"/>
      <use x="135.986328" xlink:href="#DejaVuSans-32"/>
      <use x="167.773438" xlink:href="#DejaVuSans-114"/>
      <use x="208.855469" xlink:href="#DejaVuSans-101"/>
      <use x="270.378906" xlink:href="#DejaVuSans-103"/>
      <use x="333.855469" xlink:href="#DejaVuSans-117"/>
      <use x="397.234375" xlink:href="#DejaVuSans-108"/>
      <use x="425.017578" xlink:href="#DejaVuSans-97"/>
      <use x="486.296875" xlink:href="#DejaVuSans-114"/>
      <use x="527.410156" xlink:href="#DejaVuSans-105"/>
      <use x="555.193359" xlink:href="#DejaVuSans-122"/>
      <use x="607.683594" xlink:href="#DejaVuSans-97"/>
      <use x="668.962891" xlink:href="#DejaVuSans-116"/>
      <use x="708.171875" xlink:href="#DejaVuSans-105"/>
      <use x="735.955078" xlink:href="#DejaVuSans-111"/>
      <use x="797.136719" xlink:href="#DejaVuSans-110"/>
      <use x="860.515625" xlink:href="#DejaVuSans-32"/>
      <use x="892.302734" xlink:href="#DejaVuSans-118"/>
      <use x="951.482422" xlink:href="#DejaVuSans-97"/>
      <use x="1012.761719" xlink:href="#DejaVuSans-108"/>
      <use x="1040.544922" xlink:href="#DejaVuSans-105"/>
      <use x="1068.328125" xlink:href="#DejaVuSans-100"/>
      <use x="1131.804688" xlink:href="#DejaVuSans-97"/>
      <use x="1193.083984" xlink:href="#DejaVuSans-116"/>
      <use x="1232.292969" xlink:href="#DejaVuSans-105"/>
      <use x="1260.076172" xlink:href="#DejaVuSans-111"/>
      <use x="1321.257812" xlink:href="#DejaVuSans-110"/>
     </g>
    </g>
   </g>
  </g>
 </g>
 <defs>
  <clipPath id="p49918a2694">
   <rect height="326.16" width="669.6" x="50.14375" y="10.999219"/>
  </clipPath>
 </defs>
</svg>
