<?xml version="1.0" encoding="utf-8" standalone="no"?>
<!DOCTYPE svg PUBLIC "-//W3C//DTD SVG 1.1//EN"
  "http://www.w3.org/Graphics/SVG/1.1/DTD/svg11.dtd">
<!-- Created with matplotlib (https://matplotlib.org/) -->
<svg height="370.91625pt" version="1.1" viewBox="0 0 726.94375 370.91625" width="726.94375pt" xmlns="http://www.w3.org/2000/svg" xmlns:xlink="http://www.w3.org/1999/xlink">
 <defs>
  <style type="text/css">
*{stroke-linecap:butt;stroke-linejoin:round;white-space:pre;}
  </style>
 </defs>
 <g id="figure_1">
  <g id="patch_1">
   <path d="M 0 370.91625 
L 726.94375 370.91625 
L 726.94375 0 
L 0 0 
z
" style="fill:#ffffff;"/>
  </g>
  <g id="axes_1">
   <g id="patch_2">
    <path d="M 50.14375 333.36 
L 719.74375 333.36 
L 719.74375 7.2 
L 50.14375 7.2 
z
" style="fill:#ffffff;"/>
   </g>
   <g id="matplotlib.axis_1">
    <g id="xtick_1">
     <g id="line2d_1">
      <path clip-path="url(#pcf75f87982)" d="M 50.14375 333.36 
L 50.14375 7.2 
" style="fill:none;stroke:#b0b0b0;stroke-linecap:square;stroke-width:0.8;"/>
     </g>
     <g id="line2d_2">
      <defs>
       <path d="M 0 0 
L 0 3.5 
" id="m3fa8db8853" style="stroke:#000000;stroke-width:0.8;"/>
      </defs>
      <g>
       <use style="stroke:#000000;stroke-width:0.8;" x="50.14375" xlink:href="#m3fa8db8853" y="333.36"/>
      </g>
     </g>
     <g id="text_1">
      <!-- 0 -->
      <defs>
       <path d="M 31.78125 66.40625 
Q 24.171875 66.40625 20.328125 58.90625 
Q 16.5 51.421875 16.5 36.375 
Q 16.5 21.390625 20.328125 13.890625 
Q 24.171875 6.390625 31.78125 6.390625 
Q 39.453125 6.390625 43.28125 13.890625 
Q 47.125 21.390625 47.125 36.375 
Q 47.125 51.421875 43.28125 58.90625 
Q 39.453125 66.40625 31.78125 66.40625 
z
M 31.78125 74.21875 
Q 44.046875 74.21875 50.515625 64.515625 
Q 56.984375 54.828125 56.984375 36.375 
Q 56.984375 17.96875 50.515625 8.265625 
Q 44.046875 -1.421875 31.78125 -1.421875 
Q 19.53125 -1.421875 13.0625 8.265625 
Q 6.59375 17.96875 6.59375 36.375 
Q 6.59375 54.828125 13.0625 64.515625 
Q 19.53125 74.21875 31.78125 74.21875 
z
" id="DejaVuSans-48"/>
      </defs>
      <g transform="translate(46.9625 347.958438)scale(0.1 -0.1)">
       <use xlink:href="#DejaVuSans-48"/>
      </g>
     </g>
    </g>
    <g id="xtick_2">
     <g id="line2d_3">
      <path clip-path="url(#pcf75f87982)" d="M 177.698755 333.36 
L 177.698755 7.2 
" style="fill:none;stroke:#b0b0b0;stroke-linecap:square;stroke-width:0.8;"/>
     </g>
     <g id="line2d_4">
      <g>
       <use style="stroke:#000000;stroke-width:0.8;" x="177.698755" xlink:href="#m3fa8db8853" y="333.36"/>
      </g>
     </g>
     <g id="text_2">
      <!-- 100 -->
      <defs>
       <path d="M 12.40625 8.296875 
L 28.515625 8.296875 
L 28.515625 63.921875 
L 10.984375 60.40625 
L 10.984375 69.390625 
L 28.421875 72.90625 
L 38.28125 72.90625 
L 38.28125 8.296875 
L 54.390625 8.296875 
L 54.390625 0 
L 12.40625 0 
z
" id="DejaVuSans-49"/>
      </defs>
      <g transform="translate(168.155005 347.958438)scale(0.1 -0.1)">
       <use xlink:href="#DejaVuSans-49"/>
       <use x="63.623047" xlink:href="#DejaVuSans-48"/>
       <use x="127.246094" xlink:href="#DejaVuSans-48"/>
      </g>
     </g>
    </g>
    <g id="xtick_3">
     <g id="line2d_5">
      <path clip-path="url(#pcf75f87982)" d="M 305.25376 333.36 
L 305.25376 7.2 
" style="fill:none;stroke:#b0b0b0;stroke-linecap:square;stroke-width:0.8;"/>
     </g>
     <g id="line2d_6">
      <g>
       <use style="stroke:#000000;stroke-width:0.8;" x="305.25376" xlink:href="#m3fa8db8853" y="333.36"/>
      </g>
     </g>
     <g id="text_3">
      <!-- 200 -->
      <defs>
       <path d="M 19.1875 8.296875 
L 53.609375 8.296875 
L 53.609375 0 
L 7.328125 0 
L 7.328125 8.296875 
Q 12.9375 14.109375 22.625 23.890625 
Q 32.328125 33.6875 34.8125 36.53125 
Q 39.546875 41.84375 41.421875 45.53125 
Q 43.3125 49.21875 43.3125 52.78125 
Q 43.3125 58.59375 39.234375 62.25 
Q 35.15625 65.921875 28.609375 65.921875 
Q 23.96875 65.921875 18.8125 64.3125 
Q 13.671875 62.703125 7.8125 59.421875 
L 7.8125 69.390625 
Q 13.765625 71.78125 18.9375 73 
Q 24.125 74.21875 28.421875 74.21875 
Q 39.75 74.21875 46.484375 68.546875 
Q 53.21875 62.890625 53.21875 53.421875 
Q 53.21875 48.921875 51.53125 44.890625 
Q 49.859375 40.875 45.40625 35.40625 
Q 44.1875 33.984375 37.640625 27.21875 
Q 31.109375 20.453125 19.1875 8.296875 
z
" id="DejaVuSans-50"/>
      </defs>
      <g transform="translate(295.71001 347.958438)scale(0.1 -0.1)">
       <use xlink:href="#DejaVuSans-50"/>
       <use x="63.623047" xlink:href="#DejaVuSans-48"/>
       <use x="127.246094" xlink:href="#DejaVuSans-48"/>
      </g>
     </g>
    </g>
    <g id="xtick_4">
     <g id="line2d_7">
      <path clip-path="url(#pcf75f87982)" d="M 432.808766 333.36 
L 432.808766 7.2 
" style="fill:none;stroke:#b0b0b0;stroke-linecap:square;stroke-width:0.8;"/>
     </g>
     <g id="line2d_8">
      <g>
       <use style="stroke:#000000;stroke-width:0.8;" x="432.808766" xlink:href="#m3fa8db8853" y="333.36"/>
      </g>
     </g>
     <g id="text_4">
      <!-- 300 -->
      <defs>
       <path d="M 40.578125 39.3125 
Q 47.65625 37.796875 51.625 33 
Q 55.609375 28.21875 55.609375 21.1875 
Q 55.609375 10.40625 48.1875 4.484375 
Q 40.765625 -1.421875 27.09375 -1.421875 
Q 22.515625 -1.421875 17.65625 -0.515625 
Q 12.796875 0.390625 7.625 2.203125 
L 7.625 11.71875 
Q 11.71875 9.328125 16.59375 8.109375 
Q 21.484375 6.890625 26.8125 6.890625 
Q 36.078125 6.890625 40.9375 10.546875 
Q 45.796875 14.203125 45.796875 21.1875 
Q 45.796875 27.640625 41.28125 31.265625 
Q 36.765625 34.90625 28.71875 34.90625 
L 20.21875 34.90625 
L 20.21875 43.015625 
L 29.109375 43.015625 
Q 36.375 43.015625 40.234375 45.921875 
Q 44.09375 48.828125 44.09375 54.296875 
Q 44.09375 59.90625 40.109375 62.90625 
Q 36.140625 65.921875 28.71875 65.921875 
Q 24.65625 65.921875 20.015625 65.03125 
Q 15.375 64.15625 9.8125 62.3125 
L 9.8125 71.09375 
Q 15.4375 72.65625 20.34375 73.4375 
Q 25.25 74.21875 29.59375 74.21875 
Q 40.828125 74.21875 47.359375 69.109375 
Q 53.90625 64.015625 53.90625 55.328125 
Q 53.90625 49.265625 50.4375 45.09375 
Q 46.96875 40.921875 40.578125 39.3125 
z
" id="DejaVuSans-51"/>
      </defs>
      <g transform="translate(423.265016 347.958438)scale(0.1 -0.1)">
       <use xlink:href="#DejaVuSans-51"/>
       <use x="63.623047" xlink:href="#DejaVuSans-48"/>
       <use x="127.246094" xlink:href="#DejaVuSans-48"/>
      </g>
     </g>
    </g>
    <g id="xtick_5">
     <g id="line2d_9">
      <path clip-path="url(#pcf75f87982)" d="M 560.363771 333.36 
L 560.363771 7.2 
" style="fill:none;stroke:#b0b0b0;stroke-linecap:square;stroke-width:0.8;"/>
     </g>
     <g id="line2d_10">
      <g>
       <use style="stroke:#000000;stroke-width:0.8;" x="560.363771" xlink:href="#m3fa8db8853" y="333.36"/>
      </g>
     </g>
     <g id="text_5">
      <!-- 400 -->
      <defs>
       <path d="M 37.796875 64.3125 
L 12.890625 25.390625 
L 37.796875 25.390625 
z
M 35.203125 72.90625 
L 47.609375 72.90625 
L 47.609375 25.390625 
L 58.015625 25.390625 
L 58.015625 17.1875 
L 47.609375 17.1875 
L 47.609375 0 
L 37.796875 0 
L 37.796875 17.1875 
L 4.890625 17.1875 
L 4.890625 26.703125 
z
" id="DejaVuSans-52"/>
      </defs>
      <g transform="translate(550.820021 347.958438)scale(0.1 -0.1)">
       <use xlink:href="#DejaVuSans-52"/>
       <use x="63.623047" xlink:href="#DejaVuSans-48"/>
       <use x="127.246094" xlink:href="#DejaVuSans-48"/>
      </g>
     </g>
    </g>
    <g id="xtick_6">
     <g id="line2d_11">
      <path clip-path="url(#pcf75f87982)" d="M 687.918776 333.36 
L 687.918776 7.2 
" style="fill:none;stroke:#b0b0b0;stroke-linecap:square;stroke-width:0.8;"/>
     </g>
     <g id="line2d_12">
      <g>
       <use style="stroke:#000000;stroke-width:0.8;" x="687.918776" xlink:href="#m3fa8db8853" y="333.36"/>
      </g>
     </g>
     <g id="text_6">
      <!-- 500 -->
      <defs>
       <path d="M 10.796875 72.90625 
L 49.515625 72.90625 
L 49.515625 64.59375 
L 19.828125 64.59375 
L 19.828125 46.734375 
Q 21.96875 47.46875 24.109375 47.828125 
Q 26.265625 48.1875 28.421875 48.1875 
Q 40.625 48.1875 47.75 41.5 
Q 54.890625 34.8125 54.890625 23.390625 
Q 54.890625 11.625 47.5625 5.09375 
Q 40.234375 -1.421875 26.90625 -1.421875 
Q 22.3125 -1.421875 17.546875 -0.640625 
Q 12.796875 0.140625 7.71875 1.703125 
L 7.71875 11.625 
Q 12.109375 9.234375 16.796875 8.0625 
Q 21.484375 6.890625 26.703125 6.890625 
Q 35.15625 6.890625 40.078125 11.328125 
Q 45.015625 15.765625 45.015625 23.390625 
Q 45.015625 31 40.078125 35.4375 
Q 35.15625 39.890625 26.703125 39.890625 
Q 22.75 39.890625 18.8125 39.015625 
Q 14.890625 38.140625 10.796875 36.28125 
z
" id="DejaVuSans-53"/>
      </defs>
      <g transform="translate(678.375026 347.958438)scale(0.1 -0.1)">
       <use xlink:href="#DejaVuSans-53"/>
       <use x="63.623047" xlink:href="#DejaVuSans-48"/>
       <use x="127.246094" xlink:href="#DejaVuSans-48"/>
      </g>
     </g>
    </g>
    <g id="text_7">
     <!-- Epoch -->
     <defs>
      <path d="M 9.8125 72.90625 
L 55.90625 72.90625 
L 55.90625 64.59375 
L 19.671875 64.59375 
L 19.671875 43.015625 
L 54.390625 43.015625 
L 54.390625 34.71875 
L 19.671875 34.71875 
L 19.671875 8.296875 
L 56.78125 8.296875 
L 56.78125 0 
L 9.8125 0 
z
" id="DejaVuSans-69"/>
      <path d="M 18.109375 8.203125 
L 18.109375 -20.796875 
L 9.078125 -20.796875 
L 9.078125 54.6875 
L 18.109375 54.6875 
L 18.109375 46.390625 
Q 20.953125 51.265625 25.265625 53.625 
Q 29.59375 56 35.59375 56 
Q 45.5625 56 51.78125 48.09375 
Q 58.015625 40.1875 58.015625 27.296875 
Q 58.015625 14.40625 51.78125 6.484375 
Q 45.5625 -1.421875 35.59375 -1.421875 
Q 29.59375 -1.421875 25.265625 0.953125 
Q 20.953125 3.328125 18.109375 8.203125 
z
M 48.6875 27.296875 
Q 48.6875 37.203125 44.609375 42.84375 
Q 40.53125 48.484375 33.40625 48.484375 
Q 26.265625 48.484375 22.1875 42.84375 
Q 18.109375 37.203125 18.109375 27.296875 
Q 18.109375 17.390625 22.1875 11.75 
Q 26.265625 6.109375 33.40625 6.109375 
Q 40.53125 6.109375 44.609375 11.75 
Q 48.6875 17.390625 48.6875 27.296875 
z
" id="DejaVuSans-112"/>
      <path d="M 30.609375 48.390625 
Q 23.390625 48.390625 19.1875 42.75 
Q 14.984375 37.109375 14.984375 27.296875 
Q 14.984375 17.484375 19.15625 11.84375 
Q 23.34375 6.203125 30.609375 6.203125 
Q 37.796875 6.203125 41.984375 11.859375 
Q 46.1875 17.53125 46.1875 27.296875 
Q 46.1875 37.015625 41.984375 42.703125 
Q 37.796875 48.390625 30.609375 48.390625 
z
M 30.609375 56 
Q 42.328125 56 49.015625 48.375 
Q 55.71875 40.765625 55.71875 27.296875 
Q 55.71875 13.875 49.015625 6.21875 
Q 42.328125 -1.421875 30.609375 -1.421875 
Q 18.84375 -1.421875 12.171875 6.21875 
Q 5.515625 13.875 5.515625 27.296875 
Q 5.515625 40.765625 12.171875 48.375 
Q 18.84375 56 30.609375 56 
z
" id="DejaVuSans-111"/>
      <path d="M 48.78125 52.59375 
L 48.78125 44.1875 
Q 44.96875 46.296875 41.140625 47.34375 
Q 37.3125 48.390625 33.40625 48.390625 
Q 24.65625 48.390625 19.8125 42.84375 
Q 14.984375 37.3125 14.984375 27.296875 
Q 14.984375 17.28125 19.8125 11.734375 
Q 24.65625 6.203125 33.40625 6.203125 
Q 37.3125 6.203125 41.140625 7.25 
Q 44.96875 8.296875 48.78125 10.40625 
L 48.78125 2.09375 
Q 45.015625 0.34375 40.984375 -0.53125 
Q 36.96875 -1.421875 32.421875 -1.421875 
Q 20.0625 -1.421875 12.78125 6.34375 
Q 5.515625 14.109375 5.515625 27.296875 
Q 5.515625 40.671875 12.859375 48.328125 
Q 20.21875 56 33.015625 56 
Q 37.15625 56 41.109375 55.140625 
Q 45.0625 54.296875 48.78125 52.59375 
z
" id="DejaVuSans-99"/>
      <path d="M 54.890625 33.015625 
L 54.890625 0 
L 45.90625 0 
L 45.90625 32.71875 
Q 45.90625 40.484375 42.875 44.328125 
Q 39.84375 48.1875 33.796875 48.1875 
Q 26.515625 48.1875 22.3125 43.546875 
Q 18.109375 38.921875 18.109375 30.90625 
L 18.109375 0 
L 9.078125 0 
L 9.078125 75.984375 
L 18.109375 75.984375 
L 18.109375 46.1875 
Q 21.34375 51.125 25.703125 53.5625 
Q 30.078125 56 35.796875 56 
Q 45.21875 56 50.046875 50.171875 
Q 54.890625 44.34375 54.890625 33.015625 
z
" id="DejaVuSans-104"/>
     </defs>
     <g transform="translate(369.632813 361.636562)scale(0.1 -0.1)">
      <use xlink:href="#DejaVuSans-69"/>
      <use x="63.183594" xlink:href="#DejaVuSans-112"/>
      <use x="126.660156" xlink:href="#DejaVuSans-111"/>
      <use x="187.841797" xlink:href="#DejaVuSans-99"/>
      <use x="242.822266" xlink:href="#DejaVuSans-104"/>
     </g>
    </g>
   </g>
   <g id="matplotlib.axis_2">
    <g id="ytick_1">
     <g id="line2d_13">
      <path clip-path="url(#pcf75f87982)" d="M 50.14375 333.36 
L 719.74375 333.36 
" style="fill:none;stroke:#b0b0b0;stroke-linecap:square;stroke-width:0.8;"/>
     </g>
     <g id="line2d_14">
      <defs>
       <path d="M 0 0 
L -3.5 0 
" id="m4cf1b2035c" style="stroke:#000000;stroke-width:0.8;"/>
      </defs>
      <g>
       <use style="stroke:#000000;stroke-width:0.8;" x="50.14375" xlink:href="#m4cf1b2035c" y="333.36"/>
      </g>
     </g>
     <g id="text_8">
      <!-- 0.82 -->
      <defs>
       <path d="M 10.6875 12.40625 
L 21 12.40625 
L 21 0 
L 10.6875 0 
z
" id="DejaVuSans-46"/>
       <path d="M 31.78125 34.625 
Q 24.75 34.625 20.71875 30.859375 
Q 16.703125 27.09375 16.703125 20.515625 
Q 16.703125 13.921875 20.71875 10.15625 
Q 24.75 6.390625 31.78125 6.390625 
Q 38.8125 6.390625 42.859375 10.171875 
Q 46.921875 13.96875 46.921875 20.515625 
Q 46.921875 27.09375 42.890625 30.859375 
Q 38.875 34.625 31.78125 34.625 
z
M 21.921875 38.8125 
Q 15.578125 40.375 12.03125 44.71875 
Q 8.5 49.078125 8.5 55.328125 
Q 8.5 64.0625 14.71875 69.140625 
Q 20.953125 74.21875 31.78125 74.21875 
Q 42.671875 74.21875 48.875 69.140625 
Q 55.078125 64.0625 55.078125 55.328125 
Q 55.078125 49.078125 51.53125 44.71875 
Q 48 40.375 41.703125 38.8125 
Q 48.828125 37.15625 52.796875 32.3125 
Q 56.78125 27.484375 56.78125 20.515625 
Q 56.78125 9.90625 50.3125 4.234375 
Q 43.84375 -1.421875 31.78125 -1.421875 
Q 19.734375 -1.421875 13.25 4.234375 
Q 6.78125 9.90625 6.78125 20.515625 
Q 6.78125 27.484375 10.78125 32.3125 
Q 14.796875 37.15625 21.921875 38.8125 
z
M 18.3125 54.390625 
Q 18.3125 48.734375 21.84375 45.5625 
Q 25.390625 42.390625 31.78125 42.390625 
Q 38.140625 42.390625 41.71875 45.5625 
Q 45.3125 48.734375 45.3125 54.390625 
Q 45.3125 60.0625 41.71875 63.234375 
Q 38.140625 66.40625 31.78125 66.40625 
Q 25.390625 66.40625 21.84375 63.234375 
Q 18.3125 60.0625 18.3125 54.390625 
z
" id="DejaVuSans-56"/>
      </defs>
      <g transform="translate(20.878125 337.159219)scale(0.1 -0.1)">
       <use xlink:href="#DejaVuSans-48"/>
       <use x="63.623047" xlink:href="#DejaVuSans-46"/>
       <use x="95.410156" xlink:href="#DejaVuSans-56"/>
       <use x="159.033203" xlink:href="#DejaVuSans-50"/>
      </g>
     </g>
    </g>
    <g id="ytick_2">
     <g id="line2d_15">
      <path clip-path="url(#pcf75f87982)" d="M 50.14375 294.988235 
L 719.74375 294.988235 
" style="fill:none;stroke:#b0b0b0;stroke-linecap:square;stroke-width:0.8;"/>
     </g>
     <g id="line2d_16">
      <g>
       <use style="stroke:#000000;stroke-width:0.8;" x="50.14375" xlink:href="#m4cf1b2035c" y="294.988235"/>
      </g>
     </g>
     <g id="text_9">
      <!-- 0.84 -->
      <g transform="translate(20.878125 298.787454)scale(0.1 -0.1)">
       <use xlink:href="#DejaVuSans-48"/>
       <use x="63.623047" xlink:href="#DejaVuSans-46"/>
       <use x="95.410156" xlink:href="#DejaVuSans-56"/>
       <use x="159.033203" xlink:href="#DejaVuSans-52"/>
      </g>
     </g>
    </g>
    <g id="ytick_3">
     <g id="line2d_17">
      <path clip-path="url(#pcf75f87982)" d="M 50.14375 256.616471 
L 719.74375 256.616471 
" style="fill:none;stroke:#b0b0b0;stroke-linecap:square;stroke-width:0.8;"/>
     </g>
     <g id="line2d_18">
      <g>
       <use style="stroke:#000000;stroke-width:0.8;" x="50.14375" xlink:href="#m4cf1b2035c" y="256.616471"/>
      </g>
     </g>
     <g id="text_10">
      <!-- 0.86 -->
      <defs>
       <path d="M 33.015625 40.375 
Q 26.375 40.375 22.484375 35.828125 
Q 18.609375 31.296875 18.609375 23.390625 
Q 18.609375 15.53125 22.484375 10.953125 
Q 26.375 6.390625 33.015625 6.390625 
Q 39.65625 6.390625 43.53125 10.953125 
Q 47.40625 15.53125 47.40625 23.390625 
Q 47.40625 31.296875 43.53125 35.828125 
Q 39.65625 40.375 33.015625 40.375 
z
M 52.59375 71.296875 
L 52.59375 62.3125 
Q 48.875 64.0625 45.09375 64.984375 
Q 41.3125 65.921875 37.59375 65.921875 
Q 27.828125 65.921875 22.671875 59.328125 
Q 17.53125 52.734375 16.796875 39.40625 
Q 19.671875 43.65625 24.015625 45.921875 
Q 28.375 48.1875 33.59375 48.1875 
Q 44.578125 48.1875 50.953125 41.515625 
Q 57.328125 34.859375 57.328125 23.390625 
Q 57.328125 12.15625 50.6875 5.359375 
Q 44.046875 -1.421875 33.015625 -1.421875 
Q 20.359375 -1.421875 13.671875 8.265625 
Q 6.984375 17.96875 6.984375 36.375 
Q 6.984375 53.65625 15.1875 63.9375 
Q 23.390625 74.21875 37.203125 74.21875 
Q 40.921875 74.21875 44.703125 73.484375 
Q 48.484375 72.75 52.59375 71.296875 
z
" id="DejaVuSans-54"/>
      </defs>
      <g transform="translate(20.878125 260.415689)scale(0.1 -0.1)">
       <use xlink:href="#DejaVuSans-48"/>
       <use x="63.623047" xlink:href="#DejaVuSans-46"/>
       <use x="95.410156" xlink:href="#DejaVuSans-56"/>
       <use x="159.033203" xlink:href="#DejaVuSans-54"/>
      </g>
     </g>
    </g>
    <g id="ytick_4">
     <g id="line2d_19">
      <path clip-path="url(#pcf75f87982)" d="M 50.14375 218.244706 
L 719.74375 218.244706 
" style="fill:none;stroke:#b0b0b0;stroke-linecap:square;stroke-width:0.8;"/>
     </g>
     <g id="line2d_20">
      <g>
       <use style="stroke:#000000;stroke-width:0.8;" x="50.14375" xlink:href="#m4cf1b2035c" y="218.244706"/>
      </g>
     </g>
     <g id="text_11">
      <!-- 0.88 -->
      <g transform="translate(20.878125 222.043925)scale(0.1 -0.1)">
       <use xlink:href="#DejaVuSans-48"/>
       <use x="63.623047" xlink:href="#DejaVuSans-46"/>
       <use x="95.410156" xlink:href="#DejaVuSans-56"/>
       <use x="159.033203" xlink:href="#DejaVuSans-56"/>
      </g>
     </g>
    </g>
    <g id="ytick_5">
     <g id="line2d_21">
      <path clip-path="url(#pcf75f87982)" d="M 50.14375 179.872941 
L 719.74375 179.872941 
" style="fill:none;stroke:#b0b0b0;stroke-linecap:square;stroke-width:0.8;"/>
     </g>
     <g id="line2d_22">
      <g>
       <use style="stroke:#000000;stroke-width:0.8;" x="50.14375" xlink:href="#m4cf1b2035c" y="179.872941"/>
      </g>
     </g>
     <g id="text_12">
      <!-- 0.90 -->
      <defs>
       <path d="M 10.984375 1.515625 
L 10.984375 10.5 
Q 14.703125 8.734375 18.5 7.8125 
Q 22.3125 6.890625 25.984375 6.890625 
Q 35.75 6.890625 40.890625 13.453125 
Q 46.046875 20.015625 46.78125 33.40625 
Q 43.953125 29.203125 39.59375 26.953125 
Q 35.25 24.703125 29.984375 24.703125 
Q 19.046875 24.703125 12.671875 31.3125 
Q 6.296875 37.9375 6.296875 49.421875 
Q 6.296875 60.640625 12.9375 67.421875 
Q 19.578125 74.21875 30.609375 74.21875 
Q 43.265625 74.21875 49.921875 64.515625 
Q 56.59375 54.828125 56.59375 36.375 
Q 56.59375 19.140625 48.40625 8.859375 
Q 40.234375 -1.421875 26.421875 -1.421875 
Q 22.703125 -1.421875 18.890625 -0.6875 
Q 15.09375 0.046875 10.984375 1.515625 
z
M 30.609375 32.421875 
Q 37.25 32.421875 41.125 36.953125 
Q 45.015625 41.5 45.015625 49.421875 
Q 45.015625 57.28125 41.125 61.84375 
Q 37.25 66.40625 30.609375 66.40625 
Q 23.96875 66.40625 20.09375 61.84375 
Q 16.21875 57.28125 16.21875 49.421875 
Q 16.21875 41.5 20.09375 36.953125 
Q 23.96875 32.421875 30.609375 32.421875 
z
" id="DejaVuSans-57"/>
      </defs>
      <g transform="translate(20.878125 183.67216)scale(0.1 -0.1)">
       <use xlink:href="#DejaVuSans-48"/>
       <use x="63.623047" xlink:href="#DejaVuSans-46"/>
       <use x="95.410156" xlink:href="#DejaVuSans-57"/>
       <use x="159.033203" xlink:href="#DejaVuSans-48"/>
      </g>
     </g>
    </g>
    <g id="ytick_6">
     <g id="line2d_23">
      <path clip-path="url(#pcf75f87982)" d="M 50.14375 141.501176 
L 719.74375 141.501176 
" style="fill:none;stroke:#b0b0b0;stroke-linecap:square;stroke-width:0.8;"/>
     </g>
     <g id="line2d_24">
      <g>
       <use style="stroke:#000000;stroke-width:0.8;" x="50.14375" xlink:href="#m4cf1b2035c" y="141.501176"/>
      </g>
     </g>
     <g id="text_13">
      <!-- 0.92 -->
      <g transform="translate(20.878125 145.300395)scale(0.1 -0.1)">
       <use xlink:href="#DejaVuSans-48"/>
       <use x="63.623047" xlink:href="#DejaVuSans-46"/>
       <use x="95.410156" xlink:href="#DejaVuSans-57"/>
       <use x="159.033203" xlink:href="#DejaVuSans-50"/>
      </g>
     </g>
    </g>
    <g id="ytick_7">
     <g id="line2d_25">
      <path clip-path="url(#pcf75f87982)" d="M 50.14375 103.129412 
L 719.74375 103.129412 
" style="fill:none;stroke:#b0b0b0;stroke-linecap:square;stroke-width:0.8;"/>
     </g>
     <g id="line2d_26">
      <g>
       <use style="stroke:#000000;stroke-width:0.8;" x="50.14375" xlink:href="#m4cf1b2035c" y="103.129412"/>
      </g>
     </g>
     <g id="text_14">
      <!-- 0.94 -->
      <g transform="translate(20.878125 106.928631)scale(0.1 -0.1)">
       <use xlink:href="#DejaVuSans-48"/>
       <use x="63.623047" xlink:href="#DejaVuSans-46"/>
       <use x="95.410156" xlink:href="#DejaVuSans-57"/>
       <use x="159.033203" xlink:href="#DejaVuSans-52"/>
      </g>
     </g>
    </g>
    <g id="ytick_8">
     <g id="line2d_27">
      <path clip-path="url(#pcf75f87982)" d="M 50.14375 64.757647 
L 719.74375 64.757647 
" style="fill:none;stroke:#b0b0b0;stroke-linecap:square;stroke-width:0.8;"/>
     </g>
     <g id="line2d_28">
      <g>
       <use style="stroke:#000000;stroke-width:0.8;" x="50.14375" xlink:href="#m4cf1b2035c" y="64.757647"/>
      </g>
     </g>
     <g id="text_15">
      <!-- 0.96 -->
      <g transform="translate(20.878125 68.556866)scale(0.1 -0.1)">
       <use xlink:href="#DejaVuSans-48"/>
       <use x="63.623047" xlink:href="#DejaVuSans-46"/>
       <use x="95.410156" xlink:href="#DejaVuSans-57"/>
       <use x="159.033203" xlink:href="#DejaVuSans-54"/>
      </g>
     </g>
    </g>
    <g id="ytick_9">
     <g id="line2d_29">
      <path clip-path="url(#pcf75f87982)" d="M 50.14375 26.385882 
L 719.74375 26.385882 
" style="fill:none;stroke:#b0b0b0;stroke-linecap:square;stroke-width:0.8;"/>
     </g>
     <g id="line2d_30">
      <g>
       <use style="stroke:#000000;stroke-width:0.8;" x="50.14375" xlink:href="#m4cf1b2035c" y="26.385882"/>
      </g>
     </g>
     <g id="text_16">
      <!-- 0.98 -->
      <g transform="translate(20.878125 30.185101)scale(0.1 -0.1)">
       <use xlink:href="#DejaVuSans-48"/>
       <use x="63.623047" xlink:href="#DejaVuSans-46"/>
       <use x="95.410156" xlink:href="#DejaVuSans-57"/>
       <use x="159.033203" xlink:href="#DejaVuSans-56"/>
      </g>
     </g>
    </g>
    <g id="text_17">
     <!-- Accuracy -->
     <defs>
      <path d="M 34.1875 63.1875 
L 20.796875 26.90625 
L 47.609375 26.90625 
z
M 28.609375 72.90625 
L 39.796875 72.90625 
L 67.578125 0 
L 57.328125 0 
L 50.6875 18.703125 
L 17.828125 18.703125 
L 11.1875 0 
L 0.78125 0 
z
" id="DejaVuSans-65"/>
      <path d="M 8.5 21.578125 
L 8.5 54.6875 
L 17.484375 54.6875 
L 17.484375 21.921875 
Q 17.484375 14.15625 20.5 10.265625 
Q 23.53125 6.390625 29.59375 6.390625 
Q 36.859375 6.390625 41.078125 11.03125 
Q 45.3125 15.671875 45.3125 23.6875 
L 45.3125 54.6875 
L 54.296875 54.6875 
L 54.296875 0 
L 45.3125 0 
L 45.3125 8.40625 
Q 42.046875 3.421875 37.71875 1 
Q 33.40625 -1.421875 27.6875 -1.421875 
Q 18.265625 -1.421875 13.375 4.4375 
Q 8.5 10.296875 8.5 21.578125 
z
M 31.109375 56 
z
" id="DejaVuSans-117"/>
      <path d="M 41.109375 46.296875 
Q 39.59375 47.171875 37.8125 47.578125 
Q 36.03125 48 33.890625 48 
Q 26.265625 48 22.1875 43.046875 
Q 18.109375 38.09375 18.109375 28.8125 
L 18.109375 0 
L 9.078125 0 
L 9.078125 54.6875 
L 18.109375 54.6875 
L 18.109375 46.1875 
Q 20.953125 51.171875 25.484375 53.578125 
Q 30.03125 56 36.53125 56 
Q 37.453125 56 38.578125 55.875 
Q 39.703125 55.765625 41.0625 55.515625 
z
" id="DejaVuSans-114"/>
      <path d="M 34.28125 27.484375 
Q 23.390625 27.484375 19.1875 25 
Q 14.984375 22.515625 14.984375 16.5 
Q 14.984375 11.71875 18.140625 8.90625 
Q 21.296875 6.109375 26.703125 6.109375 
Q 34.1875 6.109375 38.703125 11.40625 
Q 43.21875 16.703125 43.21875 25.484375 
L 43.21875 27.484375 
z
M 52.203125 31.203125 
L 52.203125 0 
L 43.21875 0 
L 43.21875 8.296875 
Q 40.140625 3.328125 35.546875 0.953125 
Q 30.953125 -1.421875 24.3125 -1.421875 
Q 15.921875 -1.421875 10.953125 3.296875 
Q 6 8.015625 6 15.921875 
Q 6 25.140625 12.171875 29.828125 
Q 18.359375 34.515625 30.609375 34.515625 
L 43.21875 34.515625 
L 43.21875 35.40625 
Q 43.21875 41.609375 39.140625 45 
Q 35.0625 48.390625 27.6875 48.390625 
Q 23 48.390625 18.546875 47.265625 
Q 14.109375 46.140625 10.015625 43.890625 
L 10.015625 52.203125 
Q 14.9375 54.109375 19.578125 55.046875 
Q 24.21875 56 28.609375 56 
Q 40.484375 56 46.34375 49.84375 
Q 52.203125 43.703125 52.203125 31.203125 
z
" id="DejaVuSans-97"/>
      <path d="M 32.171875 -5.078125 
Q 28.375 -14.84375 24.75 -17.8125 
Q 21.140625 -20.796875 15.09375 -20.796875 
L 7.90625 -20.796875 
L 7.90625 -13.28125 
L 13.1875 -13.28125 
Q 16.890625 -13.28125 18.9375 -11.515625 
Q 21 -9.765625 23.484375 -3.21875 
L 25.09375 0.875 
L 2.984375 54.6875 
L 12.5 54.6875 
L 29.59375 11.921875 
L 46.6875 54.6875 
L 56.203125 54.6875 
z
" id="DejaVuSans-121"/>
     </defs>
     <g transform="translate(14.798438 193.194844)rotate(-90)scale(0.1 -0.1)">
      <use xlink:href="#DejaVuSans-65"/>
      <use x="68.392578" xlink:href="#DejaVuSans-99"/>
      <use x="123.373047" xlink:href="#DejaVuSans-99"/>
      <use x="178.353516" xlink:href="#DejaVuSans-117"/>
      <use x="241.732422" xlink:href="#DejaVuSans-114"/>
      <use x="282.845703" xlink:href="#DejaVuSans-97"/>
      <use x="344.125" xlink:href="#DejaVuSans-99"/>
      <use x="399.105469" xlink:href="#DejaVuSans-121"/>
     </g>
    </g>
   </g>
   <g id="line2d_31">
    <path clip-path="url(#pcf75f87982)" d="M 100.96138 371.91625 
L 101.165752 370.34082 
L 101.791065 371.91625 
M 102.667031 371.91625 
L 103.716852 364.297179 
L 104.992402 363.577761 
L 106.267952 358.397628 
L 107.543502 358.445544 
L 108.819052 357.294428 
L 110.094602 349.81195 
L 111.370153 351.682484 
L 112.645703 347.22177 
L 113.921253 344.583788 
L 115.196803 339.835237 
L 116.472353 339.739292 
L 117.747903 338.15648 
L 119.023453 326.980736 
L 120.299003 335.614329 
L 121.574553 328.659493 
L 122.850103 329.378911 
L 124.125653 326.740815 
L 125.401203 320.745318 
L 126.676753 328.995245 
L 127.952303 325.493755 
L 129.227853 320.553428 
L 130.503403 320.745318 
L 131.778953 321.224931 
L 133.054503 315.037429 
L 134.330053 310.624744 
L 135.605604 305.444497 
L 136.881154 310.480883 
L 138.156704 308.082593 
L 139.432254 306.883448 
L 140.707804 303.909715 
L 141.983354 300.552086 
L 143.258904 300.408225 
L 144.534454 295.276007 
L 145.810004 296.571098 
L 147.085554 299.40097 
L 148.361104 296.954765 
L 149.636654 295.084117 
L 150.912204 290.911238 
L 152.187754 290.671432 
L 153.463304 286.354578 
L 154.738854 283.908372 
L 156.014404 287.457778 
L 157.289954 283.38073 
L 158.565504 280.502942 
L 159.841055 277.241258 
L 161.116605 281.318306 
L 162.392155 281.318306 
L 164.943255 274.843083 
L 166.218805 271.341593 
L 167.494355 275.22675 
L 168.769905 270.814065 
L 170.045455 272.828574 
L 171.321005 271.053871 
L 172.596555 272.732628 
L 173.872105 271.437538 
L 175.147655 261.125188 
L 176.423205 266.401266 
L 177.698755 263.619309 
L 178.974305 264.098921 
L 180.249855 254.410044 
L 181.525405 263.763169 
L 182.800955 260.021988 
L 184.076506 259.350485 
L 185.352056 258.487091 
L 186.627606 252.587425 
L 187.903156 252.107813 
L 189.178706 254.266183 
L 191.729806 253.402789 
L 193.005356 247.743044 
L 194.280906 249.901414 
L 195.556456 250.572917 
L 196.832006 244.241554 
L 198.107556 250.620832 
L 199.383106 249.469717 
L 200.658656 247.215402 
L 201.934206 253.115068 
L 203.209756 245.824366 
L 204.485306 243.42619 
L 205.760856 246.927566 
L 207.036406 245.824366 
L 208.311956 245.344754 
L 209.587507 243.042409 
L 210.863057 234.3609 
L 212.138607 242.514881 
L 213.414157 238.581694 
L 214.689707 238.485863 
L 215.965257 240.644233 
L 217.240807 235.751822 
L 218.516357 239.397172 
L 219.791907 235.176264 
L 221.067457 235.368155 
L 222.343007 232.490252 
L 223.618557 234.552677 
L 224.894107 231.770719 
L 226.169657 230.283853 
L 227.445207 229.80424 
L 228.720757 227.118229 
L 229.996307 232.010526 
L 231.271857 227.693786 
L 232.547407 229.468489 
L 233.822958 227.45398 
L 235.098508 227.022283 
L 236.374058 223.376933 
L 237.649608 225.871054 
L 238.925158 226.542557 
L 240.200708 224.528048 
L 241.476258 221.890066 
L 242.751808 222.369678 
L 244.027358 221.266478 
L 245.302908 223.329017 
L 246.578458 220.115363 
L 247.854008 219.108109 
L 249.129558 217.525182 
L 250.405108 217.04557 
L 251.680658 218.14877 
L 252.956208 218.34066 
L 254.231758 218.052824 
L 255.507308 214.743339 
L 256.782858 212.968637 
L 258.058409 215.750594 
L 259.333959 212.249104 
L 260.609509 214.071722 
L 261.885059 213.016552 
L 263.160609 210.090734 
L 264.436159 214.023807 
L 265.711709 212.249104 
L 266.987259 210.18668 
L 268.262809 209.275256 
L 269.538359 210.570347 
L 270.813909 205.342184 
L 272.089459 216.565958 
L 273.365009 208.220086 
L 274.640559 204.334929 
L 275.916109 208.651783 
L 277.191659 203.039839 
L 278.467209 205.054462 
L 279.742759 201.26525 
L 281.018309 203.855317 
L 282.29386 206.157547 
L 283.56941 204.382959 
L 284.84496 202.848063 
L 286.12051 203.327675 
L 287.39606 197.044342 
L 288.67161 202.800033 
L 289.94716 204.574735 
L 291.22271 199.490548 
L 292.49826 197.332064 
L 293.77381 198.914876 
L 295.04936 198.147542 
L 296.32491 198.339318 
L 297.60046 196.756506 
L 298.87601 187.115659 
L 300.15156 201.02533 
L 301.42711 197.092258 
L 302.70266 195.749252 
L 303.97821 189.80167 
L 305.25376 193.974549 
L 306.529311 196.420755 
L 307.804861 188.50658 
L 309.080411 193.255131 
L 310.355961 188.314689 
L 311.631511 190.85684 
L 312.907061 191.864095 
L 314.182611 188.218744 
L 315.458161 187.067629 
L 316.733711 189.226113 
L 318.009261 185.916514 
L 319.284811 188.170829 
L 320.560361 185.340956 
L 321.835911 184.045865 
L 323.111461 184.573508 
L 324.387011 185.916514 
L 325.662561 180.688351 
L 326.938111 181.359854 
L 328.213661 187.835077 
L 329.489211 188.362719 
L 330.764762 182.367108 
L 332.040312 185.868484 
L 333.315862 180.880241 
L 334.591412 186.108404 
L 335.866962 183.614169 
L 337.142512 178.290061 
L 338.418062 174.356988 
L 339.693612 178.290061 
L 340.969162 181.79155 
L 342.244712 177.954309 
L 343.520262 179.920902 
L 344.795812 177.474697 
L 346.071362 179.057509 
L 347.346912 177.522727 
L 348.622462 178.242145 
L 349.898012 173.58954 
L 351.173562 178.481951 
L 352.449112 175.076521 
L 353.724662 178.002339 
L 355.000213 175.028491 
L 356.275763 175.795939 
L 357.551313 172.918037 
L 358.826863 171.814837 
L 360.102413 168.505352 
L 361.377963 170.088164 
L 362.653513 174.213127 
L 363.929063 173.63757 
L 365.204613 171.718892 
L 366.480163 171.239279 
L 367.755713 167.689874 
L 369.031263 169.320716 
L 370.306813 170.759667 
L 371.582363 171.43117 
L 372.857913 166.826595 
L 374.133463 163.085299 
L 375.409013 167.689874 
L 376.684563 167.162346 
L 377.960113 167.97771 
L 379.235664 169.08091 
L 380.511214 165.291698 
L 381.786764 163.612941 
L 383.062314 165.099808 
L 384.337864 163.708886 
L 385.613414 166.826595 
L 386.888964 164.092553 
L 388.164514 165.819226 
L 389.440064 165.963201 
L 390.715614 160.639093 
L 393.266714 160.015506 
L 394.542264 163.468966 
L 395.817814 160.207396 
L 397.093364 157.5693 
L 398.368914 161.310596 
L 399.644464 161.454457 
L 400.920014 160.878899 
L 402.195564 159.679754 
L 403.471115 153.444337 
L 404.746665 158.624584 
L 406.022215 160.351257 
L 407.297765 160.543148 
L 408.573315 157.233548 
L 409.848865 158.240803 
L 411.124415 154.16387 
L 412.399965 154.883288 
L 413.675515 148.839761 
L 416.226615 154.499621 
L 417.502165 149.7991 
L 418.777715 144.570938 
L 420.053265 150.230797 
L 421.328815 154.020009 
L 422.604365 149.942961 
L 423.879915 150.182767 
L 425.155465 153.828118 
L 426.431015 155.41093 
L 427.706566 145.002634 
L 428.982116 146.441586 
L 430.257666 147.065059 
L 431.533216 146.29761 
L 432.808766 151.046161 
L 434.084316 146.825253 
L 435.359866 149.079568 
L 436.635416 144.187156 
L 437.910966 144.139241 
L 439.186516 149.751071 
L 440.462066 148.55204 
L 441.737616 142.412454 
L 443.013166 144.427077 
L 444.288716 147.017143 
L 445.564266 142.988126 
L 446.839816 145.146495 
L 448.115366 142.988126 
L 449.390916 138.719187 
L 450.666466 143.659628 
L 451.942017 143.275847 
L 453.217567 141.357284 
L 454.493117 141.405199 
L 457.044217 137.376181 
L 458.319767 145.09858 
L 459.595317 141.069448 
L 460.870867 140.49389 
L 462.146417 137.999769 
L 463.421967 140.110223 
L 464.697517 138.719187 
L 465.973067 139.726442 
L 467.248617 138.575326 
L 468.524167 135.841285 
L 469.799717 136.368927 
L 471.075267 135.841285 
L 472.350817 136.081205 
L 473.626367 140.685781 
L 474.901917 134.162527 
L 476.177467 134.498279 
L 477.453018 138.14363 
L 478.728568 138.767217 
L 480.004118 138.815133 
L 481.279668 134.978006 
L 482.555218 135.217812 
L 485.106318 130.805013 
L 486.381868 134.162527 
L 487.657418 128.502782 
L 488.932968 130.373316 
L 490.208518 130.277485 
L 491.484068 128.262862 
L 492.759618 127.92711 
L 494.035168 131.476516 
L 495.310718 127.255607 
L 496.586268 131.524545 
L 497.861818 130.517291 
L 499.137368 127.783249 
L 500.412918 130.421346 
L 501.688469 124.042068 
L 502.964019 125.62488 
L 504.239569 124.569595 
L 505.515119 124.713571 
L 506.790669 128.214946 
L 508.066219 125.289128 
L 509.341769 123.082729 
L 510.617319 124.47365 
L 511.892869 124.905347 
L 513.168419 125.912601 
L 514.443969 122.938868 
L 515.719519 122.219335 
L 516.995069 120.732468 
L 518.270619 120.348687 
L 519.546169 122.36331 
L 522.097269 120.252856 
L 523.372819 119.485408 
L 524.648369 121.403971 
L 527.19947 118.046457 
L 528.47502 125.145267 
L 529.75057 118.717959 
L 531.02612 114.544967 
L 532.30167 118.957766 
L 533.57722 113.537712 
L 534.85277 112.626403 
L 536.12832 115.360445 
L 537.40387 114.784887 
L 538.67942 115.936002 
L 539.95497 116.799396 
L 541.23052 114.401106 
L 543.78162 117.662675 
L 545.05717 115.120639 
L 546.33272 114.688942 
L 547.60827 114.017439 
L 548.88382 110.89973 
L 550.159371 121.403971 
L 551.434921 110.468033 
L 552.710471 108.357579 
L 553.986021 113.010184 
L 555.261571 110.276143 
L 556.537121 106.007319 
L 557.812671 110.132282 
L 559.088221 111.571233 
L 560.363771 107.158434 
L 561.639321 113.633657 
L 562.914871 107.44627 
L 564.190421 105.959289 
L 565.465971 109.988421 
L 566.741521 105.191841 
L 568.017071 107.638046 
L 569.292621 104.904119 
L 570.568171 103.800919 
L 571.843721 105.383731 
L 573.119271 107.254379 
L 574.394822 107.638046 
L 575.670372 106.822683 
L 576.945922 102.122162 
L 578.221472 102.88961 
L 579.497022 105.959289 
L 580.772572 104.568368 
L 582.048122 101.498574 
L 583.323672 102.266023 
L 584.599222 104.136671 
L 585.874772 103.513083 
L 587.150322 98.764647 
L 588.425872 96.654193 
L 589.701422 101.546604 
L 592.252522 91.713866 
L 593.528072 98.33295 
L 594.803622 99.292289 
L 596.079172 99.867847 
L 597.354722 96.414387 
L 598.630273 98.380866 
L 599.905823 96.222496 
L 601.181373 90.850472 
L 602.456923 95.550993 
L 603.732473 95.407132 
L 606.283573 96.366357 
L 607.559123 94.495709 
L 608.834673 92.337339 
L 610.110223 91.569891 
L 611.385773 95.694854 
L 612.661323 91.090279 
L 613.936873 90.370746 
L 615.212423 90.17897 
L 616.487973 93.680345 
L 617.763523 90.274915 
L 620.314623 89.459437 
L 621.590173 89.171715 
L 622.865724 91.330085 
L 624.141274 87.924655 
L 625.416824 86.437673 
L 626.692374 91.330085 
L 627.967924 89.747273 
L 629.243474 86.965316 
L 630.519024 86.149952 
L 631.794574 88.068515 
L 633.070124 85.286558 
L 634.345674 85.478449 
L 635.621224 87.013231 
L 636.896774 83.943552 
L 638.172324 85.62231 
L 639.447874 83.559771 
L 640.723424 82.456571 
L 641.998974 85.190613 
L 643.274524 83.463826 
L 644.550074 82.12082 
L 645.825624 83.991468 
L 647.101175 80.921789 
L 648.376725 79.003111 
L 649.652275 79.003111 
L 650.927825 79.243032 
L 652.203375 81.161595 
L 653.478925 80.394147 
L 654.754475 80.01048 
L 656.030025 80.058395 
L 657.305575 78.955196 
L 658.581125 77.132577 
L 659.856675 79.626699 
L 661.132225 80.777814 
L 662.407775 77.516244 
L 663.683325 77.420299 
L 664.958875 74.590426 
L 666.234425 76.55702 
L 667.509975 71.95233 
L 668.785525 74.974093 
L 670.061075 78.523499 
L 671.336626 75.549651 
L 672.612176 75.309845 
L 673.887726 73.151475 
L 675.163276 72.144221 
L 676.438826 75.501736 
L 677.714376 70.465463 
L 678.989926 71.328857 
L 680.265476 73.24742 
L 681.541026 71.088936 
L 682.816576 71.760439 
L 684.092126 71.232912 
L 685.367676 72.719778 
L 686.643226 70.369518 
L 687.918776 70.993105 
L 687.918776 70.993105 
" style="fill:none;stroke:#abd9e9;stroke-linecap:square;stroke-width:1.5;"/>
   </g>
   <g id="line2d_32">
    <path clip-path="url(#pcf75f87982)" d="M 83.297098 371.91625 
L 83.308051 371.500055 
L 84.583601 351.225171 
L 85.859151 349.873474 
L 87.134702 342.149704 
L 88.410252 350.838874 
L 89.685802 348.90796 
L 90.961352 319.750643 
L 93.512452 335.970664 
L 94.788002 345.625349 
L 96.063552 314.923301 
L 97.339102 340.218675 
L 98.614652 342.342738 
L 99.890202 304.303102 
L 101.165752 286.152281 
L 102.441302 331.915688 
L 103.716852 291.172658 
L 104.992402 329.598476 
L 106.267952 291.55884 
L 107.543502 302.951405 
L 108.819052 293.29672 
L 110.094602 314.730267 
L 111.370153 283.83507 
L 112.645703 295.0346 
L 113.921253 272.635654 
L 115.196803 281.324824 
L 116.472353 266.842797 
L 117.747903 260.084427 
L 119.023453 281.324824 
L 120.299003 269.159894 
L 122.850103 289.627926 
L 124.125653 276.304448 
L 125.401203 268.001346 
L 126.676753 271.67014 
L 127.952303 268.001346 
L 129.227853 265.684249 
L 130.503403 245.988582 
L 131.778953 264.332552 
L 133.054503 260.663758 
L 134.330053 260.470609 
L 135.605604 253.32617 
L 136.881154 240.195726 
L 138.156704 252.746839 
L 139.432254 257.381147 
L 140.707804 256.415633 
L 141.983354 244.057554 
L 143.258904 245.023068 
L 144.534454 255.257084 
L 145.810004 225.52055 
L 147.085554 251.395142 
L 148.361104 227.258316 
L 149.636654 242.512823 
L 150.912204 265.297952 
L 152.187754 243.285188 
L 153.463304 231.313407 
L 154.738854 240.968091 
L 156.014404 223.589522 
L 157.289954 234.789052 
L 158.565504 240.581909 
L 159.841055 251.58829 
L 161.116605 234.789052 
L 162.392155 225.52055 
L 163.667705 232.858138 
L 164.943255 217.410482 
L 166.218805 237.299298 
L 167.494355 243.671371 
L 168.769905 243.092154 
L 170.045455 216.445083 
L 171.321005 214.32102 
L 172.596555 230.734075 
L 173.872105 223.78267 
L 175.147655 218.762179 
L 176.423205 229.575527 
L 177.698755 237.492332 
L 178.974305 214.32102 
L 180.249855 217.0243 
L 181.525405 235.175235 
L 182.800955 223.396488 
L 184.076506 213.741688 
L 185.352056 234.789052 
L 186.627606 222.817156 
L 187.903156 219.341511 
L 189.178706 210.652226 
L 190.454256 215.093386 
L 191.729806 218.762179 
L 193.005356 205.245552 
L 194.280906 213.162471 
L 195.556456 214.514168 
L 196.832006 229.96171 
L 198.107556 212.196957 
L 199.383106 211.038409 
L 200.658656 205.052518 
L 201.934206 215.093386 
L 203.209756 217.989814 
L 204.485306 201.962941 
L 205.760856 203.700821 
L 207.036406 208.528163 
L 208.311956 207.176466 
L 209.587507 216.638117 
L 210.863057 212.196957 
L 212.138607 193.852988 
L 213.414157 198.873479 
L 214.689707 204.859369 
L 215.965257 219.920728 
L 217.240807 218.375997 
L 218.516357 208.721312 
L 219.791907 200.804393 
L 221.067457 211.810774 
L 222.343007 201.962941 
L 223.618557 202.349124 
L 224.894107 203.507672 
L 226.169657 195.97705 
L 227.445207 194.818502 
L 228.720757 194.432319 
L 229.996307 196.170085 
L 231.271857 195.204685 
L 232.547407 195.011536 
L 233.822958 191.342742 
L 235.098508 192.501291 
L 236.374058 196.94245 
L 237.649608 188.832497 
L 238.925158 190.956559 
L 240.200708 190.184194 
L 241.476258 182.460423 
L 242.751808 193.080622 
L 244.027358 186.322251 
L 245.302908 196.94245 
L 246.578458 199.066513 
L 247.854008 191.149708 
L 249.129558 198.873479 
L 250.405108 198.101113 
L 251.680658 185.17674 
L 252.956208 191.728925 
L 254.231758 195.97705 
L 255.507308 192.501291 
L 256.782858 191.535891 
L 258.058409 193.466805 
L 259.333959 193.080622 
L 260.609509 203.314638 
L 261.885059 204.087004 
L 263.160609 185.743034 
L 264.436159 188.446314 
L 265.711709 190.184194 
L 266.987259 192.887474 
L 268.262809 186.901583 
L 269.538359 201.769907 
L 270.813909 198.873479 
L 272.089459 196.363233 
L 273.365009 183.618972 
L 274.640559 183.425937 
L 275.916109 185.936069 
L 277.191659 178.791629 
L 278.467209 194.625353 
L 279.742759 206.597249 
L 281.018309 200.611358 
L 282.29386 188.446314 
L 283.56941 194.046136 
L 284.84496 178.405446 
L 286.12051 188.446314 
L 287.39606 194.046136 
L 288.67161 192.887474 
L 289.94716 190.763525 
L 291.22271 187.867097 
L 292.49826 179.950178 
L 293.77381 178.212298 
L 295.04936 184.970669 
L 296.32491 188.060131 
L 297.60046 187.287766 
L 298.87601 185.356851 
L 301.42711 183.81212 
L 302.70266 183.618972 
L 303.97821 188.639463 
L 305.25376 172.61259 
L 306.529311 187.673948 
L 307.804861 179.370846 
L 309.080411 187.480914 
L 310.355961 192.501291 
L 311.631511 172.226407 
L 312.907061 179.370846 
L 314.182611 182.07424 
L 315.458161 174.929687 
L 316.733711 173.964287 
L 318.009261 189.991045 
L 319.284811 189.991045 
L 320.560361 181.688058 
L 321.835911 191.922074 
L 323.111461 171.840224 
L 324.387011 182.846606 
L 325.662561 179.563995 
L 326.938111 184.77752 
L 328.213661 175.509018 
L 329.489211 169.329979 
L 330.764762 173.964287 
L 332.040312 178.019264 
L 333.315862 180.143326 
L 334.591412 161.799242 
L 337.142512 178.598481 
L 338.418062 192.308256 
L 339.693612 171.454041 
L 340.969162 177.826115 
L 342.244712 175.122835 
L 343.520262 165.275002 
L 344.795812 174.35047 
L 346.071362 180.336361 
L 347.346912 171.260893 
L 348.622462 167.012882 
L 349.898012 181.688058 
L 351.173562 175.509018 
L 352.449112 176.667567 
L 353.724662 168.750647 
L 355.000213 189.991045 
L 356.275763 190.763525 
L 357.551313 175.509018 
L 358.826863 168.364465 
L 360.102413 165.081854 
L 361.377963 178.019264 
L 362.653513 172.033259 
L 363.929063 172.033259 
L 365.204613 167.978282 
L 366.480163 172.998773 
L 367.755713 175.895201 
L 369.031263 163.344088 
L 370.306813 173.191921 
L 371.582363 154.26862 
L 372.857913 165.854219 
L 374.133463 173.964287 
L 375.409013 174.543504 
L 376.684563 155.620203 
L 377.960113 178.212298 
L 379.235664 183.618972 
L 380.511214 161.41306 
L 381.786764 170.87471 
L 383.062314 171.647076 
L 385.613414 160.44766 
L 386.888964 175.702052 
L 388.164514 157.551232 
L 389.440064 166.819733 
L 390.715614 166.047368 
L 391.991164 164.116454 
L 393.266714 173.578104 
L 394.542264 167.205916 
L 395.817814 170.681676 
L 397.093364 161.41306 
L 398.368914 170.488527 
L 399.644464 164.309488 
L 400.920014 162.764757 
L 402.195564 161.799242 
L 403.471115 163.537122 
L 404.746665 161.026877 
L 406.022215 165.661185 
L 407.297765 161.606208 
L 409.848865 155.813352 
L 411.124415 163.150939 
L 412.399965 169.716162 
L 413.675515 155.813352 
L 414.951065 163.923305 
L 416.226615 165.661185 
L 417.502165 162.957905 
L 418.777715 167.012882 
L 420.053265 169.329979 
L 421.328815 165.468036 
L 422.604365 166.240516 
L 423.879915 163.537122 
L 425.155465 163.150939 
L 426.431015 169.716162 
L 427.706566 158.516631 
L 428.982116 160.254511 
L 430.257666 169.13683 
L 431.533216 158.70978 
L 432.808766 161.606208 
L 434.084316 160.640694 
L 435.359866 163.730271 
L 436.635416 169.13683 
L 437.910966 160.833843 
L 439.186516 164.502637 
L 440.462066 162.764757 
L 441.737616 159.868328 
L 443.013166 161.606208 
L 445.564266 166.819733 
L 446.839816 161.026877 
L 448.115366 157.937414 
L 449.390916 175.122835 
L 450.666466 159.288997 
L 451.942017 162.501164 
L 453.217567 156.392683 
L 454.493117 164.502637 
L 455.768667 162.185425 
L 457.044217 157.358083 
L 458.319767 156.199534 
L 459.595317 161.220025 
L 460.870867 155.23402 
L 463.421967 157.165049 
L 464.697517 173.964287 
L 465.973067 166.433551 
L 467.248617 156.9719 
L 468.524167 156.392683 
L 469.799717 159.095963 
L 471.075267 160.640694 
L 472.350817 162.571608 
L 473.626367 157.358083 
L 474.901917 157.937414 
L 476.177467 163.150939 
L 477.453018 157.358083 
L 478.728568 160.640694 
L 480.004118 158.70978 
L 481.279668 158.516631 
L 482.555218 161.992391 
L 483.830768 154.654803 
L 485.106318 150.406678 
L 486.381868 152.144558 
L 487.657418 163.537122 
L 488.932968 152.337592 
L 490.208518 158.902814 
L 491.484068 153.110072 
L 492.759618 154.26862 
L 494.035168 152.916923 
L 495.310718 160.833843 
L 496.586268 153.496255 
L 497.861818 163.344088 
L 499.137368 158.323597 
L 500.412918 156.9719 
L 501.688469 157.937414 
L 502.964019 161.606208 
L 504.239569 154.847837 
L 505.515119 159.868328 
L 506.790669 157.744266 
L 508.066219 150.213644 
L 509.341769 162.764757 
L 510.617319 157.937414 
L 511.892869 164.695671 
L 513.168419 153.496255 
L 514.443969 160.44766 
L 515.719519 148.089581 
L 516.995069 161.606208 
L 518.270619 153.689289 
L 519.546169 155.23402 
L 520.821719 158.323597 
L 522.097269 157.937414 
L 523.372819 163.923305 
L 524.648369 149.248129 
L 525.92392 158.130449 
L 527.19947 146.54485 
L 528.47502 153.496255 
L 529.75057 154.26862 
L 531.02612 149.248129 
L 532.30167 157.744266 
L 533.57722 147.124067 
L 534.85277 152.530741 
L 536.12832 151.372192 
L 537.40387 160.640694 
L 538.67942 148.089581 
L 539.95497 148.861947 
L 541.23052 150.986009 
L 542.50607 149.827461 
L 543.78162 154.847837 
L 546.33272 148.668798 
L 547.60827 151.179044 
L 548.88382 154.847837 
L 550.159371 150.406678 
L 551.434921 157.937414 
L 552.710471 151.372192 
L 553.986021 141.717393 
L 555.261571 149.055095 
L 556.537121 142.103576 
L 557.812671 148.282615 
L 559.088221 145.772484 
L 560.363771 140.172662 
L 561.639321 153.110072 
L 562.914871 149.441278 
L 564.190421 156.392683 
L 565.465971 147.703398 
L 566.741521 149.441278 
L 568.017071 143.455273 
L 569.292621 147.896432 
L 570.568171 144.613821 
L 571.843721 151.179044 
L 573.119271 148.668798 
L 574.394822 149.055095 
L 575.670372 151.179044 
L 576.945922 151.179044 
L 578.221472 154.075472 
L 579.497022 148.668798 
L 580.772572 155.427169 
L 582.048122 152.530741 
L 583.323672 140.751993 
L 584.599222 144.420787 
L 585.874772 146.737884 
L 587.150322 144.227639 
L 588.425872 156.392683 
L 589.701422 144.80697 
L 590.976972 153.110072 
L 592.252522 148.668798 
L 593.528072 142.489873 
L 594.803622 151.758375 
L 597.354722 144.80697 
L 598.630273 144.034604 
L 599.905823 148.475764 
L 601.181373 146.54485 
L 602.456923 145.193153 
L 603.732473 141.910542 
L 605.008023 150.020495 
L 606.283573 147.896432 
L 607.559123 142.489873 
L 608.834673 146.931033 
L 610.110223 142.296725 
L 611.385773 148.668798 
L 612.661323 141.33121 
L 613.936873 141.910542 
L 615.212423 144.227639 
L 616.487973 147.703398 
L 617.763523 144.613821 
L 619.039073 142.682907 
L 620.314623 141.910542 
L 621.590173 140.945027 
L 622.865724 143.648422 
L 624.141274 142.296725 
L 625.416824 150.986009 
L 626.692374 141.910542 
L 627.967924 145.386187 
L 629.243474 147.51025 
L 630.519024 143.841456 
L 631.794574 137.469382 
L 633.070124 146.351701 
L 634.345674 139.207262 
L 635.621224 143.455273 
L 636.896774 141.910542 
L 638.172324 138.821079 
L 639.447874 143.455273 
L 640.723424 139.593445 
L 641.998974 141.138176 
L 643.274524 141.524359 
L 644.550074 144.420787 
L 647.101175 139.207262 
L 648.376725 136.503868 
L 649.652275 141.717393 
L 650.927825 141.138176 
L 652.203375 140.017708 
L 653.478925 138.627931 
L 654.754475 138.821079 
L 656.030025 137.276234 
L 657.305575 136.503868 
L 658.581125 138.627931 
L 659.856675 138.048599 
L 661.132225 138.241748 
L 662.407775 141.717393 
L 663.683325 138.821079 
L 664.958875 142.296725 
L 666.234425 135.34532 
L 667.509975 139.979628 
L 668.785525 134.959137 
L 670.061075 137.469382 
L 671.336626 140.36581 
L 672.612176 136.697017 
L 673.887726 138.627931 
L 675.163276 136.697017 
L 676.438826 133.414405 
L 677.714376 141.138176 
L 678.989926 137.083199 
L 680.265476 134.959137 
L 681.541026 137.276234 
L 682.816576 141.717393 
L 684.092126 133.800588 
L 685.367676 137.469382 
L 686.643226 139.979628 
L 687.918776 133.60744 
L 687.918776 133.60744 
" style="fill:none;stroke:#2c7bb6;stroke-linecap:square;stroke-width:1.5;"/>
   </g>
   <g id="line2d_33">
    <path clip-path="url(#pcf75f87982)" d="M 75.154844 371.91625 
L 75.654751 365.976051 
L 76.930301 359.740634 
L 78.205851 355.759532 
L 79.481401 341.178243 
L 80.756951 340.170989 
L 82.032501 329.954469 
L 84.583601 315.42121 
L 85.859151 314.17415 
L 87.134702 300.312279 
L 88.410252 302.374818 
L 89.685802 291.774632 
L 90.961352 289.472287 
L 92.236902 284.867711 
L 93.512452 272.013096 
L 94.788002 277.864846 
L 96.063552 273.931774 
L 97.339102 272.780544 
L 98.614652 268.032108 
L 99.890202 258.34323 
L 101.165752 255.273437 
L 102.441302 256.424667 
L 103.716852 254.410044 
L 104.992402 249.661607 
L 106.267952 248.654353 
L 107.543502 241.843378 
L 108.819052 240.020646 
L 110.094602 243.761942 
L 111.370153 240.212536 
L 112.645703 235.895683 
L 113.921253 234.696652 
L 115.196803 231.147246 
L 116.472353 221.60223 
L 117.747903 223.808629 
L 119.023453 220.690921 
L 120.299003 221.314394 
L 121.574553 216.997654 
L 122.850103 222.70543 
L 124.125653 209.994789 
L 125.401203 216.613873 
L 126.676753 212.53694 
L 127.952303 214.599364 
L 129.227853 208.268002 
L 130.503403 204.670681 
L 131.778953 202.752117 
L 133.054503 207.788389 
L 135.605604 198.579124 
L 136.881154 201.361081 
L 138.156704 205.677935 
L 139.432254 194.933888 
L 140.707804 195.749252 
L 141.983354 193.303046 
L 143.258904 187.45141 
L 144.534454 190.90487 
L 145.810004 184.717368 
L 147.085554 189.513834 
L 148.361104 186.731877 
L 149.636654 184.765398 
L 150.912204 184.909259 
L 152.187754 188.746386 
L 153.463304 176.755278 
L 154.738854 185.820568 
L 156.014404 176.275552 
L 157.289954 180.784296 
L 158.565504 176.755278 
L 159.841055 177.234891 
L 161.116605 175.652079 
L 162.392155 177.762533 
L 163.667705 176.995084 
L 164.943255 175.748024 
L 166.218805 172.390395 
L 167.494355 173.493594 
L 168.769905 172.966067 
L 170.045455 167.97771 
L 171.321005 164.764056 
L 172.596555 169.608438 
L 173.872105 164.620195 
L 175.147655 166.298953 
L 176.423205 163.468966 
L 177.698755 167.498098 
L 178.974305 162.221905 
L 180.249855 163.948692 
L 181.525405 161.118705 
L 182.800955 160.974844 
L 184.076506 166.011117 
L 185.352056 160.447202 
L 186.627606 160.878899 
L 187.903156 156.082433 
L 189.178706 158.192887 
L 190.454256 152.245306 
L 191.729806 154.16387 
L 193.005356 156.418185 
L 194.280906 153.924063 
L 195.556456 155.027263 
L 196.832006 153.300476 
L 198.107556 155.986488 
L 199.383106 155.986488 
L 200.658656 150.85427 
L 203.209756 147.784592 
L 204.485306 152.916809 
L 205.760856 149.463349 
L 207.036406 154.739427 
L 208.311956 147.20892 
L 209.587507 145.817998 
L 210.863057 146.15375 
L 212.138607 141.836896 
L 213.414157 146.29761 
L 214.689707 145.002634 
L 215.965257 141.501144 
L 217.240807 145.242441 
L 218.516357 140.877671 
L 219.791907 139.198914 
L 221.067457 143.227932 
L 222.343007 140.589835 
L 224.894107 137.999769 
L 226.169657 137.472127 
L 227.445207 140.014278 
L 228.720757 134.83403 
L 229.996307 136.608733 
L 231.271857 137.855908 
L 232.547407 137.280236 
L 233.822958 133.730945 
L 235.098508 133.682915 
L 236.374058 128.502782 
L 237.649608 132.004158 
L 238.925158 134.450363 
L 240.200708 135.697424 
L 241.476258 132.5318 
L 242.751808 133.059442 
L 244.027358 127.97514 
L 245.302908 130.18154 
L 246.578458 130.277485 
L 247.854008 127.303637 
L 249.129558 133.77886 
L 250.405108 123.658286 
L 251.680658 123.034813 
L 252.956208 131.38057 
L 254.231758 124.137899 
L 255.507308 122.507171 
L 256.782858 124.233844 
L 258.058409 126.440243 
L 259.333959 129.126255 
L 260.609509 127.399582 
L 261.885059 123.802147 
L 263.160609 121.499917 
L 264.436159 121.451887 
L 265.711709 123.41848 
L 266.987259 124.569595 
L 268.262809 127.015801 
L 269.538359 123.178674 
L 270.813909 117.230978 
L 272.089459 120.060965 
L 273.365009 120.012936 
L 274.640559 117.80665 
L 275.916109 116.223724 
L 277.191659 115.696196 
L 278.467209 117.326924 
L 279.742759 120.012936 
L 281.018309 116.079863 
L 282.29386 114.736857 
L 283.56941 116.031948 
L 284.84496 114.880718 
L 286.12051 116.751366 
L 287.39606 117.61476 
L 288.67161 115.696196 
L 289.94716 112.866209 
L 292.49826 109.652555 
L 293.77381 113.393851 
L 295.04936 106.918628 
L 296.32491 114.257245 
L 297.60046 114.113384 
L 298.87601 111.906985 
L 300.15156 111.715094 
L 301.42711 108.117773 
L 302.70266 109.412749 
L 303.97821 107.925882 
L 305.25376 112.386597 
L 306.529311 109.172943 
L 307.804861 108.165689 
L 309.080411 104.232616 
L 311.631511 113.010184 
L 312.907061 105.863344 
L 314.182611 109.988421 
L 315.458161 108.933137 
L 316.733711 106.486931 
L 318.009261 104.424507 
L 319.284811 97.613418 
L 320.560361 106.390986 
L 321.835911 103.225362 
L 323.111461 107.782022 
L 324.387011 104.808174 
L 325.662561 102.88961 
L 326.938111 102.266023 
L 328.213661 103.609029 
L 329.489211 98.764647 
L 330.764762 101.978301 
L 332.040312 101.978301 
L 333.315862 104.760258 
L 334.591412 100.011708 
L 335.866962 96.941915 
L 337.142512 98.524841 
L 338.418062 98.572756 
L 339.693612 99.100399 
L 340.969162 98.14106 
L 342.244712 96.318441 
L 343.520262 93.488454 
L 344.795812 97.949169 
L 346.071362 98.33295 
L 347.346912 97.565502 
L 348.622462 96.414387 
L 349.898012 98.045114 
L 351.173562 97.853338 
L 352.449112 93.680345 
L 353.724662 96.462302 
L 355.000213 94.447793 
L 356.275763 94.207987 
L 357.551313 94.6876 
L 358.826863 91.905642 
L 360.102413 93.728375 
L 361.377963 92.145449 
L 362.653513 92.912897 
L 363.929063 92.769036 
L 365.204613 91.378115 
L 366.480163 95.98269 
L 367.755713 90.514721 
L 369.031263 90.898388 
L 370.306813 87.97257 
L 371.582363 89.939163 
L 372.857913 91.282169 
L 374.133463 90.17897 
L 375.409013 89.795188 
L 376.684563 89.555382 
L 377.960113 88.116431 
L 379.235664 85.670225 
L 380.511214 87.540873 
L 381.786764 86.149952 
L 383.062314 89.795188 
L 384.337864 86.341728 
L 385.613414 86.293813 
L 386.888964 87.397012 
L 388.164514 89.219631 
L 389.440064 88.404267 
L 390.715614 83.847607 
L 391.991164 86.485703 
L 393.266714 83.847607 
L 394.542264 80.346231 
L 395.817814 80.873759 
L 397.093364 81.833098 
L 398.368914 84.711001 
L 399.644464 79.914535 
L 400.920014 83.943552 
L 402.195564 81.737153 
L 403.471115 81.401401 
L 404.746665 79.914535 
L 406.022215 82.216765 
L 407.297765 81.113565 
L 408.573315 77.084548 
L 409.848865 79.195002 
L 411.124415 78.475583 
L 412.399965 81.689237 
L 413.675515 79.051141 
L 414.951065 82.36074 
L 416.226615 79.099056 
L 418.777715 75.501736 
L 420.053265 76.269184 
L 421.328815 76.461074 
L 422.604365 73.631087 
L 423.879915 77.228523 
L 425.155465 73.679117 
L 426.431015 76.844741 
L 427.706566 77.80408 
L 428.982116 73.391281 
L 430.257666 74.398536 
L 431.533216 75.022123 
L 432.808766 77.80408 
L 434.084316 70.993105 
L 435.359866 80.01048 
L 436.635416 74.926178 
L 437.910966 72.432057 
L 439.186516 73.583172 
L 440.462066 72.288082 
L 441.737616 71.904415 
L 443.013166 71.232912 
L 444.288716 71.376772 
L 445.564266 70.369518 
L 446.839816 66.484361 
L 448.115366 69.6501 
L 449.390916 71.520633 
L 450.666466 67.491616 
L 451.942017 69.170373 
L 453.217567 67.779452 
L 454.493117 70.225657 
L 455.768667 70.609324 
L 457.044217 72.288082 
L 458.319767 65.860888 
L 459.595317 68.49887 
L 460.870867 69.314348 
L 462.146417 67.155864 
L 463.421967 67.059919 
L 464.697517 62.791095 
L 465.973067 63.894295 
L 467.248617 70.465463 
L 468.524167 64.757688 
L 469.799717 66.196639 
L 471.075267 64.757688 
L 472.350817 62.119592 
L 473.626367 64.661743 
L 474.901917 61.160253 
L 476.177467 64.901549 
L 477.453018 62.88704 
L 478.728568 61.927701 
L 480.004118 63.606459 
L 481.279668 63.94221 
L 482.555218 63.318737 
L 483.830768 56.315871 
L 485.106318 63.510513 
L 486.381868 59.097829 
L 487.657418 60.057053 
L 488.932968 59.721302 
L 490.208518 61.256198 
L 491.484068 57.131235 
L 492.759618 56.507762 
L 494.035168 59.38555 
L 495.310718 58.33038 
L 496.586268 59.145744 
L 497.861818 56.411817 
L 499.137368 55.93209 
L 500.412918 57.419071 
L 501.688469 59.38555 
L 502.964019 58.186519 
L 504.239569 55.452478 
L 505.515119 57.610962 
L 506.790669 54.780975 
L 508.066219 56.603593 
L 509.341769 53.82175 
L 510.617319 53.77372 
L 513.168419 54.493253 
L 514.443969 52.094963 
L 515.719519 52.190908 
L 516.995069 54.493253 
L 518.270619 55.404562 
L 519.546169 53.342024 
L 520.821719 53.390053 
L 522.097269 54.253333 
L 523.372819 50.080454 
L 524.648369 52.047048 
L 525.92392 52.286854 
L 527.19947 49.888564 
L 528.47502 52.142879 
L 529.75057 50.464121 
L 531.02612 49.792618 
L 532.30167 53.006272 
L 533.57722 48.929339 
L 534.85277 49.888564 
L 536.12832 45.907461 
L 537.40387 51.375545 
L 538.67942 51.279599 
L 539.95497 45.523794 
L 541.23052 46.147382 
L 542.50607 46.435103 
L 543.78162 45.907461 
L 545.05717 44.372679 
L 546.33272 46.387188 
L 547.60827 47.394442 
L 550.159371 45.283988 
L 551.434921 43.221449 
L 552.710471 41.878444 
L 553.986021 44.51654 
L 555.261571 43.701176 
L 556.537121 42.262225 
L 557.812671 42.549947 
L 559.088221 45.044182 
L 560.363771 42.645892 
L 561.639321 41.638637 
L 562.914871 46.722939 
L 564.190421 42.35817 
L 565.465971 46.243327 
L 566.741521 41.878444 
L 568.017071 42.406086 
L 569.292621 41.206941 
L 570.568171 39.000655 
L 571.843721 42.262225 
L 573.119271 40.535438 
L 575.670372 40.631383 
L 576.945922 36.170668 
L 578.221472 42.11825 
L 582.048122 36.842171 
L 583.323672 39.144516 
L 584.599222 36.746226 
L 585.874772 38.377068 
L 587.150322 36.842171 
L 588.425872 35.882947 
L 589.701422 38.616874 
L 590.976972 37.321784 
L 592.252522 34.923608 
L 593.528072 34.827663 
L 594.803622 32.189566 
L 596.079172 33.580602 
L 597.354722 37.225953 
L 598.630273 34.731717 
L 599.905823 34.635772 
L 601.181373 31.470148 
L 602.456923 32.189566 
L 603.732473 31.94976 
L 605.008023 32.861069 
L 606.283573 33.148905 
L 607.559123 32.333541 
L 608.834673 33.005044 
L 610.110223 31.662038 
L 611.385773 29.839306 
L 612.661323 32.333541 
L 613.936873 30.558839 
L 615.212423 31.230342 
L 616.487973 28.640275 
L 617.763523 30.223087 
L 619.039073 29.407609 
L 620.314623 28.832051 
L 621.590173 29.023942 
L 622.865724 29.359694 
L 624.141274 29.503554 
L 625.416824 28.352439 
L 627.967924 28.064603 
L 629.243474 26.433876 
L 630.519024 26.33793 
L 631.794574 27.153294 
L 633.070124 23.028331 
L 634.345674 25.522567 
L 635.621224 25.09087 
L 638.172324 28.4963 
L 639.447874 25.762373 
L 640.723424 24.083615 
L 641.998974 23.98767 
L 643.274524 23.172192 
L 644.550074 25.282646 
L 645.825624 23.555973 
L 647.101175 23.93964 
L 648.376725 22.117022 
L 649.652275 23.651918 
L 650.927825 22.021077 
L 652.203375 22.548719 
L 653.478925 22.069106 
L 654.754475 19.862707 
L 656.030025 24.611143 
L 657.305575 22.308913 
L 658.581125 21.253628 
L 659.856675 20.965907 
L 661.132225 22.596634 
L 662.407775 19.910622 
L 663.683325 20.630155 
L 664.958875 22.740609 
L 667.509975 17.944143 
L 668.785525 18.567616 
L 671.336626 19.239119 
L 672.612176 21.829186 
L 673.887726 18.32781 
L 675.163276 19.43101 
L 676.438826 17.656307 
L 677.714376 17.608392 
L 678.989926 16.217356 
L 680.265476 19.38298 
L 681.541026 18.903368 
L 682.816576 16.888859 
L 684.092126 19.718732 
L 685.367676 17.27264 
L 686.643226 17.416501 
L 687.918776 18.423756 
L 687.918776 18.423756 
" style="fill:none;stroke:#fdae61;stroke-linecap:square;stroke-width:1.5;"/>
   </g>
   <g id="line2d_34">
    <path clip-path="url(#pcf75f87982)" d="M 73.205774 371.91625 
L 74.379201 358.948942 
L 75.124072 371.91625 
M 76.42726 371.91625 
L 76.930301 365.900347 
L 78.205851 353.156086 
L 79.481401 356.438697 
L 80.756951 351.997537 
L 82.032501 335.584482 
L 83.308051 348.521777 
L 84.583601 359.141976 
L 85.859151 340.025641 
L 87.134702 327.667562 
L 89.685802 334.425933 
L 90.961352 314.537118 
L 92.236902 331.722539 
L 93.512452 303.530736 
L 94.788002 305.654799 
L 96.063552 312.992387 
L 97.339102 304.110068 
L 98.614652 309.130444 
L 99.890202 298.317211 
L 101.165752 309.323593 
L 102.441302 301.213639 
L 103.716852 304.110068 
L 104.992402 318.399061 
L 106.267952 296.77248 
L 107.543502 287.310829 
L 108.819052 293.489869 
L 110.094602 291.751989 
L 111.370153 284.607435 
L 112.645703 288.855561 
L 113.921253 283.255853 
L 115.196803 291.365806 
L 116.472353 304.689285 
L 117.747903 289.821075 
L 119.023453 292.910537 
L 120.299003 278.235362 
L 121.574553 284.028218 
L 122.850103 273.987237 
L 124.125653 288.855561 
L 125.401203 281.324824 
L 126.676753 288.276229 
L 127.952303 269.93226 
L 129.227853 282.676521 
L 130.503403 281.517973 
L 131.778953 272.442505 
L 133.054503 280.745607 
L 134.330053 268.387529 
L 135.605604 261.049941 
L 136.881154 285.57295 
L 138.156704 277.076813 
L 139.432254 257.960364 
L 140.707804 264.911769 
L 141.983354 263.946369 
L 143.258904 273.214871 
L 145.810004 263.946369 
L 147.085554 262.594672 
L 148.361104 252.553805 
L 149.636654 276.304448 
L 150.912204 269.546077 
L 152.187754 278.621545 
L 153.463304 258.732844 
L 154.738854 262.980855 
L 156.014404 272.056322 
L 157.289954 269.546077 
L 158.565504 265.877283 
L 159.841055 257.574181 
L 161.116605 266.070432 
L 162.392155 267.22898 
L 163.667705 264.911769 
L 164.943255 258.732844 
L 166.218805 257.960364 
L 167.494355 265.104917 
L 168.769905 257.960364 
L 170.045455 259.698244 
L 171.321005 256.994964 
L 172.596555 271.67014 
L 173.872105 240.002577 
L 175.147655 268.580563 
L 176.423205 253.519204 
L 177.698755 246.953982 
L 178.974305 254.098536 
L 180.249855 254.29157 
L 181.525405 244.057554 
L 182.800955 253.32617 
L 184.076506 252.746839 
L 185.352056 266.649649 
L 186.627606 257.76733 
L 187.903156 261.822306 
L 189.178706 268.19438 
L 190.454256 266.649649 
L 191.729806 253.905387 
L 193.005356 246.760948 
L 194.280906 257.574181 
L 195.556456 261.436124 
L 196.832006 248.691862 
L 198.107556 266.456615 
L 199.383106 249.464228 
L 200.658656 242.512823 
L 201.934206 261.629158 
L 203.209756 253.133022 
L 204.485306 242.705971 
L 205.760856 262.208489 
L 207.036406 236.719966 
L 208.311956 246.181617 
L 209.587507 249.85041 
L 210.863057 240.002577 
L 212.138607 246.374765 
L 213.414157 243.092154 
L 214.689707 242.319788 
L 215.965257 260.277575 
L 217.240807 241.354274 
L 218.516357 254.29157 
L 219.791907 251.781325 
L 221.067457 246.374765 
L 222.343007 260.084427 
L 223.618557 248.498828 
L 224.894107 255.257084 
L 226.169657 250.622776 
L 227.445207 249.271193 
L 228.720757 248.112531 
L 229.996307 258.925878 
L 231.271857 246.760948 
L 232.547407 251.781325 
L 233.822958 243.285188 
L 235.098508 242.705971 
L 236.374058 247.340165 
L 237.649608 239.037177 
L 238.925158 240.002577 
L 240.200708 244.250703 
L 241.476258 241.161126 
L 242.751808 259.312061 
L 244.027358 250.815925 
L 245.302908 240.774943 
L 246.578458 240.002577 
L 247.854008 250.429742 
L 249.129558 248.305679 
L 250.405108 248.691862 
L 251.680658 244.940503 
L 252.956208 245.023068 
L 254.231758 251.008959 
L 255.507308 238.071663 
L 256.782858 248.691862 
L 258.058409 237.68548 
L 259.333959 263.946369 
L 260.609509 244.057554 
L 261.885059 257.381147 
L 263.160609 246.567799 
L 264.436159 242.899005 
L 265.711709 237.299298 
L 268.262809 255.836416 
L 269.538359 230.540927 
L 270.813909 246.953982 
L 272.089459 244.250703 
L 273.365009 244.443737 
L 274.640559 236.913115 
L 275.916109 230.347893 
L 277.191659 239.230212 
L 278.467209 240.581909 
L 279.742759 236.526932 
L 281.018309 246.760948 
L 283.56941 245.216217 
L 284.84496 233.244321 
L 286.12051 249.85041 
L 287.39606 244.443737 
L 288.67161 248.691862 
L 291.22271 244.250703 
L 292.49826 236.719966 
L 293.77381 244.82992 
L 295.04936 246.760948 
L 296.32491 245.988582 
L 297.60046 272.442505 
L 298.87601 245.409251 
L 300.15156 250.043559 
L 301.42711 238.650995 
L 303.97821 231.892624 
L 305.25376 234.595903 
L 306.529311 227.644498 
L 307.804861 247.919496 
L 309.080411 246.567799 
L 310.355961 243.092154 
L 311.631511 228.030796 
L 312.907061 245.023068 
L 314.182611 250.815925 
L 315.458161 239.42336 
L 316.733711 243.671371 
L 318.009261 227.837647 
L 319.284811 242.319788 
L 320.560361 238.264812 
L 321.835911 230.154744 
L 323.111461 231.313407 
L 324.387011 237.68548 
L 325.662561 234.982201 
L 326.938111 223.203339 
L 328.213661 230.540927 
L 329.489211 226.679099 
L 330.764762 235.9476 
L 332.040312 226.679099 
L 333.315862 238.071663 
L 335.866962 228.416978 
L 337.142512 230.540927 
L 338.418062 225.713584 
L 339.693612 229.768561 
L 340.969162 246.181617 
L 342.244712 236.333783 
L 343.520262 228.030796 
L 344.795812 233.244321 
L 346.071362 236.913115 
L 347.346912 223.78267 
L 348.622462 226.292916 
L 349.898012 230.347893 
L 351.173562 237.68548 
L 352.449112 238.844029 
L 353.724662 224.168853 
L 355.000213 232.858138 
L 356.275763 226.679099 
L 357.551313 229.768561 
L 358.826863 226.679099 
L 360.102413 225.713584 
L 361.377963 229.189344 
L 362.653513 221.465573 
L 363.929063 238.650995 
L 365.204613 225.713584 
L 366.480163 210.459077 
L 367.755713 234.209721 
L 369.031263 226.679099 
L 370.306813 233.630504 
L 371.582363 236.719966 
L 372.857913 228.030796 
L 374.133463 223.010305 
L 375.409013 226.872133 
L 376.684563 218.762179 
L 377.960113 228.803161 
L 379.235664 227.258316 
L 380.511214 221.465573 
L 381.786764 230.92711 
L 383.062314 231.892624 
L 384.337864 210.845375 
L 385.613414 225.906733 
L 386.888964 226.099767 
L 388.164514 229.382378 
L 389.440064 221.465573 
L 390.715614 235.9476 
L 391.991164 231.69959 
L 393.266714 223.78267 
L 394.542264 229.189344 
L 395.817814 233.437355 
L 397.093364 218.569145 
L 398.368914 226.48595 
L 399.644464 218.762179 
L 400.920014 220.693093 
L 402.195564 226.679099 
L 403.471115 231.313407 
L 404.746665 226.679099 
L 406.022215 229.768561 
L 407.297765 223.589522 
L 408.573315 230.734075 
L 409.848865 216.445083 
L 411.124415 223.975705 
L 412.399965 225.906733 
L 413.675515 235.368383 
L 414.951065 227.258316 
L 416.226615 232.664989 
L 417.502165 222.624122 
L 418.777715 218.375997 
L 420.053265 218.375997 
L 421.328815 226.872133 
L 422.604365 216.0589 
L 423.879915 220.886242 
L 425.155465 215.479568 
L 426.431015 228.996195 
L 427.706566 223.396488 
L 428.982116 221.851756 
L 430.257666 227.837647 
L 431.533216 219.534545 
L 432.808766 219.534545 
L 434.084316 217.217448 
L 435.359866 219.341511 
L 436.635416 214.514168 
L 437.910966 225.52055 
L 439.186516 222.044791 
L 440.462066 215.865751 
L 441.737616 222.624122 
L 443.013166 212.776289 
L 444.288716 222.624122 
L 445.564266 225.713584 
L 446.839816 220.886242 
L 448.115366 236.913115 
L 449.390916 234.209721 
L 450.666466 226.48595 
L 451.942017 226.492468 
L 453.217567 232.278807 
L 454.493117 223.396488 
L 455.768667 219.148362 
L 457.044217 231.892624 
L 458.319767 213.162471 
L 459.595317 219.534545 
L 460.870867 216.251934 
L 462.146417 215.286534 
L 463.421967 215.093386 
L 464.697517 217.79678 
L 465.973067 217.217448 
L 467.248617 220.500059 
L 468.524167 211.231557 
L 469.799717 215.093386 
L 471.075267 226.679099 
L 472.350817 219.727694 
L 473.626367 216.251934 
L 474.901917 224.748185 
L 476.177467 221.272425 
L 477.453018 214.707203 
L 478.728568 215.672717 
L 480.004118 219.148362 
L 481.279668 213.548654 
L 482.555218 220.500059 
L 483.830768 218.375997 
L 485.106318 223.589522 
L 486.381868 222.430973 
L 487.657418 220.693093 
L 488.932968 217.410482 
L 490.208518 216.0589 
L 491.484068 217.410482 
L 492.759618 220.500059 
L 494.035168 218.955328 
L 495.310718 213.741688 
L 496.586268 236.140749 
L 497.861818 215.479568 
L 499.137368 227.451464 
L 500.412918 218.955328 
L 501.688469 225.52055 
L 502.964019 212.776289 
L 504.239569 214.127871 
L 505.515119 229.768561 
L 506.790669 216.251934 
L 508.066219 213.548654 
L 509.341769 221.079391 
L 510.617319 213.741688 
L 511.892869 224.941219 
L 513.168419 222.624122 
L 514.443969 216.831265 
L 515.719519 220.693093 
L 516.995069 226.872133 
L 518.270619 209.300529 
L 519.546169 212.003923 
L 520.821719 215.286534 
L 522.097269 209.493678 
L 523.372819 222.044791 
L 524.648369 224.941219 
L 525.92392 216.831265 
L 527.19947 214.127871 
L 528.47502 220.306911 
L 529.75057 216.831265 
L 531.02612 219.534545 
L 532.30167 213.741688 
L 533.57722 217.0243 
L 534.85277 206.597249 
L 536.12832 217.0243 
L 537.40387 225.906733 
L 538.67942 216.0589 
L 539.95497 220.306911 
L 541.23052 210.652226 
L 542.50607 215.479568 
L 543.78162 213.741688 
L 545.05717 210.266043 
L 546.33272 214.707203 
L 547.60827 215.479568 
L 548.88382 222.624122 
L 550.159371 218.375997 
L 551.434921 219.920728 
L 552.710471 214.514168 
L 553.986021 211.231557 
L 555.261571 207.369615 
L 556.537121 220.886242 
L 557.812671 211.231557 
L 559.088221 216.638117 
L 560.363771 206.017918 
L 561.639321 207.562763 
L 562.914871 218.955328 
L 564.190421 202.349124 
L 565.465971 215.093386 
L 566.741521 221.079391 
L 568.017071 209.493678 
L 569.292621 208.721312 
L 570.568171 202.735307 
L 571.843721 217.79678 
L 573.119271 207.948946 
L 574.394822 210.845375 
L 576.945922 217.79678 
L 578.221472 203.507672 
L 579.497022 221.079391 
L 580.772572 206.404101 
L 582.048122 206.211066 
L 583.323672 221.079391 
L 584.599222 211.038409 
L 585.874772 222.237939 
L 587.150322 209.300529 
L 588.425872 209.686712 
L 589.701422 216.831265 
L 590.976972 213.162471 
L 592.252522 218.762179 
L 593.528072 209.493678 
L 594.803622 205.631735 
L 596.079172 213.162471 
L 597.354722 208.914346 
L 598.630273 216.831265 
L 599.905823 214.32102 
L 601.181373 214.514168 
L 602.456923 214.127871 
L 603.732473 211.61774 
L 605.008023 207.369615 
L 606.283573 200.804393 
L 607.559123 215.479568 
L 608.834673 207.948946 
L 610.110223 206.404101 
L 611.385773 204.280152 
L 612.661323 207.755798 
L 613.936873 210.072895 
L 615.212423 200.41821 
L 616.487973 199.838879 
L 617.763523 208.914346 
L 619.039073 209.87986 
L 620.314623 204.087004 
L 621.590173 207.369615 
L 622.865724 201.190576 
L 624.141274 210.652226 
L 625.416824 205.631735 
L 626.692374 210.845375 
L 627.967924 205.438701 
L 629.243474 213.355506 
L 630.519024 206.211066 
L 631.794574 210.845375 
L 633.070124 209.300529 
L 634.345674 203.700821 
L 635.621224 212.58314 
L 636.896774 199.259661 
L 638.172324 217.217448 
L 639.447874 199.452696 
L 640.723424 207.948946 
L 641.998974 205.631735 
L 643.274524 210.459077 
L 644.550074 201.769907 
L 645.825624 208.335129 
L 648.376725 204.473187 
L 649.652275 209.493678 
L 650.927825 205.631735 
L 652.203375 203.816893 
L 653.478925 208.914346 
L 654.754475 202.928455 
L 656.030025 204.859369 
L 657.305575 203.314638 
L 658.581125 205.245552 
L 659.856675 206.017918 
L 661.132225 204.087004 
L 662.407775 206.017918 
L 663.683325 209.493678 
L 664.958875 199.066513 
L 666.234425 208.141981 
L 667.509975 201.576758 
L 668.785525 204.666335 
L 670.061075 203.507672 
L 671.336626 203.314638 
L 672.612176 200.804393 
L 673.887726 207.755798 
L 675.163276 198.101113 
L 676.438826 207.176466 
L 677.714376 198.294147 
L 678.989926 203.314638 
L 680.265476 199.838879 
L 681.541026 199.259661 
L 682.816576 202.735307 
L 684.092126 206.790283 
L 685.367676 192.308256 
L 686.643226 210.459077 
L 687.918776 197.521782 
L 687.918776 197.521782 
" style="fill:none;stroke:#d7191c;stroke-linecap:square;stroke-width:1.5;"/>
   </g>
   <g id="patch_3">
    <path d="M 50.14375 333.36 
L 50.14375 7.2 
" style="fill:none;stroke:#000000;stroke-linecap:square;stroke-linejoin:miter;stroke-width:0.8;"/>
   </g>
   <g id="patch_4">
    <path d="M 719.74375 333.36 
L 719.74375 7.2 
" style="fill:none;stroke:#000000;stroke-linecap:square;stroke-linejoin:miter;stroke-width:0.8;"/>
   </g>
   <g id="patch_5">
    <path d="M 50.14375 333.36 
L 719.74375 333.36 
" style="fill:none;stroke:#000000;stroke-linecap:square;stroke-linejoin:miter;stroke-width:0.8;"/>
   </g>
   <g id="patch_6">
    <path d="M 50.14375 7.2 
L 719.74375 7.2 
" style="fill:none;stroke:#000000;stroke-linecap:square;stroke-linejoin:miter;stroke-width:0.8;"/>
   </g>
   <g id="legend_1">
    <g id="patch_7">
     <path d="M 57.14375 73.9125 
L 228.582813 73.9125 
Q 230.582813 73.9125 230.582813 71.9125 
L 230.582813 14.2 
Q 230.582813 12.2 228.582813 12.2 
L 57.14375 12.2 
Q 55.14375 12.2 55.14375 14.2 
L 55.14375 71.9125 
Q 55.14375 73.9125 57.14375 73.9125 
z
" style="fill:#ffffff;opacity:0.8;stroke:#cccccc;stroke-linejoin:miter;"/>
    </g>
    <g id="line2d_35">
     <path d="M 59.14375 20.298437 
L 79.14375 20.298437 
" style="fill:none;stroke:#abd9e9;stroke-linecap:square;stroke-width:1.5;"/>
    </g>
    <g id="line2d_36"/>
    <g id="text_18">
     <!-- Train -->
     <defs>
      <path d="M -0.296875 72.90625 
L 61.375 72.90625 
L 61.375 64.59375 
L 35.5 64.59375 
L 35.5 0 
L 25.59375 0 
L 25.59375 64.59375 
L -0.296875 64.59375 
z
" id="DejaVuSans-84"/>
      <path d="M 9.421875 54.6875 
L 18.40625 54.6875 
L 18.40625 0 
L 9.421875 0 
z
M 9.421875 75.984375 
L 18.40625 75.984375 
L 18.40625 64.59375 
L 9.421875 64.59375 
z
" id="DejaVuSans-105"/>
      <path d="M 54.890625 33.015625 
L 54.890625 0 
L 45.90625 0 
L 45.90625 32.71875 
Q 45.90625 40.484375 42.875 44.328125 
Q 39.84375 48.1875 33.796875 48.1875 
Q 26.515625 48.1875 22.3125 43.546875 
Q 18.109375 38.921875 18.109375 30.90625 
L 18.109375 0 
L 9.078125 0 
L 9.078125 54.6875 
L 18.109375 54.6875 
L 18.109375 46.1875 
Q 21.34375 51.125 25.703125 53.5625 
Q 30.078125 56 35.796875 56 
Q 45.21875 56 50.046875 50.171875 
Q 54.890625 44.34375 54.890625 33.015625 
z
" id="DejaVuSans-110"/>
     </defs>
     <g transform="translate(87.14375 23.798437)scale(0.1 -0.1)">
      <use xlink:href="#DejaVuSans-84"/>
      <use x="60.865234" xlink:href="#DejaVuSans-114"/>
      <use x="101.978516" xlink:href="#DejaVuSans-97"/>
      <use x="163.257812" xlink:href="#DejaVuSans-105"/>
      <use x="191.041016" xlink:href="#DejaVuSans-110"/>
     </g>
    </g>
    <g id="line2d_37">
     <path d="M 59.14375 34.976562 
L 79.14375 34.976562 
" style="fill:none;stroke:#2c7bb6;stroke-linecap:square;stroke-width:1.5;"/>
    </g>
    <g id="line2d_38"/>
    <g id="text_19">
     <!-- Validation -->
     <defs>
      <path d="M 28.609375 0 
L 0.78125 72.90625 
L 11.078125 72.90625 
L 34.1875 11.53125 
L 57.328125 72.90625 
L 67.578125 72.90625 
L 39.796875 0 
z
" id="DejaVuSans-86"/>
      <path d="M 9.421875 75.984375 
L 18.40625 75.984375 
L 18.40625 0 
L 9.421875 0 
z
" id="DejaVuSans-108"/>
      <path d="M 45.40625 46.390625 
L 45.40625 75.984375 
L 54.390625 75.984375 
L 54.390625 0 
L 45.40625 0 
L 45.40625 8.203125 
Q 42.578125 3.328125 38.25 0.953125 
Q 33.9375 -1.421875 27.875 -1.421875 
Q 17.96875 -1.421875 11.734375 6.484375 
Q 5.515625 14.40625 5.515625 27.296875 
Q 5.515625 40.1875 11.734375 48.09375 
Q 17.96875 56 27.875 56 
Q 33.9375 56 38.25 53.625 
Q 42.578125 51.265625 45.40625 46.390625 
z
M 14.796875 27.296875 
Q 14.796875 17.390625 18.875 11.75 
Q 22.953125 6.109375 30.078125 6.109375 
Q 37.203125 6.109375 41.296875 11.75 
Q 45.40625 17.390625 45.40625 27.296875 
Q 45.40625 37.203125 41.296875 42.84375 
Q 37.203125 48.484375 30.078125 48.484375 
Q 22.953125 48.484375 18.875 42.84375 
Q 14.796875 37.203125 14.796875 27.296875 
z
" id="DejaVuSans-100"/>
      <path d="M 18.3125 70.21875 
L 18.3125 54.6875 
L 36.8125 54.6875 
L 36.8125 47.703125 
L 18.3125 47.703125 
L 18.3125 18.015625 
Q 18.3125 11.328125 20.140625 9.421875 
Q 21.96875 7.515625 27.59375 7.515625 
L 36.8125 7.515625 
L 36.8125 0 
L 27.59375 0 
Q 17.1875 0 13.234375 3.875 
Q 9.28125 7.765625 9.28125 18.015625 
L 9.28125 47.703125 
L 2.6875 47.703125 
L 2.6875 54.6875 
L 9.28125 54.6875 
L 9.28125 70.21875 
z
" id="DejaVuSans-116"/>
     </defs>
     <g transform="translate(87.14375 38.476562)scale(0.1 -0.1)">
      <use xlink:href="#DejaVuSans-86"/>
      <use x="68.298828" xlink:href="#DejaVuSans-97"/>
      <use x="129.578125" xlink:href="#DejaVuSans-108"/>
      <use x="157.361328" xlink:href="#DejaVuSans-105"/>
      <use x="185.144531" xlink:href="#DejaVuSans-100"/>
      <use x="248.621094" xlink:href="#DejaVuSans-97"/>
      <use x="309.900391" xlink:href="#DejaVuSans-116"/>
      <use x="349.109375" xlink:href="#DejaVuSans-105"/>
      <use x="376.892578" xlink:href="#DejaVuSans-111"/>
      <use x="438.074219" xlink:href="#DejaVuSans-110"/>
     </g>
    </g>
    <g id="line2d_39">
     <path d="M 59.14375 49.654687 
L 79.14375 49.654687 
" style="fill:none;stroke:#fdae61;stroke-linecap:square;stroke-width:1.5;"/>
    </g>
    <g id="line2d_40"/>
    <g id="text_20">
     <!-- No augmentation train -->
     <defs>
      <path d="M 9.8125 72.90625 
L 23.09375 72.90625 
L 55.421875 11.921875 
L 55.421875 72.90625 
L 64.984375 72.90625 
L 64.984375 0 
L 51.703125 0 
L 19.390625 60.984375 
L 19.390625 0 
L 9.8125 0 
z
" id="DejaVuSans-78"/>
      <path id="DejaVuSans-32"/>
      <path d="M 45.40625 27.984375 
Q 45.40625 37.75 41.375 43.109375 
Q 37.359375 48.484375 30.078125 48.484375 
Q 22.859375 48.484375 18.828125 43.109375 
Q 14.796875 37.75 14.796875 27.984375 
Q 14.796875 18.265625 18.828125 12.890625 
Q 22.859375 7.515625 30.078125 7.515625 
Q 37.359375 7.515625 41.375 12.890625 
Q 45.40625 18.265625 45.40625 27.984375 
z
M 54.390625 6.78125 
Q 54.390625 -7.171875 48.1875 -13.984375 
Q 42 -20.796875 29.203125 -20.796875 
Q 24.46875 -20.796875 20.265625 -20.09375 
Q 16.0625 -19.390625 12.109375 -17.921875 
L 12.109375 -9.1875 
Q 16.0625 -11.328125 19.921875 -12.34375 
Q 23.78125 -13.375 27.78125 -13.375 
Q 36.625 -13.375 41.015625 -8.765625 
Q 45.40625 -4.15625 45.40625 5.171875 
L 45.40625 9.625 
Q 42.625 4.78125 38.28125 2.390625 
Q 33.9375 0 27.875 0 
Q 17.828125 0 11.671875 7.65625 
Q 5.515625 15.328125 5.515625 27.984375 
Q 5.515625 40.671875 11.671875 48.328125 
Q 17.828125 56 27.875 56 
Q 33.9375 56 38.28125 53.609375 
Q 42.625 51.21875 45.40625 46.390625 
L 45.40625 54.6875 
L 54.390625 54.6875 
z
" id="DejaVuSans-103"/>
      <path d="M 52 44.1875 
Q 55.375 50.25 60.0625 53.125 
Q 64.75 56 71.09375 56 
Q 79.640625 56 84.28125 50.015625 
Q 88.921875 44.046875 88.921875 33.015625 
L 88.921875 0 
L 79.890625 0 
L 79.890625 32.71875 
Q 79.890625 40.578125 77.09375 44.375 
Q 74.3125 48.1875 68.609375 48.1875 
Q 61.625 48.1875 57.5625 43.546875 
Q 53.515625 38.921875 53.515625 30.90625 
L 53.515625 0 
L 44.484375 0 
L 44.484375 32.71875 
Q 44.484375 40.625 41.703125 44.40625 
Q 38.921875 48.1875 33.109375 48.1875 
Q 26.21875 48.1875 22.15625 43.53125 
Q 18.109375 38.875 18.109375 30.90625 
L 18.109375 0 
L 9.078125 0 
L 9.078125 54.6875 
L 18.109375 54.6875 
L 18.109375 46.1875 
Q 21.1875 51.21875 25.484375 53.609375 
Q 29.78125 56 35.6875 56 
Q 41.65625 56 45.828125 52.96875 
Q 50 49.953125 52 44.1875 
z
" id="DejaVuSans-109"/>
      <path d="M 56.203125 29.59375 
L 56.203125 25.203125 
L 14.890625 25.203125 
Q 15.484375 15.921875 20.484375 11.0625 
Q 25.484375 6.203125 34.421875 6.203125 
Q 39.59375 6.203125 44.453125 7.46875 
Q 49.3125 8.734375 54.109375 11.28125 
L 54.109375 2.78125 
Q 49.265625 0.734375 44.1875 -0.34375 
Q 39.109375 -1.421875 33.890625 -1.421875 
Q 20.796875 -1.421875 13.15625 6.1875 
Q 5.515625 13.8125 5.515625 26.8125 
Q 5.515625 40.234375 12.765625 48.109375 
Q 20.015625 56 32.328125 56 
Q 43.359375 56 49.78125 48.890625 
Q 56.203125 41.796875 56.203125 29.59375 
z
M 47.21875 32.234375 
Q 47.125 39.59375 43.09375 43.984375 
Q 39.0625 48.390625 32.421875 48.390625 
Q 24.90625 48.390625 20.390625 44.140625 
Q 15.875 39.890625 15.1875 32.171875 
z
" id="DejaVuSans-101"/>
     </defs>
     <g transform="translate(87.14375 53.154687)scale(0.1 -0.1)">
      <use xlink:href="#DejaVuSans-78"/>
      <use x="74.804688" xlink:href="#DejaVuSans-111"/>
      <use x="135.986328" xlink:href="#DejaVuSans-32"/>
      <use x="167.773438" xlink:href="#DejaVuSans-97"/>
      <use x="229.052734" xlink:href="#DejaVuSans-117"/>
      <use x="292.431641" xlink:href="#DejaVuSans-103"/>
      <use x="355.908203" xlink:href="#DejaVuSans-109"/>
      <use x="453.320312" xlink:href="#DejaVuSans-101"/>
      <use x="514.84375" xlink:href="#DejaVuSans-110"/>
      <use x="578.222656" xlink:href="#DejaVuSans-116"/>
      <use x="617.431641" xlink:href="#DejaVuSans-97"/>
      <use x="678.710938" xlink:href="#DejaVuSans-116"/>
      <use x="717.919922" xlink:href="#DejaVuSans-105"/>
      <use x="745.703125" xlink:href="#DejaVuSans-111"/>
      <use x="806.884766" xlink:href="#DejaVuSans-110"/>
      <use x="870.263672" xlink:href="#DejaVuSans-32"/>
      <use x="902.050781" xlink:href="#DejaVuSans-116"/>
      <use x="941.259766" xlink:href="#DejaVuSans-114"/>
      <use x="982.373047" xlink:href="#DejaVuSans-97"/>
      <use x="1043.652344" xlink:href="#DejaVuSans-105"/>
      <use x="1071.435547" xlink:href="#DejaVuSans-110"/>
     </g>
    </g>
    <g id="line2d_41">
     <path d="M 59.14375 64.332812 
L 79.14375 64.332812 
" style="fill:none;stroke:#d7191c;stroke-linecap:square;stroke-width:1.5;"/>
    </g>
    <g id="line2d_42"/>
    <g id="text_21">
     <!-- No augmentation validation -->
     <defs>
      <path d="M 2.984375 54.6875 
L 12.5 54.6875 
L 29.59375 8.796875 
L 46.6875 54.6875 
L 56.203125 54.6875 
L 35.6875 0 
L 23.484375 0 
z
" id="DejaVuSans-118"/>
     </defs>
     <g transform="translate(87.14375 67.832812)scale(0.1 -0.1)">
      <use xlink:href="#DejaVuSans-78"/>
      <use x="74.804688" xlink:href="#DejaVuSans-111"/>
      <use x="135.986328" xlink:href="#DejaVuSans-32"/>
      <use x="167.773438" xlink:href="#DejaVuSans-97"/>
      <use x="229.052734" xlink:href="#DejaVuSans-117"/>
      <use x="292.431641" xlink:href="#DejaVuSans-103"/>
      <use x="355.908203" xlink:href="#DejaVuSans-109"/>
      <use x="453.320312" xlink:href="#DejaVuSans-101"/>
      <use x="514.84375" xlink:href="#DejaVuSans-110"/>
      <use x="578.222656" xlink:href="#DejaVuSans-116"/>
      <use x="617.431641" xlink:href="#DejaVuSans-97"/>
      <use x="678.710938" xlink:href="#DejaVuSans-116"/>
      <use x="717.919922" xlink:href="#DejaVuSans-105"/>
      <use x="745.703125" xlink:href="#DejaVuSans-111"/>
      <use x="806.884766" xlink:href="#DejaVuSans-110"/>
      <use x="870.263672" xlink:href="#DejaVuSans-32"/>
      <use x="902.050781" xlink:href="#DejaVuSans-118"/>
      <use x="961.230469" xlink:href="#DejaVuSans-97"/>
      <use x="1022.509766" xlink:href="#DejaVuSans-108"/>
      <use x="1050.292969" xlink:href="#DejaVuSans-105"/>
      <use x="1078.076172" xlink:href="#DejaVuSans-100"/>
      <use x="1141.552734" xlink:href="#DejaVuSans-97"/>
      <use x="1202.832031" xlink:href="#DejaVuSans-116"/>
      <use x="1242.041016" xlink:href="#DejaVuSans-105"/>
      <use x="1269.824219" xlink:href="#DejaVuSans-111"/>
      <use x="1331.005859" xlink:href="#DejaVuSans-110"/>
     </g>
    </g>
   </g>
  </g>
 </g>
 <defs>
  <clipPath id="pcf75f87982">
   <rect height="326.16" width="669.6" x="50.14375" y="7.2"/>
  </clipPath>
 </defs>
</svg>
