<?xml version="1.0" encoding="utf-8" standalone="no"?>
<!DOCTYPE svg PUBLIC "-//W3C//DTD SVG 1.1//EN"
  "http://www.w3.org/Graphics/SVG/1.1/DTD/svg11.dtd">
<!-- Created with matplotlib (https://matplotlib.org/) -->
<svg height="374.715469pt" version="1.1" viewBox="0 0 726.94375 374.715469" width="726.94375pt" xmlns="http://www.w3.org/2000/svg" xmlns:xlink="http://www.w3.org/1999/xlink">
 <defs>
  <style type="text/css">
*{stroke-linecap:butt;stroke-linejoin:round;white-space:pre;}
  </style>
 </defs>
 <g id="figure_1">
  <g id="patch_1">
   <path d="M 0 374.715469 
L 726.94375 374.715469 
L 726.94375 0 
L 0 0 
z
" style="fill:#ffffff;"/>
  </g>
  <g id="axes_1">
   <g id="patch_2">
    <path d="M 50.14375 337.159219 
L 719.74375 337.159219 
L 719.74375 10.999219 
L 50.14375 10.999219 
z
" style="fill:#ffffff;"/>
   </g>
   <g id="matplotlib.axis_1">
    <g id="xtick_1">
     <g id="line2d_1">
      <path clip-path="url(#p2c7a13eebe)" d="M 50.14375 337.159219 
L 50.14375 10.999219 
" style="fill:none;stroke:#b0b0b0;stroke-linecap:square;stroke-width:0.8;"/>
     </g>
     <g id="line2d_2">
      <defs>
       <path d="M 0 0 
L 0 3.5 
" id="ma2b74a79c1" style="stroke:#000000;stroke-width:0.8;"/>
      </defs>
      <g>
       <use style="stroke:#000000;stroke-width:0.8;" x="50.14375" xlink:href="#ma2b74a79c1" y="337.159219"/>
      </g>
     </g>
     <g id="text_1">
      <!-- 0 -->
      <defs>
       <path d="M 31.78125 66.40625 
Q 24.171875 66.40625 20.328125 58.90625 
Q 16.5 51.421875 16.5 36.375 
Q 16.5 21.390625 20.328125 13.890625 
Q 24.171875 6.390625 31.78125 6.390625 
Q 39.453125 6.390625 43.28125 13.890625 
Q 47.125 21.390625 47.125 36.375 
Q 47.125 51.421875 43.28125 58.90625 
Q 39.453125 66.40625 31.78125 66.40625 
z
M 31.78125 74.21875 
Q 44.046875 74.21875 50.515625 64.515625 
Q 56.984375 54.828125 56.984375 36.375 
Q 56.984375 17.96875 50.515625 8.265625 
Q 44.046875 -1.421875 31.78125 -1.421875 
Q 19.53125 -1.421875 13.0625 8.265625 
Q 6.59375 17.96875 6.59375 36.375 
Q 6.59375 54.828125 13.0625 64.515625 
Q 19.53125 74.21875 31.78125 74.21875 
z
" id="DejaVuSans-48"/>
      </defs>
      <g transform="translate(46.9625 351.757656)scale(0.1 -0.1)">
       <use xlink:href="#DejaVuSans-48"/>
      </g>
     </g>
    </g>
    <g id="xtick_2">
     <g id="line2d_3">
      <path clip-path="url(#p2c7a13eebe)" d="M 177.698755 337.159219 
L 177.698755 10.999219 
" style="fill:none;stroke:#b0b0b0;stroke-linecap:square;stroke-width:0.8;"/>
     </g>
     <g id="line2d_4">
      <g>
       <use style="stroke:#000000;stroke-width:0.8;" x="177.698755" xlink:href="#ma2b74a79c1" y="337.159219"/>
      </g>
     </g>
     <g id="text_2">
      <!-- 100 -->
      <defs>
       <path d="M 12.40625 8.296875 
L 28.515625 8.296875 
L 28.515625 63.921875 
L 10.984375 60.40625 
L 10.984375 69.390625 
L 28.421875 72.90625 
L 38.28125 72.90625 
L 38.28125 8.296875 
L 54.390625 8.296875 
L 54.390625 0 
L 12.40625 0 
z
" id="DejaVuSans-49"/>
      </defs>
      <g transform="translate(168.155005 351.757656)scale(0.1 -0.1)">
       <use xlink:href="#DejaVuSans-49"/>
       <use x="63.623047" xlink:href="#DejaVuSans-48"/>
       <use x="127.246094" xlink:href="#DejaVuSans-48"/>
      </g>
     </g>
    </g>
    <g id="xtick_3">
     <g id="line2d_5">
      <path clip-path="url(#p2c7a13eebe)" d="M 305.25376 337.159219 
L 305.25376 10.999219 
" style="fill:none;stroke:#b0b0b0;stroke-linecap:square;stroke-width:0.8;"/>
     </g>
     <g id="line2d_6">
      <g>
       <use style="stroke:#000000;stroke-width:0.8;" x="305.25376" xlink:href="#ma2b74a79c1" y="337.159219"/>
      </g>
     </g>
     <g id="text_3">
      <!-- 200 -->
      <defs>
       <path d="M 19.1875 8.296875 
L 53.609375 8.296875 
L 53.609375 0 
L 7.328125 0 
L 7.328125 8.296875 
Q 12.9375 14.109375 22.625 23.890625 
Q 32.328125 33.6875 34.8125 36.53125 
Q 39.546875 41.84375 41.421875 45.53125 
Q 43.3125 49.21875 43.3125 52.78125 
Q 43.3125 58.59375 39.234375 62.25 
Q 35.15625 65.921875 28.609375 65.921875 
Q 23.96875 65.921875 18.8125 64.3125 
Q 13.671875 62.703125 7.8125 59.421875 
L 7.8125 69.390625 
Q 13.765625 71.78125 18.9375 73 
Q 24.125 74.21875 28.421875 74.21875 
Q 39.75 74.21875 46.484375 68.546875 
Q 53.21875 62.890625 53.21875 53.421875 
Q 53.21875 48.921875 51.53125 44.890625 
Q 49.859375 40.875 45.40625 35.40625 
Q 44.1875 33.984375 37.640625 27.21875 
Q 31.109375 20.453125 19.1875 8.296875 
z
" id="DejaVuSans-50"/>
      </defs>
      <g transform="translate(295.71001 351.757656)scale(0.1 -0.1)">
       <use xlink:href="#DejaVuSans-50"/>
       <use x="63.623047" xlink:href="#DejaVuSans-48"/>
       <use x="127.246094" xlink:href="#DejaVuSans-48"/>
      </g>
     </g>
    </g>
    <g id="xtick_4">
     <g id="line2d_7">
      <path clip-path="url(#p2c7a13eebe)" d="M 432.808766 337.159219 
L 432.808766 10.999219 
" style="fill:none;stroke:#b0b0b0;stroke-linecap:square;stroke-width:0.8;"/>
     </g>
     <g id="line2d_8">
      <g>
       <use style="stroke:#000000;stroke-width:0.8;" x="432.808766" xlink:href="#ma2b74a79c1" y="337.159219"/>
      </g>
     </g>
     <g id="text_4">
      <!-- 300 -->
      <defs>
       <path d="M 40.578125 39.3125 
Q 47.65625 37.796875 51.625 33 
Q 55.609375 28.21875 55.609375 21.1875 
Q 55.609375 10.40625 48.1875 4.484375 
Q 40.765625 -1.421875 27.09375 -1.421875 
Q 22.515625 -1.421875 17.65625 -0.515625 
Q 12.796875 0.390625 7.625 2.203125 
L 7.625 11.71875 
Q 11.71875 9.328125 16.59375 8.109375 
Q 21.484375 6.890625 26.8125 6.890625 
Q 36.078125 6.890625 40.9375 10.546875 
Q 45.796875 14.203125 45.796875 21.1875 
Q 45.796875 27.640625 41.28125 31.265625 
Q 36.765625 34.90625 28.71875 34.90625 
L 20.21875 34.90625 
L 20.21875 43.015625 
L 29.109375 43.015625 
Q 36.375 43.015625 40.234375 45.921875 
Q 44.09375 48.828125 44.09375 54.296875 
Q 44.09375 59.90625 40.109375 62.90625 
Q 36.140625 65.921875 28.71875 65.921875 
Q 24.65625 65.921875 20.015625 65.03125 
Q 15.375 64.15625 9.8125 62.3125 
L 9.8125 71.09375 
Q 15.4375 72.65625 20.34375 73.4375 
Q 25.25 74.21875 29.59375 74.21875 
Q 40.828125 74.21875 47.359375 69.109375 
Q 53.90625 64.015625 53.90625 55.328125 
Q 53.90625 49.265625 50.4375 45.09375 
Q 46.96875 40.921875 40.578125 39.3125 
z
" id="DejaVuSans-51"/>
      </defs>
      <g transform="translate(423.265016 351.757656)scale(0.1 -0.1)">
       <use xlink:href="#DejaVuSans-51"/>
       <use x="63.623047" xlink:href="#DejaVuSans-48"/>
       <use x="127.246094" xlink:href="#DejaVuSans-48"/>
      </g>
     </g>
    </g>
    <g id="xtick_5">
     <g id="line2d_9">
      <path clip-path="url(#p2c7a13eebe)" d="M 560.363771 337.159219 
L 560.363771 10.999219 
" style="fill:none;stroke:#b0b0b0;stroke-linecap:square;stroke-width:0.8;"/>
     </g>
     <g id="line2d_10">
      <g>
       <use style="stroke:#000000;stroke-width:0.8;" x="560.363771" xlink:href="#ma2b74a79c1" y="337.159219"/>
      </g>
     </g>
     <g id="text_5">
      <!-- 400 -->
      <defs>
       <path d="M 37.796875 64.3125 
L 12.890625 25.390625 
L 37.796875 25.390625 
z
M 35.203125 72.90625 
L 47.609375 72.90625 
L 47.609375 25.390625 
L 58.015625 25.390625 
L 58.015625 17.1875 
L 47.609375 17.1875 
L 47.609375 0 
L 37.796875 0 
L 37.796875 17.1875 
L 4.890625 17.1875 
L 4.890625 26.703125 
z
" id="DejaVuSans-52"/>
      </defs>
      <g transform="translate(550.820021 351.757656)scale(0.1 -0.1)">
       <use xlink:href="#DejaVuSans-52"/>
       <use x="63.623047" xlink:href="#DejaVuSans-48"/>
       <use x="127.246094" xlink:href="#DejaVuSans-48"/>
      </g>
     </g>
    </g>
    <g id="xtick_6">
     <g id="line2d_11">
      <path clip-path="url(#p2c7a13eebe)" d="M 687.918776 337.159219 
L 687.918776 10.999219 
" style="fill:none;stroke:#b0b0b0;stroke-linecap:square;stroke-width:0.8;"/>
     </g>
     <g id="line2d_12">
      <g>
       <use style="stroke:#000000;stroke-width:0.8;" x="687.918776" xlink:href="#ma2b74a79c1" y="337.159219"/>
      </g>
     </g>
     <g id="text_6">
      <!-- 500 -->
      <defs>
       <path d="M 10.796875 72.90625 
L 49.515625 72.90625 
L 49.515625 64.59375 
L 19.828125 64.59375 
L 19.828125 46.734375 
Q 21.96875 47.46875 24.109375 47.828125 
Q 26.265625 48.1875 28.421875 48.1875 
Q 40.625 48.1875 47.75 41.5 
Q 54.890625 34.8125 54.890625 23.390625 
Q 54.890625 11.625 47.5625 5.09375 
Q 40.234375 -1.421875 26.90625 -1.421875 
Q 22.3125 -1.421875 17.546875 -0.640625 
Q 12.796875 0.140625 7.71875 1.703125 
L 7.71875 11.625 
Q 12.109375 9.234375 16.796875 8.0625 
Q 21.484375 6.890625 26.703125 6.890625 
Q 35.15625 6.890625 40.078125 11.328125 
Q 45.015625 15.765625 45.015625 23.390625 
Q 45.015625 31 40.078125 35.4375 
Q 35.15625 39.890625 26.703125 39.890625 
Q 22.75 39.890625 18.8125 39.015625 
Q 14.890625 38.140625 10.796875 36.28125 
z
" id="DejaVuSans-53"/>
      </defs>
      <g transform="translate(678.375026 351.757656)scale(0.1 -0.1)">
       <use xlink:href="#DejaVuSans-53"/>
       <use x="63.623047" xlink:href="#DejaVuSans-48"/>
       <use x="127.246094" xlink:href="#DejaVuSans-48"/>
      </g>
     </g>
    </g>
    <g id="text_7">
     <!-- Epoch -->
     <defs>
      <path d="M 9.8125 72.90625 
L 55.90625 72.90625 
L 55.90625 64.59375 
L 19.671875 64.59375 
L 19.671875 43.015625 
L 54.390625 43.015625 
L 54.390625 34.71875 
L 19.671875 34.71875 
L 19.671875 8.296875 
L 56.78125 8.296875 
L 56.78125 0 
L 9.8125 0 
z
" id="DejaVuSans-69"/>
      <path d="M 18.109375 8.203125 
L 18.109375 -20.796875 
L 9.078125 -20.796875 
L 9.078125 54.6875 
L 18.109375 54.6875 
L 18.109375 46.390625 
Q 20.953125 51.265625 25.265625 53.625 
Q 29.59375 56 35.59375 56 
Q 45.5625 56 51.78125 48.09375 
Q 58.015625 40.1875 58.015625 27.296875 
Q 58.015625 14.40625 51.78125 6.484375 
Q 45.5625 -1.421875 35.59375 -1.421875 
Q 29.59375 -1.421875 25.265625 0.953125 
Q 20.953125 3.328125 18.109375 8.203125 
z
M 48.6875 27.296875 
Q 48.6875 37.203125 44.609375 42.84375 
Q 40.53125 48.484375 33.40625 48.484375 
Q 26.265625 48.484375 22.1875 42.84375 
Q 18.109375 37.203125 18.109375 27.296875 
Q 18.109375 17.390625 22.1875 11.75 
Q 26.265625 6.109375 33.40625 6.109375 
Q 40.53125 6.109375 44.609375 11.75 
Q 48.6875 17.390625 48.6875 27.296875 
z
" id="DejaVuSans-112"/>
      <path d="M 30.609375 48.390625 
Q 23.390625 48.390625 19.1875 42.75 
Q 14.984375 37.109375 14.984375 27.296875 
Q 14.984375 17.484375 19.15625 11.84375 
Q 23.34375 6.203125 30.609375 6.203125 
Q 37.796875 6.203125 41.984375 11.859375 
Q 46.1875 17.53125 46.1875 27.296875 
Q 46.1875 37.015625 41.984375 42.703125 
Q 37.796875 48.390625 30.609375 48.390625 
z
M 30.609375 56 
Q 42.328125 56 49.015625 48.375 
Q 55.71875 40.765625 55.71875 27.296875 
Q 55.71875 13.875 49.015625 6.21875 
Q 42.328125 -1.421875 30.609375 -1.421875 
Q 18.84375 -1.421875 12.171875 6.21875 
Q 5.515625 13.875 5.515625 27.296875 
Q 5.515625 40.765625 12.171875 48.375 
Q 18.84375 56 30.609375 56 
z
" id="DejaVuSans-111"/>
      <path d="M 48.78125 52.59375 
L 48.78125 44.1875 
Q 44.96875 46.296875 41.140625 47.34375 
Q 37.3125 48.390625 33.40625 48.390625 
Q 24.65625 48.390625 19.8125 42.84375 
Q 14.984375 37.3125 14.984375 27.296875 
Q 14.984375 17.28125 19.8125 11.734375 
Q 24.65625 6.203125 33.40625 6.203125 
Q 37.3125 6.203125 41.140625 7.25 
Q 44.96875 8.296875 48.78125 10.40625 
L 48.78125 2.09375 
Q 45.015625 0.34375 40.984375 -0.53125 
Q 36.96875 -1.421875 32.421875 -1.421875 
Q 20.0625 -1.421875 12.78125 6.34375 
Q 5.515625 14.109375 5.515625 27.296875 
Q 5.515625 40.671875 12.859375 48.328125 
Q 20.21875 56 33.015625 56 
Q 37.15625 56 41.109375 55.140625 
Q 45.0625 54.296875 48.78125 52.59375 
z
" id="DejaVuSans-99"/>
      <path d="M 54.890625 33.015625 
L 54.890625 0 
L 45.90625 0 
L 45.90625 32.71875 
Q 45.90625 40.484375 42.875 44.328125 
Q 39.84375 48.1875 33.796875 48.1875 
Q 26.515625 48.1875 22.3125 43.546875 
Q 18.109375 38.921875 18.109375 30.90625 
L 18.109375 0 
L 9.078125 0 
L 9.078125 75.984375 
L 18.109375 75.984375 
L 18.109375 46.1875 
Q 21.34375 51.125 25.703125 53.5625 
Q 30.078125 56 35.796875 56 
Q 45.21875 56 50.046875 50.171875 
Q 54.890625 44.34375 54.890625 33.015625 
z
" id="DejaVuSans-104"/>
     </defs>
     <g transform="translate(369.632813 365.435781)scale(0.1 -0.1)">
      <use xlink:href="#DejaVuSans-69"/>
      <use x="63.183594" xlink:href="#DejaVuSans-112"/>
      <use x="126.660156" xlink:href="#DejaVuSans-111"/>
      <use x="187.841797" xlink:href="#DejaVuSans-99"/>
      <use x="242.822266" xlink:href="#DejaVuSans-104"/>
     </g>
    </g>
   </g>
   <g id="matplotlib.axis_2">
    <g id="ytick_1">
     <g id="line2d_13">
      <path clip-path="url(#p2c7a13eebe)" d="M 50.14375 317.973336 
L 719.74375 317.973336 
" style="fill:none;stroke:#b0b0b0;stroke-linecap:square;stroke-width:0.8;"/>
     </g>
     <g id="line2d_14">
      <defs>
       <path d="M 0 0 
L -3.5 0 
" id="m68dd3cd7e3" style="stroke:#000000;stroke-width:0.8;"/>
      </defs>
      <g>
       <use style="stroke:#000000;stroke-width:0.8;" x="50.14375" xlink:href="#m68dd3cd7e3" y="317.973336"/>
      </g>
     </g>
     <g id="text_8">
      <!-- 0.84 -->
      <defs>
       <path d="M 10.6875 12.40625 
L 21 12.40625 
L 21 0 
L 10.6875 0 
z
" id="DejaVuSans-46"/>
       <path d="M 31.78125 34.625 
Q 24.75 34.625 20.71875 30.859375 
Q 16.703125 27.09375 16.703125 20.515625 
Q 16.703125 13.921875 20.71875 10.15625 
Q 24.75 6.390625 31.78125 6.390625 
Q 38.8125 6.390625 42.859375 10.171875 
Q 46.921875 13.96875 46.921875 20.515625 
Q 46.921875 27.09375 42.890625 30.859375 
Q 38.875 34.625 31.78125 34.625 
z
M 21.921875 38.8125 
Q 15.578125 40.375 12.03125 44.71875 
Q 8.5 49.078125 8.5 55.328125 
Q 8.5 64.0625 14.71875 69.140625 
Q 20.953125 74.21875 31.78125 74.21875 
Q 42.671875 74.21875 48.875 69.140625 
Q 55.078125 64.0625 55.078125 55.328125 
Q 55.078125 49.078125 51.53125 44.71875 
Q 48 40.375 41.703125 38.8125 
Q 48.828125 37.15625 52.796875 32.3125 
Q 56.78125 27.484375 56.78125 20.515625 
Q 56.78125 9.90625 50.3125 4.234375 
Q 43.84375 -1.421875 31.78125 -1.421875 
Q 19.734375 -1.421875 13.25 4.234375 
Q 6.78125 9.90625 6.78125 20.515625 
Q 6.78125 27.484375 10.78125 32.3125 
Q 14.796875 37.15625 21.921875 38.8125 
z
M 18.3125 54.390625 
Q 18.3125 48.734375 21.84375 45.5625 
Q 25.390625 42.390625 31.78125 42.390625 
Q 38.140625 42.390625 41.71875 45.5625 
Q 45.3125 48.734375 45.3125 54.390625 
Q 45.3125 60.0625 41.71875 63.234375 
Q 38.140625 66.40625 31.78125 66.40625 
Q 25.390625 66.40625 21.84375 63.234375 
Q 18.3125 60.0625 18.3125 54.390625 
z
" id="DejaVuSans-56"/>
      </defs>
      <g transform="translate(20.878125 321.772555)scale(0.1 -0.1)">
       <use xlink:href="#DejaVuSans-48"/>
       <use x="63.623047" xlink:href="#DejaVuSans-46"/>
       <use x="95.410156" xlink:href="#DejaVuSans-56"/>
       <use x="159.033203" xlink:href="#DejaVuSans-52"/>
      </g>
     </g>
    </g>
    <g id="ytick_2">
     <g id="line2d_15">
      <path clip-path="url(#p2c7a13eebe)" d="M 50.14375 279.601572 
L 719.74375 279.601572 
" style="fill:none;stroke:#b0b0b0;stroke-linecap:square;stroke-width:0.8;"/>
     </g>
     <g id="line2d_16">
      <g>
       <use style="stroke:#000000;stroke-width:0.8;" x="50.14375" xlink:href="#m68dd3cd7e3" y="279.601572"/>
      </g>
     </g>
     <g id="text_9">
      <!-- 0.86 -->
      <defs>
       <path d="M 33.015625 40.375 
Q 26.375 40.375 22.484375 35.828125 
Q 18.609375 31.296875 18.609375 23.390625 
Q 18.609375 15.53125 22.484375 10.953125 
Q 26.375 6.390625 33.015625 6.390625 
Q 39.65625 6.390625 43.53125 10.953125 
Q 47.40625 15.53125 47.40625 23.390625 
Q 47.40625 31.296875 43.53125 35.828125 
Q 39.65625 40.375 33.015625 40.375 
z
M 52.59375 71.296875 
L 52.59375 62.3125 
Q 48.875 64.0625 45.09375 64.984375 
Q 41.3125 65.921875 37.59375 65.921875 
Q 27.828125 65.921875 22.671875 59.328125 
Q 17.53125 52.734375 16.796875 39.40625 
Q 19.671875 43.65625 24.015625 45.921875 
Q 28.375 48.1875 33.59375 48.1875 
Q 44.578125 48.1875 50.953125 41.515625 
Q 57.328125 34.859375 57.328125 23.390625 
Q 57.328125 12.15625 50.6875 5.359375 
Q 44.046875 -1.421875 33.015625 -1.421875 
Q 20.359375 -1.421875 13.671875 8.265625 
Q 6.984375 17.96875 6.984375 36.375 
Q 6.984375 53.65625 15.1875 63.9375 
Q 23.390625 74.21875 37.203125 74.21875 
Q 40.921875 74.21875 44.703125 73.484375 
Q 48.484375 72.75 52.59375 71.296875 
z
" id="DejaVuSans-54"/>
      </defs>
      <g transform="translate(20.878125 283.40079)scale(0.1 -0.1)">
       <use xlink:href="#DejaVuSans-48"/>
       <use x="63.623047" xlink:href="#DejaVuSans-46"/>
       <use x="95.410156" xlink:href="#DejaVuSans-56"/>
       <use x="159.033203" xlink:href="#DejaVuSans-54"/>
      </g>
     </g>
    </g>
    <g id="ytick_3">
     <g id="line2d_17">
      <path clip-path="url(#p2c7a13eebe)" d="M 50.14375 241.229807 
L 719.74375 241.229807 
" style="fill:none;stroke:#b0b0b0;stroke-linecap:square;stroke-width:0.8;"/>
     </g>
     <g id="line2d_18">
      <g>
       <use style="stroke:#000000;stroke-width:0.8;" x="50.14375" xlink:href="#m68dd3cd7e3" y="241.229807"/>
      </g>
     </g>
     <g id="text_10">
      <!-- 0.88 -->
      <g transform="translate(20.878125 245.029026)scale(0.1 -0.1)">
       <use xlink:href="#DejaVuSans-48"/>
       <use x="63.623047" xlink:href="#DejaVuSans-46"/>
       <use x="95.410156" xlink:href="#DejaVuSans-56"/>
       <use x="159.033203" xlink:href="#DejaVuSans-56"/>
      </g>
     </g>
    </g>
    <g id="ytick_4">
     <g id="line2d_19">
      <path clip-path="url(#p2c7a13eebe)" d="M 50.14375 202.858042 
L 719.74375 202.858042 
" style="fill:none;stroke:#b0b0b0;stroke-linecap:square;stroke-width:0.8;"/>
     </g>
     <g id="line2d_20">
      <g>
       <use style="stroke:#000000;stroke-width:0.8;" x="50.14375" xlink:href="#m68dd3cd7e3" y="202.858042"/>
      </g>
     </g>
     <g id="text_11">
      <!-- 0.90 -->
      <defs>
       <path d="M 10.984375 1.515625 
L 10.984375 10.5 
Q 14.703125 8.734375 18.5 7.8125 
Q 22.3125 6.890625 25.984375 6.890625 
Q 35.75 6.890625 40.890625 13.453125 
Q 46.046875 20.015625 46.78125 33.40625 
Q 43.953125 29.203125 39.59375 26.953125 
Q 35.25 24.703125 29.984375 24.703125 
Q 19.046875 24.703125 12.671875 31.3125 
Q 6.296875 37.9375 6.296875 49.421875 
Q 6.296875 60.640625 12.9375 67.421875 
Q 19.578125 74.21875 30.609375 74.21875 
Q 43.265625 74.21875 49.921875 64.515625 
Q 56.59375 54.828125 56.59375 36.375 
Q 56.59375 19.140625 48.40625 8.859375 
Q 40.234375 -1.421875 26.421875 -1.421875 
Q 22.703125 -1.421875 18.890625 -0.6875 
Q 15.09375 0.046875 10.984375 1.515625 
z
M 30.609375 32.421875 
Q 37.25 32.421875 41.125 36.953125 
Q 45.015625 41.5 45.015625 49.421875 
Q 45.015625 57.28125 41.125 61.84375 
Q 37.25 66.40625 30.609375 66.40625 
Q 23.96875 66.40625 20.09375 61.84375 
Q 16.21875 57.28125 16.21875 49.421875 
Q 16.21875 41.5 20.09375 36.953125 
Q 23.96875 32.421875 30.609375 32.421875 
z
" id="DejaVuSans-57"/>
      </defs>
      <g transform="translate(20.878125 206.657261)scale(0.1 -0.1)">
       <use xlink:href="#DejaVuSans-48"/>
       <use x="63.623047" xlink:href="#DejaVuSans-46"/>
       <use x="95.410156" xlink:href="#DejaVuSans-57"/>
       <use x="159.033203" xlink:href="#DejaVuSans-48"/>
      </g>
     </g>
    </g>
    <g id="ytick_5">
     <g id="line2d_21">
      <path clip-path="url(#p2c7a13eebe)" d="M 50.14375 164.486278 
L 719.74375 164.486278 
" style="fill:none;stroke:#b0b0b0;stroke-linecap:square;stroke-width:0.8;"/>
     </g>
     <g id="line2d_22">
      <g>
       <use style="stroke:#000000;stroke-width:0.8;" x="50.14375" xlink:href="#m68dd3cd7e3" y="164.486278"/>
      </g>
     </g>
     <g id="text_12">
      <!-- 0.92 -->
      <g transform="translate(20.878125 168.285496)scale(0.1 -0.1)">
       <use xlink:href="#DejaVuSans-48"/>
       <use x="63.623047" xlink:href="#DejaVuSans-46"/>
       <use x="95.410156" xlink:href="#DejaVuSans-57"/>
       <use x="159.033203" xlink:href="#DejaVuSans-50"/>
      </g>
     </g>
    </g>
    <g id="ytick_6">
     <g id="line2d_23">
      <path clip-path="url(#p2c7a13eebe)" d="M 50.14375 126.114513 
L 719.74375 126.114513 
" style="fill:none;stroke:#b0b0b0;stroke-linecap:square;stroke-width:0.8;"/>
     </g>
     <g id="line2d_24">
      <g>
       <use style="stroke:#000000;stroke-width:0.8;" x="50.14375" xlink:href="#m68dd3cd7e3" y="126.114513"/>
      </g>
     </g>
     <g id="text_13">
      <!-- 0.94 -->
      <g transform="translate(20.878125 129.913732)scale(0.1 -0.1)">
       <use xlink:href="#DejaVuSans-48"/>
       <use x="63.623047" xlink:href="#DejaVuSans-46"/>
       <use x="95.410156" xlink:href="#DejaVuSans-57"/>
       <use x="159.033203" xlink:href="#DejaVuSans-52"/>
      </g>
     </g>
    </g>
    <g id="ytick_7">
     <g id="line2d_25">
      <path clip-path="url(#p2c7a13eebe)" d="M 50.14375 87.742748 
L 719.74375 87.742748 
" style="fill:none;stroke:#b0b0b0;stroke-linecap:square;stroke-width:0.8;"/>
     </g>
     <g id="line2d_26">
      <g>
       <use style="stroke:#000000;stroke-width:0.8;" x="50.14375" xlink:href="#m68dd3cd7e3" y="87.742748"/>
      </g>
     </g>
     <g id="text_14">
      <!-- 0.96 -->
      <g transform="translate(20.878125 91.541967)scale(0.1 -0.1)">
       <use xlink:href="#DejaVuSans-48"/>
       <use x="63.623047" xlink:href="#DejaVuSans-46"/>
       <use x="95.410156" xlink:href="#DejaVuSans-57"/>
       <use x="159.033203" xlink:href="#DejaVuSans-54"/>
      </g>
     </g>
    </g>
    <g id="ytick_8">
     <g id="line2d_27">
      <path clip-path="url(#p2c7a13eebe)" d="M 50.14375 49.370983 
L 719.74375 49.370983 
" style="fill:none;stroke:#b0b0b0;stroke-linecap:square;stroke-width:0.8;"/>
     </g>
     <g id="line2d_28">
      <g>
       <use style="stroke:#000000;stroke-width:0.8;" x="50.14375" xlink:href="#m68dd3cd7e3" y="49.370983"/>
      </g>
     </g>
     <g id="text_15">
      <!-- 0.98 -->
      <g transform="translate(20.878125 53.170202)scale(0.1 -0.1)">
       <use xlink:href="#DejaVuSans-48"/>
       <use x="63.623047" xlink:href="#DejaVuSans-46"/>
       <use x="95.410156" xlink:href="#DejaVuSans-57"/>
       <use x="159.033203" xlink:href="#DejaVuSans-56"/>
      </g>
     </g>
    </g>
    <g id="ytick_9">
     <g id="line2d_29">
      <path clip-path="url(#p2c7a13eebe)" d="M 50.14375 10.999219 
L 719.74375 10.999219 
" style="fill:none;stroke:#b0b0b0;stroke-linecap:square;stroke-width:0.8;"/>
     </g>
     <g id="line2d_30">
      <g>
       <use style="stroke:#000000;stroke-width:0.8;" x="50.14375" xlink:href="#m68dd3cd7e3" y="10.999219"/>
      </g>
     </g>
     <g id="text_16">
      <!-- 1.00 -->
      <g transform="translate(20.878125 14.798437)scale(0.1 -0.1)">
       <use xlink:href="#DejaVuSans-49"/>
       <use x="63.623047" xlink:href="#DejaVuSans-46"/>
       <use x="95.410156" xlink:href="#DejaVuSans-48"/>
       <use x="159.033203" xlink:href="#DejaVuSans-48"/>
      </g>
     </g>
    </g>
    <g id="text_17">
     <!-- Accuracy -->
     <defs>
      <path d="M 34.1875 63.1875 
L 20.796875 26.90625 
L 47.609375 26.90625 
z
M 28.609375 72.90625 
L 39.796875 72.90625 
L 67.578125 0 
L 57.328125 0 
L 50.6875 18.703125 
L 17.828125 18.703125 
L 11.1875 0 
L 0.78125 0 
z
" id="DejaVuSans-65"/>
      <path d="M 8.5 21.578125 
L 8.5 54.6875 
L 17.484375 54.6875 
L 17.484375 21.921875 
Q 17.484375 14.15625 20.5 10.265625 
Q 23.53125 6.390625 29.59375 6.390625 
Q 36.859375 6.390625 41.078125 11.03125 
Q 45.3125 15.671875 45.3125 23.6875 
L 45.3125 54.6875 
L 54.296875 54.6875 
L 54.296875 0 
L 45.3125 0 
L 45.3125 8.40625 
Q 42.046875 3.421875 37.71875 1 
Q 33.40625 -1.421875 27.6875 -1.421875 
Q 18.265625 -1.421875 13.375 4.4375 
Q 8.5 10.296875 8.5 21.578125 
z
M 31.109375 56 
z
" id="DejaVuSans-117"/>
      <path d="M 41.109375 46.296875 
Q 39.59375 47.171875 37.8125 47.578125 
Q 36.03125 48 33.890625 48 
Q 26.265625 48 22.1875 43.046875 
Q 18.109375 38.09375 18.109375 28.8125 
L 18.109375 0 
L 9.078125 0 
L 9.078125 54.6875 
L 18.109375 54.6875 
L 18.109375 46.1875 
Q 20.953125 51.171875 25.484375 53.578125 
Q 30.03125 56 36.53125 56 
Q 37.453125 56 38.578125 55.875 
Q 39.703125 55.765625 41.0625 55.515625 
z
" id="DejaVuSans-114"/>
      <path d="M 34.28125 27.484375 
Q 23.390625 27.484375 19.1875 25 
Q 14.984375 22.515625 14.984375 16.5 
Q 14.984375 11.71875 18.140625 8.90625 
Q 21.296875 6.109375 26.703125 6.109375 
Q 34.1875 6.109375 38.703125 11.40625 
Q 43.21875 16.703125 43.21875 25.484375 
L 43.21875 27.484375 
z
M 52.203125 31.203125 
L 52.203125 0 
L 43.21875 0 
L 43.21875 8.296875 
Q 40.140625 3.328125 35.546875 0.953125 
Q 30.953125 -1.421875 24.3125 -1.421875 
Q 15.921875 -1.421875 10.953125 3.296875 
Q 6 8.015625 6 15.921875 
Q 6 25.140625 12.171875 29.828125 
Q 18.359375 34.515625 30.609375 34.515625 
L 43.21875 34.515625 
L 43.21875 35.40625 
Q 43.21875 41.609375 39.140625 45 
Q 35.0625 48.390625 27.6875 48.390625 
Q 23 48.390625 18.546875 47.265625 
Q 14.109375 46.140625 10.015625 43.890625 
L 10.015625 52.203125 
Q 14.9375 54.109375 19.578125 55.046875 
Q 24.21875 56 28.609375 56 
Q 40.484375 56 46.34375 49.84375 
Q 52.203125 43.703125 52.203125 31.203125 
z
" id="DejaVuSans-97"/>
      <path d="M 32.171875 -5.078125 
Q 28.375 -14.84375 24.75 -17.8125 
Q 21.140625 -20.796875 15.09375 -20.796875 
L 7.90625 -20.796875 
L 7.90625 -13.28125 
L 13.1875 -13.28125 
Q 16.890625 -13.28125 18.9375 -11.515625 
Q 21 -9.765625 23.484375 -3.21875 
L 25.09375 0.875 
L 2.984375 54.6875 
L 12.5 54.6875 
L 29.59375 11.921875 
L 46.6875 54.6875 
L 56.203125 54.6875 
z
" id="DejaVuSans-121"/>
     </defs>
     <g transform="translate(14.798438 196.994063)rotate(-90)scale(0.1 -0.1)">
      <use xlink:href="#DejaVuSans-65"/>
      <use x="68.392578" xlink:href="#DejaVuSans-99"/>
      <use x="123.373047" xlink:href="#DejaVuSans-99"/>
      <use x="178.353516" xlink:href="#DejaVuSans-117"/>
      <use x="241.732422" xlink:href="#DejaVuSans-114"/>
      <use x="282.845703" xlink:href="#DejaVuSans-97"/>
      <use x="344.125" xlink:href="#DejaVuSans-99"/>
      <use x="399.105469" xlink:href="#DejaVuSans-121"/>
     </g>
    </g>
   </g>
   <g id="line2d_31">
    <path clip-path="url(#p2c7a13eebe)" d="M 109.597095 375.715469 
L 110.094602 372.797052 
L 111.370153 374.667585 
L 112.645703 370.206871 
L 113.921253 367.568889 
L 115.196803 362.820338 
L 116.472353 362.724393 
L 117.747903 361.141581 
L 119.023453 349.965837 
L 120.299003 358.59943 
L 121.574553 351.644594 
L 122.850103 352.364013 
L 124.125653 349.725916 
L 125.401203 343.73042 
L 126.676753 351.980346 
L 127.952303 348.478856 
L 129.227853 343.538529 
L 130.503403 343.73042 
L 131.778953 344.210032 
L 133.054503 338.02253 
L 134.330053 333.609845 
L 135.605604 328.429598 
L 136.881154 333.465985 
L 138.156704 331.067694 
L 139.432254 329.868549 
L 140.707804 326.894816 
L 141.983354 323.537187 
L 143.258904 323.393326 
L 144.534454 318.261108 
L 145.810004 319.556199 
L 147.085554 322.386071 
L 148.361104 319.939866 
L 149.636654 318.069218 
L 150.912204 313.896339 
L 152.187754 313.656533 
L 153.463304 309.339679 
L 154.738854 306.893474 
L 156.014404 310.442879 
L 157.289954 306.365831 
L 158.565504 303.488043 
L 159.841055 300.22636 
L 161.116605 304.303407 
L 162.392155 304.303407 
L 164.943255 297.828184 
L 166.218805 294.326694 
L 167.494355 298.211851 
L 168.769905 293.799166 
L 170.045455 295.813675 
L 171.321005 294.038972 
L 172.596555 295.71773 
L 173.872105 294.422639 
L 175.147655 284.110289 
L 176.423205 289.386367 
L 177.698755 286.60441 
L 178.974305 287.084022 
L 180.249855 277.395145 
L 181.525405 286.748271 
L 182.800955 283.007089 
L 184.076506 282.335586 
L 185.352056 281.472192 
L 186.627606 275.572527 
L 187.903156 275.092914 
L 189.178706 277.251284 
L 191.729806 276.38789 
L 193.005356 270.728145 
L 194.280906 272.886515 
L 195.556456 273.558018 
L 196.832006 267.226655 
L 198.107556 273.605933 
L 199.383106 272.454818 
L 200.658656 270.200503 
L 201.934206 276.100169 
L 203.209756 268.809467 
L 204.485306 266.411291 
L 205.760856 269.912667 
L 207.036406 268.809467 
L 208.311956 268.329855 
L 209.587507 266.02751 
L 210.863057 257.346001 
L 212.138607 265.499982 
L 213.414157 261.566795 
L 214.689707 261.470964 
L 215.965257 263.629334 
L 217.240807 258.736923 
L 218.516357 262.382274 
L 219.791907 258.161365 
L 221.067457 258.353256 
L 222.343007 255.475353 
L 223.618557 257.537778 
L 224.894107 254.755821 
L 226.169657 253.268954 
L 227.445207 252.789342 
L 228.720757 250.10333 
L 229.996307 254.995627 
L 231.271857 250.678887 
L 232.547407 252.45359 
L 233.822958 250.439081 
L 235.098508 250.007384 
L 236.374058 246.362034 
L 237.649608 248.856155 
L 238.925158 249.527658 
L 240.200708 247.513149 
L 241.476258 244.875167 
L 242.751808 245.354779 
L 244.027358 244.251579 
L 245.302908 246.314118 
L 246.578458 243.100464 
L 247.854008 242.09321 
L 249.129558 240.510283 
L 250.405108 240.030671 
L 251.680658 241.133871 
L 252.956208 241.325761 
L 254.231758 241.037925 
L 255.507308 237.728441 
L 256.782858 235.953738 
L 258.058409 238.735695 
L 259.333959 235.234205 
L 260.609509 237.056823 
L 261.885059 236.001653 
L 263.160609 233.075835 
L 264.436159 237.008908 
L 265.711709 235.234205 
L 266.987259 233.171781 
L 268.262809 232.260357 
L 269.538359 233.555448 
L 270.813909 228.327285 
L 272.089459 239.551059 
L 273.365009 231.205187 
L 274.640559 227.32003 
L 275.916109 231.636884 
L 277.191659 226.02494 
L 278.467209 228.039563 
L 279.742759 224.250352 
L 281.018309 226.840418 
L 282.29386 229.142649 
L 283.56941 227.36806 
L 284.84496 225.833164 
L 286.12051 226.312776 
L 287.39606 220.029443 
L 288.67161 225.785134 
L 289.94716 227.559837 
L 291.22271 222.475649 
L 292.49826 220.317165 
L 293.77381 221.899977 
L 295.04936 221.132643 
L 296.32491 221.324419 
L 297.60046 219.741607 
L 298.87601 210.10076 
L 300.15156 224.010431 
L 301.42711 220.077359 
L 302.70266 218.734353 
L 303.97821 212.786772 
L 305.25376 216.95965 
L 306.529311 219.405856 
L 307.804861 211.491681 
L 309.080411 216.240232 
L 310.355961 211.29979 
L 311.631511 213.841941 
L 312.907061 214.849196 
L 314.182611 211.203845 
L 315.458161 210.05273 
L 316.733711 212.211214 
L 318.009261 208.901615 
L 319.284811 211.15593 
L 320.560361 208.326057 
L 321.835911 207.030967 
L 323.111461 207.558609 
L 324.387011 208.901615 
L 325.662561 203.673452 
L 326.938111 204.344955 
L 328.213661 210.820178 
L 329.489211 211.34782 
L 330.764762 205.352209 
L 332.040312 208.853585 
L 333.315862 203.865342 
L 334.591412 209.093505 
L 335.866962 206.59927 
L 337.142512 201.275162 
L 338.418062 197.342089 
L 339.693612 201.275162 
L 340.969162 204.776652 
L 342.244712 200.93941 
L 343.520262 202.906004 
L 344.795812 200.459798 
L 346.071362 202.04261 
L 347.346912 200.507828 
L 348.622462 201.227246 
L 349.898012 196.574641 
L 351.173562 201.467052 
L 352.449112 198.061622 
L 353.724662 200.98744 
L 355.000213 198.013592 
L 356.275763 198.78104 
L 357.551313 195.903138 
L 358.826863 194.799938 
L 360.102413 191.490453 
L 361.377963 193.073265 
L 362.653513 197.198228 
L 363.929063 196.622671 
L 365.204613 194.703993 
L 366.480163 194.224381 
L 367.755713 190.674975 
L 369.031263 192.305817 
L 370.306813 193.744768 
L 371.582363 194.416271 
L 372.857913 189.811696 
L 374.133463 186.0704 
L 375.409013 190.674975 
L 376.684563 190.147447 
L 377.960113 190.962811 
L 379.235664 192.066011 
L 380.511214 188.276799 
L 381.786764 186.598042 
L 383.062314 188.084909 
L 384.337864 186.693987 
L 385.613414 189.811696 
L 386.888964 187.077654 
L 388.164514 188.804327 
L 389.440064 188.948302 
L 390.715614 183.624194 
L 393.266714 183.000607 
L 394.542264 186.454067 
L 395.817814 183.192497 
L 397.093364 180.554401 
L 398.368914 184.295697 
L 399.644464 184.439558 
L 400.920014 183.864 
L 402.195564 182.664855 
L 403.471115 176.429438 
L 404.746665 181.609685 
L 406.022215 183.336358 
L 407.297765 183.528249 
L 408.573315 180.21865 
L 409.848865 181.225904 
L 411.124415 177.148971 
L 412.399965 177.868389 
L 413.675515 171.824863 
L 416.226615 177.484722 
L 417.502165 172.784202 
L 418.777715 167.556039 
L 420.053265 173.215898 
L 421.328815 177.00511 
L 422.604365 172.928062 
L 423.879915 173.167868 
L 425.155465 176.813219 
L 426.431015 178.396031 
L 427.706566 167.987736 
L 428.982116 169.426687 
L 430.257666 170.05016 
L 431.533216 169.282712 
L 432.808766 174.031262 
L 434.084316 169.810354 
L 435.359866 172.064669 
L 436.635416 167.172257 
L 437.910966 167.124342 
L 439.186516 172.736172 
L 440.462066 171.537141 
L 441.737616 165.397555 
L 443.013166 167.412178 
L 444.288716 170.002244 
L 445.564266 165.973227 
L 446.839816 168.131596 
L 448.115366 165.973227 
L 449.390916 161.704288 
L 450.666466 166.64473 
L 451.942017 166.260948 
L 453.217567 164.342385 
L 454.493117 164.3903 
L 457.044217 160.361282 
L 458.319767 168.083681 
L 459.595317 164.054549 
L 460.870867 163.478991 
L 462.146417 160.98487 
L 463.421967 163.095324 
L 464.697517 161.704288 
L 465.973067 162.711543 
L 467.248617 161.560428 
L 468.524167 158.826386 
L 469.799717 159.354028 
L 471.075267 158.826386 
L 472.350817 159.066306 
L 473.626367 163.670882 
L 474.901917 157.147629 
L 476.177467 157.48338 
L 477.453018 161.128731 
L 478.728568 161.752318 
L 480.004118 161.800234 
L 481.279668 157.963107 
L 482.555218 158.202913 
L 485.106318 153.790114 
L 486.381868 157.147629 
L 487.657418 151.487883 
L 488.932968 153.358417 
L 490.208518 153.262586 
L 491.484068 151.247963 
L 492.759618 150.912211 
L 494.035168 154.461617 
L 495.310718 150.240708 
L 496.586268 154.509647 
L 497.861818 153.502392 
L 499.137368 150.76835 
L 500.412918 153.406447 
L 501.688469 147.027169 
L 502.964019 148.609981 
L 504.239569 147.554697 
L 505.515119 147.698672 
L 506.790669 151.200047 
L 508.066219 148.274229 
L 509.341769 146.06783 
L 510.617319 147.458751 
L 511.892869 147.890448 
L 513.168419 148.897702 
L 514.443969 145.923969 
L 515.719519 145.204436 
L 516.995069 143.717569 
L 518.270619 143.333788 
L 519.546169 145.348411 
L 522.097269 143.237957 
L 523.372819 142.470509 
L 524.648369 144.389072 
L 527.19947 141.031558 
L 528.47502 148.130368 
L 529.75057 141.703061 
L 531.02612 137.530068 
L 532.30167 141.942867 
L 533.57722 136.522813 
L 534.85277 135.611504 
L 536.12832 138.345546 
L 537.40387 137.769988 
L 538.67942 138.921103 
L 539.95497 139.784497 
L 541.23052 137.386207 
L 543.78162 140.647776 
L 545.05717 138.10574 
L 546.33272 137.674043 
L 547.60827 137.00254 
L 548.88382 133.884831 
L 550.159371 144.389072 
L 551.434921 133.453134 
L 552.710471 131.34268 
L 553.986021 135.995285 
L 555.261571 133.261244 
L 556.537121 128.99242 
L 557.812671 133.117383 
L 559.088221 134.556334 
L 560.363771 130.143535 
L 561.639321 136.618759 
L 562.914871 130.431371 
L 564.190421 128.94439 
L 565.465971 132.973522 
L 566.741521 128.176942 
L 568.017071 130.623147 
L 569.292621 127.88922 
L 570.568171 126.78602 
L 571.843721 128.368832 
L 573.119271 130.239481 
L 574.394822 130.623147 
L 575.670372 129.807784 
L 576.945922 125.107263 
L 578.221472 125.874711 
L 579.497022 128.94439 
L 580.772572 127.553469 
L 582.048122 124.483676 
L 583.323672 125.251124 
L 584.599222 127.121772 
L 585.874772 126.498184 
L 587.150322 121.749748 
L 588.425872 119.639294 
L 589.701422 124.531705 
L 592.252522 114.698967 
L 593.528072 121.318051 
L 594.803622 122.27739 
L 596.079172 122.852948 
L 597.354722 119.399488 
L 598.630273 121.365967 
L 599.905823 119.207597 
L 601.181373 113.835574 
L 602.456923 118.536094 
L 603.732473 118.392233 
L 606.283573 119.351458 
L 607.559123 117.48081 
L 608.834673 115.32244 
L 610.110223 114.554992 
L 611.385773 118.679955 
L 612.661323 114.07538 
L 613.936873 113.355847 
L 615.212423 113.164071 
L 616.487973 116.665446 
L 617.763523 113.260016 
L 620.314623 112.444538 
L 621.590173 112.156816 
L 622.865724 114.315186 
L 624.141274 110.909756 
L 625.416824 109.422775 
L 626.692374 114.315186 
L 627.967924 112.732374 
L 629.243474 109.950417 
L 630.519024 109.135053 
L 631.794574 111.053616 
L 633.070124 108.271659 
L 634.345674 108.46355 
L 635.621224 109.998332 
L 636.896774 106.928653 
L 638.172324 108.607411 
L 639.447874 106.544872 
L 640.723424 105.441672 
L 641.998974 108.175714 
L 643.274524 106.448927 
L 644.550074 105.105921 
L 645.825624 106.976569 
L 647.101175 103.90689 
L 648.376725 101.988212 
L 649.652275 101.988212 
L 650.927825 102.228133 
L 652.203375 104.146696 
L 653.478925 103.379248 
L 654.754475 102.995581 
L 656.030025 103.043496 
L 657.305575 101.940297 
L 658.581125 100.117679 
L 659.856675 102.6118 
L 661.132225 103.762915 
L 662.407775 100.501345 
L 663.683325 100.4054 
L 664.958875 97.575528 
L 666.234425 99.542121 
L 667.509975 94.937431 
L 668.785525 97.959194 
L 670.061075 101.5086 
L 671.336626 98.534752 
L 672.612176 98.294946 
L 673.887726 96.136576 
L 675.163276 95.129322 
L 676.438826 98.486837 
L 677.714376 93.450564 
L 678.989926 94.313958 
L 680.265476 96.232522 
L 681.541026 94.074038 
L 682.816576 94.745541 
L 684.092126 94.218013 
L 685.367676 95.704879 
L 686.643226 93.354619 
L 687.918776 93.978207 
L 687.918776 93.978207 
" style="fill:none;stroke:#abd9e9;stroke-linecap:square;stroke-width:1.5;"/>
   </g>
   <g id="line2d_32">
    <path clip-path="url(#p2c7a13eebe)" d="M 84.488905 375.715469 
L 84.583601 374.210273 
L 85.859151 372.858576 
L 87.134702 365.134805 
L 88.410252 373.823975 
L 89.685802 371.893061 
L 90.961352 342.735744 
L 93.512452 358.955766 
L 94.788002 368.61045 
L 96.063552 337.908402 
L 97.339102 363.203776 
L 98.614652 365.327839 
L 99.890202 327.288203 
L 101.165752 309.137382 
L 102.441302 354.900789 
L 103.716852 314.157759 
L 104.992402 352.583578 
L 106.267952 314.543942 
L 107.543502 325.936506 
L 108.819052 316.281821 
L 110.094602 337.715368 
L 111.370153 306.820171 
L 112.645703 318.019701 
L 113.921253 295.620755 
L 115.196803 304.309925 
L 116.472353 289.827898 
L 117.747903 283.069528 
L 119.023453 304.309925 
L 120.299003 292.144995 
L 122.850103 312.613027 
L 124.125653 299.289549 
L 125.401203 290.986447 
L 126.676753 294.655241 
L 127.952303 290.986447 
L 129.227853 288.66935 
L 130.503403 268.973683 
L 131.778953 287.317653 
L 133.054503 283.648859 
L 134.330053 283.45571 
L 135.605604 276.311271 
L 136.881154 263.180827 
L 138.156704 275.73194 
L 139.432254 280.366248 
L 140.707804 279.400734 
L 141.983354 267.042655 
L 143.258904 268.008169 
L 144.534454 278.242185 
L 145.810004 248.505651 
L 147.085554 274.380243 
L 148.361104 250.243417 
L 149.636654 265.497924 
L 150.912204 288.283053 
L 152.187754 266.270289 
L 153.463304 254.298508 
L 154.738854 263.953193 
L 156.014404 246.574623 
L 157.289954 257.774153 
L 158.565504 263.56701 
L 159.841055 274.573391 
L 161.116605 257.774153 
L 162.392155 248.505651 
L 163.667705 255.843239 
L 164.943255 240.395583 
L 166.218805 260.284399 
L 167.494355 266.656472 
L 168.769905 266.077255 
L 170.045455 239.430184 
L 171.321005 237.306121 
L 172.596555 253.719176 
L 173.872105 246.767771 
L 175.147655 241.747281 
L 176.423205 252.560628 
L 177.698755 260.477433 
L 178.974305 237.306121 
L 180.249855 240.009401 
L 181.525405 258.160336 
L 182.800955 246.381589 
L 184.076506 236.72679 
L 185.352056 257.774153 
L 186.627606 245.802257 
L 187.903156 242.326612 
L 189.178706 233.637327 
L 190.454256 238.078487 
L 191.729806 241.747281 
L 193.005356 228.230653 
L 194.280906 236.147573 
L 195.556456 237.49927 
L 196.832006 252.946811 
L 198.107556 235.182058 
L 199.383106 234.02351 
L 200.658656 228.037619 
L 201.934206 238.078487 
L 203.209756 240.974915 
L 204.485306 224.948042 
L 205.760856 226.685922 
L 207.036406 231.513264 
L 208.311956 230.161567 
L 209.587507 239.623218 
L 210.863057 235.182058 
L 212.138607 216.838089 
L 213.414157 221.85858 
L 214.689707 227.844471 
L 215.965257 242.905829 
L 217.240807 241.361098 
L 218.516357 231.706413 
L 219.791907 223.789494 
L 221.067457 234.795876 
L 222.343007 224.948042 
L 223.618557 225.334225 
L 224.894107 226.492774 
L 226.169657 218.962151 
L 227.445207 217.803603 
L 228.720757 217.41742 
L 229.996307 219.155186 
L 231.271857 218.189786 
L 232.547407 217.996637 
L 233.822958 214.327843 
L 235.098508 215.486392 
L 236.374058 219.927551 
L 237.649608 211.817598 
L 238.925158 213.941661 
L 240.200708 213.169295 
L 241.476258 205.445524 
L 242.751808 216.065723 
L 244.027358 209.307352 
L 245.302908 219.927551 
L 246.578458 222.051614 
L 247.854008 214.134809 
L 249.129558 221.85858 
L 250.405108 221.086214 
L 251.680658 208.161841 
L 252.956208 214.714026 
L 254.231758 218.962151 
L 255.507308 215.486392 
L 256.782858 214.520992 
L 258.058409 216.451906 
L 259.333959 216.065723 
L 260.609509 226.299739 
L 261.885059 227.072105 
L 263.160609 208.728135 
L 264.436159 211.431415 
L 265.711709 213.169295 
L 266.987259 215.872575 
L 268.262809 209.886684 
L 269.538359 224.755008 
L 270.813909 221.85858 
L 272.089459 219.348334 
L 273.365009 206.604073 
L 274.640559 206.411039 
L 275.916109 208.92117 
L 277.191659 201.77673 
L 278.467209 217.610454 
L 279.742759 229.58235 
L 281.018309 223.59646 
L 282.29386 211.431415 
L 283.56941 217.031237 
L 284.84496 201.390548 
L 286.12051 211.431415 
L 287.39606 217.031237 
L 288.67161 215.872575 
L 289.94716 213.748626 
L 291.22271 210.852198 
L 292.49826 202.935279 
L 293.77381 201.197399 
L 295.04936 207.95577 
L 296.32491 211.045232 
L 297.60046 210.272867 
L 298.87601 208.341953 
L 301.42711 206.797221 
L 302.70266 206.604073 
L 303.97821 211.624564 
L 305.25376 195.597691 
L 306.529311 210.659049 
L 307.804861 202.355947 
L 309.080411 210.466015 
L 310.355961 215.486392 
L 311.631511 195.211508 
L 312.907061 202.355947 
L 314.182611 205.059341 
L 315.458161 197.914788 
L 316.733711 196.949388 
L 318.009261 212.976146 
L 319.284811 212.976146 
L 320.560361 204.673159 
L 321.835911 214.907175 
L 323.111461 194.825325 
L 324.387011 205.831707 
L 325.662561 202.549096 
L 326.938111 207.762621 
L 328.213661 198.494119 
L 329.489211 192.31508 
L 330.764762 196.949388 
L 332.040312 201.004365 
L 333.315862 203.128427 
L 334.591412 184.784344 
L 337.142512 201.583582 
L 338.418062 215.293358 
L 339.693612 194.439143 
L 340.969162 200.811216 
L 342.244712 198.107937 
L 343.520262 188.260103 
L 344.795812 197.335571 
L 346.071362 203.321462 
L 347.346912 194.245994 
L 348.622462 189.997983 
L 349.898012 204.673159 
L 351.173562 198.494119 
L 352.449112 199.652668 
L 353.724662 191.735749 
L 355.000213 212.976146 
L 356.275763 213.748626 
L 357.551313 198.494119 
L 358.826863 191.349566 
L 360.102413 188.066955 
L 361.377963 201.004365 
L 362.653513 195.01836 
L 363.929063 195.01836 
L 365.204613 190.963383 
L 366.480163 195.983874 
L 367.755713 198.880302 
L 369.031263 186.329189 
L 370.306813 196.177022 
L 371.582363 177.253722 
L 372.857913 188.83932 
L 374.133463 196.949388 
L 375.409013 197.528605 
L 376.684563 178.605304 
L 377.960113 201.197399 
L 379.235664 206.604073 
L 380.511214 184.398161 
L 381.786764 193.859811 
L 383.062314 194.632177 
L 385.613414 183.432761 
L 386.888964 198.687154 
L 388.164514 180.536333 
L 389.440064 189.804834 
L 390.715614 189.032469 
L 391.991164 187.101555 
L 393.266714 196.563205 
L 394.542264 190.191017 
L 395.817814 193.666777 
L 397.093364 184.398161 
L 398.368914 193.473628 
L 399.644464 187.294589 
L 400.920014 185.749858 
L 402.195564 184.784344 
L 403.471115 186.522223 
L 404.746665 184.011978 
L 406.022215 188.646286 
L 407.297765 184.591309 
L 409.848865 178.798453 
L 411.124415 186.136041 
L 412.399965 192.701263 
L 413.675515 178.798453 
L 414.951065 186.908406 
L 416.226615 188.646286 
L 417.502165 185.943006 
L 418.777715 189.997983 
L 420.053265 192.31508 
L 421.328815 188.453137 
L 422.604365 189.225617 
L 423.879915 186.522223 
L 425.155465 186.136041 
L 426.431015 192.701263 
L 427.706566 181.501732 
L 428.982116 183.239612 
L 430.257666 192.121931 
L 431.533216 181.694881 
L 432.808766 184.591309 
L 434.084316 183.625795 
L 435.359866 186.715372 
L 436.635416 192.121931 
L 437.910966 183.818944 
L 439.186516 187.487738 
L 440.462066 185.749858 
L 441.737616 182.853429 
L 443.013166 184.591309 
L 445.564266 189.804834 
L 446.839816 184.011978 
L 448.115366 180.922515 
L 449.390916 198.107937 
L 450.666466 182.274098 
L 451.942017 185.486265 
L 453.217567 179.377784 
L 454.493117 187.487738 
L 455.768667 185.170526 
L 457.044217 180.343184 
L 458.319767 179.184636 
L 459.595317 184.205127 
L 460.870867 178.219121 
L 463.421967 180.15015 
L 464.697517 196.949388 
L 465.973067 189.418652 
L 467.248617 179.957001 
L 468.524167 179.377784 
L 469.799717 182.081064 
L 471.075267 183.625795 
L 472.350817 185.556709 
L 473.626367 180.343184 
L 474.901917 180.922515 
L 476.177467 186.136041 
L 477.453018 180.343184 
L 478.728568 183.625795 
L 480.004118 181.694881 
L 481.279668 181.501732 
L 482.555218 184.977492 
L 483.830768 177.639904 
L 485.106318 173.391779 
L 486.381868 175.129659 
L 487.657418 186.522223 
L 488.932968 175.322693 
L 490.208518 181.887915 
L 491.484068 176.095173 
L 492.759618 177.253722 
L 494.035168 175.902024 
L 495.310718 183.818944 
L 496.586268 176.481356 
L 497.861818 186.329189 
L 499.137368 181.308698 
L 500.412918 179.957001 
L 501.688469 180.922515 
L 502.964019 184.591309 
L 504.239569 177.832939 
L 505.515119 182.853429 
L 506.790669 180.729367 
L 508.066219 173.198745 
L 509.341769 185.749858 
L 510.617319 180.922515 
L 511.892869 187.680772 
L 513.168419 176.481356 
L 514.443969 183.432761 
L 515.719519 171.074682 
L 516.995069 184.591309 
L 518.270619 176.67439 
L 519.546169 178.219121 
L 520.821719 181.308698 
L 522.097269 180.922515 
L 523.372819 186.908406 
L 524.648369 172.233231 
L 525.92392 181.11555 
L 527.19947 169.529951 
L 528.47502 176.481356 
L 529.75057 177.253722 
L 531.02612 172.233231 
L 532.30167 180.729367 
L 533.57722 170.109168 
L 534.85277 175.515842 
L 536.12832 174.357293 
L 537.40387 183.625795 
L 538.67942 171.074682 
L 539.95497 171.847048 
L 541.23052 173.97111 
L 542.50607 172.812562 
L 543.78162 177.832939 
L 546.33272 171.653899 
L 547.60827 174.164145 
L 548.88382 177.832939 
L 550.159371 173.391779 
L 551.434921 180.922515 
L 552.710471 174.357293 
L 553.986021 164.702494 
L 555.261571 172.040196 
L 556.537121 165.088677 
L 557.812671 171.267716 
L 559.088221 168.757585 
L 560.363771 163.157763 
L 561.639321 176.095173 
L 562.914871 172.426379 
L 564.190421 179.377784 
L 565.465971 170.688499 
L 566.741521 172.426379 
L 568.017071 166.440374 
L 569.292621 170.881534 
L 570.568171 167.598922 
L 571.843721 174.164145 
L 573.119271 171.653899 
L 574.394822 172.040196 
L 575.670372 174.164145 
L 576.945922 174.164145 
L 578.221472 177.060573 
L 579.497022 171.653899 
L 580.772572 178.41227 
L 582.048122 175.515842 
L 583.323672 163.737094 
L 584.599222 167.405888 
L 585.874772 169.722985 
L 587.150322 167.21274 
L 588.425872 179.377784 
L 589.701422 167.792071 
L 590.976972 176.095173 
L 592.252522 171.653899 
L 593.528072 165.474974 
L 594.803622 174.743476 
L 597.354722 167.792071 
L 598.630273 167.019705 
L 599.905823 171.460865 
L 601.181373 169.529951 
L 602.456923 168.178254 
L 603.732473 164.895643 
L 605.008023 173.005596 
L 606.283573 170.881534 
L 607.559123 165.474974 
L 608.834673 169.916134 
L 610.110223 165.281826 
L 611.385773 171.653899 
L 612.661323 164.316311 
L 613.936873 164.895643 
L 615.212423 167.21274 
L 616.487973 170.688499 
L 617.763523 167.598922 
L 619.039073 165.668008 
L 620.314623 164.895643 
L 621.590173 163.930129 
L 622.865724 166.633523 
L 624.141274 165.281826 
L 625.416824 173.97111 
L 626.692374 164.895643 
L 627.967924 168.371288 
L 629.243474 170.495351 
L 630.519024 166.826557 
L 631.794574 160.454483 
L 633.070124 169.336802 
L 634.345674 162.192363 
L 635.621224 166.440374 
L 636.896774 164.895643 
L 638.172324 161.80618 
L 639.447874 166.440374 
L 640.723424 162.578546 
L 641.998974 164.123277 
L 643.274524 164.50946 
L 644.550074 167.405888 
L 647.101175 162.192363 
L 648.376725 159.488969 
L 649.652275 164.702494 
L 650.927825 164.123277 
L 652.203375 163.00281 
L 653.478925 161.613032 
L 654.754475 161.80618 
L 656.030025 160.261335 
L 657.305575 159.488969 
L 658.581125 161.613032 
L 659.856675 161.0337 
L 661.132225 161.226849 
L 662.407775 164.702494 
L 663.683325 161.80618 
L 664.958875 165.281826 
L 666.234425 158.330421 
L 667.509975 162.964729 
L 668.785525 157.944238 
L 670.061075 160.454483 
L 671.336626 163.350912 
L 672.612176 159.682118 
L 673.887726 161.613032 
L 675.163276 159.682118 
L 676.438826 156.399507 
L 677.714376 164.123277 
L 678.989926 160.0683 
L 680.265476 157.944238 
L 681.541026 160.261335 
L 682.816576 164.702494 
L 684.092126 156.785689 
L 685.367676 160.454483 
L 686.643226 162.964729 
L 687.918776 156.592541 
L 687.918776 156.592541 
" style="fill:none;stroke:#2c7bb6;stroke-linecap:square;stroke-width:1.5;"/>
   </g>
   <g id="line2d_33">
    <path clip-path="url(#p2c7a13eebe)" d="M 67.563539 375.715469 
L 69.277001 351.740539 
L 70.552551 334.521154 
L 71.828101 325.168029 
L 73.103651 311.88183 
L 74.379201 306.509807 
L 75.654751 289.434282 
L 76.930301 281.760028 
L 78.205851 275.572527 
L 80.756951 254.372154 
L 82.032501 252.981118 
L 83.308051 237.776356 
L 84.583601 235.378066 
L 85.859151 225.881079 
L 87.134702 219.453886 
L 88.410252 215.328923 
L 89.685802 212.211214 
L 90.961352 204.344955 
L 92.236902 199.740379 
L 93.512452 196.38275 
L 94.788002 185.494842 
L 96.063552 187.413406 
L 97.339102 183.480333 
L 98.614652 178.491977 
L 99.890202 174.942571 
L 101.165752 165.157749 
L 102.441302 162.184015 
L 103.716852 164.342385 
L 104.992402 157.819131 
L 106.267952 156.092459 
L 107.543502 156.572071 
L 108.819052 148.993648 
L 110.094602 150.048932 
L 111.370153 141.319279 
L 112.645703 143.142012 
L 113.921253 138.537322 
L 115.196803 138.153655 
L 116.472353 140.168164 
L 117.747903 129.807784 
L 119.023453 128.224972 
L 120.299003 130.09562 
L 121.574553 130.910983 
L 122.850103 127.985165 
L 124.125653 123.284645 
L 125.401203 124.43576 
L 126.676753 119.591264 
L 127.952303 120.406742 
L 129.227853 116.857337 
L 130.503403 118.7759 
L 131.778953 114.07538 
L 133.054503 117.48081 
L 135.605604 108.319575 
L 136.881154 109.806556 
L 138.156704 108.079769 
L 139.432254 108.079769 
L 140.707804 107.120544 
L 141.983354 104.866115 
L 143.258904 105.01009 
L 144.534454 102.947551 
L 145.810004 100.549375 
L 147.085554 96.904025 
L 148.361104 96.904025 
L 149.636654 100.837097 
L 150.912204 100.549375 
L 152.187754 93.738286 
L 153.463304 96.568273 
L 154.738854 92.587171 
L 156.014404 97.911279 
L 157.289954 93.114813 
L 159.841055 92.635201 
L 161.116605 95.512989 
L 162.392155 90.908413 
L 163.667705 89.757298 
L 164.943255 85.872141 
L 166.218805 88.893905 
L 168.769905 84.577051 
L 170.045455 84.577051 
L 171.321005 90.332856 
L 172.596555 84.193384 
L 173.872105 82.946323 
L 175.147655 83.809603 
L 176.423205 85.344499 
L 177.698755 86.59156 
L 178.974305 85.872141 
L 180.249855 81.411427 
L 181.525405 80.548033 
L 182.800955 79.348888 
L 184.076506 82.994239 
L 185.352056 77.574185 
L 186.627606 76.183264 
L 187.903156 77.238434 
L 189.178706 80.260197 
L 190.454256 78.58144 
L 191.729806 79.972476 
L 193.005356 73.401307 
L 194.280906 79.492863 
L 195.556456 79.252943 
L 196.832006 70.76321 
L 198.107556 79.157112 
L 199.383106 74.024894 
L 200.658656 75.799483 
L 201.934206 71.91444 
L 203.209756 76.039403 
L 204.485306 74.936203 
L 205.760856 74.840258 
L 207.036406 71.91444 
L 208.311956 77.286464 
L 209.587507 68.029283 
L 210.863057 71.194907 
L 212.138607 69.899931 
L 213.414157 74.552422 
L 214.689707 71.482743 
L 215.965257 68.077199 
L 217.240807 69.036538 
L 218.516357 65.295241 
L 219.791907 67.069944 
L 221.067457 65.247326 
L 222.343007 72.96961 
L 223.618557 66.014774 
L 224.894107 66.302496 
L 226.169657 68.077199 
L 227.445207 63.712429 
L 228.720757 64.815629 
L 229.996307 68.173144 
L 231.271857 62.849036 
L 232.547407 60.546805 
L 233.822958 64.192042 
L 235.098508 65.630993 
L 236.374058 60.786611 
L 237.649608 61.937727 
L 238.925158 64.000265 
L 240.200708 63.712429 
L 241.476258 62.60923 
L 242.751808 62.033672 
L 244.027358 59.635382 
L 245.302908 58.436351 
L 246.578458 61.841781 
L 247.854008 60.306885 
L 249.129558 59.34766 
L 250.405108 60.306885 
L 252.956208 62.849036 
L 254.231758 59.395576 
L 255.507308 61.745836 
L 256.782858 57.668903 
L 258.058409 60.546805 
L 259.333959 60.498775 
L 260.609509 59.15577 
L 261.885059 60.354915 
L 263.160609 57.333151 
L 264.436159 57.716818 
L 265.711709 57.381067 
L 266.987259 55.222697 
L 268.262809 56.421842 
L 269.538359 61.314139 
L 270.813909 57.141261 
L 272.089459 56.805509 
L 273.365009 55.84617 
L 274.640559 55.414588 
L 275.916109 53.783746 
L 277.191659 56.086091 
L 278.467209 54.455249 
L 279.742759 55.414588 
L 281.018309 58.292376 
L 282.29386 51.33754 
L 283.56941 62.081588 
L 284.84496 51.097734 
L 286.12051 53.352049 
L 287.39606 51.193679 
L 288.67161 51.193679 
L 289.94716 56.661648 
L 291.22271 51.385456 
L 292.49826 51.673292 
L 293.77381 53.304134 
L 295.04936 50.905843 
L 296.32491 57.812764 
L 297.60046 51.577346 
L 298.87601 49.275002 
L 300.15156 50.378201 
L 301.42711 52.44074 
L 302.70266 51.097734 
L 303.97821 49.227086 
L 305.25376 50.761983 
L 306.529311 48.507668 
L 307.804861 49.035195 
L 309.080411 50.522176 
L 310.355961 48.171916 
L 311.631511 49.179171 
L 312.907061 48.219832 
L 314.182611 51.481401 
L 315.458161 46.82891 
L 316.733711 46.82891 
L 318.009261 58.196545 
L 319.284811 47.260493 
L 320.560361 47.836165 
L 321.835911 45.917487 
L 323.111461 45.150038 
L 324.387011 46.972771 
L 325.662561 46.82891 
L 326.938111 49.466892 
L 328.213661 47.068716 
L 329.489211 47.020687 
L 330.764762 45.054207 
L 332.040312 46.445129 
L 333.315862 47.500413 
L 334.591412 45.389959 
L 335.866962 46.684935 
L 337.142512 48.171916 
L 338.418062 47.692189 
L 339.693612 44.526565 
L 340.969162 47.356438 
L 342.244712 44.622511 
L 343.520262 43.567226 
L 344.795812 45.53382 
L 346.071362 45.198068 
L 347.346912 47.164662 
L 348.622462 48.075971 
L 349.898012 41.216966 
L 351.173562 44.190814 
L 352.449112 44.142784 
L 353.724662 44.814287 
L 355.000213 43.231475 
L 356.275763 42.368081 
L 357.551313 46.157293 
L 358.826863 41.600747 
L 360.102413 41.073105 
L 361.377963 44.094869 
L 362.653513 42.655917 
L 363.929063 42.847808 
L 365.204613 40.065851 
L 366.480163 42.943753 
L 367.755713 41.504802 
L 369.031263 39.87396 
L 370.306813 43.231475 
L 371.582363 37.811536 
L 372.857913 43.711202 
L 374.133463 40.97716 
L 375.409013 39.346318 
L 376.684563 39.106512 
L 377.960113 42.128275 
L 379.235664 40.113766 
L 380.511214 39.92199 
L 381.786764 39.010567 
L 383.062314 40.449518 
L 384.337864 43.183559 
L 385.613414 38.530954 
L 386.888964 37.763506 
L 388.164514 37.811536 
L 389.440064 42.320166 
L 390.715614 37.811536 
L 391.991164 39.394348 
L 393.266714 35.748997 
L 394.542264 38.243118 
L 395.817814 35.892858 
L 397.093364 38.866706 
L 398.368914 37.044088 
L 399.644464 36.4205 
L 400.920014 36.180694 
L 402.195564 37.859451 
L 403.471115 37.811536 
L 404.746665 38.483039 
L 406.022215 34.981549 
L 407.297765 37.427754 
L 408.573315 32.919124 
L 409.848865 36.564361 
L 411.124415 34.405991 
L 412.399965 35.509191 
L 413.675515 33.926379 
L 414.951065 36.516445 
L 416.226615 35.557106 
L 417.502165 36.324555 
L 418.777715 33.590627 
L 420.053265 35.748997 
L 421.328815 35.3173 
L 423.879915 32.96704 
L 425.155465 35.12541 
L 426.431015 34.741743 
L 427.706566 36.852197 
L 428.982116 33.062985 
L 430.257666 35.221355 
L 431.533216 31.336198 
L 432.808766 34.741743 
L 434.084316 34.07024 
L 435.359866 32.823179 
L 436.635416 33.302791 
L 437.910966 34.405991 
L 439.186516 34.501937 
L 440.462066 33.398737 
L 441.737616 30.904616 
L 443.013166 32.823179 
L 444.288716 32.727234 
L 445.564266 32.487428 
L 446.839816 30.80867 
L 448.115366 31.384228 
L 449.390916 32.295537 
L 450.666466 33.638543 
L 451.942017 30.328944 
L 453.217567 30.952531 
L 454.493117 32.295537 
L 455.768667 31.86384 
L 457.044217 32.199592 
L 458.319767 29.993192 
L 459.595317 30.472919 
L 460.870867 32.055731 
L 462.146417 28.890107 
L 463.421967 29.753386 
L 464.697517 29.705471 
L 465.973067 30.904616 
L 467.248617 31.048476 
L 468.524167 30.233113 
L 469.799717 30.281028 
L 471.075267 29.225858 
L 472.350817 29.51358 
L 473.626367 29.945277 
L 474.901917 31.576119 
L 476.177467 29.705471 
L 477.453018 27.067374 
L 478.728568 26.971429 
L 480.004118 30.328944 
L 481.279668 28.41038 
L 482.555218 26.731623 
L 483.830768 27.499071 
L 485.106318 25.00495 
L 486.381868 26.827568 
L 487.657418 27.451155 
L 488.932968 26.25201 
L 490.208518 27.211235 
L 491.484068 27.738877 
L 492.759618 27.019459 
L 494.035168 27.16332 
L 495.310718 26.395871 
L 496.586268 26.779653 
L 497.861818 26.06012 
L 499.137368 26.25201 
L 500.412918 25.436647 
L 501.688469 27.595016 
L 502.964019 25.244756 
L 504.239569 26.203981 
L 505.515119 25.580507 
L 508.066219 25.244756 
L 509.341769 25.820314 
L 510.617319 24.717114 
L 511.892869 25.244756 
L 513.168419 24.860975 
L 514.443969 23.949666 
L 515.719519 25.964174 
L 516.995069 24.573253 
L 519.546169 24.909004 
L 520.821719 24.333447 
L 522.097269 25.148811 
L 523.372819 23.805805 
L 524.648369 23.90175 
L 525.92392 24.765144 
L 527.19947 23.230247 
L 528.47502 23.134302 
L 529.75057 23.278163 
L 531.02612 23.757775 
L 532.30167 23.374108 
L 533.57722 22.222993 
L 534.85277 22.942411 
L 536.12832 23.038356 
L 537.40387 22.222993 
L 538.67942 23.374108 
L 539.95497 22.222993 
L 541.23052 21.359599 
L 542.50607 23.038356 
L 543.78162 22.75052 
L 546.33272 20.496205 
L 547.60827 23.613914 
L 548.88382 22.79855 
L 550.159371 20.975932 
L 551.434921 21.695351 
L 552.710471 19.776787 
L 553.986021 21.647435 
L 555.261571 20.496205 
L 556.537121 20.544235 
L 560.363771 21.359599 
L 561.639321 20.256399 
L 562.914871 19.920648 
L 564.190421 18.961309 
L 566.741521 20.784041 
L 568.017071 18.577642 
L 569.292621 20.112538 
L 570.568171 19.29706 
L 571.843721 20.256399 
L 573.119271 20.496205 
L 574.394822 20.208484 
L 575.670372 19.249145 
L 576.945922 17.330581 
L 578.221472 18.817448 
L 579.497022 19.920648 
L 580.772572 18.577642 
L 583.323672 18.481697 
L 584.599222 17.570387 
L 585.874772 18.385751 
L 587.150322 18.433781 
L 588.425872 18.193975 
L 589.701422 17.090775 
L 590.976972 16.850969 
L 592.252522 17.570387 
L 593.528072 18.433781 
L 594.803622 18.145945 
L 596.079172 16.083521 
L 597.354722 18.145945 
L 598.630273 17.378497 
L 599.905823 17.330581 
L 601.181373 18.05 
L 602.456923 16.419272 
L 603.732473 16.083521 
L 605.008023 17.234636 
L 606.283573 16.659078 
L 608.834673 16.755024 
L 610.110223 15.747769 
L 611.385773 15.89163 
L 612.661323 14.740515 
L 613.936873 16.419272 
L 615.212423 15.268043 
L 616.487973 14.932291 
L 617.763523 15.651824 
L 619.039073 15.507849 
L 620.314623 14.740515 
L 621.590173 15.028236 
L 622.865724 15.651824 
L 624.141274 15.220127 
L 625.416824 15.507849 
L 626.692374 14.692485 
L 627.967924 14.884376 
L 629.243474 14.452679 
L 630.519024 15.220127 
L 631.794574 15.076266 
L 633.070124 15.172097 
L 634.345674 14.452679 
L 635.621224 14.404763 
L 636.896774 14.64457 
L 639.447874 13.973067 
L 640.723424 13.925037 
L 641.998974 13.49334 
L 644.550074 13.925037 
L 647.101175 13.49334 
L 648.376725 13.54137 
L 649.652275 13.973067 
L 652.203375 13.73326 
L 653.478925 13.157588 
L 654.754475 13.205618 
L 656.030025 12.917782 
L 657.305575 12.917782 
L 658.581125 13.397509 
L 659.856675 12.965812 
L 661.132225 13.301564 
L 662.407775 12.630061 
L 663.683325 13.013728 
L 664.958875 12.534115 
L 666.234425 12.294309 
L 667.509975 12.725892 
L 668.785525 12.150334 
L 670.061075 12.054389 
L 671.336626 12.534115 
L 672.612176 11.718637 
L 673.887726 12.294309 
L 675.163276 12.534115 
L 676.438826 12.246279 
L 677.714376 11.814583 
L 678.989926 12.006473 
L 680.265476 12.486085 
L 681.541026 12.582031 
L 682.816576 12.246279 
L 684.092126 12.150334 
L 685.367676 11.670722 
L 686.643226 12.102419 
L 687.918776 11.910528 
L 687.918776 11.910528 
" style="fill:none;stroke:#fdae61;stroke-linecap:square;stroke-width:1.5;"/>
   </g>
   <g id="line2d_34">
    <path clip-path="url(#p2c7a13eebe)" d="M 71.17119 375.715469 
L 71.828101 360.500497 
L 72.709747 375.715469 
M 73.256389 375.715469 
L 74.379201 325.743472 
L 75.654751 366.293353 
L 76.930301 341.191013 
L 78.205851 336.943002 
L 79.481401 322.460861 
L 80.756951 329.219117 
L 82.032501 363.783108 
L 83.308051 301.992829 
L 84.583601 323.233226 
L 85.859151 327.095169 
L 87.134702 328.253717 
L 88.410252 316.47497 
L 89.685802 310.682113 
L 90.961352 296.972338 
L 92.236902 318.405884 
L 93.512452 307.785685 
L 94.788002 299.289549 
L 96.063552 291.758812 
L 97.339102 320.336798 
L 98.614652 289.827898 
L 99.890202 281.331648 
L 101.165752 299.868766 
L 102.441302 276.697454 
L 103.716852 291.565664 
L 104.992402 298.710217 
L 106.267952 296.779303 
L 107.543502 282.876493 
L 108.819052 327.481352 
L 110.094602 270.904598 
L 111.370153 277.276671 
L 112.645703 301.413497 
L 113.921253 292.724327 
L 115.196803 305.27544 
L 116.472353 280.173099 
L 117.747903 267.815021 
L 119.023453 295.813789 
L 120.299003 291.758812 
L 121.574553 281.331648 
L 122.850103 279.2077 
L 124.125653 272.642477 
L 126.676753 293.11051 
L 127.952303 287.510687 
L 129.227853 276.118123 
L 130.503403 281.524796 
L 131.778953 265.884107 
L 133.054503 292.144995 
L 134.330053 280.752431 
L 135.605604 252.560628 
L 136.881154 271.870112 
L 138.156704 263.180827 
L 139.432254 279.593882 
L 140.707804 274.959574 
L 141.983354 280.559282 
L 143.258904 271.483929 
L 144.534454 268.973683 
L 145.810004 267.235804 
L 147.085554 282.876493 
L 148.361104 277.856003 
L 149.636654 269.939083 
L 150.912204 284.228076 
L 152.187754 275.538906 
L 153.463304 276.697454 
L 154.738854 288.862384 
L 156.014404 271.097632 
L 157.289954 259.12585 
L 158.565504 245.029892 
L 159.841055 266.463438 
L 161.116605 258.160336 
L 162.392155 265.497924 
L 163.667705 270.325266 
L 164.943255 272.642477 
L 165.757708 375.715469 
M 166.641014 375.715469 
L 167.494355 257.774153 
L 168.769905 261.442947 
L 170.045455 253.332994 
L 171.321005 263.373861 
L 172.596555 245.609223 
L 173.872105 279.786917 
L 175.147655 262.987678 
L 176.423205 367.258753 
L 177.698755 254.105359 
L 178.974305 296.006938 
L 180.249855 260.477433 
L 181.525405 274.573391 
L 182.800955 254.491542 
L 184.076506 255.070873 
L 185.352056 247.153954 
L 186.627606 260.09125 
L 187.903156 260.670581 
L 189.178706 257.194822 
L 190.454256 271.483929 
L 191.729806 264.725558 
L 193.005356 263.760044 
L 194.280906 247.733286 
L 195.556456 268.394352 
L 196.832006 266.849621 
L 198.107556 266.270289 
L 199.383106 251.595114 
L 200.658656 248.119468 
L 201.934206 251.788262 
L 203.209756 252.560628 
L 204.485306 265.497924 
L 205.760856 254.298508 
L 207.036406 234.602841 
L 208.311956 292.917361 
L 209.587507 260.09125 
L 210.863057 260.477433 
L 212.138607 255.070873 
L 213.414157 249.084868 
L 214.689707 260.863616 
L 215.965257 258.353485 
L 217.240807 248.698686 
L 218.516357 252.367479 
L 219.791907 254.105359 
L 221.067457 248.505651 
L 223.618557 244.450675 
L 224.894107 256.615605 
L 226.169657 241.554246 
L 227.445207 260.09125 
L 228.720757 255.650091 
L 229.996307 256.036273 
L 231.271857 260.09125 
L 232.547407 253.332994 
L 233.822958 241.747281 
L 235.098508 249.084868 
L 236.374058 269.359866 
L 237.649608 254.877725 
L 238.925158 279.014551 
L 240.200708 271.29078 
L 241.476258 256.422456 
L 242.751808 255.843239 
L 244.027358 248.505651 
L 245.302908 248.119468 
L 246.578458 258.932702 
L 247.854008 251.208931 
L 249.129558 251.015897 
L 250.405108 256.615605 
L 251.680658 244.096969 
L 252.956208 240.395583 
L 254.231758 241.940429 
L 255.507308 250.822748 
L 256.782858 252.753662 
L 258.058409 279.014551 
L 259.333959 249.857234 
L 260.609509 251.595114 
L 261.885059 239.044001 
L 263.160609 242.905829 
L 264.436159 242.326612 
L 265.711709 258.160336 
L 266.987259 240.395583 
L 268.262809 243.098978 
L 269.538359 256.229422 
L 270.813909 250.6296 
L 272.089459 252.560628 
L 273.365009 237.306121 
L 274.640559 240.974915 
L 275.916109 252.946811 
L 277.191659 240.202549 
L 278.467209 241.940429 
L 279.742759 242.905829 
L 281.018309 263.373861 
L 282.29386 246.960806 
L 283.56941 246.381589 
L 284.84496 241.554246 
L 286.12051 250.436565 
L 287.39606 236.72679 
L 288.67161 252.753662 
L 289.94716 245.609223 
L 291.22271 257.967302 
L 292.49826 239.623218 
L 293.77381 254.105359 
L 295.04936 235.568241 
L 296.32491 239.430184 
L 297.60046 233.830476 
L 298.87601 238.850852 
L 300.15156 255.070873 
L 301.42711 250.436565 
L 302.70266 238.850852 
L 303.97821 239.816366 
L 305.25376 238.271635 
L 306.529311 238.657818 
L 307.804861 245.802257 
L 309.080411 241.747281 
L 310.355961 251.981297 
L 311.631511 246.18844 
L 312.907061 235.954424 
L 314.182611 230.934047 
L 315.458161 234.216658 
L 316.733711 243.292012 
L 318.009261 238.657818 
L 319.284811 252.753662 
L 320.560361 245.416074 
L 321.835911 237.112972 
L 323.111461 236.72679 
L 324.387011 247.346988 
L 325.662561 250.050383 
L 326.938111 233.830476 
L 328.213661 232.864961 
L 329.489211 243.678195 
L 330.764762 241.361098 
L 332.040312 244.450675 
L 333.315862 250.6296 
L 334.591412 243.098978 
L 335.866962 234.795876 
L 337.142512 250.243417 
L 338.418062 229.968533 
L 339.693612 243.48516 
L 340.969162 221.086214 
L 342.244712 233.057996 
L 343.520262 237.885452 
L 344.795812 236.533755 
L 347.346912 250.822748 
L 348.622462 223.210162 
L 349.898012 235.568241 
L 351.173562 234.216658 
L 352.449112 240.974915 
L 353.724662 239.237035 
L 355.000213 231.513264 
L 356.275763 258.546519 
L 357.551313 242.133463 
L 358.826863 235.568241 
L 360.102413 242.905829 
L 361.377963 228.809985 
L 362.653513 241.168063 
L 363.929063 229.775385 
L 365.204613 232.864961 
L 366.480163 236.340607 
L 367.755713 233.444179 
L 369.031263 236.340607 
L 370.306813 235.375207 
L 371.582363 235.182058 
L 372.857913 241.361098 
L 374.133463 225.913556 
L 375.409013 225.720408 
L 376.684563 237.49927 
L 377.960113 233.637327 
L 379.235664 238.850852 
L 380.511214 239.237035 
L 381.786764 243.098978 
L 383.062314 233.830476 
L 384.337864 237.885452 
L 385.613414 266.656472 
L 386.888964 231.706413 
L 388.164514 230.740899 
L 389.440064 226.492774 
L 390.715614 235.182058 
L 391.991164 231.127082 
L 393.266714 228.230653 
L 394.542264 225.720408 
L 395.817814 228.423802 
L 397.093364 226.106591 
L 398.368914 234.602841 
L 399.644464 230.740899 
L 400.920014 236.533755 
L 402.195564 236.72679 
L 403.471115 228.809985 
L 404.746665 226.879071 
L 406.022215 249.471051 
L 407.297765 231.706413 
L 408.573315 234.02351 
L 409.848865 231.127082 
L 412.399965 226.299739 
L 413.675515 221.472397 
L 414.951065 222.051614 
L 416.226615 208.148804 
L 417.502165 225.527374 
L 418.777715 223.403311 
L 420.053265 230.354716 
L 421.328815 231.127082 
L 422.604365 226.685922 
L 423.879915 214.907175 
L 426.431015 237.49927 
L 427.706566 242.519646 
L 428.982116 232.28563 
L 430.257666 229.968533 
L 431.533216 230.934047 
L 432.808766 225.141191 
L 434.084316 231.899447 
L 435.359866 232.092596 
L 436.635416 226.492774 
L 437.910966 229.58235 
L 439.186516 223.210162 
L 440.462066 222.82398 
L 441.737616 229.003019 
L 443.013166 224.755008 
L 444.288716 223.982642 
L 445.564266 232.28563 
L 446.839816 227.844471 
L 448.115366 236.72679 
L 449.390916 224.175677 
L 450.666466 233.444179 
L 451.942017 236.794603 
L 453.217567 230.161567 
L 454.493117 226.879071 
L 455.768667 216.451906 
L 457.044217 223.017128 
L 458.319767 240.781881 
L 459.595317 220.506883 
L 460.870867 223.982642 
L 462.146417 228.616836 
L 463.421967 232.478779 
L 464.697517 216.451906 
L 465.973067 234.02351 
L 467.248617 219.541369 
L 468.524167 228.230653 
L 469.799717 232.671813 
L 471.075267 226.879071 
L 472.350817 217.803603 
L 473.626367 222.244763 
L 474.901917 218.38282 
L 476.177467 218.38282 
L 477.453018 229.003019 
L 478.728568 221.086214 
L 480.004118 222.437797 
L 481.279668 220.313849 
L 482.555218 248.698686 
L 483.830768 220.893066 
L 485.106318 217.224272 
L 486.381868 227.072105 
L 487.657418 227.844471 
L 488.932968 211.817598 
L 490.208518 225.720408 
L 491.484068 227.458288 
L 492.759618 230.934047 
L 494.035168 222.630945 
L 495.310718 226.879071 
L 496.586268 224.561859 
L 499.137368 224.948042 
L 500.412918 235.568241 
L 501.688469 220.893066 
L 502.964019 226.685922 
L 504.239569 219.155186 
L 505.515119 217.610454 
L 506.790669 211.238381 
L 508.066219 219.348334 
L 509.341769 232.671813 
L 510.617319 218.769003 
L 511.892869 216.645055 
L 513.168419 222.630945 
L 514.443969 225.720408 
L 515.719519 222.244763 
L 516.995069 205.445524 
L 518.270619 216.645055 
L 519.546169 222.82398 
L 520.821719 224.948042 
L 522.097269 220.1207 
L 523.372819 225.141191 
L 524.648369 225.141191 
L 525.92392 224.175677 
L 527.19947 228.616836 
L 528.47502 222.82398 
L 529.75057 227.651436 
L 531.02612 214.907175 
L 532.30167 226.685922 
L 533.57722 212.203781 
L 534.85277 215.100209 
L 536.12832 209.886684 
L 537.40387 222.82398 
L 538.67942 215.67954 
L 539.95497 223.59646 
L 541.23052 220.506883 
L 542.50607 213.555478 
L 543.78162 223.403311 
L 545.05717 221.086214 
L 546.33272 225.141191 
L 547.60827 220.1207 
L 548.88382 217.224272 
L 550.159371 218.38282 
L 551.434921 221.279248 
L 552.710471 204.673159 
L 553.986021 225.334225 
L 555.261571 210.466015 
L 556.537121 215.67954 
L 557.812671 208.728135 
L 559.088221 217.803603 
L 560.363771 214.714026 
L 561.639321 213.555478 
L 562.914871 207.762621 
L 564.190421 218.575969 
L 565.465971 211.045232 
L 566.741521 220.506883 
L 568.017071 213.169295 
L 569.292621 219.348334 
L 570.568171 207.376438 
L 571.843721 218.189786 
L 573.119271 217.610454 
L 574.394822 207.376438 
L 575.670372 217.996637 
L 576.945922 212.203781 
L 578.221472 205.252376 
L 579.497022 209.114318 
L 580.772572 220.700031 
L 582.048122 216.451906 
L 583.323672 217.803603 
L 584.599222 215.872575 
L 585.874772 214.907175 
L 587.150322 206.024741 
L 588.425872 209.500501 
L 589.701422 213.941661 
L 590.976972 204.48001 
L 592.252522 213.169295 
L 593.528072 211.624564 
L 594.803622 214.907175 
L 596.079172 204.673159 
L 597.354722 214.520992 
L 598.630273 216.065723 
L 599.905823 206.024741 
L 601.181373 211.238381 
L 602.456923 211.431415 
L 603.732473 210.659049 
L 605.008023 204.48001 
L 606.283573 206.990256 
L 607.559123 209.886684 
L 608.834673 208.728135 
L 610.110223 213.748626 
L 611.385773 205.059341 
L 612.661323 214.907175 
L 613.936873 204.48001 
L 615.212423 204.48001 
L 616.487973 202.549096 
L 617.763523 208.148804 
L 619.039073 200.618182 
L 620.314623 202.74213 
L 621.590173 210.079832 
L 622.865724 205.252376 
L 624.141274 202.549096 
L 625.416824 207.183404 
L 626.692374 208.148804 
L 627.967924 202.162913 
L 629.243474 202.549096 
L 630.519024 207.762621 
L 631.794574 205.252376 
L 633.070124 199.073336 
L 634.345674 201.004365 
L 635.621224 199.652668 
L 636.896774 206.411039 
L 638.172324 201.390548 
L 639.447874 195.01836 
L 640.723424 203.321462 
L 641.998974 201.197399 
L 643.274524 205.445524 
L 644.550074 199.652668 
L 645.825624 200.231999 
L 647.101175 201.004365 
L 648.376725 207.569587 
L 649.652275 203.51461 
L 650.927825 202.935279 
L 652.203375 201.8203 
L 653.478925 196.370057 
L 654.754475 201.390548 
L 656.030025 202.162913 
L 657.305575 199.652668 
L 658.581125 199.845816 
L 659.856675 194.825325 
L 661.132225 198.880302 
L 662.407775 198.687154 
L 663.683325 199.652668 
L 664.958875 201.583582 
L 666.234425 197.914788 
L 667.509975 196.949388 
L 668.785525 198.107937 
L 670.061075 192.701263 
L 671.336626 205.638559 
L 672.612176 195.790725 
L 673.887726 194.825325 
L 675.163276 196.177022 
L 676.438826 198.107937 
L 677.714376 195.597691 
L 678.989926 192.31508 
L 680.265476 196.563205 
L 681.541026 194.825325 
L 682.816576 202.355947 
L 684.092126 188.453137 
L 685.367676 194.632177 
L 686.643226 196.177022 
L 687.918776 190.384166 
L 687.918776 190.384166 
" style="fill:none;stroke:#d7191c;stroke-linecap:square;stroke-width:1.5;"/>
   </g>
   <g id="patch_3">
    <path d="M 50.14375 337.159219 
L 50.14375 10.999219 
" style="fill:none;stroke:#000000;stroke-linecap:square;stroke-linejoin:miter;stroke-width:0.8;"/>
   </g>
   <g id="patch_4">
    <path d="M 719.74375 337.159219 
L 719.74375 10.999219 
" style="fill:none;stroke:#000000;stroke-linecap:square;stroke-linejoin:miter;stroke-width:0.8;"/>
   </g>
   <g id="patch_5">
    <path d="M 50.14375 337.159219 
L 719.74375 337.159219 
" style="fill:none;stroke:#000000;stroke-linecap:square;stroke-linejoin:miter;stroke-width:0.8;"/>
   </g>
   <g id="patch_6">
    <path d="M 50.14375 10.999219 
L 719.74375 10.999219 
" style="fill:none;stroke:#000000;stroke-linecap:square;stroke-linejoin:miter;stroke-width:0.8;"/>
   </g>
   <g id="legend_1">
    <g id="patch_7">
     <path d="M 57.14375 77.711719 
L 197.634375 77.711719 
Q 199.634375 77.711719 199.634375 75.711719 
L 199.634375 17.999219 
Q 199.634375 15.999219 197.634375 15.999219 
L 57.14375 15.999219 
Q 55.14375 15.999219 55.14375 17.999219 
L 55.14375 75.711719 
Q 55.14375 77.711719 57.14375 77.711719 
z
" style="fill:#ffffff;opacity:0.8;stroke:#cccccc;stroke-linejoin:miter;"/>
    </g>
    <g id="line2d_35">
     <path d="M 59.14375 24.097656 
L 79.14375 24.097656 
" style="fill:none;stroke:#abd9e9;stroke-linecap:square;stroke-width:1.5;"/>
    </g>
    <g id="line2d_36"/>
    <g id="text_18">
     <!-- Train -->
     <defs>
      <path d="M -0.296875 72.90625 
L 61.375 72.90625 
L 61.375 64.59375 
L 35.5 64.59375 
L 35.5 0 
L 25.59375 0 
L 25.59375 64.59375 
L -0.296875 64.59375 
z
" id="DejaVuSans-84"/>
      <path d="M 9.421875 54.6875 
L 18.40625 54.6875 
L 18.40625 0 
L 9.421875 0 
z
M 9.421875 75.984375 
L 18.40625 75.984375 
L 18.40625 64.59375 
L 9.421875 64.59375 
z
" id="DejaVuSans-105"/>
      <path d="M 54.890625 33.015625 
L 54.890625 0 
L 45.90625 0 
L 45.90625 32.71875 
Q 45.90625 40.484375 42.875 44.328125 
Q 39.84375 48.1875 33.796875 48.1875 
Q 26.515625 48.1875 22.3125 43.546875 
Q 18.109375 38.921875 18.109375 30.90625 
L 18.109375 0 
L 9.078125 0 
L 9.078125 54.6875 
L 18.109375 54.6875 
L 18.109375 46.1875 
Q 21.34375 51.125 25.703125 53.5625 
Q 30.078125 56 35.796875 56 
Q 45.21875 56 50.046875 50.171875 
Q 54.890625 44.34375 54.890625 33.015625 
z
" id="DejaVuSans-110"/>
     </defs>
     <g transform="translate(87.14375 27.597656)scale(0.1 -0.1)">
      <use xlink:href="#DejaVuSans-84"/>
      <use x="60.865234" xlink:href="#DejaVuSans-114"/>
      <use x="101.978516" xlink:href="#DejaVuSans-97"/>
      <use x="163.257812" xlink:href="#DejaVuSans-105"/>
      <use x="191.041016" xlink:href="#DejaVuSans-110"/>
     </g>
    </g>
    <g id="line2d_37">
     <path d="M 59.14375 38.775781 
L 79.14375 38.775781 
" style="fill:none;stroke:#2c7bb6;stroke-linecap:square;stroke-width:1.5;"/>
    </g>
    <g id="line2d_38"/>
    <g id="text_19">
     <!-- Validation -->
     <defs>
      <path d="M 28.609375 0 
L 0.78125 72.90625 
L 11.078125 72.90625 
L 34.1875 11.53125 
L 57.328125 72.90625 
L 67.578125 72.90625 
L 39.796875 0 
z
" id="DejaVuSans-86"/>
      <path d="M 9.421875 75.984375 
L 18.40625 75.984375 
L 18.40625 0 
L 9.421875 0 
z
" id="DejaVuSans-108"/>
      <path d="M 45.40625 46.390625 
L 45.40625 75.984375 
L 54.390625 75.984375 
L 54.390625 0 
L 45.40625 0 
L 45.40625 8.203125 
Q 42.578125 3.328125 38.25 0.953125 
Q 33.9375 -1.421875 27.875 -1.421875 
Q 17.96875 -1.421875 11.734375 6.484375 
Q 5.515625 14.40625 5.515625 27.296875 
Q 5.515625 40.1875 11.734375 48.09375 
Q 17.96875 56 27.875 56 
Q 33.9375 56 38.25 53.625 
Q 42.578125 51.265625 45.40625 46.390625 
z
M 14.796875 27.296875 
Q 14.796875 17.390625 18.875 11.75 
Q 22.953125 6.109375 30.078125 6.109375 
Q 37.203125 6.109375 41.296875 11.75 
Q 45.40625 17.390625 45.40625 27.296875 
Q 45.40625 37.203125 41.296875 42.84375 
Q 37.203125 48.484375 30.078125 48.484375 
Q 22.953125 48.484375 18.875 42.84375 
Q 14.796875 37.203125 14.796875 27.296875 
z
" id="DejaVuSans-100"/>
      <path d="M 18.3125 70.21875 
L 18.3125 54.6875 
L 36.8125 54.6875 
L 36.8125 47.703125 
L 18.3125 47.703125 
L 18.3125 18.015625 
Q 18.3125 11.328125 20.140625 9.421875 
Q 21.96875 7.515625 27.59375 7.515625 
L 36.8125 7.515625 
L 36.8125 0 
L 27.59375 0 
Q 17.1875 0 13.234375 3.875 
Q 9.28125 7.765625 9.28125 18.015625 
L 9.28125 47.703125 
L 2.6875 47.703125 
L 2.6875 54.6875 
L 9.28125 54.6875 
L 9.28125 70.21875 
z
" id="DejaVuSans-116"/>
     </defs>
     <g transform="translate(87.14375 42.275781)scale(0.1 -0.1)">
      <use xlink:href="#DejaVuSans-86"/>
      <use x="68.298828" xlink:href="#DejaVuSans-97"/>
      <use x="129.578125" xlink:href="#DejaVuSans-108"/>
      <use x="157.361328" xlink:href="#DejaVuSans-105"/>
      <use x="185.144531" xlink:href="#DejaVuSans-100"/>
      <use x="248.621094" xlink:href="#DejaVuSans-97"/>
      <use x="309.900391" xlink:href="#DejaVuSans-116"/>
      <use x="349.109375" xlink:href="#DejaVuSans-105"/>
      <use x="376.892578" xlink:href="#DejaVuSans-111"/>
      <use x="438.074219" xlink:href="#DejaVuSans-110"/>
     </g>
    </g>
    <g id="line2d_39">
     <path d="M 59.14375 53.453906 
L 79.14375 53.453906 
" style="fill:none;stroke:#fdae61;stroke-linecap:square;stroke-width:1.5;"/>
    </g>
    <g id="line2d_40"/>
    <g id="text_20">
     <!-- No dropout train -->
     <defs>
      <path d="M 9.8125 72.90625 
L 23.09375 72.90625 
L 55.421875 11.921875 
L 55.421875 72.90625 
L 64.984375 72.90625 
L 64.984375 0 
L 51.703125 0 
L 19.390625 60.984375 
L 19.390625 0 
L 9.8125 0 
z
" id="DejaVuSans-78"/>
      <path id="DejaVuSans-32"/>
     </defs>
     <g transform="translate(87.14375 56.953906)scale(0.1 -0.1)">
      <use xlink:href="#DejaVuSans-78"/>
      <use x="74.804688" xlink:href="#DejaVuSans-111"/>
      <use x="135.986328" xlink:href="#DejaVuSans-32"/>
      <use x="167.773438" xlink:href="#DejaVuSans-100"/>
      <use x="231.25" xlink:href="#DejaVuSans-114"/>
      <use x="272.332031" xlink:href="#DejaVuSans-111"/>
      <use x="333.513672" xlink:href="#DejaVuSans-112"/>
      <use x="396.990234" xlink:href="#DejaVuSans-111"/>
      <use x="458.171875" xlink:href="#DejaVuSans-117"/>
      <use x="521.550781" xlink:href="#DejaVuSans-116"/>
      <use x="560.759766" xlink:href="#DejaVuSans-32"/>
      <use x="592.546875" xlink:href="#DejaVuSans-116"/>
      <use x="631.755859" xlink:href="#DejaVuSans-114"/>
      <use x="672.869141" xlink:href="#DejaVuSans-97"/>
      <use x="734.148438" xlink:href="#DejaVuSans-105"/>
      <use x="761.931641" xlink:href="#DejaVuSans-110"/>
     </g>
    </g>
    <g id="line2d_41">
     <path d="M 59.14375 68.132031 
L 79.14375 68.132031 
" style="fill:none;stroke:#d7191c;stroke-linecap:square;stroke-width:1.5;"/>
    </g>
    <g id="line2d_42"/>
    <g id="text_21">
     <!-- No dropout validation -->
     <defs>
      <path d="M 2.984375 54.6875 
L 12.5 54.6875 
L 29.59375 8.796875 
L 46.6875 54.6875 
L 56.203125 54.6875 
L 35.6875 0 
L 23.484375 0 
z
" id="DejaVuSans-118"/>
     </defs>
     <g transform="translate(87.14375 71.632031)scale(0.1 -0.1)">
      <use xlink:href="#DejaVuSans-78"/>
      <use x="74.804688" xlink:href="#DejaVuSans-111"/>
      <use x="135.986328" xlink:href="#DejaVuSans-32"/>
      <use x="167.773438" xlink:href="#DejaVuSans-100"/>
      <use x="231.25" xlink:href="#DejaVuSans-114"/>
      <use x="272.332031" xlink:href="#DejaVuSans-111"/>
      <use x="333.513672" xlink:href="#DejaVuSans-112"/>
      <use x="396.990234" xlink:href="#DejaVuSans-111"/>
      <use x="458.171875" xlink:href="#DejaVuSans-117"/>
      <use x="521.550781" xlink:href="#DejaVuSans-116"/>
      <use x="560.759766" xlink:href="#DejaVuSans-32"/>
      <use x="592.546875" xlink:href="#DejaVuSans-118"/>
      <use x="651.726562" xlink:href="#DejaVuSans-97"/>
      <use x="713.005859" xlink:href="#DejaVuSans-108"/>
      <use x="740.789062" xlink:href="#DejaVuSans-105"/>
      <use x="768.572266" xlink:href="#DejaVuSans-100"/>
      <use x="832.048828" xlink:href="#DejaVuSans-97"/>
      <use x="893.328125" xlink:href="#DejaVuSans-116"/>
      <use x="932.537109" xlink:href="#DejaVuSans-105"/>
      <use x="960.320312" xlink:href="#DejaVuSans-111"/>
      <use x="1021.501953" xlink:href="#DejaVuSans-110"/>
     </g>
    </g>
   </g>
  </g>
 </g>
 <defs>
  <clipPath id="p2c7a13eebe">
   <rect height="326.16" width="669.6" x="50.14375" y="10.999219"/>
  </clipPath>
 </defs>
</svg>
