<?xml version="1.0" encoding="utf-8" standalone="no"?>
<!DOCTYPE svg PUBLIC "-//W3C//DTD SVG 1.1//EN"
  "http://www.w3.org/Graphics/SVG/1.1/DTD/svg11.dtd">
<!-- Created with matplotlib (https://matplotlib.org/) -->
<svg height="374.715469pt" version="1.1" viewBox="0 0 726.94375 374.715469" width="726.94375pt" xmlns="http://www.w3.org/2000/svg" xmlns:xlink="http://www.w3.org/1999/xlink">
 <defs>
  <style type="text/css">
*{stroke-linecap:butt;stroke-linejoin:round;white-space:pre;}
  </style>
 </defs>
 <g id="figure_1">
  <g id="patch_1">
   <path d="M 0 374.715469 
L 726.94375 374.715469 
L 726.94375 0 
L 0 0 
z
" style="fill:#ffffff;"/>
  </g>
  <g id="axes_1">
   <g id="patch_2">
    <path d="M 50.14375 337.159219 
L 719.74375 337.159219 
L 719.74375 10.999219 
L 50.14375 10.999219 
z
" style="fill:#ffffff;"/>
   </g>
   <g id="matplotlib.axis_1">
    <g id="xtick_1">
     <g id="line2d_1">
      <path clip-path="url(#p0e36e3efd3)" d="M 50.14375 337.159219 
L 50.14375 10.999219 
" style="fill:none;stroke:#b0b0b0;stroke-linecap:square;stroke-width:0.8;"/>
     </g>
     <g id="line2d_2">
      <defs>
       <path d="M 0 0 
L 0 3.5 
" id="mb94fde0297" style="stroke:#000000;stroke-width:0.8;"/>
      </defs>
      <g>
       <use style="stroke:#000000;stroke-width:0.8;" x="50.14375" xlink:href="#mb94fde0297" y="337.159219"/>
      </g>
     </g>
     <g id="text_1">
      <!-- 0 -->
      <defs>
       <path d="M 31.78125 66.40625 
Q 24.171875 66.40625 20.328125 58.90625 
Q 16.5 51.421875 16.5 36.375 
Q 16.5 21.390625 20.328125 13.890625 
Q 24.171875 6.390625 31.78125 6.390625 
Q 39.453125 6.390625 43.28125 13.890625 
Q 47.125 21.390625 47.125 36.375 
Q 47.125 51.421875 43.28125 58.90625 
Q 39.453125 66.40625 31.78125 66.40625 
z
M 31.78125 74.21875 
Q 44.046875 74.21875 50.515625 64.515625 
Q 56.984375 54.828125 56.984375 36.375 
Q 56.984375 17.96875 50.515625 8.265625 
Q 44.046875 -1.421875 31.78125 -1.421875 
Q 19.53125 -1.421875 13.0625 8.265625 
Q 6.59375 17.96875 6.59375 36.375 
Q 6.59375 54.828125 13.0625 64.515625 
Q 19.53125 74.21875 31.78125 74.21875 
z
" id="DejaVuSans-48"/>
      </defs>
      <g transform="translate(46.9625 351.757656)scale(0.1 -0.1)">
       <use xlink:href="#DejaVuSans-48"/>
      </g>
     </g>
    </g>
    <g id="xtick_2">
     <g id="line2d_3">
      <path clip-path="url(#p0e36e3efd3)" d="M 129.867527 337.159219 
L 129.867527 10.999219 
" style="fill:none;stroke:#b0b0b0;stroke-linecap:square;stroke-width:0.8;"/>
     </g>
     <g id="line2d_4">
      <g>
       <use style="stroke:#000000;stroke-width:0.8;" x="129.867527" xlink:href="#mb94fde0297" y="337.159219"/>
      </g>
     </g>
     <g id="text_2">
      <!-- 50 -->
      <defs>
       <path d="M 10.796875 72.90625 
L 49.515625 72.90625 
L 49.515625 64.59375 
L 19.828125 64.59375 
L 19.828125 46.734375 
Q 21.96875 47.46875 24.109375 47.828125 
Q 26.265625 48.1875 28.421875 48.1875 
Q 40.625 48.1875 47.75 41.5 
Q 54.890625 34.8125 54.890625 23.390625 
Q 54.890625 11.625 47.5625 5.09375 
Q 40.234375 -1.421875 26.90625 -1.421875 
Q 22.3125 -1.421875 17.546875 -0.640625 
Q 12.796875 0.140625 7.71875 1.703125 
L 7.71875 11.625 
Q 12.109375 9.234375 16.796875 8.0625 
Q 21.484375 6.890625 26.703125 6.890625 
Q 35.15625 6.890625 40.078125 11.328125 
Q 45.015625 15.765625 45.015625 23.390625 
Q 45.015625 31 40.078125 35.4375 
Q 35.15625 39.890625 26.703125 39.890625 
Q 22.75 39.890625 18.8125 39.015625 
Q 14.890625 38.140625 10.796875 36.28125 
z
" id="DejaVuSans-53"/>
      </defs>
      <g transform="translate(123.505027 351.757656)scale(0.1 -0.1)">
       <use xlink:href="#DejaVuSans-53"/>
       <use x="63.623047" xlink:href="#DejaVuSans-48"/>
      </g>
     </g>
    </g>
    <g id="xtick_3">
     <g id="line2d_5">
      <path clip-path="url(#p0e36e3efd3)" d="M 209.591303 337.159219 
L 209.591303 10.999219 
" style="fill:none;stroke:#b0b0b0;stroke-linecap:square;stroke-width:0.8;"/>
     </g>
     <g id="line2d_6">
      <g>
       <use style="stroke:#000000;stroke-width:0.8;" x="209.591303" xlink:href="#mb94fde0297" y="337.159219"/>
      </g>
     </g>
     <g id="text_3">
      <!-- 100 -->
      <defs>
       <path d="M 12.40625 8.296875 
L 28.515625 8.296875 
L 28.515625 63.921875 
L 10.984375 60.40625 
L 10.984375 69.390625 
L 28.421875 72.90625 
L 38.28125 72.90625 
L 38.28125 8.296875 
L 54.390625 8.296875 
L 54.390625 0 
L 12.40625 0 
z
" id="DejaVuSans-49"/>
      </defs>
      <g transform="translate(200.047553 351.757656)scale(0.1 -0.1)">
       <use xlink:href="#DejaVuSans-49"/>
       <use x="63.623047" xlink:href="#DejaVuSans-48"/>
       <use x="127.246094" xlink:href="#DejaVuSans-48"/>
      </g>
     </g>
    </g>
    <g id="xtick_4">
     <g id="line2d_7">
      <path clip-path="url(#p0e36e3efd3)" d="M 289.31508 337.159219 
L 289.31508 10.999219 
" style="fill:none;stroke:#b0b0b0;stroke-linecap:square;stroke-width:0.8;"/>
     </g>
     <g id="line2d_8">
      <g>
       <use style="stroke:#000000;stroke-width:0.8;" x="289.31508" xlink:href="#mb94fde0297" y="337.159219"/>
      </g>
     </g>
     <g id="text_4">
      <!-- 150 -->
      <g transform="translate(279.77133 351.757656)scale(0.1 -0.1)">
       <use xlink:href="#DejaVuSans-49"/>
       <use x="63.623047" xlink:href="#DejaVuSans-53"/>
       <use x="127.246094" xlink:href="#DejaVuSans-48"/>
      </g>
     </g>
    </g>
    <g id="xtick_5">
     <g id="line2d_9">
      <path clip-path="url(#p0e36e3efd3)" d="M 369.038857 337.159219 
L 369.038857 10.999219 
" style="fill:none;stroke:#b0b0b0;stroke-linecap:square;stroke-width:0.8;"/>
     </g>
     <g id="line2d_10">
      <g>
       <use style="stroke:#000000;stroke-width:0.8;" x="369.038857" xlink:href="#mb94fde0297" y="337.159219"/>
      </g>
     </g>
     <g id="text_5">
      <!-- 200 -->
      <defs>
       <path d="M 19.1875 8.296875 
L 53.609375 8.296875 
L 53.609375 0 
L 7.328125 0 
L 7.328125 8.296875 
Q 12.9375 14.109375 22.625 23.890625 
Q 32.328125 33.6875 34.8125 36.53125 
Q 39.546875 41.84375 41.421875 45.53125 
Q 43.3125 49.21875 43.3125 52.78125 
Q 43.3125 58.59375 39.234375 62.25 
Q 35.15625 65.921875 28.609375 65.921875 
Q 23.96875 65.921875 18.8125 64.3125 
Q 13.671875 62.703125 7.8125 59.421875 
L 7.8125 69.390625 
Q 13.765625 71.78125 18.9375 73 
Q 24.125 74.21875 28.421875 74.21875 
Q 39.75 74.21875 46.484375 68.546875 
Q 53.21875 62.890625 53.21875 53.421875 
Q 53.21875 48.921875 51.53125 44.890625 
Q 49.859375 40.875 45.40625 35.40625 
Q 44.1875 33.984375 37.640625 27.21875 
Q 31.109375 20.453125 19.1875 8.296875 
z
" id="DejaVuSans-50"/>
      </defs>
      <g transform="translate(359.495107 351.757656)scale(0.1 -0.1)">
       <use xlink:href="#DejaVuSans-50"/>
       <use x="63.623047" xlink:href="#DejaVuSans-48"/>
       <use x="127.246094" xlink:href="#DejaVuSans-48"/>
      </g>
     </g>
    </g>
    <g id="xtick_6">
     <g id="line2d_11">
      <path clip-path="url(#p0e36e3efd3)" d="M 448.762633 337.159219 
L 448.762633 10.999219 
" style="fill:none;stroke:#b0b0b0;stroke-linecap:square;stroke-width:0.8;"/>
     </g>
     <g id="line2d_12">
      <g>
       <use style="stroke:#000000;stroke-width:0.8;" x="448.762633" xlink:href="#mb94fde0297" y="337.159219"/>
      </g>
     </g>
     <g id="text_6">
      <!-- 250 -->
      <g transform="translate(439.218883 351.757656)scale(0.1 -0.1)">
       <use xlink:href="#DejaVuSans-50"/>
       <use x="63.623047" xlink:href="#DejaVuSans-53"/>
       <use x="127.246094" xlink:href="#DejaVuSans-48"/>
      </g>
     </g>
    </g>
    <g id="xtick_7">
     <g id="line2d_13">
      <path clip-path="url(#p0e36e3efd3)" d="M 528.48641 337.159219 
L 528.48641 10.999219 
" style="fill:none;stroke:#b0b0b0;stroke-linecap:square;stroke-width:0.8;"/>
     </g>
     <g id="line2d_14">
      <g>
       <use style="stroke:#000000;stroke-width:0.8;" x="528.48641" xlink:href="#mb94fde0297" y="337.159219"/>
      </g>
     </g>
     <g id="text_7">
      <!-- 300 -->
      <defs>
       <path d="M 40.578125 39.3125 
Q 47.65625 37.796875 51.625 33 
Q 55.609375 28.21875 55.609375 21.1875 
Q 55.609375 10.40625 48.1875 4.484375 
Q 40.765625 -1.421875 27.09375 -1.421875 
Q 22.515625 -1.421875 17.65625 -0.515625 
Q 12.796875 0.390625 7.625 2.203125 
L 7.625 11.71875 
Q 11.71875 9.328125 16.59375 8.109375 
Q 21.484375 6.890625 26.8125 6.890625 
Q 36.078125 6.890625 40.9375 10.546875 
Q 45.796875 14.203125 45.796875 21.1875 
Q 45.796875 27.640625 41.28125 31.265625 
Q 36.765625 34.90625 28.71875 34.90625 
L 20.21875 34.90625 
L 20.21875 43.015625 
L 29.109375 43.015625 
Q 36.375 43.015625 40.234375 45.921875 
Q 44.09375 48.828125 44.09375 54.296875 
Q 44.09375 59.90625 40.109375 62.90625 
Q 36.140625 65.921875 28.71875 65.921875 
Q 24.65625 65.921875 20.015625 65.03125 
Q 15.375 64.15625 9.8125 62.3125 
L 9.8125 71.09375 
Q 15.4375 72.65625 20.34375 73.4375 
Q 25.25 74.21875 29.59375 74.21875 
Q 40.828125 74.21875 47.359375 69.109375 
Q 53.90625 64.015625 53.90625 55.328125 
Q 53.90625 49.265625 50.4375 45.09375 
Q 46.96875 40.921875 40.578125 39.3125 
z
" id="DejaVuSans-51"/>
      </defs>
      <g transform="translate(518.94266 351.757656)scale(0.1 -0.1)">
       <use xlink:href="#DejaVuSans-51"/>
       <use x="63.623047" xlink:href="#DejaVuSans-48"/>
       <use x="127.246094" xlink:href="#DejaVuSans-48"/>
      </g>
     </g>
    </g>
    <g id="xtick_8">
     <g id="line2d_15">
      <path clip-path="url(#p0e36e3efd3)" d="M 608.210186 337.159219 
L 608.210186 10.999219 
" style="fill:none;stroke:#b0b0b0;stroke-linecap:square;stroke-width:0.8;"/>
     </g>
     <g id="line2d_16">
      <g>
       <use style="stroke:#000000;stroke-width:0.8;" x="608.210186" xlink:href="#mb94fde0297" y="337.159219"/>
      </g>
     </g>
     <g id="text_8">
      <!-- 350 -->
      <g transform="translate(598.666436 351.757656)scale(0.1 -0.1)">
       <use xlink:href="#DejaVuSans-51"/>
       <use x="63.623047" xlink:href="#DejaVuSans-53"/>
       <use x="127.246094" xlink:href="#DejaVuSans-48"/>
      </g>
     </g>
    </g>
    <g id="xtick_9">
     <g id="line2d_17">
      <path clip-path="url(#p0e36e3efd3)" d="M 687.933963 337.159219 
L 687.933963 10.999219 
" style="fill:none;stroke:#b0b0b0;stroke-linecap:square;stroke-width:0.8;"/>
     </g>
     <g id="line2d_18">
      <g>
       <use style="stroke:#000000;stroke-width:0.8;" x="687.933963" xlink:href="#mb94fde0297" y="337.159219"/>
      </g>
     </g>
     <g id="text_9">
      <!-- 400 -->
      <defs>
       <path d="M 37.796875 64.3125 
L 12.890625 25.390625 
L 37.796875 25.390625 
z
M 35.203125 72.90625 
L 47.609375 72.90625 
L 47.609375 25.390625 
L 58.015625 25.390625 
L 58.015625 17.1875 
L 47.609375 17.1875 
L 47.609375 0 
L 37.796875 0 
L 37.796875 17.1875 
L 4.890625 17.1875 
L 4.890625 26.703125 
z
" id="DejaVuSans-52"/>
      </defs>
      <g transform="translate(678.390213 351.757656)scale(0.1 -0.1)">
       <use xlink:href="#DejaVuSans-52"/>
       <use x="63.623047" xlink:href="#DejaVuSans-48"/>
       <use x="127.246094" xlink:href="#DejaVuSans-48"/>
      </g>
     </g>
    </g>
    <g id="text_10">
     <!-- Epoch -->
     <defs>
      <path d="M 9.8125 72.90625 
L 55.90625 72.90625 
L 55.90625 64.59375 
L 19.671875 64.59375 
L 19.671875 43.015625 
L 54.390625 43.015625 
L 54.390625 34.71875 
L 19.671875 34.71875 
L 19.671875 8.296875 
L 56.78125 8.296875 
L 56.78125 0 
L 9.8125 0 
z
" id="DejaVuSans-69"/>
      <path d="M 18.109375 8.203125 
L 18.109375 -20.796875 
L 9.078125 -20.796875 
L 9.078125 54.6875 
L 18.109375 54.6875 
L 18.109375 46.390625 
Q 20.953125 51.265625 25.265625 53.625 
Q 29.59375 56 35.59375 56 
Q 45.5625 56 51.78125 48.09375 
Q 58.015625 40.1875 58.015625 27.296875 
Q 58.015625 14.40625 51.78125 6.484375 
Q 45.5625 -1.421875 35.59375 -1.421875 
Q 29.59375 -1.421875 25.265625 0.953125 
Q 20.953125 3.328125 18.109375 8.203125 
z
M 48.6875 27.296875 
Q 48.6875 37.203125 44.609375 42.84375 
Q 40.53125 48.484375 33.40625 48.484375 
Q 26.265625 48.484375 22.1875 42.84375 
Q 18.109375 37.203125 18.109375 27.296875 
Q 18.109375 17.390625 22.1875 11.75 
Q 26.265625 6.109375 33.40625 6.109375 
Q 40.53125 6.109375 44.609375 11.75 
Q 48.6875 17.390625 48.6875 27.296875 
z
" id="DejaVuSans-112"/>
      <path d="M 30.609375 48.390625 
Q 23.390625 48.390625 19.1875 42.75 
Q 14.984375 37.109375 14.984375 27.296875 
Q 14.984375 17.484375 19.15625 11.84375 
Q 23.34375 6.203125 30.609375 6.203125 
Q 37.796875 6.203125 41.984375 11.859375 
Q 46.1875 17.53125 46.1875 27.296875 
Q 46.1875 37.015625 41.984375 42.703125 
Q 37.796875 48.390625 30.609375 48.390625 
z
M 30.609375 56 
Q 42.328125 56 49.015625 48.375 
Q 55.71875 40.765625 55.71875 27.296875 
Q 55.71875 13.875 49.015625 6.21875 
Q 42.328125 -1.421875 30.609375 -1.421875 
Q 18.84375 -1.421875 12.171875 6.21875 
Q 5.515625 13.875 5.515625 27.296875 
Q 5.515625 40.765625 12.171875 48.375 
Q 18.84375 56 30.609375 56 
z
" id="DejaVuSans-111"/>
      <path d="M 48.78125 52.59375 
L 48.78125 44.1875 
Q 44.96875 46.296875 41.140625 47.34375 
Q 37.3125 48.390625 33.40625 48.390625 
Q 24.65625 48.390625 19.8125 42.84375 
Q 14.984375 37.3125 14.984375 27.296875 
Q 14.984375 17.28125 19.8125 11.734375 
Q 24.65625 6.203125 33.40625 6.203125 
Q 37.3125 6.203125 41.140625 7.25 
Q 44.96875 8.296875 48.78125 10.40625 
L 48.78125 2.09375 
Q 45.015625 0.34375 40.984375 -0.53125 
Q 36.96875 -1.421875 32.421875 -1.421875 
Q 20.0625 -1.421875 12.78125 6.34375 
Q 5.515625 14.109375 5.515625 27.296875 
Q 5.515625 40.671875 12.859375 48.328125 
Q 20.21875 56 33.015625 56 
Q 37.15625 56 41.109375 55.140625 
Q 45.0625 54.296875 48.78125 52.59375 
z
" id="DejaVuSans-99"/>
      <path d="M 54.890625 33.015625 
L 54.890625 0 
L 45.90625 0 
L 45.90625 32.71875 
Q 45.90625 40.484375 42.875 44.328125 
Q 39.84375 48.1875 33.796875 48.1875 
Q 26.515625 48.1875 22.3125 43.546875 
Q 18.109375 38.921875 18.109375 30.90625 
L 18.109375 0 
L 9.078125 0 
L 9.078125 75.984375 
L 18.109375 75.984375 
L 18.109375 46.1875 
Q 21.34375 51.125 25.703125 53.5625 
Q 30.078125 56 35.796875 56 
Q 45.21875 56 50.046875 50.171875 
Q 54.890625 44.34375 54.890625 33.015625 
z
" id="DejaVuSans-104"/>
     </defs>
     <g transform="translate(369.632813 365.435781)scale(0.1 -0.1)">
      <use xlink:href="#DejaVuSans-69"/>
      <use x="63.183594" xlink:href="#DejaVuSans-112"/>
      <use x="126.660156" xlink:href="#DejaVuSans-111"/>
      <use x="187.841797" xlink:href="#DejaVuSans-99"/>
      <use x="242.822266" xlink:href="#DejaVuSans-104"/>
     </g>
    </g>
   </g>
   <g id="matplotlib.axis_2">
    <g id="ytick_1">
     <g id="line2d_19">
      <path clip-path="url(#p0e36e3efd3)" d="M 50.14375 337.159219 
L 719.74375 337.159219 
" style="fill:none;stroke:#b0b0b0;stroke-linecap:square;stroke-width:0.8;"/>
     </g>
     <g id="line2d_20">
      <defs>
       <path d="M 0 0 
L -3.5 0 
" id="m6d33ffbecc" style="stroke:#000000;stroke-width:0.8;"/>
      </defs>
      <g>
       <use style="stroke:#000000;stroke-width:0.8;" x="50.14375" xlink:href="#m6d33ffbecc" y="337.159219"/>
      </g>
     </g>
     <g id="text_11">
      <!-- 0.82 -->
      <defs>
       <path d="M 10.6875 12.40625 
L 21 12.40625 
L 21 0 
L 10.6875 0 
z
" id="DejaVuSans-46"/>
       <path d="M 31.78125 34.625 
Q 24.75 34.625 20.71875 30.859375 
Q 16.703125 27.09375 16.703125 20.515625 
Q 16.703125 13.921875 20.71875 10.15625 
Q 24.75 6.390625 31.78125 6.390625 
Q 38.8125 6.390625 42.859375 10.171875 
Q 46.921875 13.96875 46.921875 20.515625 
Q 46.921875 27.09375 42.890625 30.859375 
Q 38.875 34.625 31.78125 34.625 
z
M 21.921875 38.8125 
Q 15.578125 40.375 12.03125 44.71875 
Q 8.5 49.078125 8.5 55.328125 
Q 8.5 64.0625 14.71875 69.140625 
Q 20.953125 74.21875 31.78125 74.21875 
Q 42.671875 74.21875 48.875 69.140625 
Q 55.078125 64.0625 55.078125 55.328125 
Q 55.078125 49.078125 51.53125 44.71875 
Q 48 40.375 41.703125 38.8125 
Q 48.828125 37.15625 52.796875 32.3125 
Q 56.78125 27.484375 56.78125 20.515625 
Q 56.78125 9.90625 50.3125 4.234375 
Q 43.84375 -1.421875 31.78125 -1.421875 
Q 19.734375 -1.421875 13.25 4.234375 
Q 6.78125 9.90625 6.78125 20.515625 
Q 6.78125 27.484375 10.78125 32.3125 
Q 14.796875 37.15625 21.921875 38.8125 
z
M 18.3125 54.390625 
Q 18.3125 48.734375 21.84375 45.5625 
Q 25.390625 42.390625 31.78125 42.390625 
Q 38.140625 42.390625 41.71875 45.5625 
Q 45.3125 48.734375 45.3125 54.390625 
Q 45.3125 60.0625 41.71875 63.234375 
Q 38.140625 66.40625 31.78125 66.40625 
Q 25.390625 66.40625 21.84375 63.234375 
Q 18.3125 60.0625 18.3125 54.390625 
z
" id="DejaVuSans-56"/>
      </defs>
      <g transform="translate(20.878125 340.958437)scale(0.1 -0.1)">
       <use xlink:href="#DejaVuSans-48"/>
       <use x="63.623047" xlink:href="#DejaVuSans-46"/>
       <use x="95.410156" xlink:href="#DejaVuSans-56"/>
       <use x="159.033203" xlink:href="#DejaVuSans-50"/>
      </g>
     </g>
    </g>
    <g id="ytick_2">
     <g id="line2d_21">
      <path clip-path="url(#p0e36e3efd3)" d="M 50.14375 296.389219 
L 719.74375 296.389219 
" style="fill:none;stroke:#b0b0b0;stroke-linecap:square;stroke-width:0.8;"/>
     </g>
     <g id="line2d_22">
      <g>
       <use style="stroke:#000000;stroke-width:0.8;" x="50.14375" xlink:href="#m6d33ffbecc" y="296.389219"/>
      </g>
     </g>
     <g id="text_12">
      <!-- 0.84 -->
      <g transform="translate(20.878125 300.188437)scale(0.1 -0.1)">
       <use xlink:href="#DejaVuSans-48"/>
       <use x="63.623047" xlink:href="#DejaVuSans-46"/>
       <use x="95.410156" xlink:href="#DejaVuSans-56"/>
       <use x="159.033203" xlink:href="#DejaVuSans-52"/>
      </g>
     </g>
    </g>
    <g id="ytick_3">
     <g id="line2d_23">
      <path clip-path="url(#p0e36e3efd3)" d="M 50.14375 255.619219 
L 719.74375 255.619219 
" style="fill:none;stroke:#b0b0b0;stroke-linecap:square;stroke-width:0.8;"/>
     </g>
     <g id="line2d_24">
      <g>
       <use style="stroke:#000000;stroke-width:0.8;" x="50.14375" xlink:href="#m6d33ffbecc" y="255.619219"/>
      </g>
     </g>
     <g id="text_13">
      <!-- 0.86 -->
      <defs>
       <path d="M 33.015625 40.375 
Q 26.375 40.375 22.484375 35.828125 
Q 18.609375 31.296875 18.609375 23.390625 
Q 18.609375 15.53125 22.484375 10.953125 
Q 26.375 6.390625 33.015625 6.390625 
Q 39.65625 6.390625 43.53125 10.953125 
Q 47.40625 15.53125 47.40625 23.390625 
Q 47.40625 31.296875 43.53125 35.828125 
Q 39.65625 40.375 33.015625 40.375 
z
M 52.59375 71.296875 
L 52.59375 62.3125 
Q 48.875 64.0625 45.09375 64.984375 
Q 41.3125 65.921875 37.59375 65.921875 
Q 27.828125 65.921875 22.671875 59.328125 
Q 17.53125 52.734375 16.796875 39.40625 
Q 19.671875 43.65625 24.015625 45.921875 
Q 28.375 48.1875 33.59375 48.1875 
Q 44.578125 48.1875 50.953125 41.515625 
Q 57.328125 34.859375 57.328125 23.390625 
Q 57.328125 12.15625 50.6875 5.359375 
Q 44.046875 -1.421875 33.015625 -1.421875 
Q 20.359375 -1.421875 13.671875 8.265625 
Q 6.984375 17.96875 6.984375 36.375 
Q 6.984375 53.65625 15.1875 63.9375 
Q 23.390625 74.21875 37.203125 74.21875 
Q 40.921875 74.21875 44.703125 73.484375 
Q 48.484375 72.75 52.59375 71.296875 
z
" id="DejaVuSans-54"/>
      </defs>
      <g transform="translate(20.878125 259.418437)scale(0.1 -0.1)">
       <use xlink:href="#DejaVuSans-48"/>
       <use x="63.623047" xlink:href="#DejaVuSans-46"/>
       <use x="95.410156" xlink:href="#DejaVuSans-56"/>
       <use x="159.033203" xlink:href="#DejaVuSans-54"/>
      </g>
     </g>
    </g>
    <g id="ytick_4">
     <g id="line2d_25">
      <path clip-path="url(#p0e36e3efd3)" d="M 50.14375 214.849219 
L 719.74375 214.849219 
" style="fill:none;stroke:#b0b0b0;stroke-linecap:square;stroke-width:0.8;"/>
     </g>
     <g id="line2d_26">
      <g>
       <use style="stroke:#000000;stroke-width:0.8;" x="50.14375" xlink:href="#m6d33ffbecc" y="214.849219"/>
      </g>
     </g>
     <g id="text_14">
      <!-- 0.88 -->
      <g transform="translate(20.878125 218.648437)scale(0.1 -0.1)">
       <use xlink:href="#DejaVuSans-48"/>
       <use x="63.623047" xlink:href="#DejaVuSans-46"/>
       <use x="95.410156" xlink:href="#DejaVuSans-56"/>
       <use x="159.033203" xlink:href="#DejaVuSans-56"/>
      </g>
     </g>
    </g>
    <g id="ytick_5">
     <g id="line2d_27">
      <path clip-path="url(#p0e36e3efd3)" d="M 50.14375 174.079219 
L 719.74375 174.079219 
" style="fill:none;stroke:#b0b0b0;stroke-linecap:square;stroke-width:0.8;"/>
     </g>
     <g id="line2d_28">
      <g>
       <use style="stroke:#000000;stroke-width:0.8;" x="50.14375" xlink:href="#m6d33ffbecc" y="174.079219"/>
      </g>
     </g>
     <g id="text_15">
      <!-- 0.90 -->
      <defs>
       <path d="M 10.984375 1.515625 
L 10.984375 10.5 
Q 14.703125 8.734375 18.5 7.8125 
Q 22.3125 6.890625 25.984375 6.890625 
Q 35.75 6.890625 40.890625 13.453125 
Q 46.046875 20.015625 46.78125 33.40625 
Q 43.953125 29.203125 39.59375 26.953125 
Q 35.25 24.703125 29.984375 24.703125 
Q 19.046875 24.703125 12.671875 31.3125 
Q 6.296875 37.9375 6.296875 49.421875 
Q 6.296875 60.640625 12.9375 67.421875 
Q 19.578125 74.21875 30.609375 74.21875 
Q 43.265625 74.21875 49.921875 64.515625 
Q 56.59375 54.828125 56.59375 36.375 
Q 56.59375 19.140625 48.40625 8.859375 
Q 40.234375 -1.421875 26.421875 -1.421875 
Q 22.703125 -1.421875 18.890625 -0.6875 
Q 15.09375 0.046875 10.984375 1.515625 
z
M 30.609375 32.421875 
Q 37.25 32.421875 41.125 36.953125 
Q 45.015625 41.5 45.015625 49.421875 
Q 45.015625 57.28125 41.125 61.84375 
Q 37.25 66.40625 30.609375 66.40625 
Q 23.96875 66.40625 20.09375 61.84375 
Q 16.21875 57.28125 16.21875 49.421875 
Q 16.21875 41.5 20.09375 36.953125 
Q 23.96875 32.421875 30.609375 32.421875 
z
" id="DejaVuSans-57"/>
      </defs>
      <g transform="translate(20.878125 177.878437)scale(0.1 -0.1)">
       <use xlink:href="#DejaVuSans-48"/>
       <use x="63.623047" xlink:href="#DejaVuSans-46"/>
       <use x="95.410156" xlink:href="#DejaVuSans-57"/>
       <use x="159.033203" xlink:href="#DejaVuSans-48"/>
      </g>
     </g>
    </g>
    <g id="ytick_6">
     <g id="line2d_29">
      <path clip-path="url(#p0e36e3efd3)" d="M 50.14375 133.309219 
L 719.74375 133.309219 
" style="fill:none;stroke:#b0b0b0;stroke-linecap:square;stroke-width:0.8;"/>
     </g>
     <g id="line2d_30">
      <g>
       <use style="stroke:#000000;stroke-width:0.8;" x="50.14375" xlink:href="#m6d33ffbecc" y="133.309219"/>
      </g>
     </g>
     <g id="text_16">
      <!-- 0.92 -->
      <g transform="translate(20.878125 137.108437)scale(0.1 -0.1)">
       <use xlink:href="#DejaVuSans-48"/>
       <use x="63.623047" xlink:href="#DejaVuSans-46"/>
       <use x="95.410156" xlink:href="#DejaVuSans-57"/>
       <use x="159.033203" xlink:href="#DejaVuSans-50"/>
      </g>
     </g>
    </g>
    <g id="ytick_7">
     <g id="line2d_31">
      <path clip-path="url(#p0e36e3efd3)" d="M 50.14375 92.539219 
L 719.74375 92.539219 
" style="fill:none;stroke:#b0b0b0;stroke-linecap:square;stroke-width:0.8;"/>
     </g>
     <g id="line2d_32">
      <g>
       <use style="stroke:#000000;stroke-width:0.8;" x="50.14375" xlink:href="#m6d33ffbecc" y="92.539219"/>
      </g>
     </g>
     <g id="text_17">
      <!-- 0.94 -->
      <g transform="translate(20.878125 96.338437)scale(0.1 -0.1)">
       <use xlink:href="#DejaVuSans-48"/>
       <use x="63.623047" xlink:href="#DejaVuSans-46"/>
       <use x="95.410156" xlink:href="#DejaVuSans-57"/>
       <use x="159.033203" xlink:href="#DejaVuSans-52"/>
      </g>
     </g>
    </g>
    <g id="ytick_8">
     <g id="line2d_33">
      <path clip-path="url(#p0e36e3efd3)" d="M 50.14375 51.769219 
L 719.74375 51.769219 
" style="fill:none;stroke:#b0b0b0;stroke-linecap:square;stroke-width:0.8;"/>
     </g>
     <g id="line2d_34">
      <g>
       <use style="stroke:#000000;stroke-width:0.8;" x="50.14375" xlink:href="#m6d33ffbecc" y="51.769219"/>
      </g>
     </g>
     <g id="text_18">
      <!-- 0.96 -->
      <g transform="translate(20.878125 55.568437)scale(0.1 -0.1)">
       <use xlink:href="#DejaVuSans-48"/>
       <use x="63.623047" xlink:href="#DejaVuSans-46"/>
       <use x="95.410156" xlink:href="#DejaVuSans-57"/>
       <use x="159.033203" xlink:href="#DejaVuSans-54"/>
      </g>
     </g>
    </g>
    <g id="ytick_9">
     <g id="line2d_35">
      <path clip-path="url(#p0e36e3efd3)" d="M 50.14375 10.999219 
L 719.74375 10.999219 
" style="fill:none;stroke:#b0b0b0;stroke-linecap:square;stroke-width:0.8;"/>
     </g>
     <g id="line2d_36">
      <g>
       <use style="stroke:#000000;stroke-width:0.8;" x="50.14375" xlink:href="#m6d33ffbecc" y="10.999219"/>
      </g>
     </g>
     <g id="text_19">
      <!-- 0.98 -->
      <g transform="translate(20.878125 14.798437)scale(0.1 -0.1)">
       <use xlink:href="#DejaVuSans-48"/>
       <use x="63.623047" xlink:href="#DejaVuSans-46"/>
       <use x="95.410156" xlink:href="#DejaVuSans-57"/>
       <use x="159.033203" xlink:href="#DejaVuSans-56"/>
      </g>
     </g>
    </g>
    <g id="text_20">
     <!-- Accuracy -->
     <defs>
      <path d="M 34.1875 63.1875 
L 20.796875 26.90625 
L 47.609375 26.90625 
z
M 28.609375 72.90625 
L 39.796875 72.90625 
L 67.578125 0 
L 57.328125 0 
L 50.6875 18.703125 
L 17.828125 18.703125 
L 11.1875 0 
L 0.78125 0 
z
" id="DejaVuSans-65"/>
      <path d="M 8.5 21.578125 
L 8.5 54.6875 
L 17.484375 54.6875 
L 17.484375 21.921875 
Q 17.484375 14.15625 20.5 10.265625 
Q 23.53125 6.390625 29.59375 6.390625 
Q 36.859375 6.390625 41.078125 11.03125 
Q 45.3125 15.671875 45.3125 23.6875 
L 45.3125 54.6875 
L 54.296875 54.6875 
L 54.296875 0 
L 45.3125 0 
L 45.3125 8.40625 
Q 42.046875 3.421875 37.71875 1 
Q 33.40625 -1.421875 27.6875 -1.421875 
Q 18.265625 -1.421875 13.375 4.4375 
Q 8.5 10.296875 8.5 21.578125 
z
M 31.109375 56 
z
" id="DejaVuSans-117"/>
      <path d="M 41.109375 46.296875 
Q 39.59375 47.171875 37.8125 47.578125 
Q 36.03125 48 33.890625 48 
Q 26.265625 48 22.1875 43.046875 
Q 18.109375 38.09375 18.109375 28.8125 
L 18.109375 0 
L 9.078125 0 
L 9.078125 54.6875 
L 18.109375 54.6875 
L 18.109375 46.1875 
Q 20.953125 51.171875 25.484375 53.578125 
Q 30.03125 56 36.53125 56 
Q 37.453125 56 38.578125 55.875 
Q 39.703125 55.765625 41.0625 55.515625 
z
" id="DejaVuSans-114"/>
      <path d="M 34.28125 27.484375 
Q 23.390625 27.484375 19.1875 25 
Q 14.984375 22.515625 14.984375 16.5 
Q 14.984375 11.71875 18.140625 8.90625 
Q 21.296875 6.109375 26.703125 6.109375 
Q 34.1875 6.109375 38.703125 11.40625 
Q 43.21875 16.703125 43.21875 25.484375 
L 43.21875 27.484375 
z
M 52.203125 31.203125 
L 52.203125 0 
L 43.21875 0 
L 43.21875 8.296875 
Q 40.140625 3.328125 35.546875 0.953125 
Q 30.953125 -1.421875 24.3125 -1.421875 
Q 15.921875 -1.421875 10.953125 3.296875 
Q 6 8.015625 6 15.921875 
Q 6 25.140625 12.171875 29.828125 
Q 18.359375 34.515625 30.609375 34.515625 
L 43.21875 34.515625 
L 43.21875 35.40625 
Q 43.21875 41.609375 39.140625 45 
Q 35.0625 48.390625 27.6875 48.390625 
Q 23 48.390625 18.546875 47.265625 
Q 14.109375 46.140625 10.015625 43.890625 
L 10.015625 52.203125 
Q 14.9375 54.109375 19.578125 55.046875 
Q 24.21875 56 28.609375 56 
Q 40.484375 56 46.34375 49.84375 
Q 52.203125 43.703125 52.203125 31.203125 
z
" id="DejaVuSans-97"/>
      <path d="M 32.171875 -5.078125 
Q 28.375 -14.84375 24.75 -17.8125 
Q 21.140625 -20.796875 15.09375 -20.796875 
L 7.90625 -20.796875 
L 7.90625 -13.28125 
L 13.1875 -13.28125 
Q 16.890625 -13.28125 18.9375 -11.515625 
Q 21 -9.765625 23.484375 -3.21875 
L 25.09375 0.875 
L 2.984375 54.6875 
L 12.5 54.6875 
L 29.59375 11.921875 
L 46.6875 54.6875 
L 56.203125 54.6875 
z
" id="DejaVuSans-121"/>
     </defs>
     <g transform="translate(14.798438 196.994062)rotate(-90)scale(0.1 -0.1)">
      <use xlink:href="#DejaVuSans-65"/>
      <use x="68.392578" xlink:href="#DejaVuSans-99"/>
      <use x="123.373047" xlink:href="#DejaVuSans-99"/>
      <use x="178.353516" xlink:href="#DejaVuSans-117"/>
      <use x="241.732422" xlink:href="#DejaVuSans-114"/>
      <use x="282.845703" xlink:href="#DejaVuSans-97"/>
      <use x="344.125" xlink:href="#DejaVuSans-99"/>
      <use x="399.105469" xlink:href="#DejaVuSans-121"/>
     </g>
    </g>
   </g>
   <g id="line2d_37">
    <path clip-path="url(#p0e36e3efd3)" d="M 113.261563 375.715469 
L 117.33198 363.229681 
L 121.789808 350.346875 
L 126.247636 338.23996 
L 130.705464 326.858508 
L 135.163292 316.154003 
L 139.62112 306.090783 
L 144.078948 296.638472 
L 148.536776 287.76671 
L 152.994604 279.445138 
L 157.452432 271.643396 
L 161.91026 264.331127 
L 166.368088 257.477969 
L 170.825916 251.053565 
L 175.283744 245.027554 
L 179.741572 239.369577 
L 184.1994 234.049275 
L 189.294061 228.343465 
L 194.388721 222.993729 
L 199.483382 217.95475 
L 205.214875 212.600924 
L 211.583201 206.967763 
L 218.588359 201.073693 
L 225.593517 195.473142 
L 232.598675 190.155204 
L 239.603834 185.108975 
L 246.608992 180.323551 
L 253.61415 175.788026 
L 261.256141 171.112375 
L 268.898132 166.70699 
L 276.540123 162.557714 
L 284.182114 158.650388 
L 292.460937 154.674066 
L 300.73976 150.947085 
L 309.655416 147.191615 
L 318.571072 143.681964 
L 328.123561 140.168867 
L 338.312882 136.672997 
L 349.139036 133.206252 
L 360.602022 129.769777 
L 373.975506 126.002563 
L 387.985823 122.28093 
L 402.632972 118.621249 
L 417.280121 115.187788 
L 432.564102 111.835221 
L 447.848084 108.706316 
L 463.768898 105.672405 
L 480.326545 102.747211 
L 497.521025 99.942236 
L 515.352337 97.266426 
L 533.820481 94.72584 
L 552.925458 92.323294 
L 573.3041 89.988326 
L 594.956408 87.734968 
L 618.519213 85.511428 
L 644.629348 83.275893 
L 675.197312 80.888692 
L 687.933963 79.946574 
L 687.933963 79.946574 
" style="fill:none;stroke:#377eb8;stroke-linecap:square;stroke-width:2;"/>
   </g>
   <g id="line2d_38">
    <path clip-path="url(#p0e36e3efd3)" d="M 102.146188 375.715469 
L 104.595329 364.599025 
L 107.142659 354.329067 
L 109.053157 347.418781 
L 110.963655 341.133417 
L 112.874152 335.424295 
L 114.78465 330.242733 
L 117.33198 324.070494 
L 119.879311 318.634202 
L 122.426641 313.818465 
L 124.973971 309.507891 
L 128.158134 304.654265 
L 131.979129 299.316643 
L 137.07379 292.587871 
L 142.16845 286.225624 
L 147.263111 280.214525 
L 152.357772 274.539197 
L 157.452432 269.184263 
L 162.547093 264.134347 
L 167.641753 259.374072 
L 172.736414 254.88806 
L 178.467907 250.149982 
L 184.1994 245.717663 
L 189.930893 241.56921 
L 195.662386 237.682728 
L 202.030712 233.645036 
L 208.399038 229.873703 
L 215.404196 225.99809 
L 222.409354 222.386173 
L 229.414513 219.026591 
L 236.419671 215.908284 
L 243.424829 213.020194 
L 251.06682 210.119117 
L 258.708811 207.4645 
L 266.350802 205.041984 
L 274.629625 202.662862 
L 282.908449 200.521034 
L 291.824104 198.458888 
L 300.73976 196.627978 
L 310.292249 194.896989 
L 320.48157 193.282742 
L 331.307724 191.792881 
L 343.407543 190.353157 
L 358.054692 188.849759 
L 377.796501 187.071012 
L 403.269804 184.997191 
L 430.016772 183.049359 
L 458.037405 181.233276 
L 488.605369 179.479522 
L 522.357495 177.773424 
L 560.567449 176.069967 
L 609.603557 174.121473 
L 687.933963 171.189393 
L 687.933963 171.189393 
" style="fill:none;stroke:#4daf4a;stroke-linecap:square;stroke-width:2;"/>
   </g>
   <g id="line2d_39">
    <path clip-path="url(#p0e36e3efd3)" d="M 111.623685 375.715469 
L 113.922771 372.629065 
L 115.517247 361.723103 
L 117.111722 359.429836 
L 118.706198 349.950817 
L 120.300673 351.071935 
L 123.489625 342.051595 
L 125.0841 327.782157 
L 126.678576 332.113898 
L 128.273051 331.043691 
L 129.867527 324.520502 
L 131.462002 324.41856 
L 133.056478 321.157026 
L 134.650953 312.085654 
L 136.245429 311.015446 
L 137.839904 304.950935 
L 139.43438 312.085654 
L 141.028855 300.568162 
L 142.623331 297.357538 
L 144.217806 289.71311 
L 145.812282 296.796918 
L 147.406758 292.872823 
L 149.001233 290.018935 
L 152.190184 282.323597 
L 153.78466 279.571651 
L 155.379135 279.520619 
L 156.973611 270.602221 
L 158.568086 271.621397 
L 160.162562 271.366603 
L 161.757037 266.98383 
L 163.351513 263.518412 
L 164.945988 256.740429 
L 166.540464 256.179809 
L 168.134939 259.696259 
L 169.729415 262.19341 
L 171.32389 249.04509 
L 172.918366 253.427864 
L 174.512842 244.815169 
L 176.107317 247.261411 
L 177.701793 240.63628 
L 179.296268 239.413098 
L 180.890744 242.776696 
L 182.485219 239.616982 
L 184.079695 231.768791 
L 185.67417 235.285241 
L 187.268646 231.921644 
L 188.863121 233.756355 
L 192.052072 221.627211 
L 193.646548 229.985112 
L 195.241023 223.156097 
L 196.835499 222.952213 
L 198.429975 217.703116 
L 200.02445 220.811798 
L 201.618926 221.627211 
L 203.213401 214.798197 
L 204.807877 212.963607 
L 206.402352 209.294305 
L 207.996828 209.651041 
L 209.591303 210.262571 
L 211.185779 205.523062 
L 212.780254 205.42112 
L 214.37473 202.975 
L 215.969205 199.764377 
L 217.563681 202.873058 
L 219.158156 198.439254 
L 220.752632 202.669175 
L 222.347108 197.318135 
L 223.941583 190.743915 
L 225.536059 194.107512 
L 227.130534 191.967096 
L 228.72501 195.73834 
L 230.319485 197.57293 
L 231.913961 191.100651 
L 233.508436 193.241066 
L 235.102912 186.106348 
L 236.697387 180.449483 
L 238.291863 183.405312 
L 239.886338 184.220726 
L 241.480814 181.061134 
L 243.075289 184.934198 
L 244.669765 177.748569 
L 246.264241 181.213986 
L 247.858716 177.238859 
L 249.453192 176.984065 
L 251.047667 174.28303 
L 252.642143 175.149475 
L 254.236618 167.606989 
L 255.831094 170.868522 
L 257.425569 176.780181 
L 259.020045 174.486914 
L 260.61452 169.441579 
L 262.208996 169.849346 
L 263.803471 170.460876 
L 265.397947 167.759841 
L 266.992422 169.54352 
L 268.586898 167.148311 
L 270.181374 163.224215 
L 271.775849 162.91839 
L 273.370325 161.69533 
L 274.9648 160.625122 
L 276.559276 162.561654 
L 278.153751 162.612685 
L 279.748227 161.287684 
L 281.342702 162.91839 
L 282.937178 157.210615 
L 284.531653 156.751937 
L 286.126129 159.605824 
L 287.720604 154.866315 
L 290.909555 154.662553 
L 292.504031 153.031725 
L 294.098507 157.312556 
L 295.692982 155.630819 
L 297.287458 152.420195 
L 298.881933 157.414498 
L 300.476409 150.687426 
L 302.070884 151.298956 
L 303.66536 149.362424 
L 305.259835 147.069034 
L 306.854311 144.470062 
L 308.448786 149.10763 
L 310.043262 144.266179 
L 311.637737 150.687426 
L 313.232213 147.170976 
L 314.826688 147.629654 
L 316.421164 141.412291 
L 318.01564 146.712299 
L 319.610115 143.552707 
L 321.204591 143.144939 
L 322.799066 139.730553 
L 324.393542 141.616053 
L 325.988017 138.915139 
L 327.582493 140.444025 
L 329.176968 136.978486 
L 332.365919 140.087289 
L 333.960395 137.029518 
L 337.149346 144.775767 
L 338.743821 137.7939 
L 341.932773 135.704516 
L 343.527248 136.927576 
L 345.121724 137.590016 
L 348.310675 134.124599 
L 349.90515 135.500632 
L 351.499626 131.678479 
L 353.094101 131.015917 
L 354.688577 127.652441 
L 356.283052 130.863065 
L 357.877528 130.302445 
L 359.472003 132.493771 
L 361.066479 130.659181 
L 362.660954 132.188067 
L 364.25543 128.926411 
L 365.849905 132.595713 
L 367.444381 126.785996 
L 369.038857 127.703352 
L 370.633332 128.416823 
L 372.227808 127.652441 
L 373.822283 126.021614 
L 375.416759 122.912811 
L 377.011234 124.03405 
L 378.60571 124.288844 
L 380.200185 121.689751 
L 381.794661 122.556075 
L 383.389136 127.448557 
L 384.983612 128.722649 
L 386.578087 120.925369 
L 388.172563 124.900374 
L 389.767038 121.078221 
L 391.361514 121.944545 
L 392.95599 119.141689 
L 394.550465 120.976279 
L 396.144941 118.733921 
L 397.739416 118.326275 
L 399.333892 120.721485 
L 400.928367 116.797389 
L 402.522843 120.109955 
L 404.117318 119.090657 
L 405.711794 117.052183 
L 407.306269 119.549335 
L 408.900745 115.931065 
L 410.49522 117.103094 
L 412.089696 112.159822 
L 413.684171 112.414616 
L 415.278647 114.045444 
L 416.873123 115.981976 
L 418.467598 115.01371 
L 420.062074 114.656974 
L 421.656549 114.147264 
L 423.251025 107.369281 
L 424.8455 111.344408 
L 426.439976 114.300238 
L 428.034451 110.783789 
L 429.628927 110.121227 
L 431.223402 111.191435 
L 432.817878 113.790528 
L 434.412353 109.152961 
L 436.006829 113.586766 
L 437.601304 110.019406 
L 439.19578 117.103094 
L 440.790256 109.968375 
L 442.384731 111.089614 
L 443.979207 110.528994 
L 445.573682 107.777049 
L 447.168158 111.191435 
L 448.762633 109.66267 
L 450.357109 110.070317 
L 451.951584 107.369281 
L 453.54606 104.413452 
L 455.140535 108.490521 
L 456.735011 106.502957 
L 458.329486 106.910603 
L 459.923962 105.840395 
L 461.518437 101.86539 
L 463.112913 109.203993 
L 464.707389 106.961635 
L 466.301864 106.197131 
L 467.89634 105.076013 
L 469.490815 99.266296 
L 471.085291 104.719277 
L 472.679766 105.126924 
L 474.274242 101.9163 
L 475.868717 101.86539 
L 477.463193 102.52783 
L 479.057668 103.64907 
L 480.652144 102.884566 
L 482.246619 105.993369 
L 483.841095 102.425888 
L 485.43557 100.030678 
L 487.030046 99.724974 
L 488.624522 102.629772 
L 490.218997 106.553867 
L 491.813473 101.457622 
L 493.407948 99.572001 
L 495.002424 96.769145 
L 496.596899 96.106583 
L 498.191375 95.291169 
L 499.78585 102.018242 
L 501.380326 97.584559 
L 502.974801 101.35568 
L 504.569277 100.285472 
L 506.163752 96.871087 
L 507.758228 96.820055 
L 509.352703 99.113323 
L 510.947179 95.902699 
L 512.541655 94.934433 
L 514.13613 104.87213 
L 515.730606 96.463319 
L 517.325081 97.992205 
L 518.919557 93.762284 
L 520.514032 93.201785 
L 522.108508 94.934433 
L 523.702983 96.055673 
L 525.297459 94.322903 
L 526.891934 93.048812 
L 528.48641 99.826916 
L 530.080885 93.762284 
L 531.675361 94.11902 
L 533.269836 97.023939 
L 534.864312 94.985465 
L 536.458788 91.621868 
L 538.053263 94.730549 
L 539.647739 94.832491 
L 541.242214 94.373814 
L 542.83669 90.50075 
L 544.431165 90.449718 
L 546.025641 91.978604 
L 547.620116 93.762284 
L 549.214592 94.424845 
L 550.809067 95.749847 
L 553.998018 93.252695 
L 555.592494 90.55166 
L 557.186969 91.417984 
L 558.781445 94.068109 
L 560.37592 90.959428 
L 561.970396 91.417984 
L 563.564872 95.138317 
L 565.159347 90.398808 
L 566.753823 92.692076 
L 568.348298 87.391947 
L 569.942774 87.697773 
L 571.537249 89.022774 
L 573.131725 91.621868 
L 574.7262 93.354637 
L 576.320676 88.309302 
L 577.915151 90.704512 
L 579.509627 90.449718 
L 581.104102 92.845049 
L 582.698578 86.423681 
L 584.293053 88.615128 
L 585.887529 90.042072 
L 587.482005 89.583394 
L 589.07648 90.602692 
L 590.670956 88.207361 
L 592.265431 87.595831 
L 593.859907 89.634304 
L 595.454382 84.691033 
L 597.048858 93.252695 
L 598.643333 84.691033 
L 600.237809 89.277568 
L 601.832284 88.15645 
L 603.42676 89.634304 
L 605.021235 90.55166 
L 606.615711 86.678475 
L 608.210186 85.863183 
L 609.804662 88.819012 
L 611.399138 85.557357 
L 612.993613 87.595831 
L 614.588089 88.207361 
L 616.182564 83.518883 
L 617.77704 88.564097 
L 619.371515 84.232355 
L 620.965991 83.620825 
L 622.560466 85.455415 
L 624.154942 81.429378 
L 625.749417 78.830284 
L 627.343893 85.659299 
L 628.938368 81.480409 
L 632.127319 80.206318 
L 633.721795 83.264089 
L 635.316271 87.086243 
L 636.910746 84.130413 
L 638.505222 85.047769 
L 640.099697 85.761241 
L 641.694173 83.365909 
L 643.288648 81.327436 
L 644.883124 83.213057 
L 646.477599 85.914093 
L 648.072075 82.499585 
L 649.66655 84.283265 
L 651.261026 79.238052 
L 652.855501 84.640001 
L 654.449977 81.735203 
L 657.638928 80.91979 
L 659.233404 81.225494 
L 660.827879 77.862018 
L 662.422355 81.225494 
L 665.611306 85.353473 
L 667.205781 80.461112 
L 668.800257 82.805411 
L 670.394732 82.091939 
L 671.989208 81.53132 
L 673.583683 78.371606 
L 675.178159 79.441814 
L 676.772634 80.715906 
L 678.36711 78.881316 
L 679.961585 79.74764 
L 681.556061 79.951524 
L 683.150537 82.193881 
L 684.745012 81.378467 
L 686.339488 83.111115 
L 687.933963 79.951524 
L 687.933963 79.951524 
" style="fill:none;stroke:#377eb8;stroke-linecap:square;stroke-opacity:0.25098;stroke-width:1.5;"/>
   </g>
   <g id="line2d_40">
    <path clip-path="url(#p0e36e3efd3)" d="M 102.430669 375.715469 
L 102.761443 373.374614 
L 102.855704 375.715469 
M 105.428292 375.715469 
L 105.950394 357.57702 
L 106.470569 375.715469 
M 108.376684 375.715469 
L 109.139345 341.369106 
L 110.73382 340.138149 
L 112.328296 325.571633 
L 113.922771 326.802591 
L 115.517247 313.672132 
L 117.111722 306.696584 
L 118.706198 320.647681 
L 120.300673 324.750995 
L 121.895149 305.260527 
L 123.489625 321.468319 
L 125.0841 298.490078 
L 126.678576 347.934336 
L 128.273051 300.336575 
L 129.867527 321.878639 
L 131.462002 291.30943 
L 133.056478 304.234668 
L 134.650953 276.742793 
L 136.245429 287.821656 
L 137.839904 303.41403 
L 139.43438 313.877353 
L 141.028855 282.487384 
L 142.623331 334.393679 
L 144.217806 270.177564 
L 145.812282 304.029448 
L 147.406758 279.409929 
L 149.001233 275.101516 
L 150.595709 269.151827 
L 152.190184 305.875945 
L 153.78466 273.870559 
L 155.379135 270.793104 
L 156.973611 263.612335 
L 158.568086 303.003711 
L 160.162562 246.173463 
L 161.757037 258.893603 
L 163.351513 266.074372 
L 164.945988 274.280878 
L 166.540464 247.199322 
L 168.134939 261.150419 
L 169.729415 257.047105 
L 171.32389 262.176278 
L 172.918366 236.32568 
L 174.512842 258.893603 
L 176.107317 239.197915 
L 177.701793 230.991408 
L 179.296268 237.351539 
L 180.890744 236.94122 
L 182.485219 243.096008 
L 184.079695 233.658544 
L 185.67417 260.7401 
L 187.268646 220.117766 
L 188.863121 233.248225 
L 190.457597 227.913953 
L 192.052072 219.297128 
L 193.646548 228.324273 
L 195.241023 227.093315 
L 196.835499 245.763144 
L 198.429975 226.272676 
L 200.02445 232.222366 
L 201.618926 229.760451 
L 203.213401 225.246939 
L 204.807877 221.348724 
L 206.402352 259.509142 
L 207.996828 233.658544 
L 209.591303 224.22108 
L 211.185779 234.889502 
L 214.37473 227.298535 
L 215.969205 200.627299 
L 217.563681 222.579803 
L 219.158156 218.06617 
L 220.752632 223.605541 
L 222.347108 217.861071 
L 223.941583 228.939812 
L 225.536059 219.092029 
L 227.130534 200.627299 
L 230.319485 222.169484 
L 231.913961 222.784902 
L 233.508436 213.962856 
L 235.102912 221.553944 
L 236.697387 208.423486 
L 238.291863 248.43028 
L 239.886338 206.987429 
L 241.480814 204.935712 
L 243.075289 207.808068 
L 244.669765 242.48059 
L 246.264241 206.166669 
L 247.858716 207.808068 
L 249.453192 219.092029 
L 251.047667 206.987429 
L 252.642143 215.399034 
L 254.236618 205.96157 
L 255.831094 210.064763 
L 257.425569 204.320293 
L 259.020045 211.706161 
L 260.61452 209.244124 
L 262.208996 212.937119 
L 265.397947 220.938405 
L 266.992422 216.424893 
L 268.586898 205.96157 
L 270.181374 210.269983 
L 271.775849 218.476489 
L 273.370325 200.011881 
L 274.9648 208.628706 
L 276.559276 197.549844 
L 278.153751 204.320293 
L 279.748227 199.601561 
L 281.342702 211.91126 
L 282.937178 194.882708 
L 284.531653 203.499655 
L 286.126129 202.473796 
L 287.720604 193.241431 
L 289.31508 188.727919 
L 290.909555 196.729205 
L 292.504031 189.958877 
L 294.098507 196.318886 
L 295.692982 226.272676 
L 298.881933 197.960163 
L 300.476409 189.548558 
L 302.070884 191.556777 
L 303.66536 198.370482 
L 305.259835 198.165383 
L 306.854311 207.192528 
L 308.448786 184.009066 
L 310.043262 193.65175 
L 311.637737 211.295842 
L 313.232213 192.420792 
L 314.826688 187.907159 
L 316.421164 184.624605 
L 318.01564 203.294435 
L 319.610115 195.703346 
L 321.204591 186.881422 
L 322.799066 187.70206 
L 324.393542 192.420792 
L 325.988017 205.140932 
L 327.582493 185.240145 
L 329.176968 190.574295 
L 330.771444 187.086521 
L 332.365919 188.522699 
L 333.960395 183.188427 
L 335.55487 194.882708 
L 337.149346 192.420792 
L 338.743821 189.548558 
L 340.338297 182.16269 
L 341.932773 183.188427 
L 343.527248 196.113787 
L 345.121724 194.472389 
L 346.716199 189.343337 
L 348.310675 204.320293 
L 349.90515 170.057969 
L 351.499626 185.240145 
L 353.094101 186.060784 
L 354.688577 191.600154 
L 356.283052 187.291741 
L 357.877528 202.473796 
L 359.472003 180.110972 
L 361.066479 180.110972 
L 362.660954 192.626013 
L 364.25543 188.727919 
L 365.849905 180.931611 
L 367.444381 187.49684 
L 369.038857 187.70206 
L 370.633332 186.060784 
L 372.227808 183.188427 
L 373.822283 195.703346 
L 375.416759 198.575703 
L 377.011234 186.676202 
L 378.60571 185.855563 
L 380.200185 175.597461 
L 381.794661 196.524106 
L 383.389136 182.367789 
L 384.983612 203.704754 
L 386.578087 186.060784 
L 388.172563 199.191121 
L 389.767038 172.725105 
L 391.361514 191.394934 
L 392.95599 193.241431 
L 394.550465 170.263189 
L 396.144941 188.11238 
L 397.739416 176.00778 
L 400.928367 201.037618 
L 402.522843 183.188427 
L 404.117318 184.624605 
L 405.711794 183.598747 
L 407.306269 183.598747 
L 408.900745 176.212879 
L 410.49522 168.211593 
L 412.089696 210.475082 
L 413.684171 180.931611 
L 415.278647 194.062069 
L 416.873123 170.057969 
L 418.467598 197.755064 
L 420.062074 177.443837 
L 421.656549 173.340644 
L 423.251025 170.263189 
L 424.8455 181.752371 
L 426.439976 171.904466 
L 428.034451 186.471103 
L 429.628927 182.778108 
L 431.223402 184.624605 
L 432.817878 194.882708 
L 434.412353 175.597461 
L 436.006829 186.676202 
L 437.601304 183.803967 
L 439.19578 189.753657 
L 440.790256 175.80256 
L 442.384731 175.597461 
L 443.979207 186.265882 
L 445.573682 177.033517 
L 447.168158 173.135424 
L 448.762633 166.570194 
L 450.357109 178.469695 
L 451.951584 179.700653 
L 453.54606 181.54715 
L 455.140535 173.545743 
L 456.735011 182.367789 
L 458.329486 181.95747 
L 459.923962 185.445244 
L 461.518437 178.674916 
L 463.112913 184.419385 
L 464.707389 182.573009 
L 466.301864 186.265882 
L 467.89634 177.443837 
L 469.490815 177.854277 
L 471.085291 186.881422 
L 472.679766 169.85287 
L 474.274242 179.495554 
L 475.868717 187.907159 
L 477.463193 188.933018 
L 479.057668 176.212879 
L 480.652144 178.059376 
L 482.246619 194.677609 
L 483.841095 158.363688 
L 485.43557 181.95747 
L 487.030046 179.700653 
L 488.624522 172.109686 
L 490.218997 183.188427 
L 491.813473 166.980635 
L 493.407948 187.086521 
L 495.002424 169.23733 
L 496.596899 177.649057 
L 498.191375 195.498248 
L 499.78585 188.522699 
L 501.380326 196.729205 
L 502.974801 171.904466 
L 504.569277 180.726512 
L 506.163752 178.880015 
L 507.758228 176.828418 
L 509.352703 170.878729 
L 510.947179 186.881422 
L 512.541655 174.571602 
L 514.13613 182.573009 
L 515.730606 166.570194 
L 517.325081 183.803967 
L 518.919557 177.443837 
L 520.514032 175.187141 
L 522.108508 169.85287 
L 523.702983 174.776822 
L 525.297459 173.340644 
L 526.891934 172.314785 
L 528.48641 176.418099 
L 530.080885 177.238738 
L 531.675361 174.981921 
L 533.269836 171.699367 
L 534.864312 199.601561 
L 536.458788 175.39224 
L 538.053263 185.034925 
L 539.647739 182.16269 
L 541.242214 173.545743 
L 542.83669 185.855563 
L 544.431165 166.775415 
L 546.025641 192.215572 
L 547.620116 169.647649 
L 549.214592 179.290334 
L 550.809067 171.699367 
L 552.403543 169.70986 
L 553.998018 184.419385 
L 555.592494 171.699367 
L 557.186969 170.057969 
L 558.781445 179.700653 
L 560.37592 181.34193 
L 561.970396 176.828418 
L 563.564872 173.545743 
L 565.159347 184.829704 
L 566.753823 177.033517 
L 568.348298 171.699367 
L 569.942774 182.983328 
L 571.537249 188.11238 
L 573.131725 177.033517 
L 574.7262 167.801274 
L 576.320676 170.263189 
L 577.915151 192.831112 
L 579.509627 174.571602 
L 581.104102 177.443837 
L 582.698578 163.90318 
L 584.293053 175.597461 
L 585.887529 162.467002 
L 587.482005 180.110972 
L 589.07648 183.803967 
L 590.670956 179.085235 
L 592.265431 174.776822 
L 593.859907 187.086521 
L 595.454382 174.571602 
L 597.048858 170.878729 
L 598.643333 162.056683 
L 600.237809 182.367789 
L 601.832284 171.904466 
L 603.42676 170.263189 
L 605.021235 168.827011 
L 606.615711 166.980635 
L 608.210186 172.725105 
L 609.804662 166.365096 
L 611.399138 177.238738 
L 614.588089 165.544457 
L 616.182564 182.16269 
L 617.77704 175.39224 
L 619.371515 189.343337 
L 620.965991 168.827011 
L 622.560466 163.08242 
L 624.154942 171.699367 
L 625.749417 183.188427 
L 627.343893 184.419385 
L 628.938368 167.390954 
L 630.532844 187.086521 
L 632.127319 169.85287 
L 633.721795 156.106993 
L 635.316271 166.365096 
L 636.910746 186.265882 
L 638.505222 164.518598 
L 640.099697 178.880015 
L 641.694173 183.393648 
L 643.288648 173.135424 
L 644.883124 181.34193 
L 646.477599 163.08242 
L 648.072075 163.287641 
L 649.66655 172.520006 
L 651.261026 168.621912 
L 652.855501 161.646364 
L 654.449977 166.775415 
L 656.044452 166.365096 
L 657.638928 173.135424 
L 659.233404 165.749556 
L 660.827879 164.518598 
L 662.422355 192.420792 
L 664.01683 171.904466 
L 665.611306 175.187141 
L 667.205781 189.548558 
L 668.800257 160.005087 
L 670.394732 165.749556 
L 671.989208 188.933018 
L 673.583683 161.851462 
L 675.178159 166.365096 
L 676.772634 189.343337 
L 678.36711 163.90318 
L 679.961585 161.646364 
L 681.556061 169.647649 
L 683.150537 170.878729 
L 684.745012 162.056683 
L 686.339488 189.138239 
L 687.933963 171.289048 
L 687.933963 171.289048 
" style="fill:none;stroke:#4daf4a;stroke-linecap:square;stroke-opacity:0.25098;stroke-width:1.5;"/>
   </g>
   <g id="patch_3">
    <path d="M 50.14375 337.159219 
L 50.14375 10.999219 
" style="fill:none;stroke:#000000;stroke-linecap:square;stroke-linejoin:miter;stroke-width:0.8;"/>
   </g>
   <g id="patch_4">
    <path d="M 719.74375 337.159219 
L 719.74375 10.999219 
" style="fill:none;stroke:#000000;stroke-linecap:square;stroke-linejoin:miter;stroke-width:0.8;"/>
   </g>
   <g id="patch_5">
    <path d="M 50.14375 337.159219 
L 719.74375 337.159219 
" style="fill:none;stroke:#000000;stroke-linecap:square;stroke-linejoin:miter;stroke-width:0.8;"/>
   </g>
   <g id="patch_6">
    <path d="M 50.14375 10.999219 
L 719.74375 10.999219 
" style="fill:none;stroke:#000000;stroke-linecap:square;stroke-linejoin:miter;stroke-width:0.8;"/>
   </g>
   <g id="legend_1">
    <g id="patch_7">
     <path d="M 57.14375 48.355469 
L 114.584375 48.355469 
Q 116.584375 48.355469 116.584375 46.355469 
L 116.584375 17.999219 
Q 116.584375 15.999219 114.584375 15.999219 
L 57.14375 15.999219 
Q 55.14375 15.999219 55.14375 17.999219 
L 55.14375 46.355469 
Q 55.14375 48.355469 57.14375 48.355469 
z
" style="fill:#ffffff;opacity:0.8;stroke:#cccccc;stroke-linejoin:miter;"/>
    </g>
    <g id="line2d_41">
     <path d="M 59.14375 24.097656 
L 79.14375 24.097656 
" style="fill:none;stroke:#377eb8;stroke-linecap:square;stroke-width:2;"/>
    </g>
    <g id="line2d_42"/>
    <g id="text_21">
     <!-- Train -->
     <defs>
      <path d="M -0.296875 72.90625 
L 61.375 72.90625 
L 61.375 64.59375 
L 35.5 64.59375 
L 35.5 0 
L 25.59375 0 
L 25.59375 64.59375 
L -0.296875 64.59375 
z
" id="DejaVuSans-84"/>
      <path d="M 9.421875 54.6875 
L 18.40625 54.6875 
L 18.40625 0 
L 9.421875 0 
z
M 9.421875 75.984375 
L 18.40625 75.984375 
L 18.40625 64.59375 
L 9.421875 64.59375 
z
" id="DejaVuSans-105"/>
      <path d="M 54.890625 33.015625 
L 54.890625 0 
L 45.90625 0 
L 45.90625 32.71875 
Q 45.90625 40.484375 42.875 44.328125 
Q 39.84375 48.1875 33.796875 48.1875 
Q 26.515625 48.1875 22.3125 43.546875 
Q 18.109375 38.921875 18.109375 30.90625 
L 18.109375 0 
L 9.078125 0 
L 9.078125 54.6875 
L 18.109375 54.6875 
L 18.109375 46.1875 
Q 21.34375 51.125 25.703125 53.5625 
Q 30.078125 56 35.796875 56 
Q 45.21875 56 50.046875 50.171875 
Q 54.890625 44.34375 54.890625 33.015625 
z
" id="DejaVuSans-110"/>
     </defs>
     <g transform="translate(87.14375 27.597656)scale(0.1 -0.1)">
      <use xlink:href="#DejaVuSans-84"/>
      <use x="60.865234" xlink:href="#DejaVuSans-114"/>
      <use x="101.978516" xlink:href="#DejaVuSans-97"/>
      <use x="163.257812" xlink:href="#DejaVuSans-105"/>
      <use x="191.041016" xlink:href="#DejaVuSans-110"/>
     </g>
    </g>
    <g id="line2d_43">
     <path d="M 59.14375 38.775781 
L 79.14375 38.775781 
" style="fill:none;stroke:#4daf4a;stroke-linecap:square;stroke-width:2;"/>
    </g>
    <g id="line2d_44"/>
    <g id="text_22">
     <!-- Test -->
     <defs>
      <path d="M 56.203125 29.59375 
L 56.203125 25.203125 
L 14.890625 25.203125 
Q 15.484375 15.921875 20.484375 11.0625 
Q 25.484375 6.203125 34.421875 6.203125 
Q 39.59375 6.203125 44.453125 7.46875 
Q 49.3125 8.734375 54.109375 11.28125 
L 54.109375 2.78125 
Q 49.265625 0.734375 44.1875 -0.34375 
Q 39.109375 -1.421875 33.890625 -1.421875 
Q 20.796875 -1.421875 13.15625 6.1875 
Q 5.515625 13.8125 5.515625 26.8125 
Q 5.515625 40.234375 12.765625 48.109375 
Q 20.015625 56 32.328125 56 
Q 43.359375 56 49.78125 48.890625 
Q 56.203125 41.796875 56.203125 29.59375 
z
M 47.21875 32.234375 
Q 47.125 39.59375 43.09375 43.984375 
Q 39.0625 48.390625 32.421875 48.390625 
Q 24.90625 48.390625 20.390625 44.140625 
Q 15.875 39.890625 15.1875 32.171875 
z
" id="DejaVuSans-101"/>
      <path d="M 44.28125 53.078125 
L 44.28125 44.578125 
Q 40.484375 46.53125 36.375 47.5 
Q 32.28125 48.484375 27.875 48.484375 
Q 21.1875 48.484375 17.84375 46.4375 
Q 14.5 44.390625 14.5 40.28125 
Q 14.5 37.15625 16.890625 35.375 
Q 19.28125 33.59375 26.515625 31.984375 
L 29.59375 31.296875 
Q 39.15625 29.25 43.1875 25.515625 
Q 47.21875 21.78125 47.21875 15.09375 
Q 47.21875 7.46875 41.1875 3.015625 
Q 35.15625 -1.421875 24.609375 -1.421875 
Q 20.21875 -1.421875 15.453125 -0.5625 
Q 10.6875 0.296875 5.421875 2 
L 5.421875 11.28125 
Q 10.40625 8.6875 15.234375 7.390625 
Q 20.0625 6.109375 24.8125 6.109375 
Q 31.15625 6.109375 34.5625 8.28125 
Q 37.984375 10.453125 37.984375 14.40625 
Q 37.984375 18.0625 35.515625 20.015625 
Q 33.0625 21.96875 24.703125 23.78125 
L 21.578125 24.515625 
Q 13.234375 26.265625 9.515625 29.90625 
Q 5.8125 33.546875 5.8125 39.890625 
Q 5.8125 47.609375 11.28125 51.796875 
Q 16.75 56 26.8125 56 
Q 31.78125 56 36.171875 55.265625 
Q 40.578125 54.546875 44.28125 53.078125 
z
" id="DejaVuSans-115"/>
      <path d="M 18.3125 70.21875 
L 18.3125 54.6875 
L 36.8125 54.6875 
L 36.8125 47.703125 
L 18.3125 47.703125 
L 18.3125 18.015625 
Q 18.3125 11.328125 20.140625 9.421875 
Q 21.96875 7.515625 27.59375 7.515625 
L 36.8125 7.515625 
L 36.8125 0 
L 27.59375 0 
Q 17.1875 0 13.234375 3.875 
Q 9.28125 7.765625 9.28125 18.015625 
L 9.28125 47.703125 
L 2.6875 47.703125 
L 2.6875 54.6875 
L 9.28125 54.6875 
L 9.28125 70.21875 
z
" id="DejaVuSans-116"/>
     </defs>
     <g transform="translate(87.14375 42.275781)scale(0.1 -0.1)">
      <use xlink:href="#DejaVuSans-84"/>
      <use x="60.818359" xlink:href="#DejaVuSans-101"/>
      <use x="122.341797" xlink:href="#DejaVuSans-115"/>
      <use x="174.441406" xlink:href="#DejaVuSans-116"/>
     </g>
    </g>
   </g>
  </g>
 </g>
 <defs>
  <clipPath id="p0e36e3efd3">
   <rect height="326.16" width="669.6" x="50.14375" y="10.999219"/>
  </clipPath>
 </defs>
</svg>
