<?xml version="1.0" encoding="utf-8" standalone="no"?>
<!DOCTYPE svg PUBLIC "-//W3C//DTD SVG 1.1//EN"
  "http://www.w3.org/Graphics/SVG/1.1/DTD/svg11.dtd">
<!-- Created with matplotlib (https://matplotlib.org/) -->
<svg height="374.715469pt" version="1.1" viewBox="0 0 726.94375 374.715469" width="726.94375pt" xmlns="http://www.w3.org/2000/svg" xmlns:xlink="http://www.w3.org/1999/xlink">
 <defs>
  <style type="text/css">
*{stroke-linecap:butt;stroke-linejoin:round;white-space:pre;}
  </style>
 </defs>
 <g id="figure_1">
  <g id="patch_1">
   <path d="M 0 374.715469 
L 726.94375 374.715469 
L 726.94375 0 
L 0 0 
z
" style="fill:#ffffff;"/>
  </g>
  <g id="axes_1">
   <g id="patch_2">
    <path d="M 50.14375 337.159219 
L 719.74375 337.159219 
L 719.74375 10.999219 
L 50.14375 10.999219 
z
" style="fill:#ffffff;"/>
   </g>
   <g id="matplotlib.axis_1">
    <g id="xtick_1">
     <g id="line2d_1">
      <path clip-path="url(#p550c487cbf)" d="M 50.14375 337.159219 
L 50.14375 10.999219 
" style="fill:none;stroke:#b0b0b0;stroke-linecap:square;stroke-width:0.8;"/>
     </g>
     <g id="line2d_2">
      <defs>
       <path d="M 0 0 
L 0 3.5 
" id="mbbb7659bce" style="stroke:#000000;stroke-width:0.8;"/>
      </defs>
      <g>
       <use style="stroke:#000000;stroke-width:0.8;" x="50.14375" xlink:href="#mbbb7659bce" y="337.159219"/>
      </g>
     </g>
     <g id="text_1">
      <!-- 0 -->
      <defs>
       <path d="M 31.78125 66.40625 
Q 24.171875 66.40625 20.328125 58.90625 
Q 16.5 51.421875 16.5 36.375 
Q 16.5 21.390625 20.328125 13.890625 
Q 24.171875 6.390625 31.78125 6.390625 
Q 39.453125 6.390625 43.28125 13.890625 
Q 47.125 21.390625 47.125 36.375 
Q 47.125 51.421875 43.28125 58.90625 
Q 39.453125 66.40625 31.78125 66.40625 
z
M 31.78125 74.21875 
Q 44.046875 74.21875 50.515625 64.515625 
Q 56.984375 54.828125 56.984375 36.375 
Q 56.984375 17.96875 50.515625 8.265625 
Q 44.046875 -1.421875 31.78125 -1.421875 
Q 19.53125 -1.421875 13.0625 8.265625 
Q 6.59375 17.96875 6.59375 36.375 
Q 6.59375 54.828125 13.0625 64.515625 
Q 19.53125 74.21875 31.78125 74.21875 
z
" id="DejaVuSans-48"/>
      </defs>
      <g transform="translate(46.9625 351.757656)scale(0.1 -0.1)">
       <use xlink:href="#DejaVuSans-48"/>
      </g>
     </g>
    </g>
    <g id="xtick_2">
     <g id="line2d_3">
      <path clip-path="url(#p550c487cbf)" d="M 129.867527 337.159219 
L 129.867527 10.999219 
" style="fill:none;stroke:#b0b0b0;stroke-linecap:square;stroke-width:0.8;"/>
     </g>
     <g id="line2d_4">
      <g>
       <use style="stroke:#000000;stroke-width:0.8;" x="129.867527" xlink:href="#mbbb7659bce" y="337.159219"/>
      </g>
     </g>
     <g id="text_2">
      <!-- 50 -->
      <defs>
       <path d="M 10.796875 72.90625 
L 49.515625 72.90625 
L 49.515625 64.59375 
L 19.828125 64.59375 
L 19.828125 46.734375 
Q 21.96875 47.46875 24.109375 47.828125 
Q 26.265625 48.1875 28.421875 48.1875 
Q 40.625 48.1875 47.75 41.5 
Q 54.890625 34.8125 54.890625 23.390625 
Q 54.890625 11.625 47.5625 5.09375 
Q 40.234375 -1.421875 26.90625 -1.421875 
Q 22.3125 -1.421875 17.546875 -0.640625 
Q 12.796875 0.140625 7.71875 1.703125 
L 7.71875 11.625 
Q 12.109375 9.234375 16.796875 8.0625 
Q 21.484375 6.890625 26.703125 6.890625 
Q 35.15625 6.890625 40.078125 11.328125 
Q 45.015625 15.765625 45.015625 23.390625 
Q 45.015625 31 40.078125 35.4375 
Q 35.15625 39.890625 26.703125 39.890625 
Q 22.75 39.890625 18.8125 39.015625 
Q 14.890625 38.140625 10.796875 36.28125 
z
" id="DejaVuSans-53"/>
      </defs>
      <g transform="translate(123.505027 351.757656)scale(0.1 -0.1)">
       <use xlink:href="#DejaVuSans-53"/>
       <use x="63.623047" xlink:href="#DejaVuSans-48"/>
      </g>
     </g>
    </g>
    <g id="xtick_3">
     <g id="line2d_5">
      <path clip-path="url(#p550c487cbf)" d="M 209.591303 337.159219 
L 209.591303 10.999219 
" style="fill:none;stroke:#b0b0b0;stroke-linecap:square;stroke-width:0.8;"/>
     </g>
     <g id="line2d_6">
      <g>
       <use style="stroke:#000000;stroke-width:0.8;" x="209.591303" xlink:href="#mbbb7659bce" y="337.159219"/>
      </g>
     </g>
     <g id="text_3">
      <!-- 100 -->
      <defs>
       <path d="M 12.40625 8.296875 
L 28.515625 8.296875 
L 28.515625 63.921875 
L 10.984375 60.40625 
L 10.984375 69.390625 
L 28.421875 72.90625 
L 38.28125 72.90625 
L 38.28125 8.296875 
L 54.390625 8.296875 
L 54.390625 0 
L 12.40625 0 
z
" id="DejaVuSans-49"/>
      </defs>
      <g transform="translate(200.047553 351.757656)scale(0.1 -0.1)">
       <use xlink:href="#DejaVuSans-49"/>
       <use x="63.623047" xlink:href="#DejaVuSans-48"/>
       <use x="127.246094" xlink:href="#DejaVuSans-48"/>
      </g>
     </g>
    </g>
    <g id="xtick_4">
     <g id="line2d_7">
      <path clip-path="url(#p550c487cbf)" d="M 289.31508 337.159219 
L 289.31508 10.999219 
" style="fill:none;stroke:#b0b0b0;stroke-linecap:square;stroke-width:0.8;"/>
     </g>
     <g id="line2d_8">
      <g>
       <use style="stroke:#000000;stroke-width:0.8;" x="289.31508" xlink:href="#mbbb7659bce" y="337.159219"/>
      </g>
     </g>
     <g id="text_4">
      <!-- 150 -->
      <g transform="translate(279.77133 351.757656)scale(0.1 -0.1)">
       <use xlink:href="#DejaVuSans-49"/>
       <use x="63.623047" xlink:href="#DejaVuSans-53"/>
       <use x="127.246094" xlink:href="#DejaVuSans-48"/>
      </g>
     </g>
    </g>
    <g id="xtick_5">
     <g id="line2d_9">
      <path clip-path="url(#p550c487cbf)" d="M 369.038857 337.159219 
L 369.038857 10.999219 
" style="fill:none;stroke:#b0b0b0;stroke-linecap:square;stroke-width:0.8;"/>
     </g>
     <g id="line2d_10">
      <g>
       <use style="stroke:#000000;stroke-width:0.8;" x="369.038857" xlink:href="#mbbb7659bce" y="337.159219"/>
      </g>
     </g>
     <g id="text_5">
      <!-- 200 -->
      <defs>
       <path d="M 19.1875 8.296875 
L 53.609375 8.296875 
L 53.609375 0 
L 7.328125 0 
L 7.328125 8.296875 
Q 12.9375 14.109375 22.625 23.890625 
Q 32.328125 33.6875 34.8125 36.53125 
Q 39.546875 41.84375 41.421875 45.53125 
Q 43.3125 49.21875 43.3125 52.78125 
Q 43.3125 58.59375 39.234375 62.25 
Q 35.15625 65.921875 28.609375 65.921875 
Q 23.96875 65.921875 18.8125 64.3125 
Q 13.671875 62.703125 7.8125 59.421875 
L 7.8125 69.390625 
Q 13.765625 71.78125 18.9375 73 
Q 24.125 74.21875 28.421875 74.21875 
Q 39.75 74.21875 46.484375 68.546875 
Q 53.21875 62.890625 53.21875 53.421875 
Q 53.21875 48.921875 51.53125 44.890625 
Q 49.859375 40.875 45.40625 35.40625 
Q 44.1875 33.984375 37.640625 27.21875 
Q 31.109375 20.453125 19.1875 8.296875 
z
" id="DejaVuSans-50"/>
      </defs>
      <g transform="translate(359.495107 351.757656)scale(0.1 -0.1)">
       <use xlink:href="#DejaVuSans-50"/>
       <use x="63.623047" xlink:href="#DejaVuSans-48"/>
       <use x="127.246094" xlink:href="#DejaVuSans-48"/>
      </g>
     </g>
    </g>
    <g id="xtick_6">
     <g id="line2d_11">
      <path clip-path="url(#p550c487cbf)" d="M 448.762633 337.159219 
L 448.762633 10.999219 
" style="fill:none;stroke:#b0b0b0;stroke-linecap:square;stroke-width:0.8;"/>
     </g>
     <g id="line2d_12">
      <g>
       <use style="stroke:#000000;stroke-width:0.8;" x="448.762633" xlink:href="#mbbb7659bce" y="337.159219"/>
      </g>
     </g>
     <g id="text_6">
      <!-- 250 -->
      <g transform="translate(439.218883 351.757656)scale(0.1 -0.1)">
       <use xlink:href="#DejaVuSans-50"/>
       <use x="63.623047" xlink:href="#DejaVuSans-53"/>
       <use x="127.246094" xlink:href="#DejaVuSans-48"/>
      </g>
     </g>
    </g>
    <g id="xtick_7">
     <g id="line2d_13">
      <path clip-path="url(#p550c487cbf)" d="M 528.48641 337.159219 
L 528.48641 10.999219 
" style="fill:none;stroke:#b0b0b0;stroke-linecap:square;stroke-width:0.8;"/>
     </g>
     <g id="line2d_14">
      <g>
       <use style="stroke:#000000;stroke-width:0.8;" x="528.48641" xlink:href="#mbbb7659bce" y="337.159219"/>
      </g>
     </g>
     <g id="text_7">
      <!-- 300 -->
      <defs>
       <path d="M 40.578125 39.3125 
Q 47.65625 37.796875 51.625 33 
Q 55.609375 28.21875 55.609375 21.1875 
Q 55.609375 10.40625 48.1875 4.484375 
Q 40.765625 -1.421875 27.09375 -1.421875 
Q 22.515625 -1.421875 17.65625 -0.515625 
Q 12.796875 0.390625 7.625 2.203125 
L 7.625 11.71875 
Q 11.71875 9.328125 16.59375 8.109375 
Q 21.484375 6.890625 26.8125 6.890625 
Q 36.078125 6.890625 40.9375 10.546875 
Q 45.796875 14.203125 45.796875 21.1875 
Q 45.796875 27.640625 41.28125 31.265625 
Q 36.765625 34.90625 28.71875 34.90625 
L 20.21875 34.90625 
L 20.21875 43.015625 
L 29.109375 43.015625 
Q 36.375 43.015625 40.234375 45.921875 
Q 44.09375 48.828125 44.09375 54.296875 
Q 44.09375 59.90625 40.109375 62.90625 
Q 36.140625 65.921875 28.71875 65.921875 
Q 24.65625 65.921875 20.015625 65.03125 
Q 15.375 64.15625 9.8125 62.3125 
L 9.8125 71.09375 
Q 15.4375 72.65625 20.34375 73.4375 
Q 25.25 74.21875 29.59375 74.21875 
Q 40.828125 74.21875 47.359375 69.109375 
Q 53.90625 64.015625 53.90625 55.328125 
Q 53.90625 49.265625 50.4375 45.09375 
Q 46.96875 40.921875 40.578125 39.3125 
z
" id="DejaVuSans-51"/>
      </defs>
      <g transform="translate(518.94266 351.757656)scale(0.1 -0.1)">
       <use xlink:href="#DejaVuSans-51"/>
       <use x="63.623047" xlink:href="#DejaVuSans-48"/>
       <use x="127.246094" xlink:href="#DejaVuSans-48"/>
      </g>
     </g>
    </g>
    <g id="xtick_8">
     <g id="line2d_15">
      <path clip-path="url(#p550c487cbf)" d="M 608.210186 337.159219 
L 608.210186 10.999219 
" style="fill:none;stroke:#b0b0b0;stroke-linecap:square;stroke-width:0.8;"/>
     </g>
     <g id="line2d_16">
      <g>
       <use style="stroke:#000000;stroke-width:0.8;" x="608.210186" xlink:href="#mbbb7659bce" y="337.159219"/>
      </g>
     </g>
     <g id="text_8">
      <!-- 350 -->
      <g transform="translate(598.666436 351.757656)scale(0.1 -0.1)">
       <use xlink:href="#DejaVuSans-51"/>
       <use x="63.623047" xlink:href="#DejaVuSans-53"/>
       <use x="127.246094" xlink:href="#DejaVuSans-48"/>
      </g>
     </g>
    </g>
    <g id="xtick_9">
     <g id="line2d_17">
      <path clip-path="url(#p550c487cbf)" d="M 687.933963 337.159219 
L 687.933963 10.999219 
" style="fill:none;stroke:#b0b0b0;stroke-linecap:square;stroke-width:0.8;"/>
     </g>
     <g id="line2d_18">
      <g>
       <use style="stroke:#000000;stroke-width:0.8;" x="687.933963" xlink:href="#mbbb7659bce" y="337.159219"/>
      </g>
     </g>
     <g id="text_9">
      <!-- 400 -->
      <defs>
       <path d="M 37.796875 64.3125 
L 12.890625 25.390625 
L 37.796875 25.390625 
z
M 35.203125 72.90625 
L 47.609375 72.90625 
L 47.609375 25.390625 
L 58.015625 25.390625 
L 58.015625 17.1875 
L 47.609375 17.1875 
L 47.609375 0 
L 37.796875 0 
L 37.796875 17.1875 
L 4.890625 17.1875 
L 4.890625 26.703125 
z
" id="DejaVuSans-52"/>
      </defs>
      <g transform="translate(678.390213 351.757656)scale(0.1 -0.1)">
       <use xlink:href="#DejaVuSans-52"/>
       <use x="63.623047" xlink:href="#DejaVuSans-48"/>
       <use x="127.246094" xlink:href="#DejaVuSans-48"/>
      </g>
     </g>
    </g>
    <g id="text_10">
     <!-- Epoch -->
     <defs>
      <path d="M 9.8125 72.90625 
L 55.90625 72.90625 
L 55.90625 64.59375 
L 19.671875 64.59375 
L 19.671875 43.015625 
L 54.390625 43.015625 
L 54.390625 34.71875 
L 19.671875 34.71875 
L 19.671875 8.296875 
L 56.78125 8.296875 
L 56.78125 0 
L 9.8125 0 
z
" id="DejaVuSans-69"/>
      <path d="M 18.109375 8.203125 
L 18.109375 -20.796875 
L 9.078125 -20.796875 
L 9.078125 54.6875 
L 18.109375 54.6875 
L 18.109375 46.390625 
Q 20.953125 51.265625 25.265625 53.625 
Q 29.59375 56 35.59375 56 
Q 45.5625 56 51.78125 48.09375 
Q 58.015625 40.1875 58.015625 27.296875 
Q 58.015625 14.40625 51.78125 6.484375 
Q 45.5625 -1.421875 35.59375 -1.421875 
Q 29.59375 -1.421875 25.265625 0.953125 
Q 20.953125 3.328125 18.109375 8.203125 
z
M 48.6875 27.296875 
Q 48.6875 37.203125 44.609375 42.84375 
Q 40.53125 48.484375 33.40625 48.484375 
Q 26.265625 48.484375 22.1875 42.84375 
Q 18.109375 37.203125 18.109375 27.296875 
Q 18.109375 17.390625 22.1875 11.75 
Q 26.265625 6.109375 33.40625 6.109375 
Q 40.53125 6.109375 44.609375 11.75 
Q 48.6875 17.390625 48.6875 27.296875 
z
" id="DejaVuSans-112"/>
      <path d="M 30.609375 48.390625 
Q 23.390625 48.390625 19.1875 42.75 
Q 14.984375 37.109375 14.984375 27.296875 
Q 14.984375 17.484375 19.15625 11.84375 
Q 23.34375 6.203125 30.609375 6.203125 
Q 37.796875 6.203125 41.984375 11.859375 
Q 46.1875 17.53125 46.1875 27.296875 
Q 46.1875 37.015625 41.984375 42.703125 
Q 37.796875 48.390625 30.609375 48.390625 
z
M 30.609375 56 
Q 42.328125 56 49.015625 48.375 
Q 55.71875 40.765625 55.71875 27.296875 
Q 55.71875 13.875 49.015625 6.21875 
Q 42.328125 -1.421875 30.609375 -1.421875 
Q 18.84375 -1.421875 12.171875 6.21875 
Q 5.515625 13.875 5.515625 27.296875 
Q 5.515625 40.765625 12.171875 48.375 
Q 18.84375 56 30.609375 56 
z
" id="DejaVuSans-111"/>
      <path d="M 48.78125 52.59375 
L 48.78125 44.1875 
Q 44.96875 46.296875 41.140625 47.34375 
Q 37.3125 48.390625 33.40625 48.390625 
Q 24.65625 48.390625 19.8125 42.84375 
Q 14.984375 37.3125 14.984375 27.296875 
Q 14.984375 17.28125 19.8125 11.734375 
Q 24.65625 6.203125 33.40625 6.203125 
Q 37.3125 6.203125 41.140625 7.25 
Q 44.96875 8.296875 48.78125 10.40625 
L 48.78125 2.09375 
Q 45.015625 0.34375 40.984375 -0.53125 
Q 36.96875 -1.421875 32.421875 -1.421875 
Q 20.0625 -1.421875 12.78125 6.34375 
Q 5.515625 14.109375 5.515625 27.296875 
Q 5.515625 40.671875 12.859375 48.328125 
Q 20.21875 56 33.015625 56 
Q 37.15625 56 41.109375 55.140625 
Q 45.0625 54.296875 48.78125 52.59375 
z
" id="DejaVuSans-99"/>
      <path d="M 54.890625 33.015625 
L 54.890625 0 
L 45.90625 0 
L 45.90625 32.71875 
Q 45.90625 40.484375 42.875 44.328125 
Q 39.84375 48.1875 33.796875 48.1875 
Q 26.515625 48.1875 22.3125 43.546875 
Q 18.109375 38.921875 18.109375 30.90625 
L 18.109375 0 
L 9.078125 0 
L 9.078125 75.984375 
L 18.109375 75.984375 
L 18.109375 46.1875 
Q 21.34375 51.125 25.703125 53.5625 
Q 30.078125 56 35.796875 56 
Q 45.21875 56 50.046875 50.171875 
Q 54.890625 44.34375 54.890625 33.015625 
z
" id="DejaVuSans-104"/>
     </defs>
     <g transform="translate(369.632813 365.435781)scale(0.1 -0.1)">
      <use xlink:href="#DejaVuSans-69"/>
      <use x="63.183594" xlink:href="#DejaVuSans-112"/>
      <use x="126.660156" xlink:href="#DejaVuSans-111"/>
      <use x="187.841797" xlink:href="#DejaVuSans-99"/>
      <use x="242.822266" xlink:href="#DejaVuSans-104"/>
     </g>
    </g>
   </g>
   <g id="matplotlib.axis_2">
    <g id="ytick_1">
     <g id="line2d_19">
      <path clip-path="url(#p550c487cbf)" d="M 50.14375 337.159219 
L 719.74375 337.159219 
" style="fill:none;stroke:#b0b0b0;stroke-linecap:square;stroke-width:0.8;"/>
     </g>
     <g id="line2d_20">
      <defs>
       <path d="M 0 0 
L -3.5 0 
" id="mb44cacd71d" style="stroke:#000000;stroke-width:0.8;"/>
      </defs>
      <g>
       <use style="stroke:#000000;stroke-width:0.8;" x="50.14375" xlink:href="#mb44cacd71d" y="337.159219"/>
      </g>
     </g>
     <g id="text_11">
      <!-- 0.82 -->
      <defs>
       <path d="M 10.6875 12.40625 
L 21 12.40625 
L 21 0 
L 10.6875 0 
z
" id="DejaVuSans-46"/>
       <path d="M 31.78125 34.625 
Q 24.75 34.625 20.71875 30.859375 
Q 16.703125 27.09375 16.703125 20.515625 
Q 16.703125 13.921875 20.71875 10.15625 
Q 24.75 6.390625 31.78125 6.390625 
Q 38.8125 6.390625 42.859375 10.171875 
Q 46.921875 13.96875 46.921875 20.515625 
Q 46.921875 27.09375 42.890625 30.859375 
Q 38.875 34.625 31.78125 34.625 
z
M 21.921875 38.8125 
Q 15.578125 40.375 12.03125 44.71875 
Q 8.5 49.078125 8.5 55.328125 
Q 8.5 64.0625 14.71875 69.140625 
Q 20.953125 74.21875 31.78125 74.21875 
Q 42.671875 74.21875 48.875 69.140625 
Q 55.078125 64.0625 55.078125 55.328125 
Q 55.078125 49.078125 51.53125 44.71875 
Q 48 40.375 41.703125 38.8125 
Q 48.828125 37.15625 52.796875 32.3125 
Q 56.78125 27.484375 56.78125 20.515625 
Q 56.78125 9.90625 50.3125 4.234375 
Q 43.84375 -1.421875 31.78125 -1.421875 
Q 19.734375 -1.421875 13.25 4.234375 
Q 6.78125 9.90625 6.78125 20.515625 
Q 6.78125 27.484375 10.78125 32.3125 
Q 14.796875 37.15625 21.921875 38.8125 
z
M 18.3125 54.390625 
Q 18.3125 48.734375 21.84375 45.5625 
Q 25.390625 42.390625 31.78125 42.390625 
Q 38.140625 42.390625 41.71875 45.5625 
Q 45.3125 48.734375 45.3125 54.390625 
Q 45.3125 60.0625 41.71875 63.234375 
Q 38.140625 66.40625 31.78125 66.40625 
Q 25.390625 66.40625 21.84375 63.234375 
Q 18.3125 60.0625 18.3125 54.390625 
z
" id="DejaVuSans-56"/>
      </defs>
      <g transform="translate(20.878125 340.958437)scale(0.1 -0.1)">
       <use xlink:href="#DejaVuSans-48"/>
       <use x="63.623047" xlink:href="#DejaVuSans-46"/>
       <use x="95.410156" xlink:href="#DejaVuSans-56"/>
       <use x="159.033203" xlink:href="#DejaVuSans-50"/>
      </g>
     </g>
    </g>
    <g id="ytick_2">
     <g id="line2d_21">
      <path clip-path="url(#p550c487cbf)" d="M 50.14375 296.389219 
L 719.74375 296.389219 
" style="fill:none;stroke:#b0b0b0;stroke-linecap:square;stroke-width:0.8;"/>
     </g>
     <g id="line2d_22">
      <g>
       <use style="stroke:#000000;stroke-width:0.8;" x="50.14375" xlink:href="#mb44cacd71d" y="296.389219"/>
      </g>
     </g>
     <g id="text_12">
      <!-- 0.84 -->
      <g transform="translate(20.878125 300.188437)scale(0.1 -0.1)">
       <use xlink:href="#DejaVuSans-48"/>
       <use x="63.623047" xlink:href="#DejaVuSans-46"/>
       <use x="95.410156" xlink:href="#DejaVuSans-56"/>
       <use x="159.033203" xlink:href="#DejaVuSans-52"/>
      </g>
     </g>
    </g>
    <g id="ytick_3">
     <g id="line2d_23">
      <path clip-path="url(#p550c487cbf)" d="M 50.14375 255.619219 
L 719.74375 255.619219 
" style="fill:none;stroke:#b0b0b0;stroke-linecap:square;stroke-width:0.8;"/>
     </g>
     <g id="line2d_24">
      <g>
       <use style="stroke:#000000;stroke-width:0.8;" x="50.14375" xlink:href="#mb44cacd71d" y="255.619219"/>
      </g>
     </g>
     <g id="text_13">
      <!-- 0.86 -->
      <defs>
       <path d="M 33.015625 40.375 
Q 26.375 40.375 22.484375 35.828125 
Q 18.609375 31.296875 18.609375 23.390625 
Q 18.609375 15.53125 22.484375 10.953125 
Q 26.375 6.390625 33.015625 6.390625 
Q 39.65625 6.390625 43.53125 10.953125 
Q 47.40625 15.53125 47.40625 23.390625 
Q 47.40625 31.296875 43.53125 35.828125 
Q 39.65625 40.375 33.015625 40.375 
z
M 52.59375 71.296875 
L 52.59375 62.3125 
Q 48.875 64.0625 45.09375 64.984375 
Q 41.3125 65.921875 37.59375 65.921875 
Q 27.828125 65.921875 22.671875 59.328125 
Q 17.53125 52.734375 16.796875 39.40625 
Q 19.671875 43.65625 24.015625 45.921875 
Q 28.375 48.1875 33.59375 48.1875 
Q 44.578125 48.1875 50.953125 41.515625 
Q 57.328125 34.859375 57.328125 23.390625 
Q 57.328125 12.15625 50.6875 5.359375 
Q 44.046875 -1.421875 33.015625 -1.421875 
Q 20.359375 -1.421875 13.671875 8.265625 
Q 6.984375 17.96875 6.984375 36.375 
Q 6.984375 53.65625 15.1875 63.9375 
Q 23.390625 74.21875 37.203125 74.21875 
Q 40.921875 74.21875 44.703125 73.484375 
Q 48.484375 72.75 52.59375 71.296875 
z
" id="DejaVuSans-54"/>
      </defs>
      <g transform="translate(20.878125 259.418437)scale(0.1 -0.1)">
       <use xlink:href="#DejaVuSans-48"/>
       <use x="63.623047" xlink:href="#DejaVuSans-46"/>
       <use x="95.410156" xlink:href="#DejaVuSans-56"/>
       <use x="159.033203" xlink:href="#DejaVuSans-54"/>
      </g>
     </g>
    </g>
    <g id="ytick_4">
     <g id="line2d_25">
      <path clip-path="url(#p550c487cbf)" d="M 50.14375 214.849219 
L 719.74375 214.849219 
" style="fill:none;stroke:#b0b0b0;stroke-linecap:square;stroke-width:0.8;"/>
     </g>
     <g id="line2d_26">
      <g>
       <use style="stroke:#000000;stroke-width:0.8;" x="50.14375" xlink:href="#mb44cacd71d" y="214.849219"/>
      </g>
     </g>
     <g id="text_14">
      <!-- 0.88 -->
      <g transform="translate(20.878125 218.648437)scale(0.1 -0.1)">
       <use xlink:href="#DejaVuSans-48"/>
       <use x="63.623047" xlink:href="#DejaVuSans-46"/>
       <use x="95.410156" xlink:href="#DejaVuSans-56"/>
       <use x="159.033203" xlink:href="#DejaVuSans-56"/>
      </g>
     </g>
    </g>
    <g id="ytick_5">
     <g id="line2d_27">
      <path clip-path="url(#p550c487cbf)" d="M 50.14375 174.079219 
L 719.74375 174.079219 
" style="fill:none;stroke:#b0b0b0;stroke-linecap:square;stroke-width:0.8;"/>
     </g>
     <g id="line2d_28">
      <g>
       <use style="stroke:#000000;stroke-width:0.8;" x="50.14375" xlink:href="#mb44cacd71d" y="174.079219"/>
      </g>
     </g>
     <g id="text_15">
      <!-- 0.90 -->
      <defs>
       <path d="M 10.984375 1.515625 
L 10.984375 10.5 
Q 14.703125 8.734375 18.5 7.8125 
Q 22.3125 6.890625 25.984375 6.890625 
Q 35.75 6.890625 40.890625 13.453125 
Q 46.046875 20.015625 46.78125 33.40625 
Q 43.953125 29.203125 39.59375 26.953125 
Q 35.25 24.703125 29.984375 24.703125 
Q 19.046875 24.703125 12.671875 31.3125 
Q 6.296875 37.9375 6.296875 49.421875 
Q 6.296875 60.640625 12.9375 67.421875 
Q 19.578125 74.21875 30.609375 74.21875 
Q 43.265625 74.21875 49.921875 64.515625 
Q 56.59375 54.828125 56.59375 36.375 
Q 56.59375 19.140625 48.40625 8.859375 
Q 40.234375 -1.421875 26.421875 -1.421875 
Q 22.703125 -1.421875 18.890625 -0.6875 
Q 15.09375 0.046875 10.984375 1.515625 
z
M 30.609375 32.421875 
Q 37.25 32.421875 41.125 36.953125 
Q 45.015625 41.5 45.015625 49.421875 
Q 45.015625 57.28125 41.125 61.84375 
Q 37.25 66.40625 30.609375 66.40625 
Q 23.96875 66.40625 20.09375 61.84375 
Q 16.21875 57.28125 16.21875 49.421875 
Q 16.21875 41.5 20.09375 36.953125 
Q 23.96875 32.421875 30.609375 32.421875 
z
" id="DejaVuSans-57"/>
      </defs>
      <g transform="translate(20.878125 177.878437)scale(0.1 -0.1)">
       <use xlink:href="#DejaVuSans-48"/>
       <use x="63.623047" xlink:href="#DejaVuSans-46"/>
       <use x="95.410156" xlink:href="#DejaVuSans-57"/>
       <use x="159.033203" xlink:href="#DejaVuSans-48"/>
      </g>
     </g>
    </g>
    <g id="ytick_6">
     <g id="line2d_29">
      <path clip-path="url(#p550c487cbf)" d="M 50.14375 133.309219 
L 719.74375 133.309219 
" style="fill:none;stroke:#b0b0b0;stroke-linecap:square;stroke-width:0.8;"/>
     </g>
     <g id="line2d_30">
      <g>
       <use style="stroke:#000000;stroke-width:0.8;" x="50.14375" xlink:href="#mb44cacd71d" y="133.309219"/>
      </g>
     </g>
     <g id="text_16">
      <!-- 0.92 -->
      <g transform="translate(20.878125 137.108437)scale(0.1 -0.1)">
       <use xlink:href="#DejaVuSans-48"/>
       <use x="63.623047" xlink:href="#DejaVuSans-46"/>
       <use x="95.410156" xlink:href="#DejaVuSans-57"/>
       <use x="159.033203" xlink:href="#DejaVuSans-50"/>
      </g>
     </g>
    </g>
    <g id="ytick_7">
     <g id="line2d_31">
      <path clip-path="url(#p550c487cbf)" d="M 50.14375 92.539219 
L 719.74375 92.539219 
" style="fill:none;stroke:#b0b0b0;stroke-linecap:square;stroke-width:0.8;"/>
     </g>
     <g id="line2d_32">
      <g>
       <use style="stroke:#000000;stroke-width:0.8;" x="50.14375" xlink:href="#mb44cacd71d" y="92.539219"/>
      </g>
     </g>
     <g id="text_17">
      <!-- 0.94 -->
      <g transform="translate(20.878125 96.338437)scale(0.1 -0.1)">
       <use xlink:href="#DejaVuSans-48"/>
       <use x="63.623047" xlink:href="#DejaVuSans-46"/>
       <use x="95.410156" xlink:href="#DejaVuSans-57"/>
       <use x="159.033203" xlink:href="#DejaVuSans-52"/>
      </g>
     </g>
    </g>
    <g id="ytick_8">
     <g id="line2d_33">
      <path clip-path="url(#p550c487cbf)" d="M 50.14375 51.769219 
L 719.74375 51.769219 
" style="fill:none;stroke:#b0b0b0;stroke-linecap:square;stroke-width:0.8;"/>
     </g>
     <g id="line2d_34">
      <g>
       <use style="stroke:#000000;stroke-width:0.8;" x="50.14375" xlink:href="#mb44cacd71d" y="51.769219"/>
      </g>
     </g>
     <g id="text_18">
      <!-- 0.96 -->
      <g transform="translate(20.878125 55.568437)scale(0.1 -0.1)">
       <use xlink:href="#DejaVuSans-48"/>
       <use x="63.623047" xlink:href="#DejaVuSans-46"/>
       <use x="95.410156" xlink:href="#DejaVuSans-57"/>
       <use x="159.033203" xlink:href="#DejaVuSans-54"/>
      </g>
     </g>
    </g>
    <g id="ytick_9">
     <g id="line2d_35">
      <path clip-path="url(#p550c487cbf)" d="M 50.14375 10.999219 
L 719.74375 10.999219 
" style="fill:none;stroke:#b0b0b0;stroke-linecap:square;stroke-width:0.8;"/>
     </g>
     <g id="line2d_36">
      <g>
       <use style="stroke:#000000;stroke-width:0.8;" x="50.14375" xlink:href="#mb44cacd71d" y="10.999219"/>
      </g>
     </g>
     <g id="text_19">
      <!-- 0.98 -->
      <g transform="translate(20.878125 14.798437)scale(0.1 -0.1)">
       <use xlink:href="#DejaVuSans-48"/>
       <use x="63.623047" xlink:href="#DejaVuSans-46"/>
       <use x="95.410156" xlink:href="#DejaVuSans-57"/>
       <use x="159.033203" xlink:href="#DejaVuSans-56"/>
      </g>
     </g>
    </g>
    <g id="text_20">
     <!-- Accuracy -->
     <defs>
      <path d="M 34.1875 63.1875 
L 20.796875 26.90625 
L 47.609375 26.90625 
z
M 28.609375 72.90625 
L 39.796875 72.90625 
L 67.578125 0 
L 57.328125 0 
L 50.6875 18.703125 
L 17.828125 18.703125 
L 11.1875 0 
L 0.78125 0 
z
" id="DejaVuSans-65"/>
      <path d="M 8.5 21.578125 
L 8.5 54.6875 
L 17.484375 54.6875 
L 17.484375 21.921875 
Q 17.484375 14.15625 20.5 10.265625 
Q 23.53125 6.390625 29.59375 6.390625 
Q 36.859375 6.390625 41.078125 11.03125 
Q 45.3125 15.671875 45.3125 23.6875 
L 45.3125 54.6875 
L 54.296875 54.6875 
L 54.296875 0 
L 45.3125 0 
L 45.3125 8.40625 
Q 42.046875 3.421875 37.71875 1 
Q 33.40625 -1.421875 27.6875 -1.421875 
Q 18.265625 -1.421875 13.375 4.4375 
Q 8.5 10.296875 8.5 21.578125 
z
M 31.109375 56 
z
" id="DejaVuSans-117"/>
      <path d="M 41.109375 46.296875 
Q 39.59375 47.171875 37.8125 47.578125 
Q 36.03125 48 33.890625 48 
Q 26.265625 48 22.1875 43.046875 
Q 18.109375 38.09375 18.109375 28.8125 
L 18.109375 0 
L 9.078125 0 
L 9.078125 54.6875 
L 18.109375 54.6875 
L 18.109375 46.1875 
Q 20.953125 51.171875 25.484375 53.578125 
Q 30.03125 56 36.53125 56 
Q 37.453125 56 38.578125 55.875 
Q 39.703125 55.765625 41.0625 55.515625 
z
" id="DejaVuSans-114"/>
      <path d="M 34.28125 27.484375 
Q 23.390625 27.484375 19.1875 25 
Q 14.984375 22.515625 14.984375 16.5 
Q 14.984375 11.71875 18.140625 8.90625 
Q 21.296875 6.109375 26.703125 6.109375 
Q 34.1875 6.109375 38.703125 11.40625 
Q 43.21875 16.703125 43.21875 25.484375 
L 43.21875 27.484375 
z
M 52.203125 31.203125 
L 52.203125 0 
L 43.21875 0 
L 43.21875 8.296875 
Q 40.140625 3.328125 35.546875 0.953125 
Q 30.953125 -1.421875 24.3125 -1.421875 
Q 15.921875 -1.421875 10.953125 3.296875 
Q 6 8.015625 6 15.921875 
Q 6 25.140625 12.171875 29.828125 
Q 18.359375 34.515625 30.609375 34.515625 
L 43.21875 34.515625 
L 43.21875 35.40625 
Q 43.21875 41.609375 39.140625 45 
Q 35.0625 48.390625 27.6875 48.390625 
Q 23 48.390625 18.546875 47.265625 
Q 14.109375 46.140625 10.015625 43.890625 
L 10.015625 52.203125 
Q 14.9375 54.109375 19.578125 55.046875 
Q 24.21875 56 28.609375 56 
Q 40.484375 56 46.34375 49.84375 
Q 52.203125 43.703125 52.203125 31.203125 
z
" id="DejaVuSans-97"/>
      <path d="M 32.171875 -5.078125 
Q 28.375 -14.84375 24.75 -17.8125 
Q 21.140625 -20.796875 15.09375 -20.796875 
L 7.90625 -20.796875 
L 7.90625 -13.28125 
L 13.1875 -13.28125 
Q 16.890625 -13.28125 18.9375 -11.515625 
Q 21 -9.765625 23.484375 -3.21875 
L 25.09375 0.875 
L 2.984375 54.6875 
L 12.5 54.6875 
L 29.59375 11.921875 
L 46.6875 54.6875 
L 56.203125 54.6875 
z
" id="DejaVuSans-121"/>
     </defs>
     <g transform="translate(14.798438 196.994062)rotate(-90)scale(0.1 -0.1)">
      <use xlink:href="#DejaVuSans-65"/>
      <use x="68.392578" xlink:href="#DejaVuSans-99"/>
      <use x="123.373047" xlink:href="#DejaVuSans-99"/>
      <use x="178.353516" xlink:href="#DejaVuSans-117"/>
      <use x="241.732422" xlink:href="#DejaVuSans-114"/>
      <use x="282.845703" xlink:href="#DejaVuSans-97"/>
      <use x="344.125" xlink:href="#DejaVuSans-99"/>
      <use x="399.105469" xlink:href="#DejaVuSans-121"/>
     </g>
    </g>
   </g>
   <g id="line2d_37">
    <path clip-path="url(#p550c487cbf)" d="M 127.825086 375.715469 
L 128.273051 372.680097 
L 129.390344 375.715469 
M 129.915927 375.715469 
L 131.462002 334.305346 
L 133.056478 322.838764 
L 134.650953 320.749258 
L 136.245429 312.901068 
L 137.839904 318.303138 
L 139.43438 313.257804 
L 141.028855 315.805987 
L 142.623331 309.639412 
L 144.217806 310.862594 
L 145.812282 298.68254 
L 147.406758 303.982669 
L 149.001233 297.612332 
L 150.595709 294.911297 
L 152.190184 295.981505 
L 153.78466 295.879563 
L 155.379135 291.445879 
L 156.973611 294.248735 
L 158.568086 292.465055 
L 160.162562 286.09484 
L 161.757037 289.662199 
L 163.351513 287.012074 
L 164.945988 286.349634 
L 166.540464 285.330336 
L 168.134939 283.189921 
L 169.729415 284.9736 
L 171.32389 285.177484 
L 172.918366 281.864919 
L 174.512842 282.476449 
L 176.107317 278.34847 
L 177.701793 280.183181 
L 179.296268 277.278262 
L 180.890744 275.39264 
L 182.485219 274.475284 
L 184.079695 276.106112 
L 185.67417 273.507019 
L 187.268646 274.475284 
L 188.863121 271.621397 
L 190.457597 274.067638 
L 192.052072 269.837717 
L 193.646548 273.405077 
L 195.241023 273.507019 
L 196.835499 270.551189 
L 198.429975 266.576183 
L 200.02445 264.792504 
L 201.618926 266.830977 
L 203.213401 262.499114 
L 204.807877 261.989526 
L 206.402352 270.245485 
L 207.996828 261.58188 
L 209.591303 261.785643 
L 211.185779 236.508301 
L 212.780254 234.011149 
L 214.37473 225.653249 
L 215.969205 230.036022 
L 217.563681 218.926176 
L 219.158156 218.059852 
L 220.752632 219.996384 
L 222.347108 212.963607 
L 223.941583 217.805058 
L 225.536059 216.73485 
L 227.130534 219.282912 
L 228.72501 214.798197 
L 230.319485 213.218401 
L 231.913961 216.021378 
L 233.508436 213.269433 
L 235.102912 212.963607 
L 236.697387 220.709856 
L 238.291863 214.696376 
L 239.886338 214.135757 
L 241.480814 206.746122 
L 243.075289 212.504929 
L 244.669765 210.211661 
L 246.264241 208.173187 
L 247.858716 211.689515 
L 249.453192 207.969304 
L 251.047667 207.357774 
L 252.642143 207.15389 
L 254.236618 205.777856 
L 255.831094 207.001038 
L 257.425569 208.98848 
L 260.61452 205.625004 
L 262.208996 206.185624 
L 263.803471 201.853761 
L 265.397947 203.127852 
L 266.992422 205.93083 
L 268.586898 200.172023 
L 270.181374 201.497025 
L 271.775849 201.344173 
L 273.370325 203.229794 
L 274.9648 202.923969 
L 276.559276 199.968139 
L 278.153751 200.681611 
L 279.748227 201.242231 
L 281.342702 197.674871 
L 282.937178 200.375907 
L 284.531653 197.216194 
L 286.126129 196.247928 
L 287.720604 201.395083 
L 289.31508 198.388343 
L 290.909555 184.781346 
L 292.504031 176.168651 
L 294.098507 178.360099 
L 295.692982 178.003363 
L 297.287458 171.021496 
L 298.881933 173.6715 
L 300.476409 172.295588 
L 302.070884 171.123438 
L 303.66536 170.562818 
L 305.259835 167.403105 
L 306.854311 169.186785 
L 308.448786 171.27629 
L 310.043262 168.524344 
L 311.637737 164.549217 
L 313.232213 165.007895 
L 314.826688 160.217476 
L 316.421164 167.301163 
L 318.01564 165.109837 
L 319.610115 164.651159 
L 321.204591 163.173184 
L 322.799066 164.600249 
L 324.393542 160.676032 
L 325.988017 160.676032 
L 327.582493 158.382764 
L 329.176968 165.568515 
L 330.771444 163.071363 
L 332.365919 155.834702 
L 333.960395 163.835745 
L 335.55487 156.497143 
L 337.149346 159.35103 
L 338.743821 156.242349 
L 340.338297 157.618382 
L 341.932773 157.006731 
L 343.527248 161.185742 
L 345.121724 154.152843 
L 346.716199 160.268386 
L 348.310675 163.275126 
L 349.90515 156.446232 
L 351.499626 154.611521 
L 353.094101 153.999991 
L 354.688577 155.528877 
L 356.283052 161.440536 
L 357.877528 155.681729 
L 359.472003 157.822145 
L 361.066479 153.847139 
L 362.660954 154.764373 
L 364.25543 149.10763 
L 365.849905 153.745197 
L 367.444381 156.344291 
L 369.038857 158.229912 
L 370.633332 147.884448 
L 372.227808 139.934316 
L 373.822283 141.106465 
L 375.416759 138.252578 
L 377.011234 137.386254 
L 378.60571 136.876544 
L 380.200185 140.851671 
L 381.794661 137.18237 
L 383.389136 140.444025 
L 384.983612 136.927576 
L 386.578087 138.201668 
L 388.172563 133.767863 
L 389.767038 137.080428 
L 391.361514 134.83807 
L 392.95599 139.883405 
L 394.550465 135.908278 
L 396.144941 134.17563 
L 397.739416 135.500632 
L 399.333892 134.583276 
L 400.928367 131.270711 
L 402.522843 136.366956 
L 404.117318 132.493771 
L 405.711794 136.163072 
L 407.306269 135.39869 
L 408.900745 133.665921 
L 410.49522 131.015917 
L 412.089696 131.627447 
L 413.684171 128.977443 
L 415.278647 132.442861 
L 416.873123 131.474595 
L 418.467598 128.722649 
L 420.062074 132.646745 
L 421.656549 127.346616 
L 423.251025 132.544803 
L 424.8455 127.193763 
L 426.439976 135.857368 
L 428.034451 129.945709 
L 429.628927 132.850507 
L 431.223402 132.544803 
L 432.817878 128.620707 
L 434.412353 128.671617 
L 436.006829 126.174466 
L 437.601304 127.244674 
L 439.19578 125.919672 
L 440.790256 129.028353 
L 442.384731 126.276408 
L 443.979207 129.436121 
L 445.573682 123.167726 
L 447.168158 128.467734 
L 448.762633 128.365913 
L 451.951584 119.141689 
L 453.54606 120.823427 
L 455.140535 121.944545 
L 456.735011 124.951406 
L 458.329486 119.243509 
L 459.923962 120.058923 
L 461.518437 117.510861 
L 463.112913 118.224333 
L 464.707389 120.925369 
L 466.301864 119.600367 
L 467.89634 115.370446 
L 469.490815 121.842603 
L 471.085291 113.128088 
L 472.679766 119.804129 
L 474.274242 121.231073 
L 475.868717 114.656974 
L 477.463193 117.561771 
L 479.057668 117.612803 
L 480.652144 112.05788 
L 482.246619 116.644537 
L 483.841095 111.44635 
L 485.43557 115.981976 
L 487.030046 109.917464 
L 488.624522 109.764491 
L 490.218997 114.707884 
L 493.407948 109.305935 
L 495.002424 117.052183 
L 496.596899 113.331972 
L 498.191375 116.695447 
L 499.78585 112.006848 
L 501.380326 116.695447 
L 502.974801 111.599202 
L 504.569277 114.249206 
L 506.163752 109.764491 
L 507.758228 113.026146 
L 510.947179 115.67615 
L 512.541655 113.89247 
L 514.13613 109.203993 
L 515.730606 113.28094 
L 517.325081 110.376142 
L 518.919557 111.44635 
L 520.514032 110.834699 
L 522.108508 108.592463 
L 523.702983 109.509697 
L 525.297459 110.223169 
L 526.891934 111.701144 
L 528.48641 112.465526 
L 530.080885 111.650113 
L 531.675361 109.66267 
L 533.269836 108.082753 
L 534.864312 108.031843 
L 536.458788 105.330807 
L 538.053263 106.859693 
L 539.647739 109.305935 
L 541.242214 108.541431 
L 542.83669 112.771352 
L 544.431165 106.09519 
L 546.025641 106.451925 
L 547.620116 107.012545 
L 549.214592 109.203993 
L 550.809067 106.757751 
L 552.403543 102.018242 
L 553.998018 109.509697 
L 555.592494 106.401015 
L 557.186969 105.279897 
L 558.781445 102.578862 
L 560.37592 104.87213 
L 561.970396 103.954774 
L 563.564872 102.018242 
L 565.159347 102.833656 
L 566.753823 103.292334 
L 568.348298 106.350105 
L 569.942774 103.547128 
L 571.537249 103.03754 
L 573.131725 101.814358 
L 574.7262 106.350105 
L 576.320676 100.489356 
L 577.915151 103.13936 
L 579.509627 102.680804 
L 581.104102 105.636633 
L 582.698578 105.891427 
L 584.293053 101.814358 
L 585.887529 98.348941 
L 587.482005 97.890263 
L 589.07648 102.47692 
L 590.670956 106.553867 
L 592.265431 104.056716 
L 597.048858 104.2606 
L 598.643333 98.756587 
L 600.237809 101.763448 
L 601.832284 100.795182 
L 603.42676 101.202828 
L 605.021235 103.598038 
L 606.615711 103.190392 
L 608.210186 101.661506 
L 609.804662 104.566425 
L 611.399138 101.049976 
L 612.993613 99.623032 
L 614.588089 101.049976 
L 616.182564 105.024982 
L 617.77704 98.348941 
L 619.371515 98.705677 
L 620.965991 97.227823 
L 622.560466 103.343244 
L 624.154942 99.419148 
L 625.749417 93.405548 
L 627.343893 100.08171 
L 628.938368 98.858529 
L 630.532844 98.807618 
L 632.127319 103.292334 
L 633.721795 96.259435 
L 635.316271 100.387414 
L 636.910746 97.176791 
L 638.505222 101.25386 
L 640.099697 100.336504 
L 641.694173 96.463319 
L 643.288648 99.164354 
L 644.883124 97.788321 
L 646.477599 97.278733 
L 648.072075 99.215265 
L 649.66655 99.419148 
L 651.261026 98.399851 
L 652.855501 96.769145 
L 654.449977 94.11902 
L 656.044452 97.839353 
L 657.638928 96.157615 
L 659.233404 99.826916 
L 660.827879 97.227823 
L 662.422355 101.202828 
L 664.01683 98.960471 
L 665.611306 97.227823 
L 667.205781 97.737411 
L 668.800257 98.807618 
L 670.394732 99.368238 
L 671.989208 94.883523 
L 673.583683 98.654766 
L 675.178159 99.419148 
L 676.772634 96.412409 
L 678.36711 97.686379 
L 679.961585 95.596995 
L 681.556061 99.470059 
L 683.150537 96.157615 
L 684.745012 94.017078 
L 686.339488 99.164354 
L 687.933963 96.514351 
L 687.933963 96.514351 
" style="fill:none;stroke:#377eb8;stroke-linecap:square;stroke-width:1.5;"/>
   </g>
   <g id="line2d_38">
    <path clip-path="url(#p550c487cbf)" d="M 98.389643 375.715469 
L 99.572492 360.039057 
L 101.166967 375.631431 
L 102.761443 367.014605 
L 104.355918 338.086552 
L 105.950394 330.085145 
L 107.544869 338.702092 
L 109.139345 312.030855 
L 110.73382 331.316224 
L 112.328296 321.878639 
L 113.922771 330.700685 
L 115.517247 345.882739 
L 117.111722 309.36372 
L 118.706198 326.187051 
L 120.300673 294.181665 
L 121.895149 314.697991 
L 123.489625 303.20881 
L 125.0841 293.566125 
L 126.678576 321.058 
L 128.273051 293.976444 
L 129.867527 298.079758 
L 133.056478 235.094722 
L 134.650953 286.180257 
L 136.245429 238.992816 
L 137.839904 261.560739 
L 139.43438 244.121867 
L 141.028855 235.505042 
L 142.623331 240.223774 
L 144.217806 226.272676 
L 145.812282 245.968364 
L 147.406758 233.453445 
L 149.001233 233.453445 
L 150.595709 234.684403 
L 153.78466 243.506449 
L 155.379135 221.759165 
L 156.973611 232.632807 
L 158.568086 233.043126 
L 160.162562 247.404543 
L 161.757037 225.041719 
L 163.351513 224.426179 
L 164.945988 226.272676 
L 166.540464 235.505042 
L 168.134939 233.658544 
L 169.729415 227.913953 
L 171.32389 238.377276 
L 172.918366 242.48059 
L 174.512842 226.067578 
L 176.107317 222.990123 
L 177.701793 228.324273 
L 179.296268 210.269983 
L 180.890744 226.067578 
L 182.485219 240.018675 
L 184.079695 219.707447 
L 185.67417 218.476489 
L 187.268646 237.966957 
L 188.863121 225.862357 
L 190.457597 220.938405 
L 192.052072 216.424893 
L 193.646548 238.787596 
L 195.241023 223.810761 
L 196.835499 220.117766 
L 198.429975 213.552537 
L 200.02445 218.271391 
L 201.618926 242.48059 
L 203.213401 222.784902 
L 204.807877 212.937119 
L 206.402352 215.604255 
L 207.996828 222.169484 
L 209.591303 227.503634 
L 211.185779 192.010473 
L 212.780254 182.16269 
L 214.37473 193.856971 
L 215.969205 201.242838 
L 217.563681 182.983328 
L 219.158156 185.650464 
L 220.752632 184.624605 
L 222.347108 185.445244 
L 223.941583 187.291741 
L 225.536059 190.984614 
L 227.130534 184.419385 
L 228.72501 185.034925 
L 230.319485 189.958877 
L 231.913961 183.188427 
L 233.508436 185.445244 
L 235.102912 182.16269 
L 236.697387 181.136831 
L 238.291863 183.393648 
L 239.886338 182.983328 
L 241.480814 175.39224 
L 243.075289 180.521292 
L 244.669765 182.16269 
L 246.264241 174.161283 
L 247.858716 187.70206 
L 249.453192 183.393648 
L 251.047667 190.369196 
L 252.642143 181.136831 
L 254.236618 180.521292 
L 255.831094 166.365096 
L 257.425569 165.749556 
L 259.020045 181.136831 
L 260.61452 175.597461 
L 262.208996 169.442551 
L 263.803471 180.931611 
L 265.397947 177.033517 
L 266.992422 169.85287 
L 268.586898 174.571602 
L 270.181374 174.981921 
L 271.775849 178.469695 
L 273.370325 186.881422 
L 274.9648 172.520006 
L 276.559276 185.034925 
L 278.153751 178.880015 
L 279.748227 174.571602 
L 281.342702 181.54715 
L 282.937178 169.85287 
L 284.531653 179.495554 
L 286.126129 185.445244 
L 287.720604 166.775415 
L 289.31508 175.597461 
L 290.909555 166.570194 
L 292.504031 160.005087 
L 294.098507 160.210185 
L 295.692982 163.90318 
L 297.287458 158.568909 
L 298.881933 157.74827 
L 302.070884 159.092591 
L 303.66536 163.90318 
L 305.259835 165.339237 
L 306.854311 163.69796 
L 308.448786 162.672101 
L 310.043262 155.901773 
L 311.637737 165.339237 
L 313.232213 161.441143 
L 314.826688 152.824318 
L 316.421164 156.927632 
L 318.01564 166.159875 
L 319.610115 164.723819 
L 321.204591 157.74827 
L 322.799066 159.594767 
L 324.393542 157.74827 
L 325.988017 159.594767 
L 327.582493 153.234637 
L 329.176968 163.90318 
L 330.771444 157.13273 
L 332.365919 157.13273 
L 333.960395 158.158589 
L 335.55487 162.056683 
L 337.149346 159.799866 
L 338.743821 166.159875 
L 340.338297 160.620505 
L 341.932773 154.055275 
L 343.527248 163.90318 
L 345.121724 158.158589 
L 346.716199 156.517312 
L 348.310675 165.339237 
L 349.90515 151.59336 
L 351.499626 168.416692 
L 353.094101 149.336543 
L 354.688577 149.541764 
L 357.877528 163.90318 
L 359.472003 153.850177 
L 361.066479 152.208778 
L 362.660954 150.772721 
L 364.25543 169.85287 
L 365.849905 159.594767 
L 367.444381 158.979228 
L 369.038857 161.236044 
L 370.633332 146.464309 
L 372.227808 146.259088 
L 373.822283 144.617811 
L 375.416759 151.38814 
L 377.011234 153.850177 
L 378.60571 144.412591 
L 380.200185 151.183041 
L 381.794661 155.901773 
L 383.389136 143.386854 
L 384.983612 153.439857 
L 386.578087 150.567501 
L 388.172563 149.336543 
L 389.767038 150.772721 
L 391.361514 142.155896 
L 392.95599 152.619219 
L 394.550465 146.053989 
L 396.144941 154.465595 
L 397.739416 147.079727 
L 399.333892 147.900365 
L 402.522843 145.848769 
L 404.117318 158.774007 
L 405.711794 149.952083 
L 407.306269 137.231944 
L 408.900745 147.900365 
L 410.49522 139.693859 
L 412.089696 147.079727 
L 413.684171 152.824318 
L 415.278647 146.669408 
L 416.873123 154.465595 
L 418.467598 155.286233 
L 420.062074 140.514497 
L 421.656549 150.567501 
L 423.251025 142.771314 
L 424.8455 152.413998 
L 426.439976 150.772721 
L 428.034451 147.284947 
L 429.628927 146.464309 
L 431.223402 142.976534 
L 432.817878 153.029538 
L 434.412353 146.053989 
L 436.006829 143.181633 
L 437.601304 152.824318 
L 439.19578 146.669408 
L 440.790256 149.746863 
L 442.384731 140.104178 
L 443.979207 153.439857 
L 445.573682 144.412591 
L 447.168158 153.850177 
L 448.762633 151.798459 
L 450.357109 147.695266 
L 451.951584 142.976534 
L 453.54606 147.284947 
L 455.140535 145.64367 
L 456.735011 143.591953 
L 458.329486 137.847483 
L 459.923962 145.43845 
L 461.518437 137.642263 
L 463.112913 153.439857 
L 464.707389 145.028131 
L 466.301864 139.899079 
L 467.89634 142.976534 
L 469.490815 151.798459 
L 471.085291 139.48876 
L 472.679766 142.155896 
L 474.274242 142.566215 
L 475.868717 146.053989 
L 477.463193 141.950676 
L 479.057668 140.514497 
L 480.652144 146.464309 
L 482.246619 141.335257 
L 483.841095 148.105586 
L 485.43557 145.028131 
L 487.030046 139.28354 
L 488.624522 147.490046 
L 490.218997 141.130037 
L 491.813473 146.464309 
L 493.407948 141.745577 
L 495.002424 146.259088 
L 496.596899 148.310685 
L 498.191375 142.566215 
L 499.78585 148.310685 
L 501.380326 146.669408 
L 502.974801 147.490046 
L 504.569277 140.924817 
L 506.163752 144.002272 
L 507.758228 135.180347 
L 509.352703 146.464309 
L 510.947179 145.233351 
L 512.541655 137.847483 
L 514.13613 147.490046 
L 515.730606 145.028131 
L 517.325081 141.335257 
L 518.919557 148.310685 
L 520.514032 141.540356 
L 522.108508 140.104178 
L 523.702983 140.104178 
L 525.297459 137.231944 
L 526.891934 143.386854 
L 528.48641 141.745577 
L 530.080885 141.130037 
L 531.675361 141.540356 
L 533.269836 143.181633 
L 534.864312 137.231944 
L 536.458788 145.848769 
L 538.053263 139.693859 
L 539.647739 138.873221 
L 541.242214 140.719718 
L 542.83669 143.797173 
L 544.431165 141.540356 
L 546.025641 142.976534 
L 547.620116 139.078441 
L 549.214592 140.924817 
L 550.809067 142.360995 
L 552.403543 139.900051 
L 553.998018 144.207492 
L 555.592494 142.566215 
L 558.781445 141.335257 
L 561.970396 143.386854 
L 563.564872 139.078441 
L 565.159347 137.847483 
L 566.753823 142.771314 
L 568.348298 140.309399 
L 569.942774 141.745577 
L 571.537249 140.719718 
L 573.131725 137.026723 
L 574.7262 143.386854 
L 576.320676 138.668122 
L 577.915151 136.616404 
L 579.509627 148.926224 
L 581.104102 137.642263 
L 582.698578 140.514497 
L 584.293053 139.078441 
L 585.887529 141.130037 
L 587.482005 138.052582 
L 589.07648 138.257802 
L 590.670956 142.360995 
L 592.265431 139.48876 
L 593.859907 140.309399 
L 595.454382 136.411305 
L 597.048858 143.181633 
L 598.643333 137.437042 
L 600.237809 134.359709 
L 601.832284 144.002272 
L 603.42676 138.052582 
L 605.021235 133.744169 
L 606.615711 141.745577 
L 608.210186 140.719718 
L 609.804662 135.385446 
L 611.399138 135.795765 
L 612.993613 139.28354 
L 614.588089 139.693859 
L 616.182564 134.564808 
L 617.77704 141.745577 
L 619.371515 134.564808 
L 620.965991 136.000986 
L 622.560466 143.181633 
L 624.154942 144.617811 
L 625.749417 136.821624 
L 627.343893 137.642263 
L 628.938368 136.411305 
L 630.532844 142.771314 
L 632.127319 139.078441 
L 633.721795 133.949268 
L 635.316271 143.181633 
L 636.910746 139.693859 
L 638.505222 133.12863 
L 640.099697 140.309399 
L 641.694173 143.386854 
L 643.288648 139.078441 
L 644.883124 135.795765 
L 646.477599 145.233351 
L 648.072075 140.514497 
L 649.66655 136.616404 
L 652.855501 143.181633 
L 654.449977 133.12863 
L 656.044452 144.002272 
L 657.638928 138.462901 
L 659.233404 133.33385 
L 660.827879 151.59336 
L 662.422355 131.282254 
L 664.01683 146.669408 
L 665.611306 140.924817 
L 667.205781 134.154489 
L 668.800257 136.821624 
L 670.394732 142.360995 
L 671.989208 135.590667 
L 673.583683 135.795765 
L 675.178159 138.257802 
L 676.772634 143.181633 
L 678.36711 138.462901 
L 679.961585 139.078441 
L 681.556061 144.207492 
L 683.150537 144.82291 
L 684.745012 135.180347 
L 686.339488 140.924817 
L 687.933963 144.002272 
L 687.933963 144.002272 
" style="fill:none;stroke:#4daf4a;stroke-linecap:square;stroke-width:1.5;"/>
   </g>
   <g id="patch_3">
    <path d="M 50.14375 337.159219 
L 50.14375 10.999219 
" style="fill:none;stroke:#000000;stroke-linecap:square;stroke-linejoin:miter;stroke-width:0.8;"/>
   </g>
   <g id="patch_4">
    <path d="M 719.74375 337.159219 
L 719.74375 10.999219 
" style="fill:none;stroke:#000000;stroke-linecap:square;stroke-linejoin:miter;stroke-width:0.8;"/>
   </g>
   <g id="patch_5">
    <path d="M 50.14375 337.159219 
L 719.74375 337.159219 
" style="fill:none;stroke:#000000;stroke-linecap:square;stroke-linejoin:miter;stroke-width:0.8;"/>
   </g>
   <g id="patch_6">
    <path d="M 50.14375 10.999219 
L 719.74375 10.999219 
" style="fill:none;stroke:#000000;stroke-linecap:square;stroke-linejoin:miter;stroke-width:0.8;"/>
   </g>
   <g id="legend_1">
    <g id="patch_7">
     <path d="M 57.14375 48.355469 
L 114.584375 48.355469 
Q 116.584375 48.355469 116.584375 46.355469 
L 116.584375 17.999219 
Q 116.584375 15.999219 114.584375 15.999219 
L 57.14375 15.999219 
Q 55.14375 15.999219 55.14375 17.999219 
L 55.14375 46.355469 
Q 55.14375 48.355469 57.14375 48.355469 
z
" style="fill:#ffffff;opacity:0.8;stroke:#cccccc;stroke-linejoin:miter;"/>
    </g>
    <g id="line2d_39">
     <path d="M 59.14375 24.097656 
L 79.14375 24.097656 
" style="fill:none;stroke:#377eb8;stroke-linecap:square;stroke-width:1.5;"/>
    </g>
    <g id="line2d_40"/>
    <g id="text_21">
     <!-- Train -->
     <defs>
      <path d="M -0.296875 72.90625 
L 61.375 72.90625 
L 61.375 64.59375 
L 35.5 64.59375 
L 35.5 0 
L 25.59375 0 
L 25.59375 64.59375 
L -0.296875 64.59375 
z
" id="DejaVuSans-84"/>
      <path d="M 9.421875 54.6875 
L 18.40625 54.6875 
L 18.40625 0 
L 9.421875 0 
z
M 9.421875 75.984375 
L 18.40625 75.984375 
L 18.40625 64.59375 
L 9.421875 64.59375 
z
" id="DejaVuSans-105"/>
      <path d="M 54.890625 33.015625 
L 54.890625 0 
L 45.90625 0 
L 45.90625 32.71875 
Q 45.90625 40.484375 42.875 44.328125 
Q 39.84375 48.1875 33.796875 48.1875 
Q 26.515625 48.1875 22.3125 43.546875 
Q 18.109375 38.921875 18.109375 30.90625 
L 18.109375 0 
L 9.078125 0 
L 9.078125 54.6875 
L 18.109375 54.6875 
L 18.109375 46.1875 
Q 21.34375 51.125 25.703125 53.5625 
Q 30.078125 56 35.796875 56 
Q 45.21875 56 50.046875 50.171875 
Q 54.890625 44.34375 54.890625 33.015625 
z
" id="DejaVuSans-110"/>
     </defs>
     <g transform="translate(87.14375 27.597656)scale(0.1 -0.1)">
      <use xlink:href="#DejaVuSans-84"/>
      <use x="60.865234" xlink:href="#DejaVuSans-114"/>
      <use x="101.978516" xlink:href="#DejaVuSans-97"/>
      <use x="163.257812" xlink:href="#DejaVuSans-105"/>
      <use x="191.041016" xlink:href="#DejaVuSans-110"/>
     </g>
    </g>
    <g id="line2d_41">
     <path d="M 59.14375 38.775781 
L 79.14375 38.775781 
" style="fill:none;stroke:#4daf4a;stroke-linecap:square;stroke-width:1.5;"/>
    </g>
    <g id="line2d_42"/>
    <g id="text_22">
     <!-- Test -->
     <defs>
      <path d="M 56.203125 29.59375 
L 56.203125 25.203125 
L 14.890625 25.203125 
Q 15.484375 15.921875 20.484375 11.0625 
Q 25.484375 6.203125 34.421875 6.203125 
Q 39.59375 6.203125 44.453125 7.46875 
Q 49.3125 8.734375 54.109375 11.28125 
L 54.109375 2.78125 
Q 49.265625 0.734375 44.1875 -0.34375 
Q 39.109375 -1.421875 33.890625 -1.421875 
Q 20.796875 -1.421875 13.15625 6.1875 
Q 5.515625 13.8125 5.515625 26.8125 
Q 5.515625 40.234375 12.765625 48.109375 
Q 20.015625 56 32.328125 56 
Q 43.359375 56 49.78125 48.890625 
Q 56.203125 41.796875 56.203125 29.59375 
z
M 47.21875 32.234375 
Q 47.125 39.59375 43.09375 43.984375 
Q 39.0625 48.390625 32.421875 48.390625 
Q 24.90625 48.390625 20.390625 44.140625 
Q 15.875 39.890625 15.1875 32.171875 
z
" id="DejaVuSans-101"/>
      <path d="M 44.28125 53.078125 
L 44.28125 44.578125 
Q 40.484375 46.53125 36.375 47.5 
Q 32.28125 48.484375 27.875 48.484375 
Q 21.1875 48.484375 17.84375 46.4375 
Q 14.5 44.390625 14.5 40.28125 
Q 14.5 37.15625 16.890625 35.375 
Q 19.28125 33.59375 26.515625 31.984375 
L 29.59375 31.296875 
Q 39.15625 29.25 43.1875 25.515625 
Q 47.21875 21.78125 47.21875 15.09375 
Q 47.21875 7.46875 41.1875 3.015625 
Q 35.15625 -1.421875 24.609375 -1.421875 
Q 20.21875 -1.421875 15.453125 -0.5625 
Q 10.6875 0.296875 5.421875 2 
L 5.421875 11.28125 
Q 10.40625 8.6875 15.234375 7.390625 
Q 20.0625 6.109375 24.8125 6.109375 
Q 31.15625 6.109375 34.5625 8.28125 
Q 37.984375 10.453125 37.984375 14.40625 
Q 37.984375 18.0625 35.515625 20.015625 
Q 33.0625 21.96875 24.703125 23.78125 
L 21.578125 24.515625 
Q 13.234375 26.265625 9.515625 29.90625 
Q 5.8125 33.546875 5.8125 39.890625 
Q 5.8125 47.609375 11.28125 51.796875 
Q 16.75 56 26.8125 56 
Q 31.78125 56 36.171875 55.265625 
Q 40.578125 54.546875 44.28125 53.078125 
z
" id="DejaVuSans-115"/>
      <path d="M 18.3125 70.21875 
L 18.3125 54.6875 
L 36.8125 54.6875 
L 36.8125 47.703125 
L 18.3125 47.703125 
L 18.3125 18.015625 
Q 18.3125 11.328125 20.140625 9.421875 
Q 21.96875 7.515625 27.59375 7.515625 
L 36.8125 7.515625 
L 36.8125 0 
L 27.59375 0 
Q 17.1875 0 13.234375 3.875 
Q 9.28125 7.765625 9.28125 18.015625 
L 9.28125 47.703125 
L 2.6875 47.703125 
L 2.6875 54.6875 
L 9.28125 54.6875 
L 9.28125 70.21875 
z
" id="DejaVuSans-116"/>
     </defs>
     <g transform="translate(87.14375 42.275781)scale(0.1 -0.1)">
      <use xlink:href="#DejaVuSans-84"/>
      <use x="60.818359" xlink:href="#DejaVuSans-101"/>
      <use x="122.341797" xlink:href="#DejaVuSans-115"/>
      <use x="174.441406" xlink:href="#DejaVuSans-116"/>
     </g>
    </g>
   </g>
  </g>
 </g>
 <defs>
  <clipPath id="p550c487cbf">
   <rect height="326.16" width="669.6" x="50.14375" y="10.999219"/>
  </clipPath>
 </defs>
</svg>
