<?xml version="1.0" encoding="utf-8" standalone="no"?>
<!DOCTYPE svg PUBLIC "-//W3C//DTD SVG 1.1//EN"
  "http://www.w3.org/Graphics/SVG/1.1/DTD/svg11.dtd">
<!-- Created with matplotlib (https://matplotlib.org/) -->
<svg height="374.715469pt" version="1.1" viewBox="0 0 726.94375 374.715469" width="726.94375pt" xmlns="http://www.w3.org/2000/svg" xmlns:xlink="http://www.w3.org/1999/xlink">
 <defs>
  <style type="text/css">
*{stroke-linecap:butt;stroke-linejoin:round;white-space:pre;}
  </style>
 </defs>
 <g id="figure_1">
  <g id="patch_1">
   <path d="M 0 374.715469 
L 726.94375 374.715469 
L 726.94375 0 
L 0 0 
z
" style="fill:#ffffff;"/>
  </g>
  <g id="axes_1">
   <g id="patch_2">
    <path d="M 50.14375 337.159219 
L 719.74375 337.159219 
L 719.74375 10.999219 
L 50.14375 10.999219 
z
" style="fill:#ffffff;"/>
   </g>
   <g id="matplotlib.axis_1">
    <g id="xtick_1">
     <g id="line2d_1">
      <path clip-path="url(#p445b31e07a)" d="M 50.14375 337.159219 
L 50.14375 10.999219 
" style="fill:none;stroke:#b0b0b0;stroke-linecap:square;stroke-width:0.8;"/>
     </g>
     <g id="line2d_2">
      <defs>
       <path d="M 0 0 
L 0 3.5 
" id="mfe52f824b5" style="stroke:#000000;stroke-width:0.8;"/>
      </defs>
      <g>
       <use style="stroke:#000000;stroke-width:0.8;" x="50.14375" xlink:href="#mfe52f824b5" y="337.159219"/>
      </g>
     </g>
     <g id="text_1">
      <!-- 0 -->
      <defs>
       <path d="M 31.78125 66.40625 
Q 24.171875 66.40625 20.328125 58.90625 
Q 16.5 51.421875 16.5 36.375 
Q 16.5 21.390625 20.328125 13.890625 
Q 24.171875 6.390625 31.78125 6.390625 
Q 39.453125 6.390625 43.28125 13.890625 
Q 47.125 21.390625 47.125 36.375 
Q 47.125 51.421875 43.28125 58.90625 
Q 39.453125 66.40625 31.78125 66.40625 
z
M 31.78125 74.21875 
Q 44.046875 74.21875 50.515625 64.515625 
Q 56.984375 54.828125 56.984375 36.375 
Q 56.984375 17.96875 50.515625 8.265625 
Q 44.046875 -1.421875 31.78125 -1.421875 
Q 19.53125 -1.421875 13.0625 8.265625 
Q 6.59375 17.96875 6.59375 36.375 
Q 6.59375 54.828125 13.0625 64.515625 
Q 19.53125 74.21875 31.78125 74.21875 
z
" id="DejaVuSans-48"/>
      </defs>
      <g transform="translate(46.9625 351.757656)scale(0.1 -0.1)">
       <use xlink:href="#DejaVuSans-48"/>
      </g>
     </g>
    </g>
    <g id="xtick_2">
     <g id="line2d_3">
      <path clip-path="url(#p445b31e07a)" d="M 177.698755 337.159219 
L 177.698755 10.999219 
" style="fill:none;stroke:#b0b0b0;stroke-linecap:square;stroke-width:0.8;"/>
     </g>
     <g id="line2d_4">
      <g>
       <use style="stroke:#000000;stroke-width:0.8;" x="177.698755" xlink:href="#mfe52f824b5" y="337.159219"/>
      </g>
     </g>
     <g id="text_2">
      <!-- 100 -->
      <defs>
       <path d="M 12.40625 8.296875 
L 28.515625 8.296875 
L 28.515625 63.921875 
L 10.984375 60.40625 
L 10.984375 69.390625 
L 28.421875 72.90625 
L 38.28125 72.90625 
L 38.28125 8.296875 
L 54.390625 8.296875 
L 54.390625 0 
L 12.40625 0 
z
" id="DejaVuSans-49"/>
      </defs>
      <g transform="translate(168.155005 351.757656)scale(0.1 -0.1)">
       <use xlink:href="#DejaVuSans-49"/>
       <use x="63.623047" xlink:href="#DejaVuSans-48"/>
       <use x="127.246094" xlink:href="#DejaVuSans-48"/>
      </g>
     </g>
    </g>
    <g id="xtick_3">
     <g id="line2d_5">
      <path clip-path="url(#p445b31e07a)" d="M 305.25376 337.159219 
L 305.25376 10.999219 
" style="fill:none;stroke:#b0b0b0;stroke-linecap:square;stroke-width:0.8;"/>
     </g>
     <g id="line2d_6">
      <g>
       <use style="stroke:#000000;stroke-width:0.8;" x="305.25376" xlink:href="#mfe52f824b5" y="337.159219"/>
      </g>
     </g>
     <g id="text_3">
      <!-- 200 -->
      <defs>
       <path d="M 19.1875 8.296875 
L 53.609375 8.296875 
L 53.609375 0 
L 7.328125 0 
L 7.328125 8.296875 
Q 12.9375 14.109375 22.625 23.890625 
Q 32.328125 33.6875 34.8125 36.53125 
Q 39.546875 41.84375 41.421875 45.53125 
Q 43.3125 49.21875 43.3125 52.78125 
Q 43.3125 58.59375 39.234375 62.25 
Q 35.15625 65.921875 28.609375 65.921875 
Q 23.96875 65.921875 18.8125 64.3125 
Q 13.671875 62.703125 7.8125 59.421875 
L 7.8125 69.390625 
Q 13.765625 71.78125 18.9375 73 
Q 24.125 74.21875 28.421875 74.21875 
Q 39.75 74.21875 46.484375 68.546875 
Q 53.21875 62.890625 53.21875 53.421875 
Q 53.21875 48.921875 51.53125 44.890625 
Q 49.859375 40.875 45.40625 35.40625 
Q 44.1875 33.984375 37.640625 27.21875 
Q 31.109375 20.453125 19.1875 8.296875 
z
" id="DejaVuSans-50"/>
      </defs>
      <g transform="translate(295.71001 351.757656)scale(0.1 -0.1)">
       <use xlink:href="#DejaVuSans-50"/>
       <use x="63.623047" xlink:href="#DejaVuSans-48"/>
       <use x="127.246094" xlink:href="#DejaVuSans-48"/>
      </g>
     </g>
    </g>
    <g id="xtick_4">
     <g id="line2d_7">
      <path clip-path="url(#p445b31e07a)" d="M 432.808766 337.159219 
L 432.808766 10.999219 
" style="fill:none;stroke:#b0b0b0;stroke-linecap:square;stroke-width:0.8;"/>
     </g>
     <g id="line2d_8">
      <g>
       <use style="stroke:#000000;stroke-width:0.8;" x="432.808766" xlink:href="#mfe52f824b5" y="337.159219"/>
      </g>
     </g>
     <g id="text_4">
      <!-- 300 -->
      <defs>
       <path d="M 40.578125 39.3125 
Q 47.65625 37.796875 51.625 33 
Q 55.609375 28.21875 55.609375 21.1875 
Q 55.609375 10.40625 48.1875 4.484375 
Q 40.765625 -1.421875 27.09375 -1.421875 
Q 22.515625 -1.421875 17.65625 -0.515625 
Q 12.796875 0.390625 7.625 2.203125 
L 7.625 11.71875 
Q 11.71875 9.328125 16.59375 8.109375 
Q 21.484375 6.890625 26.8125 6.890625 
Q 36.078125 6.890625 40.9375 10.546875 
Q 45.796875 14.203125 45.796875 21.1875 
Q 45.796875 27.640625 41.28125 31.265625 
Q 36.765625 34.90625 28.71875 34.90625 
L 20.21875 34.90625 
L 20.21875 43.015625 
L 29.109375 43.015625 
Q 36.375 43.015625 40.234375 45.921875 
Q 44.09375 48.828125 44.09375 54.296875 
Q 44.09375 59.90625 40.109375 62.90625 
Q 36.140625 65.921875 28.71875 65.921875 
Q 24.65625 65.921875 20.015625 65.03125 
Q 15.375 64.15625 9.8125 62.3125 
L 9.8125 71.09375 
Q 15.4375 72.65625 20.34375 73.4375 
Q 25.25 74.21875 29.59375 74.21875 
Q 40.828125 74.21875 47.359375 69.109375 
Q 53.90625 64.015625 53.90625 55.328125 
Q 53.90625 49.265625 50.4375 45.09375 
Q 46.96875 40.921875 40.578125 39.3125 
z
" id="DejaVuSans-51"/>
      </defs>
      <g transform="translate(423.265016 351.757656)scale(0.1 -0.1)">
       <use xlink:href="#DejaVuSans-51"/>
       <use x="63.623047" xlink:href="#DejaVuSans-48"/>
       <use x="127.246094" xlink:href="#DejaVuSans-48"/>
      </g>
     </g>
    </g>
    <g id="xtick_5">
     <g id="line2d_9">
      <path clip-path="url(#p445b31e07a)" d="M 560.363771 337.159219 
L 560.363771 10.999219 
" style="fill:none;stroke:#b0b0b0;stroke-linecap:square;stroke-width:0.8;"/>
     </g>
     <g id="line2d_10">
      <g>
       <use style="stroke:#000000;stroke-width:0.8;" x="560.363771" xlink:href="#mfe52f824b5" y="337.159219"/>
      </g>
     </g>
     <g id="text_5">
      <!-- 400 -->
      <defs>
       <path d="M 37.796875 64.3125 
L 12.890625 25.390625 
L 37.796875 25.390625 
z
M 35.203125 72.90625 
L 47.609375 72.90625 
L 47.609375 25.390625 
L 58.015625 25.390625 
L 58.015625 17.1875 
L 47.609375 17.1875 
L 47.609375 0 
L 37.796875 0 
L 37.796875 17.1875 
L 4.890625 17.1875 
L 4.890625 26.703125 
z
" id="DejaVuSans-52"/>
      </defs>
      <g transform="translate(550.820021 351.757656)scale(0.1 -0.1)">
       <use xlink:href="#DejaVuSans-52"/>
       <use x="63.623047" xlink:href="#DejaVuSans-48"/>
       <use x="127.246094" xlink:href="#DejaVuSans-48"/>
      </g>
     </g>
    </g>
    <g id="xtick_6">
     <g id="line2d_11">
      <path clip-path="url(#p445b31e07a)" d="M 687.918776 337.159219 
L 687.918776 10.999219 
" style="fill:none;stroke:#b0b0b0;stroke-linecap:square;stroke-width:0.8;"/>
     </g>
     <g id="line2d_12">
      <g>
       <use style="stroke:#000000;stroke-width:0.8;" x="687.918776" xlink:href="#mfe52f824b5" y="337.159219"/>
      </g>
     </g>
     <g id="text_6">
      <!-- 500 -->
      <defs>
       <path d="M 10.796875 72.90625 
L 49.515625 72.90625 
L 49.515625 64.59375 
L 19.828125 64.59375 
L 19.828125 46.734375 
Q 21.96875 47.46875 24.109375 47.828125 
Q 26.265625 48.1875 28.421875 48.1875 
Q 40.625 48.1875 47.75 41.5 
Q 54.890625 34.8125 54.890625 23.390625 
Q 54.890625 11.625 47.5625 5.09375 
Q 40.234375 -1.421875 26.90625 -1.421875 
Q 22.3125 -1.421875 17.546875 -0.640625 
Q 12.796875 0.140625 7.71875 1.703125 
L 7.71875 11.625 
Q 12.109375 9.234375 16.796875 8.0625 
Q 21.484375 6.890625 26.703125 6.890625 
Q 35.15625 6.890625 40.078125 11.328125 
Q 45.015625 15.765625 45.015625 23.390625 
Q 45.015625 31 40.078125 35.4375 
Q 35.15625 39.890625 26.703125 39.890625 
Q 22.75 39.890625 18.8125 39.015625 
Q 14.890625 38.140625 10.796875 36.28125 
z
" id="DejaVuSans-53"/>
      </defs>
      <g transform="translate(678.375026 351.757656)scale(0.1 -0.1)">
       <use xlink:href="#DejaVuSans-53"/>
       <use x="63.623047" xlink:href="#DejaVuSans-48"/>
       <use x="127.246094" xlink:href="#DejaVuSans-48"/>
      </g>
     </g>
    </g>
    <g id="text_7">
     <!-- Epoch -->
     <defs>
      <path d="M 9.8125 72.90625 
L 55.90625 72.90625 
L 55.90625 64.59375 
L 19.671875 64.59375 
L 19.671875 43.015625 
L 54.390625 43.015625 
L 54.390625 34.71875 
L 19.671875 34.71875 
L 19.671875 8.296875 
L 56.78125 8.296875 
L 56.78125 0 
L 9.8125 0 
z
" id="DejaVuSans-69"/>
      <path d="M 18.109375 8.203125 
L 18.109375 -20.796875 
L 9.078125 -20.796875 
L 9.078125 54.6875 
L 18.109375 54.6875 
L 18.109375 46.390625 
Q 20.953125 51.265625 25.265625 53.625 
Q 29.59375 56 35.59375 56 
Q 45.5625 56 51.78125 48.09375 
Q 58.015625 40.1875 58.015625 27.296875 
Q 58.015625 14.40625 51.78125 6.484375 
Q 45.5625 -1.421875 35.59375 -1.421875 
Q 29.59375 -1.421875 25.265625 0.953125 
Q 20.953125 3.328125 18.109375 8.203125 
z
M 48.6875 27.296875 
Q 48.6875 37.203125 44.609375 42.84375 
Q 40.53125 48.484375 33.40625 48.484375 
Q 26.265625 48.484375 22.1875 42.84375 
Q 18.109375 37.203125 18.109375 27.296875 
Q 18.109375 17.390625 22.1875 11.75 
Q 26.265625 6.109375 33.40625 6.109375 
Q 40.53125 6.109375 44.609375 11.75 
Q 48.6875 17.390625 48.6875 27.296875 
z
" id="DejaVuSans-112"/>
      <path d="M 30.609375 48.390625 
Q 23.390625 48.390625 19.1875 42.75 
Q 14.984375 37.109375 14.984375 27.296875 
Q 14.984375 17.484375 19.15625 11.84375 
Q 23.34375 6.203125 30.609375 6.203125 
Q 37.796875 6.203125 41.984375 11.859375 
Q 46.1875 17.53125 46.1875 27.296875 
Q 46.1875 37.015625 41.984375 42.703125 
Q 37.796875 48.390625 30.609375 48.390625 
z
M 30.609375 56 
Q 42.328125 56 49.015625 48.375 
Q 55.71875 40.765625 55.71875 27.296875 
Q 55.71875 13.875 49.015625 6.21875 
Q 42.328125 -1.421875 30.609375 -1.421875 
Q 18.84375 -1.421875 12.171875 6.21875 
Q 5.515625 13.875 5.515625 27.296875 
Q 5.515625 40.765625 12.171875 48.375 
Q 18.84375 56 30.609375 56 
z
" id="DejaVuSans-111"/>
      <path d="M 48.78125 52.59375 
L 48.78125 44.1875 
Q 44.96875 46.296875 41.140625 47.34375 
Q 37.3125 48.390625 33.40625 48.390625 
Q 24.65625 48.390625 19.8125 42.84375 
Q 14.984375 37.3125 14.984375 27.296875 
Q 14.984375 17.28125 19.8125 11.734375 
Q 24.65625 6.203125 33.40625 6.203125 
Q 37.3125 6.203125 41.140625 7.25 
Q 44.96875 8.296875 48.78125 10.40625 
L 48.78125 2.09375 
Q 45.015625 0.34375 40.984375 -0.53125 
Q 36.96875 -1.421875 32.421875 -1.421875 
Q 20.0625 -1.421875 12.78125 6.34375 
Q 5.515625 14.109375 5.515625 27.296875 
Q 5.515625 40.671875 12.859375 48.328125 
Q 20.21875 56 33.015625 56 
Q 37.15625 56 41.109375 55.140625 
Q 45.0625 54.296875 48.78125 52.59375 
z
" id="DejaVuSans-99"/>
      <path d="M 54.890625 33.015625 
L 54.890625 0 
L 45.90625 0 
L 45.90625 32.71875 
Q 45.90625 40.484375 42.875 44.328125 
Q 39.84375 48.1875 33.796875 48.1875 
Q 26.515625 48.1875 22.3125 43.546875 
Q 18.109375 38.921875 18.109375 30.90625 
L 18.109375 0 
L 9.078125 0 
L 9.078125 75.984375 
L 18.109375 75.984375 
L 18.109375 46.1875 
Q 21.34375 51.125 25.703125 53.5625 
Q 30.078125 56 35.796875 56 
Q 45.21875 56 50.046875 50.171875 
Q 54.890625 44.34375 54.890625 33.015625 
z
" id="DejaVuSans-104"/>
     </defs>
     <g transform="translate(369.632813 365.435781)scale(0.1 -0.1)">
      <use xlink:href="#DejaVuSans-69"/>
      <use x="63.183594" xlink:href="#DejaVuSans-112"/>
      <use x="126.660156" xlink:href="#DejaVuSans-111"/>
      <use x="187.841797" xlink:href="#DejaVuSans-99"/>
      <use x="242.822266" xlink:href="#DejaVuSans-104"/>
     </g>
    </g>
   </g>
   <g id="matplotlib.axis_2">
    <g id="ytick_1">
     <g id="line2d_13">
      <path clip-path="url(#p445b31e07a)" d="M 50.14375 337.159219 
L 719.74375 337.159219 
" style="fill:none;stroke:#b0b0b0;stroke-linecap:square;stroke-width:0.8;"/>
     </g>
     <g id="line2d_14">
      <defs>
       <path d="M 0 0 
L -3.5 0 
" id="m221e8aed31" style="stroke:#000000;stroke-width:0.8;"/>
      </defs>
      <g>
       <use style="stroke:#000000;stroke-width:0.8;" x="50.14375" xlink:href="#m221e8aed31" y="337.159219"/>
      </g>
     </g>
     <g id="text_8">
      <!-- 0.82 -->
      <defs>
       <path d="M 10.6875 12.40625 
L 21 12.40625 
L 21 0 
L 10.6875 0 
z
" id="DejaVuSans-46"/>
       <path d="M 31.78125 34.625 
Q 24.75 34.625 20.71875 30.859375 
Q 16.703125 27.09375 16.703125 20.515625 
Q 16.703125 13.921875 20.71875 10.15625 
Q 24.75 6.390625 31.78125 6.390625 
Q 38.8125 6.390625 42.859375 10.171875 
Q 46.921875 13.96875 46.921875 20.515625 
Q 46.921875 27.09375 42.890625 30.859375 
Q 38.875 34.625 31.78125 34.625 
z
M 21.921875 38.8125 
Q 15.578125 40.375 12.03125 44.71875 
Q 8.5 49.078125 8.5 55.328125 
Q 8.5 64.0625 14.71875 69.140625 
Q 20.953125 74.21875 31.78125 74.21875 
Q 42.671875 74.21875 48.875 69.140625 
Q 55.078125 64.0625 55.078125 55.328125 
Q 55.078125 49.078125 51.53125 44.71875 
Q 48 40.375 41.703125 38.8125 
Q 48.828125 37.15625 52.796875 32.3125 
Q 56.78125 27.484375 56.78125 20.515625 
Q 56.78125 9.90625 50.3125 4.234375 
Q 43.84375 -1.421875 31.78125 -1.421875 
Q 19.734375 -1.421875 13.25 4.234375 
Q 6.78125 9.90625 6.78125 20.515625 
Q 6.78125 27.484375 10.78125 32.3125 
Q 14.796875 37.15625 21.921875 38.8125 
z
M 18.3125 54.390625 
Q 18.3125 48.734375 21.84375 45.5625 
Q 25.390625 42.390625 31.78125 42.390625 
Q 38.140625 42.390625 41.71875 45.5625 
Q 45.3125 48.734375 45.3125 54.390625 
Q 45.3125 60.0625 41.71875 63.234375 
Q 38.140625 66.40625 31.78125 66.40625 
Q 25.390625 66.40625 21.84375 63.234375 
Q 18.3125 60.0625 18.3125 54.390625 
z
" id="DejaVuSans-56"/>
      </defs>
      <g transform="translate(20.878125 340.958437)scale(0.1 -0.1)">
       <use xlink:href="#DejaVuSans-48"/>
       <use x="63.623047" xlink:href="#DejaVuSans-46"/>
       <use x="95.410156" xlink:href="#DejaVuSans-56"/>
       <use x="159.033203" xlink:href="#DejaVuSans-50"/>
      </g>
     </g>
    </g>
    <g id="ytick_2">
     <g id="line2d_15">
      <path clip-path="url(#p445b31e07a)" d="M 50.14375 296.389219 
L 719.74375 296.389219 
" style="fill:none;stroke:#b0b0b0;stroke-linecap:square;stroke-width:0.8;"/>
     </g>
     <g id="line2d_16">
      <g>
       <use style="stroke:#000000;stroke-width:0.8;" x="50.14375" xlink:href="#m221e8aed31" y="296.389219"/>
      </g>
     </g>
     <g id="text_9">
      <!-- 0.84 -->
      <g transform="translate(20.878125 300.188437)scale(0.1 -0.1)">
       <use xlink:href="#DejaVuSans-48"/>
       <use x="63.623047" xlink:href="#DejaVuSans-46"/>
       <use x="95.410156" xlink:href="#DejaVuSans-56"/>
       <use x="159.033203" xlink:href="#DejaVuSans-52"/>
      </g>
     </g>
    </g>
    <g id="ytick_3">
     <g id="line2d_17">
      <path clip-path="url(#p445b31e07a)" d="M 50.14375 255.619219 
L 719.74375 255.619219 
" style="fill:none;stroke:#b0b0b0;stroke-linecap:square;stroke-width:0.8;"/>
     </g>
     <g id="line2d_18">
      <g>
       <use style="stroke:#000000;stroke-width:0.8;" x="50.14375" xlink:href="#m221e8aed31" y="255.619219"/>
      </g>
     </g>
     <g id="text_10">
      <!-- 0.86 -->
      <defs>
       <path d="M 33.015625 40.375 
Q 26.375 40.375 22.484375 35.828125 
Q 18.609375 31.296875 18.609375 23.390625 
Q 18.609375 15.53125 22.484375 10.953125 
Q 26.375 6.390625 33.015625 6.390625 
Q 39.65625 6.390625 43.53125 10.953125 
Q 47.40625 15.53125 47.40625 23.390625 
Q 47.40625 31.296875 43.53125 35.828125 
Q 39.65625 40.375 33.015625 40.375 
z
M 52.59375 71.296875 
L 52.59375 62.3125 
Q 48.875 64.0625 45.09375 64.984375 
Q 41.3125 65.921875 37.59375 65.921875 
Q 27.828125 65.921875 22.671875 59.328125 
Q 17.53125 52.734375 16.796875 39.40625 
Q 19.671875 43.65625 24.015625 45.921875 
Q 28.375 48.1875 33.59375 48.1875 
Q 44.578125 48.1875 50.953125 41.515625 
Q 57.328125 34.859375 57.328125 23.390625 
Q 57.328125 12.15625 50.6875 5.359375 
Q 44.046875 -1.421875 33.015625 -1.421875 
Q 20.359375 -1.421875 13.671875 8.265625 
Q 6.984375 17.96875 6.984375 36.375 
Q 6.984375 53.65625 15.1875 63.9375 
Q 23.390625 74.21875 37.203125 74.21875 
Q 40.921875 74.21875 44.703125 73.484375 
Q 48.484375 72.75 52.59375 71.296875 
z
" id="DejaVuSans-54"/>
      </defs>
      <g transform="translate(20.878125 259.418437)scale(0.1 -0.1)">
       <use xlink:href="#DejaVuSans-48"/>
       <use x="63.623047" xlink:href="#DejaVuSans-46"/>
       <use x="95.410156" xlink:href="#DejaVuSans-56"/>
       <use x="159.033203" xlink:href="#DejaVuSans-54"/>
      </g>
     </g>
    </g>
    <g id="ytick_4">
     <g id="line2d_19">
      <path clip-path="url(#p445b31e07a)" d="M 50.14375 214.849219 
L 719.74375 214.849219 
" style="fill:none;stroke:#b0b0b0;stroke-linecap:square;stroke-width:0.8;"/>
     </g>
     <g id="line2d_20">
      <g>
       <use style="stroke:#000000;stroke-width:0.8;" x="50.14375" xlink:href="#m221e8aed31" y="214.849219"/>
      </g>
     </g>
     <g id="text_11">
      <!-- 0.88 -->
      <g transform="translate(20.878125 218.648437)scale(0.1 -0.1)">
       <use xlink:href="#DejaVuSans-48"/>
       <use x="63.623047" xlink:href="#DejaVuSans-46"/>
       <use x="95.410156" xlink:href="#DejaVuSans-56"/>
       <use x="159.033203" xlink:href="#DejaVuSans-56"/>
      </g>
     </g>
    </g>
    <g id="ytick_5">
     <g id="line2d_21">
      <path clip-path="url(#p445b31e07a)" d="M 50.14375 174.079219 
L 719.74375 174.079219 
" style="fill:none;stroke:#b0b0b0;stroke-linecap:square;stroke-width:0.8;"/>
     </g>
     <g id="line2d_22">
      <g>
       <use style="stroke:#000000;stroke-width:0.8;" x="50.14375" xlink:href="#m221e8aed31" y="174.079219"/>
      </g>
     </g>
     <g id="text_12">
      <!-- 0.90 -->
      <defs>
       <path d="M 10.984375 1.515625 
L 10.984375 10.5 
Q 14.703125 8.734375 18.5 7.8125 
Q 22.3125 6.890625 25.984375 6.890625 
Q 35.75 6.890625 40.890625 13.453125 
Q 46.046875 20.015625 46.78125 33.40625 
Q 43.953125 29.203125 39.59375 26.953125 
Q 35.25 24.703125 29.984375 24.703125 
Q 19.046875 24.703125 12.671875 31.3125 
Q 6.296875 37.9375 6.296875 49.421875 
Q 6.296875 60.640625 12.9375 67.421875 
Q 19.578125 74.21875 30.609375 74.21875 
Q 43.265625 74.21875 49.921875 64.515625 
Q 56.59375 54.828125 56.59375 36.375 
Q 56.59375 19.140625 48.40625 8.859375 
Q 40.234375 -1.421875 26.421875 -1.421875 
Q 22.703125 -1.421875 18.890625 -0.6875 
Q 15.09375 0.046875 10.984375 1.515625 
z
M 30.609375 32.421875 
Q 37.25 32.421875 41.125 36.953125 
Q 45.015625 41.5 45.015625 49.421875 
Q 45.015625 57.28125 41.125 61.84375 
Q 37.25 66.40625 30.609375 66.40625 
Q 23.96875 66.40625 20.09375 61.84375 
Q 16.21875 57.28125 16.21875 49.421875 
Q 16.21875 41.5 20.09375 36.953125 
Q 23.96875 32.421875 30.609375 32.421875 
z
" id="DejaVuSans-57"/>
      </defs>
      <g transform="translate(20.878125 177.878437)scale(0.1 -0.1)">
       <use xlink:href="#DejaVuSans-48"/>
       <use x="63.623047" xlink:href="#DejaVuSans-46"/>
       <use x="95.410156" xlink:href="#DejaVuSans-57"/>
       <use x="159.033203" xlink:href="#DejaVuSans-48"/>
      </g>
     </g>
    </g>
    <g id="ytick_6">
     <g id="line2d_23">
      <path clip-path="url(#p445b31e07a)" d="M 50.14375 133.309219 
L 719.74375 133.309219 
" style="fill:none;stroke:#b0b0b0;stroke-linecap:square;stroke-width:0.8;"/>
     </g>
     <g id="line2d_24">
      <g>
       <use style="stroke:#000000;stroke-width:0.8;" x="50.14375" xlink:href="#m221e8aed31" y="133.309219"/>
      </g>
     </g>
     <g id="text_13">
      <!-- 0.92 -->
      <g transform="translate(20.878125 137.108437)scale(0.1 -0.1)">
       <use xlink:href="#DejaVuSans-48"/>
       <use x="63.623047" xlink:href="#DejaVuSans-46"/>
       <use x="95.410156" xlink:href="#DejaVuSans-57"/>
       <use x="159.033203" xlink:href="#DejaVuSans-50"/>
      </g>
     </g>
    </g>
    <g id="ytick_7">
     <g id="line2d_25">
      <path clip-path="url(#p445b31e07a)" d="M 50.14375 92.539219 
L 719.74375 92.539219 
" style="fill:none;stroke:#b0b0b0;stroke-linecap:square;stroke-width:0.8;"/>
     </g>
     <g id="line2d_26">
      <g>
       <use style="stroke:#000000;stroke-width:0.8;" x="50.14375" xlink:href="#m221e8aed31" y="92.539219"/>
      </g>
     </g>
     <g id="text_14">
      <!-- 0.94 -->
      <g transform="translate(20.878125 96.338437)scale(0.1 -0.1)">
       <use xlink:href="#DejaVuSans-48"/>
       <use x="63.623047" xlink:href="#DejaVuSans-46"/>
       <use x="95.410156" xlink:href="#DejaVuSans-57"/>
       <use x="159.033203" xlink:href="#DejaVuSans-52"/>
      </g>
     </g>
    </g>
    <g id="ytick_8">
     <g id="line2d_27">
      <path clip-path="url(#p445b31e07a)" d="M 50.14375 51.769219 
L 719.74375 51.769219 
" style="fill:none;stroke:#b0b0b0;stroke-linecap:square;stroke-width:0.8;"/>
     </g>
     <g id="line2d_28">
      <g>
       <use style="stroke:#000000;stroke-width:0.8;" x="50.14375" xlink:href="#m221e8aed31" y="51.769219"/>
      </g>
     </g>
     <g id="text_15">
      <!-- 0.96 -->
      <g transform="translate(20.878125 55.568437)scale(0.1 -0.1)">
       <use xlink:href="#DejaVuSans-48"/>
       <use x="63.623047" xlink:href="#DejaVuSans-46"/>
       <use x="95.410156" xlink:href="#DejaVuSans-57"/>
       <use x="159.033203" xlink:href="#DejaVuSans-54"/>
      </g>
     </g>
    </g>
    <g id="ytick_9">
     <g id="line2d_29">
      <path clip-path="url(#p445b31e07a)" d="M 50.14375 10.999219 
L 719.74375 10.999219 
" style="fill:none;stroke:#b0b0b0;stroke-linecap:square;stroke-width:0.8;"/>
     </g>
     <g id="line2d_30">
      <g>
       <use style="stroke:#000000;stroke-width:0.8;" x="50.14375" xlink:href="#m221e8aed31" y="10.999219"/>
      </g>
     </g>
     <g id="text_16">
      <!-- 0.98 -->
      <g transform="translate(20.878125 14.798437)scale(0.1 -0.1)">
       <use xlink:href="#DejaVuSans-48"/>
       <use x="63.623047" xlink:href="#DejaVuSans-46"/>
       <use x="95.410156" xlink:href="#DejaVuSans-57"/>
       <use x="159.033203" xlink:href="#DejaVuSans-56"/>
      </g>
     </g>
    </g>
    <g id="text_17">
     <!-- Accuracy -->
     <defs>
      <path d="M 34.1875 63.1875 
L 20.796875 26.90625 
L 47.609375 26.90625 
z
M 28.609375 72.90625 
L 39.796875 72.90625 
L 67.578125 0 
L 57.328125 0 
L 50.6875 18.703125 
L 17.828125 18.703125 
L 11.1875 0 
L 0.78125 0 
z
" id="DejaVuSans-65"/>
      <path d="M 8.5 21.578125 
L 8.5 54.6875 
L 17.484375 54.6875 
L 17.484375 21.921875 
Q 17.484375 14.15625 20.5 10.265625 
Q 23.53125 6.390625 29.59375 6.390625 
Q 36.859375 6.390625 41.078125 11.03125 
Q 45.3125 15.671875 45.3125 23.6875 
L 45.3125 54.6875 
L 54.296875 54.6875 
L 54.296875 0 
L 45.3125 0 
L 45.3125 8.40625 
Q 42.046875 3.421875 37.71875 1 
Q 33.40625 -1.421875 27.6875 -1.421875 
Q 18.265625 -1.421875 13.375 4.4375 
Q 8.5 10.296875 8.5 21.578125 
z
M 31.109375 56 
z
" id="DejaVuSans-117"/>
      <path d="M 41.109375 46.296875 
Q 39.59375 47.171875 37.8125 47.578125 
Q 36.03125 48 33.890625 48 
Q 26.265625 48 22.1875 43.046875 
Q 18.109375 38.09375 18.109375 28.8125 
L 18.109375 0 
L 9.078125 0 
L 9.078125 54.6875 
L 18.109375 54.6875 
L 18.109375 46.1875 
Q 20.953125 51.171875 25.484375 53.578125 
Q 30.03125 56 36.53125 56 
Q 37.453125 56 38.578125 55.875 
Q 39.703125 55.765625 41.0625 55.515625 
z
" id="DejaVuSans-114"/>
      <path d="M 34.28125 27.484375 
Q 23.390625 27.484375 19.1875 25 
Q 14.984375 22.515625 14.984375 16.5 
Q 14.984375 11.71875 18.140625 8.90625 
Q 21.296875 6.109375 26.703125 6.109375 
Q 34.1875 6.109375 38.703125 11.40625 
Q 43.21875 16.703125 43.21875 25.484375 
L 43.21875 27.484375 
z
M 52.203125 31.203125 
L 52.203125 0 
L 43.21875 0 
L 43.21875 8.296875 
Q 40.140625 3.328125 35.546875 0.953125 
Q 30.953125 -1.421875 24.3125 -1.421875 
Q 15.921875 -1.421875 10.953125 3.296875 
Q 6 8.015625 6 15.921875 
Q 6 25.140625 12.171875 29.828125 
Q 18.359375 34.515625 30.609375 34.515625 
L 43.21875 34.515625 
L 43.21875 35.40625 
Q 43.21875 41.609375 39.140625 45 
Q 35.0625 48.390625 27.6875 48.390625 
Q 23 48.390625 18.546875 47.265625 
Q 14.109375 46.140625 10.015625 43.890625 
L 10.015625 52.203125 
Q 14.9375 54.109375 19.578125 55.046875 
Q 24.21875 56 28.609375 56 
Q 40.484375 56 46.34375 49.84375 
Q 52.203125 43.703125 52.203125 31.203125 
z
" id="DejaVuSans-97"/>
      <path d="M 32.171875 -5.078125 
Q 28.375 -14.84375 24.75 -17.8125 
Q 21.140625 -20.796875 15.09375 -20.796875 
L 7.90625 -20.796875 
L 7.90625 -13.28125 
L 13.1875 -13.28125 
Q 16.890625 -13.28125 18.9375 -11.515625 
Q 21 -9.765625 23.484375 -3.21875 
L 25.09375 0.875 
L 2.984375 54.6875 
L 12.5 54.6875 
L 29.59375 11.921875 
L 46.6875 54.6875 
L 56.203125 54.6875 
z
" id="DejaVuSans-121"/>
     </defs>
     <g transform="translate(14.798438 196.994062)rotate(-90)scale(0.1 -0.1)">
      <use xlink:href="#DejaVuSans-65"/>
      <use x="68.392578" xlink:href="#DejaVuSans-99"/>
      <use x="123.373047" xlink:href="#DejaVuSans-99"/>
      <use x="178.353516" xlink:href="#DejaVuSans-117"/>
      <use x="241.732422" xlink:href="#DejaVuSans-114"/>
      <use x="282.845703" xlink:href="#DejaVuSans-97"/>
      <use x="344.125" xlink:href="#DejaVuSans-99"/>
      <use x="399.105469" xlink:href="#DejaVuSans-121"/>
     </g>
    </g>
   </g>
   <g id="line2d_31">
    <path clip-path="url(#p445b31e07a)" d="M 117.083563 375.715469 
L 117.747903 369.26559 
L 119.023453 368.144472 
L 121.574553 362.640459 
L 124.125653 357.544214 
L 125.401203 356.932684 
L 126.676753 354.078796 
L 127.952303 355.760534 
L 129.227853 351.021025 
L 130.503403 353.365324 
L 131.778953 344.19201 
L 133.054503 341.74589 
L 134.330053 341.236181 
L 135.605604 344.19201 
L 136.881154 341.185271 
L 138.156704 340.981387 
L 139.432254 338.076589 
L 140.707804 337.515969 
L 141.983354 332.929312 
L 143.258904 332.470634 
L 144.534454 327.680215 
L 147.085554 332.572576 
L 148.361104 329.565837 
L 149.636654 330.432161 
L 150.912204 323.603146 
L 152.187754 323.959882 
L 153.463304 319.373346 
L 154.738854 313.818423 
L 156.014404 322.991616 
L 157.289954 317.436693 
L 158.565504 314.277101 
L 159.841055 312.238506 
L 161.116605 313.614539 
L 162.392155 307.550028 
L 163.667705 311.474124 
L 164.943255 314.022186 
L 166.218805 310.301974 
L 167.494355 308.569205 
L 168.769905 304.186431 
L 170.045455 309.945238 
L 171.321005 309.48656 
L 172.596555 302.861429 
L 173.872105 300.007542 
L 175.147655 304.492257 
L 176.423205 297.663242 
L 177.698755 300.772045 
L 178.974305 277.074378 
L 181.525405 263.263618 
L 182.800955 263.161676 
L 184.076506 264.435768 
L 185.352056 258.676961 
L 186.627606 264.282794 
L 187.903156 257.708695 
L 189.178706 256.026957 
L 190.454256 255.211543 
L 191.729806 256.893281 
L 193.005356 257.097165 
L 194.280906 256.587456 
L 195.556456 257.504811 
L 196.832006 253.122038 
L 198.107556 250.675797 
L 199.383106 257.351959 
L 200.658656 252.765302 
L 201.934206 250.726828 
L 203.209756 252.357656 
L 204.485306 251.4403 
L 205.760856 254.701834 
L 207.036406 251.898978 
L 208.311956 252.00092 
L 209.587507 249.758562 
L 210.863057 250.981622 
L 212.138607 249.401826 
L 213.414157 249.860504 
L 214.689707 245.120995 
L 215.965257 247.821909 
L 217.240807 244.917111 
L 219.791907 244.509344 
L 221.067457 247.312321 
L 222.343007 244.815169 
L 223.618557 241.706488 
L 224.894107 246.547939 
L 226.169657 247.465173 
L 227.445207 241.553514 
L 228.720757 244.152608 
L 229.996307 247.567115 
L 231.271857 242.878637 
L 232.547407 240.381486 
L 233.822958 243.948845 
L 235.098508 242.572812 
L 236.374058 238.90351 
L 237.649608 246.853643 
L 238.925158 236.610243 
L 240.200708 242.623722 
L 241.476258 240.07566 
L 242.751808 219.537827 
L 244.027358 215.715552 
L 245.302908 216.327082 
L 246.578458 213.116459 
L 247.854008 212.759723 
L 249.129558 207.816451 
L 250.405108 212.555961 
L 251.680658 212.199225 
L 252.956208 208.98848 
L 254.231758 211.689515 
L 256.782858 211.027075 
L 258.058409 201.395083 
L 259.333959 206.03265 
L 260.609509 203.994177 
L 261.885059 210.160629 
L 263.160609 201.293141 
L 264.436159 207.561536 
L 265.711709 209.294305 
L 266.987259 200.273965 
L 268.262809 201.751819 
L 269.538359 203.739382 
L 270.813909 202.159587 
L 272.089459 208.784717 
L 273.365009 207.71451 
L 274.640559 207.510626 
L 275.916109 205.675914 
L 277.191659 206.338476 
L 278.467209 200.783553 
L 279.742759 202.618264 
L 281.018309 203.178763 
L 282.29386 206.491328 
L 283.56941 205.93083 
L 284.84496 198.795989 
L 286.12051 200.426817 
L 287.39606 199.356609 
L 288.67161 202.414381 
L 289.94716 202.414381 
L 291.22271 206.338476 
L 292.49826 198.235491 
L 293.77381 200.172023 
L 295.04936 203.58653 
L 296.32491 198.337312 
L 297.60046 200.630701 
L 298.87601 208.580834 
L 300.15156 198.897931 
L 301.42711 203.841324 
L 302.70266 200.121113 
L 303.97821 200.987437 
L 305.25376 199.458551 
L 306.529311 186.921761 
L 307.804861 184.067874 
L 309.080411 184.98523 
L 310.355961 180.908161 
L 311.631511 180.806219 
L 312.907061 183.456344 
L 314.182611 181.213986 
L 315.458161 178.003363 
L 316.733711 179.124481 
L 318.009261 177.544685 
L 319.284811 183.354402 
L 320.560361 183.150518 
L 321.835911 177.952331 
L 323.111461 178.156215 
L 324.387011 179.430307 
L 325.662561 175.047533 
L 326.938111 171.429142 
L 328.213661 177.697537 
L 329.489211 174.741708 
L 330.764762 177.238859 
L 332.040312 170.766702 
L 333.315862 176.168651 
L 334.591412 174.334061 
L 335.866962 174.384972 
L 337.142512 175.761005 
L 338.418062 173.926294 
L 339.693612 175.200385 
L 340.969162 175.098443 
L 342.244712 175.149475 
L 343.520262 175.761005 
L 344.795812 170.71567 
L 346.071362 175.200385 
L 347.346912 171.582116 
L 348.622462 173.926294 
L 349.898012 172.193646 
L 351.173562 174.537824 
L 352.449112 168.728107 
L 353.724662 175.098443 
L 355.000213 172.142614 
L 356.275763 172.652324 
L 357.551313 171.123438 
L 358.826863 175.557121 
L 360.102413 169.339758 
L 361.377963 171.734968 
L 362.653513 170.66476 
L 363.929063 171.88782 
L 365.204613 169.900256 
L 366.480163 174.843649 
L 367.755713 168.983022 
L 369.031263 173.926294 
L 370.306813 164.090539 
L 371.582363 157.720203 
L 372.857913 160.217476 
L 374.133463 159.147146 
L 375.409013 161.593388 
L 376.684563 163.682893 
L 377.960113 160.52318 
L 379.235664 163.937687 
L 380.511214 159.147146 
L 381.786764 158.535616 
L 383.062314 158.637558 
L 384.337864 158.026028 
L 385.613414 154.866315 
L 386.888964 157.465409 
L 388.164514 157.006731 
L 389.440064 153.898049 
L 390.715614 154.917347 
L 391.991164 160.981858 
L 393.266714 154.560611 
L 394.542264 158.076939 
L 395.817814 154.764373 
L 397.093364 153.439371 
L 398.368914 153.745197 
L 399.644464 157.618382 
L 400.920014 156.751937 
L 402.195564 157.006731 
L 403.471115 158.7395 
L 404.746665 152.369163 
L 406.022215 153.388461 
L 407.297765 151.55375 
L 408.573315 153.796107 
L 409.848865 157.873176 
L 411.124415 154.305817 
L 412.399965 155.172141 
L 413.675515 156.344291 
L 414.951065 156.140407 
L 416.226615 152.929783 
L 417.502165 156.95582 
L 418.777715 153.337429 
L 420.053265 158.433674 
L 421.328815 151.55375 
L 422.604365 157.618382 
L 423.879915 153.031725 
L 425.155465 153.286519 
L 426.431015 158.994294 
L 427.706566 151.910486 
L 428.982116 155.070199 
L 430.257666 154.764373 
L 431.533216 152.369163 
L 432.808766 153.184577 
L 434.084316 149.515276 
L 435.359866 151.502839 
L 437.910966 144.520973 
L 439.186516 151.808665 
L 440.462066 144.97965 
L 441.737616 147.476802 
L 443.013166 149.260482 
L 444.288716 145.336386 
L 445.564266 149.464366 
L 446.839816 148.54701 
L 448.115366 144.724856 
L 449.390916 145.336386 
L 450.666466 143.094029 
L 451.942017 149.872012 
L 454.493117 144.571883 
L 455.768667 146.865272 
L 457.044217 147.069034 
L 458.319767 146.100769 
L 459.595317 148.292216 
L 460.870867 146.76333 
L 462.146417 143.756591 
L 463.421967 148.54701 
L 464.697517 148.4961 
L 465.973067 145.336386 
L 467.248617 146.76333 
L 468.524167 142.839235 
L 471.075267 147.98639 
L 472.350817 147.170976 
L 473.626367 143.654649 
L 474.901917 141.616053 
L 476.177467 144.215147 
L 477.453018 137.335222 
L 478.728568 139.118902 
L 480.004118 140.545846 
L 481.279668 142.737293 
L 482.555218 147.680686 
L 483.830768 140.392993 
L 485.106318 144.266179 
L 486.381868 145.54027 
L 487.657418 143.297913 
L 488.932968 144.062295 
L 490.208518 142.533409 
L 491.484068 142.839235 
L 492.759618 147.629654 
L 494.035168 141.208407 
L 495.310718 138.813198 
L 496.586268 141.004523 
L 499.137368 140.851671 
L 500.412918 137.7939 
L 502.964019 140.596877 
L 504.239569 140.596877 
L 505.515119 138.96605 
L 506.790669 139.067992 
L 508.066219 142.380557 
L 509.341769 136.265014 
L 510.617319 140.087289 
L 511.892869 138.711256 
L 513.168419 137.641048 
L 514.443969 141.565143 
L 515.719519 136.519808 
L 516.995069 137.997784 
L 518.270619 141.514233 
L 519.546169 137.590016 
L 520.821719 134.277451 
L 522.097269 141.565143 
L 523.372819 145.132503 
L 524.648369 137.946752 
L 525.92392 138.048694 
L 527.19947 134.073688 
L 528.47502 137.488196 
L 529.75057 136.112162 
L 531.02612 139.067992 
L 532.30167 136.57084 
L 533.57722 137.13146 
L 534.85277 138.507372 
L 536.12832 139.01696 
L 537.40387 137.641048 
L 538.67942 135.4496 
L 539.95497 132.748686 
L 541.23052 136.112162 
L 542.50607 141.259317 
L 543.78162 140.342083 
L 545.05717 143.094029 
L 546.33272 133.360216 
L 547.60827 133.818894 
L 548.88382 134.736129 
L 550.159371 137.386254 
L 551.434921 135.857368 
L 552.710471 137.23328 
L 553.986021 137.080428 
L 555.261571 134.22654 
L 556.537121 139.730553 
L 557.812671 134.889102 
L 559.088221 137.23328 
L 560.363771 138.609314 
L 561.639321 133.971746 
L 562.914871 131.423563 
L 564.190421 126.633144 
L 565.465971 133.716952 
L 566.741521 134.83807 
L 568.017071 134.532366 
L 569.292621 138.813198 
L 570.568171 134.17563 
L 571.843721 138.40543 
L 573.119271 131.117859 
L 574.394822 137.18237 
L 575.670372 136.366956 
L 576.945922 129.639883 
L 578.221472 133.258275 
L 579.497022 131.933273 
L 580.772572 131.219801 
L 582.048122 132.238977 
L 583.323672 134.889102 
L 584.599222 133.513069 
L 585.874772 129.843767 
L 587.150322 133.869805 
L 588.425872 133.207243 
L 589.701422 130.149593 
L 590.976972 133.971746 
L 592.252522 134.685218 
L 593.528072 137.641048 
L 594.803622 134.430424 
L 596.079172 134.379393 
L 597.354722 136.978486 
L 598.630273 136.417988 
L 599.905823 134.889102 
L 601.181373 134.481334 
L 602.456923 137.284312 
L 603.732473 132.442861 
L 605.008023 132.799597 
L 606.283573 134.379393 
L 607.559123 134.532366 
L 608.834673 134.073688 
L 610.110223 132.952449 
L 611.385773 130.964885 
L 612.661323 135.194806 
L 613.936873 131.423563 
L 615.212423 132.391951 
L 616.487973 131.933273 
L 617.763523 132.391951 
L 619.039073 132.391951 
L 620.314623 132.086125 
L 621.590173 130.098561 
L 622.865724 134.17563 
L 624.141274 134.328482 
L 625.416824 133.61501 
L 626.692374 131.321621 
L 627.967924 130.659181 
L 630.519024 134.685218 
L 631.794574 132.391951 
L 633.070124 136.417988 
L 634.345674 132.901539 
L 635.621224 132.544803 
L 636.896774 134.277451 
L 638.172324 130.200503 
L 639.447874 134.634187 
L 640.723424 135.500632 
L 641.998974 134.940012 
L 643.274524 131.219801 
L 645.825624 135.245838 
L 647.101175 134.124599 
L 648.376725 133.818894 
L 649.652275 131.015917 
L 650.927825 128.82447 
L 652.203375 129.639883 
L 653.478925 131.780299 
L 654.754475 132.697655 
L 656.030025 131.015917 
L 657.305575 129.639883 
L 658.581125 130.964885 
L 659.856675 136.62175 
L 661.132225 134.22654 
L 662.407775 131.066827 
L 663.683325 136.01022 
L 664.958875 129.436121 
L 666.234425 132.137035 
L 667.509975 136.723692 
L 668.785525 128.620707 
L 670.061075 134.328482 
L 671.336626 129.181206 
L 672.612176 131.168769 
L 673.887726 128.620707 
L 675.163276 132.238977 
L 676.438826 128.875501 
L 677.714376 129.792857 
L 678.989926 134.17563 
L 680.265476 134.277451 
L 681.541026 131.372653 
L 682.816576 129.792857 
L 684.092126 132.137035 
L 686.643226 132.442861 
L 687.918776 131.525505 
L 687.918776 131.525505 
" style="fill:none;stroke:#377eb8;stroke-linecap:square;stroke-width:1.5;"/>
   </g>
   <g id="line2d_32">
    <path clip-path="url(#p445b31e07a)" d="M 108.722894 375.715469 
L 108.819052 371.323018 
L 109.699993 375.715469 
M 110.291905 375.715469 
L 111.370153 364.962888 
L 111.525621 375.715469 
M 114.680903 375.715469 
L 115.196803 319.621822 
L 116.472353 335.419417 
L 117.747903 319.416723 
L 119.023453 317.365127 
L 120.299003 308.543081 
L 121.574553 304.644988 
L 122.850103 302.388171 
L 124.125653 296.028162 
L 125.401203 312.851494 
L 126.676753 344.856881 
L 127.952303 302.183072 
L 129.227853 328.033549 
L 130.503403 282.077065 
L 131.778953 307.927542 
L 133.054503 289.873252 
L 134.330053 289.668032 
L 135.605604 269.151827 
L 136.881154 305.670846 
L 138.156704 306.696584 
L 139.432254 328.033549 
L 140.707804 279.204709 
L 141.983354 293.771346 
L 143.258904 257.867865 
L 144.534454 275.922155 
L 145.810004 308.74818 
L 147.085554 287.206116 
L 148.361104 293.361026 
L 149.636654 293.976444 
L 150.912204 254.174871 
L 152.187754 310.594677 
L 153.463304 267.305329 
L 154.738854 275.306615 
L 156.014404 275.716935 
L 157.289954 282.897703 
L 158.565504 314.082452 
L 159.841055 249.045819 
L 161.116605 255.405828 
L 162.392155 267.715649 
L 163.667705 257.047105 
L 164.943255 301.977852 
L 166.218805 262.586597 
L 167.494355 342.600186 
L 168.769905 234.068864 
L 170.045455 280.846107 
L 171.321005 260.329781 
L 172.596555 255.405828 
L 173.872105 263.202015 
L 175.147655 289.873252 
L 176.423205 274.485977 
L 177.698755 263.612335 
L 178.974305 230.78631 
L 180.249855 219.092029 
L 181.525405 212.937119 
L 182.800955 227.093315 
L 184.076506 229.350132 
L 185.352056 225.452038 
L 186.627606 222.374583 
L 187.903156 216.424893 
L 189.178706 233.043126 
L 190.454256 216.424893 
L 191.729806 214.783616 
L 193.005356 219.297128 
L 194.280906 213.142218 
L 195.556456 230.37599 
L 196.832006 236.5309 
L 198.107556 213.552537 
L 199.383106 258.278185 
L 200.658656 218.476489 
L 201.934206 244.121867 
L 203.209756 231.606948 
L 204.485306 220.733306 
L 205.760856 218.06617 
L 207.036406 213.757757 
L 208.311956 220.733306 
L 209.587507 208.628706 
L 210.863057 210.064763 
L 212.138607 258.278185 
L 213.414157 211.706161 
L 214.689707 217.655851 
L 215.965257 224.836498 
L 217.240807 222.374583 
L 218.516357 210.885523 
L 219.791907 202.678895 
L 221.067457 237.146319 
L 222.343007 216.219673 
L 223.618557 216.629992 
L 224.894107 242.685689 
L 226.169657 213.142218 
L 227.445207 212.5268 
L 228.720757 230.17077 
L 229.996307 221.553944 
L 231.271857 206.987429 
L 232.547407 221.348724 
L 233.822958 223.400442 
L 235.098508 232.017267 
L 236.374058 271.818841 
L 237.649608 230.581089 
L 238.925158 205.140932 
L 240.200708 199.601561 
L 241.476258 230.581089 
L 242.751808 197.549844 
L 244.027358 182.778108 
L 245.302908 187.086521 
L 246.578458 204.525392 
L 247.854008 195.908567 
L 249.129558 205.75635 
L 250.405108 206.782209 
L 251.680658 189.71915 
L 252.956208 195.498248 
L 254.231758 197.139524 
L 255.507308 181.95747 
L 256.782858 183.598747 
L 258.058409 188.727919 
L 259.333959 194.472389 
L 260.609509 204.730613 
L 261.885059 203.704754 
L 263.160609 186.881422 
L 264.436159 180.931611 
L 265.711709 186.060784 
L 266.987259 184.214286 
L 268.262809 181.54715 
L 269.538359 183.188427 
L 270.813909 181.95747 
L 272.089459 194.882708 
L 273.365009 174.981921 
L 274.640559 183.803967 
L 275.916109 186.060784 
L 277.191659 181.136831 
L 278.467209 194.472389 
L 279.742759 177.238738 
L 281.018309 185.034925 
L 282.29386 183.393648 
L 283.56941 185.240145 
L 284.84496 195.087928 
L 286.12051 192.010473 
L 287.39606 190.779516 
L 288.67161 190.163976 
L 289.94716 185.650464 
L 291.22271 187.086521 
L 292.49826 197.960163 
L 293.77381 184.214286 
L 295.04936 204.320293 
L 296.32491 198.165383 
L 297.60046 183.803967 
L 298.87601 184.624605 
L 300.15156 206.166669 
L 301.42711 184.624605 
L 302.70266 187.291741 
L 303.97821 187.907159 
L 305.25376 177.238738 
L 306.529311 164.518598 
L 307.804861 176.623198 
L 309.080411 172.520006 
L 310.355961 176.212879 
L 311.631511 174.161283 
L 312.907061 174.366503 
L 315.458161 162.056683 
L 316.733711 172.725105 
L 318.009261 164.313499 
L 319.284811 172.930325 
L 320.560361 169.442551 
L 321.835911 173.750963 
L 323.111461 184.624605 
L 324.387011 172.930325 
L 325.662561 163.08242 
L 326.938111 170.468409 
L 328.213661 169.23733 
L 329.489211 164.108279 
L 330.764762 174.571602 
L 332.040312 175.187141 
L 333.315862 173.956062 
L 334.591412 180.110972 
L 335.866962 174.366503 
L 337.142512 166.980635 
L 338.418062 169.442551 
L 339.693612 167.801274 
L 340.969162 170.263189 
L 342.244712 186.881422 
L 343.520262 163.90318 
L 344.795812 177.649057 
L 346.071362 179.290334 
L 347.346912 167.185734 
L 348.622462 171.289048 
L 349.898012 175.80256 
L 351.173562 169.85287 
L 352.449112 183.598747 
L 353.724662 170.263189 
L 355.000213 179.290334 
L 356.275763 176.623198 
L 357.551313 171.904466 
L 358.826863 165.749556 
L 360.102413 182.778108 
L 361.377963 185.034925 
L 362.653513 160.620505 
L 363.929063 165.749556 
L 365.204613 171.494147 
L 366.480163 165.544457 
L 367.755713 167.596053 
L 369.031263 171.904466 
L 370.306813 167.390954 
L 371.582363 158.979228 
L 372.857913 162.672101 
L 374.133463 171.289048 
L 375.409013 166.775415 
L 376.684563 169.442551 
L 377.960113 168.621912 
L 379.235664 152.619219 
L 380.511214 169.647649 
L 381.786764 156.106993 
L 383.062314 153.850177 
L 384.337864 165.749556 
L 385.613414 152.413998 
L 386.888964 165.954776 
L 388.164514 168.827011 
L 389.440064 149.131445 
L 390.715614 156.927632 
L 391.991164 158.979228 
L 393.266714 167.390954 
L 394.542264 158.979228 
L 395.817814 169.85287 
L 397.093364 158.363688 
L 398.368914 160.825725 
L 399.644464 162.056683 
L 400.920014 158.774007 
L 402.195564 165.134138 
L 403.471115 161.441143 
L 404.746665 161.441143 
L 406.022215 163.08242 
L 407.297765 162.261782 
L 408.573315 156.106993 
L 409.848865 160.210185 
L 411.124415 169.032231 
L 412.399965 161.646364 
L 413.675515 150.362402 
L 414.951065 156.312092 
L 416.226615 164.723819 
L 417.502165 155.081134 
L 418.777715 156.722411 
L 420.053265 156.106993 
L 421.328815 153.850177 
L 422.604365 157.953369 
L 423.879915 157.337951 
L 425.155465 167.185734 
L 426.431015 160.825725 
L 427.706566 160.825725 
L 428.982116 155.901773 
L 430.257666 157.337951 
L 431.533216 159.594767 
L 432.808766 158.158589 
L 434.084316 157.74827 
L 435.359866 163.08242 
L 436.635416 158.158589 
L 437.910966 161.030824 
L 439.186516 154.465595 
L 440.462066 157.74827 
L 441.737616 155.286233 
L 443.013166 155.901773 
L 444.288716 155.901773 
L 445.564266 158.363688 
L 446.839816 156.106993 
L 448.115366 163.69796 
L 449.390916 157.54305 
L 450.666466 155.491453 
L 451.942017 152.558953 
L 453.217567 153.850177 
L 454.493117 153.439857 
L 455.768667 157.13273 
L 457.044217 156.722411 
L 458.319767 155.081134 
L 459.595317 157.337951 
L 460.870867 155.696552 
L 462.146417 157.74827 
L 463.421967 158.774007 
L 464.697517 161.441143 
L 465.973067 158.568909 
L 467.248617 151.59336 
L 468.524167 158.158589 
L 469.799717 152.824318 
L 471.075267 152.824318 
L 472.350817 158.363688 
L 473.626367 147.900365 
L 474.901917 152.413998 
L 476.177467 152.003679 
L 477.453018 151.38814 
L 478.728568 157.13273 
L 480.004118 165.954776 
L 481.279668 154.875914 
L 482.555218 153.439857 
L 483.830768 159.184327 
L 485.106318 154.670815 
L 486.381868 156.722411 
L 487.657418 171.289048 
L 488.932968 151.59336 
L 490.208518 160.825725 
L 491.484068 155.491453 
L 492.759618 156.722411 
L 494.035168 150.567501 
L 495.310718 154.875914 
L 496.586268 152.003679 
L 497.861818 156.106993 
L 499.137368 152.824318 
L 500.412918 148.721125 
L 501.688469 155.491453 
L 502.964019 156.927632 
L 504.239569 155.491453 
L 505.515119 151.798459 
L 506.790669 156.517312 
L 508.066219 148.105586 
L 509.341769 154.465595 
L 510.617319 146.053989 
L 511.892869 155.901773 
L 513.168419 156.312092 
L 514.443969 152.208778 
L 515.719519 152.208778 
L 516.995069 151.798459 
L 518.270619 156.106993 
L 519.546169 158.568909 
L 520.821719 154.875914 
L 522.097269 150.362402 
L 523.372819 150.157182 
L 524.648369 155.286233 
L 525.92392 157.13273 
L 527.19947 147.079727 
L 528.47502 154.055275 
L 529.75057 148.515905 
L 531.02612 156.106993 
L 532.30167 149.746863 
L 533.57722 170.263189 
L 534.85277 141.130037 
L 536.12832 156.312092 
L 537.40387 154.875914 
L 538.67942 153.029538 
L 539.95497 153.439857 
L 541.23052 148.926224 
L 542.50607 149.131445 
L 543.78162 159.594767 
L 545.05717 162.056683 
L 546.33272 143.386854 
L 547.60827 151.59336 
L 548.88382 156.106993 
L 550.159371 157.13273 
L 551.434921 147.900365 
L 552.710471 155.081134 
L 553.986021 145.028131 
L 555.261571 149.746863 
L 556.537121 156.927632 
L 557.812671 153.234637 
L 559.088221 151.38814 
L 560.363771 152.824318 
L 561.639321 160.825725 
L 562.914871 150.157182 
L 564.190421 154.875914 
L 565.465971 144.82291 
L 566.741521 151.183041 
L 568.017071 158.363688 
L 569.292621 151.798459 
L 570.568171 152.619219 
L 571.843721 156.927632 
L 573.119271 146.464309 
L 574.394822 157.337951 
L 575.670372 153.234637 
L 576.945922 146.669408 
L 578.221472 153.850177 
L 579.497022 154.465595 
L 580.772572 148.515905 
L 583.323672 152.824318 
L 584.599222 156.927632 
L 585.874772 150.772721 
L 587.150322 152.003679 
L 588.425872 149.746863 
L 589.701422 154.465595 
L 590.976972 147.900365 
L 592.252522 150.157182 
L 593.528072 152.003679 
L 594.803622 152.208778 
L 596.079172 148.515905 
L 598.630273 152.619219 
L 599.905823 150.157182 
L 601.181373 150.567501 
L 602.456923 158.363688 
L 603.732473 152.619219 
L 605.008023 144.412591 
L 606.283573 153.850177 
L 607.559123 150.362402 
L 608.834673 152.824318 
L 610.110223 149.952083 
L 611.385773 149.336543 
L 612.661323 154.465595 
L 613.936873 151.798459 
L 615.212423 153.439857 
L 617.763523 152.619219 
L 619.039073 158.568909 
L 620.314623 148.105586 
L 621.590173 151.183041 
L 622.865724 158.979228 
L 624.141274 154.465595 
L 625.416824 152.619219 
L 626.692374 146.874628 
L 627.967924 153.644956 
L 629.243474 148.926224 
L 630.519024 152.208778 
L 631.794574 145.64367 
L 633.070124 156.517312 
L 634.345674 145.43845 
L 635.621224 157.337951 
L 636.896774 147.079727 
L 638.172324 150.772721 
L 639.447874 150.567501 
L 640.723424 155.491453 
L 641.998974 149.541764 
L 643.274524 153.644956 
L 644.550074 150.362402 
L 645.825624 153.850177 
L 647.101175 154.260496 
L 648.376725 151.183041 
L 649.652275 155.286233 
L 650.927825 150.157182 
L 652.203375 151.946451 
L 653.478925 150.157182 
L 654.754475 149.952083 
L 656.030025 153.644956 
L 657.305575 151.798459 
L 658.581125 154.260496 
L 659.856675 154.055275 
L 661.132225 147.900365 
L 662.407775 154.670815 
L 663.683325 150.567501 
L 664.958875 152.003679 
L 666.234425 147.284947 
L 667.509975 155.491453 
L 668.785525 144.82291 
L 670.061075 152.208778 
L 672.612176 153.029538 
L 673.887726 152.413998 
L 675.163276 154.260496 
L 676.438826 151.798459 
L 677.714376 156.517312 
L 678.989926 152.619219 
L 680.265476 151.798459 
L 681.541026 153.439857 
L 682.816576 151.38814 
L 684.092126 147.284947 
L 685.367676 155.491453 
L 686.643226 147.284947 
L 687.918776 153.439857 
L 687.918776 153.439857 
" style="fill:none;stroke:#4daf4a;stroke-linecap:square;stroke-width:1.5;"/>
   </g>
   <g id="patch_3">
    <path d="M 50.14375 337.159219 
L 50.14375 10.999219 
" style="fill:none;stroke:#000000;stroke-linecap:square;stroke-linejoin:miter;stroke-width:0.8;"/>
   </g>
   <g id="patch_4">
    <path d="M 719.74375 337.159219 
L 719.74375 10.999219 
" style="fill:none;stroke:#000000;stroke-linecap:square;stroke-linejoin:miter;stroke-width:0.8;"/>
   </g>
   <g id="patch_5">
    <path d="M 50.14375 337.159219 
L 719.74375 337.159219 
" style="fill:none;stroke:#000000;stroke-linecap:square;stroke-linejoin:miter;stroke-width:0.8;"/>
   </g>
   <g id="patch_6">
    <path d="M 50.14375 10.999219 
L 719.74375 10.999219 
" style="fill:none;stroke:#000000;stroke-linecap:square;stroke-linejoin:miter;stroke-width:0.8;"/>
   </g>
   <g id="legend_1">
    <g id="patch_7">
     <path d="M 57.14375 48.355469 
L 114.584375 48.355469 
Q 116.584375 48.355469 116.584375 46.355469 
L 116.584375 17.999219 
Q 116.584375 15.999219 114.584375 15.999219 
L 57.14375 15.999219 
Q 55.14375 15.999219 55.14375 17.999219 
L 55.14375 46.355469 
Q 55.14375 48.355469 57.14375 48.355469 
z
" style="fill:#ffffff;opacity:0.8;stroke:#cccccc;stroke-linejoin:miter;"/>
    </g>
    <g id="line2d_33">
     <path d="M 59.14375 24.097656 
L 79.14375 24.097656 
" style="fill:none;stroke:#377eb8;stroke-linecap:square;stroke-width:1.5;"/>
    </g>
    <g id="line2d_34"/>
    <g id="text_18">
     <!-- Train -->
     <defs>
      <path d="M -0.296875 72.90625 
L 61.375 72.90625 
L 61.375 64.59375 
L 35.5 64.59375 
L 35.5 0 
L 25.59375 0 
L 25.59375 64.59375 
L -0.296875 64.59375 
z
" id="DejaVuSans-84"/>
      <path d="M 9.421875 54.6875 
L 18.40625 54.6875 
L 18.40625 0 
L 9.421875 0 
z
M 9.421875 75.984375 
L 18.40625 75.984375 
L 18.40625 64.59375 
L 9.421875 64.59375 
z
" id="DejaVuSans-105"/>
      <path d="M 54.890625 33.015625 
L 54.890625 0 
L 45.90625 0 
L 45.90625 32.71875 
Q 45.90625 40.484375 42.875 44.328125 
Q 39.84375 48.1875 33.796875 48.1875 
Q 26.515625 48.1875 22.3125 43.546875 
Q 18.109375 38.921875 18.109375 30.90625 
L 18.109375 0 
L 9.078125 0 
L 9.078125 54.6875 
L 18.109375 54.6875 
L 18.109375 46.1875 
Q 21.34375 51.125 25.703125 53.5625 
Q 30.078125 56 35.796875 56 
Q 45.21875 56 50.046875 50.171875 
Q 54.890625 44.34375 54.890625 33.015625 
z
" id="DejaVuSans-110"/>
     </defs>
     <g transform="translate(87.14375 27.597656)scale(0.1 -0.1)">
      <use xlink:href="#DejaVuSans-84"/>
      <use x="60.865234" xlink:href="#DejaVuSans-114"/>
      <use x="101.978516" xlink:href="#DejaVuSans-97"/>
      <use x="163.257812" xlink:href="#DejaVuSans-105"/>
      <use x="191.041016" xlink:href="#DejaVuSans-110"/>
     </g>
    </g>
    <g id="line2d_35">
     <path d="M 59.14375 38.775781 
L 79.14375 38.775781 
" style="fill:none;stroke:#4daf4a;stroke-linecap:square;stroke-width:1.5;"/>
    </g>
    <g id="line2d_36"/>
    <g id="text_19">
     <!-- Test -->
     <defs>
      <path d="M 56.203125 29.59375 
L 56.203125 25.203125 
L 14.890625 25.203125 
Q 15.484375 15.921875 20.484375 11.0625 
Q 25.484375 6.203125 34.421875 6.203125 
Q 39.59375 6.203125 44.453125 7.46875 
Q 49.3125 8.734375 54.109375 11.28125 
L 54.109375 2.78125 
Q 49.265625 0.734375 44.1875 -0.34375 
Q 39.109375 -1.421875 33.890625 -1.421875 
Q 20.796875 -1.421875 13.15625 6.1875 
Q 5.515625 13.8125 5.515625 26.8125 
Q 5.515625 40.234375 12.765625 48.109375 
Q 20.015625 56 32.328125 56 
Q 43.359375 56 49.78125 48.890625 
Q 56.203125 41.796875 56.203125 29.59375 
z
M 47.21875 32.234375 
Q 47.125 39.59375 43.09375 43.984375 
Q 39.0625 48.390625 32.421875 48.390625 
Q 24.90625 48.390625 20.390625 44.140625 
Q 15.875 39.890625 15.1875 32.171875 
z
" id="DejaVuSans-101"/>
      <path d="M 44.28125 53.078125 
L 44.28125 44.578125 
Q 40.484375 46.53125 36.375 47.5 
Q 32.28125 48.484375 27.875 48.484375 
Q 21.1875 48.484375 17.84375 46.4375 
Q 14.5 44.390625 14.5 40.28125 
Q 14.5 37.15625 16.890625 35.375 
Q 19.28125 33.59375 26.515625 31.984375 
L 29.59375 31.296875 
Q 39.15625 29.25 43.1875 25.515625 
Q 47.21875 21.78125 47.21875 15.09375 
Q 47.21875 7.46875 41.1875 3.015625 
Q 35.15625 -1.421875 24.609375 -1.421875 
Q 20.21875 -1.421875 15.453125 -0.5625 
Q 10.6875 0.296875 5.421875 2 
L 5.421875 11.28125 
Q 10.40625 8.6875 15.234375 7.390625 
Q 20.0625 6.109375 24.8125 6.109375 
Q 31.15625 6.109375 34.5625 8.28125 
Q 37.984375 10.453125 37.984375 14.40625 
Q 37.984375 18.0625 35.515625 20.015625 
Q 33.0625 21.96875 24.703125 23.78125 
L 21.578125 24.515625 
Q 13.234375 26.265625 9.515625 29.90625 
Q 5.8125 33.546875 5.8125 39.890625 
Q 5.8125 47.609375 11.28125 51.796875 
Q 16.75 56 26.8125 56 
Q 31.78125 56 36.171875 55.265625 
Q 40.578125 54.546875 44.28125 53.078125 
z
" id="DejaVuSans-115"/>
      <path d="M 18.3125 70.21875 
L 18.3125 54.6875 
L 36.8125 54.6875 
L 36.8125 47.703125 
L 18.3125 47.703125 
L 18.3125 18.015625 
Q 18.3125 11.328125 20.140625 9.421875 
Q 21.96875 7.515625 27.59375 7.515625 
L 36.8125 7.515625 
L 36.8125 0 
L 27.59375 0 
Q 17.1875 0 13.234375 3.875 
Q 9.28125 7.765625 9.28125 18.015625 
L 9.28125 47.703125 
L 2.6875 47.703125 
L 2.6875 54.6875 
L 9.28125 54.6875 
L 9.28125 70.21875 
z
" id="DejaVuSans-116"/>
     </defs>
     <g transform="translate(87.14375 42.275781)scale(0.1 -0.1)">
      <use xlink:href="#DejaVuSans-84"/>
      <use x="60.818359" xlink:href="#DejaVuSans-101"/>
      <use x="122.341797" xlink:href="#DejaVuSans-115"/>
      <use x="174.441406" xlink:href="#DejaVuSans-116"/>
     </g>
    </g>
   </g>
  </g>
 </g>
 <defs>
  <clipPath id="p445b31e07a">
   <rect height="326.16" width="669.6" x="50.14375" y="10.999219"/>
  </clipPath>
 </defs>
</svg>
