<?xml version="1.0" encoding="utf-8" standalone="no"?>
<!DOCTYPE svg PUBLIC "-//W3C//DTD SVG 1.1//EN"
  "http://www.w3.org/Graphics/SVG/1.1/DTD/svg11.dtd">
<!-- Created with matplotlib (https://matplotlib.org/) -->
<svg height="374.715469pt" version="1.1" viewBox="0 0 726.94375 374.715469" width="726.94375pt" xmlns="http://www.w3.org/2000/svg" xmlns:xlink="http://www.w3.org/1999/xlink">
 <defs>
  <style type="text/css">
*{stroke-linecap:butt;stroke-linejoin:round;white-space:pre;}
  </style>
 </defs>
 <g id="figure_1">
  <g id="patch_1">
   <path d="M 0 374.715469 
L 726.94375 374.715469 
L 726.94375 0 
L 0 0 
z
" style="fill:#ffffff;"/>
  </g>
  <g id="axes_1">
   <g id="patch_2">
    <path d="M 50.14375 337.159219 
L 719.74375 337.159219 
L 719.74375 10.999219 
L 50.14375 10.999219 
z
" style="fill:#ffffff;"/>
   </g>
   <g id="matplotlib.axis_1">
    <g id="xtick_1">
     <g id="line2d_1">
      <path clip-path="url(#p928c35210a)" d="M 50.14375 337.159219 
L 50.14375 10.999219 
" style="fill:none;stroke:#b0b0b0;stroke-linecap:square;stroke-width:0.8;"/>
     </g>
     <g id="line2d_2">
      <defs>
       <path d="M 0 0 
L 0 3.5 
" id="me41a5216fc" style="stroke:#000000;stroke-width:0.8;"/>
      </defs>
      <g>
       <use style="stroke:#000000;stroke-width:0.8;" x="50.14375" xlink:href="#me41a5216fc" y="337.159219"/>
      </g>
     </g>
     <g id="text_1">
      <!-- 0 -->
      <defs>
       <path d="M 31.78125 66.40625 
Q 24.171875 66.40625 20.328125 58.90625 
Q 16.5 51.421875 16.5 36.375 
Q 16.5 21.390625 20.328125 13.890625 
Q 24.171875 6.390625 31.78125 6.390625 
Q 39.453125 6.390625 43.28125 13.890625 
Q 47.125 21.390625 47.125 36.375 
Q 47.125 51.421875 43.28125 58.90625 
Q 39.453125 66.40625 31.78125 66.40625 
z
M 31.78125 74.21875 
Q 44.046875 74.21875 50.515625 64.515625 
Q 56.984375 54.828125 56.984375 36.375 
Q 56.984375 17.96875 50.515625 8.265625 
Q 44.046875 -1.421875 31.78125 -1.421875 
Q 19.53125 -1.421875 13.0625 8.265625 
Q 6.59375 17.96875 6.59375 36.375 
Q 6.59375 54.828125 13.0625 64.515625 
Q 19.53125 74.21875 31.78125 74.21875 
z
" id="DejaVuSans-48"/>
      </defs>
      <g transform="translate(46.9625 351.757656)scale(0.1 -0.1)">
       <use xlink:href="#DejaVuSans-48"/>
      </g>
     </g>
    </g>
    <g id="xtick_2">
     <g id="line2d_3">
      <path clip-path="url(#p928c35210a)" d="M 177.692681 337.159219 
L 177.692681 10.999219 
" style="fill:none;stroke:#b0b0b0;stroke-linecap:square;stroke-width:0.8;"/>
     </g>
     <g id="line2d_4">
      <g>
       <use style="stroke:#000000;stroke-width:0.8;" x="177.692681" xlink:href="#me41a5216fc" y="337.159219"/>
      </g>
     </g>
     <g id="text_2">
      <!-- 200 -->
      <defs>
       <path d="M 19.1875 8.296875 
L 53.609375 8.296875 
L 53.609375 0 
L 7.328125 0 
L 7.328125 8.296875 
Q 12.9375 14.109375 22.625 23.890625 
Q 32.328125 33.6875 34.8125 36.53125 
Q 39.546875 41.84375 41.421875 45.53125 
Q 43.3125 49.21875 43.3125 52.78125 
Q 43.3125 58.59375 39.234375 62.25 
Q 35.15625 65.921875 28.609375 65.921875 
Q 23.96875 65.921875 18.8125 64.3125 
Q 13.671875 62.703125 7.8125 59.421875 
L 7.8125 69.390625 
Q 13.765625 71.78125 18.9375 73 
Q 24.125 74.21875 28.421875 74.21875 
Q 39.75 74.21875 46.484375 68.546875 
Q 53.21875 62.890625 53.21875 53.421875 
Q 53.21875 48.921875 51.53125 44.890625 
Q 49.859375 40.875 45.40625 35.40625 
Q 44.1875 33.984375 37.640625 27.21875 
Q 31.109375 20.453125 19.1875 8.296875 
z
" id="DejaVuSans-50"/>
      </defs>
      <g transform="translate(168.148931 351.757656)scale(0.1 -0.1)">
       <use xlink:href="#DejaVuSans-50"/>
       <use x="63.623047" xlink:href="#DejaVuSans-48"/>
       <use x="127.246094" xlink:href="#DejaVuSans-48"/>
      </g>
     </g>
    </g>
    <g id="xtick_3">
     <g id="line2d_5">
      <path clip-path="url(#p928c35210a)" d="M 305.241612 337.159219 
L 305.241612 10.999219 
" style="fill:none;stroke:#b0b0b0;stroke-linecap:square;stroke-width:0.8;"/>
     </g>
     <g id="line2d_6">
      <g>
       <use style="stroke:#000000;stroke-width:0.8;" x="305.241612" xlink:href="#me41a5216fc" y="337.159219"/>
      </g>
     </g>
     <g id="text_3">
      <!-- 400 -->
      <defs>
       <path d="M 37.796875 64.3125 
L 12.890625 25.390625 
L 37.796875 25.390625 
z
M 35.203125 72.90625 
L 47.609375 72.90625 
L 47.609375 25.390625 
L 58.015625 25.390625 
L 58.015625 17.1875 
L 47.609375 17.1875 
L 47.609375 0 
L 37.796875 0 
L 37.796875 17.1875 
L 4.890625 17.1875 
L 4.890625 26.703125 
z
" id="DejaVuSans-52"/>
      </defs>
      <g transform="translate(295.697862 351.757656)scale(0.1 -0.1)">
       <use xlink:href="#DejaVuSans-52"/>
       <use x="63.623047" xlink:href="#DejaVuSans-48"/>
       <use x="127.246094" xlink:href="#DejaVuSans-48"/>
      </g>
     </g>
    </g>
    <g id="xtick_4">
     <g id="line2d_7">
      <path clip-path="url(#p928c35210a)" d="M 432.790543 337.159219 
L 432.790543 10.999219 
" style="fill:none;stroke:#b0b0b0;stroke-linecap:square;stroke-width:0.8;"/>
     </g>
     <g id="line2d_8">
      <g>
       <use style="stroke:#000000;stroke-width:0.8;" x="432.790543" xlink:href="#me41a5216fc" y="337.159219"/>
      </g>
     </g>
     <g id="text_4">
      <!-- 600 -->
      <defs>
       <path d="M 33.015625 40.375 
Q 26.375 40.375 22.484375 35.828125 
Q 18.609375 31.296875 18.609375 23.390625 
Q 18.609375 15.53125 22.484375 10.953125 
Q 26.375 6.390625 33.015625 6.390625 
Q 39.65625 6.390625 43.53125 10.953125 
Q 47.40625 15.53125 47.40625 23.390625 
Q 47.40625 31.296875 43.53125 35.828125 
Q 39.65625 40.375 33.015625 40.375 
z
M 52.59375 71.296875 
L 52.59375 62.3125 
Q 48.875 64.0625 45.09375 64.984375 
Q 41.3125 65.921875 37.59375 65.921875 
Q 27.828125 65.921875 22.671875 59.328125 
Q 17.53125 52.734375 16.796875 39.40625 
Q 19.671875 43.65625 24.015625 45.921875 
Q 28.375 48.1875 33.59375 48.1875 
Q 44.578125 48.1875 50.953125 41.515625 
Q 57.328125 34.859375 57.328125 23.390625 
Q 57.328125 12.15625 50.6875 5.359375 
Q 44.046875 -1.421875 33.015625 -1.421875 
Q 20.359375 -1.421875 13.671875 8.265625 
Q 6.984375 17.96875 6.984375 36.375 
Q 6.984375 53.65625 15.1875 63.9375 
Q 23.390625 74.21875 37.203125 74.21875 
Q 40.921875 74.21875 44.703125 73.484375 
Q 48.484375 72.75 52.59375 71.296875 
z
" id="DejaVuSans-54"/>
      </defs>
      <g transform="translate(423.246793 351.757656)scale(0.1 -0.1)">
       <use xlink:href="#DejaVuSans-54"/>
       <use x="63.623047" xlink:href="#DejaVuSans-48"/>
       <use x="127.246094" xlink:href="#DejaVuSans-48"/>
      </g>
     </g>
    </g>
    <g id="xtick_5">
     <g id="line2d_9">
      <path clip-path="url(#p928c35210a)" d="M 560.339474 337.159219 
L 560.339474 10.999219 
" style="fill:none;stroke:#b0b0b0;stroke-linecap:square;stroke-width:0.8;"/>
     </g>
     <g id="line2d_10">
      <g>
       <use style="stroke:#000000;stroke-width:0.8;" x="560.339474" xlink:href="#me41a5216fc" y="337.159219"/>
      </g>
     </g>
     <g id="text_5">
      <!-- 800 -->
      <defs>
       <path d="M 31.78125 34.625 
Q 24.75 34.625 20.71875 30.859375 
Q 16.703125 27.09375 16.703125 20.515625 
Q 16.703125 13.921875 20.71875 10.15625 
Q 24.75 6.390625 31.78125 6.390625 
Q 38.8125 6.390625 42.859375 10.171875 
Q 46.921875 13.96875 46.921875 20.515625 
Q 46.921875 27.09375 42.890625 30.859375 
Q 38.875 34.625 31.78125 34.625 
z
M 21.921875 38.8125 
Q 15.578125 40.375 12.03125 44.71875 
Q 8.5 49.078125 8.5 55.328125 
Q 8.5 64.0625 14.71875 69.140625 
Q 20.953125 74.21875 31.78125 74.21875 
Q 42.671875 74.21875 48.875 69.140625 
Q 55.078125 64.0625 55.078125 55.328125 
Q 55.078125 49.078125 51.53125 44.71875 
Q 48 40.375 41.703125 38.8125 
Q 48.828125 37.15625 52.796875 32.3125 
Q 56.78125 27.484375 56.78125 20.515625 
Q 56.78125 9.90625 50.3125 4.234375 
Q 43.84375 -1.421875 31.78125 -1.421875 
Q 19.734375 -1.421875 13.25 4.234375 
Q 6.78125 9.90625 6.78125 20.515625 
Q 6.78125 27.484375 10.78125 32.3125 
Q 14.796875 37.15625 21.921875 38.8125 
z
M 18.3125 54.390625 
Q 18.3125 48.734375 21.84375 45.5625 
Q 25.390625 42.390625 31.78125 42.390625 
Q 38.140625 42.390625 41.71875 45.5625 
Q 45.3125 48.734375 45.3125 54.390625 
Q 45.3125 60.0625 41.71875 63.234375 
Q 38.140625 66.40625 31.78125 66.40625 
Q 25.390625 66.40625 21.84375 63.234375 
Q 18.3125 60.0625 18.3125 54.390625 
z
" id="DejaVuSans-56"/>
      </defs>
      <g transform="translate(550.795724 351.757656)scale(0.1 -0.1)">
       <use xlink:href="#DejaVuSans-56"/>
       <use x="63.623047" xlink:href="#DejaVuSans-48"/>
       <use x="127.246094" xlink:href="#DejaVuSans-48"/>
      </g>
     </g>
    </g>
    <g id="xtick_6">
     <g id="line2d_11">
      <path clip-path="url(#p928c35210a)" d="M 687.888405 337.159219 
L 687.888405 10.999219 
" style="fill:none;stroke:#b0b0b0;stroke-linecap:square;stroke-width:0.8;"/>
     </g>
     <g id="line2d_12">
      <g>
       <use style="stroke:#000000;stroke-width:0.8;" x="687.888405" xlink:href="#me41a5216fc" y="337.159219"/>
      </g>
     </g>
     <g id="text_6">
      <!-- 1000 -->
      <defs>
       <path d="M 12.40625 8.296875 
L 28.515625 8.296875 
L 28.515625 63.921875 
L 10.984375 60.40625 
L 10.984375 69.390625 
L 28.421875 72.90625 
L 38.28125 72.90625 
L 38.28125 8.296875 
L 54.390625 8.296875 
L 54.390625 0 
L 12.40625 0 
z
" id="DejaVuSans-49"/>
      </defs>
      <g transform="translate(675.163405 351.757656)scale(0.1 -0.1)">
       <use xlink:href="#DejaVuSans-49"/>
       <use x="63.623047" xlink:href="#DejaVuSans-48"/>
       <use x="127.246094" xlink:href="#DejaVuSans-48"/>
       <use x="190.869141" xlink:href="#DejaVuSans-48"/>
      </g>
     </g>
    </g>
    <g id="text_7">
     <!-- Epoch -->
     <defs>
      <path d="M 9.8125 72.90625 
L 55.90625 72.90625 
L 55.90625 64.59375 
L 19.671875 64.59375 
L 19.671875 43.015625 
L 54.390625 43.015625 
L 54.390625 34.71875 
L 19.671875 34.71875 
L 19.671875 8.296875 
L 56.78125 8.296875 
L 56.78125 0 
L 9.8125 0 
z
" id="DejaVuSans-69"/>
      <path d="M 18.109375 8.203125 
L 18.109375 -20.796875 
L 9.078125 -20.796875 
L 9.078125 54.6875 
L 18.109375 54.6875 
L 18.109375 46.390625 
Q 20.953125 51.265625 25.265625 53.625 
Q 29.59375 56 35.59375 56 
Q 45.5625 56 51.78125 48.09375 
Q 58.015625 40.1875 58.015625 27.296875 
Q 58.015625 14.40625 51.78125 6.484375 
Q 45.5625 -1.421875 35.59375 -1.421875 
Q 29.59375 -1.421875 25.265625 0.953125 
Q 20.953125 3.328125 18.109375 8.203125 
z
M 48.6875 27.296875 
Q 48.6875 37.203125 44.609375 42.84375 
Q 40.53125 48.484375 33.40625 48.484375 
Q 26.265625 48.484375 22.1875 42.84375 
Q 18.109375 37.203125 18.109375 27.296875 
Q 18.109375 17.390625 22.1875 11.75 
Q 26.265625 6.109375 33.40625 6.109375 
Q 40.53125 6.109375 44.609375 11.75 
Q 48.6875 17.390625 48.6875 27.296875 
z
" id="DejaVuSans-112"/>
      <path d="M 30.609375 48.390625 
Q 23.390625 48.390625 19.1875 42.75 
Q 14.984375 37.109375 14.984375 27.296875 
Q 14.984375 17.484375 19.15625 11.84375 
Q 23.34375 6.203125 30.609375 6.203125 
Q 37.796875 6.203125 41.984375 11.859375 
Q 46.1875 17.53125 46.1875 27.296875 
Q 46.1875 37.015625 41.984375 42.703125 
Q 37.796875 48.390625 30.609375 48.390625 
z
M 30.609375 56 
Q 42.328125 56 49.015625 48.375 
Q 55.71875 40.765625 55.71875 27.296875 
Q 55.71875 13.875 49.015625 6.21875 
Q 42.328125 -1.421875 30.609375 -1.421875 
Q 18.84375 -1.421875 12.171875 6.21875 
Q 5.515625 13.875 5.515625 27.296875 
Q 5.515625 40.765625 12.171875 48.375 
Q 18.84375 56 30.609375 56 
z
" id="DejaVuSans-111"/>
      <path d="M 48.78125 52.59375 
L 48.78125 44.1875 
Q 44.96875 46.296875 41.140625 47.34375 
Q 37.3125 48.390625 33.40625 48.390625 
Q 24.65625 48.390625 19.8125 42.84375 
Q 14.984375 37.3125 14.984375 27.296875 
Q 14.984375 17.28125 19.8125 11.734375 
Q 24.65625 6.203125 33.40625 6.203125 
Q 37.3125 6.203125 41.140625 7.25 
Q 44.96875 8.296875 48.78125 10.40625 
L 48.78125 2.09375 
Q 45.015625 0.34375 40.984375 -0.53125 
Q 36.96875 -1.421875 32.421875 -1.421875 
Q 20.0625 -1.421875 12.78125 6.34375 
Q 5.515625 14.109375 5.515625 27.296875 
Q 5.515625 40.671875 12.859375 48.328125 
Q 20.21875 56 33.015625 56 
Q 37.15625 56 41.109375 55.140625 
Q 45.0625 54.296875 48.78125 52.59375 
z
" id="DejaVuSans-99"/>
      <path d="M 54.890625 33.015625 
L 54.890625 0 
L 45.90625 0 
L 45.90625 32.71875 
Q 45.90625 40.484375 42.875 44.328125 
Q 39.84375 48.1875 33.796875 48.1875 
Q 26.515625 48.1875 22.3125 43.546875 
Q 18.109375 38.921875 18.109375 30.90625 
L 18.109375 0 
L 9.078125 0 
L 9.078125 75.984375 
L 18.109375 75.984375 
L 18.109375 46.1875 
Q 21.34375 51.125 25.703125 53.5625 
Q 30.078125 56 35.796875 56 
Q 45.21875 56 50.046875 50.171875 
Q 54.890625 44.34375 54.890625 33.015625 
z
" id="DejaVuSans-104"/>
     </defs>
     <g transform="translate(369.632813 365.435781)scale(0.1 -0.1)">
      <use xlink:href="#DejaVuSans-69"/>
      <use x="63.183594" xlink:href="#DejaVuSans-112"/>
      <use x="126.660156" xlink:href="#DejaVuSans-111"/>
      <use x="187.841797" xlink:href="#DejaVuSans-99"/>
      <use x="242.822266" xlink:href="#DejaVuSans-104"/>
     </g>
    </g>
   </g>
   <g id="matplotlib.axis_2">
    <g id="ytick_1">
     <g id="line2d_13">
      <path clip-path="url(#p928c35210a)" d="M 50.14375 337.159219 
L 719.74375 337.159219 
" style="fill:none;stroke:#b0b0b0;stroke-linecap:square;stroke-width:0.8;"/>
     </g>
     <g id="line2d_14">
      <defs>
       <path d="M 0 0 
L -3.5 0 
" id="m59a3e3a026" style="stroke:#000000;stroke-width:0.8;"/>
      </defs>
      <g>
       <use style="stroke:#000000;stroke-width:0.8;" x="50.14375" xlink:href="#m59a3e3a026" y="337.159219"/>
      </g>
     </g>
     <g id="text_8">
      <!-- 0.82 -->
      <defs>
       <path d="M 10.6875 12.40625 
L 21 12.40625 
L 21 0 
L 10.6875 0 
z
" id="DejaVuSans-46"/>
      </defs>
      <g transform="translate(20.878125 340.958437)scale(0.1 -0.1)">
       <use xlink:href="#DejaVuSans-48"/>
       <use x="63.623047" xlink:href="#DejaVuSans-46"/>
       <use x="95.410156" xlink:href="#DejaVuSans-56"/>
       <use x="159.033203" xlink:href="#DejaVuSans-50"/>
      </g>
     </g>
    </g>
    <g id="ytick_2">
     <g id="line2d_15">
      <path clip-path="url(#p928c35210a)" d="M 50.14375 296.389219 
L 719.74375 296.389219 
" style="fill:none;stroke:#b0b0b0;stroke-linecap:square;stroke-width:0.8;"/>
     </g>
     <g id="line2d_16">
      <g>
       <use style="stroke:#000000;stroke-width:0.8;" x="50.14375" xlink:href="#m59a3e3a026" y="296.389219"/>
      </g>
     </g>
     <g id="text_9">
      <!-- 0.84 -->
      <g transform="translate(20.878125 300.188437)scale(0.1 -0.1)">
       <use xlink:href="#DejaVuSans-48"/>
       <use x="63.623047" xlink:href="#DejaVuSans-46"/>
       <use x="95.410156" xlink:href="#DejaVuSans-56"/>
       <use x="159.033203" xlink:href="#DejaVuSans-52"/>
      </g>
     </g>
    </g>
    <g id="ytick_3">
     <g id="line2d_17">
      <path clip-path="url(#p928c35210a)" d="M 50.14375 255.619219 
L 719.74375 255.619219 
" style="fill:none;stroke:#b0b0b0;stroke-linecap:square;stroke-width:0.8;"/>
     </g>
     <g id="line2d_18">
      <g>
       <use style="stroke:#000000;stroke-width:0.8;" x="50.14375" xlink:href="#m59a3e3a026" y="255.619219"/>
      </g>
     </g>
     <g id="text_10">
      <!-- 0.86 -->
      <g transform="translate(20.878125 259.418437)scale(0.1 -0.1)">
       <use xlink:href="#DejaVuSans-48"/>
       <use x="63.623047" xlink:href="#DejaVuSans-46"/>
       <use x="95.410156" xlink:href="#DejaVuSans-56"/>
       <use x="159.033203" xlink:href="#DejaVuSans-54"/>
      </g>
     </g>
    </g>
    <g id="ytick_4">
     <g id="line2d_19">
      <path clip-path="url(#p928c35210a)" d="M 50.14375 214.849219 
L 719.74375 214.849219 
" style="fill:none;stroke:#b0b0b0;stroke-linecap:square;stroke-width:0.8;"/>
     </g>
     <g id="line2d_20">
      <g>
       <use style="stroke:#000000;stroke-width:0.8;" x="50.14375" xlink:href="#m59a3e3a026" y="214.849219"/>
      </g>
     </g>
     <g id="text_11">
      <!-- 0.88 -->
      <g transform="translate(20.878125 218.648437)scale(0.1 -0.1)">
       <use xlink:href="#DejaVuSans-48"/>
       <use x="63.623047" xlink:href="#DejaVuSans-46"/>
       <use x="95.410156" xlink:href="#DejaVuSans-56"/>
       <use x="159.033203" xlink:href="#DejaVuSans-56"/>
      </g>
     </g>
    </g>
    <g id="ytick_5">
     <g id="line2d_21">
      <path clip-path="url(#p928c35210a)" d="M 50.14375 174.079219 
L 719.74375 174.079219 
" style="fill:none;stroke:#b0b0b0;stroke-linecap:square;stroke-width:0.8;"/>
     </g>
     <g id="line2d_22">
      <g>
       <use style="stroke:#000000;stroke-width:0.8;" x="50.14375" xlink:href="#m59a3e3a026" y="174.079219"/>
      </g>
     </g>
     <g id="text_12">
      <!-- 0.90 -->
      <defs>
       <path d="M 10.984375 1.515625 
L 10.984375 10.5 
Q 14.703125 8.734375 18.5 7.8125 
Q 22.3125 6.890625 25.984375 6.890625 
Q 35.75 6.890625 40.890625 13.453125 
Q 46.046875 20.015625 46.78125 33.40625 
Q 43.953125 29.203125 39.59375 26.953125 
Q 35.25 24.703125 29.984375 24.703125 
Q 19.046875 24.703125 12.671875 31.3125 
Q 6.296875 37.9375 6.296875 49.421875 
Q 6.296875 60.640625 12.9375 67.421875 
Q 19.578125 74.21875 30.609375 74.21875 
Q 43.265625 74.21875 49.921875 64.515625 
Q 56.59375 54.828125 56.59375 36.375 
Q 56.59375 19.140625 48.40625 8.859375 
Q 40.234375 -1.421875 26.421875 -1.421875 
Q 22.703125 -1.421875 18.890625 -0.6875 
Q 15.09375 0.046875 10.984375 1.515625 
z
M 30.609375 32.421875 
Q 37.25 32.421875 41.125 36.953125 
Q 45.015625 41.5 45.015625 49.421875 
Q 45.015625 57.28125 41.125 61.84375 
Q 37.25 66.40625 30.609375 66.40625 
Q 23.96875 66.40625 20.09375 61.84375 
Q 16.21875 57.28125 16.21875 49.421875 
Q 16.21875 41.5 20.09375 36.953125 
Q 23.96875 32.421875 30.609375 32.421875 
z
" id="DejaVuSans-57"/>
      </defs>
      <g transform="translate(20.878125 177.878437)scale(0.1 -0.1)">
       <use xlink:href="#DejaVuSans-48"/>
       <use x="63.623047" xlink:href="#DejaVuSans-46"/>
       <use x="95.410156" xlink:href="#DejaVuSans-57"/>
       <use x="159.033203" xlink:href="#DejaVuSans-48"/>
      </g>
     </g>
    </g>
    <g id="ytick_6">
     <g id="line2d_23">
      <path clip-path="url(#p928c35210a)" d="M 50.14375 133.309219 
L 719.74375 133.309219 
" style="fill:none;stroke:#b0b0b0;stroke-linecap:square;stroke-width:0.8;"/>
     </g>
     <g id="line2d_24">
      <g>
       <use style="stroke:#000000;stroke-width:0.8;" x="50.14375" xlink:href="#m59a3e3a026" y="133.309219"/>
      </g>
     </g>
     <g id="text_13">
      <!-- 0.92 -->
      <g transform="translate(20.878125 137.108437)scale(0.1 -0.1)">
       <use xlink:href="#DejaVuSans-48"/>
       <use x="63.623047" xlink:href="#DejaVuSans-46"/>
       <use x="95.410156" xlink:href="#DejaVuSans-57"/>
       <use x="159.033203" xlink:href="#DejaVuSans-50"/>
      </g>
     </g>
    </g>
    <g id="ytick_7">
     <g id="line2d_25">
      <path clip-path="url(#p928c35210a)" d="M 50.14375 92.539219 
L 719.74375 92.539219 
" style="fill:none;stroke:#b0b0b0;stroke-linecap:square;stroke-width:0.8;"/>
     </g>
     <g id="line2d_26">
      <g>
       <use style="stroke:#000000;stroke-width:0.8;" x="50.14375" xlink:href="#m59a3e3a026" y="92.539219"/>
      </g>
     </g>
     <g id="text_14">
      <!-- 0.94 -->
      <g transform="translate(20.878125 96.338437)scale(0.1 -0.1)">
       <use xlink:href="#DejaVuSans-48"/>
       <use x="63.623047" xlink:href="#DejaVuSans-46"/>
       <use x="95.410156" xlink:href="#DejaVuSans-57"/>
       <use x="159.033203" xlink:href="#DejaVuSans-52"/>
      </g>
     </g>
    </g>
    <g id="ytick_8">
     <g id="line2d_27">
      <path clip-path="url(#p928c35210a)" d="M 50.14375 51.769219 
L 719.74375 51.769219 
" style="fill:none;stroke:#b0b0b0;stroke-linecap:square;stroke-width:0.8;"/>
     </g>
     <g id="line2d_28">
      <g>
       <use style="stroke:#000000;stroke-width:0.8;" x="50.14375" xlink:href="#m59a3e3a026" y="51.769219"/>
      </g>
     </g>
     <g id="text_15">
      <!-- 0.96 -->
      <g transform="translate(20.878125 55.568437)scale(0.1 -0.1)">
       <use xlink:href="#DejaVuSans-48"/>
       <use x="63.623047" xlink:href="#DejaVuSans-46"/>
       <use x="95.410156" xlink:href="#DejaVuSans-57"/>
       <use x="159.033203" xlink:href="#DejaVuSans-54"/>
      </g>
     </g>
    </g>
    <g id="ytick_9">
     <g id="line2d_29">
      <path clip-path="url(#p928c35210a)" d="M 50.14375 10.999219 
L 719.74375 10.999219 
" style="fill:none;stroke:#b0b0b0;stroke-linecap:square;stroke-width:0.8;"/>
     </g>
     <g id="line2d_30">
      <g>
       <use style="stroke:#000000;stroke-width:0.8;" x="50.14375" xlink:href="#m59a3e3a026" y="10.999219"/>
      </g>
     </g>
     <g id="text_16">
      <!-- 0.98 -->
      <g transform="translate(20.878125 14.798437)scale(0.1 -0.1)">
       <use xlink:href="#DejaVuSans-48"/>
       <use x="63.623047" xlink:href="#DejaVuSans-46"/>
       <use x="95.410156" xlink:href="#DejaVuSans-57"/>
       <use x="159.033203" xlink:href="#DejaVuSans-56"/>
      </g>
     </g>
    </g>
    <g id="text_17">
     <!-- Accuracy -->
     <defs>
      <path d="M 34.1875 63.1875 
L 20.796875 26.90625 
L 47.609375 26.90625 
z
M 28.609375 72.90625 
L 39.796875 72.90625 
L 67.578125 0 
L 57.328125 0 
L 50.6875 18.703125 
L 17.828125 18.703125 
L 11.1875 0 
L 0.78125 0 
z
" id="DejaVuSans-65"/>
      <path d="M 8.5 21.578125 
L 8.5 54.6875 
L 17.484375 54.6875 
L 17.484375 21.921875 
Q 17.484375 14.15625 20.5 10.265625 
Q 23.53125 6.390625 29.59375 6.390625 
Q 36.859375 6.390625 41.078125 11.03125 
Q 45.3125 15.671875 45.3125 23.6875 
L 45.3125 54.6875 
L 54.296875 54.6875 
L 54.296875 0 
L 45.3125 0 
L 45.3125 8.40625 
Q 42.046875 3.421875 37.71875 1 
Q 33.40625 -1.421875 27.6875 -1.421875 
Q 18.265625 -1.421875 13.375 4.4375 
Q 8.5 10.296875 8.5 21.578125 
z
M 31.109375 56 
z
" id="DejaVuSans-117"/>
      <path d="M 41.109375 46.296875 
Q 39.59375 47.171875 37.8125 47.578125 
Q 36.03125 48 33.890625 48 
Q 26.265625 48 22.1875 43.046875 
Q 18.109375 38.09375 18.109375 28.8125 
L 18.109375 0 
L 9.078125 0 
L 9.078125 54.6875 
L 18.109375 54.6875 
L 18.109375 46.1875 
Q 20.953125 51.171875 25.484375 53.578125 
Q 30.03125 56 36.53125 56 
Q 37.453125 56 38.578125 55.875 
Q 39.703125 55.765625 41.0625 55.515625 
z
" id="DejaVuSans-114"/>
      <path d="M 34.28125 27.484375 
Q 23.390625 27.484375 19.1875 25 
Q 14.984375 22.515625 14.984375 16.5 
Q 14.984375 11.71875 18.140625 8.90625 
Q 21.296875 6.109375 26.703125 6.109375 
Q 34.1875 6.109375 38.703125 11.40625 
Q 43.21875 16.703125 43.21875 25.484375 
L 43.21875 27.484375 
z
M 52.203125 31.203125 
L 52.203125 0 
L 43.21875 0 
L 43.21875 8.296875 
Q 40.140625 3.328125 35.546875 0.953125 
Q 30.953125 -1.421875 24.3125 -1.421875 
Q 15.921875 -1.421875 10.953125 3.296875 
Q 6 8.015625 6 15.921875 
Q 6 25.140625 12.171875 29.828125 
Q 18.359375 34.515625 30.609375 34.515625 
L 43.21875 34.515625 
L 43.21875 35.40625 
Q 43.21875 41.609375 39.140625 45 
Q 35.0625 48.390625 27.6875 48.390625 
Q 23 48.390625 18.546875 47.265625 
Q 14.109375 46.140625 10.015625 43.890625 
L 10.015625 52.203125 
Q 14.9375 54.109375 19.578125 55.046875 
Q 24.21875 56 28.609375 56 
Q 40.484375 56 46.34375 49.84375 
Q 52.203125 43.703125 52.203125 31.203125 
z
" id="DejaVuSans-97"/>
      <path d="M 32.171875 -5.078125 
Q 28.375 -14.84375 24.75 -17.8125 
Q 21.140625 -20.796875 15.09375 -20.796875 
L 7.90625 -20.796875 
L 7.90625 -13.28125 
L 13.1875 -13.28125 
Q 16.890625 -13.28125 18.9375 -11.515625 
Q 21 -9.765625 23.484375 -3.21875 
L 25.09375 0.875 
L 2.984375 54.6875 
L 12.5 54.6875 
L 29.59375 11.921875 
L 46.6875 54.6875 
L 56.203125 54.6875 
z
" id="DejaVuSans-121"/>
     </defs>
     <g transform="translate(14.798438 196.994062)rotate(-90)scale(0.1 -0.1)">
      <use xlink:href="#DejaVuSans-65"/>
      <use x="68.392578" xlink:href="#DejaVuSans-99"/>
      <use x="123.373047" xlink:href="#DejaVuSans-99"/>
      <use x="178.353516" xlink:href="#DejaVuSans-117"/>
      <use x="241.732422" xlink:href="#DejaVuSans-114"/>
      <use x="282.845703" xlink:href="#DejaVuSans-97"/>
      <use x="344.125" xlink:href="#DejaVuSans-99"/>
      <use x="399.105469" xlink:href="#DejaVuSans-121"/>
     </g>
    </g>
   </g>
   <g id="line2d_31">
    <path clip-path="url(#p928c35210a)" d="M 75.417192 375.715469 
L 75.653536 369.010796 
L 76.291281 364.067403 
L 78.204515 373.444479 
L 78.348045 375.715469 
M 85.645331 375.715469 
L 87.13294 358.308596 
L 87.770685 353.569087 
L 89.046174 334.865966 
L 89.683919 335.273612 
L 90.321663 342.816098 
L 90.959408 347.657549 
L 91.597153 355.097972 
L 92.234897 361.213515 
L 92.872642 360.703927 
L 93.848963 375.715469 
M 96.344726 375.715469 
L 96.69911 374.667661 
L 97.336854 370.641623 
L 97.974599 367.431 
L 99.887833 337.566879 
L 100.525578 331.400427 
L 101.163322 323.75612 
L 101.801067 311.015446 
L 102.438812 323.908972 
L 103.076556 329.056127 
L 103.714301 329.463895 
L 104.352046 336.598614 
L 104.98979 345.97569 
L 105.627535 347.09693 
L 106.26528 358.410538 
L 106.903024 364.729964 
L 107.540769 366.972322 
L 108.178514 366.462613 
L 108.816258 362.844343 
L 109.454003 365.035669 
L 110.091748 357.187478 
L 110.729492 354.537474 
L 111.367237 334.814934 
L 112.004981 331.961046 
L 112.642726 330.024514 
L 113.280471 317.232931 
L 113.918215 308.314411 
L 114.55596 278.501322 
L 115.193705 268.410773 
L 115.831449 271.060899 
L 116.469194 272.99743 
L 117.106939 278.909089 
L 117.744683 276.615822 
L 118.382428 275.647434 
L 119.020173 280.539917 
L 119.657917 281.100415 
L 120.295662 294.401709 
L 120.933407 289.71311 
L 121.571151 286.09484 
L 122.208896 283.546657 
L 122.846641 274.424374 
L 123.484385 277.78785 
L 124.12213 269.430071 
L 125.397619 263.97709 
L 126.673109 248.841207 
L 127.310853 244.611286 
L 128.586343 251.134474 
L 129.224087 252.765302 
L 129.861832 255.211543 
L 130.499576 264.180974 
L 131.137321 268.207011 
L 131.775066 266.321389 
L 133.050555 280.183181 
L 133.6883 278.807148 
L 134.326044 280.386943 
L 134.963789 272.691605 
L 136.877023 260.868408 
L 137.514768 254.498072 
L 138.152512 255.058691 
L 138.790257 249.197943 
L 139.428002 245.681493 
L 140.065746 237.425656 
L 140.703491 244.611286 
L 141.341236 238.597685 
L 141.97898 243.897814 
L 143.25447 252.153772 
L 143.892214 262.142379 
L 144.529959 266.627094 
L 145.167704 268.461805 
L 145.805448 268.920483 
L 146.443193 273.914786 
L 147.080937 274.679168 
L 147.718682 271.009867 
L 148.356427 270.296395 
L 148.994171 261.836674 
L 149.631916 259.288491 
L 150.907405 242.368928 
L 151.54515 238.444833 
L 152.182895 236.355449 
L 152.820639 228.252342 
L 153.458384 231.157262 
L 154.096129 239.260246 
L 154.733873 243.694051 
L 155.371618 241.91025 
L 156.009363 250.21724 
L 156.647107 249.605589 
L 157.284852 255.568279 
L 157.922597 264.843414 
L 158.560341 270.755073 
L 159.198086 271.468545 
L 159.835831 272.691605 
L 160.473575 261.683701 
L 161.11132 264.028 
L 161.749065 255.160512 
L 162.386809 248.892117 
L 163.024554 247.159469 
L 163.662299 248.331619 
L 164.300043 233.399619 
L 164.937788 236.763095 
L 165.575532 230.54561 
L 166.213277 228.507136 
L 166.851022 229.730318 
L 167.488766 234.164001 
L 168.764256 243.897814 
L 169.402 255.975926 
L 170.039745 253.886542 
L 170.67749 255.721132 
L 171.315234 267.493539 
L 171.952979 262.448204 
L 172.590724 268.359863 
L 173.228468 258.116341 
L 173.866213 257.555843 
L 174.503958 256.536545 
L 175.141702 247.159469 
L 175.779447 247.567115 
L 176.417192 235.183299 
L 177.692681 226.162837 
L 178.330426 205.93083 
L 178.96817 200.681611 
L 179.605915 203.637441 
L 180.24366 203.331736 
L 180.881404 202.261528 
L 181.519149 202.108555 
L 182.156893 208.835628 
L 182.794638 209.447158 
L 183.432383 213.371253 
L 184.070127 208.275008 
L 184.707872 210.211661 
L 185.345617 212.861665 
L 185.983361 208.529923 
L 186.621106 202.873058 
L 187.258851 202.414381 
L 187.896595 206.134592 
L 188.53434 197.063341 
L 189.172085 194.05648 
L 189.809829 191.661271 
L 190.447574 187.176555 
L 191.085319 189.418913 
L 191.723063 183.405312 
L 192.360808 185.64767 
L 192.998553 189.113209 
L 193.636297 197.267104 
L 194.274042 194.00557 
L 194.911787 197.470988 
L 195.549531 197.57293 
L 196.187276 200.732643 
L 196.825021 205.472152 
L 197.462765 206.59327 
L 198.10051 203.178763 
L 198.738255 201.751819 
L 199.375999 201.802851 
L 200.013744 194.311274 
L 200.651488 193.139246 
L 201.289233 187.686265 
L 201.926978 187.686265 
L 202.564722 184.118784 
L 203.202467 182.69184 
L 203.840212 176.321625 
L 204.477956 180.449483 
L 205.115701 174.996502 
L 205.753446 184.220726 
L 206.39119 187.533291 
L 207.028935 187.533291 
L 207.66668 188.450647 
L 208.304424 193.190156 
L 208.942169 201.344173 
L 209.579914 204.045208 
L 210.217658 209.905835 
L 210.855403 201.140289 
L 211.493148 207.255832 
L 212.130892 197.57293 
L 212.768637 192.629536 
L 213.406382 190.998709 
L 214.044126 191.865154 
L 214.681871 185.851554 
L 215.319616 184.47552 
L 215.95736 178.360099 
L 216.595105 171.123438 
L 217.232849 177.799479 
L 217.870594 173.824352 
L 218.508339 179.990926 
L 219.146083 187.278497 
L 219.783828 191.151682 
L 220.421573 186.921761 
L 221.059317 190.896888 
L 221.697062 196.451811 
L 222.334807 196.044044 
L 222.972551 207.255832 
L 223.610296 205.472152 
L 224.248041 205.93083 
L 224.885785 190.387179 
L 225.52353 189.775649 
L 226.161275 189.724739 
L 226.799019 189.877591 
L 228.074509 179.481217 
L 228.712253 177.901421 
L 229.349998 177.646627 
L 229.987743 171.123438 
L 230.625487 178.360099 
L 231.263232 177.340801 
L 231.900977 185.240024 
L 232.538721 187.635233 
L 233.176466 189.418913 
L 233.81421 196.604664 
L 234.451955 194.6171 
L 235.0897 198.948963 
L 235.727444 201.548057 
L 237.002934 198.948963 
L 237.640678 192.22189 
L 238.278423 196.655574 
L 238.916168 186.106348 
L 239.553912 186.055437 
L 240.191657 186.463084 
L 240.829402 176.270593 
L 241.467146 174.130178 
L 242.742636 154.560611 
L 243.38038 153.898049 
L 244.018125 159.045326 
L 244.65587 158.433674 
L 245.293614 164.039629 
L 245.931359 157.924086 
L 246.569104 159.452972 
L 247.206848 159.86074 
L 247.844593 164.141571 
L 248.482338 167.505047 
L 249.757827 161.74624 
L 250.395572 159.91165 
L 251.033316 156.497143 
L 252.308805 157.261646 
L 252.94655 150.993251 
L 253.584295 151.349987 
L 254.222039 147.782628 
L 254.859784 143.144939 
L 255.497529 147.578744 
L 256.135273 148.139364 
L 256.773018 144.317089 
L 257.410763 151.044162 
L 258.048507 153.337429 
L 258.686252 154.611521 
L 259.323997 155.070199 
L 259.961741 152.063459 
L 260.599486 156.497143 
L 261.237231 158.994294 
L 261.874975 158.79041 
L 262.51272 156.853879 
L 263.150465 158.331854 
L 263.788209 157.312556 
L 264.425954 155.376025 
L 265.063699 146.304652 
L 265.701443 149.617218 
L 266.339188 146.661388 
L 266.976933 146.457504 
L 267.614677 142.380557 
L 268.252422 142.482499 
L 268.890166 142.125763 
L 269.527911 143.756591 
L 270.165656 143.603617 
L 270.8034 151.044162 
L 271.441145 148.292216 
L 272.07889 151.55375 
L 272.716634 152.827841 
L 273.354379 156.395201 
L 273.992124 153.388461 
L 274.629868 157.006731 
L 275.267613 153.999991 
L 275.905358 155.324993 
L 276.543102 155.732761 
L 277.180847 148.59792 
L 277.818592 148.903746 
L 278.456336 146.76333 
L 279.094081 145.693122 
L 279.731826 144.113326 
L 280.36957 139.832374 
L 281.64506 141.412291 
L 282.282804 143.807501 
L 282.920549 145.132503 
L 283.558294 143.094029 
L 284.196038 143.399733 
L 284.833783 149.923044 
L 285.471528 150.534573 
L 286.109272 154.101933 
L 286.747017 154.713463 
L 287.384761 152.980693 
L 288.022506 156.701026 
L 288.660251 149.668128 
L 289.297995 147.476802 
L 289.93574 151.502839 
L 290.573485 147.93548 
L 291.211229 142.074731 
L 291.848974 144.877709 
L 292.486719 136.774724 
L 293.124463 136.316046 
L 293.762208 139.322786 
L 294.399953 138.201668 
L 295.675442 142.278615 
L 296.313187 145.897006 
L 296.950931 148.648952 
L 297.588676 142.992087 
L 298.226421 152.114369 
L 298.864165 151.349987 
L 299.50191 153.133667 
L 300.139655 156.548174 
L 300.777399 157.363467 
L 302.052889 147.272918 
L 302.690633 148.445068 
L 303.328378 142.584441 
L 303.966122 141.463201 
L 304.603867 142.380557 
L 305.241612 142.584441 
L 305.879356 135.296748 
L 306.517101 131.525505 
L 307.154846 124.492728 
L 307.79259 125.155168 
L 308.430335 128.416823 
L 309.06808 130.608149 
L 309.705824 131.525505 
L 310.343569 130.506329 
L 310.981314 129.843767 
L 311.619058 132.646745 
L 312.256803 132.595713 
L 312.894548 131.627447 
L 313.532292 128.569676 
L 314.170037 130.353355 
L 314.807782 128.009177 
L 315.445526 129.588973 
L 316.083271 121.893634 
L 316.721016 129.079385 
L 317.35876 123.524462 
L 317.996505 121.282105 
L 318.63425 121.282105 
L 319.271994 124.135992 
L 319.909739 123.779256 
L 321.185228 119.396483 
L 322.460717 123.98314 
L 323.098462 124.237934 
L 323.736207 134.430424 
L 325.011696 124.390786 
L 325.649441 132.137035 
L 326.287185 126.837028 
L 326.92493 130.964885 
L 327.562675 126.021614 
L 328.200419 122.199339 
L 328.838164 122.963842 
L 329.475909 119.243509 
L 330.113653 117.918507 
L 330.751398 120.466691 
L 331.389143 117.765655 
L 332.026887 118.326275 
L 332.664632 118.683011 
L 333.302377 116.083917 
L 333.940121 122.097518 
L 334.577866 119.498425 
L 335.215611 120.976279 
L 335.853355 117.001273 
L 336.4911 124.696612 
L 337.128845 126.225376 
L 337.766589 122.709048 
L 338.404334 121.434957 
L 339.042078 122.352312 
L 339.679823 128.518765 
L 340.317568 127.091822 
L 340.955312 122.301281 
L 341.593057 120.211897 
L 342.230802 121.333015 
L 342.868546 113.28094 
L 343.506291 116.695447 
L 344.144036 119.090657 
L 344.78178 115.67615 
L 345.419525 118.428217 
L 346.05727 119.906071 
L 346.695014 122.454254 
L 347.332759 115.421356 
L 347.970504 118.784953 
L 349.245993 123.932108 
L 349.883738 121.078221 
L 350.521482 125.002316 
L 351.159227 121.180163 
L 351.796972 119.702187 
L 352.434716 120.823427 
L 353.072461 121.689751 
L 353.710206 117.714745 
L 354.34795 118.122391 
L 354.985695 118.377185 
L 355.62344 119.345451 
L 356.261184 116.491564 
L 356.898929 116.440653 
L 357.536673 115.62524 
L 358.812163 118.886773 
L 359.449907 114.809826 
L 360.087652 114.300238 
L 360.725397 116.185859 
L 361.363141 123.269547 
L 362.000886 118.275243 
L 362.638631 122.199339 
L 363.276375 123.47343 
L 363.91412 122.658017 
L 364.551865 119.141689 
L 365.189609 123.98314 
L 365.827354 118.581069 
L 366.465099 118.937805 
L 367.102843 117.205036 
L 367.740588 116.695447 
L 368.378333 118.733921 
L 369.016077 119.345451 
L 369.653822 109.866433 
L 370.291567 111.701144 
L 370.929311 110.630936 
L 371.567056 105.840395 
L 372.204801 109.102051 
L 372.842545 111.650113 
L 373.48029 107.165397 
L 374.118034 109.203993 
L 374.755779 110.630936 
L 375.393524 107.827959 
L 376.031268 113.28094 
L 376.669013 111.395318 
L 377.306758 108.643373 
L 377.944502 113.026146 
L 378.582247 107.573165 
L 379.219992 108.949199 
L 379.857736 107.420313 
L 380.495481 109.968375 
L 381.133226 110.2742 
L 381.77097 104.056716 
L 382.408715 105.687543 
L 383.04646 104.87213 
L 383.684204 107.827959 
L 384.321949 106.502957 
L 384.959694 103.801922 
L 385.597438 107.929901 
L 386.235183 105.942337 
L 386.872928 107.471223 
L 387.510672 105.993369 
L 388.148417 110.579905 
L 388.786162 108.694283 
L 389.423906 106.451925 
L 390.061651 105.024982 
L 391.33714 106.146221 
L 391.974885 104.923161 
L 392.612629 107.369281 
L 393.250374 108.898167 
L 393.888119 106.146221 
L 394.525863 105.381718 
L 395.163608 101.049976 
L 395.801353 104.158658 
L 396.439097 106.655809 
L 397.076842 108.133785 
L 397.714587 104.362541 
L 398.352331 101.30477 
L 398.990076 101.9163 
L 399.627821 104.158658 
L 400.265565 104.464483 
L 400.90331 107.318371 
L 401.541055 104.668246 
L 402.816544 106.299073 
L 403.454289 104.923161 
L 404.092033 104.464483 
L 404.729778 100.489356 
L 405.367523 101.049976 
L 406.005267 103.69998 
L 406.643012 102.52783 
L 407.280757 102.47692 
L 407.918501 98.094147 
L 408.556246 103.751012 
L 409.19399 102.374978 
L 410.46948 107.063577 
L 411.107224 98.90956 
L 411.744969 102.374978 
L 412.382714 104.87213 
L 413.020458 106.604899 
L 413.658203 104.005806 
L 414.295948 108.082753 
L 414.933692 104.2606 
L 415.571437 104.719277 
L 416.209182 102.069152 
L 416.846926 103.954774 
L 417.484671 103.64907 
L 418.122416 101.814358 
L 418.76016 101.9163 
L 419.397905 100.285472 
L 420.03565 105.024982 
L 420.673394 101.100886 
L 421.311139 99.368238 
L 421.948884 101.202828 
L 422.586628 101.25386 
L 423.224373 100.998944 
L 423.862118 103.598038 
L 424.499862 105.177955 
L 425.137607 101.814358 
L 425.775352 99.673943 
L 426.413096 102.324068 
L 427.050841 107.369281 
L 427.688585 102.374978 
L 428.32633 101.610596 
L 428.964075 105.738454 
L 429.601819 105.840395 
L 430.239564 107.267339 
L 431.515053 96.157615 
L 432.152798 105.738454 
L 432.790543 102.47692 
L 433.428287 98.348941 
L 434.066032 98.094147 
L 434.703777 99.266296 
L 435.341521 96.514351 
L 436.617011 98.654766 
L 437.254755 98.603735 
L 437.8925 96.871087 
L 438.530245 98.094147 
L 439.167989 98.043115 
L 439.805734 98.756587 
L 440.443479 97.584559 
L 441.081223 99.419148 
L 441.718968 97.635469 
L 442.356713 93.915257 
L 442.994457 98.094147 
L 443.632202 99.572001 
L 444.269946 92.692076 
L 444.907691 96.412409 
L 445.545436 95.749847 
L 446.18318 92.029636 
L 446.820925 91.825752 
L 447.45867 91.316164 
L 448.096414 94.934433 
L 448.734159 90.857486 
L 449.371904 93.660342 
L 450.009648 90.704512 
L 450.647393 96.616171 
L 451.285138 97.686379 
L 451.922882 94.475755 
L 452.560627 94.271993 
L 453.198372 93.354637 
L 453.836116 95.545963 
L 454.473861 92.28443 
L 455.111606 96.514351 
L 455.74935 98.603735 
L 456.387095 93.813315 
L 457.02484 96.055673 
L 457.662584 94.170051 
L 458.300329 91.214222 
L 458.938074 95.240259 
L 459.575818 96.208525 
L 460.213563 95.444021 
L 460.851308 96.004641 
L 461.489052 94.985465 
L 462.126797 92.641166 
L 462.764541 92.437282 
L 463.402286 97.023939 
L 464.040031 94.883523 
L 464.677775 96.361377 
L 465.31552 100.540388 
L 466.591009 93.099843 
L 467.228754 94.11902 
L 467.866499 95.851789 
L 468.504243 94.577697 
L 469.141988 90.449718 
L 469.779733 96.463319 
L 470.417477 90.857486 
L 471.055222 91.570958 
L 471.692967 94.475755 
L 472.330711 94.679639 
L 472.968456 93.762284 
L 473.606201 95.138317 
L 474.243945 92.845049 
L 474.88169 94.730549 
L 475.519435 91.214222 
L 476.157179 98.196089 
L 476.794924 93.354637 
L 477.432669 99.011502 
L 478.070413 93.456579 
L 478.708158 94.730549 
L 479.345902 93.150754 
L 479.983647 97.380675 
L 480.621392 99.572001 
L 481.259136 93.201785 
L 481.896881 93.252695 
L 482.534626 92.845049 
L 483.17237 90.755544 
L 483.810115 93.150754 
L 484.44786 94.017078 
L 485.085604 88.411244 
L 485.723349 94.934433 
L 486.361094 93.864225 
L 486.998838 93.354637 
L 487.636583 92.437282 
L 488.274328 92.743107 
L 488.912072 95.342201 
L 489.549817 94.577697 
L 490.187562 94.475755 
L 490.825306 89.37951 
L 491.463051 94.424845 
L 492.100796 94.475755 
L 492.73854 90.704512 
L 493.376285 91.265132 
L 494.01403 90.449718 
L 494.651774 88.513186 
L 495.289519 92.131577 
L 495.927264 90.092982 
L 496.565008 90.959428 
L 497.202753 89.175748 
L 497.840497 89.3286 
L 498.478242 92.94687 
L 499.115987 92.692076 
L 499.753731 88.819012 
L 500.391476 90.296866 
L 501.029221 86.525623 
L 501.666965 86.729507 
L 502.30471 92.845049 
L 502.942455 87.442978 
L 503.580199 93.660342 
L 504.217944 92.94687 
L 504.855689 91.978604 
L 505.493433 90.806454 
L 506.131178 88.258392 
L 506.768923 89.226658 
L 507.406667 89.124716 
L 508.044412 87.850625 
L 508.682157 87.442978 
L 509.319901 89.481452 
L 509.957646 92.28443 
L 510.595391 90.347776 
L 511.233135 87.493889 
L 511.87088 87.748804 
L 512.508625 89.787278 
L 513.146369 86.93339 
L 513.784114 89.226658 
L 514.421858 87.341037 
L 515.697348 94.170051 
L 516.335092 91.061248 
L 516.972837 86.168887 
L 517.610582 86.93339 
L 518.248326 88.564097 
L 518.886071 89.430542 
L 519.523816 87.54492 
L 520.799305 88.869922 
L 521.43705 87.748804 
L 522.074794 90.042072 
L 522.712539 84.691033 
L 523.350284 85.761241 
L 523.988028 89.583394 
L 524.625773 86.321739 
L 525.263518 83.824587 
L 525.901262 82.295702 
L 526.539007 86.576654 
L 527.176752 86.270829 
L 527.814496 90.857486 
L 528.452241 87.595831 
L 529.089986 88.513186 
L 529.72773 88.564097 
L 530.365475 90.55166 
L 531.003219 89.94013 
L 531.640964 87.952567 
L 532.278709 92.233398 
L 532.916453 88.666038 
L 533.554198 91.417984 
L 534.191943 88.003598 
L 534.829687 85.914093 
L 535.467432 87.697773 
L 536.105177 85.659299 
L 536.742921 86.882359 
L 537.380666 90.398808 
L 538.018411 92.080546 
L 538.656155 87.341037 
L 539.2939 89.685336 
L 540.569389 85.200621 
L 541.207134 88.309302 
L 541.844879 88.564097 
L 542.482623 89.073806 
L 543.120368 89.277568 
L 543.758113 86.372771 
L 544.395857 85.149711 
L 545.033602 89.685336 
L 545.671347 88.054508 
L 546.309091 93.456579 
L 546.946836 89.022774 
L 547.584581 89.583394 
L 548.222325 86.729507 
L 548.86007 85.608267 
L 549.497814 91.519926 
L 550.773304 87.137153 
L 551.411048 85.812151 
L 552.048793 89.481452 
L 552.686538 89.226658 
L 553.962027 86.627565 
L 554.599772 86.219919 
L 555.237516 88.819012 
L 555.875261 88.666038 
L 556.513006 89.583394 
L 557.15075 88.054508 
L 557.788495 88.920832 
L 558.42624 85.557357 
L 559.063984 85.353473 
L 560.339474 87.239095 
L 560.977218 86.729507 
L 561.614963 87.54492 
L 562.252708 88.10554 
L 562.890452 84.945827 
L 563.528197 89.88922 
L 564.165942 81.735203 
L 564.803686 83.671735 
L 565.441431 84.691033 
L 566.079175 91.11228 
L 566.71692 88.309302 
L 567.354665 88.76798 
L 567.992409 88.666038 
L 568.630154 90.50075 
L 569.267899 87.493889 
L 569.905643 85.608267 
L 570.543388 85.965003 
L 571.181133 85.455415 
L 571.818877 84.640001 
L 572.456622 85.098679 
L 573.094367 82.091939 
L 573.732111 82.652438 
L 574.369856 88.971864 
L 575.007601 84.741943 
L 575.645345 87.493889 
L 576.28309 85.149711 
L 576.920835 81.938966 
L 577.558579 88.920832 
L 578.196324 84.640001 
L 579.471813 89.99104 
L 580.109558 86.168887 
L 580.747303 86.168887 
L 581.385047 83.569793 
L 582.022792 84.792975 
L 582.660537 87.850625 
L 583.298281 88.003598 
L 583.936026 86.93339 
L 584.57377 86.576654 
L 585.211515 82.652438 
L 585.84926 90.296866 
L 586.487004 84.028471 
L 587.124749 87.799714 
L 587.762494 85.863183 
L 588.400238 81.888055 
L 589.037983 84.945827 
L 589.675728 82.448675 
L 590.313472 87.391947 
L 590.951217 82.856321 
L 591.588962 82.397644 
L 592.226706 83.671735 
L 592.864451 88.71707 
L 593.502196 83.824587 
L 594.13994 84.691033 
L 594.777685 87.137153 
L 595.41543 84.996737 
L 596.053174 86.576654 
L 596.690919 84.996737 
L 597.328664 91.570958 
L 597.966408 86.678475 
L 598.604153 86.678475 
L 599.241898 81.786114 
L 599.879642 87.137153 
L 600.517387 88.462276 
L 601.155131 86.474713 
L 601.792876 85.761241 
L 602.430621 83.926529 
L 603.068365 87.697773 
L 603.70611 89.37951 
L 604.343855 85.506447 
L 604.981599 83.518883 
L 605.619344 87.086243 
L 606.257089 86.984301 
L 606.894833 88.615128 
L 607.532578 88.411244 
L 608.170323 83.773677 
L 608.808067 83.875619 
L 609.445812 83.264089 
L 610.083557 82.346733 
L 610.721301 88.15645 
L 611.359046 86.270829 
L 611.996791 87.086243 
L 612.634535 82.346733 
L 613.27228 81.989997 
L 613.910025 85.557357 
L 614.547769 83.365909 
L 615.185514 85.659299 
L 615.823259 83.773677 
L 616.461003 83.569793 
L 617.098748 83.773677 
L 617.736493 84.283265 
L 618.374237 85.098679 
L 619.011982 81.021731 
L 619.649726 88.411244 
L 620.925216 85.149711 
L 621.56296 84.894795 
L 622.200705 81.938966 
L 622.83845 87.748804 
L 623.476194 83.569793 
L 624.113939 80.30826 
L 624.751684 85.812151 
L 625.389428 82.040908 
L 626.027173 84.843885 
L 626.664918 83.569793 
L 627.302662 76.944662 
L 627.940407 83.467851 
L 628.578152 83.009174 
L 629.215896 83.162147 
L 630.491386 85.557357 
L 631.12913 85.608267 
L 631.766875 85.251531 
L 632.40462 85.761241 
L 633.042364 84.487149 
L 633.680109 80.817848 
L 634.317854 83.875619 
L 634.955598 86.270829 
L 635.593343 83.671735 
L 636.231087 83.416941 
L 636.868832 81.072642 
L 637.506577 82.14285 
L 638.144321 86.423681 
L 638.782066 79.645698 
L 639.419811 84.741943 
L 640.057555 86.016035 
L 640.6953 86.219919 
L 641.333045 88.819012 
L 641.970789 82.907353 
L 642.608534 81.276525 
L 643.246279 83.620825 
L 643.884023 84.843885 
L 644.521768 82.499585 
L 645.159513 86.066945 
L 645.797257 83.518883 
L 647.072747 81.786114 
L 647.710491 85.557357 
L 648.348236 83.060205 
L 648.985981 86.729507 
L 649.623725 85.251531 
L 650.26147 83.365909 
L 650.899215 82.499585 
L 652.174704 86.423681 
L 652.812449 90.296866 
L 653.450193 84.691033 
L 654.087938 84.130413 
L 654.725682 85.404505 
L 655.363427 83.773677 
L 656.001172 86.627565 
L 656.638916 82.397644 
L 657.276661 80.817848 
L 657.914406 85.098679 
L 658.55215 81.123673 
L 659.189895 81.174584 
L 659.82764 86.372771 
L 660.465384 87.493889 
L 661.103129 80.257228 
L 661.740874 83.824587 
L 662.378618 86.525623 
L 663.016363 84.181323 
L 663.654108 86.372771 
L 664.291852 82.193881 
L 664.929597 83.620825 
L 665.567342 83.977561 
L 666.205086 81.938966 
L 666.842831 80.9707 
L 667.480576 82.601527 
L 668.11832 82.601527 
L 668.756065 81.072642 
L 669.39381 86.117977 
L 670.031554 88.054508 
L 670.669299 83.518883 
L 671.307043 83.518883 
L 671.944788 83.824587 
L 672.582533 88.10554 
L 673.220277 84.843885 
L 673.858022 82.856321 
L 674.495767 85.455415 
L 675.133511 85.353473 
L 675.771256 83.722767 
L 676.409001 85.302563 
L 677.046745 79.594788 
L 677.68449 85.047769 
L 678.322235 81.378467 
L 678.959979 83.009174 
L 679.597724 83.926529 
L 680.235469 82.295702 
L 680.873213 86.525623 
L 681.510958 83.416941 
L 682.148703 82.703469 
L 682.786447 82.805411 
L 683.424192 81.021731 
L 684.061937 84.334297 
L 684.699681 85.353473 
L 685.337426 80.9707 
L 685.975171 85.353473 
L 686.612915 82.856321 
L 687.25066 84.385207 
L 687.888405 81.58223 
L 687.888405 81.58223 
" style="fill:none;stroke:#377eb8;stroke-linecap:square;stroke-width:1.5;"/>
   </g>
   <g id="line2d_32">
    <path clip-path="url(#p928c35210a)" d="M 63.28322 375.715469 
L 63.536388 359.833837 
L 63.722681 375.715469 
M 64.615589 375.715469 
L 64.811877 358.602879 
L 65.449622 370.707479 
L 66.087366 373.784934 
L 66.133886 375.715469 
M 67.316336 375.715469 
L 67.362856 373.784934 
L 68.0006 352.03765 
L 68.181886 375.715469 
M 72.721785 375.715469 
L 73.102558 317.775446 
L 73.715161 375.715469 
M 73.770846 375.715469 
L 74.378047 328.443868 
L 75.015792 291.30943 
L 75.653536 291.514529 
L 76.291281 274.691197 
L 77.56677 363.526831 
L 78.204515 341.574327 
L 78.842259 346.498279 
L 79.480004 364.34747 
L 80.117749 337.060694 
L 80.583475 375.715469 
M 82.140582 375.715469 
L 82.668727 345.47242 
L 83.306472 320.647681 
L 83.944217 336.855595 
L 84.581961 355.935743 
L 85.219706 329.059408 
L 85.857451 308.9534 
L 86.495195 311.620536 
L 87.13294 309.36372 
L 87.661794 375.715469 
M 87.864639 375.715469 
L 88.408429 296.64358 
L 89.046174 310.594677 
L 89.683919 278.178971 
L 90.321663 278.589291 
L 90.932826 375.715469 
M 91.038039 375.715469 
L 91.597153 345.677641 
L 92.234897 293.155806 
L 92.872642 332.136863 
L 93.510387 329.880046 
L 94.148131 352.653189 
L 94.785876 326.802591 
L 95.088753 375.715469 
M 95.707578 375.715469 
L 96.061365 308.337861 
L 96.69911 358.397658 
L 97.336854 320.442582 
L 97.974599 345.062101 
L 98.612344 292.130069 
L 99.250088 307.722443 
L 99.887833 314.697991 
L 100.525578 287.821656 
L 101.163322 255.816148 
L 101.801067 248.840599 
L 102.438812 304.644988 
L 103.076556 275.922155 
L 103.714301 283.513243 
L 104.352046 330.495464 
L 104.98979 280.230568 
L 106.26528 311.004997 
L 106.903024 292.950707 
L 107.540769 304.850087 
L 108.178514 331.726543 
L 108.816258 292.335167 
L 109.454003 351.42211 
L 110.091748 330.700685 
L 110.729492 329.880046 
L 111.367237 303.824349 
L 112.004981 288.437074 
L 113.280471 247.814862 
L 113.918215 284.53898 
L 114.55596 214.168077 
L 115.193705 228.734713 
L 115.831449 220.733306 
L 117.106939 229.760451 
L 117.744683 226.477897 
L 118.382428 225.452038 
L 119.020173 235.915361 
L 119.657917 254.380091 
L 120.295662 247.609641 
L 120.933407 244.121867 
L 121.571151 226.477897 
L 122.208896 255.20073 
L 122.846641 233.863765 
L 124.759875 217.040311 
L 125.397619 211.706161 
L 126.035364 208.218387 
L 126.673109 230.78631 
L 127.310853 215.604255 
L 127.948598 211.090622 
L 128.586343 202.063477 
L 129.224087 230.991408 
L 129.861832 208.013167 
L 130.499576 232.427587 
L 131.137321 233.248225 
L 131.775066 241.865051 
L 132.41281 236.94122 
L 133.050555 241.865051 
L 133.6883 276.127375 
L 134.326044 255.20073 
L 134.963789 252.123275 
L 135.601534 228.939812 
L 136.239278 220.117766 
L 136.877023 226.888216 
L 137.514768 213.552537 
L 138.152512 224.6314 
L 138.790257 223.605541 
L 139.428002 205.75635 
L 140.703491 215.809354 
L 141.341236 200.21698 
L 141.97898 210.475082 
L 142.616725 211.500941 
L 143.25447 228.734713 
L 143.892214 252.533594 
L 144.529959 239.813454 
L 145.167704 219.297128 
L 145.805448 231.401728 
L 146.443193 237.556638 
L 147.080937 230.78631 
L 147.718682 216.424893 
L 148.356427 243.096008 
L 148.994171 221.553944 
L 149.631916 217.861071 
L 150.269661 212.5268 
L 150.907405 222.387462 
L 151.54515 213.552537 
L 152.182895 195.498248 
L 153.458384 208.628706 
L 154.096129 205.346031 
L 154.733873 204.320293 
L 155.371618 209.859664 
L 156.009363 250.481876 
L 156.647107 226.067578 
L 157.284852 227.913953 
L 157.922597 240.634093 
L 158.560341 229.760451 
L 159.198086 240.018675 
L 159.835831 234.479183 
L 160.473575 215.193936 
L 161.11132 239.197915 
L 161.749065 202.884115 
L 162.386809 209.859664 
L 163.024554 224.836498 
L 163.662299 223.195221 
L 164.937788 206.166669 
L 165.575532 181.752371 
L 166.213277 186.881422 
L 166.851022 223.400442 
L 167.488766 185.240145 
L 168.126511 226.888216 
L 168.764256 228.939812 
L 169.402 217.245532 
L 170.039745 200.4222 
L 170.67749 236.735999 
L 171.315234 224.426179 
L 172.590724 210.885523 
L 173.228468 221.759165 
L 173.866213 238.582497 
L 174.503958 214.988715 
L 175.141702 207.808068 
L 175.779447 235.505042 
L 176.417192 215.809354 
L 177.054936 200.21698 
L 177.692681 204.525392 
L 178.330426 178.469695 
L 178.96817 174.981921 
L 179.605915 188.727919 
L 180.24366 171.083828 
L 180.881404 189.753657 
L 181.519149 201.858256 
L 182.156893 178.880015 
L 182.794638 179.495554 
L 183.432383 183.188427 
L 184.070127 199.601561 
L 184.707872 209.859664 
L 185.983361 177.443837 
L 186.621106 185.240145 
L 187.258851 178.264596 
L 187.896595 185.240145 
L 188.53434 179.700653 
L 189.172085 186.060784 
L 189.809829 178.469695 
L 190.447574 167.596053 
L 191.085319 178.059376 
L 191.723063 178.059376 
L 192.360808 177.854277 
L 192.998553 184.829704 
L 193.636297 174.161283 
L 194.274042 178.674916 
L 194.911787 178.469695 
L 195.549531 173.135424 
L 196.187276 192.831112 
L 196.825021 185.650464 
L 197.462765 193.856971 
L 198.10051 196.113787 
L 198.738255 198.986022 
L 199.375999 199.191121 
L 200.013744 193.036332 
L 201.289233 163.492861 
L 201.926978 189.343337 
L 202.564722 168.827011 
L 203.202467 173.545743 
L 203.840212 167.185734 
L 204.477956 171.699367 
L 205.115701 178.880015 
L 205.753446 180.726512 
L 206.39119 184.214286 
L 207.028935 171.904466 
L 207.66668 194.062069 
L 208.304424 185.240145 
L 208.942169 189.958877 
L 209.579914 198.165383 
L 210.217658 182.573009 
L 210.855403 185.034925 
L 211.493148 201.242838 
L 212.130892 180.316193 
L 212.768637 194.062069 
L 213.406382 178.264596 
L 214.044126 169.647649 
L 214.681871 189.753657 
L 215.319616 153.234637 
L 215.95736 182.778108 
L 216.595105 163.492861 
L 217.232849 176.828418 
L 217.870594 172.314785 
L 218.508339 169.85287 
L 219.146083 171.699367 
L 219.783828 164.313499 
L 220.421573 193.241431 
L 221.059317 178.880015 
L 221.697062 178.674916 
L 222.334807 178.880015 
L 222.972551 192.626013 
L 223.610296 181.34193 
L 224.248041 186.060784 
L 224.885785 199.396341 
L 225.52353 190.574295 
L 226.161275 175.187141 
L 226.799019 174.161283 
L 227.436764 170.263189 
L 228.074509 183.188427 
L 228.712253 176.828418 
L 229.349998 175.597461 
L 229.987743 171.904466 
L 230.625487 182.983328 
L 231.263232 177.443837 
L 231.900977 183.188427 
L 232.538721 171.289048 
L 233.81421 185.445244 
L 234.451955 189.138239 
L 235.0897 190.984614 
L 235.727444 188.933018 
L 236.365189 188.933018 
L 237.002934 189.138239 
L 237.640678 188.727919 
L 238.278423 176.212879 
L 238.916168 175.80256 
L 239.553912 181.95747 
L 240.191657 177.033517 
L 240.829402 166.980635 
L 241.467146 163.69796 
L 242.104891 164.928917 
L 242.742636 160.210185 
L 243.38038 163.69796 
L 244.018125 163.08242 
L 244.65587 152.413998 
L 245.293614 159.594767 
L 245.931359 165.134138 
L 246.569104 163.69796 
L 247.206848 161.851462 
L 247.844593 174.981921 
L 248.482338 160.210185 
L 249.120082 160.210185 
L 249.757827 159.799866 
L 250.395572 154.260496 
L 251.033316 165.422102 
L 251.671061 159.799866 
L 252.308805 160.005087 
L 252.94655 165.749556 
L 253.584295 153.234637 
L 254.222039 159.184327 
L 254.859784 151.798459 
L 255.497529 155.286233 
L 256.135273 159.594767 
L 256.773018 155.081134 
L 257.410763 164.313499 
L 258.048507 159.184327 
L 258.686252 157.953369 
L 259.323997 159.184327 
L 259.961741 177.238738 
L 260.599486 162.056683 
L 261.237231 164.518598 
L 261.874975 159.389547 
L 262.51272 162.056683 
L 263.150465 161.851462 
L 263.788209 164.108279 
L 264.425954 157.337951 
L 265.063699 164.928917 
L 265.701443 162.467002 
L 266.339188 156.722411 
L 266.976933 165.954776 
L 267.614677 151.38814 
L 268.252422 162.672101 
L 268.890166 161.030824 
L 269.527911 169.032231 
L 270.165656 157.54305 
L 270.8034 157.74827 
L 271.441145 166.570194 
L 272.07889 169.85287 
L 272.716634 169.85287 
L 273.354379 164.723819 
L 273.992124 162.672101 
L 274.629868 167.801274 
L 275.267613 171.289048 
L 275.905358 155.491453 
L 276.543102 161.851462 
L 277.180847 163.90318 
L 277.818592 157.337951 
L 278.456336 164.518598 
L 279.094081 158.158589 
L 279.731826 162.467002 
L 280.36957 158.363688 
L 281.007315 163.492861 
L 281.64506 157.54305 
L 282.282804 156.517312 
L 282.920549 163.492861 
L 283.558294 155.696552 
L 284.196038 167.185734 
L 284.833783 157.54305 
L 285.471528 162.672101 
L 286.109272 156.517312 
L 286.747017 168.211593 
L 287.384761 155.491453 
L 288.022506 158.979228 
L 288.660251 160.210185 
L 289.297995 155.081134 
L 289.93574 167.390954 
L 290.573485 160.005087 
L 291.211229 170.057969 
L 291.848974 164.108279 
L 292.486719 165.544457 
L 293.124463 155.696552 
L 293.762208 152.003679 
L 294.399953 162.467002 
L 295.037697 158.568909 
L 296.313187 167.801274 
L 296.950931 161.646364 
L 297.588676 150.157182 
L 298.226421 165.544457 
L 298.864165 168.827011 
L 299.50191 162.672101 
L 300.139655 166.159875 
L 300.777399 158.979228 
L 301.415144 170.673508 
L 303.328378 145.43845 
L 303.966122 151.59336 
L 304.603867 154.260496 
L 305.241612 164.313499 
L 305.879356 146.874628 
L 306.517101 151.183041 
L 307.154846 143.797173 
L 307.79259 158.158589 
L 308.430335 149.131445 
L 309.06808 153.029538 
L 309.705824 145.028131 
L 310.343569 151.38814 
L 310.981314 162.056683 
L 311.619058 149.336543 
L 312.256803 162.877321 
L 312.894548 149.541764 
L 313.532292 158.568909 
L 314.170037 154.055275 
L 315.445526 146.874628 
L 316.083271 155.901773 
L 316.721016 144.002272 
L 317.35876 146.669408 
L 317.996505 152.619219 
L 318.63425 153.234637 
L 319.271994 152.619219 
L 319.909739 150.157182 
L 320.547484 151.59336 
L 321.185228 153.644956 
L 321.822973 148.926224 
L 322.460717 155.901773 
L 323.098462 150.567501 
L 323.736207 147.079727 
L 324.373951 149.541764 
L 325.011696 152.619219 
L 325.649441 153.850177 
L 326.287185 155.491453 
L 326.92493 156.106993 
L 327.562675 141.540356 
L 328.200419 151.59336 
L 328.838164 148.721125 
L 329.475909 149.541764 
L 330.113653 145.848769 
L 330.751398 146.874628 
L 332.026887 144.002272 
L 332.664632 145.43845 
L 333.302377 157.74827 
L 333.940121 146.259088 
L 334.577866 147.079727 
L 335.215611 144.207492 
L 335.853355 150.772721 
L 336.4911 145.233351 
L 337.128845 149.952083 
L 337.766589 153.439857 
L 338.404334 151.798459 
L 339.042078 155.696552 
L 339.679823 150.362402 
L 340.317568 155.696552 
L 340.955312 149.336543 
L 341.593057 151.38814 
L 342.230802 146.874628 
L 342.868546 145.848769 
L 343.506291 147.695266 
L 344.144036 140.309399 
L 344.78178 147.695266 
L 345.419525 148.105586 
L 346.05727 142.360995 
L 346.695014 148.926224 
L 347.332759 153.850177 
L 347.970504 148.926224 
L 348.608248 149.336543 
L 349.245993 152.824318 
L 349.883738 146.259088 
L 350.521482 151.798459 
L 351.159227 149.496321 
L 351.796972 144.002272 
L 352.434716 147.900365 
L 353.072461 148.105586 
L 353.710206 146.669408 
L 354.34795 150.772721 
L 354.985695 146.464309 
L 355.62344 150.567501 
L 356.261184 147.284947 
L 356.898929 145.43845 
L 357.536673 146.874628 
L 358.174418 148.721125 
L 358.812163 143.386854 
L 359.449907 144.412591 
L 360.087652 150.157182 
L 360.725397 150.97782 
L 361.363141 145.848769 
L 362.000886 146.259088 
L 362.638631 151.183041 
L 363.276375 146.464309 
L 363.91412 149.336543 
L 364.551865 145.43845 
L 365.189609 152.619219 
L 365.827354 148.721125 
L 366.465099 150.567501 
L 367.102843 144.207492 
L 367.740588 151.38814 
L 368.378333 147.900365 
L 369.016077 152.003679 
L 370.291567 141.130037 
L 370.929311 147.079727 
L 371.567056 149.746863 
L 372.204801 146.053989 
L 372.842545 145.028131 
L 373.48029 155.491453 
L 374.118034 144.207492 
L 374.755779 145.848769 
L 375.393524 156.927632 
L 376.031268 149.952083 
L 376.669013 140.514497 
L 377.306758 147.900365 
L 377.944502 158.158589 
L 378.582247 147.284947 
L 379.219992 143.797173 
L 379.857736 152.208778 
L 380.495481 146.669408 
L 381.133226 148.721125 
L 381.77097 138.257802 
L 382.408715 138.873221 
L 383.04646 147.490046 
L 383.684204 145.848769 
L 384.321949 140.719718 
L 384.959694 145.43845 
L 385.597438 147.079727 
L 386.235183 145.233351 
L 386.872928 151.59336 
L 387.510672 147.284947 
L 388.148417 150.157182 
L 388.786162 136.000986 
L 389.423906 147.079727 
L 390.061651 137.847483 
L 390.699396 148.926224 
L 391.33714 145.028131 
L 391.974885 148.310685 
L 392.612629 138.668122 
L 393.250374 154.875914 
L 393.888119 149.336543 
L 394.525863 145.43845 
L 395.163608 137.437042 
L 395.801353 155.081134 
L 396.439097 141.335257 
L 397.076842 152.413998 
L 397.714587 138.257802 
L 398.352331 146.259088 
L 398.990076 139.899079 
L 399.627821 150.567501 
L 400.265565 138.257802 
L 400.90331 151.798459 
L 401.541055 141.950676 
L 402.178799 143.386854 
L 402.816544 146.053989 
L 403.454289 146.669408 
L 404.092033 137.642263 
L 404.729778 154.055275 
L 405.367523 134.154489 
L 406.005267 154.260496 
L 406.643012 144.412591 
L 407.280757 144.412591 
L 407.918501 150.97782 
L 408.556246 145.64367 
L 409.19399 146.053989 
L 409.831735 149.746863 
L 411.107224 146.874628 
L 411.744969 142.976534 
L 412.382714 142.155896 
L 413.020458 151.798459 
L 413.658203 139.48876 
L 414.295948 144.412591 
L 414.933692 144.207492 
L 415.571437 148.721125 
L 416.209182 146.464309 
L 416.846926 142.155896 
L 417.484671 142.360995 
L 418.122416 138.668122 
L 418.76016 151.59336 
L 419.397905 139.078441 
L 420.03565 140.104178 
L 420.673394 146.669408 
L 421.311139 136.411305 
L 421.948884 144.002272 
L 422.586628 146.259088 
L 423.224373 140.514497 
L 423.862118 140.719718 
L 424.499862 140.104178 
L 425.137607 150.157182 
L 425.775352 145.233351 
L 426.413096 138.668122 
L 427.050841 152.003679 
L 427.688585 138.462901 
L 428.32633 148.515905 
L 428.964075 144.207492 
L 429.601819 150.97782 
L 430.877309 143.181633 
L 431.515053 150.157182 
L 432.152798 143.797173 
L 432.790543 145.43845 
L 433.428287 145.848769 
L 434.066032 138.668122 
L 434.703777 145.848769 
L 435.341521 150.97782 
L 435.979266 138.668122 
L 436.617011 146.464309 
L 437.254755 138.873221 
L 437.8925 146.874628 
L 438.530245 142.771314 
L 439.167989 144.207492 
L 439.805734 142.976534 
L 440.443479 145.43845 
L 441.081223 142.155896 
L 441.718968 145.233351 
L 442.356713 140.719718 
L 442.994457 142.976534 
L 443.632202 137.231944 
L 444.269946 141.950676 
L 444.907691 142.976534 
L 445.545436 142.155896 
L 446.820925 141.745577 
L 447.45867 143.591953 
L 448.096414 140.924817 
L 448.734159 142.155896 
L 449.371904 141.335257 
L 450.009648 138.668122 
L 450.647393 141.950676 
L 451.285138 140.716802 
L 451.922882 139.899079 
L 452.560627 140.924817 
L 453.198372 140.309399 
L 453.836116 145.233351 
L 454.473861 140.514497 
L 455.111606 142.976534 
L 455.74935 142.566215 
L 456.387095 147.284947 
L 457.02484 138.873221 
L 457.662584 141.950676 
L 458.300329 140.309399 
L 458.938074 141.950676 
L 459.575818 139.693859 
L 460.213563 145.028131 
L 460.851308 139.078441 
L 461.489052 136.616404 
L 462.126797 140.514497 
L 462.764541 143.591953 
L 463.402286 148.926224 
L 464.040031 137.437042 
L 464.677775 145.43845 
L 465.31552 144.617811 
L 465.953265 145.64367 
L 466.591009 142.976534 
L 467.228754 145.028131 
L 467.866499 141.130037 
L 468.504243 149.131445 
L 469.141988 144.82291 
L 469.779733 130.461615 
L 470.417477 146.464309 
L 471.692967 138.462901 
L 472.330711 141.335257 
L 472.968456 142.155896 
L 473.606201 144.82291 
L 475.519435 141.540356 
L 476.157179 141.130037 
L 476.794924 144.412591 
L 477.432669 140.104178 
L 478.070413 140.104178 
L 478.708158 144.412591 
L 479.345902 140.719718 
L 479.983647 140.309399 
L 480.621392 134.154489 
L 481.259136 137.231944 
L 481.896881 142.771314 
L 482.534626 127.38416 
L 483.17237 142.976534 
L 483.810115 139.693859 
L 484.44786 149.336543 
L 485.085604 132.513212 
L 485.723349 146.874628 
L 486.361094 139.899079 
L 486.998838 141.335257 
L 487.636583 140.719718 
L 488.274328 151.38814 
L 488.912072 140.309399 
L 489.549817 137.231944 
L 490.187562 137.026723 
L 490.825306 148.310685 
L 491.463051 154.260496 
L 492.100796 136.000986 
L 492.73854 150.157182 
L 493.376285 134.359709 
L 494.01403 138.462901 
L 494.651774 140.924817 
L 495.289519 145.028131 
L 495.927264 135.385446 
L 496.565008 142.566215 
L 497.202753 140.924817 
L 497.840497 140.309399 
L 498.478242 140.514497 
L 499.115987 132.71831 
L 499.753731 149.541764 
L 500.391476 143.797173 
L 501.029221 135.795765 
L 501.666965 144.002272 
L 502.30471 133.33385 
L 502.942455 148.721125 
L 504.217944 133.949268 
L 504.855689 144.002272 
L 505.493433 143.386854 
L 506.131178 137.847483 
L 506.768923 134.770028 
L 507.406667 144.82291 
L 508.044412 135.795765 
L 508.682157 142.566215 
L 509.319901 137.847483 
L 509.957646 138.873221 
L 510.595391 136.616404 
L 511.233135 143.386854 
L 511.87088 142.155896 
L 512.508625 142.155896 
L 513.146369 134.564808 
L 513.784114 146.464309 
L 514.421858 138.052582 
L 515.059603 138.052582 
L 515.697348 136.411305 
L 516.335092 142.976534 
L 516.972837 141.130037 
L 517.610582 137.437042 
L 518.248326 140.104178 
L 518.886071 138.873221 
L 519.523816 146.053989 
L 520.16156 136.821624 
L 520.799305 142.771314 
L 521.43705 140.719718 
L 522.074794 132.71831 
L 522.712539 140.104178 
L 523.350284 140.514497 
L 523.988028 134.975127 
L 524.625773 140.514497 
L 525.263518 147.695266 
L 525.901262 135.385446 
L 526.539007 132.923531 
L 527.176752 144.002272 
L 527.814496 134.154489 
L 528.452241 143.181633 
L 529.089986 137.847483 
L 529.72773 136.616404 
L 530.365475 138.052582 
L 531.003219 146.464309 
L 531.640964 138.462901 
L 532.278709 137.026723 
L 532.916453 140.514497 
L 533.554198 137.847483 
L 534.191943 139.48876 
L 534.829687 137.026723 
L 535.467432 144.412591 
L 536.105177 142.976534 
L 536.742921 137.231944 
L 537.380666 144.207492 
L 538.018411 131.282254 
L 538.656155 136.616404 
L 539.2939 148.105586 
L 539.931645 137.231944 
L 540.569389 140.309399 
L 541.207134 140.719718 
L 541.844879 140.719718 
L 542.482623 139.693859 
L 543.120368 139.899079 
L 543.758113 137.642263 
L 544.395857 140.719718 
L 545.033602 142.566215 
L 545.671347 140.514497 
L 546.309091 138.052582 
L 546.946836 137.231944 
L 547.584581 138.668122 
L 548.222325 141.540356 
L 548.86007 140.514497 
L 550.135559 143.591953 
L 550.773304 140.924817 
L 551.411048 141.533431 
L 552.048793 141.745577 
L 552.686538 145.43845 
L 553.324282 142.360995 
L 553.962027 140.104178 
L 554.599772 142.566215 
L 555.237516 142.976534 
L 555.875261 141.540356 
L 556.513006 143.797173 
L 557.15075 138.052582 
L 557.788495 139.28354 
L 558.42624 142.566215 
L 559.063984 141.950676 
L 559.701729 138.257802 
L 560.339474 139.28354 
L 560.977218 138.873221 
L 561.614963 139.078441 
L 562.252708 136.000986 
L 562.890452 137.437042 
L 563.528197 139.28354 
L 564.165942 142.155896 
L 564.803686 138.052582 
L 565.441431 145.233351 
L 566.079175 133.33385 
L 566.71692 134.359709 
L 567.354665 140.924817 
L 567.992409 142.360995 
L 568.630154 138.668122 
L 569.267899 139.48876 
L 569.905643 141.130037 
L 570.543388 131.077033 
L 571.181133 145.848769 
L 571.818877 137.231944 
L 572.456622 143.797173 
L 573.094367 142.155896 
L 573.732111 145.233351 
L 574.369856 138.052582 
L 575.007601 144.207492 
L 575.645345 135.795765 
L 576.28309 137.026723 
L 576.920835 142.771314 
L 577.558579 142.360995 
L 578.196324 135.180347 
L 578.834069 144.207492 
L 579.471813 137.642263 
L 580.109558 146.259088 
L 580.747303 137.437042 
L 581.385047 144.617811 
L 582.022792 139.693859 
L 582.660537 137.437042 
L 583.298281 137.026723 
L 583.936026 142.360995 
L 584.57377 139.693859 
L 585.211515 134.154489 
L 585.84926 143.386854 
L 586.487004 136.000986 
L 587.124749 134.564808 
L 587.762494 148.310685 
L 588.400238 137.437042 
L 589.037983 141.335257 
L 589.675728 137.437042 
L 590.313472 142.360995 
L 590.951217 140.104178 
L 591.588962 142.155896 
L 592.226706 137.847483 
L 592.864451 144.207492 
L 593.502196 132.307991 
L 594.13994 142.771314 
L 594.777685 141.950676 
L 595.41543 142.976534 
L 596.053174 138.873221 
L 596.690919 138.257802 
L 597.328664 142.155896 
L 597.966408 132.513212 
L 598.604153 142.566215 
L 599.241898 142.566215 
L 599.879642 139.28354 
L 600.517387 139.693859 
L 601.155131 142.360995 
L 601.792876 139.48876 
L 602.430621 145.64367 
L 603.068365 139.899079 
L 603.70611 136.411305 
L 604.343855 145.43845 
L 604.981599 143.181633 
L 605.619344 136.206085 
L 606.257089 136.616404 
L 606.894833 141.540356 
L 607.532578 149.541764 
L 608.170323 132.513212 
L 608.808067 138.462901 
L 609.445812 138.462901 
L 610.083557 141.130037 
L 610.721301 139.899079 
L 611.359046 130.871935 
L 611.996791 142.360995 
L 612.634535 144.412591 
L 613.27228 136.821624 
L 613.910025 142.360995 
L 614.547769 130.256395 
L 615.185514 145.028131 
L 615.823259 136.206085 
L 616.461003 140.104178 
L 617.098748 141.540356 
L 617.736493 143.386854 
L 618.374237 141.335257 
L 619.011982 133.744169 
L 619.649726 147.284947 
L 620.287471 134.154489 
L 620.925216 138.668122 
L 621.56296 139.48876 
L 622.200705 145.43845 
L 622.83845 136.206085 
L 623.476194 137.847483 
L 624.113939 141.950676 
L 624.751684 138.257802 
L 625.389428 137.642263 
L 626.027173 142.155896 
L 626.664918 136.000986 
L 627.302662 140.514497 
L 627.940407 141.540356 
L 628.578152 139.693859 
L 629.215896 136.411305 
L 629.853641 147.900365 
L 630.491386 130.666714 
L 631.12913 141.335257 
L 631.766875 141.130037 
L 632.40462 132.71831 
L 633.042364 144.617811 
L 633.680109 137.642263 
L 634.317854 138.462901 
L 634.955598 141.540356 
L 635.593343 137.026723 
L 636.231087 143.591953 
L 636.868832 131.692573 
L 637.506577 143.181633 
L 638.144321 140.104178 
L 638.782066 137.847483 
L 639.419811 140.719718 
L 640.057555 138.873221 
L 640.6953 137.847483 
L 641.333045 140.719718 
L 641.970789 142.771314 
L 642.608534 140.514497 
L 643.246279 139.28354 
L 643.884023 141.950676 
L 644.521768 137.437042 
L 645.159513 140.104178 
L 645.797257 138.257802 
L 646.435002 140.309399 
L 647.072747 138.668122 
L 647.710491 140.104178 
L 648.348236 138.462901 
L 648.985981 140.514497 
L 649.623725 141.745577 
L 650.26147 140.924817 
L 650.899215 141.335257 
L 651.536959 139.900051 
L 652.174704 142.771314 
L 652.812449 138.052582 
L 653.450193 140.514497 
L 654.087938 140.924817 
L 654.725682 142.566215 
L 655.363427 138.257802 
L 656.001172 141.540356 
L 656.638916 140.309399 
L 657.276661 144.207492 
L 657.914406 139.078441 
L 658.55215 142.976534 
L 659.189895 141.130037 
L 659.82764 138.462901 
L 660.465384 142.976534 
L 661.103129 136.000986 
L 661.740874 142.771314 
L 662.378618 139.28354 
L 663.016363 139.48876 
L 663.654108 139.899079 
L 664.291852 138.052582 
L 664.929597 142.976534 
L 665.567342 141.950676 
L 666.205086 141.540356 
L 666.842831 137.231944 
L 667.480576 141.950676 
L 668.11832 139.28354 
L 668.756065 139.28354 
L 669.39381 141.130037 
L 670.031554 147.079727 
L 670.669299 136.206085 
L 671.307043 143.591953 
L 671.944788 140.309399 
L 672.582533 141.745577 
L 673.220277 142.360995 
L 673.858022 137.847483 
L 674.495767 142.771314 
L 675.771256 139.48876 
L 676.409001 137.026723 
L 677.046745 141.745577 
L 677.68449 140.309399 
L 678.322235 144.82291 
L 678.959979 141.540356 
L 679.597724 134.154489 
L 680.235469 147.695266 
L 680.873213 133.949268 
L 681.510958 144.82291 
L 682.148703 141.950676 
L 682.786447 135.385446 
L 683.424192 147.900365 
L 684.061937 141.745577 
L 684.699681 139.48876 
L 685.337426 142.771314 
L 685.975171 133.33385 
L 686.612915 144.412591 
L 687.25066 141.745577 
L 687.888405 148.515905 
L 687.888405 148.515905 
" style="fill:none;stroke:#4daf4a;stroke-linecap:square;stroke-width:1.5;"/>
   </g>
   <g id="patch_3">
    <path d="M 50.14375 337.159219 
L 50.14375 10.999219 
" style="fill:none;stroke:#000000;stroke-linecap:square;stroke-linejoin:miter;stroke-width:0.8;"/>
   </g>
   <g id="patch_4">
    <path d="M 719.74375 337.159219 
L 719.74375 10.999219 
" style="fill:none;stroke:#000000;stroke-linecap:square;stroke-linejoin:miter;stroke-width:0.8;"/>
   </g>
   <g id="patch_5">
    <path d="M 50.14375 337.159219 
L 719.74375 337.159219 
" style="fill:none;stroke:#000000;stroke-linecap:square;stroke-linejoin:miter;stroke-width:0.8;"/>
   </g>
   <g id="patch_6">
    <path d="M 50.14375 10.999219 
L 719.74375 10.999219 
" style="fill:none;stroke:#000000;stroke-linecap:square;stroke-linejoin:miter;stroke-width:0.8;"/>
   </g>
   <g id="legend_1">
    <g id="patch_7">
     <path d="M 57.14375 48.355469 
L 114.584375 48.355469 
Q 116.584375 48.355469 116.584375 46.355469 
L 116.584375 17.999219 
Q 116.584375 15.999219 114.584375 15.999219 
L 57.14375 15.999219 
Q 55.14375 15.999219 55.14375 17.999219 
L 55.14375 46.355469 
Q 55.14375 48.355469 57.14375 48.355469 
z
" style="fill:#ffffff;opacity:0.8;stroke:#cccccc;stroke-linejoin:miter;"/>
    </g>
    <g id="line2d_33">
     <path d="M 59.14375 24.097656 
L 79.14375 24.097656 
" style="fill:none;stroke:#377eb8;stroke-linecap:square;stroke-width:1.5;"/>
    </g>
    <g id="line2d_34"/>
    <g id="text_18">
     <!-- Train -->
     <defs>
      <path d="M -0.296875 72.90625 
L 61.375 72.90625 
L 61.375 64.59375 
L 35.5 64.59375 
L 35.5 0 
L 25.59375 0 
L 25.59375 64.59375 
L -0.296875 64.59375 
z
" id="DejaVuSans-84"/>
      <path d="M 9.421875 54.6875 
L 18.40625 54.6875 
L 18.40625 0 
L 9.421875 0 
z
M 9.421875 75.984375 
L 18.40625 75.984375 
L 18.40625 64.59375 
L 9.421875 64.59375 
z
" id="DejaVuSans-105"/>
      <path d="M 54.890625 33.015625 
L 54.890625 0 
L 45.90625 0 
L 45.90625 32.71875 
Q 45.90625 40.484375 42.875 44.328125 
Q 39.84375 48.1875 33.796875 48.1875 
Q 26.515625 48.1875 22.3125 43.546875 
Q 18.109375 38.921875 18.109375 30.90625 
L 18.109375 0 
L 9.078125 0 
L 9.078125 54.6875 
L 18.109375 54.6875 
L 18.109375 46.1875 
Q 21.34375 51.125 25.703125 53.5625 
Q 30.078125 56 35.796875 56 
Q 45.21875 56 50.046875 50.171875 
Q 54.890625 44.34375 54.890625 33.015625 
z
" id="DejaVuSans-110"/>
     </defs>
     <g transform="translate(87.14375 27.597656)scale(0.1 -0.1)">
      <use xlink:href="#DejaVuSans-84"/>
      <use x="60.865234" xlink:href="#DejaVuSans-114"/>
      <use x="101.978516" xlink:href="#DejaVuSans-97"/>
      <use x="163.257812" xlink:href="#DejaVuSans-105"/>
      <use x="191.041016" xlink:href="#DejaVuSans-110"/>
     </g>
    </g>
    <g id="line2d_35">
     <path d="M 59.14375 38.775781 
L 79.14375 38.775781 
" style="fill:none;stroke:#4daf4a;stroke-linecap:square;stroke-width:1.5;"/>
    </g>
    <g id="line2d_36"/>
    <g id="text_19">
     <!-- Test -->
     <defs>
      <path d="M 56.203125 29.59375 
L 56.203125 25.203125 
L 14.890625 25.203125 
Q 15.484375 15.921875 20.484375 11.0625 
Q 25.484375 6.203125 34.421875 6.203125 
Q 39.59375 6.203125 44.453125 7.46875 
Q 49.3125 8.734375 54.109375 11.28125 
L 54.109375 2.78125 
Q 49.265625 0.734375 44.1875 -0.34375 
Q 39.109375 -1.421875 33.890625 -1.421875 
Q 20.796875 -1.421875 13.15625 6.1875 
Q 5.515625 13.8125 5.515625 26.8125 
Q 5.515625 40.234375 12.765625 48.109375 
Q 20.015625 56 32.328125 56 
Q 43.359375 56 49.78125 48.890625 
Q 56.203125 41.796875 56.203125 29.59375 
z
M 47.21875 32.234375 
Q 47.125 39.59375 43.09375 43.984375 
Q 39.0625 48.390625 32.421875 48.390625 
Q 24.90625 48.390625 20.390625 44.140625 
Q 15.875 39.890625 15.1875 32.171875 
z
" id="DejaVuSans-101"/>
      <path d="M 44.28125 53.078125 
L 44.28125 44.578125 
Q 40.484375 46.53125 36.375 47.5 
Q 32.28125 48.484375 27.875 48.484375 
Q 21.1875 48.484375 17.84375 46.4375 
Q 14.5 44.390625 14.5 40.28125 
Q 14.5 37.15625 16.890625 35.375 
Q 19.28125 33.59375 26.515625 31.984375 
L 29.59375 31.296875 
Q 39.15625 29.25 43.1875 25.515625 
Q 47.21875 21.78125 47.21875 15.09375 
Q 47.21875 7.46875 41.1875 3.015625 
Q 35.15625 -1.421875 24.609375 -1.421875 
Q 20.21875 -1.421875 15.453125 -0.5625 
Q 10.6875 0.296875 5.421875 2 
L 5.421875 11.28125 
Q 10.40625 8.6875 15.234375 7.390625 
Q 20.0625 6.109375 24.8125 6.109375 
Q 31.15625 6.109375 34.5625 8.28125 
Q 37.984375 10.453125 37.984375 14.40625 
Q 37.984375 18.0625 35.515625 20.015625 
Q 33.0625 21.96875 24.703125 23.78125 
L 21.578125 24.515625 
Q 13.234375 26.265625 9.515625 29.90625 
Q 5.8125 33.546875 5.8125 39.890625 
Q 5.8125 47.609375 11.28125 51.796875 
Q 16.75 56 26.8125 56 
Q 31.78125 56 36.171875 55.265625 
Q 40.578125 54.546875 44.28125 53.078125 
z
" id="DejaVuSans-115"/>
      <path d="M 18.3125 70.21875 
L 18.3125 54.6875 
L 36.8125 54.6875 
L 36.8125 47.703125 
L 18.3125 47.703125 
L 18.3125 18.015625 
Q 18.3125 11.328125 20.140625 9.421875 
Q 21.96875 7.515625 27.59375 7.515625 
L 36.8125 7.515625 
L 36.8125 0 
L 27.59375 0 
Q 17.1875 0 13.234375 3.875 
Q 9.28125 7.765625 9.28125 18.015625 
L 9.28125 47.703125 
L 2.6875 47.703125 
L 2.6875 54.6875 
L 9.28125 54.6875 
L 9.28125 70.21875 
z
" id="DejaVuSans-116"/>
     </defs>
     <g transform="translate(87.14375 42.275781)scale(0.1 -0.1)">
      <use xlink:href="#DejaVuSans-84"/>
      <use x="60.818359" xlink:href="#DejaVuSans-101"/>
      <use x="122.341797" xlink:href="#DejaVuSans-115"/>
      <use x="174.441406" xlink:href="#DejaVuSans-116"/>
     </g>
    </g>
   </g>
  </g>
 </g>
 <defs>
  <clipPath id="p928c35210a">
   <rect height="326.16" width="669.6" x="50.14375" y="10.999219"/>
  </clipPath>
 </defs>
</svg>
