<?xml version="1.0" encoding="utf-8" standalone="no"?>
<!DOCTYPE svg PUBLIC "-//W3C//DTD SVG 1.1//EN"
  "http://www.w3.org/Graphics/SVG/1.1/DTD/svg11.dtd">
<!-- Created with matplotlib (https://matplotlib.org/) -->
<svg height="374.715469pt" version="1.1" viewBox="0 0 726.94375 374.715469" width="726.94375pt" xmlns="http://www.w3.org/2000/svg" xmlns:xlink="http://www.w3.org/1999/xlink">
 <defs>
  <style type="text/css">
*{stroke-linecap:butt;stroke-linejoin:round;white-space:pre;}
  </style>
 </defs>
 <g id="figure_1">
  <g id="patch_1">
   <path d="M 0 374.715469 
L 726.94375 374.715469 
L 726.94375 0 
L 0 0 
z
" style="fill:#ffffff;"/>
  </g>
  <g id="axes_1">
   <g id="patch_2">
    <path d="M 50.14375 337.159219 
L 719.74375 337.159219 
L 719.74375 10.999219 
L 50.14375 10.999219 
z
" style="fill:#ffffff;"/>
   </g>
   <g id="matplotlib.axis_1">
    <g id="xtick_1">
     <g id="line2d_1">
      <path clip-path="url(#p59fa55367d)" d="M 50.14375 337.159219 
L 50.14375 10.999219 
" style="fill:none;stroke:#b0b0b0;stroke-linecap:square;stroke-width:0.8;"/>
     </g>
     <g id="line2d_2">
      <defs>
       <path d="M 0 0 
L 0 3.5 
" id="m7a97730202" style="stroke:#000000;stroke-width:0.8;"/>
      </defs>
      <g>
       <use style="stroke:#000000;stroke-width:0.8;" x="50.14375" xlink:href="#m7a97730202" y="337.159219"/>
      </g>
     </g>
     <g id="text_1">
      <!-- 0 -->
      <defs>
       <path d="M 31.78125 66.40625 
Q 24.171875 66.40625 20.328125 58.90625 
Q 16.5 51.421875 16.5 36.375 
Q 16.5 21.390625 20.328125 13.890625 
Q 24.171875 6.390625 31.78125 6.390625 
Q 39.453125 6.390625 43.28125 13.890625 
Q 47.125 21.390625 47.125 36.375 
Q 47.125 51.421875 43.28125 58.90625 
Q 39.453125 66.40625 31.78125 66.40625 
z
M 31.78125 74.21875 
Q 44.046875 74.21875 50.515625 64.515625 
Q 56.984375 54.828125 56.984375 36.375 
Q 56.984375 17.96875 50.515625 8.265625 
Q 44.046875 -1.421875 31.78125 -1.421875 
Q 19.53125 -1.421875 13.0625 8.265625 
Q 6.59375 17.96875 6.59375 36.375 
Q 6.59375 54.828125 13.0625 64.515625 
Q 19.53125 74.21875 31.78125 74.21875 
z
" id="DejaVuSans-48"/>
      </defs>
      <g transform="translate(46.9625 351.757656)scale(0.1 -0.1)">
       <use xlink:href="#DejaVuSans-48"/>
      </g>
     </g>
    </g>
    <g id="xtick_2">
     <g id="line2d_3">
      <path clip-path="url(#p59fa55367d)" d="M 177.698755 337.159219 
L 177.698755 10.999219 
" style="fill:none;stroke:#b0b0b0;stroke-linecap:square;stroke-width:0.8;"/>
     </g>
     <g id="line2d_4">
      <g>
       <use style="stroke:#000000;stroke-width:0.8;" x="177.698755" xlink:href="#m7a97730202" y="337.159219"/>
      </g>
     </g>
     <g id="text_2">
      <!-- 100 -->
      <defs>
       <path d="M 12.40625 8.296875 
L 28.515625 8.296875 
L 28.515625 63.921875 
L 10.984375 60.40625 
L 10.984375 69.390625 
L 28.421875 72.90625 
L 38.28125 72.90625 
L 38.28125 8.296875 
L 54.390625 8.296875 
L 54.390625 0 
L 12.40625 0 
z
" id="DejaVuSans-49"/>
      </defs>
      <g transform="translate(168.155005 351.757656)scale(0.1 -0.1)">
       <use xlink:href="#DejaVuSans-49"/>
       <use x="63.623047" xlink:href="#DejaVuSans-48"/>
       <use x="127.246094" xlink:href="#DejaVuSans-48"/>
      </g>
     </g>
    </g>
    <g id="xtick_3">
     <g id="line2d_5">
      <path clip-path="url(#p59fa55367d)" d="M 305.25376 337.159219 
L 305.25376 10.999219 
" style="fill:none;stroke:#b0b0b0;stroke-linecap:square;stroke-width:0.8;"/>
     </g>
     <g id="line2d_6">
      <g>
       <use style="stroke:#000000;stroke-width:0.8;" x="305.25376" xlink:href="#m7a97730202" y="337.159219"/>
      </g>
     </g>
     <g id="text_3">
      <!-- 200 -->
      <defs>
       <path d="M 19.1875 8.296875 
L 53.609375 8.296875 
L 53.609375 0 
L 7.328125 0 
L 7.328125 8.296875 
Q 12.9375 14.109375 22.625 23.890625 
Q 32.328125 33.6875 34.8125 36.53125 
Q 39.546875 41.84375 41.421875 45.53125 
Q 43.3125 49.21875 43.3125 52.78125 
Q 43.3125 58.59375 39.234375 62.25 
Q 35.15625 65.921875 28.609375 65.921875 
Q 23.96875 65.921875 18.8125 64.3125 
Q 13.671875 62.703125 7.8125 59.421875 
L 7.8125 69.390625 
Q 13.765625 71.78125 18.9375 73 
Q 24.125 74.21875 28.421875 74.21875 
Q 39.75 74.21875 46.484375 68.546875 
Q 53.21875 62.890625 53.21875 53.421875 
Q 53.21875 48.921875 51.53125 44.890625 
Q 49.859375 40.875 45.40625 35.40625 
Q 44.1875 33.984375 37.640625 27.21875 
Q 31.109375 20.453125 19.1875 8.296875 
z
" id="DejaVuSans-50"/>
      </defs>
      <g transform="translate(295.71001 351.757656)scale(0.1 -0.1)">
       <use xlink:href="#DejaVuSans-50"/>
       <use x="63.623047" xlink:href="#DejaVuSans-48"/>
       <use x="127.246094" xlink:href="#DejaVuSans-48"/>
      </g>
     </g>
    </g>
    <g id="xtick_4">
     <g id="line2d_7">
      <path clip-path="url(#p59fa55367d)" d="M 432.808766 337.159219 
L 432.808766 10.999219 
" style="fill:none;stroke:#b0b0b0;stroke-linecap:square;stroke-width:0.8;"/>
     </g>
     <g id="line2d_8">
      <g>
       <use style="stroke:#000000;stroke-width:0.8;" x="432.808766" xlink:href="#m7a97730202" y="337.159219"/>
      </g>
     </g>
     <g id="text_4">
      <!-- 300 -->
      <defs>
       <path d="M 40.578125 39.3125 
Q 47.65625 37.796875 51.625 33 
Q 55.609375 28.21875 55.609375 21.1875 
Q 55.609375 10.40625 48.1875 4.484375 
Q 40.765625 -1.421875 27.09375 -1.421875 
Q 22.515625 -1.421875 17.65625 -0.515625 
Q 12.796875 0.390625 7.625 2.203125 
L 7.625 11.71875 
Q 11.71875 9.328125 16.59375 8.109375 
Q 21.484375 6.890625 26.8125 6.890625 
Q 36.078125 6.890625 40.9375 10.546875 
Q 45.796875 14.203125 45.796875 21.1875 
Q 45.796875 27.640625 41.28125 31.265625 
Q 36.765625 34.90625 28.71875 34.90625 
L 20.21875 34.90625 
L 20.21875 43.015625 
L 29.109375 43.015625 
Q 36.375 43.015625 40.234375 45.921875 
Q 44.09375 48.828125 44.09375 54.296875 
Q 44.09375 59.90625 40.109375 62.90625 
Q 36.140625 65.921875 28.71875 65.921875 
Q 24.65625 65.921875 20.015625 65.03125 
Q 15.375 64.15625 9.8125 62.3125 
L 9.8125 71.09375 
Q 15.4375 72.65625 20.34375 73.4375 
Q 25.25 74.21875 29.59375 74.21875 
Q 40.828125 74.21875 47.359375 69.109375 
Q 53.90625 64.015625 53.90625 55.328125 
Q 53.90625 49.265625 50.4375 45.09375 
Q 46.96875 40.921875 40.578125 39.3125 
z
" id="DejaVuSans-51"/>
      </defs>
      <g transform="translate(423.265016 351.757656)scale(0.1 -0.1)">
       <use xlink:href="#DejaVuSans-51"/>
       <use x="63.623047" xlink:href="#DejaVuSans-48"/>
       <use x="127.246094" xlink:href="#DejaVuSans-48"/>
      </g>
     </g>
    </g>
    <g id="xtick_5">
     <g id="line2d_9">
      <path clip-path="url(#p59fa55367d)" d="M 560.363771 337.159219 
L 560.363771 10.999219 
" style="fill:none;stroke:#b0b0b0;stroke-linecap:square;stroke-width:0.8;"/>
     </g>
     <g id="line2d_10">
      <g>
       <use style="stroke:#000000;stroke-width:0.8;" x="560.363771" xlink:href="#m7a97730202" y="337.159219"/>
      </g>
     </g>
     <g id="text_5">
      <!-- 400 -->
      <defs>
       <path d="M 37.796875 64.3125 
L 12.890625 25.390625 
L 37.796875 25.390625 
z
M 35.203125 72.90625 
L 47.609375 72.90625 
L 47.609375 25.390625 
L 58.015625 25.390625 
L 58.015625 17.1875 
L 47.609375 17.1875 
L 47.609375 0 
L 37.796875 0 
L 37.796875 17.1875 
L 4.890625 17.1875 
L 4.890625 26.703125 
z
" id="DejaVuSans-52"/>
      </defs>
      <g transform="translate(550.820021 351.757656)scale(0.1 -0.1)">
       <use xlink:href="#DejaVuSans-52"/>
       <use x="63.623047" xlink:href="#DejaVuSans-48"/>
       <use x="127.246094" xlink:href="#DejaVuSans-48"/>
      </g>
     </g>
    </g>
    <g id="xtick_6">
     <g id="line2d_11">
      <path clip-path="url(#p59fa55367d)" d="M 687.918776 337.159219 
L 687.918776 10.999219 
" style="fill:none;stroke:#b0b0b0;stroke-linecap:square;stroke-width:0.8;"/>
     </g>
     <g id="line2d_12">
      <g>
       <use style="stroke:#000000;stroke-width:0.8;" x="687.918776" xlink:href="#m7a97730202" y="337.159219"/>
      </g>
     </g>
     <g id="text_6">
      <!-- 500 -->
      <defs>
       <path d="M 10.796875 72.90625 
L 49.515625 72.90625 
L 49.515625 64.59375 
L 19.828125 64.59375 
L 19.828125 46.734375 
Q 21.96875 47.46875 24.109375 47.828125 
Q 26.265625 48.1875 28.421875 48.1875 
Q 40.625 48.1875 47.75 41.5 
Q 54.890625 34.8125 54.890625 23.390625 
Q 54.890625 11.625 47.5625 5.09375 
Q 40.234375 -1.421875 26.90625 -1.421875 
Q 22.3125 -1.421875 17.546875 -0.640625 
Q 12.796875 0.140625 7.71875 1.703125 
L 7.71875 11.625 
Q 12.109375 9.234375 16.796875 8.0625 
Q 21.484375 6.890625 26.703125 6.890625 
Q 35.15625 6.890625 40.078125 11.328125 
Q 45.015625 15.765625 45.015625 23.390625 
Q 45.015625 31 40.078125 35.4375 
Q 35.15625 39.890625 26.703125 39.890625 
Q 22.75 39.890625 18.8125 39.015625 
Q 14.890625 38.140625 10.796875 36.28125 
z
" id="DejaVuSans-53"/>
      </defs>
      <g transform="translate(678.375026 351.757656)scale(0.1 -0.1)">
       <use xlink:href="#DejaVuSans-53"/>
       <use x="63.623047" xlink:href="#DejaVuSans-48"/>
       <use x="127.246094" xlink:href="#DejaVuSans-48"/>
      </g>
     </g>
    </g>
    <g id="text_7">
     <!-- Epoch -->
     <defs>
      <path d="M 9.8125 72.90625 
L 55.90625 72.90625 
L 55.90625 64.59375 
L 19.671875 64.59375 
L 19.671875 43.015625 
L 54.390625 43.015625 
L 54.390625 34.71875 
L 19.671875 34.71875 
L 19.671875 8.296875 
L 56.78125 8.296875 
L 56.78125 0 
L 9.8125 0 
z
" id="DejaVuSans-69"/>
      <path d="M 18.109375 8.203125 
L 18.109375 -20.796875 
L 9.078125 -20.796875 
L 9.078125 54.6875 
L 18.109375 54.6875 
L 18.109375 46.390625 
Q 20.953125 51.265625 25.265625 53.625 
Q 29.59375 56 35.59375 56 
Q 45.5625 56 51.78125 48.09375 
Q 58.015625 40.1875 58.015625 27.296875 
Q 58.015625 14.40625 51.78125 6.484375 
Q 45.5625 -1.421875 35.59375 -1.421875 
Q 29.59375 -1.421875 25.265625 0.953125 
Q 20.953125 3.328125 18.109375 8.203125 
z
M 48.6875 27.296875 
Q 48.6875 37.203125 44.609375 42.84375 
Q 40.53125 48.484375 33.40625 48.484375 
Q 26.265625 48.484375 22.1875 42.84375 
Q 18.109375 37.203125 18.109375 27.296875 
Q 18.109375 17.390625 22.1875 11.75 
Q 26.265625 6.109375 33.40625 6.109375 
Q 40.53125 6.109375 44.609375 11.75 
Q 48.6875 17.390625 48.6875 27.296875 
z
" id="DejaVuSans-112"/>
      <path d="M 30.609375 48.390625 
Q 23.390625 48.390625 19.1875 42.75 
Q 14.984375 37.109375 14.984375 27.296875 
Q 14.984375 17.484375 19.15625 11.84375 
Q 23.34375 6.203125 30.609375 6.203125 
Q 37.796875 6.203125 41.984375 11.859375 
Q 46.1875 17.53125 46.1875 27.296875 
Q 46.1875 37.015625 41.984375 42.703125 
Q 37.796875 48.390625 30.609375 48.390625 
z
M 30.609375 56 
Q 42.328125 56 49.015625 48.375 
Q 55.71875 40.765625 55.71875 27.296875 
Q 55.71875 13.875 49.015625 6.21875 
Q 42.328125 -1.421875 30.609375 -1.421875 
Q 18.84375 -1.421875 12.171875 6.21875 
Q 5.515625 13.875 5.515625 27.296875 
Q 5.515625 40.765625 12.171875 48.375 
Q 18.84375 56 30.609375 56 
z
" id="DejaVuSans-111"/>
      <path d="M 48.78125 52.59375 
L 48.78125 44.1875 
Q 44.96875 46.296875 41.140625 47.34375 
Q 37.3125 48.390625 33.40625 48.390625 
Q 24.65625 48.390625 19.8125 42.84375 
Q 14.984375 37.3125 14.984375 27.296875 
Q 14.984375 17.28125 19.8125 11.734375 
Q 24.65625 6.203125 33.40625 6.203125 
Q 37.3125 6.203125 41.140625 7.25 
Q 44.96875 8.296875 48.78125 10.40625 
L 48.78125 2.09375 
Q 45.015625 0.34375 40.984375 -0.53125 
Q 36.96875 -1.421875 32.421875 -1.421875 
Q 20.0625 -1.421875 12.78125 6.34375 
Q 5.515625 14.109375 5.515625 27.296875 
Q 5.515625 40.671875 12.859375 48.328125 
Q 20.21875 56 33.015625 56 
Q 37.15625 56 41.109375 55.140625 
Q 45.0625 54.296875 48.78125 52.59375 
z
" id="DejaVuSans-99"/>
      <path d="M 54.890625 33.015625 
L 54.890625 0 
L 45.90625 0 
L 45.90625 32.71875 
Q 45.90625 40.484375 42.875 44.328125 
Q 39.84375 48.1875 33.796875 48.1875 
Q 26.515625 48.1875 22.3125 43.546875 
Q 18.109375 38.921875 18.109375 30.90625 
L 18.109375 0 
L 9.078125 0 
L 9.078125 75.984375 
L 18.109375 75.984375 
L 18.109375 46.1875 
Q 21.34375 51.125 25.703125 53.5625 
Q 30.078125 56 35.796875 56 
Q 45.21875 56 50.046875 50.171875 
Q 54.890625 44.34375 54.890625 33.015625 
z
" id="DejaVuSans-104"/>
     </defs>
     <g transform="translate(369.632813 365.435781)scale(0.1 -0.1)">
      <use xlink:href="#DejaVuSans-69"/>
      <use x="63.183594" xlink:href="#DejaVuSans-112"/>
      <use x="126.660156" xlink:href="#DejaVuSans-111"/>
      <use x="187.841797" xlink:href="#DejaVuSans-99"/>
      <use x="242.822266" xlink:href="#DejaVuSans-104"/>
     </g>
    </g>
   </g>
   <g id="matplotlib.axis_2">
    <g id="ytick_1">
     <g id="line2d_13">
      <path clip-path="url(#p59fa55367d)" d="M 50.14375 337.159219 
L 719.74375 337.159219 
" style="fill:none;stroke:#b0b0b0;stroke-linecap:square;stroke-width:0.8;"/>
     </g>
     <g id="line2d_14">
      <defs>
       <path d="M 0 0 
L -3.5 0 
" id="m713ca3f6d8" style="stroke:#000000;stroke-width:0.8;"/>
      </defs>
      <g>
       <use style="stroke:#000000;stroke-width:0.8;" x="50.14375" xlink:href="#m713ca3f6d8" y="337.159219"/>
      </g>
     </g>
     <g id="text_8">
      <!-- 0.82 -->
      <defs>
       <path d="M 10.6875 12.40625 
L 21 12.40625 
L 21 0 
L 10.6875 0 
z
" id="DejaVuSans-46"/>
       <path d="M 31.78125 34.625 
Q 24.75 34.625 20.71875 30.859375 
Q 16.703125 27.09375 16.703125 20.515625 
Q 16.703125 13.921875 20.71875 10.15625 
Q 24.75 6.390625 31.78125 6.390625 
Q 38.8125 6.390625 42.859375 10.171875 
Q 46.921875 13.96875 46.921875 20.515625 
Q 46.921875 27.09375 42.890625 30.859375 
Q 38.875 34.625 31.78125 34.625 
z
M 21.921875 38.8125 
Q 15.578125 40.375 12.03125 44.71875 
Q 8.5 49.078125 8.5 55.328125 
Q 8.5 64.0625 14.71875 69.140625 
Q 20.953125 74.21875 31.78125 74.21875 
Q 42.671875 74.21875 48.875 69.140625 
Q 55.078125 64.0625 55.078125 55.328125 
Q 55.078125 49.078125 51.53125 44.71875 
Q 48 40.375 41.703125 38.8125 
Q 48.828125 37.15625 52.796875 32.3125 
Q 56.78125 27.484375 56.78125 20.515625 
Q 56.78125 9.90625 50.3125 4.234375 
Q 43.84375 -1.421875 31.78125 -1.421875 
Q 19.734375 -1.421875 13.25 4.234375 
Q 6.78125 9.90625 6.78125 20.515625 
Q 6.78125 27.484375 10.78125 32.3125 
Q 14.796875 37.15625 21.921875 38.8125 
z
M 18.3125 54.390625 
Q 18.3125 48.734375 21.84375 45.5625 
Q 25.390625 42.390625 31.78125 42.390625 
Q 38.140625 42.390625 41.71875 45.5625 
Q 45.3125 48.734375 45.3125 54.390625 
Q 45.3125 60.0625 41.71875 63.234375 
Q 38.140625 66.40625 31.78125 66.40625 
Q 25.390625 66.40625 21.84375 63.234375 
Q 18.3125 60.0625 18.3125 54.390625 
z
" id="DejaVuSans-56"/>
      </defs>
      <g transform="translate(20.878125 340.958437)scale(0.1 -0.1)">
       <use xlink:href="#DejaVuSans-48"/>
       <use x="63.623047" xlink:href="#DejaVuSans-46"/>
       <use x="95.410156" xlink:href="#DejaVuSans-56"/>
       <use x="159.033203" xlink:href="#DejaVuSans-50"/>
      </g>
     </g>
    </g>
    <g id="ytick_2">
     <g id="line2d_15">
      <path clip-path="url(#p59fa55367d)" d="M 50.14375 296.389219 
L 719.74375 296.389219 
" style="fill:none;stroke:#b0b0b0;stroke-linecap:square;stroke-width:0.8;"/>
     </g>
     <g id="line2d_16">
      <g>
       <use style="stroke:#000000;stroke-width:0.8;" x="50.14375" xlink:href="#m713ca3f6d8" y="296.389219"/>
      </g>
     </g>
     <g id="text_9">
      <!-- 0.84 -->
      <g transform="translate(20.878125 300.188437)scale(0.1 -0.1)">
       <use xlink:href="#DejaVuSans-48"/>
       <use x="63.623047" xlink:href="#DejaVuSans-46"/>
       <use x="95.410156" xlink:href="#DejaVuSans-56"/>
       <use x="159.033203" xlink:href="#DejaVuSans-52"/>
      </g>
     </g>
    </g>
    <g id="ytick_3">
     <g id="line2d_17">
      <path clip-path="url(#p59fa55367d)" d="M 50.14375 255.619219 
L 719.74375 255.619219 
" style="fill:none;stroke:#b0b0b0;stroke-linecap:square;stroke-width:0.8;"/>
     </g>
     <g id="line2d_18">
      <g>
       <use style="stroke:#000000;stroke-width:0.8;" x="50.14375" xlink:href="#m713ca3f6d8" y="255.619219"/>
      </g>
     </g>
     <g id="text_10">
      <!-- 0.86 -->
      <defs>
       <path d="M 33.015625 40.375 
Q 26.375 40.375 22.484375 35.828125 
Q 18.609375 31.296875 18.609375 23.390625 
Q 18.609375 15.53125 22.484375 10.953125 
Q 26.375 6.390625 33.015625 6.390625 
Q 39.65625 6.390625 43.53125 10.953125 
Q 47.40625 15.53125 47.40625 23.390625 
Q 47.40625 31.296875 43.53125 35.828125 
Q 39.65625 40.375 33.015625 40.375 
z
M 52.59375 71.296875 
L 52.59375 62.3125 
Q 48.875 64.0625 45.09375 64.984375 
Q 41.3125 65.921875 37.59375 65.921875 
Q 27.828125 65.921875 22.671875 59.328125 
Q 17.53125 52.734375 16.796875 39.40625 
Q 19.671875 43.65625 24.015625 45.921875 
Q 28.375 48.1875 33.59375 48.1875 
Q 44.578125 48.1875 50.953125 41.515625 
Q 57.328125 34.859375 57.328125 23.390625 
Q 57.328125 12.15625 50.6875 5.359375 
Q 44.046875 -1.421875 33.015625 -1.421875 
Q 20.359375 -1.421875 13.671875 8.265625 
Q 6.984375 17.96875 6.984375 36.375 
Q 6.984375 53.65625 15.1875 63.9375 
Q 23.390625 74.21875 37.203125 74.21875 
Q 40.921875 74.21875 44.703125 73.484375 
Q 48.484375 72.75 52.59375 71.296875 
z
" id="DejaVuSans-54"/>
      </defs>
      <g transform="translate(20.878125 259.418437)scale(0.1 -0.1)">
       <use xlink:href="#DejaVuSans-48"/>
       <use x="63.623047" xlink:href="#DejaVuSans-46"/>
       <use x="95.410156" xlink:href="#DejaVuSans-56"/>
       <use x="159.033203" xlink:href="#DejaVuSans-54"/>
      </g>
     </g>
    </g>
    <g id="ytick_4">
     <g id="line2d_19">
      <path clip-path="url(#p59fa55367d)" d="M 50.14375 214.849219 
L 719.74375 214.849219 
" style="fill:none;stroke:#b0b0b0;stroke-linecap:square;stroke-width:0.8;"/>
     </g>
     <g id="line2d_20">
      <g>
       <use style="stroke:#000000;stroke-width:0.8;" x="50.14375" xlink:href="#m713ca3f6d8" y="214.849219"/>
      </g>
     </g>
     <g id="text_11">
      <!-- 0.88 -->
      <g transform="translate(20.878125 218.648437)scale(0.1 -0.1)">
       <use xlink:href="#DejaVuSans-48"/>
       <use x="63.623047" xlink:href="#DejaVuSans-46"/>
       <use x="95.410156" xlink:href="#DejaVuSans-56"/>
       <use x="159.033203" xlink:href="#DejaVuSans-56"/>
      </g>
     </g>
    </g>
    <g id="ytick_5">
     <g id="line2d_21">
      <path clip-path="url(#p59fa55367d)" d="M 50.14375 174.079219 
L 719.74375 174.079219 
" style="fill:none;stroke:#b0b0b0;stroke-linecap:square;stroke-width:0.8;"/>
     </g>
     <g id="line2d_22">
      <g>
       <use style="stroke:#000000;stroke-width:0.8;" x="50.14375" xlink:href="#m713ca3f6d8" y="174.079219"/>
      </g>
     </g>
     <g id="text_12">
      <!-- 0.90 -->
      <defs>
       <path d="M 10.984375 1.515625 
L 10.984375 10.5 
Q 14.703125 8.734375 18.5 7.8125 
Q 22.3125 6.890625 25.984375 6.890625 
Q 35.75 6.890625 40.890625 13.453125 
Q 46.046875 20.015625 46.78125 33.40625 
Q 43.953125 29.203125 39.59375 26.953125 
Q 35.25 24.703125 29.984375 24.703125 
Q 19.046875 24.703125 12.671875 31.3125 
Q 6.296875 37.9375 6.296875 49.421875 
Q 6.296875 60.640625 12.9375 67.421875 
Q 19.578125 74.21875 30.609375 74.21875 
Q 43.265625 74.21875 49.921875 64.515625 
Q 56.59375 54.828125 56.59375 36.375 
Q 56.59375 19.140625 48.40625 8.859375 
Q 40.234375 -1.421875 26.421875 -1.421875 
Q 22.703125 -1.421875 18.890625 -0.6875 
Q 15.09375 0.046875 10.984375 1.515625 
z
M 30.609375 32.421875 
Q 37.25 32.421875 41.125 36.953125 
Q 45.015625 41.5 45.015625 49.421875 
Q 45.015625 57.28125 41.125 61.84375 
Q 37.25 66.40625 30.609375 66.40625 
Q 23.96875 66.40625 20.09375 61.84375 
Q 16.21875 57.28125 16.21875 49.421875 
Q 16.21875 41.5 20.09375 36.953125 
Q 23.96875 32.421875 30.609375 32.421875 
z
" id="DejaVuSans-57"/>
      </defs>
      <g transform="translate(20.878125 177.878437)scale(0.1 -0.1)">
       <use xlink:href="#DejaVuSans-48"/>
       <use x="63.623047" xlink:href="#DejaVuSans-46"/>
       <use x="95.410156" xlink:href="#DejaVuSans-57"/>
       <use x="159.033203" xlink:href="#DejaVuSans-48"/>
      </g>
     </g>
    </g>
    <g id="ytick_6">
     <g id="line2d_23">
      <path clip-path="url(#p59fa55367d)" d="M 50.14375 133.309219 
L 719.74375 133.309219 
" style="fill:none;stroke:#b0b0b0;stroke-linecap:square;stroke-width:0.8;"/>
     </g>
     <g id="line2d_24">
      <g>
       <use style="stroke:#000000;stroke-width:0.8;" x="50.14375" xlink:href="#m713ca3f6d8" y="133.309219"/>
      </g>
     </g>
     <g id="text_13">
      <!-- 0.92 -->
      <g transform="translate(20.878125 137.108437)scale(0.1 -0.1)">
       <use xlink:href="#DejaVuSans-48"/>
       <use x="63.623047" xlink:href="#DejaVuSans-46"/>
       <use x="95.410156" xlink:href="#DejaVuSans-57"/>
       <use x="159.033203" xlink:href="#DejaVuSans-50"/>
      </g>
     </g>
    </g>
    <g id="ytick_7">
     <g id="line2d_25">
      <path clip-path="url(#p59fa55367d)" d="M 50.14375 92.539219 
L 719.74375 92.539219 
" style="fill:none;stroke:#b0b0b0;stroke-linecap:square;stroke-width:0.8;"/>
     </g>
     <g id="line2d_26">
      <g>
       <use style="stroke:#000000;stroke-width:0.8;" x="50.14375" xlink:href="#m713ca3f6d8" y="92.539219"/>
      </g>
     </g>
     <g id="text_14">
      <!-- 0.94 -->
      <g transform="translate(20.878125 96.338437)scale(0.1 -0.1)">
       <use xlink:href="#DejaVuSans-48"/>
       <use x="63.623047" xlink:href="#DejaVuSans-46"/>
       <use x="95.410156" xlink:href="#DejaVuSans-57"/>
       <use x="159.033203" xlink:href="#DejaVuSans-52"/>
      </g>
     </g>
    </g>
    <g id="ytick_8">
     <g id="line2d_27">
      <path clip-path="url(#p59fa55367d)" d="M 50.14375 51.769219 
L 719.74375 51.769219 
" style="fill:none;stroke:#b0b0b0;stroke-linecap:square;stroke-width:0.8;"/>
     </g>
     <g id="line2d_28">
      <g>
       <use style="stroke:#000000;stroke-width:0.8;" x="50.14375" xlink:href="#m713ca3f6d8" y="51.769219"/>
      </g>
     </g>
     <g id="text_15">
      <!-- 0.96 -->
      <g transform="translate(20.878125 55.568437)scale(0.1 -0.1)">
       <use xlink:href="#DejaVuSans-48"/>
       <use x="63.623047" xlink:href="#DejaVuSans-46"/>
       <use x="95.410156" xlink:href="#DejaVuSans-57"/>
       <use x="159.033203" xlink:href="#DejaVuSans-54"/>
      </g>
     </g>
    </g>
    <g id="ytick_9">
     <g id="line2d_29">
      <path clip-path="url(#p59fa55367d)" d="M 50.14375 10.999219 
L 719.74375 10.999219 
" style="fill:none;stroke:#b0b0b0;stroke-linecap:square;stroke-width:0.8;"/>
     </g>
     <g id="line2d_30">
      <g>
       <use style="stroke:#000000;stroke-width:0.8;" x="50.14375" xlink:href="#m713ca3f6d8" y="10.999219"/>
      </g>
     </g>
     <g id="text_16">
      <!-- 0.98 -->
      <g transform="translate(20.878125 14.798437)scale(0.1 -0.1)">
       <use xlink:href="#DejaVuSans-48"/>
       <use x="63.623047" xlink:href="#DejaVuSans-46"/>
       <use x="95.410156" xlink:href="#DejaVuSans-57"/>
       <use x="159.033203" xlink:href="#DejaVuSans-56"/>
      </g>
     </g>
    </g>
    <g id="text_17">
     <!-- Accuracy -->
     <defs>
      <path d="M 34.1875 63.1875 
L 20.796875 26.90625 
L 47.609375 26.90625 
z
M 28.609375 72.90625 
L 39.796875 72.90625 
L 67.578125 0 
L 57.328125 0 
L 50.6875 18.703125 
L 17.828125 18.703125 
L 11.1875 0 
L 0.78125 0 
z
" id="DejaVuSans-65"/>
      <path d="M 8.5 21.578125 
L 8.5 54.6875 
L 17.484375 54.6875 
L 17.484375 21.921875 
Q 17.484375 14.15625 20.5 10.265625 
Q 23.53125 6.390625 29.59375 6.390625 
Q 36.859375 6.390625 41.078125 11.03125 
Q 45.3125 15.671875 45.3125 23.6875 
L 45.3125 54.6875 
L 54.296875 54.6875 
L 54.296875 0 
L 45.3125 0 
L 45.3125 8.40625 
Q 42.046875 3.421875 37.71875 1 
Q 33.40625 -1.421875 27.6875 -1.421875 
Q 18.265625 -1.421875 13.375 4.4375 
Q 8.5 10.296875 8.5 21.578125 
z
M 31.109375 56 
z
" id="DejaVuSans-117"/>
      <path d="M 41.109375 46.296875 
Q 39.59375 47.171875 37.8125 47.578125 
Q 36.03125 48 33.890625 48 
Q 26.265625 48 22.1875 43.046875 
Q 18.109375 38.09375 18.109375 28.8125 
L 18.109375 0 
L 9.078125 0 
L 9.078125 54.6875 
L 18.109375 54.6875 
L 18.109375 46.1875 
Q 20.953125 51.171875 25.484375 53.578125 
Q 30.03125 56 36.53125 56 
Q 37.453125 56 38.578125 55.875 
Q 39.703125 55.765625 41.0625 55.515625 
z
" id="DejaVuSans-114"/>
      <path d="M 34.28125 27.484375 
Q 23.390625 27.484375 19.1875 25 
Q 14.984375 22.515625 14.984375 16.5 
Q 14.984375 11.71875 18.140625 8.90625 
Q 21.296875 6.109375 26.703125 6.109375 
Q 34.1875 6.109375 38.703125 11.40625 
Q 43.21875 16.703125 43.21875 25.484375 
L 43.21875 27.484375 
z
M 52.203125 31.203125 
L 52.203125 0 
L 43.21875 0 
L 43.21875 8.296875 
Q 40.140625 3.328125 35.546875 0.953125 
Q 30.953125 -1.421875 24.3125 -1.421875 
Q 15.921875 -1.421875 10.953125 3.296875 
Q 6 8.015625 6 15.921875 
Q 6 25.140625 12.171875 29.828125 
Q 18.359375 34.515625 30.609375 34.515625 
L 43.21875 34.515625 
L 43.21875 35.40625 
Q 43.21875 41.609375 39.140625 45 
Q 35.0625 48.390625 27.6875 48.390625 
Q 23 48.390625 18.546875 47.265625 
Q 14.109375 46.140625 10.015625 43.890625 
L 10.015625 52.203125 
Q 14.9375 54.109375 19.578125 55.046875 
Q 24.21875 56 28.609375 56 
Q 40.484375 56 46.34375 49.84375 
Q 52.203125 43.703125 52.203125 31.203125 
z
" id="DejaVuSans-97"/>
      <path d="M 32.171875 -5.078125 
Q 28.375 -14.84375 24.75 -17.8125 
Q 21.140625 -20.796875 15.09375 -20.796875 
L 7.90625 -20.796875 
L 7.90625 -13.28125 
L 13.1875 -13.28125 
Q 16.890625 -13.28125 18.9375 -11.515625 
Q 21 -9.765625 23.484375 -3.21875 
L 25.09375 0.875 
L 2.984375 54.6875 
L 12.5 54.6875 
L 29.59375 11.921875 
L 46.6875 54.6875 
L 56.203125 54.6875 
z
" id="DejaVuSans-121"/>
     </defs>
     <g transform="translate(14.798438 196.994062)rotate(-90)scale(0.1 -0.1)">
      <use xlink:href="#DejaVuSans-65"/>
      <use x="68.392578" xlink:href="#DejaVuSans-99"/>
      <use x="123.373047" xlink:href="#DejaVuSans-99"/>
      <use x="178.353516" xlink:href="#DejaVuSans-117"/>
      <use x="241.732422" xlink:href="#DejaVuSans-114"/>
      <use x="282.845703" xlink:href="#DejaVuSans-97"/>
      <use x="344.125" xlink:href="#DejaVuSans-99"/>
      <use x="399.105469" xlink:href="#DejaVuSans-121"/>
     </g>
    </g>
   </g>
   <g id="line2d_31">
    <path clip-path="url(#p59fa55367d)" d="M 105.821877 375.715469 
L 106.267952 373.291627 
L 107.543502 374.056009 
L 108.819052 366.666496 
L 110.094602 364.373229 
L 111.370153 359.378925 
L 112.645703 359.68463 
L 113.921253 352.193175 
L 115.196803 350.256521 
L 116.472353 349.848875 
L 117.747903 348.93152 
L 119.023453 347.861312 
L 120.299003 345.160276 
L 121.574553 339.758327 
L 122.850103 331.247574 
L 124.125653 337.261175 
L 125.401203 335.579437 
L 126.676753 329.005217 
L 129.227853 321.513762 
L 130.503403 318.761816 
L 131.778953 322.532938 
L 133.054503 319.933845 
L 134.330053 312.901068 
L 135.605604 318.965579 
L 136.881154 314.888631 
L 138.156704 314.328011 
L 139.432254 308.620236 
L 140.707804 303.829695 
L 141.983354 304.848993 
L 143.258904 306.581762 
L 145.810004 297.867126 
L 147.085554 301.281634 
L 148.361104 293.076707 
L 149.636654 296.338241 
L 150.912204 287.26699 
L 153.463304 292.923733 
L 156.014404 287.215958 
L 157.289954 290.120877 
L 158.565504 284.412981 
L 159.841055 282.680333 
L 161.116605 278.093676 
L 162.392155 274.7302 
L 163.667705 275.749376 
L 164.943255 278.144586 
L 166.218805 276.870616 
L 167.494355 277.634998 
L 168.769905 272.233048 
L 170.045455 273.761813 
L 171.321005 273.099372 
L 172.596555 274.7302 
L 173.872105 267.289655 
L 175.147655 267.952096 
L 176.423205 262.346262 
L 177.698755 271.009867 
L 178.974305 263.671264 
L 180.249855 263.110766 
L 181.525405 263.110766 
L 182.800955 258.880845 
L 184.076506 260.154936 
L 185.352056 258.880845 
L 186.627606 254.192246 
L 187.903156 253.529806 
L 189.178706 257.250017 
L 190.454256 255.568279 
L 191.729806 252.867244 
L 193.005356 254.192246 
L 194.280906 256.434603 
L 195.556456 249.758562 
L 196.832006 251.949888 
L 198.107556 246.751701 
L 199.383106 249.707531 
L 200.658656 244.152608 
L 201.934206 245.171905 
L 203.209756 249.707531 
L 204.485306 247.770999 
L 205.760856 241.502604 
L 207.036406 243.388226 
L 208.311956 240.63628 
L 209.587507 241.043926 
L 210.863057 244.509344 
L 212.138607 237.476567 
L 213.414157 234.265943 
L 214.689707 234.877473 
L 215.965257 234.469827 
L 217.240807 235.336151 
L 218.516357 232.88991 
L 219.791907 235.794829 
L 221.067457 227.436928 
L 222.343007 234.877473 
L 223.618557 230.4947 
L 224.894107 235.947681 
L 226.169657 224.786925 
L 227.445207 229.169698 
L 228.720757 224.379157 
L 229.996307 231.768791 
L 231.271857 223.971511 
L 232.547407 224.837835 
L 233.822958 228.1504 
L 235.098508 218.416588 
L 236.374058 222.646509 
L 237.649608 218.110762 
L 238.925158 225.857133 
L 240.200708 222.442625 
L 241.476258 228.66011 
L 242.751808 217.703116 
L 244.027358 220.251299 
L 245.302908 215.868526 
L 246.578458 225.245603 
L 247.854008 218.314646 
L 249.129558 222.646509 
L 250.405108 218.671382 
L 251.680658 217.193528 
L 252.956208 215.256875 
L 254.231758 216.17423 
L 255.507308 217.754026 
L 256.782858 210.058688 
L 258.058409 213.422285 
L 259.333959 205.013474 
L 260.609509 208.427981 
L 261.885059 206.695212 
L 263.160609 207.051948 
L 264.436159 207.663478 
L 265.711709 207.255832 
L 266.987259 210.415424 
L 268.262809 210.211661 
L 269.538359 200.783553 
L 270.813909 204.656738 
L 272.089459 201.700909 
L 273.365009 203.790414 
L 274.640559 208.580834 
L 275.916109 201.140289 
L 277.191659 203.535499 
L 278.467209 200.121113 
L 279.742759 203.280705 
L 281.018309 199.713345 
L 282.29386 199.152725 
L 283.56941 197.878755 
L 284.84496 200.121113 
L 286.12051 194.260364 
L 287.39606 201.700909 
L 288.67161 193.852718 
L 289.94716 197.267104 
L 291.22271 197.57293 
L 292.49826 195.84016 
L 293.77381 192.476684 
L 295.04936 197.216194 
L 296.32491 195.381604 
L 297.60046 195.636398 
L 298.87601 190.591063 
L 300.15156 193.954538 
L 301.42711 190.743915 
L 302.70266 191.967096 
L 303.97821 188.909325 
L 305.25376 190.591063 
L 306.529311 191.253624 
L 307.804861 191.202593 
L 309.080411 188.144821 
L 310.355961 187.584323 
L 311.631511 188.603499 
L 312.907061 183.303492 
L 314.182611 190.489121 
L 315.458161 184.577462 
L 316.733711 182.437046 
L 318.009261 186.717878 
L 319.284811 185.64767 
L 320.560361 182.488078 
L 321.835911 184.832256 
L 323.111461 181.366838 
L 324.387011 178.920597 
L 325.662561 181.010102 
L 326.938111 178.003363 
L 328.213661 180.908161 
L 329.489211 176.117741 
L 330.764762 175.913857 
L 332.040312 176.321625 
L 334.591412 180.449483 
L 335.866962 177.340801 
L 337.142512 175.149475 
L 338.418062 177.595595 
L 339.693612 174.792739 
L 340.969162 178.920597 
L 342.244712 174.690797 
L 343.520262 177.850389 
L 344.795812 174.028236 
L 346.071362 175.200385 
L 347.346912 174.486914 
L 348.622462 169.237816 
L 349.898012 176.576419 
L 351.173562 170.766702 
L 352.449112 170.970464 
L 353.724662 169.798315 
L 355.000213 165.874219 
L 356.275763 166.587691 
L 357.551313 173.875384 
L 358.826863 166.332897 
L 360.102413 167.403105 
L 361.377963 168.779138 
L 362.653513 166.536781 
L 363.929063 164.549217 
L 365.204613 169.645462 
L 366.480163 166.230955 
L 367.755713 163.988597 
L 369.031263 167.556078 
L 370.306813 164.294423 
L 371.582363 162.765538 
L 372.857913 163.835745 
L 374.133463 162.867479 
L 375.409013 160.370328 
L 376.684563 165.925251 
L 377.960113 162.816448 
L 379.235664 160.777974 
L 380.511214 155.885613 
L 381.786764 154.764373 
L 383.062314 160.777974 
L 384.337864 160.421238 
L 385.613414 155.426935 
L 386.888964 160.930948 
L 388.164514 156.395201 
L 389.440064 157.720203 
L 390.715614 159.554914 
L 391.991164 159.045326 
L 393.266714 156.802968 
L 394.542264 152.318253 
L 395.817814 158.280822 
L 397.093364 155.477967 
L 399.644464 151.961517 
L 400.920014 151.298956 
L 402.195564 151.757633 
L 403.471115 154.152843 
L 404.746665 153.439371 
L 406.022215 154.254785 
L 407.297765 150.993251 
L 408.573315 153.796107 
L 409.848865 148.190274 
L 411.124415 146.304652 
L 412.399965 143.756591 
L 413.675515 149.872012 
L 414.951065 147.018124 
L 416.226615 146.967214 
L 417.502165 148.445068 
L 418.777715 148.59792 
L 420.053265 147.170976 
L 421.328815 150.33069 
L 422.604365 147.578744 
L 423.879915 149.209572 
L 425.155465 145.387297 
L 426.431015 146.865272 
L 427.706566 141.616053 
L 428.982116 142.176673 
L 430.257666 142.023821 
L 431.533216 137.539106 
L 432.808766 141.565143 
L 434.084316 141.106465 
L 435.359866 135.092864 
L 436.635416 143.297913 
L 437.910966 137.7939 
L 439.186516 140.18911 
L 440.462066 136.214104 
L 441.737616 140.342083 
L 443.013166 141.921879 
L 444.288716 139.628611 
L 445.564266 142.278615 
L 446.839816 140.342083 
L 448.115366 141.106465 
L 449.390916 138.099726 
L 450.666466 133.818894 
L 451.942017 136.417988 
L 453.217567 132.748686 
L 454.493117 136.723692 
L 455.768667 130.964885 
L 457.044217 134.532366 
L 458.319767 131.627447 
L 459.595317 133.971746 
L 460.870867 134.634187 
L 462.146417 131.984183 
L 463.421967 131.729389 
L 464.697517 131.780299 
L 465.973067 131.525505 
L 467.248617 129.639883 
L 468.524167 124.339876 
L 469.799717 129.385089 
L 471.075267 124.696612 
L 473.626367 126.98988 
L 474.901917 127.907235 
L 476.177467 129.130295 
L 477.453018 132.493771 
L 478.728568 128.926411 
L 480.004118 127.550499 
L 481.279668 127.244674 
L 482.555218 127.550499 
L 483.830768 128.569676 
L 485.106318 124.543638 
L 486.381868 122.658017 
L 487.657418 118.988715 
L 488.932968 126.887938 
L 490.208518 128.110998 
L 491.484068 123.932108 
L 492.759618 123.881198 
L 494.035168 128.467734 
L 495.310718 123.728224 
L 496.586268 120.160865 
L 497.861818 123.932108 
L 499.137368 122.505164 
L 500.412918 123.677314 
L 501.688469 118.835863 
L 502.964019 119.957103 
L 504.239569 122.199339 
L 505.515119 118.020449 
L 506.790669 122.301281 
L 508.066219 118.581069 
L 509.341769 116.083917 
L 510.617319 116.593506 
L 511.892869 114.198296 
L 513.168419 110.477963 
L 514.443969 117.867597 
L 515.719519 113.382882 
L 518.270619 115.06462 
L 519.546169 120.619543 
L 520.821719 115.268504 
L 522.097269 116.287801 
L 523.372819 114.911768 
L 524.648369 107.878991 
L 525.92392 115.829123 
L 527.19947 112.72032 
L 528.47502 112.924204 
L 529.75057 107.878991 
L 531.02612 112.66941 
L 532.30167 108.388579 
L 533.57722 111.599202 
L 534.85277 107.369281 
L 536.12832 108.439489 
L 537.40387 110.223169 
L 538.67942 105.840395 
L 539.95497 107.675107 
L 541.23052 105.381718 
L 542.50607 106.655809 
L 543.78162 107.267339 
L 545.05717 103.08845 
L 546.33272 107.522133 
L 547.60827 104.668246 
L 548.88382 104.464483 
L 550.159371 107.267339 
L 551.434921 100.795182 
L 552.710471 102.578862 
L 553.986021 106.09519 
L 555.261571 97.686379 
L 556.537121 102.324068 
L 557.812671 98.90956 
L 559.088221 102.324068 
L 560.363771 101.049976 
L 561.639321 103.852953 
L 562.914871 100.74415 
L 564.190421 96.972907 
L 565.465971 101.9163 
L 566.741521 98.807618 
L 568.017071 99.317207 
L 569.292621 92.89596 
L 570.568171 97.074849 
L 571.843721 99.52109 
L 573.119271 97.788321 
L 574.394822 98.29803 
L 575.670372 94.017078 
L 576.945922 91.927694 
L 578.221472 95.291169 
L 579.497022 94.373814 
L 580.772572 92.845049 
L 582.048122 92.33534 
L 583.323672 93.201785 
L 584.599222 89.736246 
L 585.874772 91.061248 
L 587.150322 93.711373 
L 588.425872 89.88922 
L 589.701422 89.88922 
L 590.976972 86.882359 
L 592.252522 87.901656 
L 593.528072 89.583394 
L 594.803622 88.76798 
L 596.079172 87.188184 
L 597.354722 88.360334 
L 598.630273 89.787278 
L 599.905823 87.595831 
L 601.181373 89.226658 
L 602.456923 85.608267 
L 603.732473 84.894795 
L 605.008023 85.098679 
L 606.283573 87.239095 
L 607.559123 85.761241 
L 608.834673 85.914093 
L 610.110223 82.958263 
L 611.385773 84.894795 
L 612.661323 81.938966 
L 613.936873 83.671735 
L 615.212423 80.613964 
L 616.487973 80.664996 
L 617.763523 80.257228 
L 619.039073 81.53132 
L 620.314623 78.116812 
L 621.590173 77.912928 
L 622.865724 73.632097 
L 624.141274 79.900492 
L 625.416824 80.155286 
L 626.692374 82.295702 
L 627.967924 75.56875 
L 629.243474 83.365909 
L 630.519024 78.779374 
L 631.794574 77.556192 
L 633.070124 74.498543 
L 634.345674 78.677432 
L 635.621224 74.396601 
L 636.896774 75.059041 
L 638.172324 74.447511 
L 639.447874 73.988833 
L 640.723424 74.549453 
L 641.998974 73.173419 
L 643.274524 73.122509 
L 644.550074 70.21759 
L 645.825624 74.447511 
L 647.101175 73.530155 
L 648.376725 68.33209 
L 650.927825 72.663831 
L 652.203375 68.179116 
L 653.478925 68.688826 
L 654.754475 71.236887 
L 656.030025 70.523415 
L 657.305575 70.370563 
L 658.581125 71.287798 
L 659.856675 68.586884 
L 661.132225 72.409037 
L 662.407775 66.140642 
L 663.683325 68.230148 
L 664.958875 68.128206 
L 666.234425 63.694401 
L 667.509975 64.764609 
L 668.785525 65.529112 
L 670.061075 64.255021 
L 671.336626 64.255021 
L 672.612176 62.726135 
L 673.887726 59.770305 
L 675.163276 63.949316 
L 676.438826 64.866551 
L 677.714376 62.063695 
L 678.989926 62.216547 
L 680.265476 61.197249 
L 681.541026 59.974189 
L 682.816576 62.267457 
L 684.092126 63.388697 
L 685.367676 60.534809 
L 686.643226 60.076131 
L 687.918776 62.777167 
L 687.918776 62.777167 
" style="fill:none;stroke:#377eb8;stroke-linecap:square;stroke-width:1.5;"/>
   </g>
   <g id="line2d_32">
    <path clip-path="url(#p59fa55367d)" d="M 87.800829 375.715469 
L 88.410252 353.268607 
L 89.685802 332.341962 
L 90.961352 350.191152 
L 92.236902 343.010505 
L 93.512452 343.625923 
L 94.788002 350.191152 
L 96.063552 332.136863 
L 97.339102 354.089246 
L 98.614652 348.549875 
L 99.890202 311.825635 
L 101.165752 311.620536 
L 102.441302 297.25912 
L 103.716852 313.877353 
L 104.992402 308.9534 
L 106.267952 300.541674 
L 107.543502 311.620536 
L 108.819052 294.797204 
L 110.094602 292.130069 
L 111.370153 303.824349 
L 112.645703 302.593391 
L 113.921253 275.101516 
L 115.196803 306.491485 
L 116.472353 282.692483 
L 117.747903 275.306615 
L 119.023453 265.869151 
L 120.299003 287.821656 
L 121.574553 288.231975 
L 122.850103 263.202015 
L 124.125653 303.824349 
L 125.401203 274.280878 
L 126.676753 282.692483 
L 127.952303 253.354232 
L 129.227853 277.768652 
L 130.503403 268.536287 
L 131.778953 275.511836 
L 133.054503 262.176278 
L 134.330053 266.89501 
L 135.605604 265.664052 
L 136.881154 272.639601 
L 138.156704 269.562146 
L 139.432254 269.356926 
L 140.707804 251.918054 
L 141.983354 240.839313 
L 143.258904 237.556638 
L 144.534454 261.560739 
L 145.810004 234.479183 
L 147.085554 240.634093 
L 148.361104 240.223774 
L 149.636654 267.510428 
L 150.912204 234.479183 
L 152.187754 227.503634 
L 153.463304 231.812047 
L 154.738854 248.43028 
L 156.014404 283.923562 
L 157.289954 235.71014 
L 158.565504 236.94122 
L 159.841055 238.787596 
L 161.116605 242.070271 
L 162.392155 227.298535 
L 163.667705 223.195221 
L 164.943255 244.327087 
L 166.218805 248.840599 
L 167.494355 237.966957 
L 168.769905 225.041719 
L 170.045455 232.017267 
L 171.321005 205.96157 
L 172.596555 233.658544 
L 173.872105 213.347438 
L 175.147655 228.119174 
L 176.423205 215.399034 
L 177.698755 211.295842 
L 178.974305 214.168077 
L 180.249855 228.529493 
L 181.525405 236.735999 
L 182.800955 200.627299 
L 184.076506 224.6314 
L 185.352056 223.400442 
L 187.903156 209.039025 
L 189.178706 192.010473 
L 190.454256 211.500941 
L 191.729806 205.96157 
L 193.005356 209.244124 
L 194.280906 219.707447 
L 195.556456 191.805253 
L 196.832006 219.502348 
L 198.107556 221.143625 
L 199.383106 200.627299 
L 200.658656 197.549844 
L 201.934206 213.757757 
L 203.209756 205.346031 
L 204.485306 202.884115 
L 205.760856 220.322987 
L 207.036406 197.344745 
L 208.311956 200.832519 
L 209.587507 212.5268 
L 210.863057 197.344745 
L 212.138607 203.909974 
L 213.414157 207.808068 
L 214.689707 198.165383 
L 215.965257 206.576988 
L 217.240807 210.885523 
L 218.516357 188.933018 
L 219.791907 189.753657 
L 221.067457 194.062069 
L 222.343007 183.803967 
L 223.618557 223.400442 
L 224.894107 193.856971 
L 226.169657 202.473796 
L 227.445207 201.858256 
L 228.720757 189.343337 
L 229.996307 194.472389 
L 231.271857 192.010473 
L 232.547407 187.49684 
L 233.822958 186.265882 
L 235.098508 182.983328 
L 236.374058 181.95747 
L 237.649608 202.268576 
L 238.925158 187.086521 
L 240.200708 184.829704 
L 241.476258 189.958877 
L 242.751808 189.343337 
L 244.027358 198.575703 
L 245.302908 183.393648 
L 246.578458 196.729205 
L 247.854008 183.803967 
L 249.129558 195.293027 
L 250.405108 202.063477 
L 251.680658 185.023139 
L 252.956208 187.907159 
L 254.231758 194.472389 
L 255.507308 188.522699 
L 256.782858 202.678895 
L 258.058409 201.242838 
L 259.333959 185.240145 
L 260.609509 183.188427 
L 261.885059 199.191121 
L 263.160609 177.033517 
L 264.436159 184.624605 
L 265.711709 185.240145 
L 266.987259 187.49684 
L 268.262809 187.907159 
L 269.538359 172.314785 
L 270.813909 176.212879 
L 272.089459 174.161283 
L 273.365009 177.033517 
L 274.640559 190.574295 
L 275.916109 178.674916 
L 277.191659 174.981921 
L 278.467209 181.752371 
L 279.742759 173.956062 
L 281.018309 176.828418 
L 282.29386 177.238738 
L 283.56941 187.49684 
L 284.84496 184.419385 
L 286.12051 188.522699 
L 287.39606 200.21698 
L 288.67161 182.573009 
L 289.94716 172.520006 
L 291.22271 185.034925 
L 292.49826 181.95747 
L 293.77381 168.416692 
L 295.04936 178.264596 
L 296.32491 182.573009 
L 297.60046 171.699367 
L 298.87601 184.419385 
L 300.15156 172.520006 
L 301.42711 173.545743 
L 302.70266 182.367789 
L 303.97821 192.420792 
L 305.25376 183.188427 
L 306.529311 166.980635 
L 309.080411 184.009066 
L 310.355961 179.905873 
L 311.631511 178.059376 
L 312.907061 160.825725 
L 314.182611 187.291741 
L 315.458161 175.80256 
L 316.733711 177.854277 
L 318.009261 164.928917 
L 319.284811 164.518598 
L 320.560361 181.136831 
L 321.835911 161.646364 
L 323.111461 155.491453 
L 324.387011 168.211593 
L 325.662561 171.083828 
L 326.938111 167.596053 
L 328.213661 182.16269 
L 329.489211 174.571602 
L 330.764762 185.034925 
L 332.040312 176.00778 
L 333.315862 176.418099 
L 334.591412 180.110972 
L 335.866962 175.187141 
L 337.142512 164.518598 
L 338.418062 172.930325 
L 339.693612 168.621912 
L 340.969162 162.056683 
L 342.244712 164.313499 
L 344.795812 154.465595 
L 346.071362 157.337951 
L 347.346912 182.778108 
L 348.622462 159.594767 
L 349.898012 158.568909 
L 351.173562 167.596053 
L 352.449112 155.081134 
L 353.724662 167.390954 
L 355.000213 165.954776 
L 356.275763 175.597461 
L 357.551313 168.211593 
L 358.826863 151.38814 
L 360.102413 166.980635 
L 361.377963 170.057969 
L 362.653513 152.619219 
L 363.929063 161.851462 
L 365.204613 155.696552 
L 366.480163 178.059376 
L 367.755713 162.056683 
L 369.031263 167.801274 
L 370.306813 155.286233 
L 371.582363 155.491453 
L 372.857913 159.594767 
L 374.133463 157.13273 
L 375.409013 172.725105 
L 376.684563 159.184327 
L 377.960113 174.571602 
L 379.235664 157.54305 
L 380.511214 148.721125 
L 381.786764 163.287641 
L 383.062314 161.236044 
L 384.337864 158.774007 
L 385.613414 142.976534 
L 386.888964 171.289048 
L 388.164514 156.312092 
L 389.440064 165.954776 
L 390.715614 163.492861 
L 391.991164 154.260496 
L 393.266714 171.494147 
L 394.542264 169.032231 
L 395.817814 148.721125 
L 397.093364 168.827011 
L 398.368914 158.979228 
L 399.644464 160.005087 
L 400.920014 155.286233 
L 402.195564 168.211593 
L 403.471115 151.59336 
L 404.746665 164.928917 
L 406.022215 156.312092 
L 407.297765 163.492861 
L 408.573315 161.851462 
L 409.848865 156.927632 
L 411.124415 155.081134 
L 412.399965 154.260496 
L 413.675515 142.566215 
L 414.951065 151.183041 
L 416.226615 150.567501 
L 417.502165 152.003679 
L 418.777715 155.081134 
L 420.053265 156.312092 
L 421.328815 148.105586 
L 422.604365 155.286233 
L 423.879915 149.952083 
L 425.155465 162.672101 
L 426.431015 154.465595 
L 427.706566 147.079727 
L 428.982116 151.59336 
L 430.257666 155.286233 
L 431.533216 155.491453 
L 432.808766 170.263189 
L 434.084316 149.131445 
L 435.359866 149.131445 
L 436.635416 145.233351 
L 437.910966 148.721125 
L 439.186516 156.106993 
L 440.462066 157.54305 
L 441.737616 147.284947 
L 443.013166 142.360995 
L 444.288716 156.927632 
L 445.564266 146.669408 
L 446.839816 138.873221 
L 448.115366 145.848769 
L 449.390916 150.772721 
L 450.666466 146.053989 
L 451.942017 155.009082 
L 453.217567 141.540356 
L 454.493117 149.131445 
L 455.768667 152.208778 
L 457.044217 149.131445 
L 458.319767 143.591953 
L 459.595317 147.284947 
L 460.870867 140.309399 
L 462.146417 155.081134 
L 463.421967 152.619219 
L 464.697517 148.105586 
L 465.973067 146.874628 
L 467.248617 141.540356 
L 468.524167 145.028131 
L 469.799717 148.105586 
L 471.075267 140.514497 
L 472.350817 145.233351 
L 473.626367 158.363688 
L 474.901917 140.924817 
L 476.177467 157.953369 
L 477.453018 135.795765 
L 478.728568 147.695266 
L 480.004118 143.181633 
L 481.279668 143.386854 
L 482.555218 158.979228 
L 483.830768 150.362402 
L 485.106318 138.668122 
L 486.381868 143.181633 
L 487.657418 148.310685 
L 488.932968 140.309399 
L 490.208518 153.029538 
L 491.484068 148.515905 
L 492.759618 153.644956 
L 494.035168 142.155896 
L 495.310718 148.310685 
L 496.586268 145.43845 
L 497.861818 137.026723 
L 499.137368 142.771314 
L 500.412918 145.43845 
L 501.688469 143.591953 
L 502.964019 150.772721 
L 504.239569 143.797173 
L 505.515119 141.335257 
L 506.790669 145.848769 
L 508.066219 131.282254 
L 509.341769 145.64367 
L 510.617319 142.976534 
L 511.892869 139.28354 
L 513.168419 144.617811 
L 514.443969 138.052582 
L 515.719519 150.97782 
L 516.995069 139.48876 
L 518.270619 142.771314 
L 519.546169 145.233351 
L 520.821719 146.874628 
L 522.097269 133.12863 
L 524.648369 148.105586 
L 525.92392 139.28354 
L 527.19947 148.926224 
L 528.47502 148.105586 
L 529.75057 141.950676 
L 531.02612 140.514497 
L 532.30167 141.130037 
L 533.57722 137.847483 
L 534.85277 141.540356 
L 536.12832 138.873221 
L 537.40387 131.692573 
L 538.67942 138.462901 
L 539.95497 137.642263 
L 541.23052 134.564808 
L 542.50607 151.59336 
L 543.78162 131.692573 
L 545.05717 142.976534 
L 546.33272 143.181633 
L 547.60827 142.976534 
L 548.88382 142.566215 
L 550.159371 144.82291 
L 551.434921 133.12863 
L 552.710471 132.71831 
L 553.986021 142.155896 
L 555.261571 132.71831 
L 556.537121 142.566215 
L 557.812671 129.435757 
L 559.088221 138.668122 
L 560.363771 139.899079 
L 561.639321 139.899079 
L 562.914871 138.462901 
L 564.190421 134.564808 
L 565.465971 126.768621 
L 566.741521 148.310685 
L 568.017071 137.847483 
L 569.292621 129.640855 
L 570.568171 130.256395 
L 571.843721 139.693859 
L 573.119271 128.820217 
L 575.670372 145.64367 
L 576.945922 125.947982 
L 578.221472 139.899079 
L 579.497022 127.17894 
L 580.772572 140.309399 
L 582.048122 123.280846 
L 583.323672 132.923531 
L 584.599222 121.02403 
L 585.874772 131.077033 
L 588.425872 133.12863 
L 589.701422 127.589259 
L 590.976972 140.719718 
L 592.252522 134.154489 
L 593.528072 132.923531 
L 594.803622 126.973841 
L 596.079172 137.231944 
L 597.354722 132.307991 
L 598.630273 120.818931 
L 599.905823 131.487353 
L 601.181373 134.770028 
L 602.456923 125.742762 
L 603.732473 138.462901 
L 605.008023 128.820217 
L 606.283573 125.947982 
L 607.559123 129.230536 
L 608.834673 128.820217 
L 610.110223 130.871935 
L 611.385773 138.052582 
L 612.661323 132.71831 
L 613.936873 119.793072 
L 615.212423 134.770028 
L 616.487973 125.742762 
L 617.763523 137.847483 
L 619.039073 129.435757 
L 620.314623 127.999578 
L 621.590173 132.71831 
L 622.865724 127.999578 
L 624.141274 125.742762 
L 625.416824 132.102892 
L 626.692374 127.38416 
L 627.967924 128.615118 
L 629.243474 134.770028 
L 630.519024 123.896386 
L 631.794574 122.870527 
L 633.070124 125.332443 
L 634.345674 129.230536 
L 635.621224 130.461615 
L 636.896774 122.049889 
L 638.172324 129.640855 
L 639.447874 121.639569 
L 640.723424 125.537663 
L 641.998974 128.409898 
L 643.274524 125.332443 
L 644.550074 123.896386 
L 645.825624 129.846076 
L 647.101175 125.332443 
L 648.376725 129.025437 
L 649.652275 125.537663 
L 650.927825 132.513212 
L 652.203375 127.241029 
L 653.478925 126.768621 
L 654.754475 130.666714 
L 656.030025 126.5634 
L 657.305575 127.17894 
L 658.581125 125.332443 
L 659.856675 130.051175 
L 661.132225 122.254988 
L 662.407775 125.947982 
L 663.683325 124.922123 
L 664.958875 126.973841 
L 666.234425 126.768621 
L 667.509975 120.408612 
L 668.785525 126.153081 
L 670.061075 121.22925 
L 671.336626 125.332443 
L 673.887726 125.742762 
L 675.163276 125.332443 
L 676.438826 122.665307 
L 677.714376 128.204799 
L 678.989926 122.254988 
L 680.265476 119.793072 
L 681.541026 124.922123 
L 682.816576 121.434349 
L 684.092126 124.922123 
L 685.367676 122.870527 
L 686.643226 124.922123 
L 687.918776 118.972434 
L 687.918776 118.972434 
" style="fill:none;stroke:#4daf4a;stroke-linecap:square;stroke-width:1.5;"/>
   </g>
   <g id="patch_3">
    <path d="M 50.14375 337.159219 
L 50.14375 10.999219 
" style="fill:none;stroke:#000000;stroke-linecap:square;stroke-linejoin:miter;stroke-width:0.8;"/>
   </g>
   <g id="patch_4">
    <path d="M 719.74375 337.159219 
L 719.74375 10.999219 
" style="fill:none;stroke:#000000;stroke-linecap:square;stroke-linejoin:miter;stroke-width:0.8;"/>
   </g>
   <g id="patch_5">
    <path d="M 50.14375 337.159219 
L 719.74375 337.159219 
" style="fill:none;stroke:#000000;stroke-linecap:square;stroke-linejoin:miter;stroke-width:0.8;"/>
   </g>
   <g id="patch_6">
    <path d="M 50.14375 10.999219 
L 719.74375 10.999219 
" style="fill:none;stroke:#000000;stroke-linecap:square;stroke-linejoin:miter;stroke-width:0.8;"/>
   </g>
   <g id="legend_1">
    <g id="patch_7">
     <path d="M 57.14375 48.355469 
L 114.584375 48.355469 
Q 116.584375 48.355469 116.584375 46.355469 
L 116.584375 17.999219 
Q 116.584375 15.999219 114.584375 15.999219 
L 57.14375 15.999219 
Q 55.14375 15.999219 55.14375 17.999219 
L 55.14375 46.355469 
Q 55.14375 48.355469 57.14375 48.355469 
z
" style="fill:#ffffff;opacity:0.8;stroke:#cccccc;stroke-linejoin:miter;"/>
    </g>
    <g id="line2d_33">
     <path d="M 59.14375 24.097656 
L 79.14375 24.097656 
" style="fill:none;stroke:#377eb8;stroke-linecap:square;stroke-width:1.5;"/>
    </g>
    <g id="line2d_34"/>
    <g id="text_18">
     <!-- Train -->
     <defs>
      <path d="M -0.296875 72.90625 
L 61.375 72.90625 
L 61.375 64.59375 
L 35.5 64.59375 
L 35.5 0 
L 25.59375 0 
L 25.59375 64.59375 
L -0.296875 64.59375 
z
" id="DejaVuSans-84"/>
      <path d="M 9.421875 54.6875 
L 18.40625 54.6875 
L 18.40625 0 
L 9.421875 0 
z
M 9.421875 75.984375 
L 18.40625 75.984375 
L 18.40625 64.59375 
L 9.421875 64.59375 
z
" id="DejaVuSans-105"/>
      <path d="M 54.890625 33.015625 
L 54.890625 0 
L 45.90625 0 
L 45.90625 32.71875 
Q 45.90625 40.484375 42.875 44.328125 
Q 39.84375 48.1875 33.796875 48.1875 
Q 26.515625 48.1875 22.3125 43.546875 
Q 18.109375 38.921875 18.109375 30.90625 
L 18.109375 0 
L 9.078125 0 
L 9.078125 54.6875 
L 18.109375 54.6875 
L 18.109375 46.1875 
Q 21.34375 51.125 25.703125 53.5625 
Q 30.078125 56 35.796875 56 
Q 45.21875 56 50.046875 50.171875 
Q 54.890625 44.34375 54.890625 33.015625 
z
" id="DejaVuSans-110"/>
     </defs>
     <g transform="translate(87.14375 27.597656)scale(0.1 -0.1)">
      <use xlink:href="#DejaVuSans-84"/>
      <use x="60.865234" xlink:href="#DejaVuSans-114"/>
      <use x="101.978516" xlink:href="#DejaVuSans-97"/>
      <use x="163.257812" xlink:href="#DejaVuSans-105"/>
      <use x="191.041016" xlink:href="#DejaVuSans-110"/>
     </g>
    </g>
    <g id="line2d_35">
     <path d="M 59.14375 38.775781 
L 79.14375 38.775781 
" style="fill:none;stroke:#4daf4a;stroke-linecap:square;stroke-width:1.5;"/>
    </g>
    <g id="line2d_36"/>
    <g id="text_19">
     <!-- Test -->
     <defs>
      <path d="M 56.203125 29.59375 
L 56.203125 25.203125 
L 14.890625 25.203125 
Q 15.484375 15.921875 20.484375 11.0625 
Q 25.484375 6.203125 34.421875 6.203125 
Q 39.59375 6.203125 44.453125 7.46875 
Q 49.3125 8.734375 54.109375 11.28125 
L 54.109375 2.78125 
Q 49.265625 0.734375 44.1875 -0.34375 
Q 39.109375 -1.421875 33.890625 -1.421875 
Q 20.796875 -1.421875 13.15625 6.1875 
Q 5.515625 13.8125 5.515625 26.8125 
Q 5.515625 40.234375 12.765625 48.109375 
Q 20.015625 56 32.328125 56 
Q 43.359375 56 49.78125 48.890625 
Q 56.203125 41.796875 56.203125 29.59375 
z
M 47.21875 32.234375 
Q 47.125 39.59375 43.09375 43.984375 
Q 39.0625 48.390625 32.421875 48.390625 
Q 24.90625 48.390625 20.390625 44.140625 
Q 15.875 39.890625 15.1875 32.171875 
z
" id="DejaVuSans-101"/>
      <path d="M 44.28125 53.078125 
L 44.28125 44.578125 
Q 40.484375 46.53125 36.375 47.5 
Q 32.28125 48.484375 27.875 48.484375 
Q 21.1875 48.484375 17.84375 46.4375 
Q 14.5 44.390625 14.5 40.28125 
Q 14.5 37.15625 16.890625 35.375 
Q 19.28125 33.59375 26.515625 31.984375 
L 29.59375 31.296875 
Q 39.15625 29.25 43.1875 25.515625 
Q 47.21875 21.78125 47.21875 15.09375 
Q 47.21875 7.46875 41.1875 3.015625 
Q 35.15625 -1.421875 24.609375 -1.421875 
Q 20.21875 -1.421875 15.453125 -0.5625 
Q 10.6875 0.296875 5.421875 2 
L 5.421875 11.28125 
Q 10.40625 8.6875 15.234375 7.390625 
Q 20.0625 6.109375 24.8125 6.109375 
Q 31.15625 6.109375 34.5625 8.28125 
Q 37.984375 10.453125 37.984375 14.40625 
Q 37.984375 18.0625 35.515625 20.015625 
Q 33.0625 21.96875 24.703125 23.78125 
L 21.578125 24.515625 
Q 13.234375 26.265625 9.515625 29.90625 
Q 5.8125 33.546875 5.8125 39.890625 
Q 5.8125 47.609375 11.28125 51.796875 
Q 16.75 56 26.8125 56 
Q 31.78125 56 36.171875 55.265625 
Q 40.578125 54.546875 44.28125 53.078125 
z
" id="DejaVuSans-115"/>
      <path d="M 18.3125 70.21875 
L 18.3125 54.6875 
L 36.8125 54.6875 
L 36.8125 47.703125 
L 18.3125 47.703125 
L 18.3125 18.015625 
Q 18.3125 11.328125 20.140625 9.421875 
Q 21.96875 7.515625 27.59375 7.515625 
L 36.8125 7.515625 
L 36.8125 0 
L 27.59375 0 
Q 17.1875 0 13.234375 3.875 
Q 9.28125 7.765625 9.28125 18.015625 
L 9.28125 47.703125 
L 2.6875 47.703125 
L 2.6875 54.6875 
L 9.28125 54.6875 
L 9.28125 70.21875 
z
" id="DejaVuSans-116"/>
     </defs>
     <g transform="translate(87.14375 42.275781)scale(0.1 -0.1)">
      <use xlink:href="#DejaVuSans-84"/>
      <use x="60.818359" xlink:href="#DejaVuSans-101"/>
      <use x="122.341797" xlink:href="#DejaVuSans-115"/>
      <use x="174.441406" xlink:href="#DejaVuSans-116"/>
     </g>
    </g>
   </g>
  </g>
 </g>
 <defs>
  <clipPath id="p59fa55367d">
   <rect height="326.16" width="669.6" x="50.14375" y="10.999219"/>
  </clipPath>
 </defs>
</svg>
