<?xml version="1.0" encoding="utf-8" standalone="no"?>
<!DOCTYPE svg PUBLIC "-//W3C//DTD SVG 1.1//EN"
  "http://www.w3.org/Graphics/SVG/1.1/DTD/svg11.dtd">
<!-- Created with matplotlib (https://matplotlib.org/) -->
<svg height="374.715469pt" version="1.1" viewBox="0 0 726.94375 374.715469" width="726.94375pt" xmlns="http://www.w3.org/2000/svg" xmlns:xlink="http://www.w3.org/1999/xlink">
 <defs>
  <style type="text/css">
*{stroke-linecap:butt;stroke-linejoin:round;white-space:pre;}
  </style>
 </defs>
 <g id="figure_1">
  <g id="patch_1">
   <path d="M 0 374.715469 
L 726.94375 374.715469 
L 726.94375 0 
L 0 0 
z
" style="fill:#ffffff;"/>
  </g>
  <g id="axes_1">
   <g id="patch_2">
    <path d="M 50.14375 337.159219 
L 719.74375 337.159219 
L 719.74375 10.999219 
L 50.14375 10.999219 
z
" style="fill:#ffffff;"/>
   </g>
   <g id="matplotlib.axis_1">
    <g id="xtick_1">
     <g id="line2d_1">
      <path clip-path="url(#p0609da2bd4)" d="M 50.14375 337.159219 
L 50.14375 10.999219 
" style="fill:none;stroke:#b0b0b0;stroke-linecap:square;stroke-width:0.8;"/>
     </g>
     <g id="line2d_2">
      <defs>
       <path d="M 0 0 
L 0 3.5 
" id="mdf02ee4619" style="stroke:#000000;stroke-width:0.8;"/>
      </defs>
      <g>
       <use style="stroke:#000000;stroke-width:0.8;" x="50.14375" xlink:href="#mdf02ee4619" y="337.159219"/>
      </g>
     </g>
     <g id="text_1">
      <!-- 0 -->
      <defs>
       <path d="M 31.78125 66.40625 
Q 24.171875 66.40625 20.328125 58.90625 
Q 16.5 51.421875 16.5 36.375 
Q 16.5 21.390625 20.328125 13.890625 
Q 24.171875 6.390625 31.78125 6.390625 
Q 39.453125 6.390625 43.28125 13.890625 
Q 47.125 21.390625 47.125 36.375 
Q 47.125 51.421875 43.28125 58.90625 
Q 39.453125 66.40625 31.78125 66.40625 
z
M 31.78125 74.21875 
Q 44.046875 74.21875 50.515625 64.515625 
Q 56.984375 54.828125 56.984375 36.375 
Q 56.984375 17.96875 50.515625 8.265625 
Q 44.046875 -1.421875 31.78125 -1.421875 
Q 19.53125 -1.421875 13.0625 8.265625 
Q 6.59375 17.96875 6.59375 36.375 
Q 6.59375 54.828125 13.0625 64.515625 
Q 19.53125 74.21875 31.78125 74.21875 
z
" id="DejaVuSans-48"/>
      </defs>
      <g transform="translate(46.9625 351.757656)scale(0.1 -0.1)">
       <use xlink:href="#DejaVuSans-48"/>
      </g>
     </g>
    </g>
    <g id="xtick_2">
     <g id="line2d_3">
      <path clip-path="url(#p0609da2bd4)" d="M 177.698755 337.159219 
L 177.698755 10.999219 
" style="fill:none;stroke:#b0b0b0;stroke-linecap:square;stroke-width:0.8;"/>
     </g>
     <g id="line2d_4">
      <g>
       <use style="stroke:#000000;stroke-width:0.8;" x="177.698755" xlink:href="#mdf02ee4619" y="337.159219"/>
      </g>
     </g>
     <g id="text_2">
      <!-- 100 -->
      <defs>
       <path d="M 12.40625 8.296875 
L 28.515625 8.296875 
L 28.515625 63.921875 
L 10.984375 60.40625 
L 10.984375 69.390625 
L 28.421875 72.90625 
L 38.28125 72.90625 
L 38.28125 8.296875 
L 54.390625 8.296875 
L 54.390625 0 
L 12.40625 0 
z
" id="DejaVuSans-49"/>
      </defs>
      <g transform="translate(168.155005 351.757656)scale(0.1 -0.1)">
       <use xlink:href="#DejaVuSans-49"/>
       <use x="63.623047" xlink:href="#DejaVuSans-48"/>
       <use x="127.246094" xlink:href="#DejaVuSans-48"/>
      </g>
     </g>
    </g>
    <g id="xtick_3">
     <g id="line2d_5">
      <path clip-path="url(#p0609da2bd4)" d="M 305.25376 337.159219 
L 305.25376 10.999219 
" style="fill:none;stroke:#b0b0b0;stroke-linecap:square;stroke-width:0.8;"/>
     </g>
     <g id="line2d_6">
      <g>
       <use style="stroke:#000000;stroke-width:0.8;" x="305.25376" xlink:href="#mdf02ee4619" y="337.159219"/>
      </g>
     </g>
     <g id="text_3">
      <!-- 200 -->
      <defs>
       <path d="M 19.1875 8.296875 
L 53.609375 8.296875 
L 53.609375 0 
L 7.328125 0 
L 7.328125 8.296875 
Q 12.9375 14.109375 22.625 23.890625 
Q 32.328125 33.6875 34.8125 36.53125 
Q 39.546875 41.84375 41.421875 45.53125 
Q 43.3125 49.21875 43.3125 52.78125 
Q 43.3125 58.59375 39.234375 62.25 
Q 35.15625 65.921875 28.609375 65.921875 
Q 23.96875 65.921875 18.8125 64.3125 
Q 13.671875 62.703125 7.8125 59.421875 
L 7.8125 69.390625 
Q 13.765625 71.78125 18.9375 73 
Q 24.125 74.21875 28.421875 74.21875 
Q 39.75 74.21875 46.484375 68.546875 
Q 53.21875 62.890625 53.21875 53.421875 
Q 53.21875 48.921875 51.53125 44.890625 
Q 49.859375 40.875 45.40625 35.40625 
Q 44.1875 33.984375 37.640625 27.21875 
Q 31.109375 20.453125 19.1875 8.296875 
z
" id="DejaVuSans-50"/>
      </defs>
      <g transform="translate(295.71001 351.757656)scale(0.1 -0.1)">
       <use xlink:href="#DejaVuSans-50"/>
       <use x="63.623047" xlink:href="#DejaVuSans-48"/>
       <use x="127.246094" xlink:href="#DejaVuSans-48"/>
      </g>
     </g>
    </g>
    <g id="xtick_4">
     <g id="line2d_7">
      <path clip-path="url(#p0609da2bd4)" d="M 432.808766 337.159219 
L 432.808766 10.999219 
" style="fill:none;stroke:#b0b0b0;stroke-linecap:square;stroke-width:0.8;"/>
     </g>
     <g id="line2d_8">
      <g>
       <use style="stroke:#000000;stroke-width:0.8;" x="432.808766" xlink:href="#mdf02ee4619" y="337.159219"/>
      </g>
     </g>
     <g id="text_4">
      <!-- 300 -->
      <defs>
       <path d="M 40.578125 39.3125 
Q 47.65625 37.796875 51.625 33 
Q 55.609375 28.21875 55.609375 21.1875 
Q 55.609375 10.40625 48.1875 4.484375 
Q 40.765625 -1.421875 27.09375 -1.421875 
Q 22.515625 -1.421875 17.65625 -0.515625 
Q 12.796875 0.390625 7.625 2.203125 
L 7.625 11.71875 
Q 11.71875 9.328125 16.59375 8.109375 
Q 21.484375 6.890625 26.8125 6.890625 
Q 36.078125 6.890625 40.9375 10.546875 
Q 45.796875 14.203125 45.796875 21.1875 
Q 45.796875 27.640625 41.28125 31.265625 
Q 36.765625 34.90625 28.71875 34.90625 
L 20.21875 34.90625 
L 20.21875 43.015625 
L 29.109375 43.015625 
Q 36.375 43.015625 40.234375 45.921875 
Q 44.09375 48.828125 44.09375 54.296875 
Q 44.09375 59.90625 40.109375 62.90625 
Q 36.140625 65.921875 28.71875 65.921875 
Q 24.65625 65.921875 20.015625 65.03125 
Q 15.375 64.15625 9.8125 62.3125 
L 9.8125 71.09375 
Q 15.4375 72.65625 20.34375 73.4375 
Q 25.25 74.21875 29.59375 74.21875 
Q 40.828125 74.21875 47.359375 69.109375 
Q 53.90625 64.015625 53.90625 55.328125 
Q 53.90625 49.265625 50.4375 45.09375 
Q 46.96875 40.921875 40.578125 39.3125 
z
" id="DejaVuSans-51"/>
      </defs>
      <g transform="translate(423.265016 351.757656)scale(0.1 -0.1)">
       <use xlink:href="#DejaVuSans-51"/>
       <use x="63.623047" xlink:href="#DejaVuSans-48"/>
       <use x="127.246094" xlink:href="#DejaVuSans-48"/>
      </g>
     </g>
    </g>
    <g id="xtick_5">
     <g id="line2d_9">
      <path clip-path="url(#p0609da2bd4)" d="M 560.363771 337.159219 
L 560.363771 10.999219 
" style="fill:none;stroke:#b0b0b0;stroke-linecap:square;stroke-width:0.8;"/>
     </g>
     <g id="line2d_10">
      <g>
       <use style="stroke:#000000;stroke-width:0.8;" x="560.363771" xlink:href="#mdf02ee4619" y="337.159219"/>
      </g>
     </g>
     <g id="text_5">
      <!-- 400 -->
      <defs>
       <path d="M 37.796875 64.3125 
L 12.890625 25.390625 
L 37.796875 25.390625 
z
M 35.203125 72.90625 
L 47.609375 72.90625 
L 47.609375 25.390625 
L 58.015625 25.390625 
L 58.015625 17.1875 
L 47.609375 17.1875 
L 47.609375 0 
L 37.796875 0 
L 37.796875 17.1875 
L 4.890625 17.1875 
L 4.890625 26.703125 
z
" id="DejaVuSans-52"/>
      </defs>
      <g transform="translate(550.820021 351.757656)scale(0.1 -0.1)">
       <use xlink:href="#DejaVuSans-52"/>
       <use x="63.623047" xlink:href="#DejaVuSans-48"/>
       <use x="127.246094" xlink:href="#DejaVuSans-48"/>
      </g>
     </g>
    </g>
    <g id="xtick_6">
     <g id="line2d_11">
      <path clip-path="url(#p0609da2bd4)" d="M 687.918776 337.159219 
L 687.918776 10.999219 
" style="fill:none;stroke:#b0b0b0;stroke-linecap:square;stroke-width:0.8;"/>
     </g>
     <g id="line2d_12">
      <g>
       <use style="stroke:#000000;stroke-width:0.8;" x="687.918776" xlink:href="#mdf02ee4619" y="337.159219"/>
      </g>
     </g>
     <g id="text_6">
      <!-- 500 -->
      <defs>
       <path d="M 10.796875 72.90625 
L 49.515625 72.90625 
L 49.515625 64.59375 
L 19.828125 64.59375 
L 19.828125 46.734375 
Q 21.96875 47.46875 24.109375 47.828125 
Q 26.265625 48.1875 28.421875 48.1875 
Q 40.625 48.1875 47.75 41.5 
Q 54.890625 34.8125 54.890625 23.390625 
Q 54.890625 11.625 47.5625 5.09375 
Q 40.234375 -1.421875 26.90625 -1.421875 
Q 22.3125 -1.421875 17.546875 -0.640625 
Q 12.796875 0.140625 7.71875 1.703125 
L 7.71875 11.625 
Q 12.109375 9.234375 16.796875 8.0625 
Q 21.484375 6.890625 26.703125 6.890625 
Q 35.15625 6.890625 40.078125 11.328125 
Q 45.015625 15.765625 45.015625 23.390625 
Q 45.015625 31 40.078125 35.4375 
Q 35.15625 39.890625 26.703125 39.890625 
Q 22.75 39.890625 18.8125 39.015625 
Q 14.890625 38.140625 10.796875 36.28125 
z
" id="DejaVuSans-53"/>
      </defs>
      <g transform="translate(678.375026 351.757656)scale(0.1 -0.1)">
       <use xlink:href="#DejaVuSans-53"/>
       <use x="63.623047" xlink:href="#DejaVuSans-48"/>
       <use x="127.246094" xlink:href="#DejaVuSans-48"/>
      </g>
     </g>
    </g>
    <g id="text_7">
     <!-- Epoch -->
     <defs>
      <path d="M 9.8125 72.90625 
L 55.90625 72.90625 
L 55.90625 64.59375 
L 19.671875 64.59375 
L 19.671875 43.015625 
L 54.390625 43.015625 
L 54.390625 34.71875 
L 19.671875 34.71875 
L 19.671875 8.296875 
L 56.78125 8.296875 
L 56.78125 0 
L 9.8125 0 
z
" id="DejaVuSans-69"/>
      <path d="M 18.109375 8.203125 
L 18.109375 -20.796875 
L 9.078125 -20.796875 
L 9.078125 54.6875 
L 18.109375 54.6875 
L 18.109375 46.390625 
Q 20.953125 51.265625 25.265625 53.625 
Q 29.59375 56 35.59375 56 
Q 45.5625 56 51.78125 48.09375 
Q 58.015625 40.1875 58.015625 27.296875 
Q 58.015625 14.40625 51.78125 6.484375 
Q 45.5625 -1.421875 35.59375 -1.421875 
Q 29.59375 -1.421875 25.265625 0.953125 
Q 20.953125 3.328125 18.109375 8.203125 
z
M 48.6875 27.296875 
Q 48.6875 37.203125 44.609375 42.84375 
Q 40.53125 48.484375 33.40625 48.484375 
Q 26.265625 48.484375 22.1875 42.84375 
Q 18.109375 37.203125 18.109375 27.296875 
Q 18.109375 17.390625 22.1875 11.75 
Q 26.265625 6.109375 33.40625 6.109375 
Q 40.53125 6.109375 44.609375 11.75 
Q 48.6875 17.390625 48.6875 27.296875 
z
" id="DejaVuSans-112"/>
      <path d="M 30.609375 48.390625 
Q 23.390625 48.390625 19.1875 42.75 
Q 14.984375 37.109375 14.984375 27.296875 
Q 14.984375 17.484375 19.15625 11.84375 
Q 23.34375 6.203125 30.609375 6.203125 
Q 37.796875 6.203125 41.984375 11.859375 
Q 46.1875 17.53125 46.1875 27.296875 
Q 46.1875 37.015625 41.984375 42.703125 
Q 37.796875 48.390625 30.609375 48.390625 
z
M 30.609375 56 
Q 42.328125 56 49.015625 48.375 
Q 55.71875 40.765625 55.71875 27.296875 
Q 55.71875 13.875 49.015625 6.21875 
Q 42.328125 -1.421875 30.609375 -1.421875 
Q 18.84375 -1.421875 12.171875 6.21875 
Q 5.515625 13.875 5.515625 27.296875 
Q 5.515625 40.765625 12.171875 48.375 
Q 18.84375 56 30.609375 56 
z
" id="DejaVuSans-111"/>
      <path d="M 48.78125 52.59375 
L 48.78125 44.1875 
Q 44.96875 46.296875 41.140625 47.34375 
Q 37.3125 48.390625 33.40625 48.390625 
Q 24.65625 48.390625 19.8125 42.84375 
Q 14.984375 37.3125 14.984375 27.296875 
Q 14.984375 17.28125 19.8125 11.734375 
Q 24.65625 6.203125 33.40625 6.203125 
Q 37.3125 6.203125 41.140625 7.25 
Q 44.96875 8.296875 48.78125 10.40625 
L 48.78125 2.09375 
Q 45.015625 0.34375 40.984375 -0.53125 
Q 36.96875 -1.421875 32.421875 -1.421875 
Q 20.0625 -1.421875 12.78125 6.34375 
Q 5.515625 14.109375 5.515625 27.296875 
Q 5.515625 40.671875 12.859375 48.328125 
Q 20.21875 56 33.015625 56 
Q 37.15625 56 41.109375 55.140625 
Q 45.0625 54.296875 48.78125 52.59375 
z
" id="DejaVuSans-99"/>
      <path d="M 54.890625 33.015625 
L 54.890625 0 
L 45.90625 0 
L 45.90625 32.71875 
Q 45.90625 40.484375 42.875 44.328125 
Q 39.84375 48.1875 33.796875 48.1875 
Q 26.515625 48.1875 22.3125 43.546875 
Q 18.109375 38.921875 18.109375 30.90625 
L 18.109375 0 
L 9.078125 0 
L 9.078125 75.984375 
L 18.109375 75.984375 
L 18.109375 46.1875 
Q 21.34375 51.125 25.703125 53.5625 
Q 30.078125 56 35.796875 56 
Q 45.21875 56 50.046875 50.171875 
Q 54.890625 44.34375 54.890625 33.015625 
z
" id="DejaVuSans-104"/>
     </defs>
     <g transform="translate(369.632813 365.435781)scale(0.1 -0.1)">
      <use xlink:href="#DejaVuSans-69"/>
      <use x="63.183594" xlink:href="#DejaVuSans-112"/>
      <use x="126.660156" xlink:href="#DejaVuSans-111"/>
      <use x="187.841797" xlink:href="#DejaVuSans-99"/>
      <use x="242.822266" xlink:href="#DejaVuSans-104"/>
     </g>
    </g>
   </g>
   <g id="matplotlib.axis_2">
    <g id="ytick_1">
     <g id="line2d_13">
      <path clip-path="url(#p0609da2bd4)" d="M 50.14375 337.159219 
L 719.74375 337.159219 
" style="fill:none;stroke:#b0b0b0;stroke-linecap:square;stroke-width:0.8;"/>
     </g>
     <g id="line2d_14">
      <defs>
       <path d="M 0 0 
L -3.5 0 
" id="mdb28032437" style="stroke:#000000;stroke-width:0.8;"/>
      </defs>
      <g>
       <use style="stroke:#000000;stroke-width:0.8;" x="50.14375" xlink:href="#mdb28032437" y="337.159219"/>
      </g>
     </g>
     <g id="text_8">
      <!-- 0.82 -->
      <defs>
       <path d="M 10.6875 12.40625 
L 21 12.40625 
L 21 0 
L 10.6875 0 
z
" id="DejaVuSans-46"/>
       <path d="M 31.78125 34.625 
Q 24.75 34.625 20.71875 30.859375 
Q 16.703125 27.09375 16.703125 20.515625 
Q 16.703125 13.921875 20.71875 10.15625 
Q 24.75 6.390625 31.78125 6.390625 
Q 38.8125 6.390625 42.859375 10.171875 
Q 46.921875 13.96875 46.921875 20.515625 
Q 46.921875 27.09375 42.890625 30.859375 
Q 38.875 34.625 31.78125 34.625 
z
M 21.921875 38.8125 
Q 15.578125 40.375 12.03125 44.71875 
Q 8.5 49.078125 8.5 55.328125 
Q 8.5 64.0625 14.71875 69.140625 
Q 20.953125 74.21875 31.78125 74.21875 
Q 42.671875 74.21875 48.875 69.140625 
Q 55.078125 64.0625 55.078125 55.328125 
Q 55.078125 49.078125 51.53125 44.71875 
Q 48 40.375 41.703125 38.8125 
Q 48.828125 37.15625 52.796875 32.3125 
Q 56.78125 27.484375 56.78125 20.515625 
Q 56.78125 9.90625 50.3125 4.234375 
Q 43.84375 -1.421875 31.78125 -1.421875 
Q 19.734375 -1.421875 13.25 4.234375 
Q 6.78125 9.90625 6.78125 20.515625 
Q 6.78125 27.484375 10.78125 32.3125 
Q 14.796875 37.15625 21.921875 38.8125 
z
M 18.3125 54.390625 
Q 18.3125 48.734375 21.84375 45.5625 
Q 25.390625 42.390625 31.78125 42.390625 
Q 38.140625 42.390625 41.71875 45.5625 
Q 45.3125 48.734375 45.3125 54.390625 
Q 45.3125 60.0625 41.71875 63.234375 
Q 38.140625 66.40625 31.78125 66.40625 
Q 25.390625 66.40625 21.84375 63.234375 
Q 18.3125 60.0625 18.3125 54.390625 
z
" id="DejaVuSans-56"/>
      </defs>
      <g transform="translate(20.878125 340.958437)scale(0.1 -0.1)">
       <use xlink:href="#DejaVuSans-48"/>
       <use x="63.623047" xlink:href="#DejaVuSans-46"/>
       <use x="95.410156" xlink:href="#DejaVuSans-56"/>
       <use x="159.033203" xlink:href="#DejaVuSans-50"/>
      </g>
     </g>
    </g>
    <g id="ytick_2">
     <g id="line2d_15">
      <path clip-path="url(#p0609da2bd4)" d="M 50.14375 296.389219 
L 719.74375 296.389219 
" style="fill:none;stroke:#b0b0b0;stroke-linecap:square;stroke-width:0.8;"/>
     </g>
     <g id="line2d_16">
      <g>
       <use style="stroke:#000000;stroke-width:0.8;" x="50.14375" xlink:href="#mdb28032437" y="296.389219"/>
      </g>
     </g>
     <g id="text_9">
      <!-- 0.84 -->
      <g transform="translate(20.878125 300.188437)scale(0.1 -0.1)">
       <use xlink:href="#DejaVuSans-48"/>
       <use x="63.623047" xlink:href="#DejaVuSans-46"/>
       <use x="95.410156" xlink:href="#DejaVuSans-56"/>
       <use x="159.033203" xlink:href="#DejaVuSans-52"/>
      </g>
     </g>
    </g>
    <g id="ytick_3">
     <g id="line2d_17">
      <path clip-path="url(#p0609da2bd4)" d="M 50.14375 255.619219 
L 719.74375 255.619219 
" style="fill:none;stroke:#b0b0b0;stroke-linecap:square;stroke-width:0.8;"/>
     </g>
     <g id="line2d_18">
      <g>
       <use style="stroke:#000000;stroke-width:0.8;" x="50.14375" xlink:href="#mdb28032437" y="255.619219"/>
      </g>
     </g>
     <g id="text_10">
      <!-- 0.86 -->
      <defs>
       <path d="M 33.015625 40.375 
Q 26.375 40.375 22.484375 35.828125 
Q 18.609375 31.296875 18.609375 23.390625 
Q 18.609375 15.53125 22.484375 10.953125 
Q 26.375 6.390625 33.015625 6.390625 
Q 39.65625 6.390625 43.53125 10.953125 
Q 47.40625 15.53125 47.40625 23.390625 
Q 47.40625 31.296875 43.53125 35.828125 
Q 39.65625 40.375 33.015625 40.375 
z
M 52.59375 71.296875 
L 52.59375 62.3125 
Q 48.875 64.0625 45.09375 64.984375 
Q 41.3125 65.921875 37.59375 65.921875 
Q 27.828125 65.921875 22.671875 59.328125 
Q 17.53125 52.734375 16.796875 39.40625 
Q 19.671875 43.65625 24.015625 45.921875 
Q 28.375 48.1875 33.59375 48.1875 
Q 44.578125 48.1875 50.953125 41.515625 
Q 57.328125 34.859375 57.328125 23.390625 
Q 57.328125 12.15625 50.6875 5.359375 
Q 44.046875 -1.421875 33.015625 -1.421875 
Q 20.359375 -1.421875 13.671875 8.265625 
Q 6.984375 17.96875 6.984375 36.375 
Q 6.984375 53.65625 15.1875 63.9375 
Q 23.390625 74.21875 37.203125 74.21875 
Q 40.921875 74.21875 44.703125 73.484375 
Q 48.484375 72.75 52.59375 71.296875 
z
" id="DejaVuSans-54"/>
      </defs>
      <g transform="translate(20.878125 259.418437)scale(0.1 -0.1)">
       <use xlink:href="#DejaVuSans-48"/>
       <use x="63.623047" xlink:href="#DejaVuSans-46"/>
       <use x="95.410156" xlink:href="#DejaVuSans-56"/>
       <use x="159.033203" xlink:href="#DejaVuSans-54"/>
      </g>
     </g>
    </g>
    <g id="ytick_4">
     <g id="line2d_19">
      <path clip-path="url(#p0609da2bd4)" d="M 50.14375 214.849219 
L 719.74375 214.849219 
" style="fill:none;stroke:#b0b0b0;stroke-linecap:square;stroke-width:0.8;"/>
     </g>
     <g id="line2d_20">
      <g>
       <use style="stroke:#000000;stroke-width:0.8;" x="50.14375" xlink:href="#mdb28032437" y="214.849219"/>
      </g>
     </g>
     <g id="text_11">
      <!-- 0.88 -->
      <g transform="translate(20.878125 218.648437)scale(0.1 -0.1)">
       <use xlink:href="#DejaVuSans-48"/>
       <use x="63.623047" xlink:href="#DejaVuSans-46"/>
       <use x="95.410156" xlink:href="#DejaVuSans-56"/>
       <use x="159.033203" xlink:href="#DejaVuSans-56"/>
      </g>
     </g>
    </g>
    <g id="ytick_5">
     <g id="line2d_21">
      <path clip-path="url(#p0609da2bd4)" d="M 50.14375 174.079219 
L 719.74375 174.079219 
" style="fill:none;stroke:#b0b0b0;stroke-linecap:square;stroke-width:0.8;"/>
     </g>
     <g id="line2d_22">
      <g>
       <use style="stroke:#000000;stroke-width:0.8;" x="50.14375" xlink:href="#mdb28032437" y="174.079219"/>
      </g>
     </g>
     <g id="text_12">
      <!-- 0.90 -->
      <defs>
       <path d="M 10.984375 1.515625 
L 10.984375 10.5 
Q 14.703125 8.734375 18.5 7.8125 
Q 22.3125 6.890625 25.984375 6.890625 
Q 35.75 6.890625 40.890625 13.453125 
Q 46.046875 20.015625 46.78125 33.40625 
Q 43.953125 29.203125 39.59375 26.953125 
Q 35.25 24.703125 29.984375 24.703125 
Q 19.046875 24.703125 12.671875 31.3125 
Q 6.296875 37.9375 6.296875 49.421875 
Q 6.296875 60.640625 12.9375 67.421875 
Q 19.578125 74.21875 30.609375 74.21875 
Q 43.265625 74.21875 49.921875 64.515625 
Q 56.59375 54.828125 56.59375 36.375 
Q 56.59375 19.140625 48.40625 8.859375 
Q 40.234375 -1.421875 26.421875 -1.421875 
Q 22.703125 -1.421875 18.890625 -0.6875 
Q 15.09375 0.046875 10.984375 1.515625 
z
M 30.609375 32.421875 
Q 37.25 32.421875 41.125 36.953125 
Q 45.015625 41.5 45.015625 49.421875 
Q 45.015625 57.28125 41.125 61.84375 
Q 37.25 66.40625 30.609375 66.40625 
Q 23.96875 66.40625 20.09375 61.84375 
Q 16.21875 57.28125 16.21875 49.421875 
Q 16.21875 41.5 20.09375 36.953125 
Q 23.96875 32.421875 30.609375 32.421875 
z
" id="DejaVuSans-57"/>
      </defs>
      <g transform="translate(20.878125 177.878437)scale(0.1 -0.1)">
       <use xlink:href="#DejaVuSans-48"/>
       <use x="63.623047" xlink:href="#DejaVuSans-46"/>
       <use x="95.410156" xlink:href="#DejaVuSans-57"/>
       <use x="159.033203" xlink:href="#DejaVuSans-48"/>
      </g>
     </g>
    </g>
    <g id="ytick_6">
     <g id="line2d_23">
      <path clip-path="url(#p0609da2bd4)" d="M 50.14375 133.309219 
L 719.74375 133.309219 
" style="fill:none;stroke:#b0b0b0;stroke-linecap:square;stroke-width:0.8;"/>
     </g>
     <g id="line2d_24">
      <g>
       <use style="stroke:#000000;stroke-width:0.8;" x="50.14375" xlink:href="#mdb28032437" y="133.309219"/>
      </g>
     </g>
     <g id="text_13">
      <!-- 0.92 -->
      <g transform="translate(20.878125 137.108437)scale(0.1 -0.1)">
       <use xlink:href="#DejaVuSans-48"/>
       <use x="63.623047" xlink:href="#DejaVuSans-46"/>
       <use x="95.410156" xlink:href="#DejaVuSans-57"/>
       <use x="159.033203" xlink:href="#DejaVuSans-50"/>
      </g>
     </g>
    </g>
    <g id="ytick_7">
     <g id="line2d_25">
      <path clip-path="url(#p0609da2bd4)" d="M 50.14375 92.539219 
L 719.74375 92.539219 
" style="fill:none;stroke:#b0b0b0;stroke-linecap:square;stroke-width:0.8;"/>
     </g>
     <g id="line2d_26">
      <g>
       <use style="stroke:#000000;stroke-width:0.8;" x="50.14375" xlink:href="#mdb28032437" y="92.539219"/>
      </g>
     </g>
     <g id="text_14">
      <!-- 0.94 -->
      <g transform="translate(20.878125 96.338437)scale(0.1 -0.1)">
       <use xlink:href="#DejaVuSans-48"/>
       <use x="63.623047" xlink:href="#DejaVuSans-46"/>
       <use x="95.410156" xlink:href="#DejaVuSans-57"/>
       <use x="159.033203" xlink:href="#DejaVuSans-52"/>
      </g>
     </g>
    </g>
    <g id="ytick_8">
     <g id="line2d_27">
      <path clip-path="url(#p0609da2bd4)" d="M 50.14375 51.769219 
L 719.74375 51.769219 
" style="fill:none;stroke:#b0b0b0;stroke-linecap:square;stroke-width:0.8;"/>
     </g>
     <g id="line2d_28">
      <g>
       <use style="stroke:#000000;stroke-width:0.8;" x="50.14375" xlink:href="#mdb28032437" y="51.769219"/>
      </g>
     </g>
     <g id="text_15">
      <!-- 0.96 -->
      <g transform="translate(20.878125 55.568437)scale(0.1 -0.1)">
       <use xlink:href="#DejaVuSans-48"/>
       <use x="63.623047" xlink:href="#DejaVuSans-46"/>
       <use x="95.410156" xlink:href="#DejaVuSans-57"/>
       <use x="159.033203" xlink:href="#DejaVuSans-54"/>
      </g>
     </g>
    </g>
    <g id="ytick_9">
     <g id="line2d_29">
      <path clip-path="url(#p0609da2bd4)" d="M 50.14375 10.999219 
L 719.74375 10.999219 
" style="fill:none;stroke:#b0b0b0;stroke-linecap:square;stroke-width:0.8;"/>
     </g>
     <g id="line2d_30">
      <g>
       <use style="stroke:#000000;stroke-width:0.8;" x="50.14375" xlink:href="#mdb28032437" y="10.999219"/>
      </g>
     </g>
     <g id="text_16">
      <!-- 0.98 -->
      <g transform="translate(20.878125 14.798437)scale(0.1 -0.1)">
       <use xlink:href="#DejaVuSans-48"/>
       <use x="63.623047" xlink:href="#DejaVuSans-46"/>
       <use x="95.410156" xlink:href="#DejaVuSans-57"/>
       <use x="159.033203" xlink:href="#DejaVuSans-56"/>
      </g>
     </g>
    </g>
    <g id="text_17">
     <!-- Accuracy -->
     <defs>
      <path d="M 34.1875 63.1875 
L 20.796875 26.90625 
L 47.609375 26.90625 
z
M 28.609375 72.90625 
L 39.796875 72.90625 
L 67.578125 0 
L 57.328125 0 
L 50.6875 18.703125 
L 17.828125 18.703125 
L 11.1875 0 
L 0.78125 0 
z
" id="DejaVuSans-65"/>
      <path d="M 8.5 21.578125 
L 8.5 54.6875 
L 17.484375 54.6875 
L 17.484375 21.921875 
Q 17.484375 14.15625 20.5 10.265625 
Q 23.53125 6.390625 29.59375 6.390625 
Q 36.859375 6.390625 41.078125 11.03125 
Q 45.3125 15.671875 45.3125 23.6875 
L 45.3125 54.6875 
L 54.296875 54.6875 
L 54.296875 0 
L 45.3125 0 
L 45.3125 8.40625 
Q 42.046875 3.421875 37.71875 1 
Q 33.40625 -1.421875 27.6875 -1.421875 
Q 18.265625 -1.421875 13.375 4.4375 
Q 8.5 10.296875 8.5 21.578125 
z
M 31.109375 56 
z
" id="DejaVuSans-117"/>
      <path d="M 41.109375 46.296875 
Q 39.59375 47.171875 37.8125 47.578125 
Q 36.03125 48 33.890625 48 
Q 26.265625 48 22.1875 43.046875 
Q 18.109375 38.09375 18.109375 28.8125 
L 18.109375 0 
L 9.078125 0 
L 9.078125 54.6875 
L 18.109375 54.6875 
L 18.109375 46.1875 
Q 20.953125 51.171875 25.484375 53.578125 
Q 30.03125 56 36.53125 56 
Q 37.453125 56 38.578125 55.875 
Q 39.703125 55.765625 41.0625 55.515625 
z
" id="DejaVuSans-114"/>
      <path d="M 34.28125 27.484375 
Q 23.390625 27.484375 19.1875 25 
Q 14.984375 22.515625 14.984375 16.5 
Q 14.984375 11.71875 18.140625 8.90625 
Q 21.296875 6.109375 26.703125 6.109375 
Q 34.1875 6.109375 38.703125 11.40625 
Q 43.21875 16.703125 43.21875 25.484375 
L 43.21875 27.484375 
z
M 52.203125 31.203125 
L 52.203125 0 
L 43.21875 0 
L 43.21875 8.296875 
Q 40.140625 3.328125 35.546875 0.953125 
Q 30.953125 -1.421875 24.3125 -1.421875 
Q 15.921875 -1.421875 10.953125 3.296875 
Q 6 8.015625 6 15.921875 
Q 6 25.140625 12.171875 29.828125 
Q 18.359375 34.515625 30.609375 34.515625 
L 43.21875 34.515625 
L 43.21875 35.40625 
Q 43.21875 41.609375 39.140625 45 
Q 35.0625 48.390625 27.6875 48.390625 
Q 23 48.390625 18.546875 47.265625 
Q 14.109375 46.140625 10.015625 43.890625 
L 10.015625 52.203125 
Q 14.9375 54.109375 19.578125 55.046875 
Q 24.21875 56 28.609375 56 
Q 40.484375 56 46.34375 49.84375 
Q 52.203125 43.703125 52.203125 31.203125 
z
" id="DejaVuSans-97"/>
      <path d="M 32.171875 -5.078125 
Q 28.375 -14.84375 24.75 -17.8125 
Q 21.140625 -20.796875 15.09375 -20.796875 
L 7.90625 -20.796875 
L 7.90625 -13.28125 
L 13.1875 -13.28125 
Q 16.890625 -13.28125 18.9375 -11.515625 
Q 21 -9.765625 23.484375 -3.21875 
L 25.09375 0.875 
L 2.984375 54.6875 
L 12.5 54.6875 
L 29.59375 11.921875 
L 46.6875 54.6875 
L 56.203125 54.6875 
z
" id="DejaVuSans-121"/>
     </defs>
     <g transform="translate(14.798438 196.994062)rotate(-90)scale(0.1 -0.1)">
      <use xlink:href="#DejaVuSans-65"/>
      <use x="68.392578" xlink:href="#DejaVuSans-99"/>
      <use x="123.373047" xlink:href="#DejaVuSans-99"/>
      <use x="178.353516" xlink:href="#DejaVuSans-117"/>
      <use x="241.732422" xlink:href="#DejaVuSans-114"/>
      <use x="282.845703" xlink:href="#DejaVuSans-97"/>
      <use x="344.125" xlink:href="#DejaVuSans-99"/>
      <use x="399.105469" xlink:href="#DejaVuSans-121"/>
     </g>
    </g>
   </g>
   <g id="line2d_31">
    <path clip-path="url(#p0609da2bd4)" d="M 95.817205 375.715469 
L 96.063552 374.514687 
L 97.339102 364.322197 
L 98.614652 365.0867 
L 99.890202 360.754837 
L 101.165752 361.926987 
L 102.441302 349.084493 
L 103.716852 352.397059 
L 104.992402 344.650688 
L 106.267952 340.318947 
L 107.543502 337.464938 
L 108.819052 343.886306 
L 110.094602 333.33708 
L 111.370153 331.298485 
L 112.645703 320.749258 
L 113.921253 325.641741 
L 115.196803 318.252107 
L 116.472353 314.226069 
L 117.747903 315.245367 
L 119.023453 319.373346 
L 120.299003 310.709742 
L 121.574553 308.87503 
L 122.850103 306.377879 
L 124.125653 299.956632 
L 125.401203 298.325804 
L 126.676753 293.127617 
L 127.952303 294.860387 
L 129.227853 290.426582 
L 130.503403 294.095883 
L 131.778953 288.591992 
L 134.330053 287.674636 
L 135.605604 279.112973 
L 136.881154 277.482146 
L 138.156704 276.819584 
L 139.432254 276.972558 
L 140.707804 279.011031 
L 141.983354 278.144586 
L 143.258904 272.589784 
L 144.534454 266.117506 
L 145.810004 268.665567 
L 147.085554 271.570487 
L 148.361104 267.493539 
L 149.636654 268.308831 
L 150.912204 262.601056 
L 152.187754 260.766466 
L 153.463304 259.951053 
L 154.738854 262.85585 
L 156.014404 253.020096 
L 157.289954 255.772163 
L 158.565504 258.982787 
L 159.841055 254.600013 
L 161.116605 251.338358 
L 162.392155 248.688355 
L 163.667705 251.338358 
L 164.943255 250.777738 
L 166.218805 244.815169 
L 167.494355 247.261411 
L 168.769905 246.038229 
L 170.045455 239.056363 
L 171.321005 242.521902 
L 172.596555 243.03149 
L 173.872105 237.629419 
L 175.147655 233.603381 
L 176.423205 238.648716 
L 177.698755 233.654413 
L 178.974305 235.285241 
L 180.249855 231.10623 
L 181.525405 229.32255 
L 182.800955 231.819702 
L 184.076506 229.220608 
L 185.352056 224.786925 
L 186.627606 232.533174 
L 187.903156 224.022421 
L 189.178706 227.895606 
L 190.454256 223.410891 
L 191.729806 221.729153 
L 193.005356 221.117623 
L 194.280906 225.194571 
L 195.556456 227.436928 
L 196.832006 223.003245 
L 198.107556 216.530966 
L 199.383106 219.537827 
L 200.658656 217.040554 
L 201.934206 213.982904 
L 203.209756 215.970347 
L 204.485306 211.281869 
L 205.760856 215.5627 
L 207.036406 211.587573 
L 208.311956 216.887702 
L 209.587507 207.357774 
L 210.863057 211.077985 
L 212.138607 206.695212 
L 213.414157 209.345216 
L 214.689707 207.051948 
L 215.965257 205.42112 
L 217.240807 207.001038 
L 218.516357 209.345216 
L 219.791907 209.701952 
L 221.067457 197.980576 
L 222.343007 201.700909 
L 223.618557 204.962442 
L 224.894107 203.892235 
L 226.169657 206.644302 
L 227.445207 198.847021 
L 228.720757 199.152725 
L 229.996307 198.897931 
L 231.271857 195.585366 
L 232.547407 195.024746 
L 233.822958 195.73834 
L 235.098508 194.107512 
L 236.374058 194.922926 
L 237.649608 196.451811 
L 238.925158 195.73834 
L 240.200708 193.954538 
L 241.476258 188.348705 
L 242.751808 189.622797 
L 244.027358 191.508418 
L 245.302908 192.374742 
L 246.578458 188.552589 
L 247.854008 194.515158 
L 249.129558 187.788085 
L 250.405108 187.329529 
L 251.680658 186.615936 
L 252.956208 188.552589 
L 254.231758 186.768909 
L 255.507308 185.545728 
L 256.782858 182.69184 
L 258.058409 182.182252 
L 259.333959 181.010102 
L 260.609509 180.908161 
L 261.885059 181.927458 
L 264.436159 181.213986 
L 265.711709 177.646627 
L 266.987259 178.258157 
L 268.262809 180.653366 
L 269.538359 182.488078 
L 270.813909 180.398572 
L 272.089459 177.901421 
L 273.365009 174.028236 
L 274.640559 179.226423 
L 275.916109 169.186785 
L 277.191659 171.123438 
L 278.467209 176.627329 
L 279.742759 170.868522 
L 281.018309 167.352195 
L 282.29386 169.339758 
L 283.56941 172.856086 
L 284.84496 173.05997 
L 286.12051 171.989762 
L 287.39606 169.186785 
L 288.67161 169.441579 
L 289.94716 168.728107 
L 291.22271 169.951288 
L 292.49826 165.976161 
L 293.77381 167.505047 
L 295.04936 164.243513 
L 296.32491 167.657899 
L 297.60046 163.173184 
L 298.87601 166.587691 
L 301.42711 161.69533 
L 302.70266 163.377068 
L 303.97821 161.74624 
L 305.25376 162.765538 
L 306.529311 159.30012 
L 307.804861 158.7395 
L 309.080411 157.210615 
L 310.355961 160.013592 
L 311.631511 158.7395 
L 312.907061 153.388461 
L 314.182611 157.414498 
L 315.458161 157.771234 
L 316.733711 161.0838 
L 318.009261 152.725899 
L 319.284811 154.968257 
L 320.560361 154.866315 
L 321.835911 156.548174 
L 323.111461 155.885613 
L 324.387011 151.197014 
L 325.662561 149.77007 
L 326.938111 153.541313 
L 328.213661 153.541313 
L 329.489211 151.044162 
L 330.764762 151.502839 
L 332.040312 155.732761 
L 333.315862 147.170976 
L 334.591412 151.197014 
L 335.866962 148.648952 
L 337.142512 144.520973 
L 338.418062 145.59118 
L 339.693612 152.725899 
L 342.244712 143.807501 
L 343.520262 140.392993 
L 344.795812 150.228748 
L 347.346912 143.094029 
L 348.622462 148.139364 
L 349.898012 142.380557 
L 351.173562 145.642091 
L 352.449112 142.635351 
L 353.724662 137.13146 
L 355.000213 138.35452 
L 356.275763 148.445068 
L 357.551313 141.157497 
L 358.826863 136.774724 
L 360.102413 141.769027 
L 361.377963 138.96605 
L 362.653513 140.291052 
L 363.929063 138.609314 
L 365.204613 139.832374 
L 366.480163 142.023821 
L 367.755713 135.806336 
L 369.031263 138.507372 
L 370.306813 137.437164 
L 371.582363 134.685218 
L 372.857913 133.054391 
L 374.133463 136.519808 
L 375.409013 135.39869 
L 376.684563 137.539106 
L 377.960113 135.908278 
L 379.235664 137.946752 
L 380.511214 137.946752 
L 381.786764 134.379393 
L 383.062314 130.251413 
L 384.337864 128.518765 
L 385.613414 130.506329 
L 386.888964 136.214104 
L 388.164514 131.474595 
L 389.440064 131.066827 
L 390.715614 130.200503 
L 391.991164 127.448557 
L 393.266714 132.646745 
L 394.542264 129.130295 
L 395.817814 125.002316 
L 397.093364 122.912811 
L 398.368914 127.142732 
L 399.644464 127.244674 
L 400.920014 125.104258 
L 402.195564 124.900374 
L 403.471115 126.42926 
L 404.746665 123.626404 
L 406.022215 125.410084 
L 407.297765 126.37835 
L 408.573315 120.211897 
L 409.848865 125.053348 
L 411.124415 121.282105 
L 412.399965 121.231073 
L 413.675515 118.428217 
L 414.951065 120.976279 
L 416.226615 118.581069 
L 417.502165 123.524462 
L 418.777715 119.294541 
L 420.053265 118.530037 
L 421.328815 119.090657 
L 422.604365 116.593506 
L 423.879915 117.358009 
L 425.155465 116.797389 
L 426.431015 122.454254 
L 427.706566 115.319414 
L 428.982116 114.605942 
L 430.257666 118.988715 
L 431.533216 114.758916 
L 432.808766 111.955938 
L 434.084316 113.739618 
L 435.359866 110.2742 
L 436.635416 111.905028 
L 437.910966 112.006848 
L 439.186516 110.427053 
L 440.462066 111.752054 
L 441.737616 109.305935 
L 443.013166 110.477963 
L 444.288716 108.490521 
L 445.564266 107.063577 
L 446.839816 111.752054 
L 448.115366 111.242466 
L 449.390916 105.942337 
L 450.666466 108.490521 
L 451.942017 104.515394 
L 453.217567 107.369281 
L 454.493117 107.827959 
L 455.768667 107.827959 
L 457.044217 104.821219 
L 458.319767 105.024982 
L 459.595317 108.745315 
L 460.870867 105.024982 
L 462.146417 102.52783 
L 463.421967 100.897124 
L 464.697517 103.13936 
L 465.973067 102.629772 
L 467.248617 102.425888 
L 468.524167 102.782624 
L 469.799717 100.948034 
L 471.075267 101.967332 
L 472.350817 98.756587 
L 473.626367 100.897124 
L 474.901917 102.018242 
L 476.177467 95.240259 
L 477.453018 99.368238 
L 478.728568 98.90956 
L 480.004118 93.201785 
L 481.279668 97.788321 
L 482.555218 101.30477 
L 483.830768 95.444021 
L 485.106318 97.890263 
L 486.381868 93.405548 
L 487.657418 99.572001 
L 488.932968 97.023939 
L 490.208518 93.048812 
L 491.484068 96.259435 
L 492.759618 93.354637 
L 494.035168 89.99104 
L 495.310718 92.131577 
L 496.586268 93.915257 
L 497.861818 93.966167 
L 499.137368 94.170051 
L 500.412918 97.686379 
L 501.688469 89.175748 
L 502.964019 91.978604 
L 504.239569 84.792975 
L 505.515119 88.666038 
L 506.790669 91.367074 
L 508.066219 90.704512 
L 509.341769 89.481452 
L 510.617319 89.277568 
L 511.892869 87.239095 
L 513.168419 89.175748 
L 514.443969 83.365909 
L 515.719519 87.850625 
L 516.995069 86.780417 
L 518.270619 82.550617 
L 519.546169 85.098679 
L 520.821719 86.168887 
L 522.097269 82.907353 
L 523.372819 87.290126 
L 524.648369 79.849582 
L 525.92392 82.091939 
L 527.19947 82.856321 
L 528.47502 82.346733 
L 529.75057 81.58223 
L 531.02612 80.104376 
L 532.30167 81.123673 
L 533.57722 80.512022 
L 534.85277 76.7409 
L 536.12832 79.594788 
L 537.40387 79.74764 
L 538.67942 81.123673 
L 539.95497 78.830284 
L 541.23052 78.422638 
L 542.50607 75.059041 
L 543.78162 74.702305 
L 545.05717 78.116812 
L 546.33272 77.301398 
L 547.60827 74.855278 
L 548.88382 75.619661 
L 550.159371 73.224451 
L 551.434921 79.288962 
L 552.710471 70.625357 
L 553.986021 71.287798 
L 555.261571 75.976397 
L 556.537121 75.160983 
L 557.812671 72.307095 
L 559.088221 73.734039 
L 560.363771 67.26176 
L 561.639321 65.783906 
L 562.914871 65.834816 
L 564.190421 73.937923 
L 565.465971 68.535852 
L 566.741521 67.21085 
L 568.017071 68.33209 
L 569.292621 68.128206 
L 570.568171 65.834816 
L 571.843721 68.841678 
L 573.119271 65.98779 
L 574.394822 68.179116 
L 575.670372 65.936758 
L 576.945922 66.497378 
L 578.221472 67.465644 
L 579.497022 63.133903 
L 580.772572 63.541549 
L 582.048122 67.26176 
L 583.323672 61.859811 
L 584.599222 63.847374 
L 585.874772 63.796343 
L 587.150322 63.031961 
L 588.425872 60.738571 
L 589.701422 62.624193 
L 590.976972 61.553985 
L 592.252522 57.680921 
L 593.528072 57.680921 
L 594.803622 61.808779 
L 596.079172 57.222244 
L 597.354722 56.661624 
L 598.630273 57.273154 
L 599.905823 58.088568 
L 601.181373 55.999062 
L 602.456923 56.559682 
L 603.732473 60.534809 
L 605.008023 56.661624 
L 606.283573 55.23468 
L 607.559123 57.375096 
L 608.834673 49.373931 
L 610.110223 53.094264 
L 611.385773 49.272111 
L 612.661323 57.884684 
L 613.936873 54.266414 
L 615.212423 53.349058 
L 616.487973 48.915375 
L 617.763523 54.877944 
L 619.039073 50.699055 
L 620.314623 54.572118 
L 621.590173 49.985583 
L 622.865724 50.902817 
L 624.141274 49.730667 
L 625.416824 47.080664 
L 626.692374 51.463437 
L 627.967924 49.526905 
L 629.243474 46.774838 
L 630.519024 51.718231 
L 631.794574 48.966285 
L 633.070124 49.068227 
L 634.345674 45.806572 
L 635.621224 45.449836 
L 636.896774 46.316281 
L 638.172324 44.736364 
L 639.447874 45.551778 
L 640.723424 45.0931 
L 641.998974 44.124834 
L 643.274524 44.48157 
L 644.550074 42.64698 
L 645.825624 41.678593 
L 647.101175 43.30942 
L 648.376725 43.615246 
L 649.652275 44.175866 
L 650.927825 41.118094 
L 652.203375 38.417059 
L 653.478925 39.996855 
L 654.754475 38.519001 
L 656.030025 40.353591 
L 657.305575 37.958381 
L 658.581125 39.181441 
L 659.856675 38.060323 
L 661.132225 38.162265 
L 662.407775 36.633379 
L 663.683325 38.162265 
L 664.958875 40.047887 
L 667.509975 35.766934 
L 668.785525 35.970818 
L 670.061075 35.461229 
L 671.336626 36.531437 
L 672.612176 32.964078 
L 673.887726 32.45449 
L 675.163276 31.33325 
L 677.714376 37.142967 
L 678.989926 32.148664 
L 680.265476 32.607342 
L 681.541026 31.231308 
L 682.816576 34.085196 
L 684.092126 30.77263 
L 685.367676 33.575608 
L 686.643226 34.238169 
L 687.918776 30.568868 
L 687.918776 30.568868 
" style="fill:none;stroke:#377eb8;stroke-linecap:square;stroke-width:1.5;"/>
   </g>
   <g id="line2d_32">
    <path clip-path="url(#p0609da2bd4)" d="M 82.245907 375.715469 
L 83.308051 351.62733 
L 84.37778 375.715469 
M 86.780101 375.715469 
L 87.134702 370.297159 
L 88.410252 341.369106 
L 89.685802 333.77814 
L 90.961352 369.88684 
L 92.236902 350.806692 
L 93.512452 348.754974 
L 94.788002 370.297159 
L 96.063552 315.723729 
L 97.339102 306.696584 
L 98.614652 323.930356 
L 99.890202 305.875945 
L 101.165752 299.926256 
L 102.441302 316.954808 
L 103.667242 375.715469 
M 103.753176 375.715469 
L 104.992402 294.591984 
L 106.267952 279.820248 
L 107.543502 276.127375 
L 108.819052 314.492771 
L 110.094602 291.30943 
L 111.370153 271.818841 
L 112.645703 313.056714 
L 113.921253 276.127375 
L 115.196803 280.640887 
L 116.472353 300.746894 
L 117.747903 296.848801 
L 119.023453 298.284979 
L 120.299003 298.079758 
L 121.574553 261.355518 
L 122.850103 253.764551 
L 124.125653 241.659952 
L 125.401203 270.793104 
L 126.676753 254.995509 
L 127.952303 260.329781 
L 129.227853 275.922155 
L 130.503403 244.737407 
L 131.778953 247.814862 
L 133.054503 252.533594 
L 134.330053 254.79041 
L 135.605604 233.863765 
L 136.881154 294.386885 
L 138.156704 238.992816 
L 139.432254 225.041719 
L 140.707804 248.019961 
L 141.983354 252.533594 
L 143.258904 248.43028 
L 144.534454 239.197915 
L 145.810004 222.579803 
L 147.085554 234.274084 
L 148.361104 241.249632 
L 149.636654 225.452038 
L 150.912204 222.784902 
L 152.187754 251.918054 
L 153.463304 240.634093 
L 154.738854 237.966957 
L 156.014404 215.809354 
L 157.289954 216.424893 
L 158.565504 242.890909 
L 159.841055 239.403135 
L 161.116605 249.456139 
L 162.392155 227.913953 
L 163.667705 233.248225 
L 164.943255 205.346031 
L 166.218805 222.374583 
L 167.494355 215.193936 
L 168.769905 232.222366 
L 170.045455 222.784902 
L 171.321005 208.833805 
L 172.596555 228.734713 
L 173.872105 222.784902 
L 175.147655 213.347438 
L 176.423205 208.218387 
L 177.698755 225.452038 
L 178.974305 199.80666 
L 180.249855 233.453445 
L 181.525405 242.27537 
L 182.800955 217.450631 
L 184.076506 216.835212 
L 185.352056 229.965671 
L 186.627606 193.856971 
L 187.903156 239.197915 
L 189.178706 233.248225 
L 190.454256 208.628706 
L 191.729806 207.192528 
L 193.005356 196.524106 
L 194.280906 225.041719 
L 195.556456 194.26729 
L 196.832006 207.602847 
L 198.107556 215.193936 
L 199.383106 213.757757 
L 200.658656 212.11648 
L 201.934206 197.549844 
L 203.209756 200.627299 
L 204.485306 191.805253 
L 205.760856 204.525392 
L 207.036406 200.011881 
L 208.311956 198.370482 
L 209.587507 214.783616 
L 210.863057 207.602847 
L 212.138607 211.500941 
L 213.414157 219.502348 
L 214.689707 198.575703 
L 217.240807 185.445244 
L 218.516357 189.958877 
L 219.791907 197.960163 
L 221.067457 196.524106 
L 222.343007 184.214286 
L 223.618557 243.301229 
L 224.894107 194.882708 
L 226.169657 187.49684 
L 227.445207 182.983328 
L 228.720757 197.755064 
L 229.996307 201.447937 
L 231.271857 193.036332 
L 232.547407 198.986022 
L 233.822958 211.91126 
L 235.098508 214.783616 
L 236.374058 187.70206 
L 237.649608 198.575703 
L 238.925158 192.010473 
L 240.200708 214.578396 
L 241.476258 198.165383 
L 242.751808 205.346031 
L 244.027358 192.420792 
L 245.302908 197.755064 
L 246.578458 222.374583 
L 247.854008 189.548558 
L 249.129558 186.676202 
L 250.405108 181.95747 
L 251.680658 183.185511 
L 252.956208 186.881422 
L 254.231758 189.138239 
L 255.507308 193.446651 
L 256.782858 204.320293 
L 258.058409 188.933018 
L 259.333959 187.907159 
L 260.609509 190.984614 
L 261.885059 195.293027 
L 263.160609 172.314785 
L 264.436159 194.26729 
L 265.711709 183.598747 
L 266.987259 177.238738 
L 268.262809 184.419385 
L 269.538359 169.23733 
L 270.813909 184.419385 
L 272.089459 176.828418 
L 273.365009 181.34193 
L 274.640559 176.623198 
L 275.916109 199.191121 
L 277.191659 191.600154 
L 278.467209 180.521292 
L 279.742759 174.161283 
L 281.018309 192.010473 
L 282.29386 169.23733 
L 283.56941 191.805253 
L 284.84496 187.086521 
L 286.12051 182.983328 
L 287.39606 174.776822 
L 288.67161 174.366503 
L 289.94716 176.418099 
L 291.22271 182.16269 
L 292.49826 187.086521 
L 293.77381 190.984614 
L 295.04936 166.775415 
L 296.32491 175.39224 
L 297.60046 171.699367 
L 298.87601 179.905873 
L 300.15156 162.672101 
L 301.42711 172.314785 
L 302.70266 177.033517 
L 303.97821 189.958877 
L 305.25376 176.828418 
L 306.529311 182.778108 
L 307.804861 165.544457 
L 309.080411 177.649057 
L 310.355961 166.775415 
L 311.631511 179.700653 
L 312.907061 186.060784 
L 315.458161 173.135424 
L 316.733711 182.573009 
L 318.009261 179.085235 
L 319.284811 171.083828 
L 320.560361 170.673508 
L 321.835911 181.54715 
L 323.111461 179.495554 
L 324.387011 183.598747 
L 325.662561 173.340644 
L 326.938111 175.187141 
L 328.213661 170.468409 
L 329.489211 186.676202 
L 330.764762 166.570194 
L 332.040312 171.494147 
L 333.315862 172.930325 
L 334.591412 164.723819 
L 335.866962 169.23733 
L 337.142512 164.723819 
L 338.418062 181.34193 
L 339.693612 160.415406 
L 340.969162 172.314785 
L 342.244712 178.674916 
L 343.520262 171.699367 
L 344.795812 178.469695 
L 346.071362 178.674916 
L 347.346912 163.287641 
L 348.622462 165.134138 
L 349.898012 179.905873 
L 351.173562 162.877321 
L 352.449112 169.032231 
L 353.724662 174.571602 
L 355.000213 170.878729 
L 356.275763 168.621912 
L 357.551313 165.749556 
L 358.826863 173.750963 
L 360.102413 168.621912 
L 361.377963 162.877321 
L 362.653513 176.212879 
L 363.929063 173.340644 
L 365.204613 162.467002 
L 366.480163 153.029538 
L 369.031263 168.006373 
L 370.306813 158.363688 
L 371.582363 161.236044 
L 372.857913 176.418099 
L 374.133463 164.723819 
L 375.409013 151.798459 
L 376.684563 163.90318 
L 377.960113 173.750963 
L 379.235664 157.54305 
L 380.511214 167.185734 
L 381.786764 166.365096 
L 383.062314 166.980635 
L 384.337864 164.518598 
L 385.613414 180.521292 
L 386.888964 160.415406 
L 388.164514 162.877321 
L 389.440064 159.594767 
L 390.715614 160.620505 
L 391.991164 157.953369 
L 393.266714 173.135424 
L 394.542264 150.157182 
L 395.817814 158.158589 
L 397.093364 162.877321 
L 398.368914 161.030824 
L 399.644464 164.928917 
L 400.920014 173.135424 
L 402.195564 172.314785 
L 403.471115 170.673508 
L 404.746665 152.208778 
L 406.022215 152.824318 
L 407.297765 152.208778 
L 408.573315 160.005087 
L 409.848865 162.877321 
L 411.124415 147.490046 
L 412.399965 154.260496 
L 413.675515 166.159875 
L 414.951065 157.337951 
L 416.226615 165.339237 
L 417.502165 152.208778 
L 418.777715 166.159875 
L 420.053265 157.953369 
L 421.328815 157.13273 
L 422.604365 155.081134 
L 423.879915 160.620505 
L 425.155465 153.850177 
L 426.431015 159.389547 
L 427.706566 148.721125 
L 428.982116 163.69796 
L 430.257666 153.439857 
L 431.533216 166.159875 
L 432.808766 146.874628 
L 434.084316 156.722411 
L 435.359866 162.467002 
L 436.635416 153.234637 
L 437.910966 156.312092 
L 439.186516 152.413998 
L 440.462066 162.672101 
L 441.737616 163.90318 
L 443.013166 148.721125 
L 444.288716 151.38814 
L 445.564266 147.695266 
L 448.115366 152.413998 
L 449.390916 156.722411 
L 450.666466 159.594767 
L 451.942017 159.909341 
L 453.217567 177.238738 
L 454.493117 161.851462 
L 455.768667 150.772721 
L 457.044217 155.081134 
L 458.319767 150.772721 
L 459.595317 153.439857 
L 460.870867 151.798459 
L 462.146417 152.824318 
L 463.421967 151.798459 
L 464.697517 146.669408 
L 465.973067 149.336543 
L 467.248617 156.106993 
L 468.524167 149.131445 
L 469.799717 153.439857 
L 471.075267 145.848769 
L 472.350817 152.824318 
L 473.626367 153.439857 
L 474.901917 164.313499 
L 476.177467 152.824318 
L 477.453018 153.439857 
L 478.728568 148.721125 
L 480.004118 146.259088 
L 481.279668 157.337951 
L 482.555218 149.131445 
L 483.830768 148.721125 
L 485.106318 151.183041 
L 486.381868 154.670815 
L 487.657418 156.927632 
L 488.932968 158.363688 
L 490.208518 164.723819 
L 491.484068 143.386854 
L 492.759618 147.079727 
L 494.035168 146.259088 
L 495.310718 158.158589 
L 496.586268 141.335257 
L 497.861818 163.287641 
L 499.137368 146.259088 
L 500.412918 147.079727 
L 501.688469 152.413998 
L 502.964019 141.130037 
L 504.239569 146.669408 
L 505.515119 144.82291 
L 506.790669 149.336543 
L 508.066219 149.746863 
L 509.341769 143.591953 
L 510.617319 141.950676 
L 511.892869 154.055275 
L 513.168419 148.310685 
L 514.443969 143.181633 
L 515.719519 152.824318 
L 516.995069 160.415406 
L 518.270619 138.462901 
L 519.546169 148.310685 
L 520.821719 146.053989 
L 522.097269 139.28354 
L 523.372819 144.002272 
L 524.648369 154.260496 
L 525.92392 139.078441 
L 527.19947 146.259088 
L 528.47502 147.490046 
L 529.75057 140.309399 
L 531.02612 135.590667 
L 532.30167 144.617811 
L 533.57722 136.821624 
L 534.85277 144.207492 
L 536.12832 148.721125 
L 537.40387 138.052582 
L 538.67942 140.719718 
L 539.95497 134.975127 
L 541.23052 137.026723 
L 542.50607 142.566215 
L 543.78162 138.052582 
L 545.05717 142.566215 
L 546.33272 135.385446 
L 547.60827 146.669408 
L 548.88382 139.28354 
L 550.159371 151.38814 
L 551.434921 142.155896 
L 552.710471 140.924817 
L 553.986021 153.029538 
L 555.261571 138.873221 
L 556.537121 134.975127 
L 557.812671 140.719718 
L 559.088221 135.795765 
L 560.363771 141.540356 
L 561.639321 148.105586 
L 562.914871 135.590667 
L 564.190421 134.770028 
L 565.465971 139.899079 
L 566.741521 140.104178 
L 568.017071 140.924817 
L 569.292621 140.104178 
L 570.568171 140.719718 
L 571.843721 145.233351 
L 573.119271 137.437042 
L 574.394822 137.231944 
L 575.670372 140.309399 
L 576.945922 133.538949 
L 578.221472 138.668122 
L 579.497022 136.821624 
L 580.772572 139.899079 
L 582.048122 139.28354 
L 583.323672 144.617811 
L 584.599222 129.846076 
L 585.874772 145.64367 
L 587.150322 143.591953 
L 588.425872 140.104178 
L 589.701422 140.104178 
L 590.976972 132.513212 
L 592.252522 138.668122 
L 593.528072 139.078441 
L 594.803622 133.12863 
L 596.079172 138.873221 
L 597.354722 134.770028 
L 598.630273 136.000986 
L 599.905823 134.770028 
L 601.181373 138.462901 
L 602.456923 130.256395 
L 603.732473 131.897672 
L 605.008023 134.770028 
L 606.283573 139.48876 
L 607.559123 148.515905 
L 608.834673 132.71831 
L 611.385773 140.924817 
L 612.661323 134.359709 
L 613.936873 144.82291 
L 615.212423 138.052582 
L 616.487973 130.666714 
L 617.763523 138.668122 
L 619.039073 135.795765 
L 620.314623 133.949268 
L 621.590173 139.078441 
L 622.865724 134.564808 
L 624.141274 138.462901 
L 625.416824 137.847483 
L 626.692374 135.180347 
L 627.967924 133.538949 
L 629.243474 134.564808 
L 630.519024 131.077033 
L 631.794574 135.590667 
L 633.070124 134.154489 
L 635.621224 127.589259 
L 636.896774 135.385446 
L 638.172324 130.666714 
L 639.447874 130.871935 
L 640.723424 133.33385 
L 641.998974 135.180347 
L 643.274524 133.12863 
L 644.550074 128.820217 
L 645.825624 134.770028 
L 647.101175 128.409898 
L 648.376725 130.666714 
L 649.652275 130.461615 
L 650.927825 131.077033 
L 652.203375 131.324659 
L 653.478925 128.409898 
L 654.754475 126.5634 
L 656.030025 126.973841 
L 657.305575 127.589259 
L 658.581125 129.230536 
L 659.856675 129.846076 
L 661.132225 133.538949 
L 662.407775 126.5634 
L 663.683325 129.025437 
L 664.958875 130.051175 
L 666.234425 133.538949 
L 667.509975 126.358301 
L 668.785525 127.999578 
L 670.061075 131.487353 
L 671.336626 127.589259 
L 672.612176 131.692573 
L 673.887726 127.79448 
L 675.163276 129.435757 
L 676.438826 126.973841 
L 677.714376 129.230536 
L 678.989926 128.615118 
L 680.265476 130.256395 
L 681.541026 126.973841 
L 682.816576 133.33385 
L 684.092126 123.280846 
L 685.367676 130.461615 
L 686.643226 131.077033 
L 687.918776 127.999578 
L 687.918776 127.999578 
" style="fill:none;stroke:#4daf4a;stroke-linecap:square;stroke-width:1.5;"/>
   </g>
   <g id="patch_3">
    <path d="M 50.14375 337.159219 
L 50.14375 10.999219 
" style="fill:none;stroke:#000000;stroke-linecap:square;stroke-linejoin:miter;stroke-width:0.8;"/>
   </g>
   <g id="patch_4">
    <path d="M 719.74375 337.159219 
L 719.74375 10.999219 
" style="fill:none;stroke:#000000;stroke-linecap:square;stroke-linejoin:miter;stroke-width:0.8;"/>
   </g>
   <g id="patch_5">
    <path d="M 50.14375 337.159219 
L 719.74375 337.159219 
" style="fill:none;stroke:#000000;stroke-linecap:square;stroke-linejoin:miter;stroke-width:0.8;"/>
   </g>
   <g id="patch_6">
    <path d="M 50.14375 10.999219 
L 719.74375 10.999219 
" style="fill:none;stroke:#000000;stroke-linecap:square;stroke-linejoin:miter;stroke-width:0.8;"/>
   </g>
   <g id="legend_1">
    <g id="patch_7">
     <path d="M 57.14375 48.355469 
L 114.584375 48.355469 
Q 116.584375 48.355469 116.584375 46.355469 
L 116.584375 17.999219 
Q 116.584375 15.999219 114.584375 15.999219 
L 57.14375 15.999219 
Q 55.14375 15.999219 55.14375 17.999219 
L 55.14375 46.355469 
Q 55.14375 48.355469 57.14375 48.355469 
z
" style="fill:#ffffff;opacity:0.8;stroke:#cccccc;stroke-linejoin:miter;"/>
    </g>
    <g id="line2d_33">
     <path d="M 59.14375 24.097656 
L 79.14375 24.097656 
" style="fill:none;stroke:#377eb8;stroke-linecap:square;stroke-width:1.5;"/>
    </g>
    <g id="line2d_34"/>
    <g id="text_18">
     <!-- Train -->
     <defs>
      <path d="M -0.296875 72.90625 
L 61.375 72.90625 
L 61.375 64.59375 
L 35.5 64.59375 
L 35.5 0 
L 25.59375 0 
L 25.59375 64.59375 
L -0.296875 64.59375 
z
" id="DejaVuSans-84"/>
      <path d="M 9.421875 54.6875 
L 18.40625 54.6875 
L 18.40625 0 
L 9.421875 0 
z
M 9.421875 75.984375 
L 18.40625 75.984375 
L 18.40625 64.59375 
L 9.421875 64.59375 
z
" id="DejaVuSans-105"/>
      <path d="M 54.890625 33.015625 
L 54.890625 0 
L 45.90625 0 
L 45.90625 32.71875 
Q 45.90625 40.484375 42.875 44.328125 
Q 39.84375 48.1875 33.796875 48.1875 
Q 26.515625 48.1875 22.3125 43.546875 
Q 18.109375 38.921875 18.109375 30.90625 
L 18.109375 0 
L 9.078125 0 
L 9.078125 54.6875 
L 18.109375 54.6875 
L 18.109375 46.1875 
Q 21.34375 51.125 25.703125 53.5625 
Q 30.078125 56 35.796875 56 
Q 45.21875 56 50.046875 50.171875 
Q 54.890625 44.34375 54.890625 33.015625 
z
" id="DejaVuSans-110"/>
     </defs>
     <g transform="translate(87.14375 27.597656)scale(0.1 -0.1)">
      <use xlink:href="#DejaVuSans-84"/>
      <use x="60.865234" xlink:href="#DejaVuSans-114"/>
      <use x="101.978516" xlink:href="#DejaVuSans-97"/>
      <use x="163.257812" xlink:href="#DejaVuSans-105"/>
      <use x="191.041016" xlink:href="#DejaVuSans-110"/>
     </g>
    </g>
    <g id="line2d_35">
     <path d="M 59.14375 38.775781 
L 79.14375 38.775781 
" style="fill:none;stroke:#4daf4a;stroke-linecap:square;stroke-width:1.5;"/>
    </g>
    <g id="line2d_36"/>
    <g id="text_19">
     <!-- Test -->
     <defs>
      <path d="M 56.203125 29.59375 
L 56.203125 25.203125 
L 14.890625 25.203125 
Q 15.484375 15.921875 20.484375 11.0625 
Q 25.484375 6.203125 34.421875 6.203125 
Q 39.59375 6.203125 44.453125 7.46875 
Q 49.3125 8.734375 54.109375 11.28125 
L 54.109375 2.78125 
Q 49.265625 0.734375 44.1875 -0.34375 
Q 39.109375 -1.421875 33.890625 -1.421875 
Q 20.796875 -1.421875 13.15625 6.1875 
Q 5.515625 13.8125 5.515625 26.8125 
Q 5.515625 40.234375 12.765625 48.109375 
Q 20.015625 56 32.328125 56 
Q 43.359375 56 49.78125 48.890625 
Q 56.203125 41.796875 56.203125 29.59375 
z
M 47.21875 32.234375 
Q 47.125 39.59375 43.09375 43.984375 
Q 39.0625 48.390625 32.421875 48.390625 
Q 24.90625 48.390625 20.390625 44.140625 
Q 15.875 39.890625 15.1875 32.171875 
z
" id="DejaVuSans-101"/>
      <path d="M 44.28125 53.078125 
L 44.28125 44.578125 
Q 40.484375 46.53125 36.375 47.5 
Q 32.28125 48.484375 27.875 48.484375 
Q 21.1875 48.484375 17.84375 46.4375 
Q 14.5 44.390625 14.5 40.28125 
Q 14.5 37.15625 16.890625 35.375 
Q 19.28125 33.59375 26.515625 31.984375 
L 29.59375 31.296875 
Q 39.15625 29.25 43.1875 25.515625 
Q 47.21875 21.78125 47.21875 15.09375 
Q 47.21875 7.46875 41.1875 3.015625 
Q 35.15625 -1.421875 24.609375 -1.421875 
Q 20.21875 -1.421875 15.453125 -0.5625 
Q 10.6875 0.296875 5.421875 2 
L 5.421875 11.28125 
Q 10.40625 8.6875 15.234375 7.390625 
Q 20.0625 6.109375 24.8125 6.109375 
Q 31.15625 6.109375 34.5625 8.28125 
Q 37.984375 10.453125 37.984375 14.40625 
Q 37.984375 18.0625 35.515625 20.015625 
Q 33.0625 21.96875 24.703125 23.78125 
L 21.578125 24.515625 
Q 13.234375 26.265625 9.515625 29.90625 
Q 5.8125 33.546875 5.8125 39.890625 
Q 5.8125 47.609375 11.28125 51.796875 
Q 16.75 56 26.8125 56 
Q 31.78125 56 36.171875 55.265625 
Q 40.578125 54.546875 44.28125 53.078125 
z
" id="DejaVuSans-115"/>
      <path d="M 18.3125 70.21875 
L 18.3125 54.6875 
L 36.8125 54.6875 
L 36.8125 47.703125 
L 18.3125 47.703125 
L 18.3125 18.015625 
Q 18.3125 11.328125 20.140625 9.421875 
Q 21.96875 7.515625 27.59375 7.515625 
L 36.8125 7.515625 
L 36.8125 0 
L 27.59375 0 
Q 17.1875 0 13.234375 3.875 
Q 9.28125 7.765625 9.28125 18.015625 
L 9.28125 47.703125 
L 2.6875 47.703125 
L 2.6875 54.6875 
L 9.28125 54.6875 
L 9.28125 70.21875 
z
" id="DejaVuSans-116"/>
     </defs>
     <g transform="translate(87.14375 42.275781)scale(0.1 -0.1)">
      <use xlink:href="#DejaVuSans-84"/>
      <use x="60.818359" xlink:href="#DejaVuSans-101"/>
      <use x="122.341797" xlink:href="#DejaVuSans-115"/>
      <use x="174.441406" xlink:href="#DejaVuSans-116"/>
     </g>
    </g>
   </g>
  </g>
 </g>
 <defs>
  <clipPath id="p0609da2bd4">
   <rect height="326.16" width="669.6" x="50.14375" y="10.999219"/>
  </clipPath>
 </defs>
</svg>
