<?xml version="1.0" encoding="utf-8" standalone="no"?>
<!DOCTYPE svg PUBLIC "-//W3C//DTD SVG 1.1//EN"
  "http://www.w3.org/Graphics/SVG/1.1/DTD/svg11.dtd">
<!-- Created with matplotlib (https://matplotlib.org/) -->
<svg height="374.715469pt" version="1.1" viewBox="0 0 726.94375 374.715469" width="726.94375pt" xmlns="http://www.w3.org/2000/svg" xmlns:xlink="http://www.w3.org/1999/xlink">
 <defs>
  <style type="text/css">
*{stroke-linecap:butt;stroke-linejoin:round;white-space:pre;}
  </style>
 </defs>
 <g id="figure_1">
  <g id="patch_1">
   <path d="M 0 374.715469 
L 726.94375 374.715469 
L 726.94375 0 
L 0 0 
z
" style="fill:#ffffff;"/>
  </g>
  <g id="axes_1">
   <g id="patch_2">
    <path d="M 50.14375 337.159219 
L 719.74375 337.159219 
L 719.74375 10.999219 
L 50.14375 10.999219 
z
" style="fill:#ffffff;"/>
   </g>
   <g id="matplotlib.axis_1">
    <g id="xtick_1">
     <g id="line2d_1">
      <path clip-path="url(#pef37d0ccc5)" d="M 50.14375 337.159219 
L 50.14375 10.999219 
" style="fill:none;stroke:#b0b0b0;stroke-linecap:square;stroke-width:0.8;"/>
     </g>
     <g id="line2d_2">
      <defs>
       <path d="M 0 0 
L 0 3.5 
" id="m217c47a0ed" style="stroke:#000000;stroke-width:0.8;"/>
      </defs>
      <g>
       <use style="stroke:#000000;stroke-width:0.8;" x="50.14375" xlink:href="#m217c47a0ed" y="337.159219"/>
      </g>
     </g>
     <g id="text_1">
      <!-- 0 -->
      <defs>
       <path d="M 31.78125 66.40625 
Q 24.171875 66.40625 20.328125 58.90625 
Q 16.5 51.421875 16.5 36.375 
Q 16.5 21.390625 20.328125 13.890625 
Q 24.171875 6.390625 31.78125 6.390625 
Q 39.453125 6.390625 43.28125 13.890625 
Q 47.125 21.390625 47.125 36.375 
Q 47.125 51.421875 43.28125 58.90625 
Q 39.453125 66.40625 31.78125 66.40625 
z
M 31.78125 74.21875 
Q 44.046875 74.21875 50.515625 64.515625 
Q 56.984375 54.828125 56.984375 36.375 
Q 56.984375 17.96875 50.515625 8.265625 
Q 44.046875 -1.421875 31.78125 -1.421875 
Q 19.53125 -1.421875 13.0625 8.265625 
Q 6.59375 17.96875 6.59375 36.375 
Q 6.59375 54.828125 13.0625 64.515625 
Q 19.53125 74.21875 31.78125 74.21875 
z
" id="DejaVuSans-48"/>
      </defs>
      <g transform="translate(46.9625 351.757656)scale(0.1 -0.1)">
       <use xlink:href="#DejaVuSans-48"/>
      </g>
     </g>
    </g>
    <g id="xtick_2">
     <g id="line2d_3">
      <path clip-path="url(#pef37d0ccc5)" d="M 177.698755 337.159219 
L 177.698755 10.999219 
" style="fill:none;stroke:#b0b0b0;stroke-linecap:square;stroke-width:0.8;"/>
     </g>
     <g id="line2d_4">
      <g>
       <use style="stroke:#000000;stroke-width:0.8;" x="177.698755" xlink:href="#m217c47a0ed" y="337.159219"/>
      </g>
     </g>
     <g id="text_2">
      <!-- 100 -->
      <defs>
       <path d="M 12.40625 8.296875 
L 28.515625 8.296875 
L 28.515625 63.921875 
L 10.984375 60.40625 
L 10.984375 69.390625 
L 28.421875 72.90625 
L 38.28125 72.90625 
L 38.28125 8.296875 
L 54.390625 8.296875 
L 54.390625 0 
L 12.40625 0 
z
" id="DejaVuSans-49"/>
      </defs>
      <g transform="translate(168.155005 351.757656)scale(0.1 -0.1)">
       <use xlink:href="#DejaVuSans-49"/>
       <use x="63.623047" xlink:href="#DejaVuSans-48"/>
       <use x="127.246094" xlink:href="#DejaVuSans-48"/>
      </g>
     </g>
    </g>
    <g id="xtick_3">
     <g id="line2d_5">
      <path clip-path="url(#pef37d0ccc5)" d="M 305.25376 337.159219 
L 305.25376 10.999219 
" style="fill:none;stroke:#b0b0b0;stroke-linecap:square;stroke-width:0.8;"/>
     </g>
     <g id="line2d_6">
      <g>
       <use style="stroke:#000000;stroke-width:0.8;" x="305.25376" xlink:href="#m217c47a0ed" y="337.159219"/>
      </g>
     </g>
     <g id="text_3">
      <!-- 200 -->
      <defs>
       <path d="M 19.1875 8.296875 
L 53.609375 8.296875 
L 53.609375 0 
L 7.328125 0 
L 7.328125 8.296875 
Q 12.9375 14.109375 22.625 23.890625 
Q 32.328125 33.6875 34.8125 36.53125 
Q 39.546875 41.84375 41.421875 45.53125 
Q 43.3125 49.21875 43.3125 52.78125 
Q 43.3125 58.59375 39.234375 62.25 
Q 35.15625 65.921875 28.609375 65.921875 
Q 23.96875 65.921875 18.8125 64.3125 
Q 13.671875 62.703125 7.8125 59.421875 
L 7.8125 69.390625 
Q 13.765625 71.78125 18.9375 73 
Q 24.125 74.21875 28.421875 74.21875 
Q 39.75 74.21875 46.484375 68.546875 
Q 53.21875 62.890625 53.21875 53.421875 
Q 53.21875 48.921875 51.53125 44.890625 
Q 49.859375 40.875 45.40625 35.40625 
Q 44.1875 33.984375 37.640625 27.21875 
Q 31.109375 20.453125 19.1875 8.296875 
z
" id="DejaVuSans-50"/>
      </defs>
      <g transform="translate(295.71001 351.757656)scale(0.1 -0.1)">
       <use xlink:href="#DejaVuSans-50"/>
       <use x="63.623047" xlink:href="#DejaVuSans-48"/>
       <use x="127.246094" xlink:href="#DejaVuSans-48"/>
      </g>
     </g>
    </g>
    <g id="xtick_4">
     <g id="line2d_7">
      <path clip-path="url(#pef37d0ccc5)" d="M 432.808766 337.159219 
L 432.808766 10.999219 
" style="fill:none;stroke:#b0b0b0;stroke-linecap:square;stroke-width:0.8;"/>
     </g>
     <g id="line2d_8">
      <g>
       <use style="stroke:#000000;stroke-width:0.8;" x="432.808766" xlink:href="#m217c47a0ed" y="337.159219"/>
      </g>
     </g>
     <g id="text_4">
      <!-- 300 -->
      <defs>
       <path d="M 40.578125 39.3125 
Q 47.65625 37.796875 51.625 33 
Q 55.609375 28.21875 55.609375 21.1875 
Q 55.609375 10.40625 48.1875 4.484375 
Q 40.765625 -1.421875 27.09375 -1.421875 
Q 22.515625 -1.421875 17.65625 -0.515625 
Q 12.796875 0.390625 7.625 2.203125 
L 7.625 11.71875 
Q 11.71875 9.328125 16.59375 8.109375 
Q 21.484375 6.890625 26.8125 6.890625 
Q 36.078125 6.890625 40.9375 10.546875 
Q 45.796875 14.203125 45.796875 21.1875 
Q 45.796875 27.640625 41.28125 31.265625 
Q 36.765625 34.90625 28.71875 34.90625 
L 20.21875 34.90625 
L 20.21875 43.015625 
L 29.109375 43.015625 
Q 36.375 43.015625 40.234375 45.921875 
Q 44.09375 48.828125 44.09375 54.296875 
Q 44.09375 59.90625 40.109375 62.90625 
Q 36.140625 65.921875 28.71875 65.921875 
Q 24.65625 65.921875 20.015625 65.03125 
Q 15.375 64.15625 9.8125 62.3125 
L 9.8125 71.09375 
Q 15.4375 72.65625 20.34375 73.4375 
Q 25.25 74.21875 29.59375 74.21875 
Q 40.828125 74.21875 47.359375 69.109375 
Q 53.90625 64.015625 53.90625 55.328125 
Q 53.90625 49.265625 50.4375 45.09375 
Q 46.96875 40.921875 40.578125 39.3125 
z
" id="DejaVuSans-51"/>
      </defs>
      <g transform="translate(423.265016 351.757656)scale(0.1 -0.1)">
       <use xlink:href="#DejaVuSans-51"/>
       <use x="63.623047" xlink:href="#DejaVuSans-48"/>
       <use x="127.246094" xlink:href="#DejaVuSans-48"/>
      </g>
     </g>
    </g>
    <g id="xtick_5">
     <g id="line2d_9">
      <path clip-path="url(#pef37d0ccc5)" d="M 560.363771 337.159219 
L 560.363771 10.999219 
" style="fill:none;stroke:#b0b0b0;stroke-linecap:square;stroke-width:0.8;"/>
     </g>
     <g id="line2d_10">
      <g>
       <use style="stroke:#000000;stroke-width:0.8;" x="560.363771" xlink:href="#m217c47a0ed" y="337.159219"/>
      </g>
     </g>
     <g id="text_5">
      <!-- 400 -->
      <defs>
       <path d="M 37.796875 64.3125 
L 12.890625 25.390625 
L 37.796875 25.390625 
z
M 35.203125 72.90625 
L 47.609375 72.90625 
L 47.609375 25.390625 
L 58.015625 25.390625 
L 58.015625 17.1875 
L 47.609375 17.1875 
L 47.609375 0 
L 37.796875 0 
L 37.796875 17.1875 
L 4.890625 17.1875 
L 4.890625 26.703125 
z
" id="DejaVuSans-52"/>
      </defs>
      <g transform="translate(550.820021 351.757656)scale(0.1 -0.1)">
       <use xlink:href="#DejaVuSans-52"/>
       <use x="63.623047" xlink:href="#DejaVuSans-48"/>
       <use x="127.246094" xlink:href="#DejaVuSans-48"/>
      </g>
     </g>
    </g>
    <g id="xtick_6">
     <g id="line2d_11">
      <path clip-path="url(#pef37d0ccc5)" d="M 687.918776 337.159219 
L 687.918776 10.999219 
" style="fill:none;stroke:#b0b0b0;stroke-linecap:square;stroke-width:0.8;"/>
     </g>
     <g id="line2d_12">
      <g>
       <use style="stroke:#000000;stroke-width:0.8;" x="687.918776" xlink:href="#m217c47a0ed" y="337.159219"/>
      </g>
     </g>
     <g id="text_6">
      <!-- 500 -->
      <defs>
       <path d="M 10.796875 72.90625 
L 49.515625 72.90625 
L 49.515625 64.59375 
L 19.828125 64.59375 
L 19.828125 46.734375 
Q 21.96875 47.46875 24.109375 47.828125 
Q 26.265625 48.1875 28.421875 48.1875 
Q 40.625 48.1875 47.75 41.5 
Q 54.890625 34.8125 54.890625 23.390625 
Q 54.890625 11.625 47.5625 5.09375 
Q 40.234375 -1.421875 26.90625 -1.421875 
Q 22.3125 -1.421875 17.546875 -0.640625 
Q 12.796875 0.140625 7.71875 1.703125 
L 7.71875 11.625 
Q 12.109375 9.234375 16.796875 8.0625 
Q 21.484375 6.890625 26.703125 6.890625 
Q 35.15625 6.890625 40.078125 11.328125 
Q 45.015625 15.765625 45.015625 23.390625 
Q 45.015625 31 40.078125 35.4375 
Q 35.15625 39.890625 26.703125 39.890625 
Q 22.75 39.890625 18.8125 39.015625 
Q 14.890625 38.140625 10.796875 36.28125 
z
" id="DejaVuSans-53"/>
      </defs>
      <g transform="translate(678.375026 351.757656)scale(0.1 -0.1)">
       <use xlink:href="#DejaVuSans-53"/>
       <use x="63.623047" xlink:href="#DejaVuSans-48"/>
       <use x="127.246094" xlink:href="#DejaVuSans-48"/>
      </g>
     </g>
    </g>
    <g id="text_7">
     <!-- Epoch -->
     <defs>
      <path d="M 9.8125 72.90625 
L 55.90625 72.90625 
L 55.90625 64.59375 
L 19.671875 64.59375 
L 19.671875 43.015625 
L 54.390625 43.015625 
L 54.390625 34.71875 
L 19.671875 34.71875 
L 19.671875 8.296875 
L 56.78125 8.296875 
L 56.78125 0 
L 9.8125 0 
z
" id="DejaVuSans-69"/>
      <path d="M 18.109375 8.203125 
L 18.109375 -20.796875 
L 9.078125 -20.796875 
L 9.078125 54.6875 
L 18.109375 54.6875 
L 18.109375 46.390625 
Q 20.953125 51.265625 25.265625 53.625 
Q 29.59375 56 35.59375 56 
Q 45.5625 56 51.78125 48.09375 
Q 58.015625 40.1875 58.015625 27.296875 
Q 58.015625 14.40625 51.78125 6.484375 
Q 45.5625 -1.421875 35.59375 -1.421875 
Q 29.59375 -1.421875 25.265625 0.953125 
Q 20.953125 3.328125 18.109375 8.203125 
z
M 48.6875 27.296875 
Q 48.6875 37.203125 44.609375 42.84375 
Q 40.53125 48.484375 33.40625 48.484375 
Q 26.265625 48.484375 22.1875 42.84375 
Q 18.109375 37.203125 18.109375 27.296875 
Q 18.109375 17.390625 22.1875 11.75 
Q 26.265625 6.109375 33.40625 6.109375 
Q 40.53125 6.109375 44.609375 11.75 
Q 48.6875 17.390625 48.6875 27.296875 
z
" id="DejaVuSans-112"/>
      <path d="M 30.609375 48.390625 
Q 23.390625 48.390625 19.1875 42.75 
Q 14.984375 37.109375 14.984375 27.296875 
Q 14.984375 17.484375 19.15625 11.84375 
Q 23.34375 6.203125 30.609375 6.203125 
Q 37.796875 6.203125 41.984375 11.859375 
Q 46.1875 17.53125 46.1875 27.296875 
Q 46.1875 37.015625 41.984375 42.703125 
Q 37.796875 48.390625 30.609375 48.390625 
z
M 30.609375 56 
Q 42.328125 56 49.015625 48.375 
Q 55.71875 40.765625 55.71875 27.296875 
Q 55.71875 13.875 49.015625 6.21875 
Q 42.328125 -1.421875 30.609375 -1.421875 
Q 18.84375 -1.421875 12.171875 6.21875 
Q 5.515625 13.875 5.515625 27.296875 
Q 5.515625 40.765625 12.171875 48.375 
Q 18.84375 56 30.609375 56 
z
" id="DejaVuSans-111"/>
      <path d="M 48.78125 52.59375 
L 48.78125 44.1875 
Q 44.96875 46.296875 41.140625 47.34375 
Q 37.3125 48.390625 33.40625 48.390625 
Q 24.65625 48.390625 19.8125 42.84375 
Q 14.984375 37.3125 14.984375 27.296875 
Q 14.984375 17.28125 19.8125 11.734375 
Q 24.65625 6.203125 33.40625 6.203125 
Q 37.3125 6.203125 41.140625 7.25 
Q 44.96875 8.296875 48.78125 10.40625 
L 48.78125 2.09375 
Q 45.015625 0.34375 40.984375 -0.53125 
Q 36.96875 -1.421875 32.421875 -1.421875 
Q 20.0625 -1.421875 12.78125 6.34375 
Q 5.515625 14.109375 5.515625 27.296875 
Q 5.515625 40.671875 12.859375 48.328125 
Q 20.21875 56 33.015625 56 
Q 37.15625 56 41.109375 55.140625 
Q 45.0625 54.296875 48.78125 52.59375 
z
" id="DejaVuSans-99"/>
      <path d="M 54.890625 33.015625 
L 54.890625 0 
L 45.90625 0 
L 45.90625 32.71875 
Q 45.90625 40.484375 42.875 44.328125 
Q 39.84375 48.1875 33.796875 48.1875 
Q 26.515625 48.1875 22.3125 43.546875 
Q 18.109375 38.921875 18.109375 30.90625 
L 18.109375 0 
L 9.078125 0 
L 9.078125 75.984375 
L 18.109375 75.984375 
L 18.109375 46.1875 
Q 21.34375 51.125 25.703125 53.5625 
Q 30.078125 56 35.796875 56 
Q 45.21875 56 50.046875 50.171875 
Q 54.890625 44.34375 54.890625 33.015625 
z
" id="DejaVuSans-104"/>
     </defs>
     <g transform="translate(369.632813 365.435781)scale(0.1 -0.1)">
      <use xlink:href="#DejaVuSans-69"/>
      <use x="63.183594" xlink:href="#DejaVuSans-112"/>
      <use x="126.660156" xlink:href="#DejaVuSans-111"/>
      <use x="187.841797" xlink:href="#DejaVuSans-99"/>
      <use x="242.822266" xlink:href="#DejaVuSans-104"/>
     </g>
    </g>
   </g>
   <g id="matplotlib.axis_2">
    <g id="ytick_1">
     <g id="line2d_13">
      <path clip-path="url(#pef37d0ccc5)" d="M 50.14375 337.159219 
L 719.74375 337.159219 
" style="fill:none;stroke:#b0b0b0;stroke-linecap:square;stroke-width:0.8;"/>
     </g>
     <g id="line2d_14">
      <defs>
       <path d="M 0 0 
L -3.5 0 
" id="m91c32f791b" style="stroke:#000000;stroke-width:0.8;"/>
      </defs>
      <g>
       <use style="stroke:#000000;stroke-width:0.8;" x="50.14375" xlink:href="#m91c32f791b" y="337.159219"/>
      </g>
     </g>
     <g id="text_8">
      <!-- 0.82 -->
      <defs>
       <path d="M 10.6875 12.40625 
L 21 12.40625 
L 21 0 
L 10.6875 0 
z
" id="DejaVuSans-46"/>
       <path d="M 31.78125 34.625 
Q 24.75 34.625 20.71875 30.859375 
Q 16.703125 27.09375 16.703125 20.515625 
Q 16.703125 13.921875 20.71875 10.15625 
Q 24.75 6.390625 31.78125 6.390625 
Q 38.8125 6.390625 42.859375 10.171875 
Q 46.921875 13.96875 46.921875 20.515625 
Q 46.921875 27.09375 42.890625 30.859375 
Q 38.875 34.625 31.78125 34.625 
z
M 21.921875 38.8125 
Q 15.578125 40.375 12.03125 44.71875 
Q 8.5 49.078125 8.5 55.328125 
Q 8.5 64.0625 14.71875 69.140625 
Q 20.953125 74.21875 31.78125 74.21875 
Q 42.671875 74.21875 48.875 69.140625 
Q 55.078125 64.0625 55.078125 55.328125 
Q 55.078125 49.078125 51.53125 44.71875 
Q 48 40.375 41.703125 38.8125 
Q 48.828125 37.15625 52.796875 32.3125 
Q 56.78125 27.484375 56.78125 20.515625 
Q 56.78125 9.90625 50.3125 4.234375 
Q 43.84375 -1.421875 31.78125 -1.421875 
Q 19.734375 -1.421875 13.25 4.234375 
Q 6.78125 9.90625 6.78125 20.515625 
Q 6.78125 27.484375 10.78125 32.3125 
Q 14.796875 37.15625 21.921875 38.8125 
z
M 18.3125 54.390625 
Q 18.3125 48.734375 21.84375 45.5625 
Q 25.390625 42.390625 31.78125 42.390625 
Q 38.140625 42.390625 41.71875 45.5625 
Q 45.3125 48.734375 45.3125 54.390625 
Q 45.3125 60.0625 41.71875 63.234375 
Q 38.140625 66.40625 31.78125 66.40625 
Q 25.390625 66.40625 21.84375 63.234375 
Q 18.3125 60.0625 18.3125 54.390625 
z
" id="DejaVuSans-56"/>
      </defs>
      <g transform="translate(20.878125 340.958437)scale(0.1 -0.1)">
       <use xlink:href="#DejaVuSans-48"/>
       <use x="63.623047" xlink:href="#DejaVuSans-46"/>
       <use x="95.410156" xlink:href="#DejaVuSans-56"/>
       <use x="159.033203" xlink:href="#DejaVuSans-50"/>
      </g>
     </g>
    </g>
    <g id="ytick_2">
     <g id="line2d_15">
      <path clip-path="url(#pef37d0ccc5)" d="M 50.14375 296.389219 
L 719.74375 296.389219 
" style="fill:none;stroke:#b0b0b0;stroke-linecap:square;stroke-width:0.8;"/>
     </g>
     <g id="line2d_16">
      <g>
       <use style="stroke:#000000;stroke-width:0.8;" x="50.14375" xlink:href="#m91c32f791b" y="296.389219"/>
      </g>
     </g>
     <g id="text_9">
      <!-- 0.84 -->
      <g transform="translate(20.878125 300.188437)scale(0.1 -0.1)">
       <use xlink:href="#DejaVuSans-48"/>
       <use x="63.623047" xlink:href="#DejaVuSans-46"/>
       <use x="95.410156" xlink:href="#DejaVuSans-56"/>
       <use x="159.033203" xlink:href="#DejaVuSans-52"/>
      </g>
     </g>
    </g>
    <g id="ytick_3">
     <g id="line2d_17">
      <path clip-path="url(#pef37d0ccc5)" d="M 50.14375 255.619219 
L 719.74375 255.619219 
" style="fill:none;stroke:#b0b0b0;stroke-linecap:square;stroke-width:0.8;"/>
     </g>
     <g id="line2d_18">
      <g>
       <use style="stroke:#000000;stroke-width:0.8;" x="50.14375" xlink:href="#m91c32f791b" y="255.619219"/>
      </g>
     </g>
     <g id="text_10">
      <!-- 0.86 -->
      <defs>
       <path d="M 33.015625 40.375 
Q 26.375 40.375 22.484375 35.828125 
Q 18.609375 31.296875 18.609375 23.390625 
Q 18.609375 15.53125 22.484375 10.953125 
Q 26.375 6.390625 33.015625 6.390625 
Q 39.65625 6.390625 43.53125 10.953125 
Q 47.40625 15.53125 47.40625 23.390625 
Q 47.40625 31.296875 43.53125 35.828125 
Q 39.65625 40.375 33.015625 40.375 
z
M 52.59375 71.296875 
L 52.59375 62.3125 
Q 48.875 64.0625 45.09375 64.984375 
Q 41.3125 65.921875 37.59375 65.921875 
Q 27.828125 65.921875 22.671875 59.328125 
Q 17.53125 52.734375 16.796875 39.40625 
Q 19.671875 43.65625 24.015625 45.921875 
Q 28.375 48.1875 33.59375 48.1875 
Q 44.578125 48.1875 50.953125 41.515625 
Q 57.328125 34.859375 57.328125 23.390625 
Q 57.328125 12.15625 50.6875 5.359375 
Q 44.046875 -1.421875 33.015625 -1.421875 
Q 20.359375 -1.421875 13.671875 8.265625 
Q 6.984375 17.96875 6.984375 36.375 
Q 6.984375 53.65625 15.1875 63.9375 
Q 23.390625 74.21875 37.203125 74.21875 
Q 40.921875 74.21875 44.703125 73.484375 
Q 48.484375 72.75 52.59375 71.296875 
z
" id="DejaVuSans-54"/>
      </defs>
      <g transform="translate(20.878125 259.418437)scale(0.1 -0.1)">
       <use xlink:href="#DejaVuSans-48"/>
       <use x="63.623047" xlink:href="#DejaVuSans-46"/>
       <use x="95.410156" xlink:href="#DejaVuSans-56"/>
       <use x="159.033203" xlink:href="#DejaVuSans-54"/>
      </g>
     </g>
    </g>
    <g id="ytick_4">
     <g id="line2d_19">
      <path clip-path="url(#pef37d0ccc5)" d="M 50.14375 214.849219 
L 719.74375 214.849219 
" style="fill:none;stroke:#b0b0b0;stroke-linecap:square;stroke-width:0.8;"/>
     </g>
     <g id="line2d_20">
      <g>
       <use style="stroke:#000000;stroke-width:0.8;" x="50.14375" xlink:href="#m91c32f791b" y="214.849219"/>
      </g>
     </g>
     <g id="text_11">
      <!-- 0.88 -->
      <g transform="translate(20.878125 218.648437)scale(0.1 -0.1)">
       <use xlink:href="#DejaVuSans-48"/>
       <use x="63.623047" xlink:href="#DejaVuSans-46"/>
       <use x="95.410156" xlink:href="#DejaVuSans-56"/>
       <use x="159.033203" xlink:href="#DejaVuSans-56"/>
      </g>
     </g>
    </g>
    <g id="ytick_5">
     <g id="line2d_21">
      <path clip-path="url(#pef37d0ccc5)" d="M 50.14375 174.079219 
L 719.74375 174.079219 
" style="fill:none;stroke:#b0b0b0;stroke-linecap:square;stroke-width:0.8;"/>
     </g>
     <g id="line2d_22">
      <g>
       <use style="stroke:#000000;stroke-width:0.8;" x="50.14375" xlink:href="#m91c32f791b" y="174.079219"/>
      </g>
     </g>
     <g id="text_12">
      <!-- 0.90 -->
      <defs>
       <path d="M 10.984375 1.515625 
L 10.984375 10.5 
Q 14.703125 8.734375 18.5 7.8125 
Q 22.3125 6.890625 25.984375 6.890625 
Q 35.75 6.890625 40.890625 13.453125 
Q 46.046875 20.015625 46.78125 33.40625 
Q 43.953125 29.203125 39.59375 26.953125 
Q 35.25 24.703125 29.984375 24.703125 
Q 19.046875 24.703125 12.671875 31.3125 
Q 6.296875 37.9375 6.296875 49.421875 
Q 6.296875 60.640625 12.9375 67.421875 
Q 19.578125 74.21875 30.609375 74.21875 
Q 43.265625 74.21875 49.921875 64.515625 
Q 56.59375 54.828125 56.59375 36.375 
Q 56.59375 19.140625 48.40625 8.859375 
Q 40.234375 -1.421875 26.421875 -1.421875 
Q 22.703125 -1.421875 18.890625 -0.6875 
Q 15.09375 0.046875 10.984375 1.515625 
z
M 30.609375 32.421875 
Q 37.25 32.421875 41.125 36.953125 
Q 45.015625 41.5 45.015625 49.421875 
Q 45.015625 57.28125 41.125 61.84375 
Q 37.25 66.40625 30.609375 66.40625 
Q 23.96875 66.40625 20.09375 61.84375 
Q 16.21875 57.28125 16.21875 49.421875 
Q 16.21875 41.5 20.09375 36.953125 
Q 23.96875 32.421875 30.609375 32.421875 
z
" id="DejaVuSans-57"/>
      </defs>
      <g transform="translate(20.878125 177.878437)scale(0.1 -0.1)">
       <use xlink:href="#DejaVuSans-48"/>
       <use x="63.623047" xlink:href="#DejaVuSans-46"/>
       <use x="95.410156" xlink:href="#DejaVuSans-57"/>
       <use x="159.033203" xlink:href="#DejaVuSans-48"/>
      </g>
     </g>
    </g>
    <g id="ytick_6">
     <g id="line2d_23">
      <path clip-path="url(#pef37d0ccc5)" d="M 50.14375 133.309219 
L 719.74375 133.309219 
" style="fill:none;stroke:#b0b0b0;stroke-linecap:square;stroke-width:0.8;"/>
     </g>
     <g id="line2d_24">
      <g>
       <use style="stroke:#000000;stroke-width:0.8;" x="50.14375" xlink:href="#m91c32f791b" y="133.309219"/>
      </g>
     </g>
     <g id="text_13">
      <!-- 0.92 -->
      <g transform="translate(20.878125 137.108437)scale(0.1 -0.1)">
       <use xlink:href="#DejaVuSans-48"/>
       <use x="63.623047" xlink:href="#DejaVuSans-46"/>
       <use x="95.410156" xlink:href="#DejaVuSans-57"/>
       <use x="159.033203" xlink:href="#DejaVuSans-50"/>
      </g>
     </g>
    </g>
    <g id="ytick_7">
     <g id="line2d_25">
      <path clip-path="url(#pef37d0ccc5)" d="M 50.14375 92.539219 
L 719.74375 92.539219 
" style="fill:none;stroke:#b0b0b0;stroke-linecap:square;stroke-width:0.8;"/>
     </g>
     <g id="line2d_26">
      <g>
       <use style="stroke:#000000;stroke-width:0.8;" x="50.14375" xlink:href="#m91c32f791b" y="92.539219"/>
      </g>
     </g>
     <g id="text_14">
      <!-- 0.94 -->
      <g transform="translate(20.878125 96.338437)scale(0.1 -0.1)">
       <use xlink:href="#DejaVuSans-48"/>
       <use x="63.623047" xlink:href="#DejaVuSans-46"/>
       <use x="95.410156" xlink:href="#DejaVuSans-57"/>
       <use x="159.033203" xlink:href="#DejaVuSans-52"/>
      </g>
     </g>
    </g>
    <g id="ytick_8">
     <g id="line2d_27">
      <path clip-path="url(#pef37d0ccc5)" d="M 50.14375 51.769219 
L 719.74375 51.769219 
" style="fill:none;stroke:#b0b0b0;stroke-linecap:square;stroke-width:0.8;"/>
     </g>
     <g id="line2d_28">
      <g>
       <use style="stroke:#000000;stroke-width:0.8;" x="50.14375" xlink:href="#m91c32f791b" y="51.769219"/>
      </g>
     </g>
     <g id="text_15">
      <!-- 0.96 -->
      <g transform="translate(20.878125 55.568437)scale(0.1 -0.1)">
       <use xlink:href="#DejaVuSans-48"/>
       <use x="63.623047" xlink:href="#DejaVuSans-46"/>
       <use x="95.410156" xlink:href="#DejaVuSans-57"/>
       <use x="159.033203" xlink:href="#DejaVuSans-54"/>
      </g>
     </g>
    </g>
    <g id="ytick_9">
     <g id="line2d_29">
      <path clip-path="url(#pef37d0ccc5)" d="M 50.14375 10.999219 
L 719.74375 10.999219 
" style="fill:none;stroke:#b0b0b0;stroke-linecap:square;stroke-width:0.8;"/>
     </g>
     <g id="line2d_30">
      <g>
       <use style="stroke:#000000;stroke-width:0.8;" x="50.14375" xlink:href="#m91c32f791b" y="10.999219"/>
      </g>
     </g>
     <g id="text_16">
      <!-- 0.98 -->
      <g transform="translate(20.878125 14.798437)scale(0.1 -0.1)">
       <use xlink:href="#DejaVuSans-48"/>
       <use x="63.623047" xlink:href="#DejaVuSans-46"/>
       <use x="95.410156" xlink:href="#DejaVuSans-57"/>
       <use x="159.033203" xlink:href="#DejaVuSans-56"/>
      </g>
     </g>
    </g>
    <g id="text_17">
     <!-- Accuracy -->
     <defs>
      <path d="M 34.1875 63.1875 
L 20.796875 26.90625 
L 47.609375 26.90625 
z
M 28.609375 72.90625 
L 39.796875 72.90625 
L 67.578125 0 
L 57.328125 0 
L 50.6875 18.703125 
L 17.828125 18.703125 
L 11.1875 0 
L 0.78125 0 
z
" id="DejaVuSans-65"/>
      <path d="M 8.5 21.578125 
L 8.5 54.6875 
L 17.484375 54.6875 
L 17.484375 21.921875 
Q 17.484375 14.15625 20.5 10.265625 
Q 23.53125 6.390625 29.59375 6.390625 
Q 36.859375 6.390625 41.078125 11.03125 
Q 45.3125 15.671875 45.3125 23.6875 
L 45.3125 54.6875 
L 54.296875 54.6875 
L 54.296875 0 
L 45.3125 0 
L 45.3125 8.40625 
Q 42.046875 3.421875 37.71875 1 
Q 33.40625 -1.421875 27.6875 -1.421875 
Q 18.265625 -1.421875 13.375 4.4375 
Q 8.5 10.296875 8.5 21.578125 
z
M 31.109375 56 
z
" id="DejaVuSans-117"/>
      <path d="M 41.109375 46.296875 
Q 39.59375 47.171875 37.8125 47.578125 
Q 36.03125 48 33.890625 48 
Q 26.265625 48 22.1875 43.046875 
Q 18.109375 38.09375 18.109375 28.8125 
L 18.109375 0 
L 9.078125 0 
L 9.078125 54.6875 
L 18.109375 54.6875 
L 18.109375 46.1875 
Q 20.953125 51.171875 25.484375 53.578125 
Q 30.03125 56 36.53125 56 
Q 37.453125 56 38.578125 55.875 
Q 39.703125 55.765625 41.0625 55.515625 
z
" id="DejaVuSans-114"/>
      <path d="M 34.28125 27.484375 
Q 23.390625 27.484375 19.1875 25 
Q 14.984375 22.515625 14.984375 16.5 
Q 14.984375 11.71875 18.140625 8.90625 
Q 21.296875 6.109375 26.703125 6.109375 
Q 34.1875 6.109375 38.703125 11.40625 
Q 43.21875 16.703125 43.21875 25.484375 
L 43.21875 27.484375 
z
M 52.203125 31.203125 
L 52.203125 0 
L 43.21875 0 
L 43.21875 8.296875 
Q 40.140625 3.328125 35.546875 0.953125 
Q 30.953125 -1.421875 24.3125 -1.421875 
Q 15.921875 -1.421875 10.953125 3.296875 
Q 6 8.015625 6 15.921875 
Q 6 25.140625 12.171875 29.828125 
Q 18.359375 34.515625 30.609375 34.515625 
L 43.21875 34.515625 
L 43.21875 35.40625 
Q 43.21875 41.609375 39.140625 45 
Q 35.0625 48.390625 27.6875 48.390625 
Q 23 48.390625 18.546875 47.265625 
Q 14.109375 46.140625 10.015625 43.890625 
L 10.015625 52.203125 
Q 14.9375 54.109375 19.578125 55.046875 
Q 24.21875 56 28.609375 56 
Q 40.484375 56 46.34375 49.84375 
Q 52.203125 43.703125 52.203125 31.203125 
z
" id="DejaVuSans-97"/>
      <path d="M 32.171875 -5.078125 
Q 28.375 -14.84375 24.75 -17.8125 
Q 21.140625 -20.796875 15.09375 -20.796875 
L 7.90625 -20.796875 
L 7.90625 -13.28125 
L 13.1875 -13.28125 
Q 16.890625 -13.28125 18.9375 -11.515625 
Q 21 -9.765625 23.484375 -3.21875 
L 25.09375 0.875 
L 2.984375 54.6875 
L 12.5 54.6875 
L 29.59375 11.921875 
L 46.6875 54.6875 
L 56.203125 54.6875 
z
" id="DejaVuSans-121"/>
     </defs>
     <g transform="translate(14.798438 196.994062)rotate(-90)scale(0.1 -0.1)">
      <use xlink:href="#DejaVuSans-65"/>
      <use x="68.392578" xlink:href="#DejaVuSans-99"/>
      <use x="123.373047" xlink:href="#DejaVuSans-99"/>
      <use x="178.353516" xlink:href="#DejaVuSans-117"/>
      <use x="241.732422" xlink:href="#DejaVuSans-114"/>
      <use x="282.845703" xlink:href="#DejaVuSans-97"/>
      <use x="344.125" xlink:href="#DejaVuSans-99"/>
      <use x="399.105469" xlink:href="#DejaVuSans-121"/>
     </g>
    </g>
   </g>
   <g id="line2d_31">
    <path clip-path="url(#pef37d0ccc5)" d="M 85.186625 375.715469 
L 85.859151 373.189685 
L 87.134702 364.984759 
L 88.410252 364.628023 
L 89.685802 356.372064 
L 90.961352 355.964418 
L 92.236902 348.778667 
L 93.512452 346.077632 
L 94.788002 339.248739 
L 96.063552 337.617911 
L 97.339102 332.062988 
L 99.890202 319.679051 
L 101.165752 323.042648 
L 102.441302 323.093558 
L 103.716852 319.220373 
L 104.992402 313.104951 
L 106.267952 310.352884 
L 107.543502 302.657546 
L 108.819052 295.879563 
L 110.094602 299.599896 
L 111.370153 295.828652 
L 112.645703 295.624769 
L 113.921253 291.445879 
L 115.196803 290.528523 
L 117.747903 287.419842 
L 119.023453 281.508183 
L 120.299003 287.36881 
L 121.574553 281.712067 
L 122.850103 282.833185 
L 124.125653 274.526316 
L 125.401203 272.640695 
L 126.676753 273.914786 
L 127.952303 268.308831 
L 129.227853 265.709738 
L 130.503403 265.353002 
L 131.778953 268.207011 
L 133.054503 267.289655 
L 134.330053 260.460641 
L 135.605604 258.524109 
L 136.881154 262.295352 
L 138.156704 259.492375 
L 139.432254 252.408566 
L 140.707804 252.765302 
L 141.983354 252.714392 
L 143.258904 248.943149 
L 144.534454 256.23072 
L 145.810004 246.496907 
L 147.085554 243.64302 
L 148.361104 255.109602 
L 149.636654 244.203639 
L 150.912204 237.374625 
L 152.187754 236.661153 
L 153.463304 239.973718 
L 154.738854 242.216076 
L 156.014404 239.46413 
L 157.289954 233.807265 
L 158.565504 231.66685 
L 159.841055 234.062059 
L 161.116605 238.750658 
L 162.392155 228.09949 
L 163.667705 230.239906 
L 164.943255 231.819702 
L 166.218805 223.665685 
L 167.494355 222.493535 
L 168.769905 223.767627 
L 170.045455 229.832138 
L 171.321005 223.308949 
L 172.596555 225.296513 
L 173.872105 222.442625 
L 175.147655 219.232002 
L 176.423205 221.831095 
L 177.698755 218.51853 
L 178.974305 217.34638 
L 180.249855 219.181092 
L 181.525405 217.754026 
L 182.800955 214.747287 
L 184.076506 211.434721 
L 185.352056 214.645345 
L 186.627606 207.459716 
L 187.903156 208.478892 
L 189.178706 214.645345 
L 190.454256 207.867362 
L 191.729806 211.230837 
L 193.005356 207.71451 
L 194.280906 209.090422 
L 195.556456 206.59327 
L 196.832006 205.42112 
L 198.107556 207.71451 
L 199.383106 201.598967 
L 200.658656 205.217358 
L 201.934206 201.700909 
L 203.209756 204.350912 
L 204.485306 202.159587 
L 205.760856 200.477849 
L 207.036406 202.975 
L 208.311956 198.490285 
L 209.587507 198.745079 
L 210.863057 197.725782 
L 212.138607 197.01231 
L 213.414157 195.78925 
L 214.689707 197.827724 
L 215.965257 197.114252 
L 217.240807 199.152725 
L 218.516357 190.387179 
L 219.791907 192.680568 
L 221.067457 191.967096 
L 222.343007 187.839117 
L 223.618557 191.151682 
L 224.894107 190.285237 
L 226.169657 192.323832 
L 227.445207 187.533291 
L 228.720757 184.42461 
L 229.996307 188.603499 
L 231.271857 184.016964 
L 232.547407 183.81308 
L 233.822958 183.915022 
L 235.098508 183.456344 
L 236.374058 187.329529 
L 237.649608 182.69184 
L 238.925158 186.666967 
L 240.200708 182.386136 
L 241.476258 182.793782 
L 242.751808 182.08031 
L 244.027358 182.538988 
L 245.302908 177.595595 
L 246.578458 183.86399 
L 247.854008 180.908161 
L 249.129558 174.181088 
L 250.405108 172.244556 
L 251.680658 181.978368 
L 252.956208 172.193646 
L 254.231758 178.258157 
L 255.507308 171.378232 
L 256.782858 170.308024 
L 258.058409 172.49935 
L 259.333959 176.678361 
L 260.609509 169.849346 
L 261.885059 175.353238 
L 263.160609 172.907118 
L 264.436159 170.05323 
L 265.711709 168.88108 
L 266.987259 168.931991 
L 268.262809 168.014635 
L 269.538359 169.084843 
L 270.813909 166.536781 
L 272.089459 168.116577 
L 273.365009 164.396365 
L 274.640559 170.613728 
L 275.916109 167.403105 
L 277.191659 162.91839 
L 278.467209 165.874219 
L 279.742759 164.090539 
L 281.018309 164.855043 
L 282.29386 158.026028 
L 283.56941 164.956985 
L 284.84496 162.30686 
L 286.12051 163.835745 
L 287.39606 159.249088 
L 288.67161 157.822145 
L 289.94716 162.459712 
L 291.22271 157.210615 
L 292.49826 162.052066 
L 293.77381 155.121109 
L 295.04936 154.713463 
L 296.32491 156.548174 
L 297.60046 157.51644 
L 298.87601 157.771234 
L 300.15156 156.701026 
L 301.42711 152.573047 
L 302.70266 154.866315 
L 303.97821 155.070199 
L 305.25376 157.261646 
L 306.529311 150.789368 
L 307.804861 154.611521 
L 309.080411 149.10763 
L 310.355961 157.720203 
L 311.631511 151.502839 
L 312.907061 151.146103 
L 314.182611 149.515276 
L 315.458161 152.471105 
L 316.733711 149.260482 
L 318.009261 148.190274 
L 319.284811 148.54701 
L 320.560361 147.37486 
L 321.835911 145.54027 
L 323.111461 146.1518 
L 324.387011 146.1518 
L 325.662561 148.190274 
L 326.938111 147.222008 
L 328.213661 146.76333 
L 329.489211 149.15854 
L 330.764762 137.590016 
L 332.040312 141.361259 
L 333.315862 142.941177 
L 334.591412 144.266179 
L 335.866962 143.858411 
L 337.142512 147.782628 
L 338.418062 141.463201 
L 339.693612 141.870969 
L 340.969162 139.067992 
L 342.244712 137.080428 
L 343.520262 140.494935 
L 344.795812 141.157497 
L 346.071362 139.169933 
L 347.346912 137.437164 
L 348.622462 138.150636 
L 349.898012 141.921879 
L 351.173562 136.519808 
L 352.449112 138.35452 
L 353.724662 135.806336 
L 355.000213 135.653484 
L 356.275763 136.112162 
L 357.551313 134.277451 
L 358.826863 135.194806 
L 360.102413 134.83807 
L 361.377963 135.245838 
L 362.653513 138.303488 
L 363.929063 135.704516 
L 365.204613 132.850507 
L 366.480163 133.971746 
L 367.755713 133.207243 
L 369.031263 133.818894 
L 370.306813 128.926411 
L 371.582363 131.117859 
L 372.857913 132.697655 
L 374.133463 131.576537 
L 375.409013 125.86864 
L 376.684563 129.181206 
L 377.960113 129.792857 
L 379.235664 127.652441 
L 380.511214 130.251413 
L 381.786764 126.327318 
L 383.062314 128.926411 
L 384.337864 126.276408 
L 385.613414 122.8619 
L 388.164514 127.346616 
L 389.440064 121.333015 
L 390.715614 124.696612 
L 391.991164 125.053348 
L 393.266714 122.963842 
L 394.542264 123.116694 
L 395.817814 122.505164 
L 397.093364 121.536899 
L 398.368914 122.759959 
L 399.644464 122.556075 
L 402.195564 125.25711 
L 403.471115 122.301281 
L 404.746665 116.644537 
L 406.022215 123.575372 
L 407.297765 121.842603 
L 408.573315 116.8483 
L 409.848865 121.333015 
L 411.124415 115.981976 
L 412.399965 114.45309 
L 413.675515 117.663713 
L 414.951065 120.211897 
L 416.226615 115.981976 
L 417.502165 120.109955 
L 418.777715 116.23677 
L 420.053265 115.778092 
L 421.328815 117.103094 
L 422.604365 118.937805 
L 423.879915 112.72032 
L 425.155465 113.943502 
L 426.431015 111.038583 
L 427.706566 112.159822 
L 428.982116 114.555032 
L 430.257666 108.949199 
L 431.533216 112.312674 
L 432.808766 109.560729 
L 434.084316 113.178998 
L 435.359866 110.223169 
L 436.635416 108.796225 
L 437.910966 110.121227 
L 439.186516 111.803086 
L 440.462066 108.490521 
L 441.737616 107.063577 
L 443.013166 108.898167 
L 444.288716 106.961635 
L 445.564266 106.197131 
L 446.839816 110.579905 
L 448.115366 104.566425 
L 449.390916 105.330807 
L 450.666466 110.121227 
L 451.942017 109.000109 
L 453.217567 106.248163 
L 454.493117 104.31151 
L 455.768667 107.012545 
L 457.044217 103.241302 
L 458.319767 104.464483 
L 460.870867 101.9163 
L 462.146417 104.362541 
L 463.421967 100.897124 
L 464.697517 103.08845 
L 465.973067 101.457622 
L 467.248617 98.094147 
L 468.524167 93.813315 
L 469.799717 98.196089 
L 471.075267 99.164354 
L 472.350817 101.35568 
L 473.626367 100.642208 
L 474.901917 98.756587 
L 476.177467 99.928737 
L 477.453018 94.577697 
L 478.728568 100.74415 
L 480.004118 95.953731 
L 481.279668 93.558521 
L 482.555218 95.444021 
L 483.830768 96.820055 
L 485.106318 97.788321 
L 486.381868 93.048812 
L 487.657418 92.997901 
L 488.932968 94.068109 
L 490.208518 92.080546 
L 491.484068 91.876662 
L 492.759618 91.978604 
L 494.035168 92.89596 
L 495.310718 86.321739 
L 496.586268 91.6729 
L 497.861818 91.417984 
L 499.137368 89.430542 
L 500.412918 88.003598 
L 501.688469 88.920832 
L 502.964019 90.092982 
L 504.239569 88.513186 
L 505.515119 89.481452 
L 506.790669 85.506447 
L 508.066219 91.72381 
L 509.341769 85.761241 
L 510.617319 85.710209 
L 511.892869 85.200621 
L 513.168419 85.608267 
L 514.443969 85.353473 
L 515.719519 86.219919 
L 516.995069 86.016035 
L 518.270619 82.448675 
L 519.546169 82.193881 
L 520.821719 85.251531 
L 522.097269 81.429378 
L 523.372819 82.805411 
L 524.648369 80.155286 
L 525.92392 79.288962 
L 527.19947 83.467851 
L 528.47502 82.550617 
L 529.75057 82.499585 
L 531.02612 82.907353 
L 532.30167 82.652438 
L 533.57722 79.594788 
L 534.85277 77.454372 
L 536.12832 78.830284 
L 537.40387 81.480409 
L 538.67942 78.779374 
L 539.95497 79.79855 
L 541.23052 77.556192 
L 542.50607 73.734039 
L 543.78162 83.773677 
L 545.05717 75.721602 
L 546.33272 75.619661 
L 547.60827 73.479245 
L 548.88382 76.79181 
L 550.159371 74.957099 
L 552.710471 76.129249 
L 553.986021 72.816683 
L 555.261571 70.421474 
L 556.537121 72.001391 
L 557.812671 71.185977 
L 559.088221 71.287798 
L 560.363771 68.94362 
L 561.639321 67.720438 
L 562.914871 67.720438 
L 564.190421 69.708002 
L 565.465971 70.829241 
L 566.741521 71.084035 
L 568.017071 67.21085 
L 569.292621 66.089732 
L 570.568171 69.453208 
L 571.843721 68.841678 
L 573.119271 67.720438 
L 574.394822 63.337665 
L 575.670372 65.885848 
L 576.945922 66.803204 
L 578.221472 65.325228 
L 579.497022 64.051137 
L 580.772572 64.407873 
L 582.048122 66.242584 
L 583.323672 63.796343 
L 584.599222 61.044397 
L 585.874772 64.509815 
L 587.150322 62.063695 
L 588.425872 61.350223 
L 589.701422 65.019524 
L 590.976972 61.146339 
L 592.252522 63.133903 
L 593.528072 58.24142 
L 594.803622 59.464601 
L 596.079172 59.974189 
L 597.354722 55.7953 
L 598.630273 62.369399 
L 599.905823 58.649187 
L 601.181373 59.566422 
L 602.456923 60.076131 
L 603.732473 56.610714 
L 605.008023 60.076131 
L 606.283573 59.362659 
L 607.559123 54.419266 
L 608.834673 57.06927 
L 610.110223 53.399969 
L 611.385773 50.699055 
L 612.661323 53.399969 
L 613.936873 54.317324 
L 615.212423 57.375096 
L 616.487973 51.412527 
L 617.763523 51.820173 
L 619.039073 50.240377 
L 620.314623 51.157611 
L 621.590173 53.807736 
L 622.865724 52.125998 
L 624.141274 51.871204 
L 625.416824 51.106701 
L 626.692374 49.730667 
L 627.967924 49.272111 
L 629.243474 47.437399 
L 630.519024 47.845046 
L 631.794574 49.475873 
L 633.070124 46.010456 
L 634.345674 49.170169 
L 635.621224 49.934551 
L 636.896774 45.60281 
L 638.172324 45.857604 
L 639.447874 45.70463 
L 640.723424 44.685454 
L 641.998974 45.0931 
L 643.274524 48.813433 
L 644.550074 45.755662 
L 645.825624 43.87004 
L 647.101175 45.04219 
L 648.376725 46.723928 
L 649.652275 38.722763 
L 650.927825 40.557475 
L 652.203375 43.30942 
L 653.478925 38.875737 
L 654.754475 43.87004 
L 656.030025 38.722763 
L 657.305575 42.08636 
L 658.581125 39.996855 
L 659.856675 35.919907 
L 661.132225 39.334415 
L 662.407775 38.467969 
L 663.683325 39.385325 
L 664.958875 37.142967 
L 666.234425 38.569911 
L 667.509975 35.461229 
L 668.785525 37.601645 
L 670.061075 36.837263 
L 671.336626 37.805529 
L 672.612176 35.104493 
L 673.887726 36.480527 
L 675.163276 39.334415 
L 676.438826 36.582347 
L 677.714376 33.06602 
L 678.989926 34.441932 
L 680.265476 32.862136 
L 681.541026 34.33999 
L 682.816576 36.735321 
L 684.092126 31.537134 
L 685.367676 33.72846 
L 686.643226 33.167962 
L 687.918776 32.760194 
L 687.918776 32.760194 
" style="fill:none;stroke:#377eb8;stroke-linecap:square;stroke-width:1.5;"/>
   </g>
   <g id="line2d_32">
    <path clip-path="url(#pef37d0ccc5)" d="M 75.334532 375.715469 
L 75.654751 367.835244 
L 76.930301 363.73193 
L 77.47019 375.715469 
M 78.810144 375.715469 
L 79.481401 357.57702 
L 80.756951 340.343369 
L 82.032501 337.471013 
L 83.308051 309.979259 
L 84.583601 353.884147 
L 85.859151 317.365127 
L 87.134702 332.752281 
L 88.410252 330.085145 
L 89.685802 305.465626 
L 90.961352 294.797204 
L 92.236902 314.492771 
L 93.512452 291.514529 
L 94.788002 297.464219 
L 96.063552 282.077065 
L 98.614652 294.797204 
L 99.890202 278.38407 
L 101.165752 300.746894 
L 102.441302 282.282164 
L 103.716852 294.797204 
L 104.992402 288.437074 
L 106.267952 318.390864 
L 107.543502 283.923562 
L 108.819052 297.464219 
L 110.094602 304.234668 
L 111.370153 257.662645 
L 112.645703 267.920747 
L 113.921253 253.559331 
L 115.196803 270.793104 
L 116.472353 271.408522 
L 117.747903 258.072964 
L 119.023453 276.948014 
L 120.299003 250.481876 
L 121.574553 278.79439 
L 122.850103 256.636786 
L 124.125653 252.533594 
L 125.401203 236.32568 
L 126.676753 246.583783 
L 127.952303 253.149012 
L 129.227853 243.916768 
L 130.503403 253.559331 
L 131.778953 249.661238 
L 133.054503 243.711548 
L 134.330053 248.840599 
L 135.605604 249.456139 
L 136.881154 258.483283 
L 138.156704 225.862357 
L 139.432254 225.452038 
L 140.707804 256.431687 
L 141.983354 265.253733 
L 143.258904 223.810761 
L 144.534454 254.174871 
L 145.810004 229.965671 
L 147.085554 237.556638 
L 148.361104 247.609641 
L 149.636654 229.145033 
L 150.912204 229.145033 
L 152.187754 224.22108 
L 153.463304 224.426179 
L 154.738854 224.836498 
L 156.014404 223.400442 
L 157.289954 210.269983 
L 158.565504 201.037618 
L 159.841055 254.380091 
L 161.116605 206.987429 
L 162.392155 224.6314 
L 163.667705 211.500941 
L 164.943255 221.759165 
L 166.218805 209.244124 
L 167.494355 225.246939 
L 168.769905 221.553944 
L 170.045455 228.119174 
L 171.321005 218.886809 
L 172.596555 227.298535 
L 173.872105 215.193936 
L 175.147655 224.6314 
L 176.423205 212.5268 
L 177.698755 210.885523 
L 178.974305 209.654444 
L 180.249855 213.552537 
L 181.525405 214.578396 
L 182.800955 206.782209 
L 185.352056 207.192528 
L 186.627606 202.884115 
L 187.903156 218.271391 
L 189.178706 226.477897 
L 190.454256 206.576988 
L 191.729806 210.064763 
L 193.005356 205.551251 
L 194.280906 213.962856 
L 195.556456 210.885523 
L 196.832006 215.809354 
L 198.107556 234.068864 
L 199.383106 214.373297 
L 200.658656 207.808068 
L 201.934206 217.655851 
L 203.209756 208.423486 
L 204.485306 210.064763 
L 205.760856 218.886809 
L 207.036406 198.370482 
L 208.311956 209.449345 
L 209.587507 208.218387 
L 210.863057 196.934426 
L 212.138607 217.655851 
L 213.414157 188.933018 
L 214.689707 202.884115 
L 215.965257 201.037618 
L 217.240807 200.21698 
L 218.516357 196.524106 
L 219.791907 204.525392 
L 221.067457 191.189835 
L 222.343007 202.884115 
L 223.618557 200.4222 
L 224.894107 192.831112 
L 226.169657 209.859664 
L 227.445207 191.600154 
L 228.720757 197.549844 
L 229.996307 196.934426 
L 231.271857 195.703346 
L 232.547407 195.498248 
L 233.822958 211.090622 
L 235.098508 189.548558 
L 236.374058 193.446651 
L 237.649608 214.373297 
L 238.925158 191.189835 
L 240.200708 191.600154 
L 241.476258 200.011881 
L 242.751808 187.70206 
L 244.027358 204.935712 
L 245.302908 191.189835 
L 246.578458 188.11238 
L 247.854008 181.34193 
L 249.129558 186.676202 
L 250.405108 184.214286 
L 251.680658 192.373406 
L 252.956208 194.062069 
L 254.231758 190.369196 
L 255.507308 184.214286 
L 256.782858 190.574295 
L 258.058409 188.727919 
L 259.333959 188.522699 
L 260.609509 191.394934 
L 261.885059 191.394934 
L 263.160609 198.165383 
L 264.436159 189.548558 
L 265.711709 185.650464 
L 266.987259 188.317479 
L 268.262809 202.678895 
L 269.538359 203.499655 
L 270.813909 181.34193 
L 272.089459 176.00778 
L 273.365009 193.65175 
L 274.640559 174.161283 
L 275.916109 165.954776 
L 277.191659 186.265882 
L 278.467209 176.828418 
L 279.742759 178.469695 
L 281.018309 179.700653 
L 282.29386 194.472389 
L 283.56941 182.573009 
L 284.84496 183.598747 
L 286.12051 187.70206 
L 287.39606 179.700653 
L 288.67161 197.139524 
L 289.94716 206.576988 
L 291.22271 188.522699 
L 292.49826 188.317479 
L 293.77381 188.317479 
L 295.04936 173.956062 
L 296.32491 189.343337 
L 297.60046 190.163976 
L 298.87601 179.085235 
L 300.15156 178.059376 
L 301.42711 185.240145 
L 302.70266 198.986022 
L 303.97821 176.00778 
L 305.25376 190.984614 
L 306.529311 181.34193 
L 307.804861 188.522699 
L 309.080411 176.623198 
L 311.631511 185.445244 
L 312.907061 178.880015 
L 314.182611 189.343337 
L 315.458161 176.623198 
L 316.733711 175.39224 
L 318.009261 176.418099 
L 319.284811 185.650464 
L 320.560361 167.801274 
L 321.835911 158.568909 
L 323.111461 163.69796 
L 324.387011 176.623198 
L 325.662561 178.674916 
L 326.938111 190.163976 
L 328.213661 189.343337 
L 329.489211 173.340644 
L 330.764762 166.159875 
L 332.040312 167.390954 
L 333.315862 168.006373 
L 334.591412 192.215572 
L 335.866962 165.544457 
L 337.142512 170.673508 
L 338.418062 170.878729 
L 339.693612 166.570194 
L 340.969162 173.340644 
L 342.244712 163.08242 
L 343.520262 178.880015 
L 344.795812 168.416692 
L 346.071362 173.545743 
L 347.346912 167.801274 
L 348.622462 179.085235 
L 349.898012 170.878729 
L 351.173562 164.518598 
L 352.449112 177.238738 
L 353.724662 178.059376 
L 355.000213 170.057969 
L 356.275763 169.442551 
L 357.551313 175.39224 
L 358.826863 172.109686 
L 360.102413 176.00778 
L 361.377963 176.212879 
L 362.653513 168.416692 
L 363.929063 170.673508 
L 365.204613 180.931611 
L 366.480163 163.90318 
L 367.755713 176.212879 
L 369.031263 170.468409 
L 370.306813 178.264596 
L 371.582363 171.289048 
L 372.857913 173.135424 
L 374.133463 170.263189 
L 375.409013 159.184327 
L 376.684563 177.649057 
L 377.960113 168.827011 
L 379.235664 165.749556 
L 380.511214 178.264596 
L 381.786764 173.545743 
L 383.062314 178.880015 
L 384.337864 162.467002 
L 385.613414 164.723819 
L 386.888964 180.726512 
L 388.164514 163.287641 
L 389.440064 175.39224 
L 390.715614 166.570194 
L 391.991164 170.878729 
L 393.266714 160.825725 
L 394.542264 161.441143 
L 395.817814 177.238738 
L 398.368914 161.441143 
L 399.644464 163.69796 
L 402.195564 174.366503 
L 403.471115 158.774007 
L 404.746665 163.492861 
L 406.022215 167.390954 
L 407.297765 164.518598 
L 408.573315 155.081134 
L 409.848865 164.723819 
L 411.124415 158.568909 
L 412.399965 161.646364 
L 413.675515 163.69796 
L 414.951065 175.597461 
L 416.226615 164.928917 
L 417.502165 161.441143 
L 418.777715 169.23733 
L 420.053265 165.134138 
L 421.328815 170.673508 
L 422.604365 159.799866 
L 423.879915 166.775415 
L 425.155465 164.108279 
L 426.431015 160.415406 
L 427.706566 161.646364 
L 428.982116 155.491453 
L 430.257666 173.340644 
L 431.533216 170.673508 
L 432.808766 167.185734 
L 434.084316 158.158589 
L 435.359866 158.774007 
L 436.635416 160.825725 
L 437.910966 162.261782 
L 439.186516 157.74827 
L 440.462066 165.544457 
L 441.737616 164.108279 
L 443.013166 165.339237 
L 444.288716 172.314785 
L 445.564266 163.69796 
L 446.839816 157.953369 
L 448.115366 158.774007 
L 449.390916 166.365096 
L 451.942017 158.888464 
L 453.217567 162.056683 
L 454.493117 165.749556 
L 455.768667 158.568909 
L 457.044217 152.824318 
L 458.319767 151.59336 
L 459.595317 165.544457 
L 460.870867 155.491453 
L 462.146417 159.594767 
L 463.421967 165.954776 
L 464.697517 156.517312 
L 465.973067 158.568909 
L 467.248617 158.158589 
L 468.524167 160.210185 
L 469.799717 154.875914 
L 471.075267 155.696552 
L 472.350817 158.774007 
L 473.626367 163.492861 
L 474.901917 152.824318 
L 476.177467 152.619219 
L 477.453018 151.59336 
L 478.728568 158.774007 
L 480.004118 151.38814 
L 481.279668 155.696552 
L 482.555218 159.594767 
L 483.830768 153.850177 
L 485.106318 150.97782 
L 486.381868 162.056683 
L 487.657418 143.181633 
L 488.932968 157.337951 
L 490.208518 153.234637 
L 491.484068 159.799866 
L 492.759618 141.335257 
L 494.035168 163.08242 
L 495.310718 155.081134 
L 496.586268 166.159875 
L 497.861818 149.746863 
L 499.137368 144.617811 
L 500.412918 158.158589 
L 501.688469 158.979228 
L 502.964019 145.233351 
L 504.239569 163.69796 
L 505.515119 160.005087 
L 506.790669 163.90318 
L 508.066219 151.38814 
L 509.341769 154.465595 
L 510.617319 156.517312 
L 511.892869 164.723819 
L 513.168419 155.081134 
L 514.443969 154.670815 
L 515.719519 161.441143 
L 516.995069 157.13273 
L 518.270619 157.54305 
L 519.546169 155.696552 
L 520.821719 157.54305 
L 522.097269 160.825725 
L 523.372819 148.515905 
L 524.648369 165.339237 
L 525.92392 147.900365 
L 527.19947 154.875914 
L 528.47502 151.59336 
L 529.75057 153.234637 
L 531.02612 154.260496 
L 532.30167 154.055275 
L 533.57722 151.38814 
L 534.85277 149.541764 
L 536.12832 144.82291 
L 537.40387 148.310685 
L 538.67942 155.696552 
L 539.95497 151.59336 
L 541.23052 153.644956 
L 542.50607 152.003679 
L 543.78162 154.055275 
L 546.33272 138.462901 
L 547.60827 157.13273 
L 548.88382 147.900365 
L 550.159371 144.002272 
L 551.434921 143.797173 
L 552.710471 156.106993 
L 553.986021 147.490046 
L 555.261571 147.900365 
L 556.537121 150.772721 
L 557.812671 157.337951 
L 559.088221 149.541764 
L 560.363771 153.439857 
L 561.639321 147.490046 
L 562.914871 149.952083 
L 564.190421 149.952083 
L 565.465971 153.850177 
L 566.741521 139.693859 
L 568.017071 151.38814 
L 569.292621 154.465595 
L 570.568171 148.310685 
L 571.843721 146.053989 
L 573.119271 148.926224 
L 574.394822 139.28354 
L 575.670372 154.260496 
L 576.945922 150.772721 
L 578.221472 148.721125 
L 579.497022 145.233351 
L 580.772572 145.848769 
L 582.048122 146.669408 
L 583.323672 141.335257 
L 584.599222 144.617811 
L 585.874772 146.053989 
L 587.150322 146.669408 
L 588.425872 144.617811 
L 589.701422 144.412591 
L 590.976972 139.078441 
L 593.528072 150.97782 
L 594.803622 144.617811 
L 596.079172 149.541764 
L 597.354722 151.59336 
L 598.630273 138.462901 
L 599.905823 147.079727 
L 601.181373 152.208778 
L 602.456923 139.899079 
L 603.732473 147.079727 
L 605.008023 148.310685 
L 606.283573 142.360995 
L 607.559123 143.181633 
L 608.834673 142.360995 
L 610.110223 144.617811 
L 611.385773 140.309399 
L 612.661323 144.002272 
L 613.936873 147.079727 
L 615.212423 143.591953 
L 616.487973 147.490046 
L 617.763523 138.873221 
L 619.039073 138.052582 
L 620.314623 142.771314 
L 621.590173 145.43845 
L 622.865724 138.052582 
L 624.141274 138.873221 
L 625.416824 150.567501 
L 626.692374 135.385446 
L 627.967924 141.335257 
L 629.243474 142.566215 
L 630.519024 136.821624 
L 631.794574 140.719718 
L 633.070124 134.154489 
L 634.345674 138.873221 
L 635.621224 135.590667 
L 638.172324 137.231944 
L 639.447874 132.71831 
L 640.723424 133.949268 
L 641.998974 137.847483 
L 643.274524 137.437042 
L 644.550074 141.950676 
L 645.825624 140.104178 
L 647.101175 138.462901 
L 648.376725 136.206085 
L 649.652275 137.026723 
L 650.927825 134.154489 
L 652.203375 137.449922 
L 653.478925 137.231944 
L 654.754475 139.693859 
L 656.030025 138.257802 
L 657.305575 136.616404 
L 658.581125 137.847483 
L 659.856675 135.795765 
L 661.132225 137.847483 
L 662.407775 133.744169 
L 663.683325 135.795765 
L 664.958875 138.257802 
L 666.234425 137.437042 
L 667.509975 130.051175 
L 670.061075 136.821624 
L 671.336626 135.180347 
L 672.612176 130.871935 
L 673.887726 134.154489 
L 675.163276 135.590667 
L 676.438826 135.385446 
L 677.714376 135.385446 
L 678.989926 132.513212 
L 680.265476 134.154489 
L 681.541026 134.154489 
L 682.816576 129.640855 
L 684.092126 131.692573 
L 685.367676 134.770028 
L 686.643226 135.590667 
L 687.918776 132.102892 
L 687.918776 132.102892 
" style="fill:none;stroke:#4daf4a;stroke-linecap:square;stroke-width:1.5;"/>
   </g>
   <g id="patch_3">
    <path d="M 50.14375 337.159219 
L 50.14375 10.999219 
" style="fill:none;stroke:#000000;stroke-linecap:square;stroke-linejoin:miter;stroke-width:0.8;"/>
   </g>
   <g id="patch_4">
    <path d="M 719.74375 337.159219 
L 719.74375 10.999219 
" style="fill:none;stroke:#000000;stroke-linecap:square;stroke-linejoin:miter;stroke-width:0.8;"/>
   </g>
   <g id="patch_5">
    <path d="M 50.14375 337.159219 
L 719.74375 337.159219 
" style="fill:none;stroke:#000000;stroke-linecap:square;stroke-linejoin:miter;stroke-width:0.8;"/>
   </g>
   <g id="patch_6">
    <path d="M 50.14375 10.999219 
L 719.74375 10.999219 
" style="fill:none;stroke:#000000;stroke-linecap:square;stroke-linejoin:miter;stroke-width:0.8;"/>
   </g>
   <g id="legend_1">
    <g id="patch_7">
     <path d="M 57.14375 48.355469 
L 114.584375 48.355469 
Q 116.584375 48.355469 116.584375 46.355469 
L 116.584375 17.999219 
Q 116.584375 15.999219 114.584375 15.999219 
L 57.14375 15.999219 
Q 55.14375 15.999219 55.14375 17.999219 
L 55.14375 46.355469 
Q 55.14375 48.355469 57.14375 48.355469 
z
" style="fill:#ffffff;opacity:0.8;stroke:#cccccc;stroke-linejoin:miter;"/>
    </g>
    <g id="line2d_33">
     <path d="M 59.14375 24.097656 
L 79.14375 24.097656 
" style="fill:none;stroke:#377eb8;stroke-linecap:square;stroke-width:1.5;"/>
    </g>
    <g id="line2d_34"/>
    <g id="text_18">
     <!-- Train -->
     <defs>
      <path d="M -0.296875 72.90625 
L 61.375 72.90625 
L 61.375 64.59375 
L 35.5 64.59375 
L 35.5 0 
L 25.59375 0 
L 25.59375 64.59375 
L -0.296875 64.59375 
z
" id="DejaVuSans-84"/>
      <path d="M 9.421875 54.6875 
L 18.40625 54.6875 
L 18.40625 0 
L 9.421875 0 
z
M 9.421875 75.984375 
L 18.40625 75.984375 
L 18.40625 64.59375 
L 9.421875 64.59375 
z
" id="DejaVuSans-105"/>
      <path d="M 54.890625 33.015625 
L 54.890625 0 
L 45.90625 0 
L 45.90625 32.71875 
Q 45.90625 40.484375 42.875 44.328125 
Q 39.84375 48.1875 33.796875 48.1875 
Q 26.515625 48.1875 22.3125 43.546875 
Q 18.109375 38.921875 18.109375 30.90625 
L 18.109375 0 
L 9.078125 0 
L 9.078125 54.6875 
L 18.109375 54.6875 
L 18.109375 46.1875 
Q 21.34375 51.125 25.703125 53.5625 
Q 30.078125 56 35.796875 56 
Q 45.21875 56 50.046875 50.171875 
Q 54.890625 44.34375 54.890625 33.015625 
z
" id="DejaVuSans-110"/>
     </defs>
     <g transform="translate(87.14375 27.597656)scale(0.1 -0.1)">
      <use xlink:href="#DejaVuSans-84"/>
      <use x="60.865234" xlink:href="#DejaVuSans-114"/>
      <use x="101.978516" xlink:href="#DejaVuSans-97"/>
      <use x="163.257812" xlink:href="#DejaVuSans-105"/>
      <use x="191.041016" xlink:href="#DejaVuSans-110"/>
     </g>
    </g>
    <g id="line2d_35">
     <path d="M 59.14375 38.775781 
L 79.14375 38.775781 
" style="fill:none;stroke:#4daf4a;stroke-linecap:square;stroke-width:1.5;"/>
    </g>
    <g id="line2d_36"/>
    <g id="text_19">
     <!-- Test -->
     <defs>
      <path d="M 56.203125 29.59375 
L 56.203125 25.203125 
L 14.890625 25.203125 
Q 15.484375 15.921875 20.484375 11.0625 
Q 25.484375 6.203125 34.421875 6.203125 
Q 39.59375 6.203125 44.453125 7.46875 
Q 49.3125 8.734375 54.109375 11.28125 
L 54.109375 2.78125 
Q 49.265625 0.734375 44.1875 -0.34375 
Q 39.109375 -1.421875 33.890625 -1.421875 
Q 20.796875 -1.421875 13.15625 6.1875 
Q 5.515625 13.8125 5.515625 26.8125 
Q 5.515625 40.234375 12.765625 48.109375 
Q 20.015625 56 32.328125 56 
Q 43.359375 56 49.78125 48.890625 
Q 56.203125 41.796875 56.203125 29.59375 
z
M 47.21875 32.234375 
Q 47.125 39.59375 43.09375 43.984375 
Q 39.0625 48.390625 32.421875 48.390625 
Q 24.90625 48.390625 20.390625 44.140625 
Q 15.875 39.890625 15.1875 32.171875 
z
" id="DejaVuSans-101"/>
      <path d="M 44.28125 53.078125 
L 44.28125 44.578125 
Q 40.484375 46.53125 36.375 47.5 
Q 32.28125 48.484375 27.875 48.484375 
Q 21.1875 48.484375 17.84375 46.4375 
Q 14.5 44.390625 14.5 40.28125 
Q 14.5 37.15625 16.890625 35.375 
Q 19.28125 33.59375 26.515625 31.984375 
L 29.59375 31.296875 
Q 39.15625 29.25 43.1875 25.515625 
Q 47.21875 21.78125 47.21875 15.09375 
Q 47.21875 7.46875 41.1875 3.015625 
Q 35.15625 -1.421875 24.609375 -1.421875 
Q 20.21875 -1.421875 15.453125 -0.5625 
Q 10.6875 0.296875 5.421875 2 
L 5.421875 11.28125 
Q 10.40625 8.6875 15.234375 7.390625 
Q 20.0625 6.109375 24.8125 6.109375 
Q 31.15625 6.109375 34.5625 8.28125 
Q 37.984375 10.453125 37.984375 14.40625 
Q 37.984375 18.0625 35.515625 20.015625 
Q 33.0625 21.96875 24.703125 23.78125 
L 21.578125 24.515625 
Q 13.234375 26.265625 9.515625 29.90625 
Q 5.8125 33.546875 5.8125 39.890625 
Q 5.8125 47.609375 11.28125 51.796875 
Q 16.75 56 26.8125 56 
Q 31.78125 56 36.171875 55.265625 
Q 40.578125 54.546875 44.28125 53.078125 
z
" id="DejaVuSans-115"/>
      <path d="M 18.3125 70.21875 
L 18.3125 54.6875 
L 36.8125 54.6875 
L 36.8125 47.703125 
L 18.3125 47.703125 
L 18.3125 18.015625 
Q 18.3125 11.328125 20.140625 9.421875 
Q 21.96875 7.515625 27.59375 7.515625 
L 36.8125 7.515625 
L 36.8125 0 
L 27.59375 0 
Q 17.1875 0 13.234375 3.875 
Q 9.28125 7.765625 9.28125 18.015625 
L 9.28125 47.703125 
L 2.6875 47.703125 
L 2.6875 54.6875 
L 9.28125 54.6875 
L 9.28125 70.21875 
z
" id="DejaVuSans-116"/>
     </defs>
     <g transform="translate(87.14375 42.275781)scale(0.1 -0.1)">
      <use xlink:href="#DejaVuSans-84"/>
      <use x="60.818359" xlink:href="#DejaVuSans-101"/>
      <use x="122.341797" xlink:href="#DejaVuSans-115"/>
      <use x="174.441406" xlink:href="#DejaVuSans-116"/>
     </g>
    </g>
   </g>
  </g>
 </g>
 <defs>
  <clipPath id="pef37d0ccc5">
   <rect height="326.16" width="669.6" x="50.14375" y="10.999219"/>
  </clipPath>
 </defs>
</svg>
