<?xml version="1.0" encoding="utf-8" standalone="no"?>
<!DOCTYPE svg PUBLIC "-//W3C//DTD SVG 1.1//EN"
  "http://www.w3.org/Graphics/SVG/1.1/DTD/svg11.dtd">
<!-- Created with matplotlib (https://matplotlib.org/) -->
<svg height="374.715469pt" version="1.1" viewBox="0 0 726.94375 374.715469" width="726.94375pt" xmlns="http://www.w3.org/2000/svg" xmlns:xlink="http://www.w3.org/1999/xlink">
 <defs>
  <style type="text/css">
*{stroke-linecap:butt;stroke-linejoin:round;white-space:pre;}
  </style>
 </defs>
 <g id="figure_1">
  <g id="patch_1">
   <path d="M 0 374.715469 
L 726.94375 374.715469 
L 726.94375 0 
L 0 0 
z
" style="fill:#ffffff;"/>
  </g>
  <g id="axes_1">
   <g id="patch_2">
    <path d="M 50.14375 337.159219 
L 719.74375 337.159219 
L 719.74375 10.999219 
L 50.14375 10.999219 
z
" style="fill:#ffffff;"/>
   </g>
   <g id="matplotlib.axis_1">
    <g id="xtick_1">
     <g id="line2d_1">
      <path clip-path="url(#pce127e2575)" d="M 50.14375 337.159219 
L 50.14375 10.999219 
" style="fill:none;stroke:#b0b0b0;stroke-linecap:square;stroke-width:0.8;"/>
     </g>
     <g id="line2d_2">
      <defs>
       <path d="M 0 0 
L 0 3.5 
" id="m4b1af119e6" style="stroke:#000000;stroke-width:0.8;"/>
      </defs>
      <g>
       <use style="stroke:#000000;stroke-width:0.8;" x="50.14375" xlink:href="#m4b1af119e6" y="337.159219"/>
      </g>
     </g>
     <g id="text_1">
      <!-- 0 -->
      <defs>
       <path d="M 31.78125 66.40625 
Q 24.171875 66.40625 20.328125 58.90625 
Q 16.5 51.421875 16.5 36.375 
Q 16.5 21.390625 20.328125 13.890625 
Q 24.171875 6.390625 31.78125 6.390625 
Q 39.453125 6.390625 43.28125 13.890625 
Q 47.125 21.390625 47.125 36.375 
Q 47.125 51.421875 43.28125 58.90625 
Q 39.453125 66.40625 31.78125 66.40625 
z
M 31.78125 74.21875 
Q 44.046875 74.21875 50.515625 64.515625 
Q 56.984375 54.828125 56.984375 36.375 
Q 56.984375 17.96875 50.515625 8.265625 
Q 44.046875 -1.421875 31.78125 -1.421875 
Q 19.53125 -1.421875 13.0625 8.265625 
Q 6.59375 17.96875 6.59375 36.375 
Q 6.59375 54.828125 13.0625 64.515625 
Q 19.53125 74.21875 31.78125 74.21875 
z
" id="DejaVuSans-48"/>
      </defs>
      <g transform="translate(46.9625 351.757656)scale(0.1 -0.1)">
       <use xlink:href="#DejaVuSans-48"/>
      </g>
     </g>
    </g>
    <g id="xtick_2">
     <g id="line2d_3">
      <path clip-path="url(#pce127e2575)" d="M 177.698755 337.159219 
L 177.698755 10.999219 
" style="fill:none;stroke:#b0b0b0;stroke-linecap:square;stroke-width:0.8;"/>
     </g>
     <g id="line2d_4">
      <g>
       <use style="stroke:#000000;stroke-width:0.8;" x="177.698755" xlink:href="#m4b1af119e6" y="337.159219"/>
      </g>
     </g>
     <g id="text_2">
      <!-- 100 -->
      <defs>
       <path d="M 12.40625 8.296875 
L 28.515625 8.296875 
L 28.515625 63.921875 
L 10.984375 60.40625 
L 10.984375 69.390625 
L 28.421875 72.90625 
L 38.28125 72.90625 
L 38.28125 8.296875 
L 54.390625 8.296875 
L 54.390625 0 
L 12.40625 0 
z
" id="DejaVuSans-49"/>
      </defs>
      <g transform="translate(168.155005 351.757656)scale(0.1 -0.1)">
       <use xlink:href="#DejaVuSans-49"/>
       <use x="63.623047" xlink:href="#DejaVuSans-48"/>
       <use x="127.246094" xlink:href="#DejaVuSans-48"/>
      </g>
     </g>
    </g>
    <g id="xtick_3">
     <g id="line2d_5">
      <path clip-path="url(#pce127e2575)" d="M 305.25376 337.159219 
L 305.25376 10.999219 
" style="fill:none;stroke:#b0b0b0;stroke-linecap:square;stroke-width:0.8;"/>
     </g>
     <g id="line2d_6">
      <g>
       <use style="stroke:#000000;stroke-width:0.8;" x="305.25376" xlink:href="#m4b1af119e6" y="337.159219"/>
      </g>
     </g>
     <g id="text_3">
      <!-- 200 -->
      <defs>
       <path d="M 19.1875 8.296875 
L 53.609375 8.296875 
L 53.609375 0 
L 7.328125 0 
L 7.328125 8.296875 
Q 12.9375 14.109375 22.625 23.890625 
Q 32.328125 33.6875 34.8125 36.53125 
Q 39.546875 41.84375 41.421875 45.53125 
Q 43.3125 49.21875 43.3125 52.78125 
Q 43.3125 58.59375 39.234375 62.25 
Q 35.15625 65.921875 28.609375 65.921875 
Q 23.96875 65.921875 18.8125 64.3125 
Q 13.671875 62.703125 7.8125 59.421875 
L 7.8125 69.390625 
Q 13.765625 71.78125 18.9375 73 
Q 24.125 74.21875 28.421875 74.21875 
Q 39.75 74.21875 46.484375 68.546875 
Q 53.21875 62.890625 53.21875 53.421875 
Q 53.21875 48.921875 51.53125 44.890625 
Q 49.859375 40.875 45.40625 35.40625 
Q 44.1875 33.984375 37.640625 27.21875 
Q 31.109375 20.453125 19.1875 8.296875 
z
" id="DejaVuSans-50"/>
      </defs>
      <g transform="translate(295.71001 351.757656)scale(0.1 -0.1)">
       <use xlink:href="#DejaVuSans-50"/>
       <use x="63.623047" xlink:href="#DejaVuSans-48"/>
       <use x="127.246094" xlink:href="#DejaVuSans-48"/>
      </g>
     </g>
    </g>
    <g id="xtick_4">
     <g id="line2d_7">
      <path clip-path="url(#pce127e2575)" d="M 432.808766 337.159219 
L 432.808766 10.999219 
" style="fill:none;stroke:#b0b0b0;stroke-linecap:square;stroke-width:0.8;"/>
     </g>
     <g id="line2d_8">
      <g>
       <use style="stroke:#000000;stroke-width:0.8;" x="432.808766" xlink:href="#m4b1af119e6" y="337.159219"/>
      </g>
     </g>
     <g id="text_4">
      <!-- 300 -->
      <defs>
       <path d="M 40.578125 39.3125 
Q 47.65625 37.796875 51.625 33 
Q 55.609375 28.21875 55.609375 21.1875 
Q 55.609375 10.40625 48.1875 4.484375 
Q 40.765625 -1.421875 27.09375 -1.421875 
Q 22.515625 -1.421875 17.65625 -0.515625 
Q 12.796875 0.390625 7.625 2.203125 
L 7.625 11.71875 
Q 11.71875 9.328125 16.59375 8.109375 
Q 21.484375 6.890625 26.8125 6.890625 
Q 36.078125 6.890625 40.9375 10.546875 
Q 45.796875 14.203125 45.796875 21.1875 
Q 45.796875 27.640625 41.28125 31.265625 
Q 36.765625 34.90625 28.71875 34.90625 
L 20.21875 34.90625 
L 20.21875 43.015625 
L 29.109375 43.015625 
Q 36.375 43.015625 40.234375 45.921875 
Q 44.09375 48.828125 44.09375 54.296875 
Q 44.09375 59.90625 40.109375 62.90625 
Q 36.140625 65.921875 28.71875 65.921875 
Q 24.65625 65.921875 20.015625 65.03125 
Q 15.375 64.15625 9.8125 62.3125 
L 9.8125 71.09375 
Q 15.4375 72.65625 20.34375 73.4375 
Q 25.25 74.21875 29.59375 74.21875 
Q 40.828125 74.21875 47.359375 69.109375 
Q 53.90625 64.015625 53.90625 55.328125 
Q 53.90625 49.265625 50.4375 45.09375 
Q 46.96875 40.921875 40.578125 39.3125 
z
" id="DejaVuSans-51"/>
      </defs>
      <g transform="translate(423.265016 351.757656)scale(0.1 -0.1)">
       <use xlink:href="#DejaVuSans-51"/>
       <use x="63.623047" xlink:href="#DejaVuSans-48"/>
       <use x="127.246094" xlink:href="#DejaVuSans-48"/>
      </g>
     </g>
    </g>
    <g id="xtick_5">
     <g id="line2d_9">
      <path clip-path="url(#pce127e2575)" d="M 560.363771 337.159219 
L 560.363771 10.999219 
" style="fill:none;stroke:#b0b0b0;stroke-linecap:square;stroke-width:0.8;"/>
     </g>
     <g id="line2d_10">
      <g>
       <use style="stroke:#000000;stroke-width:0.8;" x="560.363771" xlink:href="#m4b1af119e6" y="337.159219"/>
      </g>
     </g>
     <g id="text_5">
      <!-- 400 -->
      <defs>
       <path d="M 37.796875 64.3125 
L 12.890625 25.390625 
L 37.796875 25.390625 
z
M 35.203125 72.90625 
L 47.609375 72.90625 
L 47.609375 25.390625 
L 58.015625 25.390625 
L 58.015625 17.1875 
L 47.609375 17.1875 
L 47.609375 0 
L 37.796875 0 
L 37.796875 17.1875 
L 4.890625 17.1875 
L 4.890625 26.703125 
z
" id="DejaVuSans-52"/>
      </defs>
      <g transform="translate(550.820021 351.757656)scale(0.1 -0.1)">
       <use xlink:href="#DejaVuSans-52"/>
       <use x="63.623047" xlink:href="#DejaVuSans-48"/>
       <use x="127.246094" xlink:href="#DejaVuSans-48"/>
      </g>
     </g>
    </g>
    <g id="xtick_6">
     <g id="line2d_11">
      <path clip-path="url(#pce127e2575)" d="M 687.918776 337.159219 
L 687.918776 10.999219 
" style="fill:none;stroke:#b0b0b0;stroke-linecap:square;stroke-width:0.8;"/>
     </g>
     <g id="line2d_12">
      <g>
       <use style="stroke:#000000;stroke-width:0.8;" x="687.918776" xlink:href="#m4b1af119e6" y="337.159219"/>
      </g>
     </g>
     <g id="text_6">
      <!-- 500 -->
      <defs>
       <path d="M 10.796875 72.90625 
L 49.515625 72.90625 
L 49.515625 64.59375 
L 19.828125 64.59375 
L 19.828125 46.734375 
Q 21.96875 47.46875 24.109375 47.828125 
Q 26.265625 48.1875 28.421875 48.1875 
Q 40.625 48.1875 47.75 41.5 
Q 54.890625 34.8125 54.890625 23.390625 
Q 54.890625 11.625 47.5625 5.09375 
Q 40.234375 -1.421875 26.90625 -1.421875 
Q 22.3125 -1.421875 17.546875 -0.640625 
Q 12.796875 0.140625 7.71875 1.703125 
L 7.71875 11.625 
Q 12.109375 9.234375 16.796875 8.0625 
Q 21.484375 6.890625 26.703125 6.890625 
Q 35.15625 6.890625 40.078125 11.328125 
Q 45.015625 15.765625 45.015625 23.390625 
Q 45.015625 31 40.078125 35.4375 
Q 35.15625 39.890625 26.703125 39.890625 
Q 22.75 39.890625 18.8125 39.015625 
Q 14.890625 38.140625 10.796875 36.28125 
z
" id="DejaVuSans-53"/>
      </defs>
      <g transform="translate(678.375026 351.757656)scale(0.1 -0.1)">
       <use xlink:href="#DejaVuSans-53"/>
       <use x="63.623047" xlink:href="#DejaVuSans-48"/>
       <use x="127.246094" xlink:href="#DejaVuSans-48"/>
      </g>
     </g>
    </g>
    <g id="text_7">
     <!-- Epoch -->
     <defs>
      <path d="M 9.8125 72.90625 
L 55.90625 72.90625 
L 55.90625 64.59375 
L 19.671875 64.59375 
L 19.671875 43.015625 
L 54.390625 43.015625 
L 54.390625 34.71875 
L 19.671875 34.71875 
L 19.671875 8.296875 
L 56.78125 8.296875 
L 56.78125 0 
L 9.8125 0 
z
" id="DejaVuSans-69"/>
      <path d="M 18.109375 8.203125 
L 18.109375 -20.796875 
L 9.078125 -20.796875 
L 9.078125 54.6875 
L 18.109375 54.6875 
L 18.109375 46.390625 
Q 20.953125 51.265625 25.265625 53.625 
Q 29.59375 56 35.59375 56 
Q 45.5625 56 51.78125 48.09375 
Q 58.015625 40.1875 58.015625 27.296875 
Q 58.015625 14.40625 51.78125 6.484375 
Q 45.5625 -1.421875 35.59375 -1.421875 
Q 29.59375 -1.421875 25.265625 0.953125 
Q 20.953125 3.328125 18.109375 8.203125 
z
M 48.6875 27.296875 
Q 48.6875 37.203125 44.609375 42.84375 
Q 40.53125 48.484375 33.40625 48.484375 
Q 26.265625 48.484375 22.1875 42.84375 
Q 18.109375 37.203125 18.109375 27.296875 
Q 18.109375 17.390625 22.1875 11.75 
Q 26.265625 6.109375 33.40625 6.109375 
Q 40.53125 6.109375 44.609375 11.75 
Q 48.6875 17.390625 48.6875 27.296875 
z
" id="DejaVuSans-112"/>
      <path d="M 30.609375 48.390625 
Q 23.390625 48.390625 19.1875 42.75 
Q 14.984375 37.109375 14.984375 27.296875 
Q 14.984375 17.484375 19.15625 11.84375 
Q 23.34375 6.203125 30.609375 6.203125 
Q 37.796875 6.203125 41.984375 11.859375 
Q 46.1875 17.53125 46.1875 27.296875 
Q 46.1875 37.015625 41.984375 42.703125 
Q 37.796875 48.390625 30.609375 48.390625 
z
M 30.609375 56 
Q 42.328125 56 49.015625 48.375 
Q 55.71875 40.765625 55.71875 27.296875 
Q 55.71875 13.875 49.015625 6.21875 
Q 42.328125 -1.421875 30.609375 -1.421875 
Q 18.84375 -1.421875 12.171875 6.21875 
Q 5.515625 13.875 5.515625 27.296875 
Q 5.515625 40.765625 12.171875 48.375 
Q 18.84375 56 30.609375 56 
z
" id="DejaVuSans-111"/>
      <path d="M 48.78125 52.59375 
L 48.78125 44.1875 
Q 44.96875 46.296875 41.140625 47.34375 
Q 37.3125 48.390625 33.40625 48.390625 
Q 24.65625 48.390625 19.8125 42.84375 
Q 14.984375 37.3125 14.984375 27.296875 
Q 14.984375 17.28125 19.8125 11.734375 
Q 24.65625 6.203125 33.40625 6.203125 
Q 37.3125 6.203125 41.140625 7.25 
Q 44.96875 8.296875 48.78125 10.40625 
L 48.78125 2.09375 
Q 45.015625 0.34375 40.984375 -0.53125 
Q 36.96875 -1.421875 32.421875 -1.421875 
Q 20.0625 -1.421875 12.78125 6.34375 
Q 5.515625 14.109375 5.515625 27.296875 
Q 5.515625 40.671875 12.859375 48.328125 
Q 20.21875 56 33.015625 56 
Q 37.15625 56 41.109375 55.140625 
Q 45.0625 54.296875 48.78125 52.59375 
z
" id="DejaVuSans-99"/>
      <path d="M 54.890625 33.015625 
L 54.890625 0 
L 45.90625 0 
L 45.90625 32.71875 
Q 45.90625 40.484375 42.875 44.328125 
Q 39.84375 48.1875 33.796875 48.1875 
Q 26.515625 48.1875 22.3125 43.546875 
Q 18.109375 38.921875 18.109375 30.90625 
L 18.109375 0 
L 9.078125 0 
L 9.078125 75.984375 
L 18.109375 75.984375 
L 18.109375 46.1875 
Q 21.34375 51.125 25.703125 53.5625 
Q 30.078125 56 35.796875 56 
Q 45.21875 56 50.046875 50.171875 
Q 54.890625 44.34375 54.890625 33.015625 
z
" id="DejaVuSans-104"/>
     </defs>
     <g transform="translate(369.632813 365.435781)scale(0.1 -0.1)">
      <use xlink:href="#DejaVuSans-69"/>
      <use x="63.183594" xlink:href="#DejaVuSans-112"/>
      <use x="126.660156" xlink:href="#DejaVuSans-111"/>
      <use x="187.841797" xlink:href="#DejaVuSans-99"/>
      <use x="242.822266" xlink:href="#DejaVuSans-104"/>
     </g>
    </g>
   </g>
   <g id="matplotlib.axis_2">
    <g id="ytick_1">
     <g id="line2d_13">
      <path clip-path="url(#pce127e2575)" d="M 50.14375 337.159219 
L 719.74375 337.159219 
" style="fill:none;stroke:#b0b0b0;stroke-linecap:square;stroke-width:0.8;"/>
     </g>
     <g id="line2d_14">
      <defs>
       <path d="M 0 0 
L -3.5 0 
" id="m0f603e383f" style="stroke:#000000;stroke-width:0.8;"/>
      </defs>
      <g>
       <use style="stroke:#000000;stroke-width:0.8;" x="50.14375" xlink:href="#m0f603e383f" y="337.159219"/>
      </g>
     </g>
     <g id="text_8">
      <!-- 0.82 -->
      <defs>
       <path d="M 10.6875 12.40625 
L 21 12.40625 
L 21 0 
L 10.6875 0 
z
" id="DejaVuSans-46"/>
       <path d="M 31.78125 34.625 
Q 24.75 34.625 20.71875 30.859375 
Q 16.703125 27.09375 16.703125 20.515625 
Q 16.703125 13.921875 20.71875 10.15625 
Q 24.75 6.390625 31.78125 6.390625 
Q 38.8125 6.390625 42.859375 10.171875 
Q 46.921875 13.96875 46.921875 20.515625 
Q 46.921875 27.09375 42.890625 30.859375 
Q 38.875 34.625 31.78125 34.625 
z
M 21.921875 38.8125 
Q 15.578125 40.375 12.03125 44.71875 
Q 8.5 49.078125 8.5 55.328125 
Q 8.5 64.0625 14.71875 69.140625 
Q 20.953125 74.21875 31.78125 74.21875 
Q 42.671875 74.21875 48.875 69.140625 
Q 55.078125 64.0625 55.078125 55.328125 
Q 55.078125 49.078125 51.53125 44.71875 
Q 48 40.375 41.703125 38.8125 
Q 48.828125 37.15625 52.796875 32.3125 
Q 56.78125 27.484375 56.78125 20.515625 
Q 56.78125 9.90625 50.3125 4.234375 
Q 43.84375 -1.421875 31.78125 -1.421875 
Q 19.734375 -1.421875 13.25 4.234375 
Q 6.78125 9.90625 6.78125 20.515625 
Q 6.78125 27.484375 10.78125 32.3125 
Q 14.796875 37.15625 21.921875 38.8125 
z
M 18.3125 54.390625 
Q 18.3125 48.734375 21.84375 45.5625 
Q 25.390625 42.390625 31.78125 42.390625 
Q 38.140625 42.390625 41.71875 45.5625 
Q 45.3125 48.734375 45.3125 54.390625 
Q 45.3125 60.0625 41.71875 63.234375 
Q 38.140625 66.40625 31.78125 66.40625 
Q 25.390625 66.40625 21.84375 63.234375 
Q 18.3125 60.0625 18.3125 54.390625 
z
" id="DejaVuSans-56"/>
      </defs>
      <g transform="translate(20.878125 340.958437)scale(0.1 -0.1)">
       <use xlink:href="#DejaVuSans-48"/>
       <use x="63.623047" xlink:href="#DejaVuSans-46"/>
       <use x="95.410156" xlink:href="#DejaVuSans-56"/>
       <use x="159.033203" xlink:href="#DejaVuSans-50"/>
      </g>
     </g>
    </g>
    <g id="ytick_2">
     <g id="line2d_15">
      <path clip-path="url(#pce127e2575)" d="M 50.14375 296.389219 
L 719.74375 296.389219 
" style="fill:none;stroke:#b0b0b0;stroke-linecap:square;stroke-width:0.8;"/>
     </g>
     <g id="line2d_16">
      <g>
       <use style="stroke:#000000;stroke-width:0.8;" x="50.14375" xlink:href="#m0f603e383f" y="296.389219"/>
      </g>
     </g>
     <g id="text_9">
      <!-- 0.84 -->
      <g transform="translate(20.878125 300.188437)scale(0.1 -0.1)">
       <use xlink:href="#DejaVuSans-48"/>
       <use x="63.623047" xlink:href="#DejaVuSans-46"/>
       <use x="95.410156" xlink:href="#DejaVuSans-56"/>
       <use x="159.033203" xlink:href="#DejaVuSans-52"/>
      </g>
     </g>
    </g>
    <g id="ytick_3">
     <g id="line2d_17">
      <path clip-path="url(#pce127e2575)" d="M 50.14375 255.619219 
L 719.74375 255.619219 
" style="fill:none;stroke:#b0b0b0;stroke-linecap:square;stroke-width:0.8;"/>
     </g>
     <g id="line2d_18">
      <g>
       <use style="stroke:#000000;stroke-width:0.8;" x="50.14375" xlink:href="#m0f603e383f" y="255.619219"/>
      </g>
     </g>
     <g id="text_10">
      <!-- 0.86 -->
      <defs>
       <path d="M 33.015625 40.375 
Q 26.375 40.375 22.484375 35.828125 
Q 18.609375 31.296875 18.609375 23.390625 
Q 18.609375 15.53125 22.484375 10.953125 
Q 26.375 6.390625 33.015625 6.390625 
Q 39.65625 6.390625 43.53125 10.953125 
Q 47.40625 15.53125 47.40625 23.390625 
Q 47.40625 31.296875 43.53125 35.828125 
Q 39.65625 40.375 33.015625 40.375 
z
M 52.59375 71.296875 
L 52.59375 62.3125 
Q 48.875 64.0625 45.09375 64.984375 
Q 41.3125 65.921875 37.59375 65.921875 
Q 27.828125 65.921875 22.671875 59.328125 
Q 17.53125 52.734375 16.796875 39.40625 
Q 19.671875 43.65625 24.015625 45.921875 
Q 28.375 48.1875 33.59375 48.1875 
Q 44.578125 48.1875 50.953125 41.515625 
Q 57.328125 34.859375 57.328125 23.390625 
Q 57.328125 12.15625 50.6875 5.359375 
Q 44.046875 -1.421875 33.015625 -1.421875 
Q 20.359375 -1.421875 13.671875 8.265625 
Q 6.984375 17.96875 6.984375 36.375 
Q 6.984375 53.65625 15.1875 63.9375 
Q 23.390625 74.21875 37.203125 74.21875 
Q 40.921875 74.21875 44.703125 73.484375 
Q 48.484375 72.75 52.59375 71.296875 
z
" id="DejaVuSans-54"/>
      </defs>
      <g transform="translate(20.878125 259.418437)scale(0.1 -0.1)">
       <use xlink:href="#DejaVuSans-48"/>
       <use x="63.623047" xlink:href="#DejaVuSans-46"/>
       <use x="95.410156" xlink:href="#DejaVuSans-56"/>
       <use x="159.033203" xlink:href="#DejaVuSans-54"/>
      </g>
     </g>
    </g>
    <g id="ytick_4">
     <g id="line2d_19">
      <path clip-path="url(#pce127e2575)" d="M 50.14375 214.849219 
L 719.74375 214.849219 
" style="fill:none;stroke:#b0b0b0;stroke-linecap:square;stroke-width:0.8;"/>
     </g>
     <g id="line2d_20">
      <g>
       <use style="stroke:#000000;stroke-width:0.8;" x="50.14375" xlink:href="#m0f603e383f" y="214.849219"/>
      </g>
     </g>
     <g id="text_11">
      <!-- 0.88 -->
      <g transform="translate(20.878125 218.648437)scale(0.1 -0.1)">
       <use xlink:href="#DejaVuSans-48"/>
       <use x="63.623047" xlink:href="#DejaVuSans-46"/>
       <use x="95.410156" xlink:href="#DejaVuSans-56"/>
       <use x="159.033203" xlink:href="#DejaVuSans-56"/>
      </g>
     </g>
    </g>
    <g id="ytick_5">
     <g id="line2d_21">
      <path clip-path="url(#pce127e2575)" d="M 50.14375 174.079219 
L 719.74375 174.079219 
" style="fill:none;stroke:#b0b0b0;stroke-linecap:square;stroke-width:0.8;"/>
     </g>
     <g id="line2d_22">
      <g>
       <use style="stroke:#000000;stroke-width:0.8;" x="50.14375" xlink:href="#m0f603e383f" y="174.079219"/>
      </g>
     </g>
     <g id="text_12">
      <!-- 0.90 -->
      <defs>
       <path d="M 10.984375 1.515625 
L 10.984375 10.5 
Q 14.703125 8.734375 18.5 7.8125 
Q 22.3125 6.890625 25.984375 6.890625 
Q 35.75 6.890625 40.890625 13.453125 
Q 46.046875 20.015625 46.78125 33.40625 
Q 43.953125 29.203125 39.59375 26.953125 
Q 35.25 24.703125 29.984375 24.703125 
Q 19.046875 24.703125 12.671875 31.3125 
Q 6.296875 37.9375 6.296875 49.421875 
Q 6.296875 60.640625 12.9375 67.421875 
Q 19.578125 74.21875 30.609375 74.21875 
Q 43.265625 74.21875 49.921875 64.515625 
Q 56.59375 54.828125 56.59375 36.375 
Q 56.59375 19.140625 48.40625 8.859375 
Q 40.234375 -1.421875 26.421875 -1.421875 
Q 22.703125 -1.421875 18.890625 -0.6875 
Q 15.09375 0.046875 10.984375 1.515625 
z
M 30.609375 32.421875 
Q 37.25 32.421875 41.125 36.953125 
Q 45.015625 41.5 45.015625 49.421875 
Q 45.015625 57.28125 41.125 61.84375 
Q 37.25 66.40625 30.609375 66.40625 
Q 23.96875 66.40625 20.09375 61.84375 
Q 16.21875 57.28125 16.21875 49.421875 
Q 16.21875 41.5 20.09375 36.953125 
Q 23.96875 32.421875 30.609375 32.421875 
z
" id="DejaVuSans-57"/>
      </defs>
      <g transform="translate(20.878125 177.878437)scale(0.1 -0.1)">
       <use xlink:href="#DejaVuSans-48"/>
       <use x="63.623047" xlink:href="#DejaVuSans-46"/>
       <use x="95.410156" xlink:href="#DejaVuSans-57"/>
       <use x="159.033203" xlink:href="#DejaVuSans-48"/>
      </g>
     </g>
    </g>
    <g id="ytick_6">
     <g id="line2d_23">
      <path clip-path="url(#pce127e2575)" d="M 50.14375 133.309219 
L 719.74375 133.309219 
" style="fill:none;stroke:#b0b0b0;stroke-linecap:square;stroke-width:0.8;"/>
     </g>
     <g id="line2d_24">
      <g>
       <use style="stroke:#000000;stroke-width:0.8;" x="50.14375" xlink:href="#m0f603e383f" y="133.309219"/>
      </g>
     </g>
     <g id="text_13">
      <!-- 0.92 -->
      <g transform="translate(20.878125 137.108437)scale(0.1 -0.1)">
       <use xlink:href="#DejaVuSans-48"/>
       <use x="63.623047" xlink:href="#DejaVuSans-46"/>
       <use x="95.410156" xlink:href="#DejaVuSans-57"/>
       <use x="159.033203" xlink:href="#DejaVuSans-50"/>
      </g>
     </g>
    </g>
    <g id="ytick_7">
     <g id="line2d_25">
      <path clip-path="url(#pce127e2575)" d="M 50.14375 92.539219 
L 719.74375 92.539219 
" style="fill:none;stroke:#b0b0b0;stroke-linecap:square;stroke-width:0.8;"/>
     </g>
     <g id="line2d_26">
      <g>
       <use style="stroke:#000000;stroke-width:0.8;" x="50.14375" xlink:href="#m0f603e383f" y="92.539219"/>
      </g>
     </g>
     <g id="text_14">
      <!-- 0.94 -->
      <g transform="translate(20.878125 96.338437)scale(0.1 -0.1)">
       <use xlink:href="#DejaVuSans-48"/>
       <use x="63.623047" xlink:href="#DejaVuSans-46"/>
       <use x="95.410156" xlink:href="#DejaVuSans-57"/>
       <use x="159.033203" xlink:href="#DejaVuSans-52"/>
      </g>
     </g>
    </g>
    <g id="ytick_8">
     <g id="line2d_27">
      <path clip-path="url(#pce127e2575)" d="M 50.14375 51.769219 
L 719.74375 51.769219 
" style="fill:none;stroke:#b0b0b0;stroke-linecap:square;stroke-width:0.8;"/>
     </g>
     <g id="line2d_28">
      <g>
       <use style="stroke:#000000;stroke-width:0.8;" x="50.14375" xlink:href="#m0f603e383f" y="51.769219"/>
      </g>
     </g>
     <g id="text_15">
      <!-- 0.96 -->
      <g transform="translate(20.878125 55.568437)scale(0.1 -0.1)">
       <use xlink:href="#DejaVuSans-48"/>
       <use x="63.623047" xlink:href="#DejaVuSans-46"/>
       <use x="95.410156" xlink:href="#DejaVuSans-57"/>
       <use x="159.033203" xlink:href="#DejaVuSans-54"/>
      </g>
     </g>
    </g>
    <g id="ytick_9">
     <g id="line2d_29">
      <path clip-path="url(#pce127e2575)" d="M 50.14375 10.999219 
L 719.74375 10.999219 
" style="fill:none;stroke:#b0b0b0;stroke-linecap:square;stroke-width:0.8;"/>
     </g>
     <g id="line2d_30">
      <g>
       <use style="stroke:#000000;stroke-width:0.8;" x="50.14375" xlink:href="#m0f603e383f" y="10.999219"/>
      </g>
     </g>
     <g id="text_16">
      <!-- 0.98 -->
      <g transform="translate(20.878125 14.798437)scale(0.1 -0.1)">
       <use xlink:href="#DejaVuSans-48"/>
       <use x="63.623047" xlink:href="#DejaVuSans-46"/>
       <use x="95.410156" xlink:href="#DejaVuSans-57"/>
       <use x="159.033203" xlink:href="#DejaVuSans-56"/>
      </g>
     </g>
    </g>
    <g id="text_17">
     <!-- Accuracy -->
     <defs>
      <path d="M 34.1875 63.1875 
L 20.796875 26.90625 
L 47.609375 26.90625 
z
M 28.609375 72.90625 
L 39.796875 72.90625 
L 67.578125 0 
L 57.328125 0 
L 50.6875 18.703125 
L 17.828125 18.703125 
L 11.1875 0 
L 0.78125 0 
z
" id="DejaVuSans-65"/>
      <path d="M 8.5 21.578125 
L 8.5 54.6875 
L 17.484375 54.6875 
L 17.484375 21.921875 
Q 17.484375 14.15625 20.5 10.265625 
Q 23.53125 6.390625 29.59375 6.390625 
Q 36.859375 6.390625 41.078125 11.03125 
Q 45.3125 15.671875 45.3125 23.6875 
L 45.3125 54.6875 
L 54.296875 54.6875 
L 54.296875 0 
L 45.3125 0 
L 45.3125 8.40625 
Q 42.046875 3.421875 37.71875 1 
Q 33.40625 -1.421875 27.6875 -1.421875 
Q 18.265625 -1.421875 13.375 4.4375 
Q 8.5 10.296875 8.5 21.578125 
z
M 31.109375 56 
z
" id="DejaVuSans-117"/>
      <path d="M 41.109375 46.296875 
Q 39.59375 47.171875 37.8125 47.578125 
Q 36.03125 48 33.890625 48 
Q 26.265625 48 22.1875 43.046875 
Q 18.109375 38.09375 18.109375 28.8125 
L 18.109375 0 
L 9.078125 0 
L 9.078125 54.6875 
L 18.109375 54.6875 
L 18.109375 46.1875 
Q 20.953125 51.171875 25.484375 53.578125 
Q 30.03125 56 36.53125 56 
Q 37.453125 56 38.578125 55.875 
Q 39.703125 55.765625 41.0625 55.515625 
z
" id="DejaVuSans-114"/>
      <path d="M 34.28125 27.484375 
Q 23.390625 27.484375 19.1875 25 
Q 14.984375 22.515625 14.984375 16.5 
Q 14.984375 11.71875 18.140625 8.90625 
Q 21.296875 6.109375 26.703125 6.109375 
Q 34.1875 6.109375 38.703125 11.40625 
Q 43.21875 16.703125 43.21875 25.484375 
L 43.21875 27.484375 
z
M 52.203125 31.203125 
L 52.203125 0 
L 43.21875 0 
L 43.21875 8.296875 
Q 40.140625 3.328125 35.546875 0.953125 
Q 30.953125 -1.421875 24.3125 -1.421875 
Q 15.921875 -1.421875 10.953125 3.296875 
Q 6 8.015625 6 15.921875 
Q 6 25.140625 12.171875 29.828125 
Q 18.359375 34.515625 30.609375 34.515625 
L 43.21875 34.515625 
L 43.21875 35.40625 
Q 43.21875 41.609375 39.140625 45 
Q 35.0625 48.390625 27.6875 48.390625 
Q 23 48.390625 18.546875 47.265625 
Q 14.109375 46.140625 10.015625 43.890625 
L 10.015625 52.203125 
Q 14.9375 54.109375 19.578125 55.046875 
Q 24.21875 56 28.609375 56 
Q 40.484375 56 46.34375 49.84375 
Q 52.203125 43.703125 52.203125 31.203125 
z
" id="DejaVuSans-97"/>
      <path d="M 32.171875 -5.078125 
Q 28.375 -14.84375 24.75 -17.8125 
Q 21.140625 -20.796875 15.09375 -20.796875 
L 7.90625 -20.796875 
L 7.90625 -13.28125 
L 13.1875 -13.28125 
Q 16.890625 -13.28125 18.9375 -11.515625 
Q 21 -9.765625 23.484375 -3.21875 
L 25.09375 0.875 
L 2.984375 54.6875 
L 12.5 54.6875 
L 29.59375 11.921875 
L 46.6875 54.6875 
L 56.203125 54.6875 
z
" id="DejaVuSans-121"/>
     </defs>
     <g transform="translate(14.798438 196.994062)rotate(-90)scale(0.1 -0.1)">
      <use xlink:href="#DejaVuSans-65"/>
      <use x="68.392578" xlink:href="#DejaVuSans-99"/>
      <use x="123.373047" xlink:href="#DejaVuSans-99"/>
      <use x="178.353516" xlink:href="#DejaVuSans-117"/>
      <use x="241.732422" xlink:href="#DejaVuSans-114"/>
      <use x="282.845703" xlink:href="#DejaVuSans-97"/>
      <use x="344.125" xlink:href="#DejaVuSans-99"/>
      <use x="399.105469" xlink:href="#DejaVuSans-121"/>
     </g>
    </g>
   </g>
   <g id="line2d_31">
    <path clip-path="url(#pce127e2575)" d="M 109.738815 375.715469 
L 110.094602 373.597453 
L 111.370153 372.068567 
L 112.645703 367.023232 
L 113.921253 358.563512 
L 115.196803 361.723103 
L 116.472353 356.474006 
L 117.747903 356.830742 
L 120.299003 349.441229 
L 121.574553 344.293952 
L 122.850103 341.287213 
L 124.125653 342.816098 
L 125.401203 337.006381 
L 126.676753 339.554443 
L 127.952303 341.338123 
L 129.227853 328.954307 
L 130.503403 329.922573 
L 131.778953 325.386826 
L 133.054503 324.775296 
L 134.330053 322.685912 
L 135.605604 325.794593 
L 136.881154 321.513762 
L 138.156704 314.429953 
L 139.432254 318.252107 
L 140.707804 312.850157 
L 141.983354 312.034744 
L 143.258904 312.646274 
L 144.534454 311.321272 
L 145.810004 309.588502 
L 147.085554 305.664407 
L 148.361104 303.065313 
L 149.636654 302.453783 
L 150.912204 298.07101 
L 152.187754 302.249899 
L 153.463304 299.956632 
L 154.738854 292.159351 
L 156.014404 294.146915 
L 157.289954 291.802615 
L 159.841055 293.535263 
L 161.116605 286.910254 
L 162.392155 282.221655 
L 163.667705 283.954424 
L 164.943255 283.546657 
L 166.218805 283.699509 
L 167.494355 284.616865 
L 168.769905 284.667896 
L 170.045455 276.819584 
L 171.321005 283.240952 
L 172.596555 282.068803 
L 173.872105 272.283959 
L 175.147655 274.628258 
L 176.423205 274.933962 
L 177.698755 270.805983 
L 178.974305 272.233048 
L 180.249855 272.793547 
L 181.525405 271.468545 
L 182.800955 262.091468 
L 184.076506 266.270358 
L 185.352056 268.207011 
L 186.627606 267.697302 
L 187.903156 266.321389 
L 189.178706 264.435768 
L 190.454256 256.638487 
L 191.729806 263.110766 
L 193.005356 263.41647 
L 194.280906 261.326965 
L 195.556456 257.250017 
L 196.832006 260.256757 
L 198.107556 258.575019 
L 199.383106 255.109602 
L 200.658656 253.937452 
L 201.934206 249.707531 
L 203.209756 250.370092 
L 204.485306 251.644184 
L 205.760856 251.49121 
L 207.036406 255.466337 
L 208.311956 252.204682 
L 209.587507 250.064267 
L 210.863057 248.790296 
L 212.138607 246.496907 
L 213.414157 247.974883 
L 214.689707 242.929548 
L 215.965257 245.120995 
L 217.240807 246.445997 
L 218.516357 242.318018 
L 219.791907 240.789132 
L 221.067457 242.012192 
L 222.343007 240.12657 
L 223.618557 241.29872 
L 224.894107 235.132267 
L 226.169657 236.151565 
L 227.445207 240.02475 
L 228.720757 234.724621 
L 229.996307 234.062059 
L 231.271857 238.037186 
L 232.547407 240.585248 
L 233.822958 237.68045 
L 235.098508 238.8526 
L 236.374058 229.067756 
L 237.649608 231.870733 
L 240.200708 228.812962 
L 241.476258 227.48796 
L 242.751808 231.71776 
L 244.027358 233.093793 
L 245.302908 224.379157 
L 246.578458 226.213868 
L 247.854008 227.53887 
L 249.129558 226.774488 
L 250.405108 221.678243 
L 251.680658 223.054155 
L 252.956208 227.233166 
L 254.231758 224.481099 
L 255.507308 217.907 
L 256.782858 222.697419 
L 258.058409 223.105187 
L 259.333959 225.143661 
L 260.609509 222.391715 
L 261.885059 218.161794 
L 263.160609 222.952213 
L 264.436159 219.792621 
L 265.711709 218.773324 
L 266.987259 216.938734 
L 268.262809 214.594434 
L 269.538359 213.829931 
L 270.813909 219.69068 
L 272.089459 213.727989 
L 273.365009 218.875266 
L 274.640559 212.352077 
L 275.916109 212.657781 
L 277.191659 212.402987 
L 278.467209 211.179927 
L 279.742759 212.555961 
L 281.018309 209.396247 
L 282.29386 213.524227 
L 283.56941 214.747287 
L 284.84496 208.682775 
L 286.12051 208.020214 
L 287.39606 204.860622 
L 288.67161 207.2048 
L 289.94716 208.32604 
L 291.22271 206.03265 
L 292.49826 204.75868 
L 293.77381 206.54236 
L 295.04936 203.433678 
L 296.32491 203.025911 
L 297.60046 203.484588 
L 298.87601 207.969304 
L 300.15156 207.663478 
L 301.42711 199.866197 
L 302.70266 200.834585 
L 303.97821 199.356609 
L 305.25376 200.477849 
L 306.529311 198.847021 
L 307.804861 200.528759 
L 309.080411 197.165283 
L 310.355961 199.356609 
L 311.631511 198.795989 
L 312.907061 194.820984 
L 314.182611 196.604664 
L 315.458161 196.553632 
L 316.733711 196.757516 
L 318.009261 194.871894 
L 319.284811 196.145986 
L 320.560361 190.896888 
L 321.835911 192.323832 
L 323.111461 192.272801 
L 324.387011 187.890027 
L 325.662561 193.495982 
L 326.938111 189.826681 
L 328.213661 192.425774 
L 329.489211 189.877591 
L 330.764762 192.425774 
L 332.040312 194.05648 
L 333.315862 190.336269 
L 334.591412 187.176555 
L 335.866962 186.310231 
L 337.142512 188.603499 
L 338.418062 183.711138 
L 339.693612 183.965932 
L 340.969162 184.628494 
L 342.244712 183.660228 
L 343.520262 184.322668 
L 344.795812 185.698701 
L 346.071362 184.679404 
L 347.346912 188.144821 
L 348.622462 181.213986 
L 349.898012 185.64767 
L 351.173562 180.24572 
L 352.449112 176.066709 
L 353.724662 183.762048 
L 355.000213 179.990926 
L 356.275763 179.277454 
L 357.551313 174.537824 
L 358.826863 183.20155 
L 360.102413 185.240024 
L 361.377963 182.946634 
L 363.929063 174.334061 
L 365.204613 175.200385 
L 366.480163 172.397408 
L 367.755713 175.455179 
L 369.031263 180.194689 
L 370.306813 174.181088 
L 371.582363 176.219683 
L 372.857913 173.11088 
L 374.133463 173.314764 
L 375.409013 174.537824 
L 376.684563 176.423445 
L 377.960113 168.728107 
L 379.235664 177.391833 
L 380.511214 166.689633 
L 381.786764 172.091704 
L 383.062314 173.6715 
L 384.337864 171.683936 
L 385.613414 170.002198 
L 386.888964 175.404269 
L 388.164514 171.429142 
L 389.440064 172.856086 
L 390.715614 167.912814 
L 391.991164 165.007895 
L 393.266714 165.823309 
L 394.542264 169.645462 
L 395.817814 164.549217 
L 397.093364 168.218519 
L 398.368914 163.173184 
L 399.644464 165.109837 
L 400.920014 162.408802 
L 402.195564 162.30686 
L 403.471115 161.032768 
L 406.022215 162.714627 
L 407.297765 160.421238 
L 409.848865 166.332897 
L 411.124415 165.211779 
L 412.399965 157.312556 
L 413.675515 162.459712 
L 414.951065 159.656856 
L 416.226615 156.191438 
L 417.502165 159.147146 
L 418.777715 160.777974 
L 420.053265 154.152843 
L 421.328815 154.407637 
L 422.604365 155.834702 
L 423.879915 154.611521 
L 425.155465 157.108673 
L 426.431015 155.834702 
L 427.706566 155.936523 
L 428.982116 158.841442 
L 430.257666 158.076939 
L 431.533216 155.528877 
L 432.808766 156.038465 
L 434.084316 154.254785 
L 435.359866 152.012427 
L 436.635416 155.885613 
L 437.910966 152.267222 
L 439.186516 153.949081 
L 440.462066 150.177838 
L 441.737616 148.394158 
L 443.013166 146.304652 
L 444.288716 148.801804 
L 445.564266 152.114369 
L 446.839816 144.266179 
L 448.115366 149.413334 
L 449.390916 149.10763 
L 450.666466 146.100769 
L 451.942017 143.858411 
L 453.217567 147.170976 
L 454.493117 146.049858 
L 455.768667 150.126806 
L 457.044217 145.59118 
L 458.319767 144.622915 
L 459.595317 144.97965 
L 460.870867 147.833538 
L 462.146417 143.960353 
L 463.421967 145.744033 
L 464.697517 144.113326 
L 465.973067 138.303488 
L 467.248617 142.788203 
L 468.524167 141.717995 
L 469.799717 139.118902 
L 471.075267 139.57758 
L 472.350817 138.456462 
L 473.626367 142.482499 
L 474.901917 138.252578 
L 476.177467 138.303488 
L 477.453018 139.781463 
L 478.728568 133.411127 
L 480.004118 139.271875 
L 481.279668 136.62175 
L 482.555218 137.641048 
L 483.830768 132.086125 
L 485.106318 139.628611 
L 486.381868 133.258275 
L 487.657418 134.583276 
L 488.932968 131.882241 
L 490.208518 133.513069 
L 492.759618 131.474595 
L 494.035168 126.98988 
L 495.310718 134.124599 
L 496.586268 131.729389 
L 497.861818 131.780299 
L 499.137368 132.086125 
L 500.412918 129.894677 
L 502.964019 132.340919 
L 504.239569 130.353355 
L 505.515119 125.86864 
L 506.790669 127.04079 
L 508.066219 128.416823 
L 509.341769 128.671617 
L 510.617319 128.009177 
L 511.892869 124.64558 
L 513.168419 124.696612 
L 514.443969 128.518765 
L 515.719519 123.524462 
L 516.995069 123.42252 
L 518.270619 122.912811 
L 519.546169 126.225376 
L 520.821719 121.333015 
L 522.097269 123.524462 
L 523.372819 120.466691 
L 524.648369 121.485867 
L 525.92392 122.148429 
L 527.19947 118.631979 
L 528.47502 116.950241 
L 529.75057 123.626404 
L 531.02612 116.287801 
L 532.30167 118.479127 
L 534.85277 122.046487 
L 536.12832 121.587809 
L 537.40387 116.950241 
L 538.67942 116.134828 
L 539.95497 112.924204 
L 541.23052 118.377185 
L 542.50607 114.555032 
L 543.78162 116.185859 
L 545.05717 113.790528 
L 546.33272 111.701144 
L 547.60827 115.778092 
L 548.88382 110.681847 
L 550.159371 110.681847 
L 551.434921 109.000109 
L 552.710471 110.528994 
L 553.986021 109.560729 
L 555.261571 108.133785 
L 556.537121 109.713581 
L 557.812671 110.88573 
L 559.088221 109.356845 
L 560.363771 107.267339 
L 561.639321 108.949199 
L 564.190421 106.655809 
L 565.465971 108.643373 
L 566.741521 108.694283 
L 568.017071 106.655809 
L 569.292621 105.432749 
L 570.568171 109.152961 
L 571.843721 107.726017 
L 573.119271 106.757751 
L 574.394822 105.076013 
L 575.670372 104.719277 
L 576.945922 98.807618 
L 578.221472 102.171094 
L 579.497022 106.044279 
L 580.772572 102.680804 
L 582.048122 103.292334 
L 583.323672 100.795182 
L 584.599222 98.756587 
L 585.874772 98.145057 
L 587.150322 97.686379 
L 588.425872 99.164354 
L 589.701422 99.673943 
L 590.976972 92.33534 
L 592.252522 94.679639 
L 593.528072 97.890263 
L 594.803622 98.043115 
L 596.079172 94.220961 
L 597.354722 93.609431 
L 598.630273 97.074849 
L 599.905823 94.985465 
L 601.181373 94.883523 
L 602.456923 93.252695 
L 603.732473 92.233398 
L 605.008023 91.927694 
L 606.283573 92.997901 
L 607.559123 88.10554 
L 608.834673 89.532484 
L 610.110223 90.194924 
L 611.385773 87.595831 
L 612.661323 86.474713 
L 613.936873 90.144014 
L 615.212423 86.678475 
L 616.487973 88.258392 
L 617.763523 88.15645 
L 619.039073 88.971864 
L 620.314623 89.532484 
L 621.590173 85.608267 
L 622.865724 83.060205 
L 624.141274 85.914093 
L 625.416824 82.14285 
L 626.692374 85.200621 
L 627.967924 82.499585 
L 629.243474 81.072642 
L 630.519024 82.958263 
L 631.794574 79.79855 
L 634.345674 80.30826 
L 635.621224 73.632097 
L 636.896774 77.199456 
L 638.172324 82.14285 
L 639.447874 78.473548 
L 640.723424 76.689868 
L 641.998974 77.709166 
L 643.274524 78.932226 
L 644.550074 76.18028 
L 645.825624 79.288962 
L 647.101175 74.396601 
L 648.376725 74.549453 
L 649.652275 77.658134 
L 650.927825 75.059041 
L 652.203375 71.593623 
L 653.478925 70.268621 
L 654.754475 73.988833 
L 656.030025 76.485985 
L 657.305575 72.001391 
L 658.581125 68.43391 
L 659.856675 75.212014 
L 661.132225 72.510979 
L 662.407775 67.567586 
L 663.683325 69.60606 
L 664.958875 69.55515 
L 666.234425 72.103211 
L 667.509975 64.662788 
L 668.785525 66.344526 
L 670.061075 68.230148 
L 671.336626 67.516676 
L 672.612176 67.873412 
L 673.887726 65.98779 
L 675.163276 66.242584 
L 676.438826 66.701262 
L 677.714376 64.509815 
L 678.989926 64.306052 
L 680.265476 65.223286 
L 681.541026 65.42717 
L 682.816576 63.082871 
L 684.092126 63.745432 
L 685.367676 65.121345 
L 686.643226 67.057998 
L 687.918776 66.395436 
L 687.918776 66.395436 
" style="fill:none;stroke:#377eb8;stroke-linecap:square;stroke-width:1.5;"/>
   </g>
   <g id="line2d_32">
    <path clip-path="url(#pce127e2575)" d="M 86.831179 375.715469 
L 87.134702 369.271301 
L 88.410252 357.166701 
L 89.685802 372.759075 
L 90.961352 365.373207 
L 92.236902 345.062101 
L 93.512452 341.574327 
L 94.523233 375.715469 
M 95.373282 375.715469 
L 96.063552 365.168108 
L 97.339102 332.547182 
L 98.614652 346.498279 
L 99.890202 324.340676 
L 101.165752 329.264506 
L 102.441302 317.980545 
L 103.716852 324.135455 
L 104.992402 332.957501 
L 106.267952 299.515936 
L 107.543502 331.316224 
L 108.819052 315.313409 
L 110.094602 315.313409 
L 111.370153 309.56894 
L 112.645703 329.674826 
L 113.921253 294.181665 
L 115.196803 292.130069 
L 116.472353 294.591984 
L 117.747903 282.897703 
L 119.023453 278.38407 
L 120.299003 298.695298 
L 121.574553 284.53898 
L 122.850103 294.386885 
L 124.125653 279.615028 
L 125.401203 309.56894 
L 126.676753 291.10421 
L 127.952303 270.382784 
L 129.227853 269.562146 
L 130.503403 286.385478 
L 131.778953 278.38407 
L 133.054503 276.127375 
L 134.330053 267.715649 
L 135.605604 252.123275 
L 136.881154 272.22916 
L 138.156704 268.331067 
L 140.707804 263.407236 
L 143.258904 247.404543 
L 144.534454 255.816148 
L 145.810004 251.097416 
L 147.085554 268.125968 
L 148.361104 249.456139 
L 149.636654 267.305329 
L 150.912204 247.404543 
L 152.187754 266.68979 
L 153.463304 241.659952 
L 154.738854 242.685689 
L 156.014404 236.120581 
L 157.289954 293.155806 
L 158.565504 255.611049 
L 159.841055 231.606948 
L 161.116605 243.096008 
L 162.392155 235.299821 
L 163.667705 250.071557 
L 164.943255 242.685689 
L 166.218805 244.942506 
L 167.494355 230.991408 
L 168.769905 225.246939 
L 170.045455 229.760451 
L 171.321005 252.738693 
L 172.596555 230.991408 
L 173.872105 253.354232 
L 176.423205 292.130069 
L 177.698755 225.862357 
L 178.974305 236.120581 
L 180.249855 222.784902 
L 181.525405 217.040311 
L 182.800955 238.787596 
L 184.076506 233.453445 
L 185.352056 214.578396 
L 186.627606 230.37599 
L 187.903156 227.708855 
L 189.178706 215.193936 
L 190.454256 221.553944 
L 191.729806 212.731899 
L 193.005356 219.912668 
L 194.280906 211.706161 
L 195.556456 231.812047 
L 196.832006 223.195221 
L 198.107556 222.579803 
L 199.383106 237.146319 
L 200.658656 228.734713 
L 201.934206 222.990123 
L 203.209756 223.810761 
L 204.485306 205.551251 
L 205.760856 241.044412 
L 207.036406 223.605541 
L 208.311956 208.013167 
L 209.587507 224.836498 
L 210.863057 201.653158 
L 212.138607 238.377276 
L 213.414157 232.017267 
L 214.689707 222.374583 
L 215.965257 250.892317 
L 218.516357 202.473796 
L 219.791907 217.861071 
L 221.067457 214.988715 
L 222.343007 208.013167 
L 223.618557 206.166669 
L 224.894107 203.499655 
L 226.169657 210.064763 
L 227.445207 220.322987 
L 228.720757 198.780801 
L 229.996307 210.064763 
L 231.271857 212.937119 
L 232.547407 212.11648 
L 233.822958 217.450631 
L 235.098508 217.040311 
L 236.374058 197.549844 
L 237.649608 207.397748 
L 238.925158 196.524106 
L 240.200708 217.655851 
L 241.476258 213.347438 
L 242.751808 206.166669 
L 244.027358 207.602847 
L 245.302908 217.861071 
L 247.854008 202.473796 
L 249.129558 207.602847 
L 250.405108 196.113787 
L 251.680658 197.069538 
L 252.956208 195.087928 
L 254.231758 203.089214 
L 255.507308 194.062069 
L 256.782858 190.984614 
L 258.058409 197.755064 
L 259.333959 200.4222 
L 260.609509 188.522699 
L 261.885059 187.70206 
L 263.160609 194.062069 
L 264.436159 191.805253 
L 265.711709 196.113787 
L 266.987259 189.548558 
L 268.262809 187.70206 
L 269.538359 194.062069 
L 270.813909 191.189835 
L 272.089459 192.010473 
L 273.365009 203.089214 
L 274.640559 192.215572 
L 275.916109 202.268576 
L 277.191659 186.471103 
L 278.467209 189.138239 
L 279.742759 187.49684 
L 281.018309 202.473796 
L 282.29386 192.215572 
L 283.56941 197.549844 
L 284.84496 185.855563 
L 286.12051 189.753657 
L 287.39606 182.983328 
L 288.67161 186.060784 
L 289.94716 195.908567 
L 291.22271 185.240145 
L 292.49826 177.854277 
L 293.77381 212.11648 
L 295.04936 186.881422 
L 296.32491 187.907159 
L 297.60046 194.472389 
L 298.87601 194.472389 
L 300.15156 178.469695 
L 301.42711 188.317479 
L 302.70266 185.034925 
L 303.97821 189.138239 
L 305.25376 185.240145 
L 306.529311 179.905873 
L 307.804861 189.958877 
L 309.080411 186.881422 
L 310.355961 182.573009 
L 311.631511 173.135424 
L 312.907061 182.778108 
L 314.182611 178.264596 
L 315.458161 187.70206 
L 316.733711 173.135424 
L 318.009261 180.726512 
L 319.284811 176.418099 
L 320.560361 177.854277 
L 321.835911 188.522699 
L 323.111461 181.136831 
L 324.387011 187.49684 
L 325.662561 183.598747 
L 326.938111 178.880015 
L 328.213661 175.80256 
L 329.489211 177.443837 
L 330.764762 184.624605 
L 332.040312 190.369196 
L 333.315862 190.163976 
L 334.591412 169.647649 
L 335.866962 180.726512 
L 337.142512 174.161283 
L 338.418062 168.211593 
L 339.693612 184.214286 
L 340.969162 186.471103 
L 342.244712 174.776822 
L 343.520262 178.674916 
L 346.071362 165.134138 
L 347.346912 190.574295 
L 348.622462 193.856971 
L 349.898012 181.136831 
L 351.173562 183.598747 
L 352.449112 179.905873 
L 353.724662 166.365096 
L 355.000213 172.109686 
L 356.275763 165.339237 
L 357.551313 166.159875 
L 358.826863 198.165383 
L 360.102413 167.390954 
L 361.377963 176.418099 
L 362.653513 171.699367 
L 363.929063 175.39224 
L 365.204613 170.468409 
L 366.480163 178.674916 
L 367.755713 173.545743 
L 369.031263 167.185734 
L 370.306813 177.649057 
L 371.582363 173.135424 
L 372.857913 182.778108 
L 374.133463 187.49684 
L 375.409013 183.803967 
L 376.684563 176.828418 
L 377.960113 171.494147 
L 379.235664 169.23733 
L 380.511214 161.646364 
L 381.786764 168.827011 
L 383.062314 167.801274 
L 384.337864 186.471103 
L 385.613414 164.518598 
L 386.888964 190.163976 
L 388.164514 162.261782 
L 389.440064 165.749556 
L 390.715614 170.673508 
L 391.991164 170.057969 
L 393.266714 163.90318 
L 394.542264 183.188427 
L 395.817814 204.730613 
L 397.093364 162.672101 
L 398.368914 175.80256 
L 399.644464 165.954776 
L 400.920014 168.827011 
L 402.195564 181.136831 
L 403.471115 164.108279 
L 404.746665 176.00778 
L 406.022215 160.005087 
L 407.297765 177.238738 
L 408.573315 160.210185 
L 409.848865 155.491453 
L 411.124415 169.85287 
L 412.399965 163.69796 
L 413.675515 174.366503 
L 414.951065 161.441143 
L 416.226615 163.08242 
L 417.502165 175.39224 
L 418.777715 161.441143 
L 420.053265 161.030824 
L 421.328815 172.725105 
L 422.604365 174.981921 
L 423.879915 168.416692 
L 425.155465 155.901773 
L 426.431015 166.570194 
L 427.706566 163.492861 
L 428.982116 161.236044 
L 430.257666 164.108279 
L 431.533216 161.236044 
L 432.808766 168.621912 
L 434.084316 168.827011 
L 435.359866 159.594767 
L 436.635416 168.416692 
L 437.910966 166.980635 
L 439.186516 163.08242 
L 440.462066 163.90318 
L 441.737616 158.158589 
L 444.288716 164.313499 
L 445.564266 157.953369 
L 446.839816 168.006373 
L 448.115366 160.415406 
L 449.390916 169.85287 
L 450.666466 164.723819 
L 451.942017 170.118235 
L 453.217567 165.339237 
L 454.493117 161.236044 
L 455.768667 162.877321 
L 457.044217 150.157182 
L 458.319767 158.774007 
L 459.595317 163.90318 
L 460.870867 167.390954 
L 462.146417 169.23733 
L 463.421967 157.74827 
L 464.697517 165.339237 
L 465.973067 157.953369 
L 467.248617 158.363688 
L 468.524167 157.54305 
L 469.799717 169.442551 
L 471.075267 153.234637 
L 472.350817 159.594767 
L 473.626367 155.491453 
L 474.901917 164.518598 
L 476.177467 153.234637 
L 477.453018 155.901773 
L 478.728568 149.336543 
L 480.004118 157.953369 
L 481.279668 159.594767 
L 482.555218 157.54305 
L 483.830768 158.158589 
L 485.106318 150.567501 
L 486.381868 161.851462 
L 487.657418 154.055275 
L 488.932968 157.54305 
L 490.208518 152.208778 
L 491.484068 153.644956 
L 492.759618 156.722411 
L 494.035168 164.518598 
L 495.310718 157.74827 
L 496.586268 156.927632 
L 497.861818 163.08242 
L 499.137368 160.825725 
L 500.412918 148.310685 
L 501.688469 158.363688 
L 502.964019 156.927632 
L 504.239569 150.567501 
L 505.515119 159.389547 
L 506.790669 141.950676 
L 508.066219 153.029538 
L 510.617319 154.260496 
L 511.892869 154.670815 
L 513.168419 149.746863 
L 514.443969 160.005087 
L 515.719519 154.670815 
L 516.995069 158.568909 
L 518.270619 146.259088 
L 519.546169 155.491453 
L 520.821719 155.901773 
L 522.097269 156.517312 
L 523.372819 151.183041 
L 524.648369 153.850177 
L 525.92392 158.568909 
L 527.19947 152.619219 
L 528.47502 144.617811 
L 529.75057 158.568909 
L 531.02612 153.234637 
L 532.30167 151.798459 
L 533.57722 148.721125 
L 534.85277 147.900365 
L 536.12832 158.158589 
L 537.40387 150.772721 
L 538.67942 156.312092 
L 539.95497 141.950676 
L 541.23052 145.028131 
L 542.50607 154.670815 
L 543.78162 156.312092 
L 545.05717 144.412591 
L 546.33272 148.721125 
L 547.60827 138.873221 
L 548.88382 147.695266 
L 550.159371 151.798459 
L 551.434921 159.389547 
L 552.710471 147.695266 
L 553.986021 138.257802 
L 555.261571 148.105586 
L 556.537121 146.874628 
L 557.812671 152.824318 
L 559.088221 154.875914 
L 560.363771 152.208778 
L 561.639321 154.055275 
L 562.914871 148.721125 
L 564.190421 146.259088 
L 565.465971 152.413998 
L 566.741521 157.953369 
L 568.017071 145.233351 
L 569.292621 154.875914 
L 570.568171 144.207492 
L 571.843721 145.028131 
L 573.119271 148.515905 
L 574.394822 146.259088 
L 575.670372 139.899079 
L 576.945922 152.208778 
L 578.221472 139.28354 
L 579.497022 140.719718 
L 580.772572 143.181633 
L 583.323672 149.746863 
L 584.599222 148.105586 
L 585.874772 150.772721 
L 587.150322 139.899079 
L 588.425872 137.847483 
L 589.701422 149.952083 
L 590.976972 139.078441 
L 592.252522 148.721125 
L 593.528072 146.259088 
L 594.803622 138.668122 
L 596.079172 132.923531 
L 597.354722 140.309399 
L 598.630273 142.771314 
L 599.905823 139.693859 
L 601.181373 137.437042 
L 602.456923 145.43845 
L 603.732473 137.437042 
L 605.008023 141.950676 
L 606.283573 141.130037 
L 607.559123 149.952083 
L 608.834673 145.64367 
L 610.110223 140.924817 
L 611.385773 142.566215 
L 612.661323 138.668122 
L 613.936873 154.465595 
L 615.212423 137.847483 
L 616.487973 138.873221 
L 617.763523 150.97782 
L 619.039073 147.079727 
L 620.314623 149.131445 
L 621.590173 141.335257 
L 622.865724 140.514497 
L 624.141274 139.28354 
L 625.416824 139.28354 
L 626.692374 146.464309 
L 627.967924 138.668122 
L 629.243474 134.359709 
L 630.519024 133.949268 
L 631.794574 144.207492 
L 633.070124 140.514497 
L 634.345674 134.975127 
L 635.621224 141.950676 
L 636.896774 129.230536 
L 638.172324 140.924817 
L 639.447874 134.564808 
L 640.723424 136.000986 
L 641.998974 140.104178 
L 643.274524 137.847483 
L 644.550074 137.642263 
L 645.825624 140.924817 
L 647.101175 136.000986 
L 648.376725 140.104178 
L 649.652275 139.28354 
L 650.927825 135.385446 
L 652.203375 132.753911 
L 653.478925 138.257802 
L 654.754475 135.590667 
L 656.030025 140.309399 
L 657.305575 132.71831 
L 658.581125 138.052582 
L 659.856675 131.897672 
L 661.132225 134.564808 
L 662.407775 134.975127 
L 663.683325 138.257802 
L 664.958875 135.180347 
L 666.234425 136.000986 
L 667.509975 135.180347 
L 668.785525 137.231944 
L 670.061075 132.102892 
L 671.336626 140.309399 
L 672.612176 133.12863 
L 673.887726 134.975127 
L 675.163276 136.411305 
L 676.438826 137.026723 
L 677.714376 131.897672 
L 678.989926 133.33385 
L 680.265476 133.538949 
L 681.541026 128.204799 
L 682.816576 135.180347 
L 684.092126 135.795765 
L 685.367676 131.487353 
L 686.643226 135.385446 
L 687.918776 132.71831 
L 687.918776 132.71831 
" style="fill:none;stroke:#4daf4a;stroke-linecap:square;stroke-width:1.5;"/>
   </g>
   <g id="patch_3">
    <path d="M 50.14375 337.159219 
L 50.14375 10.999219 
" style="fill:none;stroke:#000000;stroke-linecap:square;stroke-linejoin:miter;stroke-width:0.8;"/>
   </g>
   <g id="patch_4">
    <path d="M 719.74375 337.159219 
L 719.74375 10.999219 
" style="fill:none;stroke:#000000;stroke-linecap:square;stroke-linejoin:miter;stroke-width:0.8;"/>
   </g>
   <g id="patch_5">
    <path d="M 50.14375 337.159219 
L 719.74375 337.159219 
" style="fill:none;stroke:#000000;stroke-linecap:square;stroke-linejoin:miter;stroke-width:0.8;"/>
   </g>
   <g id="patch_6">
    <path d="M 50.14375 10.999219 
L 719.74375 10.999219 
" style="fill:none;stroke:#000000;stroke-linecap:square;stroke-linejoin:miter;stroke-width:0.8;"/>
   </g>
   <g id="legend_1">
    <g id="patch_7">
     <path d="M 57.14375 48.355469 
L 114.584375 48.355469 
Q 116.584375 48.355469 116.584375 46.355469 
L 116.584375 17.999219 
Q 116.584375 15.999219 114.584375 15.999219 
L 57.14375 15.999219 
Q 55.14375 15.999219 55.14375 17.999219 
L 55.14375 46.355469 
Q 55.14375 48.355469 57.14375 48.355469 
z
" style="fill:#ffffff;opacity:0.8;stroke:#cccccc;stroke-linejoin:miter;"/>
    </g>
    <g id="line2d_33">
     <path d="M 59.14375 24.097656 
L 79.14375 24.097656 
" style="fill:none;stroke:#377eb8;stroke-linecap:square;stroke-width:1.5;"/>
    </g>
    <g id="line2d_34"/>
    <g id="text_18">
     <!-- Train -->
     <defs>
      <path d="M -0.296875 72.90625 
L 61.375 72.90625 
L 61.375 64.59375 
L 35.5 64.59375 
L 35.5 0 
L 25.59375 0 
L 25.59375 64.59375 
L -0.296875 64.59375 
z
" id="DejaVuSans-84"/>
      <path d="M 9.421875 54.6875 
L 18.40625 54.6875 
L 18.40625 0 
L 9.421875 0 
z
M 9.421875 75.984375 
L 18.40625 75.984375 
L 18.40625 64.59375 
L 9.421875 64.59375 
z
" id="DejaVuSans-105"/>
      <path d="M 54.890625 33.015625 
L 54.890625 0 
L 45.90625 0 
L 45.90625 32.71875 
Q 45.90625 40.484375 42.875 44.328125 
Q 39.84375 48.1875 33.796875 48.1875 
Q 26.515625 48.1875 22.3125 43.546875 
Q 18.109375 38.921875 18.109375 30.90625 
L 18.109375 0 
L 9.078125 0 
L 9.078125 54.6875 
L 18.109375 54.6875 
L 18.109375 46.1875 
Q 21.34375 51.125 25.703125 53.5625 
Q 30.078125 56 35.796875 56 
Q 45.21875 56 50.046875 50.171875 
Q 54.890625 44.34375 54.890625 33.015625 
z
" id="DejaVuSans-110"/>
     </defs>
     <g transform="translate(87.14375 27.597656)scale(0.1 -0.1)">
      <use xlink:href="#DejaVuSans-84"/>
      <use x="60.865234" xlink:href="#DejaVuSans-114"/>
      <use x="101.978516" xlink:href="#DejaVuSans-97"/>
      <use x="163.257812" xlink:href="#DejaVuSans-105"/>
      <use x="191.041016" xlink:href="#DejaVuSans-110"/>
     </g>
    </g>
    <g id="line2d_35">
     <path d="M 59.14375 38.775781 
L 79.14375 38.775781 
" style="fill:none;stroke:#4daf4a;stroke-linecap:square;stroke-width:1.5;"/>
    </g>
    <g id="line2d_36"/>
    <g id="text_19">
     <!-- Test -->
     <defs>
      <path d="M 56.203125 29.59375 
L 56.203125 25.203125 
L 14.890625 25.203125 
Q 15.484375 15.921875 20.484375 11.0625 
Q 25.484375 6.203125 34.421875 6.203125 
Q 39.59375 6.203125 44.453125 7.46875 
Q 49.3125 8.734375 54.109375 11.28125 
L 54.109375 2.78125 
Q 49.265625 0.734375 44.1875 -0.34375 
Q 39.109375 -1.421875 33.890625 -1.421875 
Q 20.796875 -1.421875 13.15625 6.1875 
Q 5.515625 13.8125 5.515625 26.8125 
Q 5.515625 40.234375 12.765625 48.109375 
Q 20.015625 56 32.328125 56 
Q 43.359375 56 49.78125 48.890625 
Q 56.203125 41.796875 56.203125 29.59375 
z
M 47.21875 32.234375 
Q 47.125 39.59375 43.09375 43.984375 
Q 39.0625 48.390625 32.421875 48.390625 
Q 24.90625 48.390625 20.390625 44.140625 
Q 15.875 39.890625 15.1875 32.171875 
z
" id="DejaVuSans-101"/>
      <path d="M 44.28125 53.078125 
L 44.28125 44.578125 
Q 40.484375 46.53125 36.375 47.5 
Q 32.28125 48.484375 27.875 48.484375 
Q 21.1875 48.484375 17.84375 46.4375 
Q 14.5 44.390625 14.5 40.28125 
Q 14.5 37.15625 16.890625 35.375 
Q 19.28125 33.59375 26.515625 31.984375 
L 29.59375 31.296875 
Q 39.15625 29.25 43.1875 25.515625 
Q 47.21875 21.78125 47.21875 15.09375 
Q 47.21875 7.46875 41.1875 3.015625 
Q 35.15625 -1.421875 24.609375 -1.421875 
Q 20.21875 -1.421875 15.453125 -0.5625 
Q 10.6875 0.296875 5.421875 2 
L 5.421875 11.28125 
Q 10.40625 8.6875 15.234375 7.390625 
Q 20.0625 6.109375 24.8125 6.109375 
Q 31.15625 6.109375 34.5625 8.28125 
Q 37.984375 10.453125 37.984375 14.40625 
Q 37.984375 18.0625 35.515625 20.015625 
Q 33.0625 21.96875 24.703125 23.78125 
L 21.578125 24.515625 
Q 13.234375 26.265625 9.515625 29.90625 
Q 5.8125 33.546875 5.8125 39.890625 
Q 5.8125 47.609375 11.28125 51.796875 
Q 16.75 56 26.8125 56 
Q 31.78125 56 36.171875 55.265625 
Q 40.578125 54.546875 44.28125 53.078125 
z
" id="DejaVuSans-115"/>
      <path d="M 18.3125 70.21875 
L 18.3125 54.6875 
L 36.8125 54.6875 
L 36.8125 47.703125 
L 18.3125 47.703125 
L 18.3125 18.015625 
Q 18.3125 11.328125 20.140625 9.421875 
Q 21.96875 7.515625 27.59375 7.515625 
L 36.8125 7.515625 
L 36.8125 0 
L 27.59375 0 
Q 17.1875 0 13.234375 3.875 
Q 9.28125 7.765625 9.28125 18.015625 
L 9.28125 47.703125 
L 2.6875 47.703125 
L 2.6875 54.6875 
L 9.28125 54.6875 
L 9.28125 70.21875 
z
" id="DejaVuSans-116"/>
     </defs>
     <g transform="translate(87.14375 42.275781)scale(0.1 -0.1)">
      <use xlink:href="#DejaVuSans-84"/>
      <use x="60.818359" xlink:href="#DejaVuSans-101"/>
      <use x="122.341797" xlink:href="#DejaVuSans-115"/>
      <use x="174.441406" xlink:href="#DejaVuSans-116"/>
     </g>
    </g>
   </g>
  </g>
 </g>
 <defs>
  <clipPath id="pce127e2575">
   <rect height="326.16" width="669.6" x="50.14375" y="10.999219"/>
  </clipPath>
 </defs>
</svg>
