<?xml version="1.0" encoding="utf-8" standalone="no"?>
<!DOCTYPE svg PUBLIC "-//W3C//DTD SVG 1.1//EN"
  "http://www.w3.org/Graphics/SVG/1.1/DTD/svg11.dtd">
<!-- Created with matplotlib (https://matplotlib.org/) -->
<svg height="374.715469pt" version="1.1" viewBox="0 0 733.30625 374.715469" width="733.30625pt" xmlns="http://www.w3.org/2000/svg" xmlns:xlink="http://www.w3.org/1999/xlink">
 <defs>
  <style type="text/css">
*{stroke-linecap:butt;stroke-linejoin:round;white-space:pre;}
  </style>
 </defs>
 <g id="figure_1">
  <g id="patch_1">
   <path d="M 0 374.715469 
L 733.30625 374.715469 
L 733.30625 0 
L 0 0 
z
" style="fill:#ffffff;"/>
  </g>
  <g id="axes_1">
   <g id="patch_2">
    <path d="M 56.50625 337.159219 
L 726.10625 337.159219 
L 726.10625 10.999219 
L 56.50625 10.999219 
z
" style="fill:#ffffff;"/>
   </g>
   <g id="matplotlib.axis_1">
    <g id="xtick_1">
     <g id="line2d_1">
      <path clip-path="url(#pc4c3d3cae9)" d="M 83.883683 337.159219 
L 83.883683 10.999219 
" style="fill:none;stroke:#b0b0b0;stroke-linecap:square;stroke-width:0.8;"/>
     </g>
     <g id="line2d_2">
      <defs>
       <path d="M 0 0 
L 0 3.5 
" id="mb94a283af4" style="stroke:#000000;stroke-width:0.8;"/>
      </defs>
      <g>
       <use style="stroke:#000000;stroke-width:0.8;" x="83.883683" xlink:href="#mb94a283af4" y="337.159219"/>
      </g>
     </g>
     <g id="text_1">
      <!-- 0 -->
      <defs>
       <path d="M 31.78125 66.40625 
Q 24.171875 66.40625 20.328125 58.90625 
Q 16.5 51.421875 16.5 36.375 
Q 16.5 21.390625 20.328125 13.890625 
Q 24.171875 6.390625 31.78125 6.390625 
Q 39.453125 6.390625 43.28125 13.890625 
Q 47.125 21.390625 47.125 36.375 
Q 47.125 51.421875 43.28125 58.90625 
Q 39.453125 66.40625 31.78125 66.40625 
z
M 31.78125 74.21875 
Q 44.046875 74.21875 50.515625 64.515625 
Q 56.984375 54.828125 56.984375 36.375 
Q 56.984375 17.96875 50.515625 8.265625 
Q 44.046875 -1.421875 31.78125 -1.421875 
Q 19.53125 -1.421875 13.0625 8.265625 
Q 6.59375 17.96875 6.59375 36.375 
Q 6.59375 54.828125 13.0625 64.515625 
Q 19.53125 74.21875 31.78125 74.21875 
z
" id="DejaVuSans-48"/>
      </defs>
      <g transform="translate(80.702433 351.757656)scale(0.1 -0.1)">
       <use xlink:href="#DejaVuSans-48"/>
      </g>
     </g>
    </g>
    <g id="xtick_2">
     <g id="line2d_3">
      <path clip-path="url(#pc4c3d3cae9)" d="M 160.356958 337.159219 
L 160.356958 10.999219 
" style="fill:none;stroke:#b0b0b0;stroke-linecap:square;stroke-width:0.8;"/>
     </g>
     <g id="line2d_4">
      <g>
       <use style="stroke:#000000;stroke-width:0.8;" x="160.356958" xlink:href="#mb94a283af4" y="337.159219"/>
      </g>
     </g>
     <g id="text_2">
      <!-- 25 -->
      <defs>
       <path d="M 19.1875 8.296875 
L 53.609375 8.296875 
L 53.609375 0 
L 7.328125 0 
L 7.328125 8.296875 
Q 12.9375 14.109375 22.625 23.890625 
Q 32.328125 33.6875 34.8125 36.53125 
Q 39.546875 41.84375 41.421875 45.53125 
Q 43.3125 49.21875 43.3125 52.78125 
Q 43.3125 58.59375 39.234375 62.25 
Q 35.15625 65.921875 28.609375 65.921875 
Q 23.96875 65.921875 18.8125 64.3125 
Q 13.671875 62.703125 7.8125 59.421875 
L 7.8125 69.390625 
Q 13.765625 71.78125 18.9375 73 
Q 24.125 74.21875 28.421875 74.21875 
Q 39.75 74.21875 46.484375 68.546875 
Q 53.21875 62.890625 53.21875 53.421875 
Q 53.21875 48.921875 51.53125 44.890625 
Q 49.859375 40.875 45.40625 35.40625 
Q 44.1875 33.984375 37.640625 27.21875 
Q 31.109375 20.453125 19.1875 8.296875 
z
" id="DejaVuSans-50"/>
       <path d="M 10.796875 72.90625 
L 49.515625 72.90625 
L 49.515625 64.59375 
L 19.828125 64.59375 
L 19.828125 46.734375 
Q 21.96875 47.46875 24.109375 47.828125 
Q 26.265625 48.1875 28.421875 48.1875 
Q 40.625 48.1875 47.75 41.5 
Q 54.890625 34.8125 54.890625 23.390625 
Q 54.890625 11.625 47.5625 5.09375 
Q 40.234375 -1.421875 26.90625 -1.421875 
Q 22.3125 -1.421875 17.546875 -0.640625 
Q 12.796875 0.140625 7.71875 1.703125 
L 7.71875 11.625 
Q 12.109375 9.234375 16.796875 8.0625 
Q 21.484375 6.890625 26.703125 6.890625 
Q 35.15625 6.890625 40.078125 11.328125 
Q 45.015625 15.765625 45.015625 23.390625 
Q 45.015625 31 40.078125 35.4375 
Q 35.15625 39.890625 26.703125 39.890625 
Q 22.75 39.890625 18.8125 39.015625 
Q 14.890625 38.140625 10.796875 36.28125 
z
" id="DejaVuSans-53"/>
      </defs>
      <g transform="translate(153.994458 351.757656)scale(0.1 -0.1)">
       <use xlink:href="#DejaVuSans-50"/>
       <use x="63.623047" xlink:href="#DejaVuSans-53"/>
      </g>
     </g>
    </g>
    <g id="xtick_3">
     <g id="line2d_5">
      <path clip-path="url(#pc4c3d3cae9)" d="M 236.830234 337.159219 
L 236.830234 10.999219 
" style="fill:none;stroke:#b0b0b0;stroke-linecap:square;stroke-width:0.8;"/>
     </g>
     <g id="line2d_6">
      <g>
       <use style="stroke:#000000;stroke-width:0.8;" x="236.830234" xlink:href="#mb94a283af4" y="337.159219"/>
      </g>
     </g>
     <g id="text_3">
      <!-- 50 -->
      <g transform="translate(230.467734 351.757656)scale(0.1 -0.1)">
       <use xlink:href="#DejaVuSans-53"/>
       <use x="63.623047" xlink:href="#DejaVuSans-48"/>
      </g>
     </g>
    </g>
    <g id="xtick_4">
     <g id="line2d_7">
      <path clip-path="url(#pc4c3d3cae9)" d="M 313.303509 337.159219 
L 313.303509 10.999219 
" style="fill:none;stroke:#b0b0b0;stroke-linecap:square;stroke-width:0.8;"/>
     </g>
     <g id="line2d_8">
      <g>
       <use style="stroke:#000000;stroke-width:0.8;" x="313.303509" xlink:href="#mb94a283af4" y="337.159219"/>
      </g>
     </g>
     <g id="text_4">
      <!-- 75 -->
      <defs>
       <path d="M 8.203125 72.90625 
L 55.078125 72.90625 
L 55.078125 68.703125 
L 28.609375 0 
L 18.3125 0 
L 43.21875 64.59375 
L 8.203125 64.59375 
z
" id="DejaVuSans-55"/>
      </defs>
      <g transform="translate(306.941009 351.757656)scale(0.1 -0.1)">
       <use xlink:href="#DejaVuSans-55"/>
       <use x="63.623047" xlink:href="#DejaVuSans-53"/>
      </g>
     </g>
    </g>
    <g id="xtick_5">
     <g id="line2d_9">
      <path clip-path="url(#pc4c3d3cae9)" d="M 389.776784 337.159219 
L 389.776784 10.999219 
" style="fill:none;stroke:#b0b0b0;stroke-linecap:square;stroke-width:0.8;"/>
     </g>
     <g id="line2d_10">
      <g>
       <use style="stroke:#000000;stroke-width:0.8;" x="389.776784" xlink:href="#mb94a283af4" y="337.159219"/>
      </g>
     </g>
     <g id="text_5">
      <!-- 100 -->
      <defs>
       <path d="M 12.40625 8.296875 
L 28.515625 8.296875 
L 28.515625 63.921875 
L 10.984375 60.40625 
L 10.984375 69.390625 
L 28.421875 72.90625 
L 38.28125 72.90625 
L 38.28125 8.296875 
L 54.390625 8.296875 
L 54.390625 0 
L 12.40625 0 
z
" id="DejaVuSans-49"/>
      </defs>
      <g transform="translate(380.233034 351.757656)scale(0.1 -0.1)">
       <use xlink:href="#DejaVuSans-49"/>
       <use x="63.623047" xlink:href="#DejaVuSans-48"/>
       <use x="127.246094" xlink:href="#DejaVuSans-48"/>
      </g>
     </g>
    </g>
    <g id="xtick_6">
     <g id="line2d_11">
      <path clip-path="url(#pc4c3d3cae9)" d="M 466.25006 337.159219 
L 466.25006 10.999219 
" style="fill:none;stroke:#b0b0b0;stroke-linecap:square;stroke-width:0.8;"/>
     </g>
     <g id="line2d_12">
      <g>
       <use style="stroke:#000000;stroke-width:0.8;" x="466.25006" xlink:href="#mb94a283af4" y="337.159219"/>
      </g>
     </g>
     <g id="text_6">
      <!-- 125 -->
      <g transform="translate(456.70631 351.757656)scale(0.1 -0.1)">
       <use xlink:href="#DejaVuSans-49"/>
       <use x="63.623047" xlink:href="#DejaVuSans-50"/>
       <use x="127.246094" xlink:href="#DejaVuSans-53"/>
      </g>
     </g>
    </g>
    <g id="xtick_7">
     <g id="line2d_13">
      <path clip-path="url(#pc4c3d3cae9)" d="M 542.723335 337.159219 
L 542.723335 10.999219 
" style="fill:none;stroke:#b0b0b0;stroke-linecap:square;stroke-width:0.8;"/>
     </g>
     <g id="line2d_14">
      <g>
       <use style="stroke:#000000;stroke-width:0.8;" x="542.723335" xlink:href="#mb94a283af4" y="337.159219"/>
      </g>
     </g>
     <g id="text_7">
      <!-- 150 -->
      <g transform="translate(533.179585 351.757656)scale(0.1 -0.1)">
       <use xlink:href="#DejaVuSans-49"/>
       <use x="63.623047" xlink:href="#DejaVuSans-53"/>
       <use x="127.246094" xlink:href="#DejaVuSans-48"/>
      </g>
     </g>
    </g>
    <g id="xtick_8">
     <g id="line2d_15">
      <path clip-path="url(#pc4c3d3cae9)" d="M 619.196611 337.159219 
L 619.196611 10.999219 
" style="fill:none;stroke:#b0b0b0;stroke-linecap:square;stroke-width:0.8;"/>
     </g>
     <g id="line2d_16">
      <g>
       <use style="stroke:#000000;stroke-width:0.8;" x="619.196611" xlink:href="#mb94a283af4" y="337.159219"/>
      </g>
     </g>
     <g id="text_8">
      <!-- 175 -->
      <g transform="translate(609.652861 351.757656)scale(0.1 -0.1)">
       <use xlink:href="#DejaVuSans-49"/>
       <use x="63.623047" xlink:href="#DejaVuSans-55"/>
       <use x="127.246094" xlink:href="#DejaVuSans-53"/>
      </g>
     </g>
    </g>
    <g id="xtick_9">
     <g id="line2d_17">
      <path clip-path="url(#pc4c3d3cae9)" d="M 695.669886 337.159219 
L 695.669886 10.999219 
" style="fill:none;stroke:#b0b0b0;stroke-linecap:square;stroke-width:0.8;"/>
     </g>
     <g id="line2d_18">
      <g>
       <use style="stroke:#000000;stroke-width:0.8;" x="695.669886" xlink:href="#mb94a283af4" y="337.159219"/>
      </g>
     </g>
     <g id="text_9">
      <!-- 200 -->
      <g transform="translate(686.126136 351.757656)scale(0.1 -0.1)">
       <use xlink:href="#DejaVuSans-50"/>
       <use x="63.623047" xlink:href="#DejaVuSans-48"/>
       <use x="127.246094" xlink:href="#DejaVuSans-48"/>
      </g>
     </g>
    </g>
    <g id="text_10">
     <!-- Epoch -->
     <defs>
      <path d="M 9.8125 72.90625 
L 55.90625 72.90625 
L 55.90625 64.59375 
L 19.671875 64.59375 
L 19.671875 43.015625 
L 54.390625 43.015625 
L 54.390625 34.71875 
L 19.671875 34.71875 
L 19.671875 8.296875 
L 56.78125 8.296875 
L 56.78125 0 
L 9.8125 0 
z
" id="DejaVuSans-69"/>
      <path d="M 18.109375 8.203125 
L 18.109375 -20.796875 
L 9.078125 -20.796875 
L 9.078125 54.6875 
L 18.109375 54.6875 
L 18.109375 46.390625 
Q 20.953125 51.265625 25.265625 53.625 
Q 29.59375 56 35.59375 56 
Q 45.5625 56 51.78125 48.09375 
Q 58.015625 40.1875 58.015625 27.296875 
Q 58.015625 14.40625 51.78125 6.484375 
Q 45.5625 -1.421875 35.59375 -1.421875 
Q 29.59375 -1.421875 25.265625 0.953125 
Q 20.953125 3.328125 18.109375 8.203125 
z
M 48.6875 27.296875 
Q 48.6875 37.203125 44.609375 42.84375 
Q 40.53125 48.484375 33.40625 48.484375 
Q 26.265625 48.484375 22.1875 42.84375 
Q 18.109375 37.203125 18.109375 27.296875 
Q 18.109375 17.390625 22.1875 11.75 
Q 26.265625 6.109375 33.40625 6.109375 
Q 40.53125 6.109375 44.609375 11.75 
Q 48.6875 17.390625 48.6875 27.296875 
z
" id="DejaVuSans-112"/>
      <path d="M 30.609375 48.390625 
Q 23.390625 48.390625 19.1875 42.75 
Q 14.984375 37.109375 14.984375 27.296875 
Q 14.984375 17.484375 19.15625 11.84375 
Q 23.34375 6.203125 30.609375 6.203125 
Q 37.796875 6.203125 41.984375 11.859375 
Q 46.1875 17.53125 46.1875 27.296875 
Q 46.1875 37.015625 41.984375 42.703125 
Q 37.796875 48.390625 30.609375 48.390625 
z
M 30.609375 56 
Q 42.328125 56 49.015625 48.375 
Q 55.71875 40.765625 55.71875 27.296875 
Q 55.71875 13.875 49.015625 6.21875 
Q 42.328125 -1.421875 30.609375 -1.421875 
Q 18.84375 -1.421875 12.171875 6.21875 
Q 5.515625 13.875 5.515625 27.296875 
Q 5.515625 40.765625 12.171875 48.375 
Q 18.84375 56 30.609375 56 
z
" id="DejaVuSans-111"/>
      <path d="M 48.78125 52.59375 
L 48.78125 44.1875 
Q 44.96875 46.296875 41.140625 47.34375 
Q 37.3125 48.390625 33.40625 48.390625 
Q 24.65625 48.390625 19.8125 42.84375 
Q 14.984375 37.3125 14.984375 27.296875 
Q 14.984375 17.28125 19.8125 11.734375 
Q 24.65625 6.203125 33.40625 6.203125 
Q 37.3125 6.203125 41.140625 7.25 
Q 44.96875 8.296875 48.78125 10.40625 
L 48.78125 2.09375 
Q 45.015625 0.34375 40.984375 -0.53125 
Q 36.96875 -1.421875 32.421875 -1.421875 
Q 20.0625 -1.421875 12.78125 6.34375 
Q 5.515625 14.109375 5.515625 27.296875 
Q 5.515625 40.671875 12.859375 48.328125 
Q 20.21875 56 33.015625 56 
Q 37.15625 56 41.109375 55.140625 
Q 45.0625 54.296875 48.78125 52.59375 
z
" id="DejaVuSans-99"/>
      <path d="M 54.890625 33.015625 
L 54.890625 0 
L 45.90625 0 
L 45.90625 32.71875 
Q 45.90625 40.484375 42.875 44.328125 
Q 39.84375 48.1875 33.796875 48.1875 
Q 26.515625 48.1875 22.3125 43.546875 
Q 18.109375 38.921875 18.109375 30.90625 
L 18.109375 0 
L 9.078125 0 
L 9.078125 75.984375 
L 18.109375 75.984375 
L 18.109375 46.1875 
Q 21.34375 51.125 25.703125 53.5625 
Q 30.078125 56 35.796875 56 
Q 45.21875 56 50.046875 50.171875 
Q 54.890625 44.34375 54.890625 33.015625 
z
" id="DejaVuSans-104"/>
     </defs>
     <g transform="translate(375.995313 365.435781)scale(0.1 -0.1)">
      <use xlink:href="#DejaVuSans-69"/>
      <use x="63.183594" xlink:href="#DejaVuSans-112"/>
      <use x="126.660156" xlink:href="#DejaVuSans-111"/>
      <use x="187.841797" xlink:href="#DejaVuSans-99"/>
      <use x="242.822266" xlink:href="#DejaVuSans-104"/>
     </g>
    </g>
   </g>
   <g id="matplotlib.axis_2">
    <g id="ytick_1">
     <g id="line2d_19">
      <path clip-path="url(#pc4c3d3cae9)" d="M 56.50625 337.159219 
L 726.10625 337.159219 
" style="fill:none;stroke:#b0b0b0;stroke-linecap:square;stroke-width:0.8;"/>
     </g>
     <g id="line2d_20">
      <defs>
       <path d="M 0 0 
L -3.5 0 
" id="m79c9809933" style="stroke:#000000;stroke-width:0.8;"/>
      </defs>
      <g>
       <use style="stroke:#000000;stroke-width:0.8;" x="56.50625" xlink:href="#m79c9809933" y="337.159219"/>
      </g>
     </g>
     <g id="text_11">
      <!-- 0.800 -->
      <defs>
       <path d="M 10.6875 12.40625 
L 21 12.40625 
L 21 0 
L 10.6875 0 
z
" id="DejaVuSans-46"/>
       <path d="M 31.78125 34.625 
Q 24.75 34.625 20.71875 30.859375 
Q 16.703125 27.09375 16.703125 20.515625 
Q 16.703125 13.921875 20.71875 10.15625 
Q 24.75 6.390625 31.78125 6.390625 
Q 38.8125 6.390625 42.859375 10.171875 
Q 46.921875 13.96875 46.921875 20.515625 
Q 46.921875 27.09375 42.890625 30.859375 
Q 38.875 34.625 31.78125 34.625 
z
M 21.921875 38.8125 
Q 15.578125 40.375 12.03125 44.71875 
Q 8.5 49.078125 8.5 55.328125 
Q 8.5 64.0625 14.71875 69.140625 
Q 20.953125 74.21875 31.78125 74.21875 
Q 42.671875 74.21875 48.875 69.140625 
Q 55.078125 64.0625 55.078125 55.328125 
Q 55.078125 49.078125 51.53125 44.71875 
Q 48 40.375 41.703125 38.8125 
Q 48.828125 37.15625 52.796875 32.3125 
Q 56.78125 27.484375 56.78125 20.515625 
Q 56.78125 9.90625 50.3125 4.234375 
Q 43.84375 -1.421875 31.78125 -1.421875 
Q 19.734375 -1.421875 13.25 4.234375 
Q 6.78125 9.90625 6.78125 20.515625 
Q 6.78125 27.484375 10.78125 32.3125 
Q 14.796875 37.15625 21.921875 38.8125 
z
M 18.3125 54.390625 
Q 18.3125 48.734375 21.84375 45.5625 
Q 25.390625 42.390625 31.78125 42.390625 
Q 38.140625 42.390625 41.71875 45.5625 
Q 45.3125 48.734375 45.3125 54.390625 
Q 45.3125 60.0625 41.71875 63.234375 
Q 38.140625 66.40625 31.78125 66.40625 
Q 25.390625 66.40625 21.84375 63.234375 
Q 18.3125 60.0625 18.3125 54.390625 
z
" id="DejaVuSans-56"/>
      </defs>
      <g transform="translate(20.878125 340.958438)scale(0.1 -0.1)">
       <use xlink:href="#DejaVuSans-48"/>
       <use x="63.623047" xlink:href="#DejaVuSans-46"/>
       <use x="95.410156" xlink:href="#DejaVuSans-56"/>
       <use x="159.033203" xlink:href="#DejaVuSans-48"/>
       <use x="222.65625" xlink:href="#DejaVuSans-48"/>
      </g>
     </g>
    </g>
    <g id="ytick_2">
     <g id="line2d_21">
      <path clip-path="url(#pc4c3d3cae9)" d="M 56.50625 296.389219 
L 726.10625 296.389219 
" style="fill:none;stroke:#b0b0b0;stroke-linecap:square;stroke-width:0.8;"/>
     </g>
     <g id="line2d_22">
      <g>
       <use style="stroke:#000000;stroke-width:0.8;" x="56.50625" xlink:href="#m79c9809933" y="296.389219"/>
      </g>
     </g>
     <g id="text_12">
      <!-- 0.825 -->
      <g transform="translate(20.878125 300.188437)scale(0.1 -0.1)">
       <use xlink:href="#DejaVuSans-48"/>
       <use x="63.623047" xlink:href="#DejaVuSans-46"/>
       <use x="95.410156" xlink:href="#DejaVuSans-56"/>
       <use x="159.033203" xlink:href="#DejaVuSans-50"/>
       <use x="222.65625" xlink:href="#DejaVuSans-53"/>
      </g>
     </g>
    </g>
    <g id="ytick_3">
     <g id="line2d_23">
      <path clip-path="url(#pc4c3d3cae9)" d="M 56.50625 255.619219 
L 726.10625 255.619219 
" style="fill:none;stroke:#b0b0b0;stroke-linecap:square;stroke-width:0.8;"/>
     </g>
     <g id="line2d_24">
      <g>
       <use style="stroke:#000000;stroke-width:0.8;" x="56.50625" xlink:href="#m79c9809933" y="255.619219"/>
      </g>
     </g>
     <g id="text_13">
      <!-- 0.850 -->
      <g transform="translate(20.878125 259.418437)scale(0.1 -0.1)">
       <use xlink:href="#DejaVuSans-48"/>
       <use x="63.623047" xlink:href="#DejaVuSans-46"/>
       <use x="95.410156" xlink:href="#DejaVuSans-56"/>
       <use x="159.033203" xlink:href="#DejaVuSans-53"/>
       <use x="222.65625" xlink:href="#DejaVuSans-48"/>
      </g>
     </g>
    </g>
    <g id="ytick_4">
     <g id="line2d_25">
      <path clip-path="url(#pc4c3d3cae9)" d="M 56.50625 214.849219 
L 726.10625 214.849219 
" style="fill:none;stroke:#b0b0b0;stroke-linecap:square;stroke-width:0.8;"/>
     </g>
     <g id="line2d_26">
      <g>
       <use style="stroke:#000000;stroke-width:0.8;" x="56.50625" xlink:href="#m79c9809933" y="214.849219"/>
      </g>
     </g>
     <g id="text_14">
      <!-- 0.875 -->
      <g transform="translate(20.878125 218.648438)scale(0.1 -0.1)">
       <use xlink:href="#DejaVuSans-48"/>
       <use x="63.623047" xlink:href="#DejaVuSans-46"/>
       <use x="95.410156" xlink:href="#DejaVuSans-56"/>
       <use x="159.033203" xlink:href="#DejaVuSans-55"/>
       <use x="222.65625" xlink:href="#DejaVuSans-53"/>
      </g>
     </g>
    </g>
    <g id="ytick_5">
     <g id="line2d_27">
      <path clip-path="url(#pc4c3d3cae9)" d="M 56.50625 174.079219 
L 726.10625 174.079219 
" style="fill:none;stroke:#b0b0b0;stroke-linecap:square;stroke-width:0.8;"/>
     </g>
     <g id="line2d_28">
      <g>
       <use style="stroke:#000000;stroke-width:0.8;" x="56.50625" xlink:href="#m79c9809933" y="174.079219"/>
      </g>
     </g>
     <g id="text_15">
      <!-- 0.900 -->
      <defs>
       <path d="M 10.984375 1.515625 
L 10.984375 10.5 
Q 14.703125 8.734375 18.5 7.8125 
Q 22.3125 6.890625 25.984375 6.890625 
Q 35.75 6.890625 40.890625 13.453125 
Q 46.046875 20.015625 46.78125 33.40625 
Q 43.953125 29.203125 39.59375 26.953125 
Q 35.25 24.703125 29.984375 24.703125 
Q 19.046875 24.703125 12.671875 31.3125 
Q 6.296875 37.9375 6.296875 49.421875 
Q 6.296875 60.640625 12.9375 67.421875 
Q 19.578125 74.21875 30.609375 74.21875 
Q 43.265625 74.21875 49.921875 64.515625 
Q 56.59375 54.828125 56.59375 36.375 
Q 56.59375 19.140625 48.40625 8.859375 
Q 40.234375 -1.421875 26.421875 -1.421875 
Q 22.703125 -1.421875 18.890625 -0.6875 
Q 15.09375 0.046875 10.984375 1.515625 
z
M 30.609375 32.421875 
Q 37.25 32.421875 41.125 36.953125 
Q 45.015625 41.5 45.015625 49.421875 
Q 45.015625 57.28125 41.125 61.84375 
Q 37.25 66.40625 30.609375 66.40625 
Q 23.96875 66.40625 20.09375 61.84375 
Q 16.21875 57.28125 16.21875 49.421875 
Q 16.21875 41.5 20.09375 36.953125 
Q 23.96875 32.421875 30.609375 32.421875 
z
" id="DejaVuSans-57"/>
      </defs>
      <g transform="translate(20.878125 177.878437)scale(0.1 -0.1)">
       <use xlink:href="#DejaVuSans-48"/>
       <use x="63.623047" xlink:href="#DejaVuSans-46"/>
       <use x="95.410156" xlink:href="#DejaVuSans-57"/>
       <use x="159.033203" xlink:href="#DejaVuSans-48"/>
       <use x="222.65625" xlink:href="#DejaVuSans-48"/>
      </g>
     </g>
    </g>
    <g id="ytick_6">
     <g id="line2d_29">
      <path clip-path="url(#pc4c3d3cae9)" d="M 56.50625 133.309219 
L 726.10625 133.309219 
" style="fill:none;stroke:#b0b0b0;stroke-linecap:square;stroke-width:0.8;"/>
     </g>
     <g id="line2d_30">
      <g>
       <use style="stroke:#000000;stroke-width:0.8;" x="56.50625" xlink:href="#m79c9809933" y="133.309219"/>
      </g>
     </g>
     <g id="text_16">
      <!-- 0.925 -->
      <g transform="translate(20.878125 137.108437)scale(0.1 -0.1)">
       <use xlink:href="#DejaVuSans-48"/>
       <use x="63.623047" xlink:href="#DejaVuSans-46"/>
       <use x="95.410156" xlink:href="#DejaVuSans-57"/>
       <use x="159.033203" xlink:href="#DejaVuSans-50"/>
       <use x="222.65625" xlink:href="#DejaVuSans-53"/>
      </g>
     </g>
    </g>
    <g id="ytick_7">
     <g id="line2d_31">
      <path clip-path="url(#pc4c3d3cae9)" d="M 56.50625 92.539219 
L 726.10625 92.539219 
" style="fill:none;stroke:#b0b0b0;stroke-linecap:square;stroke-width:0.8;"/>
     </g>
     <g id="line2d_32">
      <g>
       <use style="stroke:#000000;stroke-width:0.8;" x="56.50625" xlink:href="#m79c9809933" y="92.539219"/>
      </g>
     </g>
     <g id="text_17">
      <!-- 0.950 -->
      <g transform="translate(20.878125 96.338437)scale(0.1 -0.1)">
       <use xlink:href="#DejaVuSans-48"/>
       <use x="63.623047" xlink:href="#DejaVuSans-46"/>
       <use x="95.410156" xlink:href="#DejaVuSans-57"/>
       <use x="159.033203" xlink:href="#DejaVuSans-53"/>
       <use x="222.65625" xlink:href="#DejaVuSans-48"/>
      </g>
     </g>
    </g>
    <g id="ytick_8">
     <g id="line2d_33">
      <path clip-path="url(#pc4c3d3cae9)" d="M 56.50625 51.769219 
L 726.10625 51.769219 
" style="fill:none;stroke:#b0b0b0;stroke-linecap:square;stroke-width:0.8;"/>
     </g>
     <g id="line2d_34">
      <g>
       <use style="stroke:#000000;stroke-width:0.8;" x="56.50625" xlink:href="#m79c9809933" y="51.769219"/>
      </g>
     </g>
     <g id="text_18">
      <!-- 0.975 -->
      <g transform="translate(20.878125 55.568437)scale(0.1 -0.1)">
       <use xlink:href="#DejaVuSans-48"/>
       <use x="63.623047" xlink:href="#DejaVuSans-46"/>
       <use x="95.410156" xlink:href="#DejaVuSans-57"/>
       <use x="159.033203" xlink:href="#DejaVuSans-55"/>
       <use x="222.65625" xlink:href="#DejaVuSans-53"/>
      </g>
     </g>
    </g>
    <g id="ytick_9">
     <g id="line2d_35">
      <path clip-path="url(#pc4c3d3cae9)" d="M 56.50625 10.999219 
L 726.10625 10.999219 
" style="fill:none;stroke:#b0b0b0;stroke-linecap:square;stroke-width:0.8;"/>
     </g>
     <g id="line2d_36">
      <g>
       <use style="stroke:#000000;stroke-width:0.8;" x="56.50625" xlink:href="#m79c9809933" y="10.999219"/>
      </g>
     </g>
     <g id="text_19">
      <!-- 1.000 -->
      <g transform="translate(20.878125 14.798437)scale(0.1 -0.1)">
       <use xlink:href="#DejaVuSans-49"/>
       <use x="63.623047" xlink:href="#DejaVuSans-46"/>
       <use x="95.410156" xlink:href="#DejaVuSans-48"/>
       <use x="159.033203" xlink:href="#DejaVuSans-48"/>
       <use x="222.65625" xlink:href="#DejaVuSans-48"/>
      </g>
     </g>
    </g>
    <g id="text_20">
     <!-- Accuracy -->
     <defs>
      <path d="M 34.1875 63.1875 
L 20.796875 26.90625 
L 47.609375 26.90625 
z
M 28.609375 72.90625 
L 39.796875 72.90625 
L 67.578125 0 
L 57.328125 0 
L 50.6875 18.703125 
L 17.828125 18.703125 
L 11.1875 0 
L 0.78125 0 
z
" id="DejaVuSans-65"/>
      <path d="M 8.5 21.578125 
L 8.5 54.6875 
L 17.484375 54.6875 
L 17.484375 21.921875 
Q 17.484375 14.15625 20.5 10.265625 
Q 23.53125 6.390625 29.59375 6.390625 
Q 36.859375 6.390625 41.078125 11.03125 
Q 45.3125 15.671875 45.3125 23.6875 
L 45.3125 54.6875 
L 54.296875 54.6875 
L 54.296875 0 
L 45.3125 0 
L 45.3125 8.40625 
Q 42.046875 3.421875 37.71875 1 
Q 33.40625 -1.421875 27.6875 -1.421875 
Q 18.265625 -1.421875 13.375 4.4375 
Q 8.5 10.296875 8.5 21.578125 
z
M 31.109375 56 
z
" id="DejaVuSans-117"/>
      <path d="M 41.109375 46.296875 
Q 39.59375 47.171875 37.8125 47.578125 
Q 36.03125 48 33.890625 48 
Q 26.265625 48 22.1875 43.046875 
Q 18.109375 38.09375 18.109375 28.8125 
L 18.109375 0 
L 9.078125 0 
L 9.078125 54.6875 
L 18.109375 54.6875 
L 18.109375 46.1875 
Q 20.953125 51.171875 25.484375 53.578125 
Q 30.03125 56 36.53125 56 
Q 37.453125 56 38.578125 55.875 
Q 39.703125 55.765625 41.0625 55.515625 
z
" id="DejaVuSans-114"/>
      <path d="M 34.28125 27.484375 
Q 23.390625 27.484375 19.1875 25 
Q 14.984375 22.515625 14.984375 16.5 
Q 14.984375 11.71875 18.140625 8.90625 
Q 21.296875 6.109375 26.703125 6.109375 
Q 34.1875 6.109375 38.703125 11.40625 
Q 43.21875 16.703125 43.21875 25.484375 
L 43.21875 27.484375 
z
M 52.203125 31.203125 
L 52.203125 0 
L 43.21875 0 
L 43.21875 8.296875 
Q 40.140625 3.328125 35.546875 0.953125 
Q 30.953125 -1.421875 24.3125 -1.421875 
Q 15.921875 -1.421875 10.953125 3.296875 
Q 6 8.015625 6 15.921875 
Q 6 25.140625 12.171875 29.828125 
Q 18.359375 34.515625 30.609375 34.515625 
L 43.21875 34.515625 
L 43.21875 35.40625 
Q 43.21875 41.609375 39.140625 45 
Q 35.0625 48.390625 27.6875 48.390625 
Q 23 48.390625 18.546875 47.265625 
Q 14.109375 46.140625 10.015625 43.890625 
L 10.015625 52.203125 
Q 14.9375 54.109375 19.578125 55.046875 
Q 24.21875 56 28.609375 56 
Q 40.484375 56 46.34375 49.84375 
Q 52.203125 43.703125 52.203125 31.203125 
z
" id="DejaVuSans-97"/>
      <path d="M 32.171875 -5.078125 
Q 28.375 -14.84375 24.75 -17.8125 
Q 21.140625 -20.796875 15.09375 -20.796875 
L 7.90625 -20.796875 
L 7.90625 -13.28125 
L 13.1875 -13.28125 
Q 16.890625 -13.28125 18.9375 -11.515625 
Q 21 -9.765625 23.484375 -3.21875 
L 25.09375 0.875 
L 2.984375 54.6875 
L 12.5 54.6875 
L 29.59375 11.921875 
L 46.6875 54.6875 
L 56.203125 54.6875 
z
" id="DejaVuSans-121"/>
     </defs>
     <g transform="translate(14.798437 196.994063)rotate(-90)scale(0.1 -0.1)">
      <use xlink:href="#DejaVuSans-65"/>
      <use x="68.392578" xlink:href="#DejaVuSans-99"/>
      <use x="123.373047" xlink:href="#DejaVuSans-99"/>
      <use x="178.353516" xlink:href="#DejaVuSans-117"/>
      <use x="241.732422" xlink:href="#DejaVuSans-114"/>
      <use x="282.845703" xlink:href="#DejaVuSans-97"/>
      <use x="344.125" xlink:href="#DejaVuSans-99"/>
      <use x="399.105469" xlink:href="#DejaVuSans-121"/>
     </g>
    </g>
   </g>
   <g id="line2d_37">
    <path clip-path="url(#pc4c3d3cae9)" d="M 144.676714 375.715469 
L 146.657601 370.686403 
L 149.094948 365.143041 
L 151.532294 360.208309 
L 153.969641 355.779649 
L 156.406987 351.754505 
L 159.45367 347.134283 
L 164.328363 340.220995 
L 179.561778 319.071309 
L 190.529837 304.197974 
L 200.279223 291.345432 
L 208.809936 280.45853 
L 216.731311 270.705346 
L 224.043351 262.05016 
L 230.746053 254.443306 
L 237.448756 247.179826 
L 243.542122 240.898355 
L 249.635488 234.926865 
L 255.728854 229.254302 
L 261.822221 223.86925 
L 267.915587 218.760295 
L 274.618289 213.445712 
L 281.320992 208.436202 
L 288.023695 203.716571 
L 294.726397 199.271626 
L 301.4291 195.086173 
L 308.131803 191.14502 
L 315.443842 187.106351 
L 322.755881 183.320613 
L 330.677257 179.481945 
L 338.598633 175.891893 
L 347.129346 172.274954 
L 356.269395 168.651766 
L 366.018781 165.032023 
L 376.98684 161.20505 
L 389.782908 156.982736 
L 406.234997 151.795268 
L 423.296422 146.652084 
L 439.74851 141.920349 
L 456.200599 137.412267 
L 472.652687 133.12787 
L 489.104776 129.067187 
L 505.556864 125.230252 
L 522.008953 121.617093 
L 538.461041 118.227744 
L 554.91313 115.062234 
L 571.365218 112.120596 
L 587.817307 109.402859 
L 604.269395 106.909055 
L 620.721483 104.639216 
L 637.173572 102.593372 
L 653.62566 100.771555 
L 670.077749 99.173794 
L 686.529837 97.800123 
L 695.669886 97.133812 
L 695.669886 97.133812 
" style="fill:none;stroke:#377eb8;stroke-linecap:square;stroke-width:2;"/>
   </g>
   <g id="line2d_38">
    <path clip-path="url(#pc4c3d3cae9)" d="M 146.771218 375.715469 
L 148.485611 370.390698 
L 150.313621 365.344044 
L 152.141631 360.869827 
L 153.969641 356.894305 
L 155.79765 353.343736 
L 158.234997 349.143224 
L 160.672343 345.39229 
L 164.328363 340.227991 
L 169.812393 332.868592 
L 175.296422 325.884482 
L 180.780451 319.258769 
L 186.264481 312.974563 
L 191.74851 307.014972 
L 197.23254 301.363104 
L 202.716569 296.002068 
L 208.809936 290.365916 
L 214.903302 285.044792 
L 220.996668 280.015524 
L 227.090034 275.254942 
L 233.792736 270.300981 
L 240.495439 265.613256 
L 247.807479 260.773093 
L 255.119518 256.205398 
L 262.431557 251.900021 
L 269.743596 247.846814 
L 277.055636 244.035628 
L 284.977012 240.168186 
L 292.898388 236.55997 
L 300.819764 233.198074 
L 308.741139 230.069597 
L 317.271852 226.94671 
L 325.802564 224.063453 
L 334.942614 221.221855 
L 344.082663 218.61702 
L 353.832049 216.077162 
L 364.190771 213.622109 
L 375.15883 211.264692 
L 386.736225 209.009247 
L 399.532294 206.748007 
L 412.9377 204.605836 
L 426.952442 202.596902 
L 441.57652 200.733013 
L 456.809936 199.022372 
L 472.652687 197.469051 
L 489.714112 196.024586 
L 507.994211 194.704151 
L 528.102319 193.477103 
L 551.25711 192.290374 
L 581.72394 190.968279 
L 653.016324 187.962857 
L 676.780451 186.683536 
L 695.669886 185.468905 
L 695.669886 185.468905 
" style="fill:none;stroke:#4daf4a;stroke-linecap:square;stroke-width:2;"/>
   </g>
   <g id="line2d_39">
    <path clip-path="url(#pc4c3d3cae9)" d="M 149.670705 375.715469 
L 151.180165 370.182936 
L 154.239096 368.79672 
L 157.298027 363.374334 
L 160.356958 347.229456 
L 163.415889 349.960965 
L 166.47482 336.751529 
L 169.533751 331.329142 
L 175.651613 315.55111 
L 178.710544 318.404998 
L 181.769475 314.083438 
L 184.828406 307.5194 
L 187.887337 304.13556 
L 190.946268 296.022296 
L 194.005199 292.801466 
L 197.06413 284.56592 
L 200.123061 285.462815 
L 203.181992 278.368921 
L 206.240923 274.65877 
L 209.299854 274.65877 
L 212.358785 273.109545 
L 215.417716 270.133375 
L 218.476647 265.567058 
L 221.535578 263.936279 
L 224.594509 253.784566 
L 227.65344 254.926121 
L 230.712372 249.911405 
L 233.771303 250.359901 
L 236.830234 244.20363 
L 239.889165 241.349742 
L 242.948096 242.491297 
L 246.007027 234.622694 
L 249.065958 234.785703 
L 252.124889 233.848081 
L 255.18382 229.444871 
L 258.242751 226.794818 
L 261.301682 225.693991 
L 264.360613 223.084765 
L 267.419544 216.561551 
L 270.478475 218.926215 
L 273.537406 214.767665 
L 276.596337 212.28072 
L 279.655268 207.429111 
L 282.714199 209.426832 
L 285.77313 209.222997 
L 288.832061 204.126728 
L 291.890992 207.388286 
L 294.949923 200.008906 
L 298.008854 199.805071 
L 301.067785 192.466517 
L 304.126716 197.399679 
L 307.185647 194.871909 
L 310.244578 193.608072 
L 313.303509 190.224135 
L 316.36244 192.30341 
L 319.421371 188.348695 
L 322.480302 186.717916 
L 325.539233 186.228692 
L 328.598164 188.226414 
L 331.657095 177.707758 
L 334.716026 180.847034 
L 337.774957 180.602374 
L 340.833888 174.772317 
L 343.892819 177.626204 
L 346.95175 172.652314 
L 350.010681 172.040711 
L 353.069612 172.081536 
L 356.128543 168.738328 
L 359.187474 167.800608 
L 362.246405 167.800608 
L 365.305336 167.107549 
L 368.364267 164.172108 
L 371.423198 163.071281 
L 374.482129 162.419047 
L 377.54106 157.608166 
L 380.599991 159.565062 
L 383.658922 156.099669 
L 386.717853 161.440502 
L 389.776784 156.018115 
L 392.835716 155.406512 
L 395.894647 155.325056 
L 398.953578 150.024951 
L 402.012509 153.816559 
L 405.07144 151.166506 
L 408.130371 151.696459 
L 411.189302 148.638736 
L 414.248233 150.595729 
L 417.307164 143.746302 
L 420.366095 147.823298 
L 423.425026 143.420185 
L 426.483957 141.34091 
L 429.542888 144.602468 
L 432.601819 142.564018 
L 435.66075 139.873141 
L 438.719681 143.338631 
L 441.778612 138.405469 
L 444.837543 138.650129 
L 447.896474 139.220907 
L 454.014336 139.302363 
L 457.073267 136.407747 
L 460.132198 134.49158 
L 463.191129 134.043084 
L 466.25006 134.369201 
L 469.308991 130.455312 
L 472.367922 132.534587 
L 475.426853 129.680699 
L 478.485784 129.476864 
L 481.544715 130.129195 
L 484.603646 131.066915 
L 487.662577 131.556139 
L 490.721508 126.745258 
L 493.780439 130.210651 
L 496.83937 128.009095 
L 499.898301 125.114479 
L 502.957232 127.479142 
L 506.016163 127.071375 
L 509.075094 122.30132 
L 512.134025 122.70899 
L 515.192956 123.768991 
L 518.251887 121.282046 
L 521.310818 117.938935 
L 524.369749 121.119036 
L 527.42868 123.157486 
L 530.487611 121.485881 
L 533.546542 119.162043 
L 536.605473 118.183595 
L 539.664404 117.979663 
L 542.723335 116.675098 
L 545.782266 117.898206 
L 548.841197 116.593544 
L 551.900128 113.413443 
L 554.95906 112.883491 
L 558.017991 113.780385 
L 561.076922 116.675098 
L 564.135853 112.63883 
L 567.194784 115.411164 
L 570.253715 113.780385 
L 573.312646 111.374993 
L 576.371577 113.087326 
L 579.430508 111.374993 
L 582.489439 111.048779 
L 585.54837 109.540282 
L 588.607301 109.988778 
L 591.666232 106.074889 
L 594.725163 110.437273 
L 597.784094 107.420279 
L 600.843025 108.806494 
L 603.901956 108.07261 
L 606.960887 106.319452 
L 610.019818 109.091883 
L 613.078749 104.484838 
L 616.13768 102.772505 
L 619.196611 106.441831 
L 622.255542 106.523287 
L 625.314473 106.319452 
L 628.373404 103.302457 
L 634.491266 104.117895 
L 637.550197 103.261729 
L 640.609128 102.97634 
L 643.668059 98.817791 
L 646.72699 101.916339 
L 649.785921 101.916339 
L 652.844852 101.345561 
L 655.903783 101.590125 
L 658.962714 102.283281 
L 662.021645 100.978619 
L 665.080576 101.753232 
L 668.139507 99.633229 
L 671.198438 99.184733 
L 674.257369 97.472401 
L 677.3163 99.062451 
L 680.375231 94.577688 
L 683.434162 96.738516 
L 686.493093 97.06473 
L 689.552024 96.942351 
L 692.610955 98.16546 
L 695.669886 93.395404 
L 695.669886 93.395404 
" style="fill:none;stroke:#377eb8;stroke-linecap:square;stroke-opacity:0.25098;stroke-width:1.5;"/>
   </g>
   <g id="line2d_40">
    <path clip-path="url(#pc4c3d3cae9)" d="M 150.628957 375.715469 
L 151.180165 367.818758 
L 154.239096 366.505737 
L 157.298027 367.654679 
L 160.356958 354.688348 
L 163.415889 353.047071 
L 166.47482 335.320989 
L 169.533751 342.706783 
L 172.592682 342.706783 
L 175.651613 330.725316 
L 178.710544 312.014467 
L 181.769475 355.18078 
L 184.828406 307.582873 
L 187.887337 298.391625 
L 190.946268 299.868823 
L 194.005199 283.948096 
L 197.06413 296.257917 
L 200.123061 271.638373 
L 203.181992 266.714445 
L 206.240923 307.254618 
L 209.299854 282.96333 
L 212.358785 276.06987 
L 215.417716 282.635075 
L 218.476647 265.729679 
L 221.535578 263.595971 
L 224.594509 259.820985 
L 227.65344 274.428593 
L 230.712372 278.039402 
L 233.771303 300.361158 
L 236.830234 258.507866 
L 239.889165 263.431794 
L 242.948096 262.775283 
L 246.007027 273.772082 
L 249.065958 357.150312 
L 252.124889 243.900258 
L 255.18382 265.401424 
L 258.242751 242.258981 
L 261.301682 231.590535 
L 264.360613 247.83942 
L 267.419544 235.201345 
L 270.478475 226.994863 
L 273.537406 254.07637 
L 276.596337 228.800316 
L 279.655268 265.565503 
L 282.714199 234.873089 
L 285.77313 229.29265 
L 288.832061 250.301384 
L 291.890992 237.827485 
L 294.949923 235.529697 
L 298.008854 230.605769 
L 301.067785 234.052499 
L 304.126716 222.235111 
L 307.185647 241.110136 
L 310.244578 228.143805 
L 313.303509 223.219877 
L 316.36244 219.937226 
L 319.421371 221.250345 
L 322.480302 219.937226 
L 325.539233 220.429658 
L 328.598164 248.331852 
L 331.657095 208.119837 
L 334.716026 230.934025 
L 337.774957 225.681841 
L 340.833888 212.71551 
L 343.892819 200.405787 
L 346.95175 213.536197 
L 350.010681 234.70901 
L 353.069612 219.773147 
L 356.128543 223.219877 
L 359.187474 204.180773 
L 362.246405 195.317683 
L 365.305336 216.818751 
L 368.364267 210.910057 
L 371.423198 207.791582 
L 374.482129 219.444891 
L 377.54106 199.256845 
L 380.599991 223.055701 
L 383.658922 208.284014 
L 386.717853 212.058999 
L 389.776784 212.387255 
L 392.835716 208.284014 
L 395.894647 213.864453 
L 398.953578 203.852517 
L 402.012509 218.295949 
L 405.07144 201.062298 
L 408.130371 196.13837 
L 411.189302 207.791582 
L 414.248233 202.703575 
L 417.307164 213.864453 
L 420.366095 202.539399 
L 423.425026 201.882888 
L 426.483957 206.47856 
L 429.542888 203.524262 
L 432.601819 207.463327 
L 435.66075 201.390553 
L 438.719681 202.047064 
L 441.778612 215.34165 
L 444.837543 201.062298 
L 447.896474 195.974194 
L 450.955405 206.806816 
L 454.014336 192.69164 
L 457.073267 194.661172 
L 460.132198 223.548132 
L 463.191129 187.111201 
L 466.25006 202.539399 
L 469.308991 196.466625 
L 472.367922 196.630704 
L 475.426853 201.390553 
L 478.485784 194.989427 
L 481.544715 189.408989 
L 484.603646 203.360086 
L 487.662577 188.095967 
L 490.721508 194.661172 
L 493.780439 192.199208 
L 496.83937 186.126435 
L 499.898301 189.90142 
L 502.957232 193.34815 
L 506.016163 190.886186 
L 509.075094 188.095967 
L 512.134025 193.676406 
L 515.192956 194.004661 
L 518.251887 188.752478 
L 521.310818 191.214442 
L 524.369749 186.618769 
L 527.42868 189.244909 
L 530.487611 186.618769 
L 533.546542 202.867654 
L 536.605473 191.706873 
L 539.664404 184.649237 
L 542.723335 192.035129 
L 545.782266 182.023096 
L 548.841197 200.241611 
L 551.900128 186.947024 
L 554.95906 187.439456 
L 558.017991 191.542697 
L 561.076922 209.26878 
L 564.135853 202.211143 
L 567.194784 184.30436 
L 570.253715 196.95896 
L 573.312646 200.405787 
L 576.371577 194.497093 
L 579.430508 184.156805 
L 582.489439 187.111201 
L 585.54837 207.955758 
L 588.607301 194.497093 
L 591.666232 194.332917 
L 594.725163 187.27528 
L 597.784094 193.840485 
L 600.843025 225.84592 
L 603.901956 178.740543 
L 606.960887 196.794881 
L 610.019818 186.290514 
L 613.078749 180.381819 
L 616.13768 181.859017 
L 619.196611 175.293812 
L 622.255542 204.180773 
L 625.314473 177.427521 
L 628.373404 190.72201 
L 631.432335 210.581801 
L 634.491266 183.992726 
L 637.550197 182.515528 
L 640.609128 183.336215 
L 643.668059 173.980694 
L 646.72699 187.767712 
L 649.785921 200.077435 
L 652.844852 172.667672 
L 655.903783 193.676406 
L 658.962714 186.126435 
L 662.021645 179.725309 
L 665.080576 198.928589 
L 668.139507 170.862219 
L 671.198438 186.126435 
L 674.257369 182.515528 
L 677.3163 187.603535 
L 680.375231 193.840485 
L 683.434162 196.794881 
L 686.493093 185.305748 
L 689.552024 190.393755 
L 692.610955 186.45469 
L 695.669886 180.545996 
L 695.669886 180.545996 
" style="fill:none;stroke:#4daf4a;stroke-linecap:square;stroke-opacity:0.25098;stroke-width:1.5;"/>
   </g>
   <g id="patch_3">
    <path d="M 56.50625 337.159219 
L 56.50625 10.999219 
" style="fill:none;stroke:#000000;stroke-linecap:square;stroke-linejoin:miter;stroke-width:0.8;"/>
   </g>
   <g id="patch_4">
    <path d="M 726.10625 337.159219 
L 726.10625 10.999219 
" style="fill:none;stroke:#000000;stroke-linecap:square;stroke-linejoin:miter;stroke-width:0.8;"/>
   </g>
   <g id="patch_5">
    <path d="M 56.50625 337.159219 
L 726.10625 337.159219 
" style="fill:none;stroke:#000000;stroke-linecap:square;stroke-linejoin:miter;stroke-width:0.8;"/>
   </g>
   <g id="patch_6">
    <path d="M 56.50625 10.999219 
L 726.10625 10.999219 
" style="fill:none;stroke:#000000;stroke-linecap:square;stroke-linejoin:miter;stroke-width:0.8;"/>
   </g>
   <g id="legend_1">
    <g id="patch_7">
     <path d="M 63.50625 48.355469 
L 120.946875 48.355469 
Q 122.946875 48.355469 122.946875 46.355469 
L 122.946875 17.999219 
Q 122.946875 15.999219 120.946875 15.999219 
L 63.50625 15.999219 
Q 61.50625 15.999219 61.50625 17.999219 
L 61.50625 46.355469 
Q 61.50625 48.355469 63.50625 48.355469 
z
" style="fill:#ffffff;opacity:0.8;stroke:#cccccc;stroke-linejoin:miter;"/>
    </g>
    <g id="line2d_41">
     <path d="M 65.50625 24.097656 
L 85.50625 24.097656 
" style="fill:none;stroke:#377eb8;stroke-linecap:square;stroke-width:2;"/>
    </g>
    <g id="line2d_42"/>
    <g id="text_21">
     <!-- Train -->
     <defs>
      <path d="M -0.296875 72.90625 
L 61.375 72.90625 
L 61.375 64.59375 
L 35.5 64.59375 
L 35.5 0 
L 25.59375 0 
L 25.59375 64.59375 
L -0.296875 64.59375 
z
" id="DejaVuSans-84"/>
      <path d="M 9.421875 54.6875 
L 18.40625 54.6875 
L 18.40625 0 
L 9.421875 0 
z
M 9.421875 75.984375 
L 18.40625 75.984375 
L 18.40625 64.59375 
L 9.421875 64.59375 
z
" id="DejaVuSans-105"/>
      <path d="M 54.890625 33.015625 
L 54.890625 0 
L 45.90625 0 
L 45.90625 32.71875 
Q 45.90625 40.484375 42.875 44.328125 
Q 39.84375 48.1875 33.796875 48.1875 
Q 26.515625 48.1875 22.3125 43.546875 
Q 18.109375 38.921875 18.109375 30.90625 
L 18.109375 0 
L 9.078125 0 
L 9.078125 54.6875 
L 18.109375 54.6875 
L 18.109375 46.1875 
Q 21.34375 51.125 25.703125 53.5625 
Q 30.078125 56 35.796875 56 
Q 45.21875 56 50.046875 50.171875 
Q 54.890625 44.34375 54.890625 33.015625 
z
" id="DejaVuSans-110"/>
     </defs>
     <g transform="translate(93.50625 27.597656)scale(0.1 -0.1)">
      <use xlink:href="#DejaVuSans-84"/>
      <use x="60.865234" xlink:href="#DejaVuSans-114"/>
      <use x="101.978516" xlink:href="#DejaVuSans-97"/>
      <use x="163.257812" xlink:href="#DejaVuSans-105"/>
      <use x="191.041016" xlink:href="#DejaVuSans-110"/>
     </g>
    </g>
    <g id="line2d_43">
     <path d="M 65.50625 38.775781 
L 85.50625 38.775781 
" style="fill:none;stroke:#4daf4a;stroke-linecap:square;stroke-width:2;"/>
    </g>
    <g id="line2d_44"/>
    <g id="text_22">
     <!-- Test -->
     <defs>
      <path d="M 56.203125 29.59375 
L 56.203125 25.203125 
L 14.890625 25.203125 
Q 15.484375 15.921875 20.484375 11.0625 
Q 25.484375 6.203125 34.421875 6.203125 
Q 39.59375 6.203125 44.453125 7.46875 
Q 49.3125 8.734375 54.109375 11.28125 
L 54.109375 2.78125 
Q 49.265625 0.734375 44.1875 -0.34375 
Q 39.109375 -1.421875 33.890625 -1.421875 
Q 20.796875 -1.421875 13.15625 6.1875 
Q 5.515625 13.8125 5.515625 26.8125 
Q 5.515625 40.234375 12.765625 48.109375 
Q 20.015625 56 32.328125 56 
Q 43.359375 56 49.78125 48.890625 
Q 56.203125 41.796875 56.203125 29.59375 
z
M 47.21875 32.234375 
Q 47.125 39.59375 43.09375 43.984375 
Q 39.0625 48.390625 32.421875 48.390625 
Q 24.90625 48.390625 20.390625 44.140625 
Q 15.875 39.890625 15.1875 32.171875 
z
" id="DejaVuSans-101"/>
      <path d="M 44.28125 53.078125 
L 44.28125 44.578125 
Q 40.484375 46.53125 36.375 47.5 
Q 32.28125 48.484375 27.875 48.484375 
Q 21.1875 48.484375 17.84375 46.4375 
Q 14.5 44.390625 14.5 40.28125 
Q 14.5 37.15625 16.890625 35.375 
Q 19.28125 33.59375 26.515625 31.984375 
L 29.59375 31.296875 
Q 39.15625 29.25 43.1875 25.515625 
Q 47.21875 21.78125 47.21875 15.09375 
Q 47.21875 7.46875 41.1875 3.015625 
Q 35.15625 -1.421875 24.609375 -1.421875 
Q 20.21875 -1.421875 15.453125 -0.5625 
Q 10.6875 0.296875 5.421875 2 
L 5.421875 11.28125 
Q 10.40625 8.6875 15.234375 7.390625 
Q 20.0625 6.109375 24.8125 6.109375 
Q 31.15625 6.109375 34.5625 8.28125 
Q 37.984375 10.453125 37.984375 14.40625 
Q 37.984375 18.0625 35.515625 20.015625 
Q 33.0625 21.96875 24.703125 23.78125 
L 21.578125 24.515625 
Q 13.234375 26.265625 9.515625 29.90625 
Q 5.8125 33.546875 5.8125 39.890625 
Q 5.8125 47.609375 11.28125 51.796875 
Q 16.75 56 26.8125 56 
Q 31.78125 56 36.171875 55.265625 
Q 40.578125 54.546875 44.28125 53.078125 
z
" id="DejaVuSans-115"/>
      <path d="M 18.3125 70.21875 
L 18.3125 54.6875 
L 36.8125 54.6875 
L 36.8125 47.703125 
L 18.3125 47.703125 
L 18.3125 18.015625 
Q 18.3125 11.328125 20.140625 9.421875 
Q 21.96875 7.515625 27.59375 7.515625 
L 36.8125 7.515625 
L 36.8125 0 
L 27.59375 0 
Q 17.1875 0 13.234375 3.875 
Q 9.28125 7.765625 9.28125 18.015625 
L 9.28125 47.703125 
L 2.6875 47.703125 
L 2.6875 54.6875 
L 9.28125 54.6875 
L 9.28125 70.21875 
z
" id="DejaVuSans-116"/>
     </defs>
     <g transform="translate(93.50625 42.275781)scale(0.1 -0.1)">
      <use xlink:href="#DejaVuSans-84"/>
      <use x="60.818359" xlink:href="#DejaVuSans-101"/>
      <use x="122.341797" xlink:href="#DejaVuSans-115"/>
      <use x="174.441406" xlink:href="#DejaVuSans-116"/>
     </g>
    </g>
   </g>
  </g>
 </g>
 <defs>
  <clipPath id="pc4c3d3cae9">
   <rect height="326.16" width="669.6" x="56.50625" y="10.999219"/>
  </clipPath>
 </defs>
</svg>
