<?xml version="1.0" encoding="utf-8" standalone="no"?>
<!DOCTYPE svg PUBLIC "-//W3C//DTD SVG 1.1//EN"
  "http://www.w3.org/Graphics/SVG/1.1/DTD/svg11.dtd">
<!-- Created with matplotlib (https://matplotlib.org/) -->
<svg height="374.715469pt" version="1.1" viewBox="0 0 726.94375 374.715469" width="726.94375pt" xmlns="http://www.w3.org/2000/svg" xmlns:xlink="http://www.w3.org/1999/xlink">
 <defs>
  <style type="text/css">
*{stroke-linecap:butt;stroke-linejoin:round;white-space:pre;}
  </style>
 </defs>
 <g id="figure_1">
  <g id="patch_1">
   <path d="M 0 374.715469 
L 726.94375 374.715469 
L 726.94375 0 
L 0 0 
z
" style="fill:#ffffff;"/>
  </g>
  <g id="axes_1">
   <g id="patch_2">
    <path d="M 50.14375 337.159219 
L 719.74375 337.159219 
L 719.74375 10.999219 
L 50.14375 10.999219 
z
" style="fill:#ffffff;"/>
   </g>
   <g id="matplotlib.axis_1">
    <g id="xtick_1">
     <g id="line2d_1">
      <path clip-path="url(#p0e7358f5ff)" d="M 79.054481 337.159219 
L 79.054481 10.999219 
" style="fill:none;stroke:#b0b0b0;stroke-linecap:square;stroke-width:0.8;"/>
     </g>
     <g id="line2d_2">
      <defs>
       <path d="M 0 0 
L 0 3.5 
" id="m8657c6f6df" style="stroke:#000000;stroke-width:0.8;"/>
      </defs>
      <g>
       <use style="stroke:#000000;stroke-width:0.8;" x="79.054481" xlink:href="#m8657c6f6df" y="337.159219"/>
      </g>
     </g>
     <g id="text_1">
      <!-- 0 -->
      <defs>
       <path d="M 31.78125 66.40625 
Q 24.171875 66.40625 20.328125 58.90625 
Q 16.5 51.421875 16.5 36.375 
Q 16.5 21.390625 20.328125 13.890625 
Q 24.171875 6.390625 31.78125 6.390625 
Q 39.453125 6.390625 43.28125 13.890625 
Q 47.125 21.390625 47.125 36.375 
Q 47.125 51.421875 43.28125 58.90625 
Q 39.453125 66.40625 31.78125 66.40625 
z
M 31.78125 74.21875 
Q 44.046875 74.21875 50.515625 64.515625 
Q 56.984375 54.828125 56.984375 36.375 
Q 56.984375 17.96875 50.515625 8.265625 
Q 44.046875 -1.421875 31.78125 -1.421875 
Q 19.53125 -1.421875 13.0625 8.265625 
Q 6.59375 17.96875 6.59375 36.375 
Q 6.59375 54.828125 13.0625 64.515625 
Q 19.53125 74.21875 31.78125 74.21875 
z
" id="DejaVuSans-48"/>
      </defs>
      <g transform="translate(75.873231 351.757656)scale(0.1 -0.1)">
       <use xlink:href="#DejaVuSans-48"/>
      </g>
     </g>
    </g>
    <g id="xtick_2">
     <g id="line2d_3">
      <path clip-path="url(#p0e7358f5ff)" d="M 155.336094 337.159219 
L 155.336094 10.999219 
" style="fill:none;stroke:#b0b0b0;stroke-linecap:square;stroke-width:0.8;"/>
     </g>
     <g id="line2d_4">
      <g>
       <use style="stroke:#000000;stroke-width:0.8;" x="155.336094" xlink:href="#m8657c6f6df" y="337.159219"/>
      </g>
     </g>
     <g id="text_2">
      <!-- 50 -->
      <defs>
       <path d="M 10.796875 72.90625 
L 49.515625 72.90625 
L 49.515625 64.59375 
L 19.828125 64.59375 
L 19.828125 46.734375 
Q 21.96875 47.46875 24.109375 47.828125 
Q 26.265625 48.1875 28.421875 48.1875 
Q 40.625 48.1875 47.75 41.5 
Q 54.890625 34.8125 54.890625 23.390625 
Q 54.890625 11.625 47.5625 5.09375 
Q 40.234375 -1.421875 26.90625 -1.421875 
Q 22.3125 -1.421875 17.546875 -0.640625 
Q 12.796875 0.140625 7.71875 1.703125 
L 7.71875 11.625 
Q 12.109375 9.234375 16.796875 8.0625 
Q 21.484375 6.890625 26.703125 6.890625 
Q 35.15625 6.890625 40.078125 11.328125 
Q 45.015625 15.765625 45.015625 23.390625 
Q 45.015625 31 40.078125 35.4375 
Q 35.15625 39.890625 26.703125 39.890625 
Q 22.75 39.890625 18.8125 39.015625 
Q 14.890625 38.140625 10.796875 36.28125 
z
" id="DejaVuSans-53"/>
      </defs>
      <g transform="translate(148.973594 351.757656)scale(0.1 -0.1)">
       <use xlink:href="#DejaVuSans-53"/>
       <use x="63.623047" xlink:href="#DejaVuSans-48"/>
      </g>
     </g>
    </g>
    <g id="xtick_3">
     <g id="line2d_5">
      <path clip-path="url(#p0e7358f5ff)" d="M 231.617708 337.159219 
L 231.617708 10.999219 
" style="fill:none;stroke:#b0b0b0;stroke-linecap:square;stroke-width:0.8;"/>
     </g>
     <g id="line2d_6">
      <g>
       <use style="stroke:#000000;stroke-width:0.8;" x="231.617708" xlink:href="#m8657c6f6df" y="337.159219"/>
      </g>
     </g>
     <g id="text_3">
      <!-- 100 -->
      <defs>
       <path d="M 12.40625 8.296875 
L 28.515625 8.296875 
L 28.515625 63.921875 
L 10.984375 60.40625 
L 10.984375 69.390625 
L 28.421875 72.90625 
L 38.28125 72.90625 
L 38.28125 8.296875 
L 54.390625 8.296875 
L 54.390625 0 
L 12.40625 0 
z
" id="DejaVuSans-49"/>
      </defs>
      <g transform="translate(222.073958 351.757656)scale(0.1 -0.1)">
       <use xlink:href="#DejaVuSans-49"/>
       <use x="63.623047" xlink:href="#DejaVuSans-48"/>
       <use x="127.246094" xlink:href="#DejaVuSans-48"/>
      </g>
     </g>
    </g>
    <g id="xtick_4">
     <g id="line2d_7">
      <path clip-path="url(#p0e7358f5ff)" d="M 307.899321 337.159219 
L 307.899321 10.999219 
" style="fill:none;stroke:#b0b0b0;stroke-linecap:square;stroke-width:0.8;"/>
     </g>
     <g id="line2d_8">
      <g>
       <use style="stroke:#000000;stroke-width:0.8;" x="307.899321" xlink:href="#m8657c6f6df" y="337.159219"/>
      </g>
     </g>
     <g id="text_4">
      <!-- 150 -->
      <g transform="translate(298.355571 351.757656)scale(0.1 -0.1)">
       <use xlink:href="#DejaVuSans-49"/>
       <use x="63.623047" xlink:href="#DejaVuSans-53"/>
       <use x="127.246094" xlink:href="#DejaVuSans-48"/>
      </g>
     </g>
    </g>
    <g id="xtick_5">
     <g id="line2d_9">
      <path clip-path="url(#p0e7358f5ff)" d="M 384.180934 337.159219 
L 384.180934 10.999219 
" style="fill:none;stroke:#b0b0b0;stroke-linecap:square;stroke-width:0.8;"/>
     </g>
     <g id="line2d_10">
      <g>
       <use style="stroke:#000000;stroke-width:0.8;" x="384.180934" xlink:href="#m8657c6f6df" y="337.159219"/>
      </g>
     </g>
     <g id="text_5">
      <!-- 200 -->
      <defs>
       <path d="M 19.1875 8.296875 
L 53.609375 8.296875 
L 53.609375 0 
L 7.328125 0 
L 7.328125 8.296875 
Q 12.9375 14.109375 22.625 23.890625 
Q 32.328125 33.6875 34.8125 36.53125 
Q 39.546875 41.84375 41.421875 45.53125 
Q 43.3125 49.21875 43.3125 52.78125 
Q 43.3125 58.59375 39.234375 62.25 
Q 35.15625 65.921875 28.609375 65.921875 
Q 23.96875 65.921875 18.8125 64.3125 
Q 13.671875 62.703125 7.8125 59.421875 
L 7.8125 69.390625 
Q 13.765625 71.78125 18.9375 73 
Q 24.125 74.21875 28.421875 74.21875 
Q 39.75 74.21875 46.484375 68.546875 
Q 53.21875 62.890625 53.21875 53.421875 
Q 53.21875 48.921875 51.53125 44.890625 
Q 49.859375 40.875 45.40625 35.40625 
Q 44.1875 33.984375 37.640625 27.21875 
Q 31.109375 20.453125 19.1875 8.296875 
z
" id="DejaVuSans-50"/>
      </defs>
      <g transform="translate(374.637184 351.757656)scale(0.1 -0.1)">
       <use xlink:href="#DejaVuSans-50"/>
       <use x="63.623047" xlink:href="#DejaVuSans-48"/>
       <use x="127.246094" xlink:href="#DejaVuSans-48"/>
      </g>
     </g>
    </g>
    <g id="xtick_6">
     <g id="line2d_11">
      <path clip-path="url(#p0e7358f5ff)" d="M 460.462547 337.159219 
L 460.462547 10.999219 
" style="fill:none;stroke:#b0b0b0;stroke-linecap:square;stroke-width:0.8;"/>
     </g>
     <g id="line2d_12">
      <g>
       <use style="stroke:#000000;stroke-width:0.8;" x="460.462547" xlink:href="#m8657c6f6df" y="337.159219"/>
      </g>
     </g>
     <g id="text_6">
      <!-- 250 -->
      <g transform="translate(450.918797 351.757656)scale(0.1 -0.1)">
       <use xlink:href="#DejaVuSans-50"/>
       <use x="63.623047" xlink:href="#DejaVuSans-53"/>
       <use x="127.246094" xlink:href="#DejaVuSans-48"/>
      </g>
     </g>
    </g>
    <g id="xtick_7">
     <g id="line2d_13">
      <path clip-path="url(#p0e7358f5ff)" d="M 536.74416 337.159219 
L 536.74416 10.999219 
" style="fill:none;stroke:#b0b0b0;stroke-linecap:square;stroke-width:0.8;"/>
     </g>
     <g id="line2d_14">
      <g>
       <use style="stroke:#000000;stroke-width:0.8;" x="536.74416" xlink:href="#m8657c6f6df" y="337.159219"/>
      </g>
     </g>
     <g id="text_7">
      <!-- 300 -->
      <defs>
       <path d="M 40.578125 39.3125 
Q 47.65625 37.796875 51.625 33 
Q 55.609375 28.21875 55.609375 21.1875 
Q 55.609375 10.40625 48.1875 4.484375 
Q 40.765625 -1.421875 27.09375 -1.421875 
Q 22.515625 -1.421875 17.65625 -0.515625 
Q 12.796875 0.390625 7.625 2.203125 
L 7.625 11.71875 
Q 11.71875 9.328125 16.59375 8.109375 
Q 21.484375 6.890625 26.8125 6.890625 
Q 36.078125 6.890625 40.9375 10.546875 
Q 45.796875 14.203125 45.796875 21.1875 
Q 45.796875 27.640625 41.28125 31.265625 
Q 36.765625 34.90625 28.71875 34.90625 
L 20.21875 34.90625 
L 20.21875 43.015625 
L 29.109375 43.015625 
Q 36.375 43.015625 40.234375 45.921875 
Q 44.09375 48.828125 44.09375 54.296875 
Q 44.09375 59.90625 40.109375 62.90625 
Q 36.140625 65.921875 28.71875 65.921875 
Q 24.65625 65.921875 20.015625 65.03125 
Q 15.375 64.15625 9.8125 62.3125 
L 9.8125 71.09375 
Q 15.4375 72.65625 20.34375 73.4375 
Q 25.25 74.21875 29.59375 74.21875 
Q 40.828125 74.21875 47.359375 69.109375 
Q 53.90625 64.015625 53.90625 55.328125 
Q 53.90625 49.265625 50.4375 45.09375 
Q 46.96875 40.921875 40.578125 39.3125 
z
" id="DejaVuSans-51"/>
      </defs>
      <g transform="translate(527.20041 351.757656)scale(0.1 -0.1)">
       <use xlink:href="#DejaVuSans-51"/>
       <use x="63.623047" xlink:href="#DejaVuSans-48"/>
       <use x="127.246094" xlink:href="#DejaVuSans-48"/>
      </g>
     </g>
    </g>
    <g id="xtick_8">
     <g id="line2d_15">
      <path clip-path="url(#p0e7358f5ff)" d="M 613.025773 337.159219 
L 613.025773 10.999219 
" style="fill:none;stroke:#b0b0b0;stroke-linecap:square;stroke-width:0.8;"/>
     </g>
     <g id="line2d_16">
      <g>
       <use style="stroke:#000000;stroke-width:0.8;" x="613.025773" xlink:href="#m8657c6f6df" y="337.159219"/>
      </g>
     </g>
     <g id="text_8">
      <!-- 350 -->
      <g transform="translate(603.482023 351.757656)scale(0.1 -0.1)">
       <use xlink:href="#DejaVuSans-51"/>
       <use x="63.623047" xlink:href="#DejaVuSans-53"/>
       <use x="127.246094" xlink:href="#DejaVuSans-48"/>
      </g>
     </g>
    </g>
    <g id="xtick_9">
     <g id="line2d_17">
      <path clip-path="url(#p0e7358f5ff)" d="M 689.307386 337.159219 
L 689.307386 10.999219 
" style="fill:none;stroke:#b0b0b0;stroke-linecap:square;stroke-width:0.8;"/>
     </g>
     <g id="line2d_18">
      <g>
       <use style="stroke:#000000;stroke-width:0.8;" x="689.307386" xlink:href="#m8657c6f6df" y="337.159219"/>
      </g>
     </g>
     <g id="text_9">
      <!-- 400 -->
      <defs>
       <path d="M 37.796875 64.3125 
L 12.890625 25.390625 
L 37.796875 25.390625 
z
M 35.203125 72.90625 
L 47.609375 72.90625 
L 47.609375 25.390625 
L 58.015625 25.390625 
L 58.015625 17.1875 
L 47.609375 17.1875 
L 47.609375 0 
L 37.796875 0 
L 37.796875 17.1875 
L 4.890625 17.1875 
L 4.890625 26.703125 
z
" id="DejaVuSans-52"/>
      </defs>
      <g transform="translate(679.763636 351.757656)scale(0.1 -0.1)">
       <use xlink:href="#DejaVuSans-52"/>
       <use x="63.623047" xlink:href="#DejaVuSans-48"/>
       <use x="127.246094" xlink:href="#DejaVuSans-48"/>
      </g>
     </g>
    </g>
    <g id="text_10">
     <!-- Epoch -->
     <defs>
      <path d="M 9.8125 72.90625 
L 55.90625 72.90625 
L 55.90625 64.59375 
L 19.671875 64.59375 
L 19.671875 43.015625 
L 54.390625 43.015625 
L 54.390625 34.71875 
L 19.671875 34.71875 
L 19.671875 8.296875 
L 56.78125 8.296875 
L 56.78125 0 
L 9.8125 0 
z
" id="DejaVuSans-69"/>
      <path d="M 18.109375 8.203125 
L 18.109375 -20.796875 
L 9.078125 -20.796875 
L 9.078125 54.6875 
L 18.109375 54.6875 
L 18.109375 46.390625 
Q 20.953125 51.265625 25.265625 53.625 
Q 29.59375 56 35.59375 56 
Q 45.5625 56 51.78125 48.09375 
Q 58.015625 40.1875 58.015625 27.296875 
Q 58.015625 14.40625 51.78125 6.484375 
Q 45.5625 -1.421875 35.59375 -1.421875 
Q 29.59375 -1.421875 25.265625 0.953125 
Q 20.953125 3.328125 18.109375 8.203125 
z
M 48.6875 27.296875 
Q 48.6875 37.203125 44.609375 42.84375 
Q 40.53125 48.484375 33.40625 48.484375 
Q 26.265625 48.484375 22.1875 42.84375 
Q 18.109375 37.203125 18.109375 27.296875 
Q 18.109375 17.390625 22.1875 11.75 
Q 26.265625 6.109375 33.40625 6.109375 
Q 40.53125 6.109375 44.609375 11.75 
Q 48.6875 17.390625 48.6875 27.296875 
z
" id="DejaVuSans-112"/>
      <path d="M 30.609375 48.390625 
Q 23.390625 48.390625 19.1875 42.75 
Q 14.984375 37.109375 14.984375 27.296875 
Q 14.984375 17.484375 19.15625 11.84375 
Q 23.34375 6.203125 30.609375 6.203125 
Q 37.796875 6.203125 41.984375 11.859375 
Q 46.1875 17.53125 46.1875 27.296875 
Q 46.1875 37.015625 41.984375 42.703125 
Q 37.796875 48.390625 30.609375 48.390625 
z
M 30.609375 56 
Q 42.328125 56 49.015625 48.375 
Q 55.71875 40.765625 55.71875 27.296875 
Q 55.71875 13.875 49.015625 6.21875 
Q 42.328125 -1.421875 30.609375 -1.421875 
Q 18.84375 -1.421875 12.171875 6.21875 
Q 5.515625 13.875 5.515625 27.296875 
Q 5.515625 40.765625 12.171875 48.375 
Q 18.84375 56 30.609375 56 
z
" id="DejaVuSans-111"/>
      <path d="M 48.78125 52.59375 
L 48.78125 44.1875 
Q 44.96875 46.296875 41.140625 47.34375 
Q 37.3125 48.390625 33.40625 48.390625 
Q 24.65625 48.390625 19.8125 42.84375 
Q 14.984375 37.3125 14.984375 27.296875 
Q 14.984375 17.28125 19.8125 11.734375 
Q 24.65625 6.203125 33.40625 6.203125 
Q 37.3125 6.203125 41.140625 7.25 
Q 44.96875 8.296875 48.78125 10.40625 
L 48.78125 2.09375 
Q 45.015625 0.34375 40.984375 -0.53125 
Q 36.96875 -1.421875 32.421875 -1.421875 
Q 20.0625 -1.421875 12.78125 6.34375 
Q 5.515625 14.109375 5.515625 27.296875 
Q 5.515625 40.671875 12.859375 48.328125 
Q 20.21875 56 33.015625 56 
Q 37.15625 56 41.109375 55.140625 
Q 45.0625 54.296875 48.78125 52.59375 
z
" id="DejaVuSans-99"/>
      <path d="M 54.890625 33.015625 
L 54.890625 0 
L 45.90625 0 
L 45.90625 32.71875 
Q 45.90625 40.484375 42.875 44.328125 
Q 39.84375 48.1875 33.796875 48.1875 
Q 26.515625 48.1875 22.3125 43.546875 
Q 18.109375 38.921875 18.109375 30.90625 
L 18.109375 0 
L 9.078125 0 
L 9.078125 75.984375 
L 18.109375 75.984375 
L 18.109375 46.1875 
Q 21.34375 51.125 25.703125 53.5625 
Q 30.078125 56 35.796875 56 
Q 45.21875 56 50.046875 50.171875 
Q 54.890625 44.34375 54.890625 33.015625 
z
" id="DejaVuSans-104"/>
     </defs>
     <g transform="translate(369.632813 365.435781)scale(0.1 -0.1)">
      <use xlink:href="#DejaVuSans-69"/>
      <use x="63.183594" xlink:href="#DejaVuSans-112"/>
      <use x="126.660156" xlink:href="#DejaVuSans-111"/>
      <use x="187.841797" xlink:href="#DejaVuSans-99"/>
      <use x="242.822266" xlink:href="#DejaVuSans-104"/>
     </g>
    </g>
   </g>
   <g id="matplotlib.axis_2">
    <g id="ytick_1">
     <g id="line2d_19">
      <path clip-path="url(#p0e7358f5ff)" d="M 50.14375 337.159219 
L 719.74375 337.159219 
" style="fill:none;stroke:#b0b0b0;stroke-linecap:square;stroke-width:0.8;"/>
     </g>
     <g id="line2d_20">
      <defs>
       <path d="M 0 0 
L -3.5 0 
" id="m9b17dd7686" style="stroke:#000000;stroke-width:0.8;"/>
      </defs>
      <g>
       <use style="stroke:#000000;stroke-width:0.8;" x="50.14375" xlink:href="#m9b17dd7686" y="337.159219"/>
      </g>
     </g>
     <g id="text_11">
      <!-- 0.82 -->
      <defs>
       <path d="M 10.6875 12.40625 
L 21 12.40625 
L 21 0 
L 10.6875 0 
z
" id="DejaVuSans-46"/>
       <path d="M 31.78125 34.625 
Q 24.75 34.625 20.71875 30.859375 
Q 16.703125 27.09375 16.703125 20.515625 
Q 16.703125 13.921875 20.71875 10.15625 
Q 24.75 6.390625 31.78125 6.390625 
Q 38.8125 6.390625 42.859375 10.171875 
Q 46.921875 13.96875 46.921875 20.515625 
Q 46.921875 27.09375 42.890625 30.859375 
Q 38.875 34.625 31.78125 34.625 
z
M 21.921875 38.8125 
Q 15.578125 40.375 12.03125 44.71875 
Q 8.5 49.078125 8.5 55.328125 
Q 8.5 64.0625 14.71875 69.140625 
Q 20.953125 74.21875 31.78125 74.21875 
Q 42.671875 74.21875 48.875 69.140625 
Q 55.078125 64.0625 55.078125 55.328125 
Q 55.078125 49.078125 51.53125 44.71875 
Q 48 40.375 41.703125 38.8125 
Q 48.828125 37.15625 52.796875 32.3125 
Q 56.78125 27.484375 56.78125 20.515625 
Q 56.78125 9.90625 50.3125 4.234375 
Q 43.84375 -1.421875 31.78125 -1.421875 
Q 19.734375 -1.421875 13.25 4.234375 
Q 6.78125 9.90625 6.78125 20.515625 
Q 6.78125 27.484375 10.78125 32.3125 
Q 14.796875 37.15625 21.921875 38.8125 
z
M 18.3125 54.390625 
Q 18.3125 48.734375 21.84375 45.5625 
Q 25.390625 42.390625 31.78125 42.390625 
Q 38.140625 42.390625 41.71875 45.5625 
Q 45.3125 48.734375 45.3125 54.390625 
Q 45.3125 60.0625 41.71875 63.234375 
Q 38.140625 66.40625 31.78125 66.40625 
Q 25.390625 66.40625 21.84375 63.234375 
Q 18.3125 60.0625 18.3125 54.390625 
z
" id="DejaVuSans-56"/>
      </defs>
      <g transform="translate(20.878125 340.958437)scale(0.1 -0.1)">
       <use xlink:href="#DejaVuSans-48"/>
       <use x="63.623047" xlink:href="#DejaVuSans-46"/>
       <use x="95.410156" xlink:href="#DejaVuSans-56"/>
       <use x="159.033203" xlink:href="#DejaVuSans-50"/>
      </g>
     </g>
    </g>
    <g id="ytick_2">
     <g id="line2d_21">
      <path clip-path="url(#p0e7358f5ff)" d="M 50.14375 296.389219 
L 719.74375 296.389219 
" style="fill:none;stroke:#b0b0b0;stroke-linecap:square;stroke-width:0.8;"/>
     </g>
     <g id="line2d_22">
      <g>
       <use style="stroke:#000000;stroke-width:0.8;" x="50.14375" xlink:href="#m9b17dd7686" y="296.389219"/>
      </g>
     </g>
     <g id="text_12">
      <!-- 0.84 -->
      <g transform="translate(20.878125 300.188437)scale(0.1 -0.1)">
       <use xlink:href="#DejaVuSans-48"/>
       <use x="63.623047" xlink:href="#DejaVuSans-46"/>
       <use x="95.410156" xlink:href="#DejaVuSans-56"/>
       <use x="159.033203" xlink:href="#DejaVuSans-52"/>
      </g>
     </g>
    </g>
    <g id="ytick_3">
     <g id="line2d_23">
      <path clip-path="url(#p0e7358f5ff)" d="M 50.14375 255.619219 
L 719.74375 255.619219 
" style="fill:none;stroke:#b0b0b0;stroke-linecap:square;stroke-width:0.8;"/>
     </g>
     <g id="line2d_24">
      <g>
       <use style="stroke:#000000;stroke-width:0.8;" x="50.14375" xlink:href="#m9b17dd7686" y="255.619219"/>
      </g>
     </g>
     <g id="text_13">
      <!-- 0.86 -->
      <defs>
       <path d="M 33.015625 40.375 
Q 26.375 40.375 22.484375 35.828125 
Q 18.609375 31.296875 18.609375 23.390625 
Q 18.609375 15.53125 22.484375 10.953125 
Q 26.375 6.390625 33.015625 6.390625 
Q 39.65625 6.390625 43.53125 10.953125 
Q 47.40625 15.53125 47.40625 23.390625 
Q 47.40625 31.296875 43.53125 35.828125 
Q 39.65625 40.375 33.015625 40.375 
z
M 52.59375 71.296875 
L 52.59375 62.3125 
Q 48.875 64.0625 45.09375 64.984375 
Q 41.3125 65.921875 37.59375 65.921875 
Q 27.828125 65.921875 22.671875 59.328125 
Q 17.53125 52.734375 16.796875 39.40625 
Q 19.671875 43.65625 24.015625 45.921875 
Q 28.375 48.1875 33.59375 48.1875 
Q 44.578125 48.1875 50.953125 41.515625 
Q 57.328125 34.859375 57.328125 23.390625 
Q 57.328125 12.15625 50.6875 5.359375 
Q 44.046875 -1.421875 33.015625 -1.421875 
Q 20.359375 -1.421875 13.671875 8.265625 
Q 6.984375 17.96875 6.984375 36.375 
Q 6.984375 53.65625 15.1875 63.9375 
Q 23.390625 74.21875 37.203125 74.21875 
Q 40.921875 74.21875 44.703125 73.484375 
Q 48.484375 72.75 52.59375 71.296875 
z
" id="DejaVuSans-54"/>
      </defs>
      <g transform="translate(20.878125 259.418437)scale(0.1 -0.1)">
       <use xlink:href="#DejaVuSans-48"/>
       <use x="63.623047" xlink:href="#DejaVuSans-46"/>
       <use x="95.410156" xlink:href="#DejaVuSans-56"/>
       <use x="159.033203" xlink:href="#DejaVuSans-54"/>
      </g>
     </g>
    </g>
    <g id="ytick_4">
     <g id="line2d_25">
      <path clip-path="url(#p0e7358f5ff)" d="M 50.14375 214.849219 
L 719.74375 214.849219 
" style="fill:none;stroke:#b0b0b0;stroke-linecap:square;stroke-width:0.8;"/>
     </g>
     <g id="line2d_26">
      <g>
       <use style="stroke:#000000;stroke-width:0.8;" x="50.14375" xlink:href="#m9b17dd7686" y="214.849219"/>
      </g>
     </g>
     <g id="text_14">
      <!-- 0.88 -->
      <g transform="translate(20.878125 218.648437)scale(0.1 -0.1)">
       <use xlink:href="#DejaVuSans-48"/>
       <use x="63.623047" xlink:href="#DejaVuSans-46"/>
       <use x="95.410156" xlink:href="#DejaVuSans-56"/>
       <use x="159.033203" xlink:href="#DejaVuSans-56"/>
      </g>
     </g>
    </g>
    <g id="ytick_5">
     <g id="line2d_27">
      <path clip-path="url(#p0e7358f5ff)" d="M 50.14375 174.079219 
L 719.74375 174.079219 
" style="fill:none;stroke:#b0b0b0;stroke-linecap:square;stroke-width:0.8;"/>
     </g>
     <g id="line2d_28">
      <g>
       <use style="stroke:#000000;stroke-width:0.8;" x="50.14375" xlink:href="#m9b17dd7686" y="174.079219"/>
      </g>
     </g>
     <g id="text_15">
      <!-- 0.90 -->
      <defs>
       <path d="M 10.984375 1.515625 
L 10.984375 10.5 
Q 14.703125 8.734375 18.5 7.8125 
Q 22.3125 6.890625 25.984375 6.890625 
Q 35.75 6.890625 40.890625 13.453125 
Q 46.046875 20.015625 46.78125 33.40625 
Q 43.953125 29.203125 39.59375 26.953125 
Q 35.25 24.703125 29.984375 24.703125 
Q 19.046875 24.703125 12.671875 31.3125 
Q 6.296875 37.9375 6.296875 49.421875 
Q 6.296875 60.640625 12.9375 67.421875 
Q 19.578125 74.21875 30.609375 74.21875 
Q 43.265625 74.21875 49.921875 64.515625 
Q 56.59375 54.828125 56.59375 36.375 
Q 56.59375 19.140625 48.40625 8.859375 
Q 40.234375 -1.421875 26.421875 -1.421875 
Q 22.703125 -1.421875 18.890625 -0.6875 
Q 15.09375 0.046875 10.984375 1.515625 
z
M 30.609375 32.421875 
Q 37.25 32.421875 41.125 36.953125 
Q 45.015625 41.5 45.015625 49.421875 
Q 45.015625 57.28125 41.125 61.84375 
Q 37.25 66.40625 30.609375 66.40625 
Q 23.96875 66.40625 20.09375 61.84375 
Q 16.21875 57.28125 16.21875 49.421875 
Q 16.21875 41.5 20.09375 36.953125 
Q 23.96875 32.421875 30.609375 32.421875 
z
" id="DejaVuSans-57"/>
      </defs>
      <g transform="translate(20.878125 177.878437)scale(0.1 -0.1)">
       <use xlink:href="#DejaVuSans-48"/>
       <use x="63.623047" xlink:href="#DejaVuSans-46"/>
       <use x="95.410156" xlink:href="#DejaVuSans-57"/>
       <use x="159.033203" xlink:href="#DejaVuSans-48"/>
      </g>
     </g>
    </g>
    <g id="ytick_6">
     <g id="line2d_29">
      <path clip-path="url(#p0e7358f5ff)" d="M 50.14375 133.309219 
L 719.74375 133.309219 
" style="fill:none;stroke:#b0b0b0;stroke-linecap:square;stroke-width:0.8;"/>
     </g>
     <g id="line2d_30">
      <g>
       <use style="stroke:#000000;stroke-width:0.8;" x="50.14375" xlink:href="#m9b17dd7686" y="133.309219"/>
      </g>
     </g>
     <g id="text_16">
      <!-- 0.92 -->
      <g transform="translate(20.878125 137.108437)scale(0.1 -0.1)">
       <use xlink:href="#DejaVuSans-48"/>
       <use x="63.623047" xlink:href="#DejaVuSans-46"/>
       <use x="95.410156" xlink:href="#DejaVuSans-57"/>
       <use x="159.033203" xlink:href="#DejaVuSans-50"/>
      </g>
     </g>
    </g>
    <g id="ytick_7">
     <g id="line2d_31">
      <path clip-path="url(#p0e7358f5ff)" d="M 50.14375 92.539219 
L 719.74375 92.539219 
" style="fill:none;stroke:#b0b0b0;stroke-linecap:square;stroke-width:0.8;"/>
     </g>
     <g id="line2d_32">
      <g>
       <use style="stroke:#000000;stroke-width:0.8;" x="50.14375" xlink:href="#m9b17dd7686" y="92.539219"/>
      </g>
     </g>
     <g id="text_17">
      <!-- 0.94 -->
      <g transform="translate(20.878125 96.338437)scale(0.1 -0.1)">
       <use xlink:href="#DejaVuSans-48"/>
       <use x="63.623047" xlink:href="#DejaVuSans-46"/>
       <use x="95.410156" xlink:href="#DejaVuSans-57"/>
       <use x="159.033203" xlink:href="#DejaVuSans-52"/>
      </g>
     </g>
    </g>
    <g id="ytick_8">
     <g id="line2d_33">
      <path clip-path="url(#p0e7358f5ff)" d="M 50.14375 51.769219 
L 719.74375 51.769219 
" style="fill:none;stroke:#b0b0b0;stroke-linecap:square;stroke-width:0.8;"/>
     </g>
     <g id="line2d_34">
      <g>
       <use style="stroke:#000000;stroke-width:0.8;" x="50.14375" xlink:href="#m9b17dd7686" y="51.769219"/>
      </g>
     </g>
     <g id="text_18">
      <!-- 0.96 -->
      <g transform="translate(20.878125 55.568437)scale(0.1 -0.1)">
       <use xlink:href="#DejaVuSans-48"/>
       <use x="63.623047" xlink:href="#DejaVuSans-46"/>
       <use x="95.410156" xlink:href="#DejaVuSans-57"/>
       <use x="159.033203" xlink:href="#DejaVuSans-54"/>
      </g>
     </g>
    </g>
    <g id="ytick_9">
     <g id="line2d_35">
      <path clip-path="url(#p0e7358f5ff)" d="M 50.14375 10.999219 
L 719.74375 10.999219 
" style="fill:none;stroke:#b0b0b0;stroke-linecap:square;stroke-width:0.8;"/>
     </g>
     <g id="line2d_36">
      <g>
       <use style="stroke:#000000;stroke-width:0.8;" x="50.14375" xlink:href="#m9b17dd7686" y="10.999219"/>
      </g>
     </g>
     <g id="text_19">
      <!-- 0.98 -->
      <g transform="translate(20.878125 14.798437)scale(0.1 -0.1)">
       <use xlink:href="#DejaVuSans-48"/>
       <use x="63.623047" xlink:href="#DejaVuSans-46"/>
       <use x="95.410156" xlink:href="#DejaVuSans-57"/>
       <use x="159.033203" xlink:href="#DejaVuSans-56"/>
      </g>
     </g>
    </g>
    <g id="text_20">
     <!-- Accuracy -->
     <defs>
      <path d="M 34.1875 63.1875 
L 20.796875 26.90625 
L 47.609375 26.90625 
z
M 28.609375 72.90625 
L 39.796875 72.90625 
L 67.578125 0 
L 57.328125 0 
L 50.6875 18.703125 
L 17.828125 18.703125 
L 11.1875 0 
L 0.78125 0 
z
" id="DejaVuSans-65"/>
      <path d="M 8.5 21.578125 
L 8.5 54.6875 
L 17.484375 54.6875 
L 17.484375 21.921875 
Q 17.484375 14.15625 20.5 10.265625 
Q 23.53125 6.390625 29.59375 6.390625 
Q 36.859375 6.390625 41.078125 11.03125 
Q 45.3125 15.671875 45.3125 23.6875 
L 45.3125 54.6875 
L 54.296875 54.6875 
L 54.296875 0 
L 45.3125 0 
L 45.3125 8.40625 
Q 42.046875 3.421875 37.71875 1 
Q 33.40625 -1.421875 27.6875 -1.421875 
Q 18.265625 -1.421875 13.375 4.4375 
Q 8.5 10.296875 8.5 21.578125 
z
M 31.109375 56 
z
" id="DejaVuSans-117"/>
      <path d="M 41.109375 46.296875 
Q 39.59375 47.171875 37.8125 47.578125 
Q 36.03125 48 33.890625 48 
Q 26.265625 48 22.1875 43.046875 
Q 18.109375 38.09375 18.109375 28.8125 
L 18.109375 0 
L 9.078125 0 
L 9.078125 54.6875 
L 18.109375 54.6875 
L 18.109375 46.1875 
Q 20.953125 51.171875 25.484375 53.578125 
Q 30.03125 56 36.53125 56 
Q 37.453125 56 38.578125 55.875 
Q 39.703125 55.765625 41.0625 55.515625 
z
" id="DejaVuSans-114"/>
      <path d="M 34.28125 27.484375 
Q 23.390625 27.484375 19.1875 25 
Q 14.984375 22.515625 14.984375 16.5 
Q 14.984375 11.71875 18.140625 8.90625 
Q 21.296875 6.109375 26.703125 6.109375 
Q 34.1875 6.109375 38.703125 11.40625 
Q 43.21875 16.703125 43.21875 25.484375 
L 43.21875 27.484375 
z
M 52.203125 31.203125 
L 52.203125 0 
L 43.21875 0 
L 43.21875 8.296875 
Q 40.140625 3.328125 35.546875 0.953125 
Q 30.953125 -1.421875 24.3125 -1.421875 
Q 15.921875 -1.421875 10.953125 3.296875 
Q 6 8.015625 6 15.921875 
Q 6 25.140625 12.171875 29.828125 
Q 18.359375 34.515625 30.609375 34.515625 
L 43.21875 34.515625 
L 43.21875 35.40625 
Q 43.21875 41.609375 39.140625 45 
Q 35.0625 48.390625 27.6875 48.390625 
Q 23 48.390625 18.546875 47.265625 
Q 14.109375 46.140625 10.015625 43.890625 
L 10.015625 52.203125 
Q 14.9375 54.109375 19.578125 55.046875 
Q 24.21875 56 28.609375 56 
Q 40.484375 56 46.34375 49.84375 
Q 52.203125 43.703125 52.203125 31.203125 
z
" id="DejaVuSans-97"/>
      <path d="M 32.171875 -5.078125 
Q 28.375 -14.84375 24.75 -17.8125 
Q 21.140625 -20.796875 15.09375 -20.796875 
L 7.90625 -20.796875 
L 7.90625 -13.28125 
L 13.1875 -13.28125 
Q 16.890625 -13.28125 18.9375 -11.515625 
Q 21 -9.765625 23.484375 -3.21875 
L 25.09375 0.875 
L 2.984375 54.6875 
L 12.5 54.6875 
L 29.59375 11.921875 
L 46.6875 54.6875 
L 56.203125 54.6875 
z
" id="DejaVuSans-121"/>
     </defs>
     <g transform="translate(14.798438 196.994062)rotate(-90)scale(0.1 -0.1)">
      <use xlink:href="#DejaVuSans-65"/>
      <use x="68.392578" xlink:href="#DejaVuSans-99"/>
      <use x="123.373047" xlink:href="#DejaVuSans-99"/>
      <use x="178.353516" xlink:href="#DejaVuSans-117"/>
      <use x="241.732422" xlink:href="#DejaVuSans-114"/>
      <use x="282.845703" xlink:href="#DejaVuSans-97"/>
      <use x="344.125" xlink:href="#DejaVuSans-99"/>
      <use x="399.105469" xlink:href="#DejaVuSans-121"/>
     </g>
    </g>
   </g>
   <g id="line2d_37">
    <path clip-path="url(#p0e7358f5ff)" d="M 126.311372 375.715469 
L 129.936379 360.971093 
L 133.592399 346.912809 
L 137.248418 333.632384 
L 140.904438 321.092454 
L 144.560458 309.255656 
L 148.216477 298.084627 
L 151.872497 287.542005 
L 155.528517 277.590426 
L 159.184536 268.193177 
L 162.840556 259.322012 
L 166.496576 250.954625 
L 170.152595 243.068833 
L 173.808615 235.642453 
L 177.464635 228.653302 
L 181.120654 222.079196 
L 184.776674 215.897952 
L 189.04203 209.15344 
L 193.307386 202.878236 
L 197.572743 197.037115 
L 201.838099 191.59485 
L 206.103455 186.516215 
L 210.368811 181.765983 
L 215.243504 176.694086 
L 220.118197 171.952532 
L 225.602227 166.947675 
L 231.695593 161.707962 
L 239.007632 155.740915 
L 246.319671 150.074331 
L 253.631711 144.697287 
L 260.94375 139.599074 
L 268.255789 134.768986 
L 275.567829 130.196314 
L 282.879868 125.87035 
L 290.801244 121.449874 
L 298.72262 117.292757 
L 306.643996 113.385385 
L 314.565372 109.714143 
L 323.096084 106.008959 
L 331.626797 102.544838 
L 340.766846 99.081468 
L 349.906895 95.854396 
L 359.656281 92.649074 
L 370.015003 89.483543 
L 380.983062 86.368276 
L 393.169794 83.150381 
L 405.356526 80.162368 
L 418.152595 77.258121 
L 430.948664 74.578301 
L 444.354069 71.995607 
L 458.368811 69.523375 
L 472.99289 67.17145 
L 488.226305 64.945642 
L 504.678394 62.770476 
L 522.349155 60.664026 
L 541.847927 58.570604 
L 564.393381 56.386112 
L 592.422865 53.907388 
L 671.636625 47.037517 
L 689.307386 45.282858 
L 689.307386 45.282858 
" style="fill:none;stroke:#377eb8;stroke-linecap:square;stroke-width:2;"/>
   </g>
   <g id="line2d_38">
    <path clip-path="url(#p0e7358f5ff)" d="M 127.295331 375.715469 
L 129.327042 367.181152 
L 131.764389 357.731804 
L 134.201735 349.078061 
L 136.639082 341.160001 
L 139.076428 333.917701 
L 141.513775 327.291238 
L 143.951121 321.220691 
L 146.388467 315.646136 
L 149.43515 309.284143 
L 152.481834 303.486473 
L 155.528517 298.136089 
L 159.184536 292.14916 
L 162.840556 286.554493 
L 166.496576 281.333216 
L 170.152595 276.467949 
L 173.808615 271.941312 
L 177.464635 267.735925 
L 181.120654 263.83441 
L 184.776674 260.219386 
L 189.04203 256.340765 
L 193.307386 252.800837 
L 197.572743 249.572004 
L 201.838099 246.626667 
L 206.103455 243.93723 
L 210.978148 241.141529 
L 215.852841 238.602821 
L 221.33687 236.002667 
L 227.430236 233.362588 
L 235.351612 230.194606 
L 244.491662 226.777114 
L 253.631711 223.590731 
L 263.381096 220.434094 
L 273.130482 217.514192 
L 282.879868 214.817498 
L 293.23859 212.181694 
L 304.206649 209.63081 
L 315.174708 207.307841 
L 326.752104 205.081792 
L 338.938836 202.964832 
L 351.734905 200.963329 
L 365.749647 198.995666 
L 381.592399 197.00483 
L 399.26316 195.01327 
L 417.543259 193.175073 
L 436.432693 191.498936 
L 455.931465 189.991707 
L 476.039573 188.658017 
L 497.366354 187.469119 
L 519.911809 186.442271 
L 543.675937 185.589277 
L 568.658738 184.915404 
L 596.078885 184.399733 
L 627.155052 184.044536 
L 664.324585 183.853071 
L 689.307386 183.815642 
L 689.307386 183.815642 
" style="fill:none;stroke:#4daf4a;stroke-linecap:square;stroke-width:2;"/>
   </g>
   <g id="line2d_39">
    <path clip-path="url(#p0e7358f5ff)" d="M 125.944356 375.715469 
L 127.874714 368.194775 
L 129.400346 363.542384 
L 132.451611 342.989606 
L 133.977243 344.012184 
L 135.502875 326.884971 
L 137.028507 330.514905 
L 138.55414 331.179532 
L 140.079772 314.93055 
L 141.605404 312.007162 
L 143.131036 309.637833 
L 144.656669 309.655451 
L 146.182301 297.947562 
L 147.707933 302.90675 
L 149.233565 288.13137 
L 150.759198 287.875725 
L 152.28483 281.536007 
L 153.810462 282.200756 
L 155.336094 268.141034 
L 156.861727 270.646205 
L 158.387359 270.237223 
L 159.912991 262.823895 
L 161.438624 258.222536 
L 162.964256 258.018044 
L 164.489888 258.120351 
L 166.01552 248.406344 
L 167.541153 244.489538 
L 169.066785 243.681536 
L 170.592417 243.498187 
L 172.118049 234.244437 
L 173.643682 240.584033 
L 175.169314 229.182942 
L 176.694946 236.238319 
L 178.220578 229.643078 
L 179.746211 225.604161 
L 181.271843 224.837592 
L 182.797475 221.25225 
L 184.323107 225.041719 
L 185.84874 214.151917 
L 187.374372 213.027032 
L 188.900004 204.795739 
L 190.425637 209.090422 
L 191.951269 203.159687 
L 193.476901 208.323488 
L 195.002533 203.756272 
L 196.528166 200.973828 
L 198.053798 195.286344 
L 199.57943 199.580906 
L 201.105062 192.167578 
L 202.630695 194.366073 
L 204.156327 183.542855 
L 205.681959 193.49744 
L 207.207591 188.333153 
L 208.733224 187.422115 
L 210.258856 186.789079 
L 211.784488 182.504845 
L 213.31012 180.42907 
L 214.835753 179.82483 
L 216.361385 174.120093 
L 217.887017 178.183189 
L 219.41265 171.273009 
L 220.938282 171.052601 
L 222.463914 170.169266 
L 223.989546 164.513495 
L 225.515179 168.189479 
L 227.040811 166.44298 
L 230.092075 164.968528 
L 231.617708 168.791046 
L 233.14334 164.150562 
L 234.668972 151.30175 
L 236.194604 157.66346 
L 237.720237 156.012949 
L 239.245869 158.429057 
L 240.771501 155.101182 
L 243.822766 151.215604 
L 245.348398 151.148169 
L 246.87403 150.619262 
L 248.399663 148.382858 
L 249.925295 145.898464 
L 251.450927 149.477367 
L 252.976559 148.454788 
L 254.502192 148.403635 
L 256.027824 134.948761 
L 257.553456 137.053697 
L 259.079088 135.213153 
L 260.604721 140.599186 
L 262.130353 141.603903 
L 263.655985 140.12131 
L 265.181617 136.798053 
L 266.70725 132.549663 
L 268.232882 132.047486 
L 269.758514 130.867439 
L 271.284146 135.366492 
L 272.809779 127.288658 
L 274.335411 127.288658 
L 275.861043 131.992202 
L 277.386675 128.057779 
L 278.912308 130.203905 
L 280.43794 131.123084 
L 281.963572 127.343213 
L 283.489205 128.923738 
L 285.014837 121.1024 
L 286.540469 123.863215 
L 288.066101 119.074011 
L 289.591734 124.314968 
L 291.117366 119.278138 
L 292.642998 118.341585 
L 294.16863 122.932373 
L 295.694263 122.073704 
L 297.219895 119.312888 
L 298.745527 112.7445 
L 300.271159 114.329399 
L 301.796792 112.462003 
L 303.322424 112.359818 
L 304.848056 110.774919 
L 306.373688 113.867562 
L 307.899321 116.194243 
L 309.424953 108.081903 
L 310.950585 108.405832 
L 312.476218 113.612403 
L 314.00185 111.848529 
L 315.527482 113.791257 
L 317.053114 103.7097 
L 318.578747 105.419141 
L 320.104379 106.670268 
L 321.630011 104.907001 
L 323.155643 105.138952 
L 324.681276 103.421979 
L 326.206908 109.7329 
L 327.73254 103.617236 
L 329.258172 101.629672 
L 330.783805 99.220368 
L 332.309437 97.226486 
L 333.835069 102.127353 
L 335.360701 100.038455 
L 336.886334 103.668389 
L 338.411966 103.729262 
L 339.937598 100.238693 
L 341.463231 94.925807 
L 342.988863 102.551523 
L 344.514495 101.514851 
L 346.040127 98.762054 
L 347.56576 97.022967 
L 349.091392 92.727312 
L 350.617024 97.175333 
L 352.142656 94.670162 
L 353.668289 94.665423 
L 355.193921 93.143585 
L 358.245185 93.333982 
L 359.770818 92.633146 
L 362.822082 90.056652 
L 364.347714 86.285531 
L 365.873347 94.419742 
L 367.398979 90.375601 
L 368.924611 86.950158 
L 370.450244 87.547472 
L 371.975876 89.213171 
L 373.501508 88.177106 
L 375.02714 86.899005 
L 376.552773 87.240188 
L 378.078405 88.447574 
L 379.604037 87.410294 
L 381.129669 87.854634 
L 382.655302 86.814073 
L 384.180934 84.782161 
L 385.706566 83.780238 
L 387.232198 84.670256 
L 388.757831 83.422409 
L 390.283463 83.962859 
L 391.809095 82.118063 
L 393.334727 82.477836 
L 394.86036 80.68881 
L 396.385992 80.048119 
L 397.911624 82.757782 
L 399.437256 81.735203 
L 400.962889 83.19471 
L 402.488521 79.667933 
L 404.014153 80.405949 
L 405.539786 82.195339 
L 407.065418 81.990848 
L 408.59105 79.383492 
L 410.116682 78.022647 
L 411.642315 80.354796 
L 413.167947 76.758397 
L 414.693579 78.565405 
L 416.219211 75.139963 
L 417.744844 76.469217 
L 419.270476 81.402404 
L 420.796108 77.798593 
L 422.32174 73.593702 
L 423.847373 76.162541 
L 425.373005 75.615894 
L 426.898637 75.890615 
L 428.424269 80.378246 
L 429.949902 75.329144 
L 431.475534 76.776015 
L 433.001166 73.65737 
L 434.526799 73.606217 
L 436.052431 72.072471 
L 437.578063 77.798593 
L 439.103695 74.884318 
L 440.629328 74.986624 
L 442.15496 72.225809 
L 443.680592 68.902551 
L 445.206224 69.5221 
L 446.731857 74.869737 
L 448.257489 73.65737 
L 449.783121 70.947586 
L 451.308753 72.839283 
L 452.834386 71.816826 
L 454.360018 66.755331 
L 455.88565 68.186892 
L 457.411282 70.998739 
L 458.936915 66.705636 
L 460.462547 68.999633 
L 461.988179 71.049893 
L 463.513812 66.552055 
L 465.039444 66.55084 
L 466.565076 63.793184 
L 468.090708 68.595875 
L 469.616341 70.692063 
L 471.141973 67.573297 
L 472.667605 66.55084 
L 474.193237 65.937487 
L 475.71887 67.672565 
L 477.244502 65.426077 
L 478.770134 66.857516 
L 480.295766 67.215467 
L 481.821399 64.147854 
L 483.347031 67.471112 
L 484.872663 66.090704 
L 486.398295 67.471112 
L 487.923928 67.010976 
L 489.44956 62.358464 
L 490.975192 66.346349 
L 492.500825 65.886213 
L 494.026457 61.284854 
L 495.552089 64.147854 
L 497.077721 64.042874 
L 498.603354 65.681843 
L 500.128986 64.964604 
L 501.654618 64.865092 
L 503.18025 63.994516 
L 504.705883 65.119279 
L 506.231515 61.080362 
L 507.757147 63.943363 
L 509.282779 61.387039 
L 510.808412 62.000634 
L 512.334044 62.30731 
L 513.859676 58.779683 
L 515.385308 63.994516 
L 516.910941 59.894969 
L 518.436573 59.760707 
L 519.962205 58.421732 
L 521.487837 61.840856 
L 523.01347 63.742152 
L 524.539102 62.46077 
L 526.064734 59.342004 
L 527.590367 63.841056 
L 529.115999 61.59153 
L 530.641631 57.654798 
L 532.167263 55.251934 
L 533.692896 58.768383 
L 535.218528 58.280423 
L 536.74416 58.472885 
L 538.269792 61.693836 
L 539.795425 56.581188 
L 541.321057 58.319547 
L 542.846689 61.796021 
L 544.372321 58.881868 
L 545.897954 57.245815 
L 547.423586 57.092477 
L 548.949218 58.933021 
L 550.47485 62.30731 
L 552.000483 56.479003 
L 553.526115 60.51792 
L 555.051747 53.002407 
L 556.57738 54.331662 
L 558.103012 57.450307 
L 559.628644 55.967714 
L 561.154276 56.376697 
L 562.679909 58.472885 
L 564.205541 60.313429 
L 565.731173 54.842951 
L 567.256805 58.524038 
L 568.782438 53.615881 
L 570.30807 51.570846 
L 571.833702 52.133289 
L 573.359334 54.842951 
L 574.884967 60.875749 
L 576.410599 58.166087 
L 577.936231 53.155745 
L 579.461863 51.928676 
L 580.987496 54.178324 
L 582.513128 53.360237 
L 584.03876 57.194662 
L 585.564393 54.229355 
L 587.090025 56.069899 
L 588.615657 53.718188 
L 590.141289 54.331662 
L 591.666922 56.479003 
L 593.192554 55.303087 
L 594.718186 51.338409 
L 596.243818 54.569324 
L 597.769451 52.18432 
L 599.295083 52.388812 
L 600.820715 53.718188 
L 602.346347 52.69561 
L 603.87198 51.519693 
L 605.397612 53.309084 
L 606.923244 54.740644 
L 608.448876 51.570846 
L 609.974509 55.660916 
L 611.500141 50.599421 
L 613.025773 54.12717 
L 614.551406 49.167982 
L 616.077038 49.832609 
L 617.60267 51.008404 
L 619.128302 47.429623 
L 620.653935 51.673153 
L 622.179567 49.116829 
L 623.705199 52.818693 
L 625.230831 48.270674 
L 626.756464 50.292745 
L 628.282096 50.548268 
L 629.807728 52.491118 
L 631.33336 53.125005 
L 632.858993 49.065675 
L 634.384625 49.141251 
L 635.910257 47.992066 
L 637.435889 48.503233 
L 638.961522 50.446083 
L 640.487154 49.807093 
L 642.012786 47.5538 
L 643.538418 51.059557 
L 645.064051 50.419595 
L 646.589683 48.321828 
L 648.115315 49.32132 
L 649.640948 48.452201 
L 651.16658 46.202554 
L 652.692212 49.116829 
L 654.217844 49.167982 
L 655.743477 47.101684 
L 657.269109 48.629111 
L 658.794741 48.707846 
L 660.320373 47.940912 
L 661.846006 47.459027 
L 663.371638 43.544045 
L 664.89727 49.116829 
L 666.422902 49.474658 
L 667.948535 46.990507 
L 669.474167 49.883641 
L 670.999799 47.429623 
L 672.525431 48.349895 
L 674.051064 44.566623 
L 675.576696 45.998062 
L 677.102328 47.276285 
L 678.627961 48.861184 
L 680.153593 46.30486 
L 681.679225 48.24771 
L 683.204857 47.889759 
L 684.73049 42.814048 
L 686.256122 48.936395 
L 687.781754 45.333435 
L 689.307386 46.458198 
L 689.307386 46.458198 
" style="fill:none;stroke:#377eb8;stroke-linecap:square;stroke-opacity:0.25098;stroke-width:1.5;"/>
   </g>
   <g id="line2d_40">
    <path clip-path="url(#p0e7358f5ff)" d="M 120.133878 375.715469 
L 120.246552 371.445373 
L 121.772185 367.109014 
L 122.372064 375.715469 
M 126.638616 375.715469 
L 127.874714 338.406473 
L 129.206357 375.715469 
M 131.826281 375.715469 
L 132.451611 332.211588 
L 133.977243 341.71029 
L 135.502875 316.10513 
L 137.028507 335.928519 
L 138.55414 329.527198 
L 140.079772 348.731038 
L 141.605404 340.884305 
L 143.131036 326.429817 
L 144.656669 315.898694 
L 146.182301 329.940191 
L 147.707933 307.019542 
L 149.233565 276.252038 
L 150.759198 303.096175 
L 152.28483 327.049366 
L 153.810462 299.172687 
L 155.336094 327.049366 
L 156.861727 296.488298 
L 158.387359 277.491015 
L 159.912991 338.199916 
L 161.438624 297.727275 
L 162.964256 280.38184 
L 164.489888 285.75074 
L 166.01552 275.632489 
L 167.541153 271.089695 
L 169.066785 334.896099 
L 170.592417 266.133909 
L 172.118049 290.706527 
L 173.643682 266.959772 
L 175.169314 258.493611 
L 176.694946 265.927352 
L 178.220578 268.818298 
L 179.746211 251.059871 
L 181.271843 256.222214 
L 182.797475 260.558573 
L 184.323107 258.080619 
L 185.84874 240.115756 
L 187.374372 252.918276 
L 188.900004 249.820894 
L 190.425637 245.2781 
L 191.951269 265.307924 
L 193.476901 243.419574 
L 195.002533 248.581917 
L 196.528166 247.136505 
L 198.053798 252.505283 
L 199.57943 235.985833 
L 201.105062 239.129872 
L 202.630695 252.298848 
L 204.156327 263.86239 
L 205.681959 268.198749 
L 207.207591 228.75865 
L 208.733224 254.363688 
L 210.258856 238.876779 
L 211.784488 249.407902 
L 213.31012 241.767604 
L 214.835753 227.10668 
L 216.361385 230.82349 
L 217.887017 219.466383 
L 219.41265 231.856031 
L 220.938282 227.313116 
L 222.463914 229.997505 
L 223.989546 219.466383 
L 225.515179 252.71184 
L 227.040811 234.127428 
L 228.566443 221.531345 
L 230.092075 230.410498 
L 231.617708 236.811818 
L 233.14334 228.345657 
L 234.668972 236.19239 
L 236.194604 226.074139 
L 237.720237 224.009299 
L 239.245869 229.171521 
L 240.771501 214.510597 
L 242.297133 244.245558 
L 243.822766 218.020971 
L 245.348398 212.032643 
L 246.87403 233.507879 
L 248.399663 216.162566 
L 249.925295 215.956009 
L 251.450927 244.658551 
L 252.976559 221.324788 
L 254.502192 213.478055 
L 256.027824 222.770322 
L 257.553456 234.953413 
L 259.079088 212.652192 
L 260.604721 229.997505 
L 262.130353 221.531345 
L 263.655985 210.793666 
L 265.181617 240.115756 
L 266.70725 198.197582 
L 268.232882 229.997505 
L 269.758514 221.324788 
L 271.284146 221.324788 
L 272.809779 208.315833 
L 274.335411 205.424887 
L 275.861043 231.856031 
L 277.386675 215.956009 
L 278.912308 225.454711 
L 280.43794 223.596306 
L 281.963572 233.095008 
L 283.489205 219.259948 
L 285.014837 212.858627 
L 286.540469 203.979475 
L 288.066101 196.339177 
L 289.591734 259.113039 
L 291.117366 217.401421 
L 292.642998 204.805338 
L 294.16863 221.118352 
L 295.694263 212.858627 
L 297.219895 232.888451 
L 298.745527 208.109276 
L 300.271159 195.719749 
L 301.796792 203.979475 
L 303.322424 213.27162 
L 304.848056 197.578154 
L 306.373688 227.10668 
L 307.899321 203.566482 
L 309.424953 208.728704 
L 310.950585 192.622246 
L 312.476218 197.578154 
L 317.053114 205.424887 
L 318.578747 205.631322 
L 320.104379 218.227406 
L 321.630011 197.477913 
L 323.155643 193.861223 
L 324.681276 206.870299 
L 326.206908 211.61965 
L 327.73254 229.79107 
L 329.258172 194.480772 
L 330.783805 198.817131 
L 332.309437 199.023567 
L 333.835069 218.846955 
L 335.360701 204.598902 
L 336.886334 211.000223 
L 338.411966 209.967681 
L 339.937598 199.436559 
L 341.463231 197.578154 
L 342.988863 205.011895 
L 344.514495 193.448231 
L 346.040127 210.58723 
L 347.56576 203.359925 
L 349.091392 176.928781 
L 350.617024 199.023567 
L 352.142656 209.554689 
L 353.668289 199.849551 
L 355.193921 209.554689 
L 356.719553 207.902841 
L 358.245185 210.793666 
L 359.770818 204.598902 
L 361.29645 188.905437 
L 362.822082 193.241795 
L 364.347714 193.035239 
L 365.873347 210.174238 
L 367.398979 194.893765 
L 368.924611 183.330101 
L 370.450244 211.826207 
L 371.975876 189.731421 
L 373.501508 195.926185 
L 375.02714 187.66646 
L 376.552773 190.144414 
L 378.078405 186.840475 
L 379.604037 188.69888 
L 381.129669 203.566482 
L 382.655302 200.675536 
L 384.180934 200.468979 
L 387.232198 186.840475 
L 388.757831 201.294964 
L 390.283463 217.607978 
L 391.809095 190.350849 
L 393.334727 203.566482 
L 394.86036 186.221047 
L 396.385992 219.67294 
L 397.911624 189.731421 
L 399.437256 193.861223 
L 400.962889 218.433963 
L 402.488521 192.209254 
L 404.014153 186.01449 
L 405.539786 195.513193 
L 407.065418 190.970398 
L 408.59105 182.297681 
L 410.116682 192.622246 
L 411.642315 206.663864 
L 413.167947 192.002818 
L 414.693579 194.687208 
L 416.219211 191.176834 
L 417.744844 197.165162 
L 419.270476 192.622246 
L 420.796108 191.383391 
L 422.32174 186.221047 
L 423.847373 181.884689 
L 425.373005 191.796383 
L 426.898637 188.079452 
L 428.424269 198.817131 
L 429.949902 184.362521 
L 431.475534 187.047032 
L 433.001166 184.98207 
L 434.526799 188.079452 
L 436.052431 213.27162 
L 437.578063 181.678132 
L 439.103695 184.775513 
L 440.629328 205.011895 
L 442.15496 183.389638 
L 443.680592 185.395063 
L 445.206224 190.763842 
L 446.731857 207.076856 
L 448.257489 204.598902 
L 451.308753 184.156086 
L 452.834386 198.610574 
L 454.360018 196.132742 
L 455.88565 186.840475 
L 457.411282 185.808055 
L 458.936915 186.840475 
L 460.462547 193.035239 
L 461.988179 198.197582 
L 463.513812 196.545613 
L 465.039444 193.241795 
L 466.565076 182.091124 
L 468.090708 193.654788 
L 469.616341 183.123666 
L 471.141973 187.873017 
L 472.667605 193.654788 
L 474.193237 200.262544 
L 475.71887 184.362521 
L 477.244502 197.991147 
L 478.770134 197.78459 
L 480.295766 173.005414 
L 481.821399 201.088528 
L 483.347031 202.120948 
L 484.872663 179.819727 
L 486.398295 198.817131 
L 487.923928 183.536658 
L 489.44956 180.852147 
L 490.975192 179.406735 
L 492.500825 195.1002 
L 494.026457 183.743093 
L 495.552089 192.828803 
L 497.077721 174.450948 
L 498.603354 183.330101 
L 500.128986 178.167758 
L 501.654618 201.707956 
L 503.18025 183.743093 
L 504.705883 179.613292 
L 506.231515 184.569078 
L 507.757147 171.766437 
L 509.282779 182.917109 
L 510.808412 179.200299 
L 512.334044 181.265139 
L 513.859676 165.158682 
L 515.385308 180.852147 
L 516.910941 194.274216 
L 518.436573 168.669056 
L 519.962205 192.209254 
L 521.487837 190.350849 
L 523.01347 189.318429 
L 524.539102 170.734017 
L 526.064734 192.415811 
L 527.590367 179.200299 
L 529.115999 196.958605 
L 530.641631 190.763842 
L 532.167263 175.070376 
L 533.692896 194.480772 
L 535.218528 172.592422 
L 536.74416 180.026162 
L 538.269792 186.63404 
L 539.795425 188.905437 
L 541.321057 180.852147 
L 542.846689 186.840475 
L 544.372321 177.135338 
L 547.423586 185.601498 
L 548.949218 188.492444 
L 550.47485 185.808055 
L 552.000483 183.743093 
L 553.526115 183.743093 
L 555.051747 191.176834 
L 556.57738 179.613292 
L 558.103012 184.775513 
L 559.628644 180.852147 
L 561.154276 188.69888 
L 562.679909 188.08577 
L 564.205541 183.949529 
L 565.731173 184.156086 
L 567.256805 186.221047 
L 568.782438 186.427483 
L 570.30807 183.949529 
L 571.833702 197.991147 
L 573.359334 189.524865 
L 574.884967 203.566482 
L 576.410599 171.972994 
L 577.936231 183.123666 
L 579.461863 193.241795 
L 580.987496 187.460024 
L 582.513128 178.167758 
L 584.03876 178.993742 
L 585.564393 190.970398 
L 587.090025 185.808055 
L 588.615657 188.905437 
L 590.141289 198.197582 
L 591.666922 178.374315 
L 593.192554 181.884689 
L 594.718186 184.362521 
L 596.243818 169.49504 
L 597.769451 196.75217 
L 599.295083 178.167758 
L 600.820715 173.211971 
L 602.346347 193.241795 
L 603.87198 193.861223 
L 605.397612 177.54833 
L 606.923244 195.306757 
L 608.448876 175.689925 
L 609.974509 198.197582 
L 611.500141 192.828803 
L 613.025773 176.309353 
L 614.551406 178.374315 
L 616.077038 182.504116 
L 617.60267 177.754765 
L 619.128302 176.928781 
L 620.653935 194.274216 
L 622.179567 172.385987 
L 623.705199 174.037956 
L 625.230831 186.01449 
L 626.756464 204.18591 
L 628.282096 184.362521 
L 629.807728 179.819727 
L 631.33336 181.884689 
L 632.858993 179.819727 
L 634.384625 179.613292 
L 635.910257 197.578154 
L 637.435889 203.566482 
L 638.961522 185.808055 
L 640.487154 182.917109 
L 642.012786 183.330101 
L 643.538418 174.657384 
L 645.064051 198.404139 
L 646.589683 182.710673 
L 648.115315 171.766437 
L 649.640948 174.450948 
L 651.16658 193.448231 
L 652.692212 197.78459 
L 654.217844 182.504116 
L 655.743477 179.613292 
L 657.269109 221.73778 
L 658.794741 190.763842 
L 660.320373 183.949529 
L 661.846006 184.98207 
L 663.371638 171.766437 
L 664.89727 172.592422 
L 666.422902 178.374315 
L 667.948535 196.75217 
L 669.474167 174.037956 
L 670.999799 182.297681 
L 672.525431 184.362521 
L 674.051064 191.796383 
L 675.576696 183.743093 
L 677.102328 184.362521 
L 678.627961 180.645712 
L 680.153593 177.961322 
L 681.679225 185.395063 
L 683.204857 181.347884 
L 684.73049 175.896361 
L 686.256122 182.091124 
L 687.781754 181.265139 
L 689.307386 171.560002 
L 689.307386 171.560002 
" style="fill:none;stroke:#4daf4a;stroke-linecap:square;stroke-opacity:0.25098;stroke-width:1.5;"/>
   </g>
   <g id="patch_3">
    <path d="M 50.14375 337.159219 
L 50.14375 10.999219 
" style="fill:none;stroke:#000000;stroke-linecap:square;stroke-linejoin:miter;stroke-width:0.8;"/>
   </g>
   <g id="patch_4">
    <path d="M 719.74375 337.159219 
L 719.74375 10.999219 
" style="fill:none;stroke:#000000;stroke-linecap:square;stroke-linejoin:miter;stroke-width:0.8;"/>
   </g>
   <g id="patch_5">
    <path d="M 50.14375 337.159219 
L 719.74375 337.159219 
" style="fill:none;stroke:#000000;stroke-linecap:square;stroke-linejoin:miter;stroke-width:0.8;"/>
   </g>
   <g id="patch_6">
    <path d="M 50.14375 10.999219 
L 719.74375 10.999219 
" style="fill:none;stroke:#000000;stroke-linecap:square;stroke-linejoin:miter;stroke-width:0.8;"/>
   </g>
   <g id="legend_1">
    <g id="patch_7">
     <path d="M 57.14375 48.355469 
L 114.584375 48.355469 
Q 116.584375 48.355469 116.584375 46.355469 
L 116.584375 17.999219 
Q 116.584375 15.999219 114.584375 15.999219 
L 57.14375 15.999219 
Q 55.14375 15.999219 55.14375 17.999219 
L 55.14375 46.355469 
Q 55.14375 48.355469 57.14375 48.355469 
z
" style="fill:#ffffff;opacity:0.8;stroke:#cccccc;stroke-linejoin:miter;"/>
    </g>
    <g id="line2d_41">
     <path d="M 59.14375 24.097656 
L 79.14375 24.097656 
" style="fill:none;stroke:#377eb8;stroke-linecap:square;stroke-width:2;"/>
    </g>
    <g id="line2d_42"/>
    <g id="text_21">
     <!-- Train -->
     <defs>
      <path d="M -0.296875 72.90625 
L 61.375 72.90625 
L 61.375 64.59375 
L 35.5 64.59375 
L 35.5 0 
L 25.59375 0 
L 25.59375 64.59375 
L -0.296875 64.59375 
z
" id="DejaVuSans-84"/>
      <path d="M 9.421875 54.6875 
L 18.40625 54.6875 
L 18.40625 0 
L 9.421875 0 
z
M 9.421875 75.984375 
L 18.40625 75.984375 
L 18.40625 64.59375 
L 9.421875 64.59375 
z
" id="DejaVuSans-105"/>
      <path d="M 54.890625 33.015625 
L 54.890625 0 
L 45.90625 0 
L 45.90625 32.71875 
Q 45.90625 40.484375 42.875 44.328125 
Q 39.84375 48.1875 33.796875 48.1875 
Q 26.515625 48.1875 22.3125 43.546875 
Q 18.109375 38.921875 18.109375 30.90625 
L 18.109375 0 
L 9.078125 0 
L 9.078125 54.6875 
L 18.109375 54.6875 
L 18.109375 46.1875 
Q 21.34375 51.125 25.703125 53.5625 
Q 30.078125 56 35.796875 56 
Q 45.21875 56 50.046875 50.171875 
Q 54.890625 44.34375 54.890625 33.015625 
z
" id="DejaVuSans-110"/>
     </defs>
     <g transform="translate(87.14375 27.597656)scale(0.1 -0.1)">
      <use xlink:href="#DejaVuSans-84"/>
      <use x="60.865234" xlink:href="#DejaVuSans-114"/>
      <use x="101.978516" xlink:href="#DejaVuSans-97"/>
      <use x="163.257812" xlink:href="#DejaVuSans-105"/>
      <use x="191.041016" xlink:href="#DejaVuSans-110"/>
     </g>
    </g>
    <g id="line2d_43">
     <path d="M 59.14375 38.775781 
L 79.14375 38.775781 
" style="fill:none;stroke:#4daf4a;stroke-linecap:square;stroke-width:2;"/>
    </g>
    <g id="line2d_44"/>
    <g id="text_22">
     <!-- Test -->
     <defs>
      <path d="M 56.203125 29.59375 
L 56.203125 25.203125 
L 14.890625 25.203125 
Q 15.484375 15.921875 20.484375 11.0625 
Q 25.484375 6.203125 34.421875 6.203125 
Q 39.59375 6.203125 44.453125 7.46875 
Q 49.3125 8.734375 54.109375 11.28125 
L 54.109375 2.78125 
Q 49.265625 0.734375 44.1875 -0.34375 
Q 39.109375 -1.421875 33.890625 -1.421875 
Q 20.796875 -1.421875 13.15625 6.1875 
Q 5.515625 13.8125 5.515625 26.8125 
Q 5.515625 40.234375 12.765625 48.109375 
Q 20.015625 56 32.328125 56 
Q 43.359375 56 49.78125 48.890625 
Q 56.203125 41.796875 56.203125 29.59375 
z
M 47.21875 32.234375 
Q 47.125 39.59375 43.09375 43.984375 
Q 39.0625 48.390625 32.421875 48.390625 
Q 24.90625 48.390625 20.390625 44.140625 
Q 15.875 39.890625 15.1875 32.171875 
z
" id="DejaVuSans-101"/>
      <path d="M 44.28125 53.078125 
L 44.28125 44.578125 
Q 40.484375 46.53125 36.375 47.5 
Q 32.28125 48.484375 27.875 48.484375 
Q 21.1875 48.484375 17.84375 46.4375 
Q 14.5 44.390625 14.5 40.28125 
Q 14.5 37.15625 16.890625 35.375 
Q 19.28125 33.59375 26.515625 31.984375 
L 29.59375 31.296875 
Q 39.15625 29.25 43.1875 25.515625 
Q 47.21875 21.78125 47.21875 15.09375 
Q 47.21875 7.46875 41.1875 3.015625 
Q 35.15625 -1.421875 24.609375 -1.421875 
Q 20.21875 -1.421875 15.453125 -0.5625 
Q 10.6875 0.296875 5.421875 2 
L 5.421875 11.28125 
Q 10.40625 8.6875 15.234375 7.390625 
Q 20.0625 6.109375 24.8125 6.109375 
Q 31.15625 6.109375 34.5625 8.28125 
Q 37.984375 10.453125 37.984375 14.40625 
Q 37.984375 18.0625 35.515625 20.015625 
Q 33.0625 21.96875 24.703125 23.78125 
L 21.578125 24.515625 
Q 13.234375 26.265625 9.515625 29.90625 
Q 5.8125 33.546875 5.8125 39.890625 
Q 5.8125 47.609375 11.28125 51.796875 
Q 16.75 56 26.8125 56 
Q 31.78125 56 36.171875 55.265625 
Q 40.578125 54.546875 44.28125 53.078125 
z
" id="DejaVuSans-115"/>
      <path d="M 18.3125 70.21875 
L 18.3125 54.6875 
L 36.8125 54.6875 
L 36.8125 47.703125 
L 18.3125 47.703125 
L 18.3125 18.015625 
Q 18.3125 11.328125 20.140625 9.421875 
Q 21.96875 7.515625 27.59375 7.515625 
L 36.8125 7.515625 
L 36.8125 0 
L 27.59375 0 
Q 17.1875 0 13.234375 3.875 
Q 9.28125 7.765625 9.28125 18.015625 
L 9.28125 47.703125 
L 2.6875 47.703125 
L 2.6875 54.6875 
L 9.28125 54.6875 
L 9.28125 70.21875 
z
" id="DejaVuSans-116"/>
     </defs>
     <g transform="translate(87.14375 42.275781)scale(0.1 -0.1)">
      <use xlink:href="#DejaVuSans-84"/>
      <use x="60.818359" xlink:href="#DejaVuSans-101"/>
      <use x="122.341797" xlink:href="#DejaVuSans-115"/>
      <use x="174.441406" xlink:href="#DejaVuSans-116"/>
     </g>
    </g>
   </g>
  </g>
 </g>
 <defs>
  <clipPath id="p0e7358f5ff">
   <rect height="326.16" width="669.6" x="50.14375" y="10.999219"/>
  </clipPath>
 </defs>
</svg>
