<?xml version="1.0" encoding="utf-8" standalone="no"?>
<!DOCTYPE svg PUBLIC "-//W3C//DTD SVG 1.1//EN"
  "http://www.w3.org/Graphics/SVG/1.1/DTD/svg11.dtd">
<!-- Created with matplotlib (https://matplotlib.org/) -->
<svg height="374.715469pt" version="1.1" viewBox="0 0 726.94375 374.715469" width="726.94375pt" xmlns="http://www.w3.org/2000/svg" xmlns:xlink="http://www.w3.org/1999/xlink">
 <defs>
  <style type="text/css">
*{stroke-linecap:butt;stroke-linejoin:round;white-space:pre;}
  </style>
 </defs>
 <g id="figure_1">
  <g id="patch_1">
   <path d="M 0 374.715469 
L 726.94375 374.715469 
L 726.94375 0 
L 0 0 
z
" style="fill:#ffffff;"/>
  </g>
  <g id="axes_1">
   <g id="patch_2">
    <path d="M 50.14375 337.159219 
L 719.74375 337.159219 
L 719.74375 10.999219 
L 50.14375 10.999219 
z
" style="fill:#ffffff;"/>
   </g>
   <g id="matplotlib.axis_1">
    <g id="xtick_1">
     <g id="line2d_1">
      <path clip-path="url(#p9d76140927)" d="M 50.14375 337.159219 
L 50.14375 10.999219 
" style="fill:none;stroke:#b0b0b0;stroke-linecap:square;stroke-width:0.8;"/>
     </g>
     <g id="line2d_2">
      <defs>
       <path d="M 0 0 
L 0 3.5 
" id="m55bf9f9b2b" style="stroke:#000000;stroke-width:0.8;"/>
      </defs>
      <g>
       <use style="stroke:#000000;stroke-width:0.8;" x="50.14375" xlink:href="#m55bf9f9b2b" y="337.159219"/>
      </g>
     </g>
     <g id="text_1">
      <!-- 0 -->
      <defs>
       <path d="M 31.78125 66.40625 
Q 24.171875 66.40625 20.328125 58.90625 
Q 16.5 51.421875 16.5 36.375 
Q 16.5 21.390625 20.328125 13.890625 
Q 24.171875 6.390625 31.78125 6.390625 
Q 39.453125 6.390625 43.28125 13.890625 
Q 47.125 21.390625 47.125 36.375 
Q 47.125 51.421875 43.28125 58.90625 
Q 39.453125 66.40625 31.78125 66.40625 
z
M 31.78125 74.21875 
Q 44.046875 74.21875 50.515625 64.515625 
Q 56.984375 54.828125 56.984375 36.375 
Q 56.984375 17.96875 50.515625 8.265625 
Q 44.046875 -1.421875 31.78125 -1.421875 
Q 19.53125 -1.421875 13.0625 8.265625 
Q 6.59375 17.96875 6.59375 36.375 
Q 6.59375 54.828125 13.0625 64.515625 
Q 19.53125 74.21875 31.78125 74.21875 
z
" id="DejaVuSans-48"/>
      </defs>
      <g transform="translate(46.9625 351.757656)scale(0.1 -0.1)">
       <use xlink:href="#DejaVuSans-48"/>
      </g>
     </g>
    </g>
    <g id="xtick_2">
     <g id="line2d_3">
      <path clip-path="url(#p9d76140927)" d="M 129.867527 337.159219 
L 129.867527 10.999219 
" style="fill:none;stroke:#b0b0b0;stroke-linecap:square;stroke-width:0.8;"/>
     </g>
     <g id="line2d_4">
      <g>
       <use style="stroke:#000000;stroke-width:0.8;" x="129.867527" xlink:href="#m55bf9f9b2b" y="337.159219"/>
      </g>
     </g>
     <g id="text_2">
      <!-- 50 -->
      <defs>
       <path d="M 10.796875 72.90625 
L 49.515625 72.90625 
L 49.515625 64.59375 
L 19.828125 64.59375 
L 19.828125 46.734375 
Q 21.96875 47.46875 24.109375 47.828125 
Q 26.265625 48.1875 28.421875 48.1875 
Q 40.625 48.1875 47.75 41.5 
Q 54.890625 34.8125 54.890625 23.390625 
Q 54.890625 11.625 47.5625 5.09375 
Q 40.234375 -1.421875 26.90625 -1.421875 
Q 22.3125 -1.421875 17.546875 -0.640625 
Q 12.796875 0.140625 7.71875 1.703125 
L 7.71875 11.625 
Q 12.109375 9.234375 16.796875 8.0625 
Q 21.484375 6.890625 26.703125 6.890625 
Q 35.15625 6.890625 40.078125 11.328125 
Q 45.015625 15.765625 45.015625 23.390625 
Q 45.015625 31 40.078125 35.4375 
Q 35.15625 39.890625 26.703125 39.890625 
Q 22.75 39.890625 18.8125 39.015625 
Q 14.890625 38.140625 10.796875 36.28125 
z
" id="DejaVuSans-53"/>
      </defs>
      <g transform="translate(123.505027 351.757656)scale(0.1 -0.1)">
       <use xlink:href="#DejaVuSans-53"/>
       <use x="63.623047" xlink:href="#DejaVuSans-48"/>
      </g>
     </g>
    </g>
    <g id="xtick_3">
     <g id="line2d_5">
      <path clip-path="url(#p9d76140927)" d="M 209.591303 337.159219 
L 209.591303 10.999219 
" style="fill:none;stroke:#b0b0b0;stroke-linecap:square;stroke-width:0.8;"/>
     </g>
     <g id="line2d_6">
      <g>
       <use style="stroke:#000000;stroke-width:0.8;" x="209.591303" xlink:href="#m55bf9f9b2b" y="337.159219"/>
      </g>
     </g>
     <g id="text_3">
      <!-- 100 -->
      <defs>
       <path d="M 12.40625 8.296875 
L 28.515625 8.296875 
L 28.515625 63.921875 
L 10.984375 60.40625 
L 10.984375 69.390625 
L 28.421875 72.90625 
L 38.28125 72.90625 
L 38.28125 8.296875 
L 54.390625 8.296875 
L 54.390625 0 
L 12.40625 0 
z
" id="DejaVuSans-49"/>
      </defs>
      <g transform="translate(200.047553 351.757656)scale(0.1 -0.1)">
       <use xlink:href="#DejaVuSans-49"/>
       <use x="63.623047" xlink:href="#DejaVuSans-48"/>
       <use x="127.246094" xlink:href="#DejaVuSans-48"/>
      </g>
     </g>
    </g>
    <g id="xtick_4">
     <g id="line2d_7">
      <path clip-path="url(#p9d76140927)" d="M 289.31508 337.159219 
L 289.31508 10.999219 
" style="fill:none;stroke:#b0b0b0;stroke-linecap:square;stroke-width:0.8;"/>
     </g>
     <g id="line2d_8">
      <g>
       <use style="stroke:#000000;stroke-width:0.8;" x="289.31508" xlink:href="#m55bf9f9b2b" y="337.159219"/>
      </g>
     </g>
     <g id="text_4">
      <!-- 150 -->
      <g transform="translate(279.77133 351.757656)scale(0.1 -0.1)">
       <use xlink:href="#DejaVuSans-49"/>
       <use x="63.623047" xlink:href="#DejaVuSans-53"/>
       <use x="127.246094" xlink:href="#DejaVuSans-48"/>
      </g>
     </g>
    </g>
    <g id="xtick_5">
     <g id="line2d_9">
      <path clip-path="url(#p9d76140927)" d="M 369.038857 337.159219 
L 369.038857 10.999219 
" style="fill:none;stroke:#b0b0b0;stroke-linecap:square;stroke-width:0.8;"/>
     </g>
     <g id="line2d_10">
      <g>
       <use style="stroke:#000000;stroke-width:0.8;" x="369.038857" xlink:href="#m55bf9f9b2b" y="337.159219"/>
      </g>
     </g>
     <g id="text_5">
      <!-- 200 -->
      <defs>
       <path d="M 19.1875 8.296875 
L 53.609375 8.296875 
L 53.609375 0 
L 7.328125 0 
L 7.328125 8.296875 
Q 12.9375 14.109375 22.625 23.890625 
Q 32.328125 33.6875 34.8125 36.53125 
Q 39.546875 41.84375 41.421875 45.53125 
Q 43.3125 49.21875 43.3125 52.78125 
Q 43.3125 58.59375 39.234375 62.25 
Q 35.15625 65.921875 28.609375 65.921875 
Q 23.96875 65.921875 18.8125 64.3125 
Q 13.671875 62.703125 7.8125 59.421875 
L 7.8125 69.390625 
Q 13.765625 71.78125 18.9375 73 
Q 24.125 74.21875 28.421875 74.21875 
Q 39.75 74.21875 46.484375 68.546875 
Q 53.21875 62.890625 53.21875 53.421875 
Q 53.21875 48.921875 51.53125 44.890625 
Q 49.859375 40.875 45.40625 35.40625 
Q 44.1875 33.984375 37.640625 27.21875 
Q 31.109375 20.453125 19.1875 8.296875 
z
" id="DejaVuSans-50"/>
      </defs>
      <g transform="translate(359.495107 351.757656)scale(0.1 -0.1)">
       <use xlink:href="#DejaVuSans-50"/>
       <use x="63.623047" xlink:href="#DejaVuSans-48"/>
       <use x="127.246094" xlink:href="#DejaVuSans-48"/>
      </g>
     </g>
    </g>
    <g id="xtick_6">
     <g id="line2d_11">
      <path clip-path="url(#p9d76140927)" d="M 448.762633 337.159219 
L 448.762633 10.999219 
" style="fill:none;stroke:#b0b0b0;stroke-linecap:square;stroke-width:0.8;"/>
     </g>
     <g id="line2d_12">
      <g>
       <use style="stroke:#000000;stroke-width:0.8;" x="448.762633" xlink:href="#m55bf9f9b2b" y="337.159219"/>
      </g>
     </g>
     <g id="text_6">
      <!-- 250 -->
      <g transform="translate(439.218883 351.757656)scale(0.1 -0.1)">
       <use xlink:href="#DejaVuSans-50"/>
       <use x="63.623047" xlink:href="#DejaVuSans-53"/>
       <use x="127.246094" xlink:href="#DejaVuSans-48"/>
      </g>
     </g>
    </g>
    <g id="xtick_7">
     <g id="line2d_13">
      <path clip-path="url(#p9d76140927)" d="M 528.48641 337.159219 
L 528.48641 10.999219 
" style="fill:none;stroke:#b0b0b0;stroke-linecap:square;stroke-width:0.8;"/>
     </g>
     <g id="line2d_14">
      <g>
       <use style="stroke:#000000;stroke-width:0.8;" x="528.48641" xlink:href="#m55bf9f9b2b" y="337.159219"/>
      </g>
     </g>
     <g id="text_7">
      <!-- 300 -->
      <defs>
       <path d="M 40.578125 39.3125 
Q 47.65625 37.796875 51.625 33 
Q 55.609375 28.21875 55.609375 21.1875 
Q 55.609375 10.40625 48.1875 4.484375 
Q 40.765625 -1.421875 27.09375 -1.421875 
Q 22.515625 -1.421875 17.65625 -0.515625 
Q 12.796875 0.390625 7.625 2.203125 
L 7.625 11.71875 
Q 11.71875 9.328125 16.59375 8.109375 
Q 21.484375 6.890625 26.8125 6.890625 
Q 36.078125 6.890625 40.9375 10.546875 
Q 45.796875 14.203125 45.796875 21.1875 
Q 45.796875 27.640625 41.28125 31.265625 
Q 36.765625 34.90625 28.71875 34.90625 
L 20.21875 34.90625 
L 20.21875 43.015625 
L 29.109375 43.015625 
Q 36.375 43.015625 40.234375 45.921875 
Q 44.09375 48.828125 44.09375 54.296875 
Q 44.09375 59.90625 40.109375 62.90625 
Q 36.140625 65.921875 28.71875 65.921875 
Q 24.65625 65.921875 20.015625 65.03125 
Q 15.375 64.15625 9.8125 62.3125 
L 9.8125 71.09375 
Q 15.4375 72.65625 20.34375 73.4375 
Q 25.25 74.21875 29.59375 74.21875 
Q 40.828125 74.21875 47.359375 69.109375 
Q 53.90625 64.015625 53.90625 55.328125 
Q 53.90625 49.265625 50.4375 45.09375 
Q 46.96875 40.921875 40.578125 39.3125 
z
" id="DejaVuSans-51"/>
      </defs>
      <g transform="translate(518.94266 351.757656)scale(0.1 -0.1)">
       <use xlink:href="#DejaVuSans-51"/>
       <use x="63.623047" xlink:href="#DejaVuSans-48"/>
       <use x="127.246094" xlink:href="#DejaVuSans-48"/>
      </g>
     </g>
    </g>
    <g id="xtick_8">
     <g id="line2d_15">
      <path clip-path="url(#p9d76140927)" d="M 608.210186 337.159219 
L 608.210186 10.999219 
" style="fill:none;stroke:#b0b0b0;stroke-linecap:square;stroke-width:0.8;"/>
     </g>
     <g id="line2d_16">
      <g>
       <use style="stroke:#000000;stroke-width:0.8;" x="608.210186" xlink:href="#m55bf9f9b2b" y="337.159219"/>
      </g>
     </g>
     <g id="text_8">
      <!-- 350 -->
      <g transform="translate(598.666436 351.757656)scale(0.1 -0.1)">
       <use xlink:href="#DejaVuSans-51"/>
       <use x="63.623047" xlink:href="#DejaVuSans-53"/>
       <use x="127.246094" xlink:href="#DejaVuSans-48"/>
      </g>
     </g>
    </g>
    <g id="xtick_9">
     <g id="line2d_17">
      <path clip-path="url(#p9d76140927)" d="M 687.933963 337.159219 
L 687.933963 10.999219 
" style="fill:none;stroke:#b0b0b0;stroke-linecap:square;stroke-width:0.8;"/>
     </g>
     <g id="line2d_18">
      <g>
       <use style="stroke:#000000;stroke-width:0.8;" x="687.933963" xlink:href="#m55bf9f9b2b" y="337.159219"/>
      </g>
     </g>
     <g id="text_9">
      <!-- 400 -->
      <defs>
       <path d="M 37.796875 64.3125 
L 12.890625 25.390625 
L 37.796875 25.390625 
z
M 35.203125 72.90625 
L 47.609375 72.90625 
L 47.609375 25.390625 
L 58.015625 25.390625 
L 58.015625 17.1875 
L 47.609375 17.1875 
L 47.609375 0 
L 37.796875 0 
L 37.796875 17.1875 
L 4.890625 17.1875 
L 4.890625 26.703125 
z
" id="DejaVuSans-52"/>
      </defs>
      <g transform="translate(678.390213 351.757656)scale(0.1 -0.1)">
       <use xlink:href="#DejaVuSans-52"/>
       <use x="63.623047" xlink:href="#DejaVuSans-48"/>
       <use x="127.246094" xlink:href="#DejaVuSans-48"/>
      </g>
     </g>
    </g>
    <g id="text_10">
     <!-- Epoch -->
     <defs>
      <path d="M 9.8125 72.90625 
L 55.90625 72.90625 
L 55.90625 64.59375 
L 19.671875 64.59375 
L 19.671875 43.015625 
L 54.390625 43.015625 
L 54.390625 34.71875 
L 19.671875 34.71875 
L 19.671875 8.296875 
L 56.78125 8.296875 
L 56.78125 0 
L 9.8125 0 
z
" id="DejaVuSans-69"/>
      <path d="M 18.109375 8.203125 
L 18.109375 -20.796875 
L 9.078125 -20.796875 
L 9.078125 54.6875 
L 18.109375 54.6875 
L 18.109375 46.390625 
Q 20.953125 51.265625 25.265625 53.625 
Q 29.59375 56 35.59375 56 
Q 45.5625 56 51.78125 48.09375 
Q 58.015625 40.1875 58.015625 27.296875 
Q 58.015625 14.40625 51.78125 6.484375 
Q 45.5625 -1.421875 35.59375 -1.421875 
Q 29.59375 -1.421875 25.265625 0.953125 
Q 20.953125 3.328125 18.109375 8.203125 
z
M 48.6875 27.296875 
Q 48.6875 37.203125 44.609375 42.84375 
Q 40.53125 48.484375 33.40625 48.484375 
Q 26.265625 48.484375 22.1875 42.84375 
Q 18.109375 37.203125 18.109375 27.296875 
Q 18.109375 17.390625 22.1875 11.75 
Q 26.265625 6.109375 33.40625 6.109375 
Q 40.53125 6.109375 44.609375 11.75 
Q 48.6875 17.390625 48.6875 27.296875 
z
" id="DejaVuSans-112"/>
      <path d="M 30.609375 48.390625 
Q 23.390625 48.390625 19.1875 42.75 
Q 14.984375 37.109375 14.984375 27.296875 
Q 14.984375 17.484375 19.15625 11.84375 
Q 23.34375 6.203125 30.609375 6.203125 
Q 37.796875 6.203125 41.984375 11.859375 
Q 46.1875 17.53125 46.1875 27.296875 
Q 46.1875 37.015625 41.984375 42.703125 
Q 37.796875 48.390625 30.609375 48.390625 
z
M 30.609375 56 
Q 42.328125 56 49.015625 48.375 
Q 55.71875 40.765625 55.71875 27.296875 
Q 55.71875 13.875 49.015625 6.21875 
Q 42.328125 -1.421875 30.609375 -1.421875 
Q 18.84375 -1.421875 12.171875 6.21875 
Q 5.515625 13.875 5.515625 27.296875 
Q 5.515625 40.765625 12.171875 48.375 
Q 18.84375 56 30.609375 56 
z
" id="DejaVuSans-111"/>
      <path d="M 48.78125 52.59375 
L 48.78125 44.1875 
Q 44.96875 46.296875 41.140625 47.34375 
Q 37.3125 48.390625 33.40625 48.390625 
Q 24.65625 48.390625 19.8125 42.84375 
Q 14.984375 37.3125 14.984375 27.296875 
Q 14.984375 17.28125 19.8125 11.734375 
Q 24.65625 6.203125 33.40625 6.203125 
Q 37.3125 6.203125 41.140625 7.25 
Q 44.96875 8.296875 48.78125 10.40625 
L 48.78125 2.09375 
Q 45.015625 0.34375 40.984375 -0.53125 
Q 36.96875 -1.421875 32.421875 -1.421875 
Q 20.0625 -1.421875 12.78125 6.34375 
Q 5.515625 14.109375 5.515625 27.296875 
Q 5.515625 40.671875 12.859375 48.328125 
Q 20.21875 56 33.015625 56 
Q 37.15625 56 41.109375 55.140625 
Q 45.0625 54.296875 48.78125 52.59375 
z
" id="DejaVuSans-99"/>
      <path d="M 54.890625 33.015625 
L 54.890625 0 
L 45.90625 0 
L 45.90625 32.71875 
Q 45.90625 40.484375 42.875 44.328125 
Q 39.84375 48.1875 33.796875 48.1875 
Q 26.515625 48.1875 22.3125 43.546875 
Q 18.109375 38.921875 18.109375 30.90625 
L 18.109375 0 
L 9.078125 0 
L 9.078125 75.984375 
L 18.109375 75.984375 
L 18.109375 46.1875 
Q 21.34375 51.125 25.703125 53.5625 
Q 30.078125 56 35.796875 56 
Q 45.21875 56 50.046875 50.171875 
Q 54.890625 44.34375 54.890625 33.015625 
z
" id="DejaVuSans-104"/>
     </defs>
     <g transform="translate(369.632813 365.435781)scale(0.1 -0.1)">
      <use xlink:href="#DejaVuSans-69"/>
      <use x="63.183594" xlink:href="#DejaVuSans-112"/>
      <use x="126.660156" xlink:href="#DejaVuSans-111"/>
      <use x="187.841797" xlink:href="#DejaVuSans-99"/>
      <use x="242.822266" xlink:href="#DejaVuSans-104"/>
     </g>
    </g>
   </g>
   <g id="matplotlib.axis_2">
    <g id="ytick_1">
     <g id="line2d_19">
      <path clip-path="url(#p9d76140927)" d="M 50.14375 337.159219 
L 719.74375 337.159219 
" style="fill:none;stroke:#b0b0b0;stroke-linecap:square;stroke-width:0.8;"/>
     </g>
     <g id="line2d_20">
      <defs>
       <path d="M 0 0 
L -3.5 0 
" id="me2abcf9174" style="stroke:#000000;stroke-width:0.8;"/>
      </defs>
      <g>
       <use style="stroke:#000000;stroke-width:0.8;" x="50.14375" xlink:href="#me2abcf9174" y="337.159219"/>
      </g>
     </g>
     <g id="text_11">
      <!-- 0.82 -->
      <defs>
       <path d="M 10.6875 12.40625 
L 21 12.40625 
L 21 0 
L 10.6875 0 
z
" id="DejaVuSans-46"/>
       <path d="M 31.78125 34.625 
Q 24.75 34.625 20.71875 30.859375 
Q 16.703125 27.09375 16.703125 20.515625 
Q 16.703125 13.921875 20.71875 10.15625 
Q 24.75 6.390625 31.78125 6.390625 
Q 38.8125 6.390625 42.859375 10.171875 
Q 46.921875 13.96875 46.921875 20.515625 
Q 46.921875 27.09375 42.890625 30.859375 
Q 38.875 34.625 31.78125 34.625 
z
M 21.921875 38.8125 
Q 15.578125 40.375 12.03125 44.71875 
Q 8.5 49.078125 8.5 55.328125 
Q 8.5 64.0625 14.71875 69.140625 
Q 20.953125 74.21875 31.78125 74.21875 
Q 42.671875 74.21875 48.875 69.140625 
Q 55.078125 64.0625 55.078125 55.328125 
Q 55.078125 49.078125 51.53125 44.71875 
Q 48 40.375 41.703125 38.8125 
Q 48.828125 37.15625 52.796875 32.3125 
Q 56.78125 27.484375 56.78125 20.515625 
Q 56.78125 9.90625 50.3125 4.234375 
Q 43.84375 -1.421875 31.78125 -1.421875 
Q 19.734375 -1.421875 13.25 4.234375 
Q 6.78125 9.90625 6.78125 20.515625 
Q 6.78125 27.484375 10.78125 32.3125 
Q 14.796875 37.15625 21.921875 38.8125 
z
M 18.3125 54.390625 
Q 18.3125 48.734375 21.84375 45.5625 
Q 25.390625 42.390625 31.78125 42.390625 
Q 38.140625 42.390625 41.71875 45.5625 
Q 45.3125 48.734375 45.3125 54.390625 
Q 45.3125 60.0625 41.71875 63.234375 
Q 38.140625 66.40625 31.78125 66.40625 
Q 25.390625 66.40625 21.84375 63.234375 
Q 18.3125 60.0625 18.3125 54.390625 
z
" id="DejaVuSans-56"/>
      </defs>
      <g transform="translate(20.878125 340.958437)scale(0.1 -0.1)">
       <use xlink:href="#DejaVuSans-48"/>
       <use x="63.623047" xlink:href="#DejaVuSans-46"/>
       <use x="95.410156" xlink:href="#DejaVuSans-56"/>
       <use x="159.033203" xlink:href="#DejaVuSans-50"/>
      </g>
     </g>
    </g>
    <g id="ytick_2">
     <g id="line2d_21">
      <path clip-path="url(#p9d76140927)" d="M 50.14375 296.389219 
L 719.74375 296.389219 
" style="fill:none;stroke:#b0b0b0;stroke-linecap:square;stroke-width:0.8;"/>
     </g>
     <g id="line2d_22">
      <g>
       <use style="stroke:#000000;stroke-width:0.8;" x="50.14375" xlink:href="#me2abcf9174" y="296.389219"/>
      </g>
     </g>
     <g id="text_12">
      <!-- 0.84 -->
      <g transform="translate(20.878125 300.188437)scale(0.1 -0.1)">
       <use xlink:href="#DejaVuSans-48"/>
       <use x="63.623047" xlink:href="#DejaVuSans-46"/>
       <use x="95.410156" xlink:href="#DejaVuSans-56"/>
       <use x="159.033203" xlink:href="#DejaVuSans-52"/>
      </g>
     </g>
    </g>
    <g id="ytick_3">
     <g id="line2d_23">
      <path clip-path="url(#p9d76140927)" d="M 50.14375 255.619219 
L 719.74375 255.619219 
" style="fill:none;stroke:#b0b0b0;stroke-linecap:square;stroke-width:0.8;"/>
     </g>
     <g id="line2d_24">
      <g>
       <use style="stroke:#000000;stroke-width:0.8;" x="50.14375" xlink:href="#me2abcf9174" y="255.619219"/>
      </g>
     </g>
     <g id="text_13">
      <!-- 0.86 -->
      <defs>
       <path d="M 33.015625 40.375 
Q 26.375 40.375 22.484375 35.828125 
Q 18.609375 31.296875 18.609375 23.390625 
Q 18.609375 15.53125 22.484375 10.953125 
Q 26.375 6.390625 33.015625 6.390625 
Q 39.65625 6.390625 43.53125 10.953125 
Q 47.40625 15.53125 47.40625 23.390625 
Q 47.40625 31.296875 43.53125 35.828125 
Q 39.65625 40.375 33.015625 40.375 
z
M 52.59375 71.296875 
L 52.59375 62.3125 
Q 48.875 64.0625 45.09375 64.984375 
Q 41.3125 65.921875 37.59375 65.921875 
Q 27.828125 65.921875 22.671875 59.328125 
Q 17.53125 52.734375 16.796875 39.40625 
Q 19.671875 43.65625 24.015625 45.921875 
Q 28.375 48.1875 33.59375 48.1875 
Q 44.578125 48.1875 50.953125 41.515625 
Q 57.328125 34.859375 57.328125 23.390625 
Q 57.328125 12.15625 50.6875 5.359375 
Q 44.046875 -1.421875 33.015625 -1.421875 
Q 20.359375 -1.421875 13.671875 8.265625 
Q 6.984375 17.96875 6.984375 36.375 
Q 6.984375 53.65625 15.1875 63.9375 
Q 23.390625 74.21875 37.203125 74.21875 
Q 40.921875 74.21875 44.703125 73.484375 
Q 48.484375 72.75 52.59375 71.296875 
z
" id="DejaVuSans-54"/>
      </defs>
      <g transform="translate(20.878125 259.418437)scale(0.1 -0.1)">
       <use xlink:href="#DejaVuSans-48"/>
       <use x="63.623047" xlink:href="#DejaVuSans-46"/>
       <use x="95.410156" xlink:href="#DejaVuSans-56"/>
       <use x="159.033203" xlink:href="#DejaVuSans-54"/>
      </g>
     </g>
    </g>
    <g id="ytick_4">
     <g id="line2d_25">
      <path clip-path="url(#p9d76140927)" d="M 50.14375 214.849219 
L 719.74375 214.849219 
" style="fill:none;stroke:#b0b0b0;stroke-linecap:square;stroke-width:0.8;"/>
     </g>
     <g id="line2d_26">
      <g>
       <use style="stroke:#000000;stroke-width:0.8;" x="50.14375" xlink:href="#me2abcf9174" y="214.849219"/>
      </g>
     </g>
     <g id="text_14">
      <!-- 0.88 -->
      <g transform="translate(20.878125 218.648437)scale(0.1 -0.1)">
       <use xlink:href="#DejaVuSans-48"/>
       <use x="63.623047" xlink:href="#DejaVuSans-46"/>
       <use x="95.410156" xlink:href="#DejaVuSans-56"/>
       <use x="159.033203" xlink:href="#DejaVuSans-56"/>
      </g>
     </g>
    </g>
    <g id="ytick_5">
     <g id="line2d_27">
      <path clip-path="url(#p9d76140927)" d="M 50.14375 174.079219 
L 719.74375 174.079219 
" style="fill:none;stroke:#b0b0b0;stroke-linecap:square;stroke-width:0.8;"/>
     </g>
     <g id="line2d_28">
      <g>
       <use style="stroke:#000000;stroke-width:0.8;" x="50.14375" xlink:href="#me2abcf9174" y="174.079219"/>
      </g>
     </g>
     <g id="text_15">
      <!-- 0.90 -->
      <defs>
       <path d="M 10.984375 1.515625 
L 10.984375 10.5 
Q 14.703125 8.734375 18.5 7.8125 
Q 22.3125 6.890625 25.984375 6.890625 
Q 35.75 6.890625 40.890625 13.453125 
Q 46.046875 20.015625 46.78125 33.40625 
Q 43.953125 29.203125 39.59375 26.953125 
Q 35.25 24.703125 29.984375 24.703125 
Q 19.046875 24.703125 12.671875 31.3125 
Q 6.296875 37.9375 6.296875 49.421875 
Q 6.296875 60.640625 12.9375 67.421875 
Q 19.578125 74.21875 30.609375 74.21875 
Q 43.265625 74.21875 49.921875 64.515625 
Q 56.59375 54.828125 56.59375 36.375 
Q 56.59375 19.140625 48.40625 8.859375 
Q 40.234375 -1.421875 26.421875 -1.421875 
Q 22.703125 -1.421875 18.890625 -0.6875 
Q 15.09375 0.046875 10.984375 1.515625 
z
M 30.609375 32.421875 
Q 37.25 32.421875 41.125 36.953125 
Q 45.015625 41.5 45.015625 49.421875 
Q 45.015625 57.28125 41.125 61.84375 
Q 37.25 66.40625 30.609375 66.40625 
Q 23.96875 66.40625 20.09375 61.84375 
Q 16.21875 57.28125 16.21875 49.421875 
Q 16.21875 41.5 20.09375 36.953125 
Q 23.96875 32.421875 30.609375 32.421875 
z
" id="DejaVuSans-57"/>
      </defs>
      <g transform="translate(20.878125 177.878437)scale(0.1 -0.1)">
       <use xlink:href="#DejaVuSans-48"/>
       <use x="63.623047" xlink:href="#DejaVuSans-46"/>
       <use x="95.410156" xlink:href="#DejaVuSans-57"/>
       <use x="159.033203" xlink:href="#DejaVuSans-48"/>
      </g>
     </g>
    </g>
    <g id="ytick_6">
     <g id="line2d_29">
      <path clip-path="url(#p9d76140927)" d="M 50.14375 133.309219 
L 719.74375 133.309219 
" style="fill:none;stroke:#b0b0b0;stroke-linecap:square;stroke-width:0.8;"/>
     </g>
     <g id="line2d_30">
      <g>
       <use style="stroke:#000000;stroke-width:0.8;" x="50.14375" xlink:href="#me2abcf9174" y="133.309219"/>
      </g>
     </g>
     <g id="text_16">
      <!-- 0.92 -->
      <g transform="translate(20.878125 137.108437)scale(0.1 -0.1)">
       <use xlink:href="#DejaVuSans-48"/>
       <use x="63.623047" xlink:href="#DejaVuSans-46"/>
       <use x="95.410156" xlink:href="#DejaVuSans-57"/>
       <use x="159.033203" xlink:href="#DejaVuSans-50"/>
      </g>
     </g>
    </g>
    <g id="ytick_7">
     <g id="line2d_31">
      <path clip-path="url(#p9d76140927)" d="M 50.14375 92.539219 
L 719.74375 92.539219 
" style="fill:none;stroke:#b0b0b0;stroke-linecap:square;stroke-width:0.8;"/>
     </g>
     <g id="line2d_32">
      <g>
       <use style="stroke:#000000;stroke-width:0.8;" x="50.14375" xlink:href="#me2abcf9174" y="92.539219"/>
      </g>
     </g>
     <g id="text_17">
      <!-- 0.94 -->
      <g transform="translate(20.878125 96.338437)scale(0.1 -0.1)">
       <use xlink:href="#DejaVuSans-48"/>
       <use x="63.623047" xlink:href="#DejaVuSans-46"/>
       <use x="95.410156" xlink:href="#DejaVuSans-57"/>
       <use x="159.033203" xlink:href="#DejaVuSans-52"/>
      </g>
     </g>
    </g>
    <g id="ytick_8">
     <g id="line2d_33">
      <path clip-path="url(#p9d76140927)" d="M 50.14375 51.769219 
L 719.74375 51.769219 
" style="fill:none;stroke:#b0b0b0;stroke-linecap:square;stroke-width:0.8;"/>
     </g>
     <g id="line2d_34">
      <g>
       <use style="stroke:#000000;stroke-width:0.8;" x="50.14375" xlink:href="#me2abcf9174" y="51.769219"/>
      </g>
     </g>
     <g id="text_18">
      <!-- 0.96 -->
      <g transform="translate(20.878125 55.568437)scale(0.1 -0.1)">
       <use xlink:href="#DejaVuSans-48"/>
       <use x="63.623047" xlink:href="#DejaVuSans-46"/>
       <use x="95.410156" xlink:href="#DejaVuSans-57"/>
       <use x="159.033203" xlink:href="#DejaVuSans-54"/>
      </g>
     </g>
    </g>
    <g id="ytick_9">
     <g id="line2d_35">
      <path clip-path="url(#p9d76140927)" d="M 50.14375 10.999219 
L 719.74375 10.999219 
" style="fill:none;stroke:#b0b0b0;stroke-linecap:square;stroke-width:0.8;"/>
     </g>
     <g id="line2d_36">
      <g>
       <use style="stroke:#000000;stroke-width:0.8;" x="50.14375" xlink:href="#me2abcf9174" y="10.999219"/>
      </g>
     </g>
     <g id="text_19">
      <!-- 0.98 -->
      <g transform="translate(20.878125 14.798437)scale(0.1 -0.1)">
       <use xlink:href="#DejaVuSans-48"/>
       <use x="63.623047" xlink:href="#DejaVuSans-46"/>
       <use x="95.410156" xlink:href="#DejaVuSans-57"/>
       <use x="159.033203" xlink:href="#DejaVuSans-56"/>
      </g>
     </g>
    </g>
    <g id="text_20">
     <!-- Accuracy -->
     <defs>
      <path d="M 34.1875 63.1875 
L 20.796875 26.90625 
L 47.609375 26.90625 
z
M 28.609375 72.90625 
L 39.796875 72.90625 
L 67.578125 0 
L 57.328125 0 
L 50.6875 18.703125 
L 17.828125 18.703125 
L 11.1875 0 
L 0.78125 0 
z
" id="DejaVuSans-65"/>
      <path d="M 8.5 21.578125 
L 8.5 54.6875 
L 17.484375 54.6875 
L 17.484375 21.921875 
Q 17.484375 14.15625 20.5 10.265625 
Q 23.53125 6.390625 29.59375 6.390625 
Q 36.859375 6.390625 41.078125 11.03125 
Q 45.3125 15.671875 45.3125 23.6875 
L 45.3125 54.6875 
L 54.296875 54.6875 
L 54.296875 0 
L 45.3125 0 
L 45.3125 8.40625 
Q 42.046875 3.421875 37.71875 1 
Q 33.40625 -1.421875 27.6875 -1.421875 
Q 18.265625 -1.421875 13.375 4.4375 
Q 8.5 10.296875 8.5 21.578125 
z
M 31.109375 56 
z
" id="DejaVuSans-117"/>
      <path d="M 41.109375 46.296875 
Q 39.59375 47.171875 37.8125 47.578125 
Q 36.03125 48 33.890625 48 
Q 26.265625 48 22.1875 43.046875 
Q 18.109375 38.09375 18.109375 28.8125 
L 18.109375 0 
L 9.078125 0 
L 9.078125 54.6875 
L 18.109375 54.6875 
L 18.109375 46.1875 
Q 20.953125 51.171875 25.484375 53.578125 
Q 30.03125 56 36.53125 56 
Q 37.453125 56 38.578125 55.875 
Q 39.703125 55.765625 41.0625 55.515625 
z
" id="DejaVuSans-114"/>
      <path d="M 34.28125 27.484375 
Q 23.390625 27.484375 19.1875 25 
Q 14.984375 22.515625 14.984375 16.5 
Q 14.984375 11.71875 18.140625 8.90625 
Q 21.296875 6.109375 26.703125 6.109375 
Q 34.1875 6.109375 38.703125 11.40625 
Q 43.21875 16.703125 43.21875 25.484375 
L 43.21875 27.484375 
z
M 52.203125 31.203125 
L 52.203125 0 
L 43.21875 0 
L 43.21875 8.296875 
Q 40.140625 3.328125 35.546875 0.953125 
Q 30.953125 -1.421875 24.3125 -1.421875 
Q 15.921875 -1.421875 10.953125 3.296875 
Q 6 8.015625 6 15.921875 
Q 6 25.140625 12.171875 29.828125 
Q 18.359375 34.515625 30.609375 34.515625 
L 43.21875 34.515625 
L 43.21875 35.40625 
Q 43.21875 41.609375 39.140625 45 
Q 35.0625 48.390625 27.6875 48.390625 
Q 23 48.390625 18.546875 47.265625 
Q 14.109375 46.140625 10.015625 43.890625 
L 10.015625 52.203125 
Q 14.9375 54.109375 19.578125 55.046875 
Q 24.21875 56 28.609375 56 
Q 40.484375 56 46.34375 49.84375 
Q 52.203125 43.703125 52.203125 31.203125 
z
" id="DejaVuSans-97"/>
      <path d="M 32.171875 -5.078125 
Q 28.375 -14.84375 24.75 -17.8125 
Q 21.140625 -20.796875 15.09375 -20.796875 
L 7.90625 -20.796875 
L 7.90625 -13.28125 
L 13.1875 -13.28125 
Q 16.890625 -13.28125 18.9375 -11.515625 
Q 21 -9.765625 23.484375 -3.21875 
L 25.09375 0.875 
L 2.984375 54.6875 
L 12.5 54.6875 
L 29.59375 11.921875 
L 46.6875 54.6875 
L 56.203125 54.6875 
z
" id="DejaVuSans-121"/>
     </defs>
     <g transform="translate(14.798438 196.994062)rotate(-90)scale(0.1 -0.1)">
      <use xlink:href="#DejaVuSans-65"/>
      <use x="68.392578" xlink:href="#DejaVuSans-99"/>
      <use x="123.373047" xlink:href="#DejaVuSans-99"/>
      <use x="178.353516" xlink:href="#DejaVuSans-117"/>
      <use x="241.732422" xlink:href="#DejaVuSans-114"/>
      <use x="282.845703" xlink:href="#DejaVuSans-97"/>
      <use x="344.125" xlink:href="#DejaVuSans-99"/>
      <use x="399.105469" xlink:href="#DejaVuSans-121"/>
     </g>
    </g>
   </g>
   <g id="line2d_37">
    <path clip-path="url(#p9d76140927)" d="M 108.354103 375.715469 
L 110.326822 366.19869 
L 112.874152 355.068982 
L 115.421483 345.109086 
L 117.968813 336.177446 
L 120.516143 328.132504 
L 123.063473 320.832706 
L 125.610804 314.136493 
L 128.794967 306.399368 
L 133.252795 296.261873 
L 138.347455 285.213185 
L 143.442116 274.687387 
L 148.536776 264.666267 
L 153.631437 255.131616 
L 158.726097 246.06522 
L 163.820758 237.44887 
L 168.915418 229.264353 
L 174.010079 221.493459 
L 179.10474 214.117975 
L 184.1994 207.119691 
L 189.294061 200.480395 
L 194.388721 194.181876 
L 199.483382 188.205923 
L 205.214875 181.845867 
L 210.946368 175.845079 
L 216.677861 170.179735 
L 222.409354 164.835563 
L 228.140847 159.800993 
L 233.872341 155.064458 
L 239.603834 150.61439 
L 245.335327 146.43922 
L 251.06682 142.527381 
L 256.798313 138.867305 
L 262.529806 135.447424 
L 268.898132 131.915195 
L 275.266458 128.649354 
L 281.634783 125.634031 
L 288.003109 122.853359 
L 295.008267 120.046702 
L 302.013426 117.48365 
L 309.655416 114.940607 
L 317.297407 112.634918 
L 325.576231 110.373135 
L 334.491887 108.172919 
L 344.681208 105.902912 
L 356.144194 103.583233 
L 372.701841 100.488703 
L 398.811976 95.84113 
L 423.011614 91.754659 
L 445.937586 88.101113 
L 468.226726 84.771451 
L 489.879034 81.764328 
L 510.257676 79.153926 
L 529.999486 76.841799 
L 549.741295 74.755731 
L 568.846273 72.964117 
L 587.314417 71.455523 
L 605.145729 70.217073 
L 622.977041 69.202363 
L 640.17152 68.444518 
L 657.366 67.911756 
L 673.923647 67.619268 
L 687.933963 67.546394 
L 687.933963 67.546394 
" style="fill:none;stroke:#377eb8;stroke-linecap:square;stroke-width:2;"/>
   </g>
   <g id="line2d_38">
    <path clip-path="url(#p9d76140927)" d="M 101.261289 375.715469 
L 103.321664 366.054435 
L 105.868994 355.076202 
L 108.416324 345.083393 
L 110.963655 335.996865 
L 113.510985 327.737476 
L 116.058315 320.226086 
L 118.605645 313.383552 
L 121.152976 307.130732 
L 123.700306 301.388484 
L 126.884469 294.8081 
L 130.068632 288.747252 
L 133.889627 281.953062 
L 137.710623 275.578054 
L 141.531618 269.602928 
L 145.352613 264.0104 
L 149.173609 258.78319 
L 152.994604 253.904013 
L 156.8156 249.355588 
L 160.636595 245.120632 
L 164.45759 241.181863 
L 168.278586 237.521998 
L 172.736414 233.581603 
L 177.194242 229.96986 
L 181.65207 226.659327 
L 186.109898 223.622558 
L 190.567726 220.83211 
L 195.662386 217.909439 
L 200.757047 215.231682 
L 206.48854 212.460948 
L 213.493698 209.340527 
L 221.135689 206.196501 
L 228.77768 203.30554 
L 236.419671 200.654479 
L 244.061662 198.230152 
L 252.340485 195.844392 
L 260.619309 193.69254 
L 269.534965 191.617551 
L 278.450621 189.77352 
L 288.003109 188.030314 
L 298.19243 186.407702 
L 309.018584 184.917325 
L 320.48157 183.560865 
L 333.855054 182.20815 
L 350.412701 180.775409 
L 382.891162 178.264148 
L 460.584736 172.378909 
L 492.426364 170.215868 
L 519.173332 168.615436 
L 543.37297 167.387802 
L 565.66211 166.479498 
L 586.677584 165.848546 
L 606.419394 165.480025 
L 624.887539 165.352381 
L 642.718851 165.446054 
L 659.91333 165.754 
L 676.470977 166.266608 
L 687.933963 166.752792 
L 687.933963 166.752792 
" style="fill:none;stroke:#4daf4a;stroke-linecap:square;stroke-width:2;"/>
   </g>
   <g id="line2d_39">
    <path clip-path="url(#p9d76140927)" d="M 110.913002 375.715469 
L 112.328296 371.915594 
L 113.922771 365.188642 
L 115.517247 353.620118 
L 118.706198 343.835274 
L 120.300673 341.287213 
L 121.895149 339.146797 
L 123.489625 324.469591 
L 125.0841 323.450294 
L 126.678576 318.659874 
L 128.273051 314.684747 
L 129.867527 305.868291 
L 131.462002 300.772045 
L 133.056478 300.721014 
L 134.650953 293.688237 
L 136.245429 292.414145 
L 137.839904 287.419842 
L 139.43438 281.304299 
L 141.028855 280.386943 
L 142.623331 270.602221 
L 144.217806 271.111809 
L 145.812282 266.729036 
L 147.406758 260.613493 
L 149.001233 258.727871 
L 150.595709 255.61919 
L 152.190184 255.211543 
L 153.78466 254.548982 
L 155.379135 249.758562 
L 156.973611 246.445997 
L 158.568086 241.706488 
L 160.162562 239.209336 
L 161.757037 236.966979 
L 163.351513 231.513997 
L 164.945988 234.418795 
L 166.540464 230.851436 
L 168.134939 226.825398 
L 169.729415 222.085889 
L 171.32389 221.933037 
L 172.918366 219.07915 
L 174.512842 215.155054 
L 176.107317 213.727989 
L 177.701793 209.396247 
L 179.296268 206.848064 
L 180.890744 208.020214 
L 182.485219 205.319178 
L 184.079695 198.286401 
L 185.67417 196.706605 
L 187.268646 196.859458 
L 188.863121 192.425774 
L 190.457597 198.999873 
L 192.052072 187.890027 
L 193.646548 195.78925 
L 195.241023 189.571765 
L 196.835499 185.596759 
L 198.429975 188.603499 
L 200.02445 187.482381 
L 201.618926 180.449483 
L 204.807877 183.762048 
L 206.402352 176.168651 
L 207.996828 173.977325 
L 209.591303 175.557121 
L 211.185779 178.665803 
L 212.780254 174.89456 
L 214.37473 168.524344 
L 215.969205 169.339758 
L 217.563681 164.243513 
L 219.158156 163.224215 
L 220.752632 167.657899 
L 222.347108 164.804011 
L 223.941583 161.338594 
L 225.536059 159.198178 
L 227.130534 163.784835 
L 228.72501 159.758798 
L 230.319485 156.548174 
L 231.913961 159.249088 
L 233.508436 157.924086 
L 235.102912 153.031725 
L 236.697387 150.993251 
L 238.291863 154.815405 
L 239.886338 151.400898 
L 241.480814 148.394158 
L 243.075289 147.120066 
L 244.669765 148.954656 
L 246.264241 148.445068 
L 247.858716 143.654649 
L 249.453192 147.527712 
L 251.047667 144.062295 
L 252.642143 140.138199 
L 254.236618 140.18911 
L 255.831094 138.864108 
L 257.425569 139.985347 
L 259.020045 138.252578 
L 260.61452 139.271875 
L 262.208996 137.437164 
L 263.803471 139.883405 
L 265.397947 134.328482 
L 266.992422 133.869805 
L 268.586898 137.590016 
L 270.181374 134.17563 
L 271.775849 129.996619 
L 273.370325 136.366956 
L 276.559276 130.098561 
L 278.153751 133.360216 
L 279.748227 124.900374 
L 281.342702 125.2062 
L 282.937178 126.480292 
L 284.531653 126.938848 
L 286.126129 127.805293 
L 287.720604 124.64558 
L 289.31508 126.327318 
L 290.909555 118.071481 
L 292.504031 125.664878 
L 294.098507 121.893634 
L 295.692982 116.23677 
L 297.287458 120.109955 
L 298.881933 122.352312 
L 300.476409 119.702187 
L 302.070884 120.517601 
L 303.66536 119.804129 
L 305.259835 117.969539 
L 306.854311 117.816565 
L 308.448786 119.039747 
L 310.043262 119.294541 
L 311.637737 116.542595 
L 313.232213 117.358009 
L 314.826688 117.45983 
L 316.421164 112.924204 
L 318.01564 114.249206 
L 319.610115 114.809826 
L 321.204591 114.249206 
L 322.799066 110.019406 
L 324.393542 115.268504 
L 325.988017 113.484824 
L 327.582493 114.809826 
L 329.176968 112.210732 
L 330.771444 108.184695 
L 332.365919 107.777049 
L 333.960395 110.732878 
L 335.55487 107.726017 
L 337.149346 111.395318 
L 338.743821 108.898167 
L 340.338297 108.439489 
L 341.932773 101.049976 
L 343.527248 108.184695 
L 345.121724 107.216429 
L 346.716199 106.09519 
L 348.310675 106.350105 
L 349.90515 106.09519 
L 351.499626 101.814358 
L 353.094101 106.604899 
L 354.688577 100.642208 
L 356.283052 106.401015 
L 357.877528 103.903864 
L 359.472003 99.215265 
L 361.066479 100.846092 
L 364.25543 102.731714 
L 365.849905 102.833656 
L 367.444381 105.279897 
L 369.038857 98.756587 
L 370.633332 105.738454 
L 372.227808 95.138317 
L 373.822283 101.25386 
L 375.416759 99.266296 
L 377.011234 103.69998 
L 378.60571 98.094147 
L 380.200185 96.921997 
L 381.794661 97.533527 
L 383.389136 99.775884 
L 384.983612 99.062413 
L 386.578087 95.698937 
L 388.172563 95.087285 
L 389.767038 94.170051 
L 391.361514 92.182488 
L 392.95599 95.138317 
L 394.550465 98.756587 
L 396.144941 93.456579 
L 397.739416 94.628729 
L 399.333892 90.908396 
L 400.928367 95.851789 
L 402.522843 95.647905 
L 404.117318 94.017078 
L 405.711794 96.157615 
L 407.306269 90.55166 
L 408.900745 92.845049 
L 410.49522 91.16319 
L 412.089696 92.539224 
L 413.684171 91.367074 
L 415.278647 93.405548 
L 416.873123 92.794018 
L 418.467598 92.488313 
L 420.062074 92.743107 
L 421.656549 84.589091 
L 423.251025 91.978604 
L 424.8455 90.602692 
L 426.439976 88.76798 
L 428.034451 90.55166 
L 429.628927 89.685336 
L 431.223402 86.93339 
L 432.817878 89.787278 
L 434.412353 85.608267 
L 436.006829 89.37951 
L 437.601304 88.920832 
L 439.19578 88.258392 
L 440.790256 88.258392 
L 442.384731 88.10554 
L 443.979207 88.819012 
L 445.573682 85.608267 
L 447.168158 85.404505 
L 448.762633 85.914093 
L 450.357109 87.850625 
L 451.951584 88.564097 
L 453.54606 82.754379 
L 455.140535 85.149711 
L 456.735011 86.270829 
L 458.329486 86.678475 
L 459.923962 83.518883 
L 461.518437 85.404505 
L 463.112913 81.735203 
L 464.707389 84.538059 
L 466.301864 82.958263 
L 467.89634 87.391947 
L 469.490815 81.989997 
L 471.085291 87.391947 
L 472.679766 85.404505 
L 474.274242 79.339872 
L 475.868717 82.805411 
L 477.463193 80.664996 
L 479.057668 84.792975 
L 480.652144 77.658134 
L 482.246619 86.882359 
L 483.841095 82.193881 
L 485.43557 82.244791 
L 487.030046 78.983136 
L 488.624522 82.14285 
L 490.218997 83.060205 
L 491.813473 74.549453 
L 495.002424 86.678475 
L 496.596899 82.907353 
L 498.191375 83.162147 
L 499.78585 75.823544 
L 501.380326 79.034168 
L 502.974801 79.645698 
L 504.569277 81.072642 
L 506.163752 80.868758 
L 507.758228 83.009174 
L 509.352703 81.174584 
L 510.947179 80.817848 
L 512.541655 77.301398 
L 514.13613 78.473548 
L 515.730606 77.607224 
L 517.325081 79.900492 
L 518.919557 76.537016 
L 520.514032 81.684172 
L 522.108508 77.250488 
L 525.297459 79.74764 
L 526.891934 79.79855 
L 528.48641 73.581187 
L 530.080885 77.40334 
L 531.675361 73.785071 
L 533.269836 74.447511 
L 534.864312 77.046604 
L 536.458788 76.689868 
L 538.053263 76.842721 
L 539.647739 78.6264 
L 541.242214 72.154243 
L 542.83669 72.765773 
L 544.431165 72.816683 
L 546.025641 75.110073 
L 547.620116 78.01487 
L 549.214592 75.110073 
L 550.809067 73.988833 
L 552.403543 76.893752 
L 553.998018 76.231191 
L 555.592494 70.829241 
L 557.186969 70.21759 
L 558.781445 71.644533 
L 560.37592 71.440771 
L 561.970396 73.581187 
L 563.564872 74.345569 
L 565.159347 77.35243 
L 566.753823 73.071599 
L 568.348298 73.173419 
L 569.942774 73.937923 
L 571.537249 75.823544 
L 573.131725 75.619661 
L 574.7262 75.110073 
L 576.320676 68.892588 
L 579.509627 79.085078 
L 582.698578 70.676268 
L 584.293053 72.256185 
L 585.887529 78.116812 
L 587.482005 71.746475 
L 589.07648 74.600363 
L 590.670956 70.523415 
L 592.265431 73.071599 
L 593.859907 70.676268 
L 595.454382 71.236887 
L 597.048858 68.179116 
L 598.643333 72.001391 
L 600.237809 73.428335 
L 601.832284 69.962796 
L 603.42676 69.147382 
L 605.021235 73.275361 
L 606.615711 71.950359 
L 608.210186 67.618496 
L 609.804662 72.459947 
L 611.399138 71.593623 
L 612.993613 68.99453 
L 614.588089 70.727299 
L 616.182564 69.300355 
L 617.77704 70.574326 
L 619.371515 69.198414 
L 620.965991 70.268621 
L 622.560466 73.173419 
L 625.749417 68.33209 
L 627.343893 64.917582 
L 628.938368 68.688826 
L 630.532844 69.402297 
L 632.127319 69.453208 
L 633.721795 69.657091 
L 635.316271 66.497378 
L 636.910746 70.370563 
L 638.505222 68.586884 
L 640.099697 68.33209 
L 641.694173 72.714863 
L 643.288648 63.235723 
L 644.883124 67.618496 
L 646.477599 68.99453 
L 648.072075 64.458904 
L 649.66655 67.82238 
L 651.261026 69.249324 
L 652.855501 67.567586 
L 654.449977 62.726135 
L 656.044452 71.491681 
L 657.638928 70.115769 
L 659.233404 70.523415 
L 660.827879 67.516676 
L 662.422355 67.006966 
L 664.01683 66.344526 
L 665.611306 66.497378 
L 667.205781 65.070434 
L 668.800257 67.82238 
L 670.394732 64.81564 
L 671.989208 65.325228 
L 673.583683 66.752172 
L 675.178159 68.94362 
L 676.772634 68.230148 
L 678.36711 66.140642 
L 679.961585 67.873412 
L 683.150537 66.446468 
L 684.745012 64.764609 
L 686.339488 69.504118 
L 687.933963 67.057998 
L 687.933963 67.057998 
" style="fill:none;stroke:#377eb8;stroke-linecap:square;stroke-opacity:0.25098;stroke-width:1.5;"/>
   </g>
   <g id="line2d_40">
    <path clip-path="url(#p9d76140927)" d="M 101.06423 375.715469 
L 101.166967 374.195253 
L 102.241023 375.715469 
M 102.888657 375.715469 
L 104.355918 367.219704 
L 105.950394 350.191152 
L 107.544869 364.962888 
L 109.139345 339.93305 
L 110.73382 345.677641 
L 112.328296 343.215604 
L 113.922771 306.491485 
L 115.517247 313.672132 
L 117.111722 330.905905 
L 118.706198 305.055307 
L 120.300673 304.029448 
L 121.895149 306.901804 
L 123.489625 293.361026 
L 125.0841 298.284979 
L 126.678576 275.922155 
L 128.273051 288.847393 
L 129.867527 290.078351 
L 131.462002 275.511836 
L 133.056478 275.716935 
L 134.650953 301.362312 
L 136.245429 259.714241 
L 137.839904 284.53898 
L 139.43438 274.485977 
L 141.028855 266.68979 
L 142.623331 255.611049 
L 144.217806 274.485977 
L 145.812282 273.870559 
L 147.406758 260.53488 
L 149.001233 256.226467 
L 150.595709 261.150419 
L 152.190184 247.199322 
L 153.78466 238.992816 
L 155.379135 249.250918 
L 156.973611 248.840599 
L 158.568086 247.404543 
L 160.162562 242.890909 
L 161.757037 241.249632 
L 163.351513 233.248225 
L 164.945988 244.942506 
L 166.540464 238.377276 
L 168.134939 246.789003 
L 169.729415 236.94122 
L 171.32389 232.837906 
L 172.918366 255.816148 
L 174.512842 211.706161 
L 176.107317 232.427587 
L 177.701793 231.196629 
L 179.296268 231.401728 
L 180.890744 230.581089 
L 182.485219 226.477897 
L 184.079695 218.886809 
L 185.67417 226.888216 
L 187.268646 222.169484 
L 188.863121 229.145033 
L 190.457597 219.502348 
L 192.052072 223.400442 
L 193.646548 221.964264 
L 195.241023 223.400442 
L 196.835499 222.169484 
L 198.429975 210.475082 
L 200.02445 213.757757 
L 201.618926 218.476489 
L 203.213401 225.452038 
L 204.807877 216.629992 
L 206.402352 219.502348 
L 207.996828 204.115073 
L 209.591303 219.912668 
L 211.185779 210.885523 
L 212.780254 210.269983 
L 214.37473 210.475082 
L 215.969205 206.576988 
L 217.563681 209.039025 
L 219.158156 205.96157 
L 220.752632 210.269983 
L 222.347108 207.397748 
L 223.941583 198.780801 
L 225.536059 219.707447 
L 227.130534 217.861071 
L 230.319485 197.344745 
L 231.913961 195.293027 
L 233.508436 193.65175 
L 235.102912 207.192528 
L 236.697387 193.446651 
L 238.291863 206.987429 
L 239.886338 193.036332 
L 241.480814 203.909974 
L 243.075289 194.472389 
L 244.669765 198.575703 
L 246.264241 186.265882 
L 247.858716 192.626013 
L 249.453192 208.218387 
L 251.047667 191.600154 
L 252.642143 200.627299 
L 254.236618 194.677609 
L 255.831094 205.346031 
L 257.425569 194.677609 
L 259.020045 190.369196 
L 260.61452 193.241431 
L 262.208996 205.75635 
L 263.803471 182.778108 
L 265.397947 189.753657 
L 266.992422 189.753657 
L 268.586898 203.909974 
L 270.181374 181.136831 
L 271.775849 186.060784 
L 273.370325 201.653158 
L 274.9648 183.188427 
L 276.559276 189.343337 
L 278.153751 188.317479 
L 279.748227 186.676202 
L 281.342702 187.907159 
L 282.937178 193.036332 
L 284.531653 190.984614 
L 286.126129 186.471103 
L 287.720604 188.727919 
L 289.31508 177.443837 
L 290.909555 172.314785 
L 292.504031 186.676202 
L 294.098507 179.290334 
L 295.692982 180.110972 
L 297.287458 176.828418 
L 298.881933 191.600154 
L 300.476409 190.163976 
L 302.070884 174.201743 
L 303.66536 179.700653 
L 305.259835 188.933018 
L 306.854311 181.95747 
L 308.448786 188.317479 
L 310.043262 185.855563 
L 311.637737 182.16269 
L 313.232213 187.49684 
L 314.826688 180.110972 
L 316.421164 190.779516 
L 318.01564 182.573009 
L 319.610115 188.11238 
L 321.204591 185.650464 
L 322.799066 186.060784 
L 324.393542 183.803967 
L 325.988017 184.214286 
L 327.582493 180.931611 
L 329.176968 181.752371 
L 330.771444 180.316193 
L 332.365919 186.881422 
L 333.960395 185.034925 
L 335.55487 181.54715 
L 337.149346 168.827011 
L 338.743821 188.11238 
L 340.338297 179.290334 
L 341.932773 179.700653 
L 343.527248 179.085235 
L 345.121724 176.828418 
L 346.716199 179.905873 
L 348.310675 178.880015 
L 349.90515 195.908567 
L 351.499626 182.367789 
L 353.094101 176.828418 
L 354.688577 179.905873 
L 356.283052 177.649057 
L 357.877528 189.343337 
L 359.472003 178.059376 
L 361.066479 183.393648 
L 362.660954 179.290334 
L 365.849905 176.828418 
L 367.444381 188.11238 
L 369.038857 185.034925 
L 370.633332 176.418099 
L 372.227808 171.289048 
L 375.416759 182.573009 
L 377.011234 183.598747 
L 378.60571 174.571602 
L 380.200185 171.699367 
L 381.794661 180.110972 
L 383.389136 172.520006 
L 384.983612 183.393648 
L 386.578087 177.854277 
L 388.172563 176.418099 
L 389.767038 181.34193 
L 391.361514 176.828418 
L 392.95599 170.468409 
L 394.550465 178.469695 
L 396.144941 182.778108 
L 397.739416 184.009066 
L 400.928367 177.649057 
L 402.522843 177.443837 
L 404.117318 158.979228 
L 405.711794 171.699367 
L 407.306269 168.006373 
L 408.900745 176.623198 
L 410.49522 191.600154 
L 412.089696 170.878729 
L 413.684171 178.469695 
L 415.278647 189.958877 
L 416.873123 180.521292 
L 418.467598 168.827011 
L 420.062074 175.187141 
L 421.656549 172.930325 
L 423.251025 165.749556 
L 424.8455 178.674916 
L 426.439976 169.032231 
L 428.034451 178.264596 
L 429.628927 165.544457 
L 431.223402 180.726512 
L 432.817878 176.623198 
L 434.412353 169.032231 
L 436.006829 171.904466 
L 437.601304 176.828418 
L 439.19578 172.725105 
L 440.790256 165.544457 
L 443.979207 184.624605 
L 445.573682 168.827011 
L 447.168158 185.240145 
L 448.762633 172.109686 
L 450.357109 176.212879 
L 451.951584 179.905873 
L 453.54606 168.621912 
L 455.140535 167.185734 
L 456.735011 180.110972 
L 458.329486 173.135424 
L 459.923962 169.85287 
L 461.518437 168.006373 
L 463.112913 180.521292 
L 464.707389 166.365096 
L 466.301864 169.442551 
L 467.89634 166.365096 
L 469.490815 172.109686 
L 471.085291 168.827011 
L 472.679766 174.161283 
L 474.274242 175.39224 
L 475.868717 170.878729 
L 477.463193 171.289048 
L 479.057668 175.80256 
L 480.652144 173.135424 
L 482.246619 178.059376 
L 483.841095 165.544457 
L 485.43557 170.057969 
L 487.030046 178.059376 
L 488.624522 169.442551 
L 490.218997 173.340644 
L 491.813473 173.956062 
L 493.407948 170.263189 
L 495.002424 184.624605 
L 496.596899 169.647649 
L 498.191375 170.057969 
L 499.78585 165.544457 
L 501.380326 170.468409 
L 502.974801 168.621912 
L 504.569277 167.390954 
L 506.163752 174.366503 
L 507.758228 171.083828 
L 509.352703 168.827011 
L 510.947179 172.930325 
L 512.541655 166.980635 
L 514.13613 173.135424 
L 515.730606 169.647649 
L 517.325081 162.056683 
L 518.919557 170.878729 
L 520.514032 174.776822 
L 522.108508 156.312092 
L 523.702983 165.339237 
L 525.297459 170.468409 
L 526.891934 173.340644 
L 528.48641 169.85287 
L 530.080885 163.90318 
L 531.675361 169.647649 
L 533.269836 167.596053 
L 534.864312 175.187141 
L 536.458788 166.570194 
L 538.053263 165.954776 
L 539.647739 164.518598 
L 541.242214 178.674916 
L 542.83669 172.725105 
L 544.431165 155.901773 
L 546.025641 162.261782 
L 547.620116 158.363688 
L 549.214592 160.415406 
L 550.809067 161.851462 
L 552.403543 166.034604 
L 553.998018 164.928917 
L 555.592494 177.238738 
L 557.186969 170.057969 
L 558.781445 168.211593 
L 560.37592 174.981921 
L 561.970396 166.570194 
L 563.564872 160.415406 
L 565.159347 178.880015 
L 566.753823 162.877321 
L 568.348298 168.006373 
L 569.942774 162.877321 
L 571.537249 163.287641 
L 573.131725 170.468409 
L 574.7262 168.006373 
L 576.320676 159.799866 
L 577.915151 170.878729 
L 579.509627 177.033517 
L 581.104102 158.568909 
L 582.698578 163.90318 
L 584.293053 162.672101 
L 585.887529 150.567501 
L 587.482005 159.184327 
L 589.07648 160.210185 
L 592.265431 159.389547 
L 593.859907 161.441143 
L 595.454382 160.825725 
L 597.048858 172.930325 
L 598.643333 176.418099 
L 600.237809 149.336543 
L 601.832284 166.159875 
L 603.42676 170.673508 
L 605.021235 163.492861 
L 606.615711 164.108279 
L 608.210186 178.059376 
L 609.804662 163.492861 
L 611.399138 168.006373 
L 612.993613 155.081134 
L 614.588089 153.644956 
L 616.182564 169.032231 
L 617.77704 157.953369 
L 619.371515 171.699367 
L 620.965991 169.647649 
L 622.560466 153.029538 
L 624.154942 165.954776 
L 625.749417 175.187141 
L 627.343893 166.159875 
L 628.938368 166.980635 
L 630.532844 166.980635 
L 632.127319 158.568909 
L 633.721795 177.649057 
L 635.316271 173.750963 
L 636.910746 166.365096 
L 638.505222 163.492861 
L 640.099697 158.568909 
L 641.694173 177.443837 
L 643.288648 178.469695 
L 644.883124 154.670815 
L 646.477599 174.161283 
L 648.072075 161.030824 
L 649.66655 162.672101 
L 651.261026 154.875914 
L 652.855501 166.980635 
L 654.449977 182.983328 
L 656.044452 164.108279 
L 657.638928 167.185734 
L 659.233404 166.570194 
L 660.827879 161.851462 
L 662.422355 160.415406 
L 664.01683 177.238738 
L 665.611306 162.261782 
L 667.205781 157.337951 
L 668.800257 169.032231 
L 670.394732 164.313499 
L 671.989208 154.670815 
L 673.583683 171.083828 
L 675.178159 169.032231 
L 676.772634 163.287641 
L 678.36711 166.159875 
L 679.961585 148.926224 
L 681.556061 163.492861 
L 683.150537 175.187141 
L 684.745012 175.80256 
L 686.339488 160.415406 
L 687.933963 180.110972 
L 687.933963 180.110972 
" style="fill:none;stroke:#4daf4a;stroke-linecap:square;stroke-opacity:0.25098;stroke-width:1.5;"/>
   </g>
   <g id="patch_3">
    <path d="M 50.14375 337.159219 
L 50.14375 10.999219 
" style="fill:none;stroke:#000000;stroke-linecap:square;stroke-linejoin:miter;stroke-width:0.8;"/>
   </g>
   <g id="patch_4">
    <path d="M 719.74375 337.159219 
L 719.74375 10.999219 
" style="fill:none;stroke:#000000;stroke-linecap:square;stroke-linejoin:miter;stroke-width:0.8;"/>
   </g>
   <g id="patch_5">
    <path d="M 50.14375 337.159219 
L 719.74375 337.159219 
" style="fill:none;stroke:#000000;stroke-linecap:square;stroke-linejoin:miter;stroke-width:0.8;"/>
   </g>
   <g id="patch_6">
    <path d="M 50.14375 10.999219 
L 719.74375 10.999219 
" style="fill:none;stroke:#000000;stroke-linecap:square;stroke-linejoin:miter;stroke-width:0.8;"/>
   </g>
   <g id="legend_1">
    <g id="patch_7">
     <path d="M 57.14375 48.355469 
L 114.584375 48.355469 
Q 116.584375 48.355469 116.584375 46.355469 
L 116.584375 17.999219 
Q 116.584375 15.999219 114.584375 15.999219 
L 57.14375 15.999219 
Q 55.14375 15.999219 55.14375 17.999219 
L 55.14375 46.355469 
Q 55.14375 48.355469 57.14375 48.355469 
z
" style="fill:#ffffff;opacity:0.8;stroke:#cccccc;stroke-linejoin:miter;"/>
    </g>
    <g id="line2d_41">
     <path d="M 59.14375 24.097656 
L 79.14375 24.097656 
" style="fill:none;stroke:#377eb8;stroke-linecap:square;stroke-width:2;"/>
    </g>
    <g id="line2d_42"/>
    <g id="text_21">
     <!-- Train -->
     <defs>
      <path d="M -0.296875 72.90625 
L 61.375 72.90625 
L 61.375 64.59375 
L 35.5 64.59375 
L 35.5 0 
L 25.59375 0 
L 25.59375 64.59375 
L -0.296875 64.59375 
z
" id="DejaVuSans-84"/>
      <path d="M 9.421875 54.6875 
L 18.40625 54.6875 
L 18.40625 0 
L 9.421875 0 
z
M 9.421875 75.984375 
L 18.40625 75.984375 
L 18.40625 64.59375 
L 9.421875 64.59375 
z
" id="DejaVuSans-105"/>
      <path d="M 54.890625 33.015625 
L 54.890625 0 
L 45.90625 0 
L 45.90625 32.71875 
Q 45.90625 40.484375 42.875 44.328125 
Q 39.84375 48.1875 33.796875 48.1875 
Q 26.515625 48.1875 22.3125 43.546875 
Q 18.109375 38.921875 18.109375 30.90625 
L 18.109375 0 
L 9.078125 0 
L 9.078125 54.6875 
L 18.109375 54.6875 
L 18.109375 46.1875 
Q 21.34375 51.125 25.703125 53.5625 
Q 30.078125 56 35.796875 56 
Q 45.21875 56 50.046875 50.171875 
Q 54.890625 44.34375 54.890625 33.015625 
z
" id="DejaVuSans-110"/>
     </defs>
     <g transform="translate(87.14375 27.597656)scale(0.1 -0.1)">
      <use xlink:href="#DejaVuSans-84"/>
      <use x="60.865234" xlink:href="#DejaVuSans-114"/>
      <use x="101.978516" xlink:href="#DejaVuSans-97"/>
      <use x="163.257812" xlink:href="#DejaVuSans-105"/>
      <use x="191.041016" xlink:href="#DejaVuSans-110"/>
     </g>
    </g>
    <g id="line2d_43">
     <path d="M 59.14375 38.775781 
L 79.14375 38.775781 
" style="fill:none;stroke:#4daf4a;stroke-linecap:square;stroke-width:2;"/>
    </g>
    <g id="line2d_44"/>
    <g id="text_22">
     <!-- Test -->
     <defs>
      <path d="M 56.203125 29.59375 
L 56.203125 25.203125 
L 14.890625 25.203125 
Q 15.484375 15.921875 20.484375 11.0625 
Q 25.484375 6.203125 34.421875 6.203125 
Q 39.59375 6.203125 44.453125 7.46875 
Q 49.3125 8.734375 54.109375 11.28125 
L 54.109375 2.78125 
Q 49.265625 0.734375 44.1875 -0.34375 
Q 39.109375 -1.421875 33.890625 -1.421875 
Q 20.796875 -1.421875 13.15625 6.1875 
Q 5.515625 13.8125 5.515625 26.8125 
Q 5.515625 40.234375 12.765625 48.109375 
Q 20.015625 56 32.328125 56 
Q 43.359375 56 49.78125 48.890625 
Q 56.203125 41.796875 56.203125 29.59375 
z
M 47.21875 32.234375 
Q 47.125 39.59375 43.09375 43.984375 
Q 39.0625 48.390625 32.421875 48.390625 
Q 24.90625 48.390625 20.390625 44.140625 
Q 15.875 39.890625 15.1875 32.171875 
z
" id="DejaVuSans-101"/>
      <path d="M 44.28125 53.078125 
L 44.28125 44.578125 
Q 40.484375 46.53125 36.375 47.5 
Q 32.28125 48.484375 27.875 48.484375 
Q 21.1875 48.484375 17.84375 46.4375 
Q 14.5 44.390625 14.5 40.28125 
Q 14.5 37.15625 16.890625 35.375 
Q 19.28125 33.59375 26.515625 31.984375 
L 29.59375 31.296875 
Q 39.15625 29.25 43.1875 25.515625 
Q 47.21875 21.78125 47.21875 15.09375 
Q 47.21875 7.46875 41.1875 3.015625 
Q 35.15625 -1.421875 24.609375 -1.421875 
Q 20.21875 -1.421875 15.453125 -0.5625 
Q 10.6875 0.296875 5.421875 2 
L 5.421875 11.28125 
Q 10.40625 8.6875 15.234375 7.390625 
Q 20.0625 6.109375 24.8125 6.109375 
Q 31.15625 6.109375 34.5625 8.28125 
Q 37.984375 10.453125 37.984375 14.40625 
Q 37.984375 18.0625 35.515625 20.015625 
Q 33.0625 21.96875 24.703125 23.78125 
L 21.578125 24.515625 
Q 13.234375 26.265625 9.515625 29.90625 
Q 5.8125 33.546875 5.8125 39.890625 
Q 5.8125 47.609375 11.28125 51.796875 
Q 16.75 56 26.8125 56 
Q 31.78125 56 36.171875 55.265625 
Q 40.578125 54.546875 44.28125 53.078125 
z
" id="DejaVuSans-115"/>
      <path d="M 18.3125 70.21875 
L 18.3125 54.6875 
L 36.8125 54.6875 
L 36.8125 47.703125 
L 18.3125 47.703125 
L 18.3125 18.015625 
Q 18.3125 11.328125 20.140625 9.421875 
Q 21.96875 7.515625 27.59375 7.515625 
L 36.8125 7.515625 
L 36.8125 0 
L 27.59375 0 
Q 17.1875 0 13.234375 3.875 
Q 9.28125 7.765625 9.28125 18.015625 
L 9.28125 47.703125 
L 2.6875 47.703125 
L 2.6875 54.6875 
L 9.28125 54.6875 
L 9.28125 70.21875 
z
" id="DejaVuSans-116"/>
     </defs>
     <g transform="translate(87.14375 42.275781)scale(0.1 -0.1)">
      <use xlink:href="#DejaVuSans-84"/>
      <use x="60.818359" xlink:href="#DejaVuSans-101"/>
      <use x="122.341797" xlink:href="#DejaVuSans-115"/>
      <use x="174.441406" xlink:href="#DejaVuSans-116"/>
     </g>
    </g>
   </g>
  </g>
 </g>
 <defs>
  <clipPath id="p9d76140927">
   <rect height="326.16" width="669.6" x="50.14375" y="10.999219"/>
  </clipPath>
 </defs>
</svg>
