<?xml version="1.0" encoding="utf-8" standalone="no"?>
<!DOCTYPE svg PUBLIC "-//W3C//DTD SVG 1.1//EN"
  "http://www.w3.org/Graphics/SVG/1.1/DTD/svg11.dtd">
<!-- Created with matplotlib (https://matplotlib.org/) -->
<svg height="374.715469pt" version="1.1" viewBox="0 0 726.94375 374.715469" width="726.94375pt" xmlns="http://www.w3.org/2000/svg" xmlns:xlink="http://www.w3.org/1999/xlink">
 <defs>
  <style type="text/css">
*{stroke-linecap:butt;stroke-linejoin:round;white-space:pre;}
  </style>
 </defs>
 <g id="figure_1">
  <g id="patch_1">
   <path d="M 0 374.715469 
L 726.94375 374.715469 
L 726.94375 0 
L 0 0 
z
" style="fill:#ffffff;"/>
  </g>
  <g id="axes_1">
   <g id="patch_2">
    <path d="M 50.14375 337.159219 
L 719.74375 337.159219 
L 719.74375 10.999219 
L 50.14375 10.999219 
z
" style="fill:#ffffff;"/>
   </g>
   <g id="matplotlib.axis_1">
    <g id="xtick_1">
     <g id="line2d_1">
      <path clip-path="url(#pf6088d5ac3)" d="M 50.14375 337.159219 
L 50.14375 10.999219 
" style="fill:none;stroke:#b0b0b0;stroke-linecap:square;stroke-width:0.8;"/>
     </g>
     <g id="line2d_2">
      <defs>
       <path d="M 0 0 
L 0 3.5 
" id="m21c234722f" style="stroke:#000000;stroke-width:0.8;"/>
      </defs>
      <g>
       <use style="stroke:#000000;stroke-width:0.8;" x="50.14375" xlink:href="#m21c234722f" y="337.159219"/>
      </g>
     </g>
     <g id="text_1">
      <!-- 0 -->
      <defs>
       <path d="M 31.78125 66.40625 
Q 24.171875 66.40625 20.328125 58.90625 
Q 16.5 51.421875 16.5 36.375 
Q 16.5 21.390625 20.328125 13.890625 
Q 24.171875 6.390625 31.78125 6.390625 
Q 39.453125 6.390625 43.28125 13.890625 
Q 47.125 21.390625 47.125 36.375 
Q 47.125 51.421875 43.28125 58.90625 
Q 39.453125 66.40625 31.78125 66.40625 
z
M 31.78125 74.21875 
Q 44.046875 74.21875 50.515625 64.515625 
Q 56.984375 54.828125 56.984375 36.375 
Q 56.984375 17.96875 50.515625 8.265625 
Q 44.046875 -1.421875 31.78125 -1.421875 
Q 19.53125 -1.421875 13.0625 8.265625 
Q 6.59375 17.96875 6.59375 36.375 
Q 6.59375 54.828125 13.0625 64.515625 
Q 19.53125 74.21875 31.78125 74.21875 
z
" id="DejaVuSans-48"/>
      </defs>
      <g transform="translate(46.9625 351.757656)scale(0.1 -0.1)">
       <use xlink:href="#DejaVuSans-48"/>
      </g>
     </g>
    </g>
    <g id="xtick_2">
     <g id="line2d_3">
      <path clip-path="url(#pf6088d5ac3)" d="M 156.4379 337.159219 
L 156.4379 10.999219 
" style="fill:none;stroke:#b0b0b0;stroke-linecap:square;stroke-width:0.8;"/>
     </g>
     <g id="line2d_4">
      <g>
       <use style="stroke:#000000;stroke-width:0.8;" x="156.4379" xlink:href="#m21c234722f" y="337.159219"/>
      </g>
     </g>
     <g id="text_2">
      <!-- 100 -->
      <defs>
       <path d="M 12.40625 8.296875 
L 28.515625 8.296875 
L 28.515625 63.921875 
L 10.984375 60.40625 
L 10.984375 69.390625 
L 28.421875 72.90625 
L 38.28125 72.90625 
L 38.28125 8.296875 
L 54.390625 8.296875 
L 54.390625 0 
L 12.40625 0 
z
" id="DejaVuSans-49"/>
      </defs>
      <g transform="translate(146.89415 351.757656)scale(0.1 -0.1)">
       <use xlink:href="#DejaVuSans-49"/>
       <use x="63.623047" xlink:href="#DejaVuSans-48"/>
       <use x="127.246094" xlink:href="#DejaVuSans-48"/>
      </g>
     </g>
    </g>
    <g id="xtick_3">
     <g id="line2d_5">
      <path clip-path="url(#pf6088d5ac3)" d="M 262.732051 337.159219 
L 262.732051 10.999219 
" style="fill:none;stroke:#b0b0b0;stroke-linecap:square;stroke-width:0.8;"/>
     </g>
     <g id="line2d_6">
      <g>
       <use style="stroke:#000000;stroke-width:0.8;" x="262.732051" xlink:href="#m21c234722f" y="337.159219"/>
      </g>
     </g>
     <g id="text_3">
      <!-- 200 -->
      <defs>
       <path d="M 19.1875 8.296875 
L 53.609375 8.296875 
L 53.609375 0 
L 7.328125 0 
L 7.328125 8.296875 
Q 12.9375 14.109375 22.625 23.890625 
Q 32.328125 33.6875 34.8125 36.53125 
Q 39.546875 41.84375 41.421875 45.53125 
Q 43.3125 49.21875 43.3125 52.78125 
Q 43.3125 58.59375 39.234375 62.25 
Q 35.15625 65.921875 28.609375 65.921875 
Q 23.96875 65.921875 18.8125 64.3125 
Q 13.671875 62.703125 7.8125 59.421875 
L 7.8125 69.390625 
Q 13.765625 71.78125 18.9375 73 
Q 24.125 74.21875 28.421875 74.21875 
Q 39.75 74.21875 46.484375 68.546875 
Q 53.21875 62.890625 53.21875 53.421875 
Q 53.21875 48.921875 51.53125 44.890625 
Q 49.859375 40.875 45.40625 35.40625 
Q 44.1875 33.984375 37.640625 27.21875 
Q 31.109375 20.453125 19.1875 8.296875 
z
" id="DejaVuSans-50"/>
      </defs>
      <g transform="translate(253.188301 351.757656)scale(0.1 -0.1)">
       <use xlink:href="#DejaVuSans-50"/>
       <use x="63.623047" xlink:href="#DejaVuSans-48"/>
       <use x="127.246094" xlink:href="#DejaVuSans-48"/>
      </g>
     </g>
    </g>
    <g id="xtick_4">
     <g id="line2d_7">
      <path clip-path="url(#pf6088d5ac3)" d="M 369.026201 337.159219 
L 369.026201 10.999219 
" style="fill:none;stroke:#b0b0b0;stroke-linecap:square;stroke-width:0.8;"/>
     </g>
     <g id="line2d_8">
      <g>
       <use style="stroke:#000000;stroke-width:0.8;" x="369.026201" xlink:href="#m21c234722f" y="337.159219"/>
      </g>
     </g>
     <g id="text_4">
      <!-- 300 -->
      <defs>
       <path d="M 40.578125 39.3125 
Q 47.65625 37.796875 51.625 33 
Q 55.609375 28.21875 55.609375 21.1875 
Q 55.609375 10.40625 48.1875 4.484375 
Q 40.765625 -1.421875 27.09375 -1.421875 
Q 22.515625 -1.421875 17.65625 -0.515625 
Q 12.796875 0.390625 7.625 2.203125 
L 7.625 11.71875 
Q 11.71875 9.328125 16.59375 8.109375 
Q 21.484375 6.890625 26.8125 6.890625 
Q 36.078125 6.890625 40.9375 10.546875 
Q 45.796875 14.203125 45.796875 21.1875 
Q 45.796875 27.640625 41.28125 31.265625 
Q 36.765625 34.90625 28.71875 34.90625 
L 20.21875 34.90625 
L 20.21875 43.015625 
L 29.109375 43.015625 
Q 36.375 43.015625 40.234375 45.921875 
Q 44.09375 48.828125 44.09375 54.296875 
Q 44.09375 59.90625 40.109375 62.90625 
Q 36.140625 65.921875 28.71875 65.921875 
Q 24.65625 65.921875 20.015625 65.03125 
Q 15.375 64.15625 9.8125 62.3125 
L 9.8125 71.09375 
Q 15.4375 72.65625 20.34375 73.4375 
Q 25.25 74.21875 29.59375 74.21875 
Q 40.828125 74.21875 47.359375 69.109375 
Q 53.90625 64.015625 53.90625 55.328125 
Q 53.90625 49.265625 50.4375 45.09375 
Q 46.96875 40.921875 40.578125 39.3125 
z
" id="DejaVuSans-51"/>
      </defs>
      <g transform="translate(359.482451 351.757656)scale(0.1 -0.1)">
       <use xlink:href="#DejaVuSans-51"/>
       <use x="63.623047" xlink:href="#DejaVuSans-48"/>
       <use x="127.246094" xlink:href="#DejaVuSans-48"/>
      </g>
     </g>
    </g>
    <g id="xtick_5">
     <g id="line2d_9">
      <path clip-path="url(#pf6088d5ac3)" d="M 475.320351 337.159219 
L 475.320351 10.999219 
" style="fill:none;stroke:#b0b0b0;stroke-linecap:square;stroke-width:0.8;"/>
     </g>
     <g id="line2d_10">
      <g>
       <use style="stroke:#000000;stroke-width:0.8;" x="475.320351" xlink:href="#m21c234722f" y="337.159219"/>
      </g>
     </g>
     <g id="text_5">
      <!-- 400 -->
      <defs>
       <path d="M 37.796875 64.3125 
L 12.890625 25.390625 
L 37.796875 25.390625 
z
M 35.203125 72.90625 
L 47.609375 72.90625 
L 47.609375 25.390625 
L 58.015625 25.390625 
L 58.015625 17.1875 
L 47.609375 17.1875 
L 47.609375 0 
L 37.796875 0 
L 37.796875 17.1875 
L 4.890625 17.1875 
L 4.890625 26.703125 
z
" id="DejaVuSans-52"/>
      </defs>
      <g transform="translate(465.776601 351.757656)scale(0.1 -0.1)">
       <use xlink:href="#DejaVuSans-52"/>
       <use x="63.623047" xlink:href="#DejaVuSans-48"/>
       <use x="127.246094" xlink:href="#DejaVuSans-48"/>
      </g>
     </g>
    </g>
    <g id="xtick_6">
     <g id="line2d_11">
      <path clip-path="url(#pf6088d5ac3)" d="M 581.614502 337.159219 
L 581.614502 10.999219 
" style="fill:none;stroke:#b0b0b0;stroke-linecap:square;stroke-width:0.8;"/>
     </g>
     <g id="line2d_12">
      <g>
       <use style="stroke:#000000;stroke-width:0.8;" x="581.614502" xlink:href="#m21c234722f" y="337.159219"/>
      </g>
     </g>
     <g id="text_6">
      <!-- 500 -->
      <defs>
       <path d="M 10.796875 72.90625 
L 49.515625 72.90625 
L 49.515625 64.59375 
L 19.828125 64.59375 
L 19.828125 46.734375 
Q 21.96875 47.46875 24.109375 47.828125 
Q 26.265625 48.1875 28.421875 48.1875 
Q 40.625 48.1875 47.75 41.5 
Q 54.890625 34.8125 54.890625 23.390625 
Q 54.890625 11.625 47.5625 5.09375 
Q 40.234375 -1.421875 26.90625 -1.421875 
Q 22.3125 -1.421875 17.546875 -0.640625 
Q 12.796875 0.140625 7.71875 1.703125 
L 7.71875 11.625 
Q 12.109375 9.234375 16.796875 8.0625 
Q 21.484375 6.890625 26.703125 6.890625 
Q 35.15625 6.890625 40.078125 11.328125 
Q 45.015625 15.765625 45.015625 23.390625 
Q 45.015625 31 40.078125 35.4375 
Q 35.15625 39.890625 26.703125 39.890625 
Q 22.75 39.890625 18.8125 39.015625 
Q 14.890625 38.140625 10.796875 36.28125 
z
" id="DejaVuSans-53"/>
      </defs>
      <g transform="translate(572.070752 351.757656)scale(0.1 -0.1)">
       <use xlink:href="#DejaVuSans-53"/>
       <use x="63.623047" xlink:href="#DejaVuSans-48"/>
       <use x="127.246094" xlink:href="#DejaVuSans-48"/>
      </g>
     </g>
    </g>
    <g id="xtick_7">
     <g id="line2d_13">
      <path clip-path="url(#pf6088d5ac3)" d="M 687.908652 337.159219 
L 687.908652 10.999219 
" style="fill:none;stroke:#b0b0b0;stroke-linecap:square;stroke-width:0.8;"/>
     </g>
     <g id="line2d_14">
      <g>
       <use style="stroke:#000000;stroke-width:0.8;" x="687.908652" xlink:href="#m21c234722f" y="337.159219"/>
      </g>
     </g>
     <g id="text_7">
      <!-- 600 -->
      <defs>
       <path d="M 33.015625 40.375 
Q 26.375 40.375 22.484375 35.828125 
Q 18.609375 31.296875 18.609375 23.390625 
Q 18.609375 15.53125 22.484375 10.953125 
Q 26.375 6.390625 33.015625 6.390625 
Q 39.65625 6.390625 43.53125 10.953125 
Q 47.40625 15.53125 47.40625 23.390625 
Q 47.40625 31.296875 43.53125 35.828125 
Q 39.65625 40.375 33.015625 40.375 
z
M 52.59375 71.296875 
L 52.59375 62.3125 
Q 48.875 64.0625 45.09375 64.984375 
Q 41.3125 65.921875 37.59375 65.921875 
Q 27.828125 65.921875 22.671875 59.328125 
Q 17.53125 52.734375 16.796875 39.40625 
Q 19.671875 43.65625 24.015625 45.921875 
Q 28.375 48.1875 33.59375 48.1875 
Q 44.578125 48.1875 50.953125 41.515625 
Q 57.328125 34.859375 57.328125 23.390625 
Q 57.328125 12.15625 50.6875 5.359375 
Q 44.046875 -1.421875 33.015625 -1.421875 
Q 20.359375 -1.421875 13.671875 8.265625 
Q 6.984375 17.96875 6.984375 36.375 
Q 6.984375 53.65625 15.1875 63.9375 
Q 23.390625 74.21875 37.203125 74.21875 
Q 40.921875 74.21875 44.703125 73.484375 
Q 48.484375 72.75 52.59375 71.296875 
z
" id="DejaVuSans-54"/>
      </defs>
      <g transform="translate(678.364902 351.757656)scale(0.1 -0.1)">
       <use xlink:href="#DejaVuSans-54"/>
       <use x="63.623047" xlink:href="#DejaVuSans-48"/>
       <use x="127.246094" xlink:href="#DejaVuSans-48"/>
      </g>
     </g>
    </g>
    <g id="text_8">
     <!-- Epoch -->
     <defs>
      <path d="M 9.8125 72.90625 
L 55.90625 72.90625 
L 55.90625 64.59375 
L 19.671875 64.59375 
L 19.671875 43.015625 
L 54.390625 43.015625 
L 54.390625 34.71875 
L 19.671875 34.71875 
L 19.671875 8.296875 
L 56.78125 8.296875 
L 56.78125 0 
L 9.8125 0 
z
" id="DejaVuSans-69"/>
      <path d="M 18.109375 8.203125 
L 18.109375 -20.796875 
L 9.078125 -20.796875 
L 9.078125 54.6875 
L 18.109375 54.6875 
L 18.109375 46.390625 
Q 20.953125 51.265625 25.265625 53.625 
Q 29.59375 56 35.59375 56 
Q 45.5625 56 51.78125 48.09375 
Q 58.015625 40.1875 58.015625 27.296875 
Q 58.015625 14.40625 51.78125 6.484375 
Q 45.5625 -1.421875 35.59375 -1.421875 
Q 29.59375 -1.421875 25.265625 0.953125 
Q 20.953125 3.328125 18.109375 8.203125 
z
M 48.6875 27.296875 
Q 48.6875 37.203125 44.609375 42.84375 
Q 40.53125 48.484375 33.40625 48.484375 
Q 26.265625 48.484375 22.1875 42.84375 
Q 18.109375 37.203125 18.109375 27.296875 
Q 18.109375 17.390625 22.1875 11.75 
Q 26.265625 6.109375 33.40625 6.109375 
Q 40.53125 6.109375 44.609375 11.75 
Q 48.6875 17.390625 48.6875 27.296875 
z
" id="DejaVuSans-112"/>
      <path d="M 30.609375 48.390625 
Q 23.390625 48.390625 19.1875 42.75 
Q 14.984375 37.109375 14.984375 27.296875 
Q 14.984375 17.484375 19.15625 11.84375 
Q 23.34375 6.203125 30.609375 6.203125 
Q 37.796875 6.203125 41.984375 11.859375 
Q 46.1875 17.53125 46.1875 27.296875 
Q 46.1875 37.015625 41.984375 42.703125 
Q 37.796875 48.390625 30.609375 48.390625 
z
M 30.609375 56 
Q 42.328125 56 49.015625 48.375 
Q 55.71875 40.765625 55.71875 27.296875 
Q 55.71875 13.875 49.015625 6.21875 
Q 42.328125 -1.421875 30.609375 -1.421875 
Q 18.84375 -1.421875 12.171875 6.21875 
Q 5.515625 13.875 5.515625 27.296875 
Q 5.515625 40.765625 12.171875 48.375 
Q 18.84375 56 30.609375 56 
z
" id="DejaVuSans-111"/>
      <path d="M 48.78125 52.59375 
L 48.78125 44.1875 
Q 44.96875 46.296875 41.140625 47.34375 
Q 37.3125 48.390625 33.40625 48.390625 
Q 24.65625 48.390625 19.8125 42.84375 
Q 14.984375 37.3125 14.984375 27.296875 
Q 14.984375 17.28125 19.8125 11.734375 
Q 24.65625 6.203125 33.40625 6.203125 
Q 37.3125 6.203125 41.140625 7.25 
Q 44.96875 8.296875 48.78125 10.40625 
L 48.78125 2.09375 
Q 45.015625 0.34375 40.984375 -0.53125 
Q 36.96875 -1.421875 32.421875 -1.421875 
Q 20.0625 -1.421875 12.78125 6.34375 
Q 5.515625 14.109375 5.515625 27.296875 
Q 5.515625 40.671875 12.859375 48.328125 
Q 20.21875 56 33.015625 56 
Q 37.15625 56 41.109375 55.140625 
Q 45.0625 54.296875 48.78125 52.59375 
z
" id="DejaVuSans-99"/>
      <path d="M 54.890625 33.015625 
L 54.890625 0 
L 45.90625 0 
L 45.90625 32.71875 
Q 45.90625 40.484375 42.875 44.328125 
Q 39.84375 48.1875 33.796875 48.1875 
Q 26.515625 48.1875 22.3125 43.546875 
Q 18.109375 38.921875 18.109375 30.90625 
L 18.109375 0 
L 9.078125 0 
L 9.078125 75.984375 
L 18.109375 75.984375 
L 18.109375 46.1875 
Q 21.34375 51.125 25.703125 53.5625 
Q 30.078125 56 35.796875 56 
Q 45.21875 56 50.046875 50.171875 
Q 54.890625 44.34375 54.890625 33.015625 
z
" id="DejaVuSans-104"/>
     </defs>
     <g transform="translate(369.632813 365.435781)scale(0.1 -0.1)">
      <use xlink:href="#DejaVuSans-69"/>
      <use x="63.183594" xlink:href="#DejaVuSans-112"/>
      <use x="126.660156" xlink:href="#DejaVuSans-111"/>
      <use x="187.841797" xlink:href="#DejaVuSans-99"/>
      <use x="242.822266" xlink:href="#DejaVuSans-104"/>
     </g>
    </g>
   </g>
   <g id="matplotlib.axis_2">
    <g id="ytick_1">
     <g id="line2d_15">
      <path clip-path="url(#pf6088d5ac3)" d="M 50.14375 337.159219 
L 719.74375 337.159219 
" style="fill:none;stroke:#b0b0b0;stroke-linecap:square;stroke-width:0.8;"/>
     </g>
     <g id="line2d_16">
      <defs>
       <path d="M 0 0 
L -3.5 0 
" id="m15f2e5bcfc" style="stroke:#000000;stroke-width:0.8;"/>
      </defs>
      <g>
       <use style="stroke:#000000;stroke-width:0.8;" x="50.14375" xlink:href="#m15f2e5bcfc" y="337.159219"/>
      </g>
     </g>
     <g id="text_9">
      <!-- 0.82 -->
      <defs>
       <path d="M 10.6875 12.40625 
L 21 12.40625 
L 21 0 
L 10.6875 0 
z
" id="DejaVuSans-46"/>
       <path d="M 31.78125 34.625 
Q 24.75 34.625 20.71875 30.859375 
Q 16.703125 27.09375 16.703125 20.515625 
Q 16.703125 13.921875 20.71875 10.15625 
Q 24.75 6.390625 31.78125 6.390625 
Q 38.8125 6.390625 42.859375 10.171875 
Q 46.921875 13.96875 46.921875 20.515625 
Q 46.921875 27.09375 42.890625 30.859375 
Q 38.875 34.625 31.78125 34.625 
z
M 21.921875 38.8125 
Q 15.578125 40.375 12.03125 44.71875 
Q 8.5 49.078125 8.5 55.328125 
Q 8.5 64.0625 14.71875 69.140625 
Q 20.953125 74.21875 31.78125 74.21875 
Q 42.671875 74.21875 48.875 69.140625 
Q 55.078125 64.0625 55.078125 55.328125 
Q 55.078125 49.078125 51.53125 44.71875 
Q 48 40.375 41.703125 38.8125 
Q 48.828125 37.15625 52.796875 32.3125 
Q 56.78125 27.484375 56.78125 20.515625 
Q 56.78125 9.90625 50.3125 4.234375 
Q 43.84375 -1.421875 31.78125 -1.421875 
Q 19.734375 -1.421875 13.25 4.234375 
Q 6.78125 9.90625 6.78125 20.515625 
Q 6.78125 27.484375 10.78125 32.3125 
Q 14.796875 37.15625 21.921875 38.8125 
z
M 18.3125 54.390625 
Q 18.3125 48.734375 21.84375 45.5625 
Q 25.390625 42.390625 31.78125 42.390625 
Q 38.140625 42.390625 41.71875 45.5625 
Q 45.3125 48.734375 45.3125 54.390625 
Q 45.3125 60.0625 41.71875 63.234375 
Q 38.140625 66.40625 31.78125 66.40625 
Q 25.390625 66.40625 21.84375 63.234375 
Q 18.3125 60.0625 18.3125 54.390625 
z
" id="DejaVuSans-56"/>
      </defs>
      <g transform="translate(20.878125 340.958437)scale(0.1 -0.1)">
       <use xlink:href="#DejaVuSans-48"/>
       <use x="63.623047" xlink:href="#DejaVuSans-46"/>
       <use x="95.410156" xlink:href="#DejaVuSans-56"/>
       <use x="159.033203" xlink:href="#DejaVuSans-50"/>
      </g>
     </g>
    </g>
    <g id="ytick_2">
     <g id="line2d_17">
      <path clip-path="url(#pf6088d5ac3)" d="M 50.14375 296.389219 
L 719.74375 296.389219 
" style="fill:none;stroke:#b0b0b0;stroke-linecap:square;stroke-width:0.8;"/>
     </g>
     <g id="line2d_18">
      <g>
       <use style="stroke:#000000;stroke-width:0.8;" x="50.14375" xlink:href="#m15f2e5bcfc" y="296.389219"/>
      </g>
     </g>
     <g id="text_10">
      <!-- 0.84 -->
      <g transform="translate(20.878125 300.188437)scale(0.1 -0.1)">
       <use xlink:href="#DejaVuSans-48"/>
       <use x="63.623047" xlink:href="#DejaVuSans-46"/>
       <use x="95.410156" xlink:href="#DejaVuSans-56"/>
       <use x="159.033203" xlink:href="#DejaVuSans-52"/>
      </g>
     </g>
    </g>
    <g id="ytick_3">
     <g id="line2d_19">
      <path clip-path="url(#pf6088d5ac3)" d="M 50.14375 255.619219 
L 719.74375 255.619219 
" style="fill:none;stroke:#b0b0b0;stroke-linecap:square;stroke-width:0.8;"/>
     </g>
     <g id="line2d_20">
      <g>
       <use style="stroke:#000000;stroke-width:0.8;" x="50.14375" xlink:href="#m15f2e5bcfc" y="255.619219"/>
      </g>
     </g>
     <g id="text_11">
      <!-- 0.86 -->
      <g transform="translate(20.878125 259.418437)scale(0.1 -0.1)">
       <use xlink:href="#DejaVuSans-48"/>
       <use x="63.623047" xlink:href="#DejaVuSans-46"/>
       <use x="95.410156" xlink:href="#DejaVuSans-56"/>
       <use x="159.033203" xlink:href="#DejaVuSans-54"/>
      </g>
     </g>
    </g>
    <g id="ytick_4">
     <g id="line2d_21">
      <path clip-path="url(#pf6088d5ac3)" d="M 50.14375 214.849219 
L 719.74375 214.849219 
" style="fill:none;stroke:#b0b0b0;stroke-linecap:square;stroke-width:0.8;"/>
     </g>
     <g id="line2d_22">
      <g>
       <use style="stroke:#000000;stroke-width:0.8;" x="50.14375" xlink:href="#m15f2e5bcfc" y="214.849219"/>
      </g>
     </g>
     <g id="text_12">
      <!-- 0.88 -->
      <g transform="translate(20.878125 218.648437)scale(0.1 -0.1)">
       <use xlink:href="#DejaVuSans-48"/>
       <use x="63.623047" xlink:href="#DejaVuSans-46"/>
       <use x="95.410156" xlink:href="#DejaVuSans-56"/>
       <use x="159.033203" xlink:href="#DejaVuSans-56"/>
      </g>
     </g>
    </g>
    <g id="ytick_5">
     <g id="line2d_23">
      <path clip-path="url(#pf6088d5ac3)" d="M 50.14375 174.079219 
L 719.74375 174.079219 
" style="fill:none;stroke:#b0b0b0;stroke-linecap:square;stroke-width:0.8;"/>
     </g>
     <g id="line2d_24">
      <g>
       <use style="stroke:#000000;stroke-width:0.8;" x="50.14375" xlink:href="#m15f2e5bcfc" y="174.079219"/>
      </g>
     </g>
     <g id="text_13">
      <!-- 0.90 -->
      <defs>
       <path d="M 10.984375 1.515625 
L 10.984375 10.5 
Q 14.703125 8.734375 18.5 7.8125 
Q 22.3125 6.890625 25.984375 6.890625 
Q 35.75 6.890625 40.890625 13.453125 
Q 46.046875 20.015625 46.78125 33.40625 
Q 43.953125 29.203125 39.59375 26.953125 
Q 35.25 24.703125 29.984375 24.703125 
Q 19.046875 24.703125 12.671875 31.3125 
Q 6.296875 37.9375 6.296875 49.421875 
Q 6.296875 60.640625 12.9375 67.421875 
Q 19.578125 74.21875 30.609375 74.21875 
Q 43.265625 74.21875 49.921875 64.515625 
Q 56.59375 54.828125 56.59375 36.375 
Q 56.59375 19.140625 48.40625 8.859375 
Q 40.234375 -1.421875 26.421875 -1.421875 
Q 22.703125 -1.421875 18.890625 -0.6875 
Q 15.09375 0.046875 10.984375 1.515625 
z
M 30.609375 32.421875 
Q 37.25 32.421875 41.125 36.953125 
Q 45.015625 41.5 45.015625 49.421875 
Q 45.015625 57.28125 41.125 61.84375 
Q 37.25 66.40625 30.609375 66.40625 
Q 23.96875 66.40625 20.09375 61.84375 
Q 16.21875 57.28125 16.21875 49.421875 
Q 16.21875 41.5 20.09375 36.953125 
Q 23.96875 32.421875 30.609375 32.421875 
z
" id="DejaVuSans-57"/>
      </defs>
      <g transform="translate(20.878125 177.878437)scale(0.1 -0.1)">
       <use xlink:href="#DejaVuSans-48"/>
       <use x="63.623047" xlink:href="#DejaVuSans-46"/>
       <use x="95.410156" xlink:href="#DejaVuSans-57"/>
       <use x="159.033203" xlink:href="#DejaVuSans-48"/>
      </g>
     </g>
    </g>
    <g id="ytick_6">
     <g id="line2d_25">
      <path clip-path="url(#pf6088d5ac3)" d="M 50.14375 133.309219 
L 719.74375 133.309219 
" style="fill:none;stroke:#b0b0b0;stroke-linecap:square;stroke-width:0.8;"/>
     </g>
     <g id="line2d_26">
      <g>
       <use style="stroke:#000000;stroke-width:0.8;" x="50.14375" xlink:href="#m15f2e5bcfc" y="133.309219"/>
      </g>
     </g>
     <g id="text_14">
      <!-- 0.92 -->
      <g transform="translate(20.878125 137.108437)scale(0.1 -0.1)">
       <use xlink:href="#DejaVuSans-48"/>
       <use x="63.623047" xlink:href="#DejaVuSans-46"/>
       <use x="95.410156" xlink:href="#DejaVuSans-57"/>
       <use x="159.033203" xlink:href="#DejaVuSans-50"/>
      </g>
     </g>
    </g>
    <g id="ytick_7">
     <g id="line2d_27">
      <path clip-path="url(#pf6088d5ac3)" d="M 50.14375 92.539219 
L 719.74375 92.539219 
" style="fill:none;stroke:#b0b0b0;stroke-linecap:square;stroke-width:0.8;"/>
     </g>
     <g id="line2d_28">
      <g>
       <use style="stroke:#000000;stroke-width:0.8;" x="50.14375" xlink:href="#m15f2e5bcfc" y="92.539219"/>
      </g>
     </g>
     <g id="text_15">
      <!-- 0.94 -->
      <g transform="translate(20.878125 96.338437)scale(0.1 -0.1)">
       <use xlink:href="#DejaVuSans-48"/>
       <use x="63.623047" xlink:href="#DejaVuSans-46"/>
       <use x="95.410156" xlink:href="#DejaVuSans-57"/>
       <use x="159.033203" xlink:href="#DejaVuSans-52"/>
      </g>
     </g>
    </g>
    <g id="ytick_8">
     <g id="line2d_29">
      <path clip-path="url(#pf6088d5ac3)" d="M 50.14375 51.769219 
L 719.74375 51.769219 
" style="fill:none;stroke:#b0b0b0;stroke-linecap:square;stroke-width:0.8;"/>
     </g>
     <g id="line2d_30">
      <g>
       <use style="stroke:#000000;stroke-width:0.8;" x="50.14375" xlink:href="#m15f2e5bcfc" y="51.769219"/>
      </g>
     </g>
     <g id="text_16">
      <!-- 0.96 -->
      <g transform="translate(20.878125 55.568437)scale(0.1 -0.1)">
       <use xlink:href="#DejaVuSans-48"/>
       <use x="63.623047" xlink:href="#DejaVuSans-46"/>
       <use x="95.410156" xlink:href="#DejaVuSans-57"/>
       <use x="159.033203" xlink:href="#DejaVuSans-54"/>
      </g>
     </g>
    </g>
    <g id="ytick_9">
     <g id="line2d_31">
      <path clip-path="url(#pf6088d5ac3)" d="M 50.14375 10.999219 
L 719.74375 10.999219 
" style="fill:none;stroke:#b0b0b0;stroke-linecap:square;stroke-width:0.8;"/>
     </g>
     <g id="line2d_32">
      <g>
       <use style="stroke:#000000;stroke-width:0.8;" x="50.14375" xlink:href="#m15f2e5bcfc" y="10.999219"/>
      </g>
     </g>
     <g id="text_17">
      <!-- 0.98 -->
      <g transform="translate(20.878125 14.798437)scale(0.1 -0.1)">
       <use xlink:href="#DejaVuSans-48"/>
       <use x="63.623047" xlink:href="#DejaVuSans-46"/>
       <use x="95.410156" xlink:href="#DejaVuSans-57"/>
       <use x="159.033203" xlink:href="#DejaVuSans-56"/>
      </g>
     </g>
    </g>
    <g id="text_18">
     <!-- Accuracy -->
     <defs>
      <path d="M 34.1875 63.1875 
L 20.796875 26.90625 
L 47.609375 26.90625 
z
M 28.609375 72.90625 
L 39.796875 72.90625 
L 67.578125 0 
L 57.328125 0 
L 50.6875 18.703125 
L 17.828125 18.703125 
L 11.1875 0 
L 0.78125 0 
z
" id="DejaVuSans-65"/>
      <path d="M 8.5 21.578125 
L 8.5 54.6875 
L 17.484375 54.6875 
L 17.484375 21.921875 
Q 17.484375 14.15625 20.5 10.265625 
Q 23.53125 6.390625 29.59375 6.390625 
Q 36.859375 6.390625 41.078125 11.03125 
Q 45.3125 15.671875 45.3125 23.6875 
L 45.3125 54.6875 
L 54.296875 54.6875 
L 54.296875 0 
L 45.3125 0 
L 45.3125 8.40625 
Q 42.046875 3.421875 37.71875 1 
Q 33.40625 -1.421875 27.6875 -1.421875 
Q 18.265625 -1.421875 13.375 4.4375 
Q 8.5 10.296875 8.5 21.578125 
z
M 31.109375 56 
z
" id="DejaVuSans-117"/>
      <path d="M 41.109375 46.296875 
Q 39.59375 47.171875 37.8125 47.578125 
Q 36.03125 48 33.890625 48 
Q 26.265625 48 22.1875 43.046875 
Q 18.109375 38.09375 18.109375 28.8125 
L 18.109375 0 
L 9.078125 0 
L 9.078125 54.6875 
L 18.109375 54.6875 
L 18.109375 46.1875 
Q 20.953125 51.171875 25.484375 53.578125 
Q 30.03125 56 36.53125 56 
Q 37.453125 56 38.578125 55.875 
Q 39.703125 55.765625 41.0625 55.515625 
z
" id="DejaVuSans-114"/>
      <path d="M 34.28125 27.484375 
Q 23.390625 27.484375 19.1875 25 
Q 14.984375 22.515625 14.984375 16.5 
Q 14.984375 11.71875 18.140625 8.90625 
Q 21.296875 6.109375 26.703125 6.109375 
Q 34.1875 6.109375 38.703125 11.40625 
Q 43.21875 16.703125 43.21875 25.484375 
L 43.21875 27.484375 
z
M 52.203125 31.203125 
L 52.203125 0 
L 43.21875 0 
L 43.21875 8.296875 
Q 40.140625 3.328125 35.546875 0.953125 
Q 30.953125 -1.421875 24.3125 -1.421875 
Q 15.921875 -1.421875 10.953125 3.296875 
Q 6 8.015625 6 15.921875 
Q 6 25.140625 12.171875 29.828125 
Q 18.359375 34.515625 30.609375 34.515625 
L 43.21875 34.515625 
L 43.21875 35.40625 
Q 43.21875 41.609375 39.140625 45 
Q 35.0625 48.390625 27.6875 48.390625 
Q 23 48.390625 18.546875 47.265625 
Q 14.109375 46.140625 10.015625 43.890625 
L 10.015625 52.203125 
Q 14.9375 54.109375 19.578125 55.046875 
Q 24.21875 56 28.609375 56 
Q 40.484375 56 46.34375 49.84375 
Q 52.203125 43.703125 52.203125 31.203125 
z
" id="DejaVuSans-97"/>
      <path d="M 32.171875 -5.078125 
Q 28.375 -14.84375 24.75 -17.8125 
Q 21.140625 -20.796875 15.09375 -20.796875 
L 7.90625 -20.796875 
L 7.90625 -13.28125 
L 13.1875 -13.28125 
Q 16.890625 -13.28125 18.9375 -11.515625 
Q 21 -9.765625 23.484375 -3.21875 
L 25.09375 0.875 
L 2.984375 54.6875 
L 12.5 54.6875 
L 29.59375 11.921875 
L 46.6875 54.6875 
L 56.203125 54.6875 
z
" id="DejaVuSans-121"/>
     </defs>
     <g transform="translate(14.798438 196.994062)rotate(-90)scale(0.1 -0.1)">
      <use xlink:href="#DejaVuSans-65"/>
      <use x="68.392578" xlink:href="#DejaVuSans-99"/>
      <use x="123.373047" xlink:href="#DejaVuSans-99"/>
      <use x="178.353516" xlink:href="#DejaVuSans-117"/>
      <use x="241.732422" xlink:href="#DejaVuSans-114"/>
      <use x="282.845703" xlink:href="#DejaVuSans-97"/>
      <use x="344.125" xlink:href="#DejaVuSans-99"/>
      <use x="399.105469" xlink:href="#DejaVuSans-121"/>
     </g>
    </g>
   </g>
   <g id="line2d_33">
    <path clip-path="url(#pf6088d5ac3)" d="M 78.989745 375.715469 
L 80.524299 362.051859 
L 82.436317 347.254943 
L 84.348335 334.53425 
L 86.260353 323.521135 
L 88.172371 313.846955 
L 90.721728 302.393671 
L 93.908425 289.27703 
L 97.095121 276.993533 
L 100.281818 265.491932 
L 103.468514 254.726744 
L 106.655211 244.652484 
L 109.841907 235.22367 
L 113.028604 226.394819 
L 116.2153 218.120448 
L 120.039336 208.859074 
L 123.863372 200.25206 
L 127.687407 192.220811 
L 131.511443 184.686767 
L 135.335479 177.586779 
L 139.159515 170.896997 
L 142.983551 164.599746 
L 146.807586 158.677352 
L 150.631622 153.112141 
L 154.455658 147.886439 
L 158.917033 142.195307 
L 163.378408 136.914161 
L 167.839783 132.014934 
L 172.301158 127.469559 
L 176.762534 123.249971 
L 181.223909 119.328103 
L 185.685284 115.675889 
L 190.783998 111.796114 
L 195.882713 108.189988 
L 201.618766 104.408027 
L 207.992159 100.477304 
L 215.640231 96.03212 
L 223.288302 91.830114 
L 231.573713 87.540286 
L 239.859124 83.511508 
L 248.144535 79.731683 
L 256.429946 76.188711 
L 265.352696 72.62421 
L 274.275446 69.30526 
L 283.198197 66.216752 
L 292.758286 63.146188 
L 302.318376 60.304229 
L 312.515804 57.50384 
L 323.350573 54.765022 
L 334.82268 52.101303 
L 346.932127 49.518335 
L 360.316252 46.892071 
L 375.612395 44.121606 
L 392.183217 41.344642 
L 409.391378 38.689924 
L 427.236878 36.166911 
L 445.719718 33.782359 
L 464.839897 31.539994 
L 485.234755 29.37584 
L 506.904291 27.30552 
L 529.848506 25.336745 
L 555.342078 23.374468 
L 584.659685 21.347236 
L 621.625365 19.026221 
L 687.908652 15.058163 
L 687.908652 15.058163 
" style="fill:none;stroke:#377eb8;stroke-linecap:square;stroke-width:2;"/>
   </g>
   <g id="line2d_34">
    <path clip-path="url(#pf6088d5ac3)" d="M 76.196087 375.715469 
L 77.974942 361.29716 
L 79.88696 347.670576 
L 81.798978 335.753727 
L 83.710996 325.334387 
L 85.623014 316.20033 
L 87.535032 308.139332 
L 89.447049 300.939168 
L 91.996407 292.311506 
L 94.545764 284.452111 
L 97.095121 277.273113 
L 99.644478 270.732859 
L 102.193835 264.789697 
L 104.743193 259.401972 
L 107.29255 254.528033 
L 109.841907 250.126227 
L 112.391264 246.1549 
L 114.940621 242.5724 
L 117.489979 239.337073 
L 120.039336 236.407268 
L 123.226032 233.111195 
L 126.412729 230.146063 
L 130.236765 226.9102 
L 134.69814 223.422898 
L 139.159515 220.188118 
L 144.258229 216.783732 
L 149.356944 213.672898 
L 154.455658 210.83636 
L 159.554372 208.254862 
L 164.653087 205.90915 
L 170.389141 203.528084 
L 176.125194 201.393647 
L 182.498587 199.277959 
L 188.87198 197.395294 
L 195.882713 195.548618 
L 204.168123 193.60258 
L 214.365552 191.443858 
L 226.474999 189.10522 
L 238.584446 186.988353 
L 251.331232 184.98301 
L 264.715357 183.104473 
L 278.736822 181.364037 
L 293.395625 179.768313 
L 309.329108 178.262418 
L 326.537269 176.864741 
L 345.657448 175.538691 
L 368.601663 174.181407 
L 397.281931 172.717242 
L 429.148896 171.317371 
L 467.389254 169.871587 
L 522.200434 168.048965 
L 597.406471 165.521671 
L 635.00949 164.028222 
L 666.876455 162.544321 
L 687.908652 161.424336 
L 687.908652 161.424336 
" style="fill:none;stroke:#4daf4a;stroke-linecap:square;stroke-width:2;"/>
   </g>
   <g id="line2d_35">
    <path clip-path="url(#pf6088d5ac3)" d="M 79.890599 375.715469 
L 79.906112 375.533985 
L 80.969054 369.775178 
L 82.031995 356.983594 
L 84.157878 345.771928 
L 85.22082 337.057291 
L 86.283761 332.82737 
L 87.346703 322.685912 
L 88.409644 322.685912 
L 89.472586 309.639412 
L 90.535527 305.511555 
L 91.598469 296.644066 
L 92.66141 296.542124 
L 94.787293 281.966861 
L 95.850235 279.316736 
L 96.913176 273.150283 
L 97.976118 277.584088 
L 99.039059 270.653131 
L 100.102001 259.033697 
L 101.164942 257.148075 
L 102.227884 260.256757 
L 103.290825 256.842371 
L 104.353767 248.943149 
L 106.47965 239.46413 
L 107.542591 238.088097 
L 108.605533 238.088097 
L 109.668474 228.812962 
L 110.731416 229.067756 
L 111.794357 220.709856 
L 112.857299 224.634073 
L 113.92024 221.270475 
L 114.983182 212.708813 
L 116.046123 218.926176 
L 117.109065 210.211661 
L 118.172006 210.976043 
L 119.234948 208.478892 
L 120.297889 202.516323 
L 121.360831 200.222933 
L 122.423772 205.472152 
L 123.486714 196.604664 
L 124.549655 200.936405 
L 125.612597 191.049741 
L 126.675538 186.870851 
L 127.73848 189.520855 
L 128.801421 188.705441 
L 129.864363 189.622797 
L 130.927304 184.832256 
L 131.990246 178.054273 
L 133.053187 180.653366 
L 134.116129 179.532248 
L 135.17907 177.289891 
L 136.242012 175.862947 
L 137.304953 168.524344 
L 138.367895 175.709973 
L 139.430836 170.71567 
L 140.493778 169.288726 
L 141.556719 167.657899 
L 142.619661 164.956985 
L 143.682602 168.575255 
L 144.745544 164.498307 
L 145.808485 164.600249 
L 146.871427 162.255949 
L 147.934368 159.402062 
L 148.99731 153.133667 
L 150.060251 153.133667 
L 151.123193 156.089496 
L 152.186134 152.573047 
L 153.249076 151.757633 
L 154.312017 144.419031 
L 155.374959 144.215147 
L 156.4379 142.482499 
L 157.500842 141.819937 
L 158.563783 143.552707 
L 159.626725 140.851671 
L 160.689666 143.399733 
L 161.752608 139.424727 
L 162.815549 138.609314 
L 163.878491 139.526669 
L 164.941432 137.691958 
L 166.004374 133.563979 
L 167.067315 135.755426 
L 168.130257 134.124599 
L 169.193198 131.372653 
L 170.25614 131.525505 
L 171.319081 131.525505 
L 172.382023 125.81773 
L 173.444964 125.25711 
L 174.507906 123.47343 
L 175.570847 129.181206 
L 176.633789 122.963842 
L 178.759672 124.237934 
L 179.822613 123.47343 
L 180.885555 118.275243 
L 181.948496 126.582112 
L 183.011438 117.663713 
L 184.074379 118.835863 
L 185.137321 116.899331 
L 186.200262 120.008013 
L 187.263204 114.911768 
L 188.326145 114.351148 
L 189.389087 110.579905 
L 190.452028 113.790528 
L 191.51497 113.331972 
L 192.577911 109.560729 
L 193.640853 114.300238 
L 194.703794 110.376142 
L 195.766736 109.764491 
L 196.829677 112.006848 
L 197.892619 107.522133 
L 198.95556 105.279897 
L 200.018502 107.471223 
L 201.081443 103.598038 
L 202.144385 102.578862 
L 203.207326 108.541431 
L 204.270268 101.610596 
L 205.333209 101.86539 
L 206.396151 104.87213 
L 207.459092 102.935598 
L 208.522034 101.610596 
L 209.584975 97.941294 
L 210.647917 97.023939 
L 211.710859 100.795182 
L 212.7738 97.992205 
L 213.836742 98.196089 
L 214.899683 92.94687 
L 215.962625 93.966167 
L 217.025566 96.106583 
L 218.088508 95.953731 
L 219.151449 92.28443 
L 220.214391 95.342201 
L 221.277332 91.316164 
L 222.340274 94.170051 
L 223.403215 93.150754 
L 224.466157 90.602692 
L 225.529098 91.72381 
L 226.59204 86.882359 
L 227.654981 90.092982 
L 228.717923 90.653602 
L 229.780864 88.513186 
L 230.843806 83.926529 
L 231.906747 85.863183 
L 232.969689 82.346733 
L 234.03263 84.079503 
L 236.158513 86.984301 
L 237.221455 81.123673 
L 238.284396 84.640001 
L 239.347338 82.958263 
L 240.410279 81.53132 
L 241.473221 84.589091 
L 242.536162 80.104376 
L 243.599104 82.244791 
L 244.662045 82.754379 
L 245.724987 78.52458 
L 246.787928 76.333132 
L 247.85087 78.983136 
L 248.913811 76.893752 
L 249.976753 77.709166 
L 251.039694 81.276525 
L 252.102636 79.034168 
L 253.165577 77.912928 
L 254.228519 74.345569 
L 255.29146 80.155286 
L 256.354402 72.052301 
L 257.417343 74.192717 
L 258.480285 75.160983 
L 259.543226 75.313835 
L 260.606168 71.491681 
L 261.669109 72.612921 
L 262.732051 74.753337 
L 263.794992 73.632097 
L 264.857934 75.772513 
L 265.920875 70.982093 
L 266.983817 67.15994 
L 268.046758 71.593623 
L 269.1097 70.625357 
L 270.172641 68.739736 
L 271.235583 66.497378 
L 272.298524 69.045561 
L 273.361466 68.535852 
L 274.424407 68.790646 
L 275.487349 70.064738 
L 276.55029 69.249324 
L 278.676173 65.732996 
L 279.739115 67.975354 
L 280.802056 64.356962 
L 281.864998 64.356962 
L 282.927939 63.541549 
L 283.990881 71.287798 
L 285.053822 69.351266 
L 286.116764 63.643491 
L 287.179705 64.611757 
L 288.242647 61.248281 
L 289.305588 63.541549 
L 290.36853 62.675225 
L 291.431471 63.031961 
L 292.494413 61.146339 
L 293.557354 65.121345 
L 294.620296 66.089732 
L 295.683237 63.184813 
L 296.746179 60.993487 
L 297.80912 62.573283 
L 298.872062 62.930019 
L 299.935003 57.986626 
L 300.997945 57.731832 
L 302.060886 62.624193 
L 304.186769 59.974189 
L 305.249711 62.267457 
L 306.312652 60.789603 
L 307.375594 59.719395 
L 308.438535 60.993487 
L 309.501477 58.445304 
L 310.564418 57.986626 
L 311.62736 55.489474 
L 312.690301 54.67406 
L 313.753243 59.821337 
L 314.816184 58.394393 
L 315.879126 53.043233 
L 316.942067 55.132738 
L 319.06795 60.687661 
L 320.130892 54.928854 
L 321.193833 57.273154 
L 322.256775 56.508772 
L 323.319716 55.387532 
L 324.382658 53.756705 
L 325.445599 51.463437 
L 326.508541 51.157611 
L 328.634424 53.451 
L 329.697365 57.884684 
L 330.760307 53.349058 
L 331.823248 50.138435 
L 332.88619 53.501911 
L 333.949131 52.890381 
L 335.012073 52.635586 
L 336.075014 50.138435 
L 337.137956 53.094264 
L 338.200897 52.686497 
L 339.263839 51.769262 
L 340.32678 53.399969 
L 341.389722 48.303723 
L 342.452663 51.259553 
L 343.515605 52.024057 
L 344.578546 48.864343 
L 345.641488 48.150871 
L 346.704429 51.259553 
L 347.767371 48.201903 
L 348.830312 47.182605 
L 349.893254 51.463437 
L 350.956195 45.296984 
L 352.019137 48.354755 
L 353.082078 45.398926 
L 354.14502 48.966285 
L 355.207961 43.87004 
L 356.270903 49.017195 
L 357.333844 47.641283 
L 358.396786 49.577815 
L 359.459727 48.966285 
L 361.58561 49.730667 
L 362.648552 48.048929 
L 363.711493 45.0931 
L 364.774435 47.794135 
L 365.837376 44.328718 
L 366.900318 46.520044 
L 367.963259 43.360452 
L 369.026201 48.405665 
L 370.089142 39.589209 
L 371.152084 45.755662 
L 372.215025 43.207478 
L 373.277967 43.92095 
L 374.340909 45.144132 
L 375.40385 45.04219 
L 376.466792 41.729624 
L 377.529733 45.551778 
L 378.592675 41.831566 
L 379.655616 45.144132 
L 380.718558 41.525741 
L 381.781499 41.984418 
L 382.844441 43.87004 
L 384.970324 42.901774 
L 386.033265 42.035329 
L 387.096207 45.0931 
L 388.159148 42.850742 
L 389.22209 44.48157 
L 390.285031 42.901774 
L 391.347973 45.296984 
L 392.410914 40.659416 
L 393.473856 42.494006 
L 394.536797 39.385325 
L 395.599739 42.443096 
L 396.66268 42.341154 
L 397.725622 40.098797 
L 398.788563 41.882476 
L 399.851505 38.519001 
L 400.914446 39.945945 
L 401.977388 34.441932 
L 403.040329 39.079499 
L 404.103271 39.487267 
L 405.166212 36.939083 
L 406.229154 37.907471 
L 407.292095 39.640119 
L 408.355037 38.773795 
L 409.417978 38.264207 
L 410.48092 38.977679 
L 411.543861 36.072759 
L 412.606803 40.353591 
L 413.669744 36.327553 
L 414.732686 35.257346 
L 415.795627 36.633379 
L 416.858569 36.786231 
L 417.92151 39.487267 
L 418.984452 38.009291 
L 420.047393 34.187138 
L 421.110335 33.167962 
L 422.173276 34.543874 
L 423.236218 37.295819 
L 424.299159 34.136228 
L 425.362101 36.939083 
L 426.425042 36.582347 
L 427.487984 35.104493 
L 428.550925 35.817965 
L 429.613867 34.90061 
L 430.676808 37.652555 
L 431.73975 36.888173 
L 432.802691 32.097754 
L 433.865633 34.543874 
L 434.928574 33.830402 
L 435.991516 33.473666 
L 437.054457 34.391022 
L 438.117399 35.002552 
L 440.243282 35.817965 
L 441.306223 36.582347 
L 442.369165 33.67755 
L 443.432106 33.524698 
L 444.495048 32.352548 
L 445.557989 36.888173 
L 446.620931 33.67755 
L 447.683872 32.607342 
L 448.746814 32.811226 
L 449.809755 35.817965 
L 450.872697 35.104493 
L 451.935638 32.046722 
L 452.99858 33.218872 
L 454.061521 33.932344 
L 455.124463 30.619778 
L 456.187404 33.626518 
L 457.250346 33.167962 
L 458.313287 34.238169 
L 459.376229 32.097754 
L 460.43917 33.881434 
L 461.502112 32.403458 
L 462.565053 33.422756 
L 463.627995 30.976514 
L 464.690936 32.964078 
L 465.753878 34.441932 
L 466.816819 29.192835 
L 467.879761 30.72172 
L 468.942702 32.709284 
L 470.005644 33.11693 
L 471.068585 29.447629 
L 472.131527 30.466926 
L 473.194468 32.199574 
L 474.25741 32.250606 
L 475.320351 31.027424 
L 476.383293 32.250606 
L 477.446234 28.428452 
L 478.509176 29.447629 
L 480.635059 30.619778 
L 481.698 32.45449 
L 482.760942 31.89387 
L 483.823883 26.440889 
L 484.886825 27.613039 
L 485.949766 28.377421 
L 487.012708 26.491799 
L 488.075649 30.263042 
L 489.138591 34.492964 
L 490.201532 28.173537 
L 491.264474 27.663949 
L 492.327415 28.020685 
L 493.390357 27.969775 
L 494.453298 28.632215 
L 495.51624 27.969775 
L 496.579181 30.313953 
L 497.642123 27.918743 
L 498.705064 28.734157 
L 499.768006 26.848535 
L 500.830947 26.542831 
L 501.893889 25.574443 
L 504.019772 29.447629 
L 505.082713 23.026382 
L 506.145655 27.562007 
L 507.208596 28.224569 
L 508.271538 28.479363 
L 509.334479 27.307213 
L 510.397421 28.020685 
L 511.460362 26.644651 
L 512.523304 26.033121 
L 513.586245 23.026382 
L 514.649187 30.1611 
L 515.712128 26.440889 
L 516.77507 25.778327 
L 517.838011 27.409155 
L 518.900953 28.734157 
L 519.963894 24.759151 
L 521.026836 28.938041 
L 522.089777 27.816801 
L 523.152719 27.205271 
L 524.21566 23.841795 
L 525.278602 29.49866 
L 526.341543 27.816801 
L 527.404485 22.873529 
L 528.467426 23.230265 
L 529.530368 28.122627 
L 530.593309 23.077292 
L 531.656251 26.899567 
L 532.719192 22.058116 
L 533.782134 27.562007 
L 534.845076 25.421591 
L 535.908017 25.778327 
L 536.970959 23.281176 
L 538.0339 24.860972 
L 539.096842 25.931179 
L 540.159783 23.943737 
L 541.222725 23.383118 
L 542.285666 23.281176 
L 543.348608 26.338947 
L 544.411549 26.033121 
L 545.474491 23.790764 
L 546.537432 26.135063 
L 547.600374 24.962913 
L 548.663315 20.070552 
L 549.726257 23.637912 
L 550.789198 22.36382 
L 551.85214 24.453325 
L 552.915081 23.53597 
L 553.978023 21.497496 
L 555.040964 21.293612 
L 556.103906 24.962913 
L 557.166847 25.268739 
L 558.229789 26.338947 
L 559.29273 25.319649 
L 560.355672 23.485059 
L 561.418613 21.14076 
L 562.481555 21.293612 
L 563.544496 18.949313 
L 564.607438 22.007084 
L 565.670379 22.516794 
L 566.733321 24.860972 
L 567.796262 21.242702 
L 568.859204 21.293612 
L 569.922145 23.587001 
L 570.985087 22.567704 
L 572.048028 23.332086 
L 573.11097 22.465762 
L 574.173911 23.688822 
L 575.236853 24.402415 
L 576.299794 21.08985 
L 577.362736 23.485059 
L 578.425677 21.548406 
L 579.488619 22.92444 
L 580.55156 20.121462 
L 581.614502 20.376378 
L 582.677443 20.784024 
L 583.740385 19.560964 
L 584.803326 18.592577 
L 585.866268 19.662784 
L 586.929209 18.541666 
L 587.992151 20.325346 
L 589.055092 19.9177 
L 590.118034 18.847492 
L 591.180975 19.560964 
L 592.243917 22.414852 
L 593.306858 21.08985 
L 594.3698 19.306049 
L 595.432741 22.516794 
L 596.495683 18.643608 
L 597.558624 18.388814 
L 598.621566 20.019642 
L 599.684507 22.007084 
L 600.747449 22.109026 
L 601.81039 20.885966 
L 602.873332 16.961871 
L 603.936273 19.9177 
L 604.999215 17.981047 
L 606.062156 25.421591 
L 607.125098 19.560964 
L 608.188039 19.713816 
L 609.250981 18.286872 
L 610.313922 20.121462 
L 611.376864 22.618614 
L 612.439805 19.509932 
L 613.502747 17.675342 
L 614.565688 20.58014 
L 615.62863 19.509932 
L 616.691571 16.656045 
L 618.817454 20.682082 
L 619.880396 17.165633 
L 620.943337 23.281176 
L 622.006279 19.9177 
L 623.06922 18.18493 
L 624.132162 17.369517 
L 625.195103 17.879105 
L 626.258045 17.114723 
L 627.320986 19.611874 
L 628.383928 17.726253 
L 629.446869 20.784024 
L 630.509811 18.592577 
L 631.572752 14.006041 
L 632.635694 19.459022 
L 634.761577 15.993483 
L 635.824518 17.777284 
L 636.88746 17.318606 
L 637.950401 17.828195 
L 639.013343 14.923275 
L 640.076284 21.548406 
L 641.139226 16.095425 
L 642.202167 17.012781 
L 643.265109 18.592577 
L 644.32805 17.012781 
L 645.390992 17.879105 
L 646.453933 16.044515 
L 647.516875 17.879105 
L 648.579816 20.885966 
L 649.642758 16.452161 
L 650.705699 18.949313 
L 651.768641 17.114723 
L 652.831582 15.789721 
L 653.894524 16.605135 
L 654.957465 16.197367 
L 656.020407 17.471459 
L 657.083348 13.394511 
L 658.14629 18.949313 
L 659.209231 16.503193 
L 660.272173 17.471459 
L 661.335114 18.74555 
L 662.398056 17.318606 
L 663.460997 16.401251 
L 664.523939 18.592577 
L 665.58688 19.102286 
L 666.649822 16.554103 
L 667.712763 14.872365 
L 668.775705 16.961871 
L 669.838646 16.859929 
L 670.901588 15.280011 
L 671.964529 13.955009 
L 673.027471 18.13402 
L 674.090412 14.362777 
L 675.153354 18.388814 
L 676.216295 18.388814 
L 677.279237 15.585837 
L 678.342178 16.452161 
L 679.40512 15.127159 
L 680.468061 18.032078 
L 681.531003 13.190627 
L 682.593944 15.331043 
L 683.656886 14.719513 
L 684.719827 14.872365 
L 685.782769 15.483895 
L 686.84571 14.158893 
L 687.908652 14.770423 
L 687.908652 14.770423 
" style="fill:none;stroke:#377eb8;stroke-linecap:square;stroke-opacity:0.25098;stroke-width:1.5;"/>
   </g>
   <g id="line2d_36">
    <path clip-path="url(#pf6088d5ac3)" d="M 76.946401 375.715469 
L 77.780229 355.115105 
L 78.843171 349.370514 
L 80.969054 335.214318 
L 82.031995 334.188459 
L 83.094937 328.443868 
L 84.157878 317.775446 
L 85.22082 305.465626 
L 86.283761 321.878639 
L 87.346703 303.003711 
L 88.409644 319.006404 
L 89.472586 290.078351 
L 90.535527 288.642294 
L 91.598469 289.668032 
L 92.66141 302.593391 
L 93.724352 287.411337 
L 94.787293 278.99961 
L 95.850235 298.695298 
L 96.913176 291.924848 
L 97.976118 279.409929 
L 99.039059 283.923562 
L 100.102001 262.586597 
L 101.164942 262.791696 
L 102.227884 266.074372 
L 103.290825 267.100109 
L 104.353767 261.150419 
L 106.47965 243.711548 
L 107.542591 257.252326 
L 108.605533 262.176278 
L 109.668474 249.045819 
L 110.731416 250.071557 
L 111.794357 249.045819 
L 113.92024 240.428994 
L 114.983182 239.813454 
L 116.046123 234.479183 
L 117.109065 238.172177 
L 118.172006 249.661238 
L 119.234948 237.761858 
L 120.297889 256.226467 
L 121.360831 227.503634 
L 122.423772 227.708855 
L 123.486714 223.605541 
L 124.549655 234.889502 
L 125.612597 234.068864 
L 126.675538 214.578396 
L 127.73848 235.915361 
L 128.801421 218.271391 
L 129.864363 228.529493 
L 130.927304 230.17077 
L 131.990246 232.837906 
L 133.053187 213.757757 
L 134.116129 225.452038 
L 135.17907 221.964264 
L 136.242012 220.733306 
L 137.304953 218.06617 
L 138.367895 224.836498 
L 139.430836 213.962856 
L 140.493778 222.374583 
L 141.556719 221.553944 
L 142.619661 221.964264 
L 143.682602 202.884115 
L 144.745544 211.706161 
L 145.808485 210.064763 
L 146.871427 216.629992 
L 147.934368 215.604255 
L 148.99731 206.987429 
L 150.060251 209.449345 
L 151.123193 201.242838 
L 152.186134 206.37189 
L 153.249076 195.908567 
L 154.312017 212.731899 
L 155.374959 209.654444 
L 156.4379 210.064763 
L 157.500842 208.218387 
L 158.563783 210.064763 
L 159.626725 217.040311 
L 160.689666 210.885523 
L 161.752608 197.139524 
L 162.815549 200.627299 
L 163.878491 211.500941 
L 164.941432 201.653158 
L 166.004374 198.370482 
L 167.067315 213.757757 
L 168.130257 204.320293 
L 169.193198 205.140932 
L 170.25614 209.859664 
L 171.319081 208.218387 
L 172.382023 197.960163 
L 173.444964 209.244124 
L 174.507906 203.499655 
L 175.570847 206.987429 
L 176.633789 189.753657 
L 177.69673 218.476489 
L 178.759672 202.063477 
L 179.822613 205.346031 
L 180.885555 203.089214 
L 181.948496 200.21698 
L 183.011438 201.447937 
L 184.074379 204.525392 
L 185.137321 192.215572 
L 186.200262 204.115073 
L 187.263204 201.653158 
L 188.326145 206.576988 
L 189.389087 210.064763 
L 190.452028 192.420792 
L 191.51497 196.934426 
L 192.577911 202.063477 
L 193.640853 195.498248 
L 194.703794 191.600154 
L 195.766736 200.4222 
L 196.829677 193.856971 
L 197.892619 192.831112 
L 198.95556 196.318886 
L 201.081443 195.498248 
L 202.144385 205.140932 
L 203.207326 202.268576 
L 204.270268 194.882708 
L 205.333209 195.498248 
L 206.396151 199.191121 
L 207.459092 189.138239 
L 208.522034 197.139524 
L 209.584975 190.984614 
L 210.647917 193.856971 
L 211.710859 190.163976 
L 212.7738 199.191121 
L 213.836742 192.626013 
L 214.899683 189.958877 
L 215.962625 189.138239 
L 217.025566 190.163976 
L 218.088508 193.598531 
L 219.151449 194.472389 
L 220.214391 188.317479 
L 221.277332 186.676202 
L 222.340274 190.574295 
L 223.403215 185.855563 
L 224.466157 190.163976 
L 225.529098 185.034925 
L 226.59204 190.779516 
L 227.654981 184.419385 
L 228.717923 187.70206 
L 229.780864 189.343337 
L 230.843806 180.521292 
L 231.906747 185.034925 
L 232.969689 184.829704 
L 234.03263 192.215572 
L 235.095572 179.495554 
L 236.158513 190.779516 
L 237.221455 187.086521 
L 238.284396 185.650464 
L 239.347338 183.598747 
L 240.410279 178.264596 
L 241.473221 185.650464 
L 242.536162 181.95747 
L 243.599104 184.009066 
L 244.662045 184.624605 
L 245.724987 188.933018 
L 246.787928 186.676202 
L 247.85087 191.394934 
L 248.913811 187.086521 
L 249.976753 179.905873 
L 251.039694 187.086521 
L 252.102636 187.907159 
L 253.165577 177.443837 
L 254.228519 183.393648 
L 255.29146 181.54715 
L 256.354402 193.856971 
L 257.417343 180.931611 
L 258.480285 181.95747 
L 259.543226 171.494147 
L 260.606168 174.366503 
L 261.669109 179.290334 
L 262.732051 185.240145 
L 263.794992 182.16269 
L 264.857934 184.009066 
L 265.920875 190.163976 
L 266.983817 178.059376 
L 269.1097 192.215572 
L 270.172641 179.085235 
L 271.235583 169.032231 
L 272.298524 184.214286 
L 273.361466 172.520006 
L 274.424407 177.238738 
L 275.487349 190.779516 
L 276.55029 174.981921 
L 277.613232 197.139524 
L 278.676173 171.289048 
L 279.739115 182.367789 
L 280.802056 178.880015 
L 281.864998 180.316193 
L 282.927939 185.855563 
L 283.990881 178.469695 
L 285.053822 189.343337 
L 286.116764 184.009066 
L 287.179705 183.393648 
L 288.242647 177.238738 
L 289.305588 191.805253 
L 290.36853 177.033517 
L 291.431471 177.238738 
L 292.494413 179.085235 
L 293.557354 180.521292 
L 294.620296 184.624605 
L 295.683237 181.54715 
L 296.746179 175.187141 
L 297.80912 178.059376 
L 298.872062 179.905873 
L 299.935003 180.931611 
L 300.997945 183.598747 
L 302.060886 188.11238 
L 303.123828 177.443837 
L 304.186769 177.033517 
L 306.312652 185.034925 
L 307.375594 173.135424 
L 308.438535 178.059376 
L 309.501477 187.70206 
L 310.564418 176.623198 
L 311.62736 176.00778 
L 312.690301 181.54715 
L 313.753243 174.776822 
L 314.816184 187.086521 
L 315.879126 173.340644 
L 316.942067 171.083828 
L 318.005009 189.343337 
L 319.06795 166.365096 
L 320.130892 173.545743 
L 321.193833 179.085235 
L 322.256775 179.085235 
L 323.319716 176.623198 
L 324.382658 171.083828 
L 325.445599 184.829704 
L 326.508541 172.314785 
L 327.571482 181.136831 
L 328.634424 174.571602 
L 329.697365 175.80256 
L 330.760307 177.649057 
L 331.823248 173.135424 
L 332.88619 173.956062 
L 333.949131 174.571602 
L 335.012073 174.571602 
L 336.075014 174.366503 
L 337.137956 186.471103 
L 338.200897 174.161283 
L 339.263839 178.674916 
L 340.32678 181.136831 
L 341.389722 168.416692 
L 342.452663 181.34193 
L 344.578546 173.135424 
L 345.641488 178.264596 
L 346.704429 169.647649 
L 347.767371 170.878729 
L 348.830312 178.880015 
L 349.893254 177.443837 
L 350.956195 172.725105 
L 352.019137 177.238738 
L 353.082078 168.006373 
L 354.14502 174.776822 
L 355.207961 180.521292 
L 356.270903 168.827011 
L 357.333844 174.571602 
L 358.396786 173.750963 
L 359.459727 173.956062 
L 360.522669 165.134138 
L 361.58561 172.930325 
L 362.648552 164.723819 
L 363.711493 177.238738 
L 364.774435 179.085235 
L 365.837376 170.878729 
L 366.900318 170.057969 
L 367.963259 169.442551 
L 369.026201 180.726512 
L 370.089142 176.623198 
L 371.152084 170.057969 
L 372.215025 174.776822 
L 373.277967 175.187141 
L 375.40385 175.187141 
L 376.466792 183.598747 
L 377.529733 168.416692 
L 378.592675 174.981921 
L 379.655616 173.750963 
L 380.718558 173.750963 
L 381.781499 171.083828 
L 382.844441 178.264596 
L 383.907382 174.161283 
L 384.970324 173.997495 
L 386.033265 170.673508 
L 387.096207 170.263189 
L 388.159148 169.032231 
L 389.22209 171.289048 
L 390.285031 171.083828 
L 391.347973 165.134138 
L 392.410914 174.571602 
L 393.473856 169.032231 
L 394.536797 167.390954 
L 395.599739 170.673508 
L 396.66268 171.083828 
L 397.725622 176.00778 
L 398.788563 172.520006 
L 399.851505 171.699367 
L 400.914446 162.056683 
L 401.977388 172.520006 
L 403.040329 162.467002 
L 404.103271 166.775415 
L 405.166212 176.00778 
L 406.229154 166.775415 
L 407.292095 165.749556 
L 408.355037 169.85287 
L 409.417978 175.187141 
L 410.48092 165.134138 
L 411.543861 171.699367 
L 412.606803 170.057969 
L 413.669744 180.316193 
L 414.732686 169.23733 
L 415.795627 178.264596 
L 416.858569 172.314785 
L 417.92151 168.416692 
L 418.984452 175.187141 
L 420.047393 172.725105 
L 421.110335 167.185734 
L 422.173276 171.289048 
L 423.236218 170.263189 
L 424.299159 173.340644 
L 425.362101 169.032231 
L 426.425042 175.187141 
L 427.487984 173.340644 
L 428.550925 174.981921 
L 429.613867 166.365096 
L 430.676808 175.80256 
L 431.73975 174.161283 
L 432.802691 169.647649 
L 433.865633 172.314785 
L 434.928574 169.85287 
L 435.991516 166.775415 
L 437.054457 168.416692 
L 438.117399 168.827011 
L 439.18034 173.750963 
L 440.243282 169.442551 
L 441.306223 164.518598 
L 442.369165 175.597461 
L 443.432106 176.00778 
L 444.495048 173.956062 
L 445.557989 168.416692 
L 446.620931 176.418099 
L 447.683872 161.646364 
L 448.746814 175.597461 
L 449.809755 175.39224 
L 450.872697 167.596053 
L 451.935638 170.057969 
L 452.99858 173.340644 
L 454.061521 164.518598 
L 455.124463 173.956062 
L 456.187404 170.057969 
L 457.250346 172.109686 
L 458.313287 177.238738 
L 459.376229 178.264596 
L 460.43917 167.801274 
L 461.502112 177.238738 
L 462.565053 170.878729 
L 463.627995 167.185734 
L 464.690936 170.878729 
L 465.753878 176.212879 
L 466.816819 163.90318 
L 467.879761 170.468409 
L 468.942702 168.827011 
L 470.005644 174.161283 
L 471.068585 169.23733 
L 472.131527 162.261782 
L 473.194468 173.545743 
L 474.25741 176.00778 
L 475.320351 166.365096 
L 476.383293 177.033517 
L 477.446234 169.442551 
L 478.509176 169.647649 
L 479.572117 172.930325 
L 480.635059 170.468409 
L 481.698 183.803967 
L 482.760942 168.827011 
L 483.823883 171.083828 
L 484.886825 161.441143 
L 485.949766 166.980635 
L 487.012708 174.366503 
L 488.075649 171.904466 
L 489.138591 173.545743 
L 490.201532 162.672101 
L 491.264474 175.39224 
L 492.327415 172.725105 
L 493.390357 173.750963 
L 494.453298 167.596053 
L 495.51624 169.85287 
L 496.579181 172.725105 
L 497.642123 172.314785 
L 498.705064 168.621912 
L 499.768006 163.08242 
L 500.830947 173.340644 
L 501.893889 172.725105 
L 502.95683 172.314785 
L 504.019772 173.545743 
L 505.082713 168.006373 
L 506.145655 168.827011 
L 507.208596 172.930325 
L 508.271538 166.570194 
L 509.334479 173.135424 
L 510.397421 155.491453 
L 511.460362 169.23733 
L 512.523304 168.211593 
L 513.586245 167.596053 
L 514.649187 174.366503 
L 515.712128 162.672101 
L 516.77507 175.39224 
L 517.838011 166.980635 
L 518.900953 171.083828 
L 521.026836 169.85287 
L 522.089777 168.211593 
L 523.152719 171.289048 
L 524.21566 166.570194 
L 525.278602 168.827011 
L 526.341543 168.621912 
L 527.404485 172.520006 
L 528.467426 165.339237 
L 529.530368 175.39224 
L 530.593309 164.313499 
L 531.656251 168.621912 
L 532.719192 173.545743 
L 533.782134 162.877321 
L 534.845076 175.597461 
L 535.908017 162.467002 
L 536.970959 167.801274 
L 538.0339 174.776822 
L 539.096842 169.442551 
L 541.222725 163.69796 
L 542.285666 169.032231 
L 543.348608 168.827011 
L 544.411549 166.570194 
L 545.474491 169.442551 
L 546.537432 161.441143 
L 547.600374 165.954776 
L 548.663315 166.159875 
L 549.726257 165.749556 
L 550.789198 164.928917 
L 551.85214 166.647228 
L 552.915081 165.544457 
L 553.978023 164.928917 
L 555.040964 165.544457 
L 556.103906 165.749556 
L 557.166847 171.904466 
L 558.229789 169.23733 
L 559.29273 169.85287 
L 560.355672 169.442551 
L 561.418613 162.056683 
L 562.481555 169.442551 
L 563.544496 169.032231 
L 564.607438 166.159875 
L 565.670379 161.851462 
L 566.733321 164.723819 
L 567.796262 163.492861 
L 568.859204 165.339237 
L 569.922145 162.877321 
L 570.985087 166.775415 
L 572.048028 167.801274 
L 573.11097 165.339237 
L 574.173911 161.030824 
L 575.236853 161.236044 
L 576.299794 161.851462 
L 577.362736 164.518598 
L 578.425677 155.286233 
L 579.488619 175.187141 
L 580.55156 165.544457 
L 581.614502 165.544457 
L 582.677443 160.005087 
L 583.740385 167.390954 
L 584.803326 164.723819 
L 585.866268 165.749556 
L 586.929209 168.827011 
L 587.992151 154.465595 
L 589.055092 168.416692 
L 590.118034 158.363688 
L 591.180975 165.749556 
L 592.243917 167.390954 
L 594.3698 163.08242 
L 595.432741 171.083828 
L 596.495683 164.928917 
L 597.558624 168.416692 
L 598.621566 160.210185 
L 599.684507 165.339237 
L 600.747449 166.980635 
L 601.81039 153.439857 
L 602.873332 164.313499 
L 603.936273 172.725105 
L 604.999215 160.005087 
L 606.062156 174.571602 
L 607.125098 166.980635 
L 608.188039 160.620505 
L 609.250981 161.236044 
L 610.313922 165.954776 
L 611.376864 162.056683 
L 612.439805 166.570194 
L 613.502747 171.699367 
L 614.565688 161.441143 
L 615.62863 166.775415 
L 616.691571 168.416692 
L 617.754513 163.69796 
L 618.817454 161.030824 
L 619.880396 160.620505 
L 620.943337 157.953369 
L 622.006279 170.673508 
L 623.06922 163.492861 
L 624.132162 161.030824 
L 625.195103 166.775415 
L 626.258045 159.389547 
L 627.320986 174.571602 
L 628.383928 160.415406 
L 629.446869 164.518598 
L 630.509811 158.774007 
L 631.572752 171.904466 
L 632.635694 160.005087 
L 633.698635 166.365096 
L 635.824518 158.979228 
L 636.88746 159.799866 
L 637.950401 163.287641 
L 639.013343 157.74827 
L 640.076284 159.799866 
L 641.139226 165.749556 
L 642.202167 160.825725 
L 643.265109 159.799866 
L 644.32805 164.313499 
L 645.390992 158.568909 
L 646.453933 166.775415 
L 647.516875 162.467002 
L 648.579816 158.774007 
L 649.642758 169.85287 
L 650.705699 161.441143 
L 651.768641 162.261782 
L 652.831582 168.827011 
L 653.894524 157.54305 
L 654.957465 163.492861 
L 656.020407 162.261782 
L 658.14629 167.390954 
L 659.209231 160.620505 
L 660.272173 163.08242 
L 661.335114 167.596053 
L 662.398056 162.467002 
L 663.460997 167.390954 
L 664.523939 165.544457 
L 665.58688 158.363688 
L 666.649822 164.518598 
L 667.712763 160.825725 
L 668.775705 164.108279 
L 669.838646 163.492861 
L 670.901588 163.08242 
L 671.964529 155.696552 
L 673.027471 163.287641 
L 674.090412 157.337951 
L 675.153354 162.261782 
L 676.216295 165.544457 
L 677.279237 161.236044 
L 678.342178 161.851462 
L 679.40512 172.930325 
L 681.531003 150.567501 
L 682.593944 167.596053 
L 683.656886 166.980635 
L 684.719827 163.90318 
L 685.782769 166.365096 
L 686.84571 166.980635 
L 687.908652 161.441143 
L 687.908652 161.441143 
" style="fill:none;stroke:#4daf4a;stroke-linecap:square;stroke-opacity:0.25098;stroke-width:1.5;"/>
   </g>
   <g id="patch_3">
    <path d="M 50.14375 337.159219 
L 50.14375 10.999219 
" style="fill:none;stroke:#000000;stroke-linecap:square;stroke-linejoin:miter;stroke-width:0.8;"/>
   </g>
   <g id="patch_4">
    <path d="M 719.74375 337.159219 
L 719.74375 10.999219 
" style="fill:none;stroke:#000000;stroke-linecap:square;stroke-linejoin:miter;stroke-width:0.8;"/>
   </g>
   <g id="patch_5">
    <path d="M 50.14375 337.159219 
L 719.74375 337.159219 
" style="fill:none;stroke:#000000;stroke-linecap:square;stroke-linejoin:miter;stroke-width:0.8;"/>
   </g>
   <g id="patch_6">
    <path d="M 50.14375 10.999219 
L 719.74375 10.999219 
" style="fill:none;stroke:#000000;stroke-linecap:square;stroke-linejoin:miter;stroke-width:0.8;"/>
   </g>
   <g id="legend_1">
    <g id="patch_7">
     <path d="M 57.14375 48.355469 
L 114.584375 48.355469 
Q 116.584375 48.355469 116.584375 46.355469 
L 116.584375 17.999219 
Q 116.584375 15.999219 114.584375 15.999219 
L 57.14375 15.999219 
Q 55.14375 15.999219 55.14375 17.999219 
L 55.14375 46.355469 
Q 55.14375 48.355469 57.14375 48.355469 
z
" style="fill:#ffffff;opacity:0.8;stroke:#cccccc;stroke-linejoin:miter;"/>
    </g>
    <g id="line2d_37">
     <path d="M 59.14375 24.097656 
L 79.14375 24.097656 
" style="fill:none;stroke:#377eb8;stroke-linecap:square;stroke-width:2;"/>
    </g>
    <g id="line2d_38"/>
    <g id="text_19">
     <!-- Train -->
     <defs>
      <path d="M -0.296875 72.90625 
L 61.375 72.90625 
L 61.375 64.59375 
L 35.5 64.59375 
L 35.5 0 
L 25.59375 0 
L 25.59375 64.59375 
L -0.296875 64.59375 
z
" id="DejaVuSans-84"/>
      <path d="M 9.421875 54.6875 
L 18.40625 54.6875 
L 18.40625 0 
L 9.421875 0 
z
M 9.421875 75.984375 
L 18.40625 75.984375 
L 18.40625 64.59375 
L 9.421875 64.59375 
z
" id="DejaVuSans-105"/>
      <path d="M 54.890625 33.015625 
L 54.890625 0 
L 45.90625 0 
L 45.90625 32.71875 
Q 45.90625 40.484375 42.875 44.328125 
Q 39.84375 48.1875 33.796875 48.1875 
Q 26.515625 48.1875 22.3125 43.546875 
Q 18.109375 38.921875 18.109375 30.90625 
L 18.109375 0 
L 9.078125 0 
L 9.078125 54.6875 
L 18.109375 54.6875 
L 18.109375 46.1875 
Q 21.34375 51.125 25.703125 53.5625 
Q 30.078125 56 35.796875 56 
Q 45.21875 56 50.046875 50.171875 
Q 54.890625 44.34375 54.890625 33.015625 
z
" id="DejaVuSans-110"/>
     </defs>
     <g transform="translate(87.14375 27.597656)scale(0.1 -0.1)">
      <use xlink:href="#DejaVuSans-84"/>
      <use x="60.865234" xlink:href="#DejaVuSans-114"/>
      <use x="101.978516" xlink:href="#DejaVuSans-97"/>
      <use x="163.257812" xlink:href="#DejaVuSans-105"/>
      <use x="191.041016" xlink:href="#DejaVuSans-110"/>
     </g>
    </g>
    <g id="line2d_39">
     <path d="M 59.14375 38.775781 
L 79.14375 38.775781 
" style="fill:none;stroke:#4daf4a;stroke-linecap:square;stroke-width:2;"/>
    </g>
    <g id="line2d_40"/>
    <g id="text_20">
     <!-- Test -->
     <defs>
      <path d="M 56.203125 29.59375 
L 56.203125 25.203125 
L 14.890625 25.203125 
Q 15.484375 15.921875 20.484375 11.0625 
Q 25.484375 6.203125 34.421875 6.203125 
Q 39.59375 6.203125 44.453125 7.46875 
Q 49.3125 8.734375 54.109375 11.28125 
L 54.109375 2.78125 
Q 49.265625 0.734375 44.1875 -0.34375 
Q 39.109375 -1.421875 33.890625 -1.421875 
Q 20.796875 -1.421875 13.15625 6.1875 
Q 5.515625 13.8125 5.515625 26.8125 
Q 5.515625 40.234375 12.765625 48.109375 
Q 20.015625 56 32.328125 56 
Q 43.359375 56 49.78125 48.890625 
Q 56.203125 41.796875 56.203125 29.59375 
z
M 47.21875 32.234375 
Q 47.125 39.59375 43.09375 43.984375 
Q 39.0625 48.390625 32.421875 48.390625 
Q 24.90625 48.390625 20.390625 44.140625 
Q 15.875 39.890625 15.1875 32.171875 
z
" id="DejaVuSans-101"/>
      <path d="M 44.28125 53.078125 
L 44.28125 44.578125 
Q 40.484375 46.53125 36.375 47.5 
Q 32.28125 48.484375 27.875 48.484375 
Q 21.1875 48.484375 17.84375 46.4375 
Q 14.5 44.390625 14.5 40.28125 
Q 14.5 37.15625 16.890625 35.375 
Q 19.28125 33.59375 26.515625 31.984375 
L 29.59375 31.296875 
Q 39.15625 29.25 43.1875 25.515625 
Q 47.21875 21.78125 47.21875 15.09375 
Q 47.21875 7.46875 41.1875 3.015625 
Q 35.15625 -1.421875 24.609375 -1.421875 
Q 20.21875 -1.421875 15.453125 -0.5625 
Q 10.6875 0.296875 5.421875 2 
L 5.421875 11.28125 
Q 10.40625 8.6875 15.234375 7.390625 
Q 20.0625 6.109375 24.8125 6.109375 
Q 31.15625 6.109375 34.5625 8.28125 
Q 37.984375 10.453125 37.984375 14.40625 
Q 37.984375 18.0625 35.515625 20.015625 
Q 33.0625 21.96875 24.703125 23.78125 
L 21.578125 24.515625 
Q 13.234375 26.265625 9.515625 29.90625 
Q 5.8125 33.546875 5.8125 39.890625 
Q 5.8125 47.609375 11.28125 51.796875 
Q 16.75 56 26.8125 56 
Q 31.78125 56 36.171875 55.265625 
Q 40.578125 54.546875 44.28125 53.078125 
z
" id="DejaVuSans-115"/>
      <path d="M 18.3125 70.21875 
L 18.3125 54.6875 
L 36.8125 54.6875 
L 36.8125 47.703125 
L 18.3125 47.703125 
L 18.3125 18.015625 
Q 18.3125 11.328125 20.140625 9.421875 
Q 21.96875 7.515625 27.59375 7.515625 
L 36.8125 7.515625 
L 36.8125 0 
L 27.59375 0 
Q 17.1875 0 13.234375 3.875 
Q 9.28125 7.765625 9.28125 18.015625 
L 9.28125 47.703125 
L 2.6875 47.703125 
L 2.6875 54.6875 
L 9.28125 54.6875 
L 9.28125 70.21875 
z
" id="DejaVuSans-116"/>
     </defs>
     <g transform="translate(87.14375 42.275781)scale(0.1 -0.1)">
      <use xlink:href="#DejaVuSans-84"/>
      <use x="60.818359" xlink:href="#DejaVuSans-101"/>
      <use x="122.341797" xlink:href="#DejaVuSans-115"/>
      <use x="174.441406" xlink:href="#DejaVuSans-116"/>
     </g>
    </g>
   </g>
  </g>
 </g>
 <defs>
  <clipPath id="pf6088d5ac3">
   <rect height="326.16" width="669.6" x="50.14375" y="10.999219"/>
  </clipPath>
 </defs>
</svg>
