<?xml version="1.0" encoding="utf-8" standalone="no"?>
<!DOCTYPE svg PUBLIC "-//W3C//DTD SVG 1.1//EN"
  "http://www.w3.org/Graphics/SVG/1.1/DTD/svg11.dtd">
<!-- Created with matplotlib (https://matplotlib.org/) -->
<svg height="374.715469pt" version="1.1" viewBox="0 0 726.94375 374.715469" width="726.94375pt" xmlns="http://www.w3.org/2000/svg" xmlns:xlink="http://www.w3.org/1999/xlink">
 <defs>
  <style type="text/css">
*{stroke-linecap:butt;stroke-linejoin:round;white-space:pre;}
  </style>
 </defs>
 <g id="figure_1">
  <g id="patch_1">
   <path d="M 0 374.715469 
L 726.94375 374.715469 
L 726.94375 0 
L 0 0 
z
" style="fill:#ffffff;"/>
  </g>
  <g id="axes_1">
   <g id="patch_2">
    <path d="M 50.14375 337.159219 
L 719.74375 337.159219 
L 719.74375 10.999219 
L 50.14375 10.999219 
z
" style="fill:#ffffff;"/>
   </g>
   <g id="matplotlib.axis_1">
    <g id="xtick_1">
     <g id="line2d_1">
      <path clip-path="url(#p02f1e06d67)" d="M 50.14375 337.159219 
L 50.14375 10.999219 
" style="fill:none;stroke:#b0b0b0;stroke-linecap:square;stroke-width:0.8;"/>
     </g>
     <g id="line2d_2">
      <defs>
       <path d="M 0 0 
L 0 3.5 
" id="m5f7cb5ceb7" style="stroke:#000000;stroke-width:0.8;"/>
      </defs>
      <g>
       <use style="stroke:#000000;stroke-width:0.8;" x="50.14375" xlink:href="#m5f7cb5ceb7" y="337.159219"/>
      </g>
     </g>
     <g id="text_1">
      <!-- 0 -->
      <defs>
       <path d="M 31.78125 66.40625 
Q 24.171875 66.40625 20.328125 58.90625 
Q 16.5 51.421875 16.5 36.375 
Q 16.5 21.390625 20.328125 13.890625 
Q 24.171875 6.390625 31.78125 6.390625 
Q 39.453125 6.390625 43.28125 13.890625 
Q 47.125 21.390625 47.125 36.375 
Q 47.125 51.421875 43.28125 58.90625 
Q 39.453125 66.40625 31.78125 66.40625 
z
M 31.78125 74.21875 
Q 44.046875 74.21875 50.515625 64.515625 
Q 56.984375 54.828125 56.984375 36.375 
Q 56.984375 17.96875 50.515625 8.265625 
Q 44.046875 -1.421875 31.78125 -1.421875 
Q 19.53125 -1.421875 13.0625 8.265625 
Q 6.59375 17.96875 6.59375 36.375 
Q 6.59375 54.828125 13.0625 64.515625 
Q 19.53125 74.21875 31.78125 74.21875 
z
" id="DejaVuSans-48"/>
      </defs>
      <g transform="translate(46.9625 351.757656)scale(0.1 -0.1)">
       <use xlink:href="#DejaVuSans-48"/>
      </g>
     </g>
    </g>
    <g id="xtick_2">
     <g id="line2d_3">
      <path clip-path="url(#p02f1e06d67)" d="M 129.867527 337.159219 
L 129.867527 10.999219 
" style="fill:none;stroke:#b0b0b0;stroke-linecap:square;stroke-width:0.8;"/>
     </g>
     <g id="line2d_4">
      <g>
       <use style="stroke:#000000;stroke-width:0.8;" x="129.867527" xlink:href="#m5f7cb5ceb7" y="337.159219"/>
      </g>
     </g>
     <g id="text_2">
      <!-- 50 -->
      <defs>
       <path d="M 10.796875 72.90625 
L 49.515625 72.90625 
L 49.515625 64.59375 
L 19.828125 64.59375 
L 19.828125 46.734375 
Q 21.96875 47.46875 24.109375 47.828125 
Q 26.265625 48.1875 28.421875 48.1875 
Q 40.625 48.1875 47.75 41.5 
Q 54.890625 34.8125 54.890625 23.390625 
Q 54.890625 11.625 47.5625 5.09375 
Q 40.234375 -1.421875 26.90625 -1.421875 
Q 22.3125 -1.421875 17.546875 -0.640625 
Q 12.796875 0.140625 7.71875 1.703125 
L 7.71875 11.625 
Q 12.109375 9.234375 16.796875 8.0625 
Q 21.484375 6.890625 26.703125 6.890625 
Q 35.15625 6.890625 40.078125 11.328125 
Q 45.015625 15.765625 45.015625 23.390625 
Q 45.015625 31 40.078125 35.4375 
Q 35.15625 39.890625 26.703125 39.890625 
Q 22.75 39.890625 18.8125 39.015625 
Q 14.890625 38.140625 10.796875 36.28125 
z
" id="DejaVuSans-53"/>
      </defs>
      <g transform="translate(123.505027 351.757656)scale(0.1 -0.1)">
       <use xlink:href="#DejaVuSans-53"/>
       <use x="63.623047" xlink:href="#DejaVuSans-48"/>
      </g>
     </g>
    </g>
    <g id="xtick_3">
     <g id="line2d_5">
      <path clip-path="url(#p02f1e06d67)" d="M 209.591303 337.159219 
L 209.591303 10.999219 
" style="fill:none;stroke:#b0b0b0;stroke-linecap:square;stroke-width:0.8;"/>
     </g>
     <g id="line2d_6">
      <g>
       <use style="stroke:#000000;stroke-width:0.8;" x="209.591303" xlink:href="#m5f7cb5ceb7" y="337.159219"/>
      </g>
     </g>
     <g id="text_3">
      <!-- 100 -->
      <defs>
       <path d="M 12.40625 8.296875 
L 28.515625 8.296875 
L 28.515625 63.921875 
L 10.984375 60.40625 
L 10.984375 69.390625 
L 28.421875 72.90625 
L 38.28125 72.90625 
L 38.28125 8.296875 
L 54.390625 8.296875 
L 54.390625 0 
L 12.40625 0 
z
" id="DejaVuSans-49"/>
      </defs>
      <g transform="translate(200.047553 351.757656)scale(0.1 -0.1)">
       <use xlink:href="#DejaVuSans-49"/>
       <use x="63.623047" xlink:href="#DejaVuSans-48"/>
       <use x="127.246094" xlink:href="#DejaVuSans-48"/>
      </g>
     </g>
    </g>
    <g id="xtick_4">
     <g id="line2d_7">
      <path clip-path="url(#p02f1e06d67)" d="M 289.31508 337.159219 
L 289.31508 10.999219 
" style="fill:none;stroke:#b0b0b0;stroke-linecap:square;stroke-width:0.8;"/>
     </g>
     <g id="line2d_8">
      <g>
       <use style="stroke:#000000;stroke-width:0.8;" x="289.31508" xlink:href="#m5f7cb5ceb7" y="337.159219"/>
      </g>
     </g>
     <g id="text_4">
      <!-- 150 -->
      <g transform="translate(279.77133 351.757656)scale(0.1 -0.1)">
       <use xlink:href="#DejaVuSans-49"/>
       <use x="63.623047" xlink:href="#DejaVuSans-53"/>
       <use x="127.246094" xlink:href="#DejaVuSans-48"/>
      </g>
     </g>
    </g>
    <g id="xtick_5">
     <g id="line2d_9">
      <path clip-path="url(#p02f1e06d67)" d="M 369.038857 337.159219 
L 369.038857 10.999219 
" style="fill:none;stroke:#b0b0b0;stroke-linecap:square;stroke-width:0.8;"/>
     </g>
     <g id="line2d_10">
      <g>
       <use style="stroke:#000000;stroke-width:0.8;" x="369.038857" xlink:href="#m5f7cb5ceb7" y="337.159219"/>
      </g>
     </g>
     <g id="text_5">
      <!-- 200 -->
      <defs>
       <path d="M 19.1875 8.296875 
L 53.609375 8.296875 
L 53.609375 0 
L 7.328125 0 
L 7.328125 8.296875 
Q 12.9375 14.109375 22.625 23.890625 
Q 32.328125 33.6875 34.8125 36.53125 
Q 39.546875 41.84375 41.421875 45.53125 
Q 43.3125 49.21875 43.3125 52.78125 
Q 43.3125 58.59375 39.234375 62.25 
Q 35.15625 65.921875 28.609375 65.921875 
Q 23.96875 65.921875 18.8125 64.3125 
Q 13.671875 62.703125 7.8125 59.421875 
L 7.8125 69.390625 
Q 13.765625 71.78125 18.9375 73 
Q 24.125 74.21875 28.421875 74.21875 
Q 39.75 74.21875 46.484375 68.546875 
Q 53.21875 62.890625 53.21875 53.421875 
Q 53.21875 48.921875 51.53125 44.890625 
Q 49.859375 40.875 45.40625 35.40625 
Q 44.1875 33.984375 37.640625 27.21875 
Q 31.109375 20.453125 19.1875 8.296875 
z
" id="DejaVuSans-50"/>
      </defs>
      <g transform="translate(359.495107 351.757656)scale(0.1 -0.1)">
       <use xlink:href="#DejaVuSans-50"/>
       <use x="63.623047" xlink:href="#DejaVuSans-48"/>
       <use x="127.246094" xlink:href="#DejaVuSans-48"/>
      </g>
     </g>
    </g>
    <g id="xtick_6">
     <g id="line2d_11">
      <path clip-path="url(#p02f1e06d67)" d="M 448.762633 337.159219 
L 448.762633 10.999219 
" style="fill:none;stroke:#b0b0b0;stroke-linecap:square;stroke-width:0.8;"/>
     </g>
     <g id="line2d_12">
      <g>
       <use style="stroke:#000000;stroke-width:0.8;" x="448.762633" xlink:href="#m5f7cb5ceb7" y="337.159219"/>
      </g>
     </g>
     <g id="text_6">
      <!-- 250 -->
      <g transform="translate(439.218883 351.757656)scale(0.1 -0.1)">
       <use xlink:href="#DejaVuSans-50"/>
       <use x="63.623047" xlink:href="#DejaVuSans-53"/>
       <use x="127.246094" xlink:href="#DejaVuSans-48"/>
      </g>
     </g>
    </g>
    <g id="xtick_7">
     <g id="line2d_13">
      <path clip-path="url(#p02f1e06d67)" d="M 528.48641 337.159219 
L 528.48641 10.999219 
" style="fill:none;stroke:#b0b0b0;stroke-linecap:square;stroke-width:0.8;"/>
     </g>
     <g id="line2d_14">
      <g>
       <use style="stroke:#000000;stroke-width:0.8;" x="528.48641" xlink:href="#m5f7cb5ceb7" y="337.159219"/>
      </g>
     </g>
     <g id="text_7">
      <!-- 300 -->
      <defs>
       <path d="M 40.578125 39.3125 
Q 47.65625 37.796875 51.625 33 
Q 55.609375 28.21875 55.609375 21.1875 
Q 55.609375 10.40625 48.1875 4.484375 
Q 40.765625 -1.421875 27.09375 -1.421875 
Q 22.515625 -1.421875 17.65625 -0.515625 
Q 12.796875 0.390625 7.625 2.203125 
L 7.625 11.71875 
Q 11.71875 9.328125 16.59375 8.109375 
Q 21.484375 6.890625 26.8125 6.890625 
Q 36.078125 6.890625 40.9375 10.546875 
Q 45.796875 14.203125 45.796875 21.1875 
Q 45.796875 27.640625 41.28125 31.265625 
Q 36.765625 34.90625 28.71875 34.90625 
L 20.21875 34.90625 
L 20.21875 43.015625 
L 29.109375 43.015625 
Q 36.375 43.015625 40.234375 45.921875 
Q 44.09375 48.828125 44.09375 54.296875 
Q 44.09375 59.90625 40.109375 62.90625 
Q 36.140625 65.921875 28.71875 65.921875 
Q 24.65625 65.921875 20.015625 65.03125 
Q 15.375 64.15625 9.8125 62.3125 
L 9.8125 71.09375 
Q 15.4375 72.65625 20.34375 73.4375 
Q 25.25 74.21875 29.59375 74.21875 
Q 40.828125 74.21875 47.359375 69.109375 
Q 53.90625 64.015625 53.90625 55.328125 
Q 53.90625 49.265625 50.4375 45.09375 
Q 46.96875 40.921875 40.578125 39.3125 
z
" id="DejaVuSans-51"/>
      </defs>
      <g transform="translate(518.94266 351.757656)scale(0.1 -0.1)">
       <use xlink:href="#DejaVuSans-51"/>
       <use x="63.623047" xlink:href="#DejaVuSans-48"/>
       <use x="127.246094" xlink:href="#DejaVuSans-48"/>
      </g>
     </g>
    </g>
    <g id="xtick_8">
     <g id="line2d_15">
      <path clip-path="url(#p02f1e06d67)" d="M 608.210186 337.159219 
L 608.210186 10.999219 
" style="fill:none;stroke:#b0b0b0;stroke-linecap:square;stroke-width:0.8;"/>
     </g>
     <g id="line2d_16">
      <g>
       <use style="stroke:#000000;stroke-width:0.8;" x="608.210186" xlink:href="#m5f7cb5ceb7" y="337.159219"/>
      </g>
     </g>
     <g id="text_8">
      <!-- 350 -->
      <g transform="translate(598.666436 351.757656)scale(0.1 -0.1)">
       <use xlink:href="#DejaVuSans-51"/>
       <use x="63.623047" xlink:href="#DejaVuSans-53"/>
       <use x="127.246094" xlink:href="#DejaVuSans-48"/>
      </g>
     </g>
    </g>
    <g id="xtick_9">
     <g id="line2d_17">
      <path clip-path="url(#p02f1e06d67)" d="M 687.933963 337.159219 
L 687.933963 10.999219 
" style="fill:none;stroke:#b0b0b0;stroke-linecap:square;stroke-width:0.8;"/>
     </g>
     <g id="line2d_18">
      <g>
       <use style="stroke:#000000;stroke-width:0.8;" x="687.933963" xlink:href="#m5f7cb5ceb7" y="337.159219"/>
      </g>
     </g>
     <g id="text_9">
      <!-- 400 -->
      <defs>
       <path d="M 37.796875 64.3125 
L 12.890625 25.390625 
L 37.796875 25.390625 
z
M 35.203125 72.90625 
L 47.609375 72.90625 
L 47.609375 25.390625 
L 58.015625 25.390625 
L 58.015625 17.1875 
L 47.609375 17.1875 
L 47.609375 0 
L 37.796875 0 
L 37.796875 17.1875 
L 4.890625 17.1875 
L 4.890625 26.703125 
z
" id="DejaVuSans-52"/>
      </defs>
      <g transform="translate(678.390213 351.757656)scale(0.1 -0.1)">
       <use xlink:href="#DejaVuSans-52"/>
       <use x="63.623047" xlink:href="#DejaVuSans-48"/>
       <use x="127.246094" xlink:href="#DejaVuSans-48"/>
      </g>
     </g>
    </g>
    <g id="text_10">
     <!-- Epoch -->
     <defs>
      <path d="M 9.8125 72.90625 
L 55.90625 72.90625 
L 55.90625 64.59375 
L 19.671875 64.59375 
L 19.671875 43.015625 
L 54.390625 43.015625 
L 54.390625 34.71875 
L 19.671875 34.71875 
L 19.671875 8.296875 
L 56.78125 8.296875 
L 56.78125 0 
L 9.8125 0 
z
" id="DejaVuSans-69"/>
      <path d="M 18.109375 8.203125 
L 18.109375 -20.796875 
L 9.078125 -20.796875 
L 9.078125 54.6875 
L 18.109375 54.6875 
L 18.109375 46.390625 
Q 20.953125 51.265625 25.265625 53.625 
Q 29.59375 56 35.59375 56 
Q 45.5625 56 51.78125 48.09375 
Q 58.015625 40.1875 58.015625 27.296875 
Q 58.015625 14.40625 51.78125 6.484375 
Q 45.5625 -1.421875 35.59375 -1.421875 
Q 29.59375 -1.421875 25.265625 0.953125 
Q 20.953125 3.328125 18.109375 8.203125 
z
M 48.6875 27.296875 
Q 48.6875 37.203125 44.609375 42.84375 
Q 40.53125 48.484375 33.40625 48.484375 
Q 26.265625 48.484375 22.1875 42.84375 
Q 18.109375 37.203125 18.109375 27.296875 
Q 18.109375 17.390625 22.1875 11.75 
Q 26.265625 6.109375 33.40625 6.109375 
Q 40.53125 6.109375 44.609375 11.75 
Q 48.6875 17.390625 48.6875 27.296875 
z
" id="DejaVuSans-112"/>
      <path d="M 30.609375 48.390625 
Q 23.390625 48.390625 19.1875 42.75 
Q 14.984375 37.109375 14.984375 27.296875 
Q 14.984375 17.484375 19.15625 11.84375 
Q 23.34375 6.203125 30.609375 6.203125 
Q 37.796875 6.203125 41.984375 11.859375 
Q 46.1875 17.53125 46.1875 27.296875 
Q 46.1875 37.015625 41.984375 42.703125 
Q 37.796875 48.390625 30.609375 48.390625 
z
M 30.609375 56 
Q 42.328125 56 49.015625 48.375 
Q 55.71875 40.765625 55.71875 27.296875 
Q 55.71875 13.875 49.015625 6.21875 
Q 42.328125 -1.421875 30.609375 -1.421875 
Q 18.84375 -1.421875 12.171875 6.21875 
Q 5.515625 13.875 5.515625 27.296875 
Q 5.515625 40.765625 12.171875 48.375 
Q 18.84375 56 30.609375 56 
z
" id="DejaVuSans-111"/>
      <path d="M 48.78125 52.59375 
L 48.78125 44.1875 
Q 44.96875 46.296875 41.140625 47.34375 
Q 37.3125 48.390625 33.40625 48.390625 
Q 24.65625 48.390625 19.8125 42.84375 
Q 14.984375 37.3125 14.984375 27.296875 
Q 14.984375 17.28125 19.8125 11.734375 
Q 24.65625 6.203125 33.40625 6.203125 
Q 37.3125 6.203125 41.140625 7.25 
Q 44.96875 8.296875 48.78125 10.40625 
L 48.78125 2.09375 
Q 45.015625 0.34375 40.984375 -0.53125 
Q 36.96875 -1.421875 32.421875 -1.421875 
Q 20.0625 -1.421875 12.78125 6.34375 
Q 5.515625 14.109375 5.515625 27.296875 
Q 5.515625 40.671875 12.859375 48.328125 
Q 20.21875 56 33.015625 56 
Q 37.15625 56 41.109375 55.140625 
Q 45.0625 54.296875 48.78125 52.59375 
z
" id="DejaVuSans-99"/>
      <path d="M 54.890625 33.015625 
L 54.890625 0 
L 45.90625 0 
L 45.90625 32.71875 
Q 45.90625 40.484375 42.875 44.328125 
Q 39.84375 48.1875 33.796875 48.1875 
Q 26.515625 48.1875 22.3125 43.546875 
Q 18.109375 38.921875 18.109375 30.90625 
L 18.109375 0 
L 9.078125 0 
L 9.078125 75.984375 
L 18.109375 75.984375 
L 18.109375 46.1875 
Q 21.34375 51.125 25.703125 53.5625 
Q 30.078125 56 35.796875 56 
Q 45.21875 56 50.046875 50.171875 
Q 54.890625 44.34375 54.890625 33.015625 
z
" id="DejaVuSans-104"/>
     </defs>
     <g transform="translate(369.632813 365.435781)scale(0.1 -0.1)">
      <use xlink:href="#DejaVuSans-69"/>
      <use x="63.183594" xlink:href="#DejaVuSans-112"/>
      <use x="126.660156" xlink:href="#DejaVuSans-111"/>
      <use x="187.841797" xlink:href="#DejaVuSans-99"/>
      <use x="242.822266" xlink:href="#DejaVuSans-104"/>
     </g>
    </g>
   </g>
   <g id="matplotlib.axis_2">
    <g id="ytick_1">
     <g id="line2d_19">
      <path clip-path="url(#p02f1e06d67)" d="M 50.14375 337.159219 
L 719.74375 337.159219 
" style="fill:none;stroke:#b0b0b0;stroke-linecap:square;stroke-width:0.8;"/>
     </g>
     <g id="line2d_20">
      <defs>
       <path d="M 0 0 
L -3.5 0 
" id="m0db00f50cf" style="stroke:#000000;stroke-width:0.8;"/>
      </defs>
      <g>
       <use style="stroke:#000000;stroke-width:0.8;" x="50.14375" xlink:href="#m0db00f50cf" y="337.159219"/>
      </g>
     </g>
     <g id="text_11">
      <!-- 0.82 -->
      <defs>
       <path d="M 10.6875 12.40625 
L 21 12.40625 
L 21 0 
L 10.6875 0 
z
" id="DejaVuSans-46"/>
       <path d="M 31.78125 34.625 
Q 24.75 34.625 20.71875 30.859375 
Q 16.703125 27.09375 16.703125 20.515625 
Q 16.703125 13.921875 20.71875 10.15625 
Q 24.75 6.390625 31.78125 6.390625 
Q 38.8125 6.390625 42.859375 10.171875 
Q 46.921875 13.96875 46.921875 20.515625 
Q 46.921875 27.09375 42.890625 30.859375 
Q 38.875 34.625 31.78125 34.625 
z
M 21.921875 38.8125 
Q 15.578125 40.375 12.03125 44.71875 
Q 8.5 49.078125 8.5 55.328125 
Q 8.5 64.0625 14.71875 69.140625 
Q 20.953125 74.21875 31.78125 74.21875 
Q 42.671875 74.21875 48.875 69.140625 
Q 55.078125 64.0625 55.078125 55.328125 
Q 55.078125 49.078125 51.53125 44.71875 
Q 48 40.375 41.703125 38.8125 
Q 48.828125 37.15625 52.796875 32.3125 
Q 56.78125 27.484375 56.78125 20.515625 
Q 56.78125 9.90625 50.3125 4.234375 
Q 43.84375 -1.421875 31.78125 -1.421875 
Q 19.734375 -1.421875 13.25 4.234375 
Q 6.78125 9.90625 6.78125 20.515625 
Q 6.78125 27.484375 10.78125 32.3125 
Q 14.796875 37.15625 21.921875 38.8125 
z
M 18.3125 54.390625 
Q 18.3125 48.734375 21.84375 45.5625 
Q 25.390625 42.390625 31.78125 42.390625 
Q 38.140625 42.390625 41.71875 45.5625 
Q 45.3125 48.734375 45.3125 54.390625 
Q 45.3125 60.0625 41.71875 63.234375 
Q 38.140625 66.40625 31.78125 66.40625 
Q 25.390625 66.40625 21.84375 63.234375 
Q 18.3125 60.0625 18.3125 54.390625 
z
" id="DejaVuSans-56"/>
      </defs>
      <g transform="translate(20.878125 340.958437)scale(0.1 -0.1)">
       <use xlink:href="#DejaVuSans-48"/>
       <use x="63.623047" xlink:href="#DejaVuSans-46"/>
       <use x="95.410156" xlink:href="#DejaVuSans-56"/>
       <use x="159.033203" xlink:href="#DejaVuSans-50"/>
      </g>
     </g>
    </g>
    <g id="ytick_2">
     <g id="line2d_21">
      <path clip-path="url(#p02f1e06d67)" d="M 50.14375 296.389219 
L 719.74375 296.389219 
" style="fill:none;stroke:#b0b0b0;stroke-linecap:square;stroke-width:0.8;"/>
     </g>
     <g id="line2d_22">
      <g>
       <use style="stroke:#000000;stroke-width:0.8;" x="50.14375" xlink:href="#m0db00f50cf" y="296.389219"/>
      </g>
     </g>
     <g id="text_12">
      <!-- 0.84 -->
      <g transform="translate(20.878125 300.188437)scale(0.1 -0.1)">
       <use xlink:href="#DejaVuSans-48"/>
       <use x="63.623047" xlink:href="#DejaVuSans-46"/>
       <use x="95.410156" xlink:href="#DejaVuSans-56"/>
       <use x="159.033203" xlink:href="#DejaVuSans-52"/>
      </g>
     </g>
    </g>
    <g id="ytick_3">
     <g id="line2d_23">
      <path clip-path="url(#p02f1e06d67)" d="M 50.14375 255.619219 
L 719.74375 255.619219 
" style="fill:none;stroke:#b0b0b0;stroke-linecap:square;stroke-width:0.8;"/>
     </g>
     <g id="line2d_24">
      <g>
       <use style="stroke:#000000;stroke-width:0.8;" x="50.14375" xlink:href="#m0db00f50cf" y="255.619219"/>
      </g>
     </g>
     <g id="text_13">
      <!-- 0.86 -->
      <defs>
       <path d="M 33.015625 40.375 
Q 26.375 40.375 22.484375 35.828125 
Q 18.609375 31.296875 18.609375 23.390625 
Q 18.609375 15.53125 22.484375 10.953125 
Q 26.375 6.390625 33.015625 6.390625 
Q 39.65625 6.390625 43.53125 10.953125 
Q 47.40625 15.53125 47.40625 23.390625 
Q 47.40625 31.296875 43.53125 35.828125 
Q 39.65625 40.375 33.015625 40.375 
z
M 52.59375 71.296875 
L 52.59375 62.3125 
Q 48.875 64.0625 45.09375 64.984375 
Q 41.3125 65.921875 37.59375 65.921875 
Q 27.828125 65.921875 22.671875 59.328125 
Q 17.53125 52.734375 16.796875 39.40625 
Q 19.671875 43.65625 24.015625 45.921875 
Q 28.375 48.1875 33.59375 48.1875 
Q 44.578125 48.1875 50.953125 41.515625 
Q 57.328125 34.859375 57.328125 23.390625 
Q 57.328125 12.15625 50.6875 5.359375 
Q 44.046875 -1.421875 33.015625 -1.421875 
Q 20.359375 -1.421875 13.671875 8.265625 
Q 6.984375 17.96875 6.984375 36.375 
Q 6.984375 53.65625 15.1875 63.9375 
Q 23.390625 74.21875 37.203125 74.21875 
Q 40.921875 74.21875 44.703125 73.484375 
Q 48.484375 72.75 52.59375 71.296875 
z
" id="DejaVuSans-54"/>
      </defs>
      <g transform="translate(20.878125 259.418437)scale(0.1 -0.1)">
       <use xlink:href="#DejaVuSans-48"/>
       <use x="63.623047" xlink:href="#DejaVuSans-46"/>
       <use x="95.410156" xlink:href="#DejaVuSans-56"/>
       <use x="159.033203" xlink:href="#DejaVuSans-54"/>
      </g>
     </g>
    </g>
    <g id="ytick_4">
     <g id="line2d_25">
      <path clip-path="url(#p02f1e06d67)" d="M 50.14375 214.849219 
L 719.74375 214.849219 
" style="fill:none;stroke:#b0b0b0;stroke-linecap:square;stroke-width:0.8;"/>
     </g>
     <g id="line2d_26">
      <g>
       <use style="stroke:#000000;stroke-width:0.8;" x="50.14375" xlink:href="#m0db00f50cf" y="214.849219"/>
      </g>
     </g>
     <g id="text_14">
      <!-- 0.88 -->
      <g transform="translate(20.878125 218.648437)scale(0.1 -0.1)">
       <use xlink:href="#DejaVuSans-48"/>
       <use x="63.623047" xlink:href="#DejaVuSans-46"/>
       <use x="95.410156" xlink:href="#DejaVuSans-56"/>
       <use x="159.033203" xlink:href="#DejaVuSans-56"/>
      </g>
     </g>
    </g>
    <g id="ytick_5">
     <g id="line2d_27">
      <path clip-path="url(#p02f1e06d67)" d="M 50.14375 174.079219 
L 719.74375 174.079219 
" style="fill:none;stroke:#b0b0b0;stroke-linecap:square;stroke-width:0.8;"/>
     </g>
     <g id="line2d_28">
      <g>
       <use style="stroke:#000000;stroke-width:0.8;" x="50.14375" xlink:href="#m0db00f50cf" y="174.079219"/>
      </g>
     </g>
     <g id="text_15">
      <!-- 0.90 -->
      <defs>
       <path d="M 10.984375 1.515625 
L 10.984375 10.5 
Q 14.703125 8.734375 18.5 7.8125 
Q 22.3125 6.890625 25.984375 6.890625 
Q 35.75 6.890625 40.890625 13.453125 
Q 46.046875 20.015625 46.78125 33.40625 
Q 43.953125 29.203125 39.59375 26.953125 
Q 35.25 24.703125 29.984375 24.703125 
Q 19.046875 24.703125 12.671875 31.3125 
Q 6.296875 37.9375 6.296875 49.421875 
Q 6.296875 60.640625 12.9375 67.421875 
Q 19.578125 74.21875 30.609375 74.21875 
Q 43.265625 74.21875 49.921875 64.515625 
Q 56.59375 54.828125 56.59375 36.375 
Q 56.59375 19.140625 48.40625 8.859375 
Q 40.234375 -1.421875 26.421875 -1.421875 
Q 22.703125 -1.421875 18.890625 -0.6875 
Q 15.09375 0.046875 10.984375 1.515625 
z
M 30.609375 32.421875 
Q 37.25 32.421875 41.125 36.953125 
Q 45.015625 41.5 45.015625 49.421875 
Q 45.015625 57.28125 41.125 61.84375 
Q 37.25 66.40625 30.609375 66.40625 
Q 23.96875 66.40625 20.09375 61.84375 
Q 16.21875 57.28125 16.21875 49.421875 
Q 16.21875 41.5 20.09375 36.953125 
Q 23.96875 32.421875 30.609375 32.421875 
z
" id="DejaVuSans-57"/>
      </defs>
      <g transform="translate(20.878125 177.878437)scale(0.1 -0.1)">
       <use xlink:href="#DejaVuSans-48"/>
       <use x="63.623047" xlink:href="#DejaVuSans-46"/>
       <use x="95.410156" xlink:href="#DejaVuSans-57"/>
       <use x="159.033203" xlink:href="#DejaVuSans-48"/>
      </g>
     </g>
    </g>
    <g id="ytick_6">
     <g id="line2d_29">
      <path clip-path="url(#p02f1e06d67)" d="M 50.14375 133.309219 
L 719.74375 133.309219 
" style="fill:none;stroke:#b0b0b0;stroke-linecap:square;stroke-width:0.8;"/>
     </g>
     <g id="line2d_30">
      <g>
       <use style="stroke:#000000;stroke-width:0.8;" x="50.14375" xlink:href="#m0db00f50cf" y="133.309219"/>
      </g>
     </g>
     <g id="text_16">
      <!-- 0.92 -->
      <g transform="translate(20.878125 137.108437)scale(0.1 -0.1)">
       <use xlink:href="#DejaVuSans-48"/>
       <use x="63.623047" xlink:href="#DejaVuSans-46"/>
       <use x="95.410156" xlink:href="#DejaVuSans-57"/>
       <use x="159.033203" xlink:href="#DejaVuSans-50"/>
      </g>
     </g>
    </g>
    <g id="ytick_7">
     <g id="line2d_31">
      <path clip-path="url(#p02f1e06d67)" d="M 50.14375 92.539219 
L 719.74375 92.539219 
" style="fill:none;stroke:#b0b0b0;stroke-linecap:square;stroke-width:0.8;"/>
     </g>
     <g id="line2d_32">
      <g>
       <use style="stroke:#000000;stroke-width:0.8;" x="50.14375" xlink:href="#m0db00f50cf" y="92.539219"/>
      </g>
     </g>
     <g id="text_17">
      <!-- 0.94 -->
      <g transform="translate(20.878125 96.338437)scale(0.1 -0.1)">
       <use xlink:href="#DejaVuSans-48"/>
       <use x="63.623047" xlink:href="#DejaVuSans-46"/>
       <use x="95.410156" xlink:href="#DejaVuSans-57"/>
       <use x="159.033203" xlink:href="#DejaVuSans-52"/>
      </g>
     </g>
    </g>
    <g id="ytick_8">
     <g id="line2d_33">
      <path clip-path="url(#p02f1e06d67)" d="M 50.14375 51.769219 
L 719.74375 51.769219 
" style="fill:none;stroke:#b0b0b0;stroke-linecap:square;stroke-width:0.8;"/>
     </g>
     <g id="line2d_34">
      <g>
       <use style="stroke:#000000;stroke-width:0.8;" x="50.14375" xlink:href="#m0db00f50cf" y="51.769219"/>
      </g>
     </g>
     <g id="text_18">
      <!-- 0.96 -->
      <g transform="translate(20.878125 55.568437)scale(0.1 -0.1)">
       <use xlink:href="#DejaVuSans-48"/>
       <use x="63.623047" xlink:href="#DejaVuSans-46"/>
       <use x="95.410156" xlink:href="#DejaVuSans-57"/>
       <use x="159.033203" xlink:href="#DejaVuSans-54"/>
      </g>
     </g>
    </g>
    <g id="ytick_9">
     <g id="line2d_35">
      <path clip-path="url(#p02f1e06d67)" d="M 50.14375 10.999219 
L 719.74375 10.999219 
" style="fill:none;stroke:#b0b0b0;stroke-linecap:square;stroke-width:0.8;"/>
     </g>
     <g id="line2d_36">
      <g>
       <use style="stroke:#000000;stroke-width:0.8;" x="50.14375" xlink:href="#m0db00f50cf" y="10.999219"/>
      </g>
     </g>
     <g id="text_19">
      <!-- 0.98 -->
      <g transform="translate(20.878125 14.798437)scale(0.1 -0.1)">
       <use xlink:href="#DejaVuSans-48"/>
       <use x="63.623047" xlink:href="#DejaVuSans-46"/>
       <use x="95.410156" xlink:href="#DejaVuSans-57"/>
       <use x="159.033203" xlink:href="#DejaVuSans-56"/>
      </g>
     </g>
    </g>
    <g id="text_20">
     <!-- Accuracy -->
     <defs>
      <path d="M 34.1875 63.1875 
L 20.796875 26.90625 
L 47.609375 26.90625 
z
M 28.609375 72.90625 
L 39.796875 72.90625 
L 67.578125 0 
L 57.328125 0 
L 50.6875 18.703125 
L 17.828125 18.703125 
L 11.1875 0 
L 0.78125 0 
z
" id="DejaVuSans-65"/>
      <path d="M 8.5 21.578125 
L 8.5 54.6875 
L 17.484375 54.6875 
L 17.484375 21.921875 
Q 17.484375 14.15625 20.5 10.265625 
Q 23.53125 6.390625 29.59375 6.390625 
Q 36.859375 6.390625 41.078125 11.03125 
Q 45.3125 15.671875 45.3125 23.6875 
L 45.3125 54.6875 
L 54.296875 54.6875 
L 54.296875 0 
L 45.3125 0 
L 45.3125 8.40625 
Q 42.046875 3.421875 37.71875 1 
Q 33.40625 -1.421875 27.6875 -1.421875 
Q 18.265625 -1.421875 13.375 4.4375 
Q 8.5 10.296875 8.5 21.578125 
z
M 31.109375 56 
z
" id="DejaVuSans-117"/>
      <path d="M 41.109375 46.296875 
Q 39.59375 47.171875 37.8125 47.578125 
Q 36.03125 48 33.890625 48 
Q 26.265625 48 22.1875 43.046875 
Q 18.109375 38.09375 18.109375 28.8125 
L 18.109375 0 
L 9.078125 0 
L 9.078125 54.6875 
L 18.109375 54.6875 
L 18.109375 46.1875 
Q 20.953125 51.171875 25.484375 53.578125 
Q 30.03125 56 36.53125 56 
Q 37.453125 56 38.578125 55.875 
Q 39.703125 55.765625 41.0625 55.515625 
z
" id="DejaVuSans-114"/>
      <path d="M 34.28125 27.484375 
Q 23.390625 27.484375 19.1875 25 
Q 14.984375 22.515625 14.984375 16.5 
Q 14.984375 11.71875 18.140625 8.90625 
Q 21.296875 6.109375 26.703125 6.109375 
Q 34.1875 6.109375 38.703125 11.40625 
Q 43.21875 16.703125 43.21875 25.484375 
L 43.21875 27.484375 
z
M 52.203125 31.203125 
L 52.203125 0 
L 43.21875 0 
L 43.21875 8.296875 
Q 40.140625 3.328125 35.546875 0.953125 
Q 30.953125 -1.421875 24.3125 -1.421875 
Q 15.921875 -1.421875 10.953125 3.296875 
Q 6 8.015625 6 15.921875 
Q 6 25.140625 12.171875 29.828125 
Q 18.359375 34.515625 30.609375 34.515625 
L 43.21875 34.515625 
L 43.21875 35.40625 
Q 43.21875 41.609375 39.140625 45 
Q 35.0625 48.390625 27.6875 48.390625 
Q 23 48.390625 18.546875 47.265625 
Q 14.109375 46.140625 10.015625 43.890625 
L 10.015625 52.203125 
Q 14.9375 54.109375 19.578125 55.046875 
Q 24.21875 56 28.609375 56 
Q 40.484375 56 46.34375 49.84375 
Q 52.203125 43.703125 52.203125 31.203125 
z
" id="DejaVuSans-97"/>
      <path d="M 32.171875 -5.078125 
Q 28.375 -14.84375 24.75 -17.8125 
Q 21.140625 -20.796875 15.09375 -20.796875 
L 7.90625 -20.796875 
L 7.90625 -13.28125 
L 13.1875 -13.28125 
Q 16.890625 -13.28125 18.9375 -11.515625 
Q 21 -9.765625 23.484375 -3.21875 
L 25.09375 0.875 
L 2.984375 54.6875 
L 12.5 54.6875 
L 29.59375 11.921875 
L 46.6875 54.6875 
L 56.203125 54.6875 
z
" id="DejaVuSans-121"/>
     </defs>
     <g transform="translate(14.798438 196.994062)rotate(-90)scale(0.1 -0.1)">
      <use xlink:href="#DejaVuSans-65"/>
      <use x="68.392578" xlink:href="#DejaVuSans-99"/>
      <use x="123.373047" xlink:href="#DejaVuSans-99"/>
      <use x="178.353516" xlink:href="#DejaVuSans-117"/>
      <use x="241.732422" xlink:href="#DejaVuSans-114"/>
      <use x="282.845703" xlink:href="#DejaVuSans-97"/>
      <use x="344.125" xlink:href="#DejaVuSans-99"/>
      <use x="399.105469" xlink:href="#DejaVuSans-121"/>
     </g>
    </g>
   </g>
   <g id="line2d_37">
    <path clip-path="url(#p02f1e06d67)" d="M 92.396431 375.715469 
L 103.321664 341.479817 
L 110.326822 320.229168 
L 116.058315 303.526957 
L 121.152976 289.355769 
L 125.610804 277.581786 
L 130.068632 266.48129 
L 133.889627 257.56394 
L 137.710623 249.207122 
L 141.531618 241.386398 
L 145.352613 234.076689 
L 149.173609 227.252921 
L 152.994604 220.890016 
L 156.8156 214.962898 
L 160.636595 209.446491 
L 164.45759 204.315717 
L 168.278586 199.5455 
L 172.099581 195.110764 
L 175.920577 190.986432 
L 179.741572 187.147428 
L 184.1994 182.995757 
L 188.657228 179.158496 
L 193.115056 175.595824 
L 198.209717 171.809349 
L 203.94121 167.842081 
L 210.946368 163.294618 
L 219.225191 158.186228 
L 227.504015 153.322598 
L 236.419671 148.348859 
L 245.335327 143.6386 
L 254.250983 139.181254 
L 263.166639 134.966251 
L 272.719127 130.707098 
L 282.271616 126.701017 
L 291.824104 122.935009 
L 302.013426 119.167902 
L 312.202747 115.643383 
L 322.392068 112.345675 
L 333.218222 109.072733 
L 344.681208 105.845912 
L 356.781027 102.681755 
L 369.517678 99.590956 
L 382.891162 96.580129 
L 396.264646 93.791967 
L 410.274963 91.095328 
L 424.922112 88.505117 
L 440.206093 86.033188 
L 456.126908 83.687855 
L 472.684554 81.473364 
L 490.515866 79.316033 
L 509.620843 77.231344 
L 530.636318 75.1637 
L 554.835956 73.010042 
L 586.040752 70.469291 
L 665.007991 64.142709 
L 687.933963 62.044751 
L 687.933963 62.044751 
" style="fill:none;stroke:#377eb8;stroke-linecap:square;stroke-width:2;"/>
   </g>
   <g id="line2d_38">
    <path clip-path="url(#p02f1e06d67)" d="M 91.162809 375.715469 
L 93.132343 367.324642 
L 95.679673 357.339571 
L 98.227003 348.268949 
L 100.774333 340.051346 
L 103.321664 332.625336 
L 105.868994 325.929489 
L 108.416324 319.902379 
L 110.963655 314.482576 
L 113.510985 309.608654 
L 116.058315 305.219184 
L 118.605645 301.252739 
L 121.152976 297.64789 
L 124.337139 293.556742 
L 127.521301 289.814631 
L 131.979129 284.933708 
L 138.347455 278.287663 
L 144.715781 271.956676 
L 151.084106 265.934034 
L 157.452432 260.213028 
L 163.820758 254.786946 
L 170.189084 249.649075 
L 176.557409 244.792706 
L 182.925735 240.211127 
L 189.294061 235.897626 
L 195.662386 231.845492 
L 202.030712 228.048013 
L 208.399038 224.49848 
L 214.767363 221.190094 
L 221.135689 218.114579 
L 228.140847 214.989093 
L 235.146006 212.121095 
L 242.151164 209.497836 
L 249.156322 207.10657 
L 256.161481 204.93455 
L 263.803471 202.800146 
L 271.445462 200.894944 
L 279.724286 199.070431 
L 288.003109 197.47445 
L 296.918765 195.987146 
L 306.471254 194.630789 
L 316.660575 193.418826 
L 327.486728 192.353725 
L 340.22338 191.331701 
L 356.144194 190.29408 
L 399.448809 187.829061 
L 642.082018 174.067309 
L 687.933963 171.724401 
L 687.933963 171.724401 
" style="fill:none;stroke:#4daf4a;stroke-linecap:square;stroke-width:2;"/>
   </g>
   <g id="line2d_39">
    <path clip-path="url(#p02f1e06d67)" d="M 93.339911 375.715469 
L 94.789065 360.754837 
L 96.38354 357.136568 
L 97.978016 351.071935 
L 99.572492 346.791104 
L 101.166967 347.351724 
L 104.355918 330.890838 
L 105.950394 321.46273 
L 107.544869 319.832024 
L 109.139345 322.685912 
L 110.73382 311.066478 
L 112.328296 307.346145 
L 113.922771 300.670104 
L 115.517247 300.007542 
L 117.111722 291.649763 
L 120.300673 282.425539 
L 121.895149 280.641859 
L 125.0841 275.647434 
L 126.678576 268.665567 
L 128.273051 262.397173 
L 129.867527 263.926058 
L 131.462002 257.606753 
L 133.056478 253.122038 
L 134.650953 254.090304 
L 136.245429 249.04509 
L 137.839904 248.178645 
L 139.43438 251.338358 
L 141.028855 242.623722 
L 142.623331 242.776696 
L 144.217806 237.527477 
L 145.812282 225.857133 
L 147.406758 233.50144 
L 149.001233 225.041719 
L 150.595709 230.341848 
L 152.190184 227.334987 
L 153.78466 223.105187 
L 155.379135 221.831095 
L 156.973611 213.167491 
L 158.568086 207.969304 
L 160.162562 213.320343 
L 161.757037 207.306742 
L 163.351513 207.969304 
L 164.945988 211.485753 
L 166.540464 207.510626 
L 168.134939 209.243395 
L 169.729415 205.93083 
L 171.32389 192.731478 
L 172.918366 201.089379 
L 174.512842 198.286401 
L 176.107317 189.011267 
L 179.296268 194.6171 
L 180.890744 189.215029 
L 182.485219 188.144821 
L 184.079695 186.412173 
L 185.67417 181.978368 
L 187.268646 186.055437 
L 188.863121 177.544685 
L 190.457597 176.168651 
L 192.052072 180.296631 
L 193.646548 178.309067 
L 195.241023 173.773442 
L 196.835499 172.550382 
L 198.429975 168.728107 
L 200.02445 168.575255 
L 201.618926 172.193646 
L 203.213401 172.142614 
L 204.807877 173.569558 
L 206.402352 163.479009 
L 207.996828 165.568515 
L 209.591303 167.861783 
L 211.185779 163.326157 
L 212.780254 161.69533 
L 214.37473 158.841442 
L 215.969205 157.975118 
L 217.563681 157.669292 
L 219.158156 152.776931 
L 220.752632 153.184577 
L 222.347108 160.166444 
L 223.941583 156.599085 
L 225.536059 157.465409 
L 227.130534 154.713463 
L 228.72501 154.152843 
L 230.319485 148.750894 
L 231.913961 150.483542 
L 233.508436 150.483542 
L 235.102912 147.272918 
L 238.291863 147.222008 
L 239.886338 146.100769 
L 241.480814 146.610478 
L 243.075289 142.380557 
L 244.669765 142.941177 
L 246.264241 144.775767 
L 247.858716 141.921879 
L 249.453192 141.667085 
L 251.047667 143.297913 
L 252.642143 140.698819 
L 254.236618 140.749729 
L 255.831094 134.022657 
L 257.425569 138.507372 
L 259.020045 137.284312 
L 260.61452 134.685218 
L 262.208996 136.672782 
L 263.803471 131.678479 
L 265.397947 130.608149 
L 266.992422 130.710091 
L 268.586898 128.875501 
L 270.181374 129.843767 
L 271.775849 129.843767 
L 273.370325 129.537941 
L 274.9648 130.761123 
L 276.559276 128.263971 
L 278.153751 127.550499 
L 279.748227 125.919672 
L 281.342702 126.785996 
L 282.937178 121.842603 
L 284.531653 123.269547 
L 286.126129 123.167726 
L 287.720604 125.308142 
L 289.31508 123.218636 
L 290.909555 127.703352 
L 292.504031 120.058923 
L 294.098507 121.995576 
L 295.692982 122.046487 
L 297.287458 121.740782 
L 298.881933 116.746358 
L 300.476409 119.243509 
L 302.070884 117.052183 
L 303.66536 120.313839 
L 305.259835 118.479127 
L 306.854311 114.40218 
L 308.448786 117.103094 
L 310.043262 115.166562 
L 311.637737 113.790528 
L 313.232213 117.969539 
L 314.826688 113.943502 
L 316.421164 110.783789 
L 318.01564 108.388579 
L 319.610115 114.198296 
L 321.204591 118.122391 
L 322.799066 113.433792 
L 324.393542 112.159822 
L 325.988017 109.254903 
L 327.582493 112.210732 
L 329.176968 109.305935 
L 330.771444 111.44635 
L 332.365919 106.197131 
L 333.960395 113.23003 
L 335.55487 110.528994 
L 337.149346 106.197131 
L 338.743821 109.866433 
L 340.338297 108.082753 
L 341.932773 108.745315 
L 343.527248 103.496096 
L 345.121724 108.031843 
L 346.716199 106.401015 
L 348.310675 104.2606 
L 349.90515 101.9163 
L 351.499626 103.13936 
L 353.094101 104.158658 
L 354.688577 104.2606 
L 356.283052 102.273036 
L 357.877528 101.712416 
L 359.472003 101.508654 
L 361.066479 103.13936 
L 362.660954 97.533527 
L 364.25543 102.120184 
L 365.849905 99.215265 
L 367.444381 101.814358 
L 369.038857 99.572001 
L 370.633332 96.667203 
L 372.227808 98.29803 
L 373.822283 101.202828 
L 375.416759 98.094147 
L 377.011234 97.788321 
L 378.60571 97.023939 
L 380.200185 96.412409 
L 381.794661 96.157615 
L 383.389136 96.972907 
L 384.983612 95.444021 
L 386.578087 96.004641 
L 388.172563 95.240259 
L 389.767038 96.157615 
L 391.361514 95.444021 
L 392.95599 94.220961 
L 394.550465 93.456579 
L 396.144941 90.857486 
L 397.739416 92.539224 
L 399.333892 90.092982 
L 400.928367 90.704512 
L 402.522843 92.94687 
L 404.117318 89.3286 
L 405.711794 91.621868 
L 407.306269 95.953731 
L 408.900745 90.296866 
L 410.49522 90.704512 
L 412.089696 92.692076 
L 413.684171 89.736246 
L 415.278647 92.080546 
L 416.873123 86.780417 
L 418.467598 93.762284 
L 420.062074 84.334297 
L 421.656549 90.245956 
L 423.251025 89.073806 
L 424.8455 89.073806 
L 426.439976 88.054508 
L 428.034451 88.920832 
L 429.628927 87.137153 
L 431.223402 87.850625 
L 432.817878 86.627565 
L 434.412353 87.035211 
L 436.006829 82.499585 
L 437.601304 86.066945 
L 439.19578 87.137153 
L 440.790256 83.926529 
L 442.384731 85.404505 
L 443.979207 83.926529 
L 445.573682 89.073806 
L 447.168158 84.640001 
L 448.762633 85.914093 
L 450.357109 83.569793 
L 451.951584 83.569793 
L 453.54606 85.710209 
L 455.140535 85.251531 
L 456.735011 84.130413 
L 458.329486 83.671735 
L 459.923962 88.76798 
L 461.518437 83.009174 
L 463.112913 83.467851 
L 464.707389 82.040908 
L 466.301864 86.168887 
L 467.89634 84.792975 
L 469.490815 82.754379 
L 471.085291 83.926529 
L 472.679766 78.932226 
L 474.274242 86.525623 
L 475.868717 81.072642 
L 477.463193 81.989997 
L 479.057668 80.104376 
L 480.652144 80.715906 
L 482.246619 83.875619 
L 483.841095 83.213057 
L 485.43557 80.206318 
L 487.030046 83.060205 
L 488.624522 76.638958 
L 490.218997 81.888055 
L 491.813473 77.709166 
L 493.407948 79.849582 
L 495.002424 75.008131 
L 496.596899 79.849582 
L 498.191375 81.989997 
L 499.78585 79.441814 
L 501.380326 79.645698 
L 502.974801 79.543756 
L 506.163752 78.422638 
L 507.758228 75.364867 
L 509.352703 79.18702 
L 510.947179 75.059041 
L 512.541655 75.721602 
L 514.13613 76.79181 
L 515.730606 77.556192 
L 517.325081 76.537016 
L 518.919557 74.192717 
L 520.514032 76.638958 
L 522.108508 74.345569 
L 523.702983 75.313835 
L 525.297459 79.034168 
L 526.891934 75.874455 
L 528.48641 79.849582 
L 530.080885 78.320696 
L 531.675361 76.231191 
L 533.269836 72.561889 
L 534.864312 73.734039 
L 536.458788 72.256185 
L 538.053263 75.415777 
L 539.647739 75.262925 
L 541.242214 74.549453 
L 542.83669 69.147382 
L 544.431165 70.931062 
L 546.025641 74.498543 
L 547.620116 77.40334 
L 549.214592 75.619661 
L 550.809067 78.065902 
L 552.403543 70.013827 
L 553.998018 73.581187 
L 555.592494 73.326393 
L 557.186969 72.154243 
L 558.781445 73.173419 
L 560.37592 67.006966 
L 561.970396 72.307095 
L 563.564872 69.096472 
L 565.159347 72.714863 
L 566.753823 74.396601 
L 568.348298 71.746475 
L 569.942774 72.358127 
L 571.537249 69.249324 
L 573.131725 71.542713 
L 574.7262 74.600363 
L 576.320676 72.765773 
L 577.915151 71.542713 
L 579.509627 69.911885 
L 581.104102 71.389739 
L 582.698578 72.256185 
L 584.293053 67.77147 
L 585.887529 67.82238 
L 587.482005 70.727299 
L 589.07648 70.472505 
L 590.670956 68.535852 
L 592.265431 65.529112 
L 593.859907 69.860854 
L 595.454382 68.484942 
L 597.048858 69.55515 
L 598.643333 68.026264 
L 600.237809 68.077174 
L 601.832284 67.21085 
L 603.42676 66.548288 
L 605.021235 67.312792 
L 606.615711 66.854114 
L 608.210186 68.790646 
L 609.804662 66.65023 
L 611.399138 67.312792 
L 612.993613 64.713698 
L 614.588089 67.465644 
L 616.182564 68.484942 
L 617.77704 70.115769 
L 619.371515 64.458904 
L 620.965991 70.472505 
L 622.560466 74.243627 
L 624.154942 67.567586 
L 625.749417 62.675225 
L 627.343893 69.096472 
L 628.938368 67.618496 
L 630.532844 66.395436 
L 632.127319 63.949316 
L 633.721795 64.051137 
L 635.316271 69.045561 
L 636.910746 68.128206 
L 638.505222 65.580022 
L 640.099697 65.121345 
L 641.694173 68.484942 
L 643.288648 64.968492 
L 644.883124 66.191552 
L 646.477599 63.643491 
L 648.072075 64.917582 
L 649.66655 65.223286 
L 651.261026 65.019524 
L 652.855501 62.624193 
L 654.449977 64.051137 
L 656.044452 63.541549 
L 657.638928 65.783906 
L 659.233404 65.37626 
L 660.827879 65.98779 
L 662.422355 64.306052 
L 664.01683 65.121345 
L 665.611306 63.898285 
L 667.205781 64.102168 
L 668.800257 63.898285 
L 670.394732 63.031961 
L 671.989208 62.726135 
L 673.583683 65.732996 
L 675.178159 63.541549 
L 676.772634 62.726135 
L 678.36711 66.293494 
L 679.961585 63.490638 
L 681.556061 65.936758 
L 683.150537 61.859811 
L 684.745012 64.356962 
L 686.339488 63.031961 
L 687.933963 62.369399 
L 687.933963 62.369399 
" style="fill:none;stroke:#377eb8;stroke-linecap:square;stroke-opacity:0.25098;stroke-width:1.5;"/>
   </g>
   <g id="line2d_40">
    <path clip-path="url(#p02f1e06d67)" d="M 91.284759 375.715469 
L 91.600114 361.270015 
L 93.194589 348.139556 
L 94.069337 375.715469 
M 96.61596 375.715469 
L 97.978016 340.138149 
L 98.998304 375.715469 
M 100.751319 375.715469 
L 101.166967 368.655882 
L 102.649827 375.715469 
M 102.779476 375.715469 
L 104.355918 329.264506 
L 105.950394 347.113697 
L 107.544869 324.956094 
L 109.139345 316.544489 
L 110.73382 298.695298 
L 112.328296 362.295752 
L 113.922771 305.465626 
L 115.517247 304.644988 
L 117.111722 282.077065 
L 118.706198 296.028162 
L 120.300673 288.026755 
L 121.895149 298.490078 
L 123.489625 332.957501 
L 125.0841 327.82845 
L 126.678576 301.772753 
L 128.273051 305.670846 
L 129.867527 270.177564 
L 131.462002 298.284979 
L 133.056478 247.404543 
L 134.650953 265.869151 
L 136.245429 272.434381 
L 137.839904 329.880046 
L 139.43438 258.688504 
L 141.028855 274.280878 
L 142.623331 268.741507 
L 144.217806 271.613742 
L 145.812282 280.230568 
L 147.406758 261.355518 
L 149.001233 291.514529 
L 150.595709 251.302636 
L 152.190184 247.814862 
L 153.78466 283.718342 
L 155.379135 256.021368 
L 156.973611 255.611049 
L 158.568086 237.966957 
L 160.162562 251.302636 
L 161.757037 240.018675 
L 163.351513 255.611049 
L 164.945988 232.017267 
L 166.540464 229.760451 
L 168.134939 260.12456 
L 169.729415 247.609641 
L 171.32389 231.401728 
L 172.918366 250.892317 
L 174.512842 256.021368 
L 176.107317 248.6355 
L 177.701793 242.27537 
L 179.296268 245.558045 
L 180.890744 230.17077 
L 182.485219 225.862357 
L 184.079695 243.301229 
L 185.67417 219.502348 
L 187.268646 221.348724 
L 188.863121 220.733306 
L 190.457597 225.041719 
L 192.052072 207.397748 
L 193.646548 223.605541 
L 195.241023 228.734713 
L 196.835499 234.479183 
L 198.429975 232.222366 
L 200.02445 204.320293 
L 201.618926 234.068864 
L 203.213401 229.145033 
L 204.807877 218.476489 
L 206.402352 244.121867 
L 207.996828 214.578396 
L 209.591303 203.089214 
L 211.185779 237.966957 
L 212.780254 226.477897 
L 214.37473 206.987429 
L 215.969205 217.655851 
L 217.563681 222.169484 
L 219.158156 227.298535 
L 220.752632 219.092029 
L 222.347108 200.011881 
L 223.941583 214.988715 
L 225.536059 247.404543 
L 227.130534 205.551251 
L 228.72501 205.346031 
L 230.319485 213.962856 
L 231.913961 219.092029 
L 233.508436 190.984614 
L 235.102912 210.475082 
L 236.697387 241.454731 
L 238.291863 217.040311 
L 239.886338 198.986022 
L 241.480814 215.604255 
L 243.075289 208.628706 
L 244.669765 206.37189 
L 246.264241 212.321579 
L 247.858716 220.733306 
L 249.453192 218.476489 
L 251.047667 194.882708 
L 252.642143 194.882708 
L 254.236618 216.424893 
L 255.831094 201.653158 
L 257.425569 217.245532 
L 259.020045 190.369196 
L 260.61452 197.344745 
L 262.208996 210.064763 
L 263.803471 195.293027 
L 265.397947 201.242838 
L 266.992422 196.524106 
L 268.586898 273.04992 
L 270.181374 193.856971 
L 271.775849 206.987429 
L 273.370325 205.75635 
L 274.9648 197.549844 
L 276.559276 208.423486 
L 278.153751 207.808068 
L 279.748227 192.831112 
L 281.342702 185.445244 
L 282.937178 205.96157 
L 284.531653 205.75635 
L 286.126129 203.909974 
L 287.720604 203.704754 
L 289.31508 203.704754 
L 290.909555 190.984614 
L 292.504031 202.063477 
L 294.098507 199.396341 
L 297.287458 184.624605 
L 298.881933 194.062069 
L 300.476409 206.166669 
L 302.070884 205.440804 
L 303.66536 212.321579 
L 305.259835 199.396341 
L 306.854311 193.241431 
L 308.448786 196.729205 
L 310.043262 177.854277 
L 311.637737 197.344745 
L 313.232213 186.881422 
L 314.826688 187.086521 
L 316.421164 189.958877 
L 318.01564 200.21698 
L 319.610115 206.987429 
L 321.204591 198.165383 
L 322.799066 182.367789 
L 324.393542 188.933018 
L 325.988017 188.317479 
L 327.582493 183.393648 
L 329.176968 204.730613 
L 330.771444 201.653158 
L 333.960395 188.11238 
L 335.55487 194.062069 
L 337.149346 212.731899 
L 338.743821 194.882708 
L 340.338297 182.778108 
L 341.932773 209.244124 
L 343.527248 200.627299 
L 345.121724 203.909974 
L 346.716199 183.188427 
L 348.310675 209.859664 
L 349.90515 186.060784 
L 351.499626 185.034925 
L 353.094101 201.447937 
L 354.688577 203.089214 
L 356.283052 172.725105 
L 357.877528 199.396341 
L 359.472003 188.11238 
L 361.066479 204.935712 
L 362.660954 193.036332 
L 364.25543 183.598747 
L 365.849905 182.573009 
L 367.444381 197.344745 
L 369.038857 180.931611 
L 370.633332 183.598747 
L 372.227808 180.110972 
L 373.822283 189.548558 
L 375.416759 178.264596 
L 377.011234 169.032231 
L 378.60571 192.831112 
L 380.200185 191.805253 
L 381.794661 182.573009 
L 383.389136 177.649057 
L 384.983612 174.776822 
L 386.578087 196.113787 
L 388.172563 185.240145 
L 389.767038 189.138239 
L 391.361514 193.856971 
L 392.95599 184.419385 
L 394.550465 187.086521 
L 396.144941 184.624605 
L 397.739416 205.346031 
L 399.333892 187.086521 
L 400.928367 199.601561 
L 402.522843 180.316193 
L 404.117318 190.369196 
L 405.711794 181.34193 
L 407.306269 169.442551 
L 408.900745 183.598747 
L 410.49522 188.522699 
L 412.089696 190.369196 
L 413.684171 191.805253 
L 415.278647 169.442551 
L 416.873123 178.059376 
L 418.467598 187.291741 
L 420.062074 178.674916 
L 421.656549 181.136831 
L 423.251025 174.366503 
L 424.8455 187.907159 
L 426.439976 161.030824 
L 428.034451 187.70206 
L 429.628927 181.136831 
L 431.223402 186.060784 
L 432.817878 199.601561 
L 434.412353 183.598747 
L 436.006829 184.214286 
L 437.601304 183.803967 
L 439.19578 183.598747 
L 440.790256 177.443837 
L 442.384731 184.419385 
L 443.979207 181.752371 
L 445.573682 171.494147 
L 447.168158 182.367789 
L 448.762633 180.521292 
L 450.357109 203.704754 
L 451.951584 186.471103 
L 453.54606 186.265882 
L 455.140535 179.290334 
L 456.735011 188.522699 
L 458.329486 199.396341 
L 459.923962 181.34193 
L 461.518437 176.00778 
L 463.112913 180.931611 
L 466.301864 203.294435 
L 467.89634 173.956062 
L 469.490815 180.931611 
L 471.085291 187.291741 
L 472.679766 178.469695 
L 474.274242 167.390954 
L 475.868717 171.904466 
L 477.463193 186.471103 
L 479.057668 175.80256 
L 480.652144 194.062069 
L 482.246619 199.396341 
L 483.841095 180.726512 
L 485.43557 191.805253 
L 487.030046 187.70206 
L 488.624522 189.753657 
L 490.218997 189.548558 
L 491.813473 190.163976 
L 493.407948 179.700653 
L 495.002424 164.518598 
L 496.596899 193.856971 
L 498.191375 182.983328 
L 499.78585 178.264596 
L 501.380326 172.930325 
L 502.974801 176.828418 
L 504.569277 177.443837 
L 506.163752 181.136831 
L 507.758228 178.674916 
L 509.352703 166.980635 
L 510.947179 180.931611 
L 512.541655 179.085235 
L 514.13613 188.727919 
L 515.730606 157.54305 
L 517.325081 183.393648 
L 518.919557 206.166669 
L 520.514032 177.238738 
L 522.108508 197.139524 
L 523.702983 189.138239 
L 525.297459 179.290334 
L 526.891934 190.369196 
L 528.48641 176.212879 
L 530.080885 179.085235 
L 531.675361 169.647649 
L 533.269836 182.983328 
L 534.864312 175.187141 
L 536.458788 179.700653 
L 538.053263 177.238738 
L 539.647739 177.854277 
L 541.242214 191.805253 
L 542.83669 184.829704 
L 544.431165 181.34193 
L 546.025641 200.21698 
L 547.620116 181.34193 
L 549.214592 179.905873 
L 550.809067 180.726512 
L 552.403543 181.143757 
L 553.998018 173.135424 
L 555.592494 181.34193 
L 557.186969 180.521292 
L 558.781445 177.238738 
L 560.37592 183.803967 
L 561.970396 178.059376 
L 563.564872 176.00778 
L 565.159347 177.649057 
L 566.753823 171.494147 
L 568.348298 191.189835 
L 569.942774 176.623198 
L 571.537249 178.469695 
L 573.131725 173.545743 
L 574.7262 172.314785 
L 576.320676 177.443837 
L 577.915151 173.135424 
L 579.509627 178.264596 
L 581.104102 179.700653 
L 582.698578 174.571602 
L 584.293053 182.983328 
L 585.887529 162.261782 
L 587.482005 173.340644 
L 589.07648 175.80256 
L 590.670956 159.799866 
L 592.265431 181.34193 
L 593.859907 171.494147 
L 595.454382 177.033517 
L 597.048858 176.828418 
L 598.643333 181.95747 
L 600.237809 178.059376 
L 601.832284 175.187141 
L 603.42676 182.16269 
L 605.021235 173.956062 
L 606.615711 180.521292 
L 608.210186 180.521292 
L 609.804662 185.240145 
L 611.399138 183.393648 
L 612.993613 158.568909 
L 614.588089 164.518598 
L 616.182564 177.854277 
L 617.77704 172.314785 
L 619.371515 175.80256 
L 620.965991 163.492861 
L 622.560466 183.598747 
L 624.154942 173.340644 
L 625.749417 189.958877 
L 627.343893 167.390954 
L 628.938368 177.854277 
L 630.532844 180.931611 
L 632.127319 185.650464 
L 633.721795 187.907159 
L 635.316271 181.95747 
L 636.910746 171.904466 
L 638.505222 163.90318 
L 640.099697 177.443837 
L 641.694173 159.799866 
L 643.288648 166.159875 
L 644.883124 179.495554 
L 646.477599 182.778108 
L 648.072075 172.314785 
L 649.66655 177.238738 
L 651.261026 197.960163 
L 652.855501 169.442551 
L 654.449977 182.983328 
L 656.044452 164.108279 
L 657.638928 173.135424 
L 659.233404 176.828418 
L 660.827879 160.620505 
L 662.422355 177.854277 
L 664.01683 167.801274 
L 665.611306 171.289048 
L 667.205781 172.520006 
L 668.800257 172.930325 
L 670.394732 171.699367 
L 671.989208 149.336543 
L 673.583683 165.134138 
L 675.178159 176.828418 
L 676.772634 171.904466 
L 678.36711 163.492861 
L 679.961585 184.829704 
L 681.556061 170.878729 
L 683.150537 178.674916 
L 684.745012 158.363688 
L 686.339488 165.544457 
L 687.933963 186.265882 
L 687.933963 186.265882 
" style="fill:none;stroke:#4daf4a;stroke-linecap:square;stroke-opacity:0.25098;stroke-width:1.5;"/>
   </g>
   <g id="patch_3">
    <path d="M 50.14375 337.159219 
L 50.14375 10.999219 
" style="fill:none;stroke:#000000;stroke-linecap:square;stroke-linejoin:miter;stroke-width:0.8;"/>
   </g>
   <g id="patch_4">
    <path d="M 719.74375 337.159219 
L 719.74375 10.999219 
" style="fill:none;stroke:#000000;stroke-linecap:square;stroke-linejoin:miter;stroke-width:0.8;"/>
   </g>
   <g id="patch_5">
    <path d="M 50.14375 337.159219 
L 719.74375 337.159219 
" style="fill:none;stroke:#000000;stroke-linecap:square;stroke-linejoin:miter;stroke-width:0.8;"/>
   </g>
   <g id="patch_6">
    <path d="M 50.14375 10.999219 
L 719.74375 10.999219 
" style="fill:none;stroke:#000000;stroke-linecap:square;stroke-linejoin:miter;stroke-width:0.8;"/>
   </g>
   <g id="legend_1">
    <g id="patch_7">
     <path d="M 57.14375 48.355469 
L 114.584375 48.355469 
Q 116.584375 48.355469 116.584375 46.355469 
L 116.584375 17.999219 
Q 116.584375 15.999219 114.584375 15.999219 
L 57.14375 15.999219 
Q 55.14375 15.999219 55.14375 17.999219 
L 55.14375 46.355469 
Q 55.14375 48.355469 57.14375 48.355469 
z
" style="fill:#ffffff;opacity:0.8;stroke:#cccccc;stroke-linejoin:miter;"/>
    </g>
    <g id="line2d_41">
     <path d="M 59.14375 24.097656 
L 79.14375 24.097656 
" style="fill:none;stroke:#377eb8;stroke-linecap:square;stroke-width:2;"/>
    </g>
    <g id="line2d_42"/>
    <g id="text_21">
     <!-- Train -->
     <defs>
      <path d="M -0.296875 72.90625 
L 61.375 72.90625 
L 61.375 64.59375 
L 35.5 64.59375 
L 35.5 0 
L 25.59375 0 
L 25.59375 64.59375 
L -0.296875 64.59375 
z
" id="DejaVuSans-84"/>
      <path d="M 9.421875 54.6875 
L 18.40625 54.6875 
L 18.40625 0 
L 9.421875 0 
z
M 9.421875 75.984375 
L 18.40625 75.984375 
L 18.40625 64.59375 
L 9.421875 64.59375 
z
" id="DejaVuSans-105"/>
      <path d="M 54.890625 33.015625 
L 54.890625 0 
L 45.90625 0 
L 45.90625 32.71875 
Q 45.90625 40.484375 42.875 44.328125 
Q 39.84375 48.1875 33.796875 48.1875 
Q 26.515625 48.1875 22.3125 43.546875 
Q 18.109375 38.921875 18.109375 30.90625 
L 18.109375 0 
L 9.078125 0 
L 9.078125 54.6875 
L 18.109375 54.6875 
L 18.109375 46.1875 
Q 21.34375 51.125 25.703125 53.5625 
Q 30.078125 56 35.796875 56 
Q 45.21875 56 50.046875 50.171875 
Q 54.890625 44.34375 54.890625 33.015625 
z
" id="DejaVuSans-110"/>
     </defs>
     <g transform="translate(87.14375 27.597656)scale(0.1 -0.1)">
      <use xlink:href="#DejaVuSans-84"/>
      <use x="60.865234" xlink:href="#DejaVuSans-114"/>
      <use x="101.978516" xlink:href="#DejaVuSans-97"/>
      <use x="163.257812" xlink:href="#DejaVuSans-105"/>
      <use x="191.041016" xlink:href="#DejaVuSans-110"/>
     </g>
    </g>
    <g id="line2d_43">
     <path d="M 59.14375 38.775781 
L 79.14375 38.775781 
" style="fill:none;stroke:#4daf4a;stroke-linecap:square;stroke-width:2;"/>
    </g>
    <g id="line2d_44"/>
    <g id="text_22">
     <!-- Test -->
     <defs>
      <path d="M 56.203125 29.59375 
L 56.203125 25.203125 
L 14.890625 25.203125 
Q 15.484375 15.921875 20.484375 11.0625 
Q 25.484375 6.203125 34.421875 6.203125 
Q 39.59375 6.203125 44.453125 7.46875 
Q 49.3125 8.734375 54.109375 11.28125 
L 54.109375 2.78125 
Q 49.265625 0.734375 44.1875 -0.34375 
Q 39.109375 -1.421875 33.890625 -1.421875 
Q 20.796875 -1.421875 13.15625 6.1875 
Q 5.515625 13.8125 5.515625 26.8125 
Q 5.515625 40.234375 12.765625 48.109375 
Q 20.015625 56 32.328125 56 
Q 43.359375 56 49.78125 48.890625 
Q 56.203125 41.796875 56.203125 29.59375 
z
M 47.21875 32.234375 
Q 47.125 39.59375 43.09375 43.984375 
Q 39.0625 48.390625 32.421875 48.390625 
Q 24.90625 48.390625 20.390625 44.140625 
Q 15.875 39.890625 15.1875 32.171875 
z
" id="DejaVuSans-101"/>
      <path d="M 44.28125 53.078125 
L 44.28125 44.578125 
Q 40.484375 46.53125 36.375 47.5 
Q 32.28125 48.484375 27.875 48.484375 
Q 21.1875 48.484375 17.84375 46.4375 
Q 14.5 44.390625 14.5 40.28125 
Q 14.5 37.15625 16.890625 35.375 
Q 19.28125 33.59375 26.515625 31.984375 
L 29.59375 31.296875 
Q 39.15625 29.25 43.1875 25.515625 
Q 47.21875 21.78125 47.21875 15.09375 
Q 47.21875 7.46875 41.1875 3.015625 
Q 35.15625 -1.421875 24.609375 -1.421875 
Q 20.21875 -1.421875 15.453125 -0.5625 
Q 10.6875 0.296875 5.421875 2 
L 5.421875 11.28125 
Q 10.40625 8.6875 15.234375 7.390625 
Q 20.0625 6.109375 24.8125 6.109375 
Q 31.15625 6.109375 34.5625 8.28125 
Q 37.984375 10.453125 37.984375 14.40625 
Q 37.984375 18.0625 35.515625 20.015625 
Q 33.0625 21.96875 24.703125 23.78125 
L 21.578125 24.515625 
Q 13.234375 26.265625 9.515625 29.90625 
Q 5.8125 33.546875 5.8125 39.890625 
Q 5.8125 47.609375 11.28125 51.796875 
Q 16.75 56 26.8125 56 
Q 31.78125 56 36.171875 55.265625 
Q 40.578125 54.546875 44.28125 53.078125 
z
" id="DejaVuSans-115"/>
      <path d="M 18.3125 70.21875 
L 18.3125 54.6875 
L 36.8125 54.6875 
L 36.8125 47.703125 
L 18.3125 47.703125 
L 18.3125 18.015625 
Q 18.3125 11.328125 20.140625 9.421875 
Q 21.96875 7.515625 27.59375 7.515625 
L 36.8125 7.515625 
L 36.8125 0 
L 27.59375 0 
Q 17.1875 0 13.234375 3.875 
Q 9.28125 7.765625 9.28125 18.015625 
L 9.28125 47.703125 
L 2.6875 47.703125 
L 2.6875 54.6875 
L 9.28125 54.6875 
L 9.28125 70.21875 
z
" id="DejaVuSans-116"/>
     </defs>
     <g transform="translate(87.14375 42.275781)scale(0.1 -0.1)">
      <use xlink:href="#DejaVuSans-84"/>
      <use x="60.818359" xlink:href="#DejaVuSans-101"/>
      <use x="122.341797" xlink:href="#DejaVuSans-115"/>
      <use x="174.441406" xlink:href="#DejaVuSans-116"/>
     </g>
    </g>
   </g>
  </g>
 </g>
 <defs>
  <clipPath id="p02f1e06d67">
   <rect height="326.16" width="669.6" x="50.14375" y="10.999219"/>
  </clipPath>
 </defs>
</svg>
