<?xml version="1.0" encoding="utf-8" standalone="no"?>
<!DOCTYPE svg PUBLIC "-//W3C//DTD SVG 1.1//EN"
  "http://www.w3.org/Graphics/SVG/1.1/DTD/svg11.dtd">
<!-- Created with matplotlib (https://matplotlib.org/) -->
<svg height="374.715469pt" version="1.1" viewBox="0 0 726.94375 374.715469" width="726.94375pt" xmlns="http://www.w3.org/2000/svg" xmlns:xlink="http://www.w3.org/1999/xlink">
 <defs>
  <style type="text/css">
*{stroke-linecap:butt;stroke-linejoin:round;white-space:pre;}
  </style>
 </defs>
 <g id="figure_1">
  <g id="patch_1">
   <path d="M 0 374.715469 
L 726.94375 374.715469 
L 726.94375 0 
L 0 0 
z
" style="fill:#ffffff;"/>
  </g>
  <g id="axes_1">
   <g id="patch_2">
    <path d="M 50.14375 337.159219 
L 719.74375 337.159219 
L 719.74375 10.999219 
L 50.14375 10.999219 
z
" style="fill:#ffffff;"/>
   </g>
   <g id="matplotlib.axis_1">
    <g id="xtick_1">
     <g id="line2d_1">
      <path clip-path="url(#p2edfc4e5ba)" d="M 50.14375 337.159219 
L 50.14375 10.999219 
" style="fill:none;stroke:#b0b0b0;stroke-linecap:square;stroke-width:0.8;"/>
     </g>
     <g id="line2d_2">
      <defs>
       <path d="M 0 0 
L 0 3.5 
" id="m567484dd54" style="stroke:#000000;stroke-width:0.8;"/>
      </defs>
      <g>
       <use style="stroke:#000000;stroke-width:0.8;" x="50.14375" xlink:href="#m567484dd54" y="337.159219"/>
      </g>
     </g>
     <g id="text_1">
      <!-- 0 -->
      <defs>
       <path d="M 31.78125 66.40625 
Q 24.171875 66.40625 20.328125 58.90625 
Q 16.5 51.421875 16.5 36.375 
Q 16.5 21.390625 20.328125 13.890625 
Q 24.171875 6.390625 31.78125 6.390625 
Q 39.453125 6.390625 43.28125 13.890625 
Q 47.125 21.390625 47.125 36.375 
Q 47.125 51.421875 43.28125 58.90625 
Q 39.453125 66.40625 31.78125 66.40625 
z
M 31.78125 74.21875 
Q 44.046875 74.21875 50.515625 64.515625 
Q 56.984375 54.828125 56.984375 36.375 
Q 56.984375 17.96875 50.515625 8.265625 
Q 44.046875 -1.421875 31.78125 -1.421875 
Q 19.53125 -1.421875 13.0625 8.265625 
Q 6.59375 17.96875 6.59375 36.375 
Q 6.59375 54.828125 13.0625 64.515625 
Q 19.53125 74.21875 31.78125 74.21875 
z
" id="DejaVuSans-48"/>
      </defs>
      <g transform="translate(46.9625 351.757656)scale(0.1 -0.1)">
       <use xlink:href="#DejaVuSans-48"/>
      </g>
     </g>
    </g>
    <g id="xtick_2">
     <g id="line2d_3">
      <path clip-path="url(#p2edfc4e5ba)" d="M 174.703114 337.159219 
L 174.703114 10.999219 
" style="fill:none;stroke:#b0b0b0;stroke-linecap:square;stroke-width:0.8;"/>
     </g>
     <g id="line2d_4">
      <g>
       <use style="stroke:#000000;stroke-width:0.8;" x="174.703114" xlink:href="#m567484dd54" y="337.159219"/>
      </g>
     </g>
     <g id="text_2">
      <!-- 200 -->
      <defs>
       <path d="M 19.1875 8.296875 
L 53.609375 8.296875 
L 53.609375 0 
L 7.328125 0 
L 7.328125 8.296875 
Q 12.9375 14.109375 22.625 23.890625 
Q 32.328125 33.6875 34.8125 36.53125 
Q 39.546875 41.84375 41.421875 45.53125 
Q 43.3125 49.21875 43.3125 52.78125 
Q 43.3125 58.59375 39.234375 62.25 
Q 35.15625 65.921875 28.609375 65.921875 
Q 23.96875 65.921875 18.8125 64.3125 
Q 13.671875 62.703125 7.8125 59.421875 
L 7.8125 69.390625 
Q 13.765625 71.78125 18.9375 73 
Q 24.125 74.21875 28.421875 74.21875 
Q 39.75 74.21875 46.484375 68.546875 
Q 53.21875 62.890625 53.21875 53.421875 
Q 53.21875 48.921875 51.53125 44.890625 
Q 49.859375 40.875 45.40625 35.40625 
Q 44.1875 33.984375 37.640625 27.21875 
Q 31.109375 20.453125 19.1875 8.296875 
z
" id="DejaVuSans-50"/>
      </defs>
      <g transform="translate(165.159364 351.757656)scale(0.1 -0.1)">
       <use xlink:href="#DejaVuSans-50"/>
       <use x="63.623047" xlink:href="#DejaVuSans-48"/>
       <use x="127.246094" xlink:href="#DejaVuSans-48"/>
      </g>
     </g>
    </g>
    <g id="xtick_3">
     <g id="line2d_5">
      <path clip-path="url(#p2edfc4e5ba)" d="M 299.262478 337.159219 
L 299.262478 10.999219 
" style="fill:none;stroke:#b0b0b0;stroke-linecap:square;stroke-width:0.8;"/>
     </g>
     <g id="line2d_6">
      <g>
       <use style="stroke:#000000;stroke-width:0.8;" x="299.262478" xlink:href="#m567484dd54" y="337.159219"/>
      </g>
     </g>
     <g id="text_3">
      <!-- 400 -->
      <defs>
       <path d="M 37.796875 64.3125 
L 12.890625 25.390625 
L 37.796875 25.390625 
z
M 35.203125 72.90625 
L 47.609375 72.90625 
L 47.609375 25.390625 
L 58.015625 25.390625 
L 58.015625 17.1875 
L 47.609375 17.1875 
L 47.609375 0 
L 37.796875 0 
L 37.796875 17.1875 
L 4.890625 17.1875 
L 4.890625 26.703125 
z
" id="DejaVuSans-52"/>
      </defs>
      <g transform="translate(289.718728 351.757656)scale(0.1 -0.1)">
       <use xlink:href="#DejaVuSans-52"/>
       <use x="63.623047" xlink:href="#DejaVuSans-48"/>
       <use x="127.246094" xlink:href="#DejaVuSans-48"/>
      </g>
     </g>
    </g>
    <g id="xtick_4">
     <g id="line2d_7">
      <path clip-path="url(#p2edfc4e5ba)" d="M 423.821841 337.159219 
L 423.821841 10.999219 
" style="fill:none;stroke:#b0b0b0;stroke-linecap:square;stroke-width:0.8;"/>
     </g>
     <g id="line2d_8">
      <g>
       <use style="stroke:#000000;stroke-width:0.8;" x="423.821841" xlink:href="#m567484dd54" y="337.159219"/>
      </g>
     </g>
     <g id="text_4">
      <!-- 600 -->
      <defs>
       <path d="M 33.015625 40.375 
Q 26.375 40.375 22.484375 35.828125 
Q 18.609375 31.296875 18.609375 23.390625 
Q 18.609375 15.53125 22.484375 10.953125 
Q 26.375 6.390625 33.015625 6.390625 
Q 39.65625 6.390625 43.53125 10.953125 
Q 47.40625 15.53125 47.40625 23.390625 
Q 47.40625 31.296875 43.53125 35.828125 
Q 39.65625 40.375 33.015625 40.375 
z
M 52.59375 71.296875 
L 52.59375 62.3125 
Q 48.875 64.0625 45.09375 64.984375 
Q 41.3125 65.921875 37.59375 65.921875 
Q 27.828125 65.921875 22.671875 59.328125 
Q 17.53125 52.734375 16.796875 39.40625 
Q 19.671875 43.65625 24.015625 45.921875 
Q 28.375 48.1875 33.59375 48.1875 
Q 44.578125 48.1875 50.953125 41.515625 
Q 57.328125 34.859375 57.328125 23.390625 
Q 57.328125 12.15625 50.6875 5.359375 
Q 44.046875 -1.421875 33.015625 -1.421875 
Q 20.359375 -1.421875 13.671875 8.265625 
Q 6.984375 17.96875 6.984375 36.375 
Q 6.984375 53.65625 15.1875 63.9375 
Q 23.390625 74.21875 37.203125 74.21875 
Q 40.921875 74.21875 44.703125 73.484375 
Q 48.484375 72.75 52.59375 71.296875 
z
" id="DejaVuSans-54"/>
      </defs>
      <g transform="translate(414.278091 351.757656)scale(0.1 -0.1)">
       <use xlink:href="#DejaVuSans-54"/>
       <use x="63.623047" xlink:href="#DejaVuSans-48"/>
       <use x="127.246094" xlink:href="#DejaVuSans-48"/>
      </g>
     </g>
    </g>
    <g id="xtick_5">
     <g id="line2d_9">
      <path clip-path="url(#p2edfc4e5ba)" d="M 548.381205 337.159219 
L 548.381205 10.999219 
" style="fill:none;stroke:#b0b0b0;stroke-linecap:square;stroke-width:0.8;"/>
     </g>
     <g id="line2d_10">
      <g>
       <use style="stroke:#000000;stroke-width:0.8;" x="548.381205" xlink:href="#m567484dd54" y="337.159219"/>
      </g>
     </g>
     <g id="text_5">
      <!-- 800 -->
      <defs>
       <path d="M 31.78125 34.625 
Q 24.75 34.625 20.71875 30.859375 
Q 16.703125 27.09375 16.703125 20.515625 
Q 16.703125 13.921875 20.71875 10.15625 
Q 24.75 6.390625 31.78125 6.390625 
Q 38.8125 6.390625 42.859375 10.171875 
Q 46.921875 13.96875 46.921875 20.515625 
Q 46.921875 27.09375 42.890625 30.859375 
Q 38.875 34.625 31.78125 34.625 
z
M 21.921875 38.8125 
Q 15.578125 40.375 12.03125 44.71875 
Q 8.5 49.078125 8.5 55.328125 
Q 8.5 64.0625 14.71875 69.140625 
Q 20.953125 74.21875 31.78125 74.21875 
Q 42.671875 74.21875 48.875 69.140625 
Q 55.078125 64.0625 55.078125 55.328125 
Q 55.078125 49.078125 51.53125 44.71875 
Q 48 40.375 41.703125 38.8125 
Q 48.828125 37.15625 52.796875 32.3125 
Q 56.78125 27.484375 56.78125 20.515625 
Q 56.78125 9.90625 50.3125 4.234375 
Q 43.84375 -1.421875 31.78125 -1.421875 
Q 19.734375 -1.421875 13.25 4.234375 
Q 6.78125 9.90625 6.78125 20.515625 
Q 6.78125 27.484375 10.78125 32.3125 
Q 14.796875 37.15625 21.921875 38.8125 
z
M 18.3125 54.390625 
Q 18.3125 48.734375 21.84375 45.5625 
Q 25.390625 42.390625 31.78125 42.390625 
Q 38.140625 42.390625 41.71875 45.5625 
Q 45.3125 48.734375 45.3125 54.390625 
Q 45.3125 60.0625 41.71875 63.234375 
Q 38.140625 66.40625 31.78125 66.40625 
Q 25.390625 66.40625 21.84375 63.234375 
Q 18.3125 60.0625 18.3125 54.390625 
z
" id="DejaVuSans-56"/>
      </defs>
      <g transform="translate(538.837455 351.757656)scale(0.1 -0.1)">
       <use xlink:href="#DejaVuSans-56"/>
       <use x="63.623047" xlink:href="#DejaVuSans-48"/>
       <use x="127.246094" xlink:href="#DejaVuSans-48"/>
      </g>
     </g>
    </g>
    <g id="xtick_6">
     <g id="line2d_11">
      <path clip-path="url(#p2edfc4e5ba)" d="M 672.940569 337.159219 
L 672.940569 10.999219 
" style="fill:none;stroke:#b0b0b0;stroke-linecap:square;stroke-width:0.8;"/>
     </g>
     <g id="line2d_12">
      <g>
       <use style="stroke:#000000;stroke-width:0.8;" x="672.940569" xlink:href="#m567484dd54" y="337.159219"/>
      </g>
     </g>
     <g id="text_6">
      <!-- 1000 -->
      <defs>
       <path d="M 12.40625 8.296875 
L 28.515625 8.296875 
L 28.515625 63.921875 
L 10.984375 60.40625 
L 10.984375 69.390625 
L 28.421875 72.90625 
L 38.28125 72.90625 
L 38.28125 8.296875 
L 54.390625 8.296875 
L 54.390625 0 
L 12.40625 0 
z
" id="DejaVuSans-49"/>
      </defs>
      <g transform="translate(660.215569 351.757656)scale(0.1 -0.1)">
       <use xlink:href="#DejaVuSans-49"/>
       <use x="63.623047" xlink:href="#DejaVuSans-48"/>
       <use x="127.246094" xlink:href="#DejaVuSans-48"/>
       <use x="190.869141" xlink:href="#DejaVuSans-48"/>
      </g>
     </g>
    </g>
    <g id="text_7">
     <!-- Epoch -->
     <defs>
      <path d="M 9.8125 72.90625 
L 55.90625 72.90625 
L 55.90625 64.59375 
L 19.671875 64.59375 
L 19.671875 43.015625 
L 54.390625 43.015625 
L 54.390625 34.71875 
L 19.671875 34.71875 
L 19.671875 8.296875 
L 56.78125 8.296875 
L 56.78125 0 
L 9.8125 0 
z
" id="DejaVuSans-69"/>
      <path d="M 18.109375 8.203125 
L 18.109375 -20.796875 
L 9.078125 -20.796875 
L 9.078125 54.6875 
L 18.109375 54.6875 
L 18.109375 46.390625 
Q 20.953125 51.265625 25.265625 53.625 
Q 29.59375 56 35.59375 56 
Q 45.5625 56 51.78125 48.09375 
Q 58.015625 40.1875 58.015625 27.296875 
Q 58.015625 14.40625 51.78125 6.484375 
Q 45.5625 -1.421875 35.59375 -1.421875 
Q 29.59375 -1.421875 25.265625 0.953125 
Q 20.953125 3.328125 18.109375 8.203125 
z
M 48.6875 27.296875 
Q 48.6875 37.203125 44.609375 42.84375 
Q 40.53125 48.484375 33.40625 48.484375 
Q 26.265625 48.484375 22.1875 42.84375 
Q 18.109375 37.203125 18.109375 27.296875 
Q 18.109375 17.390625 22.1875 11.75 
Q 26.265625 6.109375 33.40625 6.109375 
Q 40.53125 6.109375 44.609375 11.75 
Q 48.6875 17.390625 48.6875 27.296875 
z
" id="DejaVuSans-112"/>
      <path d="M 30.609375 48.390625 
Q 23.390625 48.390625 19.1875 42.75 
Q 14.984375 37.109375 14.984375 27.296875 
Q 14.984375 17.484375 19.15625 11.84375 
Q 23.34375 6.203125 30.609375 6.203125 
Q 37.796875 6.203125 41.984375 11.859375 
Q 46.1875 17.53125 46.1875 27.296875 
Q 46.1875 37.015625 41.984375 42.703125 
Q 37.796875 48.390625 30.609375 48.390625 
z
M 30.609375 56 
Q 42.328125 56 49.015625 48.375 
Q 55.71875 40.765625 55.71875 27.296875 
Q 55.71875 13.875 49.015625 6.21875 
Q 42.328125 -1.421875 30.609375 -1.421875 
Q 18.84375 -1.421875 12.171875 6.21875 
Q 5.515625 13.875 5.515625 27.296875 
Q 5.515625 40.765625 12.171875 48.375 
Q 18.84375 56 30.609375 56 
z
" id="DejaVuSans-111"/>
      <path d="M 48.78125 52.59375 
L 48.78125 44.1875 
Q 44.96875 46.296875 41.140625 47.34375 
Q 37.3125 48.390625 33.40625 48.390625 
Q 24.65625 48.390625 19.8125 42.84375 
Q 14.984375 37.3125 14.984375 27.296875 
Q 14.984375 17.28125 19.8125 11.734375 
Q 24.65625 6.203125 33.40625 6.203125 
Q 37.3125 6.203125 41.140625 7.25 
Q 44.96875 8.296875 48.78125 10.40625 
L 48.78125 2.09375 
Q 45.015625 0.34375 40.984375 -0.53125 
Q 36.96875 -1.421875 32.421875 -1.421875 
Q 20.0625 -1.421875 12.78125 6.34375 
Q 5.515625 14.109375 5.515625 27.296875 
Q 5.515625 40.671875 12.859375 48.328125 
Q 20.21875 56 33.015625 56 
Q 37.15625 56 41.109375 55.140625 
Q 45.0625 54.296875 48.78125 52.59375 
z
" id="DejaVuSans-99"/>
      <path d="M 54.890625 33.015625 
L 54.890625 0 
L 45.90625 0 
L 45.90625 32.71875 
Q 45.90625 40.484375 42.875 44.328125 
Q 39.84375 48.1875 33.796875 48.1875 
Q 26.515625 48.1875 22.3125 43.546875 
Q 18.109375 38.921875 18.109375 30.90625 
L 18.109375 0 
L 9.078125 0 
L 9.078125 75.984375 
L 18.109375 75.984375 
L 18.109375 46.1875 
Q 21.34375 51.125 25.703125 53.5625 
Q 30.078125 56 35.796875 56 
Q 45.21875 56 50.046875 50.171875 
Q 54.890625 44.34375 54.890625 33.015625 
z
" id="DejaVuSans-104"/>
     </defs>
     <g transform="translate(369.632813 365.435781)scale(0.1 -0.1)">
      <use xlink:href="#DejaVuSans-69"/>
      <use x="63.183594" xlink:href="#DejaVuSans-112"/>
      <use x="126.660156" xlink:href="#DejaVuSans-111"/>
      <use x="187.841797" xlink:href="#DejaVuSans-99"/>
      <use x="242.822266" xlink:href="#DejaVuSans-104"/>
     </g>
    </g>
   </g>
   <g id="matplotlib.axis_2">
    <g id="ytick_1">
     <g id="line2d_13">
      <path clip-path="url(#p2edfc4e5ba)" d="M 50.14375 337.159219 
L 719.74375 337.159219 
" style="fill:none;stroke:#b0b0b0;stroke-linecap:square;stroke-width:0.8;"/>
     </g>
     <g id="line2d_14">
      <defs>
       <path d="M 0 0 
L -3.5 0 
" id="mecbe2339ad" style="stroke:#000000;stroke-width:0.8;"/>
      </defs>
      <g>
       <use style="stroke:#000000;stroke-width:0.8;" x="50.14375" xlink:href="#mecbe2339ad" y="337.159219"/>
      </g>
     </g>
     <g id="text_8">
      <!-- 0.82 -->
      <defs>
       <path d="M 10.6875 12.40625 
L 21 12.40625 
L 21 0 
L 10.6875 0 
z
" id="DejaVuSans-46"/>
      </defs>
      <g transform="translate(20.878125 340.958437)scale(0.1 -0.1)">
       <use xlink:href="#DejaVuSans-48"/>
       <use x="63.623047" xlink:href="#DejaVuSans-46"/>
       <use x="95.410156" xlink:href="#DejaVuSans-56"/>
       <use x="159.033203" xlink:href="#DejaVuSans-50"/>
      </g>
     </g>
    </g>
    <g id="ytick_2">
     <g id="line2d_15">
      <path clip-path="url(#p2edfc4e5ba)" d="M 50.14375 296.389219 
L 719.74375 296.389219 
" style="fill:none;stroke:#b0b0b0;stroke-linecap:square;stroke-width:0.8;"/>
     </g>
     <g id="line2d_16">
      <g>
       <use style="stroke:#000000;stroke-width:0.8;" x="50.14375" xlink:href="#mecbe2339ad" y="296.389219"/>
      </g>
     </g>
     <g id="text_9">
      <!-- 0.84 -->
      <g transform="translate(20.878125 300.188437)scale(0.1 -0.1)">
       <use xlink:href="#DejaVuSans-48"/>
       <use x="63.623047" xlink:href="#DejaVuSans-46"/>
       <use x="95.410156" xlink:href="#DejaVuSans-56"/>
       <use x="159.033203" xlink:href="#DejaVuSans-52"/>
      </g>
     </g>
    </g>
    <g id="ytick_3">
     <g id="line2d_17">
      <path clip-path="url(#p2edfc4e5ba)" d="M 50.14375 255.619219 
L 719.74375 255.619219 
" style="fill:none;stroke:#b0b0b0;stroke-linecap:square;stroke-width:0.8;"/>
     </g>
     <g id="line2d_18">
      <g>
       <use style="stroke:#000000;stroke-width:0.8;" x="50.14375" xlink:href="#mecbe2339ad" y="255.619219"/>
      </g>
     </g>
     <g id="text_10">
      <!-- 0.86 -->
      <g transform="translate(20.878125 259.418437)scale(0.1 -0.1)">
       <use xlink:href="#DejaVuSans-48"/>
       <use x="63.623047" xlink:href="#DejaVuSans-46"/>
       <use x="95.410156" xlink:href="#DejaVuSans-56"/>
       <use x="159.033203" xlink:href="#DejaVuSans-54"/>
      </g>
     </g>
    </g>
    <g id="ytick_4">
     <g id="line2d_19">
      <path clip-path="url(#p2edfc4e5ba)" d="M 50.14375 214.849219 
L 719.74375 214.849219 
" style="fill:none;stroke:#b0b0b0;stroke-linecap:square;stroke-width:0.8;"/>
     </g>
     <g id="line2d_20">
      <g>
       <use style="stroke:#000000;stroke-width:0.8;" x="50.14375" xlink:href="#mecbe2339ad" y="214.849219"/>
      </g>
     </g>
     <g id="text_11">
      <!-- 0.88 -->
      <g transform="translate(20.878125 218.648437)scale(0.1 -0.1)">
       <use xlink:href="#DejaVuSans-48"/>
       <use x="63.623047" xlink:href="#DejaVuSans-46"/>
       <use x="95.410156" xlink:href="#DejaVuSans-56"/>
       <use x="159.033203" xlink:href="#DejaVuSans-56"/>
      </g>
     </g>
    </g>
    <g id="ytick_5">
     <g id="line2d_21">
      <path clip-path="url(#p2edfc4e5ba)" d="M 50.14375 174.079219 
L 719.74375 174.079219 
" style="fill:none;stroke:#b0b0b0;stroke-linecap:square;stroke-width:0.8;"/>
     </g>
     <g id="line2d_22">
      <g>
       <use style="stroke:#000000;stroke-width:0.8;" x="50.14375" xlink:href="#mecbe2339ad" y="174.079219"/>
      </g>
     </g>
     <g id="text_12">
      <!-- 0.90 -->
      <defs>
       <path d="M 10.984375 1.515625 
L 10.984375 10.5 
Q 14.703125 8.734375 18.5 7.8125 
Q 22.3125 6.890625 25.984375 6.890625 
Q 35.75 6.890625 40.890625 13.453125 
Q 46.046875 20.015625 46.78125 33.40625 
Q 43.953125 29.203125 39.59375 26.953125 
Q 35.25 24.703125 29.984375 24.703125 
Q 19.046875 24.703125 12.671875 31.3125 
Q 6.296875 37.9375 6.296875 49.421875 
Q 6.296875 60.640625 12.9375 67.421875 
Q 19.578125 74.21875 30.609375 74.21875 
Q 43.265625 74.21875 49.921875 64.515625 
Q 56.59375 54.828125 56.59375 36.375 
Q 56.59375 19.140625 48.40625 8.859375 
Q 40.234375 -1.421875 26.421875 -1.421875 
Q 22.703125 -1.421875 18.890625 -0.6875 
Q 15.09375 0.046875 10.984375 1.515625 
z
M 30.609375 32.421875 
Q 37.25 32.421875 41.125 36.953125 
Q 45.015625 41.5 45.015625 49.421875 
Q 45.015625 57.28125 41.125 61.84375 
Q 37.25 66.40625 30.609375 66.40625 
Q 23.96875 66.40625 20.09375 61.84375 
Q 16.21875 57.28125 16.21875 49.421875 
Q 16.21875 41.5 20.09375 36.953125 
Q 23.96875 32.421875 30.609375 32.421875 
z
" id="DejaVuSans-57"/>
      </defs>
      <g transform="translate(20.878125 177.878437)scale(0.1 -0.1)">
       <use xlink:href="#DejaVuSans-48"/>
       <use x="63.623047" xlink:href="#DejaVuSans-46"/>
       <use x="95.410156" xlink:href="#DejaVuSans-57"/>
       <use x="159.033203" xlink:href="#DejaVuSans-48"/>
      </g>
     </g>
    </g>
    <g id="ytick_6">
     <g id="line2d_23">
      <path clip-path="url(#p2edfc4e5ba)" d="M 50.14375 133.309219 
L 719.74375 133.309219 
" style="fill:none;stroke:#b0b0b0;stroke-linecap:square;stroke-width:0.8;"/>
     </g>
     <g id="line2d_24">
      <g>
       <use style="stroke:#000000;stroke-width:0.8;" x="50.14375" xlink:href="#mecbe2339ad" y="133.309219"/>
      </g>
     </g>
     <g id="text_13">
      <!-- 0.92 -->
      <g transform="translate(20.878125 137.108437)scale(0.1 -0.1)">
       <use xlink:href="#DejaVuSans-48"/>
       <use x="63.623047" xlink:href="#DejaVuSans-46"/>
       <use x="95.410156" xlink:href="#DejaVuSans-57"/>
       <use x="159.033203" xlink:href="#DejaVuSans-50"/>
      </g>
     </g>
    </g>
    <g id="ytick_7">
     <g id="line2d_25">
      <path clip-path="url(#p2edfc4e5ba)" d="M 50.14375 92.539219 
L 719.74375 92.539219 
" style="fill:none;stroke:#b0b0b0;stroke-linecap:square;stroke-width:0.8;"/>
     </g>
     <g id="line2d_26">
      <g>
       <use style="stroke:#000000;stroke-width:0.8;" x="50.14375" xlink:href="#mecbe2339ad" y="92.539219"/>
      </g>
     </g>
     <g id="text_14">
      <!-- 0.94 -->
      <g transform="translate(20.878125 96.338437)scale(0.1 -0.1)">
       <use xlink:href="#DejaVuSans-48"/>
       <use x="63.623047" xlink:href="#DejaVuSans-46"/>
       <use x="95.410156" xlink:href="#DejaVuSans-57"/>
       <use x="159.033203" xlink:href="#DejaVuSans-52"/>
      </g>
     </g>
    </g>
    <g id="ytick_8">
     <g id="line2d_27">
      <path clip-path="url(#p2edfc4e5ba)" d="M 50.14375 51.769219 
L 719.74375 51.769219 
" style="fill:none;stroke:#b0b0b0;stroke-linecap:square;stroke-width:0.8;"/>
     </g>
     <g id="line2d_28">
      <g>
       <use style="stroke:#000000;stroke-width:0.8;" x="50.14375" xlink:href="#mecbe2339ad" y="51.769219"/>
      </g>
     </g>
     <g id="text_15">
      <!-- 0.96 -->
      <g transform="translate(20.878125 55.568437)scale(0.1 -0.1)">
       <use xlink:href="#DejaVuSans-48"/>
       <use x="63.623047" xlink:href="#DejaVuSans-46"/>
       <use x="95.410156" xlink:href="#DejaVuSans-57"/>
       <use x="159.033203" xlink:href="#DejaVuSans-54"/>
      </g>
     </g>
    </g>
    <g id="ytick_9">
     <g id="line2d_29">
      <path clip-path="url(#p2edfc4e5ba)" d="M 50.14375 10.999219 
L 719.74375 10.999219 
" style="fill:none;stroke:#b0b0b0;stroke-linecap:square;stroke-width:0.8;"/>
     </g>
     <g id="line2d_30">
      <g>
       <use style="stroke:#000000;stroke-width:0.8;" x="50.14375" xlink:href="#mecbe2339ad" y="10.999219"/>
      </g>
     </g>
     <g id="text_16">
      <!-- 0.98 -->
      <g transform="translate(20.878125 14.798437)scale(0.1 -0.1)">
       <use xlink:href="#DejaVuSans-48"/>
       <use x="63.623047" xlink:href="#DejaVuSans-46"/>
       <use x="95.410156" xlink:href="#DejaVuSans-57"/>
       <use x="159.033203" xlink:href="#DejaVuSans-56"/>
      </g>
     </g>
    </g>
    <g id="text_17">
     <!-- Accuracy -->
     <defs>
      <path d="M 34.1875 63.1875 
L 20.796875 26.90625 
L 47.609375 26.90625 
z
M 28.609375 72.90625 
L 39.796875 72.90625 
L 67.578125 0 
L 57.328125 0 
L 50.6875 18.703125 
L 17.828125 18.703125 
L 11.1875 0 
L 0.78125 0 
z
" id="DejaVuSans-65"/>
      <path d="M 8.5 21.578125 
L 8.5 54.6875 
L 17.484375 54.6875 
L 17.484375 21.921875 
Q 17.484375 14.15625 20.5 10.265625 
Q 23.53125 6.390625 29.59375 6.390625 
Q 36.859375 6.390625 41.078125 11.03125 
Q 45.3125 15.671875 45.3125 23.6875 
L 45.3125 54.6875 
L 54.296875 54.6875 
L 54.296875 0 
L 45.3125 0 
L 45.3125 8.40625 
Q 42.046875 3.421875 37.71875 1 
Q 33.40625 -1.421875 27.6875 -1.421875 
Q 18.265625 -1.421875 13.375 4.4375 
Q 8.5 10.296875 8.5 21.578125 
z
M 31.109375 56 
z
" id="DejaVuSans-117"/>
      <path d="M 41.109375 46.296875 
Q 39.59375 47.171875 37.8125 47.578125 
Q 36.03125 48 33.890625 48 
Q 26.265625 48 22.1875 43.046875 
Q 18.109375 38.09375 18.109375 28.8125 
L 18.109375 0 
L 9.078125 0 
L 9.078125 54.6875 
L 18.109375 54.6875 
L 18.109375 46.1875 
Q 20.953125 51.171875 25.484375 53.578125 
Q 30.03125 56 36.53125 56 
Q 37.453125 56 38.578125 55.875 
Q 39.703125 55.765625 41.0625 55.515625 
z
" id="DejaVuSans-114"/>
      <path d="M 34.28125 27.484375 
Q 23.390625 27.484375 19.1875 25 
Q 14.984375 22.515625 14.984375 16.5 
Q 14.984375 11.71875 18.140625 8.90625 
Q 21.296875 6.109375 26.703125 6.109375 
Q 34.1875 6.109375 38.703125 11.40625 
Q 43.21875 16.703125 43.21875 25.484375 
L 43.21875 27.484375 
z
M 52.203125 31.203125 
L 52.203125 0 
L 43.21875 0 
L 43.21875 8.296875 
Q 40.140625 3.328125 35.546875 0.953125 
Q 30.953125 -1.421875 24.3125 -1.421875 
Q 15.921875 -1.421875 10.953125 3.296875 
Q 6 8.015625 6 15.921875 
Q 6 25.140625 12.171875 29.828125 
Q 18.359375 34.515625 30.609375 34.515625 
L 43.21875 34.515625 
L 43.21875 35.40625 
Q 43.21875 41.609375 39.140625 45 
Q 35.0625 48.390625 27.6875 48.390625 
Q 23 48.390625 18.546875 47.265625 
Q 14.109375 46.140625 10.015625 43.890625 
L 10.015625 52.203125 
Q 14.9375 54.109375 19.578125 55.046875 
Q 24.21875 56 28.609375 56 
Q 40.484375 56 46.34375 49.84375 
Q 52.203125 43.703125 52.203125 31.203125 
z
" id="DejaVuSans-97"/>
      <path d="M 32.171875 -5.078125 
Q 28.375 -14.84375 24.75 -17.8125 
Q 21.140625 -20.796875 15.09375 -20.796875 
L 7.90625 -20.796875 
L 7.90625 -13.28125 
L 13.1875 -13.28125 
Q 16.890625 -13.28125 18.9375 -11.515625 
Q 21 -9.765625 23.484375 -3.21875 
L 25.09375 0.875 
L 2.984375 54.6875 
L 12.5 54.6875 
L 29.59375 11.921875 
L 46.6875 54.6875 
L 56.203125 54.6875 
z
" id="DejaVuSans-121"/>
     </defs>
     <g transform="translate(14.798438 196.994062)rotate(-90)scale(0.1 -0.1)">
      <use xlink:href="#DejaVuSans-65"/>
      <use x="68.392578" xlink:href="#DejaVuSans-99"/>
      <use x="123.373047" xlink:href="#DejaVuSans-99"/>
      <use x="178.353516" xlink:href="#DejaVuSans-117"/>
      <use x="241.732422" xlink:href="#DejaVuSans-114"/>
      <use x="282.845703" xlink:href="#DejaVuSans-97"/>
      <use x="344.125" xlink:href="#DejaVuSans-99"/>
      <use x="399.105469" xlink:href="#DejaVuSans-121"/>
     </g>
    </g>
   </g>
   <g id="line2d_31">
    <path clip-path="url(#p2edfc4e5ba)" d="M 73.763759 375.715469 
L 73.810029 374.973365 
L 74.432826 371.966625 
L 75.055623 371.711831 
L 75.67842 369.979062 
L 76.301216 365.902114 
L 76.924013 358.716364 
L 77.54681 365.290463 
L 78.169607 361.213515 
L 78.792404 352.549911 
L 79.4152 353.72206 
L 80.037997 343.733332 
L 80.660794 355.097972 
L 81.283591 345.211308 
L 81.906388 343.274776 
L 82.529185 345.262218 
L 83.774778 337.108202 
L 84.397575 337.159233 
L 85.643169 330.686955 
L 86.265966 330.177367 
L 86.888762 322.787854 
L 87.511559 331.451458 
L 88.134356 324.214797 
L 88.757153 328.954307 
L 89.37995 323.450294 
L 90.002746 321.768556 
L 90.625543 315.449251 
L 91.24834 323.80703 
L 91.871137 316.723221 
L 92.493934 315.347309 
L 93.116731 314.837599 
L 93.739527 314.939541 
L 94.362324 305.562465 
L 94.985121 312.44239 
L 95.607918 308.008706 
L 96.230715 306.683704 
L 96.853511 306.938498 
L 97.476308 310.6078 
L 98.099105 307.550028 
L 98.721902 306.938498 
L 99.344699 306.581762 
L 99.967496 301.332544 
L 100.590292 302.504693 
L 101.213089 297.255596 
L 101.835886 293.127617 
L 102.458683 293.076707 
L 103.08148 294.911297 
L 103.704276 297.357538 
L 104.327073 294.554561 
L 104.94987 298.529688 
L 105.572667 286.655338 
L 106.195464 290.018935 
L 106.818261 291.955467 
L 107.441057 290.630465 
L 108.686651 285.228395 
L 109.309448 289.916993 
L 109.932245 285.890956 
L 110.555041 288.999638 
L 111.177838 283.240952 
L 111.800635 285.381368 
L 112.423432 288.999638 
L 113.669026 280.794711 
L 114.291822 282.374507 
L 114.914619 275.90235 
L 115.537416 280.845621 
L 116.160213 281.457151 
L 116.78301 276.055202 
L 117.405806 280.386943 
L 118.028603 273.048341 
L 118.6514 276.768674 
L 119.274197 272.233048 
L 119.896994 274.984994 
L 120.519791 275.39264 
L 121.142587 271.366603 
L 121.765384 270.449247 
L 122.388181 271.774371 
L 123.010978 272.691605 
L 123.633775 271.213751 
L 124.256571 267.748333 
L 124.879368 269.684865 
L 125.502165 270.755073 
L 126.124962 267.136803 
L 126.747759 264.792504 
L 127.993352 262.397173 
L 128.616149 266.525152 
L 129.238946 261.938616 
L 130.48454 261.02126 
L 131.107336 263.467502 
L 131.730133 263.518412 
L 132.35293 263.059734 
L 132.975727 264.63953 
L 133.598524 259.951053 
L 134.221321 260.715435 
L 134.844117 255.772163 
L 135.466914 265.505976 
L 136.712508 256.383693 
L 137.335305 260.664525 
L 137.958101 258.422167 
L 138.580898 259.543285 
L 139.203695 255.517248 
L 139.826492 259.339523 
L 140.449289 251.083564 
L 141.072086 256.791339 
L 141.694882 258.269315 
L 142.317679 249.809473 
L 142.940476 253.27489 
L 143.563273 249.605589 
L 144.18607 252.969186 
L 144.808866 254.141336 
L 145.431663 253.529806 
L 146.05446 250.777738 
L 146.677257 251.797036 
L 147.300054 249.401826 
L 147.922851 245.732525 
L 148.545647 252.408566 
L 149.168444 252.765302 
L 149.791241 245.019053 
L 150.414038 248.943149 
L 151.036835 251.695094 
L 151.659632 247.363353 
L 152.282428 246.598849 
L 152.905225 250.981622 
L 153.528022 249.197943 
L 154.150819 244.968021 
L 154.773616 244.101697 
L 155.396412 246.089261 
L 156.019209 240.12657 
L 156.642006 246.140171 
L 157.264803 237.884213 
L 157.8876 242.725664 
L 158.510397 238.546774 
L 159.133193 235.896771 
L 159.75599 242.674754 
L 160.378787 243.490167 
L 161.001584 238.8526 
L 161.624381 242.165166 
L 162.247177 241.196778 
L 162.869974 239.107394 
L 163.492771 240.738222 
L 164.115568 236.406359 
L 164.738365 241.196778 
L 165.361162 240.12657 
L 165.983958 235.590945 
L 166.606755 234.877473 
L 167.229552 239.209336 
L 168.475146 233.654413 
L 169.097942 238.546774 
L 169.720739 233.399619 
L 170.343536 232.940941 
L 170.966333 231.157262 
L 171.58913 231.259203 
L 172.211927 228.609078 
L 172.834723 240.279544 
L 173.45752 232.227469 
L 174.080317 236.763095 
L 174.703114 228.048458 
L 175.325911 227.895606 
L 175.948707 234.367885 
L 176.571504 230.341848 
L 177.194301 229.93408 
L 177.817098 226.621515 
L 178.439895 226.213868 
L 179.062692 234.062059 
L 179.685488 228.1504 
L 180.308285 229.526434 
L 180.931082 229.679286 
L 181.553879 231.66685 
L 182.176676 226.468663 
L 182.799472 222.595477 
L 183.422269 226.061016 
L 184.045066 223.410891 
L 184.667863 229.679286 
L 185.29066 224.735893 
L 185.913457 226.111927 
L 186.536253 221.780064 
L 187.15905 226.774488 
L 187.781847 224.073453 
L 188.404644 226.468663 
L 189.027441 220.404151 
L 189.650237 223.258039 
L 190.273034 222.442625 
L 190.895831 226.978251 
L 191.518628 222.238741 
L 192.141425 225.296513 
L 192.764222 223.410891 
L 193.387018 220.964771 
L 194.009815 216.887702 
L 194.632612 221.882005 
L 195.255409 223.461923 
L 195.878206 216.938734 
L 196.501002 222.442625 
L 197.123799 219.74159 
L 197.746596 219.486796 
L 198.369393 213.982904 
L 198.99219 218.926176 
L 199.614987 219.333944 
L 200.237783 218.008942 
L 200.86058 216.276172 
L 201.483377 213.371253 
L 202.106174 214.543403 
L 202.728971 212.504929 
L 203.351767 211.638605 
L 203.974564 218.008942 
L 204.597361 221.066592 
L 205.220158 216.225262 
L 205.842955 213.626169 
L 206.465752 214.135757 
L 207.088548 212.861665 
L 207.711345 210.874101 
L 208.334142 216.480056 
L 208.956939 218.56944 
L 209.579736 211.842489 
L 210.202532 212.504929 
L 210.825329 214.288609 
L 211.448126 207.255832 
L 212.070923 215.155054 
L 212.69372 212.606871 
L 213.316517 213.167491 
L 213.939313 207.816451 
L 214.56211 211.842489 
L 215.184907 211.332779 
L 215.807704 206.848064 
L 216.430501 208.733686 
L 217.053298 212.402987 
L 217.676094 210.211661 
L 218.298891 205.37021 
L 218.921688 207.2048 
L 219.544485 210.670339 
L 220.167282 209.192364 
L 220.790078 205.675914 
L 221.412875 208.32604 
L 222.035672 204.19806 
L 222.658469 205.93083 
L 223.281266 204.401944 
L 223.904063 206.950006 
L 224.526859 204.452854 
L 225.149656 205.675914 
L 225.772453 204.656738 
L 226.39525 198.439254 
L 227.018047 203.790414 
L 227.640843 205.472152 
L 228.26364 201.293141 
L 228.886437 205.879798 
L 229.509234 205.319178 
L 230.132031 208.37695 
L 230.754828 199.764377 
L 231.377624 199.968139 
L 232.000421 201.955703 
L 232.623218 202.975 
L 233.246015 201.446115 
L 233.868812 204.860622 
L 234.491608 200.222933 
L 235.114405 200.070081 
L 235.737202 197.776813 
L 236.359999 198.592227 
L 236.982796 198.490285 
L 237.605593 202.923969 
L 238.228389 199.458551 
L 238.851186 202.414381 
L 239.473983 196.145986 
L 240.09678 202.771117 
L 240.719577 198.490285 
L 241.342373 198.337312 
L 241.96517 195.483424 
L 242.587967 196.757516 
L 243.210764 200.172023 
L 243.833561 200.019171 
L 244.456358 195.993134 
L 245.079154 197.369046 
L 245.701951 195.73834 
L 246.324748 197.267104 
L 246.947545 194.6171 
L 247.570342 193.139246 
L 248.193138 195.024746 
L 248.815935 192.476684 
L 249.438732 197.114252 
L 250.061529 191.712302 
L 250.684326 196.553632 
L 251.307123 193.088214 
L 251.929919 195.78925 
L 252.552716 193.241066 
L 253.175513 195.17772 
L 253.79831 195.126688 
L 254.421107 191.865154 
L 255.043903 190.234327 
L 255.6667 193.801686 
L 256.289497 192.323832 
L 257.535091 192.323832 
L 258.157888 191.916065 
L 258.780684 192.986272 
L 259.403481 186.157379 
L 260.026278 189.418913 
L 260.649075 191.355566 
L 261.271872 188.552589 
L 261.894668 194.719042 
L 262.517465 188.858293 
L 263.140262 188.043001 
L 263.763059 187.839117 
L 264.385856 184.98523 
L 265.008653 193.292098 
L 265.631449 192.884331 
L 266.254246 190.030443 
L 266.877043 193.44495 
L 267.49984 190.998709 
L 268.122637 191.457387 
L 268.745433 188.552589 
L 269.36823 189.418913 
L 269.991027 191.049741 
L 270.613824 181.112044 
L 271.236621 183.81308 
L 271.859418 185.953495 
L 272.482214 186.972672 
L 273.105011 187.635233 
L 273.727808 184.679404 
L 274.350605 184.118784 
L 274.973402 185.749612 
L 275.596198 183.354402 
L 276.218995 187.635233 
L 276.841792 184.016964 
L 277.464589 185.443907 
L 278.087386 189.215029 
L 278.710183 181.570722 
L 279.332979 186.310231 
L 279.955776 183.20155 
L 280.578573 184.526552 
L 281.20137 183.25246 
L 281.824167 182.946634 
L 282.446964 179.328365 
L 283.06976 181.672664 
L 283.692557 185.341965 
L 284.315354 185.902464 
L 285.560948 177.595595 
L 286.806541 184.832256 
L 287.429338 182.131342 
L 288.052135 183.660228 
L 288.674932 179.430307 
L 289.297729 182.64093 
L 289.920525 179.481217 
L 290.543322 178.207125 
L 291.166119 179.736011 
L 291.788916 183.507254 
L 292.411713 177.595595 
L 293.034509 183.303492 
L 293.657306 175.862947 
L 294.280103 179.583159 
L 294.9029 173.569558 
L 295.525697 180.704398 
L 296.148494 175.404269 
L 296.77129 176.933155 
L 297.394087 175.709973 
L 298.016884 178.207125 
L 298.639681 178.716835 
L 299.262478 177.901421 
L 299.885274 174.588855 
L 300.508071 178.767745 
L 301.130868 176.423445 
L 301.753665 171.989762 
L 302.376462 173.518648 
L 302.999259 176.576419 
L 303.622055 178.411009 
L 304.244852 175.913857 
L 304.867649 176.525387 
L 305.490446 175.251296 
L 306.113243 175.811915 
L 306.736039 174.843649 
L 307.358836 175.455179 
L 307.981633 175.149475 
L 308.60443 174.130178 
L 309.227227 170.970464 
L 309.850024 179.277454 
L 311.095617 173.212822 
L 311.718414 173.161912 
L 312.341211 173.722531 
L 312.964008 171.683936 
L 313.586804 172.091704 
L 314.209601 171.072406 
L 314.832398 170.868522 
L 315.455195 170.10414 
L 316.077992 168.26955 
L 316.700789 168.830049 
L 317.323585 173.722531 
L 317.946382 171.27629 
L 318.569179 167.861783 
L 319.191976 168.830049 
L 319.814773 171.989762 
L 320.437569 165.364631 
L 321.060366 172.091704 
L 321.683163 163.886777 
L 322.30596 170.460876 
L 322.928757 168.830049 
L 323.551554 170.460876 
L 324.17435 166.383929 
L 324.797147 165.109837 
L 325.419944 167.097401 
L 326.042741 163.733803 
L 326.665538 170.358934 
L 327.288334 169.288726 
L 327.911131 166.485749 
L 328.533928 167.454137 
L 329.156725 164.956985 
L 329.779522 167.454137 
L 330.402319 164.702069 
L 331.025115 165.772277 
L 331.647912 163.428099 
L 332.270709 166.383929 
L 332.893506 168.167608 
L 333.516303 166.027193 
L 334.139099 167.301163 
L 334.761896 159.91165 
L 335.384693 166.230955 
L 336.630287 159.605824 
L 337.253084 162.969421 
L 338.498677 166.995459 
L 339.121474 164.447275 
L 339.744271 165.007895 
L 340.367068 161.593388 
L 340.989864 159.452972 
L 341.612661 159.86074 
L 342.235458 161.491446 
L 342.858255 162.459712 
L 343.481052 162.714627 
L 344.103849 163.377068 
L 345.349442 161.491446 
L 345.972239 162.663596 
L 346.595036 162.30686 
L 347.84063 159.86074 
L 349.086223 158.79041 
L 349.70902 161.287684 
L 350.331817 158.994294 
L 350.954614 158.229912 
L 351.57741 160.829006 
L 352.200207 159.656856 
L 352.823004 155.681729 
L 354.068598 160.777974 
L 354.691395 158.892352 
L 355.314191 160.064502 
L 355.936988 156.599085 
L 356.559785 161.236652 
L 357.182582 153.796107 
L 358.428175 155.681729 
L 359.050972 160.727064 
L 359.673769 157.924086 
L 360.296566 152.878873 
L 360.919363 156.701026 
L 361.54216 153.949081 
L 362.164956 159.30012 
L 362.787753 156.293259 
L 363.41055 151.146103 
L 364.033347 150.33069 
L 364.656144 154.713463 
L 365.27894 153.082635 
L 365.901737 155.324993 
L 366.524534 155.783671 
L 367.147331 154.713463 
L 367.770128 154.305817 
L 368.392925 156.90491 
L 369.015721 156.751937 
L 369.638518 149.464366 
L 370.261315 148.750894 
L 370.884112 151.248045 
L 371.506909 151.502839 
L 372.129705 155.885613 
L 372.752502 156.701026 
L 373.375299 155.681729 
L 373.998096 149.464366 
L 374.620893 152.216311 
L 375.24369 153.184577 
L 375.866486 152.573047 
L 376.489283 150.3816 
L 377.11208 147.37486 
L 377.734877 150.126806 
L 378.357674 148.59792 
L 378.98047 153.184577 
L 379.603267 151.044162 
L 380.226064 147.731596 
L 380.848861 153.541313 
L 381.471658 147.018124 
L 382.094455 150.075896 
L 382.717251 146.049858 
L 383.340048 150.789368 
L 383.962845 149.973954 
L 384.585642 152.674989 
L 385.208439 146.661388 
L 385.831235 152.878873 
L 386.454032 150.3816 
L 387.076829 148.394158 
L 387.699626 148.343126 
L 388.322423 143.705559 
L 388.94522 145.489239 
L 389.568016 149.923044 
L 390.190813 150.789368 
L 390.81361 147.629654 
L 391.436407 146.355563 
L 392.059204 146.916182 
L 392.682 143.246881 
L 393.304797 151.197014 
L 393.927594 148.088332 
L 394.550391 143.603617 
L 395.795985 148.54701 
L 396.418781 146.304652 
L 397.041578 143.246881 
L 398.287172 147.731596 
L 398.909969 146.1518 
L 399.532765 142.227705 
L 400.155562 146.304652 
L 400.778359 141.004523 
L 401.401156 142.890145 
L 402.023953 144.419031 
L 402.64675 144.419031 
L 403.269546 144.062295 
L 403.892343 142.992087 
L 404.51514 143.399733 
L 405.137937 145.59118 
L 405.760734 144.266179 
L 406.38353 140.036257 
L 407.006327 140.800761 
L 407.629124 138.915139 
L 408.251921 142.482499 
L 408.874718 142.227705 
L 409.497515 144.673825 
L 410.120311 139.01696 
L 410.743108 140.036257 
L 411.365905 145.285355 
L 411.988702 138.762166 
L 412.611499 140.545846 
L 413.234296 140.392993 
L 413.857092 141.055555 
L 414.479889 140.545846 
L 415.102686 145.438328 
L 415.725483 149.260482 
L 416.34828 141.208407 
L 416.971076 141.106465 
L 417.593873 142.176673 
L 418.21667 140.749729 
L 418.839467 138.252578 
L 419.462264 134.073688 
L 420.085061 140.596877 
L 420.707857 142.482499 
L 421.330654 137.029518 
L 421.953451 136.978486 
L 423.199045 135.39869 
L 423.821841 136.774724 
L 424.444638 134.277451 
L 425.067435 139.57758 
L 425.690232 137.18237 
L 426.935826 134.430424 
L 427.558622 140.18911 
L 428.181419 134.22654 
L 428.804216 142.278615 
L 429.427013 136.366956 
L 430.04981 134.889102 
L 430.672606 133.818894 
L 431.295403 134.328482 
L 431.9182 133.309185 
L 432.540997 136.723692 
L 433.163794 135.245838 
L 434.409387 135.857368 
L 435.032184 132.799597 
L 435.654981 132.850507 
L 436.277778 133.563979 
L 436.900575 134.889102 
L 437.523371 130.812033 
L 438.146168 136.876544 
L 438.768965 132.188067 
L 439.391762 129.741825 
L 440.014559 137.539106 
L 440.637356 133.207243 
L 441.260152 133.258275 
L 441.882949 130.455297 
L 442.505746 130.149593 
L 443.128543 136.214104 
L 443.75134 128.314882 
L 444.374136 133.360216 
L 444.996933 129.945709 
L 445.61973 133.258275 
L 446.242527 125.359052 
L 446.865324 125.562936 
L 447.488121 133.716952 
L 448.110917 128.620707 
L 448.733714 131.321621 
L 449.356511 129.996619 
L 450.602105 131.780299 
L 451.224901 129.436121 
L 451.847698 128.162029 
L 452.470495 130.812033 
L 453.093292 131.372653 
L 453.716089 130.098561 
L 454.338886 127.346616 
L 454.961682 125.86864 
L 455.584479 133.105422 
L 456.207276 124.03405 
L 456.830073 125.359052 
L 457.45287 121.129131 
L 458.075666 129.028353 
L 458.698463 127.04079 
L 459.32126 128.722649 
L 459.944057 125.2062 
L 460.566854 124.59467 
L 461.812447 126.276408 
L 462.435244 122.046487 
L 463.058041 126.837028 
L 463.680838 127.244674 
L 464.303635 125.86864 
L 464.926431 126.021614 
L 465.549228 124.390786 
L 466.172025 126.887938 
L 466.794822 126.684054 
L 467.417619 121.587809 
L 468.040416 121.384046 
L 468.663212 128.671617 
L 469.286009 123.47343 
L 469.908806 126.225376 
L 470.531603 126.123556 
L 471.1544 122.81099 
L 471.777196 123.116694 
L 472.399993 119.855161 
L 473.02279 119.090657 
L 473.645587 119.141689 
L 474.268384 121.995576 
L 475.513977 123.47343 
L 476.136774 122.403223 
L 476.759571 122.25037 
L 477.382368 117.205036 
L 478.005165 121.791693 
L 478.627962 120.721485 
L 479.250758 126.938848 
L 479.873555 119.906071 
L 480.496352 123.677314 
L 481.119149 116.644537 
L 481.741946 116.593506 
L 482.364742 122.8619 
L 482.987539 119.345451 
L 483.610336 119.549335 
L 484.233133 117.816565 
L 484.85593 120.313839 
L 485.478727 119.498425 
L 486.101523 120.364749 
L 486.72432 117.408919 
L 487.347117 117.306977 
L 487.969914 120.670575 
L 488.592711 117.358009 
L 489.215507 117.358009 
L 489.838304 115.268504 
L 490.461101 117.969539 
L 491.083898 115.01371 
L 491.706695 114.605942 
L 492.329492 112.924204 
L 492.952288 116.644537 
L 493.575085 115.523298 
L 494.197882 117.256067 
L 494.820679 114.249206 
L 495.443476 118.937805 
L 496.066272 118.683011 
L 496.689069 118.275243 
L 497.311866 116.746358 
L 497.934663 113.688708 
L 498.55746 114.147264 
L 499.180257 115.370446 
L 499.803053 115.727182 
L 500.42585 120.262807 
L 501.671444 114.351148 
L 502.917037 112.159822 
L 503.539834 115.370446 
L 504.162631 113.688708 
L 504.785428 113.637676 
L 505.408225 107.675107 
L 506.031022 112.261764 
L 506.653818 112.66941 
L 507.276615 111.701144 
L 507.899412 114.555032 
L 508.522209 108.949199 
L 509.145006 115.115652 
L 509.767802 115.319414 
L 510.390599 110.528994 
L 511.013396 110.987672 
L 512.25899 112.66941 
L 512.881787 111.701144 
L 513.504583 111.548171 
L 514.12738 109.305935 
L 514.750177 109.764491 
L 515.995771 108.898167 
L 516.618567 109.866433 
L 517.241364 106.350105 
L 517.864161 111.344408 
L 518.486958 106.859693 
L 519.109755 107.318371 
L 519.732552 107.420313 
L 520.355348 112.05788 
L 520.978145 107.827959 
L 521.600942 105.48366 
L 522.223739 105.126924 
L 522.846536 110.2742 
L 523.469332 108.490521 
L 524.092129 108.082753 
L 524.714926 111.49726 
L 525.337723 104.923161 
L 525.96052 106.401015 
L 526.583317 109.611639 
L 527.206113 103.547128 
L 527.82891 107.980811 
L 528.451707 108.439489 
L 529.074504 107.573165 
L 529.697301 105.177955 
L 530.320097 105.381718 
L 530.942894 104.719277 
L 531.565691 107.471223 
L 532.188488 107.267339 
L 532.811285 101.406712 
L 533.434082 104.566425 
L 534.056878 104.566425 
L 534.679675 106.604899 
L 535.302472 105.687543 
L 535.925269 103.03754 
L 536.548066 98.654766 
L 537.170862 102.018242 
L 537.793659 106.553867 
L 538.416456 100.846092 
L 539.039253 102.629772 
L 539.66205 99.979768 
L 540.907643 101.9163 
L 541.53044 99.979768 
L 542.153237 102.120184 
L 542.776034 102.069152 
L 543.398831 103.69998 
L 544.021628 100.948034 
L 544.644424 100.795182 
L 545.267221 99.775884 
L 545.890018 96.921997 
L 546.512815 98.90956 
L 547.135612 98.654766 
L 547.758408 102.120184 
L 548.381205 98.705677 
L 549.004002 97.635469 
L 549.626799 97.839353 
L 550.249596 102.425888 
L 551.495189 98.043115 
L 552.117986 96.514351 
L 552.740783 99.215265 
L 553.36358 97.584559 
L 553.986377 98.399851 
L 554.609173 100.08171 
L 555.23197 96.106583 
L 555.854767 97.941294 
L 556.477564 98.399851 
L 557.100361 95.596995 
L 557.723158 100.591298 
L 558.345954 96.718113 
L 558.968751 95.647905 
L 559.591548 94.11902 
L 560.214345 97.533527 
L 560.837142 97.074849 
L 561.459938 95.291169 
L 562.082735 92.997901 
L 562.705532 98.399851 
L 563.328329 95.851789 
L 563.951126 98.603735 
L 564.573923 96.310467 
L 565.196719 94.526787 
L 565.819516 98.552824 
L 566.442313 90.55166 
L 567.06511 92.182488 
L 567.687907 99.52109 
L 568.310703 91.774842 
L 568.9335 92.386371 
L 569.556297 98.196089 
L 570.179094 96.514351 
L 570.801891 93.762284 
L 571.424688 94.424845 
L 572.047484 94.526787 
L 572.670281 95.240259 
L 573.293078 92.743107 
L 573.915875 93.711373 
L 574.538672 90.092982 
L 575.161468 90.144014 
L 575.784265 93.50749 
L 576.407062 89.532484 
L 577.029859 89.37951 
L 577.652656 92.182488 
L 578.898249 93.405548 
L 579.521046 92.182488 
L 580.143843 87.697773 
L 580.76664 91.469016 
L 581.389437 89.175748 
L 582.012233 88.564097 
L 582.63503 89.124716 
L 583.257827 90.908396 
L 583.880624 89.532484 
L 584.503421 94.526787 
L 585.126218 88.207361 
L 585.749014 84.691033 
L 586.371811 89.99104 
L 586.994608 91.16319 
L 587.617405 94.017078 
L 588.240202 92.233398 
L 588.862998 87.850625 
L 589.485795 85.557357 
L 590.108592 88.71707 
L 590.731389 93.048812 
L 591.354186 84.538059 
L 591.976983 85.965003 
L 592.599779 83.926529 
L 593.222576 84.334297 
L 593.845373 86.066945 
L 594.46817 84.792975 
L 595.090967 82.805411 
L 595.713763 86.016035 
L 596.33656 85.914093 
L 597.582154 87.748804 
L 598.204951 83.365909 
L 598.827748 83.314999 
L 599.450544 88.666038 
L 600.073341 86.066945 
L 601.318935 82.499585 
L 601.941732 83.773677 
L 602.564528 84.334297 
L 603.187325 81.837145 
L 603.810122 84.283265 
L 604.432919 83.467851 
L 605.055716 81.938966 
L 605.678513 78.57549 
L 606.301309 82.295702 
L 606.924106 78.677432 
L 607.546903 82.397644 
L 608.1697 80.206318 
L 608.792497 82.907353 
L 609.415294 79.849582 
L 610.03809 77.760076 
L 610.660887 77.35243 
L 611.283684 78.473548 
L 611.906481 79.951524 
L 612.529278 80.9707 
L 613.152074 79.238052 
L 613.774871 73.275361 
L 614.397668 78.269664 
L 615.020465 74.294659 
L 615.643262 82.091939 
L 616.888855 75.772513 
L 617.511652 81.225494 
L 618.134449 81.888055 
L 618.757246 74.243627 
L 619.380043 75.619661 
L 620.002839 74.906189 
L 620.625636 77.505282 
L 621.248433 75.364867 
L 621.87123 76.537016 
L 622.494027 80.91979 
L 623.116824 76.333132 
L 623.73962 75.976397 
L 624.362417 77.862018 
L 624.985214 73.428335 
L 625.608011 76.944662 
L 626.230808 74.549453 
L 626.853604 75.772513 
L 627.476401 70.472505 
L 628.099198 77.709166 
L 628.721995 75.262925 
L 629.344792 74.855278 
L 629.967589 73.988833 
L 630.590385 74.498543 
L 631.213182 73.377303 
L 631.835979 73.122509 
L 632.458776 73.581187 
L 633.081573 78.422638 
L 633.704369 73.988833 
L 634.327166 73.071599 
L 634.949963 73.479245 
L 635.57276 69.962796 
L 636.195557 75.56875 
L 636.818354 74.141807 
L 637.44115 69.045561 
L 638.063947 71.287798 
L 638.686744 72.714863 
L 639.309541 69.657091 
L 639.932338 71.236887 
L 640.555134 70.982093 
L 641.177931 75.925486 
L 641.800728 72.969657 
L 642.423525 70.880151 
L 643.046322 71.134945 
L 643.669119 73.020567 
L 644.291915 73.886891 
L 644.914712 69.55515 
L 645.537509 66.956056 
L 646.160306 68.077174 
L 646.783103 73.173419 
L 647.405899 70.319532 
L 648.028696 66.344526 
L 648.651493 68.535852 
L 649.27429 68.383 
L 649.897087 65.936758 
L 650.519884 67.516676 
L 651.14268 66.803204 
L 651.765477 70.727299 
L 652.388274 64.713698 
L 653.011071 69.147382 
L 653.633868 72.561889 
L 654.256664 71.542713 
L 654.879461 71.389739 
L 655.502258 64.917582 
L 656.125055 68.892588 
L 656.747852 65.529112 
L 657.370649 64.81564 
L 657.993445 68.281058 
L 658.616242 64.255021 
L 659.239039 68.077174 
L 659.861836 66.497378 
L 660.484633 65.885848 
L 661.107429 66.752172 
L 661.730226 63.643491 
L 662.353023 64.458904 
L 662.97582 69.55515 
L 663.598617 64.560846 
L 664.221414 64.917582 
L 664.84421 65.98779 
L 665.467007 64.713698 
L 666.089804 65.580022 
L 666.712601 65.631054 
L 667.335398 68.281058 
L 667.958194 64.662788 
L 668.580991 61.961753 
L 669.203788 63.592459 
L 669.826585 62.624193 
L 670.449382 61.299191 
L 671.072179 61.248281 
L 672.317772 66.59932 
L 673.563366 64.153079 
L 674.186163 63.847374 
L 674.80896 59.974189 
L 675.431756 62.165515 
L 676.054553 57.477038 
L 676.67735 63.235723 
L 677.300147 61.910721 
L 677.922944 57.527948 
L 678.54574 59.515511 
L 679.168537 59.617453 
L 679.791334 57.57898 
L 680.414131 60.280015 
L 681.036928 61.044397 
L 681.659725 62.980929 
L 682.282521 61.248281 
L 682.905318 60.228983 
L 683.528115 61.146339 
L 684.150912 61.706959 
L 684.773709 58.394393 
L 685.396505 57.731832 
L 686.019302 60.381835 
L 686.642099 58.802039 
L 687.264896 59.209686 
L 687.887693 61.350223 
L 687.887693 61.350223 
" style="fill:none;stroke:#377eb8;stroke-linecap:square;stroke-width:1.5;"/>
   </g>
   <g id="line2d_32">
    <path clip-path="url(#p2edfc4e5ba)" d="M 63.086636 375.715469 
L 63.222483 369.271301 
L 63.84528 364.757789 
L 64.082875 375.715469 
M 65.362351 375.715469 
L 65.71367 359.628616 
L 65.883822 375.715469 
M 66.700359 375.715469 
L 66.959264 345.267321 
L 67.555582 375.715469 
M 67.73407 375.715469 
L 68.204858 371.528117 
L 68.827655 357.57702 
L 69.450451 312.441175 
L 70.073248 357.57702 
L 70.696045 314.492771 
L 71.318842 327.21291 
L 71.941639 316.339268 
L 72.564435 347.318918 
L 73.187232 336.650374 
L 73.810029 295.412623 
L 74.432826 308.9534 
L 75.055623 295.822942 
L 75.67842 329.264506 
L 76.301216 309.56894 
L 76.924013 284.333882 
L 77.54681 319.006404 
L 78.169607 308.9534 
L 78.792404 269.562146 
L 79.4152 300.951993 
L 80.037997 265.664052 
L 80.660794 289.668032 
L 81.283591 322.083859 
L 82.529185 275.101516 
L 83.151981 302.593391 
L 83.774778 285.975159 
L 84.397575 265.253733 
L 85.020372 261.150419 
L 85.643169 275.101516 
L 86.265966 265.048513 
L 86.888762 299.721035 
L 87.511559 261.765959 
L 88.134356 262.586597 
L 88.757153 286.795797 
L 89.37995 289.873252 
L 90.002746 265.253733 
L 90.625543 283.102802 
L 91.24834 271.203423 
L 91.871137 298.695298 
L 92.493934 266.89501 
L 93.116731 266.074372 
L 93.739527 250.687096 
L 94.362324 272.8447 
L 94.985121 262.586597 
L 95.607918 280.025469 
L 96.230715 278.79439 
L 96.853511 249.661238 
L 97.476308 245.968364 
L 98.099105 253.764551 
L 98.721902 279.204709 
L 99.344699 248.225181 
L 99.967496 249.866458 
L 100.590292 255.405828 
L 101.213089 251.097416 
L 101.835886 261.971058 
L 102.458683 252.328373 
L 103.08148 261.355518 
L 103.704276 239.608355 
L 104.327073 245.558045 
L 104.94987 264.022654 
L 105.572667 243.916768 
L 106.195464 262.996917 
L 106.818261 253.96965 
L 107.441057 228.324273 
L 108.063854 268.536287 
L 108.686651 266.074372 
L 109.309448 243.506449 
L 109.932245 252.738693 
L 110.555041 250.687096 
L 111.177838 237.351539 
L 111.800635 237.146319 
L 112.423432 237.351539 
L 113.046229 232.427587 
L 113.669026 238.787596 
L 114.291822 248.43028 
L 114.914619 242.48059 
L 115.537416 262.176278 
L 116.160213 252.943913 
L 116.78301 260.12456 
L 117.405806 250.687096 
L 118.028603 220.322987 
L 118.6514 238.377276 
L 119.274197 218.476489 
L 119.896994 224.22108 
L 120.519791 240.634093 
L 121.142587 231.196629 
L 121.765384 254.79041 
L 122.388181 225.657258 
L 123.010978 237.351539 
L 123.633775 232.222366 
L 124.256571 241.249632 
L 125.502165 230.17077 
L 126.124962 213.347438 
L 126.747759 246.378684 
L 127.370556 216.219673 
L 127.993352 227.708855 
L 128.616149 222.784902 
L 129.238946 235.505042 
L 129.861743 217.450631 
L 130.48454 229.555352 
L 131.107336 223.605541 
L 131.730133 230.78631 
L 132.35293 240.018675 
L 132.975727 234.889502 
L 133.598524 231.196629 
L 134.221321 222.579803 
L 134.844117 207.602847 
L 135.466914 221.348724 
L 136.089711 226.888216 
L 137.335305 225.657258 
L 137.958101 228.529493 
L 138.580898 232.017267 
L 139.203695 225.452038 
L 139.826492 216.835212 
L 140.449289 219.502348 
L 141.072086 218.271391 
L 141.694882 210.475082 
L 142.317679 220.322987 
L 142.940476 220.938405 
L 143.563273 233.453445 
L 144.18607 211.91126 
L 144.808866 215.604255 
L 145.431663 217.245532 
L 146.05446 205.346031 
L 146.677257 214.373297 
L 147.300054 199.396341 
L 147.922851 240.018675 
L 148.545647 222.591589 
L 149.168444 219.912668 
L 149.791241 245.763144 
L 150.414038 207.808068 
L 151.036835 214.988715 
L 151.659632 210.269983 
L 152.282428 207.397748 
L 152.905225 201.242838 
L 153.528022 202.884115 
L 154.150819 198.575703 
L 154.773616 215.193936 
L 155.396412 217.655851 
L 156.019209 218.476489 
L 156.642006 222.374583 
L 157.264803 235.71014 
L 157.8876 211.295842 
L 158.510397 211.500941 
L 159.133193 210.885523 
L 159.75599 229.145033 
L 161.001584 203.089214 
L 161.624381 204.730613 
L 162.247177 239.813454 
L 162.869974 211.500941 
L 163.492771 222.374583 
L 164.115568 195.498248 
L 164.738365 186.881422 
L 165.361162 227.708855 
L 165.983958 206.987429 
L 166.606755 204.115073 
L 167.229552 210.680302 
L 167.852349 219.297128 
L 168.475146 191.805253 
L 169.097942 203.089214 
L 169.720739 208.833805 
L 170.343536 205.96157 
L 170.966333 195.498248 
L 171.58913 207.192528 
L 172.211927 201.037618 
L 172.834723 183.803967 
L 173.45752 205.346031 
L 174.080317 208.423486 
L 174.703114 225.041719 
L 175.325911 209.039025 
L 175.948707 201.242838 
L 176.571504 199.80666 
L 177.194301 218.68171 
L 177.817098 214.373297 
L 178.439895 207.397748 
L 179.062692 209.449345 
L 179.685488 205.346031 
L 180.308285 219.707447 
L 180.931082 202.473796 
L 181.553879 211.706161 
L 182.176676 192.215572 
L 182.799472 209.449345 
L 183.422269 187.49684 
L 184.045066 206.782209 
L 184.667863 200.627299 
L 185.29066 195.703346 
L 185.913457 202.063477 
L 186.536253 203.704754 
L 187.15905 195.293027 
L 187.781847 197.755064 
L 188.404644 214.373297 
L 189.650237 197.344745 
L 190.273034 197.549844 
L 190.895831 199.191121 
L 191.518628 219.297128 
L 192.141425 193.036332 
L 192.764222 208.833805 
L 193.387018 192.831112 
L 194.009815 195.908567 
L 194.632612 195.293027 
L 195.255409 196.318886 
L 195.878206 200.21698 
L 196.501002 194.677609 
L 197.123799 209.244124 
L 197.746596 201.858256 
L 198.369393 203.909974 
L 198.99219 173.545743 
L 199.614987 210.269983 
L 200.237783 195.908567 
L 200.86058 195.703346 
L 201.483377 176.623198 
L 202.106174 213.347438 
L 202.728971 203.499655 
L 203.351767 204.320293 
L 203.974564 184.419385 
L 204.597361 179.905873 
L 205.220158 203.704754 
L 205.842955 195.498248 
L 206.465752 192.215572 
L 207.088548 205.346031 
L 207.711345 189.343337 
L 208.334142 181.95747 
L 208.956939 192.831112 
L 209.579736 180.931611 
L 210.202532 193.241431 
L 210.825329 186.881422 
L 211.448126 211.500941 
L 212.070923 193.241431 
L 212.69372 208.833805 
L 213.316517 189.138239 
L 213.939313 180.931611 
L 214.56211 194.677609 
L 215.184907 182.983328 
L 215.807704 201.037618 
L 216.430501 193.036332 
L 217.053298 203.704754 
L 217.676094 186.060784 
L 218.298891 196.113787 
L 218.921688 194.062069 
L 219.544485 187.086521 
L 220.167282 209.859664 
L 220.790078 187.70206 
L 221.412875 204.115073 
L 222.035672 186.881422 
L 222.658469 208.423486 
L 223.281266 183.803967 
L 223.904063 184.009066 
L 224.526859 185.445244 
L 225.149656 199.80666 
L 225.772453 168.416692 
L 226.39525 192.420792 
L 227.018047 194.062069 
L 227.640843 184.624605 
L 228.26364 208.628706 
L 228.886437 180.110972 
L 229.509234 185.445244 
L 230.132031 192.215572 
L 230.754828 205.75635 
L 231.377624 192.010473 
L 232.000421 192.626013 
L 232.623218 187.70206 
L 233.246015 179.905873 
L 233.868812 174.571602 
L 234.491608 195.293027 
L 235.114405 185.855563 
L 235.737202 207.397748 
L 236.359999 211.500941 
L 236.982796 190.779516 
L 237.605593 205.75635 
L 238.228389 186.471103 
L 238.851186 196.934426 
L 239.473983 178.264596 
L 240.09678 177.033517 
L 240.719577 200.4222 
L 241.342373 176.623198 
L 241.96517 180.110972 
L 242.587967 197.344745 
L 243.210764 181.54715 
L 243.833561 194.882708 
L 244.456358 182.573009 
L 245.079154 185.650464 
L 245.701951 177.033517 
L 246.324748 189.310774 
L 246.947545 172.314785 
L 247.570342 174.366503 
L 248.193138 177.443837 
L 248.815935 184.214286 
L 249.438732 177.443837 
L 250.061529 176.00778 
L 250.684326 185.240145 
L 251.307123 186.060784 
L 251.929919 186.265882 
L 252.552716 189.958877 
L 253.175513 181.54715 
L 253.79831 167.596053 
L 254.421107 188.727919 
L 255.043903 174.776822 
L 255.6667 182.983328 
L 256.289497 178.264596 
L 256.912294 200.011881 
L 257.535091 174.571602 
L 258.157888 181.752371 
L 258.780684 186.265882 
L 259.403481 178.469695 
L 260.649075 182.778108 
L 261.271872 179.700653 
L 261.894668 174.571602 
L 262.517465 179.700653 
L 263.140262 180.110972 
L 263.763059 183.393648 
L 264.385856 175.80256 
L 265.008653 180.110972 
L 265.631449 177.649057 
L 266.254246 183.598747 
L 266.877043 166.159875 
L 267.49984 203.909974 
L 268.122637 185.034925 
L 268.745433 186.265882 
L 269.36823 184.419385 
L 269.991027 179.700653 
L 270.613824 184.829704 
L 271.236621 187.49684 
L 271.859418 179.290334 
L 272.482214 184.624605 
L 273.105011 165.954776 
L 273.727808 182.983328 
L 274.350605 181.136831 
L 274.973402 176.00778 
L 275.596198 185.650464 
L 276.218995 170.057969 
L 276.841792 173.956062 
L 277.464589 197.344745 
L 278.087386 182.983328 
L 278.710183 182.983328 
L 279.332979 196.318886 
L 279.955776 178.264596 
L 280.578573 178.264596 
L 281.20137 172.725105 
L 281.824167 166.159875 
L 282.446964 180.931611 
L 283.06976 163.90318 
L 283.692557 179.085235 
L 284.315354 176.623198 
L 284.938151 167.390954 
L 285.560948 163.492861 
L 286.183744 194.882708 
L 286.806541 167.596053 
L 287.429338 184.009066 
L 288.052135 175.39224 
L 288.674932 198.780801 
L 289.297729 177.238738 
L 289.920525 170.263189 
L 290.543322 161.646364 
L 291.166119 194.472389 
L 291.788916 178.469695 
L 292.411713 173.750963 
L 293.034509 161.030824 
L 293.657306 161.851462 
L 294.280103 170.263189 
L 294.9029 183.393648 
L 295.525697 179.700653 
L 296.148494 173.340644 
L 296.77129 165.339237 
L 297.394087 176.00778 
L 298.016884 180.110972 
L 299.262478 176.828418 
L 299.885274 166.159875 
L 300.508071 166.775415 
L 301.130868 182.983328 
L 301.753665 176.828418 
L 302.376462 176.623198 
L 302.999259 161.851462 
L 303.622055 172.314785 
L 304.244852 179.700653 
L 304.867649 156.722411 
L 305.490446 174.981921 
L 306.113243 178.674916 
L 307.358836 157.337951 
L 307.981633 178.264596 
L 308.60443 168.211593 
L 309.227227 168.416692 
L 310.47282 193.856971 
L 311.095617 175.80256 
L 311.718414 177.238738 
L 312.341211 180.931611 
L 312.964008 165.749556 
L 313.586804 167.390954 
L 314.209601 176.418099 
L 314.832398 165.339237 
L 315.455195 165.749556 
L 316.077992 169.647649 
L 316.700789 179.290334 
L 317.323585 166.159875 
L 317.946382 168.621912 
L 318.569179 178.880015 
L 319.191976 163.69796 
L 319.814773 167.185734 
L 320.437569 173.340644 
L 321.060366 161.030824 
L 321.683163 167.801274 
L 322.30596 158.363688 
L 322.928757 172.109686 
L 323.551554 169.85287 
L 324.17435 169.442551 
L 324.797147 159.184327 
L 325.419944 166.980635 
L 326.042741 160.825725 
L 326.665538 177.854277 
L 327.288334 166.775415 
L 327.911131 171.699367 
L 328.533928 162.261782 
L 329.156725 177.854277 
L 329.779522 169.85287 
L 330.402319 171.494147 
L 331.025115 166.365096 
L 331.647912 157.13273 
L 332.270709 164.518598 
L 333.516303 169.442551 
L 334.139099 160.210185 
L 334.761896 157.54305 
L 335.384693 162.672101 
L 336.00749 171.699367 
L 337.253084 160.620505 
L 337.87588 161.646364 
L 338.498677 165.339237 
L 339.121474 161.851462 
L 339.744271 166.570194 
L 340.367068 166.159875 
L 340.989864 163.69796 
L 341.612661 157.13273 
L 342.235458 164.928917 
L 342.858255 164.928917 
L 343.481052 174.571602 
L 344.103849 154.600707 
L 344.726645 163.90318 
L 345.349442 165.339237 
L 345.972239 167.390954 
L 347.217833 160.210185 
L 347.84063 163.69796 
L 348.463426 166.159875 
L 349.086223 166.980635 
L 349.70902 159.389547 
L 350.331817 168.621912 
L 350.954614 175.80256 
L 351.57741 163.492861 
L 352.200207 163.69796 
L 352.823004 165.134138 
L 353.445801 158.774007 
L 354.068598 158.158589 
L 354.691395 168.827011 
L 355.314191 164.518598 
L 355.936988 156.517312 
L 356.559785 159.594767 
L 357.182582 181.54715 
L 357.805379 168.211593 
L 358.428175 162.467002 
L 359.050972 176.418099 
L 360.296566 164.108279 
L 360.919363 168.621912 
L 361.54216 158.363688 
L 362.164956 169.23733 
L 362.787753 165.954776 
L 363.41055 156.106993 
L 364.033347 176.212879 
L 364.656144 164.313499 
L 365.27894 164.108279 
L 365.901737 164.108279 
L 366.524534 163.69796 
L 367.147331 169.647649 
L 367.770128 165.749556 
L 368.392925 174.571602 
L 369.015721 163.08242 
L 369.638518 173.956062 
L 370.261315 176.828418 
L 370.884112 172.314785 
L 371.506909 169.85287 
L 372.129705 164.518598 
L 372.752502 165.544457 
L 373.375299 177.854277 
L 373.998096 162.261782 
L 375.24369 173.956062 
L 375.866486 154.260496 
L 376.489283 169.23733 
L 377.11208 162.467002 
L 377.734877 168.416692 
L 378.357674 158.568909 
L 378.98047 169.647649 
L 380.226064 178.264596 
L 380.848861 159.594767 
L 381.471658 161.030824 
L 382.094455 167.185734 
L 382.717251 154.875914 
L 383.340048 162.672101 
L 383.962845 157.74827 
L 384.585642 162.877321 
L 385.208439 150.567501 
L 385.831235 158.363688 
L 386.454032 161.646364 
L 387.076829 158.979228 
L 387.699626 154.465595 
L 388.322423 163.08242 
L 388.94522 151.798459 
L 389.568016 170.263189 
L 390.190813 154.875914 
L 390.81361 175.597461 
L 391.436407 155.901773 
L 392.059204 154.670815 
L 392.682 160.210185 
L 393.304797 154.670815 
L 394.550391 156.927632 
L 395.173188 145.028131 
L 395.795985 159.184327 
L 396.418781 159.799866 
L 397.041578 157.13273 
L 397.664375 162.261782 
L 398.287172 161.441143 
L 398.909969 170.878729 
L 399.532765 170.878729 
L 400.155562 161.646364 
L 400.778359 154.875914 
L 401.401156 157.74827 
L 402.023953 161.236044 
L 402.64675 162.261782 
L 403.269546 152.413998 
L 403.892343 179.905873 
L 404.51514 152.413998 
L 405.137937 155.081134 
L 405.760734 152.003679 
L 406.38353 156.722411 
L 407.006327 148.721125 
L 407.629124 167.390954 
L 408.251921 160.210185 
L 408.874718 157.54305 
L 409.497515 163.287641 
L 410.120311 151.59336 
L 410.743108 164.518598 
L 411.365905 165.134138 
L 411.988702 160.210185 
L 412.611499 163.287641 
L 413.234296 167.801274 
L 413.857092 157.74827 
L 414.479889 154.260496 
L 415.102686 164.518598 
L 415.725483 160.415406 
L 416.34828 160.210185 
L 416.971076 161.236044 
L 417.593873 152.619219 
L 418.21667 160.415406 
L 418.839467 163.90318 
L 419.462264 163.08242 
L 420.085061 171.904466 
L 421.330654 155.901773 
L 421.953451 150.97782 
L 422.576248 168.211593 
L 423.199045 170.673508 
L 423.821841 154.670815 
L 424.444638 164.518598 
L 425.067435 159.184327 
L 425.690232 155.696552 
L 426.313029 154.670815 
L 426.935826 154.465595 
L 427.558622 170.468409 
L 428.181419 173.135424 
L 428.804216 159.389547 
L 429.427013 163.08242 
L 430.04981 157.953369 
L 430.672606 158.774007 
L 431.295403 165.339237 
L 431.9182 156.312092 
L 432.540997 165.134138 
L 433.163794 149.952083 
L 433.786591 169.85287 
L 434.409387 159.799866 
L 435.032184 154.670815 
L 435.654981 159.184327 
L 436.900575 178.880015 
L 437.523371 158.363688 
L 438.146168 154.465595 
L 438.768965 151.38814 
L 439.391762 154.670815 
L 440.014559 151.59336 
L 440.637356 175.39224 
L 441.260152 148.515905 
L 441.882949 155.621706 
L 442.505746 152.208778 
L 443.128543 155.491453 
L 443.75134 162.467002 
L 444.374136 153.850177 
L 444.996933 162.467002 
L 445.61973 154.055275 
L 446.242527 163.08242 
L 446.865324 160.620505 
L 447.488121 146.874628 
L 448.110917 161.030824 
L 448.733714 157.13273 
L 449.356511 152.208778 
L 449.979308 164.518598 
L 450.602105 154.055275 
L 451.224901 163.287641 
L 451.847698 156.517312 
L 452.470495 158.979228 
L 453.093292 165.134138 
L 453.716089 163.08242 
L 454.338886 154.465595 
L 454.961682 161.441143 
L 455.584479 157.13273 
L 456.207276 167.596053 
L 456.830073 162.261782 
L 457.45287 161.441143 
L 458.075666 155.286233 
L 458.698463 159.799866 
L 459.32126 147.490046 
L 459.944057 157.953369 
L 460.566854 164.108279 
L 461.189651 154.670815 
L 461.812447 155.286233 
L 462.435244 155.081134 
L 463.058041 157.337951 
L 463.680838 155.286233 
L 464.303635 161.030824 
L 464.926431 152.003679 
L 465.549228 162.467002 
L 466.172025 160.415406 
L 466.794822 152.003679 
L 467.417619 141.745577 
L 468.040416 163.90318 
L 468.663212 155.696552 
L 469.286009 155.081134 
L 469.908806 153.029538 
L 470.531603 161.236044 
L 471.1544 149.336543 
L 471.777196 144.617811 
L 472.399993 159.799866 
L 473.02279 153.234637 
L 473.645587 165.339237 
L 474.268384 153.850177 
L 474.891181 149.952083 
L 475.513977 159.184327 
L 476.136774 165.544457 
L 476.759571 149.541764 
L 477.382368 161.441143 
L 478.005165 155.286233 
L 478.627962 155.696552 
L 479.250758 151.798459 
L 479.873555 159.389547 
L 480.496352 152.824318 
L 481.119149 155.081134 
L 481.741946 148.926224 
L 482.364742 159.184327 
L 483.610336 163.287641 
L 484.233133 146.053989 
L 484.85593 161.441143 
L 485.478727 140.514497 
L 486.101523 173.340644 
L 486.72432 148.926224 
L 487.347117 166.365096 
L 487.969914 154.260496 
L 488.592711 156.517312 
L 489.215507 150.157182 
L 489.838304 155.081134 
L 490.461101 157.13273 
L 491.083898 144.412591 
L 491.706695 163.08242 
L 492.329492 150.362402 
L 492.952288 162.467002 
L 493.575085 146.464309 
L 494.197882 144.82291 
L 494.820679 141.950676 
L 495.443476 157.13273 
L 496.066272 151.798459 
L 496.689069 151.59336 
L 497.311866 156.722411 
L 497.934663 152.208778 
L 498.55746 157.74827 
L 499.180257 148.310685 
L 499.803053 141.950676 
L 500.42585 152.824318 
L 501.048647 150.567501 
L 501.671444 163.69796 
L 502.294241 142.976534 
L 502.917037 149.541764 
L 503.539834 148.105586 
L 504.162631 159.594767 
L 504.785428 154.670815 
L 505.408225 151.38814 
L 506.031022 160.005087 
L 506.653818 148.515905 
L 507.276615 154.670815 
L 507.899412 150.772721 
L 508.522209 156.106993 
L 509.145006 154.670815 
L 509.767802 157.54305 
L 510.390599 148.721125 
L 511.013396 150.772721 
L 511.636193 149.336543 
L 512.25899 150.157182 
L 512.881787 152.619219 
L 513.504583 160.005087 
L 514.12738 150.567501 
L 514.750177 145.848769 
L 515.372974 145.233351 
L 515.995771 145.43845 
L 516.618567 152.824318 
L 517.241364 145.233351 
L 517.864161 161.646364 
L 518.486958 146.259088 
L 519.109755 156.517312 
L 519.732552 157.13273 
L 520.355348 144.002272 
L 520.978145 157.13273 
L 521.600942 158.158589 
L 522.223739 146.464309 
L 522.846536 150.567501 
L 523.469332 142.771314 
L 524.092129 156.106993 
L 524.714926 152.208778 
L 525.337723 146.053989 
L 525.96052 149.746863 
L 526.583317 148.721125 
L 527.206113 152.413998 
L 527.82891 158.363688 
L 528.451707 144.412591 
L 529.074504 141.745577 
L 529.697301 151.59336 
L 530.320097 159.184327 
L 530.942894 148.515905 
L 531.565691 153.850177 
L 532.188488 145.848769 
L 532.811285 153.234637 
L 533.434082 152.824318 
L 534.056878 148.105586 
L 534.679675 151.798459 
L 535.302472 150.362402 
L 535.925269 148.105586 
L 536.548066 143.797173 
L 537.170862 148.105586 
L 537.793659 148.926224 
L 538.416456 152.824318 
L 539.039253 153.439857 
L 539.66205 150.517198 
L 540.284847 150.157182 
L 540.907643 145.64367 
L 541.53044 148.310685 
L 542.153237 145.028131 
L 542.776034 144.207492 
L 543.398831 142.976534 
L 544.021628 147.490046 
L 544.644424 148.515905 
L 545.267221 146.053989 
L 545.890018 156.517312 
L 546.512815 145.848769 
L 547.135612 147.079727 
L 547.758408 141.540356 
L 548.381205 141.130037 
L 549.004002 148.721125 
L 549.626799 147.900365 
L 550.249596 152.003679 
L 550.872393 147.079727 
L 551.495189 156.106993 
L 552.117986 143.591953 
L 552.740783 154.260496 
L 553.36358 149.746863 
L 553.986377 149.131445 
L 554.609173 144.207492 
L 555.23197 143.181633 
L 555.854767 148.515905 
L 557.100361 140.104178 
L 557.723158 150.97782 
L 558.345954 149.952083 
L 558.968751 139.48876 
L 559.591548 152.619219 
L 560.214345 153.029538 
L 560.837142 142.566215 
L 561.459938 146.053989 
L 562.082735 142.771314 
L 562.705532 142.155896 
L 563.328329 150.157182 
L 563.951126 142.360995 
L 564.573923 142.155896 
L 565.196719 151.183041 
L 565.819516 137.847483 
L 566.442313 156.106993 
L 567.06511 157.13273 
L 567.687907 141.745577 
L 568.310703 146.053989 
L 568.9335 144.617811 
L 569.556297 148.721125 
L 570.179094 142.566215 
L 570.801891 151.38814 
L 571.424688 142.771314 
L 572.047484 158.158589 
L 572.670281 138.462901 
L 573.293078 150.567501 
L 573.915875 147.900365 
L 574.538672 153.644956 
L 575.161468 141.130037 
L 575.784265 148.310685 
L 576.407062 144.617811 
L 577.029859 150.567501 
L 577.652656 146.053989 
L 578.275453 152.208778 
L 578.898249 152.413998 
L 579.521046 153.850177 
L 580.143843 150.97782 
L 580.76664 149.131445 
L 581.389437 153.850177 
L 582.012233 142.155896 
L 582.63503 137.847483 
L 583.257827 150.157182 
L 583.880624 155.901773 
L 584.503421 144.002272 
L 585.126218 139.693859 
L 585.749014 153.234637 
L 586.371811 144.002272 
L 586.994608 153.644956 
L 587.617405 139.899079 
L 588.240202 144.617811 
L 588.862998 143.181633 
L 589.485795 144.412591 
L 590.108592 150.97782 
L 590.731389 139.48876 
L 591.354186 148.310685 
L 591.976983 152.003679 
L 592.599779 135.180347 
L 593.222576 146.464309 
L 593.845373 137.437042 
L 594.46817 143.181633 
L 595.090967 139.693859 
L 595.713763 145.43845 
L 596.33656 145.43845 
L 596.959357 146.259088 
L 597.582154 144.002272 
L 598.204951 145.64367 
L 598.827748 149.541764 
L 599.450544 139.078441 
L 600.073341 144.617811 
L 600.696138 140.514497 
L 601.318935 145.848769 
L 601.941732 141.335257 
L 602.564528 140.924817 
L 603.187325 148.515905 
L 603.810122 145.233351 
L 604.432919 140.309399 
L 605.055716 140.719718 
L 605.678513 146.464309 
L 606.301309 138.257802 
L 606.924106 146.669408 
L 607.546903 150.362402 
L 608.1697 145.43845 
L 608.792497 151.59336 
L 609.415294 140.309399 
L 610.03809 148.926224 
L 610.660887 151.798459 
L 611.283684 138.052582 
L 611.906481 144.207492 
L 613.152074 149.131445 
L 613.774871 144.207492 
L 614.397668 144.617811 
L 615.020465 140.104178 
L 615.643262 151.38814 
L 616.266059 143.181633 
L 616.888855 141.950676 
L 618.134449 137.026723 
L 618.757246 143.797173 
L 619.380043 131.282254 
L 620.002839 147.079727 
L 620.625636 140.924817 
L 621.248433 140.514497 
L 621.87123 147.490046 
L 622.494027 146.874628 
L 623.116824 142.360995 
L 623.73962 146.053989 
L 624.362417 139.28354 
L 624.985214 139.078441 
L 625.608011 144.412591 
L 626.230808 140.514497 
L 626.853604 135.590667 
L 627.476401 155.081134 
L 628.099198 138.668122 
L 628.721995 149.541764 
L 629.344792 139.899079 
L 629.967589 147.490046 
L 630.590385 143.797173 
L 631.213182 137.642263 
L 631.835979 145.233351 
L 632.458776 147.695266 
L 633.081573 146.669408 
L 633.704369 142.360995 
L 634.327166 142.976534 
L 634.949963 145.64367 
L 635.57276 146.669408 
L 636.195557 140.514497 
L 637.44115 145.004437 
L 639.309541 140.104178 
L 639.932338 147.695266 
L 640.555134 143.386854 
L 641.177931 146.053989 
L 641.800728 140.309399 
L 642.423525 139.48876 
L 643.046322 144.82291 
L 643.669119 139.48876 
L 644.914712 144.412591 
L 645.537509 139.899079 
L 646.160306 146.464309 
L 646.783103 140.924817 
L 647.405899 143.386854 
L 648.028696 139.48876 
L 648.651493 137.642263 
L 649.27429 138.462901 
L 649.897087 142.976534 
L 650.519884 139.693859 
L 651.14268 134.154489 
L 651.765477 139.899079 
L 652.388274 140.514497 
L 653.011071 139.693859 
L 653.633868 141.335257 
L 654.256664 141.745577 
L 654.879461 136.616404 
L 655.502258 142.771314 
L 656.125055 144.82291 
L 656.747852 135.590667 
L 657.370649 134.564808 
L 658.616242 144.207492 
L 659.239039 141.130037 
L 659.861836 140.104178 
L 660.484633 136.821624 
L 661.107429 143.591953 
L 661.730226 137.642263 
L 662.353023 142.771314 
L 662.97582 138.462901 
L 663.598617 144.617811 
L 664.221414 138.462901 
L 665.467007 144.617811 
L 666.089804 137.231944 
L 666.712601 136.821624 
L 667.335398 141.540356 
L 667.958194 129.230536 
L 668.580991 139.693859 
L 669.203788 140.719718 
L 669.826585 137.642263 
L 670.449382 137.642263 
L 671.072179 147.695266 
L 671.694975 143.591953 
L 672.317772 134.359709 
L 672.940569 134.975127 
L 673.563366 137.847483 
L 674.186163 137.026723 
L 674.80896 141.745577 
L 675.431756 136.206085 
L 676.054553 142.976534 
L 676.67735 134.359709 
L 677.300147 141.130037 
L 677.922944 135.385446 
L 678.54574 141.745577 
L 679.168537 142.360995 
L 679.791334 141.745577 
L 680.414131 133.12863 
L 681.036928 141.335257 
L 681.659725 135.590667 
L 682.282521 135.385446 
L 682.905318 140.514497 
L 683.528115 142.566215 
L 684.150912 134.770028 
L 684.773709 134.154489 
L 685.396505 134.975127 
L 686.019302 146.053989 
L 686.642099 134.359709 
L 687.264896 126.768621 
L 687.887693 139.899079 
L 687.887693 139.899079 
" style="fill:none;stroke:#4daf4a;stroke-linecap:square;stroke-width:1.5;"/>
   </g>
   <g id="patch_3">
    <path d="M 50.14375 337.159219 
L 50.14375 10.999219 
" style="fill:none;stroke:#000000;stroke-linecap:square;stroke-linejoin:miter;stroke-width:0.8;"/>
   </g>
   <g id="patch_4">
    <path d="M 719.74375 337.159219 
L 719.74375 10.999219 
" style="fill:none;stroke:#000000;stroke-linecap:square;stroke-linejoin:miter;stroke-width:0.8;"/>
   </g>
   <g id="patch_5">
    <path d="M 50.14375 337.159219 
L 719.74375 337.159219 
" style="fill:none;stroke:#000000;stroke-linecap:square;stroke-linejoin:miter;stroke-width:0.8;"/>
   </g>
   <g id="patch_6">
    <path d="M 50.14375 10.999219 
L 719.74375 10.999219 
" style="fill:none;stroke:#000000;stroke-linecap:square;stroke-linejoin:miter;stroke-width:0.8;"/>
   </g>
   <g id="legend_1">
    <g id="patch_7">
     <path d="M 57.14375 48.355469 
L 114.584375 48.355469 
Q 116.584375 48.355469 116.584375 46.355469 
L 116.584375 17.999219 
Q 116.584375 15.999219 114.584375 15.999219 
L 57.14375 15.999219 
Q 55.14375 15.999219 55.14375 17.999219 
L 55.14375 46.355469 
Q 55.14375 48.355469 57.14375 48.355469 
z
" style="fill:#ffffff;opacity:0.8;stroke:#cccccc;stroke-linejoin:miter;"/>
    </g>
    <g id="line2d_33">
     <path d="M 59.14375 24.097656 
L 79.14375 24.097656 
" style="fill:none;stroke:#377eb8;stroke-linecap:square;stroke-width:1.5;"/>
    </g>
    <g id="line2d_34"/>
    <g id="text_18">
     <!-- Train -->
     <defs>
      <path d="M -0.296875 72.90625 
L 61.375 72.90625 
L 61.375 64.59375 
L 35.5 64.59375 
L 35.5 0 
L 25.59375 0 
L 25.59375 64.59375 
L -0.296875 64.59375 
z
" id="DejaVuSans-84"/>
      <path d="M 9.421875 54.6875 
L 18.40625 54.6875 
L 18.40625 0 
L 9.421875 0 
z
M 9.421875 75.984375 
L 18.40625 75.984375 
L 18.40625 64.59375 
L 9.421875 64.59375 
z
" id="DejaVuSans-105"/>
      <path d="M 54.890625 33.015625 
L 54.890625 0 
L 45.90625 0 
L 45.90625 32.71875 
Q 45.90625 40.484375 42.875 44.328125 
Q 39.84375 48.1875 33.796875 48.1875 
Q 26.515625 48.1875 22.3125 43.546875 
Q 18.109375 38.921875 18.109375 30.90625 
L 18.109375 0 
L 9.078125 0 
L 9.078125 54.6875 
L 18.109375 54.6875 
L 18.109375 46.1875 
Q 21.34375 51.125 25.703125 53.5625 
Q 30.078125 56 35.796875 56 
Q 45.21875 56 50.046875 50.171875 
Q 54.890625 44.34375 54.890625 33.015625 
z
" id="DejaVuSans-110"/>
     </defs>
     <g transform="translate(87.14375 27.597656)scale(0.1 -0.1)">
      <use xlink:href="#DejaVuSans-84"/>
      <use x="60.865234" xlink:href="#DejaVuSans-114"/>
      <use x="101.978516" xlink:href="#DejaVuSans-97"/>
      <use x="163.257812" xlink:href="#DejaVuSans-105"/>
      <use x="191.041016" xlink:href="#DejaVuSans-110"/>
     </g>
    </g>
    <g id="line2d_35">
     <path d="M 59.14375 38.775781 
L 79.14375 38.775781 
" style="fill:none;stroke:#4daf4a;stroke-linecap:square;stroke-width:1.5;"/>
    </g>
    <g id="line2d_36"/>
    <g id="text_19">
     <!-- Test -->
     <defs>
      <path d="M 56.203125 29.59375 
L 56.203125 25.203125 
L 14.890625 25.203125 
Q 15.484375 15.921875 20.484375 11.0625 
Q 25.484375 6.203125 34.421875 6.203125 
Q 39.59375 6.203125 44.453125 7.46875 
Q 49.3125 8.734375 54.109375 11.28125 
L 54.109375 2.78125 
Q 49.265625 0.734375 44.1875 -0.34375 
Q 39.109375 -1.421875 33.890625 -1.421875 
Q 20.796875 -1.421875 13.15625 6.1875 
Q 5.515625 13.8125 5.515625 26.8125 
Q 5.515625 40.234375 12.765625 48.109375 
Q 20.015625 56 32.328125 56 
Q 43.359375 56 49.78125 48.890625 
Q 56.203125 41.796875 56.203125 29.59375 
z
M 47.21875 32.234375 
Q 47.125 39.59375 43.09375 43.984375 
Q 39.0625 48.390625 32.421875 48.390625 
Q 24.90625 48.390625 20.390625 44.140625 
Q 15.875 39.890625 15.1875 32.171875 
z
" id="DejaVuSans-101"/>
      <path d="M 44.28125 53.078125 
L 44.28125 44.578125 
Q 40.484375 46.53125 36.375 47.5 
Q 32.28125 48.484375 27.875 48.484375 
Q 21.1875 48.484375 17.84375 46.4375 
Q 14.5 44.390625 14.5 40.28125 
Q 14.5 37.15625 16.890625 35.375 
Q 19.28125 33.59375 26.515625 31.984375 
L 29.59375 31.296875 
Q 39.15625 29.25 43.1875 25.515625 
Q 47.21875 21.78125 47.21875 15.09375 
Q 47.21875 7.46875 41.1875 3.015625 
Q 35.15625 -1.421875 24.609375 -1.421875 
Q 20.21875 -1.421875 15.453125 -0.5625 
Q 10.6875 0.296875 5.421875 2 
L 5.421875 11.28125 
Q 10.40625 8.6875 15.234375 7.390625 
Q 20.0625 6.109375 24.8125 6.109375 
Q 31.15625 6.109375 34.5625 8.28125 
Q 37.984375 10.453125 37.984375 14.40625 
Q 37.984375 18.0625 35.515625 20.015625 
Q 33.0625 21.96875 24.703125 23.78125 
L 21.578125 24.515625 
Q 13.234375 26.265625 9.515625 29.90625 
Q 5.8125 33.546875 5.8125 39.890625 
Q 5.8125 47.609375 11.28125 51.796875 
Q 16.75 56 26.8125 56 
Q 31.78125 56 36.171875 55.265625 
Q 40.578125 54.546875 44.28125 53.078125 
z
" id="DejaVuSans-115"/>
      <path d="M 18.3125 70.21875 
L 18.3125 54.6875 
L 36.8125 54.6875 
L 36.8125 47.703125 
L 18.3125 47.703125 
L 18.3125 18.015625 
Q 18.3125 11.328125 20.140625 9.421875 
Q 21.96875 7.515625 27.59375 7.515625 
L 36.8125 7.515625 
L 36.8125 0 
L 27.59375 0 
Q 17.1875 0 13.234375 3.875 
Q 9.28125 7.765625 9.28125 18.015625 
L 9.28125 47.703125 
L 2.6875 47.703125 
L 2.6875 54.6875 
L 9.28125 54.6875 
L 9.28125 70.21875 
z
" id="DejaVuSans-116"/>
     </defs>
     <g transform="translate(87.14375 42.275781)scale(0.1 -0.1)">
      <use xlink:href="#DejaVuSans-84"/>
      <use x="60.818359" xlink:href="#DejaVuSans-101"/>
      <use x="122.341797" xlink:href="#DejaVuSans-115"/>
      <use x="174.441406" xlink:href="#DejaVuSans-116"/>
     </g>
    </g>
   </g>
  </g>
 </g>
 <defs>
  <clipPath id="p2edfc4e5ba">
   <rect height="326.16" width="669.6" x="50.14375" y="10.999219"/>
  </clipPath>
 </defs>
</svg>
