<?xml version="1.0" encoding="utf-8" standalone="no"?>
<!DOCTYPE svg PUBLIC "-//W3C//DTD SVG 1.1//EN"
  "http://www.w3.org/Graphics/SVG/1.1/DTD/svg11.dtd">
<!-- Created with matplotlib (https://matplotlib.org/) -->
<svg height="374.715469pt" version="1.1" viewBox="0 0 726.94375 374.715469" width="726.94375pt" xmlns="http://www.w3.org/2000/svg" xmlns:xlink="http://www.w3.org/1999/xlink">
 <defs>
  <style type="text/css">
*{stroke-linecap:butt;stroke-linejoin:round;white-space:pre;}
  </style>
 </defs>
 <g id="figure_1">
  <g id="patch_1">
   <path d="M 0 374.715469 
L 726.94375 374.715469 
L 726.94375 0 
L 0 0 
z
" style="fill:#ffffff;"/>
  </g>
  <g id="axes_1">
   <g id="patch_2">
    <path d="M 50.14375 337.159219 
L 719.74375 337.159219 
L 719.74375 10.999219 
L 50.14375 10.999219 
z
" style="fill:#ffffff;"/>
   </g>
   <g id="matplotlib.axis_1">
    <g id="xtick_1">
     <g id="line2d_1">
      <path clip-path="url(#pc5508fcd4d)" d="M 50.14375 337.159219 
L 50.14375 10.999219 
" style="fill:none;stroke:#b0b0b0;stroke-linecap:square;stroke-width:0.8;"/>
     </g>
     <g id="line2d_2">
      <defs>
       <path d="M 0 0 
L 0 3.5 
" id="m149b9ba98c" style="stroke:#000000;stroke-width:0.8;"/>
      </defs>
      <g>
       <use style="stroke:#000000;stroke-width:0.8;" x="50.14375" xlink:href="#m149b9ba98c" y="337.159219"/>
      </g>
     </g>
     <g id="text_1">
      <!-- 0 -->
      <defs>
       <path d="M 31.78125 66.40625 
Q 24.171875 66.40625 20.328125 58.90625 
Q 16.5 51.421875 16.5 36.375 
Q 16.5 21.390625 20.328125 13.890625 
Q 24.171875 6.390625 31.78125 6.390625 
Q 39.453125 6.390625 43.28125 13.890625 
Q 47.125 21.390625 47.125 36.375 
Q 47.125 51.421875 43.28125 58.90625 
Q 39.453125 66.40625 31.78125 66.40625 
z
M 31.78125 74.21875 
Q 44.046875 74.21875 50.515625 64.515625 
Q 56.984375 54.828125 56.984375 36.375 
Q 56.984375 17.96875 50.515625 8.265625 
Q 44.046875 -1.421875 31.78125 -1.421875 
Q 19.53125 -1.421875 13.0625 8.265625 
Q 6.59375 17.96875 6.59375 36.375 
Q 6.59375 54.828125 13.0625 64.515625 
Q 19.53125 74.21875 31.78125 74.21875 
z
" id="DejaVuSans-48"/>
      </defs>
      <g transform="translate(46.9625 351.757656)scale(0.1 -0.1)">
       <use xlink:href="#DejaVuSans-48"/>
      </g>
     </g>
    </g>
    <g id="xtick_2">
     <g id="line2d_3">
      <path clip-path="url(#pc5508fcd4d)" d="M 177.692681 337.159219 
L 177.692681 10.999219 
" style="fill:none;stroke:#b0b0b0;stroke-linecap:square;stroke-width:0.8;"/>
     </g>
     <g id="line2d_4">
      <g>
       <use style="stroke:#000000;stroke-width:0.8;" x="177.692681" xlink:href="#m149b9ba98c" y="337.159219"/>
      </g>
     </g>
     <g id="text_2">
      <!-- 200 -->
      <defs>
       <path d="M 19.1875 8.296875 
L 53.609375 8.296875 
L 53.609375 0 
L 7.328125 0 
L 7.328125 8.296875 
Q 12.9375 14.109375 22.625 23.890625 
Q 32.328125 33.6875 34.8125 36.53125 
Q 39.546875 41.84375 41.421875 45.53125 
Q 43.3125 49.21875 43.3125 52.78125 
Q 43.3125 58.59375 39.234375 62.25 
Q 35.15625 65.921875 28.609375 65.921875 
Q 23.96875 65.921875 18.8125 64.3125 
Q 13.671875 62.703125 7.8125 59.421875 
L 7.8125 69.390625 
Q 13.765625 71.78125 18.9375 73 
Q 24.125 74.21875 28.421875 74.21875 
Q 39.75 74.21875 46.484375 68.546875 
Q 53.21875 62.890625 53.21875 53.421875 
Q 53.21875 48.921875 51.53125 44.890625 
Q 49.859375 40.875 45.40625 35.40625 
Q 44.1875 33.984375 37.640625 27.21875 
Q 31.109375 20.453125 19.1875 8.296875 
z
" id="DejaVuSans-50"/>
      </defs>
      <g transform="translate(168.148931 351.757656)scale(0.1 -0.1)">
       <use xlink:href="#DejaVuSans-50"/>
       <use x="63.623047" xlink:href="#DejaVuSans-48"/>
       <use x="127.246094" xlink:href="#DejaVuSans-48"/>
      </g>
     </g>
    </g>
    <g id="xtick_3">
     <g id="line2d_5">
      <path clip-path="url(#pc5508fcd4d)" d="M 305.241612 337.159219 
L 305.241612 10.999219 
" style="fill:none;stroke:#b0b0b0;stroke-linecap:square;stroke-width:0.8;"/>
     </g>
     <g id="line2d_6">
      <g>
       <use style="stroke:#000000;stroke-width:0.8;" x="305.241612" xlink:href="#m149b9ba98c" y="337.159219"/>
      </g>
     </g>
     <g id="text_3">
      <!-- 400 -->
      <defs>
       <path d="M 37.796875 64.3125 
L 12.890625 25.390625 
L 37.796875 25.390625 
z
M 35.203125 72.90625 
L 47.609375 72.90625 
L 47.609375 25.390625 
L 58.015625 25.390625 
L 58.015625 17.1875 
L 47.609375 17.1875 
L 47.609375 0 
L 37.796875 0 
L 37.796875 17.1875 
L 4.890625 17.1875 
L 4.890625 26.703125 
z
" id="DejaVuSans-52"/>
      </defs>
      <g transform="translate(295.697862 351.757656)scale(0.1 -0.1)">
       <use xlink:href="#DejaVuSans-52"/>
       <use x="63.623047" xlink:href="#DejaVuSans-48"/>
       <use x="127.246094" xlink:href="#DejaVuSans-48"/>
      </g>
     </g>
    </g>
    <g id="xtick_4">
     <g id="line2d_7">
      <path clip-path="url(#pc5508fcd4d)" d="M 432.790543 337.159219 
L 432.790543 10.999219 
" style="fill:none;stroke:#b0b0b0;stroke-linecap:square;stroke-width:0.8;"/>
     </g>
     <g id="line2d_8">
      <g>
       <use style="stroke:#000000;stroke-width:0.8;" x="432.790543" xlink:href="#m149b9ba98c" y="337.159219"/>
      </g>
     </g>
     <g id="text_4">
      <!-- 600 -->
      <defs>
       <path d="M 33.015625 40.375 
Q 26.375 40.375 22.484375 35.828125 
Q 18.609375 31.296875 18.609375 23.390625 
Q 18.609375 15.53125 22.484375 10.953125 
Q 26.375 6.390625 33.015625 6.390625 
Q 39.65625 6.390625 43.53125 10.953125 
Q 47.40625 15.53125 47.40625 23.390625 
Q 47.40625 31.296875 43.53125 35.828125 
Q 39.65625 40.375 33.015625 40.375 
z
M 52.59375 71.296875 
L 52.59375 62.3125 
Q 48.875 64.0625 45.09375 64.984375 
Q 41.3125 65.921875 37.59375 65.921875 
Q 27.828125 65.921875 22.671875 59.328125 
Q 17.53125 52.734375 16.796875 39.40625 
Q 19.671875 43.65625 24.015625 45.921875 
Q 28.375 48.1875 33.59375 48.1875 
Q 44.578125 48.1875 50.953125 41.515625 
Q 57.328125 34.859375 57.328125 23.390625 
Q 57.328125 12.15625 50.6875 5.359375 
Q 44.046875 -1.421875 33.015625 -1.421875 
Q 20.359375 -1.421875 13.671875 8.265625 
Q 6.984375 17.96875 6.984375 36.375 
Q 6.984375 53.65625 15.1875 63.9375 
Q 23.390625 74.21875 37.203125 74.21875 
Q 40.921875 74.21875 44.703125 73.484375 
Q 48.484375 72.75 52.59375 71.296875 
z
" id="DejaVuSans-54"/>
      </defs>
      <g transform="translate(423.246793 351.757656)scale(0.1 -0.1)">
       <use xlink:href="#DejaVuSans-54"/>
       <use x="63.623047" xlink:href="#DejaVuSans-48"/>
       <use x="127.246094" xlink:href="#DejaVuSans-48"/>
      </g>
     </g>
    </g>
    <g id="xtick_5">
     <g id="line2d_9">
      <path clip-path="url(#pc5508fcd4d)" d="M 560.339474 337.159219 
L 560.339474 10.999219 
" style="fill:none;stroke:#b0b0b0;stroke-linecap:square;stroke-width:0.8;"/>
     </g>
     <g id="line2d_10">
      <g>
       <use style="stroke:#000000;stroke-width:0.8;" x="560.339474" xlink:href="#m149b9ba98c" y="337.159219"/>
      </g>
     </g>
     <g id="text_5">
      <!-- 800 -->
      <defs>
       <path d="M 31.78125 34.625 
Q 24.75 34.625 20.71875 30.859375 
Q 16.703125 27.09375 16.703125 20.515625 
Q 16.703125 13.921875 20.71875 10.15625 
Q 24.75 6.390625 31.78125 6.390625 
Q 38.8125 6.390625 42.859375 10.171875 
Q 46.921875 13.96875 46.921875 20.515625 
Q 46.921875 27.09375 42.890625 30.859375 
Q 38.875 34.625 31.78125 34.625 
z
M 21.921875 38.8125 
Q 15.578125 40.375 12.03125 44.71875 
Q 8.5 49.078125 8.5 55.328125 
Q 8.5 64.0625 14.71875 69.140625 
Q 20.953125 74.21875 31.78125 74.21875 
Q 42.671875 74.21875 48.875 69.140625 
Q 55.078125 64.0625 55.078125 55.328125 
Q 55.078125 49.078125 51.53125 44.71875 
Q 48 40.375 41.703125 38.8125 
Q 48.828125 37.15625 52.796875 32.3125 
Q 56.78125 27.484375 56.78125 20.515625 
Q 56.78125 9.90625 50.3125 4.234375 
Q 43.84375 -1.421875 31.78125 -1.421875 
Q 19.734375 -1.421875 13.25 4.234375 
Q 6.78125 9.90625 6.78125 20.515625 
Q 6.78125 27.484375 10.78125 32.3125 
Q 14.796875 37.15625 21.921875 38.8125 
z
M 18.3125 54.390625 
Q 18.3125 48.734375 21.84375 45.5625 
Q 25.390625 42.390625 31.78125 42.390625 
Q 38.140625 42.390625 41.71875 45.5625 
Q 45.3125 48.734375 45.3125 54.390625 
Q 45.3125 60.0625 41.71875 63.234375 
Q 38.140625 66.40625 31.78125 66.40625 
Q 25.390625 66.40625 21.84375 63.234375 
Q 18.3125 60.0625 18.3125 54.390625 
z
" id="DejaVuSans-56"/>
      </defs>
      <g transform="translate(550.795724 351.757656)scale(0.1 -0.1)">
       <use xlink:href="#DejaVuSans-56"/>
       <use x="63.623047" xlink:href="#DejaVuSans-48"/>
       <use x="127.246094" xlink:href="#DejaVuSans-48"/>
      </g>
     </g>
    </g>
    <g id="xtick_6">
     <g id="line2d_11">
      <path clip-path="url(#pc5508fcd4d)" d="M 687.888405 337.159219 
L 687.888405 10.999219 
" style="fill:none;stroke:#b0b0b0;stroke-linecap:square;stroke-width:0.8;"/>
     </g>
     <g id="line2d_12">
      <g>
       <use style="stroke:#000000;stroke-width:0.8;" x="687.888405" xlink:href="#m149b9ba98c" y="337.159219"/>
      </g>
     </g>
     <g id="text_6">
      <!-- 1000 -->
      <defs>
       <path d="M 12.40625 8.296875 
L 28.515625 8.296875 
L 28.515625 63.921875 
L 10.984375 60.40625 
L 10.984375 69.390625 
L 28.421875 72.90625 
L 38.28125 72.90625 
L 38.28125 8.296875 
L 54.390625 8.296875 
L 54.390625 0 
L 12.40625 0 
z
" id="DejaVuSans-49"/>
      </defs>
      <g transform="translate(675.163405 351.757656)scale(0.1 -0.1)">
       <use xlink:href="#DejaVuSans-49"/>
       <use x="63.623047" xlink:href="#DejaVuSans-48"/>
       <use x="127.246094" xlink:href="#DejaVuSans-48"/>
       <use x="190.869141" xlink:href="#DejaVuSans-48"/>
      </g>
     </g>
    </g>
    <g id="text_7">
     <!-- Epoch -->
     <defs>
      <path d="M 9.8125 72.90625 
L 55.90625 72.90625 
L 55.90625 64.59375 
L 19.671875 64.59375 
L 19.671875 43.015625 
L 54.390625 43.015625 
L 54.390625 34.71875 
L 19.671875 34.71875 
L 19.671875 8.296875 
L 56.78125 8.296875 
L 56.78125 0 
L 9.8125 0 
z
" id="DejaVuSans-69"/>
      <path d="M 18.109375 8.203125 
L 18.109375 -20.796875 
L 9.078125 -20.796875 
L 9.078125 54.6875 
L 18.109375 54.6875 
L 18.109375 46.390625 
Q 20.953125 51.265625 25.265625 53.625 
Q 29.59375 56 35.59375 56 
Q 45.5625 56 51.78125 48.09375 
Q 58.015625 40.1875 58.015625 27.296875 
Q 58.015625 14.40625 51.78125 6.484375 
Q 45.5625 -1.421875 35.59375 -1.421875 
Q 29.59375 -1.421875 25.265625 0.953125 
Q 20.953125 3.328125 18.109375 8.203125 
z
M 48.6875 27.296875 
Q 48.6875 37.203125 44.609375 42.84375 
Q 40.53125 48.484375 33.40625 48.484375 
Q 26.265625 48.484375 22.1875 42.84375 
Q 18.109375 37.203125 18.109375 27.296875 
Q 18.109375 17.390625 22.1875 11.75 
Q 26.265625 6.109375 33.40625 6.109375 
Q 40.53125 6.109375 44.609375 11.75 
Q 48.6875 17.390625 48.6875 27.296875 
z
" id="DejaVuSans-112"/>
      <path d="M 30.609375 48.390625 
Q 23.390625 48.390625 19.1875 42.75 
Q 14.984375 37.109375 14.984375 27.296875 
Q 14.984375 17.484375 19.15625 11.84375 
Q 23.34375 6.203125 30.609375 6.203125 
Q 37.796875 6.203125 41.984375 11.859375 
Q 46.1875 17.53125 46.1875 27.296875 
Q 46.1875 37.015625 41.984375 42.703125 
Q 37.796875 48.390625 30.609375 48.390625 
z
M 30.609375 56 
Q 42.328125 56 49.015625 48.375 
Q 55.71875 40.765625 55.71875 27.296875 
Q 55.71875 13.875 49.015625 6.21875 
Q 42.328125 -1.421875 30.609375 -1.421875 
Q 18.84375 -1.421875 12.171875 6.21875 
Q 5.515625 13.875 5.515625 27.296875 
Q 5.515625 40.765625 12.171875 48.375 
Q 18.84375 56 30.609375 56 
z
" id="DejaVuSans-111"/>
      <path d="M 48.78125 52.59375 
L 48.78125 44.1875 
Q 44.96875 46.296875 41.140625 47.34375 
Q 37.3125 48.390625 33.40625 48.390625 
Q 24.65625 48.390625 19.8125 42.84375 
Q 14.984375 37.3125 14.984375 27.296875 
Q 14.984375 17.28125 19.8125 11.734375 
Q 24.65625 6.203125 33.40625 6.203125 
Q 37.3125 6.203125 41.140625 7.25 
Q 44.96875 8.296875 48.78125 10.40625 
L 48.78125 2.09375 
Q 45.015625 0.34375 40.984375 -0.53125 
Q 36.96875 -1.421875 32.421875 -1.421875 
Q 20.0625 -1.421875 12.78125 6.34375 
Q 5.515625 14.109375 5.515625 27.296875 
Q 5.515625 40.671875 12.859375 48.328125 
Q 20.21875 56 33.015625 56 
Q 37.15625 56 41.109375 55.140625 
Q 45.0625 54.296875 48.78125 52.59375 
z
" id="DejaVuSans-99"/>
      <path d="M 54.890625 33.015625 
L 54.890625 0 
L 45.90625 0 
L 45.90625 32.71875 
Q 45.90625 40.484375 42.875 44.328125 
Q 39.84375 48.1875 33.796875 48.1875 
Q 26.515625 48.1875 22.3125 43.546875 
Q 18.109375 38.921875 18.109375 30.90625 
L 18.109375 0 
L 9.078125 0 
L 9.078125 75.984375 
L 18.109375 75.984375 
L 18.109375 46.1875 
Q 21.34375 51.125 25.703125 53.5625 
Q 30.078125 56 35.796875 56 
Q 45.21875 56 50.046875 50.171875 
Q 54.890625 44.34375 54.890625 33.015625 
z
" id="DejaVuSans-104"/>
     </defs>
     <g transform="translate(369.632813 365.435781)scale(0.1 -0.1)">
      <use xlink:href="#DejaVuSans-69"/>
      <use x="63.183594" xlink:href="#DejaVuSans-112"/>
      <use x="126.660156" xlink:href="#DejaVuSans-111"/>
      <use x="187.841797" xlink:href="#DejaVuSans-99"/>
      <use x="242.822266" xlink:href="#DejaVuSans-104"/>
     </g>
    </g>
   </g>
   <g id="matplotlib.axis_2">
    <g id="ytick_1">
     <g id="line2d_13">
      <path clip-path="url(#pc5508fcd4d)" d="M 50.14375 337.159219 
L 719.74375 337.159219 
" style="fill:none;stroke:#b0b0b0;stroke-linecap:square;stroke-width:0.8;"/>
     </g>
     <g id="line2d_14">
      <defs>
       <path d="M 0 0 
L -3.5 0 
" id="m1127601237" style="stroke:#000000;stroke-width:0.8;"/>
      </defs>
      <g>
       <use style="stroke:#000000;stroke-width:0.8;" x="50.14375" xlink:href="#m1127601237" y="337.159219"/>
      </g>
     </g>
     <g id="text_8">
      <!-- 0.82 -->
      <defs>
       <path d="M 10.6875 12.40625 
L 21 12.40625 
L 21 0 
L 10.6875 0 
z
" id="DejaVuSans-46"/>
      </defs>
      <g transform="translate(20.878125 340.958437)scale(0.1 -0.1)">
       <use xlink:href="#DejaVuSans-48"/>
       <use x="63.623047" xlink:href="#DejaVuSans-46"/>
       <use x="95.410156" xlink:href="#DejaVuSans-56"/>
       <use x="159.033203" xlink:href="#DejaVuSans-50"/>
      </g>
     </g>
    </g>
    <g id="ytick_2">
     <g id="line2d_15">
      <path clip-path="url(#pc5508fcd4d)" d="M 50.14375 296.389219 
L 719.74375 296.389219 
" style="fill:none;stroke:#b0b0b0;stroke-linecap:square;stroke-width:0.8;"/>
     </g>
     <g id="line2d_16">
      <g>
       <use style="stroke:#000000;stroke-width:0.8;" x="50.14375" xlink:href="#m1127601237" y="296.389219"/>
      </g>
     </g>
     <g id="text_9">
      <!-- 0.84 -->
      <g transform="translate(20.878125 300.188437)scale(0.1 -0.1)">
       <use xlink:href="#DejaVuSans-48"/>
       <use x="63.623047" xlink:href="#DejaVuSans-46"/>
       <use x="95.410156" xlink:href="#DejaVuSans-56"/>
       <use x="159.033203" xlink:href="#DejaVuSans-52"/>
      </g>
     </g>
    </g>
    <g id="ytick_3">
     <g id="line2d_17">
      <path clip-path="url(#pc5508fcd4d)" d="M 50.14375 255.619219 
L 719.74375 255.619219 
" style="fill:none;stroke:#b0b0b0;stroke-linecap:square;stroke-width:0.8;"/>
     </g>
     <g id="line2d_18">
      <g>
       <use style="stroke:#000000;stroke-width:0.8;" x="50.14375" xlink:href="#m1127601237" y="255.619219"/>
      </g>
     </g>
     <g id="text_10">
      <!-- 0.86 -->
      <g transform="translate(20.878125 259.418437)scale(0.1 -0.1)">
       <use xlink:href="#DejaVuSans-48"/>
       <use x="63.623047" xlink:href="#DejaVuSans-46"/>
       <use x="95.410156" xlink:href="#DejaVuSans-56"/>
       <use x="159.033203" xlink:href="#DejaVuSans-54"/>
      </g>
     </g>
    </g>
    <g id="ytick_4">
     <g id="line2d_19">
      <path clip-path="url(#pc5508fcd4d)" d="M 50.14375 214.849219 
L 719.74375 214.849219 
" style="fill:none;stroke:#b0b0b0;stroke-linecap:square;stroke-width:0.8;"/>
     </g>
     <g id="line2d_20">
      <g>
       <use style="stroke:#000000;stroke-width:0.8;" x="50.14375" xlink:href="#m1127601237" y="214.849219"/>
      </g>
     </g>
     <g id="text_11">
      <!-- 0.88 -->
      <g transform="translate(20.878125 218.648437)scale(0.1 -0.1)">
       <use xlink:href="#DejaVuSans-48"/>
       <use x="63.623047" xlink:href="#DejaVuSans-46"/>
       <use x="95.410156" xlink:href="#DejaVuSans-56"/>
       <use x="159.033203" xlink:href="#DejaVuSans-56"/>
      </g>
     </g>
    </g>
    <g id="ytick_5">
     <g id="line2d_21">
      <path clip-path="url(#pc5508fcd4d)" d="M 50.14375 174.079219 
L 719.74375 174.079219 
" style="fill:none;stroke:#b0b0b0;stroke-linecap:square;stroke-width:0.8;"/>
     </g>
     <g id="line2d_22">
      <g>
       <use style="stroke:#000000;stroke-width:0.8;" x="50.14375" xlink:href="#m1127601237" y="174.079219"/>
      </g>
     </g>
     <g id="text_12">
      <!-- 0.90 -->
      <defs>
       <path d="M 10.984375 1.515625 
L 10.984375 10.5 
Q 14.703125 8.734375 18.5 7.8125 
Q 22.3125 6.890625 25.984375 6.890625 
Q 35.75 6.890625 40.890625 13.453125 
Q 46.046875 20.015625 46.78125 33.40625 
Q 43.953125 29.203125 39.59375 26.953125 
Q 35.25 24.703125 29.984375 24.703125 
Q 19.046875 24.703125 12.671875 31.3125 
Q 6.296875 37.9375 6.296875 49.421875 
Q 6.296875 60.640625 12.9375 67.421875 
Q 19.578125 74.21875 30.609375 74.21875 
Q 43.265625 74.21875 49.921875 64.515625 
Q 56.59375 54.828125 56.59375 36.375 
Q 56.59375 19.140625 48.40625 8.859375 
Q 40.234375 -1.421875 26.421875 -1.421875 
Q 22.703125 -1.421875 18.890625 -0.6875 
Q 15.09375 0.046875 10.984375 1.515625 
z
M 30.609375 32.421875 
Q 37.25 32.421875 41.125 36.953125 
Q 45.015625 41.5 45.015625 49.421875 
Q 45.015625 57.28125 41.125 61.84375 
Q 37.25 66.40625 30.609375 66.40625 
Q 23.96875 66.40625 20.09375 61.84375 
Q 16.21875 57.28125 16.21875 49.421875 
Q 16.21875 41.5 20.09375 36.953125 
Q 23.96875 32.421875 30.609375 32.421875 
z
" id="DejaVuSans-57"/>
      </defs>
      <g transform="translate(20.878125 177.878437)scale(0.1 -0.1)">
       <use xlink:href="#DejaVuSans-48"/>
       <use x="63.623047" xlink:href="#DejaVuSans-46"/>
       <use x="95.410156" xlink:href="#DejaVuSans-57"/>
       <use x="159.033203" xlink:href="#DejaVuSans-48"/>
      </g>
     </g>
    </g>
    <g id="ytick_6">
     <g id="line2d_23">
      <path clip-path="url(#pc5508fcd4d)" d="M 50.14375 133.309219 
L 719.74375 133.309219 
" style="fill:none;stroke:#b0b0b0;stroke-linecap:square;stroke-width:0.8;"/>
     </g>
     <g id="line2d_24">
      <g>
       <use style="stroke:#000000;stroke-width:0.8;" x="50.14375" xlink:href="#m1127601237" y="133.309219"/>
      </g>
     </g>
     <g id="text_13">
      <!-- 0.92 -->
      <g transform="translate(20.878125 137.108437)scale(0.1 -0.1)">
       <use xlink:href="#DejaVuSans-48"/>
       <use x="63.623047" xlink:href="#DejaVuSans-46"/>
       <use x="95.410156" xlink:href="#DejaVuSans-57"/>
       <use x="159.033203" xlink:href="#DejaVuSans-50"/>
      </g>
     </g>
    </g>
    <g id="ytick_7">
     <g id="line2d_25">
      <path clip-path="url(#pc5508fcd4d)" d="M 50.14375 92.539219 
L 719.74375 92.539219 
" style="fill:none;stroke:#b0b0b0;stroke-linecap:square;stroke-width:0.8;"/>
     </g>
     <g id="line2d_26">
      <g>
       <use style="stroke:#000000;stroke-width:0.8;" x="50.14375" xlink:href="#m1127601237" y="92.539219"/>
      </g>
     </g>
     <g id="text_14">
      <!-- 0.94 -->
      <g transform="translate(20.878125 96.338437)scale(0.1 -0.1)">
       <use xlink:href="#DejaVuSans-48"/>
       <use x="63.623047" xlink:href="#DejaVuSans-46"/>
       <use x="95.410156" xlink:href="#DejaVuSans-57"/>
       <use x="159.033203" xlink:href="#DejaVuSans-52"/>
      </g>
     </g>
    </g>
    <g id="ytick_8">
     <g id="line2d_27">
      <path clip-path="url(#pc5508fcd4d)" d="M 50.14375 51.769219 
L 719.74375 51.769219 
" style="fill:none;stroke:#b0b0b0;stroke-linecap:square;stroke-width:0.8;"/>
     </g>
     <g id="line2d_28">
      <g>
       <use style="stroke:#000000;stroke-width:0.8;" x="50.14375" xlink:href="#m1127601237" y="51.769219"/>
      </g>
     </g>
     <g id="text_15">
      <!-- 0.96 -->
      <g transform="translate(20.878125 55.568437)scale(0.1 -0.1)">
       <use xlink:href="#DejaVuSans-48"/>
       <use x="63.623047" xlink:href="#DejaVuSans-46"/>
       <use x="95.410156" xlink:href="#DejaVuSans-57"/>
       <use x="159.033203" xlink:href="#DejaVuSans-54"/>
      </g>
     </g>
    </g>
    <g id="ytick_9">
     <g id="line2d_29">
      <path clip-path="url(#pc5508fcd4d)" d="M 50.14375 10.999219 
L 719.74375 10.999219 
" style="fill:none;stroke:#b0b0b0;stroke-linecap:square;stroke-width:0.8;"/>
     </g>
     <g id="line2d_30">
      <g>
       <use style="stroke:#000000;stroke-width:0.8;" x="50.14375" xlink:href="#m1127601237" y="10.999219"/>
      </g>
     </g>
     <g id="text_16">
      <!-- 0.98 -->
      <g transform="translate(20.878125 14.798437)scale(0.1 -0.1)">
       <use xlink:href="#DejaVuSans-48"/>
       <use x="63.623047" xlink:href="#DejaVuSans-46"/>
       <use x="95.410156" xlink:href="#DejaVuSans-57"/>
       <use x="159.033203" xlink:href="#DejaVuSans-56"/>
      </g>
     </g>
    </g>
    <g id="text_17">
     <!-- Accuracy -->
     <defs>
      <path d="M 34.1875 63.1875 
L 20.796875 26.90625 
L 47.609375 26.90625 
z
M 28.609375 72.90625 
L 39.796875 72.90625 
L 67.578125 0 
L 57.328125 0 
L 50.6875 18.703125 
L 17.828125 18.703125 
L 11.1875 0 
L 0.78125 0 
z
" id="DejaVuSans-65"/>
      <path d="M 8.5 21.578125 
L 8.5 54.6875 
L 17.484375 54.6875 
L 17.484375 21.921875 
Q 17.484375 14.15625 20.5 10.265625 
Q 23.53125 6.390625 29.59375 6.390625 
Q 36.859375 6.390625 41.078125 11.03125 
Q 45.3125 15.671875 45.3125 23.6875 
L 45.3125 54.6875 
L 54.296875 54.6875 
L 54.296875 0 
L 45.3125 0 
L 45.3125 8.40625 
Q 42.046875 3.421875 37.71875 1 
Q 33.40625 -1.421875 27.6875 -1.421875 
Q 18.265625 -1.421875 13.375 4.4375 
Q 8.5 10.296875 8.5 21.578125 
z
M 31.109375 56 
z
" id="DejaVuSans-117"/>
      <path d="M 41.109375 46.296875 
Q 39.59375 47.171875 37.8125 47.578125 
Q 36.03125 48 33.890625 48 
Q 26.265625 48 22.1875 43.046875 
Q 18.109375 38.09375 18.109375 28.8125 
L 18.109375 0 
L 9.078125 0 
L 9.078125 54.6875 
L 18.109375 54.6875 
L 18.109375 46.1875 
Q 20.953125 51.171875 25.484375 53.578125 
Q 30.03125 56 36.53125 56 
Q 37.453125 56 38.578125 55.875 
Q 39.703125 55.765625 41.0625 55.515625 
z
" id="DejaVuSans-114"/>
      <path d="M 34.28125 27.484375 
Q 23.390625 27.484375 19.1875 25 
Q 14.984375 22.515625 14.984375 16.5 
Q 14.984375 11.71875 18.140625 8.90625 
Q 21.296875 6.109375 26.703125 6.109375 
Q 34.1875 6.109375 38.703125 11.40625 
Q 43.21875 16.703125 43.21875 25.484375 
L 43.21875 27.484375 
z
M 52.203125 31.203125 
L 52.203125 0 
L 43.21875 0 
L 43.21875 8.296875 
Q 40.140625 3.328125 35.546875 0.953125 
Q 30.953125 -1.421875 24.3125 -1.421875 
Q 15.921875 -1.421875 10.953125 3.296875 
Q 6 8.015625 6 15.921875 
Q 6 25.140625 12.171875 29.828125 
Q 18.359375 34.515625 30.609375 34.515625 
L 43.21875 34.515625 
L 43.21875 35.40625 
Q 43.21875 41.609375 39.140625 45 
Q 35.0625 48.390625 27.6875 48.390625 
Q 23 48.390625 18.546875 47.265625 
Q 14.109375 46.140625 10.015625 43.890625 
L 10.015625 52.203125 
Q 14.9375 54.109375 19.578125 55.046875 
Q 24.21875 56 28.609375 56 
Q 40.484375 56 46.34375 49.84375 
Q 52.203125 43.703125 52.203125 31.203125 
z
" id="DejaVuSans-97"/>
      <path d="M 32.171875 -5.078125 
Q 28.375 -14.84375 24.75 -17.8125 
Q 21.140625 -20.796875 15.09375 -20.796875 
L 7.90625 -20.796875 
L 7.90625 -13.28125 
L 13.1875 -13.28125 
Q 16.890625 -13.28125 18.9375 -11.515625 
Q 21 -9.765625 23.484375 -3.21875 
L 25.09375 0.875 
L 2.984375 54.6875 
L 12.5 54.6875 
L 29.59375 11.921875 
L 46.6875 54.6875 
L 56.203125 54.6875 
z
" id="DejaVuSans-121"/>
     </defs>
     <g transform="translate(14.798438 196.994062)rotate(-90)scale(0.1 -0.1)">
      <use xlink:href="#DejaVuSans-65"/>
      <use x="68.392578" xlink:href="#DejaVuSans-99"/>
      <use x="123.373047" xlink:href="#DejaVuSans-99"/>
      <use x="178.353516" xlink:href="#DejaVuSans-117"/>
      <use x="241.732422" xlink:href="#DejaVuSans-114"/>
      <use x="282.845703" xlink:href="#DejaVuSans-97"/>
      <use x="344.125" xlink:href="#DejaVuSans-99"/>
      <use x="399.105469" xlink:href="#DejaVuSans-121"/>
     </g>
    </g>
   </g>
   <g id="line2d_31">
    <path clip-path="url(#pc5508fcd4d)" d="M 77.376984 375.715469 
L 79.480004 364.300604 
L 82.030983 351.676401 
L 84.581961 340.23308 
L 87.13294 329.81546 
L 89.683919 320.268362 
L 92.872642 309.33067 
L 96.061365 299.350421 
L 99.250088 290.255891 
L 102.438812 281.97785 
L 105.627535 274.44707 
L 108.816258 267.59432 
L 112.004981 261.350372 
L 115.193705 255.645996 
L 118.382428 250.411963 
L 121.571151 245.579044 
L 125.397619 240.211536 
L 129.861832 234.393878 
L 134.963789 228.128362 
L 140.065746 222.201588 
L 145.167704 216.596634 
L 150.269661 211.29666 
L 155.371618 206.284829 
L 161.11132 200.969976 
L 166.851022 195.97452 
L 172.590724 191.274487 
L 178.330426 186.845903 
L 184.707872 182.214462 
L 191.085319 177.855661 
L 198.10051 173.336627 
L 205.753446 168.686198 
L 214.044126 163.914169 
L 222.972551 159.038338 
L 231.900977 154.422185 
L 240.829402 150.053902 
L 249.757827 145.921681 
L 259.323997 141.742842 
L 268.890166 137.806914 
L 279.094081 133.859969 
L 289.297995 130.155253 
L 300.139655 126.464687 
L 310.981314 123.006536 
L 322.460717 119.574792 
L 334.577866 116.181627 
L 347.970504 112.67025 
L 362.638631 109.066625 
L 379.219992 105.235977 
L 396.439097 101.492668 
L 413.658203 97.976951 
L 431.515053 94.559908 
L 450.009648 91.253862 
L 468.504243 88.17176 
L 487.636583 85.20485 
L 507.406667 82.360151 
L 528.452241 79.560785 
L 550.135559 76.903104 
L 573.094367 74.316021 
L 597.328664 71.810772 
L 623.476194 69.333621 
L 652.174704 66.840966 
L 685.337426 64.191933 
L 687.888405 63.996376 
L 687.888405 63.996376 
" style="fill:none;stroke:#377eb8;stroke-linecap:square;stroke-width:2;"/>
   </g>
   <g id="line2d_32">
    <path clip-path="url(#pc5508fcd4d)" d="M 66.860289 375.715469 
L 68.0006 364.108884 
L 69.27609 354.129094 
L 70.551579 346.131141 
L 73.102558 332.192385 
L 75.653536 319.376026 
L 78.204515 307.592765 
L 80.755493 296.776668 
L 83.306472 286.861802 
L 85.857451 277.782231 
L 88.408429 269.472023 
L 90.959408 261.865243 
L 93.510387 254.900786 
L 96.061365 248.536859 
L 98.612344 242.736495 
L 101.163322 237.462731 
L 103.714301 232.678601 
L 106.26528 228.34714 
L 108.816258 224.431383 
L 111.367237 220.894365 
L 113.918215 217.69912 
L 116.469194 214.808684 
L 119.657917 211.567963 
L 122.846641 208.67355 
L 126.673109 205.555727 
L 131.137321 202.250801 
L 136.239278 198.73642 
L 141.341236 195.465471 
L 147.080937 192.060347 
L 152.820639 188.928147 
L 158.560341 186.05025 
L 164.300043 183.408039 
L 170.67749 180.726023 
L 177.054936 178.28645 
L 184.070127 175.852458 
L 191.085319 173.646923 
L 198.738255 171.461492 
L 207.66668 169.145442 
L 217.870594 166.727312 
L 228.712253 164.384317 
L 240.191657 162.14204 
L 251.671061 160.128798 
L 263.788209 158.23381 
L 276.543102 156.473261 
L 289.93574 154.858629 
L 303.966122 153.395826 
L 319.271994 152.031808 
L 335.853355 150.782554 
L 354.985695 149.572443 
L 378.582247 148.312884 
L 406.643012 147.036994 
L 437.254755 145.87324 
L 471.692967 144.792617 
L 513.146369 143.723038 
L 582.660537 142.195462 
L 643.246279 140.773284 
L 682.148703 139.640094 
L 687.888405 139.451106 
L 687.888405 139.451106 
" style="fill:none;stroke:#4daf4a;stroke-linecap:square;stroke-width:2;"/>
   </g>
   <g id="line2d_33">
    <path clip-path="url(#pc5508fcd4d)" d="M 77.163166 375.715469 
L 77.56677 370.845386 
L 78.842259 362.640459 
L 79.480004 361.621161 
L 80.755493 356.372064 
L 81.393238 346.077632 
L 82.668727 348.065195 
L 83.306472 338.280351 
L 83.944217 334.305346 
L 84.581961 337.464938 
L 85.219706 331.910136 
L 85.857451 332.368692 
L 86.495195 327.374389 
L 87.13294 329.412863 
L 87.770685 322.380086 
L 88.408429 324.163766 
L 89.046174 317.334751 
L 89.683919 319.118552 
L 90.321663 314.378922 
L 90.959408 319.577109 
L 91.597153 311.983712 
L 92.234897 309.843296 
L 92.872642 309.537592 
L 93.510387 307.804822 
L 94.148131 303.320107 
L 94.785876 304.390315 
L 95.42362 304.594199 
L 96.061365 299.650806 
L 96.69911 300.262336 
L 97.336854 294.146915 
L 97.974599 291.802615 
L 98.612344 290.681376 
L 99.250088 285.126453 
L 99.887833 289.611168 
L 100.525578 290.477613 
L 101.163322 283.495746 
L 101.801067 285.024632 
L 102.438812 282.068803 
L 103.076556 280.947563 
L 103.714301 280.488885 
L 104.352046 287.26699 
L 104.98979 276.309996 
L 105.627535 274.475284 
L 106.26528 271.825281 
L 106.903024 271.570487 
L 107.540769 272.742636 
L 108.178514 266.066474 
L 108.816258 271.978133 
L 109.454003 266.42321 
L 110.091748 263.824238 
L 110.729492 260.256757 
L 111.367237 264.690562 
L 112.004981 262.753908 
L 112.642726 265.556886 
L 113.280471 259.900021 
L 113.918215 263.212586 
L 114.55596 262.142379 
L 115.193705 259.033697 
L 115.831449 259.084729 
L 116.469194 252.255714 
L 117.106939 249.350795 
L 117.744683 254.192246 
L 118.382428 255.873984 
L 119.020173 248.892117 
L 119.657917 250.166209 
L 120.295662 254.39613 
L 120.933407 245.528641 
L 121.571151 248.943149 
L 122.208896 245.019053 
L 122.846641 244.968021 
L 123.484385 247.414263 
L 124.12213 239.668014 
L 124.759875 240.891074 
L 125.397619 240.432396 
L 126.035364 234.214911 
L 126.673109 235.285241 
L 127.310853 237.782392 
L 127.948598 235.794829 
L 129.224087 233.654413 
L 129.861832 236.610243 
L 130.499576 233.654413 
L 131.137321 232.940941 
L 131.775066 232.482263 
L 132.41281 228.812962 
L 133.050555 232.838999 
L 133.6883 227.53887 
L 134.326044 225.806101 
L 134.963789 227.691722 
L 135.601534 228.914904 
L 136.239278 229.526434 
L 136.877023 225.041719 
L 137.514768 225.500397 
L 138.152512 224.786925 
L 138.790257 223.563865 
L 139.428002 226.876309 
L 140.065746 221.780064 
L 140.703491 223.665685 
L 141.97898 218.926176 
L 142.616725 214.849228 
L 143.25447 215.817494 
L 143.892214 217.499232 
L 144.529959 224.277337 
L 145.167704 215.155054 
L 145.805448 215.970347 
L 146.443193 212.352077 
L 147.080937 212.912697 
L 148.356427 215.205964 
L 148.994171 205.777856 
L 149.631916 209.752983 
L 150.269661 209.345216 
L 150.907405 209.600131 
L 151.54515 210.211661 
L 152.182895 207.816451 
L 152.820639 214.441461 
L 153.458384 207.459716 
L 154.096129 211.383811 
L 154.733873 203.841324 
L 155.371618 205.472152 
L 156.009363 200.426817 
L 156.647107 205.064384 
L 157.284852 204.452854 
L 157.922597 203.58653 
L 158.560341 201.089379 
L 159.198086 206.746122 
L 159.835831 197.62384 
L 160.473575 193.954538 
L 161.11132 198.694048 
L 161.749065 205.726946 
L 162.386809 199.254667 
L 163.024554 197.165283 
L 164.300043 199.203757 
L 164.937788 195.636398 
L 165.575532 201.802851 
L 166.213277 198.999873 
L 166.851022 194.769952 
L 167.488766 195.330572 
L 168.126511 192.986272 
L 168.764256 196.553632 
L 169.402 190.489121 
L 170.039745 193.597802 
L 170.67749 193.44495 
L 171.315234 192.425774 
L 171.952979 190.693005 
L 172.590724 191.304535 
L 173.228468 190.947799 
L 173.866213 190.387179 
L 174.503958 193.648834 
L 175.141702 189.113209 
L 175.779447 186.361142 
L 176.417192 185.443907 
L 177.054936 190.743915 
L 177.692681 190.438211 
L 178.330426 188.756473 
L 178.96817 187.584323 
L 179.605915 189.979533 
L 180.24366 190.540153 
L 180.881404 184.98523 
L 181.519149 187.533291 
L 182.156893 188.756473 
L 182.794638 183.762048 
L 183.432383 183.303492 
L 184.070127 182.233162 
L 184.707872 179.073571 
L 185.345617 179.430307 
L 185.983361 182.997666 
L 186.621106 180.755308 
L 187.258851 178.920597 
L 187.896595 176.678361 
L 188.53434 179.073571 
L 189.172085 174.028236 
L 189.809829 174.792739 
L 190.447574 182.64093 
L 191.085319 179.022539 
L 191.723063 176.372535 
L 192.360808 175.964889 
L 192.998553 174.996502 
L 193.636297 181.978368 
L 194.274042 174.945591 
L 194.911787 176.372535 
L 195.549531 173.620589 
L 196.187276 172.49935 
L 196.825021 174.690797 
L 197.462765 172.703234 
L 198.10051 174.639766 
L 198.738255 173.6715 
L 199.375999 173.620589 
L 200.013744 173.875384 
L 200.651488 168.218519 
L 201.289233 170.05323 
L 201.926978 170.970464 
L 202.564722 169.951288 
L 203.202467 172.244556 
L 203.840212 169.237816 
L 204.477956 167.097401 
L 205.115701 166.383929 
L 205.753446 166.485749 
L 206.39119 165.619425 
L 207.028935 169.900256 
L 207.66668 170.10414 
L 208.304424 168.473313 
L 208.942169 169.594552 
L 209.579914 164.141571 
L 210.217658 166.230955 
L 210.855403 167.505047 
L 211.493148 163.886777 
L 212.130892 164.804011 
L 212.768637 161.797272 
L 213.406382 163.224215 
L 214.044126 165.466573 
L 214.681871 166.995459 
L 215.319616 166.027193 
L 215.95736 159.554914 
L 216.595105 159.249088 
L 217.232849 165.211779 
L 217.870594 163.682893 
L 218.508339 162.459712 
L 219.783828 161.848182 
L 220.421573 162.30686 
L 221.059317 157.159704 
L 221.697062 159.045326 
L 222.334807 155.579787 
L 222.972551 156.802968 
L 223.610296 160.52318 
L 224.248041 158.229912 
L 224.885785 158.68859 
L 226.161275 155.936523 
L 226.799019 155.630819 
L 227.436764 156.853879 
L 228.074509 157.261646 
L 228.712253 154.356727 
L 229.349998 154.662553 
L 229.987743 153.439371 
L 230.625487 157.210615 
L 231.263232 151.757633 
L 231.900977 154.254785 
L 232.538721 154.101933 
L 233.176466 155.324993 
L 233.81421 150.94222 
L 234.451955 151.910486 
L 235.0897 147.833538 
L 235.727444 149.872012 
L 236.365189 152.420195 
L 237.002934 148.648952 
L 237.640678 150.126806 
L 238.278423 149.15854 
L 238.916168 150.687426 
L 239.553912 150.993251 
L 240.191657 154.917347 
L 240.829402 150.94222 
L 241.467146 152.165401 
L 242.104891 146.049858 
L 242.742636 148.648952 
L 243.38038 153.694165 
L 244.018125 149.973954 
L 245.293614 146.967214 
L 245.931359 144.97965 
L 246.569104 145.795064 
L 247.206848 148.139364 
L 247.844593 142.635351 
L 248.482338 144.317089 
L 249.120082 147.731596 
L 249.757827 141.412291 
L 250.395572 147.833538 
L 251.033316 147.32395 
L 251.671061 146.508536 
L 252.308805 147.222008 
L 252.94655 144.928619 
L 254.222039 142.074731 
L 254.859784 145.744033 
L 255.497529 140.902581 
L 256.135273 144.826798 
L 256.773018 147.120066 
L 257.410763 140.444025 
L 258.048507 141.310349 
L 258.686252 141.463201 
L 259.323997 143.909443 
L 259.961741 141.514233 
L 260.599486 137.946752 
L 261.237231 142.686261 
L 261.874975 142.278615 
L 262.51272 143.960353 
L 263.150465 139.271875 
L 263.788209 140.596877 
L 264.425954 140.494935 
L 265.063699 139.730553 
L 265.701443 139.781463 
L 266.339188 139.220844 
L 266.976933 135.296748 
L 267.614677 140.800761 
L 268.252422 137.895842 
L 268.890166 134.328482 
L 269.527911 136.061252 
L 270.165656 136.417988 
L 270.8034 135.194806 
L 271.441145 132.697655 
L 272.07889 135.500632 
L 272.716634 140.18911 
L 273.354379 132.391951 
L 273.992124 134.430424 
L 274.629868 134.990923 
L 275.267613 132.952449 
L 275.905358 138.96605 
L 276.543102 134.78716 
L 277.180847 138.303488 
L 277.818592 134.481334 
L 278.456336 135.602574 
L 279.094081 131.168769 
L 279.731826 132.646745 
L 280.36957 136.519808 
L 281.007315 133.716952 
L 281.64506 129.385089 
L 282.282804 133.665921 
L 282.920549 132.646745 
L 283.558294 134.379393 
L 284.196038 133.563979 
L 284.833783 131.474595 
L 286.109272 130.812033 
L 286.747017 131.117859 
L 288.022506 133.61501 
L 288.660251 130.863065 
L 289.297995 128.977443 
L 289.93574 129.741825 
L 290.573485 125.25711 
L 291.211229 130.047651 
L 291.848974 127.448557 
L 292.486719 131.015917 
L 293.124463 127.448557 
L 293.762208 127.193763 
L 294.399953 131.219801 
L 295.037697 127.652441 
L 295.675442 126.174466 
L 296.313187 125.155168 
L 296.950931 128.21294 
L 297.588676 125.86864 
L 298.226421 130.557239 
L 298.864165 123.065784 
L 299.50191 130.455297 
L 300.139655 126.123556 
L 300.777399 131.270711 
L 301.415144 125.664878 
L 302.052889 125.104258 
L 302.690633 123.881198 
L 303.328378 123.881198 
L 303.966122 127.907235 
L 304.603867 125.970582 
L 305.241612 129.028353 
L 305.879356 124.390786 
L 306.517101 123.932108 
L 307.154846 126.582112 
L 307.79259 122.607106 
L 308.430335 126.174466 
L 309.06808 121.740782 
L 309.705824 122.709048 
L 310.343569 122.81099 
L 310.981314 127.142732 
L 311.619058 123.065784 
L 312.256803 127.244674 
L 312.894548 122.403223 
L 313.532292 124.339876 
L 314.170037 125.664878 
L 314.807782 123.371488 
L 315.445526 120.568633 
L 316.083271 124.186902 
L 316.721016 123.677314 
L 317.35876 121.63884 
L 317.996505 122.148429 
L 318.63425 119.192599 
L 319.271994 121.384046 
L 319.909739 125.511904 
L 320.547484 123.218636 
L 321.185228 118.733921 
L 321.822973 119.090657 
L 322.460717 118.224333 
L 323.098462 119.702187 
L 323.736207 120.874337 
L 324.373951 123.116694 
L 325.011696 121.180163 
L 325.649441 115.06462 
L 326.287185 120.008013 
L 326.92493 119.549335 
L 327.562675 120.211897 
L 328.200419 118.122391 
L 328.838164 118.733921 
L 329.475909 112.6185 
L 330.113653 121.740782 
L 330.751398 122.8619 
L 331.389143 113.433792 
L 332.026887 117.358009 
L 332.664632 116.950241 
L 333.302377 117.867597 
L 333.940121 119.141689 
L 334.577866 117.45983 
L 335.215611 111.599202 
L 335.853355 117.001273 
L 336.4911 110.630936 
L 337.128845 115.166562 
L 337.766589 111.089614 
L 338.404334 117.103094 
L 339.042078 110.2742 
L 339.679823 111.191435 
L 340.317568 114.911768 
L 340.955312 116.083917 
L 341.593057 111.905028 
L 342.230802 114.198296 
L 343.506291 112.363584 
L 344.144036 118.020449 
L 344.78178 111.599202 
L 345.419525 114.605942 
L 346.05727 113.382882 
L 347.332759 113.28094 
L 347.970504 110.936641 
L 348.608248 111.599202 
L 349.245993 113.790528 
L 349.883738 109.051019 
L 350.521482 112.567468 
L 351.159227 113.535734 
L 351.796972 112.975236 
L 352.434716 115.67615 
L 353.072461 112.414616 
L 353.710206 113.128088 
L 354.34795 110.019406 
L 354.985695 110.223169 
L 355.62344 110.2742 
L 356.261184 111.344408 
L 356.898929 106.299073 
L 357.536673 109.102051 
L 358.174418 110.2742 
L 358.812163 108.592463 
L 359.449907 113.077056 
L 360.087652 110.936641 
L 360.725397 113.535734 
L 361.363141 110.630936 
L 362.000886 112.516558 
L 362.638631 109.000109 
L 363.276375 107.471223 
L 363.91412 106.350105 
L 364.551865 109.611639 
L 365.189609 106.09519 
L 365.827354 107.522133 
L 366.465099 106.910603 
L 367.102843 108.235727 
L 367.740588 112.414616 
L 368.378333 108.898167 
L 369.016077 106.299073 
L 369.653822 107.573165 
L 370.291567 102.884566 
L 370.929311 108.031843 
L 371.567056 102.935598 
L 372.204801 104.515394 
L 372.842545 104.668246 
L 373.48029 103.64907 
L 374.118034 107.624075 
L 374.755779 103.64907 
L 375.393524 104.566425 
L 376.031268 106.706841 
L 376.669013 110.2742 
L 377.306758 102.935598 
L 378.582247 109.407755 
L 379.219992 103.751012 
L 379.857736 101.559564 
L 380.495481 102.986508 
L 381.133226 103.903864 
L 381.77097 106.808661 
L 382.408715 105.891427 
L 383.04646 103.13936 
L 383.684204 106.808661 
L 384.321949 102.986508 
L 384.959694 105.789485 
L 385.597438 102.935598 
L 386.235183 105.076013 
L 386.872928 105.279897 
L 387.510672 100.030678 
L 388.148417 103.190392 
L 388.786162 102.52783 
L 389.423906 103.190392 
L 390.061651 101.9163 
L 390.699396 105.585601 
L 391.33714 101.406712 
L 391.974885 99.928737 
L 392.612629 102.018242 
L 393.250374 101.151918 
L 393.888119 103.64907 
L 394.525863 104.923161 
L 395.163608 101.610596 
L 395.801353 97.329643 
L 396.439097 102.120184 
L 397.076842 101.661506 
L 397.714587 101.35568 
L 398.352331 105.279897 
L 398.990076 98.756587 
L 399.627821 103.903864 
L 400.265565 99.215265 
L 400.90331 102.578862 
L 402.178799 99.52109 
L 402.816544 99.877826 
L 403.454289 99.623032 
L 404.092033 96.463319 
L 404.729778 100.438446 
L 405.367523 96.514351 
L 406.005267 98.756587 
L 406.643012 99.572001 
L 407.280757 97.278733 
L 407.918501 97.176791 
L 408.556246 96.463319 
L 409.19399 101.661506 
L 409.831735 101.30477 
L 410.46948 99.673943 
L 411.107224 102.171094 
L 411.744969 101.508654 
L 412.382714 96.616171 
L 413.020458 93.354637 
L 413.658203 96.463319 
L 414.933692 98.807618 
L 415.571437 100.540388 
L 416.209182 95.087285 
L 416.846926 99.52109 
L 417.484671 96.972907 
L 418.122416 99.368238 
L 418.76016 96.106583 
L 419.397905 97.176791 
L 420.03565 95.138317 
L 420.673394 95.444021 
L 421.311139 94.373814 
L 421.948884 98.29803 
L 422.586628 97.890263 
L 423.224373 98.552824 
L 423.862118 94.832491 
L 424.499862 93.609431 
L 425.137607 96.004641 
L 425.775352 93.609431 
L 426.413096 94.373814 
L 427.050841 96.514351 
L 427.688585 96.106583 
L 428.32633 88.15645 
L 428.964075 93.609431 
L 429.601819 93.813315 
L 430.239564 96.667203 
L 430.877309 93.966167 
L 431.515053 89.37951 
L 432.152798 94.220961 
L 432.790543 96.921997 
L 433.428287 96.055673 
L 434.066032 92.539224 
L 434.703777 93.048812 
L 435.341521 96.667203 
L 435.979266 96.412409 
L 436.617011 94.170051 
L 437.254755 93.201785 
L 437.8925 97.839353 
L 438.530245 91.265132 
L 439.167989 90.857486 
L 439.805734 92.94687 
L 440.443479 94.068109 
L 441.081223 89.3286 
L 441.718968 89.022774 
L 442.356713 89.736246 
L 442.994457 90.806454 
L 444.269946 93.864225 
L 444.907691 94.781581 
L 445.545436 86.882359 
L 446.18318 95.342201 
L 446.820925 92.488313 
L 447.45867 91.265132 
L 448.096414 90.602692 
L 448.734159 91.570958 
L 449.371904 90.347776 
L 450.009648 93.048812 
L 450.647393 93.50749 
L 451.285138 92.794018 
L 451.922882 91.417984 
L 452.560627 87.239095 
L 453.198372 87.952567 
L 453.836116 87.493889 
L 454.473861 88.76798 
L 455.111606 90.449718 
L 455.74935 87.952567 
L 456.387095 86.984301 
L 457.02484 93.711373 
L 457.662584 94.883523 
L 458.300329 85.557357 
L 458.938074 89.073806 
L 459.575818 90.194924 
L 460.213563 88.462276 
L 460.851308 88.564097 
L 461.489052 88.819012 
L 462.126797 89.88922 
L 462.764541 89.99104 
L 463.402286 86.117977 
L 464.040031 84.640001 
L 464.677775 87.54492 
L 465.31552 88.76798 
L 465.953265 92.94687 
L 466.591009 91.469016 
L 467.228754 93.252695 
L 467.866499 87.391947 
L 468.504243 89.838188 
L 469.141988 89.022774 
L 469.779733 89.787278 
L 470.417477 83.009174 
L 471.055222 87.901656 
L 471.692967 85.455415 
L 472.330711 90.347776 
L 472.968456 86.321739 
L 473.606201 87.901656 
L 474.243945 90.398808 
L 474.88169 89.226658 
L 475.519435 85.047769 
L 476.157179 87.442978 
L 476.794924 87.341037 
L 477.432669 90.144014 
L 478.070413 88.76798 
L 478.708158 87.697773 
L 479.345902 88.003598 
L 479.983647 86.678475 
L 480.621392 88.819012 
L 481.259136 87.952567 
L 481.896881 86.168887 
L 482.534626 88.615128 
L 483.17237 87.188184 
L 483.810115 87.341037 
L 484.44786 86.423681 
L 485.085604 85.710209 
L 485.723349 85.863183 
L 486.361094 88.920832 
L 486.998838 89.88922 
L 487.636583 83.467851 
L 488.274328 82.397644 
L 488.912072 83.365909 
L 489.549817 81.633261 
L 490.187562 83.365909 
L 490.825306 85.659299 
L 491.463051 83.977561 
L 492.100796 84.945827 
L 492.73854 84.945827 
L 493.376285 79.951524 
L 494.01403 85.506447 
L 494.651774 87.850625 
L 495.289519 83.416941 
L 495.927264 87.137153 
L 496.565008 81.786114 
L 497.202753 83.824587 
L 497.840497 81.735203 
L 498.478242 80.206318 
L 499.115987 84.843885 
L 499.753731 83.060205 
L 500.391476 80.868758 
L 501.029221 84.741943 
L 501.666965 80.91979 
L 502.30471 83.111115 
L 502.942455 84.741943 
L 503.580199 80.715906 
L 504.217944 83.213057 
L 504.855689 83.926529 
L 506.131178 80.257228 
L 506.768923 80.053466 
L 507.406667 84.130413 
L 508.044412 78.6264 
L 508.682157 82.397644 
L 509.319901 83.060205 
L 509.957646 86.066945 
L 510.595391 85.761241 
L 511.233135 77.505282 
L 512.508625 83.875619 
L 513.784114 79.849582 
L 514.421858 79.085078 
L 515.059603 79.288962 
L 515.697348 81.072642 
L 516.335092 82.295702 
L 516.972837 81.786114 
L 517.610582 80.715906 
L 518.248326 77.199456 
L 519.523816 81.837145 
L 520.16156 80.053466 
L 520.799305 81.58223 
L 521.43705 77.912928 
L 522.074794 81.837145 
L 522.712539 83.213057 
L 523.350284 82.346733 
L 523.988028 84.385207 
L 525.263518 76.893752 
L 525.901262 76.893752 
L 526.539007 82.550617 
L 527.176752 80.664996 
L 527.814496 79.645698 
L 528.452241 76.587927 
L 529.089986 80.715906 
L 529.72773 78.57549 
L 530.365475 77.760076 
L 531.003219 76.485985 
L 531.640964 78.52458 
L 532.278709 77.811108 
L 532.916453 81.837145 
L 533.554198 80.257228 
L 534.191943 75.262925 
L 534.829687 82.14285 
L 535.467432 74.498543 
L 536.105177 78.01487 
L 537.380666 78.52458 
L 538.018411 77.148546 
L 538.656155 78.932226 
L 539.2939 77.35243 
L 539.931645 79.543756 
L 540.569389 79.238052 
L 541.207134 75.56875 
L 541.844879 76.995694 
L 542.482623 75.466808 
L 543.120368 75.925486 
L 543.758113 77.658134 
L 544.395857 76.129249 
L 545.671347 75.313835 
L 546.946836 78.6264 
L 547.584581 78.932226 
L 548.222325 78.320696 
L 548.86007 76.842721 
L 549.497814 78.728342 
L 550.135559 79.288962 
L 550.773304 80.512022 
L 551.411048 78.983136 
L 552.048793 79.74764 
L 552.686538 77.709166 
L 553.324282 72.459947 
L 553.962027 78.677432 
L 554.599772 73.734039 
L 555.237516 75.823544 
L 555.875261 76.893752 
L 556.513006 76.078338 
L 557.15075 76.995694 
L 557.788495 76.7409 
L 558.42624 78.167844 
L 559.063984 73.581187 
L 559.701729 75.212014 
L 560.339474 75.619661 
L 560.977218 73.581187 
L 561.614963 72.816683 
L 562.890452 77.811108 
L 563.528197 75.110073 
L 564.165942 77.199456 
L 564.803686 74.396601 
L 565.441431 75.772513 
L 566.079175 75.466808 
L 566.71692 74.498543 
L 567.354665 74.957099 
L 567.992409 76.537016 
L 568.630154 76.282222 
L 569.267899 75.670571 
L 569.905643 73.224451 
L 570.543388 71.746475 
L 571.181133 76.537016 
L 571.818877 72.561889 
L 572.456622 73.173419 
L 573.094367 76.384164 
L 573.732111 76.384164 
L 574.369856 77.40334 
L 575.007601 74.498543 
L 575.645345 73.835981 
L 576.28309 77.199456 
L 576.920835 74.651395 
L 577.558579 74.396601 
L 578.196324 75.415777 
L 578.834069 75.925486 
L 579.471813 71.644533 
L 580.109558 71.236887 
L 580.747303 72.205153 
L 581.385047 72.001391 
L 582.022792 72.918625 
L 582.660537 75.364867 
L 583.298281 71.899449 
L 583.936026 74.906189 
L 584.57377 70.727299 
L 585.211515 74.243627 
L 585.84926 69.759033 
L 586.487004 76.485985 
L 587.762494 72.052301 
L 588.400238 74.600363 
L 589.037983 73.377303 
L 589.675728 71.848417 
L 590.313472 70.778209 
L 590.951217 72.103211 
L 591.588962 71.084035 
L 592.226706 72.256185 
L 592.864451 72.816683 
L 593.502196 70.064738 
L 594.13994 72.154243 
L 594.777685 69.504118 
L 595.41543 72.358127 
L 596.053174 72.256185 
L 596.690919 70.370563 
L 597.328664 72.409037 
L 597.966408 72.561889 
L 598.604153 73.020567 
L 599.241898 75.262925 
L 599.879642 66.59932 
L 600.517387 72.867715 
L 601.792876 67.618496 
L 602.430621 73.530155 
L 603.068365 70.064738 
L 603.70611 71.542713 
L 604.343855 70.319532 
L 604.981599 70.727299 
L 605.619344 70.829241 
L 606.257089 70.727299 
L 606.894833 71.287798 
L 607.532578 70.982093 
L 608.170323 68.026264 
L 608.808067 70.727299 
L 609.445812 69.657091 
L 610.083557 69.453208 
L 610.721301 72.001391 
L 611.359046 69.402297 
L 611.996791 69.045561 
L 612.634535 68.230148 
L 613.910025 74.396601 
L 614.547769 70.421474 
L 615.185514 69.198414 
L 615.823259 68.841678 
L 616.461003 66.497378 
L 617.098748 71.644533 
L 617.736493 70.013827 
L 618.374237 67.720438 
L 619.011982 69.045561 
L 619.649726 72.409037 
L 620.287471 70.829241 
L 620.925216 68.383 
L 621.56296 68.94362 
L 622.200705 67.363702 
L 622.83845 72.867715 
L 623.476194 72.867715 
L 624.113939 71.746475 
L 625.389428 68.739736 
L 626.027173 70.880151 
L 626.664918 69.147382 
L 627.302662 69.860854 
L 627.940407 69.351266 
L 628.578152 70.21759 
L 629.215896 65.98779 
L 629.853641 71.236887 
L 630.491386 71.695565 
L 631.12913 67.669528 
L 631.766875 66.0387 
L 632.40462 68.94362 
L 633.042364 65.070434 
L 634.317854 68.892588 
L 634.955598 68.535852 
L 635.593343 69.045561 
L 636.231087 67.15994 
L 636.868832 68.94362 
L 637.506577 69.809944 
L 638.144321 71.185977 
L 638.782066 69.860854 
L 640.057555 68.179116 
L 640.6953 65.580022 
L 641.333045 64.509815 
L 641.970789 65.885848 
L 642.608534 68.026264 
L 643.246279 70.574326 
L 643.884023 68.077174 
L 644.521768 69.198414 
L 645.159513 67.873412 
L 645.797257 70.625357 
L 646.435002 64.968492 
L 647.072747 69.60606 
L 647.710491 66.395436 
L 648.348236 65.732996 
L 648.985981 68.637794 
L 649.623725 68.383 
L 650.26147 64.917582 
L 650.899215 68.790646 
L 651.536959 67.363702 
L 652.174704 62.420431 
L 652.812449 66.854114 
L 653.450193 68.128206 
L 654.087938 66.497378 
L 654.725682 69.504118 
L 655.363427 69.860854 
L 656.001172 65.681964 
L 656.638916 63.490638 
L 657.276661 65.681964 
L 657.914406 66.752172 
L 658.55215 64.356962 
L 659.189895 68.128206 
L 659.82764 67.873412 
L 660.465384 64.102168 
L 661.103129 64.611757 
L 661.740874 63.286755 
L 662.378618 65.121345 
L 663.016363 64.713698 
L 663.654108 67.006966 
L 664.291852 67.26176 
L 664.929597 65.172376 
L 665.567342 66.956056 
L 666.205086 66.956056 
L 666.842831 65.783906 
L 667.480576 68.128206 
L 668.11832 66.905024 
L 668.756065 70.319532 
L 670.031554 64.356962 
L 670.669299 63.745432 
L 671.307043 63.796343 
L 671.944788 68.077174 
L 672.582533 63.337665 
L 673.220277 63.490638 
L 673.858022 62.114605 
L 674.495767 64.866551 
L 675.133511 64.662788 
L 675.771256 63.388697 
L 676.409001 67.873412 
L 677.046745 63.796343 
L 677.68449 65.631054 
L 678.322235 66.140642 
L 678.959979 62.522251 
L 679.597724 65.631054 
L 680.235469 67.21085 
L 680.873213 63.439607 
L 681.510958 62.216547 
L 682.148703 67.77147 
L 682.786447 60.534809 
L 683.424192 63.541549 
L 684.061937 61.248281 
L 684.699681 62.777167 
L 685.337426 60.840513 
L 685.975171 66.242584 
L 686.612915 62.573283 
L 687.25066 66.293494 
L 687.888405 62.777167 
L 687.888405 62.777167 
" style="fill:none;stroke:#377eb8;stroke-linecap:square;stroke-opacity:0.25098;stroke-width:1.5;"/>
   </g>
   <g id="line2d_34">
    <path clip-path="url(#pc5508fcd4d)" d="M 70.02248 375.715469 
L 70.551579 333.1626 
L 71.189324 343.625923 
L 71.827068 336.034956 
L 72.464813 338.291773 
L 73.102558 337.881332 
L 74.378047 317.980545 
L 75.015792 343.010505 
L 75.653536 317.570226 
L 76.291281 304.644988 
L 76.929025 311.620536 
L 77.56677 308.337861 
L 78.204515 310.594677 
L 78.842259 296.438481 
L 79.480004 298.284979 
L 80.117749 308.543081 
L 80.755493 278.589291 
L 81.393238 276.332474 
L 82.030983 292.950707 
L 82.668727 285.15452 
L 83.306472 283.308023 
L 83.944217 259.714241 
L 84.581961 258.278185 
L 85.219706 268.125968 
L 85.857451 275.101516 
L 86.495195 264.432973 
L 87.13294 261.971058 
L 87.770685 270.793104 
L 88.408429 268.946606 
L 89.046174 267.510428 
L 89.683919 260.7401 
L 90.321663 256.021368 
L 90.959408 253.354232 
L 91.597153 285.359619 
L 92.234897 240.839313 
L 92.872642 275.101516 
L 93.510387 244.942506 
L 94.148131 249.045819 
L 94.785876 248.6355 
L 95.42362 240.018675 
L 96.061365 236.32568 
L 96.69911 246.994223 
L 97.336854 244.121867 
L 97.974599 234.479183 
L 98.612344 234.684403 
L 99.250088 244.327087 
L 99.887833 244.942506 
L 100.525578 262.996917 
L 101.163322 226.067578 
L 101.801067 253.149012 
L 102.438812 236.120581 
L 103.076556 232.427587 
L 103.714301 258.072964 
L 104.352046 225.452038 
L 104.98979 246.173463 
L 105.627535 238.172177 
L 106.26528 228.734713 
L 106.903024 222.169484 
L 107.540769 232.427587 
L 108.178514 230.17077 
L 108.816258 219.707447 
L 109.454003 227.093315 
L 110.091748 241.044412 
L 110.729492 224.836498 
L 111.367237 227.503634 
L 112.004981 225.246939 
L 112.642726 220.117766 
L 113.280471 207.602847 
L 113.918215 234.068864 
L 114.55596 225.657258 
L 115.193705 210.475082 
L 115.831449 214.988715 
L 116.469194 229.965671 
L 117.106939 229.145033 
L 117.744683 210.269983 
L 118.382428 215.604255 
L 119.020173 226.272676 
L 119.657917 211.706161 
L 120.933407 202.473796 
L 121.571151 202.063477 
L 122.208896 209.859664 
L 122.846641 196.934426 
L 123.484385 210.269983 
L 124.12213 220.322987 
L 124.759875 200.627299 
L 125.397619 210.269983 
L 126.035364 199.396341 
L 126.673109 202.268576 
L 127.310853 195.087928 
L 127.948598 220.733306 
L 128.586343 210.269983 
L 129.224087 205.75635 
L 130.499576 189.548558 
L 131.137321 200.627299 
L 131.775066 194.26729 
L 132.41281 195.087928 
L 133.050555 192.010473 
L 133.6883 190.163976 
L 134.326044 224.6314 
L 134.963789 191.805253 
L 135.601534 209.654444 
L 136.239278 187.49684 
L 136.877023 203.704754 
L 137.514768 195.703346 
L 138.152512 193.241431 
L 138.790257 180.110972 
L 139.428002 193.856971 
L 140.065746 199.191121 
L 140.703491 202.678895 
L 141.341236 184.214286 
L 141.97898 188.317479 
L 142.616725 187.907159 
L 143.25447 198.370482 
L 143.892214 205.75635 
L 144.529959 193.65175 
L 145.167704 198.370482 
L 145.805448 188.522699 
L 146.443193 192.831112 
L 147.080937 184.009066 
L 147.718682 180.931611 
L 148.356427 182.573009 
L 149.631916 195.703346 
L 150.269661 192.420792 
L 150.907405 187.677395 
L 151.54515 184.419385 
L 152.182895 198.780801 
L 152.820639 191.805253 
L 153.458384 189.548558 
L 154.096129 188.11238 
L 154.733873 183.803967 
L 155.371618 190.984614 
L 156.009363 175.187141 
L 156.647107 202.268576 
L 157.284852 188.11238 
L 159.198086 177.649057 
L 159.835831 193.856971 
L 160.473575 184.419385 
L 161.11132 171.083828 
L 161.749065 195.703346 
L 162.386809 188.317479 
L 163.024554 175.39224 
L 163.662299 187.291741 
L 164.300043 182.367789 
L 164.937788 184.419385 
L 165.575532 180.931611 
L 166.213277 183.803967 
L 166.851022 183.598747 
L 167.488766 196.524106 
L 168.126511 184.829704 
L 168.764256 190.574295 
L 169.402 187.907159 
L 170.039745 176.212879 
L 170.67749 167.596053 
L 171.315234 192.215572 
L 171.952979 169.23733 
L 172.590724 176.212879 
L 173.228468 199.191121 
L 173.866213 184.624605 
L 174.503958 179.290334 
L 175.141702 166.775415 
L 175.779447 178.880015 
L 176.417192 180.726512 
L 177.054936 167.801274 
L 177.692681 169.23733 
L 178.330426 176.00778 
L 178.96817 184.214286 
L 179.605915 175.39224 
L 180.881404 168.211593 
L 181.519149 189.138239 
L 182.156893 169.85287 
L 182.794638 171.494147 
L 183.432383 168.621912 
L 184.070127 179.700653 
L 184.707872 179.290334 
L 185.345617 175.597461 
L 185.983361 176.00778 
L 186.621106 175.39224 
L 187.258851 175.80256 
L 187.896595 180.726512 
L 188.53434 174.981921 
L 189.172085 172.314785 
L 189.809829 178.469695 
L 190.447574 173.750963 
L 191.085319 181.34193 
L 191.723063 174.366503 
L 192.360808 161.441143 
L 192.998553 183.803967 
L 193.636297 176.00778 
L 194.274042 185.855563 
L 194.911787 169.442551 
L 195.549531 172.314785 
L 196.187276 170.878729 
L 196.825021 172.109686 
L 197.462765 180.316193 
L 198.10051 184.009066 
L 198.738255 174.571602 
L 199.375999 171.904466 
L 200.013744 160.415406 
L 200.651488 183.188427 
L 201.289233 164.928917 
L 201.926978 163.69796 
L 202.564722 172.314785 
L 203.202467 170.673508 
L 203.840212 166.570194 
L 204.477956 163.287641 
L 205.115701 177.443837 
L 205.753446 171.904466 
L 206.39119 163.287641 
L 207.028935 180.726512 
L 207.66668 170.263189 
L 208.304424 165.749556 
L 208.942169 174.776822 
L 209.579914 172.109686 
L 210.217658 177.649057 
L 210.855403 160.005087 
L 211.493148 155.901773 
L 212.130892 167.801274 
L 212.768637 169.647649 
L 213.406382 173.545743 
L 214.044126 165.544457 
L 214.681871 161.646364 
L 215.319616 175.597461 
L 215.95736 172.725105 
L 216.595105 166.570194 
L 217.232849 162.261782 
L 217.870594 172.109686 
L 218.508339 150.97782 
L 219.146083 169.032231 
L 219.783828 165.954776 
L 220.421573 172.725105 
L 221.059317 167.596053 
L 221.697062 158.363688 
L 222.334807 166.775415 
L 222.972551 161.441143 
L 223.610296 159.184327 
L 224.248041 158.774007 
L 224.885785 159.389547 
L 225.52353 173.135424 
L 226.161275 160.825725 
L 226.799019 161.236044 
L 227.436764 165.134138 
L 228.074509 168.211593 
L 228.712253 159.594767 
L 229.349998 161.851462 
L 229.987743 169.032231 
L 230.625487 165.749556 
L 231.263232 169.647649 
L 231.900977 167.801274 
L 232.538721 154.875914 
L 233.176466 163.492861 
L 233.81421 160.005087 
L 234.451955 161.851462 
L 235.0897 167.185734 
L 235.727444 167.185734 
L 236.365189 160.620505 
L 237.002934 165.749556 
L 237.640678 164.313499 
L 238.278423 158.979228 
L 238.916168 161.441143 
L 239.553912 169.23733 
L 240.191657 161.646364 
L 240.829402 168.827011 
L 241.467146 155.081134 
L 242.104891 166.980635 
L 242.742636 162.672101 
L 243.38038 168.416692 
L 244.018125 160.825725 
L 244.65587 160.005087 
L 245.293614 163.90318 
L 245.931359 165.749556 
L 246.569104 161.851462 
L 247.206848 156.312092 
L 247.844593 153.234637 
L 248.482338 155.286233 
L 249.120082 161.030824 
L 250.395572 156.517312 
L 251.033316 150.925574 
L 251.671061 154.875914 
L 252.308805 168.006373 
L 252.94655 160.005087 
L 253.584295 165.954776 
L 254.222039 157.54305 
L 255.497529 147.284947 
L 256.135273 158.979228 
L 256.773018 154.465595 
L 257.410763 157.54305 
L 258.048507 156.927632 
L 258.686252 159.594767 
L 259.323997 155.286233 
L 259.961741 160.210185 
L 260.599486 158.979228 
L 261.237231 166.159875 
L 261.874975 152.619219 
L 262.51272 154.055275 
L 263.150465 166.159875 
L 263.788209 150.772721 
L 264.425954 163.08242 
L 265.063699 152.413998 
L 265.701443 157.13273 
L 266.339188 150.97782 
L 266.976933 157.13273 
L 267.614677 155.696552 
L 268.890166 154.055275 
L 269.527911 154.465595 
L 270.165656 169.032231 
L 270.8034 159.184327 
L 271.441145 154.260496 
L 272.07889 168.827011 
L 272.716634 164.723819 
L 273.354379 154.670815 
L 273.992124 149.336543 
L 274.629868 156.517312 
L 275.267613 146.053989 
L 275.905358 158.158589 
L 276.543102 150.567501 
L 277.180847 149.336543 
L 277.818592 152.003679 
L 278.456336 164.108279 
L 279.094081 155.696552 
L 279.731826 157.54305 
L 280.36957 156.517312 
L 281.007315 147.490046 
L 281.64506 168.827011 
L 282.282804 152.619219 
L 282.920549 161.236044 
L 283.558294 149.952083 
L 284.196038 154.465595 
L 284.833783 149.746863 
L 285.471528 149.336543 
L 286.109272 147.490046 
L 286.747017 157.337951 
L 287.384761 155.491453 
L 288.022506 160.415406 
L 288.660251 152.003679 
L 289.297995 148.515905 
L 289.93574 164.518598 
L 290.573485 160.415406 
L 291.211229 147.079727 
L 291.848974 155.696552 
L 292.486719 148.926224 
L 293.124463 155.286233 
L 293.762208 149.336543 
L 294.399953 157.337951 
L 295.037697 153.029538 
L 295.675442 150.567501 
L 296.313187 158.363688 
L 296.950931 149.541764 
L 297.588676 152.003679 
L 298.226421 153.850177 
L 298.864165 144.617811 
L 299.50191 159.184327 
L 300.139655 147.079727 
L 300.777399 152.619219 
L 301.415144 147.284947 
L 302.052889 162.672101 
L 302.690633 161.851462 
L 303.328378 148.926224 
L 303.966122 140.924817 
L 304.603867 161.646364 
L 305.241612 154.055275 
L 305.879356 158.363688 
L 306.517101 164.108279 
L 307.79259 150.362402 
L 308.430335 156.927632 
L 309.06808 158.158589 
L 309.705824 154.055275 
L 310.343569 161.441143 
L 310.981314 147.284947 
L 311.619058 154.260496 
L 312.256803 151.183041 
L 312.894548 158.979228 
L 313.532292 148.515905 
L 314.170037 162.056683 
L 315.445526 145.43845 
L 316.083271 155.286233 
L 316.721016 150.97782 
L 317.35876 154.260496 
L 317.996505 148.105586 
L 318.63425 148.721125 
L 319.271994 160.210185 
L 320.547484 156.106993 
L 321.185228 149.541764 
L 321.822973 150.157182 
L 322.460717 150.362402 
L 323.098462 152.413998 
L 323.736207 146.874628 
L 324.373951 158.568909 
L 325.011696 155.081134 
L 325.649441 163.287641 
L 326.287185 148.721125 
L 326.92493 155.491453 
L 327.562675 140.104178 
L 328.200419 157.74827 
L 328.838164 153.234637 
L 329.475909 147.284947 
L 330.751398 148.926224 
L 331.389143 158.158589 
L 332.026887 156.517312 
L 332.664632 150.157182 
L 333.302377 151.183041 
L 333.940121 145.64367 
L 334.577866 167.185734 
L 335.215611 156.106993 
L 335.853355 152.824318 
L 336.4911 148.105586 
L 337.766589 155.081134 
L 338.404334 152.619219 
L 339.042078 151.183041 
L 339.679823 144.82291 
L 340.317568 155.286233 
L 340.955312 153.850177 
L 341.593057 148.926224 
L 342.230802 151.183041 
L 342.868546 152.413998 
L 343.506291 149.746863 
L 344.144036 160.005087 
L 344.78178 155.491453 
L 345.419525 153.644956 
L 346.05727 146.259088 
L 346.695014 156.106993 
L 347.332759 154.670815 
L 347.970504 147.900365 
L 348.608248 150.772721 
L 349.245993 149.952083 
L 349.883738 149.541764 
L 350.521482 150.97782 
L 351.159227 155.009082 
L 351.796972 152.824318 
L 352.434716 144.617811 
L 353.072461 147.490046 
L 353.710206 149.336543 
L 354.34795 156.517312 
L 354.985695 146.053989 
L 355.62344 147.284947 
L 356.261184 144.617811 
L 356.898929 153.439857 
L 357.536673 145.848769 
L 358.174418 145.43845 
L 359.449907 153.850177 
L 360.087652 150.567501 
L 360.725397 148.310685 
L 361.363141 149.746863 
L 362.000886 153.850177 
L 362.638631 148.515905 
L 363.276375 147.079727 
L 363.91412 154.260496 
L 364.551865 156.517312 
L 365.189609 145.233351 
L 365.827354 147.490046 
L 366.465099 148.310685 
L 367.102843 155.696552 
L 367.740588 155.901773 
L 368.378333 147.284947 
L 369.016077 149.952083 
L 369.653822 146.053989 
L 370.291567 138.873221 
L 370.929311 154.055275 
L 371.567056 149.336543 
L 372.204801 142.771314 
L 372.842545 146.259088 
L 373.48029 154.670815 
L 374.118034 152.003679 
L 374.755779 143.181633 
L 375.393524 151.798459 
L 376.031268 153.644956 
L 376.669013 144.002272 
L 377.306758 155.696552 
L 377.944502 141.950676 
L 378.582247 149.541764 
L 379.219992 141.950676 
L 379.857736 144.002272 
L 380.495481 149.131445 
L 381.133226 155.491453 
L 381.77097 143.386854 
L 382.408715 152.208778 
L 383.04646 146.669408 
L 383.684204 142.566215 
L 384.321949 146.259088 
L 384.959694 140.514497 
L 385.597438 149.336543 
L 386.235183 149.131445 
L 386.872928 153.234637 
L 387.510672 143.181633 
L 388.148417 147.490046 
L 388.786162 144.617811 
L 389.423906 154.875914 
L 390.061651 143.181633 
L 390.699396 141.335257 
L 391.33714 147.695266 
L 391.974885 152.208778 
L 392.612629 146.874628 
L 393.250374 146.259088 
L 393.888119 150.567501 
L 394.525863 136.206085 
L 395.163608 158.568909 
L 395.801353 144.207492 
L 396.439097 147.284947 
L 397.076842 143.386854 
L 397.714587 147.490046 
L 398.352331 146.874628 
L 398.990076 145.43845 
L 399.627821 149.541764 
L 400.265565 144.207492 
L 400.90331 153.029538 
L 401.541055 152.824318 
L 402.178799 144.82291 
L 402.816544 145.233351 
L 403.454289 148.721125 
L 404.092033 141.950676 
L 404.729778 150.157182 
L 405.367523 143.181633 
L 406.005267 163.69796 
L 406.643012 141.335257 
L 407.280757 152.413998 
L 407.918501 148.310685 
L 408.556246 147.900365 
L 409.19399 146.669408 
L 409.831735 144.207492 
L 410.46948 144.207492 
L 412.382714 146.669408 
L 413.020458 138.668122 
L 413.658203 150.157182 
L 414.295948 135.795765 
L 414.933692 150.362402 
L 415.571437 149.541764 
L 416.209182 145.43845 
L 416.846926 147.079727 
L 417.484671 151.183041 
L 418.122416 146.464309 
L 418.76016 143.591953 
L 419.397905 143.797173 
L 420.03565 147.079727 
L 420.673394 146.669408 
L 421.311139 154.260496 
L 421.948884 139.48876 
L 422.586628 154.055275 
L 423.224373 140.719718 
L 423.862118 142.360995 
L 424.499862 145.43845 
L 425.137607 138.052582 
L 425.775352 141.130037 
L 426.413096 151.183041 
L 427.050841 142.155896 
L 427.688585 155.696552 
L 428.32633 149.541764 
L 428.964075 145.848769 
L 429.601819 147.284947 
L 430.239564 145.028131 
L 430.877309 141.335257 
L 432.152798 153.644956 
L 432.790543 141.130037 
L 433.428287 143.181633 
L 434.066032 155.491453 
L 434.703777 144.617811 
L 435.341521 142.976534 
L 435.979266 145.43845 
L 436.617011 142.771314 
L 437.254755 144.002272 
L 437.8925 140.924817 
L 438.530245 144.412591 
L 439.167989 138.873221 
L 439.805734 147.284947 
L 440.443479 142.976534 
L 441.081223 145.028131 
L 441.718968 144.207492 
L 442.356713 144.002272 
L 442.994457 143.181633 
L 443.632202 141.540356 
L 444.269946 135.795765 
L 444.907691 145.43845 
L 445.545436 143.386854 
L 446.18318 142.771314 
L 446.820925 140.309399 
L 447.45867 141.950676 
L 448.096414 140.309399 
L 448.734159 140.104178 
L 449.371904 143.181633 
L 450.009648 146.874628 
L 450.647393 145.64367 
L 451.285138 139.287549 
L 451.922882 149.952083 
L 452.560627 149.541764 
L 453.198372 143.386854 
L 453.836116 142.976534 
L 454.473861 143.181633 
L 455.111606 144.82291 
L 455.74935 140.924817 
L 456.387095 146.874628 
L 457.02484 146.259088 
L 457.662584 149.541764 
L 458.300329 148.721125 
L 459.575818 143.591953 
L 460.213563 156.312092 
L 460.851308 145.233351 
L 461.489052 141.950676 
L 462.126797 147.284947 
L 462.764541 150.567501 
L 463.402286 154.670815 
L 464.040031 140.924817 
L 464.677775 157.337951 
L 465.31552 147.284947 
L 465.953265 146.053989 
L 466.591009 139.48876 
L 467.228754 141.540356 
L 467.866499 146.874628 
L 468.504243 135.795765 
L 469.141988 148.515905 
L 469.779733 145.028131 
L 470.417477 138.668122 
L 471.055222 152.824318 
L 471.692967 145.43845 
L 472.330711 141.950676 
L 472.968456 149.541764 
L 473.606201 140.309399 
L 474.243945 151.798459 
L 474.88169 136.616404 
L 475.519435 146.464309 
L 476.157179 138.052582 
L 477.432669 147.490046 
L 478.070413 145.028131 
L 478.708158 145.64367 
L 479.345902 147.695266 
L 479.983647 145.64367 
L 480.621392 145.233351 
L 481.259136 142.976534 
L 481.896881 136.616404 
L 482.534626 145.233351 
L 483.17237 140.309399 
L 483.810115 140.514497 
L 484.44786 141.335257 
L 485.085604 155.491453 
L 485.723349 146.053989 
L 486.361094 143.181633 
L 486.998838 143.181633 
L 487.636583 145.64367 
L 488.274328 146.874628 
L 488.912072 152.208778 
L 489.549817 140.104178 
L 490.187562 141.950676 
L 490.825306 137.642263 
L 491.463051 143.386854 
L 492.100796 138.462901 
L 492.73854 137.026723 
L 493.376285 139.899079 
L 494.01403 134.975127 
L 495.289519 141.130037 
L 495.927264 139.693859 
L 496.565008 139.48876 
L 497.202753 140.309399 
L 497.840497 135.795765 
L 498.478242 148.310685 
L 499.115987 138.052582 
L 499.753731 155.901773 
L 500.391476 136.000986 
L 501.029221 140.924817 
L 501.666965 142.976534 
L 502.30471 147.695266 
L 502.942455 137.231944 
L 503.580199 150.362402 
L 504.217944 138.462901 
L 504.855689 147.695266 
L 505.493433 138.873221 
L 506.131178 142.566215 
L 506.768923 133.744169 
L 507.406667 153.850177 
L 508.044412 135.180347 
L 508.682157 138.052582 
L 509.319901 138.668122 
L 509.957646 138.257802 
L 510.595391 141.540356 
L 511.233135 138.052582 
L 511.87088 148.310685 
L 512.508625 142.771314 
L 513.146369 140.104178 
L 513.784114 153.439857 
L 514.421858 138.257802 
L 515.059603 143.386854 
L 515.697348 134.564808 
L 516.335092 145.028131 
L 516.972837 142.360995 
L 517.610582 153.644956 
L 518.248326 147.900365 
L 518.886071 143.591953 
L 519.523816 140.514497 
L 520.799305 143.386854 
L 521.43705 147.490046 
L 522.074794 141.745577 
L 522.712539 151.59336 
L 523.350284 139.48876 
L 523.988028 140.719718 
L 524.625773 145.028131 
L 525.263518 142.566215 
L 525.901262 142.976534 
L 526.539007 140.104178 
L 527.176752 144.207492 
L 527.814496 141.950676 
L 528.452241 143.181633 
L 529.089986 148.721125 
L 529.72773 147.900365 
L 530.365475 142.360995 
L 531.003219 146.464309 
L 531.640964 153.850177 
L 532.278709 141.745577 
L 532.916453 150.157182 
L 533.554198 145.848769 
L 534.191943 144.002272 
L 534.829687 146.874628 
L 535.467432 147.284947 
L 536.105177 147.284947 
L 536.742921 143.386854 
L 537.380666 141.130037 
L 538.018411 145.028131 
L 538.656155 152.619219 
L 539.2939 146.464309 
L 539.931645 142.566215 
L 540.569389 144.207492 
L 541.207134 151.798459 
L 541.844879 140.104178 
L 542.482623 152.413998 
L 543.120368 144.412591 
L 543.758113 146.464309 
L 544.395857 149.336543 
L 545.033602 149.541764 
L 545.671347 154.055275 
L 546.309091 147.284947 
L 546.946836 144.002272 
L 547.584581 144.617811 
L 548.222325 147.490046 
L 548.86007 153.439857 
L 549.497814 145.233351 
L 550.135559 149.952083 
L 550.773304 146.669408 
L 551.411048 143.98356 
L 552.048793 147.695266 
L 552.686538 145.848769 
L 553.324282 146.669408 
L 553.962027 143.181633 
L 554.599772 146.053989 
L 555.237516 142.360995 
L 555.875261 141.335257 
L 557.15075 148.105586 
L 557.788495 145.64367 
L 558.42624 147.900365 
L 559.063984 141.950676 
L 559.701729 141.950676 
L 560.339474 147.284947 
L 560.977218 138.668122 
L 561.614963 142.566215 
L 562.252708 143.797173 
L 562.890452 140.309399 
L 563.528197 153.439857 
L 564.165942 140.514497 
L 564.803686 140.309399 
L 565.441431 141.540356 
L 566.079175 136.206085 
L 566.71692 149.952083 
L 567.992409 138.462901 
L 568.630154 134.770028 
L 569.267899 145.64367 
L 569.905643 138.462901 
L 570.543388 139.28354 
L 571.181133 146.259088 
L 571.818877 141.130037 
L 572.456622 138.668122 
L 573.094367 147.079727 
L 573.732111 145.848769 
L 574.369856 139.48876 
L 575.007601 140.309399 
L 575.645345 144.002272 
L 576.28309 139.078441 
L 576.920835 139.48876 
L 577.558579 140.719718 
L 578.196324 150.157182 
L 578.834069 135.180347 
L 579.471813 147.900365 
L 580.109558 136.206085 
L 580.747303 142.155896 
L 581.385047 140.514497 
L 582.022792 141.950676 
L 582.660537 133.949268 
L 583.298281 148.515905 
L 583.936026 146.053989 
L 584.57377 145.848769 
L 585.211515 138.257802 
L 585.84926 144.002272 
L 586.487004 152.208778 
L 587.124749 136.411305 
L 587.762494 145.233351 
L 588.400238 138.257802 
L 589.675728 150.157182 
L 590.313472 138.257802 
L 590.951217 147.900365 
L 591.588962 144.207492 
L 592.864451 142.360995 
L 593.502196 151.798459 
L 594.13994 139.078441 
L 594.777685 153.029538 
L 595.41543 137.026723 
L 596.053174 143.591953 
L 596.690919 144.207492 
L 597.328664 142.155896 
L 597.966408 138.052582 
L 598.604153 147.695266 
L 599.241898 142.155896 
L 599.879642 141.540356 
L 600.517387 138.052582 
L 601.155131 148.721125 
L 601.792876 138.668122 
L 602.430621 137.847483 
L 603.068365 145.028131 
L 603.70611 135.180347 
L 604.343855 142.566215 
L 604.981599 142.566215 
L 605.619344 143.797173 
L 606.257089 141.335257 
L 606.894833 136.000986 
L 607.532578 135.795765 
L 608.170323 152.003679 
L 608.808067 136.616404 
L 610.083557 143.386854 
L 610.721301 140.514497 
L 611.359046 138.462901 
L 611.996791 130.871935 
L 612.634535 133.744169 
L 613.27228 139.48876 
L 613.910025 120.203391 
L 614.547769 141.950676 
L 615.185514 140.309399 
L 615.823259 132.307991 
L 616.461003 133.12863 
L 617.098748 134.770028 
L 617.736493 138.257802 
L 618.374237 140.719718 
L 619.011982 132.513212 
L 619.649726 140.309399 
L 620.287471 139.078441 
L 620.925216 130.666714 
L 621.56296 139.28354 
L 622.200705 155.901773 
L 622.83845 132.923531 
L 623.476194 145.028131 
L 624.113939 137.847483 
L 624.751684 137.437042 
L 625.389428 142.566215 
L 626.027173 142.360995 
L 626.664918 142.360995 
L 627.302662 136.411305 
L 627.940407 149.336543 
L 628.578152 144.002272 
L 629.215896 136.206085 
L 629.853641 147.284947 
L 630.491386 136.821624 
L 631.12913 145.43845 
L 631.766875 139.899079 
L 632.40462 140.924817 
L 633.042364 142.771314 
L 633.680109 134.975127 
L 634.317854 145.028131 
L 634.955598 139.693859 
L 635.593343 141.745577 
L 636.231087 134.359709 
L 636.868832 133.744169 
L 637.506577 138.462901 
L 638.144321 145.233351 
L 638.782066 140.719718 
L 639.419811 138.257802 
L 640.6953 139.899079 
L 641.333045 143.591953 
L 641.970789 134.154489 
L 642.608534 139.693859 
L 643.246279 137.231944 
L 643.884023 134.154489 
L 644.521768 136.411305 
L 645.159513 146.464309 
L 646.435002 141.540356 
L 647.072747 142.976534 
L 647.710491 140.514497 
L 648.348236 146.259088 
L 648.985981 141.745577 
L 649.623725 144.207492 
L 650.26147 141.540356 
L 650.899215 144.002272 
L 651.536959 138.470799 
L 652.174704 143.181633 
L 652.812449 144.412591 
L 653.450193 143.386854 
L 654.087938 141.540356 
L 654.725682 138.462901 
L 655.363427 142.566215 
L 656.001172 148.926224 
L 656.638916 137.231944 
L 657.276661 139.48876 
L 657.914406 138.873221 
L 658.55215 140.924817 
L 659.189895 144.82291 
L 659.82764 143.181633 
L 660.465384 141.950676 
L 661.103129 136.821624 
L 661.740874 141.745577 
L 662.378618 142.566215 
L 663.016363 140.924817 
L 663.654108 130.461615 
L 664.291852 144.207492 
L 664.929597 138.257802 
L 665.567342 140.104178 
L 666.205086 135.385446 
L 666.842831 136.000986 
L 667.480576 135.590667 
L 668.11832 137.231944 
L 668.756065 138.257802 
L 669.39381 140.924817 
L 670.031554 140.104178 
L 670.669299 145.43845 
L 671.307043 137.026723 
L 671.944788 142.360995 
L 672.582533 134.359709 
L 673.220277 148.310685 
L 674.495767 141.950676 
L 675.133511 140.309399 
L 675.771256 139.693859 
L 676.409001 139.899079 
L 677.046745 153.439857 
L 677.68449 135.590667 
L 678.959979 141.540356 
L 679.597724 131.692573 
L 680.235469 137.231944 
L 680.873213 136.821624 
L 681.510958 142.155896 
L 682.148703 139.28354 
L 682.786447 145.64367 
L 683.424192 137.026723 
L 684.061937 152.619219 
L 684.699681 134.154489 
L 685.337426 145.64367 
L 685.975171 134.154489 
L 686.612915 141.130037 
L 687.25066 137.026723 
L 687.888405 139.078441 
L 687.888405 139.078441 
" style="fill:none;stroke:#4daf4a;stroke-linecap:square;stroke-opacity:0.25098;stroke-width:1.5;"/>
   </g>
   <g id="patch_3">
    <path d="M 50.14375 337.159219 
L 50.14375 10.999219 
" style="fill:none;stroke:#000000;stroke-linecap:square;stroke-linejoin:miter;stroke-width:0.8;"/>
   </g>
   <g id="patch_4">
    <path d="M 719.74375 337.159219 
L 719.74375 10.999219 
" style="fill:none;stroke:#000000;stroke-linecap:square;stroke-linejoin:miter;stroke-width:0.8;"/>
   </g>
   <g id="patch_5">
    <path d="M 50.14375 337.159219 
L 719.74375 337.159219 
" style="fill:none;stroke:#000000;stroke-linecap:square;stroke-linejoin:miter;stroke-width:0.8;"/>
   </g>
   <g id="patch_6">
    <path d="M 50.14375 10.999219 
L 719.74375 10.999219 
" style="fill:none;stroke:#000000;stroke-linecap:square;stroke-linejoin:miter;stroke-width:0.8;"/>
   </g>
   <g id="legend_1">
    <g id="patch_7">
     <path d="M 57.14375 48.355469 
L 114.584375 48.355469 
Q 116.584375 48.355469 116.584375 46.355469 
L 116.584375 17.999219 
Q 116.584375 15.999219 114.584375 15.999219 
L 57.14375 15.999219 
Q 55.14375 15.999219 55.14375 17.999219 
L 55.14375 46.355469 
Q 55.14375 48.355469 57.14375 48.355469 
z
" style="fill:#ffffff;opacity:0.8;stroke:#cccccc;stroke-linejoin:miter;"/>
    </g>
    <g id="line2d_35">
     <path d="M 59.14375 24.097656 
L 79.14375 24.097656 
" style="fill:none;stroke:#377eb8;stroke-linecap:square;stroke-width:2;"/>
    </g>
    <g id="line2d_36"/>
    <g id="text_18">
     <!-- Train -->
     <defs>
      <path d="M -0.296875 72.90625 
L 61.375 72.90625 
L 61.375 64.59375 
L 35.5 64.59375 
L 35.5 0 
L 25.59375 0 
L 25.59375 64.59375 
L -0.296875 64.59375 
z
" id="DejaVuSans-84"/>
      <path d="M 9.421875 54.6875 
L 18.40625 54.6875 
L 18.40625 0 
L 9.421875 0 
z
M 9.421875 75.984375 
L 18.40625 75.984375 
L 18.40625 64.59375 
L 9.421875 64.59375 
z
" id="DejaVuSans-105"/>
      <path d="M 54.890625 33.015625 
L 54.890625 0 
L 45.90625 0 
L 45.90625 32.71875 
Q 45.90625 40.484375 42.875 44.328125 
Q 39.84375 48.1875 33.796875 48.1875 
Q 26.515625 48.1875 22.3125 43.546875 
Q 18.109375 38.921875 18.109375 30.90625 
L 18.109375 0 
L 9.078125 0 
L 9.078125 54.6875 
L 18.109375 54.6875 
L 18.109375 46.1875 
Q 21.34375 51.125 25.703125 53.5625 
Q 30.078125 56 35.796875 56 
Q 45.21875 56 50.046875 50.171875 
Q 54.890625 44.34375 54.890625 33.015625 
z
" id="DejaVuSans-110"/>
     </defs>
     <g transform="translate(87.14375 27.597656)scale(0.1 -0.1)">
      <use xlink:href="#DejaVuSans-84"/>
      <use x="60.865234" xlink:href="#DejaVuSans-114"/>
      <use x="101.978516" xlink:href="#DejaVuSans-97"/>
      <use x="163.257812" xlink:href="#DejaVuSans-105"/>
      <use x="191.041016" xlink:href="#DejaVuSans-110"/>
     </g>
    </g>
    <g id="line2d_37">
     <path d="M 59.14375 38.775781 
L 79.14375 38.775781 
" style="fill:none;stroke:#4daf4a;stroke-linecap:square;stroke-width:2;"/>
    </g>
    <g id="line2d_38"/>
    <g id="text_19">
     <!-- Test -->
     <defs>
      <path d="M 56.203125 29.59375 
L 56.203125 25.203125 
L 14.890625 25.203125 
Q 15.484375 15.921875 20.484375 11.0625 
Q 25.484375 6.203125 34.421875 6.203125 
Q 39.59375 6.203125 44.453125 7.46875 
Q 49.3125 8.734375 54.109375 11.28125 
L 54.109375 2.78125 
Q 49.265625 0.734375 44.1875 -0.34375 
Q 39.109375 -1.421875 33.890625 -1.421875 
Q 20.796875 -1.421875 13.15625 6.1875 
Q 5.515625 13.8125 5.515625 26.8125 
Q 5.515625 40.234375 12.765625 48.109375 
Q 20.015625 56 32.328125 56 
Q 43.359375 56 49.78125 48.890625 
Q 56.203125 41.796875 56.203125 29.59375 
z
M 47.21875 32.234375 
Q 47.125 39.59375 43.09375 43.984375 
Q 39.0625 48.390625 32.421875 48.390625 
Q 24.90625 48.390625 20.390625 44.140625 
Q 15.875 39.890625 15.1875 32.171875 
z
" id="DejaVuSans-101"/>
      <path d="M 44.28125 53.078125 
L 44.28125 44.578125 
Q 40.484375 46.53125 36.375 47.5 
Q 32.28125 48.484375 27.875 48.484375 
Q 21.1875 48.484375 17.84375 46.4375 
Q 14.5 44.390625 14.5 40.28125 
Q 14.5 37.15625 16.890625 35.375 
Q 19.28125 33.59375 26.515625 31.984375 
L 29.59375 31.296875 
Q 39.15625 29.25 43.1875 25.515625 
Q 47.21875 21.78125 47.21875 15.09375 
Q 47.21875 7.46875 41.1875 3.015625 
Q 35.15625 -1.421875 24.609375 -1.421875 
Q 20.21875 -1.421875 15.453125 -0.5625 
Q 10.6875 0.296875 5.421875 2 
L 5.421875 11.28125 
Q 10.40625 8.6875 15.234375 7.390625 
Q 20.0625 6.109375 24.8125 6.109375 
Q 31.15625 6.109375 34.5625 8.28125 
Q 37.984375 10.453125 37.984375 14.40625 
Q 37.984375 18.0625 35.515625 20.015625 
Q 33.0625 21.96875 24.703125 23.78125 
L 21.578125 24.515625 
Q 13.234375 26.265625 9.515625 29.90625 
Q 5.8125 33.546875 5.8125 39.890625 
Q 5.8125 47.609375 11.28125 51.796875 
Q 16.75 56 26.8125 56 
Q 31.78125 56 36.171875 55.265625 
Q 40.578125 54.546875 44.28125 53.078125 
z
" id="DejaVuSans-115"/>
      <path d="M 18.3125 70.21875 
L 18.3125 54.6875 
L 36.8125 54.6875 
L 36.8125 47.703125 
L 18.3125 47.703125 
L 18.3125 18.015625 
Q 18.3125 11.328125 20.140625 9.421875 
Q 21.96875 7.515625 27.59375 7.515625 
L 36.8125 7.515625 
L 36.8125 0 
L 27.59375 0 
Q 17.1875 0 13.234375 3.875 
Q 9.28125 7.765625 9.28125 18.015625 
L 9.28125 47.703125 
L 2.6875 47.703125 
L 2.6875 54.6875 
L 9.28125 54.6875 
L 9.28125 70.21875 
z
" id="DejaVuSans-116"/>
     </defs>
     <g transform="translate(87.14375 42.275781)scale(0.1 -0.1)">
      <use xlink:href="#DejaVuSans-84"/>
      <use x="60.818359" xlink:href="#DejaVuSans-101"/>
      <use x="122.341797" xlink:href="#DejaVuSans-115"/>
      <use x="174.441406" xlink:href="#DejaVuSans-116"/>
     </g>
    </g>
   </g>
  </g>
 </g>
 <defs>
  <clipPath id="pc5508fcd4d">
   <rect height="326.16" width="669.6" x="50.14375" y="10.999219"/>
  </clipPath>
 </defs>
</svg>
