<?xml version="1.0" encoding="utf-8" standalone="no"?>
<!DOCTYPE svg PUBLIC "-//W3C//DTD SVG 1.1//EN"
  "http://www.w3.org/Graphics/SVG/1.1/DTD/svg11.dtd">
<!-- Created with matplotlib (https://matplotlib.org/) -->
<svg height="374.715469pt" version="1.1" viewBox="0 0 726.94375 374.715469" width="726.94375pt" xmlns="http://www.w3.org/2000/svg" xmlns:xlink="http://www.w3.org/1999/xlink">
 <defs>
  <style type="text/css">
*{stroke-linecap:butt;stroke-linejoin:round;white-space:pre;}
  </style>
 </defs>
 <g id="figure_1">
  <g id="patch_1">
   <path d="M 0 374.715469 
L 726.94375 374.715469 
L 726.94375 0 
L 0 0 
z
" style="fill:#ffffff;"/>
  </g>
  <g id="axes_1">
   <g id="patch_2">
    <path d="M 50.14375 337.159219 
L 719.74375 337.159219 
L 719.74375 10.999219 
L 50.14375 10.999219 
z
" style="fill:#ffffff;"/>
   </g>
   <g id="matplotlib.axis_1">
    <g id="xtick_1">
     <g id="line2d_1">
      <path clip-path="url(#p0e636209e5)" d="M 50.14375 337.159219 
L 50.14375 10.999219 
" style="fill:none;stroke:#b0b0b0;stroke-linecap:square;stroke-width:0.8;"/>
     </g>
     <g id="line2d_2">
      <defs>
       <path d="M 0 0 
L 0 3.5 
" id="ma982b3b8e9" style="stroke:#000000;stroke-width:0.8;"/>
      </defs>
      <g>
       <use style="stroke:#000000;stroke-width:0.8;" x="50.14375" xlink:href="#ma982b3b8e9" y="337.159219"/>
      </g>
     </g>
     <g id="text_1">
      <!-- 0 -->
      <defs>
       <path d="M 31.78125 66.40625 
Q 24.171875 66.40625 20.328125 58.90625 
Q 16.5 51.421875 16.5 36.375 
Q 16.5 21.390625 20.328125 13.890625 
Q 24.171875 6.390625 31.78125 6.390625 
Q 39.453125 6.390625 43.28125 13.890625 
Q 47.125 21.390625 47.125 36.375 
Q 47.125 51.421875 43.28125 58.90625 
Q 39.453125 66.40625 31.78125 66.40625 
z
M 31.78125 74.21875 
Q 44.046875 74.21875 50.515625 64.515625 
Q 56.984375 54.828125 56.984375 36.375 
Q 56.984375 17.96875 50.515625 8.265625 
Q 44.046875 -1.421875 31.78125 -1.421875 
Q 19.53125 -1.421875 13.0625 8.265625 
Q 6.59375 17.96875 6.59375 36.375 
Q 6.59375 54.828125 13.0625 64.515625 
Q 19.53125 74.21875 31.78125 74.21875 
z
" id="DejaVuSans-48"/>
      </defs>
      <g transform="translate(46.9625 351.757656)scale(0.1 -0.1)">
       <use xlink:href="#DejaVuSans-48"/>
      </g>
     </g>
    </g>
    <g id="xtick_2">
     <g id="line2d_3">
      <path clip-path="url(#p0e636209e5)" d="M 177.692681 337.159219 
L 177.692681 10.999219 
" style="fill:none;stroke:#b0b0b0;stroke-linecap:square;stroke-width:0.8;"/>
     </g>
     <g id="line2d_4">
      <g>
       <use style="stroke:#000000;stroke-width:0.8;" x="177.692681" xlink:href="#ma982b3b8e9" y="337.159219"/>
      </g>
     </g>
     <g id="text_2">
      <!-- 200 -->
      <defs>
       <path d="M 19.1875 8.296875 
L 53.609375 8.296875 
L 53.609375 0 
L 7.328125 0 
L 7.328125 8.296875 
Q 12.9375 14.109375 22.625 23.890625 
Q 32.328125 33.6875 34.8125 36.53125 
Q 39.546875 41.84375 41.421875 45.53125 
Q 43.3125 49.21875 43.3125 52.78125 
Q 43.3125 58.59375 39.234375 62.25 
Q 35.15625 65.921875 28.609375 65.921875 
Q 23.96875 65.921875 18.8125 64.3125 
Q 13.671875 62.703125 7.8125 59.421875 
L 7.8125 69.390625 
Q 13.765625 71.78125 18.9375 73 
Q 24.125 74.21875 28.421875 74.21875 
Q 39.75 74.21875 46.484375 68.546875 
Q 53.21875 62.890625 53.21875 53.421875 
Q 53.21875 48.921875 51.53125 44.890625 
Q 49.859375 40.875 45.40625 35.40625 
Q 44.1875 33.984375 37.640625 27.21875 
Q 31.109375 20.453125 19.1875 8.296875 
z
" id="DejaVuSans-50"/>
      </defs>
      <g transform="translate(168.148931 351.757656)scale(0.1 -0.1)">
       <use xlink:href="#DejaVuSans-50"/>
       <use x="63.623047" xlink:href="#DejaVuSans-48"/>
       <use x="127.246094" xlink:href="#DejaVuSans-48"/>
      </g>
     </g>
    </g>
    <g id="xtick_3">
     <g id="line2d_5">
      <path clip-path="url(#p0e636209e5)" d="M 305.241612 337.159219 
L 305.241612 10.999219 
" style="fill:none;stroke:#b0b0b0;stroke-linecap:square;stroke-width:0.8;"/>
     </g>
     <g id="line2d_6">
      <g>
       <use style="stroke:#000000;stroke-width:0.8;" x="305.241612" xlink:href="#ma982b3b8e9" y="337.159219"/>
      </g>
     </g>
     <g id="text_3">
      <!-- 400 -->
      <defs>
       <path d="M 37.796875 64.3125 
L 12.890625 25.390625 
L 37.796875 25.390625 
z
M 35.203125 72.90625 
L 47.609375 72.90625 
L 47.609375 25.390625 
L 58.015625 25.390625 
L 58.015625 17.1875 
L 47.609375 17.1875 
L 47.609375 0 
L 37.796875 0 
L 37.796875 17.1875 
L 4.890625 17.1875 
L 4.890625 26.703125 
z
" id="DejaVuSans-52"/>
      </defs>
      <g transform="translate(295.697862 351.757656)scale(0.1 -0.1)">
       <use xlink:href="#DejaVuSans-52"/>
       <use x="63.623047" xlink:href="#DejaVuSans-48"/>
       <use x="127.246094" xlink:href="#DejaVuSans-48"/>
      </g>
     </g>
    </g>
    <g id="xtick_4">
     <g id="line2d_7">
      <path clip-path="url(#p0e636209e5)" d="M 432.790543 337.159219 
L 432.790543 10.999219 
" style="fill:none;stroke:#b0b0b0;stroke-linecap:square;stroke-width:0.8;"/>
     </g>
     <g id="line2d_8">
      <g>
       <use style="stroke:#000000;stroke-width:0.8;" x="432.790543" xlink:href="#ma982b3b8e9" y="337.159219"/>
      </g>
     </g>
     <g id="text_4">
      <!-- 600 -->
      <defs>
       <path d="M 33.015625 40.375 
Q 26.375 40.375 22.484375 35.828125 
Q 18.609375 31.296875 18.609375 23.390625 
Q 18.609375 15.53125 22.484375 10.953125 
Q 26.375 6.390625 33.015625 6.390625 
Q 39.65625 6.390625 43.53125 10.953125 
Q 47.40625 15.53125 47.40625 23.390625 
Q 47.40625 31.296875 43.53125 35.828125 
Q 39.65625 40.375 33.015625 40.375 
z
M 52.59375 71.296875 
L 52.59375 62.3125 
Q 48.875 64.0625 45.09375 64.984375 
Q 41.3125 65.921875 37.59375 65.921875 
Q 27.828125 65.921875 22.671875 59.328125 
Q 17.53125 52.734375 16.796875 39.40625 
Q 19.671875 43.65625 24.015625 45.921875 
Q 28.375 48.1875 33.59375 48.1875 
Q 44.578125 48.1875 50.953125 41.515625 
Q 57.328125 34.859375 57.328125 23.390625 
Q 57.328125 12.15625 50.6875 5.359375 
Q 44.046875 -1.421875 33.015625 -1.421875 
Q 20.359375 -1.421875 13.671875 8.265625 
Q 6.984375 17.96875 6.984375 36.375 
Q 6.984375 53.65625 15.1875 63.9375 
Q 23.390625 74.21875 37.203125 74.21875 
Q 40.921875 74.21875 44.703125 73.484375 
Q 48.484375 72.75 52.59375 71.296875 
z
" id="DejaVuSans-54"/>
      </defs>
      <g transform="translate(423.246793 351.757656)scale(0.1 -0.1)">
       <use xlink:href="#DejaVuSans-54"/>
       <use x="63.623047" xlink:href="#DejaVuSans-48"/>
       <use x="127.246094" xlink:href="#DejaVuSans-48"/>
      </g>
     </g>
    </g>
    <g id="xtick_5">
     <g id="line2d_9">
      <path clip-path="url(#p0e636209e5)" d="M 560.339474 337.159219 
L 560.339474 10.999219 
" style="fill:none;stroke:#b0b0b0;stroke-linecap:square;stroke-width:0.8;"/>
     </g>
     <g id="line2d_10">
      <g>
       <use style="stroke:#000000;stroke-width:0.8;" x="560.339474" xlink:href="#ma982b3b8e9" y="337.159219"/>
      </g>
     </g>
     <g id="text_5">
      <!-- 800 -->
      <defs>
       <path d="M 31.78125 34.625 
Q 24.75 34.625 20.71875 30.859375 
Q 16.703125 27.09375 16.703125 20.515625 
Q 16.703125 13.921875 20.71875 10.15625 
Q 24.75 6.390625 31.78125 6.390625 
Q 38.8125 6.390625 42.859375 10.171875 
Q 46.921875 13.96875 46.921875 20.515625 
Q 46.921875 27.09375 42.890625 30.859375 
Q 38.875 34.625 31.78125 34.625 
z
M 21.921875 38.8125 
Q 15.578125 40.375 12.03125 44.71875 
Q 8.5 49.078125 8.5 55.328125 
Q 8.5 64.0625 14.71875 69.140625 
Q 20.953125 74.21875 31.78125 74.21875 
Q 42.671875 74.21875 48.875 69.140625 
Q 55.078125 64.0625 55.078125 55.328125 
Q 55.078125 49.078125 51.53125 44.71875 
Q 48 40.375 41.703125 38.8125 
Q 48.828125 37.15625 52.796875 32.3125 
Q 56.78125 27.484375 56.78125 20.515625 
Q 56.78125 9.90625 50.3125 4.234375 
Q 43.84375 -1.421875 31.78125 -1.421875 
Q 19.734375 -1.421875 13.25 4.234375 
Q 6.78125 9.90625 6.78125 20.515625 
Q 6.78125 27.484375 10.78125 32.3125 
Q 14.796875 37.15625 21.921875 38.8125 
z
M 18.3125 54.390625 
Q 18.3125 48.734375 21.84375 45.5625 
Q 25.390625 42.390625 31.78125 42.390625 
Q 38.140625 42.390625 41.71875 45.5625 
Q 45.3125 48.734375 45.3125 54.390625 
Q 45.3125 60.0625 41.71875 63.234375 
Q 38.140625 66.40625 31.78125 66.40625 
Q 25.390625 66.40625 21.84375 63.234375 
Q 18.3125 60.0625 18.3125 54.390625 
z
" id="DejaVuSans-56"/>
      </defs>
      <g transform="translate(550.795724 351.757656)scale(0.1 -0.1)">
       <use xlink:href="#DejaVuSans-56"/>
       <use x="63.623047" xlink:href="#DejaVuSans-48"/>
       <use x="127.246094" xlink:href="#DejaVuSans-48"/>
      </g>
     </g>
    </g>
    <g id="xtick_6">
     <g id="line2d_11">
      <path clip-path="url(#p0e636209e5)" d="M 687.888405 337.159219 
L 687.888405 10.999219 
" style="fill:none;stroke:#b0b0b0;stroke-linecap:square;stroke-width:0.8;"/>
     </g>
     <g id="line2d_12">
      <g>
       <use style="stroke:#000000;stroke-width:0.8;" x="687.888405" xlink:href="#ma982b3b8e9" y="337.159219"/>
      </g>
     </g>
     <g id="text_6">
      <!-- 1000 -->
      <defs>
       <path d="M 12.40625 8.296875 
L 28.515625 8.296875 
L 28.515625 63.921875 
L 10.984375 60.40625 
L 10.984375 69.390625 
L 28.421875 72.90625 
L 38.28125 72.90625 
L 38.28125 8.296875 
L 54.390625 8.296875 
L 54.390625 0 
L 12.40625 0 
z
" id="DejaVuSans-49"/>
      </defs>
      <g transform="translate(675.163405 351.757656)scale(0.1 -0.1)">
       <use xlink:href="#DejaVuSans-49"/>
       <use x="63.623047" xlink:href="#DejaVuSans-48"/>
       <use x="127.246094" xlink:href="#DejaVuSans-48"/>
       <use x="190.869141" xlink:href="#DejaVuSans-48"/>
      </g>
     </g>
    </g>
    <g id="text_7">
     <!-- Epoch -->
     <defs>
      <path d="M 9.8125 72.90625 
L 55.90625 72.90625 
L 55.90625 64.59375 
L 19.671875 64.59375 
L 19.671875 43.015625 
L 54.390625 43.015625 
L 54.390625 34.71875 
L 19.671875 34.71875 
L 19.671875 8.296875 
L 56.78125 8.296875 
L 56.78125 0 
L 9.8125 0 
z
" id="DejaVuSans-69"/>
      <path d="M 18.109375 8.203125 
L 18.109375 -20.796875 
L 9.078125 -20.796875 
L 9.078125 54.6875 
L 18.109375 54.6875 
L 18.109375 46.390625 
Q 20.953125 51.265625 25.265625 53.625 
Q 29.59375 56 35.59375 56 
Q 45.5625 56 51.78125 48.09375 
Q 58.015625 40.1875 58.015625 27.296875 
Q 58.015625 14.40625 51.78125 6.484375 
Q 45.5625 -1.421875 35.59375 -1.421875 
Q 29.59375 -1.421875 25.265625 0.953125 
Q 20.953125 3.328125 18.109375 8.203125 
z
M 48.6875 27.296875 
Q 48.6875 37.203125 44.609375 42.84375 
Q 40.53125 48.484375 33.40625 48.484375 
Q 26.265625 48.484375 22.1875 42.84375 
Q 18.109375 37.203125 18.109375 27.296875 
Q 18.109375 17.390625 22.1875 11.75 
Q 26.265625 6.109375 33.40625 6.109375 
Q 40.53125 6.109375 44.609375 11.75 
Q 48.6875 17.390625 48.6875 27.296875 
z
" id="DejaVuSans-112"/>
      <path d="M 30.609375 48.390625 
Q 23.390625 48.390625 19.1875 42.75 
Q 14.984375 37.109375 14.984375 27.296875 
Q 14.984375 17.484375 19.15625 11.84375 
Q 23.34375 6.203125 30.609375 6.203125 
Q 37.796875 6.203125 41.984375 11.859375 
Q 46.1875 17.53125 46.1875 27.296875 
Q 46.1875 37.015625 41.984375 42.703125 
Q 37.796875 48.390625 30.609375 48.390625 
z
M 30.609375 56 
Q 42.328125 56 49.015625 48.375 
Q 55.71875 40.765625 55.71875 27.296875 
Q 55.71875 13.875 49.015625 6.21875 
Q 42.328125 -1.421875 30.609375 -1.421875 
Q 18.84375 -1.421875 12.171875 6.21875 
Q 5.515625 13.875 5.515625 27.296875 
Q 5.515625 40.765625 12.171875 48.375 
Q 18.84375 56 30.609375 56 
z
" id="DejaVuSans-111"/>
      <path d="M 48.78125 52.59375 
L 48.78125 44.1875 
Q 44.96875 46.296875 41.140625 47.34375 
Q 37.3125 48.390625 33.40625 48.390625 
Q 24.65625 48.390625 19.8125 42.84375 
Q 14.984375 37.3125 14.984375 27.296875 
Q 14.984375 17.28125 19.8125 11.734375 
Q 24.65625 6.203125 33.40625 6.203125 
Q 37.3125 6.203125 41.140625 7.25 
Q 44.96875 8.296875 48.78125 10.40625 
L 48.78125 2.09375 
Q 45.015625 0.34375 40.984375 -0.53125 
Q 36.96875 -1.421875 32.421875 -1.421875 
Q 20.0625 -1.421875 12.78125 6.34375 
Q 5.515625 14.109375 5.515625 27.296875 
Q 5.515625 40.671875 12.859375 48.328125 
Q 20.21875 56 33.015625 56 
Q 37.15625 56 41.109375 55.140625 
Q 45.0625 54.296875 48.78125 52.59375 
z
" id="DejaVuSans-99"/>
      <path d="M 54.890625 33.015625 
L 54.890625 0 
L 45.90625 0 
L 45.90625 32.71875 
Q 45.90625 40.484375 42.875 44.328125 
Q 39.84375 48.1875 33.796875 48.1875 
Q 26.515625 48.1875 22.3125 43.546875 
Q 18.109375 38.921875 18.109375 30.90625 
L 18.109375 0 
L 9.078125 0 
L 9.078125 75.984375 
L 18.109375 75.984375 
L 18.109375 46.1875 
Q 21.34375 51.125 25.703125 53.5625 
Q 30.078125 56 35.796875 56 
Q 45.21875 56 50.046875 50.171875 
Q 54.890625 44.34375 54.890625 33.015625 
z
" id="DejaVuSans-104"/>
     </defs>
     <g transform="translate(369.632813 365.435781)scale(0.1 -0.1)">
      <use xlink:href="#DejaVuSans-69"/>
      <use x="63.183594" xlink:href="#DejaVuSans-112"/>
      <use x="126.660156" xlink:href="#DejaVuSans-111"/>
      <use x="187.841797" xlink:href="#DejaVuSans-99"/>
      <use x="242.822266" xlink:href="#DejaVuSans-104"/>
     </g>
    </g>
   </g>
   <g id="matplotlib.axis_2">
    <g id="ytick_1">
     <g id="line2d_13">
      <path clip-path="url(#p0e636209e5)" d="M 50.14375 337.159219 
L 719.74375 337.159219 
" style="fill:none;stroke:#b0b0b0;stroke-linecap:square;stroke-width:0.8;"/>
     </g>
     <g id="line2d_14">
      <defs>
       <path d="M 0 0 
L -3.5 0 
" id="mccaa6ec15b" style="stroke:#000000;stroke-width:0.8;"/>
      </defs>
      <g>
       <use style="stroke:#000000;stroke-width:0.8;" x="50.14375" xlink:href="#mccaa6ec15b" y="337.159219"/>
      </g>
     </g>
     <g id="text_8">
      <!-- 0.82 -->
      <defs>
       <path d="M 10.6875 12.40625 
L 21 12.40625 
L 21 0 
L 10.6875 0 
z
" id="DejaVuSans-46"/>
      </defs>
      <g transform="translate(20.878125 340.958437)scale(0.1 -0.1)">
       <use xlink:href="#DejaVuSans-48"/>
       <use x="63.623047" xlink:href="#DejaVuSans-46"/>
       <use x="95.410156" xlink:href="#DejaVuSans-56"/>
       <use x="159.033203" xlink:href="#DejaVuSans-50"/>
      </g>
     </g>
    </g>
    <g id="ytick_2">
     <g id="line2d_15">
      <path clip-path="url(#p0e636209e5)" d="M 50.14375 296.389219 
L 719.74375 296.389219 
" style="fill:none;stroke:#b0b0b0;stroke-linecap:square;stroke-width:0.8;"/>
     </g>
     <g id="line2d_16">
      <g>
       <use style="stroke:#000000;stroke-width:0.8;" x="50.14375" xlink:href="#mccaa6ec15b" y="296.389219"/>
      </g>
     </g>
     <g id="text_9">
      <!-- 0.84 -->
      <g transform="translate(20.878125 300.188437)scale(0.1 -0.1)">
       <use xlink:href="#DejaVuSans-48"/>
       <use x="63.623047" xlink:href="#DejaVuSans-46"/>
       <use x="95.410156" xlink:href="#DejaVuSans-56"/>
       <use x="159.033203" xlink:href="#DejaVuSans-52"/>
      </g>
     </g>
    </g>
    <g id="ytick_3">
     <g id="line2d_17">
      <path clip-path="url(#p0e636209e5)" d="M 50.14375 255.619219 
L 719.74375 255.619219 
" style="fill:none;stroke:#b0b0b0;stroke-linecap:square;stroke-width:0.8;"/>
     </g>
     <g id="line2d_18">
      <g>
       <use style="stroke:#000000;stroke-width:0.8;" x="50.14375" xlink:href="#mccaa6ec15b" y="255.619219"/>
      </g>
     </g>
     <g id="text_10">
      <!-- 0.86 -->
      <g transform="translate(20.878125 259.418437)scale(0.1 -0.1)">
       <use xlink:href="#DejaVuSans-48"/>
       <use x="63.623047" xlink:href="#DejaVuSans-46"/>
       <use x="95.410156" xlink:href="#DejaVuSans-56"/>
       <use x="159.033203" xlink:href="#DejaVuSans-54"/>
      </g>
     </g>
    </g>
    <g id="ytick_4">
     <g id="line2d_19">
      <path clip-path="url(#p0e636209e5)" d="M 50.14375 214.849219 
L 719.74375 214.849219 
" style="fill:none;stroke:#b0b0b0;stroke-linecap:square;stroke-width:0.8;"/>
     </g>
     <g id="line2d_20">
      <g>
       <use style="stroke:#000000;stroke-width:0.8;" x="50.14375" xlink:href="#mccaa6ec15b" y="214.849219"/>
      </g>
     </g>
     <g id="text_11">
      <!-- 0.88 -->
      <g transform="translate(20.878125 218.648437)scale(0.1 -0.1)">
       <use xlink:href="#DejaVuSans-48"/>
       <use x="63.623047" xlink:href="#DejaVuSans-46"/>
       <use x="95.410156" xlink:href="#DejaVuSans-56"/>
       <use x="159.033203" xlink:href="#DejaVuSans-56"/>
      </g>
     </g>
    </g>
    <g id="ytick_5">
     <g id="line2d_21">
      <path clip-path="url(#p0e636209e5)" d="M 50.14375 174.079219 
L 719.74375 174.079219 
" style="fill:none;stroke:#b0b0b0;stroke-linecap:square;stroke-width:0.8;"/>
     </g>
     <g id="line2d_22">
      <g>
       <use style="stroke:#000000;stroke-width:0.8;" x="50.14375" xlink:href="#mccaa6ec15b" y="174.079219"/>
      </g>
     </g>
     <g id="text_12">
      <!-- 0.90 -->
      <defs>
       <path d="M 10.984375 1.515625 
L 10.984375 10.5 
Q 14.703125 8.734375 18.5 7.8125 
Q 22.3125 6.890625 25.984375 6.890625 
Q 35.75 6.890625 40.890625 13.453125 
Q 46.046875 20.015625 46.78125 33.40625 
Q 43.953125 29.203125 39.59375 26.953125 
Q 35.25 24.703125 29.984375 24.703125 
Q 19.046875 24.703125 12.671875 31.3125 
Q 6.296875 37.9375 6.296875 49.421875 
Q 6.296875 60.640625 12.9375 67.421875 
Q 19.578125 74.21875 30.609375 74.21875 
Q 43.265625 74.21875 49.921875 64.515625 
Q 56.59375 54.828125 56.59375 36.375 
Q 56.59375 19.140625 48.40625 8.859375 
Q 40.234375 -1.421875 26.421875 -1.421875 
Q 22.703125 -1.421875 18.890625 -0.6875 
Q 15.09375 0.046875 10.984375 1.515625 
z
M 30.609375 32.421875 
Q 37.25 32.421875 41.125 36.953125 
Q 45.015625 41.5 45.015625 49.421875 
Q 45.015625 57.28125 41.125 61.84375 
Q 37.25 66.40625 30.609375 66.40625 
Q 23.96875 66.40625 20.09375 61.84375 
Q 16.21875 57.28125 16.21875 49.421875 
Q 16.21875 41.5 20.09375 36.953125 
Q 23.96875 32.421875 30.609375 32.421875 
z
" id="DejaVuSans-57"/>
      </defs>
      <g transform="translate(20.878125 177.878437)scale(0.1 -0.1)">
       <use xlink:href="#DejaVuSans-48"/>
       <use x="63.623047" xlink:href="#DejaVuSans-46"/>
       <use x="95.410156" xlink:href="#DejaVuSans-57"/>
       <use x="159.033203" xlink:href="#DejaVuSans-48"/>
      </g>
     </g>
    </g>
    <g id="ytick_6">
     <g id="line2d_23">
      <path clip-path="url(#p0e636209e5)" d="M 50.14375 133.309219 
L 719.74375 133.309219 
" style="fill:none;stroke:#b0b0b0;stroke-linecap:square;stroke-width:0.8;"/>
     </g>
     <g id="line2d_24">
      <g>
       <use style="stroke:#000000;stroke-width:0.8;" x="50.14375" xlink:href="#mccaa6ec15b" y="133.309219"/>
      </g>
     </g>
     <g id="text_13">
      <!-- 0.92 -->
      <g transform="translate(20.878125 137.108437)scale(0.1 -0.1)">
       <use xlink:href="#DejaVuSans-48"/>
       <use x="63.623047" xlink:href="#DejaVuSans-46"/>
       <use x="95.410156" xlink:href="#DejaVuSans-57"/>
       <use x="159.033203" xlink:href="#DejaVuSans-50"/>
      </g>
     </g>
    </g>
    <g id="ytick_7">
     <g id="line2d_25">
      <path clip-path="url(#p0e636209e5)" d="M 50.14375 92.539219 
L 719.74375 92.539219 
" style="fill:none;stroke:#b0b0b0;stroke-linecap:square;stroke-width:0.8;"/>
     </g>
     <g id="line2d_26">
      <g>
       <use style="stroke:#000000;stroke-width:0.8;" x="50.14375" xlink:href="#mccaa6ec15b" y="92.539219"/>
      </g>
     </g>
     <g id="text_14">
      <!-- 0.94 -->
      <g transform="translate(20.878125 96.338437)scale(0.1 -0.1)">
       <use xlink:href="#DejaVuSans-48"/>
       <use x="63.623047" xlink:href="#DejaVuSans-46"/>
       <use x="95.410156" xlink:href="#DejaVuSans-57"/>
       <use x="159.033203" xlink:href="#DejaVuSans-52"/>
      </g>
     </g>
    </g>
    <g id="ytick_8">
     <g id="line2d_27">
      <path clip-path="url(#p0e636209e5)" d="M 50.14375 51.769219 
L 719.74375 51.769219 
" style="fill:none;stroke:#b0b0b0;stroke-linecap:square;stroke-width:0.8;"/>
     </g>
     <g id="line2d_28">
      <g>
       <use style="stroke:#000000;stroke-width:0.8;" x="50.14375" xlink:href="#mccaa6ec15b" y="51.769219"/>
      </g>
     </g>
     <g id="text_15">
      <!-- 0.96 -->
      <g transform="translate(20.878125 55.568437)scale(0.1 -0.1)">
       <use xlink:href="#DejaVuSans-48"/>
       <use x="63.623047" xlink:href="#DejaVuSans-46"/>
       <use x="95.410156" xlink:href="#DejaVuSans-57"/>
       <use x="159.033203" xlink:href="#DejaVuSans-54"/>
      </g>
     </g>
    </g>
    <g id="ytick_9">
     <g id="line2d_29">
      <path clip-path="url(#p0e636209e5)" d="M 50.14375 10.999219 
L 719.74375 10.999219 
" style="fill:none;stroke:#b0b0b0;stroke-linecap:square;stroke-width:0.8;"/>
     </g>
     <g id="line2d_30">
      <g>
       <use style="stroke:#000000;stroke-width:0.8;" x="50.14375" xlink:href="#mccaa6ec15b" y="10.999219"/>
      </g>
     </g>
     <g id="text_16">
      <!-- 0.98 -->
      <g transform="translate(20.878125 14.798437)scale(0.1 -0.1)">
       <use xlink:href="#DejaVuSans-48"/>
       <use x="63.623047" xlink:href="#DejaVuSans-46"/>
       <use x="95.410156" xlink:href="#DejaVuSans-57"/>
       <use x="159.033203" xlink:href="#DejaVuSans-56"/>
      </g>
     </g>
    </g>
    <g id="text_17">
     <!-- Accuracy -->
     <defs>
      <path d="M 34.1875 63.1875 
L 20.796875 26.90625 
L 47.609375 26.90625 
z
M 28.609375 72.90625 
L 39.796875 72.90625 
L 67.578125 0 
L 57.328125 0 
L 50.6875 18.703125 
L 17.828125 18.703125 
L 11.1875 0 
L 0.78125 0 
z
" id="DejaVuSans-65"/>
      <path d="M 8.5 21.578125 
L 8.5 54.6875 
L 17.484375 54.6875 
L 17.484375 21.921875 
Q 17.484375 14.15625 20.5 10.265625 
Q 23.53125 6.390625 29.59375 6.390625 
Q 36.859375 6.390625 41.078125 11.03125 
Q 45.3125 15.671875 45.3125 23.6875 
L 45.3125 54.6875 
L 54.296875 54.6875 
L 54.296875 0 
L 45.3125 0 
L 45.3125 8.40625 
Q 42.046875 3.421875 37.71875 1 
Q 33.40625 -1.421875 27.6875 -1.421875 
Q 18.265625 -1.421875 13.375 4.4375 
Q 8.5 10.296875 8.5 21.578125 
z
M 31.109375 56 
z
" id="DejaVuSans-117"/>
      <path d="M 41.109375 46.296875 
Q 39.59375 47.171875 37.8125 47.578125 
Q 36.03125 48 33.890625 48 
Q 26.265625 48 22.1875 43.046875 
Q 18.109375 38.09375 18.109375 28.8125 
L 18.109375 0 
L 9.078125 0 
L 9.078125 54.6875 
L 18.109375 54.6875 
L 18.109375 46.1875 
Q 20.953125 51.171875 25.484375 53.578125 
Q 30.03125 56 36.53125 56 
Q 37.453125 56 38.578125 55.875 
Q 39.703125 55.765625 41.0625 55.515625 
z
" id="DejaVuSans-114"/>
      <path d="M 34.28125 27.484375 
Q 23.390625 27.484375 19.1875 25 
Q 14.984375 22.515625 14.984375 16.5 
Q 14.984375 11.71875 18.140625 8.90625 
Q 21.296875 6.109375 26.703125 6.109375 
Q 34.1875 6.109375 38.703125 11.40625 
Q 43.21875 16.703125 43.21875 25.484375 
L 43.21875 27.484375 
z
M 52.203125 31.203125 
L 52.203125 0 
L 43.21875 0 
L 43.21875 8.296875 
Q 40.140625 3.328125 35.546875 0.953125 
Q 30.953125 -1.421875 24.3125 -1.421875 
Q 15.921875 -1.421875 10.953125 3.296875 
Q 6 8.015625 6 15.921875 
Q 6 25.140625 12.171875 29.828125 
Q 18.359375 34.515625 30.609375 34.515625 
L 43.21875 34.515625 
L 43.21875 35.40625 
Q 43.21875 41.609375 39.140625 45 
Q 35.0625 48.390625 27.6875 48.390625 
Q 23 48.390625 18.546875 47.265625 
Q 14.109375 46.140625 10.015625 43.890625 
L 10.015625 52.203125 
Q 14.9375 54.109375 19.578125 55.046875 
Q 24.21875 56 28.609375 56 
Q 40.484375 56 46.34375 49.84375 
Q 52.203125 43.703125 52.203125 31.203125 
z
" id="DejaVuSans-97"/>
      <path d="M 32.171875 -5.078125 
Q 28.375 -14.84375 24.75 -17.8125 
Q 21.140625 -20.796875 15.09375 -20.796875 
L 7.90625 -20.796875 
L 7.90625 -13.28125 
L 13.1875 -13.28125 
Q 16.890625 -13.28125 18.9375 -11.515625 
Q 21 -9.765625 23.484375 -3.21875 
L 25.09375 0.875 
L 2.984375 54.6875 
L 12.5 54.6875 
L 29.59375 11.921875 
L 46.6875 54.6875 
L 56.203125 54.6875 
z
" id="DejaVuSans-121"/>
     </defs>
     <g transform="translate(14.798438 196.994062)rotate(-90)scale(0.1 -0.1)">
      <use xlink:href="#DejaVuSans-65"/>
      <use x="68.392578" xlink:href="#DejaVuSans-99"/>
      <use x="123.373047" xlink:href="#DejaVuSans-99"/>
      <use x="178.353516" xlink:href="#DejaVuSans-117"/>
      <use x="241.732422" xlink:href="#DejaVuSans-114"/>
      <use x="282.845703" xlink:href="#DejaVuSans-97"/>
      <use x="344.125" xlink:href="#DejaVuSans-99"/>
      <use x="399.105469" xlink:href="#DejaVuSans-121"/>
     </g>
    </g>
   </g>
   <g id="line2d_31">
    <path clip-path="url(#p0e636209e5)" d="M 71.522714 375.715469 
L 71.827068 371.507947 
L 72.464813 370.794476 
L 73.102558 358.155744 
L 73.740302 362.079839 
L 74.378047 357.95186 
L 75.015792 351.581645 
L 75.653536 350.562347 
L 76.291281 348.676725 
L 76.929025 349.135403 
L 77.56677 344.1411 
L 78.204515 342.306389 
L 78.842259 337.108202 
L 79.480004 334.865966 
L 80.117749 335.681258 
L 80.755493 329.871541 
L 81.393238 326.915711 
L 82.030983 326.660917 
L 82.668727 320.23967 
L 83.306472 320.392522 
L 83.944217 319.577109 
L 84.581961 310.352884 
L 85.219706 316.570369 
L 85.857451 320.23967 
L 86.495195 308.212469 
L 87.13294 309.945238 
L 87.770685 310.6078 
L 88.408429 303.982669 
L 89.046174 309.792386 
L 89.683919 301.536428 
L 90.321663 295.828652 
L 90.959408 305.409613 
L 91.597153 300.313368 
L 92.234897 290.528523 
L 92.872642 299.29407 
L 93.510387 295.624769 
L 94.148131 289.15249 
L 94.785876 287.215958 
L 95.42362 286.19666 
L 96.061365 287.623726 
L 96.69911 287.572694 
L 97.336854 285.992898 
L 97.974599 283.801451 
L 98.612344 288.286166 
L 99.250088 281.813887 
L 99.887833 279.112973 
L 100.525578 281.457151 
L 101.163322 281.915829 
L 101.801067 275.035904 
L 102.438812 276.870616 
L 103.714301 272.182017 
L 104.352046 269.379039 
L 104.98979 272.334869 
L 105.627535 269.480981 
L 106.26528 268.767509 
L 106.903024 263.263618 
L 107.540769 267.544449 
L 108.178514 269.124245 
L 108.816258 259.798201 
L 110.091748 265.404034 
L 110.729492 259.084729 
L 111.367237 260.001963 
L 112.004981 262.24432 
L 112.642726 258.422167 
L 113.280471 250.930712 
L 113.918215 255.466337 
L 114.55596 253.020096 
L 115.193705 254.243278 
L 115.831449 251.593152 
L 116.469194 253.733568 
L 117.106939 253.122038 
L 117.744683 245.885377 
L 118.382428 252.00092 
L 119.020173 252.00092 
L 119.657917 252.66336 
L 120.295662 248.841207 
L 120.933407 248.025793 
L 121.571151 246.191203 
L 122.846641 246.496907 
L 123.484385 239.413098 
L 124.12213 246.140171 
L 124.759875 242.674754 
L 125.397619 235.285241 
L 126.035364 239.973718 
L 126.673109 243.03149 
L 127.948598 235.234209 
L 128.586343 245.324757 
L 129.224087 236.202475 
L 129.861832 233.093793 
L 130.499576 235.285241 
L 131.137321 239.51504 
L 132.41281 231.259203 
L 133.050555 231.972675 
L 133.6883 231.972675 
L 134.326044 228.507136 
L 134.963789 226.92734 
L 135.601534 231.10623 
L 136.239278 233.144704 
L 136.877023 229.577344 
L 137.514768 225.143661 
L 138.152512 226.366721 
L 139.428002 230.851436 
L 140.065746 227.080193 
L 140.703491 221.983947 
L 141.341236 229.220608 
L 141.97898 227.589902 
L 142.616725 224.888867 
L 143.25447 228.456226 
L 143.892214 224.990809 
L 144.529959 219.282912 
L 145.167704 223.359981 
L 145.805448 218.110762 
L 146.443193 223.614775 
L 147.080937 220.251299 
L 147.718682 219.537827 
L 148.356427 215.868526 
L 148.994171 218.416588 
L 149.631916 219.537827 
L 150.269661 219.282912 
L 150.907405 216.429024 
L 151.54515 217.39729 
L 152.182895 222.493535 
L 152.820639 213.269433 
L 153.458384 213.218401 
L 154.096129 215.817494 
L 154.733873 214.441461 
L 155.371618 210.976043 
L 156.009363 214.747287 
L 156.647107 211.893399 
L 157.284852 212.352077 
L 157.922597 212.199225 
L 158.560341 208.886659 
L 159.198086 207.663478 
L 159.835831 212.657781 
L 160.473575 209.039511 
L 161.11132 213.422285 
L 161.749065 206.389386 
L 162.386809 203.892235 
L 163.024554 205.319178 
L 163.662299 209.141453 
L 164.300043 203.433678 
L 164.937788 205.625004 
L 165.575532 208.98848 
L 166.213277 209.803894 
L 166.851022 197.470988 
L 168.126511 206.236534 
L 168.764256 203.484588 
L 169.402 203.382647 
L 170.039745 197.318135 
L 170.67749 202.720085 
L 171.315234 195.17772 
L 171.952979 203.535499 
L 172.590724 199.509461 
L 173.228468 200.172023 
L 173.866213 203.025911 
L 175.141702 197.114252 
L 175.779447 202.363349 
L 176.417192 196.095076 
L 177.054936 198.286401 
L 177.692681 196.044044 
L 178.330426 199.050783 
L 178.96817 193.852718 
L 179.605915 196.655574 
L 180.24366 190.540153 
L 180.881404 196.196896 
L 182.156893 192.119948 
L 182.794638 195.687308 
L 183.432383 197.420077 
L 184.707872 194.413216 
L 185.345617 189.622797 
L 185.983361 193.699744 
L 186.621106 190.234327 
L 187.258851 190.845857 
L 187.896595 191.967096 
L 188.53434 185.749612 
L 189.172085 192.578626 
L 189.809829 192.018007 
L 190.447574 188.399737 
L 191.085319 188.960235 
L 191.723063 190.896888 
L 192.360808 190.947799 
L 192.998553 186.565025 
L 193.636297 188.654531 
L 194.274042 183.609196 
L 194.911787 184.3737 
L 195.549531 186.514115 
L 196.187276 186.717878 
L 196.825021 188.654531 
L 197.462765 180.959192 
L 198.10051 183.507254 
L 198.738255 187.380439 
L 199.375999 186.208289 
L 200.013744 181.927458 
L 200.651488 186.717878 
L 201.289233 187.482381 
L 201.926978 183.303492 
L 202.564722 180.296631 
L 203.202467 186.717878 
L 203.840212 178.360099 
L 204.477956 182.0294 
L 205.115701 176.933155 
L 205.753446 181.112044 
L 206.39119 181.570722 
L 207.028935 176.627329 
L 207.66668 185.800643 
L 208.304424 184.883288 
L 208.942169 182.233162 
L 209.579914 177.901421 
L 210.217658 178.105305 
L 210.855403 175.098443 
L 211.493148 183.405312 
L 212.130892 178.054273 
L 212.768637 180.347662 
L 213.406382 180.194689 
L 214.044126 176.576419 
L 214.681871 174.28303 
L 215.319616 179.532248 
L 215.95736 172.397408 
L 216.595105 177.850389 
L 217.232849 175.811915 
L 217.870594 178.411009 
L 218.508339 179.022539 
L 219.146083 173.212822 
L 219.783828 178.563861 
L 220.421573 173.467616 
L 221.059317 173.926294 
L 221.697062 177.901421 
L 222.334807 172.601292 
L 222.972551 170.562818 
L 223.610296 163.988597 
L 224.248041 174.28303 
L 224.885785 170.71567 
L 225.52353 179.481217 
L 226.161275 169.441579 
L 226.799019 172.040672 
L 227.436764 173.263854 
L 228.074509 165.007895 
L 228.712253 168.677196 
L 229.349998 167.352195 
L 229.987743 167.912814 
L 230.625487 172.295588 
L 231.263232 166.281987 
L 231.900977 165.568515 
L 232.538721 173.05997 
L 233.176466 165.517483 
L 233.81421 166.332897 
L 234.451955 171.123438 
L 235.0897 168.524344 
L 235.727444 162.765538 
L 236.365189 170.256992 
L 237.002934 168.167608 
L 237.640678 165.007895 
L 238.278423 164.905953 
L 238.916168 164.600249 
L 239.553912 165.670457 
L 240.191657 165.568515 
L 240.829402 165.211779 
L 241.467146 168.371371 
L 242.104891 163.326157 
L 242.742636 166.995459 
L 243.38038 157.822145 
L 244.018125 161.848182 
L 244.65587 163.784835 
L 245.293614 162.001155 
L 245.931359 167.861783 
L 246.569104 161.0838 
L 247.206848 160.981858 
L 247.844593 166.383929 
L 248.482338 164.294423 
L 249.120082 160.370328 
L 249.757827 159.402062 
L 250.395572 162.561654 
L 251.033316 162.510743 
L 251.671061 160.930948 
L 252.308805 161.236652 
L 252.94655 159.096236 
L 253.584295 162.765538 
L 254.222039 158.7395 
L 254.859784 153.541313 
L 255.497529 158.586648 
L 256.135273 165.823309 
L 256.773018 154.917347 
L 257.410763 157.108673 
L 258.048507 159.91165 
L 258.686252 154.968257 
L 259.323997 163.377068 
L 259.961741 157.210615 
L 260.599486 152.623957 
L 261.237231 151.961517 
L 261.874975 156.90491 
L 262.51272 156.395201 
L 263.150465 158.7395 
L 263.788209 155.376025 
L 264.425954 154.611521 
L 265.063699 152.165401 
L 265.701443 149.005688 
L 266.339188 157.924086 
L 266.976933 149.566308 
L 267.614677 153.286519 
L 268.252422 155.070199 
L 268.890166 150.687426 
L 269.527911 149.260482 
L 270.165656 153.949081 
L 270.8034 148.292216 
L 271.441145 153.796107 
L 272.07889 153.847139 
L 272.716634 151.757633 
L 273.354379 152.369163 
L 273.992124 149.821102 
L 274.629868 153.286519 
L 275.267613 154.509579 
L 275.905358 150.024864 
L 276.543102 150.432632 
L 277.180847 148.088332 
L 277.818592 148.241184 
L 279.094081 152.267222 
L 280.36957 151.655692 
L 281.64506 146.20271 
L 282.282804 145.438328 
L 284.196038 149.872012 
L 284.833783 149.413334 
L 285.471528 148.445068 
L 286.109272 142.737293 
L 286.747017 144.673825 
L 287.384761 146.100769 
L 288.022506 151.349987 
L 288.660251 149.311392 
L 289.297995 146.712299 
L 289.93574 140.851671 
L 290.573485 147.578744 
L 291.211229 146.661388 
L 291.848974 144.317089 
L 292.486719 143.705559 
L 293.124463 144.877709 
L 293.762208 141.208407 
L 294.399953 143.246881 
L 295.037697 145.744033 
L 295.675442 143.399733 
L 296.313187 146.916182 
L 296.950931 143.705559 
L 297.588676 142.380557 
L 298.226421 144.266179 
L 298.864165 143.654649 
L 299.50191 146.712299 
L 300.777399 142.227705 
L 301.415144 137.997784 
L 302.052889 137.080428 
L 302.690633 143.450765 
L 303.328378 141.004523 
L 303.966122 139.373696 
L 304.603867 141.106465 
L 305.241612 135.95931 
L 305.879356 141.361259 
L 306.517101 137.539106 
L 307.154846 138.40543 
L 307.79259 141.921879 
L 308.430335 141.055555 
L 309.06808 140.392993 
L 309.705824 136.876544 
L 310.343569 143.144939 
L 310.981314 134.532366 
L 311.619058 138.456462 
L 312.256803 136.825634 
L 312.894548 143.195971 
L 313.532292 138.96605 
L 314.170037 136.061252 
L 314.807782 140.087289 
L 315.445526 137.18237 
L 316.083271 137.74299 
L 316.721016 134.532366 
L 317.35876 134.889102 
L 317.996505 132.391951 
L 318.63425 132.238977 
L 319.271994 134.583276 
L 319.909739 135.704516 
L 320.547484 130.964885 
L 321.185228 132.799597 
L 321.822973 130.455297 
L 322.460717 136.825634 
L 323.098462 136.214104 
L 323.736207 129.334179 
L 324.373951 133.105422 
L 325.011696 131.168769 
L 325.649441 133.462158 
L 326.287185 133.61501 
L 326.92493 130.149593 
L 327.562675 129.537941 
L 328.200419 133.258275 
L 328.838164 129.385089 
L 329.475909 129.181206 
L 330.113653 130.964885 
L 330.751398 130.608149 
L 331.389143 130.404387 
L 332.026887 126.98988 
L 333.302377 131.831331 
L 333.940121 129.792857 
L 334.577866 128.722649 
L 335.215611 131.678479 
L 336.4911 125.919672 
L 337.128845 129.028353 
L 337.766589 126.582112 
L 338.404334 130.353355 
L 339.042078 129.436121 
L 339.679823 132.595713 
L 340.955312 125.410084 
L 341.593057 128.314882 
L 342.230802 130.659181 
L 342.868546 127.142732 
L 343.506291 131.525505 
L 344.144036 123.116694 
L 344.78178 122.556075 
L 345.419525 123.116694 
L 346.05727 127.346616 
L 346.695014 125.2062 
L 347.332759 124.951406 
L 347.970504 127.397526 
L 348.608248 126.531202 
L 349.245993 123.218636 
L 349.883738 120.721485 
L 350.521482 122.25037 
L 351.159227 122.301281 
L 351.796972 124.237934 
L 352.434716 128.569676 
L 353.072461 123.065784 
L 353.710206 124.237934 
L 354.34795 119.753219 
L 354.985695 123.728224 
L 355.62344 124.03405 
L 356.261184 123.575372 
L 356.898929 119.498425 
L 357.536673 122.097518 
L 358.174418 120.058923 
L 358.812163 124.543638 
L 359.449907 124.59467 
L 360.087652 121.63884 
L 360.725397 122.759959 
L 361.363141 115.727182 
L 362.000886 121.689751 
L 362.638631 121.587809 
L 363.276375 118.937805 
L 363.91412 118.988715 
L 364.551865 125.25711 
L 365.189609 123.116694 
L 365.827354 121.944545 
L 366.465099 121.63884 
L 367.740588 117.256067 
L 368.378333 119.396483 
L 369.016077 115.67615 
L 369.653822 116.287801 
L 370.291567 118.835863 
L 370.929311 117.45983 
L 371.567056 121.078221 
L 372.204801 114.045444 
L 372.842545 115.523298 
L 373.48029 117.408919 
L 374.755779 115.421356 
L 375.393524 113.739618 
L 376.031268 118.224333 
L 376.669013 119.600367 
L 377.306758 119.855161 
L 377.944502 113.84156 
L 378.582247 116.8483 
L 379.219992 117.612803 
L 379.857736 114.504 
L 380.495481 109.764491 
L 381.133226 114.40218 
L 381.77097 117.510861 
L 382.408715 117.561771 
L 383.684204 111.752054 
L 384.321949 114.707884 
L 384.959694 119.294541 
L 385.597438 116.440653 
L 386.235183 114.555032 
L 386.872928 110.783789 
L 387.510672 116.185859 
L 388.148417 110.88573 
L 388.786162 107.165397 
L 389.423906 114.962678 
L 390.061651 116.746358 
L 390.699396 110.681847 
L 391.33714 112.006848 
L 391.974885 113.637676 
L 392.612629 107.420313 
L 393.250374 112.567468 
L 393.888119 113.026146 
L 394.525863 111.599202 
L 395.163608 112.516558 
L 395.801353 112.10879 
L 396.439097 108.184695 
L 397.076842 114.911768 
L 397.714587 108.643373 
L 398.352331 113.28094 
L 398.990076 111.803086 
L 399.627821 107.114487 
L 400.265565 106.808661 
L 400.90331 110.2742 
L 401.541055 110.376142 
L 402.178799 107.980811 
L 402.816544 109.509697 
L 403.454289 103.394276 
L 404.092033 107.878991 
L 404.729778 105.432749 
L 405.367523 108.031843 
L 406.005267 108.847257 
L 406.643012 113.433792 
L 407.918501 108.796225 
L 408.556246 108.643373 
L 409.19399 112.159822 
L 409.831735 105.942337 
L 410.46948 104.974071 
L 411.107224 107.827959 
L 411.744969 104.107747 
L 412.382714 107.012545 
L 413.658203 106.808661 
L 414.295948 102.935598 
L 414.933692 104.770188 
L 415.571437 103.598038 
L 416.209182 106.197131 
L 416.846926 103.241302 
L 417.484671 101.661506 
L 418.122416 105.738454 
L 418.76016 104.974071 
L 419.397905 107.165397 
L 420.03565 107.471223 
L 420.673394 102.120184 
L 421.311139 104.464483 
L 421.948884 104.821219 
L 422.586628 102.935598 
L 423.224373 111.242466 
L 423.862118 101.86539 
L 424.499862 108.745315 
L 425.137607 102.222126 
L 425.775352 104.413452 
L 426.413096 101.202828 
L 427.050841 105.942337 
L 427.688585 104.209689 
L 428.32633 104.107747 
L 428.964075 105.381718 
L 429.601819 101.86539 
L 430.239564 101.86539 
L 430.877309 100.74415 
L 431.515053 102.52783 
L 432.152798 101.100886 
L 432.790543 98.094147 
L 433.428287 105.891427 
L 434.066032 100.948034 
L 435.341521 96.769145 
L 435.979266 98.348941 
L 436.617011 100.285472 
L 437.254755 96.565261 
L 437.8925 100.69324 
L 438.530245 96.157615 
L 439.167989 99.011502 
L 439.805734 100.69324 
L 440.443479 99.317207 
L 441.081223 99.317207 
L 441.718968 99.673943 
L 442.356713 98.654766 
L 442.994457 98.654766 
L 443.632202 96.055673 
L 444.269946 99.775884 
L 444.907691 100.08171 
L 446.18318 95.495053 
L 446.820925 100.642208 
L 447.45867 101.25386 
L 448.096414 91.6729 
L 448.734159 95.393111 
L 449.371904 97.533527 
L 450.009648 95.698937 
L 450.647393 93.252695 
L 451.285138 93.252695 
L 451.922882 98.90956 
L 452.560627 99.113323 
L 453.198372 93.966167 
L 453.836116 94.934433 
L 454.473861 96.463319 
L 455.111606 92.080546 
L 455.74935 93.048812 
L 456.387095 92.794018 
L 457.02484 97.533527 
L 457.662584 91.6729 
L 458.300329 92.029636 
L 458.938074 96.769145 
L 459.575818 99.215265 
L 460.213563 92.692076 
L 460.851308 96.769145 
L 461.489052 91.316164 
L 462.126797 90.602692 
L 462.764541 92.080546 
L 463.402286 96.106583 
L 464.040031 93.660342 
L 464.677775 89.99104 
L 465.31552 94.373814 
L 465.953265 93.558521 
L 466.591009 94.11902 
L 467.228754 93.660342 
L 467.866499 93.50749 
L 468.504243 91.469016 
L 469.141988 91.316164 
L 469.779733 91.519926 
L 470.417477 89.583394 
L 471.055222 89.175748 
L 471.692967 95.189227 
L 472.330711 94.730549 
L 472.968456 96.565261 
L 473.606201 89.073806 
L 474.243945 87.748804 
L 476.157179 92.89596 
L 476.794924 88.207361 
L 477.432669 93.762284 
L 478.070413 89.736246 
L 478.708158 88.920832 
L 479.345902 88.513186 
L 479.983647 91.265132 
L 480.621392 90.653602 
L 481.259136 91.469016 
L 481.896881 88.003598 
L 482.534626 89.073806 
L 483.17237 85.608267 
L 483.810115 90.347776 
L 484.44786 87.086243 
L 485.085604 92.029636 
L 485.723349 89.430542 
L 486.361094 88.513186 
L 486.998838 91.265132 
L 488.274328 87.391947 
L 488.912072 85.047769 
L 489.549817 87.697773 
L 490.187562 86.372771 
L 490.825306 88.819012 
L 491.463051 90.296866 
L 492.100796 81.837145 
L 492.73854 87.799714 
L 493.376285 86.93339 
L 494.01403 84.283265 
L 494.651774 84.181323 
L 495.289519 86.525623 
L 495.927264 85.557357 
L 496.565008 87.341037 
L 497.202753 82.295702 
L 497.840497 87.391947 
L 498.478242 81.429378 
L 499.115987 87.850625 
L 499.753731 80.35917 
L 500.391476 87.290126 
L 501.029221 80.613964 
L 501.666965 82.550617 
L 502.30471 84.945827 
L 502.942455 80.30826 
L 503.580199 81.123673 
L 504.217944 78.983136 
L 504.855689 85.047769 
L 505.493433 81.938966 
L 506.131178 86.117977 
L 506.768923 84.385207 
L 507.406667 80.817848 
L 508.044412 81.633261 
L 508.682157 82.193881 
L 509.319901 77.148546 
L 509.957646 82.244791 
L 510.595391 84.792975 
L 511.233135 79.696608 
L 511.87088 79.79855 
L 513.146369 81.735203 
L 513.784114 80.257228 
L 514.421858 81.429378 
L 515.059603 81.327436 
L 515.697348 82.14285 
L 516.335092 79.696608 
L 516.972837 86.423681 
L 517.610582 80.563054 
L 518.248326 82.703469 
L 518.886071 78.218754 
L 519.523816 77.35243 
L 520.16156 77.250488 
L 520.799305 77.96396 
L 521.43705 83.009174 
L 522.074794 79.085078 
L 522.712539 76.282222 
L 523.350284 83.467851 
L 524.625773 76.587927 
L 525.263518 76.231191 
L 525.901262 83.213057 
L 526.539007 79.74764 
L 527.176752 75.313835 
L 527.814496 79.085078 
L 528.452241 75.874455 
L 529.089986 80.410201 
L 529.72773 76.995694 
L 530.365475 75.110073 
L 531.003219 78.218754 
L 531.640964 78.116812 
L 532.278709 74.855278 
L 532.916453 78.065902 
L 534.191943 75.670571 
L 534.829687 76.893752 
L 535.467432 74.345569 
L 536.105177 76.689868 
L 536.742921 75.925486 
L 537.380666 76.842721 
L 538.018411 75.721602 
L 538.656155 75.721602 
L 539.2939 75.874455 
L 539.931645 72.358127 
L 540.569389 76.537016 
L 541.844879 72.154243 
L 542.482623 75.160983 
L 543.120368 74.396601 
L 543.758113 70.421474 
L 544.395857 71.338829 
L 545.033602 70.931062 
L 546.309091 75.772513 
L 546.946836 70.625357 
L 547.584581 76.638958 
L 548.222325 76.18028 
L 548.86007 72.358127 
L 549.497814 75.110073 
L 550.135559 73.377303 
L 550.773304 74.498543 
L 551.411048 72.154243 
L 552.048793 72.765773 
L 552.686538 72.969657 
L 553.324282 76.79181 
L 553.962027 74.651395 
L 554.599772 69.402297 
L 555.237516 72.561889 
L 555.875261 71.695565 
L 556.513006 73.071599 
L 557.15075 70.268621 
L 557.788495 70.064738 
L 558.42624 70.319532 
L 559.063984 70.727299 
L 559.701729 72.256185 
L 560.339474 72.409037 
L 560.977218 72.969657 
L 561.614963 71.542713 
L 562.252708 74.141807 
L 562.890452 70.115769 
L 563.528197 68.281058 
L 564.165942 69.504118 
L 564.803686 67.82238 
L 565.441431 68.026264 
L 566.079175 70.013827 
L 566.71692 68.94362 
L 567.354665 69.300355 
L 567.992409 66.59932 
L 568.630154 69.147382 
L 569.267899 68.841678 
L 569.905643 69.759033 
L 570.543388 65.732996 
L 571.181133 66.701262 
L 571.818877 65.732996 
L 573.094367 72.358127 
L 573.732111 65.936758 
L 575.007601 69.708002 
L 575.645345 68.383 
L 576.28309 66.65023 
L 576.920835 70.370563 
L 577.558579 68.688826 
L 578.196324 63.439607 
L 578.834069 65.631054 
L 579.471813 69.198414 
L 580.109558 66.59932 
L 580.747303 68.077174 
L 581.385047 66.140642 
L 582.022792 65.98779 
L 582.660537 66.956056 
L 583.298281 65.070434 
L 583.936026 65.580022 
L 584.57377 65.580022 
L 585.211515 67.567586 
L 585.84926 65.529112 
L 586.487004 64.407873 
L 587.124749 69.147382 
L 587.762494 65.223286 
L 588.400238 66.497378 
L 589.037983 64.306052 
L 589.675728 64.968492 
L 590.313472 64.051137 
L 590.951217 63.949316 
L 591.588962 63.439607 
L 592.226706 65.783906 
L 592.864451 60.585719 
L 593.502196 62.267457 
L 594.13994 61.961753 
L 594.777685 63.694401 
L 596.053174 65.070434 
L 596.690919 58.802039 
L 597.328664 65.325228 
L 597.966408 62.624193 
L 598.604153 60.738571 
L 599.879642 64.611757 
L 600.517387 60.840513 
L 601.155131 63.388697 
L 601.792876 64.866551 
L 602.430621 61.248281 
L 603.068365 60.483777 
L 603.70611 62.165515 
L 604.343855 60.381835 
L 604.981599 60.432867 
L 605.619344 63.133903 
L 606.257089 58.547245 
L 606.894833 61.350223 
L 607.532578 60.534809 
L 608.170323 60.738571 
L 608.808067 62.267457 
L 609.445812 62.114605 
L 610.083557 60.687661 
L 610.721301 57.527948 
L 611.359046 58.903981 
L 611.996791 59.464601 
L 612.634535 56.152036 
L 613.27228 60.178073 
L 613.910025 56.865508 
L 614.547769 59.515511 
L 615.185514 58.85295 
L 616.461003 58.139478 
L 617.098748 59.719395 
L 617.736493 59.107865 
L 618.374237 60.483777 
L 619.011982 56.304888 
L 619.649726 59.566422 
L 620.287471 60.076131 
L 620.925216 55.336622 
L 621.56296 57.222244 
L 622.83845 58.598156 
L 623.476194 60.942455 
L 624.113939 61.706959 
L 624.751684 58.037657 
L 625.389428 57.222244 
L 626.027173 59.770305 
L 626.664918 57.833774 
L 627.302662 54.979886 
L 627.940407 55.438564 
L 628.578152 56.45774 
L 629.215896 59.872247 
L 629.853641 57.273154 
L 630.491386 55.642326 
L 631.12913 58.343362 
L 631.766875 56.661624 
L 632.40462 57.273154 
L 633.042364 52.329761 
L 633.680109 55.642326 
L 634.317854 56.45774 
L 634.955598 52.431703 
L 635.593343 54.419266 
L 636.231087 57.324185 
L 636.868832 54.06253 
L 637.506577 55.84621 
L 638.144321 54.979886 
L 638.782066 53.451 
L 639.419811 56.202946 
L 640.057555 55.336622 
L 640.6953 53.043233 
L 641.333045 56.202946 
L 641.970789 54.67406 
L 643.246279 53.196206 
L 643.884023 51.514347 
L 644.521768 51.565379 
L 645.159513 54.62315 
L 645.797257 52.584676 
L 646.435002 49.475873 
L 647.710491 54.266414 
L 648.348236 48.354755 
L 648.985981 53.043233 
L 649.623725 53.858646 
L 650.26147 52.176909 
L 650.899215 53.145175 
L 651.536959 52.024057 
L 652.174704 53.960588 
L 652.812449 52.024057 
L 653.450193 53.298148 
L 654.087938 51.055791 
L 654.725682 51.412527 
L 655.363427 51.973025 
L 656.001172 50.648023 
L 657.914406 49.883641 
L 658.55215 53.349058 
L 659.189895 53.145175 
L 659.82764 50.087403 
L 660.465384 50.189345 
L 661.103129 50.648023 
L 662.378618 49.832609 
L 663.016363 50.953849 
L 663.654108 52.431703 
L 664.291852 49.170169 
L 664.929597 47.743225 
L 665.567342 51.769262 
L 666.205086 49.373931 
L 666.842831 50.291287 
L 667.480576 48.507607 
L 668.11832 49.832609 
L 668.756065 49.526905 
L 669.39381 47.692193 
L 670.031554 49.832609 
L 670.669299 51.412527 
L 671.307043 51.616289 
L 671.944788 46.978722 
L 672.582533 55.030796 
L 673.220277 48.150871 
L 673.858022 45.65372 
L 674.495767 51.106701 
L 675.133511 48.813433 
L 675.771256 49.017195 
L 676.409001 51.820173 
L 677.046745 47.641283 
L 677.68449 50.087403 
L 678.322235 50.291287 
L 678.959979 50.240377 
L 679.597724 49.170169 
L 680.235469 49.373931 
L 680.873213 49.781699 
L 681.510958 49.068227 
L 682.148703 48.660459 
L 682.786447 48.660459 
L 683.424192 48.915375 
L 684.061937 46.621986 
L 684.699681 45.755662 
L 685.337426 47.386489 
L 685.975171 50.546081 
L 686.612915 49.221079 
L 687.25066 44.022892 
L 687.888405 52.992322 
L 687.888405 52.992322 
" style="fill:none;stroke:#377eb8;stroke-linecap:square;stroke-width:1.5;"/>
   </g>
   <g id="line2d_32">
    <path clip-path="url(#p0e636209e5)" d="M 63.195647 375.715469 
L 63.536388 344.036242 
L 64.174132 364.142249 
L 64.811877 370.091939 
L 65.449622 344.446561 
L 66.087366 327.21291 
L 66.725111 328.033549 
L 67.362856 341.164007 
L 68.0006 326.392272 
L 68.638345 337.676233 
L 69.27609 313.877353 
L 69.913834 325.366413 
L 70.551579 316.339268 
L 71.189324 331.111004 
L 71.827068 309.56894 
L 72.464813 314.287672 
L 73.102558 307.517222 
L 73.740302 314.287672 
L 74.378047 295.617843 
L 75.015792 300.746894 
L 75.653536 295.822942 
L 76.291281 278.589291 
L 76.929025 277.973751 
L 77.56677 295.207524 
L 78.204515 291.719749 
L 78.842259 274.280878 
L 79.480004 279.615028 
L 80.117749 272.8447 
L 80.755493 278.99961 
L 81.393238 282.897703 
L 82.030983 261.150419 
L 82.668727 273.460239 
L 83.306472 273.460239 
L 83.944217 272.434381 
L 84.581961 274.280878 
L 85.219706 280.435788 
L 85.857451 263.612335 
L 86.495195 261.150419 
L 87.13294 264.432973 
L 87.770685 245.147726 
L 88.408429 267.305329 
L 89.046174 264.022654 
L 89.683919 269.356926 
L 90.321663 259.509142 
L 91.597153 256.431687 
L 92.234897 270.587883 
L 92.872642 252.328373 
L 93.510387 265.048513 
L 94.148131 234.889502 
L 94.785876 246.173463 
L 95.42362 255.405828 
L 96.061365 251.918054 
L 96.69911 246.583783 
L 97.336854 252.123275 
L 97.974599 262.176278 
L 98.612344 243.506449 
L 99.250088 243.096008 
L 99.887833 229.145033 
L 100.525578 259.098823 
L 101.163322 237.966957 
L 101.801067 247.199322 
L 102.438812 241.044412 
L 103.076556 251.712955 
L 103.714301 237.761858 
L 104.352046 258.893603 
L 104.98979 223.195221 
L 105.627535 224.836498 
L 106.26528 224.01586 
L 106.903024 236.94122 
L 107.540769 236.32568 
L 108.178514 242.890909 
L 108.816258 246.789003 
L 109.454003 222.169484 
L 110.091748 233.043126 
L 110.729492 220.117766 
L 111.367237 218.476489 
L 112.004981 241.249632 
L 112.642726 221.759165 
L 113.280471 242.070271 
L 113.918215 219.297128 
L 114.55596 221.759165 
L 115.193705 212.321579 
L 115.831449 223.400442 
L 116.469194 217.450631 
L 117.106939 217.655851 
L 117.744683 218.886809 
L 119.020173 216.219673 
L 119.657917 223.605541 
L 120.295662 211.91126 
L 120.933407 216.835212 
L 121.571151 214.373297 
L 122.208896 220.322987 
L 122.846641 211.91126 
L 123.484385 214.168077 
L 124.12213 215.399034 
L 124.759875 201.858256 
L 125.397619 221.143625 
L 126.035364 211.295842 
L 126.673109 210.064763 
L 127.310853 206.987429 
L 127.948598 201.037618 
L 128.586343 207.602847 
L 129.224087 222.990123 
L 129.861832 216.014574 
L 130.499576 224.6314 
L 131.137321 206.782209 
L 131.775066 203.089214 
L 132.41281 207.808068 
L 133.050555 219.297128 
L 133.6883 216.835212 
L 134.326044 209.859664 
L 134.963789 205.75635 
L 135.601534 216.424893 
L 136.239278 202.473796 
L 136.877023 212.321579 
L 137.514768 197.755064 
L 138.152512 214.578396 
L 138.790257 216.014574 
L 139.428002 204.935712 
L 140.065746 201.447937 
L 140.703491 212.731899 
L 141.97898 201.653158 
L 142.616725 191.189835 
L 143.25447 203.089214 
L 143.892214 200.4222 
L 144.529959 213.142218 
L 145.167704 203.089214 
L 145.805448 210.064763 
L 146.443193 200.011881 
L 147.080937 200.4222 
L 147.718682 199.191121 
L 148.356427 202.473796 
L 148.994171 200.21698 
L 149.631916 201.242838 
L 150.269661 204.935712 
L 150.907405 202.378051 
L 151.54515 200.4222 
L 152.182895 189.548558 
L 152.820639 197.344745 
L 153.458384 192.831112 
L 154.096129 212.321579 
L 154.733873 195.293027 
L 155.371618 198.165383 
L 156.009363 197.139524 
L 156.647107 195.293027 
L 157.284852 203.909974 
L 157.922597 208.628706 
L 158.560341 196.318886 
L 159.198086 203.294435 
L 159.835831 202.678895 
L 160.473575 187.086521 
L 161.11132 204.320293 
L 162.386809 187.086521 
L 163.024554 198.780801 
L 163.662299 186.881422 
L 164.300043 194.472389 
L 164.937788 190.574295 
L 165.575532 188.522699 
L 166.213277 217.655851 
L 166.851022 199.396341 
L 167.488766 196.318886 
L 168.126511 189.138239 
L 168.764256 199.191121 
L 169.402 201.447937 
L 170.039745 193.65175 
L 170.67749 198.575703 
L 172.590724 189.753657 
L 173.228468 194.26729 
L 173.866213 195.908567 
L 174.503958 193.241431 
L 175.141702 195.087928 
L 175.779447 209.244124 
L 176.417192 193.856971 
L 177.054936 201.653158 
L 177.692681 189.548558 
L 178.330426 186.881422 
L 178.96817 193.036332 
L 179.605915 185.855563 
L 180.24366 187.70206 
L 180.881404 197.344745 
L 181.519149 186.676202 
L 182.156893 197.549844 
L 182.794638 185.650464 
L 183.432383 190.779516 
L 184.070127 199.396341 
L 184.707872 183.598747 
L 185.345617 192.420792 
L 185.983361 187.49684 
L 186.621106 190.984614 
L 187.258851 176.212879 
L 187.896595 200.011881 
L 188.53434 186.676202 
L 189.172085 200.4222 
L 189.809829 189.753657 
L 190.447574 185.650464 
L 191.085319 195.293027 
L 191.723063 184.009066 
L 192.360808 195.498248 
L 192.998553 182.573009 
L 193.636297 175.39224 
L 194.274042 193.65175 
L 194.911787 185.445244 
L 195.549531 191.600154 
L 196.187276 187.49684 
L 196.825021 186.471103 
L 197.462765 176.623198 
L 198.10051 185.240145 
L 198.738255 186.676202 
L 199.375999 168.416692 
L 200.013744 174.571602 
L 200.651488 166.980635 
L 201.289233 185.445244 
L 201.926978 175.597461 
L 202.564722 190.574295 
L 203.202467 183.803967 
L 203.840212 174.571602 
L 204.477956 188.727919 
L 205.115701 184.419385 
L 205.753446 185.445244 
L 206.39119 178.059376 
L 207.028935 184.214286 
L 207.66668 188.522699 
L 208.304424 194.26729 
L 208.942169 182.367789 
L 209.579914 184.214286 
L 210.217658 188.11238 
L 210.855403 184.214286 
L 211.493148 179.085235 
L 212.130892 190.574295 
L 212.768637 188.933018 
L 213.406382 174.981921 
L 214.044126 180.316193 
L 214.681871 187.291741 
L 215.319616 177.854277 
L 215.95736 188.727919 
L 216.595105 188.522699 
L 217.232849 179.700653 
L 217.870594 178.674916 
L 218.508339 180.726512 
L 219.146083 193.65175 
L 219.783828 187.291741 
L 220.421573 187.086521 
L 221.059317 189.958877 
L 222.334807 177.649057 
L 222.972551 178.880015 
L 223.610296 177.033517 
L 224.248041 178.059376 
L 224.885785 172.930325 
L 225.52353 187.086521 
L 226.161275 179.290334 
L 226.799019 202.884115 
L 227.436764 179.700653 
L 228.074509 175.187141 
L 228.712253 178.469695 
L 229.349998 186.265882 
L 229.987743 195.703346 
L 230.625487 172.725105 
L 231.263232 175.39224 
L 231.900977 171.083828 
L 232.538721 173.340644 
L 233.176466 185.650464 
L 233.81421 182.573009 
L 234.451955 181.95747 
L 235.0897 187.291741 
L 235.727444 180.726512 
L 236.365189 175.80256 
L 237.002934 175.597461 
L 237.640678 175.187141 
L 238.278423 175.187141 
L 238.916168 179.085235 
L 239.553912 179.700653 
L 240.191657 180.110972 
L 240.829402 172.520006 
L 241.467146 174.161283 
L 242.104891 173.956062 
L 242.742636 171.289048 
L 243.38038 171.083828 
L 244.018125 188.522699 
L 244.65587 176.418099 
L 245.293614 178.059376 
L 245.931359 174.571602 
L 246.569104 176.212879 
L 247.206848 171.083828 
L 247.844593 178.880015 
L 248.482338 176.418099 
L 249.120082 172.930325 
L 249.757827 172.314785 
L 250.395572 175.80256 
L 251.033316 180.735382 
L 251.671061 178.880015 
L 252.308805 179.085235 
L 252.94655 173.135424 
L 253.584295 175.39224 
L 254.222039 180.521292 
L 254.859784 184.009066 
L 255.497529 173.340644 
L 256.135273 173.956062 
L 256.773018 181.95747 
L 257.410763 174.571602 
L 258.048507 174.571602 
L 258.686252 179.905873 
L 259.323997 172.930325 
L 260.599486 186.060784 
L 261.237231 190.779516 
L 261.874975 178.469695 
L 262.51272 179.495554 
L 263.150465 178.059376 
L 264.425954 182.778108 
L 265.063699 173.135424 
L 265.701443 171.699367 
L 266.339188 177.033517 
L 266.976933 169.032231 
L 267.614677 180.726512 
L 268.252422 179.290334 
L 268.890166 180.110972 
L 269.527911 177.854277 
L 270.165656 166.775415 
L 270.8034 172.725105 
L 271.441145 171.083828 
L 272.07889 173.135424 
L 272.716634 179.495554 
L 273.354379 172.520006 
L 273.992124 178.674916 
L 274.629868 170.673508 
L 275.267613 172.930325 
L 275.905358 177.238738 
L 276.543102 174.366503 
L 277.180847 179.290334 
L 277.818592 183.188427 
L 278.456336 174.366503 
L 279.094081 177.443837 
L 279.731826 182.983328 
L 280.36957 173.750963 
L 281.007315 169.032231 
L 281.64506 162.672101 
L 282.282804 180.931611 
L 282.920549 168.621912 
L 283.558294 171.289048 
L 284.196038 174.981921 
L 284.833783 171.494147 
L 285.471528 181.95747 
L 286.109272 167.801274 
L 286.747017 177.238738 
L 287.384761 168.621912 
L 288.022506 166.570194 
L 288.660251 173.135424 
L 289.297995 174.776822 
L 289.93574 172.725105 
L 290.573485 174.776822 
L 291.211229 156.927632 
L 291.848974 170.878729 
L 292.486719 175.39224 
L 293.124463 173.545743 
L 293.762208 173.340644 
L 294.399953 172.109686 
L 295.037697 171.699367 
L 295.675442 161.030824 
L 296.313187 186.676202 
L 296.950931 172.725105 
L 297.588676 179.085235 
L 298.226421 169.442551 
L 298.864165 183.803967 
L 299.50191 169.23733 
L 300.139655 175.597461 
L 300.777399 174.776822 
L 301.415144 170.468409 
L 302.052889 175.597461 
L 302.690633 179.290334 
L 303.328378 183.803967 
L 303.966122 169.23733 
L 304.603867 178.264596 
L 305.241612 176.212879 
L 305.879356 161.441143 
L 306.517101 170.673508 
L 307.154846 171.494147 
L 308.430335 178.059376 
L 309.06808 167.390954 
L 309.705824 159.799866 
L 310.343569 180.931611 
L 310.981314 163.08242 
L 311.619058 164.108279 
L 312.256803 180.110972 
L 312.894548 160.620505 
L 313.532292 167.596053 
L 314.170037 166.775415 
L 314.807782 176.418099 
L 315.445526 173.340644 
L 316.083271 156.722411 
L 316.721016 177.443837 
L 317.35876 163.287641 
L 317.996505 192.420792 
L 318.63425 161.236044 
L 319.271994 169.032231 
L 319.909739 166.775415 
L 320.547484 166.159875 
L 321.185228 175.597461 
L 321.822973 179.495554 
L 322.460717 165.339237 
L 323.098462 168.006373 
L 323.736207 171.904466 
L 324.373951 167.390954 
L 325.011696 165.749556 
L 325.649441 174.571602 
L 326.287185 171.699367 
L 326.92493 176.828418 
L 327.562675 159.389547 
L 328.200419 174.981921 
L 328.838164 170.263189 
L 329.475909 169.442551 
L 330.113653 166.570194 
L 330.751398 181.136831 
L 331.389143 156.106993 
L 332.026887 177.033517 
L 332.664632 173.956062 
L 333.302377 168.621912 
L 333.940121 172.930325 
L 334.577866 169.85287 
L 335.215611 171.289048 
L 335.853355 159.184327 
L 336.4911 168.211593 
L 337.128845 186.471103 
L 337.766589 157.13273 
L 338.404334 172.725105 
L 339.042078 169.442551 
L 339.679823 166.775415 
L 340.955312 174.981921 
L 341.593057 175.597461 
L 342.230802 178.880015 
L 342.868546 165.134138 
L 343.506291 178.469695 
L 344.144036 174.571602 
L 344.78178 174.776822 
L 345.419525 177.033517 
L 346.05727 168.621912 
L 346.695014 170.468409 
L 347.332759 165.954776 
L 347.970504 171.494147 
L 348.608248 165.544457 
L 349.245993 170.057969 
L 349.883738 168.621912 
L 350.521482 169.85287 
L 351.159227 175.630996 
L 351.796972 165.134138 
L 352.434716 164.313499 
L 353.072461 160.210185 
L 353.710206 165.749556 
L 354.34795 175.597461 
L 354.985695 171.083828 
L 355.62344 170.057969 
L 356.261184 166.570194 
L 356.898929 164.723819 
L 357.536673 170.878729 
L 358.174418 161.851462 
L 358.812163 158.363688 
L 359.449907 168.006373 
L 360.087652 164.928917 
L 360.725397 169.647649 
L 361.363141 168.006373 
L 362.000886 170.057969 
L 363.276375 161.646364 
L 363.91412 169.23733 
L 364.551865 162.877321 
L 365.189609 174.161283 
L 365.827354 158.568909 
L 366.465099 173.545743 
L 367.102843 164.108279 
L 367.740588 164.518598 
L 368.378333 162.877321 
L 369.016077 161.851462 
L 369.653822 157.13273 
L 370.291567 166.159875 
L 370.929311 167.596053 
L 371.567056 170.057969 
L 372.204801 171.289048 
L 372.842545 160.620505 
L 373.48029 161.030824 
L 374.118034 169.23733 
L 374.755779 158.979228 
L 375.393524 165.339237 
L 376.031268 168.416692 
L 376.669013 167.596053 
L 377.944502 162.672101 
L 378.582247 161.441143 
L 379.219992 164.108279 
L 379.857736 173.545743 
L 380.495481 162.056683 
L 381.133226 165.954776 
L 381.77097 153.234637 
L 382.408715 171.904466 
L 383.04646 162.877321 
L 383.684204 157.74827 
L 384.321949 158.979228 
L 384.959694 173.340644 
L 385.597438 166.775415 
L 386.235183 174.776822 
L 386.872928 180.110972 
L 387.510672 165.339237 
L 388.148417 173.340644 
L 388.786162 173.545743 
L 389.423906 155.081134 
L 390.061651 168.006373 
L 390.699396 166.159875 
L 391.33714 155.901773 
L 391.974885 172.930325 
L 392.612629 158.979228 
L 393.250374 164.723819 
L 393.888119 157.337951 
L 394.525863 163.69796 
L 395.163608 168.827011 
L 395.801353 156.312092 
L 396.439097 179.495554 
L 397.076842 156.312092 
L 397.714587 171.494147 
L 398.352331 169.647649 
L 398.990076 171.904466 
L 400.265565 158.158589 
L 400.90331 173.340644 
L 401.541055 158.774007 
L 402.178799 156.722411 
L 402.816544 167.596053 
L 403.454289 171.083828 
L 404.092033 167.801274 
L 404.729778 163.492861 
L 405.367523 160.825725 
L 406.005267 159.389547 
L 406.643012 178.059376 
L 407.280757 154.465595 
L 407.918501 167.801274 
L 408.556246 169.442551 
L 409.19399 159.184327 
L 409.831735 173.545743 
L 410.46948 160.005087 
L 411.107224 156.312092 
L 411.744969 171.699367 
L 412.382714 156.517312 
L 413.020458 165.134138 
L 413.658203 154.055275 
L 414.295948 162.877321 
L 414.933692 168.827011 
L 415.571437 158.363688 
L 416.209182 165.339237 
L 416.846926 157.54305 
L 417.484671 164.313499 
L 418.122416 164.518598 
L 418.76016 165.954776 
L 419.397905 161.030824 
L 420.03565 159.594767 
L 420.673394 165.339237 
L 421.311139 161.441143 
L 421.948884 150.97782 
L 422.586628 163.90318 
L 423.224373 164.108279 
L 423.862118 164.518598 
L 424.499862 165.954776 
L 425.137607 173.545743 
L 425.775352 159.594767 
L 426.413096 154.465595 
L 427.050841 168.006373 
L 427.688585 160.620505 
L 428.32633 167.801274 
L 428.964075 170.878729 
L 429.601819 166.570194 
L 430.239564 164.723819 
L 430.877309 157.953369 
L 431.515053 169.85287 
L 432.152798 161.030824 
L 432.790543 159.594767 
L 433.428287 160.825725 
L 434.066032 164.518598 
L 434.703777 172.109686 
L 435.341521 158.979228 
L 435.979266 171.494147 
L 436.617011 164.928917 
L 437.254755 163.90318 
L 437.8925 164.518598 
L 438.530245 156.106993 
L 439.167989 166.570194 
L 439.805734 165.954776 
L 440.443479 162.056683 
L 441.081223 157.337951 
L 441.718968 165.954776 
L 442.356713 165.134138 
L 442.994457 161.236044 
L 443.632202 160.210185 
L 444.269946 170.878729 
L 445.545436 166.159875 
L 446.18318 166.365096 
L 446.820925 167.801274 
L 447.45867 166.980635 
L 448.096414 164.723819 
L 449.371904 163.08242 
L 450.009648 164.723819 
L 450.647393 160.005087 
L 451.285138 159.909341 
L 451.922882 162.056683 
L 452.560627 171.494147 
L 453.198372 166.775415 
L 453.836116 164.723819 
L 454.473861 164.928917 
L 455.111606 163.492861 
L 455.74935 156.722411 
L 456.387095 163.08242 
L 457.02484 159.594767 
L 457.662584 161.441143 
L 458.300329 164.723819 
L 458.938074 164.928917 
L 459.575818 160.415406 
L 460.213563 159.799866 
L 460.851308 156.722411 
L 461.489052 156.312092 
L 462.126797 152.619219 
L 462.764541 168.006373 
L 463.402286 160.210185 
L 464.040031 154.465595 
L 464.677775 164.108279 
L 465.31552 160.825725 
L 465.953265 160.620505 
L 466.591009 161.851462 
L 467.228754 146.669408 
L 467.866499 168.211593 
L 468.504243 152.824318 
L 469.141988 166.365096 
L 469.779733 161.030824 
L 470.417477 167.390954 
L 471.055222 158.158589 
L 471.692967 161.236044 
L 472.330711 166.570194 
L 472.968456 156.106993 
L 473.606201 158.568909 
L 474.243945 163.492861 
L 475.519435 161.441143 
L 476.157179 156.106993 
L 476.794924 163.90318 
L 477.432669 156.312092 
L 478.070413 164.108279 
L 478.708158 163.08242 
L 479.345902 156.106993 
L 479.983647 159.389547 
L 480.621392 164.518598 
L 481.259136 158.568909 
L 481.896881 160.415406 
L 482.534626 152.619219 
L 483.17237 160.415406 
L 483.810115 156.312092 
L 484.44786 158.363688 
L 485.085604 157.953369 
L 485.723349 154.465595 
L 486.361094 158.158589 
L 486.998838 157.13273 
L 487.636583 158.774007 
L 488.274328 154.055275 
L 488.912072 167.390954 
L 489.549817 155.491453 
L 490.187562 151.798459 
L 490.825306 168.006373 
L 491.463051 157.337951 
L 492.73854 159.389547 
L 493.376285 163.90318 
L 494.01403 150.567501 
L 494.651774 163.69796 
L 495.289519 160.825725 
L 495.927264 162.877321 
L 496.565008 152.003679 
L 497.202753 169.85287 
L 497.840497 163.492861 
L 498.478242 160.210185 
L 499.115987 163.08242 
L 499.753731 145.848769 
L 500.391476 161.441143 
L 501.029221 159.799866 
L 501.666965 162.056683 
L 502.30471 156.722411 
L 502.942455 158.363688 
L 503.580199 161.441143 
L 504.217944 152.824318 
L 504.855689 160.210185 
L 505.493433 161.030824 
L 506.131178 169.23733 
L 506.768923 163.69796 
L 507.406667 159.184327 
L 508.044412 169.23733 
L 508.682157 155.286233 
L 509.319901 153.644956 
L 509.957646 168.006373 
L 511.233135 153.644956 
L 512.508625 161.851462 
L 513.146369 159.184327 
L 513.784114 163.287641 
L 514.421858 148.515905 
L 515.059603 155.696552 
L 515.697348 153.439857 
L 516.335092 158.363688 
L 516.972837 155.901773 
L 517.610582 159.184327 
L 518.248326 161.030824 
L 518.886071 158.568909 
L 519.523816 155.081134 
L 520.16156 170.263189 
L 520.799305 151.183041 
L 521.43705 165.544457 
L 522.074794 152.003679 
L 522.712539 162.467002 
L 523.350284 151.59336 
L 523.988028 169.23733 
L 524.625773 155.696552 
L 525.263518 155.286233 
L 525.901262 161.030824 
L 526.539007 151.38814 
L 527.176752 155.696552 
L 527.814496 158.774007 
L 528.452241 153.850177 
L 529.089986 154.055275 
L 530.365475 165.749556 
L 531.003219 153.850177 
L 531.640964 162.467002 
L 532.278709 156.517312 
L 532.916453 162.056683 
L 533.554198 162.672101 
L 534.191943 157.337951 
L 534.829687 158.979228 
L 535.467432 158.363688 
L 536.105177 158.158589 
L 536.742921 163.287641 
L 537.380666 165.954776 
L 538.018411 157.13273 
L 538.656155 161.441143 
L 539.2939 160.825725 
L 539.931645 156.927632 
L 540.569389 162.467002 
L 541.207134 160.415406 
L 541.844879 162.261782 
L 542.482623 161.030824 
L 543.120368 157.337951 
L 543.758113 160.415406 
L 544.395857 161.236044 
L 545.033602 158.363688 
L 545.671347 154.875914 
L 546.309091 157.13273 
L 546.946836 161.236044 
L 547.584581 159.799866 
L 549.497814 150.362402 
L 550.135559 156.106993 
L 550.773304 157.953369 
L 551.411048 155.621706 
L 552.048793 153.850177 
L 552.686538 152.824318 
L 553.324282 155.696552 
L 553.962027 155.491453 
L 554.599772 159.184327 
L 555.237516 155.696552 
L 555.875261 157.74827 
L 556.513006 153.644956 
L 557.15075 156.106993 
L 557.788495 153.029538 
L 558.42624 154.465595 
L 559.063984 154.875914 
L 559.701729 160.825725 
L 560.339474 149.541764 
L 560.977218 162.056683 
L 561.614963 161.646364 
L 562.252708 154.670815 
L 562.890452 155.286233 
L 563.528197 153.029538 
L 564.165942 162.056683 
L 564.803686 159.799866 
L 565.441431 152.824318 
L 566.079175 161.441143 
L 566.71692 159.799866 
L 567.354665 157.337951 
L 567.992409 161.030824 
L 568.630154 158.363688 
L 569.267899 159.389547 
L 569.905643 153.029538 
L 570.543388 157.13273 
L 571.181133 159.799866 
L 571.818877 157.337951 
L 572.456622 162.261782 
L 573.094367 158.979228 
L 573.732111 156.312092 
L 574.369856 157.953369 
L 575.007601 153.644956 
L 575.645345 156.517312 
L 576.28309 156.927632 
L 576.920835 150.772721 
L 577.558579 162.261782 
L 578.196324 149.541764 
L 578.834069 158.158589 
L 579.471813 156.927632 
L 580.109558 161.236044 
L 580.747303 157.74827 
L 581.385047 162.056683 
L 582.022792 155.901773 
L 582.660537 151.798459 
L 583.298281 161.030824 
L 583.936026 155.286233 
L 584.57377 157.74827 
L 585.211515 165.134138 
L 585.84926 152.619219 
L 586.487004 165.749556 
L 587.124749 157.13273 
L 587.762494 152.003679 
L 588.400238 162.467002 
L 589.037983 156.312092 
L 589.675728 159.799866 
L 590.313472 153.029538 
L 590.951217 165.954776 
L 591.588962 149.952083 
L 592.226706 163.90318 
L 592.864451 158.774007 
L 593.502196 159.389547 
L 594.777685 150.157182 
L 595.41543 160.005087 
L 596.053174 157.953369 
L 596.690919 156.312092 
L 597.328664 149.952083 
L 597.966408 150.772721 
L 598.604153 156.106993 
L 599.241898 159.799866 
L 599.879642 144.82291 
L 600.517387 155.901773 
L 601.155131 161.030824 
L 601.792876 145.028131 
L 602.430621 162.056683 
L 603.068365 153.850177 
L 603.70611 163.90318 
L 604.343855 150.97782 
L 604.981599 162.261782 
L 605.619344 153.234637 
L 606.257089 161.851462 
L 606.894833 153.234637 
L 607.532578 157.74827 
L 608.170323 154.670815 
L 608.808067 164.108279 
L 609.445812 154.465595 
L 610.083557 147.079727 
L 610.721301 163.69796 
L 611.359046 154.260496 
L 611.996791 155.081134 
L 612.634535 152.413998 
L 613.27228 160.415406 
L 613.910025 155.491453 
L 614.547769 162.672101 
L 615.823259 157.337951 
L 616.461003 154.670815 
L 617.098748 153.644956 
L 617.736493 160.415406 
L 618.374237 150.362402 
L 619.011982 155.081134 
L 619.649726 152.619219 
L 620.287471 161.441143 
L 620.925216 152.003679 
L 621.56296 153.234637 
L 622.200705 156.517312 
L 622.83845 156.312092 
L 623.476194 157.13273 
L 624.113939 153.234637 
L 624.751684 150.97782 
L 626.027173 148.310685 
L 626.664918 150.567501 
L 627.302662 158.774007 
L 627.940407 145.43845 
L 628.578152 155.901773 
L 629.215896 150.362402 
L 629.853641 149.746863 
L 630.491386 156.517312 
L 631.12913 154.670815 
L 631.766875 153.439857 
L 632.40462 157.953369 
L 633.042364 148.515905 
L 633.680109 157.953369 
L 634.317854 155.696552 
L 634.955598 150.97782 
L 635.593343 155.286233 
L 636.231087 152.208778 
L 636.868832 151.59336 
L 637.506577 157.54305 
L 638.144321 157.337951 
L 638.782066 153.439857 
L 639.419811 154.465595 
L 640.057555 152.619219 
L 640.6953 153.439857 
L 641.333045 149.541764 
L 641.970789 155.696552 
L 642.608534 150.97782 
L 643.884023 154.465595 
L 644.521768 151.59336 
L 645.159513 152.208778 
L 645.797257 157.74827 
L 646.435002 150.97782 
L 647.072747 151.38814 
L 647.710491 153.850177 
L 648.348236 157.74827 
L 648.985981 151.38814 
L 649.623725 154.055275 
L 650.26147 154.465595 
L 650.899215 153.029538 
L 651.536959 154.804955 
L 652.174704 152.413998 
L 652.812449 153.439857 
L 653.450193 150.362402 
L 654.087938 159.389547 
L 654.725682 155.286233 
L 655.363427 158.568909 
L 656.001172 154.260496 
L 656.638916 157.953369 
L 657.276661 153.234637 
L 657.914406 153.644956 
L 658.55215 153.234637 
L 659.189895 154.465595 
L 659.82764 154.670815 
L 660.465384 152.208778 
L 661.103129 153.234637 
L 661.740874 152.208778 
L 662.378618 153.850177 
L 663.016363 150.772721 
L 663.654108 155.081134 
L 664.291852 149.952083 
L 664.929597 150.772721 
L 665.567342 153.850177 
L 666.205086 150.772721 
L 666.842831 154.055275 
L 667.480576 151.59336 
L 668.11832 152.208778 
L 668.756065 146.669408 
L 669.39381 151.798459 
L 670.669299 155.286233 
L 671.307043 148.721125 
L 671.944788 152.003679 
L 672.582533 153.029538 
L 673.220277 152.824318 
L 673.858022 145.028131 
L 674.495767 157.13273 
L 675.133511 153.644956 
L 675.771256 154.260496 
L 676.409001 145.848769 
L 677.046745 153.234637 
L 677.68449 153.029538 
L 678.322235 154.670815 
L 678.959979 151.183041 
L 679.597724 153.439857 
L 680.235469 151.59336 
L 680.873213 152.208778 
L 681.510958 151.183041 
L 682.148703 157.54305 
L 682.786447 143.181633 
L 683.424192 160.210185 
L 684.061937 148.310685 
L 684.699681 158.774007 
L 685.337426 150.157182 
L 685.975171 153.850177 
L 686.612915 149.952083 
L 687.25066 157.337951 
L 687.888405 152.003679 
L 687.888405 152.003679 
" style="fill:none;stroke:#4daf4a;stroke-linecap:square;stroke-width:1.5;"/>
   </g>
   <g id="patch_3">
    <path d="M 50.14375 337.159219 
L 50.14375 10.999219 
" style="fill:none;stroke:#000000;stroke-linecap:square;stroke-linejoin:miter;stroke-width:0.8;"/>
   </g>
   <g id="patch_4">
    <path d="M 719.74375 337.159219 
L 719.74375 10.999219 
" style="fill:none;stroke:#000000;stroke-linecap:square;stroke-linejoin:miter;stroke-width:0.8;"/>
   </g>
   <g id="patch_5">
    <path d="M 50.14375 337.159219 
L 719.74375 337.159219 
" style="fill:none;stroke:#000000;stroke-linecap:square;stroke-linejoin:miter;stroke-width:0.8;"/>
   </g>
   <g id="patch_6">
    <path d="M 50.14375 10.999219 
L 719.74375 10.999219 
" style="fill:none;stroke:#000000;stroke-linecap:square;stroke-linejoin:miter;stroke-width:0.8;"/>
   </g>
   <g id="legend_1">
    <g id="patch_7">
     <path d="M 57.14375 48.355469 
L 114.584375 48.355469 
Q 116.584375 48.355469 116.584375 46.355469 
L 116.584375 17.999219 
Q 116.584375 15.999219 114.584375 15.999219 
L 57.14375 15.999219 
Q 55.14375 15.999219 55.14375 17.999219 
L 55.14375 46.355469 
Q 55.14375 48.355469 57.14375 48.355469 
z
" style="fill:#ffffff;opacity:0.8;stroke:#cccccc;stroke-linejoin:miter;"/>
    </g>
    <g id="line2d_33">
     <path d="M 59.14375 24.097656 
L 79.14375 24.097656 
" style="fill:none;stroke:#377eb8;stroke-linecap:square;stroke-width:1.5;"/>
    </g>
    <g id="line2d_34"/>
    <g id="text_18">
     <!-- Train -->
     <defs>
      <path d="M -0.296875 72.90625 
L 61.375 72.90625 
L 61.375 64.59375 
L 35.5 64.59375 
L 35.5 0 
L 25.59375 0 
L 25.59375 64.59375 
L -0.296875 64.59375 
z
" id="DejaVuSans-84"/>
      <path d="M 9.421875 54.6875 
L 18.40625 54.6875 
L 18.40625 0 
L 9.421875 0 
z
M 9.421875 75.984375 
L 18.40625 75.984375 
L 18.40625 64.59375 
L 9.421875 64.59375 
z
" id="DejaVuSans-105"/>
      <path d="M 54.890625 33.015625 
L 54.890625 0 
L 45.90625 0 
L 45.90625 32.71875 
Q 45.90625 40.484375 42.875 44.328125 
Q 39.84375 48.1875 33.796875 48.1875 
Q 26.515625 48.1875 22.3125 43.546875 
Q 18.109375 38.921875 18.109375 30.90625 
L 18.109375 0 
L 9.078125 0 
L 9.078125 54.6875 
L 18.109375 54.6875 
L 18.109375 46.1875 
Q 21.34375 51.125 25.703125 53.5625 
Q 30.078125 56 35.796875 56 
Q 45.21875 56 50.046875 50.171875 
Q 54.890625 44.34375 54.890625 33.015625 
z
" id="DejaVuSans-110"/>
     </defs>
     <g transform="translate(87.14375 27.597656)scale(0.1 -0.1)">
      <use xlink:href="#DejaVuSans-84"/>
      <use x="60.865234" xlink:href="#DejaVuSans-114"/>
      <use x="101.978516" xlink:href="#DejaVuSans-97"/>
      <use x="163.257812" xlink:href="#DejaVuSans-105"/>
      <use x="191.041016" xlink:href="#DejaVuSans-110"/>
     </g>
    </g>
    <g id="line2d_35">
     <path d="M 59.14375 38.775781 
L 79.14375 38.775781 
" style="fill:none;stroke:#4daf4a;stroke-linecap:square;stroke-width:1.5;"/>
    </g>
    <g id="line2d_36"/>
    <g id="text_19">
     <!-- Test -->
     <defs>
      <path d="M 56.203125 29.59375 
L 56.203125 25.203125 
L 14.890625 25.203125 
Q 15.484375 15.921875 20.484375 11.0625 
Q 25.484375 6.203125 34.421875 6.203125 
Q 39.59375 6.203125 44.453125 7.46875 
Q 49.3125 8.734375 54.109375 11.28125 
L 54.109375 2.78125 
Q 49.265625 0.734375 44.1875 -0.34375 
Q 39.109375 -1.421875 33.890625 -1.421875 
Q 20.796875 -1.421875 13.15625 6.1875 
Q 5.515625 13.8125 5.515625 26.8125 
Q 5.515625 40.234375 12.765625 48.109375 
Q 20.015625 56 32.328125 56 
Q 43.359375 56 49.78125 48.890625 
Q 56.203125 41.796875 56.203125 29.59375 
z
M 47.21875 32.234375 
Q 47.125 39.59375 43.09375 43.984375 
Q 39.0625 48.390625 32.421875 48.390625 
Q 24.90625 48.390625 20.390625 44.140625 
Q 15.875 39.890625 15.1875 32.171875 
z
" id="DejaVuSans-101"/>
      <path d="M 44.28125 53.078125 
L 44.28125 44.578125 
Q 40.484375 46.53125 36.375 47.5 
Q 32.28125 48.484375 27.875 48.484375 
Q 21.1875 48.484375 17.84375 46.4375 
Q 14.5 44.390625 14.5 40.28125 
Q 14.5 37.15625 16.890625 35.375 
Q 19.28125 33.59375 26.515625 31.984375 
L 29.59375 31.296875 
Q 39.15625 29.25 43.1875 25.515625 
Q 47.21875 21.78125 47.21875 15.09375 
Q 47.21875 7.46875 41.1875 3.015625 
Q 35.15625 -1.421875 24.609375 -1.421875 
Q 20.21875 -1.421875 15.453125 -0.5625 
Q 10.6875 0.296875 5.421875 2 
L 5.421875 11.28125 
Q 10.40625 8.6875 15.234375 7.390625 
Q 20.0625 6.109375 24.8125 6.109375 
Q 31.15625 6.109375 34.5625 8.28125 
Q 37.984375 10.453125 37.984375 14.40625 
Q 37.984375 18.0625 35.515625 20.015625 
Q 33.0625 21.96875 24.703125 23.78125 
L 21.578125 24.515625 
Q 13.234375 26.265625 9.515625 29.90625 
Q 5.8125 33.546875 5.8125 39.890625 
Q 5.8125 47.609375 11.28125 51.796875 
Q 16.75 56 26.8125 56 
Q 31.78125 56 36.171875 55.265625 
Q 40.578125 54.546875 44.28125 53.078125 
z
" id="DejaVuSans-115"/>
      <path d="M 18.3125 70.21875 
L 18.3125 54.6875 
L 36.8125 54.6875 
L 36.8125 47.703125 
L 18.3125 47.703125 
L 18.3125 18.015625 
Q 18.3125 11.328125 20.140625 9.421875 
Q 21.96875 7.515625 27.59375 7.515625 
L 36.8125 7.515625 
L 36.8125 0 
L 27.59375 0 
Q 17.1875 0 13.234375 3.875 
Q 9.28125 7.765625 9.28125 18.015625 
L 9.28125 47.703125 
L 2.6875 47.703125 
L 2.6875 54.6875 
L 9.28125 54.6875 
L 9.28125 70.21875 
z
" id="DejaVuSans-116"/>
     </defs>
     <g transform="translate(87.14375 42.275781)scale(0.1 -0.1)">
      <use xlink:href="#DejaVuSans-84"/>
      <use x="60.818359" xlink:href="#DejaVuSans-101"/>
      <use x="122.341797" xlink:href="#DejaVuSans-115"/>
      <use x="174.441406" xlink:href="#DejaVuSans-116"/>
     </g>
    </g>
   </g>
  </g>
 </g>
 <defs>
  <clipPath id="p0e636209e5">
   <rect height="326.16" width="669.6" x="50.14375" y="10.999219"/>
  </clipPath>
 </defs>
</svg>
