<?xml version="1.0" encoding="utf-8" standalone="no"?>
<!DOCTYPE svg PUBLIC "-//W3C//DTD SVG 1.1//EN"
  "http://www.w3.org/Graphics/SVG/1.1/DTD/svg11.dtd">
<!-- Created with matplotlib (https://matplotlib.org/) -->
<svg height="374.715469pt" version="1.1" viewBox="0 0 726.94375 374.715469" width="726.94375pt" xmlns="http://www.w3.org/2000/svg" xmlns:xlink="http://www.w3.org/1999/xlink">
 <defs>
  <style type="text/css">
*{stroke-linecap:butt;stroke-linejoin:round;white-space:pre;}
  </style>
 </defs>
 <g id="figure_1">
  <g id="patch_1">
   <path d="M 0 374.715469 
L 726.94375 374.715469 
L 726.94375 0 
L 0 0 
z
" style="fill:#ffffff;"/>
  </g>
  <g id="axes_1">
   <g id="patch_2">
    <path d="M 50.14375 337.159219 
L 719.74375 337.159219 
L 719.74375 10.999219 
L 50.14375 10.999219 
z
" style="fill:#ffffff;"/>
   </g>
   <g id="matplotlib.axis_1">
    <g id="xtick_1">
     <g id="line2d_1">
      <path clip-path="url(#p340476bd23)" d="M 50.14375 337.159219 
L 50.14375 10.999219 
" style="fill:none;stroke:#b0b0b0;stroke-linecap:square;stroke-width:0.8;"/>
     </g>
     <g id="line2d_2">
      <defs>
       <path d="M 0 0 
L 0 3.5 
" id="m34ef04a5f5" style="stroke:#000000;stroke-width:0.8;"/>
      </defs>
      <g>
       <use style="stroke:#000000;stroke-width:0.8;" x="50.14375" xlink:href="#m34ef04a5f5" y="337.159219"/>
      </g>
     </g>
     <g id="text_1">
      <!-- 0 -->
      <defs>
       <path d="M 31.78125 66.40625 
Q 24.171875 66.40625 20.328125 58.90625 
Q 16.5 51.421875 16.5 36.375 
Q 16.5 21.390625 20.328125 13.890625 
Q 24.171875 6.390625 31.78125 6.390625 
Q 39.453125 6.390625 43.28125 13.890625 
Q 47.125 21.390625 47.125 36.375 
Q 47.125 51.421875 43.28125 58.90625 
Q 39.453125 66.40625 31.78125 66.40625 
z
M 31.78125 74.21875 
Q 44.046875 74.21875 50.515625 64.515625 
Q 56.984375 54.828125 56.984375 36.375 
Q 56.984375 17.96875 50.515625 8.265625 
Q 44.046875 -1.421875 31.78125 -1.421875 
Q 19.53125 -1.421875 13.0625 8.265625 
Q 6.59375 17.96875 6.59375 36.375 
Q 6.59375 54.828125 13.0625 64.515625 
Q 19.53125 74.21875 31.78125 74.21875 
z
" id="DejaVuSans-48"/>
      </defs>
      <g transform="translate(46.9625 351.757656)scale(0.1 -0.1)">
       <use xlink:href="#DejaVuSans-48"/>
      </g>
     </g>
    </g>
    <g id="xtick_2">
     <g id="line2d_3">
      <path clip-path="url(#p340476bd23)" d="M 129.867527 337.159219 
L 129.867527 10.999219 
" style="fill:none;stroke:#b0b0b0;stroke-linecap:square;stroke-width:0.8;"/>
     </g>
     <g id="line2d_4">
      <g>
       <use style="stroke:#000000;stroke-width:0.8;" x="129.867527" xlink:href="#m34ef04a5f5" y="337.159219"/>
      </g>
     </g>
     <g id="text_2">
      <!-- 50 -->
      <defs>
       <path d="M 10.796875 72.90625 
L 49.515625 72.90625 
L 49.515625 64.59375 
L 19.828125 64.59375 
L 19.828125 46.734375 
Q 21.96875 47.46875 24.109375 47.828125 
Q 26.265625 48.1875 28.421875 48.1875 
Q 40.625 48.1875 47.75 41.5 
Q 54.890625 34.8125 54.890625 23.390625 
Q 54.890625 11.625 47.5625 5.09375 
Q 40.234375 -1.421875 26.90625 -1.421875 
Q 22.3125 -1.421875 17.546875 -0.640625 
Q 12.796875 0.140625 7.71875 1.703125 
L 7.71875 11.625 
Q 12.109375 9.234375 16.796875 8.0625 
Q 21.484375 6.890625 26.703125 6.890625 
Q 35.15625 6.890625 40.078125 11.328125 
Q 45.015625 15.765625 45.015625 23.390625 
Q 45.015625 31 40.078125 35.4375 
Q 35.15625 39.890625 26.703125 39.890625 
Q 22.75 39.890625 18.8125 39.015625 
Q 14.890625 38.140625 10.796875 36.28125 
z
" id="DejaVuSans-53"/>
      </defs>
      <g transform="translate(123.505027 351.757656)scale(0.1 -0.1)">
       <use xlink:href="#DejaVuSans-53"/>
       <use x="63.623047" xlink:href="#DejaVuSans-48"/>
      </g>
     </g>
    </g>
    <g id="xtick_3">
     <g id="line2d_5">
      <path clip-path="url(#p340476bd23)" d="M 209.591303 337.159219 
L 209.591303 10.999219 
" style="fill:none;stroke:#b0b0b0;stroke-linecap:square;stroke-width:0.8;"/>
     </g>
     <g id="line2d_6">
      <g>
       <use style="stroke:#000000;stroke-width:0.8;" x="209.591303" xlink:href="#m34ef04a5f5" y="337.159219"/>
      </g>
     </g>
     <g id="text_3">
      <!-- 100 -->
      <defs>
       <path d="M 12.40625 8.296875 
L 28.515625 8.296875 
L 28.515625 63.921875 
L 10.984375 60.40625 
L 10.984375 69.390625 
L 28.421875 72.90625 
L 38.28125 72.90625 
L 38.28125 8.296875 
L 54.390625 8.296875 
L 54.390625 0 
L 12.40625 0 
z
" id="DejaVuSans-49"/>
      </defs>
      <g transform="translate(200.047553 351.757656)scale(0.1 -0.1)">
       <use xlink:href="#DejaVuSans-49"/>
       <use x="63.623047" xlink:href="#DejaVuSans-48"/>
       <use x="127.246094" xlink:href="#DejaVuSans-48"/>
      </g>
     </g>
    </g>
    <g id="xtick_4">
     <g id="line2d_7">
      <path clip-path="url(#p340476bd23)" d="M 289.31508 337.159219 
L 289.31508 10.999219 
" style="fill:none;stroke:#b0b0b0;stroke-linecap:square;stroke-width:0.8;"/>
     </g>
     <g id="line2d_8">
      <g>
       <use style="stroke:#000000;stroke-width:0.8;" x="289.31508" xlink:href="#m34ef04a5f5" y="337.159219"/>
      </g>
     </g>
     <g id="text_4">
      <!-- 150 -->
      <g transform="translate(279.77133 351.757656)scale(0.1 -0.1)">
       <use xlink:href="#DejaVuSans-49"/>
       <use x="63.623047" xlink:href="#DejaVuSans-53"/>
       <use x="127.246094" xlink:href="#DejaVuSans-48"/>
      </g>
     </g>
    </g>
    <g id="xtick_5">
     <g id="line2d_9">
      <path clip-path="url(#p340476bd23)" d="M 369.038857 337.159219 
L 369.038857 10.999219 
" style="fill:none;stroke:#b0b0b0;stroke-linecap:square;stroke-width:0.8;"/>
     </g>
     <g id="line2d_10">
      <g>
       <use style="stroke:#000000;stroke-width:0.8;" x="369.038857" xlink:href="#m34ef04a5f5" y="337.159219"/>
      </g>
     </g>
     <g id="text_5">
      <!-- 200 -->
      <defs>
       <path d="M 19.1875 8.296875 
L 53.609375 8.296875 
L 53.609375 0 
L 7.328125 0 
L 7.328125 8.296875 
Q 12.9375 14.109375 22.625 23.890625 
Q 32.328125 33.6875 34.8125 36.53125 
Q 39.546875 41.84375 41.421875 45.53125 
Q 43.3125 49.21875 43.3125 52.78125 
Q 43.3125 58.59375 39.234375 62.25 
Q 35.15625 65.921875 28.609375 65.921875 
Q 23.96875 65.921875 18.8125 64.3125 
Q 13.671875 62.703125 7.8125 59.421875 
L 7.8125 69.390625 
Q 13.765625 71.78125 18.9375 73 
Q 24.125 74.21875 28.421875 74.21875 
Q 39.75 74.21875 46.484375 68.546875 
Q 53.21875 62.890625 53.21875 53.421875 
Q 53.21875 48.921875 51.53125 44.890625 
Q 49.859375 40.875 45.40625 35.40625 
Q 44.1875 33.984375 37.640625 27.21875 
Q 31.109375 20.453125 19.1875 8.296875 
z
" id="DejaVuSans-50"/>
      </defs>
      <g transform="translate(359.495107 351.757656)scale(0.1 -0.1)">
       <use xlink:href="#DejaVuSans-50"/>
       <use x="63.623047" xlink:href="#DejaVuSans-48"/>
       <use x="127.246094" xlink:href="#DejaVuSans-48"/>
      </g>
     </g>
    </g>
    <g id="xtick_6">
     <g id="line2d_11">
      <path clip-path="url(#p340476bd23)" d="M 448.762633 337.159219 
L 448.762633 10.999219 
" style="fill:none;stroke:#b0b0b0;stroke-linecap:square;stroke-width:0.8;"/>
     </g>
     <g id="line2d_12">
      <g>
       <use style="stroke:#000000;stroke-width:0.8;" x="448.762633" xlink:href="#m34ef04a5f5" y="337.159219"/>
      </g>
     </g>
     <g id="text_6">
      <!-- 250 -->
      <g transform="translate(439.218883 351.757656)scale(0.1 -0.1)">
       <use xlink:href="#DejaVuSans-50"/>
       <use x="63.623047" xlink:href="#DejaVuSans-53"/>
       <use x="127.246094" xlink:href="#DejaVuSans-48"/>
      </g>
     </g>
    </g>
    <g id="xtick_7">
     <g id="line2d_13">
      <path clip-path="url(#p340476bd23)" d="M 528.48641 337.159219 
L 528.48641 10.999219 
" style="fill:none;stroke:#b0b0b0;stroke-linecap:square;stroke-width:0.8;"/>
     </g>
     <g id="line2d_14">
      <g>
       <use style="stroke:#000000;stroke-width:0.8;" x="528.48641" xlink:href="#m34ef04a5f5" y="337.159219"/>
      </g>
     </g>
     <g id="text_7">
      <!-- 300 -->
      <defs>
       <path d="M 40.578125 39.3125 
Q 47.65625 37.796875 51.625 33 
Q 55.609375 28.21875 55.609375 21.1875 
Q 55.609375 10.40625 48.1875 4.484375 
Q 40.765625 -1.421875 27.09375 -1.421875 
Q 22.515625 -1.421875 17.65625 -0.515625 
Q 12.796875 0.390625 7.625 2.203125 
L 7.625 11.71875 
Q 11.71875 9.328125 16.59375 8.109375 
Q 21.484375 6.890625 26.8125 6.890625 
Q 36.078125 6.890625 40.9375 10.546875 
Q 45.796875 14.203125 45.796875 21.1875 
Q 45.796875 27.640625 41.28125 31.265625 
Q 36.765625 34.90625 28.71875 34.90625 
L 20.21875 34.90625 
L 20.21875 43.015625 
L 29.109375 43.015625 
Q 36.375 43.015625 40.234375 45.921875 
Q 44.09375 48.828125 44.09375 54.296875 
Q 44.09375 59.90625 40.109375 62.90625 
Q 36.140625 65.921875 28.71875 65.921875 
Q 24.65625 65.921875 20.015625 65.03125 
Q 15.375 64.15625 9.8125 62.3125 
L 9.8125 71.09375 
Q 15.4375 72.65625 20.34375 73.4375 
Q 25.25 74.21875 29.59375 74.21875 
Q 40.828125 74.21875 47.359375 69.109375 
Q 53.90625 64.015625 53.90625 55.328125 
Q 53.90625 49.265625 50.4375 45.09375 
Q 46.96875 40.921875 40.578125 39.3125 
z
" id="DejaVuSans-51"/>
      </defs>
      <g transform="translate(518.94266 351.757656)scale(0.1 -0.1)">
       <use xlink:href="#DejaVuSans-51"/>
       <use x="63.623047" xlink:href="#DejaVuSans-48"/>
       <use x="127.246094" xlink:href="#DejaVuSans-48"/>
      </g>
     </g>
    </g>
    <g id="xtick_8">
     <g id="line2d_15">
      <path clip-path="url(#p340476bd23)" d="M 608.210186 337.159219 
L 608.210186 10.999219 
" style="fill:none;stroke:#b0b0b0;stroke-linecap:square;stroke-width:0.8;"/>
     </g>
     <g id="line2d_16">
      <g>
       <use style="stroke:#000000;stroke-width:0.8;" x="608.210186" xlink:href="#m34ef04a5f5" y="337.159219"/>
      </g>
     </g>
     <g id="text_8">
      <!-- 350 -->
      <g transform="translate(598.666436 351.757656)scale(0.1 -0.1)">
       <use xlink:href="#DejaVuSans-51"/>
       <use x="63.623047" xlink:href="#DejaVuSans-53"/>
       <use x="127.246094" xlink:href="#DejaVuSans-48"/>
      </g>
     </g>
    </g>
    <g id="xtick_9">
     <g id="line2d_17">
      <path clip-path="url(#p340476bd23)" d="M 687.933963 337.159219 
L 687.933963 10.999219 
" style="fill:none;stroke:#b0b0b0;stroke-linecap:square;stroke-width:0.8;"/>
     </g>
     <g id="line2d_18">
      <g>
       <use style="stroke:#000000;stroke-width:0.8;" x="687.933963" xlink:href="#m34ef04a5f5" y="337.159219"/>
      </g>
     </g>
     <g id="text_9">
      <!-- 400 -->
      <defs>
       <path d="M 37.796875 64.3125 
L 12.890625 25.390625 
L 37.796875 25.390625 
z
M 35.203125 72.90625 
L 47.609375 72.90625 
L 47.609375 25.390625 
L 58.015625 25.390625 
L 58.015625 17.1875 
L 47.609375 17.1875 
L 47.609375 0 
L 37.796875 0 
L 37.796875 17.1875 
L 4.890625 17.1875 
L 4.890625 26.703125 
z
" id="DejaVuSans-52"/>
      </defs>
      <g transform="translate(678.390213 351.757656)scale(0.1 -0.1)">
       <use xlink:href="#DejaVuSans-52"/>
       <use x="63.623047" xlink:href="#DejaVuSans-48"/>
       <use x="127.246094" xlink:href="#DejaVuSans-48"/>
      </g>
     </g>
    </g>
    <g id="text_10">
     <!-- Epoch -->
     <defs>
      <path d="M 9.8125 72.90625 
L 55.90625 72.90625 
L 55.90625 64.59375 
L 19.671875 64.59375 
L 19.671875 43.015625 
L 54.390625 43.015625 
L 54.390625 34.71875 
L 19.671875 34.71875 
L 19.671875 8.296875 
L 56.78125 8.296875 
L 56.78125 0 
L 9.8125 0 
z
" id="DejaVuSans-69"/>
      <path d="M 18.109375 8.203125 
L 18.109375 -20.796875 
L 9.078125 -20.796875 
L 9.078125 54.6875 
L 18.109375 54.6875 
L 18.109375 46.390625 
Q 20.953125 51.265625 25.265625 53.625 
Q 29.59375 56 35.59375 56 
Q 45.5625 56 51.78125 48.09375 
Q 58.015625 40.1875 58.015625 27.296875 
Q 58.015625 14.40625 51.78125 6.484375 
Q 45.5625 -1.421875 35.59375 -1.421875 
Q 29.59375 -1.421875 25.265625 0.953125 
Q 20.953125 3.328125 18.109375 8.203125 
z
M 48.6875 27.296875 
Q 48.6875 37.203125 44.609375 42.84375 
Q 40.53125 48.484375 33.40625 48.484375 
Q 26.265625 48.484375 22.1875 42.84375 
Q 18.109375 37.203125 18.109375 27.296875 
Q 18.109375 17.390625 22.1875 11.75 
Q 26.265625 6.109375 33.40625 6.109375 
Q 40.53125 6.109375 44.609375 11.75 
Q 48.6875 17.390625 48.6875 27.296875 
z
" id="DejaVuSans-112"/>
      <path d="M 30.609375 48.390625 
Q 23.390625 48.390625 19.1875 42.75 
Q 14.984375 37.109375 14.984375 27.296875 
Q 14.984375 17.484375 19.15625 11.84375 
Q 23.34375 6.203125 30.609375 6.203125 
Q 37.796875 6.203125 41.984375 11.859375 
Q 46.1875 17.53125 46.1875 27.296875 
Q 46.1875 37.015625 41.984375 42.703125 
Q 37.796875 48.390625 30.609375 48.390625 
z
M 30.609375 56 
Q 42.328125 56 49.015625 48.375 
Q 55.71875 40.765625 55.71875 27.296875 
Q 55.71875 13.875 49.015625 6.21875 
Q 42.328125 -1.421875 30.609375 -1.421875 
Q 18.84375 -1.421875 12.171875 6.21875 
Q 5.515625 13.875 5.515625 27.296875 
Q 5.515625 40.765625 12.171875 48.375 
Q 18.84375 56 30.609375 56 
z
" id="DejaVuSans-111"/>
      <path d="M 48.78125 52.59375 
L 48.78125 44.1875 
Q 44.96875 46.296875 41.140625 47.34375 
Q 37.3125 48.390625 33.40625 48.390625 
Q 24.65625 48.390625 19.8125 42.84375 
Q 14.984375 37.3125 14.984375 27.296875 
Q 14.984375 17.28125 19.8125 11.734375 
Q 24.65625 6.203125 33.40625 6.203125 
Q 37.3125 6.203125 41.140625 7.25 
Q 44.96875 8.296875 48.78125 10.40625 
L 48.78125 2.09375 
Q 45.015625 0.34375 40.984375 -0.53125 
Q 36.96875 -1.421875 32.421875 -1.421875 
Q 20.0625 -1.421875 12.78125 6.34375 
Q 5.515625 14.109375 5.515625 27.296875 
Q 5.515625 40.671875 12.859375 48.328125 
Q 20.21875 56 33.015625 56 
Q 37.15625 56 41.109375 55.140625 
Q 45.0625 54.296875 48.78125 52.59375 
z
" id="DejaVuSans-99"/>
      <path d="M 54.890625 33.015625 
L 54.890625 0 
L 45.90625 0 
L 45.90625 32.71875 
Q 45.90625 40.484375 42.875 44.328125 
Q 39.84375 48.1875 33.796875 48.1875 
Q 26.515625 48.1875 22.3125 43.546875 
Q 18.109375 38.921875 18.109375 30.90625 
L 18.109375 0 
L 9.078125 0 
L 9.078125 75.984375 
L 18.109375 75.984375 
L 18.109375 46.1875 
Q 21.34375 51.125 25.703125 53.5625 
Q 30.078125 56 35.796875 56 
Q 45.21875 56 50.046875 50.171875 
Q 54.890625 44.34375 54.890625 33.015625 
z
" id="DejaVuSans-104"/>
     </defs>
     <g transform="translate(369.632813 365.435781)scale(0.1 -0.1)">
      <use xlink:href="#DejaVuSans-69"/>
      <use x="63.183594" xlink:href="#DejaVuSans-112"/>
      <use x="126.660156" xlink:href="#DejaVuSans-111"/>
      <use x="187.841797" xlink:href="#DejaVuSans-99"/>
      <use x="242.822266" xlink:href="#DejaVuSans-104"/>
     </g>
    </g>
   </g>
   <g id="matplotlib.axis_2">
    <g id="ytick_1">
     <g id="line2d_19">
      <path clip-path="url(#p340476bd23)" d="M 50.14375 337.159219 
L 719.74375 337.159219 
" style="fill:none;stroke:#b0b0b0;stroke-linecap:square;stroke-width:0.8;"/>
     </g>
     <g id="line2d_20">
      <defs>
       <path d="M 0 0 
L -3.5 0 
" id="m8ceaafb107" style="stroke:#000000;stroke-width:0.8;"/>
      </defs>
      <g>
       <use style="stroke:#000000;stroke-width:0.8;" x="50.14375" xlink:href="#m8ceaafb107" y="337.159219"/>
      </g>
     </g>
     <g id="text_11">
      <!-- 0.82 -->
      <defs>
       <path d="M 10.6875 12.40625 
L 21 12.40625 
L 21 0 
L 10.6875 0 
z
" id="DejaVuSans-46"/>
       <path d="M 31.78125 34.625 
Q 24.75 34.625 20.71875 30.859375 
Q 16.703125 27.09375 16.703125 20.515625 
Q 16.703125 13.921875 20.71875 10.15625 
Q 24.75 6.390625 31.78125 6.390625 
Q 38.8125 6.390625 42.859375 10.171875 
Q 46.921875 13.96875 46.921875 20.515625 
Q 46.921875 27.09375 42.890625 30.859375 
Q 38.875 34.625 31.78125 34.625 
z
M 21.921875 38.8125 
Q 15.578125 40.375 12.03125 44.71875 
Q 8.5 49.078125 8.5 55.328125 
Q 8.5 64.0625 14.71875 69.140625 
Q 20.953125 74.21875 31.78125 74.21875 
Q 42.671875 74.21875 48.875 69.140625 
Q 55.078125 64.0625 55.078125 55.328125 
Q 55.078125 49.078125 51.53125 44.71875 
Q 48 40.375 41.703125 38.8125 
Q 48.828125 37.15625 52.796875 32.3125 
Q 56.78125 27.484375 56.78125 20.515625 
Q 56.78125 9.90625 50.3125 4.234375 
Q 43.84375 -1.421875 31.78125 -1.421875 
Q 19.734375 -1.421875 13.25 4.234375 
Q 6.78125 9.90625 6.78125 20.515625 
Q 6.78125 27.484375 10.78125 32.3125 
Q 14.796875 37.15625 21.921875 38.8125 
z
M 18.3125 54.390625 
Q 18.3125 48.734375 21.84375 45.5625 
Q 25.390625 42.390625 31.78125 42.390625 
Q 38.140625 42.390625 41.71875 45.5625 
Q 45.3125 48.734375 45.3125 54.390625 
Q 45.3125 60.0625 41.71875 63.234375 
Q 38.140625 66.40625 31.78125 66.40625 
Q 25.390625 66.40625 21.84375 63.234375 
Q 18.3125 60.0625 18.3125 54.390625 
z
" id="DejaVuSans-56"/>
      </defs>
      <g transform="translate(20.878125 340.958437)scale(0.1 -0.1)">
       <use xlink:href="#DejaVuSans-48"/>
       <use x="63.623047" xlink:href="#DejaVuSans-46"/>
       <use x="95.410156" xlink:href="#DejaVuSans-56"/>
       <use x="159.033203" xlink:href="#DejaVuSans-50"/>
      </g>
     </g>
    </g>
    <g id="ytick_2">
     <g id="line2d_21">
      <path clip-path="url(#p340476bd23)" d="M 50.14375 296.389219 
L 719.74375 296.389219 
" style="fill:none;stroke:#b0b0b0;stroke-linecap:square;stroke-width:0.8;"/>
     </g>
     <g id="line2d_22">
      <g>
       <use style="stroke:#000000;stroke-width:0.8;" x="50.14375" xlink:href="#m8ceaafb107" y="296.389219"/>
      </g>
     </g>
     <g id="text_12">
      <!-- 0.84 -->
      <g transform="translate(20.878125 300.188437)scale(0.1 -0.1)">
       <use xlink:href="#DejaVuSans-48"/>
       <use x="63.623047" xlink:href="#DejaVuSans-46"/>
       <use x="95.410156" xlink:href="#DejaVuSans-56"/>
       <use x="159.033203" xlink:href="#DejaVuSans-52"/>
      </g>
     </g>
    </g>
    <g id="ytick_3">
     <g id="line2d_23">
      <path clip-path="url(#p340476bd23)" d="M 50.14375 255.619219 
L 719.74375 255.619219 
" style="fill:none;stroke:#b0b0b0;stroke-linecap:square;stroke-width:0.8;"/>
     </g>
     <g id="line2d_24">
      <g>
       <use style="stroke:#000000;stroke-width:0.8;" x="50.14375" xlink:href="#m8ceaafb107" y="255.619219"/>
      </g>
     </g>
     <g id="text_13">
      <!-- 0.86 -->
      <defs>
       <path d="M 33.015625 40.375 
Q 26.375 40.375 22.484375 35.828125 
Q 18.609375 31.296875 18.609375 23.390625 
Q 18.609375 15.53125 22.484375 10.953125 
Q 26.375 6.390625 33.015625 6.390625 
Q 39.65625 6.390625 43.53125 10.953125 
Q 47.40625 15.53125 47.40625 23.390625 
Q 47.40625 31.296875 43.53125 35.828125 
Q 39.65625 40.375 33.015625 40.375 
z
M 52.59375 71.296875 
L 52.59375 62.3125 
Q 48.875 64.0625 45.09375 64.984375 
Q 41.3125 65.921875 37.59375 65.921875 
Q 27.828125 65.921875 22.671875 59.328125 
Q 17.53125 52.734375 16.796875 39.40625 
Q 19.671875 43.65625 24.015625 45.921875 
Q 28.375 48.1875 33.59375 48.1875 
Q 44.578125 48.1875 50.953125 41.515625 
Q 57.328125 34.859375 57.328125 23.390625 
Q 57.328125 12.15625 50.6875 5.359375 
Q 44.046875 -1.421875 33.015625 -1.421875 
Q 20.359375 -1.421875 13.671875 8.265625 
Q 6.984375 17.96875 6.984375 36.375 
Q 6.984375 53.65625 15.1875 63.9375 
Q 23.390625 74.21875 37.203125 74.21875 
Q 40.921875 74.21875 44.703125 73.484375 
Q 48.484375 72.75 52.59375 71.296875 
z
" id="DejaVuSans-54"/>
      </defs>
      <g transform="translate(20.878125 259.418437)scale(0.1 -0.1)">
       <use xlink:href="#DejaVuSans-48"/>
       <use x="63.623047" xlink:href="#DejaVuSans-46"/>
       <use x="95.410156" xlink:href="#DejaVuSans-56"/>
       <use x="159.033203" xlink:href="#DejaVuSans-54"/>
      </g>
     </g>
    </g>
    <g id="ytick_4">
     <g id="line2d_25">
      <path clip-path="url(#p340476bd23)" d="M 50.14375 214.849219 
L 719.74375 214.849219 
" style="fill:none;stroke:#b0b0b0;stroke-linecap:square;stroke-width:0.8;"/>
     </g>
     <g id="line2d_26">
      <g>
       <use style="stroke:#000000;stroke-width:0.8;" x="50.14375" xlink:href="#m8ceaafb107" y="214.849219"/>
      </g>
     </g>
     <g id="text_14">
      <!-- 0.88 -->
      <g transform="translate(20.878125 218.648437)scale(0.1 -0.1)">
       <use xlink:href="#DejaVuSans-48"/>
       <use x="63.623047" xlink:href="#DejaVuSans-46"/>
       <use x="95.410156" xlink:href="#DejaVuSans-56"/>
       <use x="159.033203" xlink:href="#DejaVuSans-56"/>
      </g>
     </g>
    </g>
    <g id="ytick_5">
     <g id="line2d_27">
      <path clip-path="url(#p340476bd23)" d="M 50.14375 174.079219 
L 719.74375 174.079219 
" style="fill:none;stroke:#b0b0b0;stroke-linecap:square;stroke-width:0.8;"/>
     </g>
     <g id="line2d_28">
      <g>
       <use style="stroke:#000000;stroke-width:0.8;" x="50.14375" xlink:href="#m8ceaafb107" y="174.079219"/>
      </g>
     </g>
     <g id="text_15">
      <!-- 0.90 -->
      <defs>
       <path d="M 10.984375 1.515625 
L 10.984375 10.5 
Q 14.703125 8.734375 18.5 7.8125 
Q 22.3125 6.890625 25.984375 6.890625 
Q 35.75 6.890625 40.890625 13.453125 
Q 46.046875 20.015625 46.78125 33.40625 
Q 43.953125 29.203125 39.59375 26.953125 
Q 35.25 24.703125 29.984375 24.703125 
Q 19.046875 24.703125 12.671875 31.3125 
Q 6.296875 37.9375 6.296875 49.421875 
Q 6.296875 60.640625 12.9375 67.421875 
Q 19.578125 74.21875 30.609375 74.21875 
Q 43.265625 74.21875 49.921875 64.515625 
Q 56.59375 54.828125 56.59375 36.375 
Q 56.59375 19.140625 48.40625 8.859375 
Q 40.234375 -1.421875 26.421875 -1.421875 
Q 22.703125 -1.421875 18.890625 -0.6875 
Q 15.09375 0.046875 10.984375 1.515625 
z
M 30.609375 32.421875 
Q 37.25 32.421875 41.125 36.953125 
Q 45.015625 41.5 45.015625 49.421875 
Q 45.015625 57.28125 41.125 61.84375 
Q 37.25 66.40625 30.609375 66.40625 
Q 23.96875 66.40625 20.09375 61.84375 
Q 16.21875 57.28125 16.21875 49.421875 
Q 16.21875 41.5 20.09375 36.953125 
Q 23.96875 32.421875 30.609375 32.421875 
z
" id="DejaVuSans-57"/>
      </defs>
      <g transform="translate(20.878125 177.878437)scale(0.1 -0.1)">
       <use xlink:href="#DejaVuSans-48"/>
       <use x="63.623047" xlink:href="#DejaVuSans-46"/>
       <use x="95.410156" xlink:href="#DejaVuSans-57"/>
       <use x="159.033203" xlink:href="#DejaVuSans-48"/>
      </g>
     </g>
    </g>
    <g id="ytick_6">
     <g id="line2d_29">
      <path clip-path="url(#p340476bd23)" d="M 50.14375 133.309219 
L 719.74375 133.309219 
" style="fill:none;stroke:#b0b0b0;stroke-linecap:square;stroke-width:0.8;"/>
     </g>
     <g id="line2d_30">
      <g>
       <use style="stroke:#000000;stroke-width:0.8;" x="50.14375" xlink:href="#m8ceaafb107" y="133.309219"/>
      </g>
     </g>
     <g id="text_16">
      <!-- 0.92 -->
      <g transform="translate(20.878125 137.108437)scale(0.1 -0.1)">
       <use xlink:href="#DejaVuSans-48"/>
       <use x="63.623047" xlink:href="#DejaVuSans-46"/>
       <use x="95.410156" xlink:href="#DejaVuSans-57"/>
       <use x="159.033203" xlink:href="#DejaVuSans-50"/>
      </g>
     </g>
    </g>
    <g id="ytick_7">
     <g id="line2d_31">
      <path clip-path="url(#p340476bd23)" d="M 50.14375 92.539219 
L 719.74375 92.539219 
" style="fill:none;stroke:#b0b0b0;stroke-linecap:square;stroke-width:0.8;"/>
     </g>
     <g id="line2d_32">
      <g>
       <use style="stroke:#000000;stroke-width:0.8;" x="50.14375" xlink:href="#m8ceaafb107" y="92.539219"/>
      </g>
     </g>
     <g id="text_17">
      <!-- 0.94 -->
      <g transform="translate(20.878125 96.338437)scale(0.1 -0.1)">
       <use xlink:href="#DejaVuSans-48"/>
       <use x="63.623047" xlink:href="#DejaVuSans-46"/>
       <use x="95.410156" xlink:href="#DejaVuSans-57"/>
       <use x="159.033203" xlink:href="#DejaVuSans-52"/>
      </g>
     </g>
    </g>
    <g id="ytick_8">
     <g id="line2d_33">
      <path clip-path="url(#p340476bd23)" d="M 50.14375 51.769219 
L 719.74375 51.769219 
" style="fill:none;stroke:#b0b0b0;stroke-linecap:square;stroke-width:0.8;"/>
     </g>
     <g id="line2d_34">
      <g>
       <use style="stroke:#000000;stroke-width:0.8;" x="50.14375" xlink:href="#m8ceaafb107" y="51.769219"/>
      </g>
     </g>
     <g id="text_18">
      <!-- 0.96 -->
      <g transform="translate(20.878125 55.568437)scale(0.1 -0.1)">
       <use xlink:href="#DejaVuSans-48"/>
       <use x="63.623047" xlink:href="#DejaVuSans-46"/>
       <use x="95.410156" xlink:href="#DejaVuSans-57"/>
       <use x="159.033203" xlink:href="#DejaVuSans-54"/>
      </g>
     </g>
    </g>
    <g id="ytick_9">
     <g id="line2d_35">
      <path clip-path="url(#p340476bd23)" d="M 50.14375 10.999219 
L 719.74375 10.999219 
" style="fill:none;stroke:#b0b0b0;stroke-linecap:square;stroke-width:0.8;"/>
     </g>
     <g id="line2d_36">
      <g>
       <use style="stroke:#000000;stroke-width:0.8;" x="50.14375" xlink:href="#m8ceaafb107" y="10.999219"/>
      </g>
     </g>
     <g id="text_19">
      <!-- 0.98 -->
      <g transform="translate(20.878125 14.798437)scale(0.1 -0.1)">
       <use xlink:href="#DejaVuSans-48"/>
       <use x="63.623047" xlink:href="#DejaVuSans-46"/>
       <use x="95.410156" xlink:href="#DejaVuSans-57"/>
       <use x="159.033203" xlink:href="#DejaVuSans-56"/>
      </g>
     </g>
    </g>
    <g id="text_20">
     <!-- Accuracy -->
     <defs>
      <path d="M 34.1875 63.1875 
L 20.796875 26.90625 
L 47.609375 26.90625 
z
M 28.609375 72.90625 
L 39.796875 72.90625 
L 67.578125 0 
L 57.328125 0 
L 50.6875 18.703125 
L 17.828125 18.703125 
L 11.1875 0 
L 0.78125 0 
z
" id="DejaVuSans-65"/>
      <path d="M 8.5 21.578125 
L 8.5 54.6875 
L 17.484375 54.6875 
L 17.484375 21.921875 
Q 17.484375 14.15625 20.5 10.265625 
Q 23.53125 6.390625 29.59375 6.390625 
Q 36.859375 6.390625 41.078125 11.03125 
Q 45.3125 15.671875 45.3125 23.6875 
L 45.3125 54.6875 
L 54.296875 54.6875 
L 54.296875 0 
L 45.3125 0 
L 45.3125 8.40625 
Q 42.046875 3.421875 37.71875 1 
Q 33.40625 -1.421875 27.6875 -1.421875 
Q 18.265625 -1.421875 13.375 4.4375 
Q 8.5 10.296875 8.5 21.578125 
z
M 31.109375 56 
z
" id="DejaVuSans-117"/>
      <path d="M 41.109375 46.296875 
Q 39.59375 47.171875 37.8125 47.578125 
Q 36.03125 48 33.890625 48 
Q 26.265625 48 22.1875 43.046875 
Q 18.109375 38.09375 18.109375 28.8125 
L 18.109375 0 
L 9.078125 0 
L 9.078125 54.6875 
L 18.109375 54.6875 
L 18.109375 46.1875 
Q 20.953125 51.171875 25.484375 53.578125 
Q 30.03125 56 36.53125 56 
Q 37.453125 56 38.578125 55.875 
Q 39.703125 55.765625 41.0625 55.515625 
z
" id="DejaVuSans-114"/>
      <path d="M 34.28125 27.484375 
Q 23.390625 27.484375 19.1875 25 
Q 14.984375 22.515625 14.984375 16.5 
Q 14.984375 11.71875 18.140625 8.90625 
Q 21.296875 6.109375 26.703125 6.109375 
Q 34.1875 6.109375 38.703125 11.40625 
Q 43.21875 16.703125 43.21875 25.484375 
L 43.21875 27.484375 
z
M 52.203125 31.203125 
L 52.203125 0 
L 43.21875 0 
L 43.21875 8.296875 
Q 40.140625 3.328125 35.546875 0.953125 
Q 30.953125 -1.421875 24.3125 -1.421875 
Q 15.921875 -1.421875 10.953125 3.296875 
Q 6 8.015625 6 15.921875 
Q 6 25.140625 12.171875 29.828125 
Q 18.359375 34.515625 30.609375 34.515625 
L 43.21875 34.515625 
L 43.21875 35.40625 
Q 43.21875 41.609375 39.140625 45 
Q 35.0625 48.390625 27.6875 48.390625 
Q 23 48.390625 18.546875 47.265625 
Q 14.109375 46.140625 10.015625 43.890625 
L 10.015625 52.203125 
Q 14.9375 54.109375 19.578125 55.046875 
Q 24.21875 56 28.609375 56 
Q 40.484375 56 46.34375 49.84375 
Q 52.203125 43.703125 52.203125 31.203125 
z
" id="DejaVuSans-97"/>
      <path d="M 32.171875 -5.078125 
Q 28.375 -14.84375 24.75 -17.8125 
Q 21.140625 -20.796875 15.09375 -20.796875 
L 7.90625 -20.796875 
L 7.90625 -13.28125 
L 13.1875 -13.28125 
Q 16.890625 -13.28125 18.9375 -11.515625 
Q 21 -9.765625 23.484375 -3.21875 
L 25.09375 0.875 
L 2.984375 54.6875 
L 12.5 54.6875 
L 29.59375 11.921875 
L 46.6875 54.6875 
L 56.203125 54.6875 
z
" id="DejaVuSans-121"/>
     </defs>
     <g transform="translate(14.798438 196.994062)rotate(-90)scale(0.1 -0.1)">
      <use xlink:href="#DejaVuSans-65"/>
      <use x="68.392578" xlink:href="#DejaVuSans-99"/>
      <use x="123.373047" xlink:href="#DejaVuSans-99"/>
      <use x="178.353516" xlink:href="#DejaVuSans-117"/>
      <use x="241.732422" xlink:href="#DejaVuSans-114"/>
      <use x="282.845703" xlink:href="#DejaVuSans-97"/>
      <use x="344.125" xlink:href="#DejaVuSans-99"/>
      <use x="399.105469" xlink:href="#DejaVuSans-121"/>
     </g>
    </g>
   </g>
   <g id="line2d_37">
    <path clip-path="url(#p340476bd23)" d="M 112.038031 375.715469 
L 114.78465 366.589141 
L 118.605645 354.680581 
L 122.426641 343.589948 
L 126.247636 333.213796 
L 130.068632 323.448679 
L 134.52646 312.697674 
L 138.984288 302.567439 
L 143.442116 293.02897 
L 147.899944 284.053959 
L 152.357772 275.614096 
L 156.8156 267.681071 
L 161.273428 260.226573 
L 165.731256 253.222294 
L 170.189084 246.639923 
L 174.646912 240.451151 
L 179.10474 234.627668 
L 183.562568 229.141163 
L 188.657228 223.247184 
L 193.751889 217.714107 
L 198.846549 212.499672 
L 204.578042 206.961694 
L 210.946368 201.145462 
L 217.951526 195.076774 
L 224.956685 189.325456 
L 231.961843 183.879427 
L 238.967001 178.726609 
L 245.972159 173.854923 
L 252.977318 169.252289 
L 259.982476 164.906629 
L 266.987634 160.805863 
L 274.629625 156.597407 
L 282.271616 152.650339 
L 289.913607 148.948976 
L 298.19243 145.198249 
L 306.471254 141.697541 
L 315.38691 138.184287 
L 324.302566 134.91297 
L 333.855054 131.648173 
L 344.044375 128.405827 
L 354.870529 125.191677 
L 367.60718 121.655499 
L 382.254329 117.835191 
L 396.901479 114.243783 
L 412.18546 110.729542 
L 427.469442 107.442631 
L 443.390256 104.248527 
L 459.947903 101.162051 
L 476.50555 98.301644 
L 493.700029 95.555365 
L 511.531341 92.931889 
L 529.999486 90.437118 
L 549.741295 87.998632 
L 570.119938 85.704142 
L 592.409078 83.422771 
L 616.608715 81.176837 
L 643.355683 78.922536 
L 675.197312 76.470987 
L 687.933963 75.540028 
L 687.933963 75.540028 
" style="fill:none;stroke:#377eb8;stroke-linecap:square;stroke-width:2;"/>
   </g>
   <g id="line2d_38">
    <path clip-path="url(#p340476bd23)" d="M 110.406561 375.715469 
L 112.874152 367.310516 
L 115.421483 359.324426 
L 117.968813 351.970374 
L 120.516143 345.180983 
L 123.700306 337.385653 
L 126.884469 330.235731 
L 130.068632 323.59962 
L 133.889627 316.138119 
L 137.710623 309.133436 
L 141.531618 302.564487 
L 145.352613 296.411867 
L 149.173609 290.656173 
L 152.994604 285.278001 
L 156.8156 280.257948 
L 160.636595 275.576611 
L 164.45759 271.214585 
L 168.278586 267.152467 
L 172.736414 262.766494 
L 177.194242 258.731507 
L 181.65207 255.016692 
L 186.109898 251.591239 
L 190.567726 248.424335 
L 195.662386 245.082081 
L 201.39388 241.620326 
L 207.762205 238.06754 
L 215.404196 234.093696 
L 223.046187 230.366924 
L 230.688178 226.874969 
L 238.967001 223.345311 
L 247.245825 220.066592 
L 255.524648 217.025996 
L 263.803471 214.210707 
L 272.719127 211.416128 
L 281.634783 208.851983 
L 291.187272 206.34221 
L 300.73976 204.058903 
L 310.929082 201.85081 
L 321.755235 199.73577 
L 333.218222 197.724558 
L 345.954873 195.724579 
L 359.965189 193.75605 
L 376.522836 191.660403 
L 394.990981 189.545576 
L 414.095958 187.586369 
L 433.837768 185.790903 
L 454.21641 184.165052 
L 475.231885 182.712191 
L 497.521025 181.398451 
L 521.08383 180.23907 
L 545.9203 179.243058 
L 572.667268 178.394207 
L 602.598399 177.671884 
L 637.62419 177.060064 
L 684.112968 176.491577 
L 687.933963 176.451564 
L 687.933963 176.451564 
" style="fill:none;stroke:#4daf4a;stroke-linecap:square;stroke-width:2;"/>
   </g>
   <g id="line2d_39">
    <path clip-path="url(#p340476bd23)" d="M 111.193712 375.715469 
L 112.328296 371.762741 
L 113.922771 367.48191 
L 115.517247 364.678933 
L 117.111722 357.493304 
L 118.706198 354.027765 
L 120.300673 346.587342 
L 121.895149 341.542007 
L 123.489625 339.809237 
L 125.0841 337.515969 
L 126.678576 331.808194 
L 128.273051 329.056127 
L 129.867527 322.380086 
L 131.462002 318.965579 
L 133.056478 311.576066 
L 134.650953 311.117388 
L 136.245429 310.505858 
L 137.839904 306.021143 
L 141.028855 292.872823 
L 142.623331 295.573858 
L 144.217806 288.642902 
L 145.812282 293.739147 
L 147.406758 283.954424 
L 150.595709 280.947563 
L 152.190184 272.742636 
L 153.78466 269.939659 
L 155.379135 272.94652 
L 156.973611 269.328129 
L 158.568086 264.996266 
L 160.162562 261.530849 
L 161.757037 255.61919 
L 163.351513 256.791339 
L 164.945988 254.701834 
L 166.540464 250.064267 
L 168.134939 246.598849 
L 169.729415 246.038229 
L 171.32389 243.846903 
L 172.918366 243.694051 
L 174.512842 236.610243 
L 176.107317 238.139128 
L 177.701793 240.840042 
L 179.296268 229.475402 
L 180.890744 234.775531 
L 182.485219 232.584205 
L 184.079695 225.245603 
L 185.67417 227.997548 
L 187.268646 226.570604 
L 188.863121 224.583041 
L 190.457597 226.264779 
L 192.052072 220.149357 
L 193.646548 215.51179 
L 195.241023 218.008942 
L 196.835499 216.836792 
L 198.429975 211.893399 
L 200.02445 212.046251 
L 201.618926 211.383811 
L 203.213401 209.701952 
L 204.807877 206.389386 
L 206.402352 203.433678 
L 207.996828 209.345216 
L 209.591303 201.548057 
L 211.185779 203.025911 
L 212.780254 192.731478 
L 214.37473 194.6171 
L 215.969205 192.476684 
L 217.563681 194.922926 
L 219.158156 188.450647 
L 220.752632 189.724739 
L 222.347108 192.272801 
L 223.941583 184.934198 
L 225.536059 189.979533 
L 228.72501 186.463084 
L 230.319485 184.47552 
L 231.913961 183.86399 
L 233.508436 184.42461 
L 235.102912 181.010102 
L 236.697387 181.876426 
L 238.291863 178.818777 
L 239.886338 179.939895 
L 241.480814 172.346498 
L 243.075289 172.44844 
L 244.669765 175.251296 
L 246.264241 175.761005 
L 247.858716 174.436003 
L 249.453192 172.805176 
L 251.047667 168.320461 
L 252.642143 174.639766 
L 254.236618 168.320461 
L 255.831094 168.422402 
L 257.425569 167.505047 
L 259.020045 164.447275 
L 260.61452 166.434839 
L 262.208996 159.35103 
L 263.803471 167.505047 
L 265.397947 159.96256 
L 266.992422 156.242349 
L 268.586898 161.950124 
L 270.181374 157.414498 
L 271.775849 157.56735 
L 273.370325 156.90491 
L 274.9648 153.490403 
L 276.559276 158.994294 
L 278.153751 161.69533 
L 279.748227 153.949081 
L 281.342702 153.388461 
L 282.937178 151.197014 
L 284.531653 154.815405 
L 286.126129 152.114369 
L 287.720604 149.668128 
L 289.31508 147.476802 
L 290.909555 147.120066 
L 292.504031 153.337429 
L 294.098507 145.438328 
L 295.692982 144.215147 
L 297.287458 143.858411 
L 298.881933 144.724856 
L 300.476409 143.909443 
L 302.070884 142.329525 
L 303.66536 141.157497 
L 305.259835 146.457504 
L 306.854311 143.501675 
L 308.448786 139.475638 
L 310.043262 141.463201 
L 311.637737 140.392993 
L 313.232213 144.062295 
L 314.826688 139.526669 
L 316.421164 136.468898 
L 318.01564 135.143896 
L 319.610115 136.927576 
L 321.204591 135.806336 
L 322.799066 134.124599 
L 324.393542 136.265014 
L 325.988017 136.519808 
L 327.582493 132.850507 
L 329.176968 131.984183 
L 330.771444 134.990923 
L 332.365919 129.792857 
L 333.960395 134.83807 
L 335.55487 125.970582 
L 337.149346 132.493771 
L 338.743821 128.416823 
L 340.338297 129.283147 
L 341.932773 128.365913 
L 343.527248 130.659181 
L 345.121724 128.620707 
L 346.716199 131.627447 
L 348.310675 127.295584 
L 349.90515 127.295584 
L 351.499626 127.958146 
L 353.094101 126.276408 
L 354.688577 121.995576 
L 356.283052 124.339876 
L 357.877528 123.218636 
L 359.472003 129.690915 
L 361.066479 123.524462 
L 362.660954 125.511904 
L 364.25543 123.98314 
L 365.849905 121.180163 
L 367.444381 122.607106 
L 369.038857 123.677314 
L 370.633332 120.058923 
L 372.227808 117.358009 
L 373.822283 120.008013 
L 375.416759 117.765655 
L 377.011234 118.071481 
L 378.60571 121.995576 
L 380.200185 117.256067 
L 381.794661 117.103094 
L 383.389136 116.440653 
L 384.983612 117.408919 
L 386.578087 111.803086 
L 388.172563 119.243509 
L 389.767038 114.198296 
L 391.361514 115.01371 
L 392.95599 118.428217 
L 394.550465 115.67615 
L 396.144941 117.154125 
L 397.739416 114.605942 
L 399.333892 113.790528 
L 400.928367 109.102051 
L 402.522843 112.05788 
L 404.117318 113.433792 
L 405.711794 111.44635 
L 407.306269 109.713581 
L 408.900745 114.249206 
L 410.49522 112.924204 
L 413.684171 110.88573 
L 415.278647 108.898167 
L 416.873123 112.567468 
L 418.467598 109.764491 
L 420.062074 109.102051 
L 421.656549 108.694283 
L 423.251025 105.432749 
L 424.8455 109.764491 
L 426.439976 107.675107 
L 428.034451 109.917464 
L 429.628927 109.509697 
L 431.223402 103.903864 
L 432.817878 107.929901 
L 434.412353 108.235727 
L 436.006829 105.534691 
L 437.601304 105.48366 
L 439.19578 105.126924 
L 440.790256 105.432749 
L 442.384731 106.502957 
L 443.979207 104.31151 
L 445.573682 100.846092 
L 447.168158 105.177955 
L 448.762633 102.374978 
L 450.357109 101.202828 
L 451.951584 104.566425 
L 453.54606 102.069152 
L 455.140535 100.489356 
L 456.735011 101.151918 
L 458.329486 104.566425 
L 459.923962 98.246999 
L 461.518437 97.686379 
L 463.112913 99.572001 
L 464.707389 98.348941 
L 467.89634 95.495053 
L 469.490815 101.457622 
L 471.085291 99.52109 
L 472.679766 93.252695 
L 474.274242 97.890263 
L 475.868717 95.749847 
L 477.463193 97.584559 
L 480.652144 96.259435 
L 482.246619 97.329643 
L 483.841095 98.552824 
L 485.43557 95.087285 
L 487.030046 93.354637 
L 488.624522 94.832491 
L 490.218997 98.399851 
L 491.813473 93.609431 
L 493.407948 92.845049 
L 495.002424 94.11902 
L 496.596899 98.399851 
L 498.191375 94.934433 
L 499.78585 91.774842 
L 501.380326 98.960471 
L 502.974801 92.997901 
L 504.569277 94.730549 
L 506.163752 94.628729 
L 507.758228 91.16319 
L 509.352703 90.449718 
L 510.947179 95.240259 
L 512.541655 92.539224 
L 514.13613 92.386371 
L 515.730606 90.806454 
L 517.325081 88.564097 
L 518.919557 92.33534 
L 520.514032 92.794018 
L 522.108508 92.94687 
L 523.702983 91.774842 
L 525.297459 94.170051 
L 526.891934 84.538059 
L 528.48641 89.226658 
L 530.080885 88.666038 
L 531.675361 86.576654 
L 533.269836 89.94013 
L 534.864312 89.787278 
L 536.458788 90.55166 
L 538.053263 90.857486 
L 539.647739 89.532484 
L 541.242214 86.678475 
L 542.83669 93.456579 
L 544.431165 89.175748 
L 546.025641 86.372771 
L 547.620116 87.239095 
L 549.214592 86.93339 
L 550.809067 93.405548 
L 552.403543 87.697773 
L 553.998018 91.010338 
L 555.592494 87.952567 
L 557.186969 88.971864 
L 558.781445 83.264089 
L 561.970396 93.099843 
L 563.564872 88.819012 
L 565.159347 83.977561 
L 566.753823 83.111115 
L 568.348298 86.627565 
L 569.942774 86.270829 
L 571.537249 84.945827 
L 573.131725 85.761241 
L 574.7262 87.748804 
L 576.320676 85.200621 
L 577.915151 83.416941 
L 579.509627 83.671735 
L 581.104102 85.149711 
L 582.698578 83.213057 
L 584.293053 86.066945 
L 585.887529 82.805411 
L 587.482005 84.691033 
L 589.07648 84.028471 
L 590.670956 86.576654 
L 592.265431 83.416941 
L 593.859907 84.741943 
L 595.454382 87.035211 
L 597.048858 82.805411 
L 598.643333 82.14285 
L 600.237809 86.372771 
L 601.832284 83.213057 
L 603.42676 81.429378 
L 605.021235 85.812151 
L 606.615711 80.410201 
L 608.210186 83.620825 
L 609.804662 82.040908 
L 611.399138 82.601527 
L 612.993613 78.932226 
L 614.588089 83.926529 
L 616.182564 84.130413 
L 617.77704 79.849582 
L 619.371515 80.461112 
L 620.965991 85.047769 
L 622.560466 77.760076 
L 624.154942 79.951524 
L 625.749417 81.480409 
L 627.343893 79.339872 
L 628.938368 79.645698 
L 630.532844 82.091939 
L 633.721795 76.893752 
L 635.316271 78.881316 
L 636.910746 75.110073 
L 638.505222 81.021731 
L 640.099697 80.9707 
L 641.694173 78.57549 
L 643.288648 79.79855 
L 644.883124 77.607224 
L 646.477599 76.078338 
L 648.072075 79.339872 
L 649.66655 80.461112 
L 651.261026 80.206318 
L 652.855501 77.199456 
L 654.449977 77.505282 
L 656.044452 78.983136 
L 657.638928 77.760076 
L 659.233404 79.390904 
L 660.827879 76.842721 
L 662.422355 76.18028 
L 664.01683 76.689868 
L 665.611306 75.110073 
L 667.205781 75.466808 
L 668.800257 73.734039 
L 670.394732 77.709166 
L 671.989208 77.046604 
L 673.583683 78.881316 
L 675.178159 74.906189 
L 676.772634 76.333132 
L 678.36711 73.224451 
L 679.961585 74.753337 
L 681.556061 76.485985 
L 683.150537 74.447511 
L 684.745012 73.428335 
L 686.339488 78.167844 
L 687.933963 78.422638 
L 687.933963 78.422638 
" style="fill:none;stroke:#377eb8;stroke-linecap:square;stroke-opacity:0.25098;stroke-width:1.5;"/>
   </g>
   <g id="line2d_40">
    <path clip-path="url(#p340476bd23)" d="M 104.258919 375.715469 
L 104.355918 369.88684 
L 105.299644 375.715469 
M 108.592041 375.715469 
L 109.139345 358.602879 
L 109.37726 375.715469 
M 111.779774 375.715469 
L 112.328296 324.545774 
L 113.57104 375.715469 
M 116.342732 375.715469 
L 117.111722 338.907191 
L 118.556492 375.715469 
M 118.848707 375.715469 
L 120.300673 336.855595 
L 121.895149 308.337861 
L 123.489625 308.337861 
L 125.0841 342.394965 
L 126.678576 331.726543 
L 128.273051 296.64358 
L 129.867527 327.007811 
L 131.462002 325.366413 
L 133.056478 317.159907 
L 134.650953 324.956094 
L 136.245429 314.697991 
L 137.839904 287.616435 
L 139.43438 297.25912 
L 141.028855 316.134169 
L 142.623331 343.215604 
L 144.217806 258.483283 
L 145.812282 301.567533 
L 147.406758 270.587883 
L 149.001233 312.441175 
L 150.595709 274.691197 
L 152.190184 277.973751 
L 153.78466 265.458832 
L 155.379135 313.467034 
L 156.973611 255.611049 
L 158.568086 265.048513 
L 160.162562 283.923562 
L 161.757037 289.257712 
L 163.351513 278.99961 
L 164.945988 256.226467 
L 166.540464 287.616435 
L 168.134939 269.972465 
L 169.729415 262.176278 
L 171.32389 287.821656 
L 172.918366 252.738693 
L 174.512842 259.098823 
L 176.107317 309.774039 
L 177.701793 257.252326 
L 179.296268 254.58519 
L 180.890744 253.354232 
L 182.485219 272.8447 
L 184.079695 250.481876 
L 187.268646 227.708855 
L 188.863121 236.735999 
L 190.457597 266.279471 
L 192.052072 240.223774 
L 193.646548 266.68979 
L 195.241023 233.248225 
L 196.835499 226.477897 
L 198.429975 241.454731 
L 200.02445 234.274084 
L 201.618926 224.01586 
L 203.213401 226.477897 
L 204.807877 248.019961 
L 206.402352 221.348724 
L 207.996828 221.553944 
L 209.591303 253.149012 
L 211.185779 242.27537 
L 212.780254 236.735999 
L 214.37473 220.322987 
L 215.969205 232.837906 
L 217.563681 224.22108 
L 219.158156 241.044412 
L 220.752632 259.098823 
L 222.347108 198.780801 
L 223.941583 240.223774 
L 225.536059 257.457425 
L 227.130534 230.17077 
L 228.72501 222.579803 
L 230.319485 226.888216 
L 231.913961 230.37599 
L 233.508436 212.5268 
L 235.102912 225.041719 
L 236.697387 224.01586 
L 238.291863 266.074372 
L 239.886338 207.808068 
L 241.480814 209.039025 
L 243.075289 240.018675 
L 244.669765 216.014574 
L 246.264241 218.886809 
L 247.858716 244.532186 
L 249.453192 204.730613 
L 251.047667 198.370482 
L 252.642143 210.885523 
L 254.236618 217.040311 
L 255.831094 211.706161 
L 257.425569 194.882708 
L 259.020045 223.810761 
L 260.61452 203.499655 
L 262.208996 211.706161 
L 263.803471 221.964264 
L 265.397947 211.500941 
L 266.992422 211.295842 
L 268.586898 233.043126 
L 270.181374 203.909974 
L 271.775849 242.070271 
L 273.370325 194.882708 
L 274.9648 217.040311 
L 276.559276 200.21698 
L 278.153751 213.142218 
L 279.748227 210.885523 
L 281.342702 207.808068 
L 282.937178 221.964264 
L 284.531653 207.192528 
L 286.126129 208.423486 
L 287.720604 196.318886 
L 289.31508 212.11648 
L 290.909555 203.909974 
L 292.504031 204.730613 
L 294.098507 195.498248 
L 295.692982 189.753657 
L 297.287458 213.347438 
L 298.881933 207.808068 
L 300.476409 194.677609 
L 302.070884 218.712207 
L 303.66536 194.26729 
L 305.259835 193.036332 
L 306.854311 210.885523 
L 308.448786 210.475082 
L 310.043262 202.063477 
L 311.637737 194.882708 
L 313.232213 206.987429 
L 314.826688 201.242838 
L 316.421164 205.75635 
L 318.01564 203.499655 
L 319.610115 192.420792 
L 321.204591 189.548558 
L 322.799066 187.907159 
L 324.393542 213.757757 
L 325.988017 196.524106 
L 327.582493 204.730613 
L 329.176968 204.115073 
L 330.771444 193.036332 
L 332.365919 210.885523 
L 333.960395 191.189835 
L 335.55487 197.960163 
L 337.149346 191.805253 
L 338.743821 194.472389 
L 340.338297 192.010473 
L 341.932773 195.087928 
L 343.527248 202.884115 
L 345.121724 189.958877 
L 346.716199 208.218387 
L 348.310675 191.805253 
L 349.90515 217.655851 
L 351.499626 209.654444 
L 353.094101 202.678895 
L 354.688577 216.424893 
L 356.283052 183.188427 
L 357.877528 193.856971 
L 359.472003 190.163976 
L 361.066479 192.831112 
L 362.660954 186.471103 
L 364.25543 187.291741 
L 365.849905 214.578396 
L 367.444381 177.649057 
L 369.038857 176.828418 
L 370.633332 192.420792 
L 372.227808 190.574295 
L 373.822283 197.755064 
L 375.416759 187.291741 
L 377.011234 203.499655 
L 378.60571 197.549844 
L 380.200185 206.166669 
L 381.794661 197.755064 
L 383.389136 198.986022 
L 384.983612 197.960163 
L 386.578087 181.95747 
L 388.172563 175.80256 
L 389.767038 193.856971 
L 391.361514 199.191121 
L 392.95599 180.726512 
L 394.550465 183.803967 
L 396.144941 189.138239 
L 397.739416 193.856971 
L 399.333892 198.986022 
L 400.928367 179.290334 
L 402.522843 188.317479 
L 404.117318 199.601561 
L 407.306269 188.317479 
L 408.900745 185.240145 
L 410.49522 189.958877 
L 412.089696 196.934426 
L 413.684171 177.033517 
L 415.278647 189.343337 
L 416.873123 175.39224 
L 418.467598 192.215572 
L 420.062074 218.68171 
L 421.656549 184.624605 
L 423.251025 182.16269 
L 424.8455 202.473796 
L 426.439976 176.00778 
L 428.034451 181.752371 
L 429.628927 171.699367 
L 431.223402 187.49684 
L 432.817878 175.39224 
L 434.412353 175.597461 
L 436.006829 183.393648 
L 437.601304 185.034925 
L 439.19578 170.878729 
L 440.790256 195.293027 
L 442.384731 180.931611 
L 443.979207 172.109686 
L 445.573682 175.597461 
L 447.168158 185.034925 
L 448.762633 169.032231 
L 450.357109 189.753657 
L 451.951584 175.597461 
L 453.54606 180.316193 
L 455.140535 199.80666 
L 456.735011 184.624605 
L 458.329486 188.933018 
L 459.923962 190.163976 
L 461.518437 179.700653 
L 463.112913 184.624605 
L 464.707389 166.980635 
L 466.301864 166.570194 
L 467.89634 201.242838 
L 469.490815 165.339237 
L 471.085291 180.316193 
L 472.679766 179.905873 
L 474.274242 173.750963 
L 475.868717 197.344745 
L 477.463193 194.472389 
L 479.057668 188.11238 
L 480.652144 162.056683 
L 482.246619 176.00778 
L 483.841095 168.006373 
L 485.43557 197.755064 
L 487.030046 174.571602 
L 488.624522 188.11238 
L 490.218997 182.778108 
L 491.813473 182.16269 
L 493.407948 174.571602 
L 495.002424 171.494147 
L 496.596899 184.419385 
L 498.191375 187.086521 
L 499.78585 183.598747 
L 501.380326 192.420792 
L 502.974801 190.163976 
L 504.569277 192.215572 
L 506.163752 171.494147 
L 507.758228 195.087928 
L 509.352703 166.570194 
L 510.947179 172.314785 
L 512.541655 175.80256 
L 514.13613 193.856971 
L 515.730606 171.083828 
L 517.325081 183.188427 
L 518.919557 188.11238 
L 520.514032 185.650464 
L 522.108508 199.191121 
L 523.702983 175.597461 
L 525.297459 172.109686 
L 526.891934 177.854277 
L 528.48641 179.085235 
L 530.080885 172.520006 
L 531.675361 178.674916 
L 533.269836 190.369196 
L 534.864312 180.931611 
L 536.458788 168.621912 
L 538.053263 189.343337 
L 539.647739 188.933018 
L 541.242214 171.083828 
L 542.83669 178.674916 
L 544.431165 181.136831 
L 546.025641 169.85287 
L 547.620116 174.571602 
L 549.214592 187.49684 
L 550.809067 170.673508 
L 552.403543 172.568364 
L 553.998018 169.032231 
L 555.592494 176.623198 
L 557.186969 189.753657 
L 558.781445 177.649057 
L 560.37592 182.573009 
L 561.970396 167.185734 
L 563.564872 184.419385 
L 565.159347 179.700653 
L 568.348298 168.621912 
L 569.942774 171.494147 
L 571.537249 176.623198 
L 573.131725 178.059376 
L 574.7262 166.159875 
L 576.320676 178.469695 
L 577.915151 185.855563 
L 579.509627 174.981921 
L 581.104102 177.854277 
L 582.698578 163.08242 
L 584.293053 187.70206 
L 585.887529 192.831112 
L 587.482005 180.110972 
L 589.07648 183.803967 
L 590.670956 175.187141 
L 592.265431 179.700653 
L 593.859907 162.056683 
L 595.454382 183.803967 
L 597.048858 181.136831 
L 598.643333 179.085235 
L 600.237809 170.263189 
L 601.832284 188.522699 
L 603.42676 188.11238 
L 605.021235 173.545743 
L 606.615711 185.240145 
L 608.210186 170.263189 
L 609.804662 192.831112 
L 611.399138 164.518598 
L 612.993613 193.856971 
L 614.588089 186.060784 
L 616.182564 174.981921 
L 617.77704 179.905873 
L 619.371515 184.214286 
L 620.965991 186.265882 
L 622.560466 170.878729 
L 624.154942 181.54715 
L 625.749417 184.829704 
L 627.343893 186.881422 
L 628.938368 174.776822 
L 630.532844 184.829704 
L 632.127319 172.109686 
L 633.721795 165.544457 
L 635.316271 172.930325 
L 636.910746 171.904466 
L 638.505222 189.548558 
L 640.099697 176.418099 
L 641.694173 181.752371 
L 643.288648 173.340644 
L 644.883124 177.649057 
L 646.477599 175.597461 
L 648.072075 176.418099 
L 649.66655 176.623198 
L 651.261026 169.85287 
L 652.855501 169.032231 
L 654.449977 182.983328 
L 656.044452 175.80256 
L 657.638928 174.981921 
L 659.233404 178.880015 
L 660.827879 167.185734 
L 662.422355 181.34193 
L 664.01683 179.495554 
L 665.611306 191.600154 
L 667.205781 186.471103 
L 668.800257 187.70206 
L 670.394732 191.189835 
L 671.989208 172.930325 
L 673.583683 164.723819 
L 675.178159 180.316193 
L 676.772634 162.877321 
L 678.36711 188.727919 
L 679.961585 173.750963 
L 681.556061 164.723819 
L 683.150537 172.930325 
L 684.745012 164.313499 
L 686.339488 169.442551 
L 687.933963 170.468409 
L 687.933963 170.468409 
" style="fill:none;stroke:#4daf4a;stroke-linecap:square;stroke-opacity:0.25098;stroke-width:1.5;"/>
   </g>
   <g id="patch_3">
    <path d="M 50.14375 337.159219 
L 50.14375 10.999219 
" style="fill:none;stroke:#000000;stroke-linecap:square;stroke-linejoin:miter;stroke-width:0.8;"/>
   </g>
   <g id="patch_4">
    <path d="M 719.74375 337.159219 
L 719.74375 10.999219 
" style="fill:none;stroke:#000000;stroke-linecap:square;stroke-linejoin:miter;stroke-width:0.8;"/>
   </g>
   <g id="patch_5">
    <path d="M 50.14375 337.159219 
L 719.74375 337.159219 
" style="fill:none;stroke:#000000;stroke-linecap:square;stroke-linejoin:miter;stroke-width:0.8;"/>
   </g>
   <g id="patch_6">
    <path d="M 50.14375 10.999219 
L 719.74375 10.999219 
" style="fill:none;stroke:#000000;stroke-linecap:square;stroke-linejoin:miter;stroke-width:0.8;"/>
   </g>
   <g id="legend_1">
    <g id="patch_7">
     <path d="M 57.14375 48.355469 
L 114.584375 48.355469 
Q 116.584375 48.355469 116.584375 46.355469 
L 116.584375 17.999219 
Q 116.584375 15.999219 114.584375 15.999219 
L 57.14375 15.999219 
Q 55.14375 15.999219 55.14375 17.999219 
L 55.14375 46.355469 
Q 55.14375 48.355469 57.14375 48.355469 
z
" style="fill:#ffffff;opacity:0.8;stroke:#cccccc;stroke-linejoin:miter;"/>
    </g>
    <g id="line2d_41">
     <path d="M 59.14375 24.097656 
L 79.14375 24.097656 
" style="fill:none;stroke:#377eb8;stroke-linecap:square;stroke-width:2;"/>
    </g>
    <g id="line2d_42"/>
    <g id="text_21">
     <!-- Train -->
     <defs>
      <path d="M -0.296875 72.90625 
L 61.375 72.90625 
L 61.375 64.59375 
L 35.5 64.59375 
L 35.5 0 
L 25.59375 0 
L 25.59375 64.59375 
L -0.296875 64.59375 
z
" id="DejaVuSans-84"/>
      <path d="M 9.421875 54.6875 
L 18.40625 54.6875 
L 18.40625 0 
L 9.421875 0 
z
M 9.421875 75.984375 
L 18.40625 75.984375 
L 18.40625 64.59375 
L 9.421875 64.59375 
z
" id="DejaVuSans-105"/>
      <path d="M 54.890625 33.015625 
L 54.890625 0 
L 45.90625 0 
L 45.90625 32.71875 
Q 45.90625 40.484375 42.875 44.328125 
Q 39.84375 48.1875 33.796875 48.1875 
Q 26.515625 48.1875 22.3125 43.546875 
Q 18.109375 38.921875 18.109375 30.90625 
L 18.109375 0 
L 9.078125 0 
L 9.078125 54.6875 
L 18.109375 54.6875 
L 18.109375 46.1875 
Q 21.34375 51.125 25.703125 53.5625 
Q 30.078125 56 35.796875 56 
Q 45.21875 56 50.046875 50.171875 
Q 54.890625 44.34375 54.890625 33.015625 
z
" id="DejaVuSans-110"/>
     </defs>
     <g transform="translate(87.14375 27.597656)scale(0.1 -0.1)">
      <use xlink:href="#DejaVuSans-84"/>
      <use x="60.865234" xlink:href="#DejaVuSans-114"/>
      <use x="101.978516" xlink:href="#DejaVuSans-97"/>
      <use x="163.257812" xlink:href="#DejaVuSans-105"/>
      <use x="191.041016" xlink:href="#DejaVuSans-110"/>
     </g>
    </g>
    <g id="line2d_43">
     <path d="M 59.14375 38.775781 
L 79.14375 38.775781 
" style="fill:none;stroke:#4daf4a;stroke-linecap:square;stroke-width:2;"/>
    </g>
    <g id="line2d_44"/>
    <g id="text_22">
     <!-- Test -->
     <defs>
      <path d="M 56.203125 29.59375 
L 56.203125 25.203125 
L 14.890625 25.203125 
Q 15.484375 15.921875 20.484375 11.0625 
Q 25.484375 6.203125 34.421875 6.203125 
Q 39.59375 6.203125 44.453125 7.46875 
Q 49.3125 8.734375 54.109375 11.28125 
L 54.109375 2.78125 
Q 49.265625 0.734375 44.1875 -0.34375 
Q 39.109375 -1.421875 33.890625 -1.421875 
Q 20.796875 -1.421875 13.15625 6.1875 
Q 5.515625 13.8125 5.515625 26.8125 
Q 5.515625 40.234375 12.765625 48.109375 
Q 20.015625 56 32.328125 56 
Q 43.359375 56 49.78125 48.890625 
Q 56.203125 41.796875 56.203125 29.59375 
z
M 47.21875 32.234375 
Q 47.125 39.59375 43.09375 43.984375 
Q 39.0625 48.390625 32.421875 48.390625 
Q 24.90625 48.390625 20.390625 44.140625 
Q 15.875 39.890625 15.1875 32.171875 
z
" id="DejaVuSans-101"/>
      <path d="M 44.28125 53.078125 
L 44.28125 44.578125 
Q 40.484375 46.53125 36.375 47.5 
Q 32.28125 48.484375 27.875 48.484375 
Q 21.1875 48.484375 17.84375 46.4375 
Q 14.5 44.390625 14.5 40.28125 
Q 14.5 37.15625 16.890625 35.375 
Q 19.28125 33.59375 26.515625 31.984375 
L 29.59375 31.296875 
Q 39.15625 29.25 43.1875 25.515625 
Q 47.21875 21.78125 47.21875 15.09375 
Q 47.21875 7.46875 41.1875 3.015625 
Q 35.15625 -1.421875 24.609375 -1.421875 
Q 20.21875 -1.421875 15.453125 -0.5625 
Q 10.6875 0.296875 5.421875 2 
L 5.421875 11.28125 
Q 10.40625 8.6875 15.234375 7.390625 
Q 20.0625 6.109375 24.8125 6.109375 
Q 31.15625 6.109375 34.5625 8.28125 
Q 37.984375 10.453125 37.984375 14.40625 
Q 37.984375 18.0625 35.515625 20.015625 
Q 33.0625 21.96875 24.703125 23.78125 
L 21.578125 24.515625 
Q 13.234375 26.265625 9.515625 29.90625 
Q 5.8125 33.546875 5.8125 39.890625 
Q 5.8125 47.609375 11.28125 51.796875 
Q 16.75 56 26.8125 56 
Q 31.78125 56 36.171875 55.265625 
Q 40.578125 54.546875 44.28125 53.078125 
z
" id="DejaVuSans-115"/>
      <path d="M 18.3125 70.21875 
L 18.3125 54.6875 
L 36.8125 54.6875 
L 36.8125 47.703125 
L 18.3125 47.703125 
L 18.3125 18.015625 
Q 18.3125 11.328125 20.140625 9.421875 
Q 21.96875 7.515625 27.59375 7.515625 
L 36.8125 7.515625 
L 36.8125 0 
L 27.59375 0 
Q 17.1875 0 13.234375 3.875 
Q 9.28125 7.765625 9.28125 18.015625 
L 9.28125 47.703125 
L 2.6875 47.703125 
L 2.6875 54.6875 
L 9.28125 54.6875 
L 9.28125 70.21875 
z
" id="DejaVuSans-116"/>
     </defs>
     <g transform="translate(87.14375 42.275781)scale(0.1 -0.1)">
      <use xlink:href="#DejaVuSans-84"/>
      <use x="60.818359" xlink:href="#DejaVuSans-101"/>
      <use x="122.341797" xlink:href="#DejaVuSans-115"/>
      <use x="174.441406" xlink:href="#DejaVuSans-116"/>
     </g>
    </g>
   </g>
  </g>
 </g>
 <defs>
  <clipPath id="p340476bd23">
   <rect height="326.16" width="669.6" x="50.14375" y="10.999219"/>
  </clipPath>
 </defs>
</svg>
