<?xml version="1.0" encoding="utf-8" standalone="no"?>
<!DOCTYPE svg PUBLIC "-//W3C//DTD SVG 1.1//EN"
  "http://www.w3.org/Graphics/SVG/1.1/DTD/svg11.dtd">
<!-- Created with matplotlib (https://matplotlib.org/) -->
<svg height="374.715469pt" version="1.1" viewBox="0 0 726.94375 374.715469" width="726.94375pt" xmlns="http://www.w3.org/2000/svg" xmlns:xlink="http://www.w3.org/1999/xlink">
 <defs>
  <style type="text/css">
*{stroke-linecap:butt;stroke-linejoin:round;white-space:pre;}
  </style>
 </defs>
 <g id="figure_1">
  <g id="patch_1">
   <path d="M 0 374.715469 
L 726.94375 374.715469 
L 726.94375 0 
L 0 0 
z
" style="fill:#ffffff;"/>
  </g>
  <g id="axes_1">
   <g id="patch_2">
    <path d="M 50.14375 337.159219 
L 719.74375 337.159219 
L 719.74375 10.999219 
L 50.14375 10.999219 
z
" style="fill:#ffffff;"/>
   </g>
   <g id="matplotlib.axis_1">
    <g id="xtick_1">
     <g id="line2d_1">
      <path clip-path="url(#p708059578c)" d="M 50.14375 337.159219 
L 50.14375 10.999219 
" style="fill:none;stroke:#b0b0b0;stroke-linecap:square;stroke-width:0.8;"/>
     </g>
     <g id="line2d_2">
      <defs>
       <path d="M 0 0 
L 0 3.5 
" id="m91f8243a95" style="stroke:#000000;stroke-width:0.8;"/>
      </defs>
      <g>
       <use style="stroke:#000000;stroke-width:0.8;" x="50.14375" xlink:href="#m91f8243a95" y="337.159219"/>
      </g>
     </g>
     <g id="text_1">
      <!-- 0 -->
      <defs>
       <path d="M 31.78125 66.40625 
Q 24.171875 66.40625 20.328125 58.90625 
Q 16.5 51.421875 16.5 36.375 
Q 16.5 21.390625 20.328125 13.890625 
Q 24.171875 6.390625 31.78125 6.390625 
Q 39.453125 6.390625 43.28125 13.890625 
Q 47.125 21.390625 47.125 36.375 
Q 47.125 51.421875 43.28125 58.90625 
Q 39.453125 66.40625 31.78125 66.40625 
z
M 31.78125 74.21875 
Q 44.046875 74.21875 50.515625 64.515625 
Q 56.984375 54.828125 56.984375 36.375 
Q 56.984375 17.96875 50.515625 8.265625 
Q 44.046875 -1.421875 31.78125 -1.421875 
Q 19.53125 -1.421875 13.0625 8.265625 
Q 6.59375 17.96875 6.59375 36.375 
Q 6.59375 54.828125 13.0625 64.515625 
Q 19.53125 74.21875 31.78125 74.21875 
z
" id="DejaVuSans-48"/>
      </defs>
      <g transform="translate(46.9625 351.757656)scale(0.1 -0.1)">
       <use xlink:href="#DejaVuSans-48"/>
      </g>
     </g>
    </g>
    <g id="xtick_2">
     <g id="line2d_3">
      <path clip-path="url(#p708059578c)" d="M 129.867527 337.159219 
L 129.867527 10.999219 
" style="fill:none;stroke:#b0b0b0;stroke-linecap:square;stroke-width:0.8;"/>
     </g>
     <g id="line2d_4">
      <g>
       <use style="stroke:#000000;stroke-width:0.8;" x="129.867527" xlink:href="#m91f8243a95" y="337.159219"/>
      </g>
     </g>
     <g id="text_2">
      <!-- 50 -->
      <defs>
       <path d="M 10.796875 72.90625 
L 49.515625 72.90625 
L 49.515625 64.59375 
L 19.828125 64.59375 
L 19.828125 46.734375 
Q 21.96875 47.46875 24.109375 47.828125 
Q 26.265625 48.1875 28.421875 48.1875 
Q 40.625 48.1875 47.75 41.5 
Q 54.890625 34.8125 54.890625 23.390625 
Q 54.890625 11.625 47.5625 5.09375 
Q 40.234375 -1.421875 26.90625 -1.421875 
Q 22.3125 -1.421875 17.546875 -0.640625 
Q 12.796875 0.140625 7.71875 1.703125 
L 7.71875 11.625 
Q 12.109375 9.234375 16.796875 8.0625 
Q 21.484375 6.890625 26.703125 6.890625 
Q 35.15625 6.890625 40.078125 11.328125 
Q 45.015625 15.765625 45.015625 23.390625 
Q 45.015625 31 40.078125 35.4375 
Q 35.15625 39.890625 26.703125 39.890625 
Q 22.75 39.890625 18.8125 39.015625 
Q 14.890625 38.140625 10.796875 36.28125 
z
" id="DejaVuSans-53"/>
      </defs>
      <g transform="translate(123.505027 351.757656)scale(0.1 -0.1)">
       <use xlink:href="#DejaVuSans-53"/>
       <use x="63.623047" xlink:href="#DejaVuSans-48"/>
      </g>
     </g>
    </g>
    <g id="xtick_3">
     <g id="line2d_5">
      <path clip-path="url(#p708059578c)" d="M 209.591303 337.159219 
L 209.591303 10.999219 
" style="fill:none;stroke:#b0b0b0;stroke-linecap:square;stroke-width:0.8;"/>
     </g>
     <g id="line2d_6">
      <g>
       <use style="stroke:#000000;stroke-width:0.8;" x="209.591303" xlink:href="#m91f8243a95" y="337.159219"/>
      </g>
     </g>
     <g id="text_3">
      <!-- 100 -->
      <defs>
       <path d="M 12.40625 8.296875 
L 28.515625 8.296875 
L 28.515625 63.921875 
L 10.984375 60.40625 
L 10.984375 69.390625 
L 28.421875 72.90625 
L 38.28125 72.90625 
L 38.28125 8.296875 
L 54.390625 8.296875 
L 54.390625 0 
L 12.40625 0 
z
" id="DejaVuSans-49"/>
      </defs>
      <g transform="translate(200.047553 351.757656)scale(0.1 -0.1)">
       <use xlink:href="#DejaVuSans-49"/>
       <use x="63.623047" xlink:href="#DejaVuSans-48"/>
       <use x="127.246094" xlink:href="#DejaVuSans-48"/>
      </g>
     </g>
    </g>
    <g id="xtick_4">
     <g id="line2d_7">
      <path clip-path="url(#p708059578c)" d="M 289.31508 337.159219 
L 289.31508 10.999219 
" style="fill:none;stroke:#b0b0b0;stroke-linecap:square;stroke-width:0.8;"/>
     </g>
     <g id="line2d_8">
      <g>
       <use style="stroke:#000000;stroke-width:0.8;" x="289.31508" xlink:href="#m91f8243a95" y="337.159219"/>
      </g>
     </g>
     <g id="text_4">
      <!-- 150 -->
      <g transform="translate(279.77133 351.757656)scale(0.1 -0.1)">
       <use xlink:href="#DejaVuSans-49"/>
       <use x="63.623047" xlink:href="#DejaVuSans-53"/>
       <use x="127.246094" xlink:href="#DejaVuSans-48"/>
      </g>
     </g>
    </g>
    <g id="xtick_5">
     <g id="line2d_9">
      <path clip-path="url(#p708059578c)" d="M 369.038857 337.159219 
L 369.038857 10.999219 
" style="fill:none;stroke:#b0b0b0;stroke-linecap:square;stroke-width:0.8;"/>
     </g>
     <g id="line2d_10">
      <g>
       <use style="stroke:#000000;stroke-width:0.8;" x="369.038857" xlink:href="#m91f8243a95" y="337.159219"/>
      </g>
     </g>
     <g id="text_5">
      <!-- 200 -->
      <defs>
       <path d="M 19.1875 8.296875 
L 53.609375 8.296875 
L 53.609375 0 
L 7.328125 0 
L 7.328125 8.296875 
Q 12.9375 14.109375 22.625 23.890625 
Q 32.328125 33.6875 34.8125 36.53125 
Q 39.546875 41.84375 41.421875 45.53125 
Q 43.3125 49.21875 43.3125 52.78125 
Q 43.3125 58.59375 39.234375 62.25 
Q 35.15625 65.921875 28.609375 65.921875 
Q 23.96875 65.921875 18.8125 64.3125 
Q 13.671875 62.703125 7.8125 59.421875 
L 7.8125 69.390625 
Q 13.765625 71.78125 18.9375 73 
Q 24.125 74.21875 28.421875 74.21875 
Q 39.75 74.21875 46.484375 68.546875 
Q 53.21875 62.890625 53.21875 53.421875 
Q 53.21875 48.921875 51.53125 44.890625 
Q 49.859375 40.875 45.40625 35.40625 
Q 44.1875 33.984375 37.640625 27.21875 
Q 31.109375 20.453125 19.1875 8.296875 
z
" id="DejaVuSans-50"/>
      </defs>
      <g transform="translate(359.495107 351.757656)scale(0.1 -0.1)">
       <use xlink:href="#DejaVuSans-50"/>
       <use x="63.623047" xlink:href="#DejaVuSans-48"/>
       <use x="127.246094" xlink:href="#DejaVuSans-48"/>
      </g>
     </g>
    </g>
    <g id="xtick_6">
     <g id="line2d_11">
      <path clip-path="url(#p708059578c)" d="M 448.762633 337.159219 
L 448.762633 10.999219 
" style="fill:none;stroke:#b0b0b0;stroke-linecap:square;stroke-width:0.8;"/>
     </g>
     <g id="line2d_12">
      <g>
       <use style="stroke:#000000;stroke-width:0.8;" x="448.762633" xlink:href="#m91f8243a95" y="337.159219"/>
      </g>
     </g>
     <g id="text_6">
      <!-- 250 -->
      <g transform="translate(439.218883 351.757656)scale(0.1 -0.1)">
       <use xlink:href="#DejaVuSans-50"/>
       <use x="63.623047" xlink:href="#DejaVuSans-53"/>
       <use x="127.246094" xlink:href="#DejaVuSans-48"/>
      </g>
     </g>
    </g>
    <g id="xtick_7">
     <g id="line2d_13">
      <path clip-path="url(#p708059578c)" d="M 528.48641 337.159219 
L 528.48641 10.999219 
" style="fill:none;stroke:#b0b0b0;stroke-linecap:square;stroke-width:0.8;"/>
     </g>
     <g id="line2d_14">
      <g>
       <use style="stroke:#000000;stroke-width:0.8;" x="528.48641" xlink:href="#m91f8243a95" y="337.159219"/>
      </g>
     </g>
     <g id="text_7">
      <!-- 300 -->
      <defs>
       <path d="M 40.578125 39.3125 
Q 47.65625 37.796875 51.625 33 
Q 55.609375 28.21875 55.609375 21.1875 
Q 55.609375 10.40625 48.1875 4.484375 
Q 40.765625 -1.421875 27.09375 -1.421875 
Q 22.515625 -1.421875 17.65625 -0.515625 
Q 12.796875 0.390625 7.625 2.203125 
L 7.625 11.71875 
Q 11.71875 9.328125 16.59375 8.109375 
Q 21.484375 6.890625 26.8125 6.890625 
Q 36.078125 6.890625 40.9375 10.546875 
Q 45.796875 14.203125 45.796875 21.1875 
Q 45.796875 27.640625 41.28125 31.265625 
Q 36.765625 34.90625 28.71875 34.90625 
L 20.21875 34.90625 
L 20.21875 43.015625 
L 29.109375 43.015625 
Q 36.375 43.015625 40.234375 45.921875 
Q 44.09375 48.828125 44.09375 54.296875 
Q 44.09375 59.90625 40.109375 62.90625 
Q 36.140625 65.921875 28.71875 65.921875 
Q 24.65625 65.921875 20.015625 65.03125 
Q 15.375 64.15625 9.8125 62.3125 
L 9.8125 71.09375 
Q 15.4375 72.65625 20.34375 73.4375 
Q 25.25 74.21875 29.59375 74.21875 
Q 40.828125 74.21875 47.359375 69.109375 
Q 53.90625 64.015625 53.90625 55.328125 
Q 53.90625 49.265625 50.4375 45.09375 
Q 46.96875 40.921875 40.578125 39.3125 
z
" id="DejaVuSans-51"/>
      </defs>
      <g transform="translate(518.94266 351.757656)scale(0.1 -0.1)">
       <use xlink:href="#DejaVuSans-51"/>
       <use x="63.623047" xlink:href="#DejaVuSans-48"/>
       <use x="127.246094" xlink:href="#DejaVuSans-48"/>
      </g>
     </g>
    </g>
    <g id="xtick_8">
     <g id="line2d_15">
      <path clip-path="url(#p708059578c)" d="M 608.210186 337.159219 
L 608.210186 10.999219 
" style="fill:none;stroke:#b0b0b0;stroke-linecap:square;stroke-width:0.8;"/>
     </g>
     <g id="line2d_16">
      <g>
       <use style="stroke:#000000;stroke-width:0.8;" x="608.210186" xlink:href="#m91f8243a95" y="337.159219"/>
      </g>
     </g>
     <g id="text_8">
      <!-- 350 -->
      <g transform="translate(598.666436 351.757656)scale(0.1 -0.1)">
       <use xlink:href="#DejaVuSans-51"/>
       <use x="63.623047" xlink:href="#DejaVuSans-53"/>
       <use x="127.246094" xlink:href="#DejaVuSans-48"/>
      </g>
     </g>
    </g>
    <g id="xtick_9">
     <g id="line2d_17">
      <path clip-path="url(#p708059578c)" d="M 687.933963 337.159219 
L 687.933963 10.999219 
" style="fill:none;stroke:#b0b0b0;stroke-linecap:square;stroke-width:0.8;"/>
     </g>
     <g id="line2d_18">
      <g>
       <use style="stroke:#000000;stroke-width:0.8;" x="687.933963" xlink:href="#m91f8243a95" y="337.159219"/>
      </g>
     </g>
     <g id="text_9">
      <!-- 400 -->
      <defs>
       <path d="M 37.796875 64.3125 
L 12.890625 25.390625 
L 37.796875 25.390625 
z
M 35.203125 72.90625 
L 47.609375 72.90625 
L 47.609375 25.390625 
L 58.015625 25.390625 
L 58.015625 17.1875 
L 47.609375 17.1875 
L 47.609375 0 
L 37.796875 0 
L 37.796875 17.1875 
L 4.890625 17.1875 
L 4.890625 26.703125 
z
" id="DejaVuSans-52"/>
      </defs>
      <g transform="translate(678.390213 351.757656)scale(0.1 -0.1)">
       <use xlink:href="#DejaVuSans-52"/>
       <use x="63.623047" xlink:href="#DejaVuSans-48"/>
       <use x="127.246094" xlink:href="#DejaVuSans-48"/>
      </g>
     </g>
    </g>
    <g id="text_10">
     <!-- Epoch -->
     <defs>
      <path d="M 9.8125 72.90625 
L 55.90625 72.90625 
L 55.90625 64.59375 
L 19.671875 64.59375 
L 19.671875 43.015625 
L 54.390625 43.015625 
L 54.390625 34.71875 
L 19.671875 34.71875 
L 19.671875 8.296875 
L 56.78125 8.296875 
L 56.78125 0 
L 9.8125 0 
z
" id="DejaVuSans-69"/>
      <path d="M 18.109375 8.203125 
L 18.109375 -20.796875 
L 9.078125 -20.796875 
L 9.078125 54.6875 
L 18.109375 54.6875 
L 18.109375 46.390625 
Q 20.953125 51.265625 25.265625 53.625 
Q 29.59375 56 35.59375 56 
Q 45.5625 56 51.78125 48.09375 
Q 58.015625 40.1875 58.015625 27.296875 
Q 58.015625 14.40625 51.78125 6.484375 
Q 45.5625 -1.421875 35.59375 -1.421875 
Q 29.59375 -1.421875 25.265625 0.953125 
Q 20.953125 3.328125 18.109375 8.203125 
z
M 48.6875 27.296875 
Q 48.6875 37.203125 44.609375 42.84375 
Q 40.53125 48.484375 33.40625 48.484375 
Q 26.265625 48.484375 22.1875 42.84375 
Q 18.109375 37.203125 18.109375 27.296875 
Q 18.109375 17.390625 22.1875 11.75 
Q 26.265625 6.109375 33.40625 6.109375 
Q 40.53125 6.109375 44.609375 11.75 
Q 48.6875 17.390625 48.6875 27.296875 
z
" id="DejaVuSans-112"/>
      <path d="M 30.609375 48.390625 
Q 23.390625 48.390625 19.1875 42.75 
Q 14.984375 37.109375 14.984375 27.296875 
Q 14.984375 17.484375 19.15625 11.84375 
Q 23.34375 6.203125 30.609375 6.203125 
Q 37.796875 6.203125 41.984375 11.859375 
Q 46.1875 17.53125 46.1875 27.296875 
Q 46.1875 37.015625 41.984375 42.703125 
Q 37.796875 48.390625 30.609375 48.390625 
z
M 30.609375 56 
Q 42.328125 56 49.015625 48.375 
Q 55.71875 40.765625 55.71875 27.296875 
Q 55.71875 13.875 49.015625 6.21875 
Q 42.328125 -1.421875 30.609375 -1.421875 
Q 18.84375 -1.421875 12.171875 6.21875 
Q 5.515625 13.875 5.515625 27.296875 
Q 5.515625 40.765625 12.171875 48.375 
Q 18.84375 56 30.609375 56 
z
" id="DejaVuSans-111"/>
      <path d="M 48.78125 52.59375 
L 48.78125 44.1875 
Q 44.96875 46.296875 41.140625 47.34375 
Q 37.3125 48.390625 33.40625 48.390625 
Q 24.65625 48.390625 19.8125 42.84375 
Q 14.984375 37.3125 14.984375 27.296875 
Q 14.984375 17.28125 19.8125 11.734375 
Q 24.65625 6.203125 33.40625 6.203125 
Q 37.3125 6.203125 41.140625 7.25 
Q 44.96875 8.296875 48.78125 10.40625 
L 48.78125 2.09375 
Q 45.015625 0.34375 40.984375 -0.53125 
Q 36.96875 -1.421875 32.421875 -1.421875 
Q 20.0625 -1.421875 12.78125 6.34375 
Q 5.515625 14.109375 5.515625 27.296875 
Q 5.515625 40.671875 12.859375 48.328125 
Q 20.21875 56 33.015625 56 
Q 37.15625 56 41.109375 55.140625 
Q 45.0625 54.296875 48.78125 52.59375 
z
" id="DejaVuSans-99"/>
      <path d="M 54.890625 33.015625 
L 54.890625 0 
L 45.90625 0 
L 45.90625 32.71875 
Q 45.90625 40.484375 42.875 44.328125 
Q 39.84375 48.1875 33.796875 48.1875 
Q 26.515625 48.1875 22.3125 43.546875 
Q 18.109375 38.921875 18.109375 30.90625 
L 18.109375 0 
L 9.078125 0 
L 9.078125 75.984375 
L 18.109375 75.984375 
L 18.109375 46.1875 
Q 21.34375 51.125 25.703125 53.5625 
Q 30.078125 56 35.796875 56 
Q 45.21875 56 50.046875 50.171875 
Q 54.890625 44.34375 54.890625 33.015625 
z
" id="DejaVuSans-104"/>
     </defs>
     <g transform="translate(369.632813 365.435781)scale(0.1 -0.1)">
      <use xlink:href="#DejaVuSans-69"/>
      <use x="63.183594" xlink:href="#DejaVuSans-112"/>
      <use x="126.660156" xlink:href="#DejaVuSans-111"/>
      <use x="187.841797" xlink:href="#DejaVuSans-99"/>
      <use x="242.822266" xlink:href="#DejaVuSans-104"/>
     </g>
    </g>
   </g>
   <g id="matplotlib.axis_2">
    <g id="ytick_1">
     <g id="line2d_19">
      <path clip-path="url(#p708059578c)" d="M 50.14375 337.159219 
L 719.74375 337.159219 
" style="fill:none;stroke:#b0b0b0;stroke-linecap:square;stroke-width:0.8;"/>
     </g>
     <g id="line2d_20">
      <defs>
       <path d="M 0 0 
L -3.5 0 
" id="ma5a459488c" style="stroke:#000000;stroke-width:0.8;"/>
      </defs>
      <g>
       <use style="stroke:#000000;stroke-width:0.8;" x="50.14375" xlink:href="#ma5a459488c" y="337.159219"/>
      </g>
     </g>
     <g id="text_11">
      <!-- 0.82 -->
      <defs>
       <path d="M 10.6875 12.40625 
L 21 12.40625 
L 21 0 
L 10.6875 0 
z
" id="DejaVuSans-46"/>
       <path d="M 31.78125 34.625 
Q 24.75 34.625 20.71875 30.859375 
Q 16.703125 27.09375 16.703125 20.515625 
Q 16.703125 13.921875 20.71875 10.15625 
Q 24.75 6.390625 31.78125 6.390625 
Q 38.8125 6.390625 42.859375 10.171875 
Q 46.921875 13.96875 46.921875 20.515625 
Q 46.921875 27.09375 42.890625 30.859375 
Q 38.875 34.625 31.78125 34.625 
z
M 21.921875 38.8125 
Q 15.578125 40.375 12.03125 44.71875 
Q 8.5 49.078125 8.5 55.328125 
Q 8.5 64.0625 14.71875 69.140625 
Q 20.953125 74.21875 31.78125 74.21875 
Q 42.671875 74.21875 48.875 69.140625 
Q 55.078125 64.0625 55.078125 55.328125 
Q 55.078125 49.078125 51.53125 44.71875 
Q 48 40.375 41.703125 38.8125 
Q 48.828125 37.15625 52.796875 32.3125 
Q 56.78125 27.484375 56.78125 20.515625 
Q 56.78125 9.90625 50.3125 4.234375 
Q 43.84375 -1.421875 31.78125 -1.421875 
Q 19.734375 -1.421875 13.25 4.234375 
Q 6.78125 9.90625 6.78125 20.515625 
Q 6.78125 27.484375 10.78125 32.3125 
Q 14.796875 37.15625 21.921875 38.8125 
z
M 18.3125 54.390625 
Q 18.3125 48.734375 21.84375 45.5625 
Q 25.390625 42.390625 31.78125 42.390625 
Q 38.140625 42.390625 41.71875 45.5625 
Q 45.3125 48.734375 45.3125 54.390625 
Q 45.3125 60.0625 41.71875 63.234375 
Q 38.140625 66.40625 31.78125 66.40625 
Q 25.390625 66.40625 21.84375 63.234375 
Q 18.3125 60.0625 18.3125 54.390625 
z
" id="DejaVuSans-56"/>
      </defs>
      <g transform="translate(20.878125 340.958437)scale(0.1 -0.1)">
       <use xlink:href="#DejaVuSans-48"/>
       <use x="63.623047" xlink:href="#DejaVuSans-46"/>
       <use x="95.410156" xlink:href="#DejaVuSans-56"/>
       <use x="159.033203" xlink:href="#DejaVuSans-50"/>
      </g>
     </g>
    </g>
    <g id="ytick_2">
     <g id="line2d_21">
      <path clip-path="url(#p708059578c)" d="M 50.14375 296.389219 
L 719.74375 296.389219 
" style="fill:none;stroke:#b0b0b0;stroke-linecap:square;stroke-width:0.8;"/>
     </g>
     <g id="line2d_22">
      <g>
       <use style="stroke:#000000;stroke-width:0.8;" x="50.14375" xlink:href="#ma5a459488c" y="296.389219"/>
      </g>
     </g>
     <g id="text_12">
      <!-- 0.84 -->
      <g transform="translate(20.878125 300.188437)scale(0.1 -0.1)">
       <use xlink:href="#DejaVuSans-48"/>
       <use x="63.623047" xlink:href="#DejaVuSans-46"/>
       <use x="95.410156" xlink:href="#DejaVuSans-56"/>
       <use x="159.033203" xlink:href="#DejaVuSans-52"/>
      </g>
     </g>
    </g>
    <g id="ytick_3">
     <g id="line2d_23">
      <path clip-path="url(#p708059578c)" d="M 50.14375 255.619219 
L 719.74375 255.619219 
" style="fill:none;stroke:#b0b0b0;stroke-linecap:square;stroke-width:0.8;"/>
     </g>
     <g id="line2d_24">
      <g>
       <use style="stroke:#000000;stroke-width:0.8;" x="50.14375" xlink:href="#ma5a459488c" y="255.619219"/>
      </g>
     </g>
     <g id="text_13">
      <!-- 0.86 -->
      <defs>
       <path d="M 33.015625 40.375 
Q 26.375 40.375 22.484375 35.828125 
Q 18.609375 31.296875 18.609375 23.390625 
Q 18.609375 15.53125 22.484375 10.953125 
Q 26.375 6.390625 33.015625 6.390625 
Q 39.65625 6.390625 43.53125 10.953125 
Q 47.40625 15.53125 47.40625 23.390625 
Q 47.40625 31.296875 43.53125 35.828125 
Q 39.65625 40.375 33.015625 40.375 
z
M 52.59375 71.296875 
L 52.59375 62.3125 
Q 48.875 64.0625 45.09375 64.984375 
Q 41.3125 65.921875 37.59375 65.921875 
Q 27.828125 65.921875 22.671875 59.328125 
Q 17.53125 52.734375 16.796875 39.40625 
Q 19.671875 43.65625 24.015625 45.921875 
Q 28.375 48.1875 33.59375 48.1875 
Q 44.578125 48.1875 50.953125 41.515625 
Q 57.328125 34.859375 57.328125 23.390625 
Q 57.328125 12.15625 50.6875 5.359375 
Q 44.046875 -1.421875 33.015625 -1.421875 
Q 20.359375 -1.421875 13.671875 8.265625 
Q 6.984375 17.96875 6.984375 36.375 
Q 6.984375 53.65625 15.1875 63.9375 
Q 23.390625 74.21875 37.203125 74.21875 
Q 40.921875 74.21875 44.703125 73.484375 
Q 48.484375 72.75 52.59375 71.296875 
z
" id="DejaVuSans-54"/>
      </defs>
      <g transform="translate(20.878125 259.418437)scale(0.1 -0.1)">
       <use xlink:href="#DejaVuSans-48"/>
       <use x="63.623047" xlink:href="#DejaVuSans-46"/>
       <use x="95.410156" xlink:href="#DejaVuSans-56"/>
       <use x="159.033203" xlink:href="#DejaVuSans-54"/>
      </g>
     </g>
    </g>
    <g id="ytick_4">
     <g id="line2d_25">
      <path clip-path="url(#p708059578c)" d="M 50.14375 214.849219 
L 719.74375 214.849219 
" style="fill:none;stroke:#b0b0b0;stroke-linecap:square;stroke-width:0.8;"/>
     </g>
     <g id="line2d_26">
      <g>
       <use style="stroke:#000000;stroke-width:0.8;" x="50.14375" xlink:href="#ma5a459488c" y="214.849219"/>
      </g>
     </g>
     <g id="text_14">
      <!-- 0.88 -->
      <g transform="translate(20.878125 218.648437)scale(0.1 -0.1)">
       <use xlink:href="#DejaVuSans-48"/>
       <use x="63.623047" xlink:href="#DejaVuSans-46"/>
       <use x="95.410156" xlink:href="#DejaVuSans-56"/>
       <use x="159.033203" xlink:href="#DejaVuSans-56"/>
      </g>
     </g>
    </g>
    <g id="ytick_5">
     <g id="line2d_27">
      <path clip-path="url(#p708059578c)" d="M 50.14375 174.079219 
L 719.74375 174.079219 
" style="fill:none;stroke:#b0b0b0;stroke-linecap:square;stroke-width:0.8;"/>
     </g>
     <g id="line2d_28">
      <g>
       <use style="stroke:#000000;stroke-width:0.8;" x="50.14375" xlink:href="#ma5a459488c" y="174.079219"/>
      </g>
     </g>
     <g id="text_15">
      <!-- 0.90 -->
      <defs>
       <path d="M 10.984375 1.515625 
L 10.984375 10.5 
Q 14.703125 8.734375 18.5 7.8125 
Q 22.3125 6.890625 25.984375 6.890625 
Q 35.75 6.890625 40.890625 13.453125 
Q 46.046875 20.015625 46.78125 33.40625 
Q 43.953125 29.203125 39.59375 26.953125 
Q 35.25 24.703125 29.984375 24.703125 
Q 19.046875 24.703125 12.671875 31.3125 
Q 6.296875 37.9375 6.296875 49.421875 
Q 6.296875 60.640625 12.9375 67.421875 
Q 19.578125 74.21875 30.609375 74.21875 
Q 43.265625 74.21875 49.921875 64.515625 
Q 56.59375 54.828125 56.59375 36.375 
Q 56.59375 19.140625 48.40625 8.859375 
Q 40.234375 -1.421875 26.421875 -1.421875 
Q 22.703125 -1.421875 18.890625 -0.6875 
Q 15.09375 0.046875 10.984375 1.515625 
z
M 30.609375 32.421875 
Q 37.25 32.421875 41.125 36.953125 
Q 45.015625 41.5 45.015625 49.421875 
Q 45.015625 57.28125 41.125 61.84375 
Q 37.25 66.40625 30.609375 66.40625 
Q 23.96875 66.40625 20.09375 61.84375 
Q 16.21875 57.28125 16.21875 49.421875 
Q 16.21875 41.5 20.09375 36.953125 
Q 23.96875 32.421875 30.609375 32.421875 
z
" id="DejaVuSans-57"/>
      </defs>
      <g transform="translate(20.878125 177.878437)scale(0.1 -0.1)">
       <use xlink:href="#DejaVuSans-48"/>
       <use x="63.623047" xlink:href="#DejaVuSans-46"/>
       <use x="95.410156" xlink:href="#DejaVuSans-57"/>
       <use x="159.033203" xlink:href="#DejaVuSans-48"/>
      </g>
     </g>
    </g>
    <g id="ytick_6">
     <g id="line2d_29">
      <path clip-path="url(#p708059578c)" d="M 50.14375 133.309219 
L 719.74375 133.309219 
" style="fill:none;stroke:#b0b0b0;stroke-linecap:square;stroke-width:0.8;"/>
     </g>
     <g id="line2d_30">
      <g>
       <use style="stroke:#000000;stroke-width:0.8;" x="50.14375" xlink:href="#ma5a459488c" y="133.309219"/>
      </g>
     </g>
     <g id="text_16">
      <!-- 0.92 -->
      <g transform="translate(20.878125 137.108437)scale(0.1 -0.1)">
       <use xlink:href="#DejaVuSans-48"/>
       <use x="63.623047" xlink:href="#DejaVuSans-46"/>
       <use x="95.410156" xlink:href="#DejaVuSans-57"/>
       <use x="159.033203" xlink:href="#DejaVuSans-50"/>
      </g>
     </g>
    </g>
    <g id="ytick_7">
     <g id="line2d_31">
      <path clip-path="url(#p708059578c)" d="M 50.14375 92.539219 
L 719.74375 92.539219 
" style="fill:none;stroke:#b0b0b0;stroke-linecap:square;stroke-width:0.8;"/>
     </g>
     <g id="line2d_32">
      <g>
       <use style="stroke:#000000;stroke-width:0.8;" x="50.14375" xlink:href="#ma5a459488c" y="92.539219"/>
      </g>
     </g>
     <g id="text_17">
      <!-- 0.94 -->
      <g transform="translate(20.878125 96.338437)scale(0.1 -0.1)">
       <use xlink:href="#DejaVuSans-48"/>
       <use x="63.623047" xlink:href="#DejaVuSans-46"/>
       <use x="95.410156" xlink:href="#DejaVuSans-57"/>
       <use x="159.033203" xlink:href="#DejaVuSans-52"/>
      </g>
     </g>
    </g>
    <g id="ytick_8">
     <g id="line2d_33">
      <path clip-path="url(#p708059578c)" d="M 50.14375 51.769219 
L 719.74375 51.769219 
" style="fill:none;stroke:#b0b0b0;stroke-linecap:square;stroke-width:0.8;"/>
     </g>
     <g id="line2d_34">
      <g>
       <use style="stroke:#000000;stroke-width:0.8;" x="50.14375" xlink:href="#ma5a459488c" y="51.769219"/>
      </g>
     </g>
     <g id="text_18">
      <!-- 0.96 -->
      <g transform="translate(20.878125 55.568437)scale(0.1 -0.1)">
       <use xlink:href="#DejaVuSans-48"/>
       <use x="63.623047" xlink:href="#DejaVuSans-46"/>
       <use x="95.410156" xlink:href="#DejaVuSans-57"/>
       <use x="159.033203" xlink:href="#DejaVuSans-54"/>
      </g>
     </g>
    </g>
    <g id="ytick_9">
     <g id="line2d_35">
      <path clip-path="url(#p708059578c)" d="M 50.14375 10.999219 
L 719.74375 10.999219 
" style="fill:none;stroke:#b0b0b0;stroke-linecap:square;stroke-width:0.8;"/>
     </g>
     <g id="line2d_36">
      <g>
       <use style="stroke:#000000;stroke-width:0.8;" x="50.14375" xlink:href="#ma5a459488c" y="10.999219"/>
      </g>
     </g>
     <g id="text_19">
      <!-- 0.98 -->
      <g transform="translate(20.878125 14.798437)scale(0.1 -0.1)">
       <use xlink:href="#DejaVuSans-48"/>
       <use x="63.623047" xlink:href="#DejaVuSans-46"/>
       <use x="95.410156" xlink:href="#DejaVuSans-57"/>
       <use x="159.033203" xlink:href="#DejaVuSans-56"/>
      </g>
     </g>
    </g>
    <g id="text_20">
     <!-- Accuracy -->
     <defs>
      <path d="M 34.1875 63.1875 
L 20.796875 26.90625 
L 47.609375 26.90625 
z
M 28.609375 72.90625 
L 39.796875 72.90625 
L 67.578125 0 
L 57.328125 0 
L 50.6875 18.703125 
L 17.828125 18.703125 
L 11.1875 0 
L 0.78125 0 
z
" id="DejaVuSans-65"/>
      <path d="M 8.5 21.578125 
L 8.5 54.6875 
L 17.484375 54.6875 
L 17.484375 21.921875 
Q 17.484375 14.15625 20.5 10.265625 
Q 23.53125 6.390625 29.59375 6.390625 
Q 36.859375 6.390625 41.078125 11.03125 
Q 45.3125 15.671875 45.3125 23.6875 
L 45.3125 54.6875 
L 54.296875 54.6875 
L 54.296875 0 
L 45.3125 0 
L 45.3125 8.40625 
Q 42.046875 3.421875 37.71875 1 
Q 33.40625 -1.421875 27.6875 -1.421875 
Q 18.265625 -1.421875 13.375 4.4375 
Q 8.5 10.296875 8.5 21.578125 
z
M 31.109375 56 
z
" id="DejaVuSans-117"/>
      <path d="M 41.109375 46.296875 
Q 39.59375 47.171875 37.8125 47.578125 
Q 36.03125 48 33.890625 48 
Q 26.265625 48 22.1875 43.046875 
Q 18.109375 38.09375 18.109375 28.8125 
L 18.109375 0 
L 9.078125 0 
L 9.078125 54.6875 
L 18.109375 54.6875 
L 18.109375 46.1875 
Q 20.953125 51.171875 25.484375 53.578125 
Q 30.03125 56 36.53125 56 
Q 37.453125 56 38.578125 55.875 
Q 39.703125 55.765625 41.0625 55.515625 
z
" id="DejaVuSans-114"/>
      <path d="M 34.28125 27.484375 
Q 23.390625 27.484375 19.1875 25 
Q 14.984375 22.515625 14.984375 16.5 
Q 14.984375 11.71875 18.140625 8.90625 
Q 21.296875 6.109375 26.703125 6.109375 
Q 34.1875 6.109375 38.703125 11.40625 
Q 43.21875 16.703125 43.21875 25.484375 
L 43.21875 27.484375 
z
M 52.203125 31.203125 
L 52.203125 0 
L 43.21875 0 
L 43.21875 8.296875 
Q 40.140625 3.328125 35.546875 0.953125 
Q 30.953125 -1.421875 24.3125 -1.421875 
Q 15.921875 -1.421875 10.953125 3.296875 
Q 6 8.015625 6 15.921875 
Q 6 25.140625 12.171875 29.828125 
Q 18.359375 34.515625 30.609375 34.515625 
L 43.21875 34.515625 
L 43.21875 35.40625 
Q 43.21875 41.609375 39.140625 45 
Q 35.0625 48.390625 27.6875 48.390625 
Q 23 48.390625 18.546875 47.265625 
Q 14.109375 46.140625 10.015625 43.890625 
L 10.015625 52.203125 
Q 14.9375 54.109375 19.578125 55.046875 
Q 24.21875 56 28.609375 56 
Q 40.484375 56 46.34375 49.84375 
Q 52.203125 43.703125 52.203125 31.203125 
z
" id="DejaVuSans-97"/>
      <path d="M 32.171875 -5.078125 
Q 28.375 -14.84375 24.75 -17.8125 
Q 21.140625 -20.796875 15.09375 -20.796875 
L 7.90625 -20.796875 
L 7.90625 -13.28125 
L 13.1875 -13.28125 
Q 16.890625 -13.28125 18.9375 -11.515625 
Q 21 -9.765625 23.484375 -3.21875 
L 25.09375 0.875 
L 2.984375 54.6875 
L 12.5 54.6875 
L 29.59375 11.921875 
L 46.6875 54.6875 
L 56.203125 54.6875 
z
" id="DejaVuSans-121"/>
     </defs>
     <g transform="translate(14.798438 196.994062)rotate(-90)scale(0.1 -0.1)">
      <use xlink:href="#DejaVuSans-65"/>
      <use x="68.392578" xlink:href="#DejaVuSans-99"/>
      <use x="123.373047" xlink:href="#DejaVuSans-99"/>
      <use x="178.353516" xlink:href="#DejaVuSans-117"/>
      <use x="241.732422" xlink:href="#DejaVuSans-114"/>
      <use x="282.845703" xlink:href="#DejaVuSans-97"/>
      <use x="344.125" xlink:href="#DejaVuSans-99"/>
      <use x="399.105469" xlink:href="#DejaVuSans-121"/>
     </g>
    </g>
   </g>
   <g id="line2d_37">
    <path clip-path="url(#p708059578c)" d="M 107.14656 375.715469 
L 112.23732 358.920528 
L 117.33198 342.897688 
L 121.789808 329.570057 
L 126.247636 316.93168 
L 130.705464 305.023656 
L 134.52646 295.424956 
L 138.347455 286.378951 
L 142.16845 277.861832 
L 145.989446 269.849726 
L 149.810441 262.318759 
L 153.631437 255.245059 
L 157.452432 248.604753 
L 161.273428 242.373967 
L 165.094423 236.528828 
L 168.915418 231.045463 
L 172.736414 225.899998 
L 177.194242 220.292176 
L 181.65207 215.073871 
L 186.109898 210.207172 
L 190.567726 205.65417 
L 195.662386 200.786229 
L 200.757047 196.221911 
L 206.48854 191.37952 
L 213.493698 185.768941 
L 221.135689 179.935726 
L 228.77768 174.384815 
L 236.419671 169.106302 
L 244.061662 164.090285 
L 251.703653 159.326858 
L 259.982476 154.440032 
L 268.261299 149.825432 
L 276.540123 145.470465 
L 284.818946 141.362539 
L 293.09777 137.489059 
L 302.013426 133.565368 
L 310.929082 129.883248 
L 320.48157 126.18832 
L 330.034059 122.733305 
L 340.22338 119.290597 
L 351.049534 115.881435 
L 362.51252 112.520346 
L 374.612339 109.21385 
L 387.34899 105.970424 
L 400.085641 102.955773 
L 413.459125 100.022284 
L 426.832609 97.311431 
L 440.842926 94.693767 
L 455.490075 92.181678 
L 470.774057 89.783877 
L 487.331704 87.417968 
L 504.526183 85.186066 
L 523.63116 82.936338 
L 544.646635 80.690436 
L 569.483105 78.267098 
L 604.508896 75.095636 
L 657.366 70.301826 
L 682.20247 67.816388 
L 687.933963 67.206242 
L 687.933963 67.206242 
" style="fill:none;stroke:#377eb8;stroke-linecap:square;stroke-width:2;"/>
   </g>
   <g id="line2d_38">
    <path clip-path="url(#p708059578c)" d="M 99.725608 375.715469 
L 102.047999 367.182975 
L 104.595329 358.549576 
L 107.142659 350.617608 
L 109.689989 343.334475 
L 112.23732 336.647578 
L 114.78465 330.504323 
L 117.33198 324.85211 
L 120.516143 318.397247 
L 123.700306 312.524729 
L 126.884469 307.131827 
L 130.705464 301.148799 
L 135.163292 294.642612 
L 139.62112 288.56854 
L 144.078948 282.905479 
L 148.536776 277.632541 
L 152.994604 272.728836 
L 157.452432 268.173473 
L 161.91026 263.945564 
L 166.368088 260.024218 
L 170.825916 256.388546 
L 175.283744 253.017657 
L 180.378405 249.462641 
L 185.473065 246.194998 
L 190.567726 243.183546 
L 196.299219 240.063065 
L 202.667545 236.87586 
L 209.672703 233.640008 
L 217.951526 230.083947 
L 226.23035 226.778668 
L 234.509173 223.711479 
L 242.787997 220.869812 
L 251.703653 218.04735 
L 260.619309 215.456166 
L 270.171797 212.918712 
L 279.724286 210.609427 
L 289.913607 208.375931 
L 300.73976 206.237013 
L 312.202747 204.204618 
L 324.302566 202.282379 
L 338.312882 200.2921 
L 354.233696 198.263218 
L 375.886004 195.747025 
L 403.269804 192.778153 
L 429.37994 190.170821 
L 454.21641 187.916032 
L 477.779215 185.999633 
L 500.705187 184.360795 
L 522.357495 183.032674 
L 543.37297 181.961291 
L 563.751612 181.139453 
L 583.493422 180.558321 
L 603.235231 180.19959 
L 622.340208 180.074243 
L 640.808353 180.169662 
L 659.276497 180.486837 
L 677.107809 181.011692 
L 687.933963 181.438523 
L 687.933963 181.438523 
" style="fill:none;stroke:#4daf4a;stroke-linecap:square;stroke-width:2;"/>
   </g>
   <g id="line2d_39">
    <path clip-path="url(#p708059578c)" d="M 105.114787 375.715469 
L 105.950394 366.768438 
L 107.544869 369.928152 
L 109.139345 363.863519 
L 110.73382 353.212351 
L 112.328296 352.346027 
L 113.922771 339.860269 
L 115.517247 346.077632 
L 117.111722 341.083329 
L 118.706198 334.458198 
L 120.300673 324.775296 
L 121.895149 319.882934 
L 123.489625 317.640577 
L 125.0841 311.474124 
L 126.678576 310.65871 
L 128.273051 312.748215 
L 129.867527 300.721014 
L 131.462002 300.619072 
L 133.056478 296.134357 
L 137.839904 287.827488 
L 139.43438 283.240952 
L 141.028855 283.342773 
L 142.623331 271.774371 
L 144.217806 276.768674 
L 145.812282 274.526316 
L 147.406758 262.753908 
L 149.001233 269.022303 
L 150.595709 260.001963 
L 152.190184 263.314528 
L 153.78466 253.937452 
L 155.379135 252.765302 
L 156.973611 252.969186 
L 158.568086 248.688355 
L 160.162562 242.776696 
L 161.757037 242.216076 
L 163.351513 246.598849 
L 164.945988 237.170741 
L 166.540464 232.125527 
L 168.134939 236.202475 
L 169.729415 232.991851 
L 171.32389 228.09949 
L 172.918366 226.31581 
L 176.107317 226.672546 
L 177.701793 222.136799 
L 179.296268 218.467498 
L 180.890744 219.232002 
L 182.485219 215.205964 
L 184.079695 212.352077 
L 185.67417 215.817494 
L 187.268646 213.014517 
L 188.863121 208.93757 
L 190.457597 202.312439 
L 192.052072 209.447158 
L 193.646548 203.382647 
L 195.241023 204.554796 
L 196.835499 201.089379 
L 198.429975 196.40078 
L 200.02445 200.834585 
L 201.618926 197.216194 
L 203.213401 199.101815 
L 204.807877 194.719042 
L 206.402352 191.712302 
L 207.996828 189.368003 
L 209.591303 191.508418 
L 211.185779 190.336269 
L 212.780254 186.615936 
L 214.37473 184.220726 
L 215.969205 186.361142 
L 217.563681 181.010102 
L 219.158156 177.952331 
L 220.752632 179.277454 
L 222.347108 174.843649 
L 225.536059 177.136917 
L 227.130534 178.767745 
L 228.72501 172.550382 
L 230.319485 173.467616 
L 231.913961 169.237816 
L 233.508436 172.091704 
L 235.102912 170.409966 
L 236.697387 172.142614 
L 238.291863 165.619425 
L 239.886338 164.345333 
L 241.480814 164.039629 
L 243.075289 167.301163 
L 244.669765 164.498307 
L 246.264241 164.039629 
L 247.858716 162.154008 
L 249.453192 164.243513 
L 251.047667 157.924086 
L 252.642143 157.924086 
L 254.236618 155.834702 
L 255.831094 155.579787 
L 257.425569 161.593388 
L 259.020045 154.611521 
L 260.61452 150.636515 
L 262.208996 150.993251 
L 263.803471 147.884448 
L 265.397947 153.592345 
L 266.992422 154.305817 
L 268.586898 143.909443 
L 270.181374 142.992087 
L 271.775849 150.993251 
L 273.370325 146.916182 
L 274.9648 144.775767 
L 276.559276 147.069034 
L 278.153751 146.457504 
L 279.748227 142.431467 
L 281.342702 142.890145 
L 282.937178 141.463201 
L 284.531653 141.157497 
L 286.126129 136.061252 
L 287.720604 137.997784 
L 289.31508 139.067992 
L 290.909555 137.284312 
L 292.504031 133.971746 
L 294.098507 135.347658 
L 297.287458 136.316046 
L 298.881933 135.194806 
L 302.070884 132.340919 
L 303.66536 129.028353 
L 305.259835 131.117859 
L 306.854311 130.659181 
L 308.448786 130.659181 
L 310.043262 130.149593 
L 311.637737 130.302445 
L 313.232213 128.162029 
L 314.826688 128.060087 
L 316.421164 124.951406 
L 318.01564 126.225376 
L 319.610115 124.849464 
L 321.204591 131.168769 
L 322.799066 124.186902 
L 324.393542 122.963842 
L 325.988017 125.053348 
L 327.582493 123.881198 
L 329.176968 118.988715 
L 330.771444 120.925369 
L 332.365919 124.186902 
L 333.960395 122.556075 
L 335.55487 119.804129 
L 337.149346 121.740782 
L 338.743821 120.721485 
L 340.338297 115.727182 
L 341.932773 116.440653 
L 345.121724 120.211897 
L 346.716199 118.326275 
L 348.310675 117.510861 
L 349.90515 118.326275 
L 351.499626 112.567468 
L 353.094101 114.198296 
L 354.688577 116.542595 
L 356.283052 107.063577 
L 357.877528 115.115652 
L 359.472003 115.421356 
L 361.066479 114.962678 
L 362.660954 114.911768 
L 364.25543 108.592463 
L 365.849905 107.726017 
L 367.444381 114.198296 
L 369.038857 106.502957 
L 370.633332 111.089614 
L 372.227808 112.465526 
L 375.416759 112.261764 
L 377.011234 106.808661 
L 378.60571 111.49726 
L 380.200185 107.420313 
L 381.794661 107.114487 
L 383.389136 105.024982 
L 384.983612 104.515394 
L 386.578087 105.942337 
L 388.172563 105.076013 
L 389.767038 103.292334 
L 391.361514 107.777049 
L 392.95599 104.413452 
L 394.550465 105.381718 
L 396.144941 107.318371 
L 397.739416 100.795182 
L 399.333892 101.967332 
L 400.928367 102.324068 
L 402.522843 104.668246 
L 404.117318 101.86539 
L 405.711794 104.31151 
L 407.306269 103.241302 
L 408.900745 101.30477 
L 410.49522 105.534691 
L 412.089696 97.992205 
L 413.684171 102.782624 
L 415.278647 100.948034 
L 416.873123 102.47692 
L 418.467598 94.628729 
L 420.062074 95.953731 
L 421.656549 99.979768 
L 423.251025 95.495053 
L 424.8455 99.928737 
L 426.439976 95.393111 
L 428.034451 98.858529 
L 429.628927 97.890263 
L 431.223402 96.667203 
L 432.817878 100.336504 
L 434.412353 93.915257 
L 436.006829 97.227823 
L 437.601304 94.832491 
L 439.19578 95.698937 
L 440.790256 93.915257 
L 442.384731 95.749847 
L 443.979207 93.405548 
L 445.573682 92.437282 
L 447.168158 93.354637 
L 448.762633 92.437282 
L 450.357109 87.799714 
L 451.951584 94.475755 
L 453.54606 92.131577 
L 455.140535 96.208525 
L 456.735011 90.042072 
L 458.329486 94.730549 
L 459.923962 88.819012 
L 461.518437 92.233398 
L 463.112913 89.838188 
L 464.707389 89.430542 
L 466.301864 91.214222 
L 467.89634 86.831448 
L 469.490815 87.54492 
L 471.085291 92.233398 
L 472.679766 87.442978 
L 474.274242 84.894795 
L 475.868717 91.6729 
L 477.463193 87.442978 
L 479.057668 91.11228 
L 480.652144 88.615128 
L 482.246619 88.207361 
L 483.841095 89.37951 
L 485.43557 91.16319 
L 487.030046 86.678475 
L 488.624522 87.442978 
L 490.218997 89.481452 
L 491.813473 84.283265 
L 493.407948 88.564097 
L 495.002424 89.685336 
L 496.596899 81.429378 
L 499.78585 92.590134 
L 501.380326 86.780417 
L 502.974801 85.506447 
L 504.569277 78.932226 
L 506.163752 86.474713 
L 507.758228 85.812151 
L 509.352703 86.576654 
L 510.947179 86.219919 
L 512.541655 85.455415 
L 514.13613 89.685336 
L 515.730606 83.314999 
L 517.325081 83.213057 
L 518.919557 87.493889 
L 520.514032 84.079503 
L 522.108508 84.792975 
L 523.702983 81.58223 
L 525.297459 81.480409 
L 526.891934 83.162147 
L 528.48641 83.111115 
L 530.080885 82.754379 
L 531.675361 81.735203 
L 533.269836 82.091939 
L 534.864312 79.18702 
L 536.458788 78.422638 
L 538.053263 84.792975 
L 539.647739 82.448675 
L 541.242214 77.709166 
L 542.83669 77.301398 
L 544.431165 79.79855 
L 546.025641 81.53132 
L 547.620116 83.926529 
L 549.214592 79.339872 
L 550.809067 77.556192 
L 552.403543 83.213057 
L 553.998018 80.715906 
L 555.592494 77.046604 
L 557.186969 83.416941 
L 558.781445 78.881316 
L 560.37592 77.454372 
L 561.970396 79.543756 
L 563.564872 78.6264 
L 565.159347 80.053466 
L 566.753823 78.167844 
L 568.348298 78.6264 
L 569.942774 76.995694 
L 571.537249 78.269664 
L 573.131725 77.148546 
L 574.7262 78.01487 
L 576.320676 76.842721 
L 577.915151 74.243627 
L 579.509627 76.995694 
L 581.104102 75.670571 
L 582.698578 78.57549 
L 584.293053 78.932226 
L 585.887529 76.027428 
L 587.482005 77.097636 
L 589.07648 79.13611 
L 592.265431 75.823544 
L 593.859907 77.96396 
L 595.454382 74.039865 
L 597.048858 76.435074 
L 598.643333 75.619661 
L 600.237809 75.56875 
L 601.832284 72.307095 
L 603.42676 74.702305 
L 605.021235 71.695565 
L 606.615711 73.071599 
L 608.210186 72.816683 
L 609.804662 74.345569 
L 611.399138 73.326393 
L 612.993613 71.644533 
L 614.588089 75.059041 
L 616.182564 73.173419 
L 617.77704 72.612921 
L 619.371515 73.937923 
L 620.965991 70.472505 
L 622.560466 73.530155 
L 624.154942 71.440771 
L 625.749417 71.542713 
L 627.343893 71.287798 
L 628.938368 73.428335 
L 630.532844 73.632097 
L 632.127319 72.103211 
L 633.721795 72.714863 
L 635.316271 70.880151 
L 636.910746 73.683129 
L 638.505222 75.364867 
L 640.099697 67.720438 
L 641.694173 70.16668 
L 643.288648 73.937923 
L 644.883124 71.338829 
L 646.477599 74.651395 
L 648.072075 68.637794 
L 649.66655 67.312792 
L 651.261026 69.759033 
L 652.855501 73.122509 
L 654.449977 73.428335 
L 656.044452 71.848417 
L 657.638928 65.885848 
L 659.233404 69.198414 
L 660.827879 66.701262 
L 662.422355 71.695565 
L 664.01683 70.472505 
L 665.611306 71.440771 
L 668.800257 69.60606 
L 670.394732 70.16668 
L 671.989208 71.644533 
L 673.583683 67.15994 
L 675.178159 67.516676 
L 676.772634 68.484942 
L 678.36711 71.950359 
L 681.556061 66.089732 
L 683.150537 71.134945 
L 684.745012 68.790646 
L 686.339488 66.242584 
L 687.933963 68.077174 
L 687.933963 68.077174 
" style="fill:none;stroke:#377eb8;stroke-linecap:square;stroke-opacity:0.25098;stroke-width:1.5;"/>
   </g>
   <g id="line2d_40">
    <path clip-path="url(#p708059578c)" d="M 99.333895 375.715469 
L 99.572492 368.040343 
L 101.166967 370.502258 
L 102.761443 331.726543 
L 104.355918 341.369106 
L 105.950394 353.678926 
L 107.544869 331.726543 
L 109.139345 336.240055 
L 110.73382 324.750995 
L 112.328296 315.313409 
L 113.922771 323.314817 
L 115.517247 362.706071 
L 117.111722 309.774039 
L 118.706198 326.802591 
L 120.300673 305.465626 
L 121.895149 338.907191 
L 123.489625 302.593391 
L 125.0841 317.570226 
L 126.678576 314.492771 
L 128.273051 298.900397 
L 129.867527 292.950707 
L 131.462002 312.441175 
L 133.056478 289.668032 
L 134.650953 321.878639 
L 136.245429 271.203423 
L 137.839904 328.238769 
L 139.43438 287.821656 
L 141.028855 301.772753 
L 142.623331 303.20881 
L 144.217806 270.382784 
L 145.812282 265.664052 
L 147.406758 266.89501 
L 149.001233 266.484691 
L 150.595709 257.662645 
L 152.190184 246.583783 
L 153.78466 262.176278 
L 155.379135 259.098823 
L 156.973611 260.329781 
L 158.568086 305.465626 
L 160.162562 266.68979 
L 161.757037 272.639601 
L 163.351513 236.735999 
L 164.945988 260.945199 
L 166.540464 257.867865 
L 168.134939 260.329781 
L 169.729415 260.329781 
L 171.32389 246.378684 
L 172.918366 239.403135 
L 174.512842 254.174871 
L 176.107317 257.457425 
L 177.701793 312.851494 
L 179.296268 252.943913 
L 180.890744 245.558045 
L 182.485219 256.842007 
L 184.079695 228.734713 
L 185.67417 236.94122 
L 187.268646 233.248225 
L 188.863121 243.711548 
L 190.457597 242.685689 
L 192.052072 234.889502 
L 193.646548 251.507735 
L 195.241023 257.047105 
L 196.835499 238.787596 
L 198.429975 243.096008 
L 200.02445 249.661238 
L 201.618926 225.041719 
L 203.213401 235.505042 
L 204.807877 235.094722 
L 206.402352 230.581089 
L 207.996828 258.072964 
L 209.591303 230.991408 
L 211.185779 235.505042 
L 212.780254 233.043126 
L 214.37473 219.502348 
L 215.969205 219.297128 
L 217.563681 247.404543 
L 219.158156 251.918054 
L 220.752632 231.196629 
L 222.347108 220.938405 
L 225.536059 230.991408 
L 227.130534 228.119174 
L 228.72501 224.22108 
L 230.319485 219.502348 
L 231.913961 237.146319 
L 233.508436 236.5309 
L 235.102912 241.044412 
L 236.697387 247.404543 
L 238.291863 206.782209 
L 239.886338 228.119174 
L 241.480814 230.37599 
L 243.075289 230.991408 
L 244.669765 213.347438 
L 246.264241 209.449345 
L 247.858716 217.450631 
L 249.453192 208.628706 
L 251.047667 224.22108 
L 252.642143 224.01586 
L 254.236618 213.962856 
L 255.831094 213.962856 
L 257.425569 209.244124 
L 259.020045 213.347438 
L 260.61452 219.912668 
L 262.208996 201.447937 
L 263.803471 224.426179 
L 265.397947 213.142218 
L 266.992422 229.760451 
L 268.586898 208.218387 
L 270.181374 217.040311 
L 271.775849 184.624605 
L 273.370325 216.424893 
L 274.9648 205.140932 
L 276.559276 200.011881 
L 278.153751 202.268576 
L 279.748227 215.809354 
L 281.342702 222.784902 
L 282.937178 214.373297 
L 284.531653 191.394934 
L 286.126129 200.4222 
L 287.720604 215.399034 
L 289.31508 200.627299 
L 290.909555 210.269983 
L 292.504031 198.165383 
L 294.098507 206.576988 
L 295.692982 191.600154 
L 297.287458 208.423486 
L 298.881933 208.833805 
L 300.476409 206.987429 
L 302.070884 213.607821 
L 303.66536 203.294435 
L 305.259835 207.397748 
L 306.854311 200.011881 
L 308.448786 196.318886 
L 310.043262 204.320293 
L 311.637737 203.294435 
L 313.232213 223.810761 
L 314.826688 187.49684 
L 316.421164 200.4222 
L 318.01564 194.882708 
L 319.610115 209.449345 
L 321.204591 208.833805 
L 322.799066 196.524106 
L 324.393542 188.11238 
L 325.988017 201.858256 
L 327.582493 201.858256 
L 329.176968 197.344745 
L 330.771444 210.885523 
L 332.365919 194.677609 
L 333.960395 192.010473 
L 335.55487 196.524106 
L 337.149346 197.960163 
L 338.743821 200.011881 
L 340.338297 196.318886 
L 341.932773 194.26729 
L 343.527248 199.601561 
L 345.121724 208.833805 
L 346.716199 183.598747 
L 348.310675 208.013167 
L 349.90515 201.653158 
L 351.499626 221.964264 
L 353.094101 202.473796 
L 354.688577 205.346031 
L 356.283052 187.907159 
L 357.877528 196.318886 
L 359.472003 215.604255 
L 361.066479 202.473796 
L 362.660954 192.420792 
L 364.25543 202.473796 
L 365.849905 187.291741 
L 367.444381 191.394934 
L 369.038857 204.115073 
L 370.633332 206.576988 
L 372.227808 189.958877 
L 373.822283 191.189835 
L 375.416759 187.291741 
L 377.011234 189.958877 
L 378.60571 211.090622 
L 380.200185 184.419385 
L 381.794661 186.471103 
L 383.389136 192.831112 
L 384.983612 195.908567 
L 386.578087 197.139524 
L 388.172563 186.676202 
L 389.767038 204.115073 
L 391.361514 184.624605 
L 392.95599 176.00778 
L 394.550465 212.5268 
L 396.144941 190.574295 
L 397.739416 186.471103 
L 399.333892 192.010473 
L 400.928367 173.135424 
L 402.522843 193.241431 
L 404.117318 203.294435 
L 405.711794 207.808068 
L 407.306269 177.443837 
L 408.900745 175.187141 
L 410.49522 183.598747 
L 412.089696 193.856971 
L 413.684171 194.26729 
L 415.278647 187.49684 
L 416.873123 205.551251 
L 418.467598 192.831112 
L 420.062074 199.80666 
L 421.656549 188.317479 
L 423.251025 189.138239 
L 424.8455 195.908567 
L 426.439976 205.551251 
L 428.034451 197.344745 
L 429.628927 192.215572 
L 431.223402 184.214286 
L 432.817878 193.036332 
L 434.412353 182.983328 
L 436.006829 189.138239 
L 437.601304 179.700653 
L 439.19578 195.908567 
L 440.790256 183.803967 
L 442.384731 190.779516 
L 443.979207 195.087928 
L 445.573682 198.986022 
L 447.168158 193.036332 
L 448.762633 199.80666 
L 450.357109 196.113787 
L 451.951584 210.475082 
L 453.54606 178.674916 
L 455.140535 192.831112 
L 456.735011 182.573009 
L 458.329486 184.624605 
L 459.923962 179.085235 
L 461.518437 200.832519 
L 463.112913 188.522699 
L 464.707389 195.293027 
L 466.301864 193.856971 
L 467.89634 171.289048 
L 469.490815 194.677609 
L 471.085291 215.399034 
L 472.679766 176.212879 
L 474.274242 186.471103 
L 475.868717 192.831112 
L 477.463193 182.16269 
L 479.057668 193.856971 
L 480.652144 179.495554 
L 482.246619 198.165383 
L 483.841095 209.244124 
L 485.43557 182.367789 
L 487.030046 176.418099 
L 488.624522 178.880015 
L 490.218997 185.855563 
L 491.813473 174.161283 
L 493.407948 175.597461 
L 495.002424 186.471103 
L 496.596899 194.472389 
L 498.191375 197.755064 
L 499.78585 172.930325 
L 501.380326 179.290334 
L 502.974801 190.574295 
L 504.569277 182.16269 
L 506.163752 181.95747 
L 507.758228 173.340644 
L 509.352703 187.291741 
L 510.947179 170.263189 
L 512.541655 187.291741 
L 514.13613 183.803967 
L 515.730606 177.649057 
L 517.325081 179.290334 
L 518.919557 191.600154 
L 520.514032 184.214286 
L 522.108508 185.240145 
L 523.702983 192.420792 
L 525.297459 161.646364 
L 526.891934 190.984614 
L 528.48641 181.136831 
L 530.080885 169.85287 
L 531.675361 183.188427 
L 533.269836 185.034925 
L 534.864312 179.700653 
L 536.458788 177.649057 
L 538.053263 182.573009 
L 539.647739 181.136831 
L 541.242214 168.006373 
L 542.83669 178.674916 
L 544.431165 183.598747 
L 546.025641 175.80256 
L 547.620116 180.931611 
L 549.214592 187.70206 
L 550.809067 184.829704 
L 552.403543 185.227266 
L 553.998018 187.907159 
L 555.592494 191.805253 
L 557.186969 176.212879 
L 558.781445 176.828418 
L 560.37592 183.598747 
L 561.970396 179.495554 
L 563.564872 184.214286 
L 565.159347 179.905873 
L 566.753823 179.085235 
L 568.348298 172.725105 
L 569.942774 171.494147 
L 571.537249 186.265882 
L 573.131725 185.034925 
L 576.320676 176.828418 
L 577.915151 165.954776 
L 579.509627 171.494147 
L 581.104102 196.729205 
L 582.698578 184.829704 
L 584.293053 169.032231 
L 585.887529 181.95747 
L 587.482005 176.418099 
L 589.07648 180.316193 
L 590.670956 172.725105 
L 592.265431 177.854277 
L 593.859907 178.469695 
L 595.454382 191.394934 
L 597.048858 169.647649 
L 598.643333 188.933018 
L 600.237809 179.495554 
L 601.832284 174.161283 
L 603.42676 198.370482 
L 605.021235 166.570194 
L 606.615711 171.904466 
L 608.210186 173.340644 
L 609.804662 182.367789 
L 611.399138 187.907159 
L 612.993613 185.855563 
L 614.588089 192.626013 
L 616.182564 182.573009 
L 617.77704 171.699367 
L 619.371515 191.394934 
L 620.965991 175.80256 
L 622.560466 197.755064 
L 624.154942 173.340644 
L 625.749417 185.650464 
L 627.343893 171.494147 
L 628.938368 170.263189 
L 630.532844 178.264596 
L 632.127319 182.367789 
L 633.721795 180.521292 
L 635.316271 177.649057 
L 636.910746 173.750963 
L 638.505222 176.828418 
L 640.099697 176.418099 
L 641.694173 172.930325 
L 643.288648 179.290334 
L 644.883124 191.394934 
L 646.477599 178.469695 
L 648.072075 182.778108 
L 649.66655 186.060784 
L 651.261026 186.060784 
L 654.449977 172.109686 
L 656.044452 186.881422 
L 657.638928 179.905873 
L 659.233404 180.521292 
L 660.827879 180.726512 
L 662.422355 192.010473 
L 664.01683 177.854277 
L 665.611306 191.189835 
L 667.205781 176.00778 
L 668.800257 186.881422 
L 670.394732 185.445244 
L 671.989208 183.393648 
L 673.583683 174.981921 
L 675.178159 183.393648 
L 676.772634 178.264596 
L 678.36711 167.801274 
L 679.961585 185.650464 
L 681.556061 186.471103 
L 683.150537 176.623198 
L 684.745012 177.443837 
L 686.339488 174.981921 
L 687.933963 188.522699 
L 687.933963 188.522699 
" style="fill:none;stroke:#4daf4a;stroke-linecap:square;stroke-opacity:0.25098;stroke-width:1.5;"/>
   </g>
   <g id="patch_3">
    <path d="M 50.14375 337.159219 
L 50.14375 10.999219 
" style="fill:none;stroke:#000000;stroke-linecap:square;stroke-linejoin:miter;stroke-width:0.8;"/>
   </g>
   <g id="patch_4">
    <path d="M 719.74375 337.159219 
L 719.74375 10.999219 
" style="fill:none;stroke:#000000;stroke-linecap:square;stroke-linejoin:miter;stroke-width:0.8;"/>
   </g>
   <g id="patch_5">
    <path d="M 50.14375 337.159219 
L 719.74375 337.159219 
" style="fill:none;stroke:#000000;stroke-linecap:square;stroke-linejoin:miter;stroke-width:0.8;"/>
   </g>
   <g id="patch_6">
    <path d="M 50.14375 10.999219 
L 719.74375 10.999219 
" style="fill:none;stroke:#000000;stroke-linecap:square;stroke-linejoin:miter;stroke-width:0.8;"/>
   </g>
   <g id="legend_1">
    <g id="patch_7">
     <path d="M 57.14375 48.355469 
L 114.584375 48.355469 
Q 116.584375 48.355469 116.584375 46.355469 
L 116.584375 17.999219 
Q 116.584375 15.999219 114.584375 15.999219 
L 57.14375 15.999219 
Q 55.14375 15.999219 55.14375 17.999219 
L 55.14375 46.355469 
Q 55.14375 48.355469 57.14375 48.355469 
z
" style="fill:#ffffff;opacity:0.8;stroke:#cccccc;stroke-linejoin:miter;"/>
    </g>
    <g id="line2d_41">
     <path d="M 59.14375 24.097656 
L 79.14375 24.097656 
" style="fill:none;stroke:#377eb8;stroke-linecap:square;stroke-width:2;"/>
    </g>
    <g id="line2d_42"/>
    <g id="text_21">
     <!-- Train -->
     <defs>
      <path d="M -0.296875 72.90625 
L 61.375 72.90625 
L 61.375 64.59375 
L 35.5 64.59375 
L 35.5 0 
L 25.59375 0 
L 25.59375 64.59375 
L -0.296875 64.59375 
z
" id="DejaVuSans-84"/>
      <path d="M 9.421875 54.6875 
L 18.40625 54.6875 
L 18.40625 0 
L 9.421875 0 
z
M 9.421875 75.984375 
L 18.40625 75.984375 
L 18.40625 64.59375 
L 9.421875 64.59375 
z
" id="DejaVuSans-105"/>
      <path d="M 54.890625 33.015625 
L 54.890625 0 
L 45.90625 0 
L 45.90625 32.71875 
Q 45.90625 40.484375 42.875 44.328125 
Q 39.84375 48.1875 33.796875 48.1875 
Q 26.515625 48.1875 22.3125 43.546875 
Q 18.109375 38.921875 18.109375 30.90625 
L 18.109375 0 
L 9.078125 0 
L 9.078125 54.6875 
L 18.109375 54.6875 
L 18.109375 46.1875 
Q 21.34375 51.125 25.703125 53.5625 
Q 30.078125 56 35.796875 56 
Q 45.21875 56 50.046875 50.171875 
Q 54.890625 44.34375 54.890625 33.015625 
z
" id="DejaVuSans-110"/>
     </defs>
     <g transform="translate(87.14375 27.597656)scale(0.1 -0.1)">
      <use xlink:href="#DejaVuSans-84"/>
      <use x="60.865234" xlink:href="#DejaVuSans-114"/>
      <use x="101.978516" xlink:href="#DejaVuSans-97"/>
      <use x="163.257812" xlink:href="#DejaVuSans-105"/>
      <use x="191.041016" xlink:href="#DejaVuSans-110"/>
     </g>
    </g>
    <g id="line2d_43">
     <path d="M 59.14375 38.775781 
L 79.14375 38.775781 
" style="fill:none;stroke:#4daf4a;stroke-linecap:square;stroke-width:2;"/>
    </g>
    <g id="line2d_44"/>
    <g id="text_22">
     <!-- Test -->
     <defs>
      <path d="M 56.203125 29.59375 
L 56.203125 25.203125 
L 14.890625 25.203125 
Q 15.484375 15.921875 20.484375 11.0625 
Q 25.484375 6.203125 34.421875 6.203125 
Q 39.59375 6.203125 44.453125 7.46875 
Q 49.3125 8.734375 54.109375 11.28125 
L 54.109375 2.78125 
Q 49.265625 0.734375 44.1875 -0.34375 
Q 39.109375 -1.421875 33.890625 -1.421875 
Q 20.796875 -1.421875 13.15625 6.1875 
Q 5.515625 13.8125 5.515625 26.8125 
Q 5.515625 40.234375 12.765625 48.109375 
Q 20.015625 56 32.328125 56 
Q 43.359375 56 49.78125 48.890625 
Q 56.203125 41.796875 56.203125 29.59375 
z
M 47.21875 32.234375 
Q 47.125 39.59375 43.09375 43.984375 
Q 39.0625 48.390625 32.421875 48.390625 
Q 24.90625 48.390625 20.390625 44.140625 
Q 15.875 39.890625 15.1875 32.171875 
z
" id="DejaVuSans-101"/>
      <path d="M 44.28125 53.078125 
L 44.28125 44.578125 
Q 40.484375 46.53125 36.375 47.5 
Q 32.28125 48.484375 27.875 48.484375 
Q 21.1875 48.484375 17.84375 46.4375 
Q 14.5 44.390625 14.5 40.28125 
Q 14.5 37.15625 16.890625 35.375 
Q 19.28125 33.59375 26.515625 31.984375 
L 29.59375 31.296875 
Q 39.15625 29.25 43.1875 25.515625 
Q 47.21875 21.78125 47.21875 15.09375 
Q 47.21875 7.46875 41.1875 3.015625 
Q 35.15625 -1.421875 24.609375 -1.421875 
Q 20.21875 -1.421875 15.453125 -0.5625 
Q 10.6875 0.296875 5.421875 2 
L 5.421875 11.28125 
Q 10.40625 8.6875 15.234375 7.390625 
Q 20.0625 6.109375 24.8125 6.109375 
Q 31.15625 6.109375 34.5625 8.28125 
Q 37.984375 10.453125 37.984375 14.40625 
Q 37.984375 18.0625 35.515625 20.015625 
Q 33.0625 21.96875 24.703125 23.78125 
L 21.578125 24.515625 
Q 13.234375 26.265625 9.515625 29.90625 
Q 5.8125 33.546875 5.8125 39.890625 
Q 5.8125 47.609375 11.28125 51.796875 
Q 16.75 56 26.8125 56 
Q 31.78125 56 36.171875 55.265625 
Q 40.578125 54.546875 44.28125 53.078125 
z
" id="DejaVuSans-115"/>
      <path d="M 18.3125 70.21875 
L 18.3125 54.6875 
L 36.8125 54.6875 
L 36.8125 47.703125 
L 18.3125 47.703125 
L 18.3125 18.015625 
Q 18.3125 11.328125 20.140625 9.421875 
Q 21.96875 7.515625 27.59375 7.515625 
L 36.8125 7.515625 
L 36.8125 0 
L 27.59375 0 
Q 17.1875 0 13.234375 3.875 
Q 9.28125 7.765625 9.28125 18.015625 
L 9.28125 47.703125 
L 2.6875 47.703125 
L 2.6875 54.6875 
L 9.28125 54.6875 
L 9.28125 70.21875 
z
" id="DejaVuSans-116"/>
     </defs>
     <g transform="translate(87.14375 42.275781)scale(0.1 -0.1)">
      <use xlink:href="#DejaVuSans-84"/>
      <use x="60.818359" xlink:href="#DejaVuSans-101"/>
      <use x="122.341797" xlink:href="#DejaVuSans-115"/>
      <use x="174.441406" xlink:href="#DejaVuSans-116"/>
     </g>
    </g>
   </g>
  </g>
 </g>
 <defs>
  <clipPath id="p708059578c">
   <rect height="326.16" width="669.6" x="50.14375" y="10.999219"/>
  </clipPath>
 </defs>
</svg>
