<?xml version="1.0" encoding="utf-8" standalone="no"?>
<!DOCTYPE svg PUBLIC "-//W3C//DTD SVG 1.1//EN"
  "http://www.w3.org/Graphics/SVG/1.1/DTD/svg11.dtd">
<!-- Created with matplotlib (https://matplotlib.org/) -->
<svg height="374.715469pt" version="1.1" viewBox="0 0 726.94375 374.715469" width="726.94375pt" xmlns="http://www.w3.org/2000/svg" xmlns:xlink="http://www.w3.org/1999/xlink">
 <defs>
  <style type="text/css">
*{stroke-linecap:butt;stroke-linejoin:round;white-space:pre;}
  </style>
 </defs>
 <g id="figure_1">
  <g id="patch_1">
   <path d="M 0 374.715469 
L 726.94375 374.715469 
L 726.94375 0 
L 0 0 
z
" style="fill:#ffffff;"/>
  </g>
  <g id="axes_1">
   <g id="patch_2">
    <path d="M 50.14375 337.159219 
L 719.74375 337.159219 
L 719.74375 10.999219 
L 50.14375 10.999219 
z
" style="fill:#ffffff;"/>
   </g>
   <g id="matplotlib.axis_1">
    <g id="xtick_1">
     <g id="line2d_1">
      <path clip-path="url(#pf4ce0f310e)" d="M 50.14375 337.159219 
L 50.14375 10.999219 
" style="fill:none;stroke:#b0b0b0;stroke-linecap:square;stroke-width:0.8;"/>
     </g>
     <g id="line2d_2">
      <defs>
       <path d="M 0 0 
L 0 3.5 
" id="mc11f2c02a4" style="stroke:#000000;stroke-width:0.8;"/>
      </defs>
      <g>
       <use style="stroke:#000000;stroke-width:0.8;" x="50.14375" xlink:href="#mc11f2c02a4" y="337.159219"/>
      </g>
     </g>
     <g id="text_1">
      <!-- 0 -->
      <defs>
       <path d="M 31.78125 66.40625 
Q 24.171875 66.40625 20.328125 58.90625 
Q 16.5 51.421875 16.5 36.375 
Q 16.5 21.390625 20.328125 13.890625 
Q 24.171875 6.390625 31.78125 6.390625 
Q 39.453125 6.390625 43.28125 13.890625 
Q 47.125 21.390625 47.125 36.375 
Q 47.125 51.421875 43.28125 58.90625 
Q 39.453125 66.40625 31.78125 66.40625 
z
M 31.78125 74.21875 
Q 44.046875 74.21875 50.515625 64.515625 
Q 56.984375 54.828125 56.984375 36.375 
Q 56.984375 17.96875 50.515625 8.265625 
Q 44.046875 -1.421875 31.78125 -1.421875 
Q 19.53125 -1.421875 13.0625 8.265625 
Q 6.59375 17.96875 6.59375 36.375 
Q 6.59375 54.828125 13.0625 64.515625 
Q 19.53125 74.21875 31.78125 74.21875 
z
" id="DejaVuSans-48"/>
      </defs>
      <g transform="translate(46.9625 351.757656)scale(0.1 -0.1)">
       <use xlink:href="#DejaVuSans-48"/>
      </g>
     </g>
    </g>
    <g id="xtick_2">
     <g id="line2d_3">
      <path clip-path="url(#pf4ce0f310e)" d="M 129.867527 337.159219 
L 129.867527 10.999219 
" style="fill:none;stroke:#b0b0b0;stroke-linecap:square;stroke-width:0.8;"/>
     </g>
     <g id="line2d_4">
      <g>
       <use style="stroke:#000000;stroke-width:0.8;" x="129.867527" xlink:href="#mc11f2c02a4" y="337.159219"/>
      </g>
     </g>
     <g id="text_2">
      <!-- 50 -->
      <defs>
       <path d="M 10.796875 72.90625 
L 49.515625 72.90625 
L 49.515625 64.59375 
L 19.828125 64.59375 
L 19.828125 46.734375 
Q 21.96875 47.46875 24.109375 47.828125 
Q 26.265625 48.1875 28.421875 48.1875 
Q 40.625 48.1875 47.75 41.5 
Q 54.890625 34.8125 54.890625 23.390625 
Q 54.890625 11.625 47.5625 5.09375 
Q 40.234375 -1.421875 26.90625 -1.421875 
Q 22.3125 -1.421875 17.546875 -0.640625 
Q 12.796875 0.140625 7.71875 1.703125 
L 7.71875 11.625 
Q 12.109375 9.234375 16.796875 8.0625 
Q 21.484375 6.890625 26.703125 6.890625 
Q 35.15625 6.890625 40.078125 11.328125 
Q 45.015625 15.765625 45.015625 23.390625 
Q 45.015625 31 40.078125 35.4375 
Q 35.15625 39.890625 26.703125 39.890625 
Q 22.75 39.890625 18.8125 39.015625 
Q 14.890625 38.140625 10.796875 36.28125 
z
" id="DejaVuSans-53"/>
      </defs>
      <g transform="translate(123.505027 351.757656)scale(0.1 -0.1)">
       <use xlink:href="#DejaVuSans-53"/>
       <use x="63.623047" xlink:href="#DejaVuSans-48"/>
      </g>
     </g>
    </g>
    <g id="xtick_3">
     <g id="line2d_5">
      <path clip-path="url(#pf4ce0f310e)" d="M 209.591303 337.159219 
L 209.591303 10.999219 
" style="fill:none;stroke:#b0b0b0;stroke-linecap:square;stroke-width:0.8;"/>
     </g>
     <g id="line2d_6">
      <g>
       <use style="stroke:#000000;stroke-width:0.8;" x="209.591303" xlink:href="#mc11f2c02a4" y="337.159219"/>
      </g>
     </g>
     <g id="text_3">
      <!-- 100 -->
      <defs>
       <path d="M 12.40625 8.296875 
L 28.515625 8.296875 
L 28.515625 63.921875 
L 10.984375 60.40625 
L 10.984375 69.390625 
L 28.421875 72.90625 
L 38.28125 72.90625 
L 38.28125 8.296875 
L 54.390625 8.296875 
L 54.390625 0 
L 12.40625 0 
z
" id="DejaVuSans-49"/>
      </defs>
      <g transform="translate(200.047553 351.757656)scale(0.1 -0.1)">
       <use xlink:href="#DejaVuSans-49"/>
       <use x="63.623047" xlink:href="#DejaVuSans-48"/>
       <use x="127.246094" xlink:href="#DejaVuSans-48"/>
      </g>
     </g>
    </g>
    <g id="xtick_4">
     <g id="line2d_7">
      <path clip-path="url(#pf4ce0f310e)" d="M 289.31508 337.159219 
L 289.31508 10.999219 
" style="fill:none;stroke:#b0b0b0;stroke-linecap:square;stroke-width:0.8;"/>
     </g>
     <g id="line2d_8">
      <g>
       <use style="stroke:#000000;stroke-width:0.8;" x="289.31508" xlink:href="#mc11f2c02a4" y="337.159219"/>
      </g>
     </g>
     <g id="text_4">
      <!-- 150 -->
      <g transform="translate(279.77133 351.757656)scale(0.1 -0.1)">
       <use xlink:href="#DejaVuSans-49"/>
       <use x="63.623047" xlink:href="#DejaVuSans-53"/>
       <use x="127.246094" xlink:href="#DejaVuSans-48"/>
      </g>
     </g>
    </g>
    <g id="xtick_5">
     <g id="line2d_9">
      <path clip-path="url(#pf4ce0f310e)" d="M 369.038857 337.159219 
L 369.038857 10.999219 
" style="fill:none;stroke:#b0b0b0;stroke-linecap:square;stroke-width:0.8;"/>
     </g>
     <g id="line2d_10">
      <g>
       <use style="stroke:#000000;stroke-width:0.8;" x="369.038857" xlink:href="#mc11f2c02a4" y="337.159219"/>
      </g>
     </g>
     <g id="text_5">
      <!-- 200 -->
      <defs>
       <path d="M 19.1875 8.296875 
L 53.609375 8.296875 
L 53.609375 0 
L 7.328125 0 
L 7.328125 8.296875 
Q 12.9375 14.109375 22.625 23.890625 
Q 32.328125 33.6875 34.8125 36.53125 
Q 39.546875 41.84375 41.421875 45.53125 
Q 43.3125 49.21875 43.3125 52.78125 
Q 43.3125 58.59375 39.234375 62.25 
Q 35.15625 65.921875 28.609375 65.921875 
Q 23.96875 65.921875 18.8125 64.3125 
Q 13.671875 62.703125 7.8125 59.421875 
L 7.8125 69.390625 
Q 13.765625 71.78125 18.9375 73 
Q 24.125 74.21875 28.421875 74.21875 
Q 39.75 74.21875 46.484375 68.546875 
Q 53.21875 62.890625 53.21875 53.421875 
Q 53.21875 48.921875 51.53125 44.890625 
Q 49.859375 40.875 45.40625 35.40625 
Q 44.1875 33.984375 37.640625 27.21875 
Q 31.109375 20.453125 19.1875 8.296875 
z
" id="DejaVuSans-50"/>
      </defs>
      <g transform="translate(359.495107 351.757656)scale(0.1 -0.1)">
       <use xlink:href="#DejaVuSans-50"/>
       <use x="63.623047" xlink:href="#DejaVuSans-48"/>
       <use x="127.246094" xlink:href="#DejaVuSans-48"/>
      </g>
     </g>
    </g>
    <g id="xtick_6">
     <g id="line2d_11">
      <path clip-path="url(#pf4ce0f310e)" d="M 448.762633 337.159219 
L 448.762633 10.999219 
" style="fill:none;stroke:#b0b0b0;stroke-linecap:square;stroke-width:0.8;"/>
     </g>
     <g id="line2d_12">
      <g>
       <use style="stroke:#000000;stroke-width:0.8;" x="448.762633" xlink:href="#mc11f2c02a4" y="337.159219"/>
      </g>
     </g>
     <g id="text_6">
      <!-- 250 -->
      <g transform="translate(439.218883 351.757656)scale(0.1 -0.1)">
       <use xlink:href="#DejaVuSans-50"/>
       <use x="63.623047" xlink:href="#DejaVuSans-53"/>
       <use x="127.246094" xlink:href="#DejaVuSans-48"/>
      </g>
     </g>
    </g>
    <g id="xtick_7">
     <g id="line2d_13">
      <path clip-path="url(#pf4ce0f310e)" d="M 528.48641 337.159219 
L 528.48641 10.999219 
" style="fill:none;stroke:#b0b0b0;stroke-linecap:square;stroke-width:0.8;"/>
     </g>
     <g id="line2d_14">
      <g>
       <use style="stroke:#000000;stroke-width:0.8;" x="528.48641" xlink:href="#mc11f2c02a4" y="337.159219"/>
      </g>
     </g>
     <g id="text_7">
      <!-- 300 -->
      <defs>
       <path d="M 40.578125 39.3125 
Q 47.65625 37.796875 51.625 33 
Q 55.609375 28.21875 55.609375 21.1875 
Q 55.609375 10.40625 48.1875 4.484375 
Q 40.765625 -1.421875 27.09375 -1.421875 
Q 22.515625 -1.421875 17.65625 -0.515625 
Q 12.796875 0.390625 7.625 2.203125 
L 7.625 11.71875 
Q 11.71875 9.328125 16.59375 8.109375 
Q 21.484375 6.890625 26.8125 6.890625 
Q 36.078125 6.890625 40.9375 10.546875 
Q 45.796875 14.203125 45.796875 21.1875 
Q 45.796875 27.640625 41.28125 31.265625 
Q 36.765625 34.90625 28.71875 34.90625 
L 20.21875 34.90625 
L 20.21875 43.015625 
L 29.109375 43.015625 
Q 36.375 43.015625 40.234375 45.921875 
Q 44.09375 48.828125 44.09375 54.296875 
Q 44.09375 59.90625 40.109375 62.90625 
Q 36.140625 65.921875 28.71875 65.921875 
Q 24.65625 65.921875 20.015625 65.03125 
Q 15.375 64.15625 9.8125 62.3125 
L 9.8125 71.09375 
Q 15.4375 72.65625 20.34375 73.4375 
Q 25.25 74.21875 29.59375 74.21875 
Q 40.828125 74.21875 47.359375 69.109375 
Q 53.90625 64.015625 53.90625 55.328125 
Q 53.90625 49.265625 50.4375 45.09375 
Q 46.96875 40.921875 40.578125 39.3125 
z
" id="DejaVuSans-51"/>
      </defs>
      <g transform="translate(518.94266 351.757656)scale(0.1 -0.1)">
       <use xlink:href="#DejaVuSans-51"/>
       <use x="63.623047" xlink:href="#DejaVuSans-48"/>
       <use x="127.246094" xlink:href="#DejaVuSans-48"/>
      </g>
     </g>
    </g>
    <g id="xtick_8">
     <g id="line2d_15">
      <path clip-path="url(#pf4ce0f310e)" d="M 608.210186 337.159219 
L 608.210186 10.999219 
" style="fill:none;stroke:#b0b0b0;stroke-linecap:square;stroke-width:0.8;"/>
     </g>
     <g id="line2d_16">
      <g>
       <use style="stroke:#000000;stroke-width:0.8;" x="608.210186" xlink:href="#mc11f2c02a4" y="337.159219"/>
      </g>
     </g>
     <g id="text_8">
      <!-- 350 -->
      <g transform="translate(598.666436 351.757656)scale(0.1 -0.1)">
       <use xlink:href="#DejaVuSans-51"/>
       <use x="63.623047" xlink:href="#DejaVuSans-53"/>
       <use x="127.246094" xlink:href="#DejaVuSans-48"/>
      </g>
     </g>
    </g>
    <g id="xtick_9">
     <g id="line2d_17">
      <path clip-path="url(#pf4ce0f310e)" d="M 687.933963 337.159219 
L 687.933963 10.999219 
" style="fill:none;stroke:#b0b0b0;stroke-linecap:square;stroke-width:0.8;"/>
     </g>
     <g id="line2d_18">
      <g>
       <use style="stroke:#000000;stroke-width:0.8;" x="687.933963" xlink:href="#mc11f2c02a4" y="337.159219"/>
      </g>
     </g>
     <g id="text_9">
      <!-- 400 -->
      <defs>
       <path d="M 37.796875 64.3125 
L 12.890625 25.390625 
L 37.796875 25.390625 
z
M 35.203125 72.90625 
L 47.609375 72.90625 
L 47.609375 25.390625 
L 58.015625 25.390625 
L 58.015625 17.1875 
L 47.609375 17.1875 
L 47.609375 0 
L 37.796875 0 
L 37.796875 17.1875 
L 4.890625 17.1875 
L 4.890625 26.703125 
z
" id="DejaVuSans-52"/>
      </defs>
      <g transform="translate(678.390213 351.757656)scale(0.1 -0.1)">
       <use xlink:href="#DejaVuSans-52"/>
       <use x="63.623047" xlink:href="#DejaVuSans-48"/>
       <use x="127.246094" xlink:href="#DejaVuSans-48"/>
      </g>
     </g>
    </g>
    <g id="text_10">
     <!-- Epoch -->
     <defs>
      <path d="M 9.8125 72.90625 
L 55.90625 72.90625 
L 55.90625 64.59375 
L 19.671875 64.59375 
L 19.671875 43.015625 
L 54.390625 43.015625 
L 54.390625 34.71875 
L 19.671875 34.71875 
L 19.671875 8.296875 
L 56.78125 8.296875 
L 56.78125 0 
L 9.8125 0 
z
" id="DejaVuSans-69"/>
      <path d="M 18.109375 8.203125 
L 18.109375 -20.796875 
L 9.078125 -20.796875 
L 9.078125 54.6875 
L 18.109375 54.6875 
L 18.109375 46.390625 
Q 20.953125 51.265625 25.265625 53.625 
Q 29.59375 56 35.59375 56 
Q 45.5625 56 51.78125 48.09375 
Q 58.015625 40.1875 58.015625 27.296875 
Q 58.015625 14.40625 51.78125 6.484375 
Q 45.5625 -1.421875 35.59375 -1.421875 
Q 29.59375 -1.421875 25.265625 0.953125 
Q 20.953125 3.328125 18.109375 8.203125 
z
M 48.6875 27.296875 
Q 48.6875 37.203125 44.609375 42.84375 
Q 40.53125 48.484375 33.40625 48.484375 
Q 26.265625 48.484375 22.1875 42.84375 
Q 18.109375 37.203125 18.109375 27.296875 
Q 18.109375 17.390625 22.1875 11.75 
Q 26.265625 6.109375 33.40625 6.109375 
Q 40.53125 6.109375 44.609375 11.75 
Q 48.6875 17.390625 48.6875 27.296875 
z
" id="DejaVuSans-112"/>
      <path d="M 30.609375 48.390625 
Q 23.390625 48.390625 19.1875 42.75 
Q 14.984375 37.109375 14.984375 27.296875 
Q 14.984375 17.484375 19.15625 11.84375 
Q 23.34375 6.203125 30.609375 6.203125 
Q 37.796875 6.203125 41.984375 11.859375 
Q 46.1875 17.53125 46.1875 27.296875 
Q 46.1875 37.015625 41.984375 42.703125 
Q 37.796875 48.390625 30.609375 48.390625 
z
M 30.609375 56 
Q 42.328125 56 49.015625 48.375 
Q 55.71875 40.765625 55.71875 27.296875 
Q 55.71875 13.875 49.015625 6.21875 
Q 42.328125 -1.421875 30.609375 -1.421875 
Q 18.84375 -1.421875 12.171875 6.21875 
Q 5.515625 13.875 5.515625 27.296875 
Q 5.515625 40.765625 12.171875 48.375 
Q 18.84375 56 30.609375 56 
z
" id="DejaVuSans-111"/>
      <path d="M 48.78125 52.59375 
L 48.78125 44.1875 
Q 44.96875 46.296875 41.140625 47.34375 
Q 37.3125 48.390625 33.40625 48.390625 
Q 24.65625 48.390625 19.8125 42.84375 
Q 14.984375 37.3125 14.984375 27.296875 
Q 14.984375 17.28125 19.8125 11.734375 
Q 24.65625 6.203125 33.40625 6.203125 
Q 37.3125 6.203125 41.140625 7.25 
Q 44.96875 8.296875 48.78125 10.40625 
L 48.78125 2.09375 
Q 45.015625 0.34375 40.984375 -0.53125 
Q 36.96875 -1.421875 32.421875 -1.421875 
Q 20.0625 -1.421875 12.78125 6.34375 
Q 5.515625 14.109375 5.515625 27.296875 
Q 5.515625 40.671875 12.859375 48.328125 
Q 20.21875 56 33.015625 56 
Q 37.15625 56 41.109375 55.140625 
Q 45.0625 54.296875 48.78125 52.59375 
z
" id="DejaVuSans-99"/>
      <path d="M 54.890625 33.015625 
L 54.890625 0 
L 45.90625 0 
L 45.90625 32.71875 
Q 45.90625 40.484375 42.875 44.328125 
Q 39.84375 48.1875 33.796875 48.1875 
Q 26.515625 48.1875 22.3125 43.546875 
Q 18.109375 38.921875 18.109375 30.90625 
L 18.109375 0 
L 9.078125 0 
L 9.078125 75.984375 
L 18.109375 75.984375 
L 18.109375 46.1875 
Q 21.34375 51.125 25.703125 53.5625 
Q 30.078125 56 35.796875 56 
Q 45.21875 56 50.046875 50.171875 
Q 54.890625 44.34375 54.890625 33.015625 
z
" id="DejaVuSans-104"/>
     </defs>
     <g transform="translate(369.632813 365.435781)scale(0.1 -0.1)">
      <use xlink:href="#DejaVuSans-69"/>
      <use x="63.183594" xlink:href="#DejaVuSans-112"/>
      <use x="126.660156" xlink:href="#DejaVuSans-111"/>
      <use x="187.841797" xlink:href="#DejaVuSans-99"/>
      <use x="242.822266" xlink:href="#DejaVuSans-104"/>
     </g>
    </g>
   </g>
   <g id="matplotlib.axis_2">
    <g id="ytick_1">
     <g id="line2d_19">
      <path clip-path="url(#pf4ce0f310e)" d="M 50.14375 337.159219 
L 719.74375 337.159219 
" style="fill:none;stroke:#b0b0b0;stroke-linecap:square;stroke-width:0.8;"/>
     </g>
     <g id="line2d_20">
      <defs>
       <path d="M 0 0 
L -3.5 0 
" id="mb37a115b2e" style="stroke:#000000;stroke-width:0.8;"/>
      </defs>
      <g>
       <use style="stroke:#000000;stroke-width:0.8;" x="50.14375" xlink:href="#mb37a115b2e" y="337.159219"/>
      </g>
     </g>
     <g id="text_11">
      <!-- 0.82 -->
      <defs>
       <path d="M 10.6875 12.40625 
L 21 12.40625 
L 21 0 
L 10.6875 0 
z
" id="DejaVuSans-46"/>
       <path d="M 31.78125 34.625 
Q 24.75 34.625 20.71875 30.859375 
Q 16.703125 27.09375 16.703125 20.515625 
Q 16.703125 13.921875 20.71875 10.15625 
Q 24.75 6.390625 31.78125 6.390625 
Q 38.8125 6.390625 42.859375 10.171875 
Q 46.921875 13.96875 46.921875 20.515625 
Q 46.921875 27.09375 42.890625 30.859375 
Q 38.875 34.625 31.78125 34.625 
z
M 21.921875 38.8125 
Q 15.578125 40.375 12.03125 44.71875 
Q 8.5 49.078125 8.5 55.328125 
Q 8.5 64.0625 14.71875 69.140625 
Q 20.953125 74.21875 31.78125 74.21875 
Q 42.671875 74.21875 48.875 69.140625 
Q 55.078125 64.0625 55.078125 55.328125 
Q 55.078125 49.078125 51.53125 44.71875 
Q 48 40.375 41.703125 38.8125 
Q 48.828125 37.15625 52.796875 32.3125 
Q 56.78125 27.484375 56.78125 20.515625 
Q 56.78125 9.90625 50.3125 4.234375 
Q 43.84375 -1.421875 31.78125 -1.421875 
Q 19.734375 -1.421875 13.25 4.234375 
Q 6.78125 9.90625 6.78125 20.515625 
Q 6.78125 27.484375 10.78125 32.3125 
Q 14.796875 37.15625 21.921875 38.8125 
z
M 18.3125 54.390625 
Q 18.3125 48.734375 21.84375 45.5625 
Q 25.390625 42.390625 31.78125 42.390625 
Q 38.140625 42.390625 41.71875 45.5625 
Q 45.3125 48.734375 45.3125 54.390625 
Q 45.3125 60.0625 41.71875 63.234375 
Q 38.140625 66.40625 31.78125 66.40625 
Q 25.390625 66.40625 21.84375 63.234375 
Q 18.3125 60.0625 18.3125 54.390625 
z
" id="DejaVuSans-56"/>
      </defs>
      <g transform="translate(20.878125 340.958437)scale(0.1 -0.1)">
       <use xlink:href="#DejaVuSans-48"/>
       <use x="63.623047" xlink:href="#DejaVuSans-46"/>
       <use x="95.410156" xlink:href="#DejaVuSans-56"/>
       <use x="159.033203" xlink:href="#DejaVuSans-50"/>
      </g>
     </g>
    </g>
    <g id="ytick_2">
     <g id="line2d_21">
      <path clip-path="url(#pf4ce0f310e)" d="M 50.14375 296.389219 
L 719.74375 296.389219 
" style="fill:none;stroke:#b0b0b0;stroke-linecap:square;stroke-width:0.8;"/>
     </g>
     <g id="line2d_22">
      <g>
       <use style="stroke:#000000;stroke-width:0.8;" x="50.14375" xlink:href="#mb37a115b2e" y="296.389219"/>
      </g>
     </g>
     <g id="text_12">
      <!-- 0.84 -->
      <g transform="translate(20.878125 300.188437)scale(0.1 -0.1)">
       <use xlink:href="#DejaVuSans-48"/>
       <use x="63.623047" xlink:href="#DejaVuSans-46"/>
       <use x="95.410156" xlink:href="#DejaVuSans-56"/>
       <use x="159.033203" xlink:href="#DejaVuSans-52"/>
      </g>
     </g>
    </g>
    <g id="ytick_3">
     <g id="line2d_23">
      <path clip-path="url(#pf4ce0f310e)" d="M 50.14375 255.619219 
L 719.74375 255.619219 
" style="fill:none;stroke:#b0b0b0;stroke-linecap:square;stroke-width:0.8;"/>
     </g>
     <g id="line2d_24">
      <g>
       <use style="stroke:#000000;stroke-width:0.8;" x="50.14375" xlink:href="#mb37a115b2e" y="255.619219"/>
      </g>
     </g>
     <g id="text_13">
      <!-- 0.86 -->
      <defs>
       <path d="M 33.015625 40.375 
Q 26.375 40.375 22.484375 35.828125 
Q 18.609375 31.296875 18.609375 23.390625 
Q 18.609375 15.53125 22.484375 10.953125 
Q 26.375 6.390625 33.015625 6.390625 
Q 39.65625 6.390625 43.53125 10.953125 
Q 47.40625 15.53125 47.40625 23.390625 
Q 47.40625 31.296875 43.53125 35.828125 
Q 39.65625 40.375 33.015625 40.375 
z
M 52.59375 71.296875 
L 52.59375 62.3125 
Q 48.875 64.0625 45.09375 64.984375 
Q 41.3125 65.921875 37.59375 65.921875 
Q 27.828125 65.921875 22.671875 59.328125 
Q 17.53125 52.734375 16.796875 39.40625 
Q 19.671875 43.65625 24.015625 45.921875 
Q 28.375 48.1875 33.59375 48.1875 
Q 44.578125 48.1875 50.953125 41.515625 
Q 57.328125 34.859375 57.328125 23.390625 
Q 57.328125 12.15625 50.6875 5.359375 
Q 44.046875 -1.421875 33.015625 -1.421875 
Q 20.359375 -1.421875 13.671875 8.265625 
Q 6.984375 17.96875 6.984375 36.375 
Q 6.984375 53.65625 15.1875 63.9375 
Q 23.390625 74.21875 37.203125 74.21875 
Q 40.921875 74.21875 44.703125 73.484375 
Q 48.484375 72.75 52.59375 71.296875 
z
" id="DejaVuSans-54"/>
      </defs>
      <g transform="translate(20.878125 259.418437)scale(0.1 -0.1)">
       <use xlink:href="#DejaVuSans-48"/>
       <use x="63.623047" xlink:href="#DejaVuSans-46"/>
       <use x="95.410156" xlink:href="#DejaVuSans-56"/>
       <use x="159.033203" xlink:href="#DejaVuSans-54"/>
      </g>
     </g>
    </g>
    <g id="ytick_4">
     <g id="line2d_25">
      <path clip-path="url(#pf4ce0f310e)" d="M 50.14375 214.849219 
L 719.74375 214.849219 
" style="fill:none;stroke:#b0b0b0;stroke-linecap:square;stroke-width:0.8;"/>
     </g>
     <g id="line2d_26">
      <g>
       <use style="stroke:#000000;stroke-width:0.8;" x="50.14375" xlink:href="#mb37a115b2e" y="214.849219"/>
      </g>
     </g>
     <g id="text_14">
      <!-- 0.88 -->
      <g transform="translate(20.878125 218.648437)scale(0.1 -0.1)">
       <use xlink:href="#DejaVuSans-48"/>
       <use x="63.623047" xlink:href="#DejaVuSans-46"/>
       <use x="95.410156" xlink:href="#DejaVuSans-56"/>
       <use x="159.033203" xlink:href="#DejaVuSans-56"/>
      </g>
     </g>
    </g>
    <g id="ytick_5">
     <g id="line2d_27">
      <path clip-path="url(#pf4ce0f310e)" d="M 50.14375 174.079219 
L 719.74375 174.079219 
" style="fill:none;stroke:#b0b0b0;stroke-linecap:square;stroke-width:0.8;"/>
     </g>
     <g id="line2d_28">
      <g>
       <use style="stroke:#000000;stroke-width:0.8;" x="50.14375" xlink:href="#mb37a115b2e" y="174.079219"/>
      </g>
     </g>
     <g id="text_15">
      <!-- 0.90 -->
      <defs>
       <path d="M 10.984375 1.515625 
L 10.984375 10.5 
Q 14.703125 8.734375 18.5 7.8125 
Q 22.3125 6.890625 25.984375 6.890625 
Q 35.75 6.890625 40.890625 13.453125 
Q 46.046875 20.015625 46.78125 33.40625 
Q 43.953125 29.203125 39.59375 26.953125 
Q 35.25 24.703125 29.984375 24.703125 
Q 19.046875 24.703125 12.671875 31.3125 
Q 6.296875 37.9375 6.296875 49.421875 
Q 6.296875 60.640625 12.9375 67.421875 
Q 19.578125 74.21875 30.609375 74.21875 
Q 43.265625 74.21875 49.921875 64.515625 
Q 56.59375 54.828125 56.59375 36.375 
Q 56.59375 19.140625 48.40625 8.859375 
Q 40.234375 -1.421875 26.421875 -1.421875 
Q 22.703125 -1.421875 18.890625 -0.6875 
Q 15.09375 0.046875 10.984375 1.515625 
z
M 30.609375 32.421875 
Q 37.25 32.421875 41.125 36.953125 
Q 45.015625 41.5 45.015625 49.421875 
Q 45.015625 57.28125 41.125 61.84375 
Q 37.25 66.40625 30.609375 66.40625 
Q 23.96875 66.40625 20.09375 61.84375 
Q 16.21875 57.28125 16.21875 49.421875 
Q 16.21875 41.5 20.09375 36.953125 
Q 23.96875 32.421875 30.609375 32.421875 
z
" id="DejaVuSans-57"/>
      </defs>
      <g transform="translate(20.878125 177.878437)scale(0.1 -0.1)">
       <use xlink:href="#DejaVuSans-48"/>
       <use x="63.623047" xlink:href="#DejaVuSans-46"/>
       <use x="95.410156" xlink:href="#DejaVuSans-57"/>
       <use x="159.033203" xlink:href="#DejaVuSans-48"/>
      </g>
     </g>
    </g>
    <g id="ytick_6">
     <g id="line2d_29">
      <path clip-path="url(#pf4ce0f310e)" d="M 50.14375 133.309219 
L 719.74375 133.309219 
" style="fill:none;stroke:#b0b0b0;stroke-linecap:square;stroke-width:0.8;"/>
     </g>
     <g id="line2d_30">
      <g>
       <use style="stroke:#000000;stroke-width:0.8;" x="50.14375" xlink:href="#mb37a115b2e" y="133.309219"/>
      </g>
     </g>
     <g id="text_16">
      <!-- 0.92 -->
      <g transform="translate(20.878125 137.108437)scale(0.1 -0.1)">
       <use xlink:href="#DejaVuSans-48"/>
       <use x="63.623047" xlink:href="#DejaVuSans-46"/>
       <use x="95.410156" xlink:href="#DejaVuSans-57"/>
       <use x="159.033203" xlink:href="#DejaVuSans-50"/>
      </g>
     </g>
    </g>
    <g id="ytick_7">
     <g id="line2d_31">
      <path clip-path="url(#pf4ce0f310e)" d="M 50.14375 92.539219 
L 719.74375 92.539219 
" style="fill:none;stroke:#b0b0b0;stroke-linecap:square;stroke-width:0.8;"/>
     </g>
     <g id="line2d_32">
      <g>
       <use style="stroke:#000000;stroke-width:0.8;" x="50.14375" xlink:href="#mb37a115b2e" y="92.539219"/>
      </g>
     </g>
     <g id="text_17">
      <!-- 0.94 -->
      <g transform="translate(20.878125 96.338437)scale(0.1 -0.1)">
       <use xlink:href="#DejaVuSans-48"/>
       <use x="63.623047" xlink:href="#DejaVuSans-46"/>
       <use x="95.410156" xlink:href="#DejaVuSans-57"/>
       <use x="159.033203" xlink:href="#DejaVuSans-52"/>
      </g>
     </g>
    </g>
    <g id="ytick_8">
     <g id="line2d_33">
      <path clip-path="url(#pf4ce0f310e)" d="M 50.14375 51.769219 
L 719.74375 51.769219 
" style="fill:none;stroke:#b0b0b0;stroke-linecap:square;stroke-width:0.8;"/>
     </g>
     <g id="line2d_34">
      <g>
       <use style="stroke:#000000;stroke-width:0.8;" x="50.14375" xlink:href="#mb37a115b2e" y="51.769219"/>
      </g>
     </g>
     <g id="text_18">
      <!-- 0.96 -->
      <g transform="translate(20.878125 55.568437)scale(0.1 -0.1)">
       <use xlink:href="#DejaVuSans-48"/>
       <use x="63.623047" xlink:href="#DejaVuSans-46"/>
       <use x="95.410156" xlink:href="#DejaVuSans-57"/>
       <use x="159.033203" xlink:href="#DejaVuSans-54"/>
      </g>
     </g>
    </g>
    <g id="ytick_9">
     <g id="line2d_35">
      <path clip-path="url(#pf4ce0f310e)" d="M 50.14375 10.999219 
L 719.74375 10.999219 
" style="fill:none;stroke:#b0b0b0;stroke-linecap:square;stroke-width:0.8;"/>
     </g>
     <g id="line2d_36">
      <g>
       <use style="stroke:#000000;stroke-width:0.8;" x="50.14375" xlink:href="#mb37a115b2e" y="10.999219"/>
      </g>
     </g>
     <g id="text_19">
      <!-- 0.98 -->
      <g transform="translate(20.878125 14.798437)scale(0.1 -0.1)">
       <use xlink:href="#DejaVuSans-48"/>
       <use x="63.623047" xlink:href="#DejaVuSans-46"/>
       <use x="95.410156" xlink:href="#DejaVuSans-57"/>
       <use x="159.033203" xlink:href="#DejaVuSans-56"/>
      </g>
     </g>
    </g>
    <g id="text_20">
     <!-- Accuracy -->
     <defs>
      <path d="M 34.1875 63.1875 
L 20.796875 26.90625 
L 47.609375 26.90625 
z
M 28.609375 72.90625 
L 39.796875 72.90625 
L 67.578125 0 
L 57.328125 0 
L 50.6875 18.703125 
L 17.828125 18.703125 
L 11.1875 0 
L 0.78125 0 
z
" id="DejaVuSans-65"/>
      <path d="M 8.5 21.578125 
L 8.5 54.6875 
L 17.484375 54.6875 
L 17.484375 21.921875 
Q 17.484375 14.15625 20.5 10.265625 
Q 23.53125 6.390625 29.59375 6.390625 
Q 36.859375 6.390625 41.078125 11.03125 
Q 45.3125 15.671875 45.3125 23.6875 
L 45.3125 54.6875 
L 54.296875 54.6875 
L 54.296875 0 
L 45.3125 0 
L 45.3125 8.40625 
Q 42.046875 3.421875 37.71875 1 
Q 33.40625 -1.421875 27.6875 -1.421875 
Q 18.265625 -1.421875 13.375 4.4375 
Q 8.5 10.296875 8.5 21.578125 
z
M 31.109375 56 
z
" id="DejaVuSans-117"/>
      <path d="M 41.109375 46.296875 
Q 39.59375 47.171875 37.8125 47.578125 
Q 36.03125 48 33.890625 48 
Q 26.265625 48 22.1875 43.046875 
Q 18.109375 38.09375 18.109375 28.8125 
L 18.109375 0 
L 9.078125 0 
L 9.078125 54.6875 
L 18.109375 54.6875 
L 18.109375 46.1875 
Q 20.953125 51.171875 25.484375 53.578125 
Q 30.03125 56 36.53125 56 
Q 37.453125 56 38.578125 55.875 
Q 39.703125 55.765625 41.0625 55.515625 
z
" id="DejaVuSans-114"/>
      <path d="M 34.28125 27.484375 
Q 23.390625 27.484375 19.1875 25 
Q 14.984375 22.515625 14.984375 16.5 
Q 14.984375 11.71875 18.140625 8.90625 
Q 21.296875 6.109375 26.703125 6.109375 
Q 34.1875 6.109375 38.703125 11.40625 
Q 43.21875 16.703125 43.21875 25.484375 
L 43.21875 27.484375 
z
M 52.203125 31.203125 
L 52.203125 0 
L 43.21875 0 
L 43.21875 8.296875 
Q 40.140625 3.328125 35.546875 0.953125 
Q 30.953125 -1.421875 24.3125 -1.421875 
Q 15.921875 -1.421875 10.953125 3.296875 
Q 6 8.015625 6 15.921875 
Q 6 25.140625 12.171875 29.828125 
Q 18.359375 34.515625 30.609375 34.515625 
L 43.21875 34.515625 
L 43.21875 35.40625 
Q 43.21875 41.609375 39.140625 45 
Q 35.0625 48.390625 27.6875 48.390625 
Q 23 48.390625 18.546875 47.265625 
Q 14.109375 46.140625 10.015625 43.890625 
L 10.015625 52.203125 
Q 14.9375 54.109375 19.578125 55.046875 
Q 24.21875 56 28.609375 56 
Q 40.484375 56 46.34375 49.84375 
Q 52.203125 43.703125 52.203125 31.203125 
z
" id="DejaVuSans-97"/>
      <path d="M 32.171875 -5.078125 
Q 28.375 -14.84375 24.75 -17.8125 
Q 21.140625 -20.796875 15.09375 -20.796875 
L 7.90625 -20.796875 
L 7.90625 -13.28125 
L 13.1875 -13.28125 
Q 16.890625 -13.28125 18.9375 -11.515625 
Q 21 -9.765625 23.484375 -3.21875 
L 25.09375 0.875 
L 2.984375 54.6875 
L 12.5 54.6875 
L 29.59375 11.921875 
L 46.6875 54.6875 
L 56.203125 54.6875 
z
" id="DejaVuSans-121"/>
     </defs>
     <g transform="translate(14.798438 196.994062)rotate(-90)scale(0.1 -0.1)">
      <use xlink:href="#DejaVuSans-65"/>
      <use x="68.392578" xlink:href="#DejaVuSans-99"/>
      <use x="123.373047" xlink:href="#DejaVuSans-99"/>
      <use x="178.353516" xlink:href="#DejaVuSans-117"/>
      <use x="241.732422" xlink:href="#DejaVuSans-114"/>
      <use x="282.845703" xlink:href="#DejaVuSans-97"/>
      <use x="344.125" xlink:href="#DejaVuSans-99"/>
      <use x="399.105469" xlink:href="#DejaVuSans-121"/>
     </g>
    </g>
   </g>
   <g id="line2d_37">
    <path clip-path="url(#pf4ce0f310e)" d="M 111.906138 375.715469 
L 115.421483 363.151541 
L 119.242478 350.236131 
L 123.063473 338.051658 
L 126.884469 326.559392 
L 130.705464 315.720606 
L 134.52646 305.497744 
L 138.347455 295.861853 
L 142.16845 286.787819 
L 145.989446 278.250541 
L 149.810441 270.224921 
L 153.631437 262.68586 
L 157.452432 255.608259 
L 161.273428 248.967019 
L 165.094423 242.737042 
L 168.915418 236.893228 
L 172.736414 231.410479 
L 177.194242 225.436799 
L 181.65207 219.88055 
L 186.109898 214.701876 
L 190.567726 209.86092 
L 195.662386 204.690804 
L 200.757047 199.850239 
L 206.48854 194.724443 
L 212.856866 189.327281 
L 219.862024 183.663616 
L 226.867182 178.268672 
L 233.872341 173.133076 
L 241.514331 167.815377 
L 249.156322 162.782997 
L 256.798313 158.023767 
L 264.440304 153.525516 
L 272.082295 149.276075 
L 280.361118 144.939175 
L 288.639942 140.864524 
L 296.918765 137.036651 
L 305.834421 133.172561 
L 314.750077 129.557404 
L 324.302566 125.938305 
L 333.855054 122.559018 
L 344.044375 119.19199 
L 354.870529 115.851589 
L 366.333515 112.543205 
L 379.070167 109.096057 
L 392.443651 105.70767 
L 405.817135 102.544098 
L 419.827451 99.458143 
L 434.4746 96.467136 
L 449.121749 93.701285 
L 464.405731 91.038454 
L 480.326545 88.488399 
L 496.884192 86.05738 
L 514.715504 83.66602 
L 533.820481 81.333622 
L 554.199123 79.06978 
L 577.125096 76.748419 
L 604.508896 74.208411 
L 643.992516 70.796999 
L 687.933963 67.014576 
L 687.933963 67.014576 
" style="fill:none;stroke:#377eb8;stroke-linecap:square;stroke-width:2;"/>
   </g>
   <g id="line2d_38">
    <path clip-path="url(#pf4ce0f310e)" d="M 105.242246 375.715469 
L 107.142659 367.067718 
L 109.053157 359.23565 
L 110.963655 352.152235 
L 113.510985 343.676946 
L 116.058315 336.136606 
L 118.605645 329.417234 
L 121.152976 323.40899 
L 123.700306 318.002036 
L 126.247636 313.086532 
L 129.431799 307.465921 
L 133.252795 301.212335 
L 137.710623 294.363783 
L 142.16845 287.965311 
L 146.626278 281.995492 
L 151.084106 276.432899 
L 155.541934 271.256105 
L 159.999762 266.443683 
L 164.45759 261.974206 
L 168.915418 257.826247 
L 173.373246 253.978378 
L 177.831074 250.409174 
L 182.288902 247.097206 
L 187.383563 243.599598 
L 192.478224 240.378002 
L 198.209717 237.043802 
L 203.94121 233.97291 
L 210.309536 230.814236 
L 217.314694 227.583452 
L 224.956685 224.318189 
L 232.598675 221.306602 
L 240.240666 218.531416 
L 248.51949 215.771699 
L 256.798313 213.247184 
L 265.713969 210.766318 
L 275.266458 208.351511 
L 285.455779 206.015902 
L 296.281932 203.761823 
L 307.744919 201.596769 
L 319.844738 199.539672 
L 332.581389 197.606255 
L 345.954873 195.807464 
L 359.965189 194.148608 
L 375.249171 192.566506 
L 394.990981 190.769983 
L 431.92727 187.446581 
L 446.574419 185.883329 
L 459.947903 184.227535 
L 477.142382 181.848573 
L 512.168174 176.940212 
L 525.541658 175.330963 
L 537.004644 174.180296 
L 548.46763 173.258164 
L 560.567449 172.511607 
L 573.3041 171.952061 
L 586.677584 171.584897 
L 601.324734 171.404854 
L 617.88238 171.43008 
L 637.62419 171.696859 
L 665.644823 172.327593 
L 687.933963 172.867162 
L 687.933963 172.867162 
" style="fill:none;stroke:#4daf4a;stroke-linecap:square;stroke-width:2;"/>
   </g>
   <g id="line2d_39">
    <path clip-path="url(#pf4ce0f310e)" d="M 110.006254 375.715469 
L 110.73382 368.297324 
L 112.328296 364.576991 
L 113.922771 361.213515 
L 115.517247 353.416235 
L 117.111722 354.741237 
L 118.706198 343.988248 
L 120.300673 341.389154 
L 121.895149 332.725428 
L 123.489625 331.808194 
L 125.0841 328.903275 
L 126.678576 322.736822 
L 128.273051 322.278144 
L 129.867527 314.990573 
L 131.462002 314.429953 
L 133.056478 310.149122 
L 134.650953 294.095883 
L 136.245429 301.128781 
L 137.839904 296.440182 
L 139.43438 296.796918 
L 141.028855 293.076707 
L 142.623331 284.31116 
L 144.217806 281.915829 
L 145.812282 280.743679 
L 147.406758 275.137846 
L 149.001233 270.398337 
L 150.595709 266.627094 
L 152.190184 268.308831 
L 153.78466 264.384736 
L 155.379135 258.727871 
L 156.973611 264.180974 
L 158.568086 253.22398 
L 160.162562 249.096001 
L 161.757037 246.598849 
L 163.351513 246.242113 
L 164.945988 246.089261 
L 166.540464 244.25455 
L 168.134939 238.801568 
L 169.729415 240.534338 
L 171.32389 239.413098 
L 172.918366 233.399619 
L 174.512842 229.118666 
L 176.107317 227.386018 
L 177.701793 229.27164 
L 179.296268 224.124363 
L 180.890744 226.519573 
L 182.485219 223.920601 
L 184.079695 220.149357 
L 185.67417 219.181092 
L 187.268646 216.12332 
L 188.863121 211.944309 
L 190.457597 210.517365 
L 192.052072 208.682775 
L 193.646548 205.523062 
L 196.835499 208.122156 
L 198.429975 201.242231 
L 200.02445 203.127852 
L 201.618926 200.783553 
L 203.213401 201.191321 
L 204.807877 197.063341 
L 206.402352 192.578626 
L 207.996828 187.074613 
L 209.591303 193.699744 
L 211.185779 192.069038 
L 212.780254 189.113209 
L 214.37473 188.552589 
L 215.969205 190.947799 
L 217.563681 183.86399 
L 219.158156 185.240024 
L 220.752632 179.073571 
L 222.347108 183.303492 
L 223.941583 174.537824 
L 227.130534 177.952331 
L 228.72501 177.850389 
L 230.319485 171.683936 
L 231.913961 179.430307 
L 233.508436 168.88108 
L 235.102912 174.843649 
L 236.697387 172.040672 
L 238.291863 167.912814 
L 239.886338 165.925251 
L 241.480814 166.944427 
L 243.075289 171.734968 
L 244.669765 170.206082 
L 246.264241 164.039629 
L 247.858716 161.032768 
L 249.453192 164.600249 
L 251.047667 161.032768 
L 252.642143 160.013592 
L 254.236618 159.554914 
L 255.831094 159.249088 
L 257.425569 150.687426 
L 259.020045 155.783671 
L 260.61452 151.55375 
L 262.208996 155.070199 
L 263.803471 153.235609 
L 265.397947 153.999991 
L 266.992422 151.808665 
L 268.586898 153.949081 
L 270.181374 145.897006 
L 271.775849 149.056598 
L 273.370325 146.355563 
L 274.9648 149.923044 
L 276.559276 148.648952 
L 278.153751 147.833538 
L 279.748227 144.419031 
L 281.342702 143.654649 
L 282.937178 144.877709 
L 284.531653 139.679522 
L 286.126129 139.781463 
L 287.720604 138.507372 
L 289.31508 140.087289 
L 290.909555 136.672782 
L 292.504031 136.316046 
L 294.098507 134.22654 
L 295.692982 135.755426 
L 297.287458 134.073688 
L 298.881933 140.800761 
L 300.476409 136.519808 
L 302.070884 131.372653 
L 303.66536 137.437164 
L 305.259835 132.952449 
L 306.854311 131.780299 
L 308.448786 126.123556 
L 310.043262 134.430424 
L 311.637737 128.569676 
L 313.232213 134.78716 
L 314.826688 127.907235 
L 316.421164 128.82447 
L 318.01564 126.123556 
L 319.610115 131.729389 
L 321.204591 125.511904 
L 322.799066 127.091822 
L 324.393542 129.945709 
L 325.988017 123.218636 
L 327.582493 125.613846 
L 329.176968 124.492728 
L 330.771444 119.906071 
L 332.365919 122.81099 
L 333.960395 117.45983 
L 335.55487 122.8619 
L 337.149346 123.116694 
L 338.743821 125.81773 
L 340.338297 118.886773 
L 341.932773 122.912811 
L 343.527248 118.020449 
L 345.121724 114.962678 
L 346.716199 117.154125 
L 348.310675 121.129131 
L 349.90515 116.440653 
L 351.499626 114.911768 
L 353.094101 116.032886 
L 354.688577 116.287801 
L 356.283052 117.918507 
L 357.877528 118.683011 
L 359.472003 113.994412 
L 361.066479 115.115652 
L 362.660954 114.504 
L 364.25543 115.472387 
L 365.849905 110.630936 
L 367.444381 114.45309 
L 369.038857 109.815523 
L 370.633332 113.535734 
L 372.227808 107.980811 
L 373.822283 113.535734 
L 375.416759 108.388579 
L 377.011234 110.376142 
L 378.60571 112.159822 
L 380.200185 108.235727 
L 381.794661 115.217472 
L 383.389136 106.706841 
L 384.983612 106.401015 
L 386.578087 103.751012 
L 388.172563 106.451925 
L 389.767038 107.012545 
L 391.361514 103.69998 
L 392.95599 104.362541 
L 394.550465 105.585601 
L 396.144941 101.9163 
L 397.739416 106.706841 
L 399.333892 104.31151 
L 400.928367 105.738454 
L 402.522843 103.954774 
L 404.117318 103.954774 
L 405.711794 101.763448 
L 407.306269 104.158658 
L 408.900745 100.540388 
L 410.49522 100.846092 
L 412.089696 105.48366 
L 413.684171 97.941294 
L 415.278647 100.69324 
L 416.873123 99.979768 
L 418.467598 101.457622 
L 420.062074 98.043115 
L 421.656549 99.011502 
L 423.251025 100.183652 
L 424.8455 97.074849 
L 426.439976 99.775884 
L 428.034451 98.807618 
L 429.628927 99.52109 
L 431.223402 97.329643 
L 432.817878 96.463319 
L 434.412353 95.393111 
L 436.006829 94.475755 
L 437.601304 96.820055 
L 439.19578 91.6729 
L 440.790256 94.781581 
L 442.384731 96.106583 
L 443.979207 94.322903 
L 445.573682 96.871087 
L 447.168158 95.851789 
L 448.762633 95.036375 
L 450.357109 90.55166 
L 451.951584 88.411244 
L 453.54606 93.150754 
L 455.140535 88.003598 
L 456.735011 94.985465 
L 458.329486 97.074849 
L 459.923962 91.367074 
L 461.518437 94.475755 
L 463.112913 92.233398 
L 464.707389 94.373814 
L 466.301864 90.144014 
L 467.89634 90.194924 
L 469.490815 91.621868 
L 471.085291 89.88922 
L 472.679766 84.436239 
L 474.274242 90.092982 
L 475.868717 86.627565 
L 477.463193 91.621868 
L 479.057668 90.55166 
L 480.652144 88.15645 
L 482.246619 90.653602 
L 483.841095 85.812151 
L 485.43557 88.15645 
L 487.030046 87.137153 
L 488.624522 85.404505 
L 490.218997 86.729507 
L 491.813473 86.168887 
L 493.407948 87.391947 
L 495.002424 88.10554 
L 496.596899 83.977561 
L 498.191375 89.838188 
L 499.78585 81.53132 
L 501.380326 84.996737 
L 502.974801 81.429378 
L 504.569277 81.480409 
L 506.163752 88.666038 
L 507.758228 80.104376 
L 509.352703 83.416941 
L 510.947179 85.200621 
L 512.541655 88.564097 
L 514.13613 81.429378 
L 515.730606 82.550617 
L 517.325081 80.35917 
L 518.919557 85.149711 
L 520.514032 84.996737 
L 522.108508 85.710209 
L 523.702983 85.302563 
L 525.297459 78.269664 
L 526.891934 81.123673 
L 528.48641 80.817848 
L 530.080885 84.945827 
L 531.675361 80.104376 
L 533.269836 83.365909 
L 534.864312 78.932226 
L 536.458788 83.926529 
L 538.053263 78.932226 
L 539.647739 80.104376 
L 541.242214 80.868758 
L 542.83669 83.518883 
L 544.431165 81.276525 
L 546.025641 83.314999 
L 547.620116 80.461112 
L 549.214592 83.365909 
L 550.809067 80.155286 
L 552.403543 76.333132 
L 553.998018 75.517719 
L 555.592494 80.817848 
L 557.186969 79.74764 
L 558.781445 77.199456 
L 560.37592 76.078338 
L 561.970396 80.766937 
L 563.564872 75.364867 
L 565.159347 79.74764 
L 566.753823 74.498543 
L 568.348298 77.250488 
L 569.942774 80.664996 
L 571.537249 74.753337 
L 573.131725 75.619661 
L 574.7262 75.212014 
L 576.320676 76.689868 
L 577.915151 74.090775 
L 579.509627 78.52458 
L 581.104102 75.976397 
L 582.698578 79.13611 
L 584.293053 80.35917 
L 585.887529 75.262925 
L 587.482005 75.262925 
L 589.07648 76.79181 
L 590.670956 72.205153 
L 592.265431 73.377303 
L 593.859907 78.116812 
L 595.454382 72.918625 
L 597.048858 77.912928 
L 600.237809 71.695565 
L 601.832284 74.345569 
L 603.42676 74.192717 
L 605.021235 77.454372 
L 606.615711 72.765773 
L 608.210186 73.326393 
L 609.804662 72.918625 
L 611.399138 73.683129 
L 612.993613 71.746475 
L 614.588089 72.663831 
L 616.182564 71.338829 
L 617.77704 74.855278 
L 619.371515 71.084035 
L 620.965991 73.479245 
L 622.560466 73.479245 
L 624.154942 74.804247 
L 625.749417 71.389739 
L 627.343893 71.440771 
L 628.938368 72.510979 
L 630.532844 73.886891 
L 632.127319 68.892588 
L 633.721795 71.644533 
L 635.316271 73.173419 
L 636.910746 73.071599 
L 638.505222 71.695565 
L 640.099697 70.829241 
L 641.694173 69.759033 
L 643.288648 69.809944 
L 644.883124 72.867715 
L 646.477599 66.956056 
L 648.072075 70.625357 
L 649.66655 70.064738 
L 651.261026 66.956056 
L 652.855501 71.593623 
L 654.449977 70.880151 
L 656.044452 67.108908 
L 657.638928 71.797507 
L 659.233404 69.504118 
L 660.827879 69.249324 
L 662.422355 68.383 
L 664.01683 68.33209 
L 665.611306 68.739736 
L 667.205781 67.77147 
L 668.800257 67.975354 
L 670.394732 67.312792 
L 671.989208 67.873412 
L 673.583683 68.637794 
L 675.178159 69.759033 
L 676.772634 68.739736 
L 678.36711 66.497378 
L 679.961585 71.695565 
L 681.556061 67.720438 
L 683.150537 66.089732 
L 684.745012 65.783906 
L 686.339488 69.096472 
L 687.933963 69.860854 
L 687.933963 69.860854 
" style="fill:none;stroke:#377eb8;stroke-linecap:square;stroke-opacity:0.25098;stroke-width:1.5;"/>
   </g>
   <g id="line2d_40">
    <path clip-path="url(#pf4ce0f310e)" d="M 100.901935 375.715469 
L 101.166967 356.140963 
L 101.831284 375.715469 
M 103.882527 375.715469 
L 104.355918 364.142249 
L 105.950394 364.757789 
L 107.544869 363.11639 
L 109.139345 337.471013 
L 110.73382 349.165415 
L 112.328296 331.111004 
L 113.922771 349.575734 
L 115.517247 343.215604 
L 117.111722 322.494178 
L 118.706198 322.494178 
L 120.300673 337.471013 
L 121.895149 313.261813 
L 123.489625 333.572919 
L 125.0841 317.159907 
L 126.678576 312.441175 
L 128.273051 298.079758 
L 129.867527 324.956094 
L 131.462002 316.954808 
L 133.056478 292.950707 
L 134.650953 333.983238 
L 136.245429 288.231975 
L 137.839904 280.846107 
L 139.43438 297.464219 
L 141.028855 273.870559 
L 142.623331 287.616435 
L 144.217806 290.48867 
L 145.812282 309.979259 
L 147.406758 277.153113 
L 149.001233 272.024061 
L 150.595709 299.105617 
L 152.190184 263.817555 
L 153.78466 262.791696 
L 155.379135 276.537695 
L 156.973611 271.818841 
L 158.568086 245.558045 
L 160.162562 250.687096 
L 161.757037 259.714241 
L 163.351513 267.715649 
L 164.945988 263.202015 
L 166.540464 272.434381 
L 168.134939 268.331067 
L 169.729415 259.509142 
L 171.32389 235.71014 
L 172.918366 252.533594 
L 174.512842 259.509142 
L 176.107317 260.53488 
L 177.701793 259.509142 
L 179.296268 245.352825 
L 180.890744 245.352825 
L 182.485219 253.149012 
L 184.079695 233.863765 
L 185.67417 242.48059 
L 187.268646 241.865051 
L 188.863121 246.173463 
L 190.457597 232.427587 
L 192.052072 226.888216 
L 193.646548 234.274084 
L 195.241023 244.327087 
L 196.835499 229.760451 
L 198.429975 232.017267 
L 200.02445 254.995509 
L 201.618926 224.6314 
L 203.213401 234.479183 
L 204.807877 225.452038 
L 206.402352 237.761858 
L 207.996828 228.939812 
L 209.591303 217.450631 
L 211.185779 246.994223 
L 212.780254 239.197915 
L 214.37473 219.092029 
L 215.969205 223.810761 
L 217.563681 235.505042 
L 219.158156 222.374583 
L 220.752632 228.939812 
L 222.347108 237.351539 
L 223.941583 219.707447 
L 225.536059 236.735999 
L 227.130534 231.606948 
L 228.72501 222.990123 
L 230.319485 212.731899 
L 231.913961 216.014574 
L 233.508436 210.885523 
L 235.102912 227.298535 
L 236.697387 234.274084 
L 238.291863 232.837906 
L 239.886338 210.885523 
L 241.480814 202.063477 
L 243.075289 214.578396 
L 244.669765 228.324273 
L 246.264241 205.140932 
L 247.858716 210.269983 
L 249.453192 228.939812 
L 251.047667 212.321579 
L 252.642143 222.579803 
L 254.236618 213.347438 
L 255.831094 209.654444 
L 257.425569 242.27537 
L 260.61452 205.346031 
L 262.208996 203.909974 
L 263.803471 205.551251 
L 265.397947 211.500941 
L 266.992422 213.757757 
L 268.586898 197.344745 
L 270.181374 207.808068 
L 271.775849 214.783616 
L 273.370325 218.68171 
L 274.9648 210.064763 
L 276.559276 196.729205 
L 278.153751 207.192528 
L 279.748227 200.832519 
L 281.342702 189.753657 
L 282.937178 217.040311 
L 284.531653 197.755064 
L 286.126129 212.5268 
L 287.720604 223.195221 
L 289.31508 206.37189 
L 290.909555 212.11648 
L 292.504031 206.782209 
L 294.098507 190.163976 
L 295.692982 210.269983 
L 297.287458 193.446651 
L 298.881933 202.884115 
L 300.476409 190.574295 
L 302.070884 199.519668 
L 303.66536 194.472389 
L 305.259835 197.755064 
L 306.854311 199.396341 
L 308.448786 196.524106 
L 310.043262 197.139524 
L 311.637737 215.604255 
L 313.232213 195.087928 
L 314.826688 202.678895 
L 316.421164 188.11238 
L 318.01564 204.320293 
L 319.610115 213.347438 
L 321.204591 215.399034 
L 322.799066 193.856971 
L 324.393542 199.80666 
L 325.988017 210.885523 
L 327.582493 201.037618 
L 329.176968 193.65175 
L 330.771444 182.573009 
L 332.365919 204.935712 
L 333.960395 205.75635 
L 335.55487 190.779516 
L 337.149346 187.291741 
L 338.743821 185.240145 
L 340.338297 195.087928 
L 341.932773 191.394934 
L 343.527248 206.987429 
L 345.121724 201.037618 
L 346.716199 186.881422 
L 348.310675 194.062069 
L 349.90515 217.040311 
L 351.499626 196.524106 
L 353.094101 190.163976 
L 354.688577 209.654444 
L 356.283052 193.241431 
L 357.877528 189.343337 
L 359.472003 191.394934 
L 361.066479 194.062069 
L 362.660954 185.240145 
L 364.25543 182.367789 
L 365.849905 189.343337 
L 367.444381 217.655851 
L 369.038857 188.727919 
L 370.633332 198.370482 
L 372.227808 192.831112 
L 373.822283 175.39224 
L 375.416759 197.755064 
L 377.011234 207.192528 
L 378.60571 189.548558 
L 380.200185 188.11238 
L 381.794661 191.189835 
L 383.389136 200.627299 
L 384.983612 190.574295 
L 386.578087 172.520006 
L 388.172563 200.832519 
L 389.767038 206.576988 
L 391.361514 174.981921 
L 392.95599 190.369196 
L 394.550465 187.907159 
L 396.144941 192.010473 
L 397.739416 194.26729 
L 399.333892 192.010473 
L 400.928367 202.063477 
L 402.522843 192.831112 
L 404.117318 181.752371 
L 405.711794 194.062069 
L 407.306269 188.522699 
L 408.900745 201.653158 
L 410.49522 185.855563 
L 412.089696 193.241431 
L 413.684171 185.855563 
L 415.278647 184.829704 
L 416.873123 180.316193 
L 418.467598 185.034925 
L 420.062074 191.600154 
L 421.656549 180.521292 
L 423.251025 197.960163 
L 424.8455 193.65175 
L 426.439976 176.828418 
L 428.034451 182.573009 
L 429.628927 171.699367 
L 431.223402 178.469695 
L 432.817878 189.753657 
L 434.412353 180.726512 
L 436.006829 191.600154 
L 437.601304 181.95747 
L 439.19578 177.238738 
L 440.790256 184.214286 
L 442.384731 188.317479 
L 443.979207 201.653158 
L 445.573682 178.059376 
L 447.168158 193.65175 
L 448.762633 196.524106 
L 450.357109 184.214286 
L 451.951584 198.780801 
L 453.54606 189.958877 
L 455.140535 171.699367 
L 456.735011 176.00778 
L 458.329486 204.115073 
L 459.923962 181.34193 
L 461.518437 187.086521 
L 463.112913 197.139524 
L 464.707389 175.187141 
L 467.89634 183.598747 
L 469.490815 182.367789 
L 471.085291 192.626013 
L 472.679766 168.416692 
L 474.274242 186.471103 
L 475.868717 196.524106 
L 477.463193 174.776822 
L 479.057668 185.240145 
L 480.652144 176.828418 
L 482.246619 194.677609 
L 483.841095 170.263189 
L 485.43557 191.600154 
L 487.030046 168.211593 
L 488.624522 172.725105 
L 490.218997 185.034925 
L 491.813473 183.803967 
L 493.407948 169.442551 
L 495.002424 176.828418 
L 496.596899 172.725105 
L 498.191375 183.803967 
L 499.78585 187.291741 
L 501.380326 175.597461 
L 502.974801 179.495554 
L 504.569277 173.750963 
L 506.163752 171.494147 
L 507.758228 173.956062 
L 509.352703 176.212879 
L 510.947179 190.574295 
L 512.541655 184.009066 
L 514.13613 176.828418 
L 515.730606 172.930325 
L 517.325081 183.188427 
L 518.919557 165.544457 
L 520.514032 180.931611 
L 522.108508 168.827011 
L 523.702983 162.672101 
L 525.297459 165.954776 
L 526.891934 188.933018 
L 528.48641 163.90318 
L 530.080885 165.749556 
L 531.675361 185.445244 
L 533.269836 185.240145 
L 534.864312 175.187141 
L 536.458788 181.54715 
L 538.053263 166.159875 
L 539.647739 181.34193 
L 541.242214 157.54305 
L 542.83669 181.752371 
L 544.431165 171.699367 
L 546.025641 171.494147 
L 547.620116 190.369196 
L 549.214592 169.85287 
L 550.809067 169.23733 
L 552.403543 175.835123 
L 553.998018 169.23733 
L 555.592494 182.983328 
L 557.186969 162.261782 
L 558.781445 179.905873 
L 560.37592 176.623198 
L 561.970396 170.878729 
L 563.564872 169.032231 
L 565.159347 163.90318 
L 566.753823 171.289048 
L 568.348298 172.109686 
L 569.942774 177.854277 
L 571.537249 164.313499 
L 573.131725 173.340644 
L 574.7262 170.057969 
L 576.320676 168.211593 
L 577.915151 171.289048 
L 579.509627 175.597461 
L 581.104102 170.263189 
L 582.698578 171.289048 
L 584.293053 174.776822 
L 585.887529 179.290334 
L 587.482005 167.596053 
L 589.07648 171.083828 
L 590.670956 160.825725 
L 592.265431 183.393648 
L 593.859907 169.442551 
L 595.454382 176.418099 
L 597.048858 159.389547 
L 598.643333 172.109686 
L 600.237809 171.904466 
L 601.832284 184.009066 
L 603.42676 164.723819 
L 605.021235 176.418099 
L 606.615711 170.878729 
L 608.210186 176.212879 
L 609.804662 160.005087 
L 611.399138 186.060784 
L 612.993613 190.369196 
L 614.588089 160.210185 
L 616.182564 169.647649 
L 617.77704 165.749556 
L 619.371515 169.032231 
L 620.965991 164.723819 
L 622.560466 166.570194 
L 624.154942 171.289048 
L 625.749417 186.881422 
L 627.343893 176.623198 
L 628.938368 158.568909 
L 630.532844 171.904466 
L 632.127319 160.210185 
L 633.721795 160.005087 
L 635.316271 182.367789 
L 636.910746 173.545743 
L 638.505222 170.673508 
L 640.099697 173.135424 
L 641.694173 173.750963 
L 643.288648 171.289048 
L 644.883124 168.211593 
L 646.477599 169.442551 
L 648.072075 172.314785 
L 649.66655 180.521292 
L 651.261026 183.598747 
L 652.855501 163.287641 
L 654.449977 168.416692 
L 656.044452 166.980635 
L 657.638928 181.95747 
L 659.233404 167.596053 
L 662.422355 174.571602 
L 664.01683 176.623198 
L 665.611306 163.492861 
L 667.205781 178.880015 
L 668.800257 177.443837 
L 670.394732 174.161283 
L 671.989208 160.620505 
L 673.583683 183.188427 
L 675.178159 168.827011 
L 676.772634 172.930325 
L 678.36711 181.136831 
L 679.961585 158.363688 
L 681.556061 167.596053 
L 683.150537 171.699367 
L 684.745012 171.699367 
L 686.339488 183.393648 
L 687.933963 171.699367 
L 687.933963 171.699367 
" style="fill:none;stroke:#4daf4a;stroke-linecap:square;stroke-opacity:0.25098;stroke-width:1.5;"/>
   </g>
   <g id="patch_3">
    <path d="M 50.14375 337.159219 
L 50.14375 10.999219 
" style="fill:none;stroke:#000000;stroke-linecap:square;stroke-linejoin:miter;stroke-width:0.8;"/>
   </g>
   <g id="patch_4">
    <path d="M 719.74375 337.159219 
L 719.74375 10.999219 
" style="fill:none;stroke:#000000;stroke-linecap:square;stroke-linejoin:miter;stroke-width:0.8;"/>
   </g>
   <g id="patch_5">
    <path d="M 50.14375 337.159219 
L 719.74375 337.159219 
" style="fill:none;stroke:#000000;stroke-linecap:square;stroke-linejoin:miter;stroke-width:0.8;"/>
   </g>
   <g id="patch_6">
    <path d="M 50.14375 10.999219 
L 719.74375 10.999219 
" style="fill:none;stroke:#000000;stroke-linecap:square;stroke-linejoin:miter;stroke-width:0.8;"/>
   </g>
   <g id="legend_1">
    <g id="patch_7">
     <path d="M 57.14375 48.355469 
L 114.584375 48.355469 
Q 116.584375 48.355469 116.584375 46.355469 
L 116.584375 17.999219 
Q 116.584375 15.999219 114.584375 15.999219 
L 57.14375 15.999219 
Q 55.14375 15.999219 55.14375 17.999219 
L 55.14375 46.355469 
Q 55.14375 48.355469 57.14375 48.355469 
z
" style="fill:#ffffff;opacity:0.8;stroke:#cccccc;stroke-linejoin:miter;"/>
    </g>
    <g id="line2d_41">
     <path d="M 59.14375 24.097656 
L 79.14375 24.097656 
" style="fill:none;stroke:#377eb8;stroke-linecap:square;stroke-width:2;"/>
    </g>
    <g id="line2d_42"/>
    <g id="text_21">
     <!-- Train -->
     <defs>
      <path d="M -0.296875 72.90625 
L 61.375 72.90625 
L 61.375 64.59375 
L 35.5 64.59375 
L 35.5 0 
L 25.59375 0 
L 25.59375 64.59375 
L -0.296875 64.59375 
z
" id="DejaVuSans-84"/>
      <path d="M 9.421875 54.6875 
L 18.40625 54.6875 
L 18.40625 0 
L 9.421875 0 
z
M 9.421875 75.984375 
L 18.40625 75.984375 
L 18.40625 64.59375 
L 9.421875 64.59375 
z
" id="DejaVuSans-105"/>
      <path d="M 54.890625 33.015625 
L 54.890625 0 
L 45.90625 0 
L 45.90625 32.71875 
Q 45.90625 40.484375 42.875 44.328125 
Q 39.84375 48.1875 33.796875 48.1875 
Q 26.515625 48.1875 22.3125 43.546875 
Q 18.109375 38.921875 18.109375 30.90625 
L 18.109375 0 
L 9.078125 0 
L 9.078125 54.6875 
L 18.109375 54.6875 
L 18.109375 46.1875 
Q 21.34375 51.125 25.703125 53.5625 
Q 30.078125 56 35.796875 56 
Q 45.21875 56 50.046875 50.171875 
Q 54.890625 44.34375 54.890625 33.015625 
z
" id="DejaVuSans-110"/>
     </defs>
     <g transform="translate(87.14375 27.597656)scale(0.1 -0.1)">
      <use xlink:href="#DejaVuSans-84"/>
      <use x="60.865234" xlink:href="#DejaVuSans-114"/>
      <use x="101.978516" xlink:href="#DejaVuSans-97"/>
      <use x="163.257812" xlink:href="#DejaVuSans-105"/>
      <use x="191.041016" xlink:href="#DejaVuSans-110"/>
     </g>
    </g>
    <g id="line2d_43">
     <path d="M 59.14375 38.775781 
L 79.14375 38.775781 
" style="fill:none;stroke:#4daf4a;stroke-linecap:square;stroke-width:2;"/>
    </g>
    <g id="line2d_44"/>
    <g id="text_22">
     <!-- Test -->
     <defs>
      <path d="M 56.203125 29.59375 
L 56.203125 25.203125 
L 14.890625 25.203125 
Q 15.484375 15.921875 20.484375 11.0625 
Q 25.484375 6.203125 34.421875 6.203125 
Q 39.59375 6.203125 44.453125 7.46875 
Q 49.3125 8.734375 54.109375 11.28125 
L 54.109375 2.78125 
Q 49.265625 0.734375 44.1875 -0.34375 
Q 39.109375 -1.421875 33.890625 -1.421875 
Q 20.796875 -1.421875 13.15625 6.1875 
Q 5.515625 13.8125 5.515625 26.8125 
Q 5.515625 40.234375 12.765625 48.109375 
Q 20.015625 56 32.328125 56 
Q 43.359375 56 49.78125 48.890625 
Q 56.203125 41.796875 56.203125 29.59375 
z
M 47.21875 32.234375 
Q 47.125 39.59375 43.09375 43.984375 
Q 39.0625 48.390625 32.421875 48.390625 
Q 24.90625 48.390625 20.390625 44.140625 
Q 15.875 39.890625 15.1875 32.171875 
z
" id="DejaVuSans-101"/>
      <path d="M 44.28125 53.078125 
L 44.28125 44.578125 
Q 40.484375 46.53125 36.375 47.5 
Q 32.28125 48.484375 27.875 48.484375 
Q 21.1875 48.484375 17.84375 46.4375 
Q 14.5 44.390625 14.5 40.28125 
Q 14.5 37.15625 16.890625 35.375 
Q 19.28125 33.59375 26.515625 31.984375 
L 29.59375 31.296875 
Q 39.15625 29.25 43.1875 25.515625 
Q 47.21875 21.78125 47.21875 15.09375 
Q 47.21875 7.46875 41.1875 3.015625 
Q 35.15625 -1.421875 24.609375 -1.421875 
Q 20.21875 -1.421875 15.453125 -0.5625 
Q 10.6875 0.296875 5.421875 2 
L 5.421875 11.28125 
Q 10.40625 8.6875 15.234375 7.390625 
Q 20.0625 6.109375 24.8125 6.109375 
Q 31.15625 6.109375 34.5625 8.28125 
Q 37.984375 10.453125 37.984375 14.40625 
Q 37.984375 18.0625 35.515625 20.015625 
Q 33.0625 21.96875 24.703125 23.78125 
L 21.578125 24.515625 
Q 13.234375 26.265625 9.515625 29.90625 
Q 5.8125 33.546875 5.8125 39.890625 
Q 5.8125 47.609375 11.28125 51.796875 
Q 16.75 56 26.8125 56 
Q 31.78125 56 36.171875 55.265625 
Q 40.578125 54.546875 44.28125 53.078125 
z
" id="DejaVuSans-115"/>
      <path d="M 18.3125 70.21875 
L 18.3125 54.6875 
L 36.8125 54.6875 
L 36.8125 47.703125 
L 18.3125 47.703125 
L 18.3125 18.015625 
Q 18.3125 11.328125 20.140625 9.421875 
Q 21.96875 7.515625 27.59375 7.515625 
L 36.8125 7.515625 
L 36.8125 0 
L 27.59375 0 
Q 17.1875 0 13.234375 3.875 
Q 9.28125 7.765625 9.28125 18.015625 
L 9.28125 47.703125 
L 2.6875 47.703125 
L 2.6875 54.6875 
L 9.28125 54.6875 
L 9.28125 70.21875 
z
" id="DejaVuSans-116"/>
     </defs>
     <g transform="translate(87.14375 42.275781)scale(0.1 -0.1)">
      <use xlink:href="#DejaVuSans-84"/>
      <use x="60.818359" xlink:href="#DejaVuSans-101"/>
      <use x="122.341797" xlink:href="#DejaVuSans-115"/>
      <use x="174.441406" xlink:href="#DejaVuSans-116"/>
     </g>
    </g>
   </g>
  </g>
 </g>
 <defs>
  <clipPath id="pf4ce0f310e">
   <rect height="326.16" width="669.6" x="50.14375" y="10.999219"/>
  </clipPath>
 </defs>
</svg>
