<?xml version="1.0" encoding="utf-8" standalone="no"?>
<!DOCTYPE svg PUBLIC "-//W3C//DTD SVG 1.1//EN"
  "http://www.w3.org/Graphics/SVG/1.1/DTD/svg11.dtd">
<!-- Created with matplotlib (https://matplotlib.org/) -->
<svg height="374.715469pt" version="1.1" viewBox="0 0 726.94375 374.715469" width="726.94375pt" xmlns="http://www.w3.org/2000/svg" xmlns:xlink="http://www.w3.org/1999/xlink">
 <defs>
  <style type="text/css">
*{stroke-linecap:butt;stroke-linejoin:round;white-space:pre;}
  </style>
 </defs>
 <g id="figure_1">
  <g id="patch_1">
   <path d="M 0 374.715469 
L 726.94375 374.715469 
L 726.94375 0 
L 0 0 
z
" style="fill:#ffffff;"/>
  </g>
  <g id="axes_1">
   <g id="patch_2">
    <path d="M 50.14375 337.159219 
L 719.74375 337.159219 
L 719.74375 10.999219 
L 50.14375 10.999219 
z
" style="fill:#ffffff;"/>
   </g>
   <g id="matplotlib.axis_1">
    <g id="xtick_1">
     <g id="line2d_1">
      <path clip-path="url(#pb5595530d3)" d="M 50.14375 337.159219 
L 50.14375 10.999219 
" style="fill:none;stroke:#b0b0b0;stroke-linecap:square;stroke-width:0.8;"/>
     </g>
     <g id="line2d_2">
      <defs>
       <path d="M 0 0 
L 0 3.5 
" id="m364cee61af" style="stroke:#000000;stroke-width:0.8;"/>
      </defs>
      <g>
       <use style="stroke:#000000;stroke-width:0.8;" x="50.14375" xlink:href="#m364cee61af" y="337.159219"/>
      </g>
     </g>
     <g id="text_1">
      <!-- 0 -->
      <defs>
       <path d="M 31.78125 66.40625 
Q 24.171875 66.40625 20.328125 58.90625 
Q 16.5 51.421875 16.5 36.375 
Q 16.5 21.390625 20.328125 13.890625 
Q 24.171875 6.390625 31.78125 6.390625 
Q 39.453125 6.390625 43.28125 13.890625 
Q 47.125 21.390625 47.125 36.375 
Q 47.125 51.421875 43.28125 58.90625 
Q 39.453125 66.40625 31.78125 66.40625 
z
M 31.78125 74.21875 
Q 44.046875 74.21875 50.515625 64.515625 
Q 56.984375 54.828125 56.984375 36.375 
Q 56.984375 17.96875 50.515625 8.265625 
Q 44.046875 -1.421875 31.78125 -1.421875 
Q 19.53125 -1.421875 13.0625 8.265625 
Q 6.59375 17.96875 6.59375 36.375 
Q 6.59375 54.828125 13.0625 64.515625 
Q 19.53125 74.21875 31.78125 74.21875 
z
" id="DejaVuSans-48"/>
      </defs>
      <g transform="translate(46.9625 351.757656)scale(0.1 -0.1)">
       <use xlink:href="#DejaVuSans-48"/>
      </g>
     </g>
    </g>
    <g id="xtick_2">
     <g id="line2d_3">
      <path clip-path="url(#pb5595530d3)" d="M 129.867527 337.159219 
L 129.867527 10.999219 
" style="fill:none;stroke:#b0b0b0;stroke-linecap:square;stroke-width:0.8;"/>
     </g>
     <g id="line2d_4">
      <g>
       <use style="stroke:#000000;stroke-width:0.8;" x="129.867527" xlink:href="#m364cee61af" y="337.159219"/>
      </g>
     </g>
     <g id="text_2">
      <!-- 50 -->
      <defs>
       <path d="M 10.796875 72.90625 
L 49.515625 72.90625 
L 49.515625 64.59375 
L 19.828125 64.59375 
L 19.828125 46.734375 
Q 21.96875 47.46875 24.109375 47.828125 
Q 26.265625 48.1875 28.421875 48.1875 
Q 40.625 48.1875 47.75 41.5 
Q 54.890625 34.8125 54.890625 23.390625 
Q 54.890625 11.625 47.5625 5.09375 
Q 40.234375 -1.421875 26.90625 -1.421875 
Q 22.3125 -1.421875 17.546875 -0.640625 
Q 12.796875 0.140625 7.71875 1.703125 
L 7.71875 11.625 
Q 12.109375 9.234375 16.796875 8.0625 
Q 21.484375 6.890625 26.703125 6.890625 
Q 35.15625 6.890625 40.078125 11.328125 
Q 45.015625 15.765625 45.015625 23.390625 
Q 45.015625 31 40.078125 35.4375 
Q 35.15625 39.890625 26.703125 39.890625 
Q 22.75 39.890625 18.8125 39.015625 
Q 14.890625 38.140625 10.796875 36.28125 
z
" id="DejaVuSans-53"/>
      </defs>
      <g transform="translate(123.505027 351.757656)scale(0.1 -0.1)">
       <use xlink:href="#DejaVuSans-53"/>
       <use x="63.623047" xlink:href="#DejaVuSans-48"/>
      </g>
     </g>
    </g>
    <g id="xtick_3">
     <g id="line2d_5">
      <path clip-path="url(#pb5595530d3)" d="M 209.591303 337.159219 
L 209.591303 10.999219 
" style="fill:none;stroke:#b0b0b0;stroke-linecap:square;stroke-width:0.8;"/>
     </g>
     <g id="line2d_6">
      <g>
       <use style="stroke:#000000;stroke-width:0.8;" x="209.591303" xlink:href="#m364cee61af" y="337.159219"/>
      </g>
     </g>
     <g id="text_3">
      <!-- 100 -->
      <defs>
       <path d="M 12.40625 8.296875 
L 28.515625 8.296875 
L 28.515625 63.921875 
L 10.984375 60.40625 
L 10.984375 69.390625 
L 28.421875 72.90625 
L 38.28125 72.90625 
L 38.28125 8.296875 
L 54.390625 8.296875 
L 54.390625 0 
L 12.40625 0 
z
" id="DejaVuSans-49"/>
      </defs>
      <g transform="translate(200.047553 351.757656)scale(0.1 -0.1)">
       <use xlink:href="#DejaVuSans-49"/>
       <use x="63.623047" xlink:href="#DejaVuSans-48"/>
       <use x="127.246094" xlink:href="#DejaVuSans-48"/>
      </g>
     </g>
    </g>
    <g id="xtick_4">
     <g id="line2d_7">
      <path clip-path="url(#pb5595530d3)" d="M 289.31508 337.159219 
L 289.31508 10.999219 
" style="fill:none;stroke:#b0b0b0;stroke-linecap:square;stroke-width:0.8;"/>
     </g>
     <g id="line2d_8">
      <g>
       <use style="stroke:#000000;stroke-width:0.8;" x="289.31508" xlink:href="#m364cee61af" y="337.159219"/>
      </g>
     </g>
     <g id="text_4">
      <!-- 150 -->
      <g transform="translate(279.77133 351.757656)scale(0.1 -0.1)">
       <use xlink:href="#DejaVuSans-49"/>
       <use x="63.623047" xlink:href="#DejaVuSans-53"/>
       <use x="127.246094" xlink:href="#DejaVuSans-48"/>
      </g>
     </g>
    </g>
    <g id="xtick_5">
     <g id="line2d_9">
      <path clip-path="url(#pb5595530d3)" d="M 369.038857 337.159219 
L 369.038857 10.999219 
" style="fill:none;stroke:#b0b0b0;stroke-linecap:square;stroke-width:0.8;"/>
     </g>
     <g id="line2d_10">
      <g>
       <use style="stroke:#000000;stroke-width:0.8;" x="369.038857" xlink:href="#m364cee61af" y="337.159219"/>
      </g>
     </g>
     <g id="text_5">
      <!-- 200 -->
      <defs>
       <path d="M 19.1875 8.296875 
L 53.609375 8.296875 
L 53.609375 0 
L 7.328125 0 
L 7.328125 8.296875 
Q 12.9375 14.109375 22.625 23.890625 
Q 32.328125 33.6875 34.8125 36.53125 
Q 39.546875 41.84375 41.421875 45.53125 
Q 43.3125 49.21875 43.3125 52.78125 
Q 43.3125 58.59375 39.234375 62.25 
Q 35.15625 65.921875 28.609375 65.921875 
Q 23.96875 65.921875 18.8125 64.3125 
Q 13.671875 62.703125 7.8125 59.421875 
L 7.8125 69.390625 
Q 13.765625 71.78125 18.9375 73 
Q 24.125 74.21875 28.421875 74.21875 
Q 39.75 74.21875 46.484375 68.546875 
Q 53.21875 62.890625 53.21875 53.421875 
Q 53.21875 48.921875 51.53125 44.890625 
Q 49.859375 40.875 45.40625 35.40625 
Q 44.1875 33.984375 37.640625 27.21875 
Q 31.109375 20.453125 19.1875 8.296875 
z
" id="DejaVuSans-50"/>
      </defs>
      <g transform="translate(359.495107 351.757656)scale(0.1 -0.1)">
       <use xlink:href="#DejaVuSans-50"/>
       <use x="63.623047" xlink:href="#DejaVuSans-48"/>
       <use x="127.246094" xlink:href="#DejaVuSans-48"/>
      </g>
     </g>
    </g>
    <g id="xtick_6">
     <g id="line2d_11">
      <path clip-path="url(#pb5595530d3)" d="M 448.762633 337.159219 
L 448.762633 10.999219 
" style="fill:none;stroke:#b0b0b0;stroke-linecap:square;stroke-width:0.8;"/>
     </g>
     <g id="line2d_12">
      <g>
       <use style="stroke:#000000;stroke-width:0.8;" x="448.762633" xlink:href="#m364cee61af" y="337.159219"/>
      </g>
     </g>
     <g id="text_6">
      <!-- 250 -->
      <g transform="translate(439.218883 351.757656)scale(0.1 -0.1)">
       <use xlink:href="#DejaVuSans-50"/>
       <use x="63.623047" xlink:href="#DejaVuSans-53"/>
       <use x="127.246094" xlink:href="#DejaVuSans-48"/>
      </g>
     </g>
    </g>
    <g id="xtick_7">
     <g id="line2d_13">
      <path clip-path="url(#pb5595530d3)" d="M 528.48641 337.159219 
L 528.48641 10.999219 
" style="fill:none;stroke:#b0b0b0;stroke-linecap:square;stroke-width:0.8;"/>
     </g>
     <g id="line2d_14">
      <g>
       <use style="stroke:#000000;stroke-width:0.8;" x="528.48641" xlink:href="#m364cee61af" y="337.159219"/>
      </g>
     </g>
     <g id="text_7">
      <!-- 300 -->
      <defs>
       <path d="M 40.578125 39.3125 
Q 47.65625 37.796875 51.625 33 
Q 55.609375 28.21875 55.609375 21.1875 
Q 55.609375 10.40625 48.1875 4.484375 
Q 40.765625 -1.421875 27.09375 -1.421875 
Q 22.515625 -1.421875 17.65625 -0.515625 
Q 12.796875 0.390625 7.625 2.203125 
L 7.625 11.71875 
Q 11.71875 9.328125 16.59375 8.109375 
Q 21.484375 6.890625 26.8125 6.890625 
Q 36.078125 6.890625 40.9375 10.546875 
Q 45.796875 14.203125 45.796875 21.1875 
Q 45.796875 27.640625 41.28125 31.265625 
Q 36.765625 34.90625 28.71875 34.90625 
L 20.21875 34.90625 
L 20.21875 43.015625 
L 29.109375 43.015625 
Q 36.375 43.015625 40.234375 45.921875 
Q 44.09375 48.828125 44.09375 54.296875 
Q 44.09375 59.90625 40.109375 62.90625 
Q 36.140625 65.921875 28.71875 65.921875 
Q 24.65625 65.921875 20.015625 65.03125 
Q 15.375 64.15625 9.8125 62.3125 
L 9.8125 71.09375 
Q 15.4375 72.65625 20.34375 73.4375 
Q 25.25 74.21875 29.59375 74.21875 
Q 40.828125 74.21875 47.359375 69.109375 
Q 53.90625 64.015625 53.90625 55.328125 
Q 53.90625 49.265625 50.4375 45.09375 
Q 46.96875 40.921875 40.578125 39.3125 
z
" id="DejaVuSans-51"/>
      </defs>
      <g transform="translate(518.94266 351.757656)scale(0.1 -0.1)">
       <use xlink:href="#DejaVuSans-51"/>
       <use x="63.623047" xlink:href="#DejaVuSans-48"/>
       <use x="127.246094" xlink:href="#DejaVuSans-48"/>
      </g>
     </g>
    </g>
    <g id="xtick_8">
     <g id="line2d_15">
      <path clip-path="url(#pb5595530d3)" d="M 608.210186 337.159219 
L 608.210186 10.999219 
" style="fill:none;stroke:#b0b0b0;stroke-linecap:square;stroke-width:0.8;"/>
     </g>
     <g id="line2d_16">
      <g>
       <use style="stroke:#000000;stroke-width:0.8;" x="608.210186" xlink:href="#m364cee61af" y="337.159219"/>
      </g>
     </g>
     <g id="text_8">
      <!-- 350 -->
      <g transform="translate(598.666436 351.757656)scale(0.1 -0.1)">
       <use xlink:href="#DejaVuSans-51"/>
       <use x="63.623047" xlink:href="#DejaVuSans-53"/>
       <use x="127.246094" xlink:href="#DejaVuSans-48"/>
      </g>
     </g>
    </g>
    <g id="xtick_9">
     <g id="line2d_17">
      <path clip-path="url(#pb5595530d3)" d="M 687.933963 337.159219 
L 687.933963 10.999219 
" style="fill:none;stroke:#b0b0b0;stroke-linecap:square;stroke-width:0.8;"/>
     </g>
     <g id="line2d_18">
      <g>
       <use style="stroke:#000000;stroke-width:0.8;" x="687.933963" xlink:href="#m364cee61af" y="337.159219"/>
      </g>
     </g>
     <g id="text_9">
      <!-- 400 -->
      <defs>
       <path d="M 37.796875 64.3125 
L 12.890625 25.390625 
L 37.796875 25.390625 
z
M 35.203125 72.90625 
L 47.609375 72.90625 
L 47.609375 25.390625 
L 58.015625 25.390625 
L 58.015625 17.1875 
L 47.609375 17.1875 
L 47.609375 0 
L 37.796875 0 
L 37.796875 17.1875 
L 4.890625 17.1875 
L 4.890625 26.703125 
z
" id="DejaVuSans-52"/>
      </defs>
      <g transform="translate(678.390213 351.757656)scale(0.1 -0.1)">
       <use xlink:href="#DejaVuSans-52"/>
       <use x="63.623047" xlink:href="#DejaVuSans-48"/>
       <use x="127.246094" xlink:href="#DejaVuSans-48"/>
      </g>
     </g>
    </g>
    <g id="text_10">
     <!-- Epoch -->
     <defs>
      <path d="M 9.8125 72.90625 
L 55.90625 72.90625 
L 55.90625 64.59375 
L 19.671875 64.59375 
L 19.671875 43.015625 
L 54.390625 43.015625 
L 54.390625 34.71875 
L 19.671875 34.71875 
L 19.671875 8.296875 
L 56.78125 8.296875 
L 56.78125 0 
L 9.8125 0 
z
" id="DejaVuSans-69"/>
      <path d="M 18.109375 8.203125 
L 18.109375 -20.796875 
L 9.078125 -20.796875 
L 9.078125 54.6875 
L 18.109375 54.6875 
L 18.109375 46.390625 
Q 20.953125 51.265625 25.265625 53.625 
Q 29.59375 56 35.59375 56 
Q 45.5625 56 51.78125 48.09375 
Q 58.015625 40.1875 58.015625 27.296875 
Q 58.015625 14.40625 51.78125 6.484375 
Q 45.5625 -1.421875 35.59375 -1.421875 
Q 29.59375 -1.421875 25.265625 0.953125 
Q 20.953125 3.328125 18.109375 8.203125 
z
M 48.6875 27.296875 
Q 48.6875 37.203125 44.609375 42.84375 
Q 40.53125 48.484375 33.40625 48.484375 
Q 26.265625 48.484375 22.1875 42.84375 
Q 18.109375 37.203125 18.109375 27.296875 
Q 18.109375 17.390625 22.1875 11.75 
Q 26.265625 6.109375 33.40625 6.109375 
Q 40.53125 6.109375 44.609375 11.75 
Q 48.6875 17.390625 48.6875 27.296875 
z
" id="DejaVuSans-112"/>
      <path d="M 30.609375 48.390625 
Q 23.390625 48.390625 19.1875 42.75 
Q 14.984375 37.109375 14.984375 27.296875 
Q 14.984375 17.484375 19.15625 11.84375 
Q 23.34375 6.203125 30.609375 6.203125 
Q 37.796875 6.203125 41.984375 11.859375 
Q 46.1875 17.53125 46.1875 27.296875 
Q 46.1875 37.015625 41.984375 42.703125 
Q 37.796875 48.390625 30.609375 48.390625 
z
M 30.609375 56 
Q 42.328125 56 49.015625 48.375 
Q 55.71875 40.765625 55.71875 27.296875 
Q 55.71875 13.875 49.015625 6.21875 
Q 42.328125 -1.421875 30.609375 -1.421875 
Q 18.84375 -1.421875 12.171875 6.21875 
Q 5.515625 13.875 5.515625 27.296875 
Q 5.515625 40.765625 12.171875 48.375 
Q 18.84375 56 30.609375 56 
z
" id="DejaVuSans-111"/>
      <path d="M 48.78125 52.59375 
L 48.78125 44.1875 
Q 44.96875 46.296875 41.140625 47.34375 
Q 37.3125 48.390625 33.40625 48.390625 
Q 24.65625 48.390625 19.8125 42.84375 
Q 14.984375 37.3125 14.984375 27.296875 
Q 14.984375 17.28125 19.8125 11.734375 
Q 24.65625 6.203125 33.40625 6.203125 
Q 37.3125 6.203125 41.140625 7.25 
Q 44.96875 8.296875 48.78125 10.40625 
L 48.78125 2.09375 
Q 45.015625 0.34375 40.984375 -0.53125 
Q 36.96875 -1.421875 32.421875 -1.421875 
Q 20.0625 -1.421875 12.78125 6.34375 
Q 5.515625 14.109375 5.515625 27.296875 
Q 5.515625 40.671875 12.859375 48.328125 
Q 20.21875 56 33.015625 56 
Q 37.15625 56 41.109375 55.140625 
Q 45.0625 54.296875 48.78125 52.59375 
z
" id="DejaVuSans-99"/>
      <path d="M 54.890625 33.015625 
L 54.890625 0 
L 45.90625 0 
L 45.90625 32.71875 
Q 45.90625 40.484375 42.875 44.328125 
Q 39.84375 48.1875 33.796875 48.1875 
Q 26.515625 48.1875 22.3125 43.546875 
Q 18.109375 38.921875 18.109375 30.90625 
L 18.109375 0 
L 9.078125 0 
L 9.078125 75.984375 
L 18.109375 75.984375 
L 18.109375 46.1875 
Q 21.34375 51.125 25.703125 53.5625 
Q 30.078125 56 35.796875 56 
Q 45.21875 56 50.046875 50.171875 
Q 54.890625 44.34375 54.890625 33.015625 
z
" id="DejaVuSans-104"/>
     </defs>
     <g transform="translate(369.632813 365.435781)scale(0.1 -0.1)">
      <use xlink:href="#DejaVuSans-69"/>
      <use x="63.183594" xlink:href="#DejaVuSans-112"/>
      <use x="126.660156" xlink:href="#DejaVuSans-111"/>
      <use x="187.841797" xlink:href="#DejaVuSans-99"/>
      <use x="242.822266" xlink:href="#DejaVuSans-104"/>
     </g>
    </g>
   </g>
   <g id="matplotlib.axis_2">
    <g id="ytick_1">
     <g id="line2d_19">
      <path clip-path="url(#pb5595530d3)" d="M 50.14375 337.159219 
L 719.74375 337.159219 
" style="fill:none;stroke:#b0b0b0;stroke-linecap:square;stroke-width:0.8;"/>
     </g>
     <g id="line2d_20">
      <defs>
       <path d="M 0 0 
L -3.5 0 
" id="m06c7b3ba1a" style="stroke:#000000;stroke-width:0.8;"/>
      </defs>
      <g>
       <use style="stroke:#000000;stroke-width:0.8;" x="50.14375" xlink:href="#m06c7b3ba1a" y="337.159219"/>
      </g>
     </g>
     <g id="text_11">
      <!-- 0.82 -->
      <defs>
       <path d="M 10.6875 12.40625 
L 21 12.40625 
L 21 0 
L 10.6875 0 
z
" id="DejaVuSans-46"/>
       <path d="M 31.78125 34.625 
Q 24.75 34.625 20.71875 30.859375 
Q 16.703125 27.09375 16.703125 20.515625 
Q 16.703125 13.921875 20.71875 10.15625 
Q 24.75 6.390625 31.78125 6.390625 
Q 38.8125 6.390625 42.859375 10.171875 
Q 46.921875 13.96875 46.921875 20.515625 
Q 46.921875 27.09375 42.890625 30.859375 
Q 38.875 34.625 31.78125 34.625 
z
M 21.921875 38.8125 
Q 15.578125 40.375 12.03125 44.71875 
Q 8.5 49.078125 8.5 55.328125 
Q 8.5 64.0625 14.71875 69.140625 
Q 20.953125 74.21875 31.78125 74.21875 
Q 42.671875 74.21875 48.875 69.140625 
Q 55.078125 64.0625 55.078125 55.328125 
Q 55.078125 49.078125 51.53125 44.71875 
Q 48 40.375 41.703125 38.8125 
Q 48.828125 37.15625 52.796875 32.3125 
Q 56.78125 27.484375 56.78125 20.515625 
Q 56.78125 9.90625 50.3125 4.234375 
Q 43.84375 -1.421875 31.78125 -1.421875 
Q 19.734375 -1.421875 13.25 4.234375 
Q 6.78125 9.90625 6.78125 20.515625 
Q 6.78125 27.484375 10.78125 32.3125 
Q 14.796875 37.15625 21.921875 38.8125 
z
M 18.3125 54.390625 
Q 18.3125 48.734375 21.84375 45.5625 
Q 25.390625 42.390625 31.78125 42.390625 
Q 38.140625 42.390625 41.71875 45.5625 
Q 45.3125 48.734375 45.3125 54.390625 
Q 45.3125 60.0625 41.71875 63.234375 
Q 38.140625 66.40625 31.78125 66.40625 
Q 25.390625 66.40625 21.84375 63.234375 
Q 18.3125 60.0625 18.3125 54.390625 
z
" id="DejaVuSans-56"/>
      </defs>
      <g transform="translate(20.878125 340.958437)scale(0.1 -0.1)">
       <use xlink:href="#DejaVuSans-48"/>
       <use x="63.623047" xlink:href="#DejaVuSans-46"/>
       <use x="95.410156" xlink:href="#DejaVuSans-56"/>
       <use x="159.033203" xlink:href="#DejaVuSans-50"/>
      </g>
     </g>
    </g>
    <g id="ytick_2">
     <g id="line2d_21">
      <path clip-path="url(#pb5595530d3)" d="M 50.14375 296.389219 
L 719.74375 296.389219 
" style="fill:none;stroke:#b0b0b0;stroke-linecap:square;stroke-width:0.8;"/>
     </g>
     <g id="line2d_22">
      <g>
       <use style="stroke:#000000;stroke-width:0.8;" x="50.14375" xlink:href="#m06c7b3ba1a" y="296.389219"/>
      </g>
     </g>
     <g id="text_12">
      <!-- 0.84 -->
      <g transform="translate(20.878125 300.188437)scale(0.1 -0.1)">
       <use xlink:href="#DejaVuSans-48"/>
       <use x="63.623047" xlink:href="#DejaVuSans-46"/>
       <use x="95.410156" xlink:href="#DejaVuSans-56"/>
       <use x="159.033203" xlink:href="#DejaVuSans-52"/>
      </g>
     </g>
    </g>
    <g id="ytick_3">
     <g id="line2d_23">
      <path clip-path="url(#pb5595530d3)" d="M 50.14375 255.619219 
L 719.74375 255.619219 
" style="fill:none;stroke:#b0b0b0;stroke-linecap:square;stroke-width:0.8;"/>
     </g>
     <g id="line2d_24">
      <g>
       <use style="stroke:#000000;stroke-width:0.8;" x="50.14375" xlink:href="#m06c7b3ba1a" y="255.619219"/>
      </g>
     </g>
     <g id="text_13">
      <!-- 0.86 -->
      <defs>
       <path d="M 33.015625 40.375 
Q 26.375 40.375 22.484375 35.828125 
Q 18.609375 31.296875 18.609375 23.390625 
Q 18.609375 15.53125 22.484375 10.953125 
Q 26.375 6.390625 33.015625 6.390625 
Q 39.65625 6.390625 43.53125 10.953125 
Q 47.40625 15.53125 47.40625 23.390625 
Q 47.40625 31.296875 43.53125 35.828125 
Q 39.65625 40.375 33.015625 40.375 
z
M 52.59375 71.296875 
L 52.59375 62.3125 
Q 48.875 64.0625 45.09375 64.984375 
Q 41.3125 65.921875 37.59375 65.921875 
Q 27.828125 65.921875 22.671875 59.328125 
Q 17.53125 52.734375 16.796875 39.40625 
Q 19.671875 43.65625 24.015625 45.921875 
Q 28.375 48.1875 33.59375 48.1875 
Q 44.578125 48.1875 50.953125 41.515625 
Q 57.328125 34.859375 57.328125 23.390625 
Q 57.328125 12.15625 50.6875 5.359375 
Q 44.046875 -1.421875 33.015625 -1.421875 
Q 20.359375 -1.421875 13.671875 8.265625 
Q 6.984375 17.96875 6.984375 36.375 
Q 6.984375 53.65625 15.1875 63.9375 
Q 23.390625 74.21875 37.203125 74.21875 
Q 40.921875 74.21875 44.703125 73.484375 
Q 48.484375 72.75 52.59375 71.296875 
z
" id="DejaVuSans-54"/>
      </defs>
      <g transform="translate(20.878125 259.418437)scale(0.1 -0.1)">
       <use xlink:href="#DejaVuSans-48"/>
       <use x="63.623047" xlink:href="#DejaVuSans-46"/>
       <use x="95.410156" xlink:href="#DejaVuSans-56"/>
       <use x="159.033203" xlink:href="#DejaVuSans-54"/>
      </g>
     </g>
    </g>
    <g id="ytick_4">
     <g id="line2d_25">
      <path clip-path="url(#pb5595530d3)" d="M 50.14375 214.849219 
L 719.74375 214.849219 
" style="fill:none;stroke:#b0b0b0;stroke-linecap:square;stroke-width:0.8;"/>
     </g>
     <g id="line2d_26">
      <g>
       <use style="stroke:#000000;stroke-width:0.8;" x="50.14375" xlink:href="#m06c7b3ba1a" y="214.849219"/>
      </g>
     </g>
     <g id="text_14">
      <!-- 0.88 -->
      <g transform="translate(20.878125 218.648437)scale(0.1 -0.1)">
       <use xlink:href="#DejaVuSans-48"/>
       <use x="63.623047" xlink:href="#DejaVuSans-46"/>
       <use x="95.410156" xlink:href="#DejaVuSans-56"/>
       <use x="159.033203" xlink:href="#DejaVuSans-56"/>
      </g>
     </g>
    </g>
    <g id="ytick_5">
     <g id="line2d_27">
      <path clip-path="url(#pb5595530d3)" d="M 50.14375 174.079219 
L 719.74375 174.079219 
" style="fill:none;stroke:#b0b0b0;stroke-linecap:square;stroke-width:0.8;"/>
     </g>
     <g id="line2d_28">
      <g>
       <use style="stroke:#000000;stroke-width:0.8;" x="50.14375" xlink:href="#m06c7b3ba1a" y="174.079219"/>
      </g>
     </g>
     <g id="text_15">
      <!-- 0.90 -->
      <defs>
       <path d="M 10.984375 1.515625 
L 10.984375 10.5 
Q 14.703125 8.734375 18.5 7.8125 
Q 22.3125 6.890625 25.984375 6.890625 
Q 35.75 6.890625 40.890625 13.453125 
Q 46.046875 20.015625 46.78125 33.40625 
Q 43.953125 29.203125 39.59375 26.953125 
Q 35.25 24.703125 29.984375 24.703125 
Q 19.046875 24.703125 12.671875 31.3125 
Q 6.296875 37.9375 6.296875 49.421875 
Q 6.296875 60.640625 12.9375 67.421875 
Q 19.578125 74.21875 30.609375 74.21875 
Q 43.265625 74.21875 49.921875 64.515625 
Q 56.59375 54.828125 56.59375 36.375 
Q 56.59375 19.140625 48.40625 8.859375 
Q 40.234375 -1.421875 26.421875 -1.421875 
Q 22.703125 -1.421875 18.890625 -0.6875 
Q 15.09375 0.046875 10.984375 1.515625 
z
M 30.609375 32.421875 
Q 37.25 32.421875 41.125 36.953125 
Q 45.015625 41.5 45.015625 49.421875 
Q 45.015625 57.28125 41.125 61.84375 
Q 37.25 66.40625 30.609375 66.40625 
Q 23.96875 66.40625 20.09375 61.84375 
Q 16.21875 57.28125 16.21875 49.421875 
Q 16.21875 41.5 20.09375 36.953125 
Q 23.96875 32.421875 30.609375 32.421875 
z
" id="DejaVuSans-57"/>
      </defs>
      <g transform="translate(20.878125 177.878437)scale(0.1 -0.1)">
       <use xlink:href="#DejaVuSans-48"/>
       <use x="63.623047" xlink:href="#DejaVuSans-46"/>
       <use x="95.410156" xlink:href="#DejaVuSans-57"/>
       <use x="159.033203" xlink:href="#DejaVuSans-48"/>
      </g>
     </g>
    </g>
    <g id="ytick_6">
     <g id="line2d_29">
      <path clip-path="url(#pb5595530d3)" d="M 50.14375 133.309219 
L 719.74375 133.309219 
" style="fill:none;stroke:#b0b0b0;stroke-linecap:square;stroke-width:0.8;"/>
     </g>
     <g id="line2d_30">
      <g>
       <use style="stroke:#000000;stroke-width:0.8;" x="50.14375" xlink:href="#m06c7b3ba1a" y="133.309219"/>
      </g>
     </g>
     <g id="text_16">
      <!-- 0.92 -->
      <g transform="translate(20.878125 137.108437)scale(0.1 -0.1)">
       <use xlink:href="#DejaVuSans-48"/>
       <use x="63.623047" xlink:href="#DejaVuSans-46"/>
       <use x="95.410156" xlink:href="#DejaVuSans-57"/>
       <use x="159.033203" xlink:href="#DejaVuSans-50"/>
      </g>
     </g>
    </g>
    <g id="ytick_7">
     <g id="line2d_31">
      <path clip-path="url(#pb5595530d3)" d="M 50.14375 92.539219 
L 719.74375 92.539219 
" style="fill:none;stroke:#b0b0b0;stroke-linecap:square;stroke-width:0.8;"/>
     </g>
     <g id="line2d_32">
      <g>
       <use style="stroke:#000000;stroke-width:0.8;" x="50.14375" xlink:href="#m06c7b3ba1a" y="92.539219"/>
      </g>
     </g>
     <g id="text_17">
      <!-- 0.94 -->
      <g transform="translate(20.878125 96.338437)scale(0.1 -0.1)">
       <use xlink:href="#DejaVuSans-48"/>
       <use x="63.623047" xlink:href="#DejaVuSans-46"/>
       <use x="95.410156" xlink:href="#DejaVuSans-57"/>
       <use x="159.033203" xlink:href="#DejaVuSans-52"/>
      </g>
     </g>
    </g>
    <g id="ytick_8">
     <g id="line2d_33">
      <path clip-path="url(#pb5595530d3)" d="M 50.14375 51.769219 
L 719.74375 51.769219 
" style="fill:none;stroke:#b0b0b0;stroke-linecap:square;stroke-width:0.8;"/>
     </g>
     <g id="line2d_34">
      <g>
       <use style="stroke:#000000;stroke-width:0.8;" x="50.14375" xlink:href="#m06c7b3ba1a" y="51.769219"/>
      </g>
     </g>
     <g id="text_18">
      <!-- 0.96 -->
      <g transform="translate(20.878125 55.568437)scale(0.1 -0.1)">
       <use xlink:href="#DejaVuSans-48"/>
       <use x="63.623047" xlink:href="#DejaVuSans-46"/>
       <use x="95.410156" xlink:href="#DejaVuSans-57"/>
       <use x="159.033203" xlink:href="#DejaVuSans-54"/>
      </g>
     </g>
    </g>
    <g id="ytick_9">
     <g id="line2d_35">
      <path clip-path="url(#pb5595530d3)" d="M 50.14375 10.999219 
L 719.74375 10.999219 
" style="fill:none;stroke:#b0b0b0;stroke-linecap:square;stroke-width:0.8;"/>
     </g>
     <g id="line2d_36">
      <g>
       <use style="stroke:#000000;stroke-width:0.8;" x="50.14375" xlink:href="#m06c7b3ba1a" y="10.999219"/>
      </g>
     </g>
     <g id="text_19">
      <!-- 0.98 -->
      <g transform="translate(20.878125 14.798437)scale(0.1 -0.1)">
       <use xlink:href="#DejaVuSans-48"/>
       <use x="63.623047" xlink:href="#DejaVuSans-46"/>
       <use x="95.410156" xlink:href="#DejaVuSans-57"/>
       <use x="159.033203" xlink:href="#DejaVuSans-56"/>
      </g>
     </g>
    </g>
    <g id="text_20">
     <!-- Accuracy -->
     <defs>
      <path d="M 34.1875 63.1875 
L 20.796875 26.90625 
L 47.609375 26.90625 
z
M 28.609375 72.90625 
L 39.796875 72.90625 
L 67.578125 0 
L 57.328125 0 
L 50.6875 18.703125 
L 17.828125 18.703125 
L 11.1875 0 
L 0.78125 0 
z
" id="DejaVuSans-65"/>
      <path d="M 8.5 21.578125 
L 8.5 54.6875 
L 17.484375 54.6875 
L 17.484375 21.921875 
Q 17.484375 14.15625 20.5 10.265625 
Q 23.53125 6.390625 29.59375 6.390625 
Q 36.859375 6.390625 41.078125 11.03125 
Q 45.3125 15.671875 45.3125 23.6875 
L 45.3125 54.6875 
L 54.296875 54.6875 
L 54.296875 0 
L 45.3125 0 
L 45.3125 8.40625 
Q 42.046875 3.421875 37.71875 1 
Q 33.40625 -1.421875 27.6875 -1.421875 
Q 18.265625 -1.421875 13.375 4.4375 
Q 8.5 10.296875 8.5 21.578125 
z
M 31.109375 56 
z
" id="DejaVuSans-117"/>
      <path d="M 41.109375 46.296875 
Q 39.59375 47.171875 37.8125 47.578125 
Q 36.03125 48 33.890625 48 
Q 26.265625 48 22.1875 43.046875 
Q 18.109375 38.09375 18.109375 28.8125 
L 18.109375 0 
L 9.078125 0 
L 9.078125 54.6875 
L 18.109375 54.6875 
L 18.109375 46.1875 
Q 20.953125 51.171875 25.484375 53.578125 
Q 30.03125 56 36.53125 56 
Q 37.453125 56 38.578125 55.875 
Q 39.703125 55.765625 41.0625 55.515625 
z
" id="DejaVuSans-114"/>
      <path d="M 34.28125 27.484375 
Q 23.390625 27.484375 19.1875 25 
Q 14.984375 22.515625 14.984375 16.5 
Q 14.984375 11.71875 18.140625 8.90625 
Q 21.296875 6.109375 26.703125 6.109375 
Q 34.1875 6.109375 38.703125 11.40625 
Q 43.21875 16.703125 43.21875 25.484375 
L 43.21875 27.484375 
z
M 52.203125 31.203125 
L 52.203125 0 
L 43.21875 0 
L 43.21875 8.296875 
Q 40.140625 3.328125 35.546875 0.953125 
Q 30.953125 -1.421875 24.3125 -1.421875 
Q 15.921875 -1.421875 10.953125 3.296875 
Q 6 8.015625 6 15.921875 
Q 6 25.140625 12.171875 29.828125 
Q 18.359375 34.515625 30.609375 34.515625 
L 43.21875 34.515625 
L 43.21875 35.40625 
Q 43.21875 41.609375 39.140625 45 
Q 35.0625 48.390625 27.6875 48.390625 
Q 23 48.390625 18.546875 47.265625 
Q 14.109375 46.140625 10.015625 43.890625 
L 10.015625 52.203125 
Q 14.9375 54.109375 19.578125 55.046875 
Q 24.21875 56 28.609375 56 
Q 40.484375 56 46.34375 49.84375 
Q 52.203125 43.703125 52.203125 31.203125 
z
" id="DejaVuSans-97"/>
      <path d="M 32.171875 -5.078125 
Q 28.375 -14.84375 24.75 -17.8125 
Q 21.140625 -20.796875 15.09375 -20.796875 
L 7.90625 -20.796875 
L 7.90625 -13.28125 
L 13.1875 -13.28125 
Q 16.890625 -13.28125 18.9375 -11.515625 
Q 21 -9.765625 23.484375 -3.21875 
L 25.09375 0.875 
L 2.984375 54.6875 
L 12.5 54.6875 
L 29.59375 11.921875 
L 46.6875 54.6875 
L 56.203125 54.6875 
z
" id="DejaVuSans-121"/>
     </defs>
     <g transform="translate(14.798438 196.994062)rotate(-90)scale(0.1 -0.1)">
      <use xlink:href="#DejaVuSans-65"/>
      <use x="68.392578" xlink:href="#DejaVuSans-99"/>
      <use x="123.373047" xlink:href="#DejaVuSans-99"/>
      <use x="178.353516" xlink:href="#DejaVuSans-117"/>
      <use x="241.732422" xlink:href="#DejaVuSans-114"/>
      <use x="282.845703" xlink:href="#DejaVuSans-97"/>
      <use x="344.125" xlink:href="#DejaVuSans-99"/>
      <use x="399.105469" xlink:href="#DejaVuSans-121"/>
     </g>
    </g>
   </g>
   <g id="line2d_37">
    <path clip-path="url(#pb5595530d3)" d="M 89.331834 375.715469 
L 91.858677 360.958321 
L 95.04284 343.933498 
L 97.590171 331.382843 
L 100.137501 319.724723 
L 102.684831 308.905722 
L 105.232161 298.872423 
L 107.779492 289.57141 
L 110.326822 280.949267 
L 113.510985 271.044871 
L 116.695148 262.013417 
L 119.879311 253.750575 
L 123.063473 246.152017 
L 126.247636 239.113414 
L 130.068632 231.259335 
L 134.52646 222.699042 
L 138.984288 214.680133 
L 143.442116 207.17495 
L 147.899944 200.157159 
L 152.357772 193.600425 
L 156.8156 187.478414 
L 161.273428 181.764793 
L 165.731256 176.433226 
L 170.189084 171.45738 
L 174.646912 166.81092 
L 179.10474 162.467513 
L 184.1994 157.840921 
L 189.294061 153.536447 
L 194.388721 149.514782 
L 200.120214 145.279509 
L 206.48854 140.867018 
L 213.493698 136.281842 
L 221.135689 131.527536 
L 228.77768 127.01683 
L 237.056503 122.393844 
L 245.335327 118.032961 
L 253.61415 113.921814 
L 261.892974 110.048032 
L 270.80863 106.127535 
L 279.724286 102.452532 
L 288.639942 99.007573 
L 298.19243 95.554273 
L 308.381751 92.120872 
L 318.571072 88.923079 
L 329.397226 85.757786 
L 340.860212 82.637091 
L 353.596864 79.408844 
L 367.60718 76.096559 
L 383.527995 72.569072 
L 400.085641 69.135071 
L 416.643288 65.926421 
L 433.837768 62.817956 
L 451.66908 59.818523 
L 470.137224 56.934245 
L 489.879034 54.079557 
L 510.257676 51.355969 
L 532.546816 48.606316 
L 556.746454 45.853745 
L 583.493422 43.042358 
L 614.698218 39.992933 
L 658.002832 36.005407 
L 687.933963 33.298293 
L 687.933963 33.298293 
" style="fill:none;stroke:#377eb8;stroke-linecap:square;stroke-width:2;"/>
   </g>
   <g id="line2d_38">
    <path clip-path="url(#pb5595530d3)" d="M 81.965851 375.715469 
L 82.943021 367.269502 
L 84.216687 357.572903 
L 85.490352 349.121855 
L 86.764017 341.7347 
L 88.674515 332.251388 
L 90.585012 324.140008 
L 93.132343 314.450487 
L 95.679673 305.520827 
L 98.227003 297.294662 
L 100.774333 289.730514 
L 103.321664 282.786907 
L 105.868994 276.422363 
L 108.416324 270.595404 
L 110.963655 265.264554 
L 113.510985 260.388336 
L 116.058315 255.925272 
L 118.605645 251.833885 
L 121.789808 247.179133 
L 124.973971 242.959308 
L 128.158134 239.0934 
L 131.979129 234.807471 
L 136.436957 230.164247 
L 140.894785 225.870515 
L 145.352613 221.907766 
L 149.810441 218.257491 
L 154.268269 214.901182 
L 158.726097 211.82033 
L 163.183925 208.996427 
L 167.641753 206.410964 
L 172.736414 203.724374 
L 177.831074 201.297413 
L 182.925735 199.102454 
L 188.657228 196.87604 
L 195.025554 194.657767 
L 202.030712 192.466004 
L 210.309536 190.11575 
L 221.135689 187.279023 
L 232.598675 184.512109 
L 244.061662 181.971576 
L 256.161481 179.516322 
L 268.898132 177.16101 
L 282.271616 174.915274 
L 296.918765 172.690841 
L 312.202747 170.597686 
L 328.760394 168.5561 
L 347.228538 166.507871 
L 368.880845 164.34077 
L 394.354148 162.017476 
L 420.464284 159.862804 
L 446.574419 157.935034 
L 472.684554 156.231548 
L 498.79469 154.749731 
L 524.904825 153.486966 
L 551.651793 152.415675 
L 580.309259 151.494285 
L 611.514055 150.719213 
L 646.539846 150.080671 
L 687.297131 149.567758 
L 687.933963 149.561232 
L 687.933963 149.561232 
" style="fill:none;stroke:#4daf4a;stroke-linecap:square;stroke-width:2;"/>
   </g>
   <g id="line2d_39">
    <path clip-path="url(#pb5595530d3)" d="M 89.848058 375.715469 
L 90.005638 374.259893 
L 91.600114 366.462613 
L 93.194589 349.594081 
L 94.789065 346.638252 
L 96.38354 342.204447 
L 97.978016 325.743562 
L 99.572492 322.176202 
L 102.761443 308.110648 
L 104.355918 302.657546 
L 105.950394 298.427746 
L 107.544869 285.941866 
L 109.139345 288.133314 
L 110.73382 280.692769 
L 112.328296 276.259086 
L 113.922771 266.015564 
L 115.517247 263.212586 
L 117.111722 258.727871 
L 118.706198 255.058691 
L 120.300673 250.87968 
L 121.895149 245.783435 
L 123.489625 247.261411 
L 125.0841 238.597685 
L 126.678576 242.776696 
L 128.273051 230.800526 
L 129.867527 231.71776 
L 131.462002 225.398455 
L 133.056478 224.328247 
L 134.650953 221.219565 
L 136.245429 223.818659 
L 137.839904 218.314646 
L 139.43438 216.480056 
L 141.028855 207.357774 
L 142.623331 207.357774 
L 144.217806 209.141453 
L 145.812282 198.643137 
L 147.406758 201.853761 
L 149.001233 195.84016 
L 150.595709 195.075778 
L 152.190184 197.522019 
L 153.78466 189.520855 
L 155.379135 193.954538 
L 156.973611 184.067874 
L 158.568086 188.043001 
L 160.162562 181.41787 
L 161.757037 180.194689 
L 163.351513 180.755308 
L 164.945988 176.015799 
L 166.540464 175.404269 
L 168.134939 174.639766 
L 169.729415 170.562818 
L 171.32389 170.613728 
L 172.918366 166.485749 
L 174.512842 168.116577 
L 176.107317 163.784835 
L 177.701793 161.797272 
L 179.296268 164.804011 
L 180.890744 158.12797 
L 182.485219 161.236652 
L 184.079695 156.395201 
L 185.67417 160.064502 
L 187.268646 155.324993 
L 188.863121 152.369163 
L 190.457597 153.439371 
L 192.052072 157.312556 
L 193.646548 152.522137 
L 195.241023 150.636515 
L 196.835499 147.018124 
L 198.429975 150.738336 
L 200.02445 141.972789 
L 201.618926 146.967214 
L 203.213401 144.928619 
L 204.807877 142.635351 
L 206.402352 143.858411 
L 207.996828 141.972789 
L 209.591303 143.705559 
L 211.185779 131.933273 
L 212.780254 138.813198 
L 214.37473 137.641048 
L 215.969205 139.067992 
L 217.563681 128.416823 
L 219.158156 133.716952 
L 220.752632 131.321621 
L 222.347108 131.066827 
L 223.941583 129.079385 
L 225.536059 125.76682 
L 227.130534 125.155168 
L 228.72501 132.137035 
L 230.319485 120.211897 
L 233.508436 124.492728 
L 236.697387 119.039747 
L 238.291863 117.918507 
L 239.886338 118.631979 
L 241.480814 120.874337 
L 243.075289 121.434957 
L 244.669765 121.282105 
L 246.264241 119.906071 
L 247.858716 120.670575 
L 249.453192 116.338711 
L 251.047667 116.644537 
L 252.642143 107.878991 
L 254.236618 113.484824 
L 255.831094 114.45309 
L 257.425569 113.28094 
L 259.020045 111.853996 
L 260.61452 112.006848 
L 262.208996 106.197131 
L 263.803471 112.312674 
L 265.397947 112.822262 
L 266.992422 108.133785 
L 268.586898 100.897124 
L 271.775849 109.917464 
L 273.370325 102.782624 
L 274.9648 101.202828 
L 276.559276 105.381718 
L 278.153751 103.13936 
L 279.748227 99.877826 
L 281.342702 102.629772 
L 282.937178 99.266296 
L 284.531653 100.387414 
L 286.126129 95.087285 
L 287.720604 98.654766 
L 289.31508 101.049976 
L 290.909555 96.972907 
L 292.504031 98.094147 
L 294.098507 91.621868 
L 295.692982 96.820055 
L 297.287458 97.431585 
L 298.881933 96.361377 
L 300.476409 98.90956 
L 302.070884 95.749847 
L 303.66536 96.412409 
L 305.259835 92.743107 
L 306.854311 93.405548 
L 308.448786 89.99104 
L 310.043262 93.252695 
L 311.637737 95.036375 
L 313.232213 88.513186 
L 314.826688 91.876662 
L 316.421164 89.022774 
L 318.01564 89.022774 
L 319.610115 87.290126 
L 321.204591 83.773677 
L 322.799066 86.321739 
L 324.393542 91.927694 
L 325.988017 86.016035 
L 327.582493 87.341037 
L 329.176968 85.914093 
L 330.771444 89.277568 
L 332.365919 82.601527 
L 333.960395 83.365909 
L 335.55487 81.378467 
L 337.149346 87.086243 
L 338.743821 80.410201 
L 340.338297 83.416941 
L 341.932773 81.58223 
L 343.527248 83.416941 
L 345.121724 82.295702 
L 346.716199 79.238052 
L 348.310675 79.645698 
L 349.90515 83.722767 
L 351.499626 80.104376 
L 353.094101 74.855278 
L 354.688577 78.830284 
L 356.283052 77.40334 
L 357.877528 77.607224 
L 359.472003 75.262925 
L 361.066479 78.422638 
L 362.660954 77.250488 
L 364.25543 76.689868 
L 365.849905 76.79181 
L 367.444381 73.020567 
L 369.038857 79.441814 
L 370.633332 72.205153 
L 372.227808 72.358127 
L 373.822283 75.925486 
L 375.416759 73.479245 
L 377.011234 76.842721 
L 378.60571 74.498543 
L 380.200185 70.268621 
L 381.794661 71.084035 
L 383.389136 76.587927 
L 384.983612 67.363702 
L 386.578087 72.765773 
L 388.172563 73.020567 
L 389.767038 75.313835 
L 391.361514 66.293494 
L 392.95599 72.561889 
L 394.550465 69.351266 
L 396.144941 70.421474 
L 397.739416 68.33209 
L 399.333892 70.523415 
L 400.928367 69.300355 
L 402.522843 69.198414 
L 404.117318 66.956056 
L 405.711794 69.198414 
L 407.306269 67.363702 
L 408.900745 66.59932 
L 410.49522 69.147382 
L 412.089696 70.472505 
L 413.684171 65.580022 
L 415.278647 68.99453 
L 416.873123 67.15994 
L 418.467598 64.255021 
L 420.062074 64.917582 
L 421.656549 67.618496 
L 423.251025 66.497378 
L 424.8455 61.248281 
L 426.439976 64.051137 
L 428.034451 64.306052 
L 429.628927 64.764609 
L 431.223402 61.503075 
L 432.817878 64.458904 
L 434.412353 57.324185 
L 436.006829 65.42717 
L 437.601304 59.209686 
L 439.19578 61.452043 
L 440.790256 64.051137 
L 442.384731 60.127041 
L 445.573682 62.420431 
L 447.168158 60.280015 
L 448.762633 60.942455 
L 450.357109 56.355798 
L 451.951584 59.770305 
L 453.54606 59.719395 
L 455.140535 61.910721 
L 456.735011 58.24142 
L 458.329486 59.719395 
L 459.923962 59.770305 
L 461.518437 62.624193 
L 463.112913 60.789603 
L 464.707389 56.101004 
L 466.301864 57.273154 
L 467.89634 57.731832 
L 469.490815 55.132738 
L 471.085291 55.948152 
L 472.679766 55.28559 
L 474.274242 53.196206 
L 475.868717 54.368356 
L 477.463193 57.477038 
L 479.057668 57.324185 
L 480.652144 58.496214 
L 482.246619 54.266414 
L 483.841095 53.705794 
L 485.43557 55.030796 
L 487.030046 52.482734 
L 488.624522 51.208643 
L 490.218997 53.909678 
L 491.813473 54.572118 
L 493.407948 54.928854 
L 495.002424 52.83947 
L 496.596899 52.941412 
L 498.191375 54.470176 
L 499.78585 53.501911 
L 501.380326 53.909678 
L 502.974801 51.106701 
L 504.569277 53.705794 
L 506.163752 52.278851 
L 507.758228 56.865508 
L 509.352703 46.774838 
L 510.947179 49.424963 
L 512.541655 54.11344 
L 514.13613 53.858646 
L 515.730606 49.883641 
L 517.325081 48.099961 
L 518.919557 50.495171 
L 520.514032 50.240377 
L 523.702983 50.240377 
L 525.297459 48.303723 
L 526.891934 51.565379 
L 528.48641 54.01162 
L 530.080885 49.373931 
L 531.675361 48.099961 
L 533.269836 48.201903 
L 534.864312 48.915375 
L 536.458788 48.150871 
L 538.053263 48.813433 
L 539.647739 47.946988 
L 541.242214 46.774838 
L 542.83669 47.896077 
L 544.431165 49.170169 
L 546.025641 44.379628 
L 547.620116 44.073924 
L 549.214592 45.246074 
L 550.809067 47.48831 
L 552.403543 44.532602 
L 553.998018 42.035329 
L 555.592494 47.946988 
L 557.186969 44.022892 
L 558.781445 47.743225 
L 560.37592 43.207478 
L 561.970396 47.692193 
L 563.564872 47.233516 
L 565.159347 43.462272 
L 566.753823 44.634422 
L 568.348298 43.92095 
L 569.942774 46.418102 
L 571.537249 46.927811 
L 573.131725 44.379628 
L 574.7262 48.966285 
L 576.320676 41.169005 
L 577.915151 42.290244 
L 579.509627 41.627682 
L 581.104102 45.806572 
L 582.698578 38.722763 
L 584.293053 39.792971 
L 585.887529 44.787396 
L 587.482005 43.25851 
L 589.07648 42.392065 
L 590.670956 40.659416 
L 592.265431 43.462272 
L 593.859907 40.659416 
L 595.454382 38.977679 
L 597.048858 38.467969 
L 598.643333 44.022892 
L 600.237809 41.118094 
L 601.832284 40.965121 
L 603.42676 39.945945 
L 605.021235 39.181441 
L 606.615711 40.098797 
L 608.210186 42.69789 
L 609.804662 40.353591 
L 611.399138 40.812269 
L 612.993613 39.691151 
L 614.588089 37.601645 
L 617.77704 42.443096 
L 619.371515 37.346851 
L 620.965991 39.691151 
L 622.560466 38.926647 
L 624.154942 36.990115 
L 625.749417 38.417059 
L 627.343893 37.907471 
L 628.938368 40.353591 
L 630.532844 40.098797 
L 632.127319 36.225612 
L 633.721795 37.958381 
L 635.316271 36.837263 
L 636.910746 35.002552 
L 638.505222 40.965121 
L 641.694173 36.837263 
L 643.288648 37.499703 
L 644.883124 37.754497 
L 646.477599 37.193999 
L 648.072075 41.525741 
L 649.66655 36.123791 
L 651.261026 37.193999 
L 652.855501 37.958381 
L 654.449977 39.181441 
L 656.044452 35.002552 
L 657.638928 32.097754 
L 659.233404 36.276643 
L 660.827879 36.072759 
L 662.422355 38.162265 
L 664.01683 34.594905 
L 665.611306 36.123791 
L 667.205781 35.766934 
L 668.800257 35.970818 
L 670.394732 34.28908 
L 671.989208 33.218872 
L 673.583683 33.779492 
L 675.178159 38.264207 
L 676.772634 29.651512 
L 678.36711 36.429495 
L 679.961585 33.575608 
L 681.556061 33.014988 
L 683.150537 34.849699 
L 684.745012 31.94478 
L 686.339488 33.72846 
L 687.933963 34.238169 
L 687.933963 34.238169 
" style="fill:none;stroke:#377eb8;stroke-linecap:square;stroke-opacity:0.25098;stroke-width:1.5;"/>
   </g>
   <g id="line2d_40">
    <path clip-path="url(#pb5595530d3)" d="M 81.615604 375.715469 
L 82.033261 368.245563 
L 83.627736 359.218297 
L 85.222212 360.449376 
L 86.816687 342.600186 
L 88.411163 339.93305 
L 90.005638 318.596085 
L 91.600114 320.852901 
L 93.194589 339.727829 
L 96.38354 286.795797 
L 97.978016 307.106903 
L 99.572492 312.030855 
L 101.166967 288.642294 
L 102.761443 281.666746 
L 104.355918 269.356926 
L 105.950394 267.510428 
L 107.544869 285.769938 
L 109.139345 265.664052 
L 110.73382 250.276777 
L 112.328296 263.612335 
L 113.922771 255.405828 
L 117.111722 254.58519 
L 118.706198 251.712955 
L 120.300673 251.097416 
L 121.895149 247.199322 
L 123.489625 237.351539 
L 125.0841 241.249632 
L 126.678576 233.248225 
L 128.273051 236.32568 
L 129.867527 238.377276 
L 131.462002 231.606948 
L 133.056478 230.17077 
L 134.650953 228.119174 
L 136.245429 247.609641 
L 137.839904 227.298535 
L 139.43438 241.249632 
L 141.028855 224.22108 
L 142.623331 225.246939 
L 144.217806 218.06617 
L 145.812282 228.119174 
L 147.406758 217.040311 
L 149.001233 220.117766 
L 150.595709 217.245532 
L 152.190184 213.757757 
L 153.78466 213.142218 
L 155.379135 222.579803 
L 156.973611 216.424893 
L 158.568086 207.192528 
L 160.162562 215.809354 
L 161.757037 202.678895 
L 163.351513 206.987429 
L 164.945988 192.831112 
L 166.540464 209.244124 
L 168.134939 190.984614 
L 169.729415 216.014574 
L 171.32389 202.678895 
L 172.918366 192.420792 
L 174.512842 206.987429 
L 176.107317 211.090622 
L 177.701793 220.938405 
L 179.296268 193.856971 
L 180.890744 200.627299 
L 182.485219 214.578396 
L 184.079695 190.984614 
L 185.67417 206.782209 
L 187.268646 196.729205 
L 188.863121 195.293027 
L 190.457597 187.49684 
L 192.052072 203.909974 
L 193.646548 191.189835 
L 195.241023 207.602847 
L 196.835499 185.650464 
L 198.429975 198.370482 
L 200.02445 188.522699 
L 201.618926 190.574295 
L 203.213401 186.060784 
L 204.807877 193.446651 
L 206.402352 192.626013 
L 207.996828 193.856971 
L 209.591303 181.95747 
L 211.185779 192.831112 
L 212.780254 195.498248 
L 214.37473 176.623198 
L 215.969205 187.907159 
L 217.563681 193.856971 
L 219.158156 196.729205 
L 220.752632 188.727919 
L 222.347108 189.753657 
L 223.941583 191.600154 
L 225.536059 192.420792 
L 227.130534 184.624605 
L 228.72501 189.958877 
L 230.319485 183.393648 
L 231.913961 179.905873 
L 233.508436 181.752371 
L 235.102912 174.571602 
L 236.697387 189.958877 
L 238.291863 187.49684 
L 239.886338 173.956062 
L 241.480814 175.187141 
L 243.075289 183.188427 
L 244.669765 175.597461 
L 246.264241 180.110972 
L 247.858716 174.981921 
L 249.453192 179.495554 
L 251.047667 185.855563 
L 252.642143 176.828418 
L 254.236618 177.649057 
L 255.831094 171.083828 
L 257.425569 188.11238 
L 259.020045 176.623198 
L 260.61452 178.880015 
L 262.208996 174.776822 
L 263.803471 182.367789 
L 265.397947 176.623198 
L 266.992422 175.39224 
L 268.586898 172.520006 
L 270.181374 173.545743 
L 271.775849 174.776822 
L 273.370325 178.880015 
L 274.9648 180.316193 
L 276.559276 180.521292 
L 278.153751 159.184327 
L 279.748227 184.624605 
L 281.342702 167.596053 
L 282.937178 176.212879 
L 284.531653 177.033517 
L 286.126129 185.445244 
L 287.720604 174.981921 
L 289.31508 178.264596 
L 290.909555 176.418099 
L 292.504031 176.828418 
L 294.098507 181.34193 
L 295.692982 185.445244 
L 297.287458 163.69796 
L 298.881933 174.366503 
L 300.476409 162.672101 
L 302.070884 178.285252 
L 303.66536 178.880015 
L 306.854311 162.467002 
L 308.448786 170.673508 
L 310.043262 172.109686 
L 311.637737 168.827011 
L 313.232213 168.416692 
L 314.826688 165.544457 
L 316.421164 172.109686 
L 318.01564 163.08242 
L 319.610115 173.135424 
L 321.204591 163.287641 
L 322.799066 174.571602 
L 324.393542 166.980635 
L 325.988017 170.057969 
L 327.582493 171.289048 
L 329.176968 159.799866 
L 330.771444 172.930325 
L 332.365919 175.80256 
L 333.960395 166.570194 
L 335.55487 168.416692 
L 337.149346 161.030824 
L 338.743821 177.238738 
L 340.338297 162.056683 
L 341.932773 169.85287 
L 343.527248 160.415406 
L 345.121724 175.187141 
L 346.716199 166.775415 
L 348.310675 161.236044 
L 349.90515 161.030824 
L 351.499626 170.263189 
L 353.094101 167.185734 
L 354.688577 166.159875 
L 356.283052 154.670815 
L 357.877528 165.339237 
L 359.472003 173.340644 
L 361.066479 170.878729 
L 362.660954 173.956062 
L 364.25543 160.825725 
L 365.849905 172.314785 
L 367.444381 161.236044 
L 369.038857 172.314785 
L 370.633332 157.54305 
L 372.227808 165.134138 
L 373.822283 167.185734 
L 375.416759 164.108279 
L 377.011234 155.696552 
L 378.60571 169.647649 
L 380.200185 160.620505 
L 381.794661 158.979228 
L 383.389136 161.441143 
L 384.983612 158.568909 
L 386.578087 159.799866 
L 388.172563 160.005087 
L 389.767038 163.08242 
L 391.361514 169.85287 
L 394.550465 154.260496 
L 396.144941 165.134138 
L 397.739416 163.287641 
L 399.333892 164.928917 
L 400.928367 152.003679 
L 402.522843 160.825725 
L 404.117318 158.774007 
L 405.711794 159.799866 
L 407.306269 149.746863 
L 408.900745 164.108279 
L 410.49522 152.824318 
L 412.089696 168.416692 
L 413.684171 157.13273 
L 415.278647 151.183041 
L 416.873123 161.646364 
L 418.467598 165.339237 
L 420.062074 170.057969 
L 421.656549 159.799866 
L 423.251025 163.287641 
L 424.8455 154.875914 
L 426.439976 156.722411 
L 428.034451 153.029538 
L 429.628927 155.696552 
L 431.223402 165.749556 
L 432.817878 161.030824 
L 434.412353 161.646364 
L 436.006829 164.723819 
L 437.601304 149.952083 
L 439.19578 165.134138 
L 440.790256 157.74827 
L 442.384731 165.544457 
L 443.979207 160.005087 
L 445.573682 159.594767 
L 447.168158 154.670815 
L 448.762633 150.97782 
L 450.357109 154.465595 
L 451.951584 165.749556 
L 453.54606 150.772721 
L 455.140535 152.003679 
L 456.735011 165.749556 
L 458.329486 152.413998 
L 459.923962 156.517312 
L 461.518437 159.594767 
L 463.112913 153.850177 
L 464.707389 164.313499 
L 466.301864 156.517312 
L 467.89634 157.13273 
L 469.490815 157.54305 
L 471.085291 151.183041 
L 472.679766 154.465595 
L 474.274242 147.900365 
L 475.868717 152.413998 
L 477.463193 166.980635 
L 479.057668 155.901773 
L 480.652144 157.337951 
L 482.246619 158.979228 
L 483.841095 154.055275 
L 485.43557 158.979228 
L 487.030046 155.081134 
L 488.624522 150.567501 
L 490.218997 170.468409 
L 491.813473 153.850177 
L 493.407948 154.055275 
L 495.002424 150.362402 
L 496.596899 152.003679 
L 498.191375 150.567501 
L 499.78585 152.824318 
L 501.380326 158.568909 
L 502.974801 157.54305 
L 506.163752 162.056683 
L 507.758228 151.59336 
L 509.352703 156.722411 
L 510.947179 161.441143 
L 512.541655 152.208778 
L 514.13613 150.772721 
L 515.730606 153.029538 
L 517.325081 160.620505 
L 518.919557 157.337951 
L 520.514032 152.208778 
L 523.702983 155.081134 
L 525.297459 153.850177 
L 526.891934 154.260496 
L 528.48641 147.900365 
L 530.080885 154.670815 
L 531.675361 147.284947 
L 533.269836 154.055275 
L 534.864312 155.491453 
L 536.458788 152.619219 
L 538.053263 147.695266 
L 539.647739 151.59336 
L 541.242214 152.003679 
L 542.83669 152.208778 
L 544.431165 155.696552 
L 546.025641 145.233351 
L 547.620116 150.97782 
L 549.214592 152.413998 
L 550.809067 147.490046 
L 552.403543 150.517198 
L 553.998018 149.746863 
L 555.592494 154.465595 
L 558.781445 155.286233 
L 560.37592 148.515905 
L 561.970396 151.183041 
L 563.564872 152.413998 
L 565.159347 152.208778 
L 566.753823 152.824318 
L 568.348298 148.515905 
L 569.942774 151.38814 
L 571.537249 153.439857 
L 573.131725 154.055275 
L 574.7262 152.824318 
L 576.320676 150.567501 
L 577.915151 148.926224 
L 579.509627 148.105586 
L 581.104102 147.079727 
L 582.698578 151.183041 
L 584.293053 152.208778 
L 585.887529 152.824318 
L 587.482005 150.97782 
L 589.07648 145.43845 
L 590.670956 166.159875 
L 592.265431 152.003679 
L 593.859907 152.003679 
L 595.454382 144.617811 
L 597.048858 150.567501 
L 598.643333 149.952083 
L 600.237809 146.259088 
L 601.832284 145.43845 
L 603.42676 153.439857 
L 605.021235 154.465595 
L 606.615711 146.259088 
L 608.210186 154.670815 
L 609.804662 145.43845 
L 611.399138 158.568909 
L 612.993613 141.130037 
L 614.588089 156.312092 
L 616.182564 147.490046 
L 617.77704 145.028131 
L 619.371515 155.696552 
L 620.965991 141.950676 
L 622.560466 151.183041 
L 624.154942 156.517312 
L 625.749417 152.208778 
L 627.343893 153.439857 
L 628.938368 140.924817 
L 630.532844 160.415406 
L 632.127319 150.157182 
L 633.721795 151.38814 
L 635.316271 147.900365 
L 636.910746 162.467002 
L 638.505222 150.772721 
L 640.099697 153.029538 
L 641.694173 148.926224 
L 643.288648 149.952083 
L 644.883124 152.413998 
L 646.477599 150.567501 
L 648.072075 150.362402 
L 649.66655 152.824318 
L 651.261026 150.772721 
L 652.855501 152.619219 
L 654.449977 143.591953 
L 656.044452 142.976534 
L 657.638928 155.081134 
L 659.233404 156.722411 
L 662.422355 148.515905 
L 664.01683 150.772721 
L 665.611306 150.157182 
L 667.205781 150.772721 
L 668.800257 139.48876 
L 670.394732 154.055275 
L 671.989208 143.386854 
L 673.583683 152.413998 
L 675.178159 149.131445 
L 676.772634 150.772721 
L 678.36711 142.360995 
L 679.961585 158.158589 
L 681.556061 146.874628 
L 683.150537 147.284947 
L 684.745012 148.310685 
L 686.339488 147.079727 
L 687.933963 152.619219 
L 687.933963 152.619219 
" style="fill:none;stroke:#4daf4a;stroke-linecap:square;stroke-opacity:0.25098;stroke-width:1.5;"/>
   </g>
   <g id="patch_3">
    <path d="M 50.14375 337.159219 
L 50.14375 10.999219 
" style="fill:none;stroke:#000000;stroke-linecap:square;stroke-linejoin:miter;stroke-width:0.8;"/>
   </g>
   <g id="patch_4">
    <path d="M 719.74375 337.159219 
L 719.74375 10.999219 
" style="fill:none;stroke:#000000;stroke-linecap:square;stroke-linejoin:miter;stroke-width:0.8;"/>
   </g>
   <g id="patch_5">
    <path d="M 50.14375 337.159219 
L 719.74375 337.159219 
" style="fill:none;stroke:#000000;stroke-linecap:square;stroke-linejoin:miter;stroke-width:0.8;"/>
   </g>
   <g id="patch_6">
    <path d="M 50.14375 10.999219 
L 719.74375 10.999219 
" style="fill:none;stroke:#000000;stroke-linecap:square;stroke-linejoin:miter;stroke-width:0.8;"/>
   </g>
   <g id="legend_1">
    <g id="patch_7">
     <path d="M 57.14375 48.355469 
L 114.584375 48.355469 
Q 116.584375 48.355469 116.584375 46.355469 
L 116.584375 17.999219 
Q 116.584375 15.999219 114.584375 15.999219 
L 57.14375 15.999219 
Q 55.14375 15.999219 55.14375 17.999219 
L 55.14375 46.355469 
Q 55.14375 48.355469 57.14375 48.355469 
z
" style="fill:#ffffff;opacity:0.8;stroke:#cccccc;stroke-linejoin:miter;"/>
    </g>
    <g id="line2d_41">
     <path d="M 59.14375 24.097656 
L 79.14375 24.097656 
" style="fill:none;stroke:#377eb8;stroke-linecap:square;stroke-width:2;"/>
    </g>
    <g id="line2d_42"/>
    <g id="text_21">
     <!-- Train -->
     <defs>
      <path d="M -0.296875 72.90625 
L 61.375 72.90625 
L 61.375 64.59375 
L 35.5 64.59375 
L 35.5 0 
L 25.59375 0 
L 25.59375 64.59375 
L -0.296875 64.59375 
z
" id="DejaVuSans-84"/>
      <path d="M 9.421875 54.6875 
L 18.40625 54.6875 
L 18.40625 0 
L 9.421875 0 
z
M 9.421875 75.984375 
L 18.40625 75.984375 
L 18.40625 64.59375 
L 9.421875 64.59375 
z
" id="DejaVuSans-105"/>
      <path d="M 54.890625 33.015625 
L 54.890625 0 
L 45.90625 0 
L 45.90625 32.71875 
Q 45.90625 40.484375 42.875 44.328125 
Q 39.84375 48.1875 33.796875 48.1875 
Q 26.515625 48.1875 22.3125 43.546875 
Q 18.109375 38.921875 18.109375 30.90625 
L 18.109375 0 
L 9.078125 0 
L 9.078125 54.6875 
L 18.109375 54.6875 
L 18.109375 46.1875 
Q 21.34375 51.125 25.703125 53.5625 
Q 30.078125 56 35.796875 56 
Q 45.21875 56 50.046875 50.171875 
Q 54.890625 44.34375 54.890625 33.015625 
z
" id="DejaVuSans-110"/>
     </defs>
     <g transform="translate(87.14375 27.597656)scale(0.1 -0.1)">
      <use xlink:href="#DejaVuSans-84"/>
      <use x="60.865234" xlink:href="#DejaVuSans-114"/>
      <use x="101.978516" xlink:href="#DejaVuSans-97"/>
      <use x="163.257812" xlink:href="#DejaVuSans-105"/>
      <use x="191.041016" xlink:href="#DejaVuSans-110"/>
     </g>
    </g>
    <g id="line2d_43">
     <path d="M 59.14375 38.775781 
L 79.14375 38.775781 
" style="fill:none;stroke:#4daf4a;stroke-linecap:square;stroke-width:2;"/>
    </g>
    <g id="line2d_44"/>
    <g id="text_22">
     <!-- Test -->
     <defs>
      <path d="M 56.203125 29.59375 
L 56.203125 25.203125 
L 14.890625 25.203125 
Q 15.484375 15.921875 20.484375 11.0625 
Q 25.484375 6.203125 34.421875 6.203125 
Q 39.59375 6.203125 44.453125 7.46875 
Q 49.3125 8.734375 54.109375 11.28125 
L 54.109375 2.78125 
Q 49.265625 0.734375 44.1875 -0.34375 
Q 39.109375 -1.421875 33.890625 -1.421875 
Q 20.796875 -1.421875 13.15625 6.1875 
Q 5.515625 13.8125 5.515625 26.8125 
Q 5.515625 40.234375 12.765625 48.109375 
Q 20.015625 56 32.328125 56 
Q 43.359375 56 49.78125 48.890625 
Q 56.203125 41.796875 56.203125 29.59375 
z
M 47.21875 32.234375 
Q 47.125 39.59375 43.09375 43.984375 
Q 39.0625 48.390625 32.421875 48.390625 
Q 24.90625 48.390625 20.390625 44.140625 
Q 15.875 39.890625 15.1875 32.171875 
z
" id="DejaVuSans-101"/>
      <path d="M 44.28125 53.078125 
L 44.28125 44.578125 
Q 40.484375 46.53125 36.375 47.5 
Q 32.28125 48.484375 27.875 48.484375 
Q 21.1875 48.484375 17.84375 46.4375 
Q 14.5 44.390625 14.5 40.28125 
Q 14.5 37.15625 16.890625 35.375 
Q 19.28125 33.59375 26.515625 31.984375 
L 29.59375 31.296875 
Q 39.15625 29.25 43.1875 25.515625 
Q 47.21875 21.78125 47.21875 15.09375 
Q 47.21875 7.46875 41.1875 3.015625 
Q 35.15625 -1.421875 24.609375 -1.421875 
Q 20.21875 -1.421875 15.453125 -0.5625 
Q 10.6875 0.296875 5.421875 2 
L 5.421875 11.28125 
Q 10.40625 8.6875 15.234375 7.390625 
Q 20.0625 6.109375 24.8125 6.109375 
Q 31.15625 6.109375 34.5625 8.28125 
Q 37.984375 10.453125 37.984375 14.40625 
Q 37.984375 18.0625 35.515625 20.015625 
Q 33.0625 21.96875 24.703125 23.78125 
L 21.578125 24.515625 
Q 13.234375 26.265625 9.515625 29.90625 
Q 5.8125 33.546875 5.8125 39.890625 
Q 5.8125 47.609375 11.28125 51.796875 
Q 16.75 56 26.8125 56 
Q 31.78125 56 36.171875 55.265625 
Q 40.578125 54.546875 44.28125 53.078125 
z
" id="DejaVuSans-115"/>
      <path d="M 18.3125 70.21875 
L 18.3125 54.6875 
L 36.8125 54.6875 
L 36.8125 47.703125 
L 18.3125 47.703125 
L 18.3125 18.015625 
Q 18.3125 11.328125 20.140625 9.421875 
Q 21.96875 7.515625 27.59375 7.515625 
L 36.8125 7.515625 
L 36.8125 0 
L 27.59375 0 
Q 17.1875 0 13.234375 3.875 
Q 9.28125 7.765625 9.28125 18.015625 
L 9.28125 47.703125 
L 2.6875 47.703125 
L 2.6875 54.6875 
L 9.28125 54.6875 
L 9.28125 70.21875 
z
" id="DejaVuSans-116"/>
     </defs>
     <g transform="translate(87.14375 42.275781)scale(0.1 -0.1)">
      <use xlink:href="#DejaVuSans-84"/>
      <use x="60.818359" xlink:href="#DejaVuSans-101"/>
      <use x="122.341797" xlink:href="#DejaVuSans-115"/>
      <use x="174.441406" xlink:href="#DejaVuSans-116"/>
     </g>
    </g>
   </g>
  </g>
 </g>
 <defs>
  <clipPath id="pb5595530d3">
   <rect height="326.16" width="669.6" x="50.14375" y="10.999219"/>
  </clipPath>
 </defs>
</svg>
