<?xml version="1.0" encoding="utf-8" standalone="no"?>
<!DOCTYPE svg PUBLIC "-//W3C//DTD SVG 1.1//EN"
  "http://www.w3.org/Graphics/SVG/1.1/DTD/svg11.dtd">
<!-- Created with matplotlib (https://matplotlib.org/) -->
<svg height="374.715469pt" version="1.1" viewBox="0 0 726.94375 374.715469" width="726.94375pt" xmlns="http://www.w3.org/2000/svg" xmlns:xlink="http://www.w3.org/1999/xlink">
 <defs>
  <style type="text/css">
*{stroke-linecap:butt;stroke-linejoin:round;white-space:pre;}
  </style>
 </defs>
 <g id="figure_1">
  <g id="patch_1">
   <path d="M 0 374.715469 
L 726.94375 374.715469 
L 726.94375 0 
L 0 0 
z
" style="fill:#ffffff;"/>
  </g>
  <g id="axes_1">
   <g id="patch_2">
    <path d="M 50.14375 337.159219 
L 719.74375 337.159219 
L 719.74375 10.999219 
L 50.14375 10.999219 
z
" style="fill:#ffffff;"/>
   </g>
   <g id="matplotlib.axis_1">
    <g id="xtick_1">
     <g id="line2d_1">
      <path clip-path="url(#p6ebd89be13)" d="M 50.14375 337.159219 
L 50.14375 10.999219 
" style="fill:none;stroke:#b0b0b0;stroke-linecap:square;stroke-width:0.8;"/>
     </g>
     <g id="line2d_2">
      <defs>
       <path d="M 0 0 
L 0 3.5 
" id="m4637d890a9" style="stroke:#000000;stroke-width:0.8;"/>
      </defs>
      <g>
       <use style="stroke:#000000;stroke-width:0.8;" x="50.14375" xlink:href="#m4637d890a9" y="337.159219"/>
      </g>
     </g>
     <g id="text_1">
      <!-- 0 -->
      <defs>
       <path d="M 31.78125 66.40625 
Q 24.171875 66.40625 20.328125 58.90625 
Q 16.5 51.421875 16.5 36.375 
Q 16.5 21.390625 20.328125 13.890625 
Q 24.171875 6.390625 31.78125 6.390625 
Q 39.453125 6.390625 43.28125 13.890625 
Q 47.125 21.390625 47.125 36.375 
Q 47.125 51.421875 43.28125 58.90625 
Q 39.453125 66.40625 31.78125 66.40625 
z
M 31.78125 74.21875 
Q 44.046875 74.21875 50.515625 64.515625 
Q 56.984375 54.828125 56.984375 36.375 
Q 56.984375 17.96875 50.515625 8.265625 
Q 44.046875 -1.421875 31.78125 -1.421875 
Q 19.53125 -1.421875 13.0625 8.265625 
Q 6.59375 17.96875 6.59375 36.375 
Q 6.59375 54.828125 13.0625 64.515625 
Q 19.53125 74.21875 31.78125 74.21875 
z
" id="DejaVuSans-48"/>
      </defs>
      <g transform="translate(46.9625 351.757656)scale(0.1 -0.1)">
       <use xlink:href="#DejaVuSans-48"/>
      </g>
     </g>
    </g>
    <g id="xtick_2">
     <g id="line2d_3">
      <path clip-path="url(#p6ebd89be13)" d="M 129.867527 337.159219 
L 129.867527 10.999219 
" style="fill:none;stroke:#b0b0b0;stroke-linecap:square;stroke-width:0.8;"/>
     </g>
     <g id="line2d_4">
      <g>
       <use style="stroke:#000000;stroke-width:0.8;" x="129.867527" xlink:href="#m4637d890a9" y="337.159219"/>
      </g>
     </g>
     <g id="text_2">
      <!-- 50 -->
      <defs>
       <path d="M 10.796875 72.90625 
L 49.515625 72.90625 
L 49.515625 64.59375 
L 19.828125 64.59375 
L 19.828125 46.734375 
Q 21.96875 47.46875 24.109375 47.828125 
Q 26.265625 48.1875 28.421875 48.1875 
Q 40.625 48.1875 47.75 41.5 
Q 54.890625 34.8125 54.890625 23.390625 
Q 54.890625 11.625 47.5625 5.09375 
Q 40.234375 -1.421875 26.90625 -1.421875 
Q 22.3125 -1.421875 17.546875 -0.640625 
Q 12.796875 0.140625 7.71875 1.703125 
L 7.71875 11.625 
Q 12.109375 9.234375 16.796875 8.0625 
Q 21.484375 6.890625 26.703125 6.890625 
Q 35.15625 6.890625 40.078125 11.328125 
Q 45.015625 15.765625 45.015625 23.390625 
Q 45.015625 31 40.078125 35.4375 
Q 35.15625 39.890625 26.703125 39.890625 
Q 22.75 39.890625 18.8125 39.015625 
Q 14.890625 38.140625 10.796875 36.28125 
z
" id="DejaVuSans-53"/>
      </defs>
      <g transform="translate(123.505027 351.757656)scale(0.1 -0.1)">
       <use xlink:href="#DejaVuSans-53"/>
       <use x="63.623047" xlink:href="#DejaVuSans-48"/>
      </g>
     </g>
    </g>
    <g id="xtick_3">
     <g id="line2d_5">
      <path clip-path="url(#p6ebd89be13)" d="M 209.591303 337.159219 
L 209.591303 10.999219 
" style="fill:none;stroke:#b0b0b0;stroke-linecap:square;stroke-width:0.8;"/>
     </g>
     <g id="line2d_6">
      <g>
       <use style="stroke:#000000;stroke-width:0.8;" x="209.591303" xlink:href="#m4637d890a9" y="337.159219"/>
      </g>
     </g>
     <g id="text_3">
      <!-- 100 -->
      <defs>
       <path d="M 12.40625 8.296875 
L 28.515625 8.296875 
L 28.515625 63.921875 
L 10.984375 60.40625 
L 10.984375 69.390625 
L 28.421875 72.90625 
L 38.28125 72.90625 
L 38.28125 8.296875 
L 54.390625 8.296875 
L 54.390625 0 
L 12.40625 0 
z
" id="DejaVuSans-49"/>
      </defs>
      <g transform="translate(200.047553 351.757656)scale(0.1 -0.1)">
       <use xlink:href="#DejaVuSans-49"/>
       <use x="63.623047" xlink:href="#DejaVuSans-48"/>
       <use x="127.246094" xlink:href="#DejaVuSans-48"/>
      </g>
     </g>
    </g>
    <g id="xtick_4">
     <g id="line2d_7">
      <path clip-path="url(#p6ebd89be13)" d="M 289.31508 337.159219 
L 289.31508 10.999219 
" style="fill:none;stroke:#b0b0b0;stroke-linecap:square;stroke-width:0.8;"/>
     </g>
     <g id="line2d_8">
      <g>
       <use style="stroke:#000000;stroke-width:0.8;" x="289.31508" xlink:href="#m4637d890a9" y="337.159219"/>
      </g>
     </g>
     <g id="text_4">
      <!-- 150 -->
      <g transform="translate(279.77133 351.757656)scale(0.1 -0.1)">
       <use xlink:href="#DejaVuSans-49"/>
       <use x="63.623047" xlink:href="#DejaVuSans-53"/>
       <use x="127.246094" xlink:href="#DejaVuSans-48"/>
      </g>
     </g>
    </g>
    <g id="xtick_5">
     <g id="line2d_9">
      <path clip-path="url(#p6ebd89be13)" d="M 369.038857 337.159219 
L 369.038857 10.999219 
" style="fill:none;stroke:#b0b0b0;stroke-linecap:square;stroke-width:0.8;"/>
     </g>
     <g id="line2d_10">
      <g>
       <use style="stroke:#000000;stroke-width:0.8;" x="369.038857" xlink:href="#m4637d890a9" y="337.159219"/>
      </g>
     </g>
     <g id="text_5">
      <!-- 200 -->
      <defs>
       <path d="M 19.1875 8.296875 
L 53.609375 8.296875 
L 53.609375 0 
L 7.328125 0 
L 7.328125 8.296875 
Q 12.9375 14.109375 22.625 23.890625 
Q 32.328125 33.6875 34.8125 36.53125 
Q 39.546875 41.84375 41.421875 45.53125 
Q 43.3125 49.21875 43.3125 52.78125 
Q 43.3125 58.59375 39.234375 62.25 
Q 35.15625 65.921875 28.609375 65.921875 
Q 23.96875 65.921875 18.8125 64.3125 
Q 13.671875 62.703125 7.8125 59.421875 
L 7.8125 69.390625 
Q 13.765625 71.78125 18.9375 73 
Q 24.125 74.21875 28.421875 74.21875 
Q 39.75 74.21875 46.484375 68.546875 
Q 53.21875 62.890625 53.21875 53.421875 
Q 53.21875 48.921875 51.53125 44.890625 
Q 49.859375 40.875 45.40625 35.40625 
Q 44.1875 33.984375 37.640625 27.21875 
Q 31.109375 20.453125 19.1875 8.296875 
z
" id="DejaVuSans-50"/>
      </defs>
      <g transform="translate(359.495107 351.757656)scale(0.1 -0.1)">
       <use xlink:href="#DejaVuSans-50"/>
       <use x="63.623047" xlink:href="#DejaVuSans-48"/>
       <use x="127.246094" xlink:href="#DejaVuSans-48"/>
      </g>
     </g>
    </g>
    <g id="xtick_6">
     <g id="line2d_11">
      <path clip-path="url(#p6ebd89be13)" d="M 448.762633 337.159219 
L 448.762633 10.999219 
" style="fill:none;stroke:#b0b0b0;stroke-linecap:square;stroke-width:0.8;"/>
     </g>
     <g id="line2d_12">
      <g>
       <use style="stroke:#000000;stroke-width:0.8;" x="448.762633" xlink:href="#m4637d890a9" y="337.159219"/>
      </g>
     </g>
     <g id="text_6">
      <!-- 250 -->
      <g transform="translate(439.218883 351.757656)scale(0.1 -0.1)">
       <use xlink:href="#DejaVuSans-50"/>
       <use x="63.623047" xlink:href="#DejaVuSans-53"/>
       <use x="127.246094" xlink:href="#DejaVuSans-48"/>
      </g>
     </g>
    </g>
    <g id="xtick_7">
     <g id="line2d_13">
      <path clip-path="url(#p6ebd89be13)" d="M 528.48641 337.159219 
L 528.48641 10.999219 
" style="fill:none;stroke:#b0b0b0;stroke-linecap:square;stroke-width:0.8;"/>
     </g>
     <g id="line2d_14">
      <g>
       <use style="stroke:#000000;stroke-width:0.8;" x="528.48641" xlink:href="#m4637d890a9" y="337.159219"/>
      </g>
     </g>
     <g id="text_7">
      <!-- 300 -->
      <defs>
       <path d="M 40.578125 39.3125 
Q 47.65625 37.796875 51.625 33 
Q 55.609375 28.21875 55.609375 21.1875 
Q 55.609375 10.40625 48.1875 4.484375 
Q 40.765625 -1.421875 27.09375 -1.421875 
Q 22.515625 -1.421875 17.65625 -0.515625 
Q 12.796875 0.390625 7.625 2.203125 
L 7.625 11.71875 
Q 11.71875 9.328125 16.59375 8.109375 
Q 21.484375 6.890625 26.8125 6.890625 
Q 36.078125 6.890625 40.9375 10.546875 
Q 45.796875 14.203125 45.796875 21.1875 
Q 45.796875 27.640625 41.28125 31.265625 
Q 36.765625 34.90625 28.71875 34.90625 
L 20.21875 34.90625 
L 20.21875 43.015625 
L 29.109375 43.015625 
Q 36.375 43.015625 40.234375 45.921875 
Q 44.09375 48.828125 44.09375 54.296875 
Q 44.09375 59.90625 40.109375 62.90625 
Q 36.140625 65.921875 28.71875 65.921875 
Q 24.65625 65.921875 20.015625 65.03125 
Q 15.375 64.15625 9.8125 62.3125 
L 9.8125 71.09375 
Q 15.4375 72.65625 20.34375 73.4375 
Q 25.25 74.21875 29.59375 74.21875 
Q 40.828125 74.21875 47.359375 69.109375 
Q 53.90625 64.015625 53.90625 55.328125 
Q 53.90625 49.265625 50.4375 45.09375 
Q 46.96875 40.921875 40.578125 39.3125 
z
" id="DejaVuSans-51"/>
      </defs>
      <g transform="translate(518.94266 351.757656)scale(0.1 -0.1)">
       <use xlink:href="#DejaVuSans-51"/>
       <use x="63.623047" xlink:href="#DejaVuSans-48"/>
       <use x="127.246094" xlink:href="#DejaVuSans-48"/>
      </g>
     </g>
    </g>
    <g id="xtick_8">
     <g id="line2d_15">
      <path clip-path="url(#p6ebd89be13)" d="M 608.210186 337.159219 
L 608.210186 10.999219 
" style="fill:none;stroke:#b0b0b0;stroke-linecap:square;stroke-width:0.8;"/>
     </g>
     <g id="line2d_16">
      <g>
       <use style="stroke:#000000;stroke-width:0.8;" x="608.210186" xlink:href="#m4637d890a9" y="337.159219"/>
      </g>
     </g>
     <g id="text_8">
      <!-- 350 -->
      <g transform="translate(598.666436 351.757656)scale(0.1 -0.1)">
       <use xlink:href="#DejaVuSans-51"/>
       <use x="63.623047" xlink:href="#DejaVuSans-53"/>
       <use x="127.246094" xlink:href="#DejaVuSans-48"/>
      </g>
     </g>
    </g>
    <g id="xtick_9">
     <g id="line2d_17">
      <path clip-path="url(#p6ebd89be13)" d="M 687.933963 337.159219 
L 687.933963 10.999219 
" style="fill:none;stroke:#b0b0b0;stroke-linecap:square;stroke-width:0.8;"/>
     </g>
     <g id="line2d_18">
      <g>
       <use style="stroke:#000000;stroke-width:0.8;" x="687.933963" xlink:href="#m4637d890a9" y="337.159219"/>
      </g>
     </g>
     <g id="text_9">
      <!-- 400 -->
      <defs>
       <path d="M 37.796875 64.3125 
L 12.890625 25.390625 
L 37.796875 25.390625 
z
M 35.203125 72.90625 
L 47.609375 72.90625 
L 47.609375 25.390625 
L 58.015625 25.390625 
L 58.015625 17.1875 
L 47.609375 17.1875 
L 47.609375 0 
L 37.796875 0 
L 37.796875 17.1875 
L 4.890625 17.1875 
L 4.890625 26.703125 
z
" id="DejaVuSans-52"/>
      </defs>
      <g transform="translate(678.390213 351.757656)scale(0.1 -0.1)">
       <use xlink:href="#DejaVuSans-52"/>
       <use x="63.623047" xlink:href="#DejaVuSans-48"/>
       <use x="127.246094" xlink:href="#DejaVuSans-48"/>
      </g>
     </g>
    </g>
    <g id="text_10">
     <!-- Epoch -->
     <defs>
      <path d="M 9.8125 72.90625 
L 55.90625 72.90625 
L 55.90625 64.59375 
L 19.671875 64.59375 
L 19.671875 43.015625 
L 54.390625 43.015625 
L 54.390625 34.71875 
L 19.671875 34.71875 
L 19.671875 8.296875 
L 56.78125 8.296875 
L 56.78125 0 
L 9.8125 0 
z
" id="DejaVuSans-69"/>
      <path d="M 18.109375 8.203125 
L 18.109375 -20.796875 
L 9.078125 -20.796875 
L 9.078125 54.6875 
L 18.109375 54.6875 
L 18.109375 46.390625 
Q 20.953125 51.265625 25.265625 53.625 
Q 29.59375 56 35.59375 56 
Q 45.5625 56 51.78125 48.09375 
Q 58.015625 40.1875 58.015625 27.296875 
Q 58.015625 14.40625 51.78125 6.484375 
Q 45.5625 -1.421875 35.59375 -1.421875 
Q 29.59375 -1.421875 25.265625 0.953125 
Q 20.953125 3.328125 18.109375 8.203125 
z
M 48.6875 27.296875 
Q 48.6875 37.203125 44.609375 42.84375 
Q 40.53125 48.484375 33.40625 48.484375 
Q 26.265625 48.484375 22.1875 42.84375 
Q 18.109375 37.203125 18.109375 27.296875 
Q 18.109375 17.390625 22.1875 11.75 
Q 26.265625 6.109375 33.40625 6.109375 
Q 40.53125 6.109375 44.609375 11.75 
Q 48.6875 17.390625 48.6875 27.296875 
z
" id="DejaVuSans-112"/>
      <path d="M 30.609375 48.390625 
Q 23.390625 48.390625 19.1875 42.75 
Q 14.984375 37.109375 14.984375 27.296875 
Q 14.984375 17.484375 19.15625 11.84375 
Q 23.34375 6.203125 30.609375 6.203125 
Q 37.796875 6.203125 41.984375 11.859375 
Q 46.1875 17.53125 46.1875 27.296875 
Q 46.1875 37.015625 41.984375 42.703125 
Q 37.796875 48.390625 30.609375 48.390625 
z
M 30.609375 56 
Q 42.328125 56 49.015625 48.375 
Q 55.71875 40.765625 55.71875 27.296875 
Q 55.71875 13.875 49.015625 6.21875 
Q 42.328125 -1.421875 30.609375 -1.421875 
Q 18.84375 -1.421875 12.171875 6.21875 
Q 5.515625 13.875 5.515625 27.296875 
Q 5.515625 40.765625 12.171875 48.375 
Q 18.84375 56 30.609375 56 
z
" id="DejaVuSans-111"/>
      <path d="M 48.78125 52.59375 
L 48.78125 44.1875 
Q 44.96875 46.296875 41.140625 47.34375 
Q 37.3125 48.390625 33.40625 48.390625 
Q 24.65625 48.390625 19.8125 42.84375 
Q 14.984375 37.3125 14.984375 27.296875 
Q 14.984375 17.28125 19.8125 11.734375 
Q 24.65625 6.203125 33.40625 6.203125 
Q 37.3125 6.203125 41.140625 7.25 
Q 44.96875 8.296875 48.78125 10.40625 
L 48.78125 2.09375 
Q 45.015625 0.34375 40.984375 -0.53125 
Q 36.96875 -1.421875 32.421875 -1.421875 
Q 20.0625 -1.421875 12.78125 6.34375 
Q 5.515625 14.109375 5.515625 27.296875 
Q 5.515625 40.671875 12.859375 48.328125 
Q 20.21875 56 33.015625 56 
Q 37.15625 56 41.109375 55.140625 
Q 45.0625 54.296875 48.78125 52.59375 
z
" id="DejaVuSans-99"/>
      <path d="M 54.890625 33.015625 
L 54.890625 0 
L 45.90625 0 
L 45.90625 32.71875 
Q 45.90625 40.484375 42.875 44.328125 
Q 39.84375 48.1875 33.796875 48.1875 
Q 26.515625 48.1875 22.3125 43.546875 
Q 18.109375 38.921875 18.109375 30.90625 
L 18.109375 0 
L 9.078125 0 
L 9.078125 75.984375 
L 18.109375 75.984375 
L 18.109375 46.1875 
Q 21.34375 51.125 25.703125 53.5625 
Q 30.078125 56 35.796875 56 
Q 45.21875 56 50.046875 50.171875 
Q 54.890625 44.34375 54.890625 33.015625 
z
" id="DejaVuSans-104"/>
     </defs>
     <g transform="translate(369.632813 365.435781)scale(0.1 -0.1)">
      <use xlink:href="#DejaVuSans-69"/>
      <use x="63.183594" xlink:href="#DejaVuSans-112"/>
      <use x="126.660156" xlink:href="#DejaVuSans-111"/>
      <use x="187.841797" xlink:href="#DejaVuSans-99"/>
      <use x="242.822266" xlink:href="#DejaVuSans-104"/>
     </g>
    </g>
   </g>
   <g id="matplotlib.axis_2">
    <g id="ytick_1">
     <g id="line2d_19">
      <path clip-path="url(#p6ebd89be13)" d="M 50.14375 337.159219 
L 719.74375 337.159219 
" style="fill:none;stroke:#b0b0b0;stroke-linecap:square;stroke-width:0.8;"/>
     </g>
     <g id="line2d_20">
      <defs>
       <path d="M 0 0 
L -3.5 0 
" id="m7726000daf" style="stroke:#000000;stroke-width:0.8;"/>
      </defs>
      <g>
       <use style="stroke:#000000;stroke-width:0.8;" x="50.14375" xlink:href="#m7726000daf" y="337.159219"/>
      </g>
     </g>
     <g id="text_11">
      <!-- 0.82 -->
      <defs>
       <path d="M 10.6875 12.40625 
L 21 12.40625 
L 21 0 
L 10.6875 0 
z
" id="DejaVuSans-46"/>
       <path d="M 31.78125 34.625 
Q 24.75 34.625 20.71875 30.859375 
Q 16.703125 27.09375 16.703125 20.515625 
Q 16.703125 13.921875 20.71875 10.15625 
Q 24.75 6.390625 31.78125 6.390625 
Q 38.8125 6.390625 42.859375 10.171875 
Q 46.921875 13.96875 46.921875 20.515625 
Q 46.921875 27.09375 42.890625 30.859375 
Q 38.875 34.625 31.78125 34.625 
z
M 21.921875 38.8125 
Q 15.578125 40.375 12.03125 44.71875 
Q 8.5 49.078125 8.5 55.328125 
Q 8.5 64.0625 14.71875 69.140625 
Q 20.953125 74.21875 31.78125 74.21875 
Q 42.671875 74.21875 48.875 69.140625 
Q 55.078125 64.0625 55.078125 55.328125 
Q 55.078125 49.078125 51.53125 44.71875 
Q 48 40.375 41.703125 38.8125 
Q 48.828125 37.15625 52.796875 32.3125 
Q 56.78125 27.484375 56.78125 20.515625 
Q 56.78125 9.90625 50.3125 4.234375 
Q 43.84375 -1.421875 31.78125 -1.421875 
Q 19.734375 -1.421875 13.25 4.234375 
Q 6.78125 9.90625 6.78125 20.515625 
Q 6.78125 27.484375 10.78125 32.3125 
Q 14.796875 37.15625 21.921875 38.8125 
z
M 18.3125 54.390625 
Q 18.3125 48.734375 21.84375 45.5625 
Q 25.390625 42.390625 31.78125 42.390625 
Q 38.140625 42.390625 41.71875 45.5625 
Q 45.3125 48.734375 45.3125 54.390625 
Q 45.3125 60.0625 41.71875 63.234375 
Q 38.140625 66.40625 31.78125 66.40625 
Q 25.390625 66.40625 21.84375 63.234375 
Q 18.3125 60.0625 18.3125 54.390625 
z
" id="DejaVuSans-56"/>
      </defs>
      <g transform="translate(20.878125 340.958437)scale(0.1 -0.1)">
       <use xlink:href="#DejaVuSans-48"/>
       <use x="63.623047" xlink:href="#DejaVuSans-46"/>
       <use x="95.410156" xlink:href="#DejaVuSans-56"/>
       <use x="159.033203" xlink:href="#DejaVuSans-50"/>
      </g>
     </g>
    </g>
    <g id="ytick_2">
     <g id="line2d_21">
      <path clip-path="url(#p6ebd89be13)" d="M 50.14375 296.389219 
L 719.74375 296.389219 
" style="fill:none;stroke:#b0b0b0;stroke-linecap:square;stroke-width:0.8;"/>
     </g>
     <g id="line2d_22">
      <g>
       <use style="stroke:#000000;stroke-width:0.8;" x="50.14375" xlink:href="#m7726000daf" y="296.389219"/>
      </g>
     </g>
     <g id="text_12">
      <!-- 0.84 -->
      <g transform="translate(20.878125 300.188437)scale(0.1 -0.1)">
       <use xlink:href="#DejaVuSans-48"/>
       <use x="63.623047" xlink:href="#DejaVuSans-46"/>
       <use x="95.410156" xlink:href="#DejaVuSans-56"/>
       <use x="159.033203" xlink:href="#DejaVuSans-52"/>
      </g>
     </g>
    </g>
    <g id="ytick_3">
     <g id="line2d_23">
      <path clip-path="url(#p6ebd89be13)" d="M 50.14375 255.619219 
L 719.74375 255.619219 
" style="fill:none;stroke:#b0b0b0;stroke-linecap:square;stroke-width:0.8;"/>
     </g>
     <g id="line2d_24">
      <g>
       <use style="stroke:#000000;stroke-width:0.8;" x="50.14375" xlink:href="#m7726000daf" y="255.619219"/>
      </g>
     </g>
     <g id="text_13">
      <!-- 0.86 -->
      <defs>
       <path d="M 33.015625 40.375 
Q 26.375 40.375 22.484375 35.828125 
Q 18.609375 31.296875 18.609375 23.390625 
Q 18.609375 15.53125 22.484375 10.953125 
Q 26.375 6.390625 33.015625 6.390625 
Q 39.65625 6.390625 43.53125 10.953125 
Q 47.40625 15.53125 47.40625 23.390625 
Q 47.40625 31.296875 43.53125 35.828125 
Q 39.65625 40.375 33.015625 40.375 
z
M 52.59375 71.296875 
L 52.59375 62.3125 
Q 48.875 64.0625 45.09375 64.984375 
Q 41.3125 65.921875 37.59375 65.921875 
Q 27.828125 65.921875 22.671875 59.328125 
Q 17.53125 52.734375 16.796875 39.40625 
Q 19.671875 43.65625 24.015625 45.921875 
Q 28.375 48.1875 33.59375 48.1875 
Q 44.578125 48.1875 50.953125 41.515625 
Q 57.328125 34.859375 57.328125 23.390625 
Q 57.328125 12.15625 50.6875 5.359375 
Q 44.046875 -1.421875 33.015625 -1.421875 
Q 20.359375 -1.421875 13.671875 8.265625 
Q 6.984375 17.96875 6.984375 36.375 
Q 6.984375 53.65625 15.1875 63.9375 
Q 23.390625 74.21875 37.203125 74.21875 
Q 40.921875 74.21875 44.703125 73.484375 
Q 48.484375 72.75 52.59375 71.296875 
z
" id="DejaVuSans-54"/>
      </defs>
      <g transform="translate(20.878125 259.418437)scale(0.1 -0.1)">
       <use xlink:href="#DejaVuSans-48"/>
       <use x="63.623047" xlink:href="#DejaVuSans-46"/>
       <use x="95.410156" xlink:href="#DejaVuSans-56"/>
       <use x="159.033203" xlink:href="#DejaVuSans-54"/>
      </g>
     </g>
    </g>
    <g id="ytick_4">
     <g id="line2d_25">
      <path clip-path="url(#p6ebd89be13)" d="M 50.14375 214.849219 
L 719.74375 214.849219 
" style="fill:none;stroke:#b0b0b0;stroke-linecap:square;stroke-width:0.8;"/>
     </g>
     <g id="line2d_26">
      <g>
       <use style="stroke:#000000;stroke-width:0.8;" x="50.14375" xlink:href="#m7726000daf" y="214.849219"/>
      </g>
     </g>
     <g id="text_14">
      <!-- 0.88 -->
      <g transform="translate(20.878125 218.648437)scale(0.1 -0.1)">
       <use xlink:href="#DejaVuSans-48"/>
       <use x="63.623047" xlink:href="#DejaVuSans-46"/>
       <use x="95.410156" xlink:href="#DejaVuSans-56"/>
       <use x="159.033203" xlink:href="#DejaVuSans-56"/>
      </g>
     </g>
    </g>
    <g id="ytick_5">
     <g id="line2d_27">
      <path clip-path="url(#p6ebd89be13)" d="M 50.14375 174.079219 
L 719.74375 174.079219 
" style="fill:none;stroke:#b0b0b0;stroke-linecap:square;stroke-width:0.8;"/>
     </g>
     <g id="line2d_28">
      <g>
       <use style="stroke:#000000;stroke-width:0.8;" x="50.14375" xlink:href="#m7726000daf" y="174.079219"/>
      </g>
     </g>
     <g id="text_15">
      <!-- 0.90 -->
      <defs>
       <path d="M 10.984375 1.515625 
L 10.984375 10.5 
Q 14.703125 8.734375 18.5 7.8125 
Q 22.3125 6.890625 25.984375 6.890625 
Q 35.75 6.890625 40.890625 13.453125 
Q 46.046875 20.015625 46.78125 33.40625 
Q 43.953125 29.203125 39.59375 26.953125 
Q 35.25 24.703125 29.984375 24.703125 
Q 19.046875 24.703125 12.671875 31.3125 
Q 6.296875 37.9375 6.296875 49.421875 
Q 6.296875 60.640625 12.9375 67.421875 
Q 19.578125 74.21875 30.609375 74.21875 
Q 43.265625 74.21875 49.921875 64.515625 
Q 56.59375 54.828125 56.59375 36.375 
Q 56.59375 19.140625 48.40625 8.859375 
Q 40.234375 -1.421875 26.421875 -1.421875 
Q 22.703125 -1.421875 18.890625 -0.6875 
Q 15.09375 0.046875 10.984375 1.515625 
z
M 30.609375 32.421875 
Q 37.25 32.421875 41.125 36.953125 
Q 45.015625 41.5 45.015625 49.421875 
Q 45.015625 57.28125 41.125 61.84375 
Q 37.25 66.40625 30.609375 66.40625 
Q 23.96875 66.40625 20.09375 61.84375 
Q 16.21875 57.28125 16.21875 49.421875 
Q 16.21875 41.5 20.09375 36.953125 
Q 23.96875 32.421875 30.609375 32.421875 
z
" id="DejaVuSans-57"/>
      </defs>
      <g transform="translate(20.878125 177.878437)scale(0.1 -0.1)">
       <use xlink:href="#DejaVuSans-48"/>
       <use x="63.623047" xlink:href="#DejaVuSans-46"/>
       <use x="95.410156" xlink:href="#DejaVuSans-57"/>
       <use x="159.033203" xlink:href="#DejaVuSans-48"/>
      </g>
     </g>
    </g>
    <g id="ytick_6">
     <g id="line2d_29">
      <path clip-path="url(#p6ebd89be13)" d="M 50.14375 133.309219 
L 719.74375 133.309219 
" style="fill:none;stroke:#b0b0b0;stroke-linecap:square;stroke-width:0.8;"/>
     </g>
     <g id="line2d_30">
      <g>
       <use style="stroke:#000000;stroke-width:0.8;" x="50.14375" xlink:href="#m7726000daf" y="133.309219"/>
      </g>
     </g>
     <g id="text_16">
      <!-- 0.92 -->
      <g transform="translate(20.878125 137.108437)scale(0.1 -0.1)">
       <use xlink:href="#DejaVuSans-48"/>
       <use x="63.623047" xlink:href="#DejaVuSans-46"/>
       <use x="95.410156" xlink:href="#DejaVuSans-57"/>
       <use x="159.033203" xlink:href="#DejaVuSans-50"/>
      </g>
     </g>
    </g>
    <g id="ytick_7">
     <g id="line2d_31">
      <path clip-path="url(#p6ebd89be13)" d="M 50.14375 92.539219 
L 719.74375 92.539219 
" style="fill:none;stroke:#b0b0b0;stroke-linecap:square;stroke-width:0.8;"/>
     </g>
     <g id="line2d_32">
      <g>
       <use style="stroke:#000000;stroke-width:0.8;" x="50.14375" xlink:href="#m7726000daf" y="92.539219"/>
      </g>
     </g>
     <g id="text_17">
      <!-- 0.94 -->
      <g transform="translate(20.878125 96.338437)scale(0.1 -0.1)">
       <use xlink:href="#DejaVuSans-48"/>
       <use x="63.623047" xlink:href="#DejaVuSans-46"/>
       <use x="95.410156" xlink:href="#DejaVuSans-57"/>
       <use x="159.033203" xlink:href="#DejaVuSans-52"/>
      </g>
     </g>
    </g>
    <g id="ytick_8">
     <g id="line2d_33">
      <path clip-path="url(#p6ebd89be13)" d="M 50.14375 51.769219 
L 719.74375 51.769219 
" style="fill:none;stroke:#b0b0b0;stroke-linecap:square;stroke-width:0.8;"/>
     </g>
     <g id="line2d_34">
      <g>
       <use style="stroke:#000000;stroke-width:0.8;" x="50.14375" xlink:href="#m7726000daf" y="51.769219"/>
      </g>
     </g>
     <g id="text_18">
      <!-- 0.96 -->
      <g transform="translate(20.878125 55.568437)scale(0.1 -0.1)">
       <use xlink:href="#DejaVuSans-48"/>
       <use x="63.623047" xlink:href="#DejaVuSans-46"/>
       <use x="95.410156" xlink:href="#DejaVuSans-57"/>
       <use x="159.033203" xlink:href="#DejaVuSans-54"/>
      </g>
     </g>
    </g>
    <g id="ytick_9">
     <g id="line2d_35">
      <path clip-path="url(#p6ebd89be13)" d="M 50.14375 10.999219 
L 719.74375 10.999219 
" style="fill:none;stroke:#b0b0b0;stroke-linecap:square;stroke-width:0.8;"/>
     </g>
     <g id="line2d_36">
      <g>
       <use style="stroke:#000000;stroke-width:0.8;" x="50.14375" xlink:href="#m7726000daf" y="10.999219"/>
      </g>
     </g>
     <g id="text_19">
      <!-- 0.98 -->
      <g transform="translate(20.878125 14.798437)scale(0.1 -0.1)">
       <use xlink:href="#DejaVuSans-48"/>
       <use x="63.623047" xlink:href="#DejaVuSans-46"/>
       <use x="95.410156" xlink:href="#DejaVuSans-57"/>
       <use x="159.033203" xlink:href="#DejaVuSans-56"/>
      </g>
     </g>
    </g>
    <g id="text_20">
     <!-- Accuracy -->
     <defs>
      <path d="M 34.1875 63.1875 
L 20.796875 26.90625 
L 47.609375 26.90625 
z
M 28.609375 72.90625 
L 39.796875 72.90625 
L 67.578125 0 
L 57.328125 0 
L 50.6875 18.703125 
L 17.828125 18.703125 
L 11.1875 0 
L 0.78125 0 
z
" id="DejaVuSans-65"/>
      <path d="M 8.5 21.578125 
L 8.5 54.6875 
L 17.484375 54.6875 
L 17.484375 21.921875 
Q 17.484375 14.15625 20.5 10.265625 
Q 23.53125 6.390625 29.59375 6.390625 
Q 36.859375 6.390625 41.078125 11.03125 
Q 45.3125 15.671875 45.3125 23.6875 
L 45.3125 54.6875 
L 54.296875 54.6875 
L 54.296875 0 
L 45.3125 0 
L 45.3125 8.40625 
Q 42.046875 3.421875 37.71875 1 
Q 33.40625 -1.421875 27.6875 -1.421875 
Q 18.265625 -1.421875 13.375 4.4375 
Q 8.5 10.296875 8.5 21.578125 
z
M 31.109375 56 
z
" id="DejaVuSans-117"/>
      <path d="M 41.109375 46.296875 
Q 39.59375 47.171875 37.8125 47.578125 
Q 36.03125 48 33.890625 48 
Q 26.265625 48 22.1875 43.046875 
Q 18.109375 38.09375 18.109375 28.8125 
L 18.109375 0 
L 9.078125 0 
L 9.078125 54.6875 
L 18.109375 54.6875 
L 18.109375 46.1875 
Q 20.953125 51.171875 25.484375 53.578125 
Q 30.03125 56 36.53125 56 
Q 37.453125 56 38.578125 55.875 
Q 39.703125 55.765625 41.0625 55.515625 
z
" id="DejaVuSans-114"/>
      <path d="M 34.28125 27.484375 
Q 23.390625 27.484375 19.1875 25 
Q 14.984375 22.515625 14.984375 16.5 
Q 14.984375 11.71875 18.140625 8.90625 
Q 21.296875 6.109375 26.703125 6.109375 
Q 34.1875 6.109375 38.703125 11.40625 
Q 43.21875 16.703125 43.21875 25.484375 
L 43.21875 27.484375 
z
M 52.203125 31.203125 
L 52.203125 0 
L 43.21875 0 
L 43.21875 8.296875 
Q 40.140625 3.328125 35.546875 0.953125 
Q 30.953125 -1.421875 24.3125 -1.421875 
Q 15.921875 -1.421875 10.953125 3.296875 
Q 6 8.015625 6 15.921875 
Q 6 25.140625 12.171875 29.828125 
Q 18.359375 34.515625 30.609375 34.515625 
L 43.21875 34.515625 
L 43.21875 35.40625 
Q 43.21875 41.609375 39.140625 45 
Q 35.0625 48.390625 27.6875 48.390625 
Q 23 48.390625 18.546875 47.265625 
Q 14.109375 46.140625 10.015625 43.890625 
L 10.015625 52.203125 
Q 14.9375 54.109375 19.578125 55.046875 
Q 24.21875 56 28.609375 56 
Q 40.484375 56 46.34375 49.84375 
Q 52.203125 43.703125 52.203125 31.203125 
z
" id="DejaVuSans-97"/>
      <path d="M 32.171875 -5.078125 
Q 28.375 -14.84375 24.75 -17.8125 
Q 21.140625 -20.796875 15.09375 -20.796875 
L 7.90625 -20.796875 
L 7.90625 -13.28125 
L 13.1875 -13.28125 
Q 16.890625 -13.28125 18.9375 -11.515625 
Q 21 -9.765625 23.484375 -3.21875 
L 25.09375 0.875 
L 2.984375 54.6875 
L 12.5 54.6875 
L 29.59375 11.921875 
L 46.6875 54.6875 
L 56.203125 54.6875 
z
" id="DejaVuSans-121"/>
     </defs>
     <g transform="translate(14.798438 196.994062)rotate(-90)scale(0.1 -0.1)">
      <use xlink:href="#DejaVuSans-65"/>
      <use x="68.392578" xlink:href="#DejaVuSans-99"/>
      <use x="123.373047" xlink:href="#DejaVuSans-99"/>
      <use x="178.353516" xlink:href="#DejaVuSans-117"/>
      <use x="241.732422" xlink:href="#DejaVuSans-114"/>
      <use x="282.845703" xlink:href="#DejaVuSans-97"/>
      <use x="344.125" xlink:href="#DejaVuSans-99"/>
      <use x="399.105469" xlink:href="#DejaVuSans-121"/>
     </g>
    </g>
   </g>
   <g id="line2d_37">
    <path clip-path="url(#p6ebd89be13)" d="M 85.92948 375.715469 
L 87.400849 368.917598 
L 89.311347 361.024957 
L 91.858677 351.587186 
L 95.04284 340.758709 
L 98.227003 330.823748 
L 101.411166 321.718337 
L 104.595329 313.378506 
L 107.779492 305.740289 
L 110.963655 298.739718 
L 114.147817 292.312824 
L 117.33198 286.395641 
L 120.516143 280.9242 
L 124.337139 274.856784 
L 128.158134 269.228587 
L 132.615962 263.070482 
L 137.710623 256.428385 
L 142.805283 250.17489 
L 147.899944 244.288951 
L 152.994604 238.749526 
L 158.089265 233.53557 
L 163.183925 228.62604 
L 168.278586 223.999892 
L 174.010079 219.108002 
L 179.741572 214.518171 
L 185.473065 210.200435 
L 191.841391 205.685632 
L 198.846549 201.015557 
L 206.48854 196.212449 
L 214.767363 191.273311 
L 223.683019 186.20375 
L 232.598675 181.379488 
L 242.151164 176.470409 
L 251.703653 171.8169 
L 261.256141 167.405502 
L 271.445462 162.951704 
L 281.634783 158.741725 
L 292.460937 154.517503 
L 303.287091 150.530495 
L 314.750077 146.545736 
L 326.849896 142.578585 
L 339.586547 138.638245 
L 353.596864 134.54551 
L 368.880845 130.320991 
L 385.438492 125.972433 
L 402.632972 121.685007 
L 420.464284 117.473903 
L 438.295596 113.491073 
L 456.76374 109.594648 
L 475.868717 105.795546 
L 495.610527 102.102792 
L 515.989169 98.52329 
L 537.004644 95.061585 
L 558.656951 91.719615 
L 581.582924 88.407391 
L 605.782562 85.137775 
L 631.892697 81.839252 
L 659.91333 78.524762 
L 687.933963 75.400958 
L 687.933963 75.400958 
" style="fill:none;stroke:#377eb8;stroke-linecap:square;stroke-width:2;"/>
   </g>
   <g id="line2d_38">
    <path clip-path="url(#p6ebd89be13)" d="M 80.74472 375.715469 
L 82.306189 366.095664 
L 84.216687 355.795993 
L 86.127184 346.845395 
L 88.037682 338.99293 
L 89.94818 331.987658 
L 92.49551 323.535459 
L 95.04284 315.76958 
L 97.590171 308.626967 
L 100.137501 302.069884 
L 102.684831 296.060597 
L 105.232161 290.561371 
L 107.779492 285.534471 
L 110.326822 280.942163 
L 112.874152 276.746713 
L 115.421483 272.910385 
L 118.605645 268.562505 
L 121.789808 264.643093 
L 124.973971 261.078449 
L 128.794967 257.165399 
L 133.252795 252.943867 
L 138.347455 248.434481 
L 143.442116 244.23569 
L 148.536776 240.329367 
L 153.631437 236.697385 
L 158.726097 233.321617 
L 164.45759 229.807565 
L 170.189084 226.569032 
L 175.920577 223.580211 
L 182.288902 220.520777 
L 188.657228 217.70236 
L 195.662386 214.838223 
L 203.94121 211.709654 
L 213.493698 208.348428 
L 224.319852 204.764399 
L 235.782838 201.208604 
L 247.245825 197.886472 
L 259.345643 194.619504 
L 271.445462 191.584349 
L 284.182114 188.623776 
L 296.918765 185.886734 
L 310.292249 183.234716 
L 324.302566 180.678972 
L 339.586547 178.124286 
L 355.507361 175.691166 
L 372.701841 173.286747 
L 391.169985 170.925362 
L 410.274963 168.708697 
L 430.016772 166.648171 
L 449.758582 164.809414 
L 470.137224 163.131065 
L 491.152699 161.62004 
L 513.441839 160.245096 
L 536.367811 159.057278 
L 560.567449 158.031702 
L 586.040752 157.18118 
L 612.78772 156.512833 
L 642.082018 156.009691 
L 673.923647 155.689103 
L 687.933963 155.610009 
L 687.933963 155.610009 
" style="fill:none;stroke:#4daf4a;stroke-linecap:square;stroke-width:2;"/>
   </g>
   <g id="line2d_39">
    <path clip-path="url(#p6ebd89be13)" d="M 87.147241 375.715469 
L 88.411163 366.666496 
L 90.005638 359.022189 
L 91.600114 349.644991 
L 94.789065 339.605475 
L 96.38354 339.197707 
L 97.978016 331.349516 
L 99.572492 326.966743 
L 101.166967 314.429953 
L 102.761443 315.602103 
L 104.355918 316.621279 
L 105.950394 312.901068 
L 107.544869 301.587338 
L 109.139345 302.249899 
L 110.73382 297.663242 
L 112.328296 296.94977 
L 113.922771 295.268033 
L 115.517247 284.056245 
L 117.111722 284.412981 
L 118.706198 284.31116 
L 120.300673 280.386943 
L 121.895149 282.680333 
L 123.489625 279.622561 
L 126.678576 269.277219 
L 128.273051 269.022303 
L 129.867527 269.888749 
L 131.462002 263.110766 
L 133.056478 264.741472 
L 134.650953 257.504811 
L 136.245429 258.116341 
L 137.839904 254.345098 
L 139.43438 256.179809 
L 142.623331 247.923851 
L 144.217806 245.477731 
L 145.812282 248.331619 
L 147.406758 248.586413 
L 149.001233 236.763095 
L 150.595709 237.833303 
L 152.190184 235.998713 
L 153.78466 235.489003 
L 155.379135 238.190039 
L 156.973611 238.393922 
L 158.568086 230.290816 
L 160.162562 230.188874 
L 161.757037 234.469827 
L 163.351513 224.735893 
L 164.945988 219.028118 
L 166.540464 225.296513 
L 168.134939 224.481099 
L 169.729415 220.557004 
L 171.32389 226.621515 
L 172.918366 220.149357 
L 174.512842 219.13006 
L 176.107317 219.639648 
L 177.701793 215.664642 
L 179.296268 216.78576 
L 180.890744 213.473195 
L 182.485219 213.931873 
L 184.079695 213.320343 
L 185.67417 214.186667 
L 187.268646 209.447158 
L 188.863121 211.485753 
L 190.457597 207.867362 
L 192.052072 207.255832 
L 193.646548 205.217358 
L 195.241023 203.58653 
L 196.835499 198.999873 
L 198.429975 199.152725 
L 200.02445 201.548057 
L 201.618926 199.713345 
L 203.213401 196.604664 
L 204.807877 198.795989 
L 206.402352 196.757516 
L 207.996828 196.40078 
L 209.591303 193.852718 
L 211.185779 196.553632 
L 212.780254 192.476684 
L 214.37473 196.40078 
L 215.969205 188.807383 
L 217.563681 186.463084 
L 219.158156 188.399737 
L 220.752632 188.858293 
L 222.347108 186.921761 
L 223.941583 189.571765 
L 225.536059 186.310231 
L 227.130534 191.559329 
L 228.72501 188.552589 
L 230.319485 178.869687 
L 231.913961 179.328365 
L 233.508436 180.092747 
L 235.102912 182.182252 
L 236.697387 177.952331 
L 238.291863 177.799479 
L 239.886338 176.576419 
L 241.480814 182.386136 
L 243.075289 172.49935 
L 244.669765 173.875384 
L 246.264241 174.486914 
L 247.858716 174.741708 
L 249.453192 174.741708 
L 251.047667 172.958028 
L 252.642143 167.963725 
L 254.236618 167.657899 
L 255.831094 171.582116 
L 257.425569 172.193646 
L 259.020045 172.244556 
L 260.61452 169.645462 
L 262.208996 163.988597 
L 263.803471 167.097401 
L 265.397947 164.804011 
L 266.992422 161.491446 
L 268.586898 161.950124 
L 270.181374 162.255949 
L 271.775849 165.211779 
L 273.370325 160.52318 
L 274.9648 158.12797 
L 276.559276 160.676032 
L 278.153751 159.91165 
L 279.748227 158.17888 
L 282.937178 156.751937 
L 284.531653 152.827841 
L 286.126129 157.312556 
L 287.720604 160.064502 
L 289.31508 153.439371 
L 290.909555 154.509579 
L 292.504031 154.152843 
L 295.692982 151.400898 
L 297.287458 156.649995 
L 298.881933 152.725899 
L 300.476409 150.126806 
L 302.070884 150.840278 
L 305.259835 150.075896 
L 306.854311 149.566308 
L 308.448786 147.782628 
L 310.043262 150.3816 
L 311.637737 150.738336 
L 313.232213 140.036257 
L 314.826688 143.909443 
L 316.421164 141.921879 
L 318.01564 148.292216 
L 319.610115 145.081592 
L 321.204591 145.030561 
L 322.799066 140.494935 
L 324.393542 138.456462 
L 325.988017 144.97965 
L 327.582493 145.897006 
L 329.176968 140.036257 
L 330.771444 139.373696 
L 332.365919 140.800761 
L 333.960395 139.883405 
L 335.55487 141.208407 
L 337.149346 135.857368 
L 338.743821 139.271875 
L 340.338297 137.335222 
L 341.932773 138.507372 
L 343.527248 137.080428 
L 345.121724 136.62175 
L 346.716199 142.023821 
L 348.310675 135.551542 
L 349.90515 133.360216 
L 351.499626 131.423563 
L 353.094101 139.220844 
L 354.688577 137.539106 
L 356.283052 130.812033 
L 357.877528 130.404387 
L 359.472003 131.831331 
L 362.660954 133.563979 
L 364.25543 128.365913 
L 365.849905 133.818894 
L 367.444381 133.462158 
L 369.038857 125.002316 
L 370.633332 129.843767 
L 372.227808 128.365913 
L 373.822283 129.588973 
L 375.416759 129.996619 
L 377.011234 126.582112 
L 378.60571 128.314882 
L 380.200185 126.123556 
L 381.794661 126.887938 
L 383.389136 130.608149 
L 384.983612 128.162029 
L 386.578087 129.283147 
L 388.172563 126.021614 
L 389.767038 124.135992 
L 391.361514 121.333015 
L 392.95599 128.722649 
L 394.550465 122.8619 
L 396.144941 123.728224 
L 397.739416 122.505164 
L 399.333892 123.218636 
L 400.928367 120.721485 
L 402.522843 119.549335 
L 404.117318 119.804129 
L 405.711794 119.243509 
L 407.306269 120.211897 
L 408.900745 125.76682 
L 410.49522 121.078221 
L 412.089696 118.886773 
L 413.684171 117.969539 
L 415.278647 119.090657 
L 418.467598 117.612803 
L 420.062074 117.918507 
L 421.656549 119.549335 
L 423.251025 115.370446 
L 424.8455 118.886773 
L 426.439976 114.809826 
L 428.034451 120.874337 
L 429.628927 116.593506 
L 431.223402 113.84156 
L 432.817878 114.707884 
L 434.412353 113.28094 
L 436.006829 114.555032 
L 437.601304 113.943502 
L 439.19578 113.484824 
L 440.790256 112.873294 
L 442.384731 113.535734 
L 443.979207 109.356845 
L 445.573682 114.860736 
L 447.168158 111.548171 
L 448.762633 110.528994 
L 450.357109 110.121227 
L 451.951584 110.070317 
L 453.54606 112.210732 
L 455.140535 108.439489 
L 456.735011 108.286637 
L 458.329486 106.401015 
L 459.923962 113.331972 
L 461.518437 108.337547 
L 463.112913 106.451925 
L 464.707389 110.987672 
L 466.301864 110.427053 
L 467.89634 106.706841 
L 469.490815 105.432749 
L 471.085291 110.070317 
L 472.679766 109.305935 
L 474.274242 103.69998 
L 475.868717 101.35568 
L 477.463193 106.757751 
L 479.057668 106.655809 
L 480.652144 105.942337 
L 482.246619 106.757751 
L 483.841095 104.923161 
L 485.43557 101.967332 
L 487.030046 102.731714 
L 488.624522 101.100886 
L 490.218997 106.553867 
L 491.813473 104.005806 
L 493.407948 103.445186 
L 495.002424 106.248163 
L 496.596899 100.948034 
L 498.191375 103.241302 
L 499.78585 100.13262 
L 501.380326 103.190392 
L 502.974801 99.826916 
L 504.569277 104.617336 
L 506.163752 101.457622 
L 507.758228 101.100886 
L 509.352703 95.749847 
L 510.947179 102.884566 
L 512.541655 100.642208 
L 514.13613 92.845049 
L 517.325081 98.603735 
L 518.919557 95.444021 
L 520.514032 99.979768 
L 522.108508 92.94687 
L 523.702983 98.603735 
L 525.297459 97.584559 
L 526.891934 97.380675 
L 528.48641 96.616171 
L 530.080885 93.762284 
L 531.675361 96.820055 
L 533.269836 92.28443 
L 534.864312 96.972907 
L 536.458788 98.043115 
L 538.053263 96.310467 
L 539.647739 93.099843 
L 541.242214 92.692076 
L 542.83669 98.145057 
L 544.431165 90.50075 
L 546.025641 92.029636 
L 547.620116 92.437282 
L 549.214592 92.233398 
L 550.809067 93.048812 
L 552.403543 94.11902 
L 553.998018 89.430542 
L 555.592494 90.042072 
L 557.186969 92.182488 
L 558.781445 94.883523 
L 560.37592 89.124716 
L 561.970396 88.71707 
L 563.564872 95.698937 
L 565.159347 92.794018 
L 566.753823 89.073806 
L 568.348298 90.449718 
L 569.942774 89.073806 
L 571.537249 84.181323 
L 573.131725 90.398808 
L 574.7262 86.627565 
L 576.320676 89.736246 
L 577.915151 92.131577 
L 579.509627 84.996737 
L 581.104102 90.449718 
L 582.698578 90.55166 
L 584.293053 84.028471 
L 585.887529 86.474713 
L 587.482005 84.843885 
L 589.07648 87.595831 
L 590.670956 86.066945 
L 592.265431 88.76798 
L 593.859907 87.850625 
L 595.454382 83.416941 
L 597.048858 84.843885 
L 600.237809 86.780417 
L 601.832284 81.888055 
L 603.42676 85.761241 
L 605.021235 85.863183 
L 606.615711 84.894795 
L 608.210186 87.54492 
L 609.804662 84.385207 
L 611.399138 81.938966 
L 612.993613 84.487149 
L 614.588089 85.302563 
L 616.182564 83.977561 
L 617.77704 84.283265 
L 619.371515 80.206318 
L 620.965991 85.455415 
L 622.560466 83.722767 
L 624.154942 85.506447 
L 625.749417 80.868758 
L 627.343893 81.021731 
L 628.938368 84.436239 
L 630.532844 83.671735 
L 632.127319 85.302563 
L 633.721795 80.715906 
L 635.316271 83.722767 
L 636.910746 79.645698 
L 638.505222 80.9707 
L 640.099697 85.149711 
L 641.694173 79.238052 
L 643.288648 84.181323 
L 644.883124 81.276525 
L 646.477599 77.607224 
L 648.072075 78.932226 
L 649.66655 81.58223 
L 651.261026 82.652438 
L 652.855501 75.517719 
L 654.449977 80.715906 
L 656.044452 75.110073 
L 657.638928 77.658134 
L 659.233404 82.040908 
L 660.827879 79.900492 
L 662.422355 80.35917 
L 664.01683 78.677432 
L 665.611306 75.976397 
L 667.205781 74.753337 
L 668.800257 73.988833 
L 670.394732 79.288962 
L 671.989208 80.563054 
L 673.583683 77.046604 
L 675.178159 77.505282 
L 676.772634 74.447511 
L 678.36711 79.034168 
L 679.961585 78.269664 
L 681.556061 71.084035 
L 683.150537 74.651395 
L 684.745012 72.918625 
L 686.339488 74.192717 
L 687.933963 79.13611 
L 687.933963 79.13611 
" style="fill:none;stroke:#377eb8;stroke-linecap:square;stroke-opacity:0.25098;stroke-width:1.5;"/>
   </g>
   <g id="line2d_40">
    <path clip-path="url(#p6ebd89be13)" d="M 76.690123 375.715469 
L 77.249834 364.552569 
L 77.522649 375.715469 
M 83.117341 375.715469 
L 83.627736 369.476521 
L 85.222212 332.752281 
L 86.816687 353.678926 
L 88.411163 307.517222 
L 90.005638 367.424925 
L 91.600114 312.646395 
L 93.194589 323.725136 
L 94.789065 312.030855 
L 96.38354 319.006404 
L 97.978016 287.001017 
L 99.572492 304.234668 
L 101.166967 329.264506 
L 102.761443 277.153113 
L 104.355918 299.926256 
L 105.950394 283.308023 
L 107.544869 268.741507 
L 110.73382 273.870559 
L 112.328296 288.231975 
L 113.922771 279.820248 
L 115.517247 264.022654 
L 117.111722 281.461525 
L 118.706198 251.918054 
L 120.300673 275.101516 
L 121.895149 250.892317 
L 123.489625 245.763144 
L 125.0841 294.797204 
L 126.678576 263.202015 
L 128.273051 269.562146 
L 129.867527 251.918054 
L 131.462002 246.583783 
L 133.056478 250.892317 
L 134.650953 256.636786 
L 136.245429 270.382784 
L 137.839904 239.403135 
L 139.43438 231.196629 
L 141.028855 268.741507 
L 142.623331 240.428994 
L 144.217806 244.532186 
L 145.812282 229.760451 
L 147.406758 261.765959 
L 149.001233 242.890909 
L 150.595709 243.096008 
L 152.190184 241.454731 
L 153.78466 253.96965 
L 155.379135 254.995509 
L 156.973611 231.196629 
L 158.568086 240.018675 
L 160.162562 232.017267 
L 161.757037 215.193936 
L 163.351513 212.937119 
L 164.945988 224.01586 
L 166.540464 218.476489 
L 168.134939 218.271391 
L 169.729415 212.11648 
L 171.32389 197.139524 
L 172.918366 231.196629 
L 174.512842 238.172177 
L 176.107317 211.295842 
L 177.701793 211.295842 
L 179.296268 216.424893 
L 180.890744 231.606948 
L 182.485219 210.269983 
L 184.079695 243.301229 
L 185.67417 218.68171 
L 187.268646 211.706161 
L 188.863121 216.424893 
L 190.457597 217.861071 
L 192.052072 244.737407 
L 193.646548 204.525392 
L 195.241023 206.782209 
L 196.835499 199.191121 
L 198.429975 196.934426 
L 200.02445 210.269983 
L 201.618926 218.06617 
L 203.213401 221.759165 
L 204.807877 242.48059 
L 206.402352 201.242838 
L 207.996828 219.297128 
L 209.591303 197.549844 
L 211.185779 209.654444 
L 212.780254 225.041719 
L 214.37473 219.092029 
L 215.969205 195.908567 
L 217.563681 200.832519 
L 219.158156 261.150419 
L 220.752632 190.163976 
L 222.347108 179.495554 
L 223.941583 184.419385 
L 225.536059 213.552537 
L 227.130534 197.344745 
L 228.72501 195.087928 
L 230.319485 196.934426 
L 231.913961 194.062069 
L 233.508436 205.96157 
L 235.102912 214.373297 
L 236.697387 201.858256 
L 238.291863 201.653158 
L 239.886338 206.782209 
L 241.480814 215.809354 
L 243.075289 195.703346 
L 244.669765 184.214286 
L 246.264241 193.241431 
L 247.858716 206.782209 
L 249.453192 201.242838 
L 251.047667 216.014574 
L 252.642143 198.986022 
L 254.236618 209.244124 
L 255.831094 202.268576 
L 257.425569 192.626013 
L 259.020045 197.755064 
L 260.61452 196.113787 
L 262.208996 193.446651 
L 263.803471 196.729205 
L 265.397947 189.753657 
L 266.992422 208.013167 
L 268.586898 204.730613 
L 270.181374 198.780801 
L 271.775849 191.189835 
L 273.370325 180.726512 
L 274.9648 194.062069 
L 276.559276 195.498248 
L 278.153751 189.343337 
L 279.748227 181.34193 
L 281.342702 187.086521 
L 282.937178 186.265882 
L 284.531653 193.036332 
L 286.126129 186.265882 
L 287.720604 182.16269 
L 289.31508 181.54715 
L 290.909555 178.880015 
L 292.504031 181.54715 
L 294.098507 173.135424 
L 295.692982 180.931611 
L 297.287458 181.136831 
L 298.881933 199.80666 
L 300.476409 171.904466 
L 302.070884 176.447625 
L 303.66536 183.188427 
L 306.854311 176.212879 
L 308.448786 204.115073 
L 310.043262 197.549844 
L 311.637737 176.418099 
L 313.232213 181.136831 
L 314.826688 183.188427 
L 316.421164 187.907159 
L 318.01564 173.340644 
L 319.610115 184.624605 
L 321.204591 185.445244 
L 322.799066 172.109686 
L 324.393542 171.904466 
L 325.988017 186.060784 
L 327.582493 180.110972 
L 329.176968 165.749556 
L 330.771444 175.187141 
L 332.365919 186.060784 
L 333.960395 165.544457 
L 335.55487 172.930325 
L 337.149346 172.725105 
L 338.743821 185.445244 
L 340.338297 164.108279 
L 341.932773 176.00778 
L 343.527248 169.23733 
L 345.121724 195.293027 
L 346.716199 167.185734 
L 348.310675 169.032231 
L 349.90515 196.113787 
L 351.499626 205.346031 
L 353.094101 167.185734 
L 354.688577 191.805253 
L 356.283052 159.799866 
L 357.877528 170.057969 
L 359.472003 167.390954 
L 361.066479 167.596053 
L 362.660954 157.13273 
L 364.25543 177.033517 
L 365.849905 180.110972 
L 367.444381 176.00778 
L 369.038857 176.00778 
L 370.633332 177.238738 
L 372.227808 169.032231 
L 373.822283 164.313499 
L 375.416759 179.290334 
L 377.011234 188.11238 
L 378.60571 169.85287 
L 380.200185 180.521292 
L 381.794661 178.264596 
L 383.389136 180.726512 
L 384.983612 173.956062 
L 386.578087 168.621912 
L 388.172563 176.418099 
L 389.767038 170.878729 
L 391.361514 174.981921 
L 392.95599 165.134138 
L 394.550465 159.594767 
L 396.144941 170.057969 
L 397.739416 164.723819 
L 399.333892 151.183041 
L 400.928367 171.904466 
L 402.522843 173.135424 
L 404.117318 169.647649 
L 405.711794 168.006373 
L 407.306269 153.850177 
L 408.900745 179.905873 
L 410.49522 171.699367 
L 412.089696 152.003679 
L 413.684171 170.673508 
L 415.278647 172.314785 
L 416.873123 169.85287 
L 418.467598 156.312092 
L 420.062074 166.570194 
L 421.656549 163.08242 
L 423.251025 165.339237 
L 424.8455 164.723819 
L 426.439976 192.420792 
L 428.034451 163.08242 
L 429.628927 158.979228 
L 431.223402 162.261782 
L 432.817878 157.953369 
L 434.412353 171.083828 
L 436.006829 167.185734 
L 437.601304 156.517312 
L 439.19578 174.776822 
L 440.790256 159.799866 
L 442.384731 166.570194 
L 443.979207 168.006373 
L 445.573682 169.647649 
L 447.168158 184.624605 
L 448.762633 173.135424 
L 450.357109 172.725105 
L 451.951584 161.851462 
L 453.54606 168.416692 
L 455.140535 163.90318 
L 456.735011 158.158589 
L 458.329486 162.672101 
L 459.923962 159.799866 
L 461.518437 149.746863 
L 463.112913 180.521292 
L 464.707389 166.980635 
L 466.301864 169.442551 
L 467.89634 155.696552 
L 469.490815 165.339237 
L 471.085291 163.90318 
L 472.679766 164.518598 
L 474.274242 154.260496 
L 475.868717 160.825725 
L 477.463193 166.159875 
L 479.057668 156.517312 
L 480.652144 164.313499 
L 482.246619 162.877321 
L 483.841095 165.339237 
L 485.43557 159.799866 
L 487.030046 155.081134 
L 488.624522 177.238738 
L 490.218997 154.465595 
L 491.813473 170.263189 
L 493.407948 155.081134 
L 495.002424 171.289048 
L 496.596899 152.619219 
L 498.191375 163.287641 
L 499.78585 165.134138 
L 501.380326 169.032231 
L 502.974801 162.056683 
L 504.569277 158.568909 
L 506.163752 160.825725 
L 509.352703 154.670815 
L 510.947179 171.083828 
L 512.541655 171.289048 
L 514.13613 173.340644 
L 515.730606 162.261782 
L 517.325081 155.491453 
L 518.919557 170.057969 
L 520.514032 160.005087 
L 522.108508 158.568909 
L 523.702983 160.825725 
L 525.297459 164.928917 
L 528.48641 151.798459 
L 530.080885 158.568909 
L 531.675361 156.106993 
L 533.269836 164.518598 
L 534.864312 166.775415 
L 536.458788 150.97782 
L 538.053263 152.619219 
L 539.647739 154.670815 
L 541.242214 168.621912 
L 542.83669 161.851462 
L 544.431165 158.979228 
L 546.025641 152.208778 
L 549.214592 168.211593 
L 550.809067 169.442551 
L 552.403543 161.746969 
L 553.998018 161.236044 
L 555.592494 155.696552 
L 557.186969 159.389547 
L 558.781445 166.365096 
L 560.37592 152.413998 
L 561.970396 158.774007 
L 563.564872 142.155896 
L 565.159347 158.158589 
L 566.753823 151.59336 
L 568.348298 156.312092 
L 569.942774 155.081134 
L 571.537249 161.030824 
L 573.131725 144.82291 
L 574.7262 158.979228 
L 576.320676 166.365096 
L 577.915151 160.210185 
L 579.509627 157.953369 
L 581.104102 152.003679 
L 582.698578 155.081134 
L 585.887529 152.208778 
L 587.482005 157.54305 
L 589.07648 156.722411 
L 590.670956 158.568909 
L 592.265431 162.056683 
L 595.454382 150.157182 
L 597.048858 160.415406 
L 598.643333 166.159875 
L 600.237809 155.696552 
L 601.832284 155.901773 
L 603.42676 160.620505 
L 605.021235 159.799866 
L 606.615711 162.877321 
L 608.210186 154.875914 
L 609.804662 147.695266 
L 611.399138 162.056683 
L 612.993613 145.233351 
L 614.588089 146.464309 
L 617.77704 153.439857 
L 619.371515 163.08242 
L 620.965991 156.927632 
L 622.560466 147.490046 
L 624.154942 151.183041 
L 625.749417 158.568909 
L 627.343893 168.211593 
L 628.938368 141.745577 
L 630.532844 154.055275 
L 632.127319 148.721125 
L 633.721795 152.824318 
L 635.316271 158.158589 
L 636.910746 136.616404 
L 638.505222 142.976534 
L 640.099697 159.799866 
L 641.694173 162.261782 
L 643.288648 155.901773 
L 644.883124 144.412591 
L 646.477599 151.59336 
L 648.072075 161.646364 
L 649.66655 165.134138 
L 651.261026 152.003679 
L 652.855501 152.208778 
L 654.449977 166.365096 
L 656.044452 168.621912 
L 657.638928 152.413998 
L 659.233404 156.517312 
L 660.827879 161.030824 
L 662.422355 139.078441 
L 664.01683 157.953369 
L 665.611306 155.491453 
L 667.205781 157.953369 
L 668.800257 165.954776 
L 670.394732 151.38814 
L 671.989208 153.439857 
L 673.583683 145.64367 
L 675.178159 160.005087 
L 676.772634 152.824318 
L 678.36711 166.159875 
L 679.961585 154.875914 
L 681.556061 160.620505 
L 683.150537 162.672101 
L 684.745012 156.927632 
L 686.339488 155.286233 
L 687.933963 165.749556 
L 687.933963 165.749556 
" style="fill:none;stroke:#4daf4a;stroke-linecap:square;stroke-opacity:0.25098;stroke-width:1.5;"/>
   </g>
   <g id="patch_3">
    <path d="M 50.14375 337.159219 
L 50.14375 10.999219 
" style="fill:none;stroke:#000000;stroke-linecap:square;stroke-linejoin:miter;stroke-width:0.8;"/>
   </g>
   <g id="patch_4">
    <path d="M 719.74375 337.159219 
L 719.74375 10.999219 
" style="fill:none;stroke:#000000;stroke-linecap:square;stroke-linejoin:miter;stroke-width:0.8;"/>
   </g>
   <g id="patch_5">
    <path d="M 50.14375 337.159219 
L 719.74375 337.159219 
" style="fill:none;stroke:#000000;stroke-linecap:square;stroke-linejoin:miter;stroke-width:0.8;"/>
   </g>
   <g id="patch_6">
    <path d="M 50.14375 10.999219 
L 719.74375 10.999219 
" style="fill:none;stroke:#000000;stroke-linecap:square;stroke-linejoin:miter;stroke-width:0.8;"/>
   </g>
   <g id="legend_1">
    <g id="patch_7">
     <path d="M 57.14375 48.355469 
L 114.584375 48.355469 
Q 116.584375 48.355469 116.584375 46.355469 
L 116.584375 17.999219 
Q 116.584375 15.999219 114.584375 15.999219 
L 57.14375 15.999219 
Q 55.14375 15.999219 55.14375 17.999219 
L 55.14375 46.355469 
Q 55.14375 48.355469 57.14375 48.355469 
z
" style="fill:#ffffff;opacity:0.8;stroke:#cccccc;stroke-linejoin:miter;"/>
    </g>
    <g id="line2d_41">
     <path d="M 59.14375 24.097656 
L 79.14375 24.097656 
" style="fill:none;stroke:#377eb8;stroke-linecap:square;stroke-width:2;"/>
    </g>
    <g id="line2d_42"/>
    <g id="text_21">
     <!-- Train -->
     <defs>
      <path d="M -0.296875 72.90625 
L 61.375 72.90625 
L 61.375 64.59375 
L 35.5 64.59375 
L 35.5 0 
L 25.59375 0 
L 25.59375 64.59375 
L -0.296875 64.59375 
z
" id="DejaVuSans-84"/>
      <path d="M 9.421875 54.6875 
L 18.40625 54.6875 
L 18.40625 0 
L 9.421875 0 
z
M 9.421875 75.984375 
L 18.40625 75.984375 
L 18.40625 64.59375 
L 9.421875 64.59375 
z
" id="DejaVuSans-105"/>
      <path d="M 54.890625 33.015625 
L 54.890625 0 
L 45.90625 0 
L 45.90625 32.71875 
Q 45.90625 40.484375 42.875 44.328125 
Q 39.84375 48.1875 33.796875 48.1875 
Q 26.515625 48.1875 22.3125 43.546875 
Q 18.109375 38.921875 18.109375 30.90625 
L 18.109375 0 
L 9.078125 0 
L 9.078125 54.6875 
L 18.109375 54.6875 
L 18.109375 46.1875 
Q 21.34375 51.125 25.703125 53.5625 
Q 30.078125 56 35.796875 56 
Q 45.21875 56 50.046875 50.171875 
Q 54.890625 44.34375 54.890625 33.015625 
z
" id="DejaVuSans-110"/>
     </defs>
     <g transform="translate(87.14375 27.597656)scale(0.1 -0.1)">
      <use xlink:href="#DejaVuSans-84"/>
      <use x="60.865234" xlink:href="#DejaVuSans-114"/>
      <use x="101.978516" xlink:href="#DejaVuSans-97"/>
      <use x="163.257812" xlink:href="#DejaVuSans-105"/>
      <use x="191.041016" xlink:href="#DejaVuSans-110"/>
     </g>
    </g>
    <g id="line2d_43">
     <path d="M 59.14375 38.775781 
L 79.14375 38.775781 
" style="fill:none;stroke:#4daf4a;stroke-linecap:square;stroke-width:2;"/>
    </g>
    <g id="line2d_44"/>
    <g id="text_22">
     <!-- Test -->
     <defs>
      <path d="M 56.203125 29.59375 
L 56.203125 25.203125 
L 14.890625 25.203125 
Q 15.484375 15.921875 20.484375 11.0625 
Q 25.484375 6.203125 34.421875 6.203125 
Q 39.59375 6.203125 44.453125 7.46875 
Q 49.3125 8.734375 54.109375 11.28125 
L 54.109375 2.78125 
Q 49.265625 0.734375 44.1875 -0.34375 
Q 39.109375 -1.421875 33.890625 -1.421875 
Q 20.796875 -1.421875 13.15625 6.1875 
Q 5.515625 13.8125 5.515625 26.8125 
Q 5.515625 40.234375 12.765625 48.109375 
Q 20.015625 56 32.328125 56 
Q 43.359375 56 49.78125 48.890625 
Q 56.203125 41.796875 56.203125 29.59375 
z
M 47.21875 32.234375 
Q 47.125 39.59375 43.09375 43.984375 
Q 39.0625 48.390625 32.421875 48.390625 
Q 24.90625 48.390625 20.390625 44.140625 
Q 15.875 39.890625 15.1875 32.171875 
z
" id="DejaVuSans-101"/>
      <path d="M 44.28125 53.078125 
L 44.28125 44.578125 
Q 40.484375 46.53125 36.375 47.5 
Q 32.28125 48.484375 27.875 48.484375 
Q 21.1875 48.484375 17.84375 46.4375 
Q 14.5 44.390625 14.5 40.28125 
Q 14.5 37.15625 16.890625 35.375 
Q 19.28125 33.59375 26.515625 31.984375 
L 29.59375 31.296875 
Q 39.15625 29.25 43.1875 25.515625 
Q 47.21875 21.78125 47.21875 15.09375 
Q 47.21875 7.46875 41.1875 3.015625 
Q 35.15625 -1.421875 24.609375 -1.421875 
Q 20.21875 -1.421875 15.453125 -0.5625 
Q 10.6875 0.296875 5.421875 2 
L 5.421875 11.28125 
Q 10.40625 8.6875 15.234375 7.390625 
Q 20.0625 6.109375 24.8125 6.109375 
Q 31.15625 6.109375 34.5625 8.28125 
Q 37.984375 10.453125 37.984375 14.40625 
Q 37.984375 18.0625 35.515625 20.015625 
Q 33.0625 21.96875 24.703125 23.78125 
L 21.578125 24.515625 
Q 13.234375 26.265625 9.515625 29.90625 
Q 5.8125 33.546875 5.8125 39.890625 
Q 5.8125 47.609375 11.28125 51.796875 
Q 16.75 56 26.8125 56 
Q 31.78125 56 36.171875 55.265625 
Q 40.578125 54.546875 44.28125 53.078125 
z
" id="DejaVuSans-115"/>
      <path d="M 18.3125 70.21875 
L 18.3125 54.6875 
L 36.8125 54.6875 
L 36.8125 47.703125 
L 18.3125 47.703125 
L 18.3125 18.015625 
Q 18.3125 11.328125 20.140625 9.421875 
Q 21.96875 7.515625 27.59375 7.515625 
L 36.8125 7.515625 
L 36.8125 0 
L 27.59375 0 
Q 17.1875 0 13.234375 3.875 
Q 9.28125 7.765625 9.28125 18.015625 
L 9.28125 47.703125 
L 2.6875 47.703125 
L 2.6875 54.6875 
L 9.28125 54.6875 
L 9.28125 70.21875 
z
" id="DejaVuSans-116"/>
     </defs>
     <g transform="translate(87.14375 42.275781)scale(0.1 -0.1)">
      <use xlink:href="#DejaVuSans-84"/>
      <use x="60.818359" xlink:href="#DejaVuSans-101"/>
      <use x="122.341797" xlink:href="#DejaVuSans-115"/>
      <use x="174.441406" xlink:href="#DejaVuSans-116"/>
     </g>
    </g>
   </g>
  </g>
 </g>
 <defs>
  <clipPath id="p6ebd89be13">
   <rect height="326.16" width="669.6" x="50.14375" y="10.999219"/>
  </clipPath>
 </defs>
</svg>
