<?xml version="1.0" encoding="utf-8" standalone="no"?>
<!DOCTYPE svg PUBLIC "-//W3C//DTD SVG 1.1//EN"
  "http://www.w3.org/Graphics/SVG/1.1/DTD/svg11.dtd">
<!-- Created with matplotlib (https://matplotlib.org/) -->
<svg height="374.715469pt" version="1.1" viewBox="0 0 726.94375 374.715469" width="726.94375pt" xmlns="http://www.w3.org/2000/svg" xmlns:xlink="http://www.w3.org/1999/xlink">
 <defs>
  <style type="text/css">
*{stroke-linecap:butt;stroke-linejoin:round;white-space:pre;}
  </style>
 </defs>
 <g id="figure_1">
  <g id="patch_1">
   <path d="M 0 374.715469 
L 726.94375 374.715469 
L 726.94375 0 
L 0 0 
z
" style="fill:#ffffff;"/>
  </g>
  <g id="axes_1">
   <g id="patch_2">
    <path d="M 50.14375 337.159219 
L 719.74375 337.159219 
L 719.74375 10.999219 
L 50.14375 10.999219 
z
" style="fill:#ffffff;"/>
   </g>
   <g id="matplotlib.axis_1">
    <g id="xtick_1">
     <g id="line2d_1">
      <path clip-path="url(#p690f7ed507)" d="M 50.14375 337.159219 
L 50.14375 10.999219 
" style="fill:none;stroke:#b0b0b0;stroke-linecap:square;stroke-width:0.8;"/>
     </g>
     <g id="line2d_2">
      <defs>
       <path d="M 0 0 
L 0 3.5 
" id="m30fabc09dd" style="stroke:#000000;stroke-width:0.8;"/>
      </defs>
      <g>
       <use style="stroke:#000000;stroke-width:0.8;" x="50.14375" xlink:href="#m30fabc09dd" y="337.159219"/>
      </g>
     </g>
     <g id="text_1">
      <!-- 0 -->
      <defs>
       <path d="M 31.78125 66.40625 
Q 24.171875 66.40625 20.328125 58.90625 
Q 16.5 51.421875 16.5 36.375 
Q 16.5 21.390625 20.328125 13.890625 
Q 24.171875 6.390625 31.78125 6.390625 
Q 39.453125 6.390625 43.28125 13.890625 
Q 47.125 21.390625 47.125 36.375 
Q 47.125 51.421875 43.28125 58.90625 
Q 39.453125 66.40625 31.78125 66.40625 
z
M 31.78125 74.21875 
Q 44.046875 74.21875 50.515625 64.515625 
Q 56.984375 54.828125 56.984375 36.375 
Q 56.984375 17.96875 50.515625 8.265625 
Q 44.046875 -1.421875 31.78125 -1.421875 
Q 19.53125 -1.421875 13.0625 8.265625 
Q 6.59375 17.96875 6.59375 36.375 
Q 6.59375 54.828125 13.0625 64.515625 
Q 19.53125 74.21875 31.78125 74.21875 
z
" id="DejaVuSans-48"/>
      </defs>
      <g transform="translate(46.9625 351.757656)scale(0.1 -0.1)">
       <use xlink:href="#DejaVuSans-48"/>
      </g>
     </g>
    </g>
    <g id="xtick_2">
     <g id="line2d_3">
      <path clip-path="url(#p690f7ed507)" d="M 129.867527 337.159219 
L 129.867527 10.999219 
" style="fill:none;stroke:#b0b0b0;stroke-linecap:square;stroke-width:0.8;"/>
     </g>
     <g id="line2d_4">
      <g>
       <use style="stroke:#000000;stroke-width:0.8;" x="129.867527" xlink:href="#m30fabc09dd" y="337.159219"/>
      </g>
     </g>
     <g id="text_2">
      <!-- 50 -->
      <defs>
       <path d="M 10.796875 72.90625 
L 49.515625 72.90625 
L 49.515625 64.59375 
L 19.828125 64.59375 
L 19.828125 46.734375 
Q 21.96875 47.46875 24.109375 47.828125 
Q 26.265625 48.1875 28.421875 48.1875 
Q 40.625 48.1875 47.75 41.5 
Q 54.890625 34.8125 54.890625 23.390625 
Q 54.890625 11.625 47.5625 5.09375 
Q 40.234375 -1.421875 26.90625 -1.421875 
Q 22.3125 -1.421875 17.546875 -0.640625 
Q 12.796875 0.140625 7.71875 1.703125 
L 7.71875 11.625 
Q 12.109375 9.234375 16.796875 8.0625 
Q 21.484375 6.890625 26.703125 6.890625 
Q 35.15625 6.890625 40.078125 11.328125 
Q 45.015625 15.765625 45.015625 23.390625 
Q 45.015625 31 40.078125 35.4375 
Q 35.15625 39.890625 26.703125 39.890625 
Q 22.75 39.890625 18.8125 39.015625 
Q 14.890625 38.140625 10.796875 36.28125 
z
" id="DejaVuSans-53"/>
      </defs>
      <g transform="translate(123.505027 351.757656)scale(0.1 -0.1)">
       <use xlink:href="#DejaVuSans-53"/>
       <use x="63.623047" xlink:href="#DejaVuSans-48"/>
      </g>
     </g>
    </g>
    <g id="xtick_3">
     <g id="line2d_5">
      <path clip-path="url(#p690f7ed507)" d="M 209.591303 337.159219 
L 209.591303 10.999219 
" style="fill:none;stroke:#b0b0b0;stroke-linecap:square;stroke-width:0.8;"/>
     </g>
     <g id="line2d_6">
      <g>
       <use style="stroke:#000000;stroke-width:0.8;" x="209.591303" xlink:href="#m30fabc09dd" y="337.159219"/>
      </g>
     </g>
     <g id="text_3">
      <!-- 100 -->
      <defs>
       <path d="M 12.40625 8.296875 
L 28.515625 8.296875 
L 28.515625 63.921875 
L 10.984375 60.40625 
L 10.984375 69.390625 
L 28.421875 72.90625 
L 38.28125 72.90625 
L 38.28125 8.296875 
L 54.390625 8.296875 
L 54.390625 0 
L 12.40625 0 
z
" id="DejaVuSans-49"/>
      </defs>
      <g transform="translate(200.047553 351.757656)scale(0.1 -0.1)">
       <use xlink:href="#DejaVuSans-49"/>
       <use x="63.623047" xlink:href="#DejaVuSans-48"/>
       <use x="127.246094" xlink:href="#DejaVuSans-48"/>
      </g>
     </g>
    </g>
    <g id="xtick_4">
     <g id="line2d_7">
      <path clip-path="url(#p690f7ed507)" d="M 289.31508 337.159219 
L 289.31508 10.999219 
" style="fill:none;stroke:#b0b0b0;stroke-linecap:square;stroke-width:0.8;"/>
     </g>
     <g id="line2d_8">
      <g>
       <use style="stroke:#000000;stroke-width:0.8;" x="289.31508" xlink:href="#m30fabc09dd" y="337.159219"/>
      </g>
     </g>
     <g id="text_4">
      <!-- 150 -->
      <g transform="translate(279.77133 351.757656)scale(0.1 -0.1)">
       <use xlink:href="#DejaVuSans-49"/>
       <use x="63.623047" xlink:href="#DejaVuSans-53"/>
       <use x="127.246094" xlink:href="#DejaVuSans-48"/>
      </g>
     </g>
    </g>
    <g id="xtick_5">
     <g id="line2d_9">
      <path clip-path="url(#p690f7ed507)" d="M 369.038857 337.159219 
L 369.038857 10.999219 
" style="fill:none;stroke:#b0b0b0;stroke-linecap:square;stroke-width:0.8;"/>
     </g>
     <g id="line2d_10">
      <g>
       <use style="stroke:#000000;stroke-width:0.8;" x="369.038857" xlink:href="#m30fabc09dd" y="337.159219"/>
      </g>
     </g>
     <g id="text_5">
      <!-- 200 -->
      <defs>
       <path d="M 19.1875 8.296875 
L 53.609375 8.296875 
L 53.609375 0 
L 7.328125 0 
L 7.328125 8.296875 
Q 12.9375 14.109375 22.625 23.890625 
Q 32.328125 33.6875 34.8125 36.53125 
Q 39.546875 41.84375 41.421875 45.53125 
Q 43.3125 49.21875 43.3125 52.78125 
Q 43.3125 58.59375 39.234375 62.25 
Q 35.15625 65.921875 28.609375 65.921875 
Q 23.96875 65.921875 18.8125 64.3125 
Q 13.671875 62.703125 7.8125 59.421875 
L 7.8125 69.390625 
Q 13.765625 71.78125 18.9375 73 
Q 24.125 74.21875 28.421875 74.21875 
Q 39.75 74.21875 46.484375 68.546875 
Q 53.21875 62.890625 53.21875 53.421875 
Q 53.21875 48.921875 51.53125 44.890625 
Q 49.859375 40.875 45.40625 35.40625 
Q 44.1875 33.984375 37.640625 27.21875 
Q 31.109375 20.453125 19.1875 8.296875 
z
" id="DejaVuSans-50"/>
      </defs>
      <g transform="translate(359.495107 351.757656)scale(0.1 -0.1)">
       <use xlink:href="#DejaVuSans-50"/>
       <use x="63.623047" xlink:href="#DejaVuSans-48"/>
       <use x="127.246094" xlink:href="#DejaVuSans-48"/>
      </g>
     </g>
    </g>
    <g id="xtick_6">
     <g id="line2d_11">
      <path clip-path="url(#p690f7ed507)" d="M 448.762633 337.159219 
L 448.762633 10.999219 
" style="fill:none;stroke:#b0b0b0;stroke-linecap:square;stroke-width:0.8;"/>
     </g>
     <g id="line2d_12">
      <g>
       <use style="stroke:#000000;stroke-width:0.8;" x="448.762633" xlink:href="#m30fabc09dd" y="337.159219"/>
      </g>
     </g>
     <g id="text_6">
      <!-- 250 -->
      <g transform="translate(439.218883 351.757656)scale(0.1 -0.1)">
       <use xlink:href="#DejaVuSans-50"/>
       <use x="63.623047" xlink:href="#DejaVuSans-53"/>
       <use x="127.246094" xlink:href="#DejaVuSans-48"/>
      </g>
     </g>
    </g>
    <g id="xtick_7">
     <g id="line2d_13">
      <path clip-path="url(#p690f7ed507)" d="M 528.48641 337.159219 
L 528.48641 10.999219 
" style="fill:none;stroke:#b0b0b0;stroke-linecap:square;stroke-width:0.8;"/>
     </g>
     <g id="line2d_14">
      <g>
       <use style="stroke:#000000;stroke-width:0.8;" x="528.48641" xlink:href="#m30fabc09dd" y="337.159219"/>
      </g>
     </g>
     <g id="text_7">
      <!-- 300 -->
      <defs>
       <path d="M 40.578125 39.3125 
Q 47.65625 37.796875 51.625 33 
Q 55.609375 28.21875 55.609375 21.1875 
Q 55.609375 10.40625 48.1875 4.484375 
Q 40.765625 -1.421875 27.09375 -1.421875 
Q 22.515625 -1.421875 17.65625 -0.515625 
Q 12.796875 0.390625 7.625 2.203125 
L 7.625 11.71875 
Q 11.71875 9.328125 16.59375 8.109375 
Q 21.484375 6.890625 26.8125 6.890625 
Q 36.078125 6.890625 40.9375 10.546875 
Q 45.796875 14.203125 45.796875 21.1875 
Q 45.796875 27.640625 41.28125 31.265625 
Q 36.765625 34.90625 28.71875 34.90625 
L 20.21875 34.90625 
L 20.21875 43.015625 
L 29.109375 43.015625 
Q 36.375 43.015625 40.234375 45.921875 
Q 44.09375 48.828125 44.09375 54.296875 
Q 44.09375 59.90625 40.109375 62.90625 
Q 36.140625 65.921875 28.71875 65.921875 
Q 24.65625 65.921875 20.015625 65.03125 
Q 15.375 64.15625 9.8125 62.3125 
L 9.8125 71.09375 
Q 15.4375 72.65625 20.34375 73.4375 
Q 25.25 74.21875 29.59375 74.21875 
Q 40.828125 74.21875 47.359375 69.109375 
Q 53.90625 64.015625 53.90625 55.328125 
Q 53.90625 49.265625 50.4375 45.09375 
Q 46.96875 40.921875 40.578125 39.3125 
z
" id="DejaVuSans-51"/>
      </defs>
      <g transform="translate(518.94266 351.757656)scale(0.1 -0.1)">
       <use xlink:href="#DejaVuSans-51"/>
       <use x="63.623047" xlink:href="#DejaVuSans-48"/>
       <use x="127.246094" xlink:href="#DejaVuSans-48"/>
      </g>
     </g>
    </g>
    <g id="xtick_8">
     <g id="line2d_15">
      <path clip-path="url(#p690f7ed507)" d="M 608.210186 337.159219 
L 608.210186 10.999219 
" style="fill:none;stroke:#b0b0b0;stroke-linecap:square;stroke-width:0.8;"/>
     </g>
     <g id="line2d_16">
      <g>
       <use style="stroke:#000000;stroke-width:0.8;" x="608.210186" xlink:href="#m30fabc09dd" y="337.159219"/>
      </g>
     </g>
     <g id="text_8">
      <!-- 350 -->
      <g transform="translate(598.666436 351.757656)scale(0.1 -0.1)">
       <use xlink:href="#DejaVuSans-51"/>
       <use x="63.623047" xlink:href="#DejaVuSans-53"/>
       <use x="127.246094" xlink:href="#DejaVuSans-48"/>
      </g>
     </g>
    </g>
    <g id="xtick_9">
     <g id="line2d_17">
      <path clip-path="url(#p690f7ed507)" d="M 687.933963 337.159219 
L 687.933963 10.999219 
" style="fill:none;stroke:#b0b0b0;stroke-linecap:square;stroke-width:0.8;"/>
     </g>
     <g id="line2d_18">
      <g>
       <use style="stroke:#000000;stroke-width:0.8;" x="687.933963" xlink:href="#m30fabc09dd" y="337.159219"/>
      </g>
     </g>
     <g id="text_9">
      <!-- 400 -->
      <defs>
       <path d="M 37.796875 64.3125 
L 12.890625 25.390625 
L 37.796875 25.390625 
z
M 35.203125 72.90625 
L 47.609375 72.90625 
L 47.609375 25.390625 
L 58.015625 25.390625 
L 58.015625 17.1875 
L 47.609375 17.1875 
L 47.609375 0 
L 37.796875 0 
L 37.796875 17.1875 
L 4.890625 17.1875 
L 4.890625 26.703125 
z
" id="DejaVuSans-52"/>
      </defs>
      <g transform="translate(678.390213 351.757656)scale(0.1 -0.1)">
       <use xlink:href="#DejaVuSans-52"/>
       <use x="63.623047" xlink:href="#DejaVuSans-48"/>
       <use x="127.246094" xlink:href="#DejaVuSans-48"/>
      </g>
     </g>
    </g>
    <g id="text_10">
     <!-- Epoch -->
     <defs>
      <path d="M 9.8125 72.90625 
L 55.90625 72.90625 
L 55.90625 64.59375 
L 19.671875 64.59375 
L 19.671875 43.015625 
L 54.390625 43.015625 
L 54.390625 34.71875 
L 19.671875 34.71875 
L 19.671875 8.296875 
L 56.78125 8.296875 
L 56.78125 0 
L 9.8125 0 
z
" id="DejaVuSans-69"/>
      <path d="M 18.109375 8.203125 
L 18.109375 -20.796875 
L 9.078125 -20.796875 
L 9.078125 54.6875 
L 18.109375 54.6875 
L 18.109375 46.390625 
Q 20.953125 51.265625 25.265625 53.625 
Q 29.59375 56 35.59375 56 
Q 45.5625 56 51.78125 48.09375 
Q 58.015625 40.1875 58.015625 27.296875 
Q 58.015625 14.40625 51.78125 6.484375 
Q 45.5625 -1.421875 35.59375 -1.421875 
Q 29.59375 -1.421875 25.265625 0.953125 
Q 20.953125 3.328125 18.109375 8.203125 
z
M 48.6875 27.296875 
Q 48.6875 37.203125 44.609375 42.84375 
Q 40.53125 48.484375 33.40625 48.484375 
Q 26.265625 48.484375 22.1875 42.84375 
Q 18.109375 37.203125 18.109375 27.296875 
Q 18.109375 17.390625 22.1875 11.75 
Q 26.265625 6.109375 33.40625 6.109375 
Q 40.53125 6.109375 44.609375 11.75 
Q 48.6875 17.390625 48.6875 27.296875 
z
" id="DejaVuSans-112"/>
      <path d="M 30.609375 48.390625 
Q 23.390625 48.390625 19.1875 42.75 
Q 14.984375 37.109375 14.984375 27.296875 
Q 14.984375 17.484375 19.15625 11.84375 
Q 23.34375 6.203125 30.609375 6.203125 
Q 37.796875 6.203125 41.984375 11.859375 
Q 46.1875 17.53125 46.1875 27.296875 
Q 46.1875 37.015625 41.984375 42.703125 
Q 37.796875 48.390625 30.609375 48.390625 
z
M 30.609375 56 
Q 42.328125 56 49.015625 48.375 
Q 55.71875 40.765625 55.71875 27.296875 
Q 55.71875 13.875 49.015625 6.21875 
Q 42.328125 -1.421875 30.609375 -1.421875 
Q 18.84375 -1.421875 12.171875 6.21875 
Q 5.515625 13.875 5.515625 27.296875 
Q 5.515625 40.765625 12.171875 48.375 
Q 18.84375 56 30.609375 56 
z
" id="DejaVuSans-111"/>
      <path d="M 48.78125 52.59375 
L 48.78125 44.1875 
Q 44.96875 46.296875 41.140625 47.34375 
Q 37.3125 48.390625 33.40625 48.390625 
Q 24.65625 48.390625 19.8125 42.84375 
Q 14.984375 37.3125 14.984375 27.296875 
Q 14.984375 17.28125 19.8125 11.734375 
Q 24.65625 6.203125 33.40625 6.203125 
Q 37.3125 6.203125 41.140625 7.25 
Q 44.96875 8.296875 48.78125 10.40625 
L 48.78125 2.09375 
Q 45.015625 0.34375 40.984375 -0.53125 
Q 36.96875 -1.421875 32.421875 -1.421875 
Q 20.0625 -1.421875 12.78125 6.34375 
Q 5.515625 14.109375 5.515625 27.296875 
Q 5.515625 40.671875 12.859375 48.328125 
Q 20.21875 56 33.015625 56 
Q 37.15625 56 41.109375 55.140625 
Q 45.0625 54.296875 48.78125 52.59375 
z
" id="DejaVuSans-99"/>
      <path d="M 54.890625 33.015625 
L 54.890625 0 
L 45.90625 0 
L 45.90625 32.71875 
Q 45.90625 40.484375 42.875 44.328125 
Q 39.84375 48.1875 33.796875 48.1875 
Q 26.515625 48.1875 22.3125 43.546875 
Q 18.109375 38.921875 18.109375 30.90625 
L 18.109375 0 
L 9.078125 0 
L 9.078125 75.984375 
L 18.109375 75.984375 
L 18.109375 46.1875 
Q 21.34375 51.125 25.703125 53.5625 
Q 30.078125 56 35.796875 56 
Q 45.21875 56 50.046875 50.171875 
Q 54.890625 44.34375 54.890625 33.015625 
z
" id="DejaVuSans-104"/>
     </defs>
     <g transform="translate(369.632813 365.435781)scale(0.1 -0.1)">
      <use xlink:href="#DejaVuSans-69"/>
      <use x="63.183594" xlink:href="#DejaVuSans-112"/>
      <use x="126.660156" xlink:href="#DejaVuSans-111"/>
      <use x="187.841797" xlink:href="#DejaVuSans-99"/>
      <use x="242.822266" xlink:href="#DejaVuSans-104"/>
     </g>
    </g>
   </g>
   <g id="matplotlib.axis_2">
    <g id="ytick_1">
     <g id="line2d_19">
      <path clip-path="url(#p690f7ed507)" d="M 50.14375 337.159219 
L 719.74375 337.159219 
" style="fill:none;stroke:#b0b0b0;stroke-linecap:square;stroke-width:0.8;"/>
     </g>
     <g id="line2d_20">
      <defs>
       <path d="M 0 0 
L -3.5 0 
" id="m0b3bc7ab2d" style="stroke:#000000;stroke-width:0.8;"/>
      </defs>
      <g>
       <use style="stroke:#000000;stroke-width:0.8;" x="50.14375" xlink:href="#m0b3bc7ab2d" y="337.159219"/>
      </g>
     </g>
     <g id="text_11">
      <!-- 0.82 -->
      <defs>
       <path d="M 10.6875 12.40625 
L 21 12.40625 
L 21 0 
L 10.6875 0 
z
" id="DejaVuSans-46"/>
       <path d="M 31.78125 34.625 
Q 24.75 34.625 20.71875 30.859375 
Q 16.703125 27.09375 16.703125 20.515625 
Q 16.703125 13.921875 20.71875 10.15625 
Q 24.75 6.390625 31.78125 6.390625 
Q 38.8125 6.390625 42.859375 10.171875 
Q 46.921875 13.96875 46.921875 20.515625 
Q 46.921875 27.09375 42.890625 30.859375 
Q 38.875 34.625 31.78125 34.625 
z
M 21.921875 38.8125 
Q 15.578125 40.375 12.03125 44.71875 
Q 8.5 49.078125 8.5 55.328125 
Q 8.5 64.0625 14.71875 69.140625 
Q 20.953125 74.21875 31.78125 74.21875 
Q 42.671875 74.21875 48.875 69.140625 
Q 55.078125 64.0625 55.078125 55.328125 
Q 55.078125 49.078125 51.53125 44.71875 
Q 48 40.375 41.703125 38.8125 
Q 48.828125 37.15625 52.796875 32.3125 
Q 56.78125 27.484375 56.78125 20.515625 
Q 56.78125 9.90625 50.3125 4.234375 
Q 43.84375 -1.421875 31.78125 -1.421875 
Q 19.734375 -1.421875 13.25 4.234375 
Q 6.78125 9.90625 6.78125 20.515625 
Q 6.78125 27.484375 10.78125 32.3125 
Q 14.796875 37.15625 21.921875 38.8125 
z
M 18.3125 54.390625 
Q 18.3125 48.734375 21.84375 45.5625 
Q 25.390625 42.390625 31.78125 42.390625 
Q 38.140625 42.390625 41.71875 45.5625 
Q 45.3125 48.734375 45.3125 54.390625 
Q 45.3125 60.0625 41.71875 63.234375 
Q 38.140625 66.40625 31.78125 66.40625 
Q 25.390625 66.40625 21.84375 63.234375 
Q 18.3125 60.0625 18.3125 54.390625 
z
" id="DejaVuSans-56"/>
      </defs>
      <g transform="translate(20.878125 340.958437)scale(0.1 -0.1)">
       <use xlink:href="#DejaVuSans-48"/>
       <use x="63.623047" xlink:href="#DejaVuSans-46"/>
       <use x="95.410156" xlink:href="#DejaVuSans-56"/>
       <use x="159.033203" xlink:href="#DejaVuSans-50"/>
      </g>
     </g>
    </g>
    <g id="ytick_2">
     <g id="line2d_21">
      <path clip-path="url(#p690f7ed507)" d="M 50.14375 296.389219 
L 719.74375 296.389219 
" style="fill:none;stroke:#b0b0b0;stroke-linecap:square;stroke-width:0.8;"/>
     </g>
     <g id="line2d_22">
      <g>
       <use style="stroke:#000000;stroke-width:0.8;" x="50.14375" xlink:href="#m0b3bc7ab2d" y="296.389219"/>
      </g>
     </g>
     <g id="text_12">
      <!-- 0.84 -->
      <g transform="translate(20.878125 300.188437)scale(0.1 -0.1)">
       <use xlink:href="#DejaVuSans-48"/>
       <use x="63.623047" xlink:href="#DejaVuSans-46"/>
       <use x="95.410156" xlink:href="#DejaVuSans-56"/>
       <use x="159.033203" xlink:href="#DejaVuSans-52"/>
      </g>
     </g>
    </g>
    <g id="ytick_3">
     <g id="line2d_23">
      <path clip-path="url(#p690f7ed507)" d="M 50.14375 255.619219 
L 719.74375 255.619219 
" style="fill:none;stroke:#b0b0b0;stroke-linecap:square;stroke-width:0.8;"/>
     </g>
     <g id="line2d_24">
      <g>
       <use style="stroke:#000000;stroke-width:0.8;" x="50.14375" xlink:href="#m0b3bc7ab2d" y="255.619219"/>
      </g>
     </g>
     <g id="text_13">
      <!-- 0.86 -->
      <defs>
       <path d="M 33.015625 40.375 
Q 26.375 40.375 22.484375 35.828125 
Q 18.609375 31.296875 18.609375 23.390625 
Q 18.609375 15.53125 22.484375 10.953125 
Q 26.375 6.390625 33.015625 6.390625 
Q 39.65625 6.390625 43.53125 10.953125 
Q 47.40625 15.53125 47.40625 23.390625 
Q 47.40625 31.296875 43.53125 35.828125 
Q 39.65625 40.375 33.015625 40.375 
z
M 52.59375 71.296875 
L 52.59375 62.3125 
Q 48.875 64.0625 45.09375 64.984375 
Q 41.3125 65.921875 37.59375 65.921875 
Q 27.828125 65.921875 22.671875 59.328125 
Q 17.53125 52.734375 16.796875 39.40625 
Q 19.671875 43.65625 24.015625 45.921875 
Q 28.375 48.1875 33.59375 48.1875 
Q 44.578125 48.1875 50.953125 41.515625 
Q 57.328125 34.859375 57.328125 23.390625 
Q 57.328125 12.15625 50.6875 5.359375 
Q 44.046875 -1.421875 33.015625 -1.421875 
Q 20.359375 -1.421875 13.671875 8.265625 
Q 6.984375 17.96875 6.984375 36.375 
Q 6.984375 53.65625 15.1875 63.9375 
Q 23.390625 74.21875 37.203125 74.21875 
Q 40.921875 74.21875 44.703125 73.484375 
Q 48.484375 72.75 52.59375 71.296875 
z
" id="DejaVuSans-54"/>
      </defs>
      <g transform="translate(20.878125 259.418437)scale(0.1 -0.1)">
       <use xlink:href="#DejaVuSans-48"/>
       <use x="63.623047" xlink:href="#DejaVuSans-46"/>
       <use x="95.410156" xlink:href="#DejaVuSans-56"/>
       <use x="159.033203" xlink:href="#DejaVuSans-54"/>
      </g>
     </g>
    </g>
    <g id="ytick_4">
     <g id="line2d_25">
      <path clip-path="url(#p690f7ed507)" d="M 50.14375 214.849219 
L 719.74375 214.849219 
" style="fill:none;stroke:#b0b0b0;stroke-linecap:square;stroke-width:0.8;"/>
     </g>
     <g id="line2d_26">
      <g>
       <use style="stroke:#000000;stroke-width:0.8;" x="50.14375" xlink:href="#m0b3bc7ab2d" y="214.849219"/>
      </g>
     </g>
     <g id="text_14">
      <!-- 0.88 -->
      <g transform="translate(20.878125 218.648437)scale(0.1 -0.1)">
       <use xlink:href="#DejaVuSans-48"/>
       <use x="63.623047" xlink:href="#DejaVuSans-46"/>
       <use x="95.410156" xlink:href="#DejaVuSans-56"/>
       <use x="159.033203" xlink:href="#DejaVuSans-56"/>
      </g>
     </g>
    </g>
    <g id="ytick_5">
     <g id="line2d_27">
      <path clip-path="url(#p690f7ed507)" d="M 50.14375 174.079219 
L 719.74375 174.079219 
" style="fill:none;stroke:#b0b0b0;stroke-linecap:square;stroke-width:0.8;"/>
     </g>
     <g id="line2d_28">
      <g>
       <use style="stroke:#000000;stroke-width:0.8;" x="50.14375" xlink:href="#m0b3bc7ab2d" y="174.079219"/>
      </g>
     </g>
     <g id="text_15">
      <!-- 0.90 -->
      <defs>
       <path d="M 10.984375 1.515625 
L 10.984375 10.5 
Q 14.703125 8.734375 18.5 7.8125 
Q 22.3125 6.890625 25.984375 6.890625 
Q 35.75 6.890625 40.890625 13.453125 
Q 46.046875 20.015625 46.78125 33.40625 
Q 43.953125 29.203125 39.59375 26.953125 
Q 35.25 24.703125 29.984375 24.703125 
Q 19.046875 24.703125 12.671875 31.3125 
Q 6.296875 37.9375 6.296875 49.421875 
Q 6.296875 60.640625 12.9375 67.421875 
Q 19.578125 74.21875 30.609375 74.21875 
Q 43.265625 74.21875 49.921875 64.515625 
Q 56.59375 54.828125 56.59375 36.375 
Q 56.59375 19.140625 48.40625 8.859375 
Q 40.234375 -1.421875 26.421875 -1.421875 
Q 22.703125 -1.421875 18.890625 -0.6875 
Q 15.09375 0.046875 10.984375 1.515625 
z
M 30.609375 32.421875 
Q 37.25 32.421875 41.125 36.953125 
Q 45.015625 41.5 45.015625 49.421875 
Q 45.015625 57.28125 41.125 61.84375 
Q 37.25 66.40625 30.609375 66.40625 
Q 23.96875 66.40625 20.09375 61.84375 
Q 16.21875 57.28125 16.21875 49.421875 
Q 16.21875 41.5 20.09375 36.953125 
Q 23.96875 32.421875 30.609375 32.421875 
z
" id="DejaVuSans-57"/>
      </defs>
      <g transform="translate(20.878125 177.878437)scale(0.1 -0.1)">
       <use xlink:href="#DejaVuSans-48"/>
       <use x="63.623047" xlink:href="#DejaVuSans-46"/>
       <use x="95.410156" xlink:href="#DejaVuSans-57"/>
       <use x="159.033203" xlink:href="#DejaVuSans-48"/>
      </g>
     </g>
    </g>
    <g id="ytick_6">
     <g id="line2d_29">
      <path clip-path="url(#p690f7ed507)" d="M 50.14375 133.309219 
L 719.74375 133.309219 
" style="fill:none;stroke:#b0b0b0;stroke-linecap:square;stroke-width:0.8;"/>
     </g>
     <g id="line2d_30">
      <g>
       <use style="stroke:#000000;stroke-width:0.8;" x="50.14375" xlink:href="#m0b3bc7ab2d" y="133.309219"/>
      </g>
     </g>
     <g id="text_16">
      <!-- 0.92 -->
      <g transform="translate(20.878125 137.108437)scale(0.1 -0.1)">
       <use xlink:href="#DejaVuSans-48"/>
       <use x="63.623047" xlink:href="#DejaVuSans-46"/>
       <use x="95.410156" xlink:href="#DejaVuSans-57"/>
       <use x="159.033203" xlink:href="#DejaVuSans-50"/>
      </g>
     </g>
    </g>
    <g id="ytick_7">
     <g id="line2d_31">
      <path clip-path="url(#p690f7ed507)" d="M 50.14375 92.539219 
L 719.74375 92.539219 
" style="fill:none;stroke:#b0b0b0;stroke-linecap:square;stroke-width:0.8;"/>
     </g>
     <g id="line2d_32">
      <g>
       <use style="stroke:#000000;stroke-width:0.8;" x="50.14375" xlink:href="#m0b3bc7ab2d" y="92.539219"/>
      </g>
     </g>
     <g id="text_17">
      <!-- 0.94 -->
      <g transform="translate(20.878125 96.338437)scale(0.1 -0.1)">
       <use xlink:href="#DejaVuSans-48"/>
       <use x="63.623047" xlink:href="#DejaVuSans-46"/>
       <use x="95.410156" xlink:href="#DejaVuSans-57"/>
       <use x="159.033203" xlink:href="#DejaVuSans-52"/>
      </g>
     </g>
    </g>
    <g id="ytick_8">
     <g id="line2d_33">
      <path clip-path="url(#p690f7ed507)" d="M 50.14375 51.769219 
L 719.74375 51.769219 
" style="fill:none;stroke:#b0b0b0;stroke-linecap:square;stroke-width:0.8;"/>
     </g>
     <g id="line2d_34">
      <g>
       <use style="stroke:#000000;stroke-width:0.8;" x="50.14375" xlink:href="#m0b3bc7ab2d" y="51.769219"/>
      </g>
     </g>
     <g id="text_18">
      <!-- 0.96 -->
      <g transform="translate(20.878125 55.568437)scale(0.1 -0.1)">
       <use xlink:href="#DejaVuSans-48"/>
       <use x="63.623047" xlink:href="#DejaVuSans-46"/>
       <use x="95.410156" xlink:href="#DejaVuSans-57"/>
       <use x="159.033203" xlink:href="#DejaVuSans-54"/>
      </g>
     </g>
    </g>
    <g id="ytick_9">
     <g id="line2d_35">
      <path clip-path="url(#p690f7ed507)" d="M 50.14375 10.999219 
L 719.74375 10.999219 
" style="fill:none;stroke:#b0b0b0;stroke-linecap:square;stroke-width:0.8;"/>
     </g>
     <g id="line2d_36">
      <g>
       <use style="stroke:#000000;stroke-width:0.8;" x="50.14375" xlink:href="#m0b3bc7ab2d" y="10.999219"/>
      </g>
     </g>
     <g id="text_19">
      <!-- 0.98 -->
      <g transform="translate(20.878125 14.798437)scale(0.1 -0.1)">
       <use xlink:href="#DejaVuSans-48"/>
       <use x="63.623047" xlink:href="#DejaVuSans-46"/>
       <use x="95.410156" xlink:href="#DejaVuSans-57"/>
       <use x="159.033203" xlink:href="#DejaVuSans-56"/>
      </g>
     </g>
    </g>
    <g id="text_20">
     <!-- Accuracy -->
     <defs>
      <path d="M 34.1875 63.1875 
L 20.796875 26.90625 
L 47.609375 26.90625 
z
M 28.609375 72.90625 
L 39.796875 72.90625 
L 67.578125 0 
L 57.328125 0 
L 50.6875 18.703125 
L 17.828125 18.703125 
L 11.1875 0 
L 0.78125 0 
z
" id="DejaVuSans-65"/>
      <path d="M 8.5 21.578125 
L 8.5 54.6875 
L 17.484375 54.6875 
L 17.484375 21.921875 
Q 17.484375 14.15625 20.5 10.265625 
Q 23.53125 6.390625 29.59375 6.390625 
Q 36.859375 6.390625 41.078125 11.03125 
Q 45.3125 15.671875 45.3125 23.6875 
L 45.3125 54.6875 
L 54.296875 54.6875 
L 54.296875 0 
L 45.3125 0 
L 45.3125 8.40625 
Q 42.046875 3.421875 37.71875 1 
Q 33.40625 -1.421875 27.6875 -1.421875 
Q 18.265625 -1.421875 13.375 4.4375 
Q 8.5 10.296875 8.5 21.578125 
z
M 31.109375 56 
z
" id="DejaVuSans-117"/>
      <path d="M 41.109375 46.296875 
Q 39.59375 47.171875 37.8125 47.578125 
Q 36.03125 48 33.890625 48 
Q 26.265625 48 22.1875 43.046875 
Q 18.109375 38.09375 18.109375 28.8125 
L 18.109375 0 
L 9.078125 0 
L 9.078125 54.6875 
L 18.109375 54.6875 
L 18.109375 46.1875 
Q 20.953125 51.171875 25.484375 53.578125 
Q 30.03125 56 36.53125 56 
Q 37.453125 56 38.578125 55.875 
Q 39.703125 55.765625 41.0625 55.515625 
z
" id="DejaVuSans-114"/>
      <path d="M 34.28125 27.484375 
Q 23.390625 27.484375 19.1875 25 
Q 14.984375 22.515625 14.984375 16.5 
Q 14.984375 11.71875 18.140625 8.90625 
Q 21.296875 6.109375 26.703125 6.109375 
Q 34.1875 6.109375 38.703125 11.40625 
Q 43.21875 16.703125 43.21875 25.484375 
L 43.21875 27.484375 
z
M 52.203125 31.203125 
L 52.203125 0 
L 43.21875 0 
L 43.21875 8.296875 
Q 40.140625 3.328125 35.546875 0.953125 
Q 30.953125 -1.421875 24.3125 -1.421875 
Q 15.921875 -1.421875 10.953125 3.296875 
Q 6 8.015625 6 15.921875 
Q 6 25.140625 12.171875 29.828125 
Q 18.359375 34.515625 30.609375 34.515625 
L 43.21875 34.515625 
L 43.21875 35.40625 
Q 43.21875 41.609375 39.140625 45 
Q 35.0625 48.390625 27.6875 48.390625 
Q 23 48.390625 18.546875 47.265625 
Q 14.109375 46.140625 10.015625 43.890625 
L 10.015625 52.203125 
Q 14.9375 54.109375 19.578125 55.046875 
Q 24.21875 56 28.609375 56 
Q 40.484375 56 46.34375 49.84375 
Q 52.203125 43.703125 52.203125 31.203125 
z
" id="DejaVuSans-97"/>
      <path d="M 32.171875 -5.078125 
Q 28.375 -14.84375 24.75 -17.8125 
Q 21.140625 -20.796875 15.09375 -20.796875 
L 7.90625 -20.796875 
L 7.90625 -13.28125 
L 13.1875 -13.28125 
Q 16.890625 -13.28125 18.9375 -11.515625 
Q 21 -9.765625 23.484375 -3.21875 
L 25.09375 0.875 
L 2.984375 54.6875 
L 12.5 54.6875 
L 29.59375 11.921875 
L 46.6875 54.6875 
L 56.203125 54.6875 
z
" id="DejaVuSans-121"/>
     </defs>
     <g transform="translate(14.798438 196.994062)rotate(-90)scale(0.1 -0.1)">
      <use xlink:href="#DejaVuSans-65"/>
      <use x="68.392578" xlink:href="#DejaVuSans-99"/>
      <use x="123.373047" xlink:href="#DejaVuSans-99"/>
      <use x="178.353516" xlink:href="#DejaVuSans-117"/>
      <use x="241.732422" xlink:href="#DejaVuSans-114"/>
      <use x="282.845703" xlink:href="#DejaVuSans-97"/>
      <use x="344.125" xlink:href="#DejaVuSans-99"/>
      <use x="399.105469" xlink:href="#DejaVuSans-121"/>
     </g>
    </g>
   </g>
   <g id="line2d_37">
    <path clip-path="url(#p690f7ed507)" d="M 87.109983 375.715469 
L 88.674515 365.976856 
L 90.585012 355.227175 
L 93.132343 342.058913 
L 96.316505 326.872954 
L 99.500668 312.999385 
L 102.047999 302.782318 
L 104.595329 293.296952 
L 107.142659 284.495187 
L 110.326822 274.381014 
L 113.510985 265.165861 
L 116.695148 256.75578 
L 119.879311 249.056824 
L 123.063473 241.975044 
L 126.247636 235.416494 
L 130.068632 228.104617 
L 133.889627 221.25479 
L 138.347455 213.751426 
L 142.805283 206.747012 
L 147.263111 200.215067 
L 151.720939 194.129112 
L 156.178767 188.462668 
L 160.636595 183.189255 
L 165.094423 178.282393 
L 169.552251 173.715603 
L 174.010079 169.462405 
L 178.467907 165.49632 
L 183.562568 161.281249 
L 188.657228 157.367071 
L 194.388721 153.274066 
L 200.120214 149.455573 
L 207.125373 145.079232 
L 215.404196 140.190552 
L 224.319852 135.1801 
L 233.235508 130.419972 
L 242.151164 125.900102 
L 251.703653 121.312561 
L 261.256141 116.97689 
L 270.80863 112.880708 
L 280.997951 108.761467 
L 291.187272 104.8856 
L 302.013426 101.017348 
L 312.839579 97.388857 
L 324.302566 93.788225 
L 336.402384 90.233609 
L 349.139036 86.737725 
L 362.51252 83.306807 
L 376.522836 79.939848 
L 391.169985 76.640309 
L 406.453967 73.422818 
L 422.374781 70.300596 
L 438.932428 67.284169 
L 456.126908 64.380976 
L 473.95822 61.594949 
L 493.063197 58.837689 
L 513.441839 56.1248 
L 535.730979 53.387137 
L 560.567449 50.565119 
L 590.49858 47.397951 
L 636.350525 42.802607 
L 686.660298 37.700679 
L 687.933963 37.566329 
L 687.933963 37.566329 
" style="fill:none;stroke:#377eb8;stroke-linecap:square;stroke-width:2;"/>
   </g>
   <g id="line2d_38">
    <path clip-path="url(#p690f7ed507)" d="M 82.291822 375.715469 
L 83.579854 365.372374 
L 85.490352 351.937756 
L 87.400849 340.40583 
L 89.311347 330.361904 
L 91.221845 321.391283 
L 93.769175 310.478262 
L 96.316505 300.539543 
L 98.863836 291.51461 
L 101.411166 283.34345 
L 103.958496 275.96605 
L 106.505827 269.322397 
L 109.053157 263.352478 
L 111.600487 257.99628 
L 114.147817 253.19379 
L 116.695148 248.884995 
L 119.242478 245.009883 
L 121.789808 241.508439 
L 124.973971 237.565681 
L 128.158134 233.995799 
L 131.979129 230.03918 
L 137.07379 225.089464 
L 142.16845 220.465179 
L 147.263111 216.150239 
L 152.357772 212.128559 
L 157.452432 208.384052 
L 162.547093 204.900632 
L 167.641753 201.662214 
L 173.373246 198.291818 
L 179.10474 195.188239 
L 184.836233 192.328574 
L 191.204558 189.409383 
L 197.572884 186.731627 
L 204.578042 184.027454 
L 212.220033 181.318151 
L 220.498857 178.618588 
L 228.77768 176.146354 
L 237.693336 173.723801 
L 246.608992 171.5347 
L 256.161481 169.430509 
L 265.713969 167.557084 
L 275.90329 165.791421 
L 286.729444 164.152944 
L 298.19243 162.654289 
L 310.292249 161.299847 
L 323.665733 160.028305 
L 339.586547 158.752164 
L 359.965189 157.360264 
L 435.748265 152.598004 
L 503.88935 148.487146 
L 556.109621 145.555542 
L 601.324734 143.236642 
L 642.082018 141.364776 
L 680.291972 139.83193 
L 687.933963 139.553895 
L 687.933963 139.553895 
" style="fill:none;stroke:#4daf4a;stroke-linecap:square;stroke-width:2;"/>
   </g>
   <g id="line2d_39">
    <path clip-path="url(#p690f7ed507)" d="M 87.709881 375.715469 
L 88.411163 370.896417 
L 90.005638 357.646156 
L 91.600114 346.383458 
L 93.194589 339.758327 
L 94.789065 328.699391 
L 96.38354 328.750423 
L 97.978016 321.004052 
L 99.572492 312.034744 
L 101.166967 310.352884 
L 102.761443 295.879563 
L 104.355918 288.642902 
L 105.950394 290.630465 
L 107.544869 278.96 
L 109.139345 277.17632 
L 110.73382 277.940823 
L 112.328296 268.920483 
L 113.922771 264.435768 
L 115.517247 259.135639 
L 117.111722 257.912579 
L 118.706198 255.466337 
L 120.300673 251.695094 
L 121.895149 249.758562 
L 123.489625 243.64302 
L 125.0841 234.316853 
L 126.678576 239.769834 
L 128.273051 224.481099 
L 129.867527 227.182134 
L 131.462002 225.857133 
L 133.056478 219.333944 
L 134.650953 218.212704 
L 136.245429 216.581998 
L 137.839904 211.638605 
L 139.43438 211.944309 
L 141.028855 208.529923 
L 144.217806 203.178763 
L 145.812282 201.446115 
L 149.001233 195.84016 
L 150.595709 193.292098 
L 152.190184 192.78251 
L 153.78466 192.527595 
L 155.379135 188.858293 
L 156.973611 187.482381 
L 158.568086 183.965932 
L 160.162562 186.565025 
L 161.757037 182.182252 
L 163.351513 183.20155 
L 164.945988 177.035097 
L 166.540464 178.920597 
L 168.134939 175.811915 
L 169.729415 174.079267 
L 171.32389 174.537824 
L 172.918366 169.54352 
L 174.512842 168.014635 
L 176.107317 168.065666 
L 177.701793 170.002198 
L 179.296268 162.357891 
L 180.890744 166.842485 
L 182.485219 159.402062 
L 184.079695 161.491446 
L 185.67417 158.535616 
L 187.268646 157.159704 
L 188.863121 159.30012 
L 190.457597 155.732761 
L 192.052072 158.535616 
L 193.646548 159.045326 
L 195.241023 154.203875 
L 196.835499 151.248045 
L 198.429975 150.636515 
L 200.02445 149.15854 
L 201.618926 149.923044 
L 203.213401 145.54027 
L 204.807877 146.865272 
L 206.402352 140.444025 
L 207.996828 144.317089 
L 209.591303 150.3816 
L 211.185779 143.756591 
L 212.780254 140.596877 
L 214.37473 134.277451 
L 215.969205 144.266179 
L 217.563681 134.430424 
L 219.158156 138.762166 
L 220.752632 139.781463 
L 222.347108 131.066827 
L 223.941583 135.755426 
L 227.130534 133.971746 
L 228.72501 134.277451 
L 230.319485 128.21294 
L 231.913961 130.200503 
L 233.508436 125.81773 
L 235.102912 132.697655 
L 236.697387 125.919672 
L 238.291863 131.117859 
L 239.886338 132.238977 
L 241.480814 127.754262 
L 243.075289 133.767863 
L 244.669765 122.301281 
L 246.264241 122.454254 
L 247.858716 121.384046 
L 249.453192 122.097518 
L 251.047667 114.249206 
L 252.642143 120.313839 
L 254.236618 118.173301 
L 255.831094 119.447393 
L 257.425569 116.899331 
L 259.020045 118.071481 
L 260.61452 119.651277 
L 262.208996 114.758916 
L 263.803471 117.256067 
L 265.397947 116.083917 
L 266.992422 116.899331 
L 268.586898 111.803086 
L 270.181374 114.300238 
L 271.775849 110.936641 
L 274.9648 111.44635 
L 276.559276 110.070317 
L 278.153751 108.490521 
L 279.748227 111.955938 
L 281.342702 109.305935 
L 282.937178 107.369281 
L 284.531653 111.548171 
L 286.126129 107.165397 
L 287.720604 103.496096 
L 289.31508 103.903864 
L 290.909555 103.547128 
L 292.504031 106.910603 
L 294.098507 103.292334 
L 295.692982 104.31151 
L 297.287458 101.508654 
L 298.881933 103.954774 
L 300.476409 98.552824 
L 302.070884 102.578862 
L 303.66536 99.113323 
L 305.259835 96.820055 
L 306.854311 102.629772 
L 308.448786 95.545963 
L 310.043262 98.29803 
L 311.637737 95.545963 
L 313.232213 94.628729 
L 314.826688 94.526787 
L 316.421164 94.985465 
L 318.01564 95.800879 
L 321.204591 93.813315 
L 322.799066 96.463319 
L 324.393542 92.386371 
L 325.988017 97.788321 
L 327.582493 95.596995 
L 329.176968 96.667203 
L 330.771444 93.50749 
L 332.365919 91.774842 
L 333.960395 92.386371 
L 335.55487 89.532484 
L 337.149346 88.869922 
L 338.743821 88.869922 
L 341.932773 91.825752 
L 343.527248 87.54492 
L 345.121724 87.442978 
L 346.716199 83.722767 
L 348.310675 90.449718 
L 349.90515 85.608267 
L 351.499626 84.079503 
L 353.094101 87.748804 
L 356.283052 85.200621 
L 357.877528 80.868758 
L 359.472003 82.703469 
L 361.066479 85.965003 
L 362.660954 83.620825 
L 364.25543 85.812151 
L 365.849905 78.473548 
L 367.444381 82.958263 
L 370.633332 82.958263 
L 372.227808 83.213057 
L 373.822283 80.613964 
L 375.416759 84.283265 
L 377.011234 78.932226 
L 378.60571 79.543756 
L 380.200185 74.498543 
L 381.794661 76.79181 
L 383.389136 78.830284 
L 384.983612 73.937923 
L 386.578087 77.301398 
L 388.172563 75.517719 
L 389.767038 78.677432 
L 391.361514 77.658134 
L 392.95599 76.893752 
L 394.550465 73.835981 
L 396.144941 77.96396 
L 397.739416 78.6264 
L 399.333892 75.874455 
L 400.928367 76.435074 
L 402.522843 72.459947 
L 404.117318 72.103211 
L 405.711794 77.40334 
L 407.306269 67.873412 
L 408.900745 74.906189 
L 410.49522 70.676268 
L 412.089696 74.498543 
L 413.684171 71.797507 
L 415.278647 73.275361 
L 416.873123 73.479245 
L 418.467598 70.319532 
L 420.062074 71.491681 
L 421.656549 68.128206 
L 423.251025 66.191552 
L 424.8455 70.574326 
L 426.439976 70.778209 
L 428.034451 67.82238 
L 429.628927 68.230148 
L 431.223402 66.089732 
L 432.817878 70.319532 
L 434.412353 65.631054 
L 436.006829 67.312792 
L 437.601304 63.745432 
L 439.19578 70.21759 
L 440.790256 64.509815 
L 442.384731 66.089732 
L 443.979207 67.26176 
L 445.573682 63.031961 
L 447.168158 66.446468 
L 448.762633 65.580022 
L 450.357109 63.694401 
L 451.951584 67.720438 
L 453.54606 64.356962 
L 455.140535 64.713698 
L 456.735011 64.306052 
L 458.329486 65.834816 
L 459.923962 63.745432 
L 461.518437 63.235723 
L 463.112913 64.866551 
L 464.707389 64.20411 
L 466.301864 64.662788 
L 467.89634 62.165515 
L 469.490815 61.605017 
L 471.085291 61.553985 
L 472.679766 60.738571 
L 474.274242 62.878987 
L 477.463193 58.343362 
L 479.057668 63.388697 
L 480.652144 58.292451 
L 482.246619 61.808779 
L 483.841095 56.253978 
L 485.43557 60.738571 
L 487.030046 58.954892 
L 488.624522 61.605017 
L 490.218997 62.216547 
L 491.813473 62.675225 
L 493.407948 59.719395 
L 495.002424 56.101004 
L 496.596899 61.808779 
L 498.191375 56.101004 
L 499.78585 56.865508 
L 501.380326 56.101004 
L 502.974801 56.763566 
L 504.569277 60.687661 
L 506.163752 54.470176 
L 507.758228 57.935715 
L 509.352703 59.311628 
L 510.947179 57.120302 
L 512.541655 56.916418 
L 514.13613 54.01162 
L 515.730606 55.28559 
L 517.325081 59.413569 
L 518.919557 55.438564 
L 520.514032 55.030796 
L 522.108508 56.916418 
L 523.702983 53.960588 
L 525.297459 54.826912 
L 526.891934 55.438564 
L 530.080885 52.482734 
L 531.675361 52.941412 
L 533.269836 51.106701 
L 534.864312 51.667321 
L 536.458788 53.552942 
L 538.053263 53.909678 
L 539.647739 51.259553 
L 541.242214 50.699055 
L 542.83669 54.67406 
L 544.431165 53.196206 
L 546.025641 49.679757 
L 547.620116 52.737528 
L 549.214592 54.877944 
L 550.809067 52.635586 
L 552.403543 53.196206 
L 553.998018 49.272111 
L 555.592494 49.781699 
L 557.186969 51.463437 
L 558.781445 51.055791 
L 560.37592 53.501911 
L 561.970396 50.800875 
L 563.564872 49.272111 
L 565.159347 50.648023 
L 566.753823 46.87678 
L 568.348298 47.386489 
L 569.942774 49.475873 
L 571.537249 49.526905 
L 573.131725 52.22794 
L 574.7262 45.144132 
L 576.320676 52.83947 
L 577.915151 47.845046 
L 579.509627 50.546081 
L 581.104102 45.806572 
L 582.698578 48.456697 
L 584.293053 49.832609 
L 585.887529 43.564214 
L 587.482005 48.252813 
L 589.07648 48.354755 
L 590.670956 46.87678 
L 592.265431 45.60281 
L 593.859907 46.316281 
L 595.454382 48.048929 
L 598.643333 46.214339 
L 600.237809 45.959545 
L 601.832284 46.061366 
L 603.42676 45.806572 
L 605.021235 47.998019 
L 606.615711 47.896077 
L 608.210186 45.806572 
L 609.804662 43.105536 
L 611.399138 48.201903 
L 612.993613 44.073924 
L 614.588089 44.277686 
L 616.182564 42.901774 
L 617.77704 43.971982 
L 619.371515 43.768098 
L 620.965991 42.341154 
L 622.560466 44.328718 
L 624.154942 44.583512 
L 625.749417 47.182605 
L 627.343893 47.335458 
L 628.938368 44.583512 
L 630.532844 41.372888 
L 632.127319 43.411362 
L 633.721795 42.850742 
L 635.316271 41.678593 
L 636.910746 43.717188 
L 638.505222 44.940248 
L 640.099697 42.08636 
L 641.694173 38.569911 
L 643.288648 42.850742 
L 644.883124 44.073924 
L 646.477599 41.525741 
L 648.072075 41.169005 
L 649.66655 41.169005 
L 651.261026 42.08636 
L 654.449977 40.557475 
L 656.044452 41.169005 
L 657.638928 38.162265 
L 660.827879 41.729624 
L 662.422355 38.722763 
L 664.01683 41.423799 
L 665.611306 41.016152 
L 667.205781 37.295819 
L 668.800257 41.220036 
L 670.394732 37.448793 
L 671.989208 40.047887 
L 673.583683 36.888173 
L 675.178159 35.51214 
L 676.772634 39.079499 
L 678.36711 38.671853 
L 679.961585 38.620943 
L 681.556061 40.965121 
L 683.150537 37.041025 
L 684.745012 41.423799 
L 686.339488 36.786231 
L 687.933963 38.162265 
L 687.933963 38.162265 
" style="fill:none;stroke:#377eb8;stroke-linecap:square;stroke-opacity:0.25098;stroke-width:1.5;"/>
   </g>
   <g id="line2d_40">
    <path clip-path="url(#p690f7ed507)" d="M 81.668692 375.715469 
L 82.033261 369.476521 
L 82.965718 375.715469 
M 85.062125 375.715469 
L 85.222212 375.221112 
L 86.816687 347.318918 
L 88.411163 353.473828 
L 90.005638 311.620536 
L 91.600114 326.597371 
L 93.194589 298.695298 
L 94.789065 301.772753 
L 96.38354 312.235954 
L 97.978016 290.48867 
L 99.572492 274.485977 
L 101.166967 281.461525 
L 102.761443 267.920747 
L 104.355918 267.715649 
L 105.950394 267.715649 
L 107.544869 273.460239 
L 109.139345 261.765959 
L 110.73382 276.332474 
L 112.328296 242.27537 
L 113.922771 243.916768 
L 115.517247 252.533594 
L 117.111722 243.301229 
L 118.706198 266.484691 
L 120.300673 253.149012 
L 121.895149 247.404543 
L 123.489625 247.404543 
L 125.0841 234.068864 
L 126.678576 248.43028 
L 128.273051 230.78631 
L 129.867527 239.813454 
L 131.462002 218.886809 
L 133.056478 230.78631 
L 134.650953 225.862357 
L 136.245429 218.476489 
L 137.839904 239.403135 
L 139.43438 217.040311 
L 141.028855 213.757757 
L 142.623331 230.991408 
L 144.217806 221.964264 
L 145.812282 218.68171 
L 147.406758 212.731899 
L 149.001233 212.5268 
L 150.595709 211.500941 
L 152.190184 205.96157 
L 153.78466 206.987429 
L 155.379135 203.089214 
L 156.973611 200.627299 
L 158.568086 215.809354 
L 160.162562 201.858256 
L 161.757037 210.064763 
L 163.351513 214.168077 
L 164.945988 203.704754 
L 166.540464 189.548558 
L 168.134939 207.808068 
L 169.729415 194.677609 
L 171.32389 192.420792 
L 172.918366 200.011881 
L 174.512842 194.472389 
L 176.107317 189.958877 
L 177.701793 202.678895 
L 179.296268 192.831112 
L 180.890744 200.832519 
L 182.485219 179.905873 
L 184.079695 202.884115 
L 185.67417 180.110972 
L 187.268646 189.343337 
L 188.863121 188.522699 
L 190.457597 204.935712 
L 192.052072 191.394934 
L 193.646548 187.907159 
L 195.241023 194.472389 
L 196.835499 191.805253 
L 198.429975 199.601561 
L 200.02445 184.009066 
L 201.618926 180.931611 
L 203.213401 206.37189 
L 204.807877 181.752371 
L 206.402352 187.70206 
L 207.996828 167.596053 
L 209.591303 176.623198 
L 211.185779 174.366503 
L 212.780254 181.136831 
L 214.37473 173.545743 
L 215.969205 169.442551 
L 217.563681 184.624605 
L 219.158156 177.854277 
L 220.752632 183.598747 
L 222.347108 179.700653 
L 223.941583 181.752371 
L 225.536059 174.571602 
L 227.130534 177.854277 
L 228.72501 186.881422 
L 230.319485 180.110972 
L 231.913961 172.520006 
L 233.508436 178.059376 
L 235.102912 175.39224 
L 236.697387 168.211593 
L 238.291863 170.468409 
L 239.886338 180.931611 
L 241.480814 178.880015 
L 243.075289 152.003679 
L 244.669765 179.290334 
L 246.264241 166.365096 
L 247.858716 172.725105 
L 249.453192 158.979228 
L 251.047667 163.08242 
L 252.642143 166.159875 
L 254.236618 170.878729 
L 255.831094 163.90318 
L 257.425569 166.365096 
L 259.020045 178.059376 
L 260.61452 182.367789 
L 262.208996 161.441143 
L 263.803471 174.161283 
L 265.397947 163.287641 
L 266.992422 170.057969 
L 268.586898 171.699367 
L 270.181374 165.339237 
L 271.775849 165.134138 
L 273.370325 164.313499 
L 274.9648 162.467002 
L 276.559276 165.954776 
L 278.153751 163.492861 
L 281.342702 160.620505 
L 282.937178 155.286233 
L 284.531653 162.261782 
L 286.126129 157.953369 
L 287.720604 161.236044 
L 289.31508 175.187141 
L 290.909555 155.696552 
L 292.504031 169.442551 
L 294.098507 160.620505 
L 295.692982 163.492861 
L 297.287458 165.339237 
L 298.881933 162.467002 
L 300.476409 166.775415 
L 302.070884 162.971973 
L 303.66536 168.416692 
L 305.259835 164.108279 
L 306.854311 161.851462 
L 308.448786 162.261782 
L 310.043262 168.416692 
L 311.637737 163.69796 
L 313.232213 162.467002 
L 314.826688 161.646364 
L 316.421164 170.263189 
L 318.01564 152.824318 
L 319.610115 168.006373 
L 321.204591 154.260496 
L 322.799066 169.85287 
L 324.393542 165.544457 
L 325.988017 162.056683 
L 327.582493 160.210185 
L 329.176968 168.621912 
L 330.771444 149.952083 
L 332.365919 152.208778 
L 333.960395 162.672101 
L 335.55487 158.979228 
L 337.149346 160.005087 
L 338.743821 153.644956 
L 340.338297 164.108279 
L 341.932773 161.030824 
L 343.527248 151.38814 
L 346.716199 160.825725 
L 348.310675 153.234637 
L 349.90515 154.670815 
L 351.499626 159.389547 
L 353.094101 149.746863 
L 354.688577 149.131445 
L 356.283052 171.289048 
L 357.877528 164.928917 
L 359.472003 157.13273 
L 361.066479 152.208778 
L 362.660954 151.59336 
L 364.25543 160.005087 
L 365.849905 157.337951 
L 367.444381 162.672101 
L 369.038857 166.365096 
L 370.633332 161.441143 
L 372.227808 163.492861 
L 373.822283 152.208778 
L 375.416759 167.390954 
L 377.011234 156.927632 
L 378.60571 152.413998 
L 380.200185 166.570194 
L 381.794661 151.59336 
L 383.389136 151.183041 
L 384.983612 150.157182 
L 386.578087 152.619219 
L 388.172563 161.236044 
L 389.767038 166.570194 
L 391.361514 167.596053 
L 392.95599 146.053989 
L 394.550465 158.158589 
L 396.144941 155.081134 
L 397.739416 149.746863 
L 399.333892 156.312092 
L 400.928367 136.616404 
L 402.522843 156.722411 
L 404.117318 153.644956 
L 405.711794 151.798459 
L 407.306269 159.799866 
L 408.900745 148.105586 
L 410.49522 151.59336 
L 413.684171 139.48876 
L 415.278647 148.310685 
L 416.873123 147.284947 
L 418.467598 142.976534 
L 420.062074 153.234637 
L 421.656549 161.236044 
L 423.251025 153.850177 
L 424.8455 145.43845 
L 426.439976 156.517312 
L 428.034451 147.284947 
L 429.628927 157.337951 
L 431.223402 145.028131 
L 432.817878 151.183041 
L 434.412353 150.157182 
L 436.006829 146.669408 
L 437.601304 146.874628 
L 439.19578 147.490046 
L 440.790256 152.824318 
L 442.384731 148.105586 
L 443.979207 158.979228 
L 445.573682 165.954776 
L 447.168158 151.798459 
L 448.762633 153.850177 
L 450.357109 158.774007 
L 451.951584 152.619219 
L 453.54606 158.158589 
L 455.140535 146.464309 
L 456.735011 148.721125 
L 458.329486 153.234637 
L 459.923962 149.746863 
L 461.518437 147.284947 
L 463.112913 157.74827 
L 464.707389 140.514497 
L 466.301864 152.619219 
L 467.89634 138.462901 
L 469.490815 148.310685 
L 471.085291 146.053989 
L 472.679766 156.312092 
L 474.274242 144.82291 
L 475.868717 152.413998 
L 477.463193 151.798459 
L 479.057668 151.38814 
L 480.652144 152.619219 
L 482.246619 145.848769 
L 483.841095 149.746863 
L 485.43557 150.567501 
L 487.030046 135.795765 
L 488.624522 151.59336 
L 490.218997 144.207492 
L 491.813473 153.234637 
L 493.407948 151.798459 
L 495.002424 150.772721 
L 496.596899 164.108279 
L 498.191375 153.850177 
L 499.78585 163.69796 
L 501.380326 147.079727 
L 502.974801 144.207492 
L 506.163752 154.260496 
L 507.758228 148.105586 
L 509.352703 158.774007 
L 510.947179 154.055275 
L 512.541655 154.260496 
L 514.13613 146.464309 
L 515.730606 149.131445 
L 517.325081 147.695266 
L 518.919557 143.386854 
L 520.514032 147.695266 
L 522.108508 144.617811 
L 523.702983 143.591953 
L 525.297459 133.949268 
L 526.891934 153.850177 
L 528.48641 146.669408 
L 530.080885 146.053989 
L 531.675361 157.54305 
L 533.269836 152.003679 
L 534.864312 153.439857 
L 536.458788 143.797173 
L 538.053263 147.695266 
L 539.647739 146.259088 
L 541.242214 147.079727 
L 542.83669 154.670815 
L 544.431165 152.619219 
L 546.025641 148.926224 
L 547.620116 148.310685 
L 549.214592 156.106993 
L 550.809067 144.82291 
L 552.403543 148.883819 
L 553.998018 149.131445 
L 555.592494 149.541764 
L 557.186969 142.566215 
L 558.781445 143.386854 
L 560.37592 143.181633 
L 561.970396 147.079727 
L 563.564872 147.900365 
L 565.159347 150.97782 
L 566.753823 148.105586 
L 568.348298 143.181633 
L 569.942774 142.155896 
L 571.537249 149.131445 
L 573.131725 145.43845 
L 574.7262 140.719718 
L 576.320676 141.335257 
L 577.915151 143.797173 
L 579.509627 135.180347 
L 581.104102 136.821624 
L 582.698578 142.976534 
L 584.293053 140.924817 
L 585.887529 146.669408 
L 587.482005 150.772721 
L 589.07648 133.744169 
L 590.670956 128.204799 
L 592.265431 141.335257 
L 593.859907 135.590667 
L 595.454382 145.848769 
L 597.048858 141.540356 
L 598.643333 135.385446 
L 600.237809 149.746863 
L 601.832284 144.002272 
L 603.42676 134.564808 
L 605.021235 143.797173 
L 606.615711 139.078441 
L 608.210186 142.360995 
L 609.804662 137.642263 
L 611.399138 144.82291 
L 612.993613 134.975127 
L 614.588089 138.873221 
L 616.182564 150.97782 
L 617.77704 142.771314 
L 619.371515 133.538949 
L 620.965991 138.873221 
L 622.560466 149.336543 
L 624.154942 141.745577 
L 625.749417 131.282254 
L 627.343893 147.284947 
L 628.938368 138.462901 
L 630.532844 143.797173 
L 632.127319 141.130037 
L 633.721795 144.617811 
L 635.316271 152.413998 
L 636.910746 142.155896 
L 638.505222 136.821624 
L 640.099697 144.002272 
L 641.694173 145.233351 
L 643.288648 140.104178 
L 644.883124 144.002272 
L 646.477599 135.180347 
L 648.072075 153.029538 
L 649.66655 134.564808 
L 651.261026 139.899079 
L 652.855501 132.923531 
L 654.449977 145.64367 
L 656.044452 143.591953 
L 657.638928 136.821624 
L 659.233404 138.873221 
L 660.827879 141.540356 
L 662.422355 160.620505 
L 664.01683 137.231944 
L 665.611306 141.950676 
L 667.205781 136.616404 
L 668.800257 145.233351 
L 670.394732 137.847483 
L 671.989208 126.5634 
L 673.583683 145.64367 
L 675.178159 145.43845 
L 676.772634 132.102892 
L 678.36711 152.824318 
L 679.961585 132.923531 
L 681.556061 139.693859 
L 683.150537 142.771314 
L 684.745012 133.949268 
L 686.339488 147.695266 
L 687.933963 137.026723 
L 687.933963 137.026723 
" style="fill:none;stroke:#4daf4a;stroke-linecap:square;stroke-opacity:0.25098;stroke-width:1.5;"/>
   </g>
   <g id="patch_3">
    <path d="M 50.14375 337.159219 
L 50.14375 10.999219 
" style="fill:none;stroke:#000000;stroke-linecap:square;stroke-linejoin:miter;stroke-width:0.8;"/>
   </g>
   <g id="patch_4">
    <path d="M 719.74375 337.159219 
L 719.74375 10.999219 
" style="fill:none;stroke:#000000;stroke-linecap:square;stroke-linejoin:miter;stroke-width:0.8;"/>
   </g>
   <g id="patch_5">
    <path d="M 50.14375 337.159219 
L 719.74375 337.159219 
" style="fill:none;stroke:#000000;stroke-linecap:square;stroke-linejoin:miter;stroke-width:0.8;"/>
   </g>
   <g id="patch_6">
    <path d="M 50.14375 10.999219 
L 719.74375 10.999219 
" style="fill:none;stroke:#000000;stroke-linecap:square;stroke-linejoin:miter;stroke-width:0.8;"/>
   </g>
   <g id="legend_1">
    <g id="patch_7">
     <path d="M 57.14375 48.355469 
L 114.584375 48.355469 
Q 116.584375 48.355469 116.584375 46.355469 
L 116.584375 17.999219 
Q 116.584375 15.999219 114.584375 15.999219 
L 57.14375 15.999219 
Q 55.14375 15.999219 55.14375 17.999219 
L 55.14375 46.355469 
Q 55.14375 48.355469 57.14375 48.355469 
z
" style="fill:#ffffff;opacity:0.8;stroke:#cccccc;stroke-linejoin:miter;"/>
    </g>
    <g id="line2d_41">
     <path d="M 59.14375 24.097656 
L 79.14375 24.097656 
" style="fill:none;stroke:#377eb8;stroke-linecap:square;stroke-width:2;"/>
    </g>
    <g id="line2d_42"/>
    <g id="text_21">
     <!-- Train -->
     <defs>
      <path d="M -0.296875 72.90625 
L 61.375 72.90625 
L 61.375 64.59375 
L 35.5 64.59375 
L 35.5 0 
L 25.59375 0 
L 25.59375 64.59375 
L -0.296875 64.59375 
z
" id="DejaVuSans-84"/>
      <path d="M 9.421875 54.6875 
L 18.40625 54.6875 
L 18.40625 0 
L 9.421875 0 
z
M 9.421875 75.984375 
L 18.40625 75.984375 
L 18.40625 64.59375 
L 9.421875 64.59375 
z
" id="DejaVuSans-105"/>
      <path d="M 54.890625 33.015625 
L 54.890625 0 
L 45.90625 0 
L 45.90625 32.71875 
Q 45.90625 40.484375 42.875 44.328125 
Q 39.84375 48.1875 33.796875 48.1875 
Q 26.515625 48.1875 22.3125 43.546875 
Q 18.109375 38.921875 18.109375 30.90625 
L 18.109375 0 
L 9.078125 0 
L 9.078125 54.6875 
L 18.109375 54.6875 
L 18.109375 46.1875 
Q 21.34375 51.125 25.703125 53.5625 
Q 30.078125 56 35.796875 56 
Q 45.21875 56 50.046875 50.171875 
Q 54.890625 44.34375 54.890625 33.015625 
z
" id="DejaVuSans-110"/>
     </defs>
     <g transform="translate(87.14375 27.597656)scale(0.1 -0.1)">
      <use xlink:href="#DejaVuSans-84"/>
      <use x="60.865234" xlink:href="#DejaVuSans-114"/>
      <use x="101.978516" xlink:href="#DejaVuSans-97"/>
      <use x="163.257812" xlink:href="#DejaVuSans-105"/>
      <use x="191.041016" xlink:href="#DejaVuSans-110"/>
     </g>
    </g>
    <g id="line2d_43">
     <path d="M 59.14375 38.775781 
L 79.14375 38.775781 
" style="fill:none;stroke:#4daf4a;stroke-linecap:square;stroke-width:2;"/>
    </g>
    <g id="line2d_44"/>
    <g id="text_22">
     <!-- Test -->
     <defs>
      <path d="M 56.203125 29.59375 
L 56.203125 25.203125 
L 14.890625 25.203125 
Q 15.484375 15.921875 20.484375 11.0625 
Q 25.484375 6.203125 34.421875 6.203125 
Q 39.59375 6.203125 44.453125 7.46875 
Q 49.3125 8.734375 54.109375 11.28125 
L 54.109375 2.78125 
Q 49.265625 0.734375 44.1875 -0.34375 
Q 39.109375 -1.421875 33.890625 -1.421875 
Q 20.796875 -1.421875 13.15625 6.1875 
Q 5.515625 13.8125 5.515625 26.8125 
Q 5.515625 40.234375 12.765625 48.109375 
Q 20.015625 56 32.328125 56 
Q 43.359375 56 49.78125 48.890625 
Q 56.203125 41.796875 56.203125 29.59375 
z
M 47.21875 32.234375 
Q 47.125 39.59375 43.09375 43.984375 
Q 39.0625 48.390625 32.421875 48.390625 
Q 24.90625 48.390625 20.390625 44.140625 
Q 15.875 39.890625 15.1875 32.171875 
z
" id="DejaVuSans-101"/>
      <path d="M 44.28125 53.078125 
L 44.28125 44.578125 
Q 40.484375 46.53125 36.375 47.5 
Q 32.28125 48.484375 27.875 48.484375 
Q 21.1875 48.484375 17.84375 46.4375 
Q 14.5 44.390625 14.5 40.28125 
Q 14.5 37.15625 16.890625 35.375 
Q 19.28125 33.59375 26.515625 31.984375 
L 29.59375 31.296875 
Q 39.15625 29.25 43.1875 25.515625 
Q 47.21875 21.78125 47.21875 15.09375 
Q 47.21875 7.46875 41.1875 3.015625 
Q 35.15625 -1.421875 24.609375 -1.421875 
Q 20.21875 -1.421875 15.453125 -0.5625 
Q 10.6875 0.296875 5.421875 2 
L 5.421875 11.28125 
Q 10.40625 8.6875 15.234375 7.390625 
Q 20.0625 6.109375 24.8125 6.109375 
Q 31.15625 6.109375 34.5625 8.28125 
Q 37.984375 10.453125 37.984375 14.40625 
Q 37.984375 18.0625 35.515625 20.015625 
Q 33.0625 21.96875 24.703125 23.78125 
L 21.578125 24.515625 
Q 13.234375 26.265625 9.515625 29.90625 
Q 5.8125 33.546875 5.8125 39.890625 
Q 5.8125 47.609375 11.28125 51.796875 
Q 16.75 56 26.8125 56 
Q 31.78125 56 36.171875 55.265625 
Q 40.578125 54.546875 44.28125 53.078125 
z
" id="DejaVuSans-115"/>
      <path d="M 18.3125 70.21875 
L 18.3125 54.6875 
L 36.8125 54.6875 
L 36.8125 47.703125 
L 18.3125 47.703125 
L 18.3125 18.015625 
Q 18.3125 11.328125 20.140625 9.421875 
Q 21.96875 7.515625 27.59375 7.515625 
L 36.8125 7.515625 
L 36.8125 0 
L 27.59375 0 
Q 17.1875 0 13.234375 3.875 
Q 9.28125 7.765625 9.28125 18.015625 
L 9.28125 47.703125 
L 2.6875 47.703125 
L 2.6875 54.6875 
L 9.28125 54.6875 
L 9.28125 70.21875 
z
" id="DejaVuSans-116"/>
     </defs>
     <g transform="translate(87.14375 42.275781)scale(0.1 -0.1)">
      <use xlink:href="#DejaVuSans-84"/>
      <use x="60.818359" xlink:href="#DejaVuSans-101"/>
      <use x="122.341797" xlink:href="#DejaVuSans-115"/>
      <use x="174.441406" xlink:href="#DejaVuSans-116"/>
     </g>
    </g>
   </g>
  </g>
 </g>
 <defs>
  <clipPath id="p690f7ed507">
   <rect height="326.16" width="669.6" x="50.14375" y="10.999219"/>
  </clipPath>
 </defs>
</svg>
