<?xml version="1.0" encoding="utf-8" standalone="no"?>
<!DOCTYPE svg PUBLIC "-//W3C//DTD SVG 1.1//EN"
  "http://www.w3.org/Graphics/SVG/1.1/DTD/svg11.dtd">
<!-- Created with matplotlib (https://matplotlib.org/) -->
<svg height="374.715469pt" version="1.1" viewBox="0 0 726.94375 374.715469" width="726.94375pt" xmlns="http://www.w3.org/2000/svg" xmlns:xlink="http://www.w3.org/1999/xlink">
 <defs>
  <style type="text/css">
*{stroke-linecap:butt;stroke-linejoin:round;white-space:pre;}
  </style>
 </defs>
 <g id="figure_1">
  <g id="patch_1">
   <path d="M 0 374.715469 
L 726.94375 374.715469 
L 726.94375 0 
L 0 0 
z
" style="fill:#ffffff;"/>
  </g>
  <g id="axes_1">
   <g id="patch_2">
    <path d="M 50.14375 337.159219 
L 719.74375 337.159219 
L 719.74375 10.999219 
L 50.14375 10.999219 
z
" style="fill:#ffffff;"/>
   </g>
   <g id="matplotlib.axis_1">
    <g id="xtick_1">
     <g id="line2d_1">
      <path clip-path="url(#p7cbb55545d)" d="M 50.14375 337.159219 
L 50.14375 10.999219 
" style="fill:none;stroke:#b0b0b0;stroke-linecap:square;stroke-width:0.8;"/>
     </g>
     <g id="line2d_2">
      <defs>
       <path d="M 0 0 
L 0 3.5 
" id="mfb1dfa74d0" style="stroke:#000000;stroke-width:0.8;"/>
      </defs>
      <g>
       <use style="stroke:#000000;stroke-width:0.8;" x="50.14375" xlink:href="#mfb1dfa74d0" y="337.159219"/>
      </g>
     </g>
     <g id="text_1">
      <!-- 0 -->
      <defs>
       <path d="M 31.78125 66.40625 
Q 24.171875 66.40625 20.328125 58.90625 
Q 16.5 51.421875 16.5 36.375 
Q 16.5 21.390625 20.328125 13.890625 
Q 24.171875 6.390625 31.78125 6.390625 
Q 39.453125 6.390625 43.28125 13.890625 
Q 47.125 21.390625 47.125 36.375 
Q 47.125 51.421875 43.28125 58.90625 
Q 39.453125 66.40625 31.78125 66.40625 
z
M 31.78125 74.21875 
Q 44.046875 74.21875 50.515625 64.515625 
Q 56.984375 54.828125 56.984375 36.375 
Q 56.984375 17.96875 50.515625 8.265625 
Q 44.046875 -1.421875 31.78125 -1.421875 
Q 19.53125 -1.421875 13.0625 8.265625 
Q 6.59375 17.96875 6.59375 36.375 
Q 6.59375 54.828125 13.0625 64.515625 
Q 19.53125 74.21875 31.78125 74.21875 
z
" id="DejaVuSans-48"/>
      </defs>
      <g transform="translate(46.9625 351.757656)scale(0.1 -0.1)">
       <use xlink:href="#DejaVuSans-48"/>
      </g>
     </g>
    </g>
    <g id="xtick_2">
     <g id="line2d_3">
      <path clip-path="url(#p7cbb55545d)" d="M 129.867527 337.159219 
L 129.867527 10.999219 
" style="fill:none;stroke:#b0b0b0;stroke-linecap:square;stroke-width:0.8;"/>
     </g>
     <g id="line2d_4">
      <g>
       <use style="stroke:#000000;stroke-width:0.8;" x="129.867527" xlink:href="#mfb1dfa74d0" y="337.159219"/>
      </g>
     </g>
     <g id="text_2">
      <!-- 50 -->
      <defs>
       <path d="M 10.796875 72.90625 
L 49.515625 72.90625 
L 49.515625 64.59375 
L 19.828125 64.59375 
L 19.828125 46.734375 
Q 21.96875 47.46875 24.109375 47.828125 
Q 26.265625 48.1875 28.421875 48.1875 
Q 40.625 48.1875 47.75 41.5 
Q 54.890625 34.8125 54.890625 23.390625 
Q 54.890625 11.625 47.5625 5.09375 
Q 40.234375 -1.421875 26.90625 -1.421875 
Q 22.3125 -1.421875 17.546875 -0.640625 
Q 12.796875 0.140625 7.71875 1.703125 
L 7.71875 11.625 
Q 12.109375 9.234375 16.796875 8.0625 
Q 21.484375 6.890625 26.703125 6.890625 
Q 35.15625 6.890625 40.078125 11.328125 
Q 45.015625 15.765625 45.015625 23.390625 
Q 45.015625 31 40.078125 35.4375 
Q 35.15625 39.890625 26.703125 39.890625 
Q 22.75 39.890625 18.8125 39.015625 
Q 14.890625 38.140625 10.796875 36.28125 
z
" id="DejaVuSans-53"/>
      </defs>
      <g transform="translate(123.505027 351.757656)scale(0.1 -0.1)">
       <use xlink:href="#DejaVuSans-53"/>
       <use x="63.623047" xlink:href="#DejaVuSans-48"/>
      </g>
     </g>
    </g>
    <g id="xtick_3">
     <g id="line2d_5">
      <path clip-path="url(#p7cbb55545d)" d="M 209.591303 337.159219 
L 209.591303 10.999219 
" style="fill:none;stroke:#b0b0b0;stroke-linecap:square;stroke-width:0.8;"/>
     </g>
     <g id="line2d_6">
      <g>
       <use style="stroke:#000000;stroke-width:0.8;" x="209.591303" xlink:href="#mfb1dfa74d0" y="337.159219"/>
      </g>
     </g>
     <g id="text_3">
      <!-- 100 -->
      <defs>
       <path d="M 12.40625 8.296875 
L 28.515625 8.296875 
L 28.515625 63.921875 
L 10.984375 60.40625 
L 10.984375 69.390625 
L 28.421875 72.90625 
L 38.28125 72.90625 
L 38.28125 8.296875 
L 54.390625 8.296875 
L 54.390625 0 
L 12.40625 0 
z
" id="DejaVuSans-49"/>
      </defs>
      <g transform="translate(200.047553 351.757656)scale(0.1 -0.1)">
       <use xlink:href="#DejaVuSans-49"/>
       <use x="63.623047" xlink:href="#DejaVuSans-48"/>
       <use x="127.246094" xlink:href="#DejaVuSans-48"/>
      </g>
     </g>
    </g>
    <g id="xtick_4">
     <g id="line2d_7">
      <path clip-path="url(#p7cbb55545d)" d="M 289.31508 337.159219 
L 289.31508 10.999219 
" style="fill:none;stroke:#b0b0b0;stroke-linecap:square;stroke-width:0.8;"/>
     </g>
     <g id="line2d_8">
      <g>
       <use style="stroke:#000000;stroke-width:0.8;" x="289.31508" xlink:href="#mfb1dfa74d0" y="337.159219"/>
      </g>
     </g>
     <g id="text_4">
      <!-- 150 -->
      <g transform="translate(279.77133 351.757656)scale(0.1 -0.1)">
       <use xlink:href="#DejaVuSans-49"/>
       <use x="63.623047" xlink:href="#DejaVuSans-53"/>
       <use x="127.246094" xlink:href="#DejaVuSans-48"/>
      </g>
     </g>
    </g>
    <g id="xtick_5">
     <g id="line2d_9">
      <path clip-path="url(#p7cbb55545d)" d="M 369.038857 337.159219 
L 369.038857 10.999219 
" style="fill:none;stroke:#b0b0b0;stroke-linecap:square;stroke-width:0.8;"/>
     </g>
     <g id="line2d_10">
      <g>
       <use style="stroke:#000000;stroke-width:0.8;" x="369.038857" xlink:href="#mfb1dfa74d0" y="337.159219"/>
      </g>
     </g>
     <g id="text_5">
      <!-- 200 -->
      <defs>
       <path d="M 19.1875 8.296875 
L 53.609375 8.296875 
L 53.609375 0 
L 7.328125 0 
L 7.328125 8.296875 
Q 12.9375 14.109375 22.625 23.890625 
Q 32.328125 33.6875 34.8125 36.53125 
Q 39.546875 41.84375 41.421875 45.53125 
Q 43.3125 49.21875 43.3125 52.78125 
Q 43.3125 58.59375 39.234375 62.25 
Q 35.15625 65.921875 28.609375 65.921875 
Q 23.96875 65.921875 18.8125 64.3125 
Q 13.671875 62.703125 7.8125 59.421875 
L 7.8125 69.390625 
Q 13.765625 71.78125 18.9375 73 
Q 24.125 74.21875 28.421875 74.21875 
Q 39.75 74.21875 46.484375 68.546875 
Q 53.21875 62.890625 53.21875 53.421875 
Q 53.21875 48.921875 51.53125 44.890625 
Q 49.859375 40.875 45.40625 35.40625 
Q 44.1875 33.984375 37.640625 27.21875 
Q 31.109375 20.453125 19.1875 8.296875 
z
" id="DejaVuSans-50"/>
      </defs>
      <g transform="translate(359.495107 351.757656)scale(0.1 -0.1)">
       <use xlink:href="#DejaVuSans-50"/>
       <use x="63.623047" xlink:href="#DejaVuSans-48"/>
       <use x="127.246094" xlink:href="#DejaVuSans-48"/>
      </g>
     </g>
    </g>
    <g id="xtick_6">
     <g id="line2d_11">
      <path clip-path="url(#p7cbb55545d)" d="M 448.762633 337.159219 
L 448.762633 10.999219 
" style="fill:none;stroke:#b0b0b0;stroke-linecap:square;stroke-width:0.8;"/>
     </g>
     <g id="line2d_12">
      <g>
       <use style="stroke:#000000;stroke-width:0.8;" x="448.762633" xlink:href="#mfb1dfa74d0" y="337.159219"/>
      </g>
     </g>
     <g id="text_6">
      <!-- 250 -->
      <g transform="translate(439.218883 351.757656)scale(0.1 -0.1)">
       <use xlink:href="#DejaVuSans-50"/>
       <use x="63.623047" xlink:href="#DejaVuSans-53"/>
       <use x="127.246094" xlink:href="#DejaVuSans-48"/>
      </g>
     </g>
    </g>
    <g id="xtick_7">
     <g id="line2d_13">
      <path clip-path="url(#p7cbb55545d)" d="M 528.48641 337.159219 
L 528.48641 10.999219 
" style="fill:none;stroke:#b0b0b0;stroke-linecap:square;stroke-width:0.8;"/>
     </g>
     <g id="line2d_14">
      <g>
       <use style="stroke:#000000;stroke-width:0.8;" x="528.48641" xlink:href="#mfb1dfa74d0" y="337.159219"/>
      </g>
     </g>
     <g id="text_7">
      <!-- 300 -->
      <defs>
       <path d="M 40.578125 39.3125 
Q 47.65625 37.796875 51.625 33 
Q 55.609375 28.21875 55.609375 21.1875 
Q 55.609375 10.40625 48.1875 4.484375 
Q 40.765625 -1.421875 27.09375 -1.421875 
Q 22.515625 -1.421875 17.65625 -0.515625 
Q 12.796875 0.390625 7.625 2.203125 
L 7.625 11.71875 
Q 11.71875 9.328125 16.59375 8.109375 
Q 21.484375 6.890625 26.8125 6.890625 
Q 36.078125 6.890625 40.9375 10.546875 
Q 45.796875 14.203125 45.796875 21.1875 
Q 45.796875 27.640625 41.28125 31.265625 
Q 36.765625 34.90625 28.71875 34.90625 
L 20.21875 34.90625 
L 20.21875 43.015625 
L 29.109375 43.015625 
Q 36.375 43.015625 40.234375 45.921875 
Q 44.09375 48.828125 44.09375 54.296875 
Q 44.09375 59.90625 40.109375 62.90625 
Q 36.140625 65.921875 28.71875 65.921875 
Q 24.65625 65.921875 20.015625 65.03125 
Q 15.375 64.15625 9.8125 62.3125 
L 9.8125 71.09375 
Q 15.4375 72.65625 20.34375 73.4375 
Q 25.25 74.21875 29.59375 74.21875 
Q 40.828125 74.21875 47.359375 69.109375 
Q 53.90625 64.015625 53.90625 55.328125 
Q 53.90625 49.265625 50.4375 45.09375 
Q 46.96875 40.921875 40.578125 39.3125 
z
" id="DejaVuSans-51"/>
      </defs>
      <g transform="translate(518.94266 351.757656)scale(0.1 -0.1)">
       <use xlink:href="#DejaVuSans-51"/>
       <use x="63.623047" xlink:href="#DejaVuSans-48"/>
       <use x="127.246094" xlink:href="#DejaVuSans-48"/>
      </g>
     </g>
    </g>
    <g id="xtick_8">
     <g id="line2d_15">
      <path clip-path="url(#p7cbb55545d)" d="M 608.210186 337.159219 
L 608.210186 10.999219 
" style="fill:none;stroke:#b0b0b0;stroke-linecap:square;stroke-width:0.8;"/>
     </g>
     <g id="line2d_16">
      <g>
       <use style="stroke:#000000;stroke-width:0.8;" x="608.210186" xlink:href="#mfb1dfa74d0" y="337.159219"/>
      </g>
     </g>
     <g id="text_8">
      <!-- 350 -->
      <g transform="translate(598.666436 351.757656)scale(0.1 -0.1)">
       <use xlink:href="#DejaVuSans-51"/>
       <use x="63.623047" xlink:href="#DejaVuSans-53"/>
       <use x="127.246094" xlink:href="#DejaVuSans-48"/>
      </g>
     </g>
    </g>
    <g id="xtick_9">
     <g id="line2d_17">
      <path clip-path="url(#p7cbb55545d)" d="M 687.933963 337.159219 
L 687.933963 10.999219 
" style="fill:none;stroke:#b0b0b0;stroke-linecap:square;stroke-width:0.8;"/>
     </g>
     <g id="line2d_18">
      <g>
       <use style="stroke:#000000;stroke-width:0.8;" x="687.933963" xlink:href="#mfb1dfa74d0" y="337.159219"/>
      </g>
     </g>
     <g id="text_9">
      <!-- 400 -->
      <defs>
       <path d="M 37.796875 64.3125 
L 12.890625 25.390625 
L 37.796875 25.390625 
z
M 35.203125 72.90625 
L 47.609375 72.90625 
L 47.609375 25.390625 
L 58.015625 25.390625 
L 58.015625 17.1875 
L 47.609375 17.1875 
L 47.609375 0 
L 37.796875 0 
L 37.796875 17.1875 
L 4.890625 17.1875 
L 4.890625 26.703125 
z
" id="DejaVuSans-52"/>
      </defs>
      <g transform="translate(678.390213 351.757656)scale(0.1 -0.1)">
       <use xlink:href="#DejaVuSans-52"/>
       <use x="63.623047" xlink:href="#DejaVuSans-48"/>
       <use x="127.246094" xlink:href="#DejaVuSans-48"/>
      </g>
     </g>
    </g>
    <g id="text_10">
     <!-- Epoch -->
     <defs>
      <path d="M 9.8125 72.90625 
L 55.90625 72.90625 
L 55.90625 64.59375 
L 19.671875 64.59375 
L 19.671875 43.015625 
L 54.390625 43.015625 
L 54.390625 34.71875 
L 19.671875 34.71875 
L 19.671875 8.296875 
L 56.78125 8.296875 
L 56.78125 0 
L 9.8125 0 
z
" id="DejaVuSans-69"/>
      <path d="M 18.109375 8.203125 
L 18.109375 -20.796875 
L 9.078125 -20.796875 
L 9.078125 54.6875 
L 18.109375 54.6875 
L 18.109375 46.390625 
Q 20.953125 51.265625 25.265625 53.625 
Q 29.59375 56 35.59375 56 
Q 45.5625 56 51.78125 48.09375 
Q 58.015625 40.1875 58.015625 27.296875 
Q 58.015625 14.40625 51.78125 6.484375 
Q 45.5625 -1.421875 35.59375 -1.421875 
Q 29.59375 -1.421875 25.265625 0.953125 
Q 20.953125 3.328125 18.109375 8.203125 
z
M 48.6875 27.296875 
Q 48.6875 37.203125 44.609375 42.84375 
Q 40.53125 48.484375 33.40625 48.484375 
Q 26.265625 48.484375 22.1875 42.84375 
Q 18.109375 37.203125 18.109375 27.296875 
Q 18.109375 17.390625 22.1875 11.75 
Q 26.265625 6.109375 33.40625 6.109375 
Q 40.53125 6.109375 44.609375 11.75 
Q 48.6875 17.390625 48.6875 27.296875 
z
" id="DejaVuSans-112"/>
      <path d="M 30.609375 48.390625 
Q 23.390625 48.390625 19.1875 42.75 
Q 14.984375 37.109375 14.984375 27.296875 
Q 14.984375 17.484375 19.15625 11.84375 
Q 23.34375 6.203125 30.609375 6.203125 
Q 37.796875 6.203125 41.984375 11.859375 
Q 46.1875 17.53125 46.1875 27.296875 
Q 46.1875 37.015625 41.984375 42.703125 
Q 37.796875 48.390625 30.609375 48.390625 
z
M 30.609375 56 
Q 42.328125 56 49.015625 48.375 
Q 55.71875 40.765625 55.71875 27.296875 
Q 55.71875 13.875 49.015625 6.21875 
Q 42.328125 -1.421875 30.609375 -1.421875 
Q 18.84375 -1.421875 12.171875 6.21875 
Q 5.515625 13.875 5.515625 27.296875 
Q 5.515625 40.765625 12.171875 48.375 
Q 18.84375 56 30.609375 56 
z
" id="DejaVuSans-111"/>
      <path d="M 48.78125 52.59375 
L 48.78125 44.1875 
Q 44.96875 46.296875 41.140625 47.34375 
Q 37.3125 48.390625 33.40625 48.390625 
Q 24.65625 48.390625 19.8125 42.84375 
Q 14.984375 37.3125 14.984375 27.296875 
Q 14.984375 17.28125 19.8125 11.734375 
Q 24.65625 6.203125 33.40625 6.203125 
Q 37.3125 6.203125 41.140625 7.25 
Q 44.96875 8.296875 48.78125 10.40625 
L 48.78125 2.09375 
Q 45.015625 0.34375 40.984375 -0.53125 
Q 36.96875 -1.421875 32.421875 -1.421875 
Q 20.0625 -1.421875 12.78125 6.34375 
Q 5.515625 14.109375 5.515625 27.296875 
Q 5.515625 40.671875 12.859375 48.328125 
Q 20.21875 56 33.015625 56 
Q 37.15625 56 41.109375 55.140625 
Q 45.0625 54.296875 48.78125 52.59375 
z
" id="DejaVuSans-99"/>
      <path d="M 54.890625 33.015625 
L 54.890625 0 
L 45.90625 0 
L 45.90625 32.71875 
Q 45.90625 40.484375 42.875 44.328125 
Q 39.84375 48.1875 33.796875 48.1875 
Q 26.515625 48.1875 22.3125 43.546875 
Q 18.109375 38.921875 18.109375 30.90625 
L 18.109375 0 
L 9.078125 0 
L 9.078125 75.984375 
L 18.109375 75.984375 
L 18.109375 46.1875 
Q 21.34375 51.125 25.703125 53.5625 
Q 30.078125 56 35.796875 56 
Q 45.21875 56 50.046875 50.171875 
Q 54.890625 44.34375 54.890625 33.015625 
z
" id="DejaVuSans-104"/>
     </defs>
     <g transform="translate(369.632813 365.435781)scale(0.1 -0.1)">
      <use xlink:href="#DejaVuSans-69"/>
      <use x="63.183594" xlink:href="#DejaVuSans-112"/>
      <use x="126.660156" xlink:href="#DejaVuSans-111"/>
      <use x="187.841797" xlink:href="#DejaVuSans-99"/>
      <use x="242.822266" xlink:href="#DejaVuSans-104"/>
     </g>
    </g>
   </g>
   <g id="matplotlib.axis_2">
    <g id="ytick_1">
     <g id="line2d_19">
      <path clip-path="url(#p7cbb55545d)" d="M 50.14375 337.159219 
L 719.74375 337.159219 
" style="fill:none;stroke:#b0b0b0;stroke-linecap:square;stroke-width:0.8;"/>
     </g>
     <g id="line2d_20">
      <defs>
       <path d="M 0 0 
L -3.5 0 
" id="m7cf5495e23" style="stroke:#000000;stroke-width:0.8;"/>
      </defs>
      <g>
       <use style="stroke:#000000;stroke-width:0.8;" x="50.14375" xlink:href="#m7cf5495e23" y="337.159219"/>
      </g>
     </g>
     <g id="text_11">
      <!-- 0.82 -->
      <defs>
       <path d="M 10.6875 12.40625 
L 21 12.40625 
L 21 0 
L 10.6875 0 
z
" id="DejaVuSans-46"/>
       <path d="M 31.78125 34.625 
Q 24.75 34.625 20.71875 30.859375 
Q 16.703125 27.09375 16.703125 20.515625 
Q 16.703125 13.921875 20.71875 10.15625 
Q 24.75 6.390625 31.78125 6.390625 
Q 38.8125 6.390625 42.859375 10.171875 
Q 46.921875 13.96875 46.921875 20.515625 
Q 46.921875 27.09375 42.890625 30.859375 
Q 38.875 34.625 31.78125 34.625 
z
M 21.921875 38.8125 
Q 15.578125 40.375 12.03125 44.71875 
Q 8.5 49.078125 8.5 55.328125 
Q 8.5 64.0625 14.71875 69.140625 
Q 20.953125 74.21875 31.78125 74.21875 
Q 42.671875 74.21875 48.875 69.140625 
Q 55.078125 64.0625 55.078125 55.328125 
Q 55.078125 49.078125 51.53125 44.71875 
Q 48 40.375 41.703125 38.8125 
Q 48.828125 37.15625 52.796875 32.3125 
Q 56.78125 27.484375 56.78125 20.515625 
Q 56.78125 9.90625 50.3125 4.234375 
Q 43.84375 -1.421875 31.78125 -1.421875 
Q 19.734375 -1.421875 13.25 4.234375 
Q 6.78125 9.90625 6.78125 20.515625 
Q 6.78125 27.484375 10.78125 32.3125 
Q 14.796875 37.15625 21.921875 38.8125 
z
M 18.3125 54.390625 
Q 18.3125 48.734375 21.84375 45.5625 
Q 25.390625 42.390625 31.78125 42.390625 
Q 38.140625 42.390625 41.71875 45.5625 
Q 45.3125 48.734375 45.3125 54.390625 
Q 45.3125 60.0625 41.71875 63.234375 
Q 38.140625 66.40625 31.78125 66.40625 
Q 25.390625 66.40625 21.84375 63.234375 
Q 18.3125 60.0625 18.3125 54.390625 
z
" id="DejaVuSans-56"/>
      </defs>
      <g transform="translate(20.878125 340.958437)scale(0.1 -0.1)">
       <use xlink:href="#DejaVuSans-48"/>
       <use x="63.623047" xlink:href="#DejaVuSans-46"/>
       <use x="95.410156" xlink:href="#DejaVuSans-56"/>
       <use x="159.033203" xlink:href="#DejaVuSans-50"/>
      </g>
     </g>
    </g>
    <g id="ytick_2">
     <g id="line2d_21">
      <path clip-path="url(#p7cbb55545d)" d="M 50.14375 296.389219 
L 719.74375 296.389219 
" style="fill:none;stroke:#b0b0b0;stroke-linecap:square;stroke-width:0.8;"/>
     </g>
     <g id="line2d_22">
      <g>
       <use style="stroke:#000000;stroke-width:0.8;" x="50.14375" xlink:href="#m7cf5495e23" y="296.389219"/>
      </g>
     </g>
     <g id="text_12">
      <!-- 0.84 -->
      <g transform="translate(20.878125 300.188437)scale(0.1 -0.1)">
       <use xlink:href="#DejaVuSans-48"/>
       <use x="63.623047" xlink:href="#DejaVuSans-46"/>
       <use x="95.410156" xlink:href="#DejaVuSans-56"/>
       <use x="159.033203" xlink:href="#DejaVuSans-52"/>
      </g>
     </g>
    </g>
    <g id="ytick_3">
     <g id="line2d_23">
      <path clip-path="url(#p7cbb55545d)" d="M 50.14375 255.619219 
L 719.74375 255.619219 
" style="fill:none;stroke:#b0b0b0;stroke-linecap:square;stroke-width:0.8;"/>
     </g>
     <g id="line2d_24">
      <g>
       <use style="stroke:#000000;stroke-width:0.8;" x="50.14375" xlink:href="#m7cf5495e23" y="255.619219"/>
      </g>
     </g>
     <g id="text_13">
      <!-- 0.86 -->
      <defs>
       <path d="M 33.015625 40.375 
Q 26.375 40.375 22.484375 35.828125 
Q 18.609375 31.296875 18.609375 23.390625 
Q 18.609375 15.53125 22.484375 10.953125 
Q 26.375 6.390625 33.015625 6.390625 
Q 39.65625 6.390625 43.53125 10.953125 
Q 47.40625 15.53125 47.40625 23.390625 
Q 47.40625 31.296875 43.53125 35.828125 
Q 39.65625 40.375 33.015625 40.375 
z
M 52.59375 71.296875 
L 52.59375 62.3125 
Q 48.875 64.0625 45.09375 64.984375 
Q 41.3125 65.921875 37.59375 65.921875 
Q 27.828125 65.921875 22.671875 59.328125 
Q 17.53125 52.734375 16.796875 39.40625 
Q 19.671875 43.65625 24.015625 45.921875 
Q 28.375 48.1875 33.59375 48.1875 
Q 44.578125 48.1875 50.953125 41.515625 
Q 57.328125 34.859375 57.328125 23.390625 
Q 57.328125 12.15625 50.6875 5.359375 
Q 44.046875 -1.421875 33.015625 -1.421875 
Q 20.359375 -1.421875 13.671875 8.265625 
Q 6.984375 17.96875 6.984375 36.375 
Q 6.984375 53.65625 15.1875 63.9375 
Q 23.390625 74.21875 37.203125 74.21875 
Q 40.921875 74.21875 44.703125 73.484375 
Q 48.484375 72.75 52.59375 71.296875 
z
" id="DejaVuSans-54"/>
      </defs>
      <g transform="translate(20.878125 259.418437)scale(0.1 -0.1)">
       <use xlink:href="#DejaVuSans-48"/>
       <use x="63.623047" xlink:href="#DejaVuSans-46"/>
       <use x="95.410156" xlink:href="#DejaVuSans-56"/>
       <use x="159.033203" xlink:href="#DejaVuSans-54"/>
      </g>
     </g>
    </g>
    <g id="ytick_4">
     <g id="line2d_25">
      <path clip-path="url(#p7cbb55545d)" d="M 50.14375 214.849219 
L 719.74375 214.849219 
" style="fill:none;stroke:#b0b0b0;stroke-linecap:square;stroke-width:0.8;"/>
     </g>
     <g id="line2d_26">
      <g>
       <use style="stroke:#000000;stroke-width:0.8;" x="50.14375" xlink:href="#m7cf5495e23" y="214.849219"/>
      </g>
     </g>
     <g id="text_14">
      <!-- 0.88 -->
      <g transform="translate(20.878125 218.648437)scale(0.1 -0.1)">
       <use xlink:href="#DejaVuSans-48"/>
       <use x="63.623047" xlink:href="#DejaVuSans-46"/>
       <use x="95.410156" xlink:href="#DejaVuSans-56"/>
       <use x="159.033203" xlink:href="#DejaVuSans-56"/>
      </g>
     </g>
    </g>
    <g id="ytick_5">
     <g id="line2d_27">
      <path clip-path="url(#p7cbb55545d)" d="M 50.14375 174.079219 
L 719.74375 174.079219 
" style="fill:none;stroke:#b0b0b0;stroke-linecap:square;stroke-width:0.8;"/>
     </g>
     <g id="line2d_28">
      <g>
       <use style="stroke:#000000;stroke-width:0.8;" x="50.14375" xlink:href="#m7cf5495e23" y="174.079219"/>
      </g>
     </g>
     <g id="text_15">
      <!-- 0.90 -->
      <defs>
       <path d="M 10.984375 1.515625 
L 10.984375 10.5 
Q 14.703125 8.734375 18.5 7.8125 
Q 22.3125 6.890625 25.984375 6.890625 
Q 35.75 6.890625 40.890625 13.453125 
Q 46.046875 20.015625 46.78125 33.40625 
Q 43.953125 29.203125 39.59375 26.953125 
Q 35.25 24.703125 29.984375 24.703125 
Q 19.046875 24.703125 12.671875 31.3125 
Q 6.296875 37.9375 6.296875 49.421875 
Q 6.296875 60.640625 12.9375 67.421875 
Q 19.578125 74.21875 30.609375 74.21875 
Q 43.265625 74.21875 49.921875 64.515625 
Q 56.59375 54.828125 56.59375 36.375 
Q 56.59375 19.140625 48.40625 8.859375 
Q 40.234375 -1.421875 26.421875 -1.421875 
Q 22.703125 -1.421875 18.890625 -0.6875 
Q 15.09375 0.046875 10.984375 1.515625 
z
M 30.609375 32.421875 
Q 37.25 32.421875 41.125 36.953125 
Q 45.015625 41.5 45.015625 49.421875 
Q 45.015625 57.28125 41.125 61.84375 
Q 37.25 66.40625 30.609375 66.40625 
Q 23.96875 66.40625 20.09375 61.84375 
Q 16.21875 57.28125 16.21875 49.421875 
Q 16.21875 41.5 20.09375 36.953125 
Q 23.96875 32.421875 30.609375 32.421875 
z
" id="DejaVuSans-57"/>
      </defs>
      <g transform="translate(20.878125 177.878437)scale(0.1 -0.1)">
       <use xlink:href="#DejaVuSans-48"/>
       <use x="63.623047" xlink:href="#DejaVuSans-46"/>
       <use x="95.410156" xlink:href="#DejaVuSans-57"/>
       <use x="159.033203" xlink:href="#DejaVuSans-48"/>
      </g>
     </g>
    </g>
    <g id="ytick_6">
     <g id="line2d_29">
      <path clip-path="url(#p7cbb55545d)" d="M 50.14375 133.309219 
L 719.74375 133.309219 
" style="fill:none;stroke:#b0b0b0;stroke-linecap:square;stroke-width:0.8;"/>
     </g>
     <g id="line2d_30">
      <g>
       <use style="stroke:#000000;stroke-width:0.8;" x="50.14375" xlink:href="#m7cf5495e23" y="133.309219"/>
      </g>
     </g>
     <g id="text_16">
      <!-- 0.92 -->
      <g transform="translate(20.878125 137.108437)scale(0.1 -0.1)">
       <use xlink:href="#DejaVuSans-48"/>
       <use x="63.623047" xlink:href="#DejaVuSans-46"/>
       <use x="95.410156" xlink:href="#DejaVuSans-57"/>
       <use x="159.033203" xlink:href="#DejaVuSans-50"/>
      </g>
     </g>
    </g>
    <g id="ytick_7">
     <g id="line2d_31">
      <path clip-path="url(#p7cbb55545d)" d="M 50.14375 92.539219 
L 719.74375 92.539219 
" style="fill:none;stroke:#b0b0b0;stroke-linecap:square;stroke-width:0.8;"/>
     </g>
     <g id="line2d_32">
      <g>
       <use style="stroke:#000000;stroke-width:0.8;" x="50.14375" xlink:href="#m7cf5495e23" y="92.539219"/>
      </g>
     </g>
     <g id="text_17">
      <!-- 0.94 -->
      <g transform="translate(20.878125 96.338437)scale(0.1 -0.1)">
       <use xlink:href="#DejaVuSans-48"/>
       <use x="63.623047" xlink:href="#DejaVuSans-46"/>
       <use x="95.410156" xlink:href="#DejaVuSans-57"/>
       <use x="159.033203" xlink:href="#DejaVuSans-52"/>
      </g>
     </g>
    </g>
    <g id="ytick_8">
     <g id="line2d_33">
      <path clip-path="url(#p7cbb55545d)" d="M 50.14375 51.769219 
L 719.74375 51.769219 
" style="fill:none;stroke:#b0b0b0;stroke-linecap:square;stroke-width:0.8;"/>
     </g>
     <g id="line2d_34">
      <g>
       <use style="stroke:#000000;stroke-width:0.8;" x="50.14375" xlink:href="#m7cf5495e23" y="51.769219"/>
      </g>
     </g>
     <g id="text_18">
      <!-- 0.96 -->
      <g transform="translate(20.878125 55.568437)scale(0.1 -0.1)">
       <use xlink:href="#DejaVuSans-48"/>
       <use x="63.623047" xlink:href="#DejaVuSans-46"/>
       <use x="95.410156" xlink:href="#DejaVuSans-57"/>
       <use x="159.033203" xlink:href="#DejaVuSans-54"/>
      </g>
     </g>
    </g>
    <g id="ytick_9">
     <g id="line2d_35">
      <path clip-path="url(#p7cbb55545d)" d="M 50.14375 10.999219 
L 719.74375 10.999219 
" style="fill:none;stroke:#b0b0b0;stroke-linecap:square;stroke-width:0.8;"/>
     </g>
     <g id="line2d_36">
      <g>
       <use style="stroke:#000000;stroke-width:0.8;" x="50.14375" xlink:href="#m7cf5495e23" y="10.999219"/>
      </g>
     </g>
     <g id="text_19">
      <!-- 0.98 -->
      <g transform="translate(20.878125 14.798437)scale(0.1 -0.1)">
       <use xlink:href="#DejaVuSans-48"/>
       <use x="63.623047" xlink:href="#DejaVuSans-46"/>
       <use x="95.410156" xlink:href="#DejaVuSans-57"/>
       <use x="159.033203" xlink:href="#DejaVuSans-56"/>
      </g>
     </g>
    </g>
    <g id="text_20">
     <!-- Accuracy -->
     <defs>
      <path d="M 34.1875 63.1875 
L 20.796875 26.90625 
L 47.609375 26.90625 
z
M 28.609375 72.90625 
L 39.796875 72.90625 
L 67.578125 0 
L 57.328125 0 
L 50.6875 18.703125 
L 17.828125 18.703125 
L 11.1875 0 
L 0.78125 0 
z
" id="DejaVuSans-65"/>
      <path d="M 8.5 21.578125 
L 8.5 54.6875 
L 17.484375 54.6875 
L 17.484375 21.921875 
Q 17.484375 14.15625 20.5 10.265625 
Q 23.53125 6.390625 29.59375 6.390625 
Q 36.859375 6.390625 41.078125 11.03125 
Q 45.3125 15.671875 45.3125 23.6875 
L 45.3125 54.6875 
L 54.296875 54.6875 
L 54.296875 0 
L 45.3125 0 
L 45.3125 8.40625 
Q 42.046875 3.421875 37.71875 1 
Q 33.40625 -1.421875 27.6875 -1.421875 
Q 18.265625 -1.421875 13.375 4.4375 
Q 8.5 10.296875 8.5 21.578125 
z
M 31.109375 56 
z
" id="DejaVuSans-117"/>
      <path d="M 41.109375 46.296875 
Q 39.59375 47.171875 37.8125 47.578125 
Q 36.03125 48 33.890625 48 
Q 26.265625 48 22.1875 43.046875 
Q 18.109375 38.09375 18.109375 28.8125 
L 18.109375 0 
L 9.078125 0 
L 9.078125 54.6875 
L 18.109375 54.6875 
L 18.109375 46.1875 
Q 20.953125 51.171875 25.484375 53.578125 
Q 30.03125 56 36.53125 56 
Q 37.453125 56 38.578125 55.875 
Q 39.703125 55.765625 41.0625 55.515625 
z
" id="DejaVuSans-114"/>
      <path d="M 34.28125 27.484375 
Q 23.390625 27.484375 19.1875 25 
Q 14.984375 22.515625 14.984375 16.5 
Q 14.984375 11.71875 18.140625 8.90625 
Q 21.296875 6.109375 26.703125 6.109375 
Q 34.1875 6.109375 38.703125 11.40625 
Q 43.21875 16.703125 43.21875 25.484375 
L 43.21875 27.484375 
z
M 52.203125 31.203125 
L 52.203125 0 
L 43.21875 0 
L 43.21875 8.296875 
Q 40.140625 3.328125 35.546875 0.953125 
Q 30.953125 -1.421875 24.3125 -1.421875 
Q 15.921875 -1.421875 10.953125 3.296875 
Q 6 8.015625 6 15.921875 
Q 6 25.140625 12.171875 29.828125 
Q 18.359375 34.515625 30.609375 34.515625 
L 43.21875 34.515625 
L 43.21875 35.40625 
Q 43.21875 41.609375 39.140625 45 
Q 35.0625 48.390625 27.6875 48.390625 
Q 23 48.390625 18.546875 47.265625 
Q 14.109375 46.140625 10.015625 43.890625 
L 10.015625 52.203125 
Q 14.9375 54.109375 19.578125 55.046875 
Q 24.21875 56 28.609375 56 
Q 40.484375 56 46.34375 49.84375 
Q 52.203125 43.703125 52.203125 31.203125 
z
" id="DejaVuSans-97"/>
      <path d="M 32.171875 -5.078125 
Q 28.375 -14.84375 24.75 -17.8125 
Q 21.140625 -20.796875 15.09375 -20.796875 
L 7.90625 -20.796875 
L 7.90625 -13.28125 
L 13.1875 -13.28125 
Q 16.890625 -13.28125 18.9375 -11.515625 
Q 21 -9.765625 23.484375 -3.21875 
L 25.09375 0.875 
L 2.984375 54.6875 
L 12.5 54.6875 
L 29.59375 11.921875 
L 46.6875 54.6875 
L 56.203125 54.6875 
z
" id="DejaVuSans-121"/>
     </defs>
     <g transform="translate(14.798438 196.994062)rotate(-90)scale(0.1 -0.1)">
      <use xlink:href="#DejaVuSans-65"/>
      <use x="68.392578" xlink:href="#DejaVuSans-99"/>
      <use x="123.373047" xlink:href="#DejaVuSans-99"/>
      <use x="178.353516" xlink:href="#DejaVuSans-117"/>
      <use x="241.732422" xlink:href="#DejaVuSans-114"/>
      <use x="282.845703" xlink:href="#DejaVuSans-97"/>
      <use x="344.125" xlink:href="#DejaVuSans-99"/>
      <use x="399.105469" xlink:href="#DejaVuSans-121"/>
     </g>
    </g>
   </g>
   <g id="line2d_37">
    <path clip-path="url(#p7cbb55545d)" d="M 83.494848 375.715469 
L 84.216687 372.853858 
L 86.127184 366.19996 
L 88.037682 360.555267 
L 90.585012 353.970536 
L 116.695148 289.946735 
L 121.789808 278.309401 
L 126.247636 268.62903 
L 130.068632 260.780957 
L 133.889627 253.407867 
L 137.710623 246.520603 
L 141.531618 240.097772 
L 145.352613 234.117317 
L 149.173609 228.557179 
L 152.994604 223.395301 
L 156.8156 218.609625 
L 160.636595 214.178093 
L 164.45759 210.078647 
L 168.278586 206.289229 
L 172.099581 202.787782 
L 175.920577 199.552247 
L 180.378405 196.084113 
L 184.836233 192.912864 
L 189.294061 190.003475 
L 194.388721 186.95417 
L 200.120214 183.812736 
L 206.48854 180.593872 
L 214.767363 176.67689 
L 224.319852 172.396222 
L 233.872341 168.354355 
L 243.424829 164.541892 
L 253.61415 160.717533 
L 263.803471 157.132089 
L 273.992793 153.774158 
L 284.818946 150.442886 
L 295.6451 147.341901 
L 307.108086 144.294309 
L 318.571072 141.47332 
L 330.670891 138.723507 
L 343.407543 136.061193 
L 356.781027 133.498134 
L 370.791343 131.040681 
L 385.438492 128.692025 
L 400.722474 126.461878 
L 416.643288 124.3594 
L 433.837768 122.318554 
L 451.66908 120.427666 
L 470.774057 118.624679 
L 491.789532 116.867028 
L 515.352337 115.121609 
L 544.646635 113.188285 
L 598.140571 109.941748 
L 635.07686 107.580536 
L 661.186995 105.692415 
L 683.476135 103.860283 
L 687.933963 103.464246 
L 687.933963 103.464246 
" style="fill:none;stroke:#377eb8;stroke-linecap:square;stroke-width:2;"/>
   </g>
   <g id="line2d_38">
    <path clip-path="url(#p7cbb55545d)" d="M 86.927489 375.715469 
L 89.94818 361.177822 
L 93.132343 346.175919 
L 95.679673 335.361626 
L 98.227003 325.577237 
L 100.774333 316.755157 
L 103.321664 308.827791 
L 105.868994 301.727544 
L 108.416324 295.386821 
L 110.963655 289.738027 
L 113.510985 284.713566 
L 116.058315 280.245843 
L 118.605645 276.267264 
L 121.152976 272.710233 
L 123.700306 269.507155 
L 126.884469 265.898077 
L 130.705464 261.97191 
L 135.800125 257.103625 
L 140.894785 252.546806 
L 145.989446 248.288939 
L 151.084106 244.317801 
L 156.178767 240.621169 
L 161.273428 237.186819 
L 166.368088 234.002527 
L 171.462749 231.056071 
L 177.194242 228.010375 
L 182.925735 225.232814 
L 188.657228 222.705984 
L 194.388721 220.412481 
L 200.757047 218.116632 
L 207.125373 216.063479 
L 214.130531 214.056936 
L 221.135689 212.287179 
L 228.77768 210.59876 
L 236.419671 209.133543 
L 244.698494 207.762839 
L 254.250983 206.411929 
L 265.077137 205.107891 
L 280.361118 203.515905 
L 314.113244 200.062856 
L 347.865371 196.320023 
L 408.364465 189.587791 
L 435.748265 186.787839 
L 458.674238 184.662154 
L 479.05288 182.988277 
L 498.157857 181.639903 
L 515.989169 180.603612 
L 532.546816 179.857076 
L 549.104463 179.329161 
L 566.935775 178.984908 
L 586.040752 178.84373 
L 606.419394 178.915564 
L 629.345367 179.220884 
L 656.729167 179.818624 
L 687.933963 180.688937 
L 687.933963 180.688937 
" style="fill:none;stroke:#4daf4a;stroke-linecap:square;stroke-width:2;"/>
   </g>
   <g id="line2d_39">
    <path clip-path="url(#p7cbb55545d)" d="M 86.419119 375.715469 
L 86.816687 372.068567 
L 88.411163 366.92129 
L 90.005638 358.767274 
L 91.600114 354.690326 
L 93.194589 350.256521 
L 94.789065 339.860269 
L 96.38354 341.338123 
L 97.978016 328.240835 
L 99.572492 331.043691 
L 101.166967 317.079957 
L 102.761443 317.793429 
L 104.355918 310.709742 
L 105.950394 304.492257 
L 107.544869 305.613375 
L 110.73382 290.783318 
L 112.328296 299.85469 
L 115.517247 282.017771 
L 117.111722 277.17632 
L 118.706198 281.100415 
L 120.300673 277.431114 
L 121.895149 276.768674 
L 123.489625 271.876312 
L 125.0841 264.690562 
L 126.678576 263.059734 
L 128.273051 258.575019 
L 129.867527 259.237581 
L 131.462002 255.670221 
L 133.056478 250.319061 
L 134.650953 248.841207 
L 136.245429 242.980579 
L 137.839904 237.884213 
L 139.43438 246.394965 
L 142.623331 239.311278 
L 144.217806 234.469827 
L 145.812282 234.113091 
L 147.406758 231.972675 
L 149.001233 233.348587 
L 150.595709 230.341848 
L 152.190184 224.277337 
L 155.379135 225.041719 
L 156.973611 221.831095 
L 158.568086 216.12332 
L 160.162562 218.161794 
L 161.757037 211.027075 
L 163.351513 215.51179 
L 164.945988 211.434721 
L 166.540464 211.434721 
L 168.134939 206.950006 
L 169.729415 205.115416 
L 171.32389 206.185624 
L 172.918366 206.185624 
L 174.512842 209.752983 
L 176.107317 197.369046 
L 179.296268 200.019171 
L 180.890744 197.267104 
L 182.485219 197.878755 
L 184.079695 193.292098 
L 185.67417 191.967096 
L 187.268646 194.6171 
L 188.863121 190.030443 
L 190.457597 191.304535 
L 192.052072 192.986272 
L 193.646548 188.756473 
L 195.241023 188.246763 
L 196.835499 193.292098 
L 198.429975 187.533291 
L 200.02445 182.233162 
L 201.618926 182.233162 
L 203.213401 190.947799 
L 204.807877 184.730435 
L 206.402352 181.876426 
L 207.996828 181.264896 
L 209.591303 178.716835 
L 211.185779 179.837953 
L 212.780254 182.386136 
L 214.37473 183.20155 
L 215.969205 179.990926 
L 217.563681 177.391833 
L 219.158156 177.850389 
L 222.347108 170.613728 
L 223.941583 173.161912 
L 225.536059 169.54352 
L 227.130534 173.722531 
L 230.319485 169.696494 
L 231.913961 165.415541 
L 233.508436 167.301163 
L 235.102912 164.855043 
L 236.697387 168.728107 
L 238.291863 169.441579 
L 239.886338 160.166444 
L 241.480814 165.415541 
L 243.075289 160.47227 
L 244.669765 163.377068 
L 246.264241 158.7395 
L 247.858716 164.804011 
L 249.453192 161.287684 
L 251.047667 160.52318 
L 252.642143 162.816448 
L 254.236618 161.032768 
L 255.831094 160.777974 
L 257.425569 156.599085 
L 259.020045 158.841442 
L 260.61452 156.395201 
L 262.208996 160.625122 
L 263.803471 156.344291 
L 265.397947 154.203875 
L 266.992422 154.764373 
L 268.586898 149.515276 
L 270.181374 149.362424 
L 271.775849 153.592345 
L 273.370325 150.94222 
L 274.9648 152.114369 
L 276.559276 150.3816 
L 278.153751 153.031725 
L 279.748227 152.573047 
L 281.342702 152.522137 
L 282.937178 150.177838 
L 284.531653 150.891309 
L 286.126129 148.59792 
L 287.720604 151.808665 
L 290.909555 142.992087 
L 292.504031 151.706723 
L 294.098507 146.712299 
L 295.692982 144.470062 
L 297.287458 146.559446 
L 298.881933 144.266179 
L 300.476409 141.463201 
L 302.070884 146.253742 
L 303.66536 143.399733 
L 305.259835 148.088332 
L 306.854311 139.730553 
L 308.448786 138.048694 
L 310.043262 145.387297 
L 311.637737 144.673825 
L 313.232213 144.877709 
L 314.826688 140.953613 
L 316.421164 141.921879 
L 318.01564 138.609314 
L 319.610115 137.997784 
L 321.204591 140.392993 
L 322.799066 142.125763 
L 324.393542 140.494935 
L 325.988017 138.252578 
L 327.582493 135.653484 
L 329.176968 138.40543 
L 330.771444 137.539106 
L 332.365919 141.157497 
L 333.960395 133.360216 
L 335.55487 140.545846 
L 337.149346 136.672782 
L 338.743821 137.590016 
L 340.338297 137.641048 
L 341.932773 133.716952 
L 343.527248 137.080428 
L 345.121724 135.806336 
L 346.716199 133.207243 
L 348.310675 133.513069 
L 349.90515 132.697655 
L 351.499626 136.57084 
L 353.094101 137.946752 
L 354.688577 132.340919 
L 356.283052 137.691958 
L 357.877528 131.627447 
L 359.472003 130.098561 
L 361.066479 131.831331 
L 362.660954 126.174466 
L 364.25543 132.952449 
L 365.849905 127.958146 
L 367.444381 131.219801 
L 369.038857 129.181206 
L 370.633332 132.697655 
L 372.227808 131.321621 
L 373.822283 130.200503 
L 375.416759 130.608149 
L 377.011234 133.563979 
L 378.60571 130.863065 
L 380.200185 131.780299 
L 381.794661 125.715788 
L 383.389136 126.327318 
L 384.983612 128.162029 
L 386.578087 129.588973 
L 388.172563 129.181206 
L 389.767038 128.21294 
L 391.361514 127.856204 
L 392.95599 131.525505 
L 394.550465 126.887938 
L 396.144941 127.703352 
L 397.739416 129.894677 
L 399.333892 129.487031 
L 400.928367 128.569676 
L 402.522843 129.130295 
L 404.117318 123.830166 
L 405.711794 127.346616 
L 407.306269 129.130295 
L 408.900745 128.518765 
L 412.089696 123.98314 
L 413.684171 127.346616 
L 415.278647 125.002316 
L 416.873123 128.620707 
L 418.467598 124.288844 
L 420.062074 125.715788 
L 421.656549 124.288844 
L 423.251025 125.613846 
L 424.8455 123.932108 
L 426.439976 124.288844 
L 428.034451 123.626404 
L 429.628927 125.562936 
L 431.223402 120.008013 
L 432.817878 121.689751 
L 434.412353 118.275243 
L 436.006829 121.129131 
L 437.601304 120.721485 
L 439.19578 119.396483 
L 440.790256 125.359052 
L 442.384731 122.148429 
L 443.979207 120.721485 
L 445.573682 119.090657 
L 447.168158 120.568633 
L 448.762633 120.925369 
L 450.357109 122.046487 
L 451.951584 118.224333 
L 453.54606 118.479127 
L 455.140535 121.434957 
L 456.735011 121.944545 
L 458.329486 121.842603 
L 459.923962 118.631979 
L 461.518437 123.269547 
L 463.112913 120.109955 
L 464.707389 119.906071 
L 466.301864 119.141689 
L 467.89634 120.466691 
L 469.490815 120.364749 
L 471.085291 112.771352 
L 472.679766 120.364749 
L 474.274242 118.835863 
L 475.868717 118.173301 
L 477.463193 115.472387 
L 479.057668 117.408919 
L 480.652144 116.389622 
L 482.246619 117.612803 
L 483.841095 117.306977 
L 485.43557 117.510861 
L 487.030046 118.377185 
L 488.624522 117.510861 
L 490.218997 119.447393 
L 491.813473 119.957103 
L 493.407948 120.211897 
L 495.002424 114.555032 
L 496.596899 116.797389 
L 498.191375 116.8483 
L 499.78585 116.338711 
L 501.380326 118.683011 
L 502.974801 114.860736 
L 504.569277 115.67615 
L 506.163752 113.484824 
L 507.758228 116.032886 
L 509.352703 118.988715 
L 510.947179 112.363584 
L 512.541655 114.656974 
L 514.13613 118.173301 
L 515.730606 114.351148 
L 518.919557 114.300238 
L 520.514032 117.103094 
L 522.108508 114.605942 
L 523.702983 116.644537 
L 525.297459 112.006848 
L 526.891934 114.860736 
L 528.48641 118.683011 
L 530.080885 118.784953 
L 531.675361 113.89247 
L 533.269836 114.809826 
L 534.864312 111.140524 
L 536.458788 112.873294 
L 538.053263 118.479127 
L 539.647739 112.822262 
L 541.242214 114.045444 
L 542.83669 110.172259 
L 544.431165 115.319414 
L 546.025641 113.484824 
L 547.620116 116.440653 
L 549.214592 113.331972 
L 550.809067 116.491564 
L 552.403543 114.096354 
L 553.998018 105.993369 
L 555.592494 111.140524 
L 558.781445 109.713581 
L 560.37592 109.356845 
L 561.970396 109.713581 
L 563.564872 112.10879 
L 565.159347 109.000109 
L 566.753823 114.605942 
L 568.348298 112.159822 
L 569.942774 111.038583 
L 571.537249 108.490521 
L 573.131725 111.44635 
L 574.7262 111.803086 
L 576.320676 110.732878 
L 577.915151 108.388579 
L 579.509627 108.133785 
L 581.104102 115.115652 
L 582.698578 109.815523 
L 584.293053 109.611639 
L 585.887529 108.643373 
L 587.482005 108.082753 
L 589.07648 108.592463 
L 590.670956 111.49726 
L 592.265431 110.2742 
L 593.859907 108.541431 
L 597.048858 109.968375 
L 598.643333 110.172259 
L 600.237809 108.949199 
L 601.832284 108.082753 
L 603.42676 110.325111 
L 605.021235 107.980811 
L 606.615711 110.834699 
L 608.210186 109.458787 
L 609.804662 108.490521 
L 611.399138 109.815523 
L 612.993613 108.490521 
L 614.588089 111.650113 
L 616.182564 104.87213 
L 617.77704 110.2742 
L 619.371515 107.777049 
L 620.965991 107.573165 
L 622.560466 101.967332 
L 624.154942 110.070317 
L 625.749417 110.834699 
L 627.343893 106.146221 
L 628.938368 108.031843 
L 630.532844 107.318371 
L 632.127319 104.31151 
L 633.721795 106.350105 
L 635.316271 106.350105 
L 636.910746 106.655809 
L 638.505222 106.197131 
L 640.099697 109.611639 
L 641.694173 107.369281 
L 643.288648 109.560729 
L 644.883124 108.133785 
L 646.477599 105.228866 
L 648.072075 109.203993 
L 649.66655 109.917464 
L 651.261026 102.833656 
L 652.855501 105.789485 
L 654.449977 102.273036 
L 656.044452 108.643373 
L 657.638928 107.165397 
L 659.233404 107.827959 
L 660.827879 106.401015 
L 662.422355 105.585601 
L 664.01683 107.420313 
L 665.611306 107.216429 
L 667.205781 109.000109 
L 668.800257 104.87213 
L 670.394732 105.177955 
L 671.989208 104.413452 
L 673.583683 108.031843 
L 676.772634 102.47692 
L 678.36711 103.64907 
L 679.961585 99.826916 
L 681.556061 101.610596 
L 683.150537 105.432749 
L 684.745012 106.910603 
L 687.933963 103.394276 
L 687.933963 103.394276 
" style="fill:none;stroke:#377eb8;stroke-linecap:square;stroke-opacity:0.25098;stroke-width:1.5;"/>
   </g>
   <g id="line2d_40">
    <path clip-path="url(#p7cbb55545d)" d="M 75.614384 375.715469 
L 75.655359 373.374614 
L 77.249834 354.294466 
L 77.806619 375.715469 
M 85.444268 375.715469 
L 86.816687 320.442582 
L 88.411163 367.835244 
L 90.005638 297.464219 
L 91.600114 344.241462 
L 93.194589 365.168108 
L 94.789065 363.93715 
L 96.38354 327.82845 
L 97.978016 352.858288 
L 99.572492 314.082452 
L 101.166967 310.594677 
L 102.761443 312.030855 
L 104.355918 304.850087 
L 105.950394 301.567533 
L 107.544869 274.896296 
L 109.139345 267.920747 
L 110.73382 308.337861 
L 112.328296 304.029448 
L 113.922771 271.203423 
L 115.517247 265.458832 
L 117.111722 252.123275 
L 118.706198 267.715649 
L 120.300673 321.878639 
L 121.895149 288.847393 
L 123.489625 313.467034 
L 125.0841 265.458832 
L 126.678576 239.813454 
L 128.273051 250.481876 
L 129.867527 258.072964 
L 131.462002 277.973751 
L 133.056478 264.022654 
L 134.650953 315.928949 
L 136.245429 258.893603 
L 137.839904 255.20073 
L 139.43438 250.687096 
L 141.028855 237.966957 
L 142.623331 261.355518 
L 144.217806 228.529493 
L 145.812282 242.070271 
L 149.001233 247.814862 
L 150.595709 243.301229 
L 152.190184 234.889502 
L 153.78466 234.889502 
L 155.379135 234.684403 
L 156.973611 226.888216 
L 158.568086 224.01586 
L 160.162562 218.271391 
L 161.757037 237.146319 
L 163.351513 251.097416 
L 164.945988 233.453445 
L 166.540464 223.400442 
L 168.134939 232.222366 
L 169.729415 260.12456 
L 171.32389 231.606948 
L 172.918366 239.608355 
L 174.512842 221.759165 
L 176.107317 261.971058 
L 177.701793 230.581089 
L 179.296268 240.839313 
L 180.890744 223.605541 
L 182.485219 243.506449 
L 184.079695 223.810761 
L 185.67417 208.013167 
L 187.268646 199.601561 
L 188.863121 227.093315 
L 190.457597 209.654444 
L 192.052072 208.013167 
L 193.646548 211.706161 
L 195.241023 207.602847 
L 196.835499 206.37189 
L 198.429975 264.432973 
L 200.02445 200.21698 
L 201.618926 232.427587 
L 203.213401 204.320293 
L 204.807877 199.396341 
L 206.402352 214.783616 
L 207.996828 249.661238 
L 209.591303 196.934426 
L 211.185779 211.090622 
L 212.780254 211.090622 
L 214.37473 199.191121 
L 215.969205 190.574295 
L 217.563681 211.706161 
L 219.158156 202.268576 
L 220.752632 190.779516 
L 222.347108 206.37189 
L 223.941583 219.297128 
L 225.536059 209.039025 
L 227.130534 251.507735 
L 228.72501 199.80666 
L 230.319485 229.350132 
L 231.913961 206.987429 
L 233.508436 229.965671 
L 235.102912 208.013167 
L 236.697387 266.68979 
L 238.291863 208.628706 
L 239.886338 192.831112 
L 241.480814 230.37599 
L 243.075289 223.195221 
L 244.669765 190.574295 
L 246.264241 212.11648 
L 247.858716 207.602847 
L 249.453192 226.477897 
L 251.047667 188.317479 
L 252.642143 220.322987 
L 254.236618 210.475082 
L 255.831094 187.291741 
L 257.425569 195.293027 
L 259.020045 200.627299 
L 260.61452 187.086521 
L 262.208996 204.935712 
L 263.803471 192.010473 
L 265.397947 209.859664 
L 266.992422 213.552537 
L 268.586898 201.858256 
L 270.181374 204.935712 
L 271.775849 200.011881 
L 273.370325 183.803967 
L 274.9648 201.037618 
L 276.559276 206.576988 
L 278.153751 203.499655 
L 279.748227 223.195221 
L 281.342702 211.91126 
L 282.937178 203.909974 
L 284.531653 200.627299 
L 286.126129 200.4222 
L 287.720604 197.549844 
L 289.31508 188.727919 
L 290.909555 196.113787 
L 292.504031 196.729205 
L 294.098507 226.888216 
L 295.692982 204.935712 
L 297.287458 203.294435 
L 298.881933 205.140932 
L 300.476409 207.192528 
L 302.070884 180.939509 
L 303.66536 196.524106 
L 305.259835 214.578396 
L 306.854311 226.067578 
L 308.448786 217.040311 
L 310.043262 225.452038 
L 311.637737 204.525392 
L 313.232213 193.856971 
L 314.826688 193.036332 
L 316.421164 204.935712 
L 318.01564 196.524106 
L 319.610115 196.934426 
L 321.204591 213.757757 
L 322.799066 181.95747 
L 324.393542 206.987429 
L 325.988017 185.445244 
L 327.582493 190.984614 
L 329.176968 195.498248 
L 330.771444 196.934426 
L 332.365919 202.884115 
L 333.960395 200.4222 
L 335.55487 176.623198 
L 337.149346 194.677609 
L 338.743821 199.396341 
L 340.338297 201.037618 
L 341.932773 209.039025 
L 343.527248 205.96157 
L 345.121724 214.373297 
L 346.716199 192.010473 
L 348.310675 184.624605 
L 349.90515 192.831112 
L 351.499626 176.828418 
L 353.094101 171.289048 
L 354.688577 202.884115 
L 356.283052 173.956062 
L 357.877528 185.855563 
L 359.472003 188.933018 
L 361.066479 192.831112 
L 362.660954 201.858256 
L 364.25543 182.778108 
L 365.849905 185.650464 
L 367.444381 188.933018 
L 369.038857 199.191121 
L 370.633332 182.16269 
L 372.227808 195.908567 
L 373.822283 186.471103 
L 375.416759 193.856971 
L 377.011234 219.707447 
L 378.60571 166.159875 
L 380.200185 190.779516 
L 381.794661 180.931611 
L 383.389136 201.858256 
L 384.983612 191.189835 
L 386.578087 177.033517 
L 388.172563 199.80666 
L 389.767038 210.475082 
L 391.361514 179.700653 
L 392.95599 220.733306 
L 394.550465 186.676202 
L 396.144941 182.573009 
L 397.739416 186.676202 
L 399.333892 180.316193 
L 400.928367 182.983328 
L 402.522843 206.782209 
L 404.117318 179.905873 
L 405.711794 196.113787 
L 407.306269 205.75635 
L 410.49522 181.95747 
L 412.089696 191.805253 
L 413.684171 183.188427 
L 415.278647 186.060784 
L 416.873123 180.931611 
L 418.467598 184.214286 
L 420.062074 193.241431 
L 421.656549 180.521292 
L 423.251025 180.316193 
L 424.8455 210.680302 
L 426.439976 182.983328 
L 428.034451 218.886809 
L 429.628927 176.828418 
L 431.223402 192.010473 
L 432.817878 201.653158 
L 434.412353 203.294435 
L 436.006829 198.370482 
L 437.601304 213.962856 
L 439.19578 192.831112 
L 440.790256 208.833805 
L 442.384731 199.191121 
L 443.979207 173.545743 
L 445.573682 185.650464 
L 447.168158 187.70206 
L 448.762633 190.574295 
L 450.357109 176.00778 
L 451.951584 171.083828 
L 453.54606 199.191121 
L 455.140535 162.877321 
L 456.735011 181.34193 
L 458.329486 190.574295 
L 459.923962 172.520006 
L 461.518437 176.828418 
L 463.112913 173.135424 
L 464.707389 171.494147 
L 466.301864 185.240145 
L 467.89634 170.673508 
L 469.490815 183.803967 
L 471.085291 207.602847 
L 472.679766 203.294435 
L 474.274242 202.678895 
L 475.868717 179.290334 
L 477.463193 170.878729 
L 479.057668 190.163976 
L 480.652144 185.445244 
L 482.246619 179.290334 
L 483.841095 178.880015 
L 485.43557 166.980635 
L 487.030046 197.755064 
L 488.624522 176.623198 
L 490.218997 173.340644 
L 491.813473 185.445244 
L 493.407948 164.723819 
L 495.002424 182.573009 
L 496.596899 172.314785 
L 498.191375 194.882708 
L 499.78585 167.390954 
L 501.380326 195.908567 
L 502.974801 193.036332 
L 504.569277 169.23733 
L 506.163752 181.54715 
L 507.758228 173.545743 
L 509.352703 194.26729 
L 510.947179 176.828418 
L 512.541655 174.571602 
L 514.13613 171.904466 
L 515.730606 176.00778 
L 517.325081 161.236044 
L 518.919557 173.545743 
L 520.514032 201.037618 
L 522.108508 196.729205 
L 523.702983 181.136831 
L 525.297459 179.085235 
L 526.891934 172.109686 
L 528.48641 191.805253 
L 530.080885 181.95747 
L 531.675361 174.571602 
L 533.269836 178.880015 
L 534.864312 163.492861 
L 536.458788 191.189835 
L 538.053263 177.033517 
L 539.647739 160.825725 
L 541.242214 170.263189 
L 542.83669 178.264596 
L 544.431165 179.290334 
L 546.025641 194.677609 
L 547.620116 176.418099 
L 549.214592 163.08242 
L 550.809067 180.110972 
L 552.403543 170.730737 
L 553.998018 173.750963 
L 555.592494 209.859664 
L 557.186969 179.085235 
L 558.781445 176.212879 
L 560.37592 191.600154 
L 561.970396 175.80256 
L 565.159347 188.933018 
L 566.753823 196.318886 
L 568.348298 179.700653 
L 569.942774 181.54715 
L 571.537249 167.390954 
L 573.131725 164.723819 
L 574.7262 171.289048 
L 576.320676 182.573009 
L 577.915151 185.855563 
L 579.509627 190.369196 
L 581.104102 173.340644 
L 582.698578 176.00778 
L 584.293053 188.317479 
L 585.887529 187.291741 
L 587.482005 180.110972 
L 589.07648 174.161283 
L 590.670956 178.469695 
L 592.265431 173.340644 
L 593.859907 173.340644 
L 595.454382 160.620505 
L 597.048858 188.317479 
L 598.643333 169.85287 
L 600.237809 166.980635 
L 601.832284 159.594767 
L 603.42676 174.981921 
L 605.021235 185.240145 
L 606.615711 186.676202 
L 608.210186 180.931611 
L 609.804662 168.621912 
L 611.399138 184.419385 
L 612.993613 173.340644 
L 614.588089 168.006373 
L 616.182564 163.492861 
L 617.77704 178.880015 
L 619.371515 220.528086 
L 620.965991 187.49684 
L 622.560466 197.755064 
L 624.154942 172.314785 
L 625.749417 175.39224 
L 627.343893 198.780801 
L 628.938368 172.109686 
L 630.532844 170.878729 
L 632.127319 165.339237 
L 633.721795 186.265882 
L 635.316271 195.908567 
L 636.910746 181.136831 
L 638.505222 161.646364 
L 640.099697 166.570194 
L 641.694173 197.960163 
L 643.288648 180.110972 
L 644.883124 158.774007 
L 646.477599 195.908567 
L 648.072075 187.49684 
L 649.66655 181.34193 
L 651.261026 171.904466 
L 652.855501 165.339237 
L 654.449977 189.753657 
L 656.044452 180.521292 
L 657.638928 182.983328 
L 659.233404 193.446651 
L 660.827879 174.776822 
L 662.422355 182.983328 
L 664.01683 172.725105 
L 665.611306 192.626013 
L 667.205781 171.699367 
L 668.800257 178.059376 
L 670.394732 179.700653 
L 671.989208 176.623198 
L 673.583683 208.628706 
L 675.178159 178.059376 
L 676.772634 172.109686 
L 678.36711 180.726512 
L 679.961585 177.854277 
L 681.556061 188.317479 
L 683.150537 165.749556 
L 684.745012 184.009066 
L 686.339488 168.416692 
L 687.933963 182.573009 
L 687.933963 182.573009 
" style="fill:none;stroke:#4daf4a;stroke-linecap:square;stroke-opacity:0.25098;stroke-width:1.5;"/>
   </g>
   <g id="patch_3">
    <path d="M 50.14375 337.159219 
L 50.14375 10.999219 
" style="fill:none;stroke:#000000;stroke-linecap:square;stroke-linejoin:miter;stroke-width:0.8;"/>
   </g>
   <g id="patch_4">
    <path d="M 719.74375 337.159219 
L 719.74375 10.999219 
" style="fill:none;stroke:#000000;stroke-linecap:square;stroke-linejoin:miter;stroke-width:0.8;"/>
   </g>
   <g id="patch_5">
    <path d="M 50.14375 337.159219 
L 719.74375 337.159219 
" style="fill:none;stroke:#000000;stroke-linecap:square;stroke-linejoin:miter;stroke-width:0.8;"/>
   </g>
   <g id="patch_6">
    <path d="M 50.14375 10.999219 
L 719.74375 10.999219 
" style="fill:none;stroke:#000000;stroke-linecap:square;stroke-linejoin:miter;stroke-width:0.8;"/>
   </g>
   <g id="legend_1">
    <g id="patch_7">
     <path d="M 57.14375 48.355469 
L 114.584375 48.355469 
Q 116.584375 48.355469 116.584375 46.355469 
L 116.584375 17.999219 
Q 116.584375 15.999219 114.584375 15.999219 
L 57.14375 15.999219 
Q 55.14375 15.999219 55.14375 17.999219 
L 55.14375 46.355469 
Q 55.14375 48.355469 57.14375 48.355469 
z
" style="fill:#ffffff;opacity:0.8;stroke:#cccccc;stroke-linejoin:miter;"/>
    </g>
    <g id="line2d_41">
     <path d="M 59.14375 24.097656 
L 79.14375 24.097656 
" style="fill:none;stroke:#377eb8;stroke-linecap:square;stroke-width:2;"/>
    </g>
    <g id="line2d_42"/>
    <g id="text_21">
     <!-- Train -->
     <defs>
      <path d="M -0.296875 72.90625 
L 61.375 72.90625 
L 61.375 64.59375 
L 35.5 64.59375 
L 35.5 0 
L 25.59375 0 
L 25.59375 64.59375 
L -0.296875 64.59375 
z
" id="DejaVuSans-84"/>
      <path d="M 9.421875 54.6875 
L 18.40625 54.6875 
L 18.40625 0 
L 9.421875 0 
z
M 9.421875 75.984375 
L 18.40625 75.984375 
L 18.40625 64.59375 
L 9.421875 64.59375 
z
" id="DejaVuSans-105"/>
      <path d="M 54.890625 33.015625 
L 54.890625 0 
L 45.90625 0 
L 45.90625 32.71875 
Q 45.90625 40.484375 42.875 44.328125 
Q 39.84375 48.1875 33.796875 48.1875 
Q 26.515625 48.1875 22.3125 43.546875 
Q 18.109375 38.921875 18.109375 30.90625 
L 18.109375 0 
L 9.078125 0 
L 9.078125 54.6875 
L 18.109375 54.6875 
L 18.109375 46.1875 
Q 21.34375 51.125 25.703125 53.5625 
Q 30.078125 56 35.796875 56 
Q 45.21875 56 50.046875 50.171875 
Q 54.890625 44.34375 54.890625 33.015625 
z
" id="DejaVuSans-110"/>
     </defs>
     <g transform="translate(87.14375 27.597656)scale(0.1 -0.1)">
      <use xlink:href="#DejaVuSans-84"/>
      <use x="60.865234" xlink:href="#DejaVuSans-114"/>
      <use x="101.978516" xlink:href="#DejaVuSans-97"/>
      <use x="163.257812" xlink:href="#DejaVuSans-105"/>
      <use x="191.041016" xlink:href="#DejaVuSans-110"/>
     </g>
    </g>
    <g id="line2d_43">
     <path d="M 59.14375 38.775781 
L 79.14375 38.775781 
" style="fill:none;stroke:#4daf4a;stroke-linecap:square;stroke-width:2;"/>
    </g>
    <g id="line2d_44"/>
    <g id="text_22">
     <!-- Test -->
     <defs>
      <path d="M 56.203125 29.59375 
L 56.203125 25.203125 
L 14.890625 25.203125 
Q 15.484375 15.921875 20.484375 11.0625 
Q 25.484375 6.203125 34.421875 6.203125 
Q 39.59375 6.203125 44.453125 7.46875 
Q 49.3125 8.734375 54.109375 11.28125 
L 54.109375 2.78125 
Q 49.265625 0.734375 44.1875 -0.34375 
Q 39.109375 -1.421875 33.890625 -1.421875 
Q 20.796875 -1.421875 13.15625 6.1875 
Q 5.515625 13.8125 5.515625 26.8125 
Q 5.515625 40.234375 12.765625 48.109375 
Q 20.015625 56 32.328125 56 
Q 43.359375 56 49.78125 48.890625 
Q 56.203125 41.796875 56.203125 29.59375 
z
M 47.21875 32.234375 
Q 47.125 39.59375 43.09375 43.984375 
Q 39.0625 48.390625 32.421875 48.390625 
Q 24.90625 48.390625 20.390625 44.140625 
Q 15.875 39.890625 15.1875 32.171875 
z
" id="DejaVuSans-101"/>
      <path d="M 44.28125 53.078125 
L 44.28125 44.578125 
Q 40.484375 46.53125 36.375 47.5 
Q 32.28125 48.484375 27.875 48.484375 
Q 21.1875 48.484375 17.84375 46.4375 
Q 14.5 44.390625 14.5 40.28125 
Q 14.5 37.15625 16.890625 35.375 
Q 19.28125 33.59375 26.515625 31.984375 
L 29.59375 31.296875 
Q 39.15625 29.25 43.1875 25.515625 
Q 47.21875 21.78125 47.21875 15.09375 
Q 47.21875 7.46875 41.1875 3.015625 
Q 35.15625 -1.421875 24.609375 -1.421875 
Q 20.21875 -1.421875 15.453125 -0.5625 
Q 10.6875 0.296875 5.421875 2 
L 5.421875 11.28125 
Q 10.40625 8.6875 15.234375 7.390625 
Q 20.0625 6.109375 24.8125 6.109375 
Q 31.15625 6.109375 34.5625 8.28125 
Q 37.984375 10.453125 37.984375 14.40625 
Q 37.984375 18.0625 35.515625 20.015625 
Q 33.0625 21.96875 24.703125 23.78125 
L 21.578125 24.515625 
Q 13.234375 26.265625 9.515625 29.90625 
Q 5.8125 33.546875 5.8125 39.890625 
Q 5.8125 47.609375 11.28125 51.796875 
Q 16.75 56 26.8125 56 
Q 31.78125 56 36.171875 55.265625 
Q 40.578125 54.546875 44.28125 53.078125 
z
" id="DejaVuSans-115"/>
      <path d="M 18.3125 70.21875 
L 18.3125 54.6875 
L 36.8125 54.6875 
L 36.8125 47.703125 
L 18.3125 47.703125 
L 18.3125 18.015625 
Q 18.3125 11.328125 20.140625 9.421875 
Q 21.96875 7.515625 27.59375 7.515625 
L 36.8125 7.515625 
L 36.8125 0 
L 27.59375 0 
Q 17.1875 0 13.234375 3.875 
Q 9.28125 7.765625 9.28125 18.015625 
L 9.28125 47.703125 
L 2.6875 47.703125 
L 2.6875 54.6875 
L 9.28125 54.6875 
L 9.28125 70.21875 
z
" id="DejaVuSans-116"/>
     </defs>
     <g transform="translate(87.14375 42.275781)scale(0.1 -0.1)">
      <use xlink:href="#DejaVuSans-84"/>
      <use x="60.818359" xlink:href="#DejaVuSans-101"/>
      <use x="122.341797" xlink:href="#DejaVuSans-115"/>
      <use x="174.441406" xlink:href="#DejaVuSans-116"/>
     </g>
    </g>
   </g>
  </g>
 </g>
 <defs>
  <clipPath id="p7cbb55545d">
   <rect height="326.16" width="669.6" x="50.14375" y="10.999219"/>
  </clipPath>
 </defs>
</svg>
