<?xml version="1.0" encoding="utf-8" standalone="no"?>
<!DOCTYPE svg PUBLIC "-//W3C//DTD SVG 1.1//EN"
  "http://www.w3.org/Graphics/SVG/1.1/DTD/svg11.dtd">
<!-- Created with matplotlib (https://matplotlib.org/) -->
<svg height="320.355469pt" version="1.1" viewBox="0 0 615.34375 320.355469" width="615.34375pt" xmlns="http://www.w3.org/2000/svg" xmlns:xlink="http://www.w3.org/1999/xlink">
 <defs>
  <style type="text/css">
*{stroke-linecap:butt;stroke-linejoin:round;white-space:pre;}
  </style>
 </defs>
 <g id="figure_1">
  <g id="patch_1">
   <path d="M 0 320.355469 
L 615.34375 320.355469 
L 615.34375 0 
L 0 0 
z
" style="fill:#ffffff;"/>
  </g>
  <g id="axes_1">
   <g id="patch_2">
    <path d="M 50.14375 282.799219 
L 608.14375 282.799219 
L 608.14375 10.999219 
L 50.14375 10.999219 
z
" style="fill:#ffffff;"/>
   </g>
   <g id="matplotlib.axis_1">
    <g id="xtick_1">
     <g id="line2d_1">
      <path clip-path="url(#p983023699c)" d="M 50.14375 282.799219 
L 50.14375 10.999219 
" style="fill:none;stroke:#b0b0b0;stroke-linecap:square;stroke-width:0.8;"/>
     </g>
     <g id="line2d_2">
      <defs>
       <path d="M 0 0 
L 0 3.5 
" id="mbc9ad0388f" style="stroke:#000000;stroke-width:0.8;"/>
      </defs>
      <g>
       <use style="stroke:#000000;stroke-width:0.8;" x="50.14375" xlink:href="#mbc9ad0388f" y="282.799219"/>
      </g>
     </g>
     <g id="text_1">
      <!-- 0 -->
      <defs>
       <path d="M 31.78125 66.40625 
Q 24.171875 66.40625 20.328125 58.90625 
Q 16.5 51.421875 16.5 36.375 
Q 16.5 21.390625 20.328125 13.890625 
Q 24.171875 6.390625 31.78125 6.390625 
Q 39.453125 6.390625 43.28125 13.890625 
Q 47.125 21.390625 47.125 36.375 
Q 47.125 51.421875 43.28125 58.90625 
Q 39.453125 66.40625 31.78125 66.40625 
z
M 31.78125 74.21875 
Q 44.046875 74.21875 50.515625 64.515625 
Q 56.984375 54.828125 56.984375 36.375 
Q 56.984375 17.96875 50.515625 8.265625 
Q 44.046875 -1.421875 31.78125 -1.421875 
Q 19.53125 -1.421875 13.0625 8.265625 
Q 6.59375 17.96875 6.59375 36.375 
Q 6.59375 54.828125 13.0625 64.515625 
Q 19.53125 74.21875 31.78125 74.21875 
z
" id="DejaVuSans-48"/>
      </defs>
      <g transform="translate(46.9625 297.397656)scale(0.1 -0.1)">
       <use xlink:href="#DejaVuSans-48"/>
      </g>
     </g>
    </g>
    <g id="xtick_2">
     <g id="line2d_3">
      <path clip-path="url(#p983023699c)" d="M 156.439588 282.799219 
L 156.439588 10.999219 
" style="fill:none;stroke:#b0b0b0;stroke-linecap:square;stroke-width:0.8;"/>
     </g>
     <g id="line2d_4">
      <g>
       <use style="stroke:#000000;stroke-width:0.8;" x="156.439588" xlink:href="#mbc9ad0388f" y="282.799219"/>
      </g>
     </g>
     <g id="text_2">
      <!-- 100 -->
      <defs>
       <path d="M 12.40625 8.296875 
L 28.515625 8.296875 
L 28.515625 63.921875 
L 10.984375 60.40625 
L 10.984375 69.390625 
L 28.421875 72.90625 
L 38.28125 72.90625 
L 38.28125 8.296875 
L 54.390625 8.296875 
L 54.390625 0 
L 12.40625 0 
z
" id="DejaVuSans-49"/>
      </defs>
      <g transform="translate(146.895838 297.397656)scale(0.1 -0.1)">
       <use xlink:href="#DejaVuSans-49"/>
       <use x="63.623047" xlink:href="#DejaVuSans-48"/>
       <use x="127.246094" xlink:href="#DejaVuSans-48"/>
      </g>
     </g>
    </g>
    <g id="xtick_3">
     <g id="line2d_5">
      <path clip-path="url(#p983023699c)" d="M 262.735425 282.799219 
L 262.735425 10.999219 
" style="fill:none;stroke:#b0b0b0;stroke-linecap:square;stroke-width:0.8;"/>
     </g>
     <g id="line2d_6">
      <g>
       <use style="stroke:#000000;stroke-width:0.8;" x="262.735425" xlink:href="#mbc9ad0388f" y="282.799219"/>
      </g>
     </g>
     <g id="text_3">
      <!-- 200 -->
      <defs>
       <path d="M 19.1875 8.296875 
L 53.609375 8.296875 
L 53.609375 0 
L 7.328125 0 
L 7.328125 8.296875 
Q 12.9375 14.109375 22.625 23.890625 
Q 32.328125 33.6875 34.8125 36.53125 
Q 39.546875 41.84375 41.421875 45.53125 
Q 43.3125 49.21875 43.3125 52.78125 
Q 43.3125 58.59375 39.234375 62.25 
Q 35.15625 65.921875 28.609375 65.921875 
Q 23.96875 65.921875 18.8125 64.3125 
Q 13.671875 62.703125 7.8125 59.421875 
L 7.8125 69.390625 
Q 13.765625 71.78125 18.9375 73 
Q 24.125 74.21875 28.421875 74.21875 
Q 39.75 74.21875 46.484375 68.546875 
Q 53.21875 62.890625 53.21875 53.421875 
Q 53.21875 48.921875 51.53125 44.890625 
Q 49.859375 40.875 45.40625 35.40625 
Q 44.1875 33.984375 37.640625 27.21875 
Q 31.109375 20.453125 19.1875 8.296875 
z
" id="DejaVuSans-50"/>
      </defs>
      <g transform="translate(253.191675 297.397656)scale(0.1 -0.1)">
       <use xlink:href="#DejaVuSans-50"/>
       <use x="63.623047" xlink:href="#DejaVuSans-48"/>
       <use x="127.246094" xlink:href="#DejaVuSans-48"/>
      </g>
     </g>
    </g>
    <g id="xtick_4">
     <g id="line2d_7">
      <path clip-path="url(#p983023699c)" d="M 369.031263 282.799219 
L 369.031263 10.999219 
" style="fill:none;stroke:#b0b0b0;stroke-linecap:square;stroke-width:0.8;"/>
     </g>
     <g id="line2d_8">
      <g>
       <use style="stroke:#000000;stroke-width:0.8;" x="369.031263" xlink:href="#mbc9ad0388f" y="282.799219"/>
      </g>
     </g>
     <g id="text_4">
      <!-- 300 -->
      <defs>
       <path d="M 40.578125 39.3125 
Q 47.65625 37.796875 51.625 33 
Q 55.609375 28.21875 55.609375 21.1875 
Q 55.609375 10.40625 48.1875 4.484375 
Q 40.765625 -1.421875 27.09375 -1.421875 
Q 22.515625 -1.421875 17.65625 -0.515625 
Q 12.796875 0.390625 7.625 2.203125 
L 7.625 11.71875 
Q 11.71875 9.328125 16.59375 8.109375 
Q 21.484375 6.890625 26.8125 6.890625 
Q 36.078125 6.890625 40.9375 10.546875 
Q 45.796875 14.203125 45.796875 21.1875 
Q 45.796875 27.640625 41.28125 31.265625 
Q 36.765625 34.90625 28.71875 34.90625 
L 20.21875 34.90625 
L 20.21875 43.015625 
L 29.109375 43.015625 
Q 36.375 43.015625 40.234375 45.921875 
Q 44.09375 48.828125 44.09375 54.296875 
Q 44.09375 59.90625 40.109375 62.90625 
Q 36.140625 65.921875 28.71875 65.921875 
Q 24.65625 65.921875 20.015625 65.03125 
Q 15.375 64.15625 9.8125 62.3125 
L 9.8125 71.09375 
Q 15.4375 72.65625 20.34375 73.4375 
Q 25.25 74.21875 29.59375 74.21875 
Q 40.828125 74.21875 47.359375 69.109375 
Q 53.90625 64.015625 53.90625 55.328125 
Q 53.90625 49.265625 50.4375 45.09375 
Q 46.96875 40.921875 40.578125 39.3125 
z
" id="DejaVuSans-51"/>
      </defs>
      <g transform="translate(359.487513 297.397656)scale(0.1 -0.1)">
       <use xlink:href="#DejaVuSans-51"/>
       <use x="63.623047" xlink:href="#DejaVuSans-48"/>
       <use x="127.246094" xlink:href="#DejaVuSans-48"/>
      </g>
     </g>
    </g>
    <g id="xtick_5">
     <g id="line2d_9">
      <path clip-path="url(#p983023699c)" d="M 475.327101 282.799219 
L 475.327101 10.999219 
" style="fill:none;stroke:#b0b0b0;stroke-linecap:square;stroke-width:0.8;"/>
     </g>
     <g id="line2d_10">
      <g>
       <use style="stroke:#000000;stroke-width:0.8;" x="475.327101" xlink:href="#mbc9ad0388f" y="282.799219"/>
      </g>
     </g>
     <g id="text_5">
      <!-- 400 -->
      <defs>
       <path d="M 37.796875 64.3125 
L 12.890625 25.390625 
L 37.796875 25.390625 
z
M 35.203125 72.90625 
L 47.609375 72.90625 
L 47.609375 25.390625 
L 58.015625 25.390625 
L 58.015625 17.1875 
L 47.609375 17.1875 
L 47.609375 0 
L 37.796875 0 
L 37.796875 17.1875 
L 4.890625 17.1875 
L 4.890625 26.703125 
z
" id="DejaVuSans-52"/>
      </defs>
      <g transform="translate(465.783351 297.397656)scale(0.1 -0.1)">
       <use xlink:href="#DejaVuSans-52"/>
       <use x="63.623047" xlink:href="#DejaVuSans-48"/>
       <use x="127.246094" xlink:href="#DejaVuSans-48"/>
      </g>
     </g>
    </g>
    <g id="xtick_6">
     <g id="line2d_11">
      <path clip-path="url(#p983023699c)" d="M 581.622938 282.799219 
L 581.622938 10.999219 
" style="fill:none;stroke:#b0b0b0;stroke-linecap:square;stroke-width:0.8;"/>
     </g>
     <g id="line2d_12">
      <g>
       <use style="stroke:#000000;stroke-width:0.8;" x="581.622938" xlink:href="#mbc9ad0388f" y="282.799219"/>
      </g>
     </g>
     <g id="text_6">
      <!-- 500 -->
      <defs>
       <path d="M 10.796875 72.90625 
L 49.515625 72.90625 
L 49.515625 64.59375 
L 19.828125 64.59375 
L 19.828125 46.734375 
Q 21.96875 47.46875 24.109375 47.828125 
Q 26.265625 48.1875 28.421875 48.1875 
Q 40.625 48.1875 47.75 41.5 
Q 54.890625 34.8125 54.890625 23.390625 
Q 54.890625 11.625 47.5625 5.09375 
Q 40.234375 -1.421875 26.90625 -1.421875 
Q 22.3125 -1.421875 17.546875 -0.640625 
Q 12.796875 0.140625 7.71875 1.703125 
L 7.71875 11.625 
Q 12.109375 9.234375 16.796875 8.0625 
Q 21.484375 6.890625 26.703125 6.890625 
Q 35.15625 6.890625 40.078125 11.328125 
Q 45.015625 15.765625 45.015625 23.390625 
Q 45.015625 31 40.078125 35.4375 
Q 35.15625 39.890625 26.703125 39.890625 
Q 22.75 39.890625 18.8125 39.015625 
Q 14.890625 38.140625 10.796875 36.28125 
z
" id="DejaVuSans-53"/>
      </defs>
      <g transform="translate(572.079188 297.397656)scale(0.1 -0.1)">
       <use xlink:href="#DejaVuSans-53"/>
       <use x="63.623047" xlink:href="#DejaVuSans-48"/>
       <use x="127.246094" xlink:href="#DejaVuSans-48"/>
      </g>
     </g>
    </g>
    <g id="text_7">
     <!-- Epoch -->
     <defs>
      <path d="M 9.8125 72.90625 
L 55.90625 72.90625 
L 55.90625 64.59375 
L 19.671875 64.59375 
L 19.671875 43.015625 
L 54.390625 43.015625 
L 54.390625 34.71875 
L 19.671875 34.71875 
L 19.671875 8.296875 
L 56.78125 8.296875 
L 56.78125 0 
L 9.8125 0 
z
" id="DejaVuSans-69"/>
      <path d="M 18.109375 8.203125 
L 18.109375 -20.796875 
L 9.078125 -20.796875 
L 9.078125 54.6875 
L 18.109375 54.6875 
L 18.109375 46.390625 
Q 20.953125 51.265625 25.265625 53.625 
Q 29.59375 56 35.59375 56 
Q 45.5625 56 51.78125 48.09375 
Q 58.015625 40.1875 58.015625 27.296875 
Q 58.015625 14.40625 51.78125 6.484375 
Q 45.5625 -1.421875 35.59375 -1.421875 
Q 29.59375 -1.421875 25.265625 0.953125 
Q 20.953125 3.328125 18.109375 8.203125 
z
M 48.6875 27.296875 
Q 48.6875 37.203125 44.609375 42.84375 
Q 40.53125 48.484375 33.40625 48.484375 
Q 26.265625 48.484375 22.1875 42.84375 
Q 18.109375 37.203125 18.109375 27.296875 
Q 18.109375 17.390625 22.1875 11.75 
Q 26.265625 6.109375 33.40625 6.109375 
Q 40.53125 6.109375 44.609375 11.75 
Q 48.6875 17.390625 48.6875 27.296875 
z
" id="DejaVuSans-112"/>
      <path d="M 30.609375 48.390625 
Q 23.390625 48.390625 19.1875 42.75 
Q 14.984375 37.109375 14.984375 27.296875 
Q 14.984375 17.484375 19.15625 11.84375 
Q 23.34375 6.203125 30.609375 6.203125 
Q 37.796875 6.203125 41.984375 11.859375 
Q 46.1875 17.53125 46.1875 27.296875 
Q 46.1875 37.015625 41.984375 42.703125 
Q 37.796875 48.390625 30.609375 48.390625 
z
M 30.609375 56 
Q 42.328125 56 49.015625 48.375 
Q 55.71875 40.765625 55.71875 27.296875 
Q 55.71875 13.875 49.015625 6.21875 
Q 42.328125 -1.421875 30.609375 -1.421875 
Q 18.84375 -1.421875 12.171875 6.21875 
Q 5.515625 13.875 5.515625 27.296875 
Q 5.515625 40.765625 12.171875 48.375 
Q 18.84375 56 30.609375 56 
z
" id="DejaVuSans-111"/>
      <path d="M 48.78125 52.59375 
L 48.78125 44.1875 
Q 44.96875 46.296875 41.140625 47.34375 
Q 37.3125 48.390625 33.40625 48.390625 
Q 24.65625 48.390625 19.8125 42.84375 
Q 14.984375 37.3125 14.984375 27.296875 
Q 14.984375 17.28125 19.8125 11.734375 
Q 24.65625 6.203125 33.40625 6.203125 
Q 37.3125 6.203125 41.140625 7.25 
Q 44.96875 8.296875 48.78125 10.40625 
L 48.78125 2.09375 
Q 45.015625 0.34375 40.984375 -0.53125 
Q 36.96875 -1.421875 32.421875 -1.421875 
Q 20.0625 -1.421875 12.78125 6.34375 
Q 5.515625 14.109375 5.515625 27.296875 
Q 5.515625 40.671875 12.859375 48.328125 
Q 20.21875 56 33.015625 56 
Q 37.15625 56 41.109375 55.140625 
Q 45.0625 54.296875 48.78125 52.59375 
z
" id="DejaVuSans-99"/>
      <path d="M 54.890625 33.015625 
L 54.890625 0 
L 45.90625 0 
L 45.90625 32.71875 
Q 45.90625 40.484375 42.875 44.328125 
Q 39.84375 48.1875 33.796875 48.1875 
Q 26.515625 48.1875 22.3125 43.546875 
Q 18.109375 38.921875 18.109375 30.90625 
L 18.109375 0 
L 9.078125 0 
L 9.078125 75.984375 
L 18.109375 75.984375 
L 18.109375 46.1875 
Q 21.34375 51.125 25.703125 53.5625 
Q 30.078125 56 35.796875 56 
Q 45.21875 56 50.046875 50.171875 
Q 54.890625 44.34375 54.890625 33.015625 
z
" id="DejaVuSans-104"/>
     </defs>
     <g transform="translate(313.832812 311.075781)scale(0.1 -0.1)">
      <use xlink:href="#DejaVuSans-69"/>
      <use x="63.183594" xlink:href="#DejaVuSans-112"/>
      <use x="126.660156" xlink:href="#DejaVuSans-111"/>
      <use x="187.841797" xlink:href="#DejaVuSans-99"/>
      <use x="242.822266" xlink:href="#DejaVuSans-104"/>
     </g>
    </g>
   </g>
   <g id="matplotlib.axis_2">
    <g id="ytick_1">
     <g id="line2d_13">
      <path clip-path="url(#p983023699c)" d="M 50.14375 282.799219 
L 608.14375 282.799219 
" style="fill:none;stroke:#b0b0b0;stroke-linecap:square;stroke-width:0.8;"/>
     </g>
     <g id="line2d_14">
      <defs>
       <path d="M 0 0 
L -3.5 0 
" id="md62cc73fe1" style="stroke:#000000;stroke-width:0.8;"/>
      </defs>
      <g>
       <use style="stroke:#000000;stroke-width:0.8;" x="50.14375" xlink:href="#md62cc73fe1" y="282.799219"/>
      </g>
     </g>
     <g id="text_8">
      <!-- 0.82 -->
      <defs>
       <path d="M 10.6875 12.40625 
L 21 12.40625 
L 21 0 
L 10.6875 0 
z
" id="DejaVuSans-46"/>
       <path d="M 31.78125 34.625 
Q 24.75 34.625 20.71875 30.859375 
Q 16.703125 27.09375 16.703125 20.515625 
Q 16.703125 13.921875 20.71875 10.15625 
Q 24.75 6.390625 31.78125 6.390625 
Q 38.8125 6.390625 42.859375 10.171875 
Q 46.921875 13.96875 46.921875 20.515625 
Q 46.921875 27.09375 42.890625 30.859375 
Q 38.875 34.625 31.78125 34.625 
z
M 21.921875 38.8125 
Q 15.578125 40.375 12.03125 44.71875 
Q 8.5 49.078125 8.5 55.328125 
Q 8.5 64.0625 14.71875 69.140625 
Q 20.953125 74.21875 31.78125 74.21875 
Q 42.671875 74.21875 48.875 69.140625 
Q 55.078125 64.0625 55.078125 55.328125 
Q 55.078125 49.078125 51.53125 44.71875 
Q 48 40.375 41.703125 38.8125 
Q 48.828125 37.15625 52.796875 32.3125 
Q 56.78125 27.484375 56.78125 20.515625 
Q 56.78125 9.90625 50.3125 4.234375 
Q 43.84375 -1.421875 31.78125 -1.421875 
Q 19.734375 -1.421875 13.25 4.234375 
Q 6.78125 9.90625 6.78125 20.515625 
Q 6.78125 27.484375 10.78125 32.3125 
Q 14.796875 37.15625 21.921875 38.8125 
z
M 18.3125 54.390625 
Q 18.3125 48.734375 21.84375 45.5625 
Q 25.390625 42.390625 31.78125 42.390625 
Q 38.140625 42.390625 41.71875 45.5625 
Q 45.3125 48.734375 45.3125 54.390625 
Q 45.3125 60.0625 41.71875 63.234375 
Q 38.140625 66.40625 31.78125 66.40625 
Q 25.390625 66.40625 21.84375 63.234375 
Q 18.3125 60.0625 18.3125 54.390625 
z
" id="DejaVuSans-56"/>
      </defs>
      <g transform="translate(20.878125 286.598437)scale(0.1 -0.1)">
       <use xlink:href="#DejaVuSans-48"/>
       <use x="63.623047" xlink:href="#DejaVuSans-46"/>
       <use x="95.410156" xlink:href="#DejaVuSans-56"/>
       <use x="159.033203" xlink:href="#DejaVuSans-50"/>
      </g>
     </g>
    </g>
    <g id="ytick_2">
     <g id="line2d_15">
      <path clip-path="url(#p983023699c)" d="M 50.14375 248.824219 
L 608.14375 248.824219 
" style="fill:none;stroke:#b0b0b0;stroke-linecap:square;stroke-width:0.8;"/>
     </g>
     <g id="line2d_16">
      <g>
       <use style="stroke:#000000;stroke-width:0.8;" x="50.14375" xlink:href="#md62cc73fe1" y="248.824219"/>
      </g>
     </g>
     <g id="text_9">
      <!-- 0.84 -->
      <g transform="translate(20.878125 252.623437)scale(0.1 -0.1)">
       <use xlink:href="#DejaVuSans-48"/>
       <use x="63.623047" xlink:href="#DejaVuSans-46"/>
       <use x="95.410156" xlink:href="#DejaVuSans-56"/>
       <use x="159.033203" xlink:href="#DejaVuSans-52"/>
      </g>
     </g>
    </g>
    <g id="ytick_3">
     <g id="line2d_17">
      <path clip-path="url(#p983023699c)" d="M 50.14375 214.849219 
L 608.14375 214.849219 
" style="fill:none;stroke:#b0b0b0;stroke-linecap:square;stroke-width:0.8;"/>
     </g>
     <g id="line2d_18">
      <g>
       <use style="stroke:#000000;stroke-width:0.8;" x="50.14375" xlink:href="#md62cc73fe1" y="214.849219"/>
      </g>
     </g>
     <g id="text_10">
      <!-- 0.86 -->
      <defs>
       <path d="M 33.015625 40.375 
Q 26.375 40.375 22.484375 35.828125 
Q 18.609375 31.296875 18.609375 23.390625 
Q 18.609375 15.53125 22.484375 10.953125 
Q 26.375 6.390625 33.015625 6.390625 
Q 39.65625 6.390625 43.53125 10.953125 
Q 47.40625 15.53125 47.40625 23.390625 
Q 47.40625 31.296875 43.53125 35.828125 
Q 39.65625 40.375 33.015625 40.375 
z
M 52.59375 71.296875 
L 52.59375 62.3125 
Q 48.875 64.0625 45.09375 64.984375 
Q 41.3125 65.921875 37.59375 65.921875 
Q 27.828125 65.921875 22.671875 59.328125 
Q 17.53125 52.734375 16.796875 39.40625 
Q 19.671875 43.65625 24.015625 45.921875 
Q 28.375 48.1875 33.59375 48.1875 
Q 44.578125 48.1875 50.953125 41.515625 
Q 57.328125 34.859375 57.328125 23.390625 
Q 57.328125 12.15625 50.6875 5.359375 
Q 44.046875 -1.421875 33.015625 -1.421875 
Q 20.359375 -1.421875 13.671875 8.265625 
Q 6.984375 17.96875 6.984375 36.375 
Q 6.984375 53.65625 15.1875 63.9375 
Q 23.390625 74.21875 37.203125 74.21875 
Q 40.921875 74.21875 44.703125 73.484375 
Q 48.484375 72.75 52.59375 71.296875 
z
" id="DejaVuSans-54"/>
      </defs>
      <g transform="translate(20.878125 218.648437)scale(0.1 -0.1)">
       <use xlink:href="#DejaVuSans-48"/>
       <use x="63.623047" xlink:href="#DejaVuSans-46"/>
       <use x="95.410156" xlink:href="#DejaVuSans-56"/>
       <use x="159.033203" xlink:href="#DejaVuSans-54"/>
      </g>
     </g>
    </g>
    <g id="ytick_4">
     <g id="line2d_19">
      <path clip-path="url(#p983023699c)" d="M 50.14375 180.874219 
L 608.14375 180.874219 
" style="fill:none;stroke:#b0b0b0;stroke-linecap:square;stroke-width:0.8;"/>
     </g>
     <g id="line2d_20">
      <g>
       <use style="stroke:#000000;stroke-width:0.8;" x="50.14375" xlink:href="#md62cc73fe1" y="180.874219"/>
      </g>
     </g>
     <g id="text_11">
      <!-- 0.88 -->
      <g transform="translate(20.878125 184.673437)scale(0.1 -0.1)">
       <use xlink:href="#DejaVuSans-48"/>
       <use x="63.623047" xlink:href="#DejaVuSans-46"/>
       <use x="95.410156" xlink:href="#DejaVuSans-56"/>
       <use x="159.033203" xlink:href="#DejaVuSans-56"/>
      </g>
     </g>
    </g>
    <g id="ytick_5">
     <g id="line2d_21">
      <path clip-path="url(#p983023699c)" d="M 50.14375 146.899219 
L 608.14375 146.899219 
" style="fill:none;stroke:#b0b0b0;stroke-linecap:square;stroke-width:0.8;"/>
     </g>
     <g id="line2d_22">
      <g>
       <use style="stroke:#000000;stroke-width:0.8;" x="50.14375" xlink:href="#md62cc73fe1" y="146.899219"/>
      </g>
     </g>
     <g id="text_12">
      <!-- 0.90 -->
      <defs>
       <path d="M 10.984375 1.515625 
L 10.984375 10.5 
Q 14.703125 8.734375 18.5 7.8125 
Q 22.3125 6.890625 25.984375 6.890625 
Q 35.75 6.890625 40.890625 13.453125 
Q 46.046875 20.015625 46.78125 33.40625 
Q 43.953125 29.203125 39.59375 26.953125 
Q 35.25 24.703125 29.984375 24.703125 
Q 19.046875 24.703125 12.671875 31.3125 
Q 6.296875 37.9375 6.296875 49.421875 
Q 6.296875 60.640625 12.9375 67.421875 
Q 19.578125 74.21875 30.609375 74.21875 
Q 43.265625 74.21875 49.921875 64.515625 
Q 56.59375 54.828125 56.59375 36.375 
Q 56.59375 19.140625 48.40625 8.859375 
Q 40.234375 -1.421875 26.421875 -1.421875 
Q 22.703125 -1.421875 18.890625 -0.6875 
Q 15.09375 0.046875 10.984375 1.515625 
z
M 30.609375 32.421875 
Q 37.25 32.421875 41.125 36.953125 
Q 45.015625 41.5 45.015625 49.421875 
Q 45.015625 57.28125 41.125 61.84375 
Q 37.25 66.40625 30.609375 66.40625 
Q 23.96875 66.40625 20.09375 61.84375 
Q 16.21875 57.28125 16.21875 49.421875 
Q 16.21875 41.5 20.09375 36.953125 
Q 23.96875 32.421875 30.609375 32.421875 
z
" id="DejaVuSans-57"/>
      </defs>
      <g transform="translate(20.878125 150.698437)scale(0.1 -0.1)">
       <use xlink:href="#DejaVuSans-48"/>
       <use x="63.623047" xlink:href="#DejaVuSans-46"/>
       <use x="95.410156" xlink:href="#DejaVuSans-57"/>
       <use x="159.033203" xlink:href="#DejaVuSans-48"/>
      </g>
     </g>
    </g>
    <g id="ytick_6">
     <g id="line2d_23">
      <path clip-path="url(#p983023699c)" d="M 50.14375 112.924219 
L 608.14375 112.924219 
" style="fill:none;stroke:#b0b0b0;stroke-linecap:square;stroke-width:0.8;"/>
     </g>
     <g id="line2d_24">
      <g>
       <use style="stroke:#000000;stroke-width:0.8;" x="50.14375" xlink:href="#md62cc73fe1" y="112.924219"/>
      </g>
     </g>
     <g id="text_13">
      <!-- 0.92 -->
      <g transform="translate(20.878125 116.723437)scale(0.1 -0.1)">
       <use xlink:href="#DejaVuSans-48"/>
       <use x="63.623047" xlink:href="#DejaVuSans-46"/>
       <use x="95.410156" xlink:href="#DejaVuSans-57"/>
       <use x="159.033203" xlink:href="#DejaVuSans-50"/>
      </g>
     </g>
    </g>
    <g id="ytick_7">
     <g id="line2d_25">
      <path clip-path="url(#p983023699c)" d="M 50.14375 78.949219 
L 608.14375 78.949219 
" style="fill:none;stroke:#b0b0b0;stroke-linecap:square;stroke-width:0.8;"/>
     </g>
     <g id="line2d_26">
      <g>
       <use style="stroke:#000000;stroke-width:0.8;" x="50.14375" xlink:href="#md62cc73fe1" y="78.949219"/>
      </g>
     </g>
     <g id="text_14">
      <!-- 0.94 -->
      <g transform="translate(20.878125 82.748437)scale(0.1 -0.1)">
       <use xlink:href="#DejaVuSans-48"/>
       <use x="63.623047" xlink:href="#DejaVuSans-46"/>
       <use x="95.410156" xlink:href="#DejaVuSans-57"/>
       <use x="159.033203" xlink:href="#DejaVuSans-52"/>
      </g>
     </g>
    </g>
    <g id="ytick_8">
     <g id="line2d_27">
      <path clip-path="url(#p983023699c)" d="M 50.14375 44.974219 
L 608.14375 44.974219 
" style="fill:none;stroke:#b0b0b0;stroke-linecap:square;stroke-width:0.8;"/>
     </g>
     <g id="line2d_28">
      <g>
       <use style="stroke:#000000;stroke-width:0.8;" x="50.14375" xlink:href="#md62cc73fe1" y="44.974219"/>
      </g>
     </g>
     <g id="text_15">
      <!-- 0.96 -->
      <g transform="translate(20.878125 48.773437)scale(0.1 -0.1)">
       <use xlink:href="#DejaVuSans-48"/>
       <use x="63.623047" xlink:href="#DejaVuSans-46"/>
       <use x="95.410156" xlink:href="#DejaVuSans-57"/>
       <use x="159.033203" xlink:href="#DejaVuSans-54"/>
      </g>
     </g>
    </g>
    <g id="ytick_9">
     <g id="line2d_29">
      <path clip-path="url(#p983023699c)" d="M 50.14375 10.999219 
L 608.14375 10.999219 
" style="fill:none;stroke:#b0b0b0;stroke-linecap:square;stroke-width:0.8;"/>
     </g>
     <g id="line2d_30">
      <g>
       <use style="stroke:#000000;stroke-width:0.8;" x="50.14375" xlink:href="#md62cc73fe1" y="10.999219"/>
      </g>
     </g>
     <g id="text_16">
      <!-- 0.98 -->
      <g transform="translate(20.878125 14.798437)scale(0.1 -0.1)">
       <use xlink:href="#DejaVuSans-48"/>
       <use x="63.623047" xlink:href="#DejaVuSans-46"/>
       <use x="95.410156" xlink:href="#DejaVuSans-57"/>
       <use x="159.033203" xlink:href="#DejaVuSans-56"/>
      </g>
     </g>
    </g>
    <g id="text_17">
     <!-- Accuracy -->
     <defs>
      <path d="M 34.1875 63.1875 
L 20.796875 26.90625 
L 47.609375 26.90625 
z
M 28.609375 72.90625 
L 39.796875 72.90625 
L 67.578125 0 
L 57.328125 0 
L 50.6875 18.703125 
L 17.828125 18.703125 
L 11.1875 0 
L 0.78125 0 
z
" id="DejaVuSans-65"/>
      <path d="M 8.5 21.578125 
L 8.5 54.6875 
L 17.484375 54.6875 
L 17.484375 21.921875 
Q 17.484375 14.15625 20.5 10.265625 
Q 23.53125 6.390625 29.59375 6.390625 
Q 36.859375 6.390625 41.078125 11.03125 
Q 45.3125 15.671875 45.3125 23.6875 
L 45.3125 54.6875 
L 54.296875 54.6875 
L 54.296875 0 
L 45.3125 0 
L 45.3125 8.40625 
Q 42.046875 3.421875 37.71875 1 
Q 33.40625 -1.421875 27.6875 -1.421875 
Q 18.265625 -1.421875 13.375 4.4375 
Q 8.5 10.296875 8.5 21.578125 
z
M 31.109375 56 
z
" id="DejaVuSans-117"/>
      <path d="M 41.109375 46.296875 
Q 39.59375 47.171875 37.8125 47.578125 
Q 36.03125 48 33.890625 48 
Q 26.265625 48 22.1875 43.046875 
Q 18.109375 38.09375 18.109375 28.8125 
L 18.109375 0 
L 9.078125 0 
L 9.078125 54.6875 
L 18.109375 54.6875 
L 18.109375 46.1875 
Q 20.953125 51.171875 25.484375 53.578125 
Q 30.03125 56 36.53125 56 
Q 37.453125 56 38.578125 55.875 
Q 39.703125 55.765625 41.0625 55.515625 
z
" id="DejaVuSans-114"/>
      <path d="M 34.28125 27.484375 
Q 23.390625 27.484375 19.1875 25 
Q 14.984375 22.515625 14.984375 16.5 
Q 14.984375 11.71875 18.140625 8.90625 
Q 21.296875 6.109375 26.703125 6.109375 
Q 34.1875 6.109375 38.703125 11.40625 
Q 43.21875 16.703125 43.21875 25.484375 
L 43.21875 27.484375 
z
M 52.203125 31.203125 
L 52.203125 0 
L 43.21875 0 
L 43.21875 8.296875 
Q 40.140625 3.328125 35.546875 0.953125 
Q 30.953125 -1.421875 24.3125 -1.421875 
Q 15.921875 -1.421875 10.953125 3.296875 
Q 6 8.015625 6 15.921875 
Q 6 25.140625 12.171875 29.828125 
Q 18.359375 34.515625 30.609375 34.515625 
L 43.21875 34.515625 
L 43.21875 35.40625 
Q 43.21875 41.609375 39.140625 45 
Q 35.0625 48.390625 27.6875 48.390625 
Q 23 48.390625 18.546875 47.265625 
Q 14.109375 46.140625 10.015625 43.890625 
L 10.015625 52.203125 
Q 14.9375 54.109375 19.578125 55.046875 
Q 24.21875 56 28.609375 56 
Q 40.484375 56 46.34375 49.84375 
Q 52.203125 43.703125 52.203125 31.203125 
z
" id="DejaVuSans-97"/>
      <path d="M 32.171875 -5.078125 
Q 28.375 -14.84375 24.75 -17.8125 
Q 21.140625 -20.796875 15.09375 -20.796875 
L 7.90625 -20.796875 
L 7.90625 -13.28125 
L 13.1875 -13.28125 
Q 16.890625 -13.28125 18.9375 -11.515625 
Q 21 -9.765625 23.484375 -3.21875 
L 25.09375 0.875 
L 2.984375 54.6875 
L 12.5 54.6875 
L 29.59375 11.921875 
L 46.6875 54.6875 
L 56.203125 54.6875 
z
" id="DejaVuSans-121"/>
     </defs>
     <g transform="translate(14.798437 169.814062)rotate(-90)scale(0.1 -0.1)">
      <use xlink:href="#DejaVuSans-65"/>
      <use x="68.392578" xlink:href="#DejaVuSans-99"/>
      <use x="123.373047" xlink:href="#DejaVuSans-99"/>
      <use x="178.353516" xlink:href="#DejaVuSans-117"/>
      <use x="241.732422" xlink:href="#DejaVuSans-114"/>
      <use x="282.845703" xlink:href="#DejaVuSans-97"/>
      <use x="344.125" xlink:href="#DejaVuSans-99"/>
      <use x="399.105469" xlink:href="#DejaVuSans-121"/>
     </g>
    </g>
   </g>
   <g id="line2d_31">
    <path clip-path="url(#p983023699c)" d="M 91.952376 321.355469 
L 92.662085 315.542654 
L 93.725043 318.388076 
L 94.788002 310.191513 
L 95.85096 309.554528 
L 96.913919 304.967952 
L 97.976877 305.010377 
L 99.039835 303.99116 
L 100.102794 297.36605 
L 101.165752 299.022252 
L 102.22871 295.072661 
L 103.291669 292.736947 
L 104.354627 288.532502 
L 105.417586 288.44755 
L 106.480544 287.046102 
L 107.543502 277.150912 
L 108.606461 284.795239 
L 109.669419 278.637312 
L 110.732377 279.274297 
L 111.795336 276.938482 
L 112.858294 271.629969 
L 113.921253 278.934591 
L 114.984211 275.834314 
L 116.047169 271.460066 
L 117.110128 271.629969 
L 118.173086 272.054626 
L 119.236045 266.576109 
L 120.299003 262.669044 
L 121.361961 258.082367 
L 122.42492 262.541668 
L 123.487878 260.418182 
L 124.550836 259.356438 
L 125.613795 256.723445 
L 126.676753 253.750545 
L 127.739712 253.623168 
L 128.80267 249.079017 
L 129.865628 250.225711 
L 130.928587 252.731328 
L 131.991545 250.565417 
L 133.054503 248.909114 
L 134.117462 245.214377 
L 135.18042 245.002049 
L 136.243379 241.179835 
L 137.306337 239.013924 
L 138.369295 242.156626 
L 139.432254 238.54674 
L 140.495212 235.998699 
L 141.55817 233.11075 
L 142.621129 236.720636 
L 143.684087 236.720636 
L 146.872962 227.887087 
L 147.935921 231.32707 
L 148.998879 227.420005 
L 150.061837 229.203685 
L 151.124796 227.632334 
L 152.187754 229.118733 
L 153.250713 227.972039 
L 154.313671 218.841312 
L 155.376629 223.51284 
L 156.439588 221.049648 
L 157.502546 221.474305 
L 158.565504 212.895612 
L 159.628463 221.177025 
L 160.691421 217.86452 
L 161.75438 217.269961 
L 162.817338 216.505497 
L 163.880296 211.281835 
L 164.943255 210.857178 
L 166.006213 212.768235 
L 168.13213 212.003772 
L 169.195088 206.992539 
L 170.258047 208.903595 
L 171.321005 209.498155 
L 172.383963 203.892261 
L 173.446922 209.54058 
L 174.50988 208.521364 
L 175.572838 206.525356 
L 176.635797 211.749018 
L 177.698755 205.293709 
L 178.761714 203.170325 
L 179.824672 206.270501 
L 180.88763 205.293709 
L 181.950589 204.869053 
L 183.013547 202.830518 
L 184.076506 195.143766 
L 185.139464 202.363436 
L 186.202422 198.880927 
L 187.265381 198.796077 
L 188.328339 200.707133 
L 189.391297 196.375311 
L 190.454256 199.602965 
L 191.517214 195.865703 
L 192.580173 196.035606 
L 193.643131 193.487463 
L 194.706089 195.313568 
L 195.769048 192.850377 
L 196.832006 191.53388 
L 197.894964 191.109223 
L 198.957923 188.730984 
L 200.020881 193.062705 
L 201.08384 189.240592 
L 202.146798 190.811943 
L 203.209756 189.028264 
L 204.272715 188.646032 
L 205.335673 185.418378 
L 206.398631 187.626714 
L 207.46159 188.221274 
L 208.524548 186.437594 
L 209.587507 184.101881 
L 210.650465 184.526538 
L 211.713423 183.549746 
L 212.776382 185.375953 
L 213.83934 182.53053 
L 214.902298 181.63869 
L 215.965257 180.237141 
L 217.028215 179.812484 
L 218.091174 180.789275 
L 219.154132 180.959178 
L 220.21709 180.704324 
L 221.280049 177.774051 
L 222.343007 176.202699 
L 223.405965 178.66589 
L 224.468924 175.565613 
L 225.531882 177.179389 
L 226.594841 176.245124 
L 227.657799 173.654556 
L 228.720757 177.136964 
L 229.783716 175.565613 
L 230.846674 173.739508 
L 231.909632 172.932518 
L 232.972591 174.079213 
L 234.035549 169.450111 
L 235.098508 179.387827 
L 236.161466 171.998253 
L 237.224424 168.558271 
L 238.287383 172.380485 
L 239.350341 167.411576 
L 240.413299 169.195357 
L 241.476258 165.840326 
L 243.602175 170.172047 
L 244.665133 168.600797 
L 245.728091 167.241774 
L 246.79105 167.666431 
L 247.854008 162.103063 
L 248.916966 167.199248 
L 249.979925 168.770599 
L 251.042883 164.268975 
L 252.105842 162.357817 
L 253.1688 163.759265 
L 254.231758 163.079855 
L 255.294717 163.249657 
L 256.357675 161.848209 
L 257.420634 153.312041 
L 258.483592 165.627896 
L 259.54655 162.145488 
L 260.609509 160.956369 
L 261.672467 155.690281 
L 262.735425 159.385017 
L 263.798384 161.550929 
L 264.861342 154.543586 
L 265.924301 158.748032 
L 266.987259 154.373683 
L 268.050217 156.624546 
L 269.113176 157.516386 
L 270.176134 154.288732 
L 271.239092 153.269515 
L 272.302051 155.180673 
L 273.365009 152.250298 
L 274.427968 154.246307 
L 275.490926 151.74069 
L 276.553884 150.593995 
L 277.616843 151.061179 
L 278.679801 152.250298 
L 279.742759 147.621196 
L 280.805718 148.215756 
L 281.868676 153.949027 
L 282.931635 154.41621 
L 283.994593 149.107596 
L 285.057551 152.207772 
L 286.12051 147.791099 
L 287.183468 152.420202 
L 288.246426 150.211764 
L 289.309385 145.49771 
L 290.372343 142.015302 
L 291.435302 145.49771 
L 292.49826 148.597987 
L 293.561218 145.20043 
L 294.624177 146.941684 
L 295.687135 144.775773 
L 296.750093 146.177221 
L 297.813052 144.8183 
L 298.87601 145.455285 
L 299.938969 141.33579 
L 301.001927 145.667613 
L 302.064885 142.652388 
L 303.127844 145.242956 
L 304.190802 142.609862 
L 305.25376 143.289373 
L 306.316719 140.741231 
L 307.379677 139.764439 
L 308.442636 136.834166 
L 309.505594 138.235614 
L 310.568552 141.887925 
L 311.631511 141.378317 
L 312.694469 139.679488 
L 313.757427 139.254831 
L 314.820386 136.112128 
L 316.946303 138.830174 
L 318.009261 139.424734 
L 319.072219 135.347766 
L 320.135178 132.03516 
L 321.198136 136.112128 
L 322.261095 135.645046 
L 323.324053 136.366983 
L 324.387011 137.343774 
L 325.44997 133.988743 
L 326.512928 132.502343 
L 327.575886 133.81884 
L 328.638845 132.587295 
L 329.701803 135.347766 
L 330.764762 132.927 
L 331.82772 134.455825 
L 332.890678 134.583303 
L 333.953637 129.869249 
L 336.079553 129.317114 
L 337.142512 132.374865 
L 338.20547 129.487017 
L 339.268429 127.151203 
L 340.331387 130.463809 
L 341.394345 130.591186 
L 342.457304 130.081577 
L 343.520262 129.019834 
L 344.58322 123.498892 
L 345.646179 128.085569 
L 346.709137 129.614394 
L 347.772096 129.784297 
L 348.835054 126.853923 
L 349.898012 127.745763 
L 350.960971 124.135978 
L 352.023929 124.772963 
L 353.086887 119.421924 
L 355.212804 124.433258 
L 356.275763 120.271339 
L 357.338721 115.642236 
L 358.401679 120.65357 
L 359.464638 124.008602 
L 360.527596 120.398716 
L 361.590554 120.611044 
L 362.653513 123.838698 
L 363.716471 125.240147 
L 364.77943 116.024468 
L 365.842388 117.298539 
L 366.905346 117.850573 
L 367.968305 117.171061 
L 369.031263 121.375507 
L 370.094221 117.638244 
L 371.15718 119.634253 
L 372.220138 115.30243 
L 373.283097 115.260005 
L 374.346055 120.228812 
L 375.409013 119.167171 
L 376.471972 113.731079 
L 377.53493 115.51486 
L 378.597888 117.808148 
L 379.660847 114.240788 
L 380.723805 116.151845 
L 381.786764 114.240788 
L 382.849722 110.460999 
L 383.91268 114.835348 
L 384.975639 114.495542 
L 386.038597 112.796814 
L 387.101556 112.839239 
L 389.227472 109.271879 
L 390.290431 116.10942 
L 391.353389 112.541959 
L 392.416347 112.032351 
L 393.479306 109.824014 
L 394.542264 111.692645 
L 395.605223 110.460999 
L 396.668181 111.352839 
L 397.731139 110.333622 
L 398.794098 107.912856 
L 399.857056 108.380039 
L 400.920014 107.912856 
L 401.982973 108.125286 
L 403.045931 112.202254 
L 404.10889 106.426457 
L 405.171848 106.723737 
L 406.234806 109.951391 
L 407.297765 110.503526 
L 408.360723 110.545951 
L 409.423681 107.148495 
L 410.48664 107.360823 
L 412.612557 103.453657 
L 413.675515 106.426457 
L 414.738473 101.415224 
L 415.801432 103.071425 
L 416.86439 102.986575 
L 417.927348 101.202794 
L 418.990307 100.905514 
L 420.053265 104.048217 
L 421.116224 100.310954 
L 422.179182 104.090743 
L 423.24214 103.198904 
L 424.305099 100.778137 
L 425.368057 103.113952 
L 426.431015 97.465633 
L 427.493974 98.867081 
L 428.556932 97.932715 
L 429.619891 98.060193 
L 430.682849 101.160369 
L 431.745807 98.569801 
L 432.808766 96.616218 
L 433.871724 97.847763 
L 434.934682 98.229995 
L 435.997641 99.121834 
L 437.060599 96.488841 
L 438.123558 95.851755 
L 439.186516 94.535258 
L 440.249474 94.195452 
L 441.312433 95.979233 
L 443.438349 94.110602 
L 444.501308 93.43109 
L 445.564266 95.129818 
L 447.690183 92.157019 
L 448.753141 98.442424 
L 449.8161 92.751579 
L 450.879058 89.056741 
L 451.942017 92.963907 
L 453.004975 88.164901 
L 454.067933 87.358013 
L 455.130892 89.778779 
L 456.19385 89.269171 
L 457.256808 90.288387 
L 458.319767 91.052851 
L 459.382725 88.929364 
L 461.508642 91.817212 
L 462.5716 89.566451 
L 463.634559 89.184219 
L 464.697517 88.589659 
L 465.760475 85.829188 
L 466.823434 95.129818 
L 467.886392 85.446957 
L 468.949351 83.578325 
L 470.012309 87.697819 
L 471.075267 85.277053 
L 472.138226 81.497366 
L 473.201184 85.149677 
L 474.264142 86.423748 
L 475.327101 82.516582 
L 476.390059 88.249853 
L 477.453018 82.771437 
L 478.515976 81.454839 
L 479.578934 85.0223 
L 480.641893 80.775328 
L 481.704851 82.941239 
L 482.767809 80.520574 
L 483.830768 79.543783 
L 484.893726 80.945231 
L 485.956685 82.601534 
L 487.019643 82.941239 
L 488.082601 82.219302 
L 489.14556 78.057383 
L 490.208518 78.736894 
L 491.271476 81.454839 
L 492.334435 80.223294 
L 493.397393 77.505248 
L 494.460352 78.18476 
L 495.52331 79.841063 
L 496.586268 79.288928 
L 497.649227 75.084583 
L 498.712185 73.215952 
L 499.775143 77.547775 
L 501.90106 68.841704 
L 502.964019 74.702352 
L 504.026977 75.551767 
L 505.089935 76.061375 
L 506.152894 73.003624 
L 507.215852 74.744777 
L 508.27881 72.833721 
L 509.341769 68.077241 
L 510.404727 72.239161 
L 511.467686 72.111784 
L 513.593602 72.961097 
L 514.656561 71.304794 
L 515.719519 69.393738 
L 516.782477 68.714226 
L 517.845436 72.366537 
L 518.908394 68.28957 
L 519.971353 67.652483 
L 521.034311 67.482681 
L 522.097269 70.582858 
L 523.160228 67.567633 
L 525.286145 66.845595 
L 526.349103 66.590841 
L 527.412061 68.501898 
L 528.47502 65.486673 
L 529.537978 64.170075 
L 530.600936 68.501898 
L 531.663895 67.10045 
L 532.726853 64.637259 
L 533.789812 63.915322 
L 534.85277 65.61405 
L 535.915728 63.150859 
L 536.978687 63.320762 
L 538.041645 64.679684 
L 539.104603 61.961739 
L 540.167562 63.448139 
L 541.23052 61.621933 
L 542.293479 60.645141 
L 543.356437 63.065907 
L 544.419395 61.536981 
L 545.482354 60.347861 
L 546.545312 62.004164 
L 547.60827 59.286219 
L 548.671229 57.58739 
L 549.734187 57.58739 
L 550.797146 57.79982 
L 551.860104 59.498548 
L 552.923062 58.819036 
L 553.986021 58.479331 
L 555.048979 58.521756 
L 556.111937 57.544965 
L 557.174896 55.931188 
L 558.237854 58.139525 
L 559.300813 59.158741 
L 560.363771 56.270893 
L 561.426729 56.185942 
L 562.489688 53.680325 
L 563.552646 55.42158 
L 564.615604 51.344511 
L 565.678563 54.020031 
L 566.741521 57.162733 
L 567.80448 54.529639 
L 568.867438 54.317311 
L 569.930396 52.406254 
L 570.993355 51.514414 
L 572.056313 54.487214 
L 573.119271 50.028014 
L 574.18223 50.792478 
L 575.245188 52.491206 
L 576.308147 50.580048 
L 577.371105 51.174608 
L 578.434063 50.707526 
L 579.497022 52.024023 
L 580.55998 49.943063 
L 581.622938 50.495198 
L 581.622938 50.495198 
" style="fill:none;stroke:#abd9e9;stroke-linecap:square;stroke-width:1.5;"/>
   </g>
   <g id="line2d_32">
    <path clip-path="url(#p983023699c)" d="M 77.662109 321.355469 
L 77.780668 316.569059 
L 78.843626 298.617339 
L 79.906585 297.420524 
L 80.969543 290.581769 
L 82.032501 298.275305 
L 83.09546 296.565642 
L 84.158418 270.749267 
L 86.284335 285.110745 
L 87.347293 293.659163 
L 88.410252 266.475058 
L 89.47321 288.872004 
L 90.536168 290.752685 
L 91.599127 257.071757 
L 92.662085 241.000718 
L 93.725043 281.520401 
L 94.788002 245.445843 
L 95.85096 279.468703 
L 96.913919 245.787775 
L 97.976877 255.874942 
L 99.039835 247.326523 
L 100.102794 266.304142 
L 101.165752 238.94902 
L 102.22871 248.865271 
L 103.291669 229.032871 
L 104.354627 236.726407 
L 105.417586 223.903779 
L 106.480544 217.919805 
L 107.543502 236.726407 
L 108.606461 225.955375 
L 110.732377 244.078112 
L 111.795336 232.281282 
L 112.858294 224.929577 
L 113.921253 228.177988 
L 114.984211 224.929577 
L 116.047169 222.877981 
L 117.110128 205.439109 
L 118.173086 221.681166 
L 119.236045 218.432754 
L 120.299003 218.261737 
L 121.361961 211.935932 
L 122.42492 200.310018 
L 123.487878 211.422982 
L 124.550836 215.526276 
L 125.613795 214.671393 
L 126.676753 203.729345 
L 127.739712 204.584227 
L 128.80267 213.645595 
L 129.865628 187.316373 
L 130.928587 210.226167 
L 131.991545 188.855019 
L 133.054503 202.361614 
L 134.117462 222.535947 
L 135.18042 203.045479 
L 136.243379 192.445464 
L 137.306337 200.993883 
L 138.369295 185.606608 
L 139.432254 195.522859 
L 140.495212 200.65195 
L 141.55817 210.397184 
L 142.621129 195.522859 
L 143.684087 187.316373 
L 144.747046 193.813195 
L 145.810004 180.135583 
L 146.872962 197.745472 
L 147.935921 203.387412 
L 148.998879 202.874563 
L 150.061837 179.280802 
L 151.124796 177.400122 
L 152.187754 191.932515 
L 153.250713 185.777625 
L 154.313671 181.332398 
L 155.376629 190.906717 
L 156.439588 197.916387 
L 157.502546 177.400122 
L 158.565504 179.793651 
L 159.628463 195.864791 
L 160.691421 185.435692 
L 161.75438 176.887172 
L 162.817338 195.522859 
L 163.880296 184.922742 
L 164.943255 181.845348 
L 166.006213 174.151711 
L 167.069171 178.083987 
L 168.13213 181.332398 
L 169.195088 169.364551 
L 170.258047 176.374324 
L 171.321005 177.571139 
L 172.383963 191.248649 
L 173.446922 175.519441 
L 174.50988 174.493643 
L 175.572838 169.193636 
L 176.635797 178.083987 
L 177.698755 180.648533 
L 178.761714 166.458073 
L 179.824672 167.996821 
L 180.88763 172.27103 
L 181.950589 171.074215 
L 183.013547 179.451718 
L 184.076506 175.519441 
L 185.139464 159.277385 
L 186.202422 163.722611 
L 187.265381 169.022619 
L 188.328339 182.358197 
L 189.391297 180.990466 
L 190.454256 172.442047 
L 191.517214 165.432275 
L 192.580173 175.177509 
L 193.643131 166.458073 
L 194.706089 166.800006 
L 195.769048 167.825804 
L 196.832006 161.158065 
L 197.894964 160.132267 
L 198.957923 159.790335 
L 200.020881 161.328981 
L 201.08384 160.4742 
L 202.146798 160.303183 
L 203.209756 157.054772 
L 204.272715 158.08057 
L 205.335673 162.012847 
L 206.398631 154.832159 
L 207.46159 156.712839 
L 208.524548 156.028974 
L 209.587507 149.190218 
L 210.650465 158.59352 
L 211.713423 152.609545 
L 212.776382 162.012847 
L 213.83934 163.893527 
L 214.902298 156.883856 
L 215.965257 163.722611 
L 217.028215 163.038746 
L 218.091174 151.59529 
L 219.154132 157.396704 
L 220.21709 161.158065 
L 221.280049 158.08057 
L 222.343007 157.225789 
L 223.405965 158.935452 
L 224.468924 158.59352 
L 225.531882 167.654888 
L 226.594841 168.338753 
L 227.657799 152.096697 
L 228.720757 154.490226 
L 229.783716 156.028974 
L 230.846674 158.422503 
L 231.909632 153.122495 
L 232.972591 166.287157 
L 234.035549 163.722611 
L 235.098508 161.499998 
L 236.161466 150.216017 
L 237.224424 150.045101 
L 238.287383 152.267613 
L 239.350341 145.941807 
L 240.413299 159.96125 
L 241.476258 170.561367 
L 242.539216 165.261359 
L 243.602175 154.490226 
L 244.665133 159.448402 
L 245.728091 145.599874 
L 246.79105 154.490226 
L 247.854008 159.448402 
L 248.916966 158.422503 
L 249.979925 156.541923 
L 251.042883 153.977378 
L 252.105842 146.967605 
L 253.1688 145.428858 
L 254.231758 151.412832 
L 255.294717 154.148293 
L 256.357675 153.464428 
L 257.420634 151.754764 
L 259.54655 150.387034 
L 260.609509 150.216017 
L 261.672467 154.661243 
L 262.735425 140.470783 
L 263.798384 153.806361 
L 264.861342 146.454656 
L 265.924301 153.635445 
L 266.987259 158.08057 
L 268.050217 140.12885 
L 269.113176 146.454656 
L 270.176134 148.848286 
L 271.239092 142.522379 
L 272.302051 141.667598 
L 273.365009 155.857957 
L 274.427968 155.857957 
L 275.490926 148.506353 
L 276.553884 157.567721 
L 277.616843 139.786917 
L 278.679801 149.532151 
L 279.742759 146.625673 
L 280.805718 151.241815 
L 281.868676 143.035329 
L 282.931635 137.564304 
L 283.994593 141.667598 
L 285.057551 145.257942 
L 286.12051 147.138622 
L 287.183468 130.896465 
L 289.309385 145.77079 
L 290.372343 157.909654 
L 291.435302 139.444985 
L 292.49826 145.086925 
L 293.561218 142.693396 
L 294.624177 133.97396 
L 295.687135 142.009531 
L 296.750093 147.309538 
L 297.813052 139.273968 
L 298.87601 135.512708 
L 299.938969 148.506353 
L 301.001927 143.035329 
L 302.064885 144.061127 
L 303.127844 137.051355 
L 304.190802 155.857957 
L 305.25376 156.541923 
L 306.316719 143.035329 
L 307.379677 136.709422 
L 308.442636 133.802943 
L 309.505594 145.257942 
L 310.568552 139.957833 
L 311.631511 139.957833 
L 312.694469 136.367489 
L 313.757427 140.812715 
L 314.820386 143.377261 
L 315.883344 132.264297 
L 316.946303 140.983732 
L 318.009261 124.228726 
L 319.072219 134.486809 
L 320.135178 141.667598 
L 321.198136 142.180446 
L 322.261095 125.42544 
L 323.324053 145.428858 
L 324.387011 150.216017 
L 325.44997 130.554532 
L 326.512928 138.932035 
L 327.575886 139.6159 
L 329.701803 129.699751 
L 330.764762 143.206244 
L 331.82772 127.135205 
L 332.890678 135.341691 
L 333.953637 134.657826 
L 335.016595 132.948162 
L 336.079553 141.325665 
L 337.142512 135.683624 
L 338.20547 138.761119 
L 339.268429 130.554532 
L 340.331387 138.590102 
L 341.394345 133.119078 
L 342.457304 131.751347 
L 343.520262 130.896465 
L 344.58322 132.435212 
L 345.646179 130.212599 
L 346.709137 134.315893 
L 347.772096 130.725549 
L 349.898012 125.596457 
L 352.023929 137.906237 
L 353.086887 125.596457 
L 354.149846 132.777145 
L 355.212804 134.315893 
L 356.275763 131.922364 
L 357.338721 135.512708 
L 358.401679 137.564304 
L 359.464638 134.144876 
L 360.527596 134.828843 
L 361.590554 132.435212 
L 362.653513 132.09328 
L 363.716471 137.906237 
L 364.77943 127.989986 
L 365.842388 129.528734 
L 366.905346 137.393287 
L 367.968305 128.161003 
L 369.031263 130.725549 
L 370.094221 129.870667 
L 371.15718 132.606229 
L 372.220138 137.393287 
L 373.283097 130.041684 
L 374.346055 133.290095 
L 375.409013 131.751347 
L 376.471972 129.186801 
L 377.53493 130.725549 
L 379.660847 135.341691 
L 380.723805 130.212599 
L 381.786764 127.477138 
L 382.849722 142.693396 
L 383.91268 128.673852 
L 384.975639 131.517958 
L 386.038597 126.109407 
L 387.101556 133.290095 
L 388.164514 131.238397 
L 389.227472 126.964188 
L 390.290431 125.93839 
L 391.353389 130.383616 
L 392.416347 125.083508 
L 394.542264 126.793272 
L 395.605223 141.667598 
L 396.668181 134.999758 
L 397.731139 126.622255 
L 398.794098 126.109407 
L 399.857056 128.502936 
L 400.920014 129.870667 
L 401.982973 131.58033 
L 403.045931 126.964188 
L 404.10889 127.477138 
L 405.171848 132.09328 
L 406.234806 126.964188 
L 407.297765 129.870667 
L 408.360723 128.161003 
L 409.423681 127.989986 
L 410.48664 131.067482 
L 411.549598 124.570659 
L 412.612557 120.809298 
L 413.675515 122.348046 
L 414.738473 132.435212 
L 415.801432 122.518962 
L 416.86439 128.331919 
L 417.927348 123.202928 
L 418.990307 124.228726 
L 420.053265 123.031911 
L 421.116224 130.041684 
L 422.179182 123.544861 
L 423.24214 132.264297 
L 424.305099 127.81907 
L 425.368057 126.622255 
L 426.431015 127.477138 
L 427.493974 130.725549 
L 428.556932 124.741575 
L 429.619891 129.186801 
L 430.682849 127.306121 
L 431.745807 120.638382 
L 432.808766 131.751347 
L 433.871724 127.477138 
L 434.934682 133.461011 
L 435.997641 123.544861 
L 437.060599 129.699751 
L 438.123558 118.757702 
L 439.186516 130.725549 
L 440.249474 123.715777 
L 441.312433 125.083508 
L 442.375391 127.81907 
L 443.438349 127.477138 
L 444.501308 132.777145 
L 445.564266 119.7835 
L 446.627225 127.648053 
L 447.690183 117.389971 
L 448.753141 123.544861 
L 449.8161 124.228726 
L 450.879058 119.7835 
L 451.942017 127.306121 
L 453.004975 117.90282 
L 454.067933 122.689979 
L 455.130892 121.664181 
L 456.19385 129.870667 
L 457.256808 118.757702 
L 458.319767 119.441567 
L 459.382725 121.322248 
L 460.445684 120.29645 
L 461.508642 124.741575 
L 463.634559 119.27055 
L 464.697517 121.493164 
L 465.760475 124.741575 
L 466.823434 120.809298 
L 467.886392 127.477138 
L 468.949351 121.664181 
L 470.012309 113.115661 
L 471.075267 119.612584 
L 472.138226 113.457593 
L 473.201184 118.928618 
L 474.264142 116.706106 
L 475.327101 111.74793 
L 476.390059 123.202928 
L 477.453018 119.954517 
L 478.515976 126.109407 
L 479.578934 118.415769 
L 480.641893 119.954517 
L 481.704851 114.654408 
L 482.767809 118.586685 
L 483.830768 115.680206 
L 484.893726 121.493164 
L 485.956685 119.27055 
L 487.019643 119.612584 
L 488.082601 121.493164 
L 489.14556 121.493164 
L 490.208518 124.057709 
L 491.271476 119.27055 
L 492.334435 125.254525 
L 493.397393 122.689979 
L 494.460352 112.260879 
L 495.52331 115.509291 
L 496.586268 117.560887 
L 497.649227 115.338274 
L 498.712185 126.109407 
L 499.775143 115.851223 
L 500.838102 123.202928 
L 501.90106 119.27055 
L 502.964019 113.799627 
L 504.026977 122.006113 
L 506.152894 115.851223 
L 507.215852 115.167358 
L 508.27881 119.099635 
L 509.341769 117.389971 
L 510.404727 116.193156 
L 511.467686 113.286678 
L 512.530644 120.467365 
L 513.593602 118.586685 
L 514.656561 113.799627 
L 515.719519 117.731904 
L 516.782477 113.62861 
L 517.845436 119.27055 
L 518.908394 112.773728 
L 519.971353 113.286678 
L 521.034311 115.338274 
L 522.097269 118.415769 
L 523.160228 115.680206 
L 524.223186 113.970543 
L 525.286145 113.286678 
L 526.349103 112.431795 
L 527.412061 114.825425 
L 528.47502 113.62861 
L 529.537978 121.322248 
L 530.600936 113.286678 
L 531.663895 116.364072 
L 532.726853 118.244752 
L 533.789812 114.996341 
L 534.85277 109.354401 
L 535.915728 117.218954 
L 536.978687 110.893149 
L 538.041645 114.654408 
L 539.104603 113.286678 
L 540.167562 110.551216 
L 541.23052 114.654408 
L 542.293479 111.235081 
L 543.356437 112.602812 
L 544.419395 112.944745 
L 545.482354 115.509291 
L 547.60827 110.893149 
L 548.671229 108.499518 
L 549.734187 113.115661 
L 550.797146 112.602812 
L 551.860104 111.610731 
L 552.923062 110.380199 
L 553.986021 110.551216 
L 555.048979 109.183384 
L 556.111937 108.499518 
L 557.174896 110.380199 
L 558.237854 109.867249 
L 559.300813 110.038266 
L 560.363771 113.115661 
L 561.426729 110.551216 
L 562.489688 113.62861 
L 563.552646 107.47372 
L 564.615604 111.577014 
L 565.678563 107.131788 
L 566.741521 109.354401 
L 567.80448 111.918947 
L 568.867438 108.670535 
L 569.930396 110.380199 
L 570.993355 108.670535 
L 572.056313 105.764057 
L 573.119271 112.602812 
L 574.18223 109.012468 
L 575.245188 107.131788 
L 576.308147 109.183384 
L 577.371105 113.115661 
L 578.434063 106.10599 
L 579.497022 109.354401 
L 580.55998 111.577014 
L 581.622938 105.934973 
L 581.622938 105.934973 
" style="fill:none;stroke:#2c7bb6;stroke-linecap:square;stroke-width:1.5;"/>
   </g>
   <g id="line2d_33">
    <path clip-path="url(#p983023699c)" d="M 105.935912 321.355469 
L 106.480544 318.94011 
L 107.543502 317.623613 
L 108.606461 319.025061 
L 109.669419 311.295783 
L 110.732377 310.998503 
L 111.795336 305.052802 
L 112.858294 301.782723 
L 113.921253 299.871666 
L 114.984211 300.975835 
L 116.047169 299.53186 
L 117.110128 295.157612 
L 118.173086 292.906749 
L 119.236045 291.42035 
L 120.299003 290.698413 
L 121.361961 288.277647 
L 122.42492 287.428333 
L 123.487878 286.281639 
L 124.550836 284.667862 
L 125.613795 282.374574 
L 126.676753 277.278289 
L 127.739712 279.189345 
L 128.80267 276.981009 
L 130.928587 270.823081 
L 131.991545 272.649186 
L 133.054503 272.691611 
L 134.117462 272.097051 
L 135.18042 270.610652 
L 136.243379 267.510475 
L 137.306337 266.066501 
L 138.369295 266.873389 
L 139.432254 263.858164 
L 140.495212 264.028067 
L 142.621129 256.76587 
L 143.684087 260.970316 
L 144.747046 259.314013 
L 145.810004 258.422173 
L 146.872962 255.067142 
L 147.935921 255.661702 
L 148.998879 249.503674 
L 150.061837 251.92444 
L 151.124796 249.376297 
L 152.187754 244.577392 
L 153.250713 247.040482 
L 154.313671 246.318546 
L 155.376629 246.148642 
L 156.439588 243.515649 
L 157.502546 242.581283 
L 158.565504 242.581283 
L 159.628463 243.133418 
L 160.691421 239.35373 
L 161.75438 240.203043 
L 162.817338 239.05645 
L 163.880296 240.372947 
L 164.943255 237.230244 
L 166.006213 237.824804 
L 167.069171 239.35373 
L 169.195088 231.62435 
L 171.321005 233.238228 
L 172.383963 229.288637 
L 173.446922 228.524174 
L 174.50988 226.400687 
L 175.572838 231.32707 
L 176.635797 227.844662 
L 177.698755 231.114742 
L 178.761714 223.895071 
L 179.824672 225.551374 
L 180.88763 227.547382 
L 181.950589 224.362254 
L 183.013547 223.21556 
L 184.076506 221.601783 
L 185.139464 220.412663 
L 186.202422 222.111391 
L 188.328339 219.308394 
L 189.391297 218.883737 
L 190.454256 219.138592 
L 191.517214 218.246752 
L 192.580173 215.528706 
L 193.643131 211.069507 
L 195.769048 218.1618 
L 196.832006 209.285827 
L 197.894964 212.42853 
L 198.957923 209.15845 
L 200.020881 208.521364 
L 201.08384 211.53669 
L 202.146798 211.069507 
L 203.209756 210.94213 
L 204.272715 205.038956 
L 205.335673 204.69915 
L 207.46159 205.293709 
L 208.524548 203.51003 
L 209.587507 202.957996 
L 210.650465 203.042948 
L 211.713423 202.575765 
L 212.776382 204.741676 
L 213.83934 205.208859 
L 214.902298 200.23995 
L 215.965257 200.23995 
L 217.028215 198.923454 
L 218.091174 195.653374 
L 219.154132 201.259268 
L 220.21709 199.602965 
L 221.280049 198.328894 
L 222.343007 196.417736 
L 223.405965 194.80396 
L 224.468924 197.989087 
L 225.531882 195.228616 
L 226.594841 195.271143 
L 227.657799 191.491455 
L 228.720757 193.147657 
L 229.783716 192.043488 
L 230.846674 195.908128 
L 231.909632 192.723 
L 232.972591 192.892903 
L 234.035549 193.954545 
L 235.098508 193.699791 
L 236.161466 190.811943 
L 237.224424 188.85836 
L 238.287383 185.078673 
L 239.350341 186.649923 
L 240.413299 190.089905 
L 241.476258 188.943312 
L 242.539216 184.568963 
L 243.602175 188.56108 
L 244.665133 186.480121 
L 245.728091 186.395169 
L 246.79105 185.758083 
L 247.854008 183.634698 
L 248.916966 182.870235 
L 249.979925 178.96317 
L 251.042883 177.179389 
L 252.105842 182.657907 
L 253.1688 182.82781 
L 254.231758 177.901427 
L 255.294717 180.407044 
L 256.357675 178.66589 
L 257.420634 178.835692 
L 258.483592 175.99027 
L 259.54655 179.600155 
L 260.609509 177.986379 
L 261.672467 176.669781 
L 262.735425 176.542404 
L 263.798384 173.01747 
L 264.861342 174.20659 
L 265.924301 170.93651 
L 266.987259 174.928628 
L 268.050217 172.932518 
L 269.113176 171.870877 
L 270.176134 173.187373 
L 271.239092 171.870877 
L 272.302051 168.006237 
L 273.365009 170.681757 
L 274.427968 174.291541 
L 275.490926 172.42291 
L 276.553884 170.172047 
L 277.616843 173.357276 
L 278.679801 168.515846 
L 279.742759 165.967703 
L 280.805718 168.388368 
L 282.931635 165.670423 
L 283.994593 165.458094 
L 285.057551 168.728174 
L 286.12051 166.817016 
L 287.183468 163.886743 
L 288.246426 165.712848 
L 289.309385 164.693631 
L 290.372343 166.010128 
L 291.435302 165.415568 
L 292.49826 165.925176 
L 293.561218 165.033336 
L 294.624177 162.103063 
L 295.687135 160.531712 
L 296.750093 163.504512 
L 297.813052 162.103063 
L 298.87601 160.44676 
L 299.938969 163.377135 
L 301.001927 158.493177 
L 302.064885 160.191906 
L 303.127844 161.04132 
L 304.190802 156.072513 
L 305.25376 158.450752 
L 306.316719 159.639872 
L 307.379677 157.219106 
L 308.442636 157.686289 
L 309.505594 153.949027 
L 310.568552 159.002786 
L 311.631511 156.667073 
L 312.694469 153.864075 
L 313.757427 153.609321 
L 314.820386 152.63253 
L 315.883344 153.779123 
L 316.946303 151.910492 
L 318.009261 154.840866 
L 319.072219 156.199889 
L 320.135178 151.995444 
L 321.198136 152.122922 
L 322.261095 151.231082 
L 323.324053 149.192547 
L 324.387011 152.547578 
L 325.44997 148.767891 
L 326.512928 151.315932 
L 327.575886 146.644404 
L 328.638845 146.68683 
L 329.701803 146.601979 
L 330.764762 146.68683 
L 331.82772 149.532252 
L 332.890678 149.999436 
L 333.953637 148.980219 
L 335.016595 147.196539 
L 336.079553 145.030628 
L 337.142512 147.026636 
L 338.20547 143.883933 
L 339.268429 149.150021 
L 340.331387 141.250839 
L 341.394345 141.378317 
L 342.457304 146.432076 
L 343.520262 143.204422 
L 344.58322 144.478493 
L 345.646179 143.034519 
L 346.709137 143.544228 
L 347.772096 142.907142 
L 348.835054 142.694813 
L 349.898012 140.953559 
L 350.960971 144.30859 
L 352.023929 138.362991 
L 353.086887 139.552111 
L 354.149846 136.876591 
L 355.212804 138.745222 
L 356.275763 137.853383 
L 357.338721 138.787648 
L 358.401679 137.471151 
L 359.464638 135.8998 
L 360.527596 137.386199 
L 361.590554 137.08892 
L 362.653513 137.428726 
L 363.716471 136.112128 
L 364.77943 138.150663 
L 365.842388 136.834166 
L 366.905346 136.069703 
L 367.968305 134.965535 
L 369.031263 133.606512 
L 370.094221 139.212406 
L 371.15718 133.903792 
L 372.220138 127.575961 
L 373.283097 131.610504 
L 374.346055 134.4134 
L 375.409013 134.328448 
L 377.53493 129.869249 
L 378.597888 128.510226 
L 379.660847 130.378857 
L 380.723805 131.185746 
L 381.786764 130.081577 
L 382.849722 127.745763 
L 383.91268 131.822832 
L 384.975639 132.247489 
L 386.038597 130.761089 
L 387.101556 127.830715 
L 388.164514 126.556643 
L 389.227472 124.730538 
L 390.290431 126.131986 
L 391.353389 128.510226 
L 392.416347 129.487017 
L 393.479306 128.212946 
L 394.542264 127.448483 
L 395.605223 123.371515 
L 396.668181 122.989284 
L 397.731139 125.664803 
L 398.794098 122.776955 
L 399.857056 124.688113 
L 400.920014 124.051027 
L 401.982973 122.352299 
L 403.045931 120.059011 
L 404.10889 122.649579 
L 405.171848 120.441141 
L 406.234806 122.989284 
L 407.297765 123.668795 
L 408.360723 120.823372 
L 409.423681 119.167171 
L 410.48664 120.016484 
L 411.549598 115.21758 
L 412.612557 118.147853 
L 413.675515 119.082219 
L 414.738473 122.182395 
L 415.801432 118.147853 
L 416.86439 113.603702 
L 417.927348 114.750397 
L 418.990307 116.661453 
L 420.053265 117.08611 
L 421.116224 115.30243 
L 422.179182 117.128636 
L 423.24214 112.414582 
L 424.305099 115.132628 
L 425.368057 114.70787 
L 426.431015 118.615036 
L 428.556932 115.557285 
L 429.619891 110.418574 
L 430.682849 112.754388 
L 431.745807 112.32963 
L 432.808766 112.32963 
L 433.871724 113.391374 
L 434.934682 113.136519 
L 435.997641 110.460999 
L 437.060599 111.183037 
L 438.123558 110.630902 
L 439.186516 113.476325 
L 440.249474 110.503526 
L 441.312433 111.607694 
L 442.375391 109.611686 
L 443.438349 110.376048 
L 444.501308 109.611686 
L 445.564266 104.472975 
L 446.627225 110.163719 
L 447.690183 104.303072 
L 448.753141 106.044326 
L 449.8161 101.839881 
L 450.879058 104.940057 
L 451.942017 105.025008 
L 453.004975 107.318296 
L 454.067933 102.73172 
L 455.130892 107.275871 
L 456.19385 104.260545 
L 457.256808 100.480858 
L 458.319767 108.507518 
L 459.382725 104.090743 
L 460.445684 106.681311 
L 461.508642 101.669977 
L 462.5716 104.600352 
L 463.634559 101.372697 
L 464.697517 99.843872 
L 465.760475 102.859097 
L 466.823434 101.160369 
L 467.886392 98.952033 
L 468.949351 101.924832 
L 470.012309 100.353481 
L 471.075267 94.874964 
L 472.138226 97.932715 
L 473.201184 97.805338 
L 474.264142 98.187569 
L 475.327101 98.782129 
L 476.390059 95.724378 
L 477.453018 97.635435 
L 478.515976 96.40389 
L 479.578934 98.017666 
L 480.641893 95.639427 
L 481.704851 96.573793 
L 482.767809 95.299722 
L 483.830768 92.157019 
L 484.893726 96.191561 
L 485.956685 94.747587 
L 487.019643 96.616218 
L 488.082601 92.666627 
L 489.14556 89.481499 
L 490.208518 95.172244 
L 491.271476 94.407882 
L 492.334435 92.53925 
L 493.397393 92.157019 
L 494.460352 92.326922 
L 495.52331 91.265179 
L 496.586268 93.898172 
L 497.649227 91.265179 
L 498.712185 88.971891 
L 499.775143 88.462181 
L 500.838102 90.797996 
L 501.90106 89.311596 
L 502.964019 89.991108 
L 504.026977 86.933356 
L 505.089935 91.392556 
L 506.152894 85.31958 
L 507.215852 85.192102 
L 508.27881 84.51259 
L 509.341769 85.531908 
L 510.404727 88.419756 
L 511.467686 87.78267 
L 512.530644 86.466173 
L 513.593602 86.381222 
L 514.656561 84.80987 
L 515.719519 82.643959 
L 516.782477 81.624742 
L 517.845436 82.898814 
L 518.908394 82.346679 
L 519.971353 81.624742 
L 521.034311 83.026191 
L 522.097269 81.285037 
L 523.160228 82.516582 
L 524.223186 81.794646 
L 525.286145 80.690477 
L 526.349103 79.034174 
L 527.412061 79.926014 
L 528.47502 79.543783 
L 529.537978 78.736894 
L 530.600936 77.250495 
L 531.663895 76.910688 
L 532.726853 79.119126 
L 533.789812 76.613408 
L 535.915728 74.787303 
L 536.978687 75.296912 
L 538.041645 77.038166 
L 539.104603 77.165543 
L 540.167562 78.269711 
L 541.23052 75.594192 
L 542.293479 73.555657 
L 543.356437 72.918672 
L 544.419395 71.729552 
L 545.482354 74.277695 
L 546.545312 76.316128 
L 547.60827 72.239161 
L 548.671229 73.852937 
L 549.734187 70.115675 
L 550.797146 75.80652 
L 551.860104 72.196735 
L 552.923062 71.474698 
L 553.986021 69.308786 
L 555.048979 71.474698 
L 556.111937 69.691018 
L 557.174896 68.204618 
L 558.237854 71.941881 
L 559.300813 72.281586 
L 560.363771 67.610058 
L 561.426729 69.988298 
L 562.489688 69.436264 
L 563.552646 69.054033 
L 564.615604 65.274244 
L 565.678563 66.378513 
L 566.741521 64.467355 
L 567.80448 64.085124 
L 568.867438 66.845595 
L 569.930396 65.486673 
L 570.993355 66.420938 
L 572.056313 67.10045 
L 573.119271 66.888121 
L 574.18223 63.448139 
L 575.245188 66.548315 
L 576.308147 62.598724 
L 577.371105 62.471347 
L 578.434063 64.212602 
L 579.497022 63.490564 
L 580.55998 64.339979 
L 581.622938 64.976964 
L 581.622938 64.976964 
" style="fill:none;stroke:#fdae61;stroke-linecap:square;stroke-width:1.5;"/>
   </g>
   <g id="line2d_34">
    <path clip-path="url(#p983023699c)" d="M 83.084479 321.355469 
L 83.09546 321.002581 
L 84.158418 313.316738 
L 85.221376 317.928264 
L 85.355522 321.355469 
M 88.077678 321.355469 
L 88.410252 311.950274 
L 89.47321 311.096348 
L 90.536168 299.311213 
L 91.202148 321.355469 
M 91.950104 321.355469 
L 92.662085 294.699688 
L 93.725043 278.815464 
L 94.788002 294.528943 
L 95.85096 278.473873 
L 96.913919 278.132283 
L 97.976877 287.867771 
L 99.039835 285.135045 
L 100.102794 312.633557 
L 101.165752 249.267408 
L 102.22871 285.135045 
L 103.291669 274.716274 
L 104.354627 299.652804 
L 105.417586 248.584226 
L 106.480544 273.349911 
L 107.543502 251.316952 
L 108.606461 261.735622 
L 109.669419 243.289417 
L 110.732377 278.303027 
L 111.795336 267.713612 
L 112.858294 238.677892 
L 113.921253 255.074552 
L 114.984211 257.124096 
L 116.047169 254.562115 
L 117.110128 248.242534 
L 118.173086 255.416143 
L 119.236045 280.694264 
L 120.299003 247.388608 
L 121.361961 260.881696 
L 122.42492 234.578701 
L 123.487878 235.261883 
L 124.550836 255.074552 
L 125.613795 232.358311 
L 126.676753 225.184803 
L 127.739712 226.722012 
L 128.80267 229.113148 
L 129.865628 232.699901 
L 130.928587 224.160031 
L 131.991545 224.330877 
L 133.054503 241.239873 
L 134.117462 225.69724 
L 135.18042 264.46845 
L 136.243379 238.677892 
L 137.306337 217.328115 
L 138.369295 208.104962 
L 139.432254 209.471426 
L 140.495212 215.620161 
L 141.55817 219.377659 
L 142.621129 239.702664 
L 143.684087 220.914868 
L 144.747046 238.848636 
L 145.810004 211.52097 
L 146.872962 219.890096 
L 147.935921 206.567854 
L 148.998879 200.077528 
L 150.061837 213.39977 
L 151.124796 202.127073 
L 152.187754 202.468663 
L 153.250713 236.969938 
L 154.313671 199.735836 
L 155.376629 207.763371 
L 156.439588 201.1023 
L 157.502546 202.639408 
L 158.565504 194.270384 
L 159.628463 183.510022 
L 160.691421 218.523733 
L 161.75438 204.689054 
L 162.817338 189.317166 
L 163.880296 205.030645 
L 164.943255 199.735836 
L 166.006213 200.419119 
L 167.069171 194.611975 
L 168.13213 195.807492 
L 169.195088 196.319928 
L 170.258047 204.859799 
L 171.321005 205.713826 
L 172.383963 202.9811 
L 173.446922 228.429966 
L 174.50988 190.000348 
L 175.572838 183.168431 
L 176.635797 195.295156 
L 177.698755 198.369473 
L 178.761714 186.072003 
L 179.824672 202.810254 
L 180.88763 180.094114 
L 181.950589 190.512784 
L 183.013547 193.757947 
L 184.076506 178.386059 
L 185.139464 190.512784 
L 186.202422 193.074766 
L 187.265381 193.24551 
L 188.328339 195.636747 
L 189.391297 202.639408 
L 190.454256 188.633984 
L 191.517214 188.975575 
L 192.580173 177.019696 
L 193.643131 173.262198 
L 194.706089 182.485249 
L 195.769048 186.755185 
L 196.832006 169.333752 
L 197.894964 184.876486 
L 198.957923 191.195966 
L 200.020881 180.94804 
L 201.08384 174.970151 
L 202.146798 183.510022 
L 203.209756 177.361287 
L 204.272715 166.942617 
L 205.335673 162.843426 
L 206.398631 177.019696 
L 207.46159 177.532133 
L 208.524548 180.094114 
L 209.587507 186.413594 
L 210.650465 175.140896 
L 211.713423 179.581677 
L 212.776382 187.267621 
L 213.83934 177.019696 
L 214.902298 177.873724 
L 215.965257 175.653333 
L 217.028215 172.920607 
L 218.091174 176.236374 
L 219.154132 171.383398 
L 220.21709 168.138235 
L 221.280049 159.427519 
L 222.343007 172.40817 
L 223.405965 164.893072 
L 224.468924 167.113463 
L 225.531882 188.121649 
L 226.594841 183.851613 
L 227.657799 163.8683 
L 228.720757 170.700216 
L 229.783716 167.967389 
L 230.846674 179.923268 
L 231.909632 155.328328 
L 232.972591 170.358626 
L 234.035549 160.964728 
L 235.098508 173.603788 
L 236.161466 167.625798 
L 237.224424 196.149082 
L 238.287383 167.796644 
L 239.350341 171.041807 
L 240.413299 159.427519 
L 241.476258 167.455053 
L 242.539216 167.113463 
L 243.602175 159.256673 
L 244.665133 155.328328 
L 245.728091 165.576254 
L 246.79105 154.815993 
L 247.854008 169.333752 
L 248.916966 157.548719 
L 249.979925 167.967389 
L 251.042883 157.207128 
L 252.105842 165.917844 
L 253.1688 157.89031 
L 254.231758 147.300794 
L 255.294717 158.915082 
L 257.420634 176.678105 
L 258.483592 170.870961 
L 259.54655 161.818654 
L 260.609509 162.501836 
L 261.672467 157.036282 
L 262.735425 152.254011 
L 263.798384 166.601026 
L 264.861342 159.427519 
L 265.924301 158.573491 
L 266.987259 163.185017 
L 268.050217 161.477063 
L 269.113176 167.455053 
L 270.176134 146.959203 
L 271.239092 146.276021 
L 272.302051 152.254011 
L 273.365009 161.647909 
L 274.427968 148.325566 
L 275.490926 166.601026 
L 276.553884 159.427519 
L 277.616843 146.959203 
L 278.679801 164.893072 
L 279.742759 157.036282 
L 280.805718 156.182356 
L 281.868676 165.405408 
L 282.931635 157.89031 
L 283.994593 165.234663 
L 285.057551 142.860114 
L 286.12051 148.667258 
L 287.183468 143.201704 
L 288.246426 158.915082 
L 289.309385 146.959203 
L 290.372343 146.276021 
L 291.435302 160.623137 
L 292.49826 150.545957 
L 293.561218 152.937193 
L 294.624177 143.543295 
L 295.687135 147.81323 
L 296.750093 154.986738 
L 297.813052 149.862775 
L 298.87601 152.595602 
L 299.938969 154.13271 
L 301.001927 147.130049 
L 302.064885 154.303556 
L 303.127844 147.983975 
L 304.190802 152.937193 
L 305.25376 154.474301 
L 306.316719 160.1107 
L 308.442636 152.937193 
L 309.505594 155.157584 
L 310.568552 148.496412 
L 312.694469 140.981314 
L 313.757427 150.033621 
L 314.820386 152.254011 
L 315.883344 145.934431 
L 316.946303 145.251249 
L 318.009261 146.959203 
L 319.072219 157.377873 
L 320.135178 145.59284 
L 321.198136 150.887547 
L 322.261095 144.568068 
L 323.324053 151.399984 
L 324.387011 140.127286 
L 325.44997 142.006086 
L 326.512928 152.083166 
L 327.575886 142.689268 
L 328.638845 143.372449 
L 329.701803 157.377873 
L 330.764762 140.981314 
L 331.82772 154.815993 
L 332.890678 142.347677 
L 333.953637 140.468877 
L 335.016595 147.642384 
L 336.079553 140.298132 
L 337.142512 141.664495 
L 338.20547 138.077742 
L 339.268429 142.347677 
L 340.331387 150.716802 
L 341.394345 140.639723 
L 342.457304 141.664495 
L 343.520262 156.523947 
L 344.58322 141.152059 
L 345.646179 158.2319 
L 346.709137 144.055631 
L 347.772096 144.568068 
L 348.835054 144.397222 
L 349.898012 135.51576 
L 350.960971 140.298132 
L 352.023929 134.149397 
L 353.086887 150.887547 
L 354.149846 140.981314 
L 355.212804 157.377873 
L 356.275763 139.956542 
L 357.338721 128.683844 
L 358.401679 135.857351 
L 359.464638 144.226477 
L 360.527596 137.223714 
L 361.590554 141.83524 
L 362.653513 143.884886 
L 363.716471 137.906896 
L 364.77943 136.369788 
L 365.842388 142.176831 
L 366.905346 133.807807 
L 367.968305 140.298132 
L 369.031263 130.733389 
L 370.094221 136.882124 
L 371.15718 133.807807 
L 372.220138 134.832579 
L 373.283097 135.344915 
L 374.346055 136.369788 
L 375.409013 145.59284 
L 376.471972 136.198942 
L 377.53493 138.077742 
L 378.597888 137.565305 
L 379.660847 130.050207 
L 380.723805 128.342253 
L 381.786764 136.540533 
L 382.849722 136.711379 
L 383.91268 141.83524 
L 384.975639 136.971643 
L 386.038597 135.344915 
L 387.101556 137.736151 
L 388.164514 134.320142 
L 389.227472 143.372449 
L 390.290431 131.929007 
L 391.353389 134.832579 
L 392.416347 138.760923 
L 393.479306 131.758161 
L 394.542264 138.931668 
L 395.605223 141.83524 
L 396.668181 131.929007 
L 397.731139 142.518523 
L 398.794098 132.270598 
L 399.857056 135.17417 
L 400.920014 140.981314 
L 401.982973 132.953779 
L 403.045931 135.003324 
L 404.10889 137.565305 
L 405.171848 130.904235 
L 406.234806 145.422095 
L 407.297765 131.074979 
L 408.360723 127.488226 
L 409.423681 141.152059 
L 410.48664 134.661733 
L 411.549598 137.39456 
L 412.612557 127.659072 
L 413.675515 133.807807 
L 414.738473 134.320142 
L 415.801432 130.220952 
L 416.86439 131.074979 
L 417.927348 133.466216 
L 418.990307 139.273259 
L 420.053265 135.344915 
L 421.116224 133.978551 
L 422.179182 130.391798 
L 423.24214 130.050207 
L 424.305099 142.860114 
L 425.368057 127.829817 
L 426.431015 128.854589 
L 427.493974 139.444105 
L 428.556932 127.659072 
L 429.619891 136.882124 
L 430.682849 138.077742 
L 431.745807 128.342253 
L 432.808766 135.003324 
L 433.871724 127.146635 
L 434.934682 127.488226 
L 435.997641 129.367026 
L 437.060599 137.39456 
L 438.123558 132.099752 
L 439.186516 123.218291 
L 440.249474 132.099752 
L 441.312433 139.444105 
L 442.375391 128.683844 
L 443.438349 124.584654 
L 444.501308 128.512998 
L 445.564266 134.661733 
L 446.627225 132.953779 
L 447.690183 130.562644 
L 448.753141 129.025435 
L 449.8161 135.857351 
L 450.879058 127.829817 
L 451.942017 132.441342 
L 453.004975 130.904235 
L 454.067933 126.463453 
L 455.130892 123.047445 
L 456.19385 135.857351 
L 457.256808 121.681082 
L 458.319767 134.661733 
L 459.382725 136.711379 
L 460.445684 124.243063 
L 461.508642 125.951017 
L 462.5716 119.973128 
L 463.634559 128.854589 
L 464.697517 126.634198 
L 465.760475 129.367026 
L 467.886392 130.733389 
L 468.949351 122.705854 
L 470.012309 123.559881 
L 471.075267 128.854589 
L 472.138226 128.854589 
L 473.201184 125.267835 
L 474.264142 119.460691 
L 475.327101 117.752737 
L 476.390059 126.292607 
L 478.515976 128.342253 
L 479.578934 118.948355 
L 480.641893 138.419333 
L 481.704851 111.091565 
L 482.767809 129.879361 
L 483.830768 128.854589 
L 484.893726 118.094328 
L 485.956685 127.488226 
L 487.019643 127.829817 
L 488.082601 120.827054 
L 489.14556 126.805044 
L 490.208518 120.827054 
L 491.271476 124.584654 
L 492.334435 130.562644 
L 493.397393 118.435919 
L 494.460352 115.01991 
L 495.52331 121.851928 
L 496.586268 130.904235 
L 498.712185 114.507574 
L 499.775143 122.705854 
L 500.838102 118.094328 
L 501.90106 120.485463 
L 502.964019 127.829817 
L 504.026977 123.389035 
L 505.089935 117.069556 
L 506.152894 125.09709 
L 507.215852 127.317481 
L 508.27881 127.146635 
L 509.341769 117.581891 
L 510.404727 122.364263 
L 511.467686 124.243063 
L 512.530644 118.435919 
L 514.656561 125.609426 
L 515.719519 115.361602 
L 516.782477 116.727965 
L 517.845436 119.460691 
L 518.908394 118.435919 
L 519.971353 129.53777 
L 521.034311 113.653547 
L 522.097269 120.485463 
L 523.160228 122.8767 
L 524.223186 117.411146 
L 525.286145 115.873937 
L 526.349103 119.802282 
L 527.412061 116.215528 
L 528.47502 123.047445 
L 529.537978 115.873937 
L 530.600936 118.435919 
L 531.663895 120.485463 
L 532.726853 117.752737 
L 533.789812 117.069556 
L 534.85277 118.606765 
L 535.915728 117.752737 
L 536.978687 112.79962 
L 538.041645 120.314718 
L 539.104603 110.237639 
L 540.167562 120.143873 
L 541.23052 117.581891 
L 542.293479 117.752737 
L 543.356437 117.581891 
L 544.419395 117.923482 
L 545.482354 118.435919 
L 546.545312 116.557119 
L 547.60827 118.094328 
L 548.671229 118.606765 
L 549.734187 115.703193 
L 550.797146 118.948355 
L 551.860104 117.254259 
L 552.923062 116.89871 
L 553.986021 115.01991 
L 555.048979 117.752737 
L 556.111937 114.336728 
L 557.174896 116.386374 
L 558.237854 113.311956 
L 559.300813 116.215528 
L 560.363771 113.141211 
L 561.426729 118.094328 
L 562.489688 115.532347 
L 563.552646 113.995138 
L 564.615604 116.044783 
L 565.678563 116.727965 
L 567.80448 115.01991 
L 568.867438 115.361602 
L 569.930396 116.215528 
L 570.993355 114.336728 
L 572.056313 117.069556 
L 573.119271 113.824393 
L 574.18223 115.873937 
L 575.245188 110.408384 
L 576.308147 113.311956 
L 577.371105 117.752737 
L 578.434063 112.45803 
L 579.497022 113.141211 
L 580.55998 115.532347 
L 581.622938 110.237639 
L 581.622938 110.237639 
" style="fill:none;stroke:#d7191c;stroke-linecap:square;stroke-width:1.5;"/>
   </g>
   <g id="patch_3">
    <path d="M 50.14375 282.799219 
L 50.14375 10.999219 
" style="fill:none;stroke:#000000;stroke-linecap:square;stroke-linejoin:miter;stroke-width:0.8;"/>
   </g>
   <g id="patch_4">
    <path d="M 608.14375 282.799219 
L 608.14375 10.999219 
" style="fill:none;stroke:#000000;stroke-linecap:square;stroke-linejoin:miter;stroke-width:0.8;"/>
   </g>
   <g id="patch_5">
    <path d="M 50.14375 282.799219 
L 608.14375 282.799219 
" style="fill:none;stroke:#000000;stroke-linecap:square;stroke-linejoin:miter;stroke-width:0.8;"/>
   </g>
   <g id="patch_6">
    <path d="M 50.14375 10.999219 
L 608.14375 10.999219 
" style="fill:none;stroke:#000000;stroke-linecap:square;stroke-linejoin:miter;stroke-width:0.8;"/>
   </g>
   <g id="legend_1">
    <g id="patch_7">
     <path d="M 57.14375 77.711719 
L 248.190625 77.711719 
Q 250.190625 77.711719 250.190625 75.711719 
L 250.190625 17.999219 
Q 250.190625 15.999219 248.190625 15.999219 
L 57.14375 15.999219 
Q 55.14375 15.999219 55.14375 17.999219 
L 55.14375 75.711719 
Q 55.14375 77.711719 57.14375 77.711719 
z
" style="fill:#ffffff;opacity:0.8;stroke:#cccccc;stroke-linejoin:miter;"/>
    </g>
    <g id="line2d_35">
     <path d="M 59.14375 24.097656 
L 79.14375 24.097656 
" style="fill:none;stroke:#abd9e9;stroke-linecap:square;stroke-width:1.5;"/>
    </g>
    <g id="line2d_36"/>
    <g id="text_18">
     <!-- Train -->
     <defs>
      <path d="M -0.296875 72.90625 
L 61.375 72.90625 
L 61.375 64.59375 
L 35.5 64.59375 
L 35.5 0 
L 25.59375 0 
L 25.59375 64.59375 
L -0.296875 64.59375 
z
" id="DejaVuSans-84"/>
      <path d="M 9.421875 54.6875 
L 18.40625 54.6875 
L 18.40625 0 
L 9.421875 0 
z
M 9.421875 75.984375 
L 18.40625 75.984375 
L 18.40625 64.59375 
L 9.421875 64.59375 
z
" id="DejaVuSans-105"/>
      <path d="M 54.890625 33.015625 
L 54.890625 0 
L 45.90625 0 
L 45.90625 32.71875 
Q 45.90625 40.484375 42.875 44.328125 
Q 39.84375 48.1875 33.796875 48.1875 
Q 26.515625 48.1875 22.3125 43.546875 
Q 18.109375 38.921875 18.109375 30.90625 
L 18.109375 0 
L 9.078125 0 
L 9.078125 54.6875 
L 18.109375 54.6875 
L 18.109375 46.1875 
Q 21.34375 51.125 25.703125 53.5625 
Q 30.078125 56 35.796875 56 
Q 45.21875 56 50.046875 50.171875 
Q 54.890625 44.34375 54.890625 33.015625 
z
" id="DejaVuSans-110"/>
     </defs>
     <g transform="translate(87.14375 27.597656)scale(0.1 -0.1)">
      <use xlink:href="#DejaVuSans-84"/>
      <use x="60.865234" xlink:href="#DejaVuSans-114"/>
      <use x="101.978516" xlink:href="#DejaVuSans-97"/>
      <use x="163.257812" xlink:href="#DejaVuSans-105"/>
      <use x="191.041016" xlink:href="#DejaVuSans-110"/>
     </g>
    </g>
    <g id="line2d_37">
     <path d="M 59.14375 38.775781 
L 79.14375 38.775781 
" style="fill:none;stroke:#2c7bb6;stroke-linecap:square;stroke-width:1.5;"/>
    </g>
    <g id="line2d_38"/>
    <g id="text_19">
     <!-- Validation -->
     <defs>
      <path d="M 28.609375 0 
L 0.78125 72.90625 
L 11.078125 72.90625 
L 34.1875 11.53125 
L 57.328125 72.90625 
L 67.578125 72.90625 
L 39.796875 0 
z
" id="DejaVuSans-86"/>
      <path d="M 9.421875 75.984375 
L 18.40625 75.984375 
L 18.40625 0 
L 9.421875 0 
z
" id="DejaVuSans-108"/>
      <path d="M 45.40625 46.390625 
L 45.40625 75.984375 
L 54.390625 75.984375 
L 54.390625 0 
L 45.40625 0 
L 45.40625 8.203125 
Q 42.578125 3.328125 38.25 0.953125 
Q 33.9375 -1.421875 27.875 -1.421875 
Q 17.96875 -1.421875 11.734375 6.484375 
Q 5.515625 14.40625 5.515625 27.296875 
Q 5.515625 40.1875 11.734375 48.09375 
Q 17.96875 56 27.875 56 
Q 33.9375 56 38.25 53.625 
Q 42.578125 51.265625 45.40625 46.390625 
z
M 14.796875 27.296875 
Q 14.796875 17.390625 18.875 11.75 
Q 22.953125 6.109375 30.078125 6.109375 
Q 37.203125 6.109375 41.296875 11.75 
Q 45.40625 17.390625 45.40625 27.296875 
Q 45.40625 37.203125 41.296875 42.84375 
Q 37.203125 48.484375 30.078125 48.484375 
Q 22.953125 48.484375 18.875 42.84375 
Q 14.796875 37.203125 14.796875 27.296875 
z
" id="DejaVuSans-100"/>
      <path d="M 18.3125 70.21875 
L 18.3125 54.6875 
L 36.8125 54.6875 
L 36.8125 47.703125 
L 18.3125 47.703125 
L 18.3125 18.015625 
Q 18.3125 11.328125 20.140625 9.421875 
Q 21.96875 7.515625 27.59375 7.515625 
L 36.8125 7.515625 
L 36.8125 0 
L 27.59375 0 
Q 17.1875 0 13.234375 3.875 
Q 9.28125 7.765625 9.28125 18.015625 
L 9.28125 47.703125 
L 2.6875 47.703125 
L 2.6875 54.6875 
L 9.28125 54.6875 
L 9.28125 70.21875 
z
" id="DejaVuSans-116"/>
     </defs>
     <g transform="translate(87.14375 42.275781)scale(0.1 -0.1)">
      <use xlink:href="#DejaVuSans-86"/>
      <use x="68.298828" xlink:href="#DejaVuSans-97"/>
      <use x="129.578125" xlink:href="#DejaVuSans-108"/>
      <use x="157.361328" xlink:href="#DejaVuSans-105"/>
      <use x="185.144531" xlink:href="#DejaVuSans-100"/>
      <use x="248.621094" xlink:href="#DejaVuSans-97"/>
      <use x="309.900391" xlink:href="#DejaVuSans-116"/>
      <use x="349.109375" xlink:href="#DejaVuSans-105"/>
      <use x="376.892578" xlink:href="#DejaVuSans-111"/>
      <use x="438.074219" xlink:href="#DejaVuSans-110"/>
     </g>
    </g>
    <g id="line2d_39">
     <path d="M 59.14375 53.453906 
L 79.14375 53.453906 
" style="fill:none;stroke:#fdae61;stroke-linecap:square;stroke-width:1.5;"/>
    </g>
    <g id="line2d_40"/>
    <g id="text_20">
     <!-- BN before activation - train -->
     <defs>
      <path d="M 19.671875 34.8125 
L 19.671875 8.109375 
L 35.5 8.109375 
Q 43.453125 8.109375 47.28125 11.40625 
Q 51.125 14.703125 51.125 21.484375 
Q 51.125 28.328125 47.28125 31.5625 
Q 43.453125 34.8125 35.5 34.8125 
z
M 19.671875 64.796875 
L 19.671875 42.828125 
L 34.28125 42.828125 
Q 41.5 42.828125 45.03125 45.53125 
Q 48.578125 48.25 48.578125 53.8125 
Q 48.578125 59.328125 45.03125 62.0625 
Q 41.5 64.796875 34.28125 64.796875 
z
M 9.8125 72.90625 
L 35.015625 72.90625 
Q 46.296875 72.90625 52.390625 68.21875 
Q 58.5 63.53125 58.5 54.890625 
Q 58.5 48.1875 55.375 44.234375 
Q 52.25 40.28125 46.1875 39.3125 
Q 53.46875 37.75 57.5 32.78125 
Q 61.53125 27.828125 61.53125 20.40625 
Q 61.53125 10.640625 54.890625 5.3125 
Q 48.25 0 35.984375 0 
L 9.8125 0 
z
" id="DejaVuSans-66"/>
      <path d="M 9.8125 72.90625 
L 23.09375 72.90625 
L 55.421875 11.921875 
L 55.421875 72.90625 
L 64.984375 72.90625 
L 64.984375 0 
L 51.703125 0 
L 19.390625 60.984375 
L 19.390625 0 
L 9.8125 0 
z
" id="DejaVuSans-78"/>
      <path id="DejaVuSans-32"/>
      <path d="M 48.6875 27.296875 
Q 48.6875 37.203125 44.609375 42.84375 
Q 40.53125 48.484375 33.40625 48.484375 
Q 26.265625 48.484375 22.1875 42.84375 
Q 18.109375 37.203125 18.109375 27.296875 
Q 18.109375 17.390625 22.1875 11.75 
Q 26.265625 6.109375 33.40625 6.109375 
Q 40.53125 6.109375 44.609375 11.75 
Q 48.6875 17.390625 48.6875 27.296875 
z
M 18.109375 46.390625 
Q 20.953125 51.265625 25.265625 53.625 
Q 29.59375 56 35.59375 56 
Q 45.5625 56 51.78125 48.09375 
Q 58.015625 40.1875 58.015625 27.296875 
Q 58.015625 14.40625 51.78125 6.484375 
Q 45.5625 -1.421875 35.59375 -1.421875 
Q 29.59375 -1.421875 25.265625 0.953125 
Q 20.953125 3.328125 18.109375 8.203125 
L 18.109375 0 
L 9.078125 0 
L 9.078125 75.984375 
L 18.109375 75.984375 
z
" id="DejaVuSans-98"/>
      <path d="M 56.203125 29.59375 
L 56.203125 25.203125 
L 14.890625 25.203125 
Q 15.484375 15.921875 20.484375 11.0625 
Q 25.484375 6.203125 34.421875 6.203125 
Q 39.59375 6.203125 44.453125 7.46875 
Q 49.3125 8.734375 54.109375 11.28125 
L 54.109375 2.78125 
Q 49.265625 0.734375 44.1875 -0.34375 
Q 39.109375 -1.421875 33.890625 -1.421875 
Q 20.796875 -1.421875 13.15625 6.1875 
Q 5.515625 13.8125 5.515625 26.8125 
Q 5.515625 40.234375 12.765625 48.109375 
Q 20.015625 56 32.328125 56 
Q 43.359375 56 49.78125 48.890625 
Q 56.203125 41.796875 56.203125 29.59375 
z
M 47.21875 32.234375 
Q 47.125 39.59375 43.09375 43.984375 
Q 39.0625 48.390625 32.421875 48.390625 
Q 24.90625 48.390625 20.390625 44.140625 
Q 15.875 39.890625 15.1875 32.171875 
z
" id="DejaVuSans-101"/>
      <path d="M 37.109375 75.984375 
L 37.109375 68.5 
L 28.515625 68.5 
Q 23.6875 68.5 21.796875 66.546875 
Q 19.921875 64.59375 19.921875 59.515625 
L 19.921875 54.6875 
L 34.71875 54.6875 
L 34.71875 47.703125 
L 19.921875 47.703125 
L 19.921875 0 
L 10.890625 0 
L 10.890625 47.703125 
L 2.296875 47.703125 
L 2.296875 54.6875 
L 10.890625 54.6875 
L 10.890625 58.5 
Q 10.890625 67.625 15.140625 71.796875 
Q 19.390625 75.984375 28.609375 75.984375 
z
" id="DejaVuSans-102"/>
      <path d="M 2.984375 54.6875 
L 12.5 54.6875 
L 29.59375 8.796875 
L 46.6875 54.6875 
L 56.203125 54.6875 
L 35.6875 0 
L 23.484375 0 
z
" id="DejaVuSans-118"/>
      <path d="M 4.890625 31.390625 
L 31.203125 31.390625 
L 31.203125 23.390625 
L 4.890625 23.390625 
z
" id="DejaVuSans-45"/>
     </defs>
     <g transform="translate(87.14375 56.953906)scale(0.1 -0.1)">
      <use xlink:href="#DejaVuSans-66"/>
      <use x="68.603516" xlink:href="#DejaVuSans-78"/>
      <use x="143.408203" xlink:href="#DejaVuSans-32"/>
      <use x="175.195312" xlink:href="#DejaVuSans-98"/>
      <use x="238.671875" xlink:href="#DejaVuSans-101"/>
      <use x="300.195312" xlink:href="#DejaVuSans-102"/>
      <use x="335.400391" xlink:href="#DejaVuSans-111"/>
      <use x="396.582031" xlink:href="#DejaVuSans-114"/>
      <use x="437.664062" xlink:href="#DejaVuSans-101"/>
      <use x="499.1875" xlink:href="#DejaVuSans-32"/>
      <use x="530.974609" xlink:href="#DejaVuSans-97"/>
      <use x="592.253906" xlink:href="#DejaVuSans-99"/>
      <use x="647.234375" xlink:href="#DejaVuSans-116"/>
      <use x="686.443359" xlink:href="#DejaVuSans-105"/>
      <use x="714.226562" xlink:href="#DejaVuSans-118"/>
      <use x="773.40625" xlink:href="#DejaVuSans-97"/>
      <use x="834.685547" xlink:href="#DejaVuSans-116"/>
      <use x="873.894531" xlink:href="#DejaVuSans-105"/>
      <use x="901.677734" xlink:href="#DejaVuSans-111"/>
      <use x="962.859375" xlink:href="#DejaVuSans-110"/>
      <use x="1026.238281" xlink:href="#DejaVuSans-32"/>
      <use x="1058.025391" xlink:href="#DejaVuSans-45"/>
      <use x="1094.109375" xlink:href="#DejaVuSans-32"/>
      <use x="1125.896484" xlink:href="#DejaVuSans-116"/>
      <use x="1165.105469" xlink:href="#DejaVuSans-114"/>
      <use x="1206.21875" xlink:href="#DejaVuSans-97"/>
      <use x="1267.498047" xlink:href="#DejaVuSans-105"/>
      <use x="1295.28125" xlink:href="#DejaVuSans-110"/>
     </g>
    </g>
    <g id="line2d_41">
     <path d="M 59.14375 68.132031 
L 79.14375 68.132031 
" style="fill:none;stroke:#d7191c;stroke-linecap:square;stroke-width:1.5;"/>
    </g>
    <g id="line2d_42"/>
    <g id="text_21">
     <!-- BN before actvation - validation -->
     <g transform="translate(87.14375 71.632031)scale(0.1 -0.1)">
      <use xlink:href="#DejaVuSans-66"/>
      <use x="68.603516" xlink:href="#DejaVuSans-78"/>
      <use x="143.408203" xlink:href="#DejaVuSans-32"/>
      <use x="175.195312" xlink:href="#DejaVuSans-98"/>
      <use x="238.671875" xlink:href="#DejaVuSans-101"/>
      <use x="300.195312" xlink:href="#DejaVuSans-102"/>
      <use x="335.400391" xlink:href="#DejaVuSans-111"/>
      <use x="396.582031" xlink:href="#DejaVuSans-114"/>
      <use x="437.664062" xlink:href="#DejaVuSans-101"/>
      <use x="499.1875" xlink:href="#DejaVuSans-32"/>
      <use x="530.974609" xlink:href="#DejaVuSans-97"/>
      <use x="592.253906" xlink:href="#DejaVuSans-99"/>
      <use x="647.234375" xlink:href="#DejaVuSans-116"/>
      <use x="686.443359" xlink:href="#DejaVuSans-118"/>
      <use x="745.623047" xlink:href="#DejaVuSans-97"/>
      <use x="806.902344" xlink:href="#DejaVuSans-116"/>
      <use x="846.111328" xlink:href="#DejaVuSans-105"/>
      <use x="873.894531" xlink:href="#DejaVuSans-111"/>
      <use x="935.076172" xlink:href="#DejaVuSans-110"/>
      <use x="998.455078" xlink:href="#DejaVuSans-32"/>
      <use x="1030.242188" xlink:href="#DejaVuSans-45"/>
      <use x="1066.326172" xlink:href="#DejaVuSans-32"/>
      <use x="1098.113281" xlink:href="#DejaVuSans-118"/>
      <use x="1157.292969" xlink:href="#DejaVuSans-97"/>
      <use x="1218.572266" xlink:href="#DejaVuSans-108"/>
      <use x="1246.355469" xlink:href="#DejaVuSans-105"/>
      <use x="1274.138672" xlink:href="#DejaVuSans-100"/>
      <use x="1337.615234" xlink:href="#DejaVuSans-97"/>
      <use x="1398.894531" xlink:href="#DejaVuSans-116"/>
      <use x="1438.103516" xlink:href="#DejaVuSans-105"/>
      <use x="1465.886719" xlink:href="#DejaVuSans-111"/>
      <use x="1527.068359" xlink:href="#DejaVuSans-110"/>
     </g>
    </g>
   </g>
  </g>
 </g>
 <defs>
  <clipPath id="p983023699c">
   <rect height="271.8" width="558" x="50.14375" y="10.999219"/>
  </clipPath>
 </defs>
</svg>
