<?xml version="1.0" encoding="utf-8" standalone="no"?>
<!DOCTYPE svg PUBLIC "-//W3C//DTD SVG 1.1//EN"
  "http://www.w3.org/Graphics/SVG/1.1/DTD/svg11.dtd">
<!-- Created with matplotlib (https://matplotlib.org/) -->
<svg height="374.715469pt" version="1.1" viewBox="0 0 726.94375 374.715469" width="726.94375pt" xmlns="http://www.w3.org/2000/svg" xmlns:xlink="http://www.w3.org/1999/xlink">
 <defs>
  <style type="text/css">
*{stroke-linecap:butt;stroke-linejoin:round;white-space:pre;}
  </style>
 </defs>
 <g id="figure_1">
  <g id="patch_1">
   <path d="M 0 374.715469 
L 726.94375 374.715469 
L 726.94375 0 
L 0 0 
z
" style="fill:#ffffff;"/>
  </g>
  <g id="axes_1">
   <g id="patch_2">
    <path d="M 50.14375 337.159219 
L 719.74375 337.159219 
L 719.74375 10.999219 
L 50.14375 10.999219 
z
" style="fill:#ffffff;"/>
   </g>
   <g id="matplotlib.axis_1">
    <g id="xtick_1">
     <g id="line2d_1">
      <path clip-path="url(#pff6c773939)" d="M 50.14375 337.159219 
L 50.14375 10.999219 
" style="fill:none;stroke:#b0b0b0;stroke-linecap:square;stroke-width:0.8;"/>
     </g>
     <g id="line2d_2">
      <defs>
       <path d="M 0 0 
L 0 3.5 
" id="m48aa6fe398" style="stroke:#000000;stroke-width:0.8;"/>
      </defs>
      <g>
       <use style="stroke:#000000;stroke-width:0.8;" x="50.14375" xlink:href="#m48aa6fe398" y="337.159219"/>
      </g>
     </g>
     <g id="text_1">
      <!-- 0 -->
      <defs>
       <path d="M 31.78125 66.40625 
Q 24.171875 66.40625 20.328125 58.90625 
Q 16.5 51.421875 16.5 36.375 
Q 16.5 21.390625 20.328125 13.890625 
Q 24.171875 6.390625 31.78125 6.390625 
Q 39.453125 6.390625 43.28125 13.890625 
Q 47.125 21.390625 47.125 36.375 
Q 47.125 51.421875 43.28125 58.90625 
Q 39.453125 66.40625 31.78125 66.40625 
z
M 31.78125 74.21875 
Q 44.046875 74.21875 50.515625 64.515625 
Q 56.984375 54.828125 56.984375 36.375 
Q 56.984375 17.96875 50.515625 8.265625 
Q 44.046875 -1.421875 31.78125 -1.421875 
Q 19.53125 -1.421875 13.0625 8.265625 
Q 6.59375 17.96875 6.59375 36.375 
Q 6.59375 54.828125 13.0625 64.515625 
Q 19.53125 74.21875 31.78125 74.21875 
z
" id="DejaVuSans-48"/>
      </defs>
      <g transform="translate(46.9625 351.757656)scale(0.1 -0.1)">
       <use xlink:href="#DejaVuSans-48"/>
      </g>
     </g>
    </g>
    <g id="xtick_2">
     <g id="line2d_3">
      <path clip-path="url(#pff6c773939)" d="M 129.867527 337.159219 
L 129.867527 10.999219 
" style="fill:none;stroke:#b0b0b0;stroke-linecap:square;stroke-width:0.8;"/>
     </g>
     <g id="line2d_4">
      <g>
       <use style="stroke:#000000;stroke-width:0.8;" x="129.867527" xlink:href="#m48aa6fe398" y="337.159219"/>
      </g>
     </g>
     <g id="text_2">
      <!-- 50 -->
      <defs>
       <path d="M 10.796875 72.90625 
L 49.515625 72.90625 
L 49.515625 64.59375 
L 19.828125 64.59375 
L 19.828125 46.734375 
Q 21.96875 47.46875 24.109375 47.828125 
Q 26.265625 48.1875 28.421875 48.1875 
Q 40.625 48.1875 47.75 41.5 
Q 54.890625 34.8125 54.890625 23.390625 
Q 54.890625 11.625 47.5625 5.09375 
Q 40.234375 -1.421875 26.90625 -1.421875 
Q 22.3125 -1.421875 17.546875 -0.640625 
Q 12.796875 0.140625 7.71875 1.703125 
L 7.71875 11.625 
Q 12.109375 9.234375 16.796875 8.0625 
Q 21.484375 6.890625 26.703125 6.890625 
Q 35.15625 6.890625 40.078125 11.328125 
Q 45.015625 15.765625 45.015625 23.390625 
Q 45.015625 31 40.078125 35.4375 
Q 35.15625 39.890625 26.703125 39.890625 
Q 22.75 39.890625 18.8125 39.015625 
Q 14.890625 38.140625 10.796875 36.28125 
z
" id="DejaVuSans-53"/>
      </defs>
      <g transform="translate(123.505027 351.757656)scale(0.1 -0.1)">
       <use xlink:href="#DejaVuSans-53"/>
       <use x="63.623047" xlink:href="#DejaVuSans-48"/>
      </g>
     </g>
    </g>
    <g id="xtick_3">
     <g id="line2d_5">
      <path clip-path="url(#pff6c773939)" d="M 209.591303 337.159219 
L 209.591303 10.999219 
" style="fill:none;stroke:#b0b0b0;stroke-linecap:square;stroke-width:0.8;"/>
     </g>
     <g id="line2d_6">
      <g>
       <use style="stroke:#000000;stroke-width:0.8;" x="209.591303" xlink:href="#m48aa6fe398" y="337.159219"/>
      </g>
     </g>
     <g id="text_3">
      <!-- 100 -->
      <defs>
       <path d="M 12.40625 8.296875 
L 28.515625 8.296875 
L 28.515625 63.921875 
L 10.984375 60.40625 
L 10.984375 69.390625 
L 28.421875 72.90625 
L 38.28125 72.90625 
L 38.28125 8.296875 
L 54.390625 8.296875 
L 54.390625 0 
L 12.40625 0 
z
" id="DejaVuSans-49"/>
      </defs>
      <g transform="translate(200.047553 351.757656)scale(0.1 -0.1)">
       <use xlink:href="#DejaVuSans-49"/>
       <use x="63.623047" xlink:href="#DejaVuSans-48"/>
       <use x="127.246094" xlink:href="#DejaVuSans-48"/>
      </g>
     </g>
    </g>
    <g id="xtick_4">
     <g id="line2d_7">
      <path clip-path="url(#pff6c773939)" d="M 289.31508 337.159219 
L 289.31508 10.999219 
" style="fill:none;stroke:#b0b0b0;stroke-linecap:square;stroke-width:0.8;"/>
     </g>
     <g id="line2d_8">
      <g>
       <use style="stroke:#000000;stroke-width:0.8;" x="289.31508" xlink:href="#m48aa6fe398" y="337.159219"/>
      </g>
     </g>
     <g id="text_4">
      <!-- 150 -->
      <g transform="translate(279.77133 351.757656)scale(0.1 -0.1)">
       <use xlink:href="#DejaVuSans-49"/>
       <use x="63.623047" xlink:href="#DejaVuSans-53"/>
       <use x="127.246094" xlink:href="#DejaVuSans-48"/>
      </g>
     </g>
    </g>
    <g id="xtick_5">
     <g id="line2d_9">
      <path clip-path="url(#pff6c773939)" d="M 369.038857 337.159219 
L 369.038857 10.999219 
" style="fill:none;stroke:#b0b0b0;stroke-linecap:square;stroke-width:0.8;"/>
     </g>
     <g id="line2d_10">
      <g>
       <use style="stroke:#000000;stroke-width:0.8;" x="369.038857" xlink:href="#m48aa6fe398" y="337.159219"/>
      </g>
     </g>
     <g id="text_5">
      <!-- 200 -->
      <defs>
       <path d="M 19.1875 8.296875 
L 53.609375 8.296875 
L 53.609375 0 
L 7.328125 0 
L 7.328125 8.296875 
Q 12.9375 14.109375 22.625 23.890625 
Q 32.328125 33.6875 34.8125 36.53125 
Q 39.546875 41.84375 41.421875 45.53125 
Q 43.3125 49.21875 43.3125 52.78125 
Q 43.3125 58.59375 39.234375 62.25 
Q 35.15625 65.921875 28.609375 65.921875 
Q 23.96875 65.921875 18.8125 64.3125 
Q 13.671875 62.703125 7.8125 59.421875 
L 7.8125 69.390625 
Q 13.765625 71.78125 18.9375 73 
Q 24.125 74.21875 28.421875 74.21875 
Q 39.75 74.21875 46.484375 68.546875 
Q 53.21875 62.890625 53.21875 53.421875 
Q 53.21875 48.921875 51.53125 44.890625 
Q 49.859375 40.875 45.40625 35.40625 
Q 44.1875 33.984375 37.640625 27.21875 
Q 31.109375 20.453125 19.1875 8.296875 
z
" id="DejaVuSans-50"/>
      </defs>
      <g transform="translate(359.495107 351.757656)scale(0.1 -0.1)">
       <use xlink:href="#DejaVuSans-50"/>
       <use x="63.623047" xlink:href="#DejaVuSans-48"/>
       <use x="127.246094" xlink:href="#DejaVuSans-48"/>
      </g>
     </g>
    </g>
    <g id="xtick_6">
     <g id="line2d_11">
      <path clip-path="url(#pff6c773939)" d="M 448.762633 337.159219 
L 448.762633 10.999219 
" style="fill:none;stroke:#b0b0b0;stroke-linecap:square;stroke-width:0.8;"/>
     </g>
     <g id="line2d_12">
      <g>
       <use style="stroke:#000000;stroke-width:0.8;" x="448.762633" xlink:href="#m48aa6fe398" y="337.159219"/>
      </g>
     </g>
     <g id="text_6">
      <!-- 250 -->
      <g transform="translate(439.218883 351.757656)scale(0.1 -0.1)">
       <use xlink:href="#DejaVuSans-50"/>
       <use x="63.623047" xlink:href="#DejaVuSans-53"/>
       <use x="127.246094" xlink:href="#DejaVuSans-48"/>
      </g>
     </g>
    </g>
    <g id="xtick_7">
     <g id="line2d_13">
      <path clip-path="url(#pff6c773939)" d="M 528.48641 337.159219 
L 528.48641 10.999219 
" style="fill:none;stroke:#b0b0b0;stroke-linecap:square;stroke-width:0.8;"/>
     </g>
     <g id="line2d_14">
      <g>
       <use style="stroke:#000000;stroke-width:0.8;" x="528.48641" xlink:href="#m48aa6fe398" y="337.159219"/>
      </g>
     </g>
     <g id="text_7">
      <!-- 300 -->
      <defs>
       <path d="M 40.578125 39.3125 
Q 47.65625 37.796875 51.625 33 
Q 55.609375 28.21875 55.609375 21.1875 
Q 55.609375 10.40625 48.1875 4.484375 
Q 40.765625 -1.421875 27.09375 -1.421875 
Q 22.515625 -1.421875 17.65625 -0.515625 
Q 12.796875 0.390625 7.625 2.203125 
L 7.625 11.71875 
Q 11.71875 9.328125 16.59375 8.109375 
Q 21.484375 6.890625 26.8125 6.890625 
Q 36.078125 6.890625 40.9375 10.546875 
Q 45.796875 14.203125 45.796875 21.1875 
Q 45.796875 27.640625 41.28125 31.265625 
Q 36.765625 34.90625 28.71875 34.90625 
L 20.21875 34.90625 
L 20.21875 43.015625 
L 29.109375 43.015625 
Q 36.375 43.015625 40.234375 45.921875 
Q 44.09375 48.828125 44.09375 54.296875 
Q 44.09375 59.90625 40.109375 62.90625 
Q 36.140625 65.921875 28.71875 65.921875 
Q 24.65625 65.921875 20.015625 65.03125 
Q 15.375 64.15625 9.8125 62.3125 
L 9.8125 71.09375 
Q 15.4375 72.65625 20.34375 73.4375 
Q 25.25 74.21875 29.59375 74.21875 
Q 40.828125 74.21875 47.359375 69.109375 
Q 53.90625 64.015625 53.90625 55.328125 
Q 53.90625 49.265625 50.4375 45.09375 
Q 46.96875 40.921875 40.578125 39.3125 
z
" id="DejaVuSans-51"/>
      </defs>
      <g transform="translate(518.94266 351.757656)scale(0.1 -0.1)">
       <use xlink:href="#DejaVuSans-51"/>
       <use x="63.623047" xlink:href="#DejaVuSans-48"/>
       <use x="127.246094" xlink:href="#DejaVuSans-48"/>
      </g>
     </g>
    </g>
    <g id="xtick_8">
     <g id="line2d_15">
      <path clip-path="url(#pff6c773939)" d="M 608.210186 337.159219 
L 608.210186 10.999219 
" style="fill:none;stroke:#b0b0b0;stroke-linecap:square;stroke-width:0.8;"/>
     </g>
     <g id="line2d_16">
      <g>
       <use style="stroke:#000000;stroke-width:0.8;" x="608.210186" xlink:href="#m48aa6fe398" y="337.159219"/>
      </g>
     </g>
     <g id="text_8">
      <!-- 350 -->
      <g transform="translate(598.666436 351.757656)scale(0.1 -0.1)">
       <use xlink:href="#DejaVuSans-51"/>
       <use x="63.623047" xlink:href="#DejaVuSans-53"/>
       <use x="127.246094" xlink:href="#DejaVuSans-48"/>
      </g>
     </g>
    </g>
    <g id="xtick_9">
     <g id="line2d_17">
      <path clip-path="url(#pff6c773939)" d="M 687.933963 337.159219 
L 687.933963 10.999219 
" style="fill:none;stroke:#b0b0b0;stroke-linecap:square;stroke-width:0.8;"/>
     </g>
     <g id="line2d_18">
      <g>
       <use style="stroke:#000000;stroke-width:0.8;" x="687.933963" xlink:href="#m48aa6fe398" y="337.159219"/>
      </g>
     </g>
     <g id="text_9">
      <!-- 400 -->
      <defs>
       <path d="M 37.796875 64.3125 
L 12.890625 25.390625 
L 37.796875 25.390625 
z
M 35.203125 72.90625 
L 47.609375 72.90625 
L 47.609375 25.390625 
L 58.015625 25.390625 
L 58.015625 17.1875 
L 47.609375 17.1875 
L 47.609375 0 
L 37.796875 0 
L 37.796875 17.1875 
L 4.890625 17.1875 
L 4.890625 26.703125 
z
" id="DejaVuSans-52"/>
      </defs>
      <g transform="translate(678.390213 351.757656)scale(0.1 -0.1)">
       <use xlink:href="#DejaVuSans-52"/>
       <use x="63.623047" xlink:href="#DejaVuSans-48"/>
       <use x="127.246094" xlink:href="#DejaVuSans-48"/>
      </g>
     </g>
    </g>
    <g id="text_10">
     <!-- Epoch -->
     <defs>
      <path d="M 9.8125 72.90625 
L 55.90625 72.90625 
L 55.90625 64.59375 
L 19.671875 64.59375 
L 19.671875 43.015625 
L 54.390625 43.015625 
L 54.390625 34.71875 
L 19.671875 34.71875 
L 19.671875 8.296875 
L 56.78125 8.296875 
L 56.78125 0 
L 9.8125 0 
z
" id="DejaVuSans-69"/>
      <path d="M 18.109375 8.203125 
L 18.109375 -20.796875 
L 9.078125 -20.796875 
L 9.078125 54.6875 
L 18.109375 54.6875 
L 18.109375 46.390625 
Q 20.953125 51.265625 25.265625 53.625 
Q 29.59375 56 35.59375 56 
Q 45.5625 56 51.78125 48.09375 
Q 58.015625 40.1875 58.015625 27.296875 
Q 58.015625 14.40625 51.78125 6.484375 
Q 45.5625 -1.421875 35.59375 -1.421875 
Q 29.59375 -1.421875 25.265625 0.953125 
Q 20.953125 3.328125 18.109375 8.203125 
z
M 48.6875 27.296875 
Q 48.6875 37.203125 44.609375 42.84375 
Q 40.53125 48.484375 33.40625 48.484375 
Q 26.265625 48.484375 22.1875 42.84375 
Q 18.109375 37.203125 18.109375 27.296875 
Q 18.109375 17.390625 22.1875 11.75 
Q 26.265625 6.109375 33.40625 6.109375 
Q 40.53125 6.109375 44.609375 11.75 
Q 48.6875 17.390625 48.6875 27.296875 
z
" id="DejaVuSans-112"/>
      <path d="M 30.609375 48.390625 
Q 23.390625 48.390625 19.1875 42.75 
Q 14.984375 37.109375 14.984375 27.296875 
Q 14.984375 17.484375 19.15625 11.84375 
Q 23.34375 6.203125 30.609375 6.203125 
Q 37.796875 6.203125 41.984375 11.859375 
Q 46.1875 17.53125 46.1875 27.296875 
Q 46.1875 37.015625 41.984375 42.703125 
Q 37.796875 48.390625 30.609375 48.390625 
z
M 30.609375 56 
Q 42.328125 56 49.015625 48.375 
Q 55.71875 40.765625 55.71875 27.296875 
Q 55.71875 13.875 49.015625 6.21875 
Q 42.328125 -1.421875 30.609375 -1.421875 
Q 18.84375 -1.421875 12.171875 6.21875 
Q 5.515625 13.875 5.515625 27.296875 
Q 5.515625 40.765625 12.171875 48.375 
Q 18.84375 56 30.609375 56 
z
" id="DejaVuSans-111"/>
      <path d="M 48.78125 52.59375 
L 48.78125 44.1875 
Q 44.96875 46.296875 41.140625 47.34375 
Q 37.3125 48.390625 33.40625 48.390625 
Q 24.65625 48.390625 19.8125 42.84375 
Q 14.984375 37.3125 14.984375 27.296875 
Q 14.984375 17.28125 19.8125 11.734375 
Q 24.65625 6.203125 33.40625 6.203125 
Q 37.3125 6.203125 41.140625 7.25 
Q 44.96875 8.296875 48.78125 10.40625 
L 48.78125 2.09375 
Q 45.015625 0.34375 40.984375 -0.53125 
Q 36.96875 -1.421875 32.421875 -1.421875 
Q 20.0625 -1.421875 12.78125 6.34375 
Q 5.515625 14.109375 5.515625 27.296875 
Q 5.515625 40.671875 12.859375 48.328125 
Q 20.21875 56 33.015625 56 
Q 37.15625 56 41.109375 55.140625 
Q 45.0625 54.296875 48.78125 52.59375 
z
" id="DejaVuSans-99"/>
      <path d="M 54.890625 33.015625 
L 54.890625 0 
L 45.90625 0 
L 45.90625 32.71875 
Q 45.90625 40.484375 42.875 44.328125 
Q 39.84375 48.1875 33.796875 48.1875 
Q 26.515625 48.1875 22.3125 43.546875 
Q 18.109375 38.921875 18.109375 30.90625 
L 18.109375 0 
L 9.078125 0 
L 9.078125 75.984375 
L 18.109375 75.984375 
L 18.109375 46.1875 
Q 21.34375 51.125 25.703125 53.5625 
Q 30.078125 56 35.796875 56 
Q 45.21875 56 50.046875 50.171875 
Q 54.890625 44.34375 54.890625 33.015625 
z
" id="DejaVuSans-104"/>
     </defs>
     <g transform="translate(369.632813 365.435781)scale(0.1 -0.1)">
      <use xlink:href="#DejaVuSans-69"/>
      <use x="63.183594" xlink:href="#DejaVuSans-112"/>
      <use x="126.660156" xlink:href="#DejaVuSans-111"/>
      <use x="187.841797" xlink:href="#DejaVuSans-99"/>
      <use x="242.822266" xlink:href="#DejaVuSans-104"/>
     </g>
    </g>
   </g>
   <g id="matplotlib.axis_2">
    <g id="ytick_1">
     <g id="line2d_19">
      <path clip-path="url(#pff6c773939)" d="M 50.14375 337.159219 
L 719.74375 337.159219 
" style="fill:none;stroke:#b0b0b0;stroke-linecap:square;stroke-width:0.8;"/>
     </g>
     <g id="line2d_20">
      <defs>
       <path d="M 0 0 
L -3.5 0 
" id="m0281263962" style="stroke:#000000;stroke-width:0.8;"/>
      </defs>
      <g>
       <use style="stroke:#000000;stroke-width:0.8;" x="50.14375" xlink:href="#m0281263962" y="337.159219"/>
      </g>
     </g>
     <g id="text_11">
      <!-- 0.82 -->
      <defs>
       <path d="M 10.6875 12.40625 
L 21 12.40625 
L 21 0 
L 10.6875 0 
z
" id="DejaVuSans-46"/>
       <path d="M 31.78125 34.625 
Q 24.75 34.625 20.71875 30.859375 
Q 16.703125 27.09375 16.703125 20.515625 
Q 16.703125 13.921875 20.71875 10.15625 
Q 24.75 6.390625 31.78125 6.390625 
Q 38.8125 6.390625 42.859375 10.171875 
Q 46.921875 13.96875 46.921875 20.515625 
Q 46.921875 27.09375 42.890625 30.859375 
Q 38.875 34.625 31.78125 34.625 
z
M 21.921875 38.8125 
Q 15.578125 40.375 12.03125 44.71875 
Q 8.5 49.078125 8.5 55.328125 
Q 8.5 64.0625 14.71875 69.140625 
Q 20.953125 74.21875 31.78125 74.21875 
Q 42.671875 74.21875 48.875 69.140625 
Q 55.078125 64.0625 55.078125 55.328125 
Q 55.078125 49.078125 51.53125 44.71875 
Q 48 40.375 41.703125 38.8125 
Q 48.828125 37.15625 52.796875 32.3125 
Q 56.78125 27.484375 56.78125 20.515625 
Q 56.78125 9.90625 50.3125 4.234375 
Q 43.84375 -1.421875 31.78125 -1.421875 
Q 19.734375 -1.421875 13.25 4.234375 
Q 6.78125 9.90625 6.78125 20.515625 
Q 6.78125 27.484375 10.78125 32.3125 
Q 14.796875 37.15625 21.921875 38.8125 
z
M 18.3125 54.390625 
Q 18.3125 48.734375 21.84375 45.5625 
Q 25.390625 42.390625 31.78125 42.390625 
Q 38.140625 42.390625 41.71875 45.5625 
Q 45.3125 48.734375 45.3125 54.390625 
Q 45.3125 60.0625 41.71875 63.234375 
Q 38.140625 66.40625 31.78125 66.40625 
Q 25.390625 66.40625 21.84375 63.234375 
Q 18.3125 60.0625 18.3125 54.390625 
z
" id="DejaVuSans-56"/>
      </defs>
      <g transform="translate(20.878125 340.958437)scale(0.1 -0.1)">
       <use xlink:href="#DejaVuSans-48"/>
       <use x="63.623047" xlink:href="#DejaVuSans-46"/>
       <use x="95.410156" xlink:href="#DejaVuSans-56"/>
       <use x="159.033203" xlink:href="#DejaVuSans-50"/>
      </g>
     </g>
    </g>
    <g id="ytick_2">
     <g id="line2d_21">
      <path clip-path="url(#pff6c773939)" d="M 50.14375 296.389219 
L 719.74375 296.389219 
" style="fill:none;stroke:#b0b0b0;stroke-linecap:square;stroke-width:0.8;"/>
     </g>
     <g id="line2d_22">
      <g>
       <use style="stroke:#000000;stroke-width:0.8;" x="50.14375" xlink:href="#m0281263962" y="296.389219"/>
      </g>
     </g>
     <g id="text_12">
      <!-- 0.84 -->
      <g transform="translate(20.878125 300.188437)scale(0.1 -0.1)">
       <use xlink:href="#DejaVuSans-48"/>
       <use x="63.623047" xlink:href="#DejaVuSans-46"/>
       <use x="95.410156" xlink:href="#DejaVuSans-56"/>
       <use x="159.033203" xlink:href="#DejaVuSans-52"/>
      </g>
     </g>
    </g>
    <g id="ytick_3">
     <g id="line2d_23">
      <path clip-path="url(#pff6c773939)" d="M 50.14375 255.619219 
L 719.74375 255.619219 
" style="fill:none;stroke:#b0b0b0;stroke-linecap:square;stroke-width:0.8;"/>
     </g>
     <g id="line2d_24">
      <g>
       <use style="stroke:#000000;stroke-width:0.8;" x="50.14375" xlink:href="#m0281263962" y="255.619219"/>
      </g>
     </g>
     <g id="text_13">
      <!-- 0.86 -->
      <defs>
       <path d="M 33.015625 40.375 
Q 26.375 40.375 22.484375 35.828125 
Q 18.609375 31.296875 18.609375 23.390625 
Q 18.609375 15.53125 22.484375 10.953125 
Q 26.375 6.390625 33.015625 6.390625 
Q 39.65625 6.390625 43.53125 10.953125 
Q 47.40625 15.53125 47.40625 23.390625 
Q 47.40625 31.296875 43.53125 35.828125 
Q 39.65625 40.375 33.015625 40.375 
z
M 52.59375 71.296875 
L 52.59375 62.3125 
Q 48.875 64.0625 45.09375 64.984375 
Q 41.3125 65.921875 37.59375 65.921875 
Q 27.828125 65.921875 22.671875 59.328125 
Q 17.53125 52.734375 16.796875 39.40625 
Q 19.671875 43.65625 24.015625 45.921875 
Q 28.375 48.1875 33.59375 48.1875 
Q 44.578125 48.1875 50.953125 41.515625 
Q 57.328125 34.859375 57.328125 23.390625 
Q 57.328125 12.15625 50.6875 5.359375 
Q 44.046875 -1.421875 33.015625 -1.421875 
Q 20.359375 -1.421875 13.671875 8.265625 
Q 6.984375 17.96875 6.984375 36.375 
Q 6.984375 53.65625 15.1875 63.9375 
Q 23.390625 74.21875 37.203125 74.21875 
Q 40.921875 74.21875 44.703125 73.484375 
Q 48.484375 72.75 52.59375 71.296875 
z
" id="DejaVuSans-54"/>
      </defs>
      <g transform="translate(20.878125 259.418437)scale(0.1 -0.1)">
       <use xlink:href="#DejaVuSans-48"/>
       <use x="63.623047" xlink:href="#DejaVuSans-46"/>
       <use x="95.410156" xlink:href="#DejaVuSans-56"/>
       <use x="159.033203" xlink:href="#DejaVuSans-54"/>
      </g>
     </g>
    </g>
    <g id="ytick_4">
     <g id="line2d_25">
      <path clip-path="url(#pff6c773939)" d="M 50.14375 214.849219 
L 719.74375 214.849219 
" style="fill:none;stroke:#b0b0b0;stroke-linecap:square;stroke-width:0.8;"/>
     </g>
     <g id="line2d_26">
      <g>
       <use style="stroke:#000000;stroke-width:0.8;" x="50.14375" xlink:href="#m0281263962" y="214.849219"/>
      </g>
     </g>
     <g id="text_14">
      <!-- 0.88 -->
      <g transform="translate(20.878125 218.648437)scale(0.1 -0.1)">
       <use xlink:href="#DejaVuSans-48"/>
       <use x="63.623047" xlink:href="#DejaVuSans-46"/>
       <use x="95.410156" xlink:href="#DejaVuSans-56"/>
       <use x="159.033203" xlink:href="#DejaVuSans-56"/>
      </g>
     </g>
    </g>
    <g id="ytick_5">
     <g id="line2d_27">
      <path clip-path="url(#pff6c773939)" d="M 50.14375 174.079219 
L 719.74375 174.079219 
" style="fill:none;stroke:#b0b0b0;stroke-linecap:square;stroke-width:0.8;"/>
     </g>
     <g id="line2d_28">
      <g>
       <use style="stroke:#000000;stroke-width:0.8;" x="50.14375" xlink:href="#m0281263962" y="174.079219"/>
      </g>
     </g>
     <g id="text_15">
      <!-- 0.90 -->
      <defs>
       <path d="M 10.984375 1.515625 
L 10.984375 10.5 
Q 14.703125 8.734375 18.5 7.8125 
Q 22.3125 6.890625 25.984375 6.890625 
Q 35.75 6.890625 40.890625 13.453125 
Q 46.046875 20.015625 46.78125 33.40625 
Q 43.953125 29.203125 39.59375 26.953125 
Q 35.25 24.703125 29.984375 24.703125 
Q 19.046875 24.703125 12.671875 31.3125 
Q 6.296875 37.9375 6.296875 49.421875 
Q 6.296875 60.640625 12.9375 67.421875 
Q 19.578125 74.21875 30.609375 74.21875 
Q 43.265625 74.21875 49.921875 64.515625 
Q 56.59375 54.828125 56.59375 36.375 
Q 56.59375 19.140625 48.40625 8.859375 
Q 40.234375 -1.421875 26.421875 -1.421875 
Q 22.703125 -1.421875 18.890625 -0.6875 
Q 15.09375 0.046875 10.984375 1.515625 
z
M 30.609375 32.421875 
Q 37.25 32.421875 41.125 36.953125 
Q 45.015625 41.5 45.015625 49.421875 
Q 45.015625 57.28125 41.125 61.84375 
Q 37.25 66.40625 30.609375 66.40625 
Q 23.96875 66.40625 20.09375 61.84375 
Q 16.21875 57.28125 16.21875 49.421875 
Q 16.21875 41.5 20.09375 36.953125 
Q 23.96875 32.421875 30.609375 32.421875 
z
" id="DejaVuSans-57"/>
      </defs>
      <g transform="translate(20.878125 177.878437)scale(0.1 -0.1)">
       <use xlink:href="#DejaVuSans-48"/>
       <use x="63.623047" xlink:href="#DejaVuSans-46"/>
       <use x="95.410156" xlink:href="#DejaVuSans-57"/>
       <use x="159.033203" xlink:href="#DejaVuSans-48"/>
      </g>
     </g>
    </g>
    <g id="ytick_6">
     <g id="line2d_29">
      <path clip-path="url(#pff6c773939)" d="M 50.14375 133.309219 
L 719.74375 133.309219 
" style="fill:none;stroke:#b0b0b0;stroke-linecap:square;stroke-width:0.8;"/>
     </g>
     <g id="line2d_30">
      <g>
       <use style="stroke:#000000;stroke-width:0.8;" x="50.14375" xlink:href="#m0281263962" y="133.309219"/>
      </g>
     </g>
     <g id="text_16">
      <!-- 0.92 -->
      <g transform="translate(20.878125 137.108437)scale(0.1 -0.1)">
       <use xlink:href="#DejaVuSans-48"/>
       <use x="63.623047" xlink:href="#DejaVuSans-46"/>
       <use x="95.410156" xlink:href="#DejaVuSans-57"/>
       <use x="159.033203" xlink:href="#DejaVuSans-50"/>
      </g>
     </g>
    </g>
    <g id="ytick_7">
     <g id="line2d_31">
      <path clip-path="url(#pff6c773939)" d="M 50.14375 92.539219 
L 719.74375 92.539219 
" style="fill:none;stroke:#b0b0b0;stroke-linecap:square;stroke-width:0.8;"/>
     </g>
     <g id="line2d_32">
      <g>
       <use style="stroke:#000000;stroke-width:0.8;" x="50.14375" xlink:href="#m0281263962" y="92.539219"/>
      </g>
     </g>
     <g id="text_17">
      <!-- 0.94 -->
      <g transform="translate(20.878125 96.338437)scale(0.1 -0.1)">
       <use xlink:href="#DejaVuSans-48"/>
       <use x="63.623047" xlink:href="#DejaVuSans-46"/>
       <use x="95.410156" xlink:href="#DejaVuSans-57"/>
       <use x="159.033203" xlink:href="#DejaVuSans-52"/>
      </g>
     </g>
    </g>
    <g id="ytick_8">
     <g id="line2d_33">
      <path clip-path="url(#pff6c773939)" d="M 50.14375 51.769219 
L 719.74375 51.769219 
" style="fill:none;stroke:#b0b0b0;stroke-linecap:square;stroke-width:0.8;"/>
     </g>
     <g id="line2d_34">
      <g>
       <use style="stroke:#000000;stroke-width:0.8;" x="50.14375" xlink:href="#m0281263962" y="51.769219"/>
      </g>
     </g>
     <g id="text_18">
      <!-- 0.96 -->
      <g transform="translate(20.878125 55.568437)scale(0.1 -0.1)">
       <use xlink:href="#DejaVuSans-48"/>
       <use x="63.623047" xlink:href="#DejaVuSans-46"/>
       <use x="95.410156" xlink:href="#DejaVuSans-57"/>
       <use x="159.033203" xlink:href="#DejaVuSans-54"/>
      </g>
     </g>
    </g>
    <g id="ytick_9">
     <g id="line2d_35">
      <path clip-path="url(#pff6c773939)" d="M 50.14375 10.999219 
L 719.74375 10.999219 
" style="fill:none;stroke:#b0b0b0;stroke-linecap:square;stroke-width:0.8;"/>
     </g>
     <g id="line2d_36">
      <g>
       <use style="stroke:#000000;stroke-width:0.8;" x="50.14375" xlink:href="#m0281263962" y="10.999219"/>
      </g>
     </g>
     <g id="text_19">
      <!-- 0.98 -->
      <g transform="translate(20.878125 14.798437)scale(0.1 -0.1)">
       <use xlink:href="#DejaVuSans-48"/>
       <use x="63.623047" xlink:href="#DejaVuSans-46"/>
       <use x="95.410156" xlink:href="#DejaVuSans-57"/>
       <use x="159.033203" xlink:href="#DejaVuSans-56"/>
      </g>
     </g>
    </g>
    <g id="text_20">
     <!-- Accuracy -->
     <defs>
      <path d="M 34.1875 63.1875 
L 20.796875 26.90625 
L 47.609375 26.90625 
z
M 28.609375 72.90625 
L 39.796875 72.90625 
L 67.578125 0 
L 57.328125 0 
L 50.6875 18.703125 
L 17.828125 18.703125 
L 11.1875 0 
L 0.78125 0 
z
" id="DejaVuSans-65"/>
      <path d="M 8.5 21.578125 
L 8.5 54.6875 
L 17.484375 54.6875 
L 17.484375 21.921875 
Q 17.484375 14.15625 20.5 10.265625 
Q 23.53125 6.390625 29.59375 6.390625 
Q 36.859375 6.390625 41.078125 11.03125 
Q 45.3125 15.671875 45.3125 23.6875 
L 45.3125 54.6875 
L 54.296875 54.6875 
L 54.296875 0 
L 45.3125 0 
L 45.3125 8.40625 
Q 42.046875 3.421875 37.71875 1 
Q 33.40625 -1.421875 27.6875 -1.421875 
Q 18.265625 -1.421875 13.375 4.4375 
Q 8.5 10.296875 8.5 21.578125 
z
M 31.109375 56 
z
" id="DejaVuSans-117"/>
      <path d="M 41.109375 46.296875 
Q 39.59375 47.171875 37.8125 47.578125 
Q 36.03125 48 33.890625 48 
Q 26.265625 48 22.1875 43.046875 
Q 18.109375 38.09375 18.109375 28.8125 
L 18.109375 0 
L 9.078125 0 
L 9.078125 54.6875 
L 18.109375 54.6875 
L 18.109375 46.1875 
Q 20.953125 51.171875 25.484375 53.578125 
Q 30.03125 56 36.53125 56 
Q 37.453125 56 38.578125 55.875 
Q 39.703125 55.765625 41.0625 55.515625 
z
" id="DejaVuSans-114"/>
      <path d="M 34.28125 27.484375 
Q 23.390625 27.484375 19.1875 25 
Q 14.984375 22.515625 14.984375 16.5 
Q 14.984375 11.71875 18.140625 8.90625 
Q 21.296875 6.109375 26.703125 6.109375 
Q 34.1875 6.109375 38.703125 11.40625 
Q 43.21875 16.703125 43.21875 25.484375 
L 43.21875 27.484375 
z
M 52.203125 31.203125 
L 52.203125 0 
L 43.21875 0 
L 43.21875 8.296875 
Q 40.140625 3.328125 35.546875 0.953125 
Q 30.953125 -1.421875 24.3125 -1.421875 
Q 15.921875 -1.421875 10.953125 3.296875 
Q 6 8.015625 6 15.921875 
Q 6 25.140625 12.171875 29.828125 
Q 18.359375 34.515625 30.609375 34.515625 
L 43.21875 34.515625 
L 43.21875 35.40625 
Q 43.21875 41.609375 39.140625 45 
Q 35.0625 48.390625 27.6875 48.390625 
Q 23 48.390625 18.546875 47.265625 
Q 14.109375 46.140625 10.015625 43.890625 
L 10.015625 52.203125 
Q 14.9375 54.109375 19.578125 55.046875 
Q 24.21875 56 28.609375 56 
Q 40.484375 56 46.34375 49.84375 
Q 52.203125 43.703125 52.203125 31.203125 
z
" id="DejaVuSans-97"/>
      <path d="M 32.171875 -5.078125 
Q 28.375 -14.84375 24.75 -17.8125 
Q 21.140625 -20.796875 15.09375 -20.796875 
L 7.90625 -20.796875 
L 7.90625 -13.28125 
L 13.1875 -13.28125 
Q 16.890625 -13.28125 18.9375 -11.515625 
Q 21 -9.765625 23.484375 -3.21875 
L 25.09375 0.875 
L 2.984375 54.6875 
L 12.5 54.6875 
L 29.59375 11.921875 
L 46.6875 54.6875 
L 56.203125 54.6875 
z
" id="DejaVuSans-121"/>
     </defs>
     <g transform="translate(14.798438 196.994062)rotate(-90)scale(0.1 -0.1)">
      <use xlink:href="#DejaVuSans-65"/>
      <use x="68.392578" xlink:href="#DejaVuSans-99"/>
      <use x="123.373047" xlink:href="#DejaVuSans-99"/>
      <use x="178.353516" xlink:href="#DejaVuSans-117"/>
      <use x="241.732422" xlink:href="#DejaVuSans-114"/>
      <use x="282.845703" xlink:href="#DejaVuSans-97"/>
      <use x="344.125" xlink:href="#DejaVuSans-99"/>
      <use x="399.105469" xlink:href="#DejaVuSans-121"/>
     </g>
    </g>
   </g>
   <g id="line2d_37">
    <path clip-path="url(#pff6c773939)" d="M 111.926337 375.715469 
L 112.328296 373.801215 
L 113.922771 373.648363 
L 115.517247 367.278026 
L 117.111722 366.615586 
L 118.706198 357.442272 
L 120.300673 358.971158 
L 121.895149 356.881652 
L 123.489625 354.996152 
L 125.0841 355.047062 
L 126.678576 346.4854 
L 128.273051 343.886306 
L 129.867527 339.248739 
L 131.462002 338.586177 
L 133.056478 338.688119 
L 134.650953 332.266872 
L 136.245429 324.316618 
L 137.839904 329.667778 
L 139.43438 322.125292 
L 141.028855 322.787854 
L 142.623331 314.735779 
L 144.217806 317.487725 
L 145.812282 311.77995 
L 147.406758 312.697184 
L 149.001233 299.85469 
L 150.595709 302.046016 
L 152.190184 307.600939 
L 153.78466 308.569205 
L 155.379135 299.24316 
L 156.973611 293.178527 
L 158.568086 293.229559 
L 160.162562 288.999638 
L 161.757037 289.050669 
L 163.351513 294.911297 
L 164.945988 294.911297 
L 166.540464 285.381368 
L 168.134939 282.374507 
L 169.729415 286.808312 
L 171.32389 280.539917 
L 172.918366 277.940823 
L 174.512842 274.424374 
L 177.701793 277.991734 
L 179.296268 268.716599 
L 180.890744 264.894446 
L 182.485219 268.359863 
L 184.079695 259.696259 
L 185.67417 261.836674 
L 187.268646 262.142379 
L 188.863121 260.460641 
L 190.457597 253.733568 
L 192.052072 256.026957 
L 193.646548 253.325922 
L 195.241023 251.593152 
L 196.835499 250.26815 
L 198.429975 248.739265 
L 200.02445 248.331619 
L 201.618926 248.790296 
L 203.213401 241.961282 
L 204.807877 242.878637 
L 206.402352 240.483306 
L 207.996828 241.553514 
L 209.591303 237.527477 
L 211.185779 242.827606 
L 212.780254 235.285241 
L 214.37473 235.896771 
L 215.969205 233.450529 
L 217.563681 229.067756 
L 219.158156 233.144704 
L 220.752632 226.111927 
L 223.941583 231.310114 
L 225.536059 228.558168 
L 227.130534 223.818659 
L 228.72501 223.512833 
L 230.319485 219.792621 
L 231.913961 221.729153 
L 233.508436 219.028118 
L 235.102912 214.084725 
L 236.697387 212.301045 
L 238.291863 208.427981 
L 239.886338 210.874101 
L 241.480814 213.575137 
L 243.075289 208.580834 
L 244.669765 214.135757 
L 246.264241 205.37021 
L 247.858716 207.867362 
L 249.453192 208.580834 
L 251.047667 201.955703 
L 252.642143 201.089379 
L 254.236618 205.675914 
L 255.831094 204.605706 
L 257.425569 203.943266 
L 259.020045 197.470988 
L 260.61452 201.293141 
L 262.208996 196.553632 
L 263.803471 195.636398 
L 265.397947 195.78925 
L 266.992422 200.070081 
L 268.586898 192.935362 
L 270.181374 189.062177 
L 271.775849 192.272801 
L 273.370325 190.591063 
L 274.9648 186.921761 
L 276.559276 188.960235 
L 278.153751 187.431349 
L 279.748227 190.387179 
L 281.342702 181.876426 
L 282.937178 186.972672 
L 284.531653 183.81308 
L 286.126129 181.825516 
L 287.720604 184.883288 
L 289.31508 182.589898 
L 290.909555 179.888984 
L 292.504031 179.990926 
L 294.098507 178.411009 
L 295.692982 172.754144 
L 297.287458 177.340801 
L 298.881933 179.837953 
L 300.476409 169.849346 
L 302.070884 173.773442 
L 303.66536 175.251296 
L 305.259835 177.697537 
L 308.448786 165.262689 
L 310.043262 171.785878 
L 311.637737 168.983022 
L 313.232213 164.753101 
L 314.826688 171.734968 
L 316.421164 170.409966 
L 318.01564 169.951288 
L 319.610115 167.250253 
L 321.204591 161.236652 
L 322.799066 161.032768 
L 324.393542 163.224215 
L 325.988017 161.74624 
L 327.582493 159.758798 
L 329.176968 161.185742 
L 330.771444 158.484706 
L 332.365919 158.994294 
L 333.960395 157.363467 
L 335.55487 162.102976 
L 337.149346 157.669292 
L 338.743821 156.242349 
L 340.338297 157.465409 
L 341.932773 154.305817 
L 343.527248 152.420195 
L 345.121724 154.713463 
L 346.716199 153.796107 
L 348.310675 152.420195 
L 349.90515 150.3816 
L 351.499626 152.725899 
L 353.094101 152.929783 
L 354.688577 148.241184 
L 356.283052 149.515276 
L 357.877528 147.476802 
L 359.472003 148.903746 
L 362.660954 147.578744 
L 364.25543 144.826798 
L 365.849905 142.686261 
L 367.444381 143.297913 
L 369.038857 142.788203 
L 370.633332 143.042997 
L 372.227808 145.285355 
L 373.822283 142.941177 
L 375.416759 142.788203 
L 377.011234 137.029518 
L 378.60571 135.908278 
L 380.200185 139.373696 
L 381.794661 141.769027 
L 383.389136 136.723692 
L 384.983612 139.883405 
L 386.578087 136.876544 
L 388.172563 136.62175 
L 389.767038 138.150636 
L 391.361514 135.194806 
L 392.95599 131.474595 
L 394.550465 133.411127 
L 396.144941 134.277451 
L 397.739416 136.876544 
L 399.333892 130.710091 
L 400.928367 131.729389 
L 402.522843 133.207243 
L 404.117318 136.519808 
L 405.711794 130.761123 
L 407.306269 132.290009 
L 408.900745 127.652441 
L 410.49522 132.391951 
L 412.089696 127.295584 
L 413.684171 130.761123 
L 415.278647 128.467734 
L 416.873123 129.792857 
L 418.467598 124.441696 
L 420.062074 125.155168 
L 421.656549 127.397526 
L 423.251025 130.761123 
L 424.8455 129.385089 
L 426.439976 121.384046 
L 428.034451 123.98314 
L 429.628927 123.830166 
L 431.223402 123.065784 
L 432.817878 127.04079 
L 434.412353 120.160865 
L 436.006829 123.830166 
L 437.601304 122.505164 
L 439.19578 123.779256 
L 440.790256 123.830166 
L 442.384731 122.759959 
L 443.979207 120.415659 
L 445.573682 118.988715 
L 447.168158 123.524462 
L 448.762633 117.714745 
L 450.357109 119.906071 
L 451.951584 124.237934 
L 453.54606 118.733921 
L 455.140535 115.115652 
L 456.735011 121.282105 
L 458.329486 114.249206 
L 459.923962 114.504 
L 461.518437 115.880034 
L 463.112913 117.052183 
L 464.707389 117.306977 
L 466.301864 119.294541 
L 467.89634 109.560729 
L 469.490815 117.663713 
L 471.085291 113.331972 
L 472.679766 116.134828 
L 474.274242 115.01371 
L 475.868717 114.198296 
L 477.463193 115.268504 
L 479.057668 118.683011 
L 480.652144 111.293377 
L 482.246619 113.077056 
L 483.841095 115.981976 
L 485.43557 111.905028 
L 487.030046 113.637676 
L 488.624522 112.567468 
L 490.218997 112.05788 
L 491.813473 114.351148 
L 493.407948 112.363584 
L 495.002424 109.407755 
L 496.596899 107.624075 
L 498.191375 108.592463 
L 499.78585 114.860736 
L 501.380326 108.949199 
L 502.974801 108.796225 
L 504.569277 112.05788 
L 506.163752 107.420313 
L 509.352703 109.866433 
L 510.947179 109.458787 
L 512.541655 110.579905 
L 514.13613 109.000109 
L 515.730606 106.910603 
L 517.325081 106.961635 
L 518.919557 107.726017 
L 520.514032 109.866433 
L 522.108508 107.471223 
L 523.702983 109.356845 
L 525.297459 108.541431 
L 526.891934 111.242466 
L 528.48641 102.425888 
L 531.675361 107.471223 
L 533.269836 105.432749 
L 534.864312 103.903864 
L 536.458788 107.878991 
L 538.053263 108.082753 
L 539.647739 106.09519 
L 541.242214 104.87213 
L 542.83669 104.515394 
L 544.431165 103.547128 
L 546.025641 106.350105 
L 547.620116 103.954774 
L 549.214592 105.840395 
L 550.809067 106.808661 
L 552.403543 105.891427 
L 553.998018 104.31151 
L 555.592494 102.120184 
L 557.186969 103.292334 
L 558.781445 103.03754 
L 560.37592 107.063577 
L 561.970396 100.08171 
L 563.564872 104.158658 
L 565.159347 103.751012 
L 566.753823 101.967332 
L 568.348298 102.324068 
L 569.942774 98.603735 
L 571.537249 101.25386 
L 573.131725 102.222126 
L 574.7262 102.629772 
L 576.320676 99.215265 
L 577.915151 102.986508 
L 579.509627 102.120184 
L 581.104102 99.062413 
L 582.698578 98.246999 
L 584.293053 105.534691 
L 585.887529 99.113323 
L 587.482005 98.756587 
L 589.07648 102.273036 
L 590.670956 95.902699 
L 592.265431 99.928737 
L 593.859907 101.049976 
L 595.454382 99.317207 
L 597.048858 97.176791 
L 598.643333 97.227823 
L 600.237809 99.877826 
L 601.832284 100.08171 
L 603.42676 97.227823 
L 605.021235 98.756587 
L 606.615711 98.858529 
L 608.210186 98.043115 
L 609.804662 96.820055 
L 611.399138 99.52109 
L 612.993613 101.712416 
L 614.588089 99.877826 
L 616.182564 97.431585 
L 617.77704 102.018242 
L 619.371515 98.450883 
L 620.965991 98.90956 
L 622.560466 95.902699 
L 624.154942 97.635469 
L 625.749417 97.482617 
L 627.343893 97.125881 
L 628.938368 101.100886 
L 632.127319 94.730549 
L 633.721795 95.851789 
L 635.316271 96.055673 
L 636.910746 99.877826 
L 638.505222 94.730549 
L 640.099697 93.864225 
L 641.694173 100.74415 
L 643.288648 99.928737 
L 644.883124 96.055673 
L 646.477599 95.647905 
L 648.072075 92.33534 
L 649.66655 93.099843 
L 651.261026 97.074849 
L 652.855501 96.565261 
L 654.449977 96.514351 
L 656.044452 94.271993 
L 657.638928 98.705677 
L 659.233404 93.354637 
L 660.827879 93.303606 
L 662.422355 94.170051 
L 664.01683 96.972907 
L 665.611306 94.985465 
L 667.205781 99.826916 
L 668.800257 92.641166 
L 670.394732 94.017078 
L 671.989208 94.781581 
L 673.583683 97.635469 
L 675.178159 93.201785 
L 676.772634 95.189227 
L 678.36711 96.310467 
L 679.961585 94.475755 
L 681.556061 95.240259 
L 683.150537 97.686379 
L 684.745012 92.845049 
L 686.339488 96.157615 
L 687.933963 96.565261 
L 687.933963 96.565261 
" style="fill:none;stroke:#377eb8;stroke-linecap:square;stroke-width:1.5;"/>
   </g>
   <g id="line2d_38">
    <path clip-path="url(#pff6c773939)" d="M 96.085302 375.715469 
L 96.38354 373.374614 
L 96.779032 375.715469 
M 98.180042 375.715469 
L 99.572492 326.802591 
L 101.166967 333.1626 
L 102.761443 322.288958 
L 104.355918 349.165415 
L 105.950394 353.473828 
L 107.544869 332.957501 
L 109.139345 306.696584 
L 110.73382 308.9534 
L 112.328296 347.729237 
L 113.922771 330.085145 
L 115.517247 280.025469 
L 117.111722 291.10421 
L 118.706198 324.135455 
L 120.300673 315.928949 
L 121.895149 318.801184 
L 123.489625 277.358333 
L 125.0841 293.566125 
L 126.678576 293.976444 
L 128.273051 264.638194 
L 129.867527 291.924848 
L 131.462002 275.101516 
L 133.056478 268.125968 
L 134.650953 284.53898 
L 136.245429 258.483283 
L 137.839904 277.768652 
L 139.43438 261.150419 
L 141.028855 295.617843 
L 142.623331 265.458832 
L 144.217806 257.457425 
L 145.812282 262.381377 
L 147.406758 236.5309 
L 149.001233 231.196629 
L 150.595709 259.303922 
L 152.190184 251.918054 
L 153.78466 239.403135 
L 155.379135 240.018675 
L 156.973611 252.533594 
L 158.568086 229.760451 
L 160.162562 240.839313 
L 161.757037 232.427587 
L 163.351513 234.684403 
L 164.945988 243.096008 
L 166.540464 245.558045 
L 168.134939 232.632807 
L 169.729415 227.708855 
L 171.32389 224.22108 
L 172.918366 224.426179 
L 174.512842 235.71014 
L 176.107317 234.889502 
L 177.701793 246.378684 
L 179.296268 219.912668 
L 180.890744 242.685689 
L 182.485219 237.351539 
L 184.079695 239.197915 
L 185.67417 235.299821 
L 187.268646 205.346031 
L 188.863121 218.476489 
L 190.457597 222.784902 
L 192.052072 227.913953 
L 193.646548 208.423486 
L 195.241023 226.067578 
L 196.835499 204.730613 
L 198.429975 227.913953 
L 200.02445 209.859664 
L 201.618926 219.502348 
L 203.213401 209.654444 
L 204.807877 218.886809 
L 206.402352 212.731899 
L 207.996828 207.808068 
L 209.591303 203.294435 
L 211.185779 230.991408 
L 212.780254 225.041719 
L 214.37473 204.525392 
L 215.969205 192.626013 
L 217.563681 212.11648 
L 219.158156 210.680302 
L 220.752632 202.473796 
L 222.347108 201.858256 
L 223.941583 197.755064 
L 225.536059 206.37189 
L 227.130534 188.522699 
L 228.72501 194.062069 
L 230.319485 192.420792 
L 231.913961 197.755064 
L 233.508436 195.293027 
L 235.102912 201.447937 
L 236.697387 189.548558 
L 238.291863 197.549844 
L 239.886338 193.446651 
L 241.480814 190.984614 
L 243.075289 189.753657 
L 244.669765 188.317479 
L 246.264241 181.54715 
L 247.858716 192.626013 
L 249.453192 190.984614 
L 251.047667 184.829704 
L 252.642143 198.986022 
L 254.236618 182.983328 
L 255.831094 173.135424 
L 257.425569 185.445244 
L 259.020045 175.39224 
L 260.61452 185.650464 
L 262.208996 179.700653 
L 263.803471 181.34193 
L 265.397947 174.161283 
L 266.992422 177.443837 
L 268.586898 181.95747 
L 270.181374 183.393648 
L 271.775849 188.317479 
L 273.370325 176.418099 
L 274.9648 179.495554 
L 276.559276 175.597461 
L 278.153751 173.135424 
L 279.748227 176.418099 
L 281.342702 183.188427 
L 282.937178 174.776822 
L 284.531653 177.033517 
L 286.126129 169.23733 
L 287.720604 175.80256 
L 289.31508 175.187141 
L 290.909555 181.95747 
L 292.504031 177.443837 
L 294.098507 185.445244 
L 295.692982 169.442551 
L 297.287458 175.80256 
L 298.881933 166.365096 
L 300.476409 178.264596 
L 302.070884 172.159989 
L 303.66536 167.185734 
L 305.259835 172.520006 
L 306.854311 168.827011 
L 308.448786 168.416692 
L 310.043262 174.776822 
L 311.637737 167.390954 
L 313.232213 174.571602 
L 314.826688 169.85287 
L 316.421164 168.416692 
L 318.01564 166.775415 
L 319.610115 170.057969 
L 321.204591 176.418099 
L 322.799066 161.851462 
L 324.393542 170.468409 
L 325.988017 172.314785 
L 327.582493 166.365096 
L 329.176968 173.750963 
L 330.771444 168.211593 
L 332.365919 163.90318 
L 333.960395 166.365096 
L 335.55487 172.314785 
L 337.149346 163.08242 
L 338.743821 169.85287 
L 340.338297 159.389547 
L 341.932773 171.494147 
L 343.527248 160.415406 
L 345.121724 169.85287 
L 346.716199 161.236044 
L 348.310675 160.825725 
L 349.90515 167.185734 
L 351.499626 155.696552 
L 353.094101 164.928917 
L 354.688577 162.877321 
L 356.283052 164.518598 
L 357.877528 156.722411 
L 359.472003 162.467002 
L 361.066479 161.441143 
L 362.660954 154.055275 
L 364.25543 168.621912 
L 365.849905 161.646364 
L 367.444381 160.005087 
L 369.038857 161.851462 
L 370.633332 161.441143 
L 372.227808 170.057969 
L 373.822283 157.54305 
L 375.416759 161.851462 
L 377.011234 159.389547 
L 378.60571 156.722411 
L 380.200185 163.90318 
L 381.794661 161.030824 
L 383.389136 166.570194 
L 384.983612 161.030824 
L 386.578087 158.979228 
L 388.172563 156.106993 
L 389.767038 152.824318 
L 391.361514 157.74827 
L 392.95599 154.670815 
L 394.550465 159.389547 
L 396.144941 158.158589 
L 397.739416 163.287641 
L 399.333892 155.286233 
L 400.928367 154.875914 
L 402.522843 162.056683 
L 404.117318 149.952083 
L 405.711794 160.825725 
L 407.306269 156.517312 
L 408.900745 160.005087 
L 410.49522 151.59336 
L 412.089696 156.312092 
L 413.684171 157.337951 
L 415.278647 155.696552 
L 416.873123 151.38814 
L 418.467598 154.465595 
L 420.062074 155.491453 
L 421.656549 151.798459 
L 423.251025 161.646364 
L 424.8455 152.619219 
L 426.439976 148.105586 
L 428.034451 159.799866 
L 429.628927 155.286233 
L 431.223402 152.619219 
L 432.817878 158.568909 
L 434.412353 149.746863 
L 436.006829 153.850177 
L 437.601304 143.591953 
L 439.19578 163.287641 
L 440.790256 150.157182 
L 442.384731 145.43845 
L 443.979207 154.260496 
L 445.573682 146.259088 
L 447.168158 155.901773 
L 448.762633 151.38814 
L 450.357109 147.284947 
L 451.951584 154.670815 
L 455.140535 147.490046 
L 456.735011 157.953369 
L 458.329486 151.183041 
L 459.923962 156.927632 
L 461.518437 151.38814 
L 463.112913 149.541764 
L 464.707389 154.670815 
L 466.301864 151.183041 
L 467.89634 150.362402 
L 469.490815 150.567501 
L 471.085291 147.079727 
L 472.679766 143.181633 
L 474.274242 152.003679 
L 475.868717 152.619219 
L 477.463193 158.363688 
L 479.057668 142.566215 
L 480.652144 151.38814 
L 482.246619 151.183041 
L 483.841095 151.59336 
L 485.43557 148.310685 
L 487.030046 149.541764 
L 488.624522 155.081134 
L 490.218997 153.850177 
L 491.813473 153.439857 
L 493.407948 146.259088 
L 495.002424 144.207492 
L 496.596899 151.59336 
L 498.191375 152.619219 
L 499.78585 150.772721 
L 501.380326 149.541764 
L 502.974801 145.848769 
L 504.569277 160.620505 
L 506.163752 148.310685 
L 507.758228 149.336543 
L 509.352703 156.106993 
L 510.947179 136.821624 
L 512.541655 153.644956 
L 514.13613 150.97782 
L 515.730606 145.64367 
L 517.325081 148.515905 
L 518.919557 154.875914 
L 522.108508 143.591953 
L 523.702983 151.183041 
L 525.297459 147.079727 
L 526.891934 149.541764 
L 528.48641 154.055275 
L 530.080885 146.669408 
L 531.675361 145.848769 
L 533.269836 146.669408 
L 534.864312 150.157182 
L 536.458788 150.97782 
L 538.053263 147.284947 
L 539.647739 149.336543 
L 542.83669 150.567501 
L 544.431165 145.848769 
L 546.025641 150.772721 
L 547.620116 147.695266 
L 549.214592 150.362402 
L 550.809067 151.59336 
L 552.403543 148.679692 
L 553.998018 148.515905 
L 555.592494 148.105586 
L 557.186969 146.053989 
L 558.781445 148.926224 
L 560.37592 145.028131 
L 561.970396 146.053989 
L 563.564872 146.464309 
L 565.159347 147.900365 
L 566.753823 138.462901 
L 568.348298 155.491453 
L 569.942774 148.515905 
L 571.537249 153.029538 
L 573.131725 148.926224 
L 574.7262 141.540356 
L 576.320676 152.824318 
L 577.915151 145.233351 
L 579.509627 141.540356 
L 581.104102 147.079727 
L 582.698578 147.079727 
L 584.293053 153.439857 
L 585.887529 140.514497 
L 587.482005 149.746863 
L 589.07648 139.078441 
L 590.670956 149.541764 
L 592.265431 142.976534 
L 593.859907 145.64367 
L 595.454382 145.233351 
L 597.048858 146.259088 
L 598.643333 144.617811 
L 600.237809 147.284947 
L 601.832284 139.693859 
L 603.42676 145.64367 
L 605.021235 143.386854 
L 606.615711 144.617811 
L 608.210186 143.386854 
L 609.804662 144.002272 
L 611.399138 152.619219 
L 612.993613 144.82291 
L 614.588089 136.000986 
L 616.182564 145.233351 
L 617.77704 148.515905 
L 619.371515 149.746863 
L 620.965991 138.462901 
L 622.560466 143.591953 
L 624.154942 141.540356 
L 625.749417 146.259088 
L 627.343893 144.412591 
L 628.938368 137.642263 
L 630.532844 149.131445 
L 632.127319 140.104178 
L 633.721795 143.591953 
L 635.316271 145.43845 
L 636.910746 143.797173 
L 638.505222 134.770028 
L 640.099697 147.079727 
L 641.694173 147.900365 
L 643.288648 142.566215 
L 644.883124 143.181633 
L 646.477599 139.078441 
L 648.072075 145.64367 
L 649.66655 142.976534 
L 651.261026 152.003679 
L 652.855501 137.231944 
L 654.449977 143.797173 
L 656.044452 145.64367 
L 657.638928 144.412591 
L 659.233404 140.514497 
L 660.827879 144.412591 
L 664.01683 143.591953 
L 665.611306 145.848769 
L 667.205781 142.155896 
L 668.800257 137.026723 
L 670.394732 149.131445 
L 671.989208 136.616404 
L 673.583683 145.233351 
L 675.178159 142.566215 
L 676.772634 143.797173 
L 678.36711 134.975127 
L 679.961585 146.259088 
L 681.556061 140.104178 
L 683.150537 144.412591 
L 684.745012 138.052582 
L 686.339488 140.514497 
L 687.933963 142.771314 
L 687.933963 142.771314 
" style="fill:none;stroke:#4daf4a;stroke-linecap:square;stroke-width:1.5;"/>
   </g>
   <g id="patch_3">
    <path d="M 50.14375 337.159219 
L 50.14375 10.999219 
" style="fill:none;stroke:#000000;stroke-linecap:square;stroke-linejoin:miter;stroke-width:0.8;"/>
   </g>
   <g id="patch_4">
    <path d="M 719.74375 337.159219 
L 719.74375 10.999219 
" style="fill:none;stroke:#000000;stroke-linecap:square;stroke-linejoin:miter;stroke-width:0.8;"/>
   </g>
   <g id="patch_5">
    <path d="M 50.14375 337.159219 
L 719.74375 337.159219 
" style="fill:none;stroke:#000000;stroke-linecap:square;stroke-linejoin:miter;stroke-width:0.8;"/>
   </g>
   <g id="patch_6">
    <path d="M 50.14375 10.999219 
L 719.74375 10.999219 
" style="fill:none;stroke:#000000;stroke-linecap:square;stroke-linejoin:miter;stroke-width:0.8;"/>
   </g>
   <g id="legend_1">
    <g id="patch_7">
     <path d="M 57.14375 48.355469 
L 114.584375 48.355469 
Q 116.584375 48.355469 116.584375 46.355469 
L 116.584375 17.999219 
Q 116.584375 15.999219 114.584375 15.999219 
L 57.14375 15.999219 
Q 55.14375 15.999219 55.14375 17.999219 
L 55.14375 46.355469 
Q 55.14375 48.355469 57.14375 48.355469 
z
" style="fill:#ffffff;opacity:0.8;stroke:#cccccc;stroke-linejoin:miter;"/>
    </g>
    <g id="line2d_39">
     <path d="M 59.14375 24.097656 
L 79.14375 24.097656 
" style="fill:none;stroke:#377eb8;stroke-linecap:square;stroke-width:1.5;"/>
    </g>
    <g id="line2d_40"/>
    <g id="text_21">
     <!-- Train -->
     <defs>
      <path d="M -0.296875 72.90625 
L 61.375 72.90625 
L 61.375 64.59375 
L 35.5 64.59375 
L 35.5 0 
L 25.59375 0 
L 25.59375 64.59375 
L -0.296875 64.59375 
z
" id="DejaVuSans-84"/>
      <path d="M 9.421875 54.6875 
L 18.40625 54.6875 
L 18.40625 0 
L 9.421875 0 
z
M 9.421875 75.984375 
L 18.40625 75.984375 
L 18.40625 64.59375 
L 9.421875 64.59375 
z
" id="DejaVuSans-105"/>
      <path d="M 54.890625 33.015625 
L 54.890625 0 
L 45.90625 0 
L 45.90625 32.71875 
Q 45.90625 40.484375 42.875 44.328125 
Q 39.84375 48.1875 33.796875 48.1875 
Q 26.515625 48.1875 22.3125 43.546875 
Q 18.109375 38.921875 18.109375 30.90625 
L 18.109375 0 
L 9.078125 0 
L 9.078125 54.6875 
L 18.109375 54.6875 
L 18.109375 46.1875 
Q 21.34375 51.125 25.703125 53.5625 
Q 30.078125 56 35.796875 56 
Q 45.21875 56 50.046875 50.171875 
Q 54.890625 44.34375 54.890625 33.015625 
z
" id="DejaVuSans-110"/>
     </defs>
     <g transform="translate(87.14375 27.597656)scale(0.1 -0.1)">
      <use xlink:href="#DejaVuSans-84"/>
      <use x="60.865234" xlink:href="#DejaVuSans-114"/>
      <use x="101.978516" xlink:href="#DejaVuSans-97"/>
      <use x="163.257812" xlink:href="#DejaVuSans-105"/>
      <use x="191.041016" xlink:href="#DejaVuSans-110"/>
     </g>
    </g>
    <g id="line2d_41">
     <path d="M 59.14375 38.775781 
L 79.14375 38.775781 
" style="fill:none;stroke:#4daf4a;stroke-linecap:square;stroke-width:1.5;"/>
    </g>
    <g id="line2d_42"/>
    <g id="text_22">
     <!-- Test -->
     <defs>
      <path d="M 56.203125 29.59375 
L 56.203125 25.203125 
L 14.890625 25.203125 
Q 15.484375 15.921875 20.484375 11.0625 
Q 25.484375 6.203125 34.421875 6.203125 
Q 39.59375 6.203125 44.453125 7.46875 
Q 49.3125 8.734375 54.109375 11.28125 
L 54.109375 2.78125 
Q 49.265625 0.734375 44.1875 -0.34375 
Q 39.109375 -1.421875 33.890625 -1.421875 
Q 20.796875 -1.421875 13.15625 6.1875 
Q 5.515625 13.8125 5.515625 26.8125 
Q 5.515625 40.234375 12.765625 48.109375 
Q 20.015625 56 32.328125 56 
Q 43.359375 56 49.78125 48.890625 
Q 56.203125 41.796875 56.203125 29.59375 
z
M 47.21875 32.234375 
Q 47.125 39.59375 43.09375 43.984375 
Q 39.0625 48.390625 32.421875 48.390625 
Q 24.90625 48.390625 20.390625 44.140625 
Q 15.875 39.890625 15.1875 32.171875 
z
" id="DejaVuSans-101"/>
      <path d="M 44.28125 53.078125 
L 44.28125 44.578125 
Q 40.484375 46.53125 36.375 47.5 
Q 32.28125 48.484375 27.875 48.484375 
Q 21.1875 48.484375 17.84375 46.4375 
Q 14.5 44.390625 14.5 40.28125 
Q 14.5 37.15625 16.890625 35.375 
Q 19.28125 33.59375 26.515625 31.984375 
L 29.59375 31.296875 
Q 39.15625 29.25 43.1875 25.515625 
Q 47.21875 21.78125 47.21875 15.09375 
Q 47.21875 7.46875 41.1875 3.015625 
Q 35.15625 -1.421875 24.609375 -1.421875 
Q 20.21875 -1.421875 15.453125 -0.5625 
Q 10.6875 0.296875 5.421875 2 
L 5.421875 11.28125 
Q 10.40625 8.6875 15.234375 7.390625 
Q 20.0625 6.109375 24.8125 6.109375 
Q 31.15625 6.109375 34.5625 8.28125 
Q 37.984375 10.453125 37.984375 14.40625 
Q 37.984375 18.0625 35.515625 20.015625 
Q 33.0625 21.96875 24.703125 23.78125 
L 21.578125 24.515625 
Q 13.234375 26.265625 9.515625 29.90625 
Q 5.8125 33.546875 5.8125 39.890625 
Q 5.8125 47.609375 11.28125 51.796875 
Q 16.75 56 26.8125 56 
Q 31.78125 56 36.171875 55.265625 
Q 40.578125 54.546875 44.28125 53.078125 
z
" id="DejaVuSans-115"/>
      <path d="M 18.3125 70.21875 
L 18.3125 54.6875 
L 36.8125 54.6875 
L 36.8125 47.703125 
L 18.3125 47.703125 
L 18.3125 18.015625 
Q 18.3125 11.328125 20.140625 9.421875 
Q 21.96875 7.515625 27.59375 7.515625 
L 36.8125 7.515625 
L 36.8125 0 
L 27.59375 0 
Q 17.1875 0 13.234375 3.875 
Q 9.28125 7.765625 9.28125 18.015625 
L 9.28125 47.703125 
L 2.6875 47.703125 
L 2.6875 54.6875 
L 9.28125 54.6875 
L 9.28125 70.21875 
z
" id="DejaVuSans-116"/>
     </defs>
     <g transform="translate(87.14375 42.275781)scale(0.1 -0.1)">
      <use xlink:href="#DejaVuSans-84"/>
      <use x="60.818359" xlink:href="#DejaVuSans-101"/>
      <use x="122.341797" xlink:href="#DejaVuSans-115"/>
      <use x="174.441406" xlink:href="#DejaVuSans-116"/>
     </g>
    </g>
   </g>
  </g>
 </g>
 <defs>
  <clipPath id="pff6c773939">
   <rect height="326.16" width="669.6" x="50.14375" y="10.999219"/>
  </clipPath>
 </defs>
</svg>
