<?xml version="1.0" encoding="utf-8" standalone="no"?>
<!DOCTYPE svg PUBLIC "-//W3C//DTD SVG 1.1//EN"
  "http://www.w3.org/Graphics/SVG/1.1/DTD/svg11.dtd">
<!-- Created with matplotlib (https://matplotlib.org/) -->
<svg height="374.715469pt" version="1.1" viewBox="0 0 726.94375 374.715469" width="726.94375pt" xmlns="http://www.w3.org/2000/svg" xmlns:xlink="http://www.w3.org/1999/xlink">
 <defs>
  <style type="text/css">
*{stroke-linecap:butt;stroke-linejoin:round;white-space:pre;}
  </style>
 </defs>
 <g id="figure_1">
  <g id="patch_1">
   <path d="M 0 374.715469 
L 726.94375 374.715469 
L 726.94375 0 
L 0 0 
z
" style="fill:#ffffff;"/>
  </g>
  <g id="axes_1">
   <g id="patch_2">
    <path d="M 50.14375 337.159219 
L 719.74375 337.159219 
L 719.74375 10.999219 
L 50.14375 10.999219 
z
" style="fill:#ffffff;"/>
   </g>
   <g id="matplotlib.axis_1">
    <g id="xtick_1">
     <g id="line2d_1">
      <path clip-path="url(#p7ae5a3adc4)" d="M 50.14375 337.159219 
L 50.14375 10.999219 
" style="fill:none;stroke:#b0b0b0;stroke-linecap:square;stroke-width:0.8;"/>
     </g>
     <g id="line2d_2">
      <defs>
       <path d="M 0 0 
L 0 3.5 
" id="m54b27a88bf" style="stroke:#000000;stroke-width:0.8;"/>
      </defs>
      <g>
       <use style="stroke:#000000;stroke-width:0.8;" x="50.14375" xlink:href="#m54b27a88bf" y="337.159219"/>
      </g>
     </g>
     <g id="text_1">
      <!-- 0 -->
      <defs>
       <path d="M 31.78125 66.40625 
Q 24.171875 66.40625 20.328125 58.90625 
Q 16.5 51.421875 16.5 36.375 
Q 16.5 21.390625 20.328125 13.890625 
Q 24.171875 6.390625 31.78125 6.390625 
Q 39.453125 6.390625 43.28125 13.890625 
Q 47.125 21.390625 47.125 36.375 
Q 47.125 51.421875 43.28125 58.90625 
Q 39.453125 66.40625 31.78125 66.40625 
z
M 31.78125 74.21875 
Q 44.046875 74.21875 50.515625 64.515625 
Q 56.984375 54.828125 56.984375 36.375 
Q 56.984375 17.96875 50.515625 8.265625 
Q 44.046875 -1.421875 31.78125 -1.421875 
Q 19.53125 -1.421875 13.0625 8.265625 
Q 6.59375 17.96875 6.59375 36.375 
Q 6.59375 54.828125 13.0625 64.515625 
Q 19.53125 74.21875 31.78125 74.21875 
z
" id="DejaVuSans-48"/>
      </defs>
      <g transform="translate(46.9625 351.757656)scale(0.1 -0.1)">
       <use xlink:href="#DejaVuSans-48"/>
      </g>
     </g>
    </g>
    <g id="xtick_2">
     <g id="line2d_3">
      <path clip-path="url(#p7ae5a3adc4)" d="M 177.692681 337.159219 
L 177.692681 10.999219 
" style="fill:none;stroke:#b0b0b0;stroke-linecap:square;stroke-width:0.8;"/>
     </g>
     <g id="line2d_4">
      <g>
       <use style="stroke:#000000;stroke-width:0.8;" x="177.692681" xlink:href="#m54b27a88bf" y="337.159219"/>
      </g>
     </g>
     <g id="text_2">
      <!-- 200 -->
      <defs>
       <path d="M 19.1875 8.296875 
L 53.609375 8.296875 
L 53.609375 0 
L 7.328125 0 
L 7.328125 8.296875 
Q 12.9375 14.109375 22.625 23.890625 
Q 32.328125 33.6875 34.8125 36.53125 
Q 39.546875 41.84375 41.421875 45.53125 
Q 43.3125 49.21875 43.3125 52.78125 
Q 43.3125 58.59375 39.234375 62.25 
Q 35.15625 65.921875 28.609375 65.921875 
Q 23.96875 65.921875 18.8125 64.3125 
Q 13.671875 62.703125 7.8125 59.421875 
L 7.8125 69.390625 
Q 13.765625 71.78125 18.9375 73 
Q 24.125 74.21875 28.421875 74.21875 
Q 39.75 74.21875 46.484375 68.546875 
Q 53.21875 62.890625 53.21875 53.421875 
Q 53.21875 48.921875 51.53125 44.890625 
Q 49.859375 40.875 45.40625 35.40625 
Q 44.1875 33.984375 37.640625 27.21875 
Q 31.109375 20.453125 19.1875 8.296875 
z
" id="DejaVuSans-50"/>
      </defs>
      <g transform="translate(168.148931 351.757656)scale(0.1 -0.1)">
       <use xlink:href="#DejaVuSans-50"/>
       <use x="63.623047" xlink:href="#DejaVuSans-48"/>
       <use x="127.246094" xlink:href="#DejaVuSans-48"/>
      </g>
     </g>
    </g>
    <g id="xtick_3">
     <g id="line2d_5">
      <path clip-path="url(#p7ae5a3adc4)" d="M 305.241612 337.159219 
L 305.241612 10.999219 
" style="fill:none;stroke:#b0b0b0;stroke-linecap:square;stroke-width:0.8;"/>
     </g>
     <g id="line2d_6">
      <g>
       <use style="stroke:#000000;stroke-width:0.8;" x="305.241612" xlink:href="#m54b27a88bf" y="337.159219"/>
      </g>
     </g>
     <g id="text_3">
      <!-- 400 -->
      <defs>
       <path d="M 37.796875 64.3125 
L 12.890625 25.390625 
L 37.796875 25.390625 
z
M 35.203125 72.90625 
L 47.609375 72.90625 
L 47.609375 25.390625 
L 58.015625 25.390625 
L 58.015625 17.1875 
L 47.609375 17.1875 
L 47.609375 0 
L 37.796875 0 
L 37.796875 17.1875 
L 4.890625 17.1875 
L 4.890625 26.703125 
z
" id="DejaVuSans-52"/>
      </defs>
      <g transform="translate(295.697862 351.757656)scale(0.1 -0.1)">
       <use xlink:href="#DejaVuSans-52"/>
       <use x="63.623047" xlink:href="#DejaVuSans-48"/>
       <use x="127.246094" xlink:href="#DejaVuSans-48"/>
      </g>
     </g>
    </g>
    <g id="xtick_4">
     <g id="line2d_7">
      <path clip-path="url(#p7ae5a3adc4)" d="M 432.790543 337.159219 
L 432.790543 10.999219 
" style="fill:none;stroke:#b0b0b0;stroke-linecap:square;stroke-width:0.8;"/>
     </g>
     <g id="line2d_8">
      <g>
       <use style="stroke:#000000;stroke-width:0.8;" x="432.790543" xlink:href="#m54b27a88bf" y="337.159219"/>
      </g>
     </g>
     <g id="text_4">
      <!-- 600 -->
      <defs>
       <path d="M 33.015625 40.375 
Q 26.375 40.375 22.484375 35.828125 
Q 18.609375 31.296875 18.609375 23.390625 
Q 18.609375 15.53125 22.484375 10.953125 
Q 26.375 6.390625 33.015625 6.390625 
Q 39.65625 6.390625 43.53125 10.953125 
Q 47.40625 15.53125 47.40625 23.390625 
Q 47.40625 31.296875 43.53125 35.828125 
Q 39.65625 40.375 33.015625 40.375 
z
M 52.59375 71.296875 
L 52.59375 62.3125 
Q 48.875 64.0625 45.09375 64.984375 
Q 41.3125 65.921875 37.59375 65.921875 
Q 27.828125 65.921875 22.671875 59.328125 
Q 17.53125 52.734375 16.796875 39.40625 
Q 19.671875 43.65625 24.015625 45.921875 
Q 28.375 48.1875 33.59375 48.1875 
Q 44.578125 48.1875 50.953125 41.515625 
Q 57.328125 34.859375 57.328125 23.390625 
Q 57.328125 12.15625 50.6875 5.359375 
Q 44.046875 -1.421875 33.015625 -1.421875 
Q 20.359375 -1.421875 13.671875 8.265625 
Q 6.984375 17.96875 6.984375 36.375 
Q 6.984375 53.65625 15.1875 63.9375 
Q 23.390625 74.21875 37.203125 74.21875 
Q 40.921875 74.21875 44.703125 73.484375 
Q 48.484375 72.75 52.59375 71.296875 
z
" id="DejaVuSans-54"/>
      </defs>
      <g transform="translate(423.246793 351.757656)scale(0.1 -0.1)">
       <use xlink:href="#DejaVuSans-54"/>
       <use x="63.623047" xlink:href="#DejaVuSans-48"/>
       <use x="127.246094" xlink:href="#DejaVuSans-48"/>
      </g>
     </g>
    </g>
    <g id="xtick_5">
     <g id="line2d_9">
      <path clip-path="url(#p7ae5a3adc4)" d="M 560.339474 337.159219 
L 560.339474 10.999219 
" style="fill:none;stroke:#b0b0b0;stroke-linecap:square;stroke-width:0.8;"/>
     </g>
     <g id="line2d_10">
      <g>
       <use style="stroke:#000000;stroke-width:0.8;" x="560.339474" xlink:href="#m54b27a88bf" y="337.159219"/>
      </g>
     </g>
     <g id="text_5">
      <!-- 800 -->
      <defs>
       <path d="M 31.78125 34.625 
Q 24.75 34.625 20.71875 30.859375 
Q 16.703125 27.09375 16.703125 20.515625 
Q 16.703125 13.921875 20.71875 10.15625 
Q 24.75 6.390625 31.78125 6.390625 
Q 38.8125 6.390625 42.859375 10.171875 
Q 46.921875 13.96875 46.921875 20.515625 
Q 46.921875 27.09375 42.890625 30.859375 
Q 38.875 34.625 31.78125 34.625 
z
M 21.921875 38.8125 
Q 15.578125 40.375 12.03125 44.71875 
Q 8.5 49.078125 8.5 55.328125 
Q 8.5 64.0625 14.71875 69.140625 
Q 20.953125 74.21875 31.78125 74.21875 
Q 42.671875 74.21875 48.875 69.140625 
Q 55.078125 64.0625 55.078125 55.328125 
Q 55.078125 49.078125 51.53125 44.71875 
Q 48 40.375 41.703125 38.8125 
Q 48.828125 37.15625 52.796875 32.3125 
Q 56.78125 27.484375 56.78125 20.515625 
Q 56.78125 9.90625 50.3125 4.234375 
Q 43.84375 -1.421875 31.78125 -1.421875 
Q 19.734375 -1.421875 13.25 4.234375 
Q 6.78125 9.90625 6.78125 20.515625 
Q 6.78125 27.484375 10.78125 32.3125 
Q 14.796875 37.15625 21.921875 38.8125 
z
M 18.3125 54.390625 
Q 18.3125 48.734375 21.84375 45.5625 
Q 25.390625 42.390625 31.78125 42.390625 
Q 38.140625 42.390625 41.71875 45.5625 
Q 45.3125 48.734375 45.3125 54.390625 
Q 45.3125 60.0625 41.71875 63.234375 
Q 38.140625 66.40625 31.78125 66.40625 
Q 25.390625 66.40625 21.84375 63.234375 
Q 18.3125 60.0625 18.3125 54.390625 
z
" id="DejaVuSans-56"/>
      </defs>
      <g transform="translate(550.795724 351.757656)scale(0.1 -0.1)">
       <use xlink:href="#DejaVuSans-56"/>
       <use x="63.623047" xlink:href="#DejaVuSans-48"/>
       <use x="127.246094" xlink:href="#DejaVuSans-48"/>
      </g>
     </g>
    </g>
    <g id="xtick_6">
     <g id="line2d_11">
      <path clip-path="url(#p7ae5a3adc4)" d="M 687.888405 337.159219 
L 687.888405 10.999219 
" style="fill:none;stroke:#b0b0b0;stroke-linecap:square;stroke-width:0.8;"/>
     </g>
     <g id="line2d_12">
      <g>
       <use style="stroke:#000000;stroke-width:0.8;" x="687.888405" xlink:href="#m54b27a88bf" y="337.159219"/>
      </g>
     </g>
     <g id="text_6">
      <!-- 1000 -->
      <defs>
       <path d="M 12.40625 8.296875 
L 28.515625 8.296875 
L 28.515625 63.921875 
L 10.984375 60.40625 
L 10.984375 69.390625 
L 28.421875 72.90625 
L 38.28125 72.90625 
L 38.28125 8.296875 
L 54.390625 8.296875 
L 54.390625 0 
L 12.40625 0 
z
" id="DejaVuSans-49"/>
      </defs>
      <g transform="translate(675.163405 351.757656)scale(0.1 -0.1)">
       <use xlink:href="#DejaVuSans-49"/>
       <use x="63.623047" xlink:href="#DejaVuSans-48"/>
       <use x="127.246094" xlink:href="#DejaVuSans-48"/>
       <use x="190.869141" xlink:href="#DejaVuSans-48"/>
      </g>
     </g>
    </g>
    <g id="text_7">
     <!-- Epoch -->
     <defs>
      <path d="M 9.8125 72.90625 
L 55.90625 72.90625 
L 55.90625 64.59375 
L 19.671875 64.59375 
L 19.671875 43.015625 
L 54.390625 43.015625 
L 54.390625 34.71875 
L 19.671875 34.71875 
L 19.671875 8.296875 
L 56.78125 8.296875 
L 56.78125 0 
L 9.8125 0 
z
" id="DejaVuSans-69"/>
      <path d="M 18.109375 8.203125 
L 18.109375 -20.796875 
L 9.078125 -20.796875 
L 9.078125 54.6875 
L 18.109375 54.6875 
L 18.109375 46.390625 
Q 20.953125 51.265625 25.265625 53.625 
Q 29.59375 56 35.59375 56 
Q 45.5625 56 51.78125 48.09375 
Q 58.015625 40.1875 58.015625 27.296875 
Q 58.015625 14.40625 51.78125 6.484375 
Q 45.5625 -1.421875 35.59375 -1.421875 
Q 29.59375 -1.421875 25.265625 0.953125 
Q 20.953125 3.328125 18.109375 8.203125 
z
M 48.6875 27.296875 
Q 48.6875 37.203125 44.609375 42.84375 
Q 40.53125 48.484375 33.40625 48.484375 
Q 26.265625 48.484375 22.1875 42.84375 
Q 18.109375 37.203125 18.109375 27.296875 
Q 18.109375 17.390625 22.1875 11.75 
Q 26.265625 6.109375 33.40625 6.109375 
Q 40.53125 6.109375 44.609375 11.75 
Q 48.6875 17.390625 48.6875 27.296875 
z
" id="DejaVuSans-112"/>
      <path d="M 30.609375 48.390625 
Q 23.390625 48.390625 19.1875 42.75 
Q 14.984375 37.109375 14.984375 27.296875 
Q 14.984375 17.484375 19.15625 11.84375 
Q 23.34375 6.203125 30.609375 6.203125 
Q 37.796875 6.203125 41.984375 11.859375 
Q 46.1875 17.53125 46.1875 27.296875 
Q 46.1875 37.015625 41.984375 42.703125 
Q 37.796875 48.390625 30.609375 48.390625 
z
M 30.609375 56 
Q 42.328125 56 49.015625 48.375 
Q 55.71875 40.765625 55.71875 27.296875 
Q 55.71875 13.875 49.015625 6.21875 
Q 42.328125 -1.421875 30.609375 -1.421875 
Q 18.84375 -1.421875 12.171875 6.21875 
Q 5.515625 13.875 5.515625 27.296875 
Q 5.515625 40.765625 12.171875 48.375 
Q 18.84375 56 30.609375 56 
z
" id="DejaVuSans-111"/>
      <path d="M 48.78125 52.59375 
L 48.78125 44.1875 
Q 44.96875 46.296875 41.140625 47.34375 
Q 37.3125 48.390625 33.40625 48.390625 
Q 24.65625 48.390625 19.8125 42.84375 
Q 14.984375 37.3125 14.984375 27.296875 
Q 14.984375 17.28125 19.8125 11.734375 
Q 24.65625 6.203125 33.40625 6.203125 
Q 37.3125 6.203125 41.140625 7.25 
Q 44.96875 8.296875 48.78125 10.40625 
L 48.78125 2.09375 
Q 45.015625 0.34375 40.984375 -0.53125 
Q 36.96875 -1.421875 32.421875 -1.421875 
Q 20.0625 -1.421875 12.78125 6.34375 
Q 5.515625 14.109375 5.515625 27.296875 
Q 5.515625 40.671875 12.859375 48.328125 
Q 20.21875 56 33.015625 56 
Q 37.15625 56 41.109375 55.140625 
Q 45.0625 54.296875 48.78125 52.59375 
z
" id="DejaVuSans-99"/>
      <path d="M 54.890625 33.015625 
L 54.890625 0 
L 45.90625 0 
L 45.90625 32.71875 
Q 45.90625 40.484375 42.875 44.328125 
Q 39.84375 48.1875 33.796875 48.1875 
Q 26.515625 48.1875 22.3125 43.546875 
Q 18.109375 38.921875 18.109375 30.90625 
L 18.109375 0 
L 9.078125 0 
L 9.078125 75.984375 
L 18.109375 75.984375 
L 18.109375 46.1875 
Q 21.34375 51.125 25.703125 53.5625 
Q 30.078125 56 35.796875 56 
Q 45.21875 56 50.046875 50.171875 
Q 54.890625 44.34375 54.890625 33.015625 
z
" id="DejaVuSans-104"/>
     </defs>
     <g transform="translate(369.632813 365.435781)scale(0.1 -0.1)">
      <use xlink:href="#DejaVuSans-69"/>
      <use x="63.183594" xlink:href="#DejaVuSans-112"/>
      <use x="126.660156" xlink:href="#DejaVuSans-111"/>
      <use x="187.841797" xlink:href="#DejaVuSans-99"/>
      <use x="242.822266" xlink:href="#DejaVuSans-104"/>
     </g>
    </g>
   </g>
   <g id="matplotlib.axis_2">
    <g id="ytick_1">
     <g id="line2d_13">
      <path clip-path="url(#p7ae5a3adc4)" d="M 50.14375 337.159219 
L 719.74375 337.159219 
" style="fill:none;stroke:#b0b0b0;stroke-linecap:square;stroke-width:0.8;"/>
     </g>
     <g id="line2d_14">
      <defs>
       <path d="M 0 0 
L -3.5 0 
" id="m5264f08f1a" style="stroke:#000000;stroke-width:0.8;"/>
      </defs>
      <g>
       <use style="stroke:#000000;stroke-width:0.8;" x="50.14375" xlink:href="#m5264f08f1a" y="337.159219"/>
      </g>
     </g>
     <g id="text_8">
      <!-- 0.82 -->
      <defs>
       <path d="M 10.6875 12.40625 
L 21 12.40625 
L 21 0 
L 10.6875 0 
z
" id="DejaVuSans-46"/>
      </defs>
      <g transform="translate(20.878125 340.958437)scale(0.1 -0.1)">
       <use xlink:href="#DejaVuSans-48"/>
       <use x="63.623047" xlink:href="#DejaVuSans-46"/>
       <use x="95.410156" xlink:href="#DejaVuSans-56"/>
       <use x="159.033203" xlink:href="#DejaVuSans-50"/>
      </g>
     </g>
    </g>
    <g id="ytick_2">
     <g id="line2d_15">
      <path clip-path="url(#p7ae5a3adc4)" d="M 50.14375 296.389219 
L 719.74375 296.389219 
" style="fill:none;stroke:#b0b0b0;stroke-linecap:square;stroke-width:0.8;"/>
     </g>
     <g id="line2d_16">
      <g>
       <use style="stroke:#000000;stroke-width:0.8;" x="50.14375" xlink:href="#m5264f08f1a" y="296.389219"/>
      </g>
     </g>
     <g id="text_9">
      <!-- 0.84 -->
      <g transform="translate(20.878125 300.188437)scale(0.1 -0.1)">
       <use xlink:href="#DejaVuSans-48"/>
       <use x="63.623047" xlink:href="#DejaVuSans-46"/>
       <use x="95.410156" xlink:href="#DejaVuSans-56"/>
       <use x="159.033203" xlink:href="#DejaVuSans-52"/>
      </g>
     </g>
    </g>
    <g id="ytick_3">
     <g id="line2d_17">
      <path clip-path="url(#p7ae5a3adc4)" d="M 50.14375 255.619219 
L 719.74375 255.619219 
" style="fill:none;stroke:#b0b0b0;stroke-linecap:square;stroke-width:0.8;"/>
     </g>
     <g id="line2d_18">
      <g>
       <use style="stroke:#000000;stroke-width:0.8;" x="50.14375" xlink:href="#m5264f08f1a" y="255.619219"/>
      </g>
     </g>
     <g id="text_10">
      <!-- 0.86 -->
      <g transform="translate(20.878125 259.418437)scale(0.1 -0.1)">
       <use xlink:href="#DejaVuSans-48"/>
       <use x="63.623047" xlink:href="#DejaVuSans-46"/>
       <use x="95.410156" xlink:href="#DejaVuSans-56"/>
       <use x="159.033203" xlink:href="#DejaVuSans-54"/>
      </g>
     </g>
    </g>
    <g id="ytick_4">
     <g id="line2d_19">
      <path clip-path="url(#p7ae5a3adc4)" d="M 50.14375 214.849219 
L 719.74375 214.849219 
" style="fill:none;stroke:#b0b0b0;stroke-linecap:square;stroke-width:0.8;"/>
     </g>
     <g id="line2d_20">
      <g>
       <use style="stroke:#000000;stroke-width:0.8;" x="50.14375" xlink:href="#m5264f08f1a" y="214.849219"/>
      </g>
     </g>
     <g id="text_11">
      <!-- 0.88 -->
      <g transform="translate(20.878125 218.648437)scale(0.1 -0.1)">
       <use xlink:href="#DejaVuSans-48"/>
       <use x="63.623047" xlink:href="#DejaVuSans-46"/>
       <use x="95.410156" xlink:href="#DejaVuSans-56"/>
       <use x="159.033203" xlink:href="#DejaVuSans-56"/>
      </g>
     </g>
    </g>
    <g id="ytick_5">
     <g id="line2d_21">
      <path clip-path="url(#p7ae5a3adc4)" d="M 50.14375 174.079219 
L 719.74375 174.079219 
" style="fill:none;stroke:#b0b0b0;stroke-linecap:square;stroke-width:0.8;"/>
     </g>
     <g id="line2d_22">
      <g>
       <use style="stroke:#000000;stroke-width:0.8;" x="50.14375" xlink:href="#m5264f08f1a" y="174.079219"/>
      </g>
     </g>
     <g id="text_12">
      <!-- 0.90 -->
      <defs>
       <path d="M 10.984375 1.515625 
L 10.984375 10.5 
Q 14.703125 8.734375 18.5 7.8125 
Q 22.3125 6.890625 25.984375 6.890625 
Q 35.75 6.890625 40.890625 13.453125 
Q 46.046875 20.015625 46.78125 33.40625 
Q 43.953125 29.203125 39.59375 26.953125 
Q 35.25 24.703125 29.984375 24.703125 
Q 19.046875 24.703125 12.671875 31.3125 
Q 6.296875 37.9375 6.296875 49.421875 
Q 6.296875 60.640625 12.9375 67.421875 
Q 19.578125 74.21875 30.609375 74.21875 
Q 43.265625 74.21875 49.921875 64.515625 
Q 56.59375 54.828125 56.59375 36.375 
Q 56.59375 19.140625 48.40625 8.859375 
Q 40.234375 -1.421875 26.421875 -1.421875 
Q 22.703125 -1.421875 18.890625 -0.6875 
Q 15.09375 0.046875 10.984375 1.515625 
z
M 30.609375 32.421875 
Q 37.25 32.421875 41.125 36.953125 
Q 45.015625 41.5 45.015625 49.421875 
Q 45.015625 57.28125 41.125 61.84375 
Q 37.25 66.40625 30.609375 66.40625 
Q 23.96875 66.40625 20.09375 61.84375 
Q 16.21875 57.28125 16.21875 49.421875 
Q 16.21875 41.5 20.09375 36.953125 
Q 23.96875 32.421875 30.609375 32.421875 
z
" id="DejaVuSans-57"/>
      </defs>
      <g transform="translate(20.878125 177.878437)scale(0.1 -0.1)">
       <use xlink:href="#DejaVuSans-48"/>
       <use x="63.623047" xlink:href="#DejaVuSans-46"/>
       <use x="95.410156" xlink:href="#DejaVuSans-57"/>
       <use x="159.033203" xlink:href="#DejaVuSans-48"/>
      </g>
     </g>
    </g>
    <g id="ytick_6">
     <g id="line2d_23">
      <path clip-path="url(#p7ae5a3adc4)" d="M 50.14375 133.309219 
L 719.74375 133.309219 
" style="fill:none;stroke:#b0b0b0;stroke-linecap:square;stroke-width:0.8;"/>
     </g>
     <g id="line2d_24">
      <g>
       <use style="stroke:#000000;stroke-width:0.8;" x="50.14375" xlink:href="#m5264f08f1a" y="133.309219"/>
      </g>
     </g>
     <g id="text_13">
      <!-- 0.92 -->
      <g transform="translate(20.878125 137.108437)scale(0.1 -0.1)">
       <use xlink:href="#DejaVuSans-48"/>
       <use x="63.623047" xlink:href="#DejaVuSans-46"/>
       <use x="95.410156" xlink:href="#DejaVuSans-57"/>
       <use x="159.033203" xlink:href="#DejaVuSans-50"/>
      </g>
     </g>
    </g>
    <g id="ytick_7">
     <g id="line2d_25">
      <path clip-path="url(#p7ae5a3adc4)" d="M 50.14375 92.539219 
L 719.74375 92.539219 
" style="fill:none;stroke:#b0b0b0;stroke-linecap:square;stroke-width:0.8;"/>
     </g>
     <g id="line2d_26">
      <g>
       <use style="stroke:#000000;stroke-width:0.8;" x="50.14375" xlink:href="#m5264f08f1a" y="92.539219"/>
      </g>
     </g>
     <g id="text_14">
      <!-- 0.94 -->
      <g transform="translate(20.878125 96.338437)scale(0.1 -0.1)">
       <use xlink:href="#DejaVuSans-48"/>
       <use x="63.623047" xlink:href="#DejaVuSans-46"/>
       <use x="95.410156" xlink:href="#DejaVuSans-57"/>
       <use x="159.033203" xlink:href="#DejaVuSans-52"/>
      </g>
     </g>
    </g>
    <g id="ytick_8">
     <g id="line2d_27">
      <path clip-path="url(#p7ae5a3adc4)" d="M 50.14375 51.769219 
L 719.74375 51.769219 
" style="fill:none;stroke:#b0b0b0;stroke-linecap:square;stroke-width:0.8;"/>
     </g>
     <g id="line2d_28">
      <g>
       <use style="stroke:#000000;stroke-width:0.8;" x="50.14375" xlink:href="#m5264f08f1a" y="51.769219"/>
      </g>
     </g>
     <g id="text_15">
      <!-- 0.96 -->
      <g transform="translate(20.878125 55.568437)scale(0.1 -0.1)">
       <use xlink:href="#DejaVuSans-48"/>
       <use x="63.623047" xlink:href="#DejaVuSans-46"/>
       <use x="95.410156" xlink:href="#DejaVuSans-57"/>
       <use x="159.033203" xlink:href="#DejaVuSans-54"/>
      </g>
     </g>
    </g>
    <g id="ytick_9">
     <g id="line2d_29">
      <path clip-path="url(#p7ae5a3adc4)" d="M 50.14375 10.999219 
L 719.74375 10.999219 
" style="fill:none;stroke:#b0b0b0;stroke-linecap:square;stroke-width:0.8;"/>
     </g>
     <g id="line2d_30">
      <g>
       <use style="stroke:#000000;stroke-width:0.8;" x="50.14375" xlink:href="#m5264f08f1a" y="10.999219"/>
      </g>
     </g>
     <g id="text_16">
      <!-- 0.98 -->
      <g transform="translate(20.878125 14.798437)scale(0.1 -0.1)">
       <use xlink:href="#DejaVuSans-48"/>
       <use x="63.623047" xlink:href="#DejaVuSans-46"/>
       <use x="95.410156" xlink:href="#DejaVuSans-57"/>
       <use x="159.033203" xlink:href="#DejaVuSans-56"/>
      </g>
     </g>
    </g>
    <g id="text_17">
     <!-- Accuracy -->
     <defs>
      <path d="M 34.1875 63.1875 
L 20.796875 26.90625 
L 47.609375 26.90625 
z
M 28.609375 72.90625 
L 39.796875 72.90625 
L 67.578125 0 
L 57.328125 0 
L 50.6875 18.703125 
L 17.828125 18.703125 
L 11.1875 0 
L 0.78125 0 
z
" id="DejaVuSans-65"/>
      <path d="M 8.5 21.578125 
L 8.5 54.6875 
L 17.484375 54.6875 
L 17.484375 21.921875 
Q 17.484375 14.15625 20.5 10.265625 
Q 23.53125 6.390625 29.59375 6.390625 
Q 36.859375 6.390625 41.078125 11.03125 
Q 45.3125 15.671875 45.3125 23.6875 
L 45.3125 54.6875 
L 54.296875 54.6875 
L 54.296875 0 
L 45.3125 0 
L 45.3125 8.40625 
Q 42.046875 3.421875 37.71875 1 
Q 33.40625 -1.421875 27.6875 -1.421875 
Q 18.265625 -1.421875 13.375 4.4375 
Q 8.5 10.296875 8.5 21.578125 
z
M 31.109375 56 
z
" id="DejaVuSans-117"/>
      <path d="M 41.109375 46.296875 
Q 39.59375 47.171875 37.8125 47.578125 
Q 36.03125 48 33.890625 48 
Q 26.265625 48 22.1875 43.046875 
Q 18.109375 38.09375 18.109375 28.8125 
L 18.109375 0 
L 9.078125 0 
L 9.078125 54.6875 
L 18.109375 54.6875 
L 18.109375 46.1875 
Q 20.953125 51.171875 25.484375 53.578125 
Q 30.03125 56 36.53125 56 
Q 37.453125 56 38.578125 55.875 
Q 39.703125 55.765625 41.0625 55.515625 
z
" id="DejaVuSans-114"/>
      <path d="M 34.28125 27.484375 
Q 23.390625 27.484375 19.1875 25 
Q 14.984375 22.515625 14.984375 16.5 
Q 14.984375 11.71875 18.140625 8.90625 
Q 21.296875 6.109375 26.703125 6.109375 
Q 34.1875 6.109375 38.703125 11.40625 
Q 43.21875 16.703125 43.21875 25.484375 
L 43.21875 27.484375 
z
M 52.203125 31.203125 
L 52.203125 0 
L 43.21875 0 
L 43.21875 8.296875 
Q 40.140625 3.328125 35.546875 0.953125 
Q 30.953125 -1.421875 24.3125 -1.421875 
Q 15.921875 -1.421875 10.953125 3.296875 
Q 6 8.015625 6 15.921875 
Q 6 25.140625 12.171875 29.828125 
Q 18.359375 34.515625 30.609375 34.515625 
L 43.21875 34.515625 
L 43.21875 35.40625 
Q 43.21875 41.609375 39.140625 45 
Q 35.0625 48.390625 27.6875 48.390625 
Q 23 48.390625 18.546875 47.265625 
Q 14.109375 46.140625 10.015625 43.890625 
L 10.015625 52.203125 
Q 14.9375 54.109375 19.578125 55.046875 
Q 24.21875 56 28.609375 56 
Q 40.484375 56 46.34375 49.84375 
Q 52.203125 43.703125 52.203125 31.203125 
z
" id="DejaVuSans-97"/>
      <path d="M 32.171875 -5.078125 
Q 28.375 -14.84375 24.75 -17.8125 
Q 21.140625 -20.796875 15.09375 -20.796875 
L 7.90625 -20.796875 
L 7.90625 -13.28125 
L 13.1875 -13.28125 
Q 16.890625 -13.28125 18.9375 -11.515625 
Q 21 -9.765625 23.484375 -3.21875 
L 25.09375 0.875 
L 2.984375 54.6875 
L 12.5 54.6875 
L 29.59375 11.921875 
L 46.6875 54.6875 
L 56.203125 54.6875 
z
" id="DejaVuSans-121"/>
     </defs>
     <g transform="translate(14.798438 196.994062)rotate(-90)scale(0.1 -0.1)">
      <use xlink:href="#DejaVuSans-65"/>
      <use x="68.392578" xlink:href="#DejaVuSans-99"/>
      <use x="123.373047" xlink:href="#DejaVuSans-99"/>
      <use x="178.353516" xlink:href="#DejaVuSans-117"/>
      <use x="241.732422" xlink:href="#DejaVuSans-114"/>
      <use x="282.845703" xlink:href="#DejaVuSans-97"/>
      <use x="344.125" xlink:href="#DejaVuSans-99"/>
      <use x="399.105469" xlink:href="#DejaVuSans-121"/>
     </g>
    </g>
   </g>
   <g id="line2d_31">
    <path clip-path="url(#p7ae5a3adc4)" d="M 86.084593 375.715469 
L 86.495195 371.253153 
L 87.13294 373.801215 
L 87.770685 374.208983 
L 88.408429 373.903157 
L 89.046174 362.742401 
L 89.683919 368.501208 
L 90.321663 366.462613 
L 90.959408 358.46157 
L 91.597153 369.418442 
L 92.234897 368.806912 
L 92.872642 364.882817 
L 93.510387 366.30976 
L 94.148131 360.754837 
L 94.785876 362.997195 
L 95.42362 357.493304 
L 96.061365 362.232813 
L 96.69911 357.34033 
L 97.336854 355.811444 
L 97.974599 358.053802 
L 98.612344 356.983594 
L 99.250088 356.423096 
L 99.887833 357.442272 
L 100.525578 349.746933 
L 101.163322 351.021025 
L 101.801067 350.409495 
L 103.076556 351.326851 
L 103.714301 343.121802 
L 104.352046 358.614422 
L 104.98979 350.001727 
L 105.627535 346.893046 
L 106.26528 346.179574 
L 106.903024 342.714156 
L 107.540769 345.109366 
L 108.178514 344.548746 
L 108.816258 345.262218 
L 109.454003 340.267915 
L 110.091748 344.548746 
L 110.729492 336.292909 
L 111.367237 344.548746 
L 112.004981 335.477496 
L 112.642726 342.306389 
L 113.280471 339.197707 
L 113.918215 339.146797 
L 114.55596 297.45948 
L 115.193705 290.375671 
L 115.831449 289.916993 
L 117.106939 280.030207 
L 117.744683 281.610125 
L 118.382428 272.589784 
L 119.020173 282.119713 
L 119.657917 280.030207 
L 120.295662 277.074378 
L 120.933407 276.360906 
L 121.571151 274.373464 
L 122.208896 274.424374 
L 122.846641 269.430071 
L 123.484385 268.207011 
L 124.12213 272.844578 
L 124.759875 272.182017 
L 125.397619 270.704163 
L 126.035364 268.716599 
L 126.673109 270.143543 
L 127.310853 268.767509 
L 127.948598 268.971393 
L 128.586343 266.42321 
L 129.224087 268.207011 
L 129.861832 263.110766 
L 130.499576 263.212586 
L 131.137321 270.143543 
L 131.775066 268.512715 
L 132.41281 263.212586 
L 133.050555 266.3723 
L 133.6883 266.525152 
L 134.326044 264.333826 
L 134.963789 260.460641 
L 135.601534 268.869451 
L 136.239278 265.76077 
L 136.877023 257.606753 
L 137.514768 262.601056 
L 138.152512 261.58188 
L 138.790257 264.53771 
L 139.428002 261.734732 
L 140.065746 259.900021 
L 140.703491 260.154936 
L 141.341236 261.02126 
L 141.97898 259.492375 
L 142.616725 255.823073 
L 143.25447 259.288491 
L 143.892214 256.995223 
L 144.529959 253.22398 
L 145.167704 261.785643 
L 145.805448 260.919319 
L 146.443193 257.504811 
L 147.080937 255.772163 
L 147.718682 255.772163 
L 148.356427 256.077867 
L 148.994171 259.339523 
L 149.631916 257.504811 
L 150.269661 256.281751 
L 150.907405 259.084729 
L 151.54515 260.205847 
L 152.182895 253.427864 
L 152.820639 252.561418 
L 153.458384 255.670221 
L 154.096129 257.708695 
L 154.733873 255.975926 
L 155.371618 255.925015 
L 156.009363 259.186549 
L 156.647107 252.204682 
L 157.284852 249.401826 
L 157.922597 253.478774 
L 158.560341 260.001963 
L 159.198086 251.695094 
L 159.835831 255.364396 
L 160.473575 250.624886 
L 161.11132 249.962325 
L 161.749065 255.160512 
L 162.386809 252.255714 
L 163.024554 248.076825 
L 163.662299 249.401826 
L 164.300043 252.66336 
L 164.937788 248.637323 
L 165.575532 254.090304 
L 166.213277 252.05183 
L 166.851022 252.765302 
L 167.488766 252.00092 
L 168.126511 252.459598 
L 168.764256 252.05183 
L 169.402 251.287448 
L 170.039745 246.904675 
L 170.67749 246.598849 
L 171.315234 246.038229 
L 172.590724 253.020096 
L 173.228468 247.312321 
L 173.866213 254.498072 
L 174.503958 249.554679 
L 175.141702 248.841207 
L 175.779447 248.688355 
L 176.417192 242.878637 
L 177.054936 250.573976 
L 177.692681 247.516205 
L 178.330426 226.009985 
L 178.96817 211.791457 
L 179.605915 206.746122 
L 180.24366 208.275008 
L 180.881404 207.408684 
L 181.519149 210.772159 
L 182.156893 200.019171 
L 182.794638 202.822027 
L 183.432383 203.58653 
L 184.070127 199.356609 
L 184.707872 207.306742 
L 185.345617 202.465291 
L 185.983361 202.159587 
L 186.621106 202.261528 
L 187.258851 196.247928 
L 187.896595 198.286401 
L 189.172085 195.483424 
L 189.809829 196.553632 
L 190.447574 196.40078 
L 191.085319 197.827724 
L 191.723063 201.089379 
L 192.360808 194.00557 
L 192.998553 203.025911 
L 193.636297 199.509461 
L 194.274042 199.407641 
L 194.911787 198.133549 
L 195.549531 197.470988 
L 196.187276 197.114252 
L 196.825021 193.190156 
L 197.462765 194.464248 
L 198.10051 194.311274 
L 198.738255 201.344173 
L 199.375999 195.993134 
L 200.651488 195.84016 
L 201.289233 194.56619 
L 201.926978 189.215029 
L 202.564722 196.298838 
L 203.202467 200.019171 
L 203.840212 189.520855 
L 204.477956 193.088214 
L 205.753446 191.253624 
L 206.39119 196.298838 
L 207.028935 195.17772 
L 207.66668 195.22863 
L 208.304424 192.22189 
L 208.942169 200.019171 
L 209.579914 190.896888 
L 210.217658 192.069038 
L 210.855403 193.801686 
L 211.493148 195.075778 
L 212.130892 191.814123 
L 212.768637 192.272801 
L 214.681871 194.107512 
L 215.319616 188.043001 
L 215.95736 190.641973 
L 216.595105 189.673707 
L 217.232849 192.170859 
L 217.870594 185.494818 
L 218.508339 192.069038 
L 219.783828 188.246763 
L 220.421573 191.865154 
L 221.059317 186.717878 
L 221.697062 191.304535 
L 222.334807 191.814123 
L 222.972551 188.195853 
L 224.248041 193.190156 
L 224.885785 190.947799 
L 225.52353 193.903628 
L 226.161275 184.832256 
L 226.799019 192.680568 
L 227.436764 189.215029 
L 228.074509 193.597802 
L 228.712253 190.081475 
L 229.349998 190.998709 
L 229.987743 185.443907 
L 230.625487 191.814123 
L 231.263232 187.737175 
L 231.900977 185.698701 
L 233.176466 192.069038 
L 233.81421 188.552589 
L 234.451955 186.208289 
L 235.727444 187.023703 
L 236.365189 187.329529 
L 237.002934 188.297795 
L 237.640678 190.387179 
L 238.278423 191.967096 
L 238.916168 184.526552 
L 239.553912 186.412173 
L 240.191657 187.227587 
L 240.829402 193.037304 
L 241.467146 186.463084 
L 242.104891 170.71567 
L 243.38038 164.753101 
L 244.018125 160.727064 
L 244.65587 163.784835 
L 245.293614 165.262689 
L 245.931359 161.389504 
L 246.569104 159.91165 
L 247.206848 160.930948 
L 247.844593 160.727064 
L 248.482338 162.154008 
L 249.120082 156.802968 
L 249.757827 159.605824 
L 250.395572 158.68859 
L 251.033316 161.69533 
L 251.671061 153.235609 
L 252.308805 161.13471 
L 252.94655 157.924086 
L 253.584295 157.771234 
L 254.222039 149.821102 
L 254.859784 157.108673 
L 255.497529 155.477967 
L 256.135273 151.248045 
L 256.773018 151.808665 
L 257.410763 150.891309 
L 258.048507 155.936523 
L 258.686252 154.152843 
L 259.323997 154.254785 
L 260.599486 152.471105 
L 261.237231 156.293259 
L 261.874975 150.891309 
L 262.51272 155.070199 
L 263.150465 149.617218 
L 263.788209 153.796107 
L 264.425954 151.910486 
L 265.063699 153.184577 
L 265.701443 153.286519 
L 266.339188 155.426935 
L 266.976933 154.968257 
L 267.614677 154.050901 
L 268.252422 153.694165 
L 269.527911 145.489239 
L 270.165656 149.872012 
L 270.8034 148.088332 
L 271.441145 149.464366 
L 272.716634 151.655692 
L 273.354379 149.464366 
L 273.992124 149.464366 
L 274.629868 150.3816 
L 275.267613 150.534573 
L 275.905358 147.37486 
L 276.543102 149.668128 
L 277.180847 145.744033 
L 277.818592 150.789368 
L 278.456336 148.292216 
L 279.094081 147.069034 
L 280.36957 152.776931 
L 281.007315 150.177838 
L 281.64506 152.012427 
L 282.282804 148.241184 
L 282.920549 149.209572 
L 283.558294 149.71916 
L 284.196038 142.635351 
L 284.833783 148.292216 
L 285.471528 149.515276 
L 286.109272 148.54701 
L 286.747017 152.573047 
L 287.384761 152.776931 
L 288.660251 145.081592 
L 289.297995 147.629654 
L 289.93574 145.183534 
L 290.573485 152.471105 
L 291.211229 149.15854 
L 291.848974 149.15854 
L 292.486719 147.018124 
L 293.124463 149.71916 
L 293.762208 148.343126 
L 294.399953 145.59118 
L 295.037697 145.183534 
L 295.675442 147.884448 
L 296.313187 144.673825 
L 296.950931 150.585484 
L 297.588676 150.075896 
L 298.226421 149.311392 
L 298.864165 145.744033 
L 299.50191 148.54701 
L 300.139655 148.190274 
L 300.777399 152.063459 
L 301.415144 145.845975 
L 302.052889 149.413334 
L 302.690633 148.750894 
L 303.328378 149.821102 
L 303.966122 146.661388 
L 304.603867 150.024864 
L 305.241612 146.81424 
L 305.879356 136.519808 
L 306.517101 135.857368 
L 307.154846 131.933273 
L 307.79259 129.487031 
L 308.430335 132.188067 
L 309.06808 136.468898 
L 309.705824 128.569676 
L 310.343569 131.219801 
L 310.981314 131.882241 
L 311.619058 127.958146 
L 312.256803 131.219801 
L 312.894548 131.576537 
L 313.532292 133.105422 
L 314.170037 122.8619 
L 314.807782 127.193763 
L 315.445526 128.060087 
L 316.083271 130.200503 
L 316.721016 127.448557 
L 317.35876 125.562936 
L 317.996505 127.448557 
L 318.63425 127.907235 
L 319.271994 124.59467 
L 319.909739 125.053348 
L 320.547484 124.135992 
L 321.185228 129.283147 
L 321.822973 123.371488 
L 322.460717 123.47343 
L 323.098462 124.441696 
L 323.736207 127.295584 
L 324.373951 125.155168 
L 325.011696 124.798432 
L 325.649441 123.728224 
L 326.287185 128.314882 
L 326.92493 122.505164 
L 327.562675 125.053348 
L 328.200419 130.200503 
L 328.838164 127.907235 
L 330.113653 122.8619 
L 331.389143 121.333015 
L 332.026887 123.575372 
L 332.664632 121.63884 
L 333.302377 126.480292 
L 333.940121 125.970582 
L 334.577866 128.82447 
L 335.215611 124.288844 
L 335.853355 126.98988 
L 336.4911 124.441696 
L 337.128845 126.684054 
L 337.766589 121.995576 
L 339.042078 125.155168 
L 339.679823 121.129131 
L 340.317568 125.511904 
L 340.955312 125.970582 
L 341.593057 119.447393 
L 342.230802 122.097518 
L 342.868546 122.963842 
L 343.506291 119.855161 
L 344.144036 125.562936 
L 344.78178 124.900374 
L 345.419525 124.798432 
L 346.05727 125.410084 
L 346.695014 122.148429 
L 347.332759 121.384046 
L 347.970504 121.180163 
L 348.608248 121.791693 
L 349.245993 123.218636 
L 349.883738 121.180163 
L 350.521482 120.364749 
L 351.159227 117.45983 
L 351.796972 123.677314 
L 353.072461 119.447393 
L 353.710206 121.587809 
L 354.34795 118.479127 
L 354.985695 122.199339 
L 355.62344 118.581069 
L 356.261184 116.899331 
L 356.898929 123.116694 
L 357.536673 118.937805 
L 358.174418 118.377185 
L 358.812163 118.683011 
L 359.449907 120.976279 
L 360.087652 122.046487 
L 360.725397 120.008013 
L 361.363141 120.058923 
L 362.000886 125.25711 
L 362.638631 118.835863 
L 363.91412 120.008013 
L 364.551865 120.058923 
L 365.189609 116.746358 
L 365.827354 118.071481 
L 366.465099 120.160865 
L 367.102843 121.791693 
L 367.740588 119.600367 
L 368.378333 119.345451 
L 369.016077 120.721485 
L 369.653822 112.210732 
L 370.291567 113.790528 
L 370.929311 115.01371 
L 371.567056 112.006848 
L 372.204801 113.382882 
L 372.842545 109.102051 
L 373.48029 111.038583 
L 374.118034 107.216429 
L 375.393524 114.249206 
L 376.031268 109.713581 
L 376.669013 111.242466 
L 377.306758 108.337547 
L 377.944502 108.541431 
L 378.582247 106.553867 
L 379.219992 109.66267 
L 379.857736 109.560729 
L 380.495481 106.09519 
L 381.133226 112.567468 
L 381.77097 109.917464 
L 382.408715 103.903864 
L 383.04646 109.66267 
L 383.684204 107.471223 
L 384.321949 109.866433 
L 384.959694 111.038583 
L 385.597438 107.675107 
L 386.235183 109.917464 
L 386.872928 107.114487 
L 387.510672 109.66267 
L 388.148417 106.655809 
L 388.786162 107.471223 
L 389.423906 106.910603 
L 390.061651 105.993369 
L 390.699396 109.305935 
L 391.33714 106.451925 
L 391.974885 104.362541 
L 392.612629 106.604899 
L 393.250374 109.815523 
L 393.888119 108.490521 
L 394.525863 103.852953 
L 395.163608 108.592463 
L 395.801353 106.706841 
L 396.439097 103.03754 
L 397.076842 111.44635 
L 397.714587 109.713581 
L 398.352331 108.439489 
L 398.990076 107.980811 
L 399.627821 104.209689 
L 400.265565 104.056716 
L 400.90331 108.541431 
L 401.541055 106.09519 
L 402.178799 109.815523 
L 402.816544 106.553867 
L 403.454289 107.369281 
L 404.092033 105.076013 
L 404.729778 101.457622 
L 405.367523 105.789485 
L 406.005267 102.935598 
L 406.643012 107.267339 
L 407.280757 105.687543 
L 407.918501 107.420313 
L 408.556246 106.553867 
L 409.19399 106.859693 
L 409.831735 105.738454 
L 410.46948 103.69998 
L 411.107224 107.726017 
L 411.744969 102.986508 
L 412.382714 105.279897 
L 413.020458 101.30477 
L 413.658203 105.993369 
L 414.295948 107.216429 
L 414.933692 102.782624 
L 415.571437 105.177955 
L 416.209182 101.406712 
L 416.846926 105.534691 
L 417.484671 103.903864 
L 418.122416 105.942337 
L 418.76016 106.502957 
L 419.397905 102.986508 
L 420.03565 104.770188 
L 420.673394 101.406712 
L 421.311139 101.9163 
L 421.948884 102.986508 
L 422.586628 109.815523 
L 423.224373 106.961635 
L 423.862118 106.910603 
L 424.499862 104.056716 
L 425.137607 105.076013 
L 425.775352 102.120184 
L 426.413096 101.712416 
L 427.050841 103.69998 
L 427.688585 107.726017 
L 428.32633 102.629772 
L 428.964075 102.782624 
L 429.601819 103.292334 
L 430.239564 107.929901 
L 430.877309 101.610596 
L 431.515053 105.381718 
L 432.152798 106.706841 
L 432.790543 105.076013 
L 433.428287 101.86539 
L 434.066032 104.056716 
L 434.703777 101.9163 
L 435.341521 98.807618 
L 435.979266 98.705677 
L 436.617011 100.234562 
L 437.254755 98.450883 
L 437.8925 98.501793 
L 438.530245 99.368238 
L 439.167989 99.317207 
L 439.805734 96.820055 
L 440.443479 99.266296 
L 441.081223 97.380675 
L 441.718968 99.470059 
L 442.356713 95.036375 
L 442.994457 100.285472 
L 443.632202 101.406712 
L 444.269946 96.565261 
L 445.545436 99.928737 
L 446.18318 96.972907 
L 446.820925 94.628729 
L 447.45867 97.380675 
L 448.096414 99.215265 
L 448.734159 97.431585 
L 449.371904 99.724974 
L 450.009648 96.514351 
L 450.647393 99.215265 
L 451.285138 99.572001 
L 451.922882 97.278733 
L 452.560627 97.329643 
L 453.198372 93.966167 
L 453.836116 95.138317 
L 454.473861 97.074849 
L 455.111606 95.444021 
L 455.74935 96.514351 
L 456.387095 99.52109 
L 457.02484 95.749847 
L 457.662584 100.08171 
L 458.300329 98.960471 
L 458.938074 95.189227 
L 459.575818 94.832491 
L 460.213563 99.164354 
L 460.851308 94.934433 
L 461.489052 97.125881 
L 462.126797 95.596995 
L 462.764541 93.252695 
L 463.402286 97.584559 
L 464.040031 97.992205 
L 464.677775 96.463319 
L 465.31552 93.405548 
L 465.953265 94.679639 
L 466.591009 96.463319 
L 467.228754 94.271993 
L 467.866499 94.017078 
L 468.504243 95.342201 
L 469.141988 94.424845 
L 469.779733 95.444021 
L 470.417477 98.705677 
L 471.692967 93.048812 
L 472.330711 95.189227 
L 472.968456 94.170051 
L 473.606201 97.227823 
L 474.243945 95.087285 
L 474.88169 95.647905 
L 475.519435 93.50749 
L 476.157179 97.635469 
L 476.794924 97.431585 
L 477.432669 95.087285 
L 478.070413 95.087285 
L 478.708158 94.271993 
L 479.345902 95.087285 
L 479.983647 93.405548 
L 480.621392 96.667203 
L 481.259136 94.322903 
L 481.896881 97.686379 
L 482.534626 95.902699 
L 483.17237 93.099843 
L 483.810115 96.718113 
L 484.44786 94.220961 
L 485.085604 92.94687 
L 485.723349 95.189227 
L 486.361094 94.220961 
L 486.998838 94.068109 
L 487.636583 92.743107 
L 488.274328 95.036375 
L 488.912072 95.393111 
L 489.549817 95.087285 
L 490.187562 95.087285 
L 490.825306 97.176791 
L 491.463051 87.850625 
L 492.100796 96.616171 
L 492.73854 96.972907 
L 493.376285 99.572001 
L 494.01403 92.386371 
L 494.651774 92.182488 
L 495.289519 92.845049 
L 495.927264 89.99104 
L 496.565008 91.6729 
L 497.202753 93.864225 
L 497.840497 90.398808 
L 498.478242 91.061248 
L 499.115987 92.131577 
L 499.753731 90.602692 
L 500.391476 94.730549 
L 501.029221 92.997901 
L 501.666965 92.743107 
L 502.30471 92.692076 
L 502.942455 97.023939 
L 503.580199 90.092982 
L 504.217944 91.876662 
L 504.855689 94.170051 
L 505.493433 93.048812 
L 506.131178 94.730549 
L 506.768923 92.080546 
L 507.406667 92.997901 
L 508.044412 90.704512 
L 508.682157 91.417984 
L 509.319901 89.022774 
L 509.957646 87.697773 
L 510.595391 92.33534 
L 511.233135 87.239095 
L 511.87088 87.799714 
L 512.508625 91.519926 
L 513.146369 93.201785 
L 513.784114 91.621868 
L 514.421858 89.277568 
L 515.059603 91.978604 
L 515.697348 90.55166 
L 516.335092 91.265132 
L 516.972837 87.442978 
L 517.610582 93.303606 
L 518.248326 93.048812 
L 518.886071 91.72381 
L 519.523816 90.806454 
L 520.16156 95.291169 
L 520.799305 90.50075 
L 521.43705 90.857486 
L 522.074794 93.609431 
L 522.712539 91.367074 
L 523.350284 92.539224 
L 523.988028 89.022774 
L 525.263518 94.679639 
L 525.901262 88.054508 
L 526.539007 92.437282 
L 527.176752 92.080546 
L 527.814496 90.55166 
L 528.452241 90.857486 
L 529.089986 89.99104 
L 529.72773 89.685336 
L 530.365475 90.704512 
L 531.003219 91.214222 
L 531.640964 89.073806 
L 532.278709 89.022774 
L 532.916453 90.398808 
L 533.554198 91.469016 
L 534.191943 87.595831 
L 534.829687 94.424845 
L 535.467432 94.220961 
L 536.105177 90.092982 
L 536.742921 92.386371 
L 537.380666 94.170051 
L 538.018411 90.806454 
L 538.656155 91.621868 
L 539.2939 87.952567 
L 539.931645 89.124716 
L 540.569389 88.920832 
L 541.207134 87.952567 
L 541.844879 94.170051 
L 542.482623 88.971864 
L 543.120368 89.532484 
L 543.758113 87.850625 
L 544.395857 89.94013 
L 545.033602 89.37951 
L 545.671347 88.411244 
L 546.309091 91.72381 
L 546.946836 88.258392 
L 547.584581 89.94013 
L 548.222325 92.33534 
L 548.86007 88.71707 
L 549.497814 93.048812 
L 550.135559 88.76798 
L 550.773304 92.131577 
L 551.411048 94.475755 
L 552.048793 90.194924 
L 552.686538 93.50749 
L 553.324282 89.226658 
L 553.962027 89.532484 
L 554.599772 93.252695 
L 555.237516 88.054508 
L 555.875261 89.634304 
L 556.513006 92.437282 
L 557.15075 88.054508 
L 557.788495 90.144014 
L 558.42624 89.3286 
L 559.063984 89.736246 
L 559.701729 86.984301 
L 560.339474 92.997901 
L 560.977218 89.175748 
L 561.614963 91.010338 
L 562.252708 89.481452 
L 562.890452 86.780417 
L 563.528197 88.003598 
L 564.165942 87.901656 
L 564.803686 93.099843 
L 565.441431 85.812151 
L 566.079175 91.11228 
L 566.71692 90.449718 
L 567.354665 86.831448 
L 567.992409 88.76798 
L 568.630154 86.780417 
L 569.267899 88.666038 
L 569.905643 88.615128 
L 570.543388 89.175748 
L 571.181133 88.258392 
L 571.818877 89.226658 
L 572.456622 84.640001 
L 573.094367 88.513186 
L 573.732111 86.780417 
L 574.369856 89.481452 
L 575.007601 86.729507 
L 576.28309 85.047769 
L 576.920835 86.729507 
L 578.196324 92.029636 
L 578.834069 87.799714 
L 579.471813 92.029636 
L 580.109558 87.137153 
L 580.747303 87.697773 
L 581.385047 85.914093 
L 582.022792 87.290126 
L 582.660537 85.863183 
L 583.298281 86.117977 
L 583.936026 87.086243 
L 584.57377 89.532484 
L 585.211515 86.066945 
L 585.84926 91.316164 
L 586.487004 85.455415 
L 587.124749 87.290126 
L 587.762494 84.385207 
L 588.400238 85.251531 
L 589.037983 90.347776 
L 589.675728 88.10554 
L 590.313472 87.188184 
L 590.951217 88.054508 
L 591.588962 84.283265 
L 592.226706 84.894795 
L 592.864451 85.761241 
L 593.502196 91.010338 
L 594.13994 85.965003 
L 594.777685 86.219919 
L 595.41543 85.914093 
L 596.053174 88.564097 
L 596.690919 88.819012 
L 597.328664 85.098679 
L 597.966408 83.977561 
L 598.604153 85.506447 
L 599.241898 88.207361 
L 599.879642 87.748804 
L 600.517387 88.207361 
L 601.155131 85.914093 
L 601.792876 84.945827 
L 602.430621 88.054508 
L 603.068365 87.493889 
L 603.70611 85.608267 
L 604.343855 84.589091 
L 604.981599 84.181323 
L 605.619344 89.481452 
L 606.257089 88.360334 
L 606.894833 89.634304 
L 607.532578 86.117977 
L 608.170323 88.666038 
L 608.808067 87.290126 
L 609.445812 87.493889 
L 610.083557 88.869922 
L 610.721301 87.952567 
L 611.359046 82.091939 
L 611.996791 86.016035 
L 612.634535 86.423681 
L 613.27228 86.321739 
L 613.910025 88.869922 
L 614.547769 86.525623 
L 615.185514 90.398808 
L 615.823259 83.671735 
L 616.461003 88.564097 
L 617.098748 88.309302 
L 617.736493 86.066945 
L 618.374237 86.93339 
L 619.011982 84.894795 
L 619.649726 87.442978 
L 620.287471 91.010338 
L 620.925216 88.411244 
L 621.56296 84.741943 
L 622.200705 86.219919 
L 622.83845 92.794018 
L 623.476194 84.945827 
L 624.113939 88.462276 
L 624.751684 82.856321 
L 625.389428 86.984301 
L 626.027173 89.073806 
L 626.664918 88.207361 
L 627.302662 86.93339 
L 628.578152 85.302563 
L 629.215896 84.996737 
L 629.853641 87.035211 
L 630.491386 85.863183 
L 631.12913 87.54492 
L 631.766875 85.149711 
L 632.40462 86.93339 
L 633.042364 83.620825 
L 633.680109 86.780417 
L 634.317854 87.391947 
L 634.955598 83.569793 
L 635.593343 89.838188 
L 636.231087 88.411244 
L 636.868832 83.926529 
L 637.506577 89.430542 
L 638.144321 88.971864 
L 638.782066 87.391947 
L 639.419811 85.149711 
L 640.057555 84.130413 
L 640.6953 87.442978 
L 641.333045 85.659299 
L 641.970789 85.863183 
L 642.608534 88.462276 
L 643.246279 85.965003 
L 643.884023 85.812151 
L 644.521768 88.207361 
L 645.159513 84.181323 
L 645.797257 82.856321 
L 646.435002 84.232355 
L 647.072747 83.416941 
L 647.710491 84.741943 
L 648.348236 85.506447 
L 649.623725 85.710209 
L 650.26147 87.952567 
L 650.899215 87.035211 
L 652.174704 80.002434 
L 652.812449 90.194924 
L 653.450193 88.564097 
L 654.087938 85.710209 
L 654.725682 89.226658 
L 655.363427 87.391947 
L 656.001172 82.550617 
L 656.638916 85.200621 
L 657.276661 88.411244 
L 657.914406 89.226658 
L 658.55215 86.016035 
L 659.189895 89.430542 
L 659.82764 86.576654 
L 660.465384 84.589091 
L 661.103129 84.436239 
L 661.740874 86.678475 
L 662.378618 88.10554 
L 663.016363 85.098679 
L 663.654108 86.066945 
L 664.291852 84.589091 
L 664.929597 84.028471 
L 665.567342 82.805411 
L 666.205086 82.907353 
L 666.842831 86.729507 
L 667.480576 87.188184 
L 668.756065 84.181323 
L 669.39381 88.258392 
L 670.031554 82.703469 
L 670.669299 87.54492 
L 671.307043 83.671735 
L 671.944788 88.207361 
L 672.582533 80.817848 
L 673.220277 85.047769 
L 673.858022 84.792975 
L 674.495767 85.047769 
L 675.133511 84.232355 
L 675.771256 85.251531 
L 676.409001 83.875619 
L 677.046745 84.232355 
L 677.68449 84.894795 
L 678.322235 87.188184 
L 678.959979 83.824587 
L 679.597724 82.346733 
L 680.235469 83.773677 
L 680.873213 85.659299 
L 681.510958 86.729507 
L 682.148703 83.365909 
L 682.786447 86.117977 
L 683.424192 86.117977 
L 684.061937 85.863183 
L 684.699681 85.251531 
L 685.337426 85.914093 
L 685.975171 80.461112 
L 686.612915 86.831448 
L 687.25066 85.506447 
L 687.888405 85.608267 
L 687.888405 85.608267 
" style="fill:none;stroke:#377eb8;stroke-linecap:square;stroke-width:1.5;"/>
   </g>
   <g id="line2d_32">
    <path clip-path="url(#p7ae5a3adc4)" d="M 68.533333 375.715469 
L 68.638345 374.195253 
L 68.65854 375.715469 
M 70.083594 375.715469 
L 70.551579 351.62733 
L 71.189324 364.962888 
L 71.827068 364.34747 
L 72.468492 375.715469 
M 73.290919 375.715469 
L 73.740302 341.164007 
L 74.378047 337.265914 
L 75.015792 356.140963 
L 75.653536 358.397658 
L 76.291281 351.217011 
L 76.929025 337.060694 
L 77.56677 352.447969 
L 78.204515 345.677641 
L 78.842259 365.168108 
L 79.480004 319.006404 
L 80.117749 300.951993 
L 80.755493 328.033549 
L 81.393238 296.438481 
L 82.030983 330.290365 
L 82.668727 333.36782 
L 83.173082 375.715469 
M 83.535516 375.715469 
L 85.219706 295.617843 
L 85.857451 355.525424 
L 86.495195 325.981953 
L 87.13294 328.033549 
L 87.770685 311.004997 
L 88.408429 331.316224 
L 89.683919 309.36372 
L 90.321663 363.526831 
L 90.959408 291.514529 
L 91.597153 305.055307 
L 92.872642 370.091939 
L 93.510387 286.385478 
L 94.148131 322.699277 
L 94.785876 343.831143 
L 95.42362 334.188459 
L 96.061365 320.237362 
L 97.336854 284.744201 
L 97.974599 344.446561 
L 98.612344 273.04992 
L 99.250088 335.419417 
L 99.887833 284.744201 
L 100.525578 308.543081 
L 101.163322 308.132762 
L 101.801067 292.335167 
L 102.438812 281.051206 
L 103.076556 322.699277 
L 103.714301 297.053899 
L 104.352046 300.746894 
L 104.98979 298.079758 
L 105.627535 360.039057 
L 106.26528 327.62323 
L 106.903024 315.10831 
L 107.540769 282.077065 
L 108.178514 301.977852 
L 108.816258 273.665338 
L 109.454003 303.20881 
L 110.091748 315.313409 
L 110.729492 273.04992 
L 111.367237 301.977852 
L 112.004981 282.692483 
L 112.642726 282.897703 
L 113.280471 312.441175 
L 113.918215 300.951993 
L 115.193705 231.401728 
L 115.831449 253.96965 
L 116.469194 246.994223 
L 117.106939 237.966957 
L 117.744683 251.097416 
L 118.382428 242.890909 
L 119.020173 226.682996 
L 119.657917 223.195221 
L 120.295662 243.096008 
L 120.933407 241.454731 
L 121.571151 235.299821 
L 122.208896 226.272676 
L 122.846641 225.452038 
L 123.484385 230.991408 
L 124.12213 229.555352 
L 124.759875 221.143625 
L 125.397619 242.070271 
L 126.035364 224.426179 
L 126.673109 233.043126 
L 127.310853 225.246939 
L 127.948598 253.96965 
L 128.586343 239.197915 
L 129.224087 262.586597 
L 129.861832 230.991408 
L 130.499576 230.17077 
L 131.137321 230.17077 
L 131.775066 226.888216 
L 132.41281 247.814862 
L 133.050555 231.401728 
L 133.6883 263.612335 
L 134.326044 211.91126 
L 134.963789 248.019961 
L 135.601534 230.37599 
L 136.239278 242.48059 
L 136.877023 226.888216 
L 137.514768 244.327087 
L 138.152512 235.299821 
L 138.790257 241.249632 
L 139.428002 219.092029 
L 140.065746 217.655851 
L 140.703491 209.654444 
L 141.341236 227.298535 
L 141.97898 222.990123 
L 142.616725 239.197915 
L 143.25447 245.352825 
L 143.892214 211.500941 
L 144.529959 218.886809 
L 145.167704 230.17077 
L 145.805448 220.117766 
L 146.443193 239.197915 
L 147.080937 212.321579 
L 147.718682 227.503634 
L 148.356427 219.297128 
L 148.994171 229.555352 
L 149.631916 236.735999 
L 150.269661 227.298535 
L 150.907405 225.450094 
L 151.54515 250.071557 
L 152.182895 245.968364 
L 152.820639 232.632807 
L 153.458384 211.295842 
L 154.096129 228.529493 
L 154.733873 238.582497 
L 156.009363 206.987429 
L 156.647107 239.197915 
L 157.284852 233.248225 
L 157.922597 246.173463 
L 158.560341 219.297128 
L 159.198086 218.68171 
L 159.835831 213.347438 
L 160.473575 256.021368 
L 161.11132 216.835212 
L 161.749065 220.528086 
L 162.386809 216.014574 
L 163.024554 230.37599 
L 163.662299 221.964264 
L 164.937788 245.558045 
L 165.575532 214.783616 
L 166.213277 302.593391 
L 166.851022 219.092029 
L 167.488766 246.378684 
L 168.126511 225.041719 
L 168.764256 224.01586 
L 169.402 234.889502 
L 170.039745 235.299821 
L 170.67749 223.605541 
L 171.315234 244.327087 
L 171.952979 224.22108 
L 172.590724 226.682996 
L 173.228468 218.06617 
L 173.866213 247.199322 
L 174.503958 224.6314 
L 175.141702 223.400442 
L 175.779447 259.098823 
L 176.417192 214.373297 
L 177.054936 221.964264 
L 177.692681 213.757757 
L 178.96817 188.317479 
L 179.605915 212.5268 
L 180.881404 193.446651 
L 181.519149 193.856971 
L 182.156893 197.549844 
L 182.794638 199.396341 
L 183.432383 195.498248 
L 184.070127 193.036332 
L 184.707872 208.218387 
L 185.983361 192.010473 
L 186.621106 220.117766 
L 187.258851 188.317479 
L 187.896595 184.624605 
L 188.53434 194.26729 
L 189.172085 189.753657 
L 189.809829 196.729205 
L 190.447574 192.420792 
L 191.085319 192.831112 
L 191.723063 204.115073 
L 192.998553 176.623198 
L 193.636297 190.369196 
L 194.274042 195.498248 
L 194.911787 178.059376 
L 195.549531 194.062069 
L 196.187276 185.034925 
L 196.825021 196.729205 
L 197.462765 183.598747 
L 198.10051 200.627299 
L 198.738255 203.704754 
L 199.375999 189.343337 
L 200.013744 192.831112 
L 200.651488 188.11238 
L 201.289233 191.600154 
L 201.926978 187.907159 
L 202.564722 186.471103 
L 203.202467 190.369196 
L 203.840212 187.291741 
L 205.115701 188.522699 
L 205.753446 179.290334 
L 206.39119 204.525392 
L 207.028935 182.778108 
L 207.66668 197.139524 
L 208.304424 180.726512 
L 208.942169 193.65175 
L 209.579914 195.703346 
L 210.217658 187.49684 
L 210.855403 197.139524 
L 211.493148 194.472389 
L 212.130892 186.676202 
L 212.768637 187.291741 
L 213.406382 184.624605 
L 214.044126 192.215572 
L 214.681871 189.958877 
L 215.319616 195.087928 
L 215.95736 190.163976 
L 216.595105 211.295842 
L 217.870594 175.80256 
L 218.508339 205.140932 
L 219.146083 181.136831 
L 219.783828 190.369196 
L 220.421573 184.009066 
L 221.059317 185.650464 
L 221.697062 181.752371 
L 222.334807 183.598747 
L 222.972551 189.138239 
L 223.610296 177.649057 
L 224.248041 185.240145 
L 224.885785 189.753657 
L 225.52353 204.935712 
L 226.161275 203.499655 
L 226.799019 191.600154 
L 227.436764 187.086521 
L 228.074509 177.854277 
L 229.349998 193.241431 
L 229.987743 188.933018 
L 230.625487 176.623198 
L 231.263232 177.854277 
L 231.900977 193.241431 
L 232.538721 180.931611 
L 233.176466 191.394934 
L 233.81421 200.011881 
L 234.451955 185.650464 
L 235.0897 188.522699 
L 235.727444 182.573009 
L 236.365189 218.476489 
L 237.002934 189.548558 
L 237.640678 181.136831 
L 238.278423 195.498248 
L 238.916168 201.447937 
L 239.553912 186.881422 
L 240.191657 200.21698 
L 240.829402 190.369196 
L 241.467146 178.469695 
L 242.104891 178.674916 
L 242.742636 176.828418 
L 243.38038 166.980635 
L 244.018125 173.545743 
L 244.65587 175.187141 
L 245.293614 176.212879 
L 245.931359 167.185734 
L 246.569104 174.981921 
L 247.844593 160.620505 
L 248.482338 172.725105 
L 249.120082 170.878729 
L 249.757827 167.801274 
L 250.395572 166.570194 
L 251.033316 171.955741 
L 251.671061 174.571602 
L 252.308805 168.827011 
L 252.94655 164.723819 
L 253.584295 172.314785 
L 254.222039 173.135424 
L 254.859784 164.108279 
L 255.497529 180.110972 
L 256.135273 164.928917 
L 256.773018 170.673508 
L 257.410763 164.928917 
L 258.048507 172.314785 
L 258.686252 167.390954 
L 259.323997 175.597461 
L 259.961741 163.90318 
L 260.599486 175.80256 
L 261.237231 163.492861 
L 262.51272 169.442551 
L 263.150465 174.161283 
L 263.788209 170.673508 
L 264.425954 169.23733 
L 265.063699 163.287641 
L 265.701443 179.495554 
L 266.339188 164.723819 
L 266.976933 174.981921 
L 267.614677 167.801274 
L 268.252422 157.953369 
L 268.890166 171.494147 
L 269.527911 169.85287 
L 270.165656 161.441143 
L 270.8034 166.365096 
L 271.441145 174.571602 
L 272.07889 160.415406 
L 272.716634 162.672101 
L 273.354379 161.236044 
L 273.992124 164.518598 
L 274.629868 171.494147 
L 275.267613 166.775415 
L 275.905358 165.749556 
L 276.543102 165.134138 
L 277.180847 174.366503 
L 277.818592 169.032231 
L 278.456336 169.85287 
L 279.094081 168.416692 
L 279.731826 171.289048 
L 280.36957 169.442551 
L 281.007315 169.85287 
L 281.64506 178.880015 
L 282.282804 169.442551 
L 282.920549 169.032231 
L 283.558294 168.827011 
L 284.196038 165.749556 
L 284.833783 164.313499 
L 285.471528 166.980635 
L 286.109272 173.340644 
L 286.747017 166.570194 
L 287.384761 171.494147 
L 288.022506 183.803967 
L 288.660251 166.980635 
L 289.297995 168.006373 
L 289.93574 187.907159 
L 290.573485 160.825725 
L 291.211229 170.673508 
L 291.848974 169.442551 
L 292.486719 179.495554 
L 293.124463 164.518598 
L 293.762208 170.673508 
L 294.399953 164.928917 
L 295.037697 164.723819 
L 295.675442 166.365096 
L 296.313187 181.54715 
L 296.950931 155.286233 
L 297.588676 169.85287 
L 298.226421 170.878729 
L 298.864165 180.316193 
L 300.139655 153.850177 
L 300.777399 166.775415 
L 301.415144 165.544457 
L 302.052889 170.878729 
L 302.690633 170.468409 
L 303.328378 166.980635 
L 303.966122 169.442551 
L 304.603867 169.032231 
L 305.241612 163.287641 
L 305.879356 159.594767 
L 306.517101 158.568909 
L 307.154846 157.953369 
L 307.79259 157.13273 
L 308.430335 161.646364 
L 309.06808 158.363688 
L 309.705824 155.696552 
L 310.343569 157.13273 
L 310.981314 163.287641 
L 311.619058 152.824318 
L 312.256803 163.90318 
L 312.894548 158.979228 
L 313.532292 171.494147 
L 314.807782 155.696552 
L 315.445526 155.696552 
L 316.083271 166.980635 
L 316.721016 165.749556 
L 317.35876 160.825725 
L 317.996505 161.646364 
L 318.63425 152.413998 
L 319.271994 156.517312 
L 319.909739 156.106993 
L 320.547484 154.465595 
L 321.185228 162.672101 
L 321.822973 157.54305 
L 322.460717 161.030824 
L 323.736207 151.38814 
L 324.373951 158.158589 
L 325.649441 147.490046 
L 326.287185 162.877321 
L 326.92493 166.365096 
L 327.562675 149.131445 
L 328.838164 156.106993 
L 329.475909 165.544457 
L 330.113653 152.619219 
L 330.751398 157.337951 
L 331.389143 154.055275 
L 332.026887 160.005087 
L 332.664632 148.105586 
L 333.302377 169.23733 
L 333.940121 161.030824 
L 334.577866 154.465595 
L 335.215611 158.568909 
L 335.853355 152.003679 
L 336.4911 162.056683 
L 337.128845 162.877321 
L 337.766589 153.029538 
L 338.404334 168.211593 
L 339.042078 156.312092 
L 339.679823 156.927632 
L 340.317568 159.799866 
L 340.955312 157.953369 
L 341.593057 159.594767 
L 342.230802 158.568909 
L 342.868546 166.570194 
L 343.506291 156.517312 
L 344.144036 163.69796 
L 344.78178 158.774007 
L 345.419525 164.928917 
L 346.05727 158.979228 
L 346.695014 160.210185 
L 347.332759 159.389547 
L 347.970504 162.056683 
L 348.608248 160.005087 
L 349.245993 163.492861 
L 349.883738 164.108279 
L 350.521482 157.74827 
L 351.159227 159.092591 
L 351.796972 165.749556 
L 352.434716 160.620505 
L 353.072461 161.236044 
L 353.710206 165.544457 
L 354.34795 158.158589 
L 354.985695 168.211593 
L 355.62344 160.620505 
L 356.261184 163.08242 
L 356.898929 156.517312 
L 357.536673 163.69796 
L 358.174418 165.339237 
L 358.812163 168.416692 
L 359.449907 157.953369 
L 360.087652 162.056683 
L 360.725397 160.210185 
L 361.363141 155.081134 
L 362.000886 168.827011 
L 362.638631 161.441143 
L 363.276375 162.877321 
L 363.91412 159.184327 
L 364.551865 159.184327 
L 365.189609 160.005087 
L 365.827354 158.363688 
L 366.465099 162.261782 
L 367.102843 152.619219 
L 367.740588 162.056683 
L 368.378333 150.97782 
L 369.016077 168.006373 
L 369.653822 151.59336 
L 370.291567 159.594767 
L 370.929311 144.002272 
L 371.567056 159.389547 
L 372.204801 149.336543 
L 372.842545 164.518598 
L 373.48029 151.183041 
L 374.118034 154.875914 
L 374.755779 153.850177 
L 375.393524 157.953369 
L 376.031268 151.798459 
L 376.669013 159.389547 
L 377.306758 160.620505 
L 377.944502 162.261782 
L 378.582247 151.38814 
L 379.219992 157.953369 
L 379.857736 154.670815 
L 380.495481 164.928917 
L 381.133226 154.670815 
L 381.77097 151.798459 
L 382.408715 158.568909 
L 383.04646 162.467002 
L 383.684204 155.491453 
L 384.321949 164.723819 
L 385.597438 149.541764 
L 386.235183 165.954776 
L 386.872928 156.517312 
L 387.510672 165.749556 
L 388.148417 152.208778 
L 388.786162 158.158589 
L 389.423906 150.362402 
L 390.061651 147.284947 
L 390.699396 159.594767 
L 391.33714 162.672101 
L 391.974885 163.08242 
L 392.612629 151.798459 
L 393.250374 157.337951 
L 393.888119 159.594767 
L 394.525863 156.312092 
L 395.163608 155.286233 
L 395.801353 149.746863 
L 396.439097 154.055275 
L 397.076842 160.210185 
L 397.714587 158.568909 
L 398.352331 155.491453 
L 398.990076 144.617811 
L 399.627821 162.056683 
L 400.265565 159.799866 
L 400.90331 148.515905 
L 401.541055 155.696552 
L 402.178799 158.568909 
L 402.816544 158.774007 
L 403.454289 155.696552 
L 404.092033 163.08242 
L 404.729778 145.848769 
L 405.367523 152.824318 
L 406.005267 153.850177 
L 406.643012 151.38814 
L 407.280757 160.415406 
L 407.918501 144.207492 
L 408.556246 156.312092 
L 409.19399 158.774007 
L 409.831735 154.055275 
L 410.46948 165.134138 
L 411.107224 144.002272 
L 411.744969 160.415406 
L 412.382714 160.825725 
L 413.020458 155.901773 
L 413.658203 155.286233 
L 414.295948 165.339237 
L 414.933692 139.28354 
L 415.571437 154.260496 
L 416.209182 153.029538 
L 416.846926 158.363688 
L 417.484671 159.184327 
L 418.122416 151.38814 
L 418.76016 157.54305 
L 419.397905 150.772721 
L 420.03565 152.824318 
L 420.673394 154.055275 
L 421.311139 151.183041 
L 421.948884 156.106993 
L 422.586628 154.465595 
L 423.224373 153.439857 
L 423.862118 154.465595 
L 424.499862 150.567501 
L 425.137607 157.337951 
L 425.775352 153.644956 
L 427.050841 155.696552 
L 427.688585 153.644956 
L 428.32633 146.874628 
L 428.964075 157.337951 
L 429.601819 153.439857 
L 430.239564 155.286233 
L 430.877309 151.798459 
L 431.515053 151.183041 
L 432.152798 160.415406 
L 432.790543 155.286233 
L 433.428287 153.644956 
L 434.703777 146.053989 
L 435.341521 151.38814 
L 435.979266 154.055275 
L 436.617011 148.310685 
L 437.254755 154.055275 
L 437.8925 146.669408 
L 438.530245 156.927632 
L 439.167989 145.43845 
L 439.805734 155.901773 
L 440.443479 146.259088 
L 441.081223 152.619219 
L 441.718968 147.900365 
L 442.356713 150.567501 
L 442.994457 149.541764 
L 443.632202 147.490046 
L 444.269946 153.439857 
L 444.907691 146.259088 
L 445.545436 150.97782 
L 446.18318 149.541764 
L 446.820925 146.874628 
L 447.45867 148.515905 
L 448.096414 154.875914 
L 448.734159 155.696552 
L 449.371904 150.567501 
L 450.009648 153.029538 
L 450.647393 153.234637 
L 451.285138 151.538076 
L 452.560627 147.079727 
L 453.198372 149.746863 
L 453.836116 149.746863 
L 454.473861 153.850177 
L 455.111606 146.874628 
L 455.74935 151.59336 
L 456.387095 153.644956 
L 457.02484 148.105586 
L 457.662584 152.619219 
L 458.300329 152.824318 
L 458.938074 146.669408 
L 459.575818 148.105586 
L 460.213563 147.284947 
L 460.851308 152.003679 
L 461.489052 153.644956 
L 462.126797 156.927632 
L 462.764541 150.362402 
L 463.402286 150.362402 
L 464.040031 149.541764 
L 464.677775 149.746863 
L 465.31552 154.260496 
L 465.953265 154.875914 
L 466.591009 150.772721 
L 467.228754 155.491453 
L 467.866499 148.105586 
L 468.504243 154.670815 
L 469.141988 149.336543 
L 469.779733 153.850177 
L 470.417477 154.055275 
L 471.055222 146.464309 
L 471.692967 157.54305 
L 472.330711 149.131445 
L 472.968456 150.97782 
L 473.606201 149.131445 
L 474.243945 158.568909 
L 474.88169 149.952083 
L 475.519435 147.900365 
L 476.157179 148.515905 
L 476.794924 147.079727 
L 478.070413 153.644956 
L 478.708158 149.746863 
L 479.345902 152.003679 
L 479.983647 149.952083 
L 480.621392 144.617811 
L 481.259136 149.746863 
L 481.896881 150.97782 
L 482.534626 151.798459 
L 483.17237 154.260496 
L 483.810115 152.413998 
L 484.44786 147.490046 
L 485.085604 150.97782 
L 485.723349 149.336543 
L 486.361094 150.772721 
L 486.998838 148.926224 
L 487.636583 146.464309 
L 488.274328 142.976534 
L 488.912072 153.644956 
L 489.549817 149.541764 
L 490.187562 147.490046 
L 490.825306 153.029538 
L 491.463051 145.028131 
L 492.100796 155.286233 
L 492.73854 157.13273 
L 493.376285 139.28354 
L 494.01403 158.158589 
L 494.651774 154.875914 
L 495.289519 143.797173 
L 495.927264 157.953369 
L 496.565008 148.310685 
L 497.202753 148.105586 
L 497.840497 153.234637 
L 498.478242 150.362402 
L 499.115987 141.335257 
L 499.753731 156.312092 
L 500.391476 146.259088 
L 501.029221 153.234637 
L 501.666965 145.848769 
L 502.30471 145.233351 
L 502.942455 148.515905 
L 503.580199 157.74827 
L 504.217944 146.053989 
L 504.855689 145.64367 
L 505.493433 144.412591 
L 506.131178 153.029538 
L 506.768923 149.131445 
L 507.406667 150.362402 
L 508.044412 144.207492 
L 508.682157 155.696552 
L 509.319901 146.669408 
L 509.957646 152.824318 
L 510.595391 150.157182 
L 511.233135 146.874628 
L 511.87088 140.924817 
L 512.508625 152.003679 
L 513.146369 154.875914 
L 513.784114 137.437042 
L 514.421858 158.568909 
L 515.059603 147.079727 
L 515.697348 152.619219 
L 516.335092 151.183041 
L 516.972837 144.617811 
L 517.610582 144.617811 
L 518.248326 156.312092 
L 518.886071 149.541764 
L 519.523816 140.924817 
L 520.16156 149.336543 
L 520.799305 154.260496 
L 521.43705 146.669408 
L 522.074794 149.746863 
L 522.712539 145.028131 
L 523.350284 147.079727 
L 523.988028 148.721125 
L 524.625773 142.566215 
L 525.263518 156.312092 
L 525.901262 148.105586 
L 526.539007 150.362402 
L 527.176752 148.310685 
L 527.814496 146.874628 
L 528.452241 154.260496 
L 529.089986 142.360995 
L 529.72773 147.900365 
L 530.365475 150.362402 
L 531.003219 147.695266 
L 531.640964 145.64367 
L 532.278709 148.310685 
L 532.916453 147.695266 
L 533.554198 150.157182 
L 534.191943 153.850177 
L 534.829687 144.002272 
L 535.467432 154.465595 
L 536.105177 149.746863 
L 536.742921 149.131445 
L 537.380666 148.310685 
L 538.018411 146.874628 
L 538.656155 148.926224 
L 539.2939 145.43845 
L 539.931645 153.234637 
L 540.569389 146.259088 
L 541.207134 149.746863 
L 541.844879 145.028131 
L 542.482623 150.97782 
L 543.120368 154.465595 
L 543.758113 149.952083 
L 544.395857 151.183041 
L 545.033602 149.746863 
L 545.671347 152.413998 
L 546.309091 150.157182 
L 546.946836 150.567501 
L 547.584581 151.38814 
L 548.222325 154.260496 
L 548.86007 151.59336 
L 549.497814 151.798459 
L 550.135559 148.310685 
L 550.773304 148.721125 
L 551.411048 150.313072 
L 552.048793 151.59336 
L 552.686538 150.157182 
L 553.324282 146.874628 
L 553.962027 150.362402 
L 554.599772 150.97782 
L 555.237516 148.721125 
L 555.875261 150.157182 
L 556.513006 153.850177 
L 557.15075 151.798459 
L 557.788495 150.97782 
L 558.42624 151.38814 
L 559.063984 151.59336 
L 559.701729 149.131445 
L 560.339474 148.515905 
L 560.977218 154.055275 
L 561.614963 148.515905 
L 562.252708 150.772721 
L 562.890452 150.567501 
L 563.528197 145.848769 
L 564.803686 153.439857 
L 565.441431 150.772721 
L 566.079175 151.798459 
L 566.71692 152.003679 
L 567.354665 147.695266 
L 567.992409 151.59336 
L 568.630154 145.028131 
L 569.267899 158.979228 
L 569.905643 144.82291 
L 570.543388 152.619219 
L 571.181133 154.465595 
L 571.818877 148.515905 
L 572.456622 151.38814 
L 573.094367 150.362402 
L 573.732111 152.413998 
L 574.369856 148.721125 
L 575.007601 148.721125 
L 575.645345 153.439857 
L 576.28309 149.336543 
L 576.920835 147.284947 
L 577.558579 153.439857 
L 578.196324 145.64367 
L 578.834069 145.028131 
L 579.471813 156.312092 
L 580.109558 145.64367 
L 580.747303 153.439857 
L 581.385047 143.181633 
L 582.022792 150.362402 
L 582.660537 139.48876 
L 583.298281 157.13273 
L 583.936026 148.721125 
L 585.84926 145.848769 
L 586.487004 156.312092 
L 587.124749 145.848769 
L 587.762494 146.669408 
L 588.400238 159.184327 
L 589.037983 136.411305 
L 589.675728 150.157182 
L 590.313472 150.97782 
L 590.951217 148.926224 
L 591.588962 152.824318 
L 592.226706 149.131445 
L 592.864451 151.38814 
L 593.502196 149.336543 
L 594.13994 149.541764 
L 594.777685 158.979228 
L 595.41543 144.412591 
L 596.053174 143.181633 
L 597.328664 151.38814 
L 597.966408 152.208778 
L 598.604153 147.900365 
L 599.241898 155.286233 
L 599.879642 146.259088 
L 600.517387 151.59336 
L 601.155131 141.130037 
L 601.792876 158.979228 
L 602.430621 146.874628 
L 603.068365 147.284947 
L 603.70611 150.772721 
L 604.343855 138.257802 
L 604.981599 159.799866 
L 605.619344 148.105586 
L 606.257089 151.59336 
L 606.894833 141.950676 
L 607.532578 151.59336 
L 608.170323 152.824318 
L 608.808067 148.310685 
L 609.445812 149.952083 
L 610.083557 156.927632 
L 610.721301 141.540356 
L 611.359046 152.003679 
L 611.996791 158.363688 
L 612.634535 141.540356 
L 613.27228 156.927632 
L 613.910025 143.591953 
L 614.547769 151.798459 
L 615.185514 149.952083 
L 615.823259 142.155896 
L 616.461003 153.029538 
L 617.098748 157.13273 
L 617.736493 143.386854 
L 619.011982 152.413998 
L 619.649726 145.43845 
L 620.287471 152.208778 
L 620.925216 143.591953 
L 621.56296 143.386854 
L 622.200705 156.927632 
L 623.476194 141.130037 
L 624.113939 157.54305 
L 624.751684 147.695266 
L 625.389428 151.798459 
L 626.027173 144.207492 
L 626.664918 150.97782 
L 627.302662 145.64367 
L 627.940407 150.157182 
L 628.578152 147.284947 
L 629.215896 147.490046 
L 629.853641 153.234637 
L 630.491386 143.386854 
L 631.12913 155.901773 
L 631.766875 144.617811 
L 632.40462 145.233351 
L 633.042364 152.619219 
L 633.680109 148.515905 
L 634.317854 149.131445 
L 634.955598 145.64367 
L 635.593343 149.336543 
L 636.231087 148.310685 
L 636.868832 148.515905 
L 637.506577 145.43845 
L 638.144321 150.157182 
L 638.782066 148.310685 
L 639.419811 149.952083 
L 640.057555 146.874628 
L 640.6953 151.38814 
L 641.333045 149.131445 
L 641.970789 144.207492 
L 642.608534 152.208778 
L 643.246279 147.695266 
L 643.884023 148.721125 
L 644.521768 150.772721 
L 645.159513 149.952083 
L 645.797257 147.900365 
L 646.435002 145.43845 
L 647.072747 147.284947 
L 647.710491 146.669408 
L 648.348236 147.284947 
L 648.985981 147.490046 
L 649.623725 149.131445 
L 650.26147 146.259088 
L 650.899215 149.746863 
L 651.536959 147.25044 
L 652.174704 148.721125 
L 652.812449 147.490046 
L 653.450193 148.310685 
L 654.087938 149.541764 
L 654.725682 146.053989 
L 655.363427 150.772721 
L 656.001172 148.310685 
L 656.638916 151.798459 
L 657.276661 146.464309 
L 657.914406 153.644956 
L 658.55215 150.157182 
L 659.189895 148.926224 
L 659.82764 145.43845 
L 660.465384 152.619219 
L 661.103129 146.669408 
L 661.740874 145.64367 
L 662.378618 150.567501 
L 663.016363 147.490046 
L 663.654108 147.490046 
L 664.291852 145.43845 
L 664.929597 148.926224 
L 665.567342 147.900365 
L 666.205086 150.157182 
L 666.842831 149.746863 
L 667.480576 149.746863 
L 668.11832 144.412591 
L 668.756065 146.259088 
L 669.39381 150.772721 
L 670.031554 147.900365 
L 670.669299 146.259088 
L 671.307043 146.464309 
L 671.944788 151.59336 
L 672.582533 149.336543 
L 673.220277 146.464309 
L 673.858022 151.183041 
L 674.495767 148.310685 
L 675.133511 151.798459 
L 675.771256 148.515905 
L 676.409001 150.157182 
L 677.046745 149.952083 
L 677.68449 144.002272 
L 678.322235 147.284947 
L 678.959979 152.003679 
L 679.597724 144.412591 
L 680.235469 154.055275 
L 680.873213 145.64367 
L 681.510958 150.97782 
L 682.148703 145.64367 
L 682.786447 149.746863 
L 683.424192 149.541764 
L 684.061937 143.386854 
L 684.699681 152.619219 
L 685.337426 139.899079 
L 685.975171 150.567501 
L 686.612915 154.670815 
L 687.25066 142.155896 
L 687.888405 145.848769 
L 687.888405 145.848769 
" style="fill:none;stroke:#4daf4a;stroke-linecap:square;stroke-width:1.5;"/>
   </g>
   <g id="patch_3">
    <path d="M 50.14375 337.159219 
L 50.14375 10.999219 
" style="fill:none;stroke:#000000;stroke-linecap:square;stroke-linejoin:miter;stroke-width:0.8;"/>
   </g>
   <g id="patch_4">
    <path d="M 719.74375 337.159219 
L 719.74375 10.999219 
" style="fill:none;stroke:#000000;stroke-linecap:square;stroke-linejoin:miter;stroke-width:0.8;"/>
   </g>
   <g id="patch_5">
    <path d="M 50.14375 337.159219 
L 719.74375 337.159219 
" style="fill:none;stroke:#000000;stroke-linecap:square;stroke-linejoin:miter;stroke-width:0.8;"/>
   </g>
   <g id="patch_6">
    <path d="M 50.14375 10.999219 
L 719.74375 10.999219 
" style="fill:none;stroke:#000000;stroke-linecap:square;stroke-linejoin:miter;stroke-width:0.8;"/>
   </g>
   <g id="legend_1">
    <g id="patch_7">
     <path d="M 57.14375 48.355469 
L 114.584375 48.355469 
Q 116.584375 48.355469 116.584375 46.355469 
L 116.584375 17.999219 
Q 116.584375 15.999219 114.584375 15.999219 
L 57.14375 15.999219 
Q 55.14375 15.999219 55.14375 17.999219 
L 55.14375 46.355469 
Q 55.14375 48.355469 57.14375 48.355469 
z
" style="fill:#ffffff;opacity:0.8;stroke:#cccccc;stroke-linejoin:miter;"/>
    </g>
    <g id="line2d_33">
     <path d="M 59.14375 24.097656 
L 79.14375 24.097656 
" style="fill:none;stroke:#377eb8;stroke-linecap:square;stroke-width:1.5;"/>
    </g>
    <g id="line2d_34"/>
    <g id="text_18">
     <!-- Train -->
     <defs>
      <path d="M -0.296875 72.90625 
L 61.375 72.90625 
L 61.375 64.59375 
L 35.5 64.59375 
L 35.5 0 
L 25.59375 0 
L 25.59375 64.59375 
L -0.296875 64.59375 
z
" id="DejaVuSans-84"/>
      <path d="M 9.421875 54.6875 
L 18.40625 54.6875 
L 18.40625 0 
L 9.421875 0 
z
M 9.421875 75.984375 
L 18.40625 75.984375 
L 18.40625 64.59375 
L 9.421875 64.59375 
z
" id="DejaVuSans-105"/>
      <path d="M 54.890625 33.015625 
L 54.890625 0 
L 45.90625 0 
L 45.90625 32.71875 
Q 45.90625 40.484375 42.875 44.328125 
Q 39.84375 48.1875 33.796875 48.1875 
Q 26.515625 48.1875 22.3125 43.546875 
Q 18.109375 38.921875 18.109375 30.90625 
L 18.109375 0 
L 9.078125 0 
L 9.078125 54.6875 
L 18.109375 54.6875 
L 18.109375 46.1875 
Q 21.34375 51.125 25.703125 53.5625 
Q 30.078125 56 35.796875 56 
Q 45.21875 56 50.046875 50.171875 
Q 54.890625 44.34375 54.890625 33.015625 
z
" id="DejaVuSans-110"/>
     </defs>
     <g transform="translate(87.14375 27.597656)scale(0.1 -0.1)">
      <use xlink:href="#DejaVuSans-84"/>
      <use x="60.865234" xlink:href="#DejaVuSans-114"/>
      <use x="101.978516" xlink:href="#DejaVuSans-97"/>
      <use x="163.257812" xlink:href="#DejaVuSans-105"/>
      <use x="191.041016" xlink:href="#DejaVuSans-110"/>
     </g>
    </g>
    <g id="line2d_35">
     <path d="M 59.14375 38.775781 
L 79.14375 38.775781 
" style="fill:none;stroke:#4daf4a;stroke-linecap:square;stroke-width:1.5;"/>
    </g>
    <g id="line2d_36"/>
    <g id="text_19">
     <!-- Test -->
     <defs>
      <path d="M 56.203125 29.59375 
L 56.203125 25.203125 
L 14.890625 25.203125 
Q 15.484375 15.921875 20.484375 11.0625 
Q 25.484375 6.203125 34.421875 6.203125 
Q 39.59375 6.203125 44.453125 7.46875 
Q 49.3125 8.734375 54.109375 11.28125 
L 54.109375 2.78125 
Q 49.265625 0.734375 44.1875 -0.34375 
Q 39.109375 -1.421875 33.890625 -1.421875 
Q 20.796875 -1.421875 13.15625 6.1875 
Q 5.515625 13.8125 5.515625 26.8125 
Q 5.515625 40.234375 12.765625 48.109375 
Q 20.015625 56 32.328125 56 
Q 43.359375 56 49.78125 48.890625 
Q 56.203125 41.796875 56.203125 29.59375 
z
M 47.21875 32.234375 
Q 47.125 39.59375 43.09375 43.984375 
Q 39.0625 48.390625 32.421875 48.390625 
Q 24.90625 48.390625 20.390625 44.140625 
Q 15.875 39.890625 15.1875 32.171875 
z
" id="DejaVuSans-101"/>
      <path d="M 44.28125 53.078125 
L 44.28125 44.578125 
Q 40.484375 46.53125 36.375 47.5 
Q 32.28125 48.484375 27.875 48.484375 
Q 21.1875 48.484375 17.84375 46.4375 
Q 14.5 44.390625 14.5 40.28125 
Q 14.5 37.15625 16.890625 35.375 
Q 19.28125 33.59375 26.515625 31.984375 
L 29.59375 31.296875 
Q 39.15625 29.25 43.1875 25.515625 
Q 47.21875 21.78125 47.21875 15.09375 
Q 47.21875 7.46875 41.1875 3.015625 
Q 35.15625 -1.421875 24.609375 -1.421875 
Q 20.21875 -1.421875 15.453125 -0.5625 
Q 10.6875 0.296875 5.421875 2 
L 5.421875 11.28125 
Q 10.40625 8.6875 15.234375 7.390625 
Q 20.0625 6.109375 24.8125 6.109375 
Q 31.15625 6.109375 34.5625 8.28125 
Q 37.984375 10.453125 37.984375 14.40625 
Q 37.984375 18.0625 35.515625 20.015625 
Q 33.0625 21.96875 24.703125 23.78125 
L 21.578125 24.515625 
Q 13.234375 26.265625 9.515625 29.90625 
Q 5.8125 33.546875 5.8125 39.890625 
Q 5.8125 47.609375 11.28125 51.796875 
Q 16.75 56 26.8125 56 
Q 31.78125 56 36.171875 55.265625 
Q 40.578125 54.546875 44.28125 53.078125 
z
" id="DejaVuSans-115"/>
      <path d="M 18.3125 70.21875 
L 18.3125 54.6875 
L 36.8125 54.6875 
L 36.8125 47.703125 
L 18.3125 47.703125 
L 18.3125 18.015625 
Q 18.3125 11.328125 20.140625 9.421875 
Q 21.96875 7.515625 27.59375 7.515625 
L 36.8125 7.515625 
L 36.8125 0 
L 27.59375 0 
Q 17.1875 0 13.234375 3.875 
Q 9.28125 7.765625 9.28125 18.015625 
L 9.28125 47.703125 
L 2.6875 47.703125 
L 2.6875 54.6875 
L 9.28125 54.6875 
L 9.28125 70.21875 
z
" id="DejaVuSans-116"/>
     </defs>
     <g transform="translate(87.14375 42.275781)scale(0.1 -0.1)">
      <use xlink:href="#DejaVuSans-84"/>
      <use x="60.818359" xlink:href="#DejaVuSans-101"/>
      <use x="122.341797" xlink:href="#DejaVuSans-115"/>
      <use x="174.441406" xlink:href="#DejaVuSans-116"/>
     </g>
    </g>
   </g>
  </g>
 </g>
 <defs>
  <clipPath id="p7ae5a3adc4">
   <rect height="326.16" width="669.6" x="50.14375" y="10.999219"/>
  </clipPath>
 </defs>
</svg>
