<?xml version="1.0" encoding="utf-8" standalone="no"?>
<!DOCTYPE svg PUBLIC "-//W3C//DTD SVG 1.1//EN"
  "http://www.w3.org/Graphics/SVG/1.1/DTD/svg11.dtd">
<!-- Created with matplotlib (https://matplotlib.org/) -->
<svg height="374.715469pt" version="1.1" viewBox="0 0 726.94375 374.715469" width="726.94375pt" xmlns="http://www.w3.org/2000/svg" xmlns:xlink="http://www.w3.org/1999/xlink">
 <defs>
  <style type="text/css">
*{stroke-linecap:butt;stroke-linejoin:round;white-space:pre;}
  </style>
 </defs>
 <g id="figure_1">
  <g id="patch_1">
   <path d="M 0 374.715469 
L 726.94375 374.715469 
L 726.94375 0 
L 0 0 
z
" style="fill:#ffffff;"/>
  </g>
  <g id="axes_1">
   <g id="patch_2">
    <path d="M 50.14375 337.159219 
L 719.74375 337.159219 
L 719.74375 10.999219 
L 50.14375 10.999219 
z
" style="fill:#ffffff;"/>
   </g>
   <g id="matplotlib.axis_1">
    <g id="xtick_1">
     <g id="line2d_1">
      <path clip-path="url(#p349ee22e40)" d="M 50.14375 337.159219 
L 50.14375 10.999219 
" style="fill:none;stroke:#b0b0b0;stroke-linecap:square;stroke-width:0.8;"/>
     </g>
     <g id="line2d_2">
      <defs>
       <path d="M 0 0 
L 0 3.5 
" id="m093d22f1f6" style="stroke:#000000;stroke-width:0.8;"/>
      </defs>
      <g>
       <use style="stroke:#000000;stroke-width:0.8;" x="50.14375" xlink:href="#m093d22f1f6" y="337.159219"/>
      </g>
     </g>
     <g id="text_1">
      <!-- 0 -->
      <defs>
       <path d="M 31.78125 66.40625 
Q 24.171875 66.40625 20.328125 58.90625 
Q 16.5 51.421875 16.5 36.375 
Q 16.5 21.390625 20.328125 13.890625 
Q 24.171875 6.390625 31.78125 6.390625 
Q 39.453125 6.390625 43.28125 13.890625 
Q 47.125 21.390625 47.125 36.375 
Q 47.125 51.421875 43.28125 58.90625 
Q 39.453125 66.40625 31.78125 66.40625 
z
M 31.78125 74.21875 
Q 44.046875 74.21875 50.515625 64.515625 
Q 56.984375 54.828125 56.984375 36.375 
Q 56.984375 17.96875 50.515625 8.265625 
Q 44.046875 -1.421875 31.78125 -1.421875 
Q 19.53125 -1.421875 13.0625 8.265625 
Q 6.59375 17.96875 6.59375 36.375 
Q 6.59375 54.828125 13.0625 64.515625 
Q 19.53125 74.21875 31.78125 74.21875 
z
" id="DejaVuSans-48"/>
      </defs>
      <g transform="translate(46.9625 351.757656)scale(0.1 -0.1)">
       <use xlink:href="#DejaVuSans-48"/>
      </g>
     </g>
    </g>
    <g id="xtick_2">
     <g id="line2d_3">
      <path clip-path="url(#p349ee22e40)" d="M 177.698755 337.159219 
L 177.698755 10.999219 
" style="fill:none;stroke:#b0b0b0;stroke-linecap:square;stroke-width:0.8;"/>
     </g>
     <g id="line2d_4">
      <g>
       <use style="stroke:#000000;stroke-width:0.8;" x="177.698755" xlink:href="#m093d22f1f6" y="337.159219"/>
      </g>
     </g>
     <g id="text_2">
      <!-- 100 -->
      <defs>
       <path d="M 12.40625 8.296875 
L 28.515625 8.296875 
L 28.515625 63.921875 
L 10.984375 60.40625 
L 10.984375 69.390625 
L 28.421875 72.90625 
L 38.28125 72.90625 
L 38.28125 8.296875 
L 54.390625 8.296875 
L 54.390625 0 
L 12.40625 0 
z
" id="DejaVuSans-49"/>
      </defs>
      <g transform="translate(168.155005 351.757656)scale(0.1 -0.1)">
       <use xlink:href="#DejaVuSans-49"/>
       <use x="63.623047" xlink:href="#DejaVuSans-48"/>
       <use x="127.246094" xlink:href="#DejaVuSans-48"/>
      </g>
     </g>
    </g>
    <g id="xtick_3">
     <g id="line2d_5">
      <path clip-path="url(#p349ee22e40)" d="M 305.25376 337.159219 
L 305.25376 10.999219 
" style="fill:none;stroke:#b0b0b0;stroke-linecap:square;stroke-width:0.8;"/>
     </g>
     <g id="line2d_6">
      <g>
       <use style="stroke:#000000;stroke-width:0.8;" x="305.25376" xlink:href="#m093d22f1f6" y="337.159219"/>
      </g>
     </g>
     <g id="text_3">
      <!-- 200 -->
      <defs>
       <path d="M 19.1875 8.296875 
L 53.609375 8.296875 
L 53.609375 0 
L 7.328125 0 
L 7.328125 8.296875 
Q 12.9375 14.109375 22.625 23.890625 
Q 32.328125 33.6875 34.8125 36.53125 
Q 39.546875 41.84375 41.421875 45.53125 
Q 43.3125 49.21875 43.3125 52.78125 
Q 43.3125 58.59375 39.234375 62.25 
Q 35.15625 65.921875 28.609375 65.921875 
Q 23.96875 65.921875 18.8125 64.3125 
Q 13.671875 62.703125 7.8125 59.421875 
L 7.8125 69.390625 
Q 13.765625 71.78125 18.9375 73 
Q 24.125 74.21875 28.421875 74.21875 
Q 39.75 74.21875 46.484375 68.546875 
Q 53.21875 62.890625 53.21875 53.421875 
Q 53.21875 48.921875 51.53125 44.890625 
Q 49.859375 40.875 45.40625 35.40625 
Q 44.1875 33.984375 37.640625 27.21875 
Q 31.109375 20.453125 19.1875 8.296875 
z
" id="DejaVuSans-50"/>
      </defs>
      <g transform="translate(295.71001 351.757656)scale(0.1 -0.1)">
       <use xlink:href="#DejaVuSans-50"/>
       <use x="63.623047" xlink:href="#DejaVuSans-48"/>
       <use x="127.246094" xlink:href="#DejaVuSans-48"/>
      </g>
     </g>
    </g>
    <g id="xtick_4">
     <g id="line2d_7">
      <path clip-path="url(#p349ee22e40)" d="M 432.808766 337.159219 
L 432.808766 10.999219 
" style="fill:none;stroke:#b0b0b0;stroke-linecap:square;stroke-width:0.8;"/>
     </g>
     <g id="line2d_8">
      <g>
       <use style="stroke:#000000;stroke-width:0.8;" x="432.808766" xlink:href="#m093d22f1f6" y="337.159219"/>
      </g>
     </g>
     <g id="text_4">
      <!-- 300 -->
      <defs>
       <path d="M 40.578125 39.3125 
Q 47.65625 37.796875 51.625 33 
Q 55.609375 28.21875 55.609375 21.1875 
Q 55.609375 10.40625 48.1875 4.484375 
Q 40.765625 -1.421875 27.09375 -1.421875 
Q 22.515625 -1.421875 17.65625 -0.515625 
Q 12.796875 0.390625 7.625 2.203125 
L 7.625 11.71875 
Q 11.71875 9.328125 16.59375 8.109375 
Q 21.484375 6.890625 26.8125 6.890625 
Q 36.078125 6.890625 40.9375 10.546875 
Q 45.796875 14.203125 45.796875 21.1875 
Q 45.796875 27.640625 41.28125 31.265625 
Q 36.765625 34.90625 28.71875 34.90625 
L 20.21875 34.90625 
L 20.21875 43.015625 
L 29.109375 43.015625 
Q 36.375 43.015625 40.234375 45.921875 
Q 44.09375 48.828125 44.09375 54.296875 
Q 44.09375 59.90625 40.109375 62.90625 
Q 36.140625 65.921875 28.71875 65.921875 
Q 24.65625 65.921875 20.015625 65.03125 
Q 15.375 64.15625 9.8125 62.3125 
L 9.8125 71.09375 
Q 15.4375 72.65625 20.34375 73.4375 
Q 25.25 74.21875 29.59375 74.21875 
Q 40.828125 74.21875 47.359375 69.109375 
Q 53.90625 64.015625 53.90625 55.328125 
Q 53.90625 49.265625 50.4375 45.09375 
Q 46.96875 40.921875 40.578125 39.3125 
z
" id="DejaVuSans-51"/>
      </defs>
      <g transform="translate(423.265016 351.757656)scale(0.1 -0.1)">
       <use xlink:href="#DejaVuSans-51"/>
       <use x="63.623047" xlink:href="#DejaVuSans-48"/>
       <use x="127.246094" xlink:href="#DejaVuSans-48"/>
      </g>
     </g>
    </g>
    <g id="xtick_5">
     <g id="line2d_9">
      <path clip-path="url(#p349ee22e40)" d="M 560.363771 337.159219 
L 560.363771 10.999219 
" style="fill:none;stroke:#b0b0b0;stroke-linecap:square;stroke-width:0.8;"/>
     </g>
     <g id="line2d_10">
      <g>
       <use style="stroke:#000000;stroke-width:0.8;" x="560.363771" xlink:href="#m093d22f1f6" y="337.159219"/>
      </g>
     </g>
     <g id="text_5">
      <!-- 400 -->
      <defs>
       <path d="M 37.796875 64.3125 
L 12.890625 25.390625 
L 37.796875 25.390625 
z
M 35.203125 72.90625 
L 47.609375 72.90625 
L 47.609375 25.390625 
L 58.015625 25.390625 
L 58.015625 17.1875 
L 47.609375 17.1875 
L 47.609375 0 
L 37.796875 0 
L 37.796875 17.1875 
L 4.890625 17.1875 
L 4.890625 26.703125 
z
" id="DejaVuSans-52"/>
      </defs>
      <g transform="translate(550.820021 351.757656)scale(0.1 -0.1)">
       <use xlink:href="#DejaVuSans-52"/>
       <use x="63.623047" xlink:href="#DejaVuSans-48"/>
       <use x="127.246094" xlink:href="#DejaVuSans-48"/>
      </g>
     </g>
    </g>
    <g id="xtick_6">
     <g id="line2d_11">
      <path clip-path="url(#p349ee22e40)" d="M 687.918776 337.159219 
L 687.918776 10.999219 
" style="fill:none;stroke:#b0b0b0;stroke-linecap:square;stroke-width:0.8;"/>
     </g>
     <g id="line2d_12">
      <g>
       <use style="stroke:#000000;stroke-width:0.8;" x="687.918776" xlink:href="#m093d22f1f6" y="337.159219"/>
      </g>
     </g>
     <g id="text_6">
      <!-- 500 -->
      <defs>
       <path d="M 10.796875 72.90625 
L 49.515625 72.90625 
L 49.515625 64.59375 
L 19.828125 64.59375 
L 19.828125 46.734375 
Q 21.96875 47.46875 24.109375 47.828125 
Q 26.265625 48.1875 28.421875 48.1875 
Q 40.625 48.1875 47.75 41.5 
Q 54.890625 34.8125 54.890625 23.390625 
Q 54.890625 11.625 47.5625 5.09375 
Q 40.234375 -1.421875 26.90625 -1.421875 
Q 22.3125 -1.421875 17.546875 -0.640625 
Q 12.796875 0.140625 7.71875 1.703125 
L 7.71875 11.625 
Q 12.109375 9.234375 16.796875 8.0625 
Q 21.484375 6.890625 26.703125 6.890625 
Q 35.15625 6.890625 40.078125 11.328125 
Q 45.015625 15.765625 45.015625 23.390625 
Q 45.015625 31 40.078125 35.4375 
Q 35.15625 39.890625 26.703125 39.890625 
Q 22.75 39.890625 18.8125 39.015625 
Q 14.890625 38.140625 10.796875 36.28125 
z
" id="DejaVuSans-53"/>
      </defs>
      <g transform="translate(678.375026 351.757656)scale(0.1 -0.1)">
       <use xlink:href="#DejaVuSans-53"/>
       <use x="63.623047" xlink:href="#DejaVuSans-48"/>
       <use x="127.246094" xlink:href="#DejaVuSans-48"/>
      </g>
     </g>
    </g>
    <g id="text_7">
     <!-- Epoch -->
     <defs>
      <path d="M 9.8125 72.90625 
L 55.90625 72.90625 
L 55.90625 64.59375 
L 19.671875 64.59375 
L 19.671875 43.015625 
L 54.390625 43.015625 
L 54.390625 34.71875 
L 19.671875 34.71875 
L 19.671875 8.296875 
L 56.78125 8.296875 
L 56.78125 0 
L 9.8125 0 
z
" id="DejaVuSans-69"/>
      <path d="M 18.109375 8.203125 
L 18.109375 -20.796875 
L 9.078125 -20.796875 
L 9.078125 54.6875 
L 18.109375 54.6875 
L 18.109375 46.390625 
Q 20.953125 51.265625 25.265625 53.625 
Q 29.59375 56 35.59375 56 
Q 45.5625 56 51.78125 48.09375 
Q 58.015625 40.1875 58.015625 27.296875 
Q 58.015625 14.40625 51.78125 6.484375 
Q 45.5625 -1.421875 35.59375 -1.421875 
Q 29.59375 -1.421875 25.265625 0.953125 
Q 20.953125 3.328125 18.109375 8.203125 
z
M 48.6875 27.296875 
Q 48.6875 37.203125 44.609375 42.84375 
Q 40.53125 48.484375 33.40625 48.484375 
Q 26.265625 48.484375 22.1875 42.84375 
Q 18.109375 37.203125 18.109375 27.296875 
Q 18.109375 17.390625 22.1875 11.75 
Q 26.265625 6.109375 33.40625 6.109375 
Q 40.53125 6.109375 44.609375 11.75 
Q 48.6875 17.390625 48.6875 27.296875 
z
" id="DejaVuSans-112"/>
      <path d="M 30.609375 48.390625 
Q 23.390625 48.390625 19.1875 42.75 
Q 14.984375 37.109375 14.984375 27.296875 
Q 14.984375 17.484375 19.15625 11.84375 
Q 23.34375 6.203125 30.609375 6.203125 
Q 37.796875 6.203125 41.984375 11.859375 
Q 46.1875 17.53125 46.1875 27.296875 
Q 46.1875 37.015625 41.984375 42.703125 
Q 37.796875 48.390625 30.609375 48.390625 
z
M 30.609375 56 
Q 42.328125 56 49.015625 48.375 
Q 55.71875 40.765625 55.71875 27.296875 
Q 55.71875 13.875 49.015625 6.21875 
Q 42.328125 -1.421875 30.609375 -1.421875 
Q 18.84375 -1.421875 12.171875 6.21875 
Q 5.515625 13.875 5.515625 27.296875 
Q 5.515625 40.765625 12.171875 48.375 
Q 18.84375 56 30.609375 56 
z
" id="DejaVuSans-111"/>
      <path d="M 48.78125 52.59375 
L 48.78125 44.1875 
Q 44.96875 46.296875 41.140625 47.34375 
Q 37.3125 48.390625 33.40625 48.390625 
Q 24.65625 48.390625 19.8125 42.84375 
Q 14.984375 37.3125 14.984375 27.296875 
Q 14.984375 17.28125 19.8125 11.734375 
Q 24.65625 6.203125 33.40625 6.203125 
Q 37.3125 6.203125 41.140625 7.25 
Q 44.96875 8.296875 48.78125 10.40625 
L 48.78125 2.09375 
Q 45.015625 0.34375 40.984375 -0.53125 
Q 36.96875 -1.421875 32.421875 -1.421875 
Q 20.0625 -1.421875 12.78125 6.34375 
Q 5.515625 14.109375 5.515625 27.296875 
Q 5.515625 40.671875 12.859375 48.328125 
Q 20.21875 56 33.015625 56 
Q 37.15625 56 41.109375 55.140625 
Q 45.0625 54.296875 48.78125 52.59375 
z
" id="DejaVuSans-99"/>
      <path d="M 54.890625 33.015625 
L 54.890625 0 
L 45.90625 0 
L 45.90625 32.71875 
Q 45.90625 40.484375 42.875 44.328125 
Q 39.84375 48.1875 33.796875 48.1875 
Q 26.515625 48.1875 22.3125 43.546875 
Q 18.109375 38.921875 18.109375 30.90625 
L 18.109375 0 
L 9.078125 0 
L 9.078125 75.984375 
L 18.109375 75.984375 
L 18.109375 46.1875 
Q 21.34375 51.125 25.703125 53.5625 
Q 30.078125 56 35.796875 56 
Q 45.21875 56 50.046875 50.171875 
Q 54.890625 44.34375 54.890625 33.015625 
z
" id="DejaVuSans-104"/>
     </defs>
     <g transform="translate(369.632813 365.435781)scale(0.1 -0.1)">
      <use xlink:href="#DejaVuSans-69"/>
      <use x="63.183594" xlink:href="#DejaVuSans-112"/>
      <use x="126.660156" xlink:href="#DejaVuSans-111"/>
      <use x="187.841797" xlink:href="#DejaVuSans-99"/>
      <use x="242.822266" xlink:href="#DejaVuSans-104"/>
     </g>
    </g>
   </g>
   <g id="matplotlib.axis_2">
    <g id="ytick_1">
     <g id="line2d_13">
      <path clip-path="url(#p349ee22e40)" d="M 50.14375 337.159219 
L 719.74375 337.159219 
" style="fill:none;stroke:#b0b0b0;stroke-linecap:square;stroke-width:0.8;"/>
     </g>
     <g id="line2d_14">
      <defs>
       <path d="M 0 0 
L -3.5 0 
" id="m810d0594f0" style="stroke:#000000;stroke-width:0.8;"/>
      </defs>
      <g>
       <use style="stroke:#000000;stroke-width:0.8;" x="50.14375" xlink:href="#m810d0594f0" y="337.159219"/>
      </g>
     </g>
     <g id="text_8">
      <!-- 0.82 -->
      <defs>
       <path d="M 10.6875 12.40625 
L 21 12.40625 
L 21 0 
L 10.6875 0 
z
" id="DejaVuSans-46"/>
       <path d="M 31.78125 34.625 
Q 24.75 34.625 20.71875 30.859375 
Q 16.703125 27.09375 16.703125 20.515625 
Q 16.703125 13.921875 20.71875 10.15625 
Q 24.75 6.390625 31.78125 6.390625 
Q 38.8125 6.390625 42.859375 10.171875 
Q 46.921875 13.96875 46.921875 20.515625 
Q 46.921875 27.09375 42.890625 30.859375 
Q 38.875 34.625 31.78125 34.625 
z
M 21.921875 38.8125 
Q 15.578125 40.375 12.03125 44.71875 
Q 8.5 49.078125 8.5 55.328125 
Q 8.5 64.0625 14.71875 69.140625 
Q 20.953125 74.21875 31.78125 74.21875 
Q 42.671875 74.21875 48.875 69.140625 
Q 55.078125 64.0625 55.078125 55.328125 
Q 55.078125 49.078125 51.53125 44.71875 
Q 48 40.375 41.703125 38.8125 
Q 48.828125 37.15625 52.796875 32.3125 
Q 56.78125 27.484375 56.78125 20.515625 
Q 56.78125 9.90625 50.3125 4.234375 
Q 43.84375 -1.421875 31.78125 -1.421875 
Q 19.734375 -1.421875 13.25 4.234375 
Q 6.78125 9.90625 6.78125 20.515625 
Q 6.78125 27.484375 10.78125 32.3125 
Q 14.796875 37.15625 21.921875 38.8125 
z
M 18.3125 54.390625 
Q 18.3125 48.734375 21.84375 45.5625 
Q 25.390625 42.390625 31.78125 42.390625 
Q 38.140625 42.390625 41.71875 45.5625 
Q 45.3125 48.734375 45.3125 54.390625 
Q 45.3125 60.0625 41.71875 63.234375 
Q 38.140625 66.40625 31.78125 66.40625 
Q 25.390625 66.40625 21.84375 63.234375 
Q 18.3125 60.0625 18.3125 54.390625 
z
" id="DejaVuSans-56"/>
      </defs>
      <g transform="translate(20.878125 340.958437)scale(0.1 -0.1)">
       <use xlink:href="#DejaVuSans-48"/>
       <use x="63.623047" xlink:href="#DejaVuSans-46"/>
       <use x="95.410156" xlink:href="#DejaVuSans-56"/>
       <use x="159.033203" xlink:href="#DejaVuSans-50"/>
      </g>
     </g>
    </g>
    <g id="ytick_2">
     <g id="line2d_15">
      <path clip-path="url(#p349ee22e40)" d="M 50.14375 296.389219 
L 719.74375 296.389219 
" style="fill:none;stroke:#b0b0b0;stroke-linecap:square;stroke-width:0.8;"/>
     </g>
     <g id="line2d_16">
      <g>
       <use style="stroke:#000000;stroke-width:0.8;" x="50.14375" xlink:href="#m810d0594f0" y="296.389219"/>
      </g>
     </g>
     <g id="text_9">
      <!-- 0.84 -->
      <g transform="translate(20.878125 300.188437)scale(0.1 -0.1)">
       <use xlink:href="#DejaVuSans-48"/>
       <use x="63.623047" xlink:href="#DejaVuSans-46"/>
       <use x="95.410156" xlink:href="#DejaVuSans-56"/>
       <use x="159.033203" xlink:href="#DejaVuSans-52"/>
      </g>
     </g>
    </g>
    <g id="ytick_3">
     <g id="line2d_17">
      <path clip-path="url(#p349ee22e40)" d="M 50.14375 255.619219 
L 719.74375 255.619219 
" style="fill:none;stroke:#b0b0b0;stroke-linecap:square;stroke-width:0.8;"/>
     </g>
     <g id="line2d_18">
      <g>
       <use style="stroke:#000000;stroke-width:0.8;" x="50.14375" xlink:href="#m810d0594f0" y="255.619219"/>
      </g>
     </g>
     <g id="text_10">
      <!-- 0.86 -->
      <defs>
       <path d="M 33.015625 40.375 
Q 26.375 40.375 22.484375 35.828125 
Q 18.609375 31.296875 18.609375 23.390625 
Q 18.609375 15.53125 22.484375 10.953125 
Q 26.375 6.390625 33.015625 6.390625 
Q 39.65625 6.390625 43.53125 10.953125 
Q 47.40625 15.53125 47.40625 23.390625 
Q 47.40625 31.296875 43.53125 35.828125 
Q 39.65625 40.375 33.015625 40.375 
z
M 52.59375 71.296875 
L 52.59375 62.3125 
Q 48.875 64.0625 45.09375 64.984375 
Q 41.3125 65.921875 37.59375 65.921875 
Q 27.828125 65.921875 22.671875 59.328125 
Q 17.53125 52.734375 16.796875 39.40625 
Q 19.671875 43.65625 24.015625 45.921875 
Q 28.375 48.1875 33.59375 48.1875 
Q 44.578125 48.1875 50.953125 41.515625 
Q 57.328125 34.859375 57.328125 23.390625 
Q 57.328125 12.15625 50.6875 5.359375 
Q 44.046875 -1.421875 33.015625 -1.421875 
Q 20.359375 -1.421875 13.671875 8.265625 
Q 6.984375 17.96875 6.984375 36.375 
Q 6.984375 53.65625 15.1875 63.9375 
Q 23.390625 74.21875 37.203125 74.21875 
Q 40.921875 74.21875 44.703125 73.484375 
Q 48.484375 72.75 52.59375 71.296875 
z
" id="DejaVuSans-54"/>
      </defs>
      <g transform="translate(20.878125 259.418437)scale(0.1 -0.1)">
       <use xlink:href="#DejaVuSans-48"/>
       <use x="63.623047" xlink:href="#DejaVuSans-46"/>
       <use x="95.410156" xlink:href="#DejaVuSans-56"/>
       <use x="159.033203" xlink:href="#DejaVuSans-54"/>
      </g>
     </g>
    </g>
    <g id="ytick_4">
     <g id="line2d_19">
      <path clip-path="url(#p349ee22e40)" d="M 50.14375 214.849219 
L 719.74375 214.849219 
" style="fill:none;stroke:#b0b0b0;stroke-linecap:square;stroke-width:0.8;"/>
     </g>
     <g id="line2d_20">
      <g>
       <use style="stroke:#000000;stroke-width:0.8;" x="50.14375" xlink:href="#m810d0594f0" y="214.849219"/>
      </g>
     </g>
     <g id="text_11">
      <!-- 0.88 -->
      <g transform="translate(20.878125 218.648437)scale(0.1 -0.1)">
       <use xlink:href="#DejaVuSans-48"/>
       <use x="63.623047" xlink:href="#DejaVuSans-46"/>
       <use x="95.410156" xlink:href="#DejaVuSans-56"/>
       <use x="159.033203" xlink:href="#DejaVuSans-56"/>
      </g>
     </g>
    </g>
    <g id="ytick_5">
     <g id="line2d_21">
      <path clip-path="url(#p349ee22e40)" d="M 50.14375 174.079219 
L 719.74375 174.079219 
" style="fill:none;stroke:#b0b0b0;stroke-linecap:square;stroke-width:0.8;"/>
     </g>
     <g id="line2d_22">
      <g>
       <use style="stroke:#000000;stroke-width:0.8;" x="50.14375" xlink:href="#m810d0594f0" y="174.079219"/>
      </g>
     </g>
     <g id="text_12">
      <!-- 0.90 -->
      <defs>
       <path d="M 10.984375 1.515625 
L 10.984375 10.5 
Q 14.703125 8.734375 18.5 7.8125 
Q 22.3125 6.890625 25.984375 6.890625 
Q 35.75 6.890625 40.890625 13.453125 
Q 46.046875 20.015625 46.78125 33.40625 
Q 43.953125 29.203125 39.59375 26.953125 
Q 35.25 24.703125 29.984375 24.703125 
Q 19.046875 24.703125 12.671875 31.3125 
Q 6.296875 37.9375 6.296875 49.421875 
Q 6.296875 60.640625 12.9375 67.421875 
Q 19.578125 74.21875 30.609375 74.21875 
Q 43.265625 74.21875 49.921875 64.515625 
Q 56.59375 54.828125 56.59375 36.375 
Q 56.59375 19.140625 48.40625 8.859375 
Q 40.234375 -1.421875 26.421875 -1.421875 
Q 22.703125 -1.421875 18.890625 -0.6875 
Q 15.09375 0.046875 10.984375 1.515625 
z
M 30.609375 32.421875 
Q 37.25 32.421875 41.125 36.953125 
Q 45.015625 41.5 45.015625 49.421875 
Q 45.015625 57.28125 41.125 61.84375 
Q 37.25 66.40625 30.609375 66.40625 
Q 23.96875 66.40625 20.09375 61.84375 
Q 16.21875 57.28125 16.21875 49.421875 
Q 16.21875 41.5 20.09375 36.953125 
Q 23.96875 32.421875 30.609375 32.421875 
z
" id="DejaVuSans-57"/>
      </defs>
      <g transform="translate(20.878125 177.878437)scale(0.1 -0.1)">
       <use xlink:href="#DejaVuSans-48"/>
       <use x="63.623047" xlink:href="#DejaVuSans-46"/>
       <use x="95.410156" xlink:href="#DejaVuSans-57"/>
       <use x="159.033203" xlink:href="#DejaVuSans-48"/>
      </g>
     </g>
    </g>
    <g id="ytick_6">
     <g id="line2d_23">
      <path clip-path="url(#p349ee22e40)" d="M 50.14375 133.309219 
L 719.74375 133.309219 
" style="fill:none;stroke:#b0b0b0;stroke-linecap:square;stroke-width:0.8;"/>
     </g>
     <g id="line2d_24">
      <g>
       <use style="stroke:#000000;stroke-width:0.8;" x="50.14375" xlink:href="#m810d0594f0" y="133.309219"/>
      </g>
     </g>
     <g id="text_13">
      <!-- 0.92 -->
      <g transform="translate(20.878125 137.108437)scale(0.1 -0.1)">
       <use xlink:href="#DejaVuSans-48"/>
       <use x="63.623047" xlink:href="#DejaVuSans-46"/>
       <use x="95.410156" xlink:href="#DejaVuSans-57"/>
       <use x="159.033203" xlink:href="#DejaVuSans-50"/>
      </g>
     </g>
    </g>
    <g id="ytick_7">
     <g id="line2d_25">
      <path clip-path="url(#p349ee22e40)" d="M 50.14375 92.539219 
L 719.74375 92.539219 
" style="fill:none;stroke:#b0b0b0;stroke-linecap:square;stroke-width:0.8;"/>
     </g>
     <g id="line2d_26">
      <g>
       <use style="stroke:#000000;stroke-width:0.8;" x="50.14375" xlink:href="#m810d0594f0" y="92.539219"/>
      </g>
     </g>
     <g id="text_14">
      <!-- 0.94 -->
      <g transform="translate(20.878125 96.338437)scale(0.1 -0.1)">
       <use xlink:href="#DejaVuSans-48"/>
       <use x="63.623047" xlink:href="#DejaVuSans-46"/>
       <use x="95.410156" xlink:href="#DejaVuSans-57"/>
       <use x="159.033203" xlink:href="#DejaVuSans-52"/>
      </g>
     </g>
    </g>
    <g id="ytick_8">
     <g id="line2d_27">
      <path clip-path="url(#p349ee22e40)" d="M 50.14375 51.769219 
L 719.74375 51.769219 
" style="fill:none;stroke:#b0b0b0;stroke-linecap:square;stroke-width:0.8;"/>
     </g>
     <g id="line2d_28">
      <g>
       <use style="stroke:#000000;stroke-width:0.8;" x="50.14375" xlink:href="#m810d0594f0" y="51.769219"/>
      </g>
     </g>
     <g id="text_15">
      <!-- 0.96 -->
      <g transform="translate(20.878125 55.568437)scale(0.1 -0.1)">
       <use xlink:href="#DejaVuSans-48"/>
       <use x="63.623047" xlink:href="#DejaVuSans-46"/>
       <use x="95.410156" xlink:href="#DejaVuSans-57"/>
       <use x="159.033203" xlink:href="#DejaVuSans-54"/>
      </g>
     </g>
    </g>
    <g id="ytick_9">
     <g id="line2d_29">
      <path clip-path="url(#p349ee22e40)" d="M 50.14375 10.999219 
L 719.74375 10.999219 
" style="fill:none;stroke:#b0b0b0;stroke-linecap:square;stroke-width:0.8;"/>
     </g>
     <g id="line2d_30">
      <g>
       <use style="stroke:#000000;stroke-width:0.8;" x="50.14375" xlink:href="#m810d0594f0" y="10.999219"/>
      </g>
     </g>
     <g id="text_16">
      <!-- 0.98 -->
      <g transform="translate(20.878125 14.798437)scale(0.1 -0.1)">
       <use xlink:href="#DejaVuSans-48"/>
       <use x="63.623047" xlink:href="#DejaVuSans-46"/>
       <use x="95.410156" xlink:href="#DejaVuSans-57"/>
       <use x="159.033203" xlink:href="#DejaVuSans-56"/>
      </g>
     </g>
    </g>
    <g id="text_17">
     <!-- Accuracy -->
     <defs>
      <path d="M 34.1875 63.1875 
L 20.796875 26.90625 
L 47.609375 26.90625 
z
M 28.609375 72.90625 
L 39.796875 72.90625 
L 67.578125 0 
L 57.328125 0 
L 50.6875 18.703125 
L 17.828125 18.703125 
L 11.1875 0 
L 0.78125 0 
z
" id="DejaVuSans-65"/>
      <path d="M 8.5 21.578125 
L 8.5 54.6875 
L 17.484375 54.6875 
L 17.484375 21.921875 
Q 17.484375 14.15625 20.5 10.265625 
Q 23.53125 6.390625 29.59375 6.390625 
Q 36.859375 6.390625 41.078125 11.03125 
Q 45.3125 15.671875 45.3125 23.6875 
L 45.3125 54.6875 
L 54.296875 54.6875 
L 54.296875 0 
L 45.3125 0 
L 45.3125 8.40625 
Q 42.046875 3.421875 37.71875 1 
Q 33.40625 -1.421875 27.6875 -1.421875 
Q 18.265625 -1.421875 13.375 4.4375 
Q 8.5 10.296875 8.5 21.578125 
z
M 31.109375 56 
z
" id="DejaVuSans-117"/>
      <path d="M 41.109375 46.296875 
Q 39.59375 47.171875 37.8125 47.578125 
Q 36.03125 48 33.890625 48 
Q 26.265625 48 22.1875 43.046875 
Q 18.109375 38.09375 18.109375 28.8125 
L 18.109375 0 
L 9.078125 0 
L 9.078125 54.6875 
L 18.109375 54.6875 
L 18.109375 46.1875 
Q 20.953125 51.171875 25.484375 53.578125 
Q 30.03125 56 36.53125 56 
Q 37.453125 56 38.578125 55.875 
Q 39.703125 55.765625 41.0625 55.515625 
z
" id="DejaVuSans-114"/>
      <path d="M 34.28125 27.484375 
Q 23.390625 27.484375 19.1875 25 
Q 14.984375 22.515625 14.984375 16.5 
Q 14.984375 11.71875 18.140625 8.90625 
Q 21.296875 6.109375 26.703125 6.109375 
Q 34.1875 6.109375 38.703125 11.40625 
Q 43.21875 16.703125 43.21875 25.484375 
L 43.21875 27.484375 
z
M 52.203125 31.203125 
L 52.203125 0 
L 43.21875 0 
L 43.21875 8.296875 
Q 40.140625 3.328125 35.546875 0.953125 
Q 30.953125 -1.421875 24.3125 -1.421875 
Q 15.921875 -1.421875 10.953125 3.296875 
Q 6 8.015625 6 15.921875 
Q 6 25.140625 12.171875 29.828125 
Q 18.359375 34.515625 30.609375 34.515625 
L 43.21875 34.515625 
L 43.21875 35.40625 
Q 43.21875 41.609375 39.140625 45 
Q 35.0625 48.390625 27.6875 48.390625 
Q 23 48.390625 18.546875 47.265625 
Q 14.109375 46.140625 10.015625 43.890625 
L 10.015625 52.203125 
Q 14.9375 54.109375 19.578125 55.046875 
Q 24.21875 56 28.609375 56 
Q 40.484375 56 46.34375 49.84375 
Q 52.203125 43.703125 52.203125 31.203125 
z
" id="DejaVuSans-97"/>
      <path d="M 32.171875 -5.078125 
Q 28.375 -14.84375 24.75 -17.8125 
Q 21.140625 -20.796875 15.09375 -20.796875 
L 7.90625 -20.796875 
L 7.90625 -13.28125 
L 13.1875 -13.28125 
Q 16.890625 -13.28125 18.9375 -11.515625 
Q 21 -9.765625 23.484375 -3.21875 
L 25.09375 0.875 
L 2.984375 54.6875 
L 12.5 54.6875 
L 29.59375 11.921875 
L 46.6875 54.6875 
L 56.203125 54.6875 
z
" id="DejaVuSans-121"/>
     </defs>
     <g transform="translate(14.798438 196.994062)rotate(-90)scale(0.1 -0.1)">
      <use xlink:href="#DejaVuSans-65"/>
      <use x="68.392578" xlink:href="#DejaVuSans-99"/>
      <use x="123.373047" xlink:href="#DejaVuSans-99"/>
      <use x="178.353516" xlink:href="#DejaVuSans-117"/>
      <use x="241.732422" xlink:href="#DejaVuSans-114"/>
      <use x="282.845703" xlink:href="#DejaVuSans-97"/>
      <use x="344.125" xlink:href="#DejaVuSans-99"/>
      <use x="399.105469" xlink:href="#DejaVuSans-121"/>
     </g>
    </g>
   </g>
   <g id="line2d_31">
    <path clip-path="url(#p349ee22e40)" d="M 114.460305 375.715469 
L 115.196803 350.409495 
L 116.472353 336.649645 
L 117.747903 339.248739 
L 119.023453 332.368692 
L 120.299003 333.4389 
L 121.574553 328.393687 
L 122.850103 325.743562 
L 124.125653 331.60431 
L 125.401203 328.699391 
L 126.676753 322.532938 
L 127.952303 326.558975 
L 129.227853 320.443554 
L 130.503403 327.731125 
L 131.778953 319.577109 
L 133.054503 323.501326 
L 134.330053 320.596406 
L 135.605604 325.437857 
L 136.881154 317.589667 
L 138.156704 320.443554 
L 139.432254 312.238506 
L 140.707804 318.455991 
L 141.983354 317.742519 
L 143.258904 314.022186 
L 144.534454 314.786689 
L 145.810004 316.009749 
L 147.085554 309.078914 
L 148.361104 310.862594 
L 149.636654 303.116223 
L 150.912204 309.690444 
L 152.187754 307.397176 
L 153.463304 310.811562 
L 154.738854 308.212469 
L 156.014404 310.149122 
L 157.289954 309.027882 
L 158.565504 306.530731 
L 159.841055 300.975808 
L 161.116605 308.671146 
L 162.392155 303.218165 
L 163.667705 297.255596 
L 164.943255 300.46622 
L 166.218805 299.803658 
L 167.494355 295.522827 
L 168.769905 300.975808 
L 170.045455 300.211426 
L 171.321005 300.109484 
L 172.596555 301.230602 
L 173.872105 299.345102 
L 175.147655 290.171788 
L 176.423205 298.019978 
L 177.698755 289.050669 
L 178.974305 261.428907 
L 180.249855 258.269315 
L 181.525405 250.319061 
L 182.800955 249.707531 
L 184.076506 245.120995 
L 185.352056 248.178645 
L 186.627606 243.897814 
L 187.903156 248.280587 
L 189.178706 245.120995 
L 190.454256 246.751701 
L 191.729806 240.07566 
L 193.005356 240.840042 
L 194.280906 237.170741 
L 195.556456 243.541078 
L 196.832006 244.305581 
L 198.107556 241.145868 
L 199.383106 242.572812 
L 200.658656 243.490167 
L 201.934206 245.019053 
L 203.209756 239.362188 
L 205.760856 242.41996 
L 207.036406 235.845739 
L 208.311956 244.050787 
L 209.587507 243.133432 
L 210.863057 240.177602 
L 212.138607 241.400662 
L 213.414157 246.547939 
L 214.689707 234.928383 
L 215.965257 246.242113 
L 217.240807 240.177602 
L 218.516357 241.706488 
L 219.791907 234.775531 
L 221.067457 243.999756 
L 222.343007 240.432396 
L 223.618557 239.566072 
L 224.894107 243.286284 
L 226.169657 236.100533 
L 227.445207 239.311278 
L 228.720757 240.993016 
L 229.996307 239.260246 
L 231.271857 235.489003 
L 232.547407 233.603381 
L 233.822958 239.209336 
L 235.098508 237.731361 
L 236.374058 240.177602 
L 237.649608 230.749494 
L 238.925158 236.865037 
L 240.200708 233.093793 
L 241.476258 243.184342 
L 242.751808 216.989644 
L 244.027358 207.71451 
L 245.302908 206.644302 
L 246.578458 202.006613 
L 247.854008 199.917229 
L 249.129558 198.999873 
L 250.405108 199.815287 
L 251.680658 199.866197 
L 252.956208 198.439254 
L 254.231758 195.78925 
L 255.507308 196.9614 
L 256.782858 198.490285 
L 258.058409 193.495982 
L 259.333959 197.929665 
L 260.609509 195.126688 
L 261.885059 196.553632 
L 263.160609 197.725782 
L 264.436159 197.165283 
L 265.711709 201.140289 
L 266.987259 200.681611 
L 268.262809 195.279662 
L 269.538359 198.388343 
L 270.813909 191.304535 
L 272.089459 193.39404 
L 273.365009 193.037304 
L 274.640559 193.190156 
L 275.916109 197.776813 
L 277.191659 191.406477 
L 278.467209 196.044044 
L 279.742759 193.44495 
L 281.018309 195.075778 
L 282.29386 194.413216 
L 283.56941 196.044044 
L 284.84496 197.420077 
L 286.12051 190.234327 
L 287.39606 197.369046 
L 288.67161 196.145986 
L 289.94716 190.183417 
L 291.22271 194.413216 
L 292.49826 190.641973 
L 293.77381 190.947799 
L 295.04936 192.731478 
L 296.32491 191.202593 
L 297.60046 195.075778 
L 298.87601 193.648834 
L 300.15156 190.438211 
L 301.42711 191.712302 
L 302.70266 195.891192 
L 303.97821 188.960235 
L 305.25376 190.743915 
L 306.529311 176.066709 
L 307.804861 173.212822 
L 309.080411 166.995459 
L 310.355961 172.244556 
L 311.631511 167.810872 
L 312.907061 168.779138 
L 314.182611 167.556078 
L 315.458161 165.466573 
L 316.733711 169.237816 
L 318.009261 162.714627 
L 319.284811 167.199221 
L 320.560361 166.842485 
L 321.835911 165.823309 
L 323.111461 161.0838 
L 324.387011 165.262689 
L 325.662561 165.160747 
L 326.938111 163.784835 
L 328.213661 160.421238 
L 329.489211 165.364631 
L 330.764762 166.791575 
L 332.040312 163.631862 
L 333.315862 163.988597 
L 334.591412 164.753101 
L 335.866962 160.727064 
L 337.142512 163.479009 
L 338.418062 170.15505 
L 339.693612 160.47227 
L 340.969162 158.994294 
L 342.244712 164.905953 
L 343.520262 163.631862 
L 344.795812 160.319296 
L 346.071362 158.7395 
L 347.346912 161.491446 
L 348.622462 159.96256 
L 349.898012 160.777974 
L 351.173562 160.115534 
L 352.449112 160.879916 
L 353.724662 161.848182 
L 355.000213 157.51644 
L 356.275763 161.593388 
L 357.551313 162.357891 
L 358.826863 161.69533 
L 360.102413 158.12797 
L 361.377963 160.574212 
L 362.653513 163.377068 
L 363.929063 161.644419 
L 365.204613 161.440536 
L 366.480163 156.90491 
L 367.755713 158.68859 
L 369.031263 163.020332 
L 370.306813 155.681729 
L 371.582363 145.845975 
L 372.857913 146.712299 
L 374.133463 143.603617 
L 375.409013 144.724856 
L 376.684563 144.673825 
L 377.960113 139.169933 
L 379.235664 144.826798 
L 380.511214 140.851671 
L 381.786764 145.081592 
L 383.062314 140.342083 
L 384.337864 145.998827 
L 385.613414 140.494935 
L 386.888964 146.049858 
L 388.164514 141.717995 
L 389.440064 139.934316 
L 390.715614 144.724856 
L 391.991164 140.953613 
L 393.266714 145.795064 
L 394.542264 140.698819 
L 395.817814 142.839235 
L 397.093364 137.590016 
L 398.368914 143.348823 
L 399.644464 139.883405 
L 400.920014 139.934316 
L 402.195564 137.539106 
L 403.471115 134.736129 
L 404.746665 141.310349 
L 406.022215 142.278615 
L 407.297765 137.641048 
L 408.573315 133.971746 
L 409.848865 135.194806 
L 411.124415 139.424727 
L 412.399965 133.716952 
L 413.675515 141.208407 
L 414.951065 138.609314 
L 416.226615 137.029518 
L 417.502165 135.95931 
L 418.777715 140.749729 
L 421.328815 134.124599 
L 422.604365 139.424727 
L 423.879915 136.876544 
L 425.155465 138.915139 
L 426.431015 137.590016 
L 427.706566 136.876544 
L 428.982116 138.660224 
L 430.257666 135.704516 
L 431.533216 134.83807 
L 432.808766 137.080428 
L 434.084316 134.22654 
L 435.359866 131.015917 
L 436.635416 131.678479 
L 437.910966 128.060087 
L 439.186516 128.773559 
L 440.462066 128.926411 
L 441.737616 126.123556 
L 443.013166 130.455297 
L 444.288716 131.372653 
L 445.564266 130.761123 
L 446.839816 126.98988 
L 448.115366 125.919672 
L 449.390916 128.569676 
L 450.666466 123.167726 
L 451.942017 129.181206 
L 453.217567 129.334179 
L 454.493117 131.627447 
L 455.768667 129.537941 
L 457.044217 124.186902 
L 458.319767 128.162029 
L 459.595317 124.441696 
L 460.870867 123.524462 
L 462.146417 127.142732 
L 463.421967 126.98988 
L 464.697517 124.03405 
L 465.973067 127.193763 
L 467.248617 128.365913 
L 468.524167 129.232237 
L 469.799717 123.371488 
L 471.075267 128.314882 
L 472.350817 123.932108 
L 473.626367 123.98314 
L 474.901917 124.543638 
L 476.177467 124.696612 
L 477.453018 127.295584 
L 478.728568 123.524462 
L 480.004118 122.403223 
L 481.279668 125.511904 
L 482.555218 124.849464 
L 483.830768 122.8619 
L 485.106318 122.658017 
L 486.381868 125.81773 
L 487.657418 122.81099 
L 488.932968 128.671617 
L 490.208518 120.211897 
L 491.484068 122.25037 
L 492.759618 126.480292 
L 494.035168 122.658017 
L 495.310718 119.549335 
L 496.586268 126.785996 
L 497.861818 122.25037 
L 499.137368 121.842603 
L 500.412918 120.517601 
L 501.688469 119.957103 
L 502.964019 120.262807 
L 504.239569 119.141689 
L 505.515119 116.8483 
L 506.790669 118.733921 
L 508.066219 118.428217 
L 509.341769 120.262807 
L 510.617319 117.256067 
L 511.892869 115.574329 
L 513.168419 117.205036 
L 514.443969 119.600367 
L 515.719519 117.256067 
L 516.995069 116.797389 
L 518.270619 115.01371 
L 519.546169 115.880034 
L 520.821719 116.899331 
L 522.097269 117.306977 
L 523.372819 114.096354 
L 524.648369 120.415659 
L 525.92392 119.192599 
L 527.19947 115.727182 
L 528.47502 113.178998 
L 529.75057 113.994412 
L 531.02612 117.408919 
L 532.30167 114.45309 
L 533.57722 115.370446 
L 534.85277 117.561771 
L 536.12832 115.931065 
L 537.40387 116.389622 
L 538.67942 115.01371 
L 539.95497 117.052183 
L 541.23052 118.224333 
L 542.50607 114.707884 
L 543.78162 116.644537 
L 545.05717 118.275243 
L 546.33272 114.707884 
L 547.60827 115.166562 
L 548.88382 115.115652 
L 550.159371 117.103094 
L 551.434921 118.377185 
L 552.710471 112.567468 
L 553.986021 113.586766 
L 555.261571 117.052183 
L 556.537121 112.873294 
L 557.812671 111.038583 
L 559.088221 119.039747 
L 560.363771 116.032886 
L 561.639321 111.140524 
L 562.914871 112.05788 
L 564.190421 113.433792 
L 565.465971 113.026146 
L 566.741521 114.045444 
L 568.017071 115.217472 
L 569.292621 112.261764 
L 570.568171 112.210732 
L 571.843721 109.000109 
L 573.119271 111.650113 
L 575.670372 108.796225 
L 576.945922 113.790528 
L 578.221472 109.968375 
L 579.497022 115.217472 
L 580.772572 114.147264 
L 582.048122 111.140524 
L 583.323672 113.026146 
L 584.599222 107.878991 
L 585.874772 112.771352 
L 587.150322 113.28094 
L 588.425872 109.051019 
L 589.701422 117.561771 
L 590.976972 114.758916 
L 592.252522 109.866433 
L 593.528072 112.822262 
L 594.803622 105.585601 
L 596.079172 112.822262 
L 597.354722 109.713581 
L 598.630273 109.764491 
L 599.905823 111.701144 
L 601.181373 111.191435 
L 602.456923 109.000109 
L 603.732473 112.975236 
L 605.008023 112.414616 
L 606.283573 112.05788 
L 607.559123 113.382882 
L 608.834673 112.210732 
L 610.110223 112.159822 
L 611.385773 109.560729 
L 612.661323 110.223169 
L 613.936873 114.198296 
L 615.212423 112.210732 
L 616.487973 106.197131 
L 617.763523 108.082753 
L 619.039073 115.880034 
L 620.314623 110.2742 
L 621.590173 112.363584 
L 622.865724 114.962678 
L 624.141274 110.732878 
L 625.416824 108.796225 
L 626.692374 106.146221 
L 627.967924 107.165397 
L 629.243474 112.261764 
L 630.519024 110.987672 
L 631.794574 106.808661 
L 633.070124 110.070317 
L 634.345674 105.891427 
L 635.621224 108.490521 
L 636.896774 110.681847 
L 638.172324 112.05788 
L 639.447874 107.980811 
L 640.723424 106.604899 
L 641.998974 107.012545 
L 643.274524 110.2742 
L 644.550074 111.395318 
L 645.825624 108.286637 
L 647.101175 105.942337 
L 648.376725 110.325111 
L 649.652275 108.745315 
L 650.927825 111.089614 
L 652.203375 107.420313 
L 653.478925 107.573165 
L 654.754475 105.636633 
L 656.030025 109.66267 
L 657.305575 108.439489 
L 658.581125 108.235727 
L 659.856675 107.216429 
L 661.132225 108.082753 
L 662.407775 106.248163 
L 663.683325 107.827959 
L 664.958875 106.146221 
L 666.234425 107.114487 
L 667.509975 111.49726 
L 668.785525 109.509697 
L 670.061075 110.834699 
L 671.336626 109.000109 
L 672.612176 106.401015 
L 673.887726 105.585601 
L 675.163276 112.66941 
L 676.438826 108.592463 
L 678.989926 110.732878 
L 680.265476 110.325111 
L 681.541026 108.847257 
L 682.816576 111.650113 
L 684.092126 110.88573 
L 685.367676 110.936641 
L 686.643226 111.344408 
L 687.918776 108.541431 
L 687.918776 108.541431 
" style="fill:none;stroke:#377eb8;stroke-linecap:square;stroke-width:1.5;"/>
   </g>
   <g id="line2d_32">
    <path clip-path="url(#p349ee22e40)" d="M 89.559781 375.715469 
L 89.685802 374.195253 
L 89.703144 375.715469 
M 96.490382 375.715469 
L 97.339102 348.549875 
L 98.242285 375.715469 
M 100.787118 375.715469 
L 101.165752 354.704785 
L 102.441302 350.601471 
L 103.716852 347.934336 
L 104.559398 375.715469 
M 105.271541 375.715469 
L 106.267952 324.750995 
L 107.515429 375.715469 
M 108.877376 375.715469 
L 110.094602 343.215604 
L 111.370153 335.214318 
L 112.645703 329.880046 
L 113.921253 362.911292 
L 115.196803 284.333882 
L 116.472353 275.922155 
L 117.747903 273.04992 
L 119.023453 267.715649 
L 120.299003 283.718342 
L 121.574553 284.9493 
L 122.850103 318.596085 
L 124.125653 276.127375 
L 125.401203 275.716935 
L 126.676753 302.593391 
L 127.952303 262.791696 
L 129.227853 252.533594 
L 130.503403 262.791696 
L 131.778953 263.202015 
L 133.054503 264.022654 
L 134.330053 253.149012 
L 135.605604 277.153113 
L 136.881154 268.536287 
L 138.156704 265.664052 
L 139.432254 266.68979 
L 140.707804 271.818841 
L 141.983354 283.923562 
L 143.258904 254.79041 
L 144.534454 290.899111 
L 145.810004 293.155806 
L 147.085554 271.818841 
L 148.361104 275.306615 
L 150.912204 309.56894 
L 152.187754 355.320203 
L 153.463304 273.870559 
L 154.738854 263.202015 
L 156.014404 279.409929 
L 157.289954 256.842007 
L 158.565504 269.151827 
L 159.841055 243.301229 
L 161.116605 273.255019 
L 162.392155 248.43028 
L 163.667705 290.899111 
L 164.943255 276.742793 
L 166.218805 255.20073 
L 167.494355 353.268607 
L 168.769905 256.431687 
L 170.045455 238.377276 
L 171.321005 267.920747 
L 172.596555 248.019961 
L 173.872105 230.78631 
L 175.147655 239.813454 
L 176.423205 239.403135 
L 177.698755 248.43028 
L 178.974305 212.321579 
L 180.249855 246.378684 
L 181.525405 229.350132 
L 182.800955 199.80666 
L 184.076506 218.68171 
L 185.352056 225.246939 
L 186.627606 215.399034 
L 187.903156 219.707447 
L 189.178706 220.733306 
L 190.454256 214.373297 
L 191.729806 205.346031 
L 193.005356 248.43028 
L 194.280906 220.938405 
L 195.556456 213.552537 
L 196.832006 211.500941 
L 198.107556 208.628706 
L 199.383106 276.948014 
L 200.658656 211.500941 
L 201.934206 214.168077 
L 203.209756 213.347438 
L 204.485306 232.222366 
L 205.760856 245.968364 
L 207.036406 209.244124 
L 208.311956 217.450631 
L 209.587507 213.142218 
L 210.863057 234.889502 
L 212.138607 213.757757 
L 213.414157 212.731899 
L 214.689707 208.218387 
L 217.240807 233.863765 
L 218.516357 209.449345 
L 219.791907 206.166669 
L 221.067457 230.581089 
L 222.343007 208.423486 
L 223.618557 219.502348 
L 224.894107 208.013167 
L 226.169657 211.090622 
L 227.445207 209.859664 
L 228.720757 216.219673 
L 229.996307 229.760451 
L 231.271857 214.578396 
L 232.547407 197.960163 
L 233.822958 206.576988 
L 235.098508 239.608355 
L 236.374058 212.731899 
L 237.649608 196.113787 
L 238.925158 233.453445 
L 240.200708 199.601561 
L 241.476258 214.783616 
L 242.751808 187.70206 
L 244.027358 189.343337 
L 246.578458 183.803967 
L 247.854008 190.779516 
L 249.129558 178.674916 
L 250.405108 180.110972 
L 251.680658 189.923276 
L 252.956208 176.418099 
L 254.231758 192.010473 
L 255.507308 178.059376 
L 256.782858 186.471103 
L 258.058409 180.316193 
L 259.333959 171.289048 
L 260.609509 186.881422 
L 261.885059 204.320293 
L 263.160609 187.49684 
L 264.436159 176.212879 
L 266.987259 185.650464 
L 268.262809 194.26729 
L 269.538359 174.571602 
L 270.813909 194.062069 
L 272.089459 173.750963 
L 273.365009 170.263189 
L 274.640559 172.520006 
L 275.916109 195.087928 
L 277.191659 195.703346 
L 278.467209 189.753657 
L 279.742759 166.159875 
L 281.018309 181.54715 
L 282.29386 179.495554 
L 283.56941 179.085235 
L 284.84496 170.057969 
L 286.12051 179.905873 
L 287.39606 212.11648 
L 288.67161 174.366503 
L 289.94716 187.907159 
L 291.22271 193.036332 
L 292.49826 182.16269 
L 293.77381 185.855563 
L 295.04936 175.39224 
L 296.32491 196.524106 
L 297.60046 180.316193 
L 298.87601 180.316193 
L 300.15156 183.598747 
L 301.42711 191.189835 
L 302.70266 216.014574 
L 303.97821 188.317479 
L 305.25376 182.778108 
L 306.529311 170.878729 
L 307.804861 171.494147 
L 309.080411 166.570194 
L 310.355961 169.647649 
L 311.631511 155.491453 
L 312.907061 170.263189 
L 314.182611 158.363688 
L 315.458161 155.286233 
L 316.733711 159.389547 
L 318.009261 179.700653 
L 319.284811 162.261782 
L 320.560361 164.108279 
L 321.835911 157.13273 
L 323.111461 173.135424 
L 324.387011 163.287641 
L 325.662561 176.623198 
L 326.938111 169.85287 
L 328.213661 164.108279 
L 329.489211 162.261782 
L 330.764762 172.725105 
L 332.040312 160.005087 
L 334.591412 165.339237 
L 335.866962 172.520006 
L 337.142512 165.954776 
L 338.418062 165.954776 
L 339.693612 168.006373 
L 340.969162 164.928917 
L 342.244712 168.827011 
L 343.520262 158.979228 
L 344.795812 179.700653 
L 346.071362 172.930325 
L 347.346912 158.979228 
L 348.622462 160.825725 
L 349.898012 148.721125 
L 352.449112 181.54715 
L 353.724662 170.673508 
L 355.000213 171.699367 
L 356.275763 160.415406 
L 357.551313 170.878729 
L 358.826863 184.419385 
L 360.102413 163.90318 
L 361.377963 162.672101 
L 362.653513 159.799866 
L 363.929063 163.90318 
L 365.204613 164.108279 
L 366.480163 161.646364 
L 367.755713 181.54715 
L 369.031263 164.108279 
L 370.306813 160.005087 
L 371.582363 162.467002 
L 372.857913 152.824318 
L 374.133463 155.081134 
L 375.409013 165.544457 
L 376.684563 156.312092 
L 377.960113 157.13273 
L 379.235664 151.183041 
L 380.511214 152.003679 
L 381.786764 151.38814 
L 383.062314 155.696552 
L 385.613414 154.875914 
L 386.888964 166.775415 
L 388.164514 152.619219 
L 389.440064 149.131445 
L 390.715614 155.491453 
L 391.991164 156.106993 
L 393.266714 153.234637 
L 394.542264 150.97782 
L 395.817814 164.928917 
L 397.093364 154.260496 
L 398.368914 151.38814 
L 399.644464 154.055275 
L 400.920014 157.953369 
L 402.195564 156.312092 
L 403.471115 158.158589 
L 404.746665 149.952083 
L 407.297765 159.799866 
L 408.573315 150.567501 
L 409.848865 151.59336 
L 411.124415 163.287641 
L 412.399965 150.362402 
L 413.675515 162.056683 
L 414.951065 145.43845 
L 416.226615 148.515905 
L 417.502165 158.979228 
L 418.777715 150.772721 
L 421.328815 158.774007 
L 422.604365 149.336543 
L 423.879915 149.541764 
L 425.155465 150.567501 
L 426.431015 148.310685 
L 427.706566 154.875914 
L 428.982116 154.465595 
L 430.257666 151.798459 
L 431.533216 150.567501 
L 432.808766 148.310685 
L 434.084316 158.158589 
L 435.359866 145.028131 
L 436.635416 143.591953 
L 437.910966 147.284947 
L 439.186516 145.028131 
L 440.462066 151.59336 
L 441.737616 153.644956 
L 443.013166 145.028131 
L 444.288716 150.97782 
L 445.564266 154.875914 
L 446.839816 152.413998 
L 448.115366 144.617811 
L 449.390916 146.053989 
L 450.666466 143.797173 
L 451.942017 145.208686 
L 453.217567 149.131445 
L 454.493117 146.259088 
L 455.768667 145.64367 
L 457.044217 145.233351 
L 458.319767 147.490046 
L 459.595317 146.053989 
L 460.870867 147.284947 
L 462.146417 144.82291 
L 463.421967 145.028131 
L 464.697517 149.131445 
L 465.973067 148.515905 
L 467.248617 140.309399 
L 468.524167 138.668122 
L 469.799717 147.695266 
L 471.075267 139.899079 
L 472.350817 148.721125 
L 473.626367 149.336543 
L 474.901917 150.97782 
L 476.177467 147.490046 
L 477.453018 145.64367 
L 478.728568 142.155896 
L 481.279668 153.644956 
L 482.555218 142.976534 
L 483.830768 142.566215 
L 485.106318 150.772721 
L 486.381868 144.412591 
L 487.657418 148.310685 
L 488.932968 150.157182 
L 490.208518 145.028131 
L 491.484068 144.412591 
L 492.759618 139.28354 
L 494.035168 145.848769 
L 495.310718 140.924817 
L 496.586268 147.490046 
L 497.861818 141.950676 
L 499.137368 149.952083 
L 500.412918 140.309399 
L 501.688469 137.847483 
L 502.964019 147.695266 
L 504.239569 142.771314 
L 505.515119 140.104178 
L 506.790669 144.002272 
L 508.066219 139.078441 
L 509.341769 151.59336 
L 510.617319 135.795765 
L 511.892869 146.053989 
L 513.168419 148.310685 
L 514.443969 137.642263 
L 515.719519 140.309399 
L 516.995069 139.48876 
L 518.270619 148.926224 
L 519.546169 146.464309 
L 520.821719 137.642263 
L 522.097269 142.976534 
L 523.372819 143.591953 
L 524.648369 139.078441 
L 525.92392 143.181633 
L 527.19947 141.130037 
L 528.47502 142.566215 
L 529.75057 139.693859 
L 531.02612 147.079727 
L 532.30167 136.000986 
L 533.57722 149.131445 
L 534.85277 139.48876 
L 536.12832 151.798459 
L 537.40387 136.411305 
L 538.67942 143.386854 
L 539.95497 142.155896 
L 541.23052 147.490046 
L 542.50607 134.564808 
L 543.78162 146.053989 
L 546.33272 138.052582 
L 547.60827 147.695266 
L 548.88382 141.130037 
L 550.159371 141.950676 
L 551.434921 148.515905 
L 552.710471 139.693859 
L 553.986021 144.207492 
L 555.261571 139.899079 
L 556.537121 148.105586 
L 559.088221 137.437042 
L 560.363771 150.97782 
L 561.639321 140.716802 
L 562.914871 141.335257 
L 564.190421 142.360995 
L 565.465971 138.873221 
L 566.741521 139.48876 
L 568.017071 140.514497 
L 569.292621 135.385446 
L 570.568171 144.82291 
L 571.843721 140.514497 
L 573.119271 139.078441 
L 574.394822 138.257802 
L 575.670372 143.181633 
L 576.945922 138.462901 
L 578.221472 138.873221 
L 579.497022 142.566215 
L 580.772572 141.745577 
L 582.048122 141.130037 
L 583.323672 143.181633 
L 584.599222 143.386854 
L 585.874772 139.899079 
L 587.150322 141.130037 
L 588.425872 140.514497 
L 589.701422 145.64367 
L 590.976972 139.48876 
L 592.252522 139.078441 
L 593.528072 139.693859 
L 594.803622 142.155896 
L 596.079172 137.437042 
L 597.354722 147.695266 
L 598.630273 132.307991 
L 599.905823 146.669408 
L 601.181373 140.309399 
L 602.456923 141.745577 
L 603.732473 149.541764 
L 605.008023 137.026723 
L 606.283573 146.053989 
L 607.559123 147.695266 
L 608.834673 142.771314 
L 610.110223 141.745577 
L 611.385773 139.28354 
L 612.661323 153.029538 
L 613.936873 136.000986 
L 615.212423 144.82291 
L 616.487973 136.206085 
L 617.763523 136.821624 
L 619.039073 147.284947 
L 620.314623 141.130037 
L 621.590173 141.540356 
L 622.865724 142.360995 
L 624.141274 139.28354 
L 625.416824 143.386854 
L 626.692374 136.411305 
L 627.967924 144.002272 
L 629.243474 146.464309 
L 630.519024 140.924817 
L 631.794574 141.950676 
L 633.070124 146.259088 
L 634.345674 140.104178 
L 635.621224 144.617811 
L 636.896774 139.48876 
L 638.172324 142.360995 
L 639.447874 142.360995 
L 640.723424 136.616404 
L 643.274524 146.464309 
L 644.550074 147.490046 
L 645.825624 143.181633 
L 647.101175 143.386854 
L 648.376725 136.411305 
L 649.652275 148.515905 
L 650.927825 137.026723 
L 652.203375 144.002272 
L 653.478925 145.233351 
L 654.754475 144.002272 
L 656.030025 134.564808 
L 657.305575 142.976534 
L 658.581125 145.028131 
L 659.856675 149.541764 
L 661.132225 139.28354 
L 662.407775 138.873221 
L 663.683325 136.821624 
L 664.958875 146.053989 
L 666.234425 142.566215 
L 667.509975 139.48876 
L 668.785525 142.976534 
L 671.336626 139.078441 
L 672.612176 140.514497 
L 675.163276 146.874628 
L 676.438826 141.130037 
L 677.714376 143.797173 
L 678.989926 140.104178 
L 680.265476 143.591953 
L 681.541026 140.924817 
L 682.816576 151.183041 
L 684.092126 139.899079 
L 685.367676 147.079727 
L 686.643226 141.130037 
L 687.918776 145.848769 
L 687.918776 145.848769 
" style="fill:none;stroke:#4daf4a;stroke-linecap:square;stroke-width:1.5;"/>
   </g>
   <g id="patch_3">
    <path d="M 50.14375 337.159219 
L 50.14375 10.999219 
" style="fill:none;stroke:#000000;stroke-linecap:square;stroke-linejoin:miter;stroke-width:0.8;"/>
   </g>
   <g id="patch_4">
    <path d="M 719.74375 337.159219 
L 719.74375 10.999219 
" style="fill:none;stroke:#000000;stroke-linecap:square;stroke-linejoin:miter;stroke-width:0.8;"/>
   </g>
   <g id="patch_5">
    <path d="M 50.14375 337.159219 
L 719.74375 337.159219 
" style="fill:none;stroke:#000000;stroke-linecap:square;stroke-linejoin:miter;stroke-width:0.8;"/>
   </g>
   <g id="patch_6">
    <path d="M 50.14375 10.999219 
L 719.74375 10.999219 
" style="fill:none;stroke:#000000;stroke-linecap:square;stroke-linejoin:miter;stroke-width:0.8;"/>
   </g>
   <g id="legend_1">
    <g id="patch_7">
     <path d="M 57.14375 48.355469 
L 114.584375 48.355469 
Q 116.584375 48.355469 116.584375 46.355469 
L 116.584375 17.999219 
Q 116.584375 15.999219 114.584375 15.999219 
L 57.14375 15.999219 
Q 55.14375 15.999219 55.14375 17.999219 
L 55.14375 46.355469 
Q 55.14375 48.355469 57.14375 48.355469 
z
" style="fill:#ffffff;opacity:0.8;stroke:#cccccc;stroke-linejoin:miter;"/>
    </g>
    <g id="line2d_33">
     <path d="M 59.14375 24.097656 
L 79.14375 24.097656 
" style="fill:none;stroke:#377eb8;stroke-linecap:square;stroke-width:1.5;"/>
    </g>
    <g id="line2d_34"/>
    <g id="text_18">
     <!-- Train -->
     <defs>
      <path d="M -0.296875 72.90625 
L 61.375 72.90625 
L 61.375 64.59375 
L 35.5 64.59375 
L 35.5 0 
L 25.59375 0 
L 25.59375 64.59375 
L -0.296875 64.59375 
z
" id="DejaVuSans-84"/>
      <path d="M 9.421875 54.6875 
L 18.40625 54.6875 
L 18.40625 0 
L 9.421875 0 
z
M 9.421875 75.984375 
L 18.40625 75.984375 
L 18.40625 64.59375 
L 9.421875 64.59375 
z
" id="DejaVuSans-105"/>
      <path d="M 54.890625 33.015625 
L 54.890625 0 
L 45.90625 0 
L 45.90625 32.71875 
Q 45.90625 40.484375 42.875 44.328125 
Q 39.84375 48.1875 33.796875 48.1875 
Q 26.515625 48.1875 22.3125 43.546875 
Q 18.109375 38.921875 18.109375 30.90625 
L 18.109375 0 
L 9.078125 0 
L 9.078125 54.6875 
L 18.109375 54.6875 
L 18.109375 46.1875 
Q 21.34375 51.125 25.703125 53.5625 
Q 30.078125 56 35.796875 56 
Q 45.21875 56 50.046875 50.171875 
Q 54.890625 44.34375 54.890625 33.015625 
z
" id="DejaVuSans-110"/>
     </defs>
     <g transform="translate(87.14375 27.597656)scale(0.1 -0.1)">
      <use xlink:href="#DejaVuSans-84"/>
      <use x="60.865234" xlink:href="#DejaVuSans-114"/>
      <use x="101.978516" xlink:href="#DejaVuSans-97"/>
      <use x="163.257812" xlink:href="#DejaVuSans-105"/>
      <use x="191.041016" xlink:href="#DejaVuSans-110"/>
     </g>
    </g>
    <g id="line2d_35">
     <path d="M 59.14375 38.775781 
L 79.14375 38.775781 
" style="fill:none;stroke:#4daf4a;stroke-linecap:square;stroke-width:1.5;"/>
    </g>
    <g id="line2d_36"/>
    <g id="text_19">
     <!-- Test -->
     <defs>
      <path d="M 56.203125 29.59375 
L 56.203125 25.203125 
L 14.890625 25.203125 
Q 15.484375 15.921875 20.484375 11.0625 
Q 25.484375 6.203125 34.421875 6.203125 
Q 39.59375 6.203125 44.453125 7.46875 
Q 49.3125 8.734375 54.109375 11.28125 
L 54.109375 2.78125 
Q 49.265625 0.734375 44.1875 -0.34375 
Q 39.109375 -1.421875 33.890625 -1.421875 
Q 20.796875 -1.421875 13.15625 6.1875 
Q 5.515625 13.8125 5.515625 26.8125 
Q 5.515625 40.234375 12.765625 48.109375 
Q 20.015625 56 32.328125 56 
Q 43.359375 56 49.78125 48.890625 
Q 56.203125 41.796875 56.203125 29.59375 
z
M 47.21875 32.234375 
Q 47.125 39.59375 43.09375 43.984375 
Q 39.0625 48.390625 32.421875 48.390625 
Q 24.90625 48.390625 20.390625 44.140625 
Q 15.875 39.890625 15.1875 32.171875 
z
" id="DejaVuSans-101"/>
      <path d="M 44.28125 53.078125 
L 44.28125 44.578125 
Q 40.484375 46.53125 36.375 47.5 
Q 32.28125 48.484375 27.875 48.484375 
Q 21.1875 48.484375 17.84375 46.4375 
Q 14.5 44.390625 14.5 40.28125 
Q 14.5 37.15625 16.890625 35.375 
Q 19.28125 33.59375 26.515625 31.984375 
L 29.59375 31.296875 
Q 39.15625 29.25 43.1875 25.515625 
Q 47.21875 21.78125 47.21875 15.09375 
Q 47.21875 7.46875 41.1875 3.015625 
Q 35.15625 -1.421875 24.609375 -1.421875 
Q 20.21875 -1.421875 15.453125 -0.5625 
Q 10.6875 0.296875 5.421875 2 
L 5.421875 11.28125 
Q 10.40625 8.6875 15.234375 7.390625 
Q 20.0625 6.109375 24.8125 6.109375 
Q 31.15625 6.109375 34.5625 8.28125 
Q 37.984375 10.453125 37.984375 14.40625 
Q 37.984375 18.0625 35.515625 20.015625 
Q 33.0625 21.96875 24.703125 23.78125 
L 21.578125 24.515625 
Q 13.234375 26.265625 9.515625 29.90625 
Q 5.8125 33.546875 5.8125 39.890625 
Q 5.8125 47.609375 11.28125 51.796875 
Q 16.75 56 26.8125 56 
Q 31.78125 56 36.171875 55.265625 
Q 40.578125 54.546875 44.28125 53.078125 
z
" id="DejaVuSans-115"/>
      <path d="M 18.3125 70.21875 
L 18.3125 54.6875 
L 36.8125 54.6875 
L 36.8125 47.703125 
L 18.3125 47.703125 
L 18.3125 18.015625 
Q 18.3125 11.328125 20.140625 9.421875 
Q 21.96875 7.515625 27.59375 7.515625 
L 36.8125 7.515625 
L 36.8125 0 
L 27.59375 0 
Q 17.1875 0 13.234375 3.875 
Q 9.28125 7.765625 9.28125 18.015625 
L 9.28125 47.703125 
L 2.6875 47.703125 
L 2.6875 54.6875 
L 9.28125 54.6875 
L 9.28125 70.21875 
z
" id="DejaVuSans-116"/>
     </defs>
     <g transform="translate(87.14375 42.275781)scale(0.1 -0.1)">
      <use xlink:href="#DejaVuSans-84"/>
      <use x="60.818359" xlink:href="#DejaVuSans-101"/>
      <use x="122.341797" xlink:href="#DejaVuSans-115"/>
      <use x="174.441406" xlink:href="#DejaVuSans-116"/>
     </g>
    </g>
   </g>
  </g>
 </g>
 <defs>
  <clipPath id="p349ee22e40">
   <rect height="326.16" width="669.6" x="50.14375" y="10.999219"/>
  </clipPath>
 </defs>
</svg>
