<?xml version="1.0" encoding="utf-8" standalone="no"?>
<!DOCTYPE svg PUBLIC "-//W3C//DTD SVG 1.1//EN"
  "http://www.w3.org/Graphics/SVG/1.1/DTD/svg11.dtd">
<!-- Created with matplotlib (https://matplotlib.org/) -->
<svg height="374.715469pt" version="1.1" viewBox="0 0 726.94375 374.715469" width="726.94375pt" xmlns="http://www.w3.org/2000/svg" xmlns:xlink="http://www.w3.org/1999/xlink">
 <defs>
  <style type="text/css">
*{stroke-linecap:butt;stroke-linejoin:round;white-space:pre;}
  </style>
 </defs>
 <g id="figure_1">
  <g id="patch_1">
   <path d="M 0 374.715469 
L 726.94375 374.715469 
L 726.94375 0 
L 0 0 
z
" style="fill:#ffffff;"/>
  </g>
  <g id="axes_1">
   <g id="patch_2">
    <path d="M 50.14375 337.159219 
L 719.74375 337.159219 
L 719.74375 10.999219 
L 50.14375 10.999219 
z
" style="fill:#ffffff;"/>
   </g>
   <g id="matplotlib.axis_1">
    <g id="xtick_1">
     <g id="line2d_1">
      <path clip-path="url(#p0fccb91e2c)" d="M 50.14375 337.159219 
L 50.14375 10.999219 
" style="fill:none;stroke:#b0b0b0;stroke-linecap:square;stroke-width:0.8;"/>
     </g>
     <g id="line2d_2">
      <defs>
       <path d="M 0 0 
L 0 3.5 
" id="m9137b4bdd9" style="stroke:#000000;stroke-width:0.8;"/>
      </defs>
      <g>
       <use style="stroke:#000000;stroke-width:0.8;" x="50.14375" xlink:href="#m9137b4bdd9" y="337.159219"/>
      </g>
     </g>
     <g id="text_1">
      <!-- 0 -->
      <defs>
       <path d="M 31.78125 66.40625 
Q 24.171875 66.40625 20.328125 58.90625 
Q 16.5 51.421875 16.5 36.375 
Q 16.5 21.390625 20.328125 13.890625 
Q 24.171875 6.390625 31.78125 6.390625 
Q 39.453125 6.390625 43.28125 13.890625 
Q 47.125 21.390625 47.125 36.375 
Q 47.125 51.421875 43.28125 58.90625 
Q 39.453125 66.40625 31.78125 66.40625 
z
M 31.78125 74.21875 
Q 44.046875 74.21875 50.515625 64.515625 
Q 56.984375 54.828125 56.984375 36.375 
Q 56.984375 17.96875 50.515625 8.265625 
Q 44.046875 -1.421875 31.78125 -1.421875 
Q 19.53125 -1.421875 13.0625 8.265625 
Q 6.59375 17.96875 6.59375 36.375 
Q 6.59375 54.828125 13.0625 64.515625 
Q 19.53125 74.21875 31.78125 74.21875 
z
" id="DejaVuSans-48"/>
      </defs>
      <g transform="translate(46.9625 351.757656)scale(0.1 -0.1)">
       <use xlink:href="#DejaVuSans-48"/>
      </g>
     </g>
    </g>
    <g id="xtick_2">
     <g id="line2d_3">
      <path clip-path="url(#p0fccb91e2c)" d="M 129.867527 337.159219 
L 129.867527 10.999219 
" style="fill:none;stroke:#b0b0b0;stroke-linecap:square;stroke-width:0.8;"/>
     </g>
     <g id="line2d_4">
      <g>
       <use style="stroke:#000000;stroke-width:0.8;" x="129.867527" xlink:href="#m9137b4bdd9" y="337.159219"/>
      </g>
     </g>
     <g id="text_2">
      <!-- 50 -->
      <defs>
       <path d="M 10.796875 72.90625 
L 49.515625 72.90625 
L 49.515625 64.59375 
L 19.828125 64.59375 
L 19.828125 46.734375 
Q 21.96875 47.46875 24.109375 47.828125 
Q 26.265625 48.1875 28.421875 48.1875 
Q 40.625 48.1875 47.75 41.5 
Q 54.890625 34.8125 54.890625 23.390625 
Q 54.890625 11.625 47.5625 5.09375 
Q 40.234375 -1.421875 26.90625 -1.421875 
Q 22.3125 -1.421875 17.546875 -0.640625 
Q 12.796875 0.140625 7.71875 1.703125 
L 7.71875 11.625 
Q 12.109375 9.234375 16.796875 8.0625 
Q 21.484375 6.890625 26.703125 6.890625 
Q 35.15625 6.890625 40.078125 11.328125 
Q 45.015625 15.765625 45.015625 23.390625 
Q 45.015625 31 40.078125 35.4375 
Q 35.15625 39.890625 26.703125 39.890625 
Q 22.75 39.890625 18.8125 39.015625 
Q 14.890625 38.140625 10.796875 36.28125 
z
" id="DejaVuSans-53"/>
      </defs>
      <g transform="translate(123.505027 351.757656)scale(0.1 -0.1)">
       <use xlink:href="#DejaVuSans-53"/>
       <use x="63.623047" xlink:href="#DejaVuSans-48"/>
      </g>
     </g>
    </g>
    <g id="xtick_3">
     <g id="line2d_5">
      <path clip-path="url(#p0fccb91e2c)" d="M 209.591303 337.159219 
L 209.591303 10.999219 
" style="fill:none;stroke:#b0b0b0;stroke-linecap:square;stroke-width:0.8;"/>
     </g>
     <g id="line2d_6">
      <g>
       <use style="stroke:#000000;stroke-width:0.8;" x="209.591303" xlink:href="#m9137b4bdd9" y="337.159219"/>
      </g>
     </g>
     <g id="text_3">
      <!-- 100 -->
      <defs>
       <path d="M 12.40625 8.296875 
L 28.515625 8.296875 
L 28.515625 63.921875 
L 10.984375 60.40625 
L 10.984375 69.390625 
L 28.421875 72.90625 
L 38.28125 72.90625 
L 38.28125 8.296875 
L 54.390625 8.296875 
L 54.390625 0 
L 12.40625 0 
z
" id="DejaVuSans-49"/>
      </defs>
      <g transform="translate(200.047553 351.757656)scale(0.1 -0.1)">
       <use xlink:href="#DejaVuSans-49"/>
       <use x="63.623047" xlink:href="#DejaVuSans-48"/>
       <use x="127.246094" xlink:href="#DejaVuSans-48"/>
      </g>
     </g>
    </g>
    <g id="xtick_4">
     <g id="line2d_7">
      <path clip-path="url(#p0fccb91e2c)" d="M 289.31508 337.159219 
L 289.31508 10.999219 
" style="fill:none;stroke:#b0b0b0;stroke-linecap:square;stroke-width:0.8;"/>
     </g>
     <g id="line2d_8">
      <g>
       <use style="stroke:#000000;stroke-width:0.8;" x="289.31508" xlink:href="#m9137b4bdd9" y="337.159219"/>
      </g>
     </g>
     <g id="text_4">
      <!-- 150 -->
      <g transform="translate(279.77133 351.757656)scale(0.1 -0.1)">
       <use xlink:href="#DejaVuSans-49"/>
       <use x="63.623047" xlink:href="#DejaVuSans-53"/>
       <use x="127.246094" xlink:href="#DejaVuSans-48"/>
      </g>
     </g>
    </g>
    <g id="xtick_5">
     <g id="line2d_9">
      <path clip-path="url(#p0fccb91e2c)" d="M 369.038857 337.159219 
L 369.038857 10.999219 
" style="fill:none;stroke:#b0b0b0;stroke-linecap:square;stroke-width:0.8;"/>
     </g>
     <g id="line2d_10">
      <g>
       <use style="stroke:#000000;stroke-width:0.8;" x="369.038857" xlink:href="#m9137b4bdd9" y="337.159219"/>
      </g>
     </g>
     <g id="text_5">
      <!-- 200 -->
      <defs>
       <path d="M 19.1875 8.296875 
L 53.609375 8.296875 
L 53.609375 0 
L 7.328125 0 
L 7.328125 8.296875 
Q 12.9375 14.109375 22.625 23.890625 
Q 32.328125 33.6875 34.8125 36.53125 
Q 39.546875 41.84375 41.421875 45.53125 
Q 43.3125 49.21875 43.3125 52.78125 
Q 43.3125 58.59375 39.234375 62.25 
Q 35.15625 65.921875 28.609375 65.921875 
Q 23.96875 65.921875 18.8125 64.3125 
Q 13.671875 62.703125 7.8125 59.421875 
L 7.8125 69.390625 
Q 13.765625 71.78125 18.9375 73 
Q 24.125 74.21875 28.421875 74.21875 
Q 39.75 74.21875 46.484375 68.546875 
Q 53.21875 62.890625 53.21875 53.421875 
Q 53.21875 48.921875 51.53125 44.890625 
Q 49.859375 40.875 45.40625 35.40625 
Q 44.1875 33.984375 37.640625 27.21875 
Q 31.109375 20.453125 19.1875 8.296875 
z
" id="DejaVuSans-50"/>
      </defs>
      <g transform="translate(359.495107 351.757656)scale(0.1 -0.1)">
       <use xlink:href="#DejaVuSans-50"/>
       <use x="63.623047" xlink:href="#DejaVuSans-48"/>
       <use x="127.246094" xlink:href="#DejaVuSans-48"/>
      </g>
     </g>
    </g>
    <g id="xtick_6">
     <g id="line2d_11">
      <path clip-path="url(#p0fccb91e2c)" d="M 448.762633 337.159219 
L 448.762633 10.999219 
" style="fill:none;stroke:#b0b0b0;stroke-linecap:square;stroke-width:0.8;"/>
     </g>
     <g id="line2d_12">
      <g>
       <use style="stroke:#000000;stroke-width:0.8;" x="448.762633" xlink:href="#m9137b4bdd9" y="337.159219"/>
      </g>
     </g>
     <g id="text_6">
      <!-- 250 -->
      <g transform="translate(439.218883 351.757656)scale(0.1 -0.1)">
       <use xlink:href="#DejaVuSans-50"/>
       <use x="63.623047" xlink:href="#DejaVuSans-53"/>
       <use x="127.246094" xlink:href="#DejaVuSans-48"/>
      </g>
     </g>
    </g>
    <g id="xtick_7">
     <g id="line2d_13">
      <path clip-path="url(#p0fccb91e2c)" d="M 528.48641 337.159219 
L 528.48641 10.999219 
" style="fill:none;stroke:#b0b0b0;stroke-linecap:square;stroke-width:0.8;"/>
     </g>
     <g id="line2d_14">
      <g>
       <use style="stroke:#000000;stroke-width:0.8;" x="528.48641" xlink:href="#m9137b4bdd9" y="337.159219"/>
      </g>
     </g>
     <g id="text_7">
      <!-- 300 -->
      <defs>
       <path d="M 40.578125 39.3125 
Q 47.65625 37.796875 51.625 33 
Q 55.609375 28.21875 55.609375 21.1875 
Q 55.609375 10.40625 48.1875 4.484375 
Q 40.765625 -1.421875 27.09375 -1.421875 
Q 22.515625 -1.421875 17.65625 -0.515625 
Q 12.796875 0.390625 7.625 2.203125 
L 7.625 11.71875 
Q 11.71875 9.328125 16.59375 8.109375 
Q 21.484375 6.890625 26.8125 6.890625 
Q 36.078125 6.890625 40.9375 10.546875 
Q 45.796875 14.203125 45.796875 21.1875 
Q 45.796875 27.640625 41.28125 31.265625 
Q 36.765625 34.90625 28.71875 34.90625 
L 20.21875 34.90625 
L 20.21875 43.015625 
L 29.109375 43.015625 
Q 36.375 43.015625 40.234375 45.921875 
Q 44.09375 48.828125 44.09375 54.296875 
Q 44.09375 59.90625 40.109375 62.90625 
Q 36.140625 65.921875 28.71875 65.921875 
Q 24.65625 65.921875 20.015625 65.03125 
Q 15.375 64.15625 9.8125 62.3125 
L 9.8125 71.09375 
Q 15.4375 72.65625 20.34375 73.4375 
Q 25.25 74.21875 29.59375 74.21875 
Q 40.828125 74.21875 47.359375 69.109375 
Q 53.90625 64.015625 53.90625 55.328125 
Q 53.90625 49.265625 50.4375 45.09375 
Q 46.96875 40.921875 40.578125 39.3125 
z
" id="DejaVuSans-51"/>
      </defs>
      <g transform="translate(518.94266 351.757656)scale(0.1 -0.1)">
       <use xlink:href="#DejaVuSans-51"/>
       <use x="63.623047" xlink:href="#DejaVuSans-48"/>
       <use x="127.246094" xlink:href="#DejaVuSans-48"/>
      </g>
     </g>
    </g>
    <g id="xtick_8">
     <g id="line2d_15">
      <path clip-path="url(#p0fccb91e2c)" d="M 608.210186 337.159219 
L 608.210186 10.999219 
" style="fill:none;stroke:#b0b0b0;stroke-linecap:square;stroke-width:0.8;"/>
     </g>
     <g id="line2d_16">
      <g>
       <use style="stroke:#000000;stroke-width:0.8;" x="608.210186" xlink:href="#m9137b4bdd9" y="337.159219"/>
      </g>
     </g>
     <g id="text_8">
      <!-- 350 -->
      <g transform="translate(598.666436 351.757656)scale(0.1 -0.1)">
       <use xlink:href="#DejaVuSans-51"/>
       <use x="63.623047" xlink:href="#DejaVuSans-53"/>
       <use x="127.246094" xlink:href="#DejaVuSans-48"/>
      </g>
     </g>
    </g>
    <g id="xtick_9">
     <g id="line2d_17">
      <path clip-path="url(#p0fccb91e2c)" d="M 687.933963 337.159219 
L 687.933963 10.999219 
" style="fill:none;stroke:#b0b0b0;stroke-linecap:square;stroke-width:0.8;"/>
     </g>
     <g id="line2d_18">
      <g>
       <use style="stroke:#000000;stroke-width:0.8;" x="687.933963" xlink:href="#m9137b4bdd9" y="337.159219"/>
      </g>
     </g>
     <g id="text_9">
      <!-- 400 -->
      <defs>
       <path d="M 37.796875 64.3125 
L 12.890625 25.390625 
L 37.796875 25.390625 
z
M 35.203125 72.90625 
L 47.609375 72.90625 
L 47.609375 25.390625 
L 58.015625 25.390625 
L 58.015625 17.1875 
L 47.609375 17.1875 
L 47.609375 0 
L 37.796875 0 
L 37.796875 17.1875 
L 4.890625 17.1875 
L 4.890625 26.703125 
z
" id="DejaVuSans-52"/>
      </defs>
      <g transform="translate(678.390213 351.757656)scale(0.1 -0.1)">
       <use xlink:href="#DejaVuSans-52"/>
       <use x="63.623047" xlink:href="#DejaVuSans-48"/>
       <use x="127.246094" xlink:href="#DejaVuSans-48"/>
      </g>
     </g>
    </g>
    <g id="text_10">
     <!-- Epoch -->
     <defs>
      <path d="M 9.8125 72.90625 
L 55.90625 72.90625 
L 55.90625 64.59375 
L 19.671875 64.59375 
L 19.671875 43.015625 
L 54.390625 43.015625 
L 54.390625 34.71875 
L 19.671875 34.71875 
L 19.671875 8.296875 
L 56.78125 8.296875 
L 56.78125 0 
L 9.8125 0 
z
" id="DejaVuSans-69"/>
      <path d="M 18.109375 8.203125 
L 18.109375 -20.796875 
L 9.078125 -20.796875 
L 9.078125 54.6875 
L 18.109375 54.6875 
L 18.109375 46.390625 
Q 20.953125 51.265625 25.265625 53.625 
Q 29.59375 56 35.59375 56 
Q 45.5625 56 51.78125 48.09375 
Q 58.015625 40.1875 58.015625 27.296875 
Q 58.015625 14.40625 51.78125 6.484375 
Q 45.5625 -1.421875 35.59375 -1.421875 
Q 29.59375 -1.421875 25.265625 0.953125 
Q 20.953125 3.328125 18.109375 8.203125 
z
M 48.6875 27.296875 
Q 48.6875 37.203125 44.609375 42.84375 
Q 40.53125 48.484375 33.40625 48.484375 
Q 26.265625 48.484375 22.1875 42.84375 
Q 18.109375 37.203125 18.109375 27.296875 
Q 18.109375 17.390625 22.1875 11.75 
Q 26.265625 6.109375 33.40625 6.109375 
Q 40.53125 6.109375 44.609375 11.75 
Q 48.6875 17.390625 48.6875 27.296875 
z
" id="DejaVuSans-112"/>
      <path d="M 30.609375 48.390625 
Q 23.390625 48.390625 19.1875 42.75 
Q 14.984375 37.109375 14.984375 27.296875 
Q 14.984375 17.484375 19.15625 11.84375 
Q 23.34375 6.203125 30.609375 6.203125 
Q 37.796875 6.203125 41.984375 11.859375 
Q 46.1875 17.53125 46.1875 27.296875 
Q 46.1875 37.015625 41.984375 42.703125 
Q 37.796875 48.390625 30.609375 48.390625 
z
M 30.609375 56 
Q 42.328125 56 49.015625 48.375 
Q 55.71875 40.765625 55.71875 27.296875 
Q 55.71875 13.875 49.015625 6.21875 
Q 42.328125 -1.421875 30.609375 -1.421875 
Q 18.84375 -1.421875 12.171875 6.21875 
Q 5.515625 13.875 5.515625 27.296875 
Q 5.515625 40.765625 12.171875 48.375 
Q 18.84375 56 30.609375 56 
z
" id="DejaVuSans-111"/>
      <path d="M 48.78125 52.59375 
L 48.78125 44.1875 
Q 44.96875 46.296875 41.140625 47.34375 
Q 37.3125 48.390625 33.40625 48.390625 
Q 24.65625 48.390625 19.8125 42.84375 
Q 14.984375 37.3125 14.984375 27.296875 
Q 14.984375 17.28125 19.8125 11.734375 
Q 24.65625 6.203125 33.40625 6.203125 
Q 37.3125 6.203125 41.140625 7.25 
Q 44.96875 8.296875 48.78125 10.40625 
L 48.78125 2.09375 
Q 45.015625 0.34375 40.984375 -0.53125 
Q 36.96875 -1.421875 32.421875 -1.421875 
Q 20.0625 -1.421875 12.78125 6.34375 
Q 5.515625 14.109375 5.515625 27.296875 
Q 5.515625 40.671875 12.859375 48.328125 
Q 20.21875 56 33.015625 56 
Q 37.15625 56 41.109375 55.140625 
Q 45.0625 54.296875 48.78125 52.59375 
z
" id="DejaVuSans-99"/>
      <path d="M 54.890625 33.015625 
L 54.890625 0 
L 45.90625 0 
L 45.90625 32.71875 
Q 45.90625 40.484375 42.875 44.328125 
Q 39.84375 48.1875 33.796875 48.1875 
Q 26.515625 48.1875 22.3125 43.546875 
Q 18.109375 38.921875 18.109375 30.90625 
L 18.109375 0 
L 9.078125 0 
L 9.078125 75.984375 
L 18.109375 75.984375 
L 18.109375 46.1875 
Q 21.34375 51.125 25.703125 53.5625 
Q 30.078125 56 35.796875 56 
Q 45.21875 56 50.046875 50.171875 
Q 54.890625 44.34375 54.890625 33.015625 
z
" id="DejaVuSans-104"/>
     </defs>
     <g transform="translate(369.632813 365.435781)scale(0.1 -0.1)">
      <use xlink:href="#DejaVuSans-69"/>
      <use x="63.183594" xlink:href="#DejaVuSans-112"/>
      <use x="126.660156" xlink:href="#DejaVuSans-111"/>
      <use x="187.841797" xlink:href="#DejaVuSans-99"/>
      <use x="242.822266" xlink:href="#DejaVuSans-104"/>
     </g>
    </g>
   </g>
   <g id="matplotlib.axis_2">
    <g id="ytick_1">
     <g id="line2d_19">
      <path clip-path="url(#p0fccb91e2c)" d="M 50.14375 337.159219 
L 719.74375 337.159219 
" style="fill:none;stroke:#b0b0b0;stroke-linecap:square;stroke-width:0.8;"/>
     </g>
     <g id="line2d_20">
      <defs>
       <path d="M 0 0 
L -3.5 0 
" id="mf70e4679ed" style="stroke:#000000;stroke-width:0.8;"/>
      </defs>
      <g>
       <use style="stroke:#000000;stroke-width:0.8;" x="50.14375" xlink:href="#mf70e4679ed" y="337.159219"/>
      </g>
     </g>
     <g id="text_11">
      <!-- 0.82 -->
      <defs>
       <path d="M 10.6875 12.40625 
L 21 12.40625 
L 21 0 
L 10.6875 0 
z
" id="DejaVuSans-46"/>
       <path d="M 31.78125 34.625 
Q 24.75 34.625 20.71875 30.859375 
Q 16.703125 27.09375 16.703125 20.515625 
Q 16.703125 13.921875 20.71875 10.15625 
Q 24.75 6.390625 31.78125 6.390625 
Q 38.8125 6.390625 42.859375 10.171875 
Q 46.921875 13.96875 46.921875 20.515625 
Q 46.921875 27.09375 42.890625 30.859375 
Q 38.875 34.625 31.78125 34.625 
z
M 21.921875 38.8125 
Q 15.578125 40.375 12.03125 44.71875 
Q 8.5 49.078125 8.5 55.328125 
Q 8.5 64.0625 14.71875 69.140625 
Q 20.953125 74.21875 31.78125 74.21875 
Q 42.671875 74.21875 48.875 69.140625 
Q 55.078125 64.0625 55.078125 55.328125 
Q 55.078125 49.078125 51.53125 44.71875 
Q 48 40.375 41.703125 38.8125 
Q 48.828125 37.15625 52.796875 32.3125 
Q 56.78125 27.484375 56.78125 20.515625 
Q 56.78125 9.90625 50.3125 4.234375 
Q 43.84375 -1.421875 31.78125 -1.421875 
Q 19.734375 -1.421875 13.25 4.234375 
Q 6.78125 9.90625 6.78125 20.515625 
Q 6.78125 27.484375 10.78125 32.3125 
Q 14.796875 37.15625 21.921875 38.8125 
z
M 18.3125 54.390625 
Q 18.3125 48.734375 21.84375 45.5625 
Q 25.390625 42.390625 31.78125 42.390625 
Q 38.140625 42.390625 41.71875 45.5625 
Q 45.3125 48.734375 45.3125 54.390625 
Q 45.3125 60.0625 41.71875 63.234375 
Q 38.140625 66.40625 31.78125 66.40625 
Q 25.390625 66.40625 21.84375 63.234375 
Q 18.3125 60.0625 18.3125 54.390625 
z
" id="DejaVuSans-56"/>
      </defs>
      <g transform="translate(20.878125 340.958437)scale(0.1 -0.1)">
       <use xlink:href="#DejaVuSans-48"/>
       <use x="63.623047" xlink:href="#DejaVuSans-46"/>
       <use x="95.410156" xlink:href="#DejaVuSans-56"/>
       <use x="159.033203" xlink:href="#DejaVuSans-50"/>
      </g>
     </g>
    </g>
    <g id="ytick_2">
     <g id="line2d_21">
      <path clip-path="url(#p0fccb91e2c)" d="M 50.14375 296.389219 
L 719.74375 296.389219 
" style="fill:none;stroke:#b0b0b0;stroke-linecap:square;stroke-width:0.8;"/>
     </g>
     <g id="line2d_22">
      <g>
       <use style="stroke:#000000;stroke-width:0.8;" x="50.14375" xlink:href="#mf70e4679ed" y="296.389219"/>
      </g>
     </g>
     <g id="text_12">
      <!-- 0.84 -->
      <g transform="translate(20.878125 300.188437)scale(0.1 -0.1)">
       <use xlink:href="#DejaVuSans-48"/>
       <use x="63.623047" xlink:href="#DejaVuSans-46"/>
       <use x="95.410156" xlink:href="#DejaVuSans-56"/>
       <use x="159.033203" xlink:href="#DejaVuSans-52"/>
      </g>
     </g>
    </g>
    <g id="ytick_3">
     <g id="line2d_23">
      <path clip-path="url(#p0fccb91e2c)" d="M 50.14375 255.619219 
L 719.74375 255.619219 
" style="fill:none;stroke:#b0b0b0;stroke-linecap:square;stroke-width:0.8;"/>
     </g>
     <g id="line2d_24">
      <g>
       <use style="stroke:#000000;stroke-width:0.8;" x="50.14375" xlink:href="#mf70e4679ed" y="255.619219"/>
      </g>
     </g>
     <g id="text_13">
      <!-- 0.86 -->
      <defs>
       <path d="M 33.015625 40.375 
Q 26.375 40.375 22.484375 35.828125 
Q 18.609375 31.296875 18.609375 23.390625 
Q 18.609375 15.53125 22.484375 10.953125 
Q 26.375 6.390625 33.015625 6.390625 
Q 39.65625 6.390625 43.53125 10.953125 
Q 47.40625 15.53125 47.40625 23.390625 
Q 47.40625 31.296875 43.53125 35.828125 
Q 39.65625 40.375 33.015625 40.375 
z
M 52.59375 71.296875 
L 52.59375 62.3125 
Q 48.875 64.0625 45.09375 64.984375 
Q 41.3125 65.921875 37.59375 65.921875 
Q 27.828125 65.921875 22.671875 59.328125 
Q 17.53125 52.734375 16.796875 39.40625 
Q 19.671875 43.65625 24.015625 45.921875 
Q 28.375 48.1875 33.59375 48.1875 
Q 44.578125 48.1875 50.953125 41.515625 
Q 57.328125 34.859375 57.328125 23.390625 
Q 57.328125 12.15625 50.6875 5.359375 
Q 44.046875 -1.421875 33.015625 -1.421875 
Q 20.359375 -1.421875 13.671875 8.265625 
Q 6.984375 17.96875 6.984375 36.375 
Q 6.984375 53.65625 15.1875 63.9375 
Q 23.390625 74.21875 37.203125 74.21875 
Q 40.921875 74.21875 44.703125 73.484375 
Q 48.484375 72.75 52.59375 71.296875 
z
" id="DejaVuSans-54"/>
      </defs>
      <g transform="translate(20.878125 259.418437)scale(0.1 -0.1)">
       <use xlink:href="#DejaVuSans-48"/>
       <use x="63.623047" xlink:href="#DejaVuSans-46"/>
       <use x="95.410156" xlink:href="#DejaVuSans-56"/>
       <use x="159.033203" xlink:href="#DejaVuSans-54"/>
      </g>
     </g>
    </g>
    <g id="ytick_4">
     <g id="line2d_25">
      <path clip-path="url(#p0fccb91e2c)" d="M 50.14375 214.849219 
L 719.74375 214.849219 
" style="fill:none;stroke:#b0b0b0;stroke-linecap:square;stroke-width:0.8;"/>
     </g>
     <g id="line2d_26">
      <g>
       <use style="stroke:#000000;stroke-width:0.8;" x="50.14375" xlink:href="#mf70e4679ed" y="214.849219"/>
      </g>
     </g>
     <g id="text_14">
      <!-- 0.88 -->
      <g transform="translate(20.878125 218.648437)scale(0.1 -0.1)">
       <use xlink:href="#DejaVuSans-48"/>
       <use x="63.623047" xlink:href="#DejaVuSans-46"/>
       <use x="95.410156" xlink:href="#DejaVuSans-56"/>
       <use x="159.033203" xlink:href="#DejaVuSans-56"/>
      </g>
     </g>
    </g>
    <g id="ytick_5">
     <g id="line2d_27">
      <path clip-path="url(#p0fccb91e2c)" d="M 50.14375 174.079219 
L 719.74375 174.079219 
" style="fill:none;stroke:#b0b0b0;stroke-linecap:square;stroke-width:0.8;"/>
     </g>
     <g id="line2d_28">
      <g>
       <use style="stroke:#000000;stroke-width:0.8;" x="50.14375" xlink:href="#mf70e4679ed" y="174.079219"/>
      </g>
     </g>
     <g id="text_15">
      <!-- 0.90 -->
      <defs>
       <path d="M 10.984375 1.515625 
L 10.984375 10.5 
Q 14.703125 8.734375 18.5 7.8125 
Q 22.3125 6.890625 25.984375 6.890625 
Q 35.75 6.890625 40.890625 13.453125 
Q 46.046875 20.015625 46.78125 33.40625 
Q 43.953125 29.203125 39.59375 26.953125 
Q 35.25 24.703125 29.984375 24.703125 
Q 19.046875 24.703125 12.671875 31.3125 
Q 6.296875 37.9375 6.296875 49.421875 
Q 6.296875 60.640625 12.9375 67.421875 
Q 19.578125 74.21875 30.609375 74.21875 
Q 43.265625 74.21875 49.921875 64.515625 
Q 56.59375 54.828125 56.59375 36.375 
Q 56.59375 19.140625 48.40625 8.859375 
Q 40.234375 -1.421875 26.421875 -1.421875 
Q 22.703125 -1.421875 18.890625 -0.6875 
Q 15.09375 0.046875 10.984375 1.515625 
z
M 30.609375 32.421875 
Q 37.25 32.421875 41.125 36.953125 
Q 45.015625 41.5 45.015625 49.421875 
Q 45.015625 57.28125 41.125 61.84375 
Q 37.25 66.40625 30.609375 66.40625 
Q 23.96875 66.40625 20.09375 61.84375 
Q 16.21875 57.28125 16.21875 49.421875 
Q 16.21875 41.5 20.09375 36.953125 
Q 23.96875 32.421875 30.609375 32.421875 
z
" id="DejaVuSans-57"/>
      </defs>
      <g transform="translate(20.878125 177.878437)scale(0.1 -0.1)">
       <use xlink:href="#DejaVuSans-48"/>
       <use x="63.623047" xlink:href="#DejaVuSans-46"/>
       <use x="95.410156" xlink:href="#DejaVuSans-57"/>
       <use x="159.033203" xlink:href="#DejaVuSans-48"/>
      </g>
     </g>
    </g>
    <g id="ytick_6">
     <g id="line2d_29">
      <path clip-path="url(#p0fccb91e2c)" d="M 50.14375 133.309219 
L 719.74375 133.309219 
" style="fill:none;stroke:#b0b0b0;stroke-linecap:square;stroke-width:0.8;"/>
     </g>
     <g id="line2d_30">
      <g>
       <use style="stroke:#000000;stroke-width:0.8;" x="50.14375" xlink:href="#mf70e4679ed" y="133.309219"/>
      </g>
     </g>
     <g id="text_16">
      <!-- 0.92 -->
      <g transform="translate(20.878125 137.108437)scale(0.1 -0.1)">
       <use xlink:href="#DejaVuSans-48"/>
       <use x="63.623047" xlink:href="#DejaVuSans-46"/>
       <use x="95.410156" xlink:href="#DejaVuSans-57"/>
       <use x="159.033203" xlink:href="#DejaVuSans-50"/>
      </g>
     </g>
    </g>
    <g id="ytick_7">
     <g id="line2d_31">
      <path clip-path="url(#p0fccb91e2c)" d="M 50.14375 92.539219 
L 719.74375 92.539219 
" style="fill:none;stroke:#b0b0b0;stroke-linecap:square;stroke-width:0.8;"/>
     </g>
     <g id="line2d_32">
      <g>
       <use style="stroke:#000000;stroke-width:0.8;" x="50.14375" xlink:href="#mf70e4679ed" y="92.539219"/>
      </g>
     </g>
     <g id="text_17">
      <!-- 0.94 -->
      <g transform="translate(20.878125 96.338437)scale(0.1 -0.1)">
       <use xlink:href="#DejaVuSans-48"/>
       <use x="63.623047" xlink:href="#DejaVuSans-46"/>
       <use x="95.410156" xlink:href="#DejaVuSans-57"/>
       <use x="159.033203" xlink:href="#DejaVuSans-52"/>
      </g>
     </g>
    </g>
    <g id="ytick_8">
     <g id="line2d_33">
      <path clip-path="url(#p0fccb91e2c)" d="M 50.14375 51.769219 
L 719.74375 51.769219 
" style="fill:none;stroke:#b0b0b0;stroke-linecap:square;stroke-width:0.8;"/>
     </g>
     <g id="line2d_34">
      <g>
       <use style="stroke:#000000;stroke-width:0.8;" x="50.14375" xlink:href="#mf70e4679ed" y="51.769219"/>
      </g>
     </g>
     <g id="text_18">
      <!-- 0.96 -->
      <g transform="translate(20.878125 55.568437)scale(0.1 -0.1)">
       <use xlink:href="#DejaVuSans-48"/>
       <use x="63.623047" xlink:href="#DejaVuSans-46"/>
       <use x="95.410156" xlink:href="#DejaVuSans-57"/>
       <use x="159.033203" xlink:href="#DejaVuSans-54"/>
      </g>
     </g>
    </g>
    <g id="ytick_9">
     <g id="line2d_35">
      <path clip-path="url(#p0fccb91e2c)" d="M 50.14375 10.999219 
L 719.74375 10.999219 
" style="fill:none;stroke:#b0b0b0;stroke-linecap:square;stroke-width:0.8;"/>
     </g>
     <g id="line2d_36">
      <g>
       <use style="stroke:#000000;stroke-width:0.8;" x="50.14375" xlink:href="#mf70e4679ed" y="10.999219"/>
      </g>
     </g>
     <g id="text_19">
      <!-- 0.98 -->
      <g transform="translate(20.878125 14.798437)scale(0.1 -0.1)">
       <use xlink:href="#DejaVuSans-48"/>
       <use x="63.623047" xlink:href="#DejaVuSans-46"/>
       <use x="95.410156" xlink:href="#DejaVuSans-57"/>
       <use x="159.033203" xlink:href="#DejaVuSans-56"/>
      </g>
     </g>
    </g>
    <g id="text_20">
     <!-- Accuracy -->
     <defs>
      <path d="M 34.1875 63.1875 
L 20.796875 26.90625 
L 47.609375 26.90625 
z
M 28.609375 72.90625 
L 39.796875 72.90625 
L 67.578125 0 
L 57.328125 0 
L 50.6875 18.703125 
L 17.828125 18.703125 
L 11.1875 0 
L 0.78125 0 
z
" id="DejaVuSans-65"/>
      <path d="M 8.5 21.578125 
L 8.5 54.6875 
L 17.484375 54.6875 
L 17.484375 21.921875 
Q 17.484375 14.15625 20.5 10.265625 
Q 23.53125 6.390625 29.59375 6.390625 
Q 36.859375 6.390625 41.078125 11.03125 
Q 45.3125 15.671875 45.3125 23.6875 
L 45.3125 54.6875 
L 54.296875 54.6875 
L 54.296875 0 
L 45.3125 0 
L 45.3125 8.40625 
Q 42.046875 3.421875 37.71875 1 
Q 33.40625 -1.421875 27.6875 -1.421875 
Q 18.265625 -1.421875 13.375 4.4375 
Q 8.5 10.296875 8.5 21.578125 
z
M 31.109375 56 
z
" id="DejaVuSans-117"/>
      <path d="M 41.109375 46.296875 
Q 39.59375 47.171875 37.8125 47.578125 
Q 36.03125 48 33.890625 48 
Q 26.265625 48 22.1875 43.046875 
Q 18.109375 38.09375 18.109375 28.8125 
L 18.109375 0 
L 9.078125 0 
L 9.078125 54.6875 
L 18.109375 54.6875 
L 18.109375 46.1875 
Q 20.953125 51.171875 25.484375 53.578125 
Q 30.03125 56 36.53125 56 
Q 37.453125 56 38.578125 55.875 
Q 39.703125 55.765625 41.0625 55.515625 
z
" id="DejaVuSans-114"/>
      <path d="M 34.28125 27.484375 
Q 23.390625 27.484375 19.1875 25 
Q 14.984375 22.515625 14.984375 16.5 
Q 14.984375 11.71875 18.140625 8.90625 
Q 21.296875 6.109375 26.703125 6.109375 
Q 34.1875 6.109375 38.703125 11.40625 
Q 43.21875 16.703125 43.21875 25.484375 
L 43.21875 27.484375 
z
M 52.203125 31.203125 
L 52.203125 0 
L 43.21875 0 
L 43.21875 8.296875 
Q 40.140625 3.328125 35.546875 0.953125 
Q 30.953125 -1.421875 24.3125 -1.421875 
Q 15.921875 -1.421875 10.953125 3.296875 
Q 6 8.015625 6 15.921875 
Q 6 25.140625 12.171875 29.828125 
Q 18.359375 34.515625 30.609375 34.515625 
L 43.21875 34.515625 
L 43.21875 35.40625 
Q 43.21875 41.609375 39.140625 45 
Q 35.0625 48.390625 27.6875 48.390625 
Q 23 48.390625 18.546875 47.265625 
Q 14.109375 46.140625 10.015625 43.890625 
L 10.015625 52.203125 
Q 14.9375 54.109375 19.578125 55.046875 
Q 24.21875 56 28.609375 56 
Q 40.484375 56 46.34375 49.84375 
Q 52.203125 43.703125 52.203125 31.203125 
z
" id="DejaVuSans-97"/>
      <path d="M 32.171875 -5.078125 
Q 28.375 -14.84375 24.75 -17.8125 
Q 21.140625 -20.796875 15.09375 -20.796875 
L 7.90625 -20.796875 
L 7.90625 -13.28125 
L 13.1875 -13.28125 
Q 16.890625 -13.28125 18.9375 -11.515625 
Q 21 -9.765625 23.484375 -3.21875 
L 25.09375 0.875 
L 2.984375 54.6875 
L 12.5 54.6875 
L 29.59375 11.921875 
L 46.6875 54.6875 
L 56.203125 54.6875 
z
" id="DejaVuSans-121"/>
     </defs>
     <g transform="translate(14.798438 196.994062)rotate(-90)scale(0.1 -0.1)">
      <use xlink:href="#DejaVuSans-65"/>
      <use x="68.392578" xlink:href="#DejaVuSans-99"/>
      <use x="123.373047" xlink:href="#DejaVuSans-99"/>
      <use x="178.353516" xlink:href="#DejaVuSans-117"/>
      <use x="241.732422" xlink:href="#DejaVuSans-114"/>
      <use x="282.845703" xlink:href="#DejaVuSans-97"/>
      <use x="344.125" xlink:href="#DejaVuSans-99"/>
      <use x="399.105469" xlink:href="#DejaVuSans-121"/>
     </g>
    </g>
   </g>
   <g id="line2d_37">
    <path clip-path="url(#p0fccb91e2c)" d="M 111.146555 375.715469 
L 112.328296 371.711831 
L 113.922771 372.425303 
L 115.517247 327.935009 
L 118.706198 312.39148 
L 120.300673 308.518294 
L 121.895149 309.43565 
L 123.489625 311.525034 
L 126.678576 300.058574 
L 128.273051 298.68254 
L 129.867527 300.109484 
L 131.462002 298.427746 
L 133.056478 292.821791 
L 134.650953 296.440182 
L 136.245429 296.796918 
L 137.839904 293.025675 
L 139.43438 293.637205 
L 141.028855 290.936291 
L 142.623331 290.120877 
L 144.217806 289.050669 
L 145.812282 287.419842 
L 147.406758 266.729036 
L 149.001233 252.204682 
L 150.595709 251.134474 
L 152.190184 244.713227 
L 153.78466 251.847946 
L 156.973611 243.0824 
L 158.568086 243.744961 
L 160.162562 238.801568 
L 161.757037 244.101697 
L 163.351513 239.158304 
L 164.945988 239.056363 
L 166.540464 237.731361 
L 168.134939 232.686147 
L 169.729415 237.884213 
L 171.32389 235.336151 
L 172.918366 237.935244 
L 174.512842 236.814005 
L 176.107317 227.691722 
L 177.701793 237.935244 
L 179.296268 220.251299 
L 180.890744 214.288609 
L 182.485219 211.740547 
L 184.079695 210.772159 
L 185.67417 200.732643 
L 187.268646 205.319178 
L 188.863121 204.605706 
L 190.457597 202.771117 
L 192.052072 201.344173 
L 193.646548 203.58653 
L 195.241023 201.344173 
L 196.835499 205.472152 
L 198.429975 203.178763 
L 200.02445 203.076821 
L 201.618926 197.878755 
L 203.213401 194.00557 
L 204.807877 197.62384 
L 206.402352 195.483424 
L 207.996828 194.820984 
L 209.591303 196.706605 
L 211.185779 186.2592 
L 212.780254 184.781346 
L 214.37473 185.443907 
L 215.969205 183.048576 
L 217.563681 179.63419 
L 219.158156 179.022539 
L 220.752632 178.971629 
L 222.347108 184.47552 
L 223.941583 177.391833 
L 225.536059 174.384972 
L 227.130534 180.143778 
L 228.72501 171.123438 
L 230.319485 176.882123 
L 231.913961 177.697537 
L 233.508436 177.544685 
L 235.102912 176.270593 
L 236.697387 174.639766 
L 238.291863 174.384972 
L 239.886338 172.040672 
L 241.480814 170.970464 
L 243.075289 166.027193 
L 244.669765 162.969421 
L 246.264241 168.983022 
L 247.858716 165.925251 
L 249.453192 166.078103 
L 251.047667 166.689633 
L 252.642143 168.26955 
L 254.236618 163.479009 
L 255.831094 159.554914 
L 257.425569 166.027193 
L 259.020045 164.498307 
L 260.61452 162.30686 
L 262.208996 163.886777 
L 263.803471 162.765538 
L 265.397947 160.981858 
L 266.992422 158.026028 
L 268.586898 160.370328 
L 270.181374 160.727064 
L 271.775849 157.720203 
L 273.370325 161.593388 
L 274.9648 156.802968 
L 276.559276 160.676032 
L 278.153751 155.987555 
L 279.748227 160.676032 
L 281.342702 155.528877 
L 282.937178 157.618382 
L 284.531653 158.382764 
L 286.126129 158.12797 
L 287.720604 157.006731 
L 289.31508 154.305817 
L 290.909555 153.490403 
L 292.504031 158.484706 
L 294.098507 154.764373 
L 295.692982 155.477967 
L 297.287458 149.77007 
L 298.881933 151.859575 
L 300.476409 153.439371 
L 302.070884 154.662553 
L 303.66536 155.274083 
L 305.259835 152.573047 
L 308.448786 153.796107 
L 310.043262 153.999991 
L 311.637737 150.687426 
L 313.232213 154.254785 
L 314.826688 151.197014 
L 316.421164 149.15854 
L 318.01564 152.725899 
L 319.610115 151.55375 
L 321.204591 150.585484 
L 322.799066 149.464366 
L 324.393542 149.362424 
L 325.988017 148.139364 
L 327.582493 150.33069 
L 329.176968 144.113326 
L 330.771444 153.949081 
L 332.365919 148.648952 
L 333.960395 146.508536 
L 335.55487 148.343126 
L 337.149346 149.464366 
L 338.743821 149.413334 
L 340.338297 143.042997 
L 341.932773 148.59792 
L 343.527248 147.37486 
L 345.121724 146.457504 
L 346.716199 148.190274 
L 348.310675 147.425892 
L 351.499626 149.260482 
L 354.688577 142.941177 
L 356.283052 147.680686 
L 357.877528 150.177838 
L 359.472003 147.120066 
L 361.066479 148.4961 
L 362.660954 145.336386 
L 364.25543 146.661388 
L 365.849905 148.54701 
L 367.444381 148.190274 
L 369.038857 149.15854 
L 370.633332 147.069034 
L 372.227808 148.241184 
L 373.822283 146.81424 
L 375.416759 145.947916 
L 377.011234 147.069034 
L 378.60571 145.183534 
L 380.200185 146.712299 
L 381.794661 145.744033 
L 383.389136 149.005688 
L 384.983612 149.209572 
L 386.578087 144.470062 
L 389.767038 147.680686 
L 391.361514 143.450765 
L 392.95599 147.98639 
L 394.550465 142.533409 
L 396.144941 146.1518 
L 397.739416 145.030561 
L 399.333892 144.826798 
L 400.928367 143.960353 
L 402.522843 146.508536 
L 404.117318 147.93548 
L 405.711794 144.724856 
L 407.306269 147.782628 
L 408.900745 146.559446 
L 410.49522 143.501675 
L 412.089696 146.967214 
L 413.684171 143.756591 
L 415.278647 149.10763 
L 416.873123 148.241184 
L 418.467598 143.246881 
L 420.062074 143.450765 
L 421.656549 145.897006 
L 423.251025 150.687426 
L 424.8455 144.826798 
L 426.439976 142.890145 
L 428.034451 146.916182 
L 429.628927 146.304652 
L 431.223402 143.960353 
L 432.817878 147.98639 
L 434.412353 143.960353 
L 436.006829 146.916182 
L 437.601304 145.642091 
L 439.19578 144.826798 
L 440.790256 146.304652 
L 442.384731 150.126806 
L 443.979207 147.170976 
L 445.573682 142.635351 
L 447.168158 144.826798 
L 448.762633 146.712299 
L 450.357109 145.54027 
L 451.951584 143.195971 
L 453.54606 149.311392 
L 455.140535 141.819937 
L 456.735011 146.916182 
L 458.329486 145.387297 
L 459.923962 146.304652 
L 461.518437 144.97965 
L 463.112913 147.425892 
L 464.707389 145.336386 
L 466.301864 144.266179 
L 467.89634 142.227705 
L 469.490815 147.37486 
L 471.085291 142.176673 
L 472.679766 147.170976 
L 474.274242 150.279779 
L 475.868717 144.775767 
L 477.463193 149.923044 
L 479.057668 146.049858 
L 480.652144 148.241184 
L 482.246619 145.387297 
L 485.43557 141.870969 
L 487.030046 141.514233 
L 488.624522 148.4961 
L 490.218997 144.775767 
L 491.813473 146.20271 
L 493.407948 142.737293 
L 495.002424 146.559446 
L 496.596899 144.266179 
L 498.191375 147.37486 
L 499.78585 145.744033 
L 501.380326 151.604781 
L 502.974801 143.858411 
L 504.569277 148.54701 
L 506.163752 141.769027 
L 507.758228 143.654649 
L 509.352703 148.139364 
L 510.947179 150.432632 
L 512.541655 145.081592 
L 514.13613 147.120066 
L 515.730606 148.699862 
L 517.325081 148.852836 
L 518.919557 145.795064 
L 520.514032 148.54701 
L 522.108508 148.852836 
L 523.702983 148.59792 
L 525.297459 144.470062 
L 526.891934 146.76333 
L 528.48641 148.088332 
L 530.080885 147.884448 
L 531.675361 148.292216 
L 533.269836 140.749729 
L 534.864312 148.445068 
L 538.053263 146.406594 
L 539.647739 143.144939 
L 541.242214 145.387297 
L 542.83669 146.661388 
L 546.025641 143.042997 
L 547.620116 148.852836 
L 549.214592 143.348823 
L 550.809067 146.916182 
L 552.403543 145.081592 
L 553.998018 147.272918 
L 555.592494 144.724856 
L 557.186969 143.450765 
L 558.781445 142.788203 
L 560.37592 145.998827 
L 563.564872 147.527712 
L 565.159347 149.005688 
L 566.753823 147.069034 
L 568.348298 143.654649 
L 569.942774 147.680686 
L 571.537249 149.209572 
L 573.131725 142.329525 
L 574.7262 144.673825 
L 576.320676 143.246881 
L 577.915151 143.960353 
L 579.509627 139.679522 
L 581.104102 145.59118 
L 582.698578 143.501675 
L 584.293053 141.870969 
L 585.887529 143.246881 
L 587.482005 147.884448 
L 589.07648 142.992087 
L 590.670956 144.266179 
L 592.265431 144.775767 
L 593.859907 143.654649 
L 595.454382 147.93548 
L 597.048858 143.348823 
L 598.643333 142.227705 
L 600.237809 142.227705 
L 601.832284 146.20271 
L 603.42676 145.947916 
L 605.021235 141.667085 
L 606.615711 141.921879 
L 608.210186 148.954656 
L 609.804662 147.018124 
L 611.399138 147.93548 
L 612.993613 146.100769 
L 614.588089 145.947916 
L 616.182564 149.005688 
L 617.77704 145.438328 
L 619.371515 144.470062 
L 620.965991 145.795064 
L 622.560466 150.687426 
L 624.154942 147.425892 
L 625.749417 146.967214 
L 627.343893 147.069034 
L 628.938368 141.157497 
L 630.532844 145.030561 
L 632.127319 144.97965 
L 633.721795 146.406594 
L 635.316271 141.667085 
L 636.910746 147.272918 
L 638.505222 145.183534 
L 640.099697 146.865272 
L 641.694173 145.489239 
L 643.288648 143.399733 
L 644.883124 149.056598 
L 646.477599 148.394158 
L 648.072075 140.698819 
L 649.66655 147.578744 
L 651.261026 150.075896 
L 652.855501 146.559446 
L 654.449977 142.533409 
L 656.044452 144.419031 
L 657.638928 145.947916 
L 659.233404 146.253742 
L 660.827879 147.782628 
L 662.422355 142.890145 
L 664.01683 150.585484 
L 665.611306 147.833538 
L 667.205781 142.737293 
L 668.800257 143.960353 
L 670.394732 148.750894 
L 671.989208 144.775767 
L 673.583683 144.215147 
L 675.178159 144.97965 
L 676.772634 148.190274 
L 678.36711 144.470062 
L 679.961585 147.578744 
L 681.556061 146.81424 
L 683.150537 147.833538 
L 684.745012 144.164237 
L 686.339488 146.1518 
L 687.933963 143.552707 
L 687.933963 143.552707 
" style="fill:none;stroke:#377eb8;stroke-linecap:square;stroke-width:1.5;"/>
   </g>
   <g id="line2d_38">
    <path clip-path="url(#p0fccb91e2c)" d="M 83.467919 375.715469 
L 83.627736 365.988747 
L 85.222212 365.373207 
L 86.816687 371.323018 
L 88.411163 340.343369 
L 90.005638 330.290365 
L 91.600114 363.93715 
L 93.194589 316.134169 
L 94.789065 352.653189 
L 96.38354 335.829736 
L 97.978016 308.337861 
L 99.572492 330.905905 
L 101.166967 316.544489 
L 102.761443 296.233261 
L 104.355918 353.473828 
L 105.950394 350.806692 
L 107.089127 375.715469 
M 107.861098 375.715469 
L 109.139345 335.419417 
L 110.73382 312.441175 
L 112.328296 301.977852 
L 113.922771 325.776732 
L 115.517247 256.636786 
L 117.111722 282.692483 
L 118.706198 265.664052 
L 120.300673 259.919462 
L 121.895149 260.12456 
L 123.489625 243.916768 
L 125.0841 241.249632 
L 126.678576 260.53488 
L 128.273051 291.514529 
L 129.867527 247.404543 
L 131.462002 237.966957 
L 133.056478 264.843292 
L 134.650953 258.278185 
L 137.839904 233.863765 
L 139.43438 239.197915 
L 141.028855 239.403135 
L 142.623331 277.768652 
L 144.217806 237.146319 
L 145.812282 249.866458 
L 147.406758 210.680302 
L 149.001233 206.166669 
L 150.595709 211.295842 
L 152.190184 205.346031 
L 153.78466 212.5268 
L 155.379135 215.193936 
L 156.973611 191.394934 
L 158.568086 218.476489 
L 160.162562 210.885523 
L 161.757037 212.937119 
L 163.351513 210.475082 
L 164.945988 199.396341 
L 166.540464 209.859664 
L 168.134939 215.809354 
L 169.729415 195.908567 
L 171.32389 210.885523 
L 172.918366 190.163976 
L 174.512842 205.346031 
L 176.107317 199.396341 
L 177.701793 204.320293 
L 179.296268 196.113787 
L 180.890744 190.163976 
L 182.485219 190.984614 
L 184.079695 183.393648 
L 185.67417 183.803967 
L 187.268646 172.314785 
L 188.863121 186.060784 
L 190.457597 173.750963 
L 192.052072 181.95747 
L 193.646548 183.393648 
L 195.241023 184.419385 
L 196.835499 181.54715 
L 198.429975 185.650464 
L 200.02445 186.676202 
L 201.618926 179.085235 
L 203.213401 178.674916 
L 204.807877 192.010473 
L 206.402352 177.854277 
L 207.996828 174.981921 
L 209.591303 180.521292 
L 211.185779 182.983328 
L 212.780254 176.418099 
L 214.37473 177.033517 
L 215.969205 181.752371 
L 217.563681 177.443837 
L 219.158156 170.263189 
L 220.752632 158.158589 
L 222.347108 180.726512 
L 223.941583 172.314785 
L 225.536059 168.006373 
L 227.130534 166.980635 
L 228.72501 174.366503 
L 230.319485 169.85287 
L 231.913961 179.290334 
L 235.102912 165.954776 
L 236.697387 176.212879 
L 238.291863 163.287641 
L 239.886338 180.931611 
L 241.480814 162.056683 
L 243.075289 166.775415 
L 244.669765 170.673508 
L 246.264241 171.289048 
L 247.858716 170.057969 
L 249.453192 164.108279 
L 251.047667 163.69796 
L 252.642143 164.928917 
L 254.236618 166.980635 
L 255.831094 163.492861 
L 257.425569 167.185734 
L 259.020045 164.108279 
L 260.61452 167.390954 
L 262.208996 164.723819 
L 263.803471 169.442551 
L 265.397947 172.520006 
L 266.992422 160.210185 
L 268.586898 166.365096 
L 270.181374 165.749556 
L 271.775849 163.08242 
L 273.370325 169.23733 
L 274.9648 161.851462 
L 276.559276 169.647649 
L 278.153751 162.056683 
L 279.748227 169.23733 
L 281.342702 166.980635 
L 282.937178 162.877321 
L 284.531653 167.801274 
L 286.126129 162.467002 
L 287.720604 167.596053 
L 289.31508 163.492861 
L 290.909555 164.518598 
L 292.504031 161.030824 
L 294.098507 162.467002 
L 295.692982 167.185734 
L 297.287458 164.313499 
L 298.881933 164.518598 
L 300.476409 163.69796 
L 302.070884 161.746969 
L 303.66536 160.210185 
L 305.259835 165.544457 
L 306.854311 164.723819 
L 308.448786 162.877321 
L 310.043262 157.953369 
L 311.637737 165.749556 
L 313.232213 165.749556 
L 314.826688 162.672101 
L 316.421164 164.313499 
L 318.01564 163.08242 
L 319.610115 160.825725 
L 321.204591 166.570194 
L 324.393542 159.594767 
L 325.988017 164.518598 
L 327.582493 162.467002 
L 329.176968 161.441143 
L 330.771444 160.825725 
L 332.365919 162.672101 
L 333.960395 166.570194 
L 335.55487 156.927632 
L 337.149346 166.365096 
L 338.743821 159.799866 
L 340.338297 165.544457 
L 341.932773 156.927632 
L 343.527248 162.056683 
L 345.121724 160.825725 
L 346.716199 157.54305 
L 348.310675 165.954776 
L 349.90515 162.467002 
L 351.499626 163.492861 
L 353.094101 163.90318 
L 354.688577 155.901773 
L 356.283052 168.416692 
L 357.877528 159.799866 
L 359.472003 161.851462 
L 361.066479 159.389547 
L 362.660954 172.314785 
L 364.25543 156.722411 
L 365.849905 166.159875 
L 367.444381 164.313499 
L 369.038857 165.134138 
L 370.633332 168.006373 
L 372.227808 167.596053 
L 373.822283 162.467002 
L 375.416759 161.030824 
L 377.011234 166.159875 
L 378.60571 166.159875 
L 380.200185 162.056683 
L 381.794661 163.492861 
L 383.389136 159.799866 
L 384.983612 166.365096 
L 386.578087 168.621912 
L 388.172563 159.389547 
L 389.767038 159.389547 
L 391.361514 164.928917 
L 392.95599 162.877321 
L 394.550465 163.08242 
L 396.144941 160.210185 
L 397.739416 160.210185 
L 399.333892 164.723819 
L 400.928367 162.877321 
L 402.522843 166.365096 
L 404.117318 157.74827 
L 405.711794 169.442551 
L 407.306269 153.644956 
L 408.900745 163.69796 
L 410.49522 162.877321 
L 412.089696 160.825725 
L 413.684171 165.339237 
L 415.278647 168.621912 
L 416.873123 161.030824 
L 418.467598 161.646364 
L 420.062074 159.594767 
L 421.656549 158.568909 
L 423.251025 166.365096 
L 424.8455 163.287641 
L 426.439976 161.030824 
L 428.034451 162.672101 
L 429.628927 158.568909 
L 431.223402 166.159875 
L 432.817878 160.415406 
L 434.412353 157.337951 
L 436.006829 160.415406 
L 437.601304 169.85287 
L 439.19578 158.568909 
L 440.790256 167.185734 
L 442.384731 158.363688 
L 443.979207 161.441143 
L 445.573682 166.365096 
L 447.168158 158.158589 
L 448.762633 162.877321 
L 450.357109 161.851462 
L 451.951584 168.006373 
L 453.54606 156.312092 
L 455.140535 159.389547 
L 456.735011 169.23733 
L 458.329486 162.877321 
L 459.923962 157.953369 
L 461.518437 165.134138 
L 463.112913 160.825725 
L 464.707389 164.518598 
L 466.301864 161.236044 
L 467.89634 156.927632 
L 469.490815 160.825725 
L 471.085291 162.877321 
L 472.679766 165.339237 
L 474.274242 160.825725 
L 475.868717 162.877321 
L 477.463193 161.851462 
L 479.057668 162.261782 
L 480.652144 160.620505 
L 482.246619 163.287641 
L 483.841095 159.594767 
L 485.43557 164.518598 
L 487.030046 168.827011 
L 488.624522 158.363688 
L 490.218997 158.979228 
L 491.813473 163.287641 
L 493.407948 160.210185 
L 495.002424 162.877321 
L 496.596899 162.261782 
L 498.191375 162.877321 
L 499.78585 162.056683 
L 501.380326 154.670815 
L 502.974801 173.956062 
L 504.569277 154.875914 
L 506.163752 162.261782 
L 507.758228 165.954776 
L 509.352703 162.261782 
L 510.947179 160.005087 
L 512.541655 159.799866 
L 514.13613 165.954776 
L 515.730606 161.646364 
L 517.325081 167.390954 
L 518.919557 161.236044 
L 520.514032 162.877321 
L 522.108508 160.825725 
L 523.702983 161.441143 
L 525.297459 163.90318 
L 526.891934 163.492861 
L 528.48641 162.672101 
L 530.080885 160.825725 
L 531.675361 160.415406 
L 533.269836 164.108279 
L 534.864312 163.69796 
L 536.458788 162.672101 
L 538.053263 160.005087 
L 539.647739 163.69796 
L 541.242214 162.261782 
L 542.83669 160.005087 
L 544.431165 163.08242 
L 546.025641 162.672101 
L 547.620116 160.210185 
L 549.214592 162.056683 
L 550.809067 159.799866 
L 552.403543 161.951096 
L 553.998018 162.672101 
L 555.592494 159.799866 
L 557.186969 162.056683 
L 558.781445 161.441143 
L 560.37592 159.184327 
L 561.970396 163.08242 
L 563.564872 160.210185 
L 565.159347 164.518598 
L 566.753823 163.492861 
L 568.348298 158.568909 
L 569.942774 161.646364 
L 571.537249 163.492861 
L 573.131725 162.467002 
L 574.7262 158.774007 
L 576.320676 163.08242 
L 577.915151 158.774007 
L 579.509627 168.416692 
L 581.104102 161.236044 
L 582.698578 160.210185 
L 584.293053 163.90318 
L 585.887529 163.492861 
L 587.482005 164.518598 
L 589.07648 159.799866 
L 590.670956 160.210185 
L 592.265431 165.134138 
L 593.859907 161.646364 
L 595.454382 160.825725 
L 597.048858 160.825725 
L 598.643333 161.851462 
L 600.237809 164.108279 
L 601.832284 160.825725 
L 603.42676 162.261782 
L 605.021235 160.825725 
L 606.615711 156.312092 
L 608.210186 170.673508 
L 609.804662 160.210185 
L 611.399138 156.106993 
L 612.993613 169.442551 
L 614.588089 157.74827 
L 616.182564 162.056683 
L 617.77704 160.415406 
L 619.371515 161.236044 
L 620.965991 161.441143 
L 622.560466 161.851462 
L 624.154942 166.570194 
L 625.749417 160.415406 
L 627.343893 161.851462 
L 628.938368 161.030824 
L 630.532844 161.236044 
L 632.127319 164.928917 
L 633.721795 160.210185 
L 635.316271 159.389547 
L 636.910746 172.314785 
L 638.505222 151.38814 
L 640.099697 163.90318 
L 641.694173 163.90318 
L 643.288648 158.363688 
L 644.883124 158.774007 
L 646.477599 171.904466 
L 648.072075 152.413998 
L 649.66655 168.827011 
L 651.261026 157.953369 
L 652.855501 166.365096 
L 654.449977 158.979228 
L 656.044452 168.006373 
L 657.638928 159.799866 
L 659.233404 161.030824 
L 660.827879 163.90318 
L 662.422355 165.749556 
L 664.01683 157.953369 
L 665.611306 162.467002 
L 667.205781 161.646364 
L 668.800257 164.723819 
L 670.394732 159.594767 
L 671.989208 165.339237 
L 673.583683 157.953369 
L 675.178159 169.032231 
L 676.772634 164.723819 
L 678.36711 155.491453 
L 679.961585 163.287641 
L 681.556061 160.620505 
L 683.150537 159.184327 
L 684.745012 173.956062 
L 686.339488 151.59336 
L 687.933963 164.108279 
L 687.933963 164.108279 
" style="fill:none;stroke:#4daf4a;stroke-linecap:square;stroke-width:1.5;"/>
   </g>
   <g id="patch_3">
    <path d="M 50.14375 337.159219 
L 50.14375 10.999219 
" style="fill:none;stroke:#000000;stroke-linecap:square;stroke-linejoin:miter;stroke-width:0.8;"/>
   </g>
   <g id="patch_4">
    <path d="M 719.74375 337.159219 
L 719.74375 10.999219 
" style="fill:none;stroke:#000000;stroke-linecap:square;stroke-linejoin:miter;stroke-width:0.8;"/>
   </g>
   <g id="patch_5">
    <path d="M 50.14375 337.159219 
L 719.74375 337.159219 
" style="fill:none;stroke:#000000;stroke-linecap:square;stroke-linejoin:miter;stroke-width:0.8;"/>
   </g>
   <g id="patch_6">
    <path d="M 50.14375 10.999219 
L 719.74375 10.999219 
" style="fill:none;stroke:#000000;stroke-linecap:square;stroke-linejoin:miter;stroke-width:0.8;"/>
   </g>
   <g id="legend_1">
    <g id="patch_7">
     <path d="M 57.14375 48.355469 
L 114.584375 48.355469 
Q 116.584375 48.355469 116.584375 46.355469 
L 116.584375 17.999219 
Q 116.584375 15.999219 114.584375 15.999219 
L 57.14375 15.999219 
Q 55.14375 15.999219 55.14375 17.999219 
L 55.14375 46.355469 
Q 55.14375 48.355469 57.14375 48.355469 
z
" style="fill:#ffffff;opacity:0.8;stroke:#cccccc;stroke-linejoin:miter;"/>
    </g>
    <g id="line2d_39">
     <path d="M 59.14375 24.097656 
L 79.14375 24.097656 
" style="fill:none;stroke:#377eb8;stroke-linecap:square;stroke-width:1.5;"/>
    </g>
    <g id="line2d_40"/>
    <g id="text_21">
     <!-- Train -->
     <defs>
      <path d="M -0.296875 72.90625 
L 61.375 72.90625 
L 61.375 64.59375 
L 35.5 64.59375 
L 35.5 0 
L 25.59375 0 
L 25.59375 64.59375 
L -0.296875 64.59375 
z
" id="DejaVuSans-84"/>
      <path d="M 9.421875 54.6875 
L 18.40625 54.6875 
L 18.40625 0 
L 9.421875 0 
z
M 9.421875 75.984375 
L 18.40625 75.984375 
L 18.40625 64.59375 
L 9.421875 64.59375 
z
" id="DejaVuSans-105"/>
      <path d="M 54.890625 33.015625 
L 54.890625 0 
L 45.90625 0 
L 45.90625 32.71875 
Q 45.90625 40.484375 42.875 44.328125 
Q 39.84375 48.1875 33.796875 48.1875 
Q 26.515625 48.1875 22.3125 43.546875 
Q 18.109375 38.921875 18.109375 30.90625 
L 18.109375 0 
L 9.078125 0 
L 9.078125 54.6875 
L 18.109375 54.6875 
L 18.109375 46.1875 
Q 21.34375 51.125 25.703125 53.5625 
Q 30.078125 56 35.796875 56 
Q 45.21875 56 50.046875 50.171875 
Q 54.890625 44.34375 54.890625 33.015625 
z
" id="DejaVuSans-110"/>
     </defs>
     <g transform="translate(87.14375 27.597656)scale(0.1 -0.1)">
      <use xlink:href="#DejaVuSans-84"/>
      <use x="60.865234" xlink:href="#DejaVuSans-114"/>
      <use x="101.978516" xlink:href="#DejaVuSans-97"/>
      <use x="163.257812" xlink:href="#DejaVuSans-105"/>
      <use x="191.041016" xlink:href="#DejaVuSans-110"/>
     </g>
    </g>
    <g id="line2d_41">
     <path d="M 59.14375 38.775781 
L 79.14375 38.775781 
" style="fill:none;stroke:#4daf4a;stroke-linecap:square;stroke-width:1.5;"/>
    </g>
    <g id="line2d_42"/>
    <g id="text_22">
     <!-- Test -->
     <defs>
      <path d="M 56.203125 29.59375 
L 56.203125 25.203125 
L 14.890625 25.203125 
Q 15.484375 15.921875 20.484375 11.0625 
Q 25.484375 6.203125 34.421875 6.203125 
Q 39.59375 6.203125 44.453125 7.46875 
Q 49.3125 8.734375 54.109375 11.28125 
L 54.109375 2.78125 
Q 49.265625 0.734375 44.1875 -0.34375 
Q 39.109375 -1.421875 33.890625 -1.421875 
Q 20.796875 -1.421875 13.15625 6.1875 
Q 5.515625 13.8125 5.515625 26.8125 
Q 5.515625 40.234375 12.765625 48.109375 
Q 20.015625 56 32.328125 56 
Q 43.359375 56 49.78125 48.890625 
Q 56.203125 41.796875 56.203125 29.59375 
z
M 47.21875 32.234375 
Q 47.125 39.59375 43.09375 43.984375 
Q 39.0625 48.390625 32.421875 48.390625 
Q 24.90625 48.390625 20.390625 44.140625 
Q 15.875 39.890625 15.1875 32.171875 
z
" id="DejaVuSans-101"/>
      <path d="M 44.28125 53.078125 
L 44.28125 44.578125 
Q 40.484375 46.53125 36.375 47.5 
Q 32.28125 48.484375 27.875 48.484375 
Q 21.1875 48.484375 17.84375 46.4375 
Q 14.5 44.390625 14.5 40.28125 
Q 14.5 37.15625 16.890625 35.375 
Q 19.28125 33.59375 26.515625 31.984375 
L 29.59375 31.296875 
Q 39.15625 29.25 43.1875 25.515625 
Q 47.21875 21.78125 47.21875 15.09375 
Q 47.21875 7.46875 41.1875 3.015625 
Q 35.15625 -1.421875 24.609375 -1.421875 
Q 20.21875 -1.421875 15.453125 -0.5625 
Q 10.6875 0.296875 5.421875 2 
L 5.421875 11.28125 
Q 10.40625 8.6875 15.234375 7.390625 
Q 20.0625 6.109375 24.8125 6.109375 
Q 31.15625 6.109375 34.5625 8.28125 
Q 37.984375 10.453125 37.984375 14.40625 
Q 37.984375 18.0625 35.515625 20.015625 
Q 33.0625 21.96875 24.703125 23.78125 
L 21.578125 24.515625 
Q 13.234375 26.265625 9.515625 29.90625 
Q 5.8125 33.546875 5.8125 39.890625 
Q 5.8125 47.609375 11.28125 51.796875 
Q 16.75 56 26.8125 56 
Q 31.78125 56 36.171875 55.265625 
Q 40.578125 54.546875 44.28125 53.078125 
z
" id="DejaVuSans-115"/>
      <path d="M 18.3125 70.21875 
L 18.3125 54.6875 
L 36.8125 54.6875 
L 36.8125 47.703125 
L 18.3125 47.703125 
L 18.3125 18.015625 
Q 18.3125 11.328125 20.140625 9.421875 
Q 21.96875 7.515625 27.59375 7.515625 
L 36.8125 7.515625 
L 36.8125 0 
L 27.59375 0 
Q 17.1875 0 13.234375 3.875 
Q 9.28125 7.765625 9.28125 18.015625 
L 9.28125 47.703125 
L 2.6875 47.703125 
L 2.6875 54.6875 
L 9.28125 54.6875 
L 9.28125 70.21875 
z
" id="DejaVuSans-116"/>
     </defs>
     <g transform="translate(87.14375 42.275781)scale(0.1 -0.1)">
      <use xlink:href="#DejaVuSans-84"/>
      <use x="60.818359" xlink:href="#DejaVuSans-101"/>
      <use x="122.341797" xlink:href="#DejaVuSans-115"/>
      <use x="174.441406" xlink:href="#DejaVuSans-116"/>
     </g>
    </g>
   </g>
  </g>
 </g>
 <defs>
  <clipPath id="p0fccb91e2c">
   <rect height="326.16" width="669.6" x="50.14375" y="10.999219"/>
  </clipPath>
 </defs>
</svg>
