<?xml version="1.0" encoding="utf-8" standalone="no"?>
<!DOCTYPE svg PUBLIC "-//W3C//DTD SVG 1.1//EN"
  "http://www.w3.org/Graphics/SVG/1.1/DTD/svg11.dtd">
<!-- Created with matplotlib (https://matplotlib.org/) -->
<svg height="374.715469pt" version="1.1" viewBox="0 0 726.94375 374.715469" width="726.94375pt" xmlns="http://www.w3.org/2000/svg" xmlns:xlink="http://www.w3.org/1999/xlink">
 <defs>
  <style type="text/css">
*{stroke-linecap:butt;stroke-linejoin:round;white-space:pre;}
  </style>
 </defs>
 <g id="figure_1">
  <g id="patch_1">
   <path d="M 0 374.715469 
L 726.94375 374.715469 
L 726.94375 0 
L 0 0 
z
" style="fill:#ffffff;"/>
  </g>
  <g id="axes_1">
   <g id="patch_2">
    <path d="M 50.14375 337.159219 
L 719.74375 337.159219 
L 719.74375 10.999219 
L 50.14375 10.999219 
z
" style="fill:#ffffff;"/>
   </g>
   <g id="matplotlib.axis_1">
    <g id="xtick_1">
     <g id="line2d_1">
      <path clip-path="url(#pca27c128ea)" d="M 50.14375 337.159219 
L 50.14375 10.999219 
" style="fill:none;stroke:#b0b0b0;stroke-linecap:square;stroke-width:0.8;"/>
     </g>
     <g id="line2d_2">
      <defs>
       <path d="M 0 0 
L 0 3.5 
" id="mc5240453be" style="stroke:#000000;stroke-width:0.8;"/>
      </defs>
      <g>
       <use style="stroke:#000000;stroke-width:0.8;" x="50.14375" xlink:href="#mc5240453be" y="337.159219"/>
      </g>
     </g>
     <g id="text_1">
      <!-- 0 -->
      <defs>
       <path d="M 31.78125 66.40625 
Q 24.171875 66.40625 20.328125 58.90625 
Q 16.5 51.421875 16.5 36.375 
Q 16.5 21.390625 20.328125 13.890625 
Q 24.171875 6.390625 31.78125 6.390625 
Q 39.453125 6.390625 43.28125 13.890625 
Q 47.125 21.390625 47.125 36.375 
Q 47.125 51.421875 43.28125 58.90625 
Q 39.453125 66.40625 31.78125 66.40625 
z
M 31.78125 74.21875 
Q 44.046875 74.21875 50.515625 64.515625 
Q 56.984375 54.828125 56.984375 36.375 
Q 56.984375 17.96875 50.515625 8.265625 
Q 44.046875 -1.421875 31.78125 -1.421875 
Q 19.53125 -1.421875 13.0625 8.265625 
Q 6.59375 17.96875 6.59375 36.375 
Q 6.59375 54.828125 13.0625 64.515625 
Q 19.53125 74.21875 31.78125 74.21875 
z
" id="DejaVuSans-48"/>
      </defs>
      <g transform="translate(46.9625 351.757656)scale(0.1 -0.1)">
       <use xlink:href="#DejaVuSans-48"/>
      </g>
     </g>
    </g>
    <g id="xtick_2">
     <g id="line2d_3">
      <path clip-path="url(#pca27c128ea)" d="M 129.867527 337.159219 
L 129.867527 10.999219 
" style="fill:none;stroke:#b0b0b0;stroke-linecap:square;stroke-width:0.8;"/>
     </g>
     <g id="line2d_4">
      <g>
       <use style="stroke:#000000;stroke-width:0.8;" x="129.867527" xlink:href="#mc5240453be" y="337.159219"/>
      </g>
     </g>
     <g id="text_2">
      <!-- 50 -->
      <defs>
       <path d="M 10.796875 72.90625 
L 49.515625 72.90625 
L 49.515625 64.59375 
L 19.828125 64.59375 
L 19.828125 46.734375 
Q 21.96875 47.46875 24.109375 47.828125 
Q 26.265625 48.1875 28.421875 48.1875 
Q 40.625 48.1875 47.75 41.5 
Q 54.890625 34.8125 54.890625 23.390625 
Q 54.890625 11.625 47.5625 5.09375 
Q 40.234375 -1.421875 26.90625 -1.421875 
Q 22.3125 -1.421875 17.546875 -0.640625 
Q 12.796875 0.140625 7.71875 1.703125 
L 7.71875 11.625 
Q 12.109375 9.234375 16.796875 8.0625 
Q 21.484375 6.890625 26.703125 6.890625 
Q 35.15625 6.890625 40.078125 11.328125 
Q 45.015625 15.765625 45.015625 23.390625 
Q 45.015625 31 40.078125 35.4375 
Q 35.15625 39.890625 26.703125 39.890625 
Q 22.75 39.890625 18.8125 39.015625 
Q 14.890625 38.140625 10.796875 36.28125 
z
" id="DejaVuSans-53"/>
      </defs>
      <g transform="translate(123.505027 351.757656)scale(0.1 -0.1)">
       <use xlink:href="#DejaVuSans-53"/>
       <use x="63.623047" xlink:href="#DejaVuSans-48"/>
      </g>
     </g>
    </g>
    <g id="xtick_3">
     <g id="line2d_5">
      <path clip-path="url(#pca27c128ea)" d="M 209.591303 337.159219 
L 209.591303 10.999219 
" style="fill:none;stroke:#b0b0b0;stroke-linecap:square;stroke-width:0.8;"/>
     </g>
     <g id="line2d_6">
      <g>
       <use style="stroke:#000000;stroke-width:0.8;" x="209.591303" xlink:href="#mc5240453be" y="337.159219"/>
      </g>
     </g>
     <g id="text_3">
      <!-- 100 -->
      <defs>
       <path d="M 12.40625 8.296875 
L 28.515625 8.296875 
L 28.515625 63.921875 
L 10.984375 60.40625 
L 10.984375 69.390625 
L 28.421875 72.90625 
L 38.28125 72.90625 
L 38.28125 8.296875 
L 54.390625 8.296875 
L 54.390625 0 
L 12.40625 0 
z
" id="DejaVuSans-49"/>
      </defs>
      <g transform="translate(200.047553 351.757656)scale(0.1 -0.1)">
       <use xlink:href="#DejaVuSans-49"/>
       <use x="63.623047" xlink:href="#DejaVuSans-48"/>
       <use x="127.246094" xlink:href="#DejaVuSans-48"/>
      </g>
     </g>
    </g>
    <g id="xtick_4">
     <g id="line2d_7">
      <path clip-path="url(#pca27c128ea)" d="M 289.31508 337.159219 
L 289.31508 10.999219 
" style="fill:none;stroke:#b0b0b0;stroke-linecap:square;stroke-width:0.8;"/>
     </g>
     <g id="line2d_8">
      <g>
       <use style="stroke:#000000;stroke-width:0.8;" x="289.31508" xlink:href="#mc5240453be" y="337.159219"/>
      </g>
     </g>
     <g id="text_4">
      <!-- 150 -->
      <g transform="translate(279.77133 351.757656)scale(0.1 -0.1)">
       <use xlink:href="#DejaVuSans-49"/>
       <use x="63.623047" xlink:href="#DejaVuSans-53"/>
       <use x="127.246094" xlink:href="#DejaVuSans-48"/>
      </g>
     </g>
    </g>
    <g id="xtick_5">
     <g id="line2d_9">
      <path clip-path="url(#pca27c128ea)" d="M 369.038857 337.159219 
L 369.038857 10.999219 
" style="fill:none;stroke:#b0b0b0;stroke-linecap:square;stroke-width:0.8;"/>
     </g>
     <g id="line2d_10">
      <g>
       <use style="stroke:#000000;stroke-width:0.8;" x="369.038857" xlink:href="#mc5240453be" y="337.159219"/>
      </g>
     </g>
     <g id="text_5">
      <!-- 200 -->
      <defs>
       <path d="M 19.1875 8.296875 
L 53.609375 8.296875 
L 53.609375 0 
L 7.328125 0 
L 7.328125 8.296875 
Q 12.9375 14.109375 22.625 23.890625 
Q 32.328125 33.6875 34.8125 36.53125 
Q 39.546875 41.84375 41.421875 45.53125 
Q 43.3125 49.21875 43.3125 52.78125 
Q 43.3125 58.59375 39.234375 62.25 
Q 35.15625 65.921875 28.609375 65.921875 
Q 23.96875 65.921875 18.8125 64.3125 
Q 13.671875 62.703125 7.8125 59.421875 
L 7.8125 69.390625 
Q 13.765625 71.78125 18.9375 73 
Q 24.125 74.21875 28.421875 74.21875 
Q 39.75 74.21875 46.484375 68.546875 
Q 53.21875 62.890625 53.21875 53.421875 
Q 53.21875 48.921875 51.53125 44.890625 
Q 49.859375 40.875 45.40625 35.40625 
Q 44.1875 33.984375 37.640625 27.21875 
Q 31.109375 20.453125 19.1875 8.296875 
z
" id="DejaVuSans-50"/>
      </defs>
      <g transform="translate(359.495107 351.757656)scale(0.1 -0.1)">
       <use xlink:href="#DejaVuSans-50"/>
       <use x="63.623047" xlink:href="#DejaVuSans-48"/>
       <use x="127.246094" xlink:href="#DejaVuSans-48"/>
      </g>
     </g>
    </g>
    <g id="xtick_6">
     <g id="line2d_11">
      <path clip-path="url(#pca27c128ea)" d="M 448.762633 337.159219 
L 448.762633 10.999219 
" style="fill:none;stroke:#b0b0b0;stroke-linecap:square;stroke-width:0.8;"/>
     </g>
     <g id="line2d_12">
      <g>
       <use style="stroke:#000000;stroke-width:0.8;" x="448.762633" xlink:href="#mc5240453be" y="337.159219"/>
      </g>
     </g>
     <g id="text_6">
      <!-- 250 -->
      <g transform="translate(439.218883 351.757656)scale(0.1 -0.1)">
       <use xlink:href="#DejaVuSans-50"/>
       <use x="63.623047" xlink:href="#DejaVuSans-53"/>
       <use x="127.246094" xlink:href="#DejaVuSans-48"/>
      </g>
     </g>
    </g>
    <g id="xtick_7">
     <g id="line2d_13">
      <path clip-path="url(#pca27c128ea)" d="M 528.48641 337.159219 
L 528.48641 10.999219 
" style="fill:none;stroke:#b0b0b0;stroke-linecap:square;stroke-width:0.8;"/>
     </g>
     <g id="line2d_14">
      <g>
       <use style="stroke:#000000;stroke-width:0.8;" x="528.48641" xlink:href="#mc5240453be" y="337.159219"/>
      </g>
     </g>
     <g id="text_7">
      <!-- 300 -->
      <defs>
       <path d="M 40.578125 39.3125 
Q 47.65625 37.796875 51.625 33 
Q 55.609375 28.21875 55.609375 21.1875 
Q 55.609375 10.40625 48.1875 4.484375 
Q 40.765625 -1.421875 27.09375 -1.421875 
Q 22.515625 -1.421875 17.65625 -0.515625 
Q 12.796875 0.390625 7.625 2.203125 
L 7.625 11.71875 
Q 11.71875 9.328125 16.59375 8.109375 
Q 21.484375 6.890625 26.8125 6.890625 
Q 36.078125 6.890625 40.9375 10.546875 
Q 45.796875 14.203125 45.796875 21.1875 
Q 45.796875 27.640625 41.28125 31.265625 
Q 36.765625 34.90625 28.71875 34.90625 
L 20.21875 34.90625 
L 20.21875 43.015625 
L 29.109375 43.015625 
Q 36.375 43.015625 40.234375 45.921875 
Q 44.09375 48.828125 44.09375 54.296875 
Q 44.09375 59.90625 40.109375 62.90625 
Q 36.140625 65.921875 28.71875 65.921875 
Q 24.65625 65.921875 20.015625 65.03125 
Q 15.375 64.15625 9.8125 62.3125 
L 9.8125 71.09375 
Q 15.4375 72.65625 20.34375 73.4375 
Q 25.25 74.21875 29.59375 74.21875 
Q 40.828125 74.21875 47.359375 69.109375 
Q 53.90625 64.015625 53.90625 55.328125 
Q 53.90625 49.265625 50.4375 45.09375 
Q 46.96875 40.921875 40.578125 39.3125 
z
" id="DejaVuSans-51"/>
      </defs>
      <g transform="translate(518.94266 351.757656)scale(0.1 -0.1)">
       <use xlink:href="#DejaVuSans-51"/>
       <use x="63.623047" xlink:href="#DejaVuSans-48"/>
       <use x="127.246094" xlink:href="#DejaVuSans-48"/>
      </g>
     </g>
    </g>
    <g id="xtick_8">
     <g id="line2d_15">
      <path clip-path="url(#pca27c128ea)" d="M 608.210186 337.159219 
L 608.210186 10.999219 
" style="fill:none;stroke:#b0b0b0;stroke-linecap:square;stroke-width:0.8;"/>
     </g>
     <g id="line2d_16">
      <g>
       <use style="stroke:#000000;stroke-width:0.8;" x="608.210186" xlink:href="#mc5240453be" y="337.159219"/>
      </g>
     </g>
     <g id="text_8">
      <!-- 350 -->
      <g transform="translate(598.666436 351.757656)scale(0.1 -0.1)">
       <use xlink:href="#DejaVuSans-51"/>
       <use x="63.623047" xlink:href="#DejaVuSans-53"/>
       <use x="127.246094" xlink:href="#DejaVuSans-48"/>
      </g>
     </g>
    </g>
    <g id="xtick_9">
     <g id="line2d_17">
      <path clip-path="url(#pca27c128ea)" d="M 687.933963 337.159219 
L 687.933963 10.999219 
" style="fill:none;stroke:#b0b0b0;stroke-linecap:square;stroke-width:0.8;"/>
     </g>
     <g id="line2d_18">
      <g>
       <use style="stroke:#000000;stroke-width:0.8;" x="687.933963" xlink:href="#mc5240453be" y="337.159219"/>
      </g>
     </g>
     <g id="text_9">
      <!-- 400 -->
      <defs>
       <path d="M 37.796875 64.3125 
L 12.890625 25.390625 
L 37.796875 25.390625 
z
M 35.203125 72.90625 
L 47.609375 72.90625 
L 47.609375 25.390625 
L 58.015625 25.390625 
L 58.015625 17.1875 
L 47.609375 17.1875 
L 47.609375 0 
L 37.796875 0 
L 37.796875 17.1875 
L 4.890625 17.1875 
L 4.890625 26.703125 
z
" id="DejaVuSans-52"/>
      </defs>
      <g transform="translate(678.390213 351.757656)scale(0.1 -0.1)">
       <use xlink:href="#DejaVuSans-52"/>
       <use x="63.623047" xlink:href="#DejaVuSans-48"/>
       <use x="127.246094" xlink:href="#DejaVuSans-48"/>
      </g>
     </g>
    </g>
    <g id="text_10">
     <!-- Epoch -->
     <defs>
      <path d="M 9.8125 72.90625 
L 55.90625 72.90625 
L 55.90625 64.59375 
L 19.671875 64.59375 
L 19.671875 43.015625 
L 54.390625 43.015625 
L 54.390625 34.71875 
L 19.671875 34.71875 
L 19.671875 8.296875 
L 56.78125 8.296875 
L 56.78125 0 
L 9.8125 0 
z
" id="DejaVuSans-69"/>
      <path d="M 18.109375 8.203125 
L 18.109375 -20.796875 
L 9.078125 -20.796875 
L 9.078125 54.6875 
L 18.109375 54.6875 
L 18.109375 46.390625 
Q 20.953125 51.265625 25.265625 53.625 
Q 29.59375 56 35.59375 56 
Q 45.5625 56 51.78125 48.09375 
Q 58.015625 40.1875 58.015625 27.296875 
Q 58.015625 14.40625 51.78125 6.484375 
Q 45.5625 -1.421875 35.59375 -1.421875 
Q 29.59375 -1.421875 25.265625 0.953125 
Q 20.953125 3.328125 18.109375 8.203125 
z
M 48.6875 27.296875 
Q 48.6875 37.203125 44.609375 42.84375 
Q 40.53125 48.484375 33.40625 48.484375 
Q 26.265625 48.484375 22.1875 42.84375 
Q 18.109375 37.203125 18.109375 27.296875 
Q 18.109375 17.390625 22.1875 11.75 
Q 26.265625 6.109375 33.40625 6.109375 
Q 40.53125 6.109375 44.609375 11.75 
Q 48.6875 17.390625 48.6875 27.296875 
z
" id="DejaVuSans-112"/>
      <path d="M 30.609375 48.390625 
Q 23.390625 48.390625 19.1875 42.75 
Q 14.984375 37.109375 14.984375 27.296875 
Q 14.984375 17.484375 19.15625 11.84375 
Q 23.34375 6.203125 30.609375 6.203125 
Q 37.796875 6.203125 41.984375 11.859375 
Q 46.1875 17.53125 46.1875 27.296875 
Q 46.1875 37.015625 41.984375 42.703125 
Q 37.796875 48.390625 30.609375 48.390625 
z
M 30.609375 56 
Q 42.328125 56 49.015625 48.375 
Q 55.71875 40.765625 55.71875 27.296875 
Q 55.71875 13.875 49.015625 6.21875 
Q 42.328125 -1.421875 30.609375 -1.421875 
Q 18.84375 -1.421875 12.171875 6.21875 
Q 5.515625 13.875 5.515625 27.296875 
Q 5.515625 40.765625 12.171875 48.375 
Q 18.84375 56 30.609375 56 
z
" id="DejaVuSans-111"/>
      <path d="M 48.78125 52.59375 
L 48.78125 44.1875 
Q 44.96875 46.296875 41.140625 47.34375 
Q 37.3125 48.390625 33.40625 48.390625 
Q 24.65625 48.390625 19.8125 42.84375 
Q 14.984375 37.3125 14.984375 27.296875 
Q 14.984375 17.28125 19.8125 11.734375 
Q 24.65625 6.203125 33.40625 6.203125 
Q 37.3125 6.203125 41.140625 7.25 
Q 44.96875 8.296875 48.78125 10.40625 
L 48.78125 2.09375 
Q 45.015625 0.34375 40.984375 -0.53125 
Q 36.96875 -1.421875 32.421875 -1.421875 
Q 20.0625 -1.421875 12.78125 6.34375 
Q 5.515625 14.109375 5.515625 27.296875 
Q 5.515625 40.671875 12.859375 48.328125 
Q 20.21875 56 33.015625 56 
Q 37.15625 56 41.109375 55.140625 
Q 45.0625 54.296875 48.78125 52.59375 
z
" id="DejaVuSans-99"/>
      <path d="M 54.890625 33.015625 
L 54.890625 0 
L 45.90625 0 
L 45.90625 32.71875 
Q 45.90625 40.484375 42.875 44.328125 
Q 39.84375 48.1875 33.796875 48.1875 
Q 26.515625 48.1875 22.3125 43.546875 
Q 18.109375 38.921875 18.109375 30.90625 
L 18.109375 0 
L 9.078125 0 
L 9.078125 75.984375 
L 18.109375 75.984375 
L 18.109375 46.1875 
Q 21.34375 51.125 25.703125 53.5625 
Q 30.078125 56 35.796875 56 
Q 45.21875 56 50.046875 50.171875 
Q 54.890625 44.34375 54.890625 33.015625 
z
" id="DejaVuSans-104"/>
     </defs>
     <g transform="translate(369.632813 365.435781)scale(0.1 -0.1)">
      <use xlink:href="#DejaVuSans-69"/>
      <use x="63.183594" xlink:href="#DejaVuSans-112"/>
      <use x="126.660156" xlink:href="#DejaVuSans-111"/>
      <use x="187.841797" xlink:href="#DejaVuSans-99"/>
      <use x="242.822266" xlink:href="#DejaVuSans-104"/>
     </g>
    </g>
   </g>
   <g id="matplotlib.axis_2">
    <g id="ytick_1">
     <g id="line2d_19">
      <path clip-path="url(#pca27c128ea)" d="M 50.14375 337.159219 
L 719.74375 337.159219 
" style="fill:none;stroke:#b0b0b0;stroke-linecap:square;stroke-width:0.8;"/>
     </g>
     <g id="line2d_20">
      <defs>
       <path d="M 0 0 
L -3.5 0 
" id="m845d68d64c" style="stroke:#000000;stroke-width:0.8;"/>
      </defs>
      <g>
       <use style="stroke:#000000;stroke-width:0.8;" x="50.14375" xlink:href="#m845d68d64c" y="337.159219"/>
      </g>
     </g>
     <g id="text_11">
      <!-- 0.82 -->
      <defs>
       <path d="M 10.6875 12.40625 
L 21 12.40625 
L 21 0 
L 10.6875 0 
z
" id="DejaVuSans-46"/>
       <path d="M 31.78125 34.625 
Q 24.75 34.625 20.71875 30.859375 
Q 16.703125 27.09375 16.703125 20.515625 
Q 16.703125 13.921875 20.71875 10.15625 
Q 24.75 6.390625 31.78125 6.390625 
Q 38.8125 6.390625 42.859375 10.171875 
Q 46.921875 13.96875 46.921875 20.515625 
Q 46.921875 27.09375 42.890625 30.859375 
Q 38.875 34.625 31.78125 34.625 
z
M 21.921875 38.8125 
Q 15.578125 40.375 12.03125 44.71875 
Q 8.5 49.078125 8.5 55.328125 
Q 8.5 64.0625 14.71875 69.140625 
Q 20.953125 74.21875 31.78125 74.21875 
Q 42.671875 74.21875 48.875 69.140625 
Q 55.078125 64.0625 55.078125 55.328125 
Q 55.078125 49.078125 51.53125 44.71875 
Q 48 40.375 41.703125 38.8125 
Q 48.828125 37.15625 52.796875 32.3125 
Q 56.78125 27.484375 56.78125 20.515625 
Q 56.78125 9.90625 50.3125 4.234375 
Q 43.84375 -1.421875 31.78125 -1.421875 
Q 19.734375 -1.421875 13.25 4.234375 
Q 6.78125 9.90625 6.78125 20.515625 
Q 6.78125 27.484375 10.78125 32.3125 
Q 14.796875 37.15625 21.921875 38.8125 
z
M 18.3125 54.390625 
Q 18.3125 48.734375 21.84375 45.5625 
Q 25.390625 42.390625 31.78125 42.390625 
Q 38.140625 42.390625 41.71875 45.5625 
Q 45.3125 48.734375 45.3125 54.390625 
Q 45.3125 60.0625 41.71875 63.234375 
Q 38.140625 66.40625 31.78125 66.40625 
Q 25.390625 66.40625 21.84375 63.234375 
Q 18.3125 60.0625 18.3125 54.390625 
z
" id="DejaVuSans-56"/>
      </defs>
      <g transform="translate(20.878125 340.958437)scale(0.1 -0.1)">
       <use xlink:href="#DejaVuSans-48"/>
       <use x="63.623047" xlink:href="#DejaVuSans-46"/>
       <use x="95.410156" xlink:href="#DejaVuSans-56"/>
       <use x="159.033203" xlink:href="#DejaVuSans-50"/>
      </g>
     </g>
    </g>
    <g id="ytick_2">
     <g id="line2d_21">
      <path clip-path="url(#pca27c128ea)" d="M 50.14375 296.389219 
L 719.74375 296.389219 
" style="fill:none;stroke:#b0b0b0;stroke-linecap:square;stroke-width:0.8;"/>
     </g>
     <g id="line2d_22">
      <g>
       <use style="stroke:#000000;stroke-width:0.8;" x="50.14375" xlink:href="#m845d68d64c" y="296.389219"/>
      </g>
     </g>
     <g id="text_12">
      <!-- 0.84 -->
      <g transform="translate(20.878125 300.188437)scale(0.1 -0.1)">
       <use xlink:href="#DejaVuSans-48"/>
       <use x="63.623047" xlink:href="#DejaVuSans-46"/>
       <use x="95.410156" xlink:href="#DejaVuSans-56"/>
       <use x="159.033203" xlink:href="#DejaVuSans-52"/>
      </g>
     </g>
    </g>
    <g id="ytick_3">
     <g id="line2d_23">
      <path clip-path="url(#pca27c128ea)" d="M 50.14375 255.619219 
L 719.74375 255.619219 
" style="fill:none;stroke:#b0b0b0;stroke-linecap:square;stroke-width:0.8;"/>
     </g>
     <g id="line2d_24">
      <g>
       <use style="stroke:#000000;stroke-width:0.8;" x="50.14375" xlink:href="#m845d68d64c" y="255.619219"/>
      </g>
     </g>
     <g id="text_13">
      <!-- 0.86 -->
      <defs>
       <path d="M 33.015625 40.375 
Q 26.375 40.375 22.484375 35.828125 
Q 18.609375 31.296875 18.609375 23.390625 
Q 18.609375 15.53125 22.484375 10.953125 
Q 26.375 6.390625 33.015625 6.390625 
Q 39.65625 6.390625 43.53125 10.953125 
Q 47.40625 15.53125 47.40625 23.390625 
Q 47.40625 31.296875 43.53125 35.828125 
Q 39.65625 40.375 33.015625 40.375 
z
M 52.59375 71.296875 
L 52.59375 62.3125 
Q 48.875 64.0625 45.09375 64.984375 
Q 41.3125 65.921875 37.59375 65.921875 
Q 27.828125 65.921875 22.671875 59.328125 
Q 17.53125 52.734375 16.796875 39.40625 
Q 19.671875 43.65625 24.015625 45.921875 
Q 28.375 48.1875 33.59375 48.1875 
Q 44.578125 48.1875 50.953125 41.515625 
Q 57.328125 34.859375 57.328125 23.390625 
Q 57.328125 12.15625 50.6875 5.359375 
Q 44.046875 -1.421875 33.015625 -1.421875 
Q 20.359375 -1.421875 13.671875 8.265625 
Q 6.984375 17.96875 6.984375 36.375 
Q 6.984375 53.65625 15.1875 63.9375 
Q 23.390625 74.21875 37.203125 74.21875 
Q 40.921875 74.21875 44.703125 73.484375 
Q 48.484375 72.75 52.59375 71.296875 
z
" id="DejaVuSans-54"/>
      </defs>
      <g transform="translate(20.878125 259.418437)scale(0.1 -0.1)">
       <use xlink:href="#DejaVuSans-48"/>
       <use x="63.623047" xlink:href="#DejaVuSans-46"/>
       <use x="95.410156" xlink:href="#DejaVuSans-56"/>
       <use x="159.033203" xlink:href="#DejaVuSans-54"/>
      </g>
     </g>
    </g>
    <g id="ytick_4">
     <g id="line2d_25">
      <path clip-path="url(#pca27c128ea)" d="M 50.14375 214.849219 
L 719.74375 214.849219 
" style="fill:none;stroke:#b0b0b0;stroke-linecap:square;stroke-width:0.8;"/>
     </g>
     <g id="line2d_26">
      <g>
       <use style="stroke:#000000;stroke-width:0.8;" x="50.14375" xlink:href="#m845d68d64c" y="214.849219"/>
      </g>
     </g>
     <g id="text_14">
      <!-- 0.88 -->
      <g transform="translate(20.878125 218.648437)scale(0.1 -0.1)">
       <use xlink:href="#DejaVuSans-48"/>
       <use x="63.623047" xlink:href="#DejaVuSans-46"/>
       <use x="95.410156" xlink:href="#DejaVuSans-56"/>
       <use x="159.033203" xlink:href="#DejaVuSans-56"/>
      </g>
     </g>
    </g>
    <g id="ytick_5">
     <g id="line2d_27">
      <path clip-path="url(#pca27c128ea)" d="M 50.14375 174.079219 
L 719.74375 174.079219 
" style="fill:none;stroke:#b0b0b0;stroke-linecap:square;stroke-width:0.8;"/>
     </g>
     <g id="line2d_28">
      <g>
       <use style="stroke:#000000;stroke-width:0.8;" x="50.14375" xlink:href="#m845d68d64c" y="174.079219"/>
      </g>
     </g>
     <g id="text_15">
      <!-- 0.90 -->
      <defs>
       <path d="M 10.984375 1.515625 
L 10.984375 10.5 
Q 14.703125 8.734375 18.5 7.8125 
Q 22.3125 6.890625 25.984375 6.890625 
Q 35.75 6.890625 40.890625 13.453125 
Q 46.046875 20.015625 46.78125 33.40625 
Q 43.953125 29.203125 39.59375 26.953125 
Q 35.25 24.703125 29.984375 24.703125 
Q 19.046875 24.703125 12.671875 31.3125 
Q 6.296875 37.9375 6.296875 49.421875 
Q 6.296875 60.640625 12.9375 67.421875 
Q 19.578125 74.21875 30.609375 74.21875 
Q 43.265625 74.21875 49.921875 64.515625 
Q 56.59375 54.828125 56.59375 36.375 
Q 56.59375 19.140625 48.40625 8.859375 
Q 40.234375 -1.421875 26.421875 -1.421875 
Q 22.703125 -1.421875 18.890625 -0.6875 
Q 15.09375 0.046875 10.984375 1.515625 
z
M 30.609375 32.421875 
Q 37.25 32.421875 41.125 36.953125 
Q 45.015625 41.5 45.015625 49.421875 
Q 45.015625 57.28125 41.125 61.84375 
Q 37.25 66.40625 30.609375 66.40625 
Q 23.96875 66.40625 20.09375 61.84375 
Q 16.21875 57.28125 16.21875 49.421875 
Q 16.21875 41.5 20.09375 36.953125 
Q 23.96875 32.421875 30.609375 32.421875 
z
" id="DejaVuSans-57"/>
      </defs>
      <g transform="translate(20.878125 177.878437)scale(0.1 -0.1)">
       <use xlink:href="#DejaVuSans-48"/>
       <use x="63.623047" xlink:href="#DejaVuSans-46"/>
       <use x="95.410156" xlink:href="#DejaVuSans-57"/>
       <use x="159.033203" xlink:href="#DejaVuSans-48"/>
      </g>
     </g>
    </g>
    <g id="ytick_6">
     <g id="line2d_29">
      <path clip-path="url(#pca27c128ea)" d="M 50.14375 133.309219 
L 719.74375 133.309219 
" style="fill:none;stroke:#b0b0b0;stroke-linecap:square;stroke-width:0.8;"/>
     </g>
     <g id="line2d_30">
      <g>
       <use style="stroke:#000000;stroke-width:0.8;" x="50.14375" xlink:href="#m845d68d64c" y="133.309219"/>
      </g>
     </g>
     <g id="text_16">
      <!-- 0.92 -->
      <g transform="translate(20.878125 137.108437)scale(0.1 -0.1)">
       <use xlink:href="#DejaVuSans-48"/>
       <use x="63.623047" xlink:href="#DejaVuSans-46"/>
       <use x="95.410156" xlink:href="#DejaVuSans-57"/>
       <use x="159.033203" xlink:href="#DejaVuSans-50"/>
      </g>
     </g>
    </g>
    <g id="ytick_7">
     <g id="line2d_31">
      <path clip-path="url(#pca27c128ea)" d="M 50.14375 92.539219 
L 719.74375 92.539219 
" style="fill:none;stroke:#b0b0b0;stroke-linecap:square;stroke-width:0.8;"/>
     </g>
     <g id="line2d_32">
      <g>
       <use style="stroke:#000000;stroke-width:0.8;" x="50.14375" xlink:href="#m845d68d64c" y="92.539219"/>
      </g>
     </g>
     <g id="text_17">
      <!-- 0.94 -->
      <g transform="translate(20.878125 96.338437)scale(0.1 -0.1)">
       <use xlink:href="#DejaVuSans-48"/>
       <use x="63.623047" xlink:href="#DejaVuSans-46"/>
       <use x="95.410156" xlink:href="#DejaVuSans-57"/>
       <use x="159.033203" xlink:href="#DejaVuSans-52"/>
      </g>
     </g>
    </g>
    <g id="ytick_8">
     <g id="line2d_33">
      <path clip-path="url(#pca27c128ea)" d="M 50.14375 51.769219 
L 719.74375 51.769219 
" style="fill:none;stroke:#b0b0b0;stroke-linecap:square;stroke-width:0.8;"/>
     </g>
     <g id="line2d_34">
      <g>
       <use style="stroke:#000000;stroke-width:0.8;" x="50.14375" xlink:href="#m845d68d64c" y="51.769219"/>
      </g>
     </g>
     <g id="text_18">
      <!-- 0.96 -->
      <g transform="translate(20.878125 55.568437)scale(0.1 -0.1)">
       <use xlink:href="#DejaVuSans-48"/>
       <use x="63.623047" xlink:href="#DejaVuSans-46"/>
       <use x="95.410156" xlink:href="#DejaVuSans-57"/>
       <use x="159.033203" xlink:href="#DejaVuSans-54"/>
      </g>
     </g>
    </g>
    <g id="ytick_9">
     <g id="line2d_35">
      <path clip-path="url(#pca27c128ea)" d="M 50.14375 10.999219 
L 719.74375 10.999219 
" style="fill:none;stroke:#b0b0b0;stroke-linecap:square;stroke-width:0.8;"/>
     </g>
     <g id="line2d_36">
      <g>
       <use style="stroke:#000000;stroke-width:0.8;" x="50.14375" xlink:href="#m845d68d64c" y="10.999219"/>
      </g>
     </g>
     <g id="text_19">
      <!-- 0.98 -->
      <g transform="translate(20.878125 14.798437)scale(0.1 -0.1)">
       <use xlink:href="#DejaVuSans-48"/>
       <use x="63.623047" xlink:href="#DejaVuSans-46"/>
       <use x="95.410156" xlink:href="#DejaVuSans-57"/>
       <use x="159.033203" xlink:href="#DejaVuSans-56"/>
      </g>
     </g>
    </g>
    <g id="text_20">
     <!-- Accuracy -->
     <defs>
      <path d="M 34.1875 63.1875 
L 20.796875 26.90625 
L 47.609375 26.90625 
z
M 28.609375 72.90625 
L 39.796875 72.90625 
L 67.578125 0 
L 57.328125 0 
L 50.6875 18.703125 
L 17.828125 18.703125 
L 11.1875 0 
L 0.78125 0 
z
" id="DejaVuSans-65"/>
      <path d="M 8.5 21.578125 
L 8.5 54.6875 
L 17.484375 54.6875 
L 17.484375 21.921875 
Q 17.484375 14.15625 20.5 10.265625 
Q 23.53125 6.390625 29.59375 6.390625 
Q 36.859375 6.390625 41.078125 11.03125 
Q 45.3125 15.671875 45.3125 23.6875 
L 45.3125 54.6875 
L 54.296875 54.6875 
L 54.296875 0 
L 45.3125 0 
L 45.3125 8.40625 
Q 42.046875 3.421875 37.71875 1 
Q 33.40625 -1.421875 27.6875 -1.421875 
Q 18.265625 -1.421875 13.375 4.4375 
Q 8.5 10.296875 8.5 21.578125 
z
M 31.109375 56 
z
" id="DejaVuSans-117"/>
      <path d="M 41.109375 46.296875 
Q 39.59375 47.171875 37.8125 47.578125 
Q 36.03125 48 33.890625 48 
Q 26.265625 48 22.1875 43.046875 
Q 18.109375 38.09375 18.109375 28.8125 
L 18.109375 0 
L 9.078125 0 
L 9.078125 54.6875 
L 18.109375 54.6875 
L 18.109375 46.1875 
Q 20.953125 51.171875 25.484375 53.578125 
Q 30.03125 56 36.53125 56 
Q 37.453125 56 38.578125 55.875 
Q 39.703125 55.765625 41.0625 55.515625 
z
" id="DejaVuSans-114"/>
      <path d="M 34.28125 27.484375 
Q 23.390625 27.484375 19.1875 25 
Q 14.984375 22.515625 14.984375 16.5 
Q 14.984375 11.71875 18.140625 8.90625 
Q 21.296875 6.109375 26.703125 6.109375 
Q 34.1875 6.109375 38.703125 11.40625 
Q 43.21875 16.703125 43.21875 25.484375 
L 43.21875 27.484375 
z
M 52.203125 31.203125 
L 52.203125 0 
L 43.21875 0 
L 43.21875 8.296875 
Q 40.140625 3.328125 35.546875 0.953125 
Q 30.953125 -1.421875 24.3125 -1.421875 
Q 15.921875 -1.421875 10.953125 3.296875 
Q 6 8.015625 6 15.921875 
Q 6 25.140625 12.171875 29.828125 
Q 18.359375 34.515625 30.609375 34.515625 
L 43.21875 34.515625 
L 43.21875 35.40625 
Q 43.21875 41.609375 39.140625 45 
Q 35.0625 48.390625 27.6875 48.390625 
Q 23 48.390625 18.546875 47.265625 
Q 14.109375 46.140625 10.015625 43.890625 
L 10.015625 52.203125 
Q 14.9375 54.109375 19.578125 55.046875 
Q 24.21875 56 28.609375 56 
Q 40.484375 56 46.34375 49.84375 
Q 52.203125 43.703125 52.203125 31.203125 
z
" id="DejaVuSans-97"/>
      <path d="M 32.171875 -5.078125 
Q 28.375 -14.84375 24.75 -17.8125 
Q 21.140625 -20.796875 15.09375 -20.796875 
L 7.90625 -20.796875 
L 7.90625 -13.28125 
L 13.1875 -13.28125 
Q 16.890625 -13.28125 18.9375 -11.515625 
Q 21 -9.765625 23.484375 -3.21875 
L 25.09375 0.875 
L 2.984375 54.6875 
L 12.5 54.6875 
L 29.59375 11.921875 
L 46.6875 54.6875 
L 56.203125 54.6875 
z
" id="DejaVuSans-121"/>
     </defs>
     <g transform="translate(14.798438 196.994062)rotate(-90)scale(0.1 -0.1)">
      <use xlink:href="#DejaVuSans-65"/>
      <use x="68.392578" xlink:href="#DejaVuSans-99"/>
      <use x="123.373047" xlink:href="#DejaVuSans-99"/>
      <use x="178.353516" xlink:href="#DejaVuSans-117"/>
      <use x="241.732422" xlink:href="#DejaVuSans-114"/>
      <use x="282.845703" xlink:href="#DejaVuSans-97"/>
      <use x="344.125" xlink:href="#DejaVuSans-99"/>
      <use x="399.105469" xlink:href="#DejaVuSans-121"/>
     </g>
    </g>
   </g>
   <g id="line2d_37">
    <path clip-path="url(#pca27c128ea)" d="M 114.991051 375.715469 
L 115.517247 358.308596 
L 117.111722 354.384501 
L 118.706198 346.53631 
L 120.300673 340.675683 
L 121.895149 339.248739 
L 123.489625 336.445761 
L 125.0841 334.050552 
L 126.678576 334.56014 
L 128.273051 327.068685 
L 129.867527 332.011956 
L 131.462002 326.253271 
L 133.056478 314.837599 
L 134.650953 323.75612 
L 136.245429 319.424257 
L 137.839904 317.079957 
L 139.43438 321.717524 
L 141.028855 313.614539 
L 142.623331 307.04044 
L 144.217806 313.155862 
L 145.812282 306.479821 
L 147.406758 307.550028 
L 149.001233 306.734615 
L 150.595709 308.92594 
L 152.190184 304.186431 
L 153.78466 302.097047 
L 155.379135 304.543167 
L 156.973611 303.167255 
L 158.568086 293.586295 
L 160.162562 295.930594 
L 161.757037 299.956632 
L 163.351513 294.911297 
L 164.945988 288.897696 
L 166.540464 295.166091 
L 168.134939 293.891999 
L 169.729415 290.834349 
L 171.32389 290.222698 
L 172.918366 284.209218 
L 174.512842 285.687072 
L 176.107317 290.681376 
L 177.701793 284.412981 
L 179.296268 256.638487 
L 180.890744 249.503768 
L 182.485219 248.43356 
L 184.079695 248.331619 
L 185.67417 242.878637 
L 187.268646 244.509344 
L 188.863121 236.966979 
L 190.457597 239.51504 
L 192.052072 240.07566 
L 193.646548 231.870733 
L 195.241023 237.119831 
L 196.835499 234.214911 
L 198.429975 238.495864 
L 200.02445 230.4947 
L 203.213401 234.316853 
L 204.807877 232.737057 
L 206.402352 228.609078 
L 209.591303 231.10623 
L 211.185779 234.011149 
L 212.780254 231.972675 
L 214.37473 229.628376 
L 215.969205 223.614775 
L 217.563681 229.475402 
L 219.158156 221.474359 
L 220.752632 226.061016 
L 222.347108 226.366721 
L 223.941583 219.537827 
L 225.536059 224.939777 
L 227.130534 223.971511 
L 228.72501 219.07915 
L 230.319485 221.678243 
L 231.913961 217.34638 
L 233.508436 218.926176 
L 235.102912 224.532131 
L 236.697387 222.442625 
L 238.291863 216.327082 
L 239.886338 219.74159 
L 241.480814 219.435886 
L 243.075289 201.446115 
L 244.669765 196.40078 
L 246.264241 195.483424 
L 247.858716 190.234327 
L 249.453192 190.387179 
L 251.047667 191.559329 
L 254.236618 187.176555 
L 255.831094 190.336269 
L 257.425569 182.233162 
L 259.020045 189.622797 
L 260.61452 190.081475 
L 262.208996 182.284194 
L 263.803471 189.673707 
L 265.397947 182.335104 
L 266.992422 177.544685 
L 268.586898 185.03614 
L 270.181374 182.488078 
L 271.775849 181.774606 
L 273.370325 181.41787 
L 274.9648 184.169816 
L 276.559276 182.182252 
L 278.153751 184.42461 
L 279.748227 181.112044 
L 281.342702 177.493653 
L 282.937178 180.194689 
L 284.531653 174.588855 
L 286.126129 176.984065 
L 287.720604 176.627329 
L 289.31508 176.678361 
L 290.909555 183.660228 
L 292.504031 173.467616 
L 294.098507 174.843649 
L 295.692982 175.608153 
L 297.287458 173.926294 
L 298.881933 175.608153 
L 300.476409 177.952331 
L 302.070884 176.015799 
L 303.66536 175.098443 
L 305.259835 174.486914 
L 306.854311 165.517483 
L 308.448786 162.255949 
L 310.043262 161.440536 
L 313.232213 156.446232 
L 314.826688 164.039629 
L 316.421164 159.809708 
L 318.01564 158.484706 
L 319.610115 158.026028 
L 321.204591 159.30012 
L 322.799066 157.261646 
L 324.393542 154.305817 
L 325.988017 156.599085 
L 327.582493 155.070199 
L 329.176968 154.815405 
L 330.771444 156.95582 
L 332.365919 153.694165 
L 333.960395 152.674989 
L 335.55487 155.324993 
L 337.149346 155.987555 
L 338.743821 156.395201 
L 340.338297 148.59792 
L 341.932773 147.37486 
L 343.527248 152.318253 
L 345.121724 148.648952 
L 346.716199 150.33069 
L 348.310675 149.056598 
L 349.90515 148.648952 
L 351.499626 146.508536 
L 353.094101 152.623957 
L 354.688577 148.4961 
L 356.283052 151.604781 
L 357.877528 151.859575 
L 359.472003 147.629654 
L 361.066479 146.100769 
L 362.660954 148.750894 
L 364.25543 149.515276 
L 365.849905 149.617218 
L 367.444381 149.15854 
L 369.038857 144.520973 
L 370.633332 145.642091 
L 372.227808 139.220844 
L 373.822283 141.717995 
L 375.416759 141.972789 
L 377.011234 139.01696 
L 378.60571 139.781463 
L 380.200185 138.252578 
L 381.794661 137.13146 
L 383.389136 133.462158 
L 384.983612 141.004523 
L 386.578087 134.430424 
L 388.172563 135.806336 
L 389.767038 137.386254 
L 391.361514 134.940012 
L 392.95599 135.704516 
L 394.550465 137.539106 
L 396.144941 136.468898 
L 397.739416 134.990923 
L 399.333892 135.041954 
L 400.928367 132.493771 
L 402.522843 134.481334 
L 404.117318 133.360216 
L 405.711794 134.634187 
L 407.306269 134.22654 
L 408.900745 135.806336 
L 410.49522 133.00348 
L 412.089696 133.716952 
L 413.684171 133.971746 
L 415.278647 132.697655 
L 416.873123 135.602574 
L 418.467598 134.379393 
L 420.062074 135.4496 
L 421.656549 133.818894 
L 423.251025 131.474595 
L 424.8455 130.353355 
L 426.439976 131.525505 
L 428.034451 131.984183 
L 429.628927 132.137035 
L 431.223402 134.430424 
L 432.817878 129.690915 
L 434.412353 128.060087 
L 436.006829 130.353355 
L 437.601304 126.633144 
L 439.19578 129.130295 
L 440.790256 122.25037 
L 442.384731 124.135992 
L 443.979207 125.511904 
L 445.573682 124.747522 
L 447.168158 131.372653 
L 448.762633 124.186902 
L 451.951584 127.397526 
L 453.54606 125.613846 
L 455.140535 128.722649 
L 456.735011 127.091822 
L 458.329486 123.320578 
L 459.923962 126.42926 
L 461.518437 123.524462 
L 463.112913 124.64558 
L 464.707389 122.454254 
L 466.301864 124.696612 
L 467.89634 125.86864 
L 469.490815 124.03405 
L 472.679766 124.288844 
L 474.274242 122.301281 
L 475.868717 126.938848 
L 477.463193 127.448557 
L 479.057668 119.141689 
L 480.652144 122.963842 
L 482.246619 125.053348 
L 483.841095 126.327318 
L 485.43557 122.81099 
L 487.030046 124.747522 
L 488.624522 122.148429 
L 490.218997 122.8619 
L 491.813473 122.709048 
L 493.407948 124.441696 
L 495.002424 124.237934 
L 496.596899 126.785996 
L 498.191375 121.02731 
L 499.78585 121.587809 
L 501.380326 118.784953 
L 502.974801 122.8619 
L 504.569277 116.491564 
L 506.163752 119.651277 
L 507.758228 122.046487 
L 509.352703 118.835863 
L 510.947179 119.600367 
L 512.541655 116.542595 
L 514.13613 119.345451 
L 515.730606 118.071481 
L 517.325081 123.065784 
L 518.919557 119.447393 
L 520.514032 122.403223 
L 522.108508 118.631979 
L 523.702983 119.294541 
L 526.891934 116.440653 
L 528.48641 119.192599 
L 530.080885 118.326275 
L 531.675361 120.160865 
L 533.269836 118.631979 
L 534.864312 121.740782 
L 536.458788 120.008013 
L 538.053263 119.498425 
L 541.242214 120.211897 
L 542.83669 117.714745 
L 544.431165 117.154125 
L 546.025641 116.797389 
L 547.620116 117.918507 
L 549.214592 114.758916 
L 550.809067 116.695447 
L 552.403543 117.714745 
L 553.998018 121.180163 
L 555.592494 116.440653 
L 557.186969 119.243509 
L 558.781445 117.256067 
L 560.37592 113.077056 
L 561.970396 121.944545 
L 563.564872 114.962678 
L 565.159347 116.185859 
L 566.753823 113.178998 
L 568.348298 120.211897 
L 569.942774 111.853996 
L 571.537249 113.586766 
L 573.131725 117.816565 
L 574.7262 117.969539 
L 576.320676 118.377185 
L 577.915151 111.344408 
L 579.509627 115.67615 
L 581.104102 117.154125 
L 582.698578 114.555032 
L 584.293053 114.555032 
L 585.887529 115.166562 
L 587.482005 114.045444 
L 589.07648 118.377185 
L 590.670956 117.510861 
L 592.265431 113.077056 
L 593.859907 113.688708 
L 595.454382 115.67615 
L 597.048858 113.026146 
L 598.643333 115.166562 
L 600.237809 116.950241 
L 601.832284 115.981976 
L 603.42676 114.707884 
L 605.021235 118.020449 
L 606.615711 115.268504 
L 608.210186 114.504 
L 609.804662 113.484824 
L 611.399138 116.593506 
L 612.993613 111.803086 
L 614.588089 116.185859 
L 616.182564 115.06462 
L 617.77704 119.702187 
L 619.371515 119.294541 
L 620.965991 115.472387 
L 622.560466 114.147264 
L 624.154942 117.765655 
L 625.749417 113.637676 
L 627.343893 117.103094 
L 628.938368 111.853996 
L 630.532844 116.134828 
L 632.127319 111.344408 
L 633.721795 111.548171 
L 635.316271 114.096354 
L 636.910746 112.924204 
L 638.505222 115.217472 
L 640.099697 115.523298 
L 641.694173 114.45309 
L 643.288648 114.045444 
L 644.883124 117.510861 
L 646.477599 113.433792 
L 648.072075 113.84156 
L 651.261026 115.268504 
L 652.855501 118.428217 
L 654.449977 114.096354 
L 656.044452 112.210732 
L 657.638928 115.319414 
L 659.233404 113.739618 
L 660.827879 113.943502 
L 662.422355 119.345451 
L 664.01683 113.89247 
L 665.611306 113.178998 
L 667.205781 118.733921 
L 668.800257 115.115652 
L 670.394732 115.829123 
L 671.989208 114.605942 
L 673.583683 114.45309 
L 675.178159 117.358009 
L 676.772634 116.440653 
L 678.36711 117.205036 
L 679.961585 116.695447 
L 681.556061 114.707884 
L 683.150537 115.981976 
L 684.745012 111.701144 
L 686.339488 116.23677 
L 687.933963 114.911768 
L 687.933963 114.911768 
" style="fill:none;stroke:#377eb8;stroke-linecap:square;stroke-width:1.5;"/>
   </g>
   <g id="line2d_38">
    <path clip-path="url(#pca27c128ea)" d="M 99.343546 375.715469 
L 99.572492 370.707479 
L 100.350912 375.715469 
M 102.138459 375.715469 
L 102.761443 372.348756 
L 104.355918 370.707479 
L 107.544869 346.908598 
L 109.139345 345.47242 
L 110.73382 357.371921 
L 112.328296 323.109596 
L 113.570969 375.715469 
M 114.139519 375.715469 
L 115.517247 281.051206 
L 117.111722 282.282164 
L 118.706198 263.817555 
L 120.300673 274.075658 
L 121.895149 287.001017 
L 123.489625 268.536287 
L 125.0841 267.305329 
L 126.678576 250.481876 
L 128.273051 268.125968 
L 129.867527 267.510428 
L 131.462002 265.664052 
L 133.056478 254.58519 
L 134.650953 242.27537 
L 136.245429 248.6355 
L 137.839904 252.123275 
L 139.43438 255.20073 
L 141.028855 244.327087 
L 142.623331 258.893603 
L 144.217806 245.147726 
L 145.812282 241.659952 
L 147.406758 257.457425 
L 149.001233 247.199322 
L 150.595709 262.791696 
L 152.190184 233.453445 
L 153.78466 229.965671 
L 155.379135 271.408522 
L 156.973611 239.403135 
L 158.568086 237.966957 
L 160.162562 243.711548 
L 161.757037 230.581089 
L 163.351513 235.505042 
L 164.945988 238.377276 
L 166.540464 249.045819 
L 169.729415 229.965671 
L 171.32389 216.835212 
L 172.918366 241.865051 
L 174.512842 226.682996 
L 176.107317 245.763144 
L 177.701793 238.787596 
L 179.296268 214.168077 
L 180.890744 201.037618 
L 182.485219 204.115073 
L 184.079695 204.525392 
L 185.67417 217.861071 
L 187.268646 211.090622 
L 188.863121 197.139524 
L 190.457597 215.399034 
L 192.052072 202.063477 
L 193.646548 185.445244 
L 195.241023 209.244124 
L 196.835499 198.986022 
L 198.429975 183.188427 
L 200.02445 201.447937 
L 201.618926 189.753657 
L 203.213401 213.552537 
L 204.807877 189.548558 
L 206.402352 187.907159 
L 207.996828 193.241431 
L 209.591303 196.934426 
L 211.185779 194.062069 
L 212.780254 199.601561 
L 214.37473 192.010473 
L 215.969205 203.294435 
L 217.563681 194.062069 
L 219.158156 189.753657 
L 220.752632 198.986022 
L 222.347108 184.829704 
L 223.941583 201.242838 
L 225.536059 183.188427 
L 227.130534 175.80256 
L 228.72501 183.188427 
L 230.319485 189.548558 
L 231.913961 188.317479 
L 233.508436 180.726512 
L 235.102912 189.343337 
L 236.697387 199.396341 
L 238.291863 195.908567 
L 239.886338 179.495554 
L 241.480814 175.187141 
L 243.075289 169.85287 
L 244.669765 176.623198 
L 247.858716 158.568909 
L 249.453192 175.80256 
L 251.047667 169.032231 
L 252.642143 170.057969 
L 254.236618 162.467002 
L 255.831094 166.980635 
L 257.425569 161.646364 
L 259.020045 177.238738 
L 260.61452 166.159875 
L 262.208996 175.80256 
L 263.803471 168.211593 
L 265.397947 174.366503 
L 266.992422 168.827011 
L 268.586898 162.877321 
L 270.181374 172.930325 
L 271.775849 173.545743 
L 273.370325 163.69796 
L 274.9648 171.289048 
L 276.559276 173.545743 
L 278.153751 168.827011 
L 279.748227 167.801274 
L 281.342702 175.39224 
L 282.937178 165.339237 
L 284.531653 168.621912 
L 286.126129 166.570194 
L 287.720604 161.646364 
L 289.31508 166.775415 
L 290.909555 162.672101 
L 292.504031 168.621912 
L 294.098507 166.570194 
L 295.692982 171.494147 
L 297.287458 170.057969 
L 298.881933 161.441143 
L 300.476409 164.108279 
L 302.070884 172.364116 
L 303.66536 171.083828 
L 305.259835 172.725105 
L 306.854311 166.365096 
L 308.448786 164.313499 
L 310.043262 161.030824 
L 311.637737 161.441143 
L 313.232213 165.749556 
L 314.826688 156.722411 
L 316.421164 155.081134 
L 318.01564 163.492861 
L 319.610115 157.54305 
L 321.204591 152.619219 
L 322.799066 161.236044 
L 324.393542 158.363688 
L 325.988017 157.13273 
L 327.582493 162.261782 
L 329.176968 163.287641 
L 330.771444 157.54305 
L 332.365919 155.901773 
L 333.960395 165.749556 
L 335.55487 163.90318 
L 337.149346 154.670815 
L 338.743821 159.389547 
L 340.338297 155.491453 
L 341.932773 159.799866 
L 343.527248 158.158589 
L 345.121724 162.672101 
L 346.716199 154.875914 
L 348.310675 159.799866 
L 349.90515 150.97782 
L 351.499626 165.954776 
L 353.094101 162.261782 
L 354.688577 153.439857 
L 356.283052 165.134138 
L 357.877528 157.54305 
L 359.472003 154.055275 
L 361.066479 160.210185 
L 362.660954 153.234637 
L 364.25543 159.184327 
L 365.849905 158.158589 
L 367.444381 153.644956 
L 369.038857 150.97782 
L 370.633332 153.234637 
L 372.227808 152.003679 
L 373.822283 154.670815 
L 375.416759 153.234637 
L 377.011234 156.722411 
L 378.60571 151.59336 
L 380.200185 150.567501 
L 381.794661 148.310685 
L 383.389136 152.413998 
L 384.983612 157.54305 
L 386.578087 152.003679 
L 388.172563 155.081134 
L 389.767038 154.465595 
L 391.361514 153.029538 
L 392.95599 143.591953 
L 394.550465 148.515905 
L 396.144941 151.38814 
L 397.739416 153.234637 
L 399.333892 146.053989 
L 400.928367 146.669408 
L 402.522843 153.439857 
L 404.117318 152.413998 
L 405.711794 153.234637 
L 407.306269 150.362402 
L 408.900745 150.97782 
L 410.49522 140.924817 
L 412.089696 152.619219 
L 413.684171 158.774007 
L 415.278647 148.721125 
L 416.873123 142.566215 
L 418.467598 153.029538 
L 420.062074 157.13273 
L 421.656549 152.619219 
L 423.251025 157.54305 
L 424.8455 141.950676 
L 426.439976 165.339237 
L 428.034451 148.310685 
L 429.628927 149.541764 
L 431.223402 142.155896 
L 432.817878 147.695266 
L 434.412353 147.490046 
L 436.006829 153.644956 
L 437.601304 151.798459 
L 439.19578 154.055275 
L 440.790256 148.310685 
L 442.384731 154.670815 
L 443.979207 146.464309 
L 445.573682 147.900365 
L 447.168158 154.260496 
L 448.762633 146.053989 
L 450.357109 148.721125 
L 451.951584 150.157182 
L 453.54606 156.312092 
L 455.140535 145.64367 
L 456.735011 151.798459 
L 458.329486 149.541764 
L 459.923962 150.362402 
L 461.518437 150.772721 
L 463.112913 139.28354 
L 464.707389 155.081134 
L 466.301864 150.567501 
L 467.89634 147.695266 
L 469.490815 152.824318 
L 471.085291 138.873221 
L 472.679766 155.081134 
L 474.274242 145.64367 
L 475.868717 149.336543 
L 477.463193 146.464309 
L 479.057668 153.439857 
L 480.652144 148.926224 
L 482.246619 147.490046 
L 483.841095 154.875914 
L 485.43557 140.104178 
L 487.030046 151.798459 
L 488.624522 154.465595 
L 490.218997 145.64367 
L 491.813473 151.59336 
L 493.407948 144.82291 
L 495.002424 148.105586 
L 496.596899 146.053989 
L 498.191375 151.59336 
L 499.78585 150.567501 
L 501.380326 145.64367 
L 502.974801 149.541764 
L 504.569277 145.848769 
L 506.163752 143.797173 
L 507.758228 154.875914 
L 509.352703 147.695266 
L 510.947179 147.079727 
L 512.541655 145.233351 
L 514.13613 150.567501 
L 515.730606 146.464309 
L 517.325081 153.850177 
L 518.919557 146.053989 
L 520.514032 150.157182 
L 522.108508 153.234637 
L 523.702983 142.360995 
L 525.297459 150.97782 
L 526.891934 145.64367 
L 528.48641 148.926224 
L 530.080885 146.874628 
L 531.675361 149.952083 
L 533.269836 143.386854 
L 534.864312 150.567501 
L 536.458788 146.874628 
L 538.053263 145.43845 
L 539.647739 149.336543 
L 541.242214 147.695266 
L 542.83669 146.259088 
L 544.431165 144.617811 
L 546.025641 147.490046 
L 547.620116 147.284947 
L 549.214592 145.64367 
L 550.809067 147.490046 
L 552.403543 147.454567 
L 553.998018 146.874628 
L 555.592494 145.43845 
L 557.186969 146.874628 
L 558.781445 145.233351 
L 560.37592 150.567501 
L 561.970396 143.181633 
L 563.564872 147.079727 
L 565.159347 146.874628 
L 566.753823 142.360995 
L 568.348298 149.336543 
L 569.942774 143.386854 
L 571.537249 146.874628 
L 573.131725 149.336543 
L 574.7262 144.82291 
L 576.320676 147.284947 
L 577.915151 148.721125 
L 579.509627 147.079727 
L 581.104102 147.079727 
L 582.698578 148.105586 
L 584.293053 147.284947 
L 585.887529 145.43845 
L 587.482005 149.952083 
L 589.07648 145.64367 
L 590.670956 145.028131 
L 592.265431 144.82291 
L 593.859907 150.567501 
L 595.454382 145.028131 
L 597.048858 141.130037 
L 598.643333 152.619219 
L 600.237809 142.771314 
L 601.832284 145.43845 
L 603.42676 150.97782 
L 605.021235 140.719718 
L 606.615711 151.38814 
L 608.210186 152.824318 
L 609.804662 140.104178 
L 611.399138 144.82291 
L 612.993613 144.207492 
L 614.588089 148.721125 
L 616.182564 148.515905 
L 617.77704 148.926224 
L 619.371515 150.157182 
L 620.965991 146.874628 
L 622.560466 149.336543 
L 624.154942 143.181633 
L 625.749417 148.105586 
L 627.343893 144.002272 
L 628.938368 153.234637 
L 630.532844 147.284947 
L 632.127319 146.464309 
L 633.721795 146.464309 
L 635.316271 145.233351 
L 636.910746 145.028131 
L 638.505222 151.798459 
L 640.099697 146.669408 
L 641.694173 145.028131 
L 643.288648 149.131445 
L 644.883124 146.053989 
L 646.477599 149.746863 
L 648.072075 147.284947 
L 649.66655 144.617811 
L 651.261026 145.43845 
L 652.855501 149.746863 
L 654.449977 139.693859 
L 656.044452 150.157182 
L 657.638928 145.64367 
L 659.233404 147.284947 
L 660.827879 148.721125 
L 662.422355 141.950676 
L 664.01683 153.644956 
L 665.611306 138.873221 
L 667.205781 151.183041 
L 668.800257 149.952083 
L 670.394732 150.97782 
L 671.989208 139.899079 
L 673.583683 149.131445 
L 675.178159 143.591953 
L 676.772634 150.567501 
L 678.36711 147.490046 
L 679.961585 142.771314 
L 681.556061 153.439857 
L 683.150537 143.386854 
L 684.745012 147.695266 
L 686.339488 155.286233 
L 687.933963 149.746863 
L 687.933963 149.746863 
" style="fill:none;stroke:#4daf4a;stroke-linecap:square;stroke-width:1.5;"/>
   </g>
   <g id="patch_3">
    <path d="M 50.14375 337.159219 
L 50.14375 10.999219 
" style="fill:none;stroke:#000000;stroke-linecap:square;stroke-linejoin:miter;stroke-width:0.8;"/>
   </g>
   <g id="patch_4">
    <path d="M 719.74375 337.159219 
L 719.74375 10.999219 
" style="fill:none;stroke:#000000;stroke-linecap:square;stroke-linejoin:miter;stroke-width:0.8;"/>
   </g>
   <g id="patch_5">
    <path d="M 50.14375 337.159219 
L 719.74375 337.159219 
" style="fill:none;stroke:#000000;stroke-linecap:square;stroke-linejoin:miter;stroke-width:0.8;"/>
   </g>
   <g id="patch_6">
    <path d="M 50.14375 10.999219 
L 719.74375 10.999219 
" style="fill:none;stroke:#000000;stroke-linecap:square;stroke-linejoin:miter;stroke-width:0.8;"/>
   </g>
   <g id="legend_1">
    <g id="patch_7">
     <path d="M 57.14375 48.355469 
L 114.584375 48.355469 
Q 116.584375 48.355469 116.584375 46.355469 
L 116.584375 17.999219 
Q 116.584375 15.999219 114.584375 15.999219 
L 57.14375 15.999219 
Q 55.14375 15.999219 55.14375 17.999219 
L 55.14375 46.355469 
Q 55.14375 48.355469 57.14375 48.355469 
z
" style="fill:#ffffff;opacity:0.8;stroke:#cccccc;stroke-linejoin:miter;"/>
    </g>
    <g id="line2d_39">
     <path d="M 59.14375 24.097656 
L 79.14375 24.097656 
" style="fill:none;stroke:#377eb8;stroke-linecap:square;stroke-width:1.5;"/>
    </g>
    <g id="line2d_40"/>
    <g id="text_21">
     <!-- Train -->
     <defs>
      <path d="M -0.296875 72.90625 
L 61.375 72.90625 
L 61.375 64.59375 
L 35.5 64.59375 
L 35.5 0 
L 25.59375 0 
L 25.59375 64.59375 
L -0.296875 64.59375 
z
" id="DejaVuSans-84"/>
      <path d="M 9.421875 54.6875 
L 18.40625 54.6875 
L 18.40625 0 
L 9.421875 0 
z
M 9.421875 75.984375 
L 18.40625 75.984375 
L 18.40625 64.59375 
L 9.421875 64.59375 
z
" id="DejaVuSans-105"/>
      <path d="M 54.890625 33.015625 
L 54.890625 0 
L 45.90625 0 
L 45.90625 32.71875 
Q 45.90625 40.484375 42.875 44.328125 
Q 39.84375 48.1875 33.796875 48.1875 
Q 26.515625 48.1875 22.3125 43.546875 
Q 18.109375 38.921875 18.109375 30.90625 
L 18.109375 0 
L 9.078125 0 
L 9.078125 54.6875 
L 18.109375 54.6875 
L 18.109375 46.1875 
Q 21.34375 51.125 25.703125 53.5625 
Q 30.078125 56 35.796875 56 
Q 45.21875 56 50.046875 50.171875 
Q 54.890625 44.34375 54.890625 33.015625 
z
" id="DejaVuSans-110"/>
     </defs>
     <g transform="translate(87.14375 27.597656)scale(0.1 -0.1)">
      <use xlink:href="#DejaVuSans-84"/>
      <use x="60.865234" xlink:href="#DejaVuSans-114"/>
      <use x="101.978516" xlink:href="#DejaVuSans-97"/>
      <use x="163.257812" xlink:href="#DejaVuSans-105"/>
      <use x="191.041016" xlink:href="#DejaVuSans-110"/>
     </g>
    </g>
    <g id="line2d_41">
     <path d="M 59.14375 38.775781 
L 79.14375 38.775781 
" style="fill:none;stroke:#4daf4a;stroke-linecap:square;stroke-width:1.5;"/>
    </g>
    <g id="line2d_42"/>
    <g id="text_22">
     <!-- Test -->
     <defs>
      <path d="M 56.203125 29.59375 
L 56.203125 25.203125 
L 14.890625 25.203125 
Q 15.484375 15.921875 20.484375 11.0625 
Q 25.484375 6.203125 34.421875 6.203125 
Q 39.59375 6.203125 44.453125 7.46875 
Q 49.3125 8.734375 54.109375 11.28125 
L 54.109375 2.78125 
Q 49.265625 0.734375 44.1875 -0.34375 
Q 39.109375 -1.421875 33.890625 -1.421875 
Q 20.796875 -1.421875 13.15625 6.1875 
Q 5.515625 13.8125 5.515625 26.8125 
Q 5.515625 40.234375 12.765625 48.109375 
Q 20.015625 56 32.328125 56 
Q 43.359375 56 49.78125 48.890625 
Q 56.203125 41.796875 56.203125 29.59375 
z
M 47.21875 32.234375 
Q 47.125 39.59375 43.09375 43.984375 
Q 39.0625 48.390625 32.421875 48.390625 
Q 24.90625 48.390625 20.390625 44.140625 
Q 15.875 39.890625 15.1875 32.171875 
z
" id="DejaVuSans-101"/>
      <path d="M 44.28125 53.078125 
L 44.28125 44.578125 
Q 40.484375 46.53125 36.375 47.5 
Q 32.28125 48.484375 27.875 48.484375 
Q 21.1875 48.484375 17.84375 46.4375 
Q 14.5 44.390625 14.5 40.28125 
Q 14.5 37.15625 16.890625 35.375 
Q 19.28125 33.59375 26.515625 31.984375 
L 29.59375 31.296875 
Q 39.15625 29.25 43.1875 25.515625 
Q 47.21875 21.78125 47.21875 15.09375 
Q 47.21875 7.46875 41.1875 3.015625 
Q 35.15625 -1.421875 24.609375 -1.421875 
Q 20.21875 -1.421875 15.453125 -0.5625 
Q 10.6875 0.296875 5.421875 2 
L 5.421875 11.28125 
Q 10.40625 8.6875 15.234375 7.390625 
Q 20.0625 6.109375 24.8125 6.109375 
Q 31.15625 6.109375 34.5625 8.28125 
Q 37.984375 10.453125 37.984375 14.40625 
Q 37.984375 18.0625 35.515625 20.015625 
Q 33.0625 21.96875 24.703125 23.78125 
L 21.578125 24.515625 
Q 13.234375 26.265625 9.515625 29.90625 
Q 5.8125 33.546875 5.8125 39.890625 
Q 5.8125 47.609375 11.28125 51.796875 
Q 16.75 56 26.8125 56 
Q 31.78125 56 36.171875 55.265625 
Q 40.578125 54.546875 44.28125 53.078125 
z
" id="DejaVuSans-115"/>
      <path d="M 18.3125 70.21875 
L 18.3125 54.6875 
L 36.8125 54.6875 
L 36.8125 47.703125 
L 18.3125 47.703125 
L 18.3125 18.015625 
Q 18.3125 11.328125 20.140625 9.421875 
Q 21.96875 7.515625 27.59375 7.515625 
L 36.8125 7.515625 
L 36.8125 0 
L 27.59375 0 
Q 17.1875 0 13.234375 3.875 
Q 9.28125 7.765625 9.28125 18.015625 
L 9.28125 47.703125 
L 2.6875 47.703125 
L 2.6875 54.6875 
L 9.28125 54.6875 
L 9.28125 70.21875 
z
" id="DejaVuSans-116"/>
     </defs>
     <g transform="translate(87.14375 42.275781)scale(0.1 -0.1)">
      <use xlink:href="#DejaVuSans-84"/>
      <use x="60.818359" xlink:href="#DejaVuSans-101"/>
      <use x="122.341797" xlink:href="#DejaVuSans-115"/>
      <use x="174.441406" xlink:href="#DejaVuSans-116"/>
     </g>
    </g>
   </g>
  </g>
 </g>
 <defs>
  <clipPath id="pca27c128ea">
   <rect height="326.16" width="669.6" x="50.14375" y="10.999219"/>
  </clipPath>
 </defs>
</svg>
